M48
;DRILL file {KiCad (5.0.1)-3} date 12/25/2019 2:02:56 PM
;FORMAT={-:-/ absolute / inch / decimal}
FMAT,2
INCH,TZ
T1C0.0079
T2C0.0118
T3C0.0157
T4C0.0394
%
G90
G05
M72
T1
X6.0332Y-4.39
X6.0332Y-4.4652
X6.0844Y-4.39
X6.0844Y-4.4652
X6.1356Y-4.39
X6.1356Y-4.4652
T2
X5.1Y-3.55
X5.1Y-3.6
X5.1Y-3.65
X5.1Y-3.7
X5.1Y-3.75
X5.1Y-3.8
X5.1Y-4.15
X5.1Y-4.2
X5.1Y-4.25
X5.1Y-4.3
X5.14Y-3.56
X5.15Y-3.65
X5.15Y-3.7
X5.15Y-3.75
X5.15Y-3.8
X5.15Y-4.15
X5.15Y-4.2
X5.15Y-4.25
X5.2Y-3.65
X5.2Y-3.7
X5.2Y-3.75
X5.2Y-3.8
X5.2Y-3.85
X5.2Y-4.15
X5.2Y-4.2
X5.2Y-4.25
X5.2Y-4.3
X5.2Y-4.35
X5.2Y-4.4
X5.2Y-4.45
X5.2Y-4.5
X5.2Y-4.6
X5.2Y-4.65
X5.2Y-4.7
X5.2Y-4.75
X5.25Y-3.65
X5.25Y-3.7
X5.25Y-3.75
X5.25Y-3.8
X5.25Y-3.85
X5.25Y-4.15
X5.25Y-4.2
X5.25Y-4.25
X5.25Y-4.3
X5.25Y-4.5
X5.25Y-4.55
X5.25Y-4.65
X5.275Y-3.505
X5.3Y-3.65
X5.3Y-3.7
X5.3Y-3.75
X5.3Y-3.8
X5.3Y-3.85
X5.3Y-4.06
X5.3Y-4.15
X5.3Y-4.2
X5.3Y-4.25
X5.3Y-4.3
X5.31Y-3.92
X5.355Y-3.74
X5.38Y-3.51
X5.381Y-3.43
X5.381Y-3.461
X5.4Y-3.43
X5.4Y-3.46
X5.4Y-3.695
X5.4009Y-3.6178
X5.42Y-3.43
X5.42Y-3.46
X5.423Y-3.7055
X5.44Y-3.43
X5.44Y-3.46
X5.4595Y-3.5703
X5.46Y-3.43
X5.46Y-3.46
X5.4749Y-3.7549
X5.48Y-3.43
X5.48Y-3.46
X5.48Y-3.46
X5.48Y-3.46
X5.48Y-3.54
X5.49Y-3.59
X5.49Y-3.675
X5.49Y-3.6967
X5.49Y-3.7183
X5.495Y-3.635
X5.5Y-3.43
X5.5Y-3.46
X5.5Y-4.7
X5.52Y-3.43
X5.52Y-3.46
X5.54Y-3.43
X5.54Y-3.46
X5.5423Y-3.5096
X5.55Y-4.3
X5.55Y-4.35
X5.55Y-4.4
X5.55Y-4.45
X5.5507Y-4.0055
X5.556Y-3.49
X5.56Y-3.43
X5.56Y-3.46
X5.56Y-3.58
X5.56Y-3.745
X5.58Y-3.43
X5.58Y-3.46
X5.58Y-3.82
X5.595Y-3.51
X5.6Y-3.43
X5.6Y-3.46
X5.618Y-3.492
X5.62Y-3.43
X5.62Y-3.46
X5.63Y-4.47
X5.635Y-3.87
X5.64Y-3.43
X5.64Y-3.46
X5.6404Y-4.1004
X5.6447Y-4.1797
X5.645Y-3.66
X5.66Y-3.43
X5.66Y-3.465
X5.66Y-3.505
X5.66Y-4.195
X5.66Y-4.325
X5.66Y-4.35
X5.6632Y-4.2818
X5.6737Y-4.1417
X5.675Y-3.485
X5.675Y-4.4
X5.68Y-3.44
X5.68Y-3.96
X5.695Y-3.5
X5.7Y-3.46
X5.72Y-3.475
X5.72Y-3.92
X5.7283Y-3.82
X5.73Y-3.58
X5.73Y-3.745
X5.74Y-3.495
X5.745Y-4.24
X5.75Y-3.82
X5.78Y-3.52
X5.78Y-3.795
X5.79Y-4.0728
X5.79Y-4.33
X5.79Y-4.38
X5.795Y-3.65
X5.8Y-3.59
X5.8Y-3.6749
X5.8Y-3.73
X5.8Y-4.5
X5.81Y-3.615
X5.81Y-4.5728
X5.825Y-3.53
X5.825Y-3.595
X5.83Y-4.5728
X5.835Y-3.79
X5.835Y-3.85
X5.845Y-3.995
X5.85Y-3.9
X5.85Y-3.95
X5.85Y-4.45
X5.85Y-4.5
X5.8569Y-4.57
X5.88Y-4.075
X5.88Y-4.135
X5.88Y-4.19
X5.9Y-3.9
X5.9Y-3.95
X5.9Y-4.
X5.9Y-4.45
X5.9Y-4.5
X5.9Y-4.55
X5.915Y-4.425
X5.9271Y-4.3921
X5.94Y-4.075
X5.94Y-4.135
X5.94Y-4.19
X5.9492Y-4.3478
X5.95Y-3.9
X5.95Y-3.95
X5.95Y-4.
X5.95Y-4.3
X5.955Y-3.445
X5.955Y-3.5
X5.955Y-3.565
X5.96Y-3.79
X5.96Y-3.85
X5.96Y-4.04
X5.97Y-3.675
X5.99Y-3.71
X5.995Y-3.735
X6.0009Y-4.015
X6.005Y-3.63
X6.0094Y-4.58
X6.0094Y-4.6
X6.0094Y-4.62
X6.01Y-4.64
X6.0465Y-3.766
X6.0465Y-3.828
X6.0594Y-4.5319
X6.095Y-3.98
X6.11Y-4.1
X6.16Y-4.05
X6.16Y-4.28
X6.165Y-4.6499
X6.165Y-4.675
X6.165Y-4.7
X6.165Y-4.72
X6.165Y-4.74
T3
X5.31Y-4.55
X5.345Y-4.548
X5.435Y-4.68
X5.575Y-4.515
X6.1121Y-4.245
X6.115Y-4.2097
X6.18Y-3.95
T4
X5.3901Y-3.9048
X5.3901Y-4.0048
X5.3901Y-4.1048
X5.3901Y-4.2048
X5.3901Y-4.3048
X5.3901Y-4.4048
X5.4901Y-3.9048
X5.4901Y-4.0048
X5.4901Y-4.1048
X5.4901Y-4.2048
X5.4901Y-4.3048
X5.4901Y-4.4048
T0
M30
