M48
;DRILL file {KiCad (5.0.1)-3} date 11/22/2019 4:36:35 PM
;FORMAT={-:-/ absolute / inch / decimal}
FMAT,2
INCH,TZ
T1C0.0079
T2C0.0157
%
G90
G05
M72
T1
X8.3964Y-4.1588
X8.3964Y-4.21
X8.3964Y-4.2612
X8.4716Y-4.1588
X8.4716Y-4.21
X8.4716Y-4.2612
T2
X7.34Y-3.91
X7.356Y-3.604
X7.374Y-4.1626
X7.39Y-4.52
X7.396Y-3.552
X7.416Y-3.994
X7.416Y-4.13
X7.418Y-3.608
X7.444Y-3.55
X7.47Y-3.928
X7.478Y-3.606
X7.4934Y-3.7666
X7.494Y-4.448
X7.5Y-4.49
X7.51Y-3.8128
X7.512Y-3.702
X7.526Y-3.6371
X7.53Y-3.752
X7.54Y-3.356
X7.5427Y-4.0451
X7.5436Y-3.846
X7.5581Y-4.3393
X7.566Y-4.19
X7.57Y-4.492
X7.6217Y-4.3609
X7.646Y-4.044
X7.6491Y-3.4627
X7.666Y-4.276
X7.676Y-4.32
X7.704Y-4.107
X7.704Y-4.1726
X7.704Y-4.212
X7.74Y-4.42
X7.754Y-3.362
X7.758Y-3.47
X7.764Y-3.636
X7.764Y-3.688
X7.764Y-3.748
X7.766Y-4.098
X7.788Y-4.002
X7.798Y-4.402
X7.8132Y-3.88
X7.819Y-4.1688
X7.82Y-3.838
X7.836Y-4.222
X7.848Y-3.948
X7.85Y-3.9
X7.858Y-4.542
X7.86Y-3.764
X7.866Y-4.408
X7.888Y-3.948
X7.895Y-4.482
X7.904Y-3.48
X7.914Y-4.2872
X7.918Y-3.866
X7.924Y-3.5369
X7.9266Y-3.948
X7.9354Y-3.9096
X7.9481Y-3.5681
X7.9596Y-4.1427
X7.97Y-4.38
X8.028Y-4.14
X8.078Y-4.3797
X8.082Y-4.48
X8.11Y-4.136
X8.14Y-4.43
X8.2002Y-4.2605
X8.214Y-4.458
X8.222Y-4.1846
X8.24Y-4.362
X8.25Y-4.4001
X8.2618Y-4.2463
X8.262Y-4.184
X8.2712Y-4.4902
X8.309Y-4.4532
X8.33Y-4.54
X8.358Y-4.38
X8.3666Y-4.491
X8.588Y-4.212
X8.602Y-4.48
X8.6407Y-4.4874
X8.648Y-4.362
X8.648Y-4.422
X8.728Y-4.176
X8.728Y-4.238
X8.7424Y-4.5471
X8.762Y-4.176
X8.762Y-4.24
X8.885Y-4.536
X8.89Y-4.156
X8.89Y-4.202
X8.89Y-4.25
X8.92Y-4.4405
X8.994Y-4.464
X9.006Y-4.264
X9.0581Y-4.3223
X9.0634Y-4.4096
X9.08Y-4.526
X9.0898Y-4.44
T0
M30
