G04 #@! TF.GenerationSoftware,KiCad,Pcbnew,(5.0.1)-3*
G04 #@! TF.CreationDate,2019-11-22T16:36:38-05:00*
G04 #@! TF.ProjectId,SmartWatch,536D61727457617463682E6B69636164,rev?*
G04 #@! TF.SameCoordinates,Original*
G04 #@! TF.FileFunction,Legend,Top*
G04 #@! TF.FilePolarity,Positive*
%FSLAX46Y46*%
G04 Gerber Fmt 4.6, Leading zero omitted, Abs format (unit mm)*
G04 Created by KiCad (PCBNEW (5.0.1)-3) date 11/22/2019 4:36:38 PM*
%MOMM*%
%LPD*%
G01*
G04 APERTURE LIST*
%ADD10C,0.250000*%
%ADD11C,0.120000*%
%ADD12C,0.200000*%
%ADD13C,0.127000*%
%ADD14C,0.150000*%
G04 APERTURE END LIST*
D10*
X185593885Y-79887771D02*
X185927219Y-79887771D01*
X186070076Y-80411580D02*
X185593885Y-80411580D01*
X185593885Y-79411580D01*
X186070076Y-79411580D01*
X186451028Y-80363961D02*
X186546266Y-80411580D01*
X186736742Y-80411580D01*
X186831980Y-80363961D01*
X186879600Y-80268723D01*
X186879600Y-80221104D01*
X186831980Y-80125866D01*
X186736742Y-80078247D01*
X186593885Y-80078247D01*
X186498647Y-80030628D01*
X186451028Y-79935390D01*
X186451028Y-79887771D01*
X186498647Y-79792533D01*
X186593885Y-79744914D01*
X186736742Y-79744914D01*
X186831980Y-79792533D01*
X187308171Y-79744914D02*
X187308171Y-80744914D01*
X187308171Y-79792533D02*
X187403409Y-79744914D01*
X187593885Y-79744914D01*
X187689123Y-79792533D01*
X187736742Y-79840152D01*
X187784361Y-79935390D01*
X187784361Y-80221104D01*
X187736742Y-80316342D01*
X187689123Y-80363961D01*
X187593885Y-80411580D01*
X187403409Y-80411580D01*
X187308171Y-80363961D01*
X188117695Y-79411580D02*
X188736742Y-79411580D01*
X188403409Y-79792533D01*
X188546266Y-79792533D01*
X188641504Y-79840152D01*
X188689123Y-79887771D01*
X188736742Y-79983009D01*
X188736742Y-80221104D01*
X188689123Y-80316342D01*
X188641504Y-80363961D01*
X188546266Y-80411580D01*
X188260552Y-80411580D01*
X188165314Y-80363961D01*
X188117695Y-80316342D01*
X189117695Y-79506819D02*
X189165314Y-79459200D01*
X189260552Y-79411580D01*
X189498647Y-79411580D01*
X189593885Y-79459200D01*
X189641504Y-79506819D01*
X189689123Y-79602057D01*
X189689123Y-79697295D01*
X189641504Y-79840152D01*
X189070076Y-80411580D01*
X189689123Y-80411580D01*
X190831980Y-80363961D02*
X190974838Y-80411580D01*
X191212933Y-80411580D01*
X191308171Y-80363961D01*
X191355790Y-80316342D01*
X191403409Y-80221104D01*
X191403409Y-80125866D01*
X191355790Y-80030628D01*
X191308171Y-79983009D01*
X191212933Y-79935390D01*
X191022457Y-79887771D01*
X190927219Y-79840152D01*
X190879600Y-79792533D01*
X190831980Y-79697295D01*
X190831980Y-79602057D01*
X190879600Y-79506819D01*
X190927219Y-79459200D01*
X191022457Y-79411580D01*
X191260552Y-79411580D01*
X191403409Y-79459200D01*
X191831980Y-80411580D02*
X191831980Y-79744914D01*
X191831980Y-79840152D02*
X191879600Y-79792533D01*
X191974838Y-79744914D01*
X192117695Y-79744914D01*
X192212933Y-79792533D01*
X192260552Y-79887771D01*
X192260552Y-80411580D01*
X192260552Y-79887771D02*
X192308171Y-79792533D01*
X192403409Y-79744914D01*
X192546266Y-79744914D01*
X192641504Y-79792533D01*
X192689123Y-79887771D01*
X192689123Y-80411580D01*
X193593885Y-80411580D02*
X193593885Y-79887771D01*
X193546266Y-79792533D01*
X193451028Y-79744914D01*
X193260552Y-79744914D01*
X193165314Y-79792533D01*
X193593885Y-80363961D02*
X193498647Y-80411580D01*
X193260552Y-80411580D01*
X193165314Y-80363961D01*
X193117695Y-80268723D01*
X193117695Y-80173485D01*
X193165314Y-80078247D01*
X193260552Y-80030628D01*
X193498647Y-80030628D01*
X193593885Y-79983009D01*
X194070076Y-80411580D02*
X194070076Y-79744914D01*
X194070076Y-79935390D02*
X194117695Y-79840152D01*
X194165314Y-79792533D01*
X194260552Y-79744914D01*
X194355790Y-79744914D01*
X194546266Y-79744914D02*
X194927219Y-79744914D01*
X194689123Y-79411580D02*
X194689123Y-80268723D01*
X194736742Y-80363961D01*
X194831980Y-80411580D01*
X194927219Y-80411580D01*
X195165314Y-79411580D02*
X195403409Y-80411580D01*
X195593885Y-79697295D01*
X195784361Y-80411580D01*
X196022457Y-79411580D01*
X196831980Y-80411580D02*
X196831980Y-79887771D01*
X196784361Y-79792533D01*
X196689123Y-79744914D01*
X196498647Y-79744914D01*
X196403409Y-79792533D01*
X196831980Y-80363961D02*
X196736742Y-80411580D01*
X196498647Y-80411580D01*
X196403409Y-80363961D01*
X196355790Y-80268723D01*
X196355790Y-80173485D01*
X196403409Y-80078247D01*
X196498647Y-80030628D01*
X196736742Y-80030628D01*
X196831980Y-79983009D01*
X197165314Y-79744914D02*
X197546266Y-79744914D01*
X197308171Y-79411580D02*
X197308171Y-80268723D01*
X197355790Y-80363961D01*
X197451028Y-80411580D01*
X197546266Y-80411580D01*
X198308171Y-80363961D02*
X198212933Y-80411580D01*
X198022457Y-80411580D01*
X197927219Y-80363961D01*
X197879600Y-80316342D01*
X197831980Y-80221104D01*
X197831980Y-79935390D01*
X197879600Y-79840152D01*
X197927219Y-79792533D01*
X198022457Y-79744914D01*
X198212933Y-79744914D01*
X198308171Y-79792533D01*
X198736742Y-80411580D02*
X198736742Y-79411580D01*
X199165314Y-80411580D02*
X199165314Y-79887771D01*
X199117695Y-79792533D01*
X199022457Y-79744914D01*
X198879600Y-79744914D01*
X198784361Y-79792533D01*
X198736742Y-79840152D01*
D11*
G04 #@! TO.C,C10*
X197406800Y-85994021D02*
X197406800Y-86319579D01*
X198426800Y-85994021D02*
X198426800Y-86319579D01*
G04 #@! TO.C,C2*
X220266800Y-106995179D02*
X220266800Y-106669621D01*
X221286800Y-106995179D02*
X221286800Y-106669621D01*
G04 #@! TO.C,C3*
X219864400Y-106995179D02*
X219864400Y-106669621D01*
X218844400Y-106995179D02*
X218844400Y-106669621D01*
G04 #@! TO.C,C1*
X209204779Y-105615200D02*
X208879221Y-105615200D01*
X209204779Y-104595200D02*
X208879221Y-104595200D01*
G04 #@! TO.C,U1*
X217673600Y-109494000D02*
X212273600Y-109494000D01*
X216173600Y-104374000D02*
X212273600Y-104374000D01*
D12*
G04 #@! TO.C,SW4*
X186492000Y-114968000D02*
G75*
G03X186492000Y-114968000I-100000J0D01*
G01*
D13*
X187742000Y-114518000D02*
X192242000Y-114518000D01*
X187742000Y-114518000D02*
X187742000Y-110018000D01*
X192242000Y-110018000D02*
X187742000Y-110018000D01*
X192242000Y-110018000D02*
X192242000Y-114518000D01*
G04 #@! TO.C,SW5*
X202402000Y-110018000D02*
X202402000Y-114518000D01*
X202402000Y-110018000D02*
X197902000Y-110018000D01*
X197902000Y-114518000D02*
X197902000Y-110018000D01*
X197902000Y-114518000D02*
X202402000Y-114518000D01*
D12*
X196652000Y-114968000D02*
G75*
G03X196652000Y-114968000I-100000J0D01*
G01*
G04 #@! TO.C,SW1*
X206812000Y-114968000D02*
G75*
G03X206812000Y-114968000I-100000J0D01*
G01*
D13*
X208062000Y-114518000D02*
X212562000Y-114518000D01*
X208062000Y-114518000D02*
X208062000Y-110018000D01*
X212562000Y-110018000D02*
X208062000Y-110018000D01*
X212562000Y-110018000D02*
X212562000Y-114518000D01*
G04 #@! TO.C,SW2*
X222722000Y-110018000D02*
X222722000Y-114518000D01*
X222722000Y-110018000D02*
X218222000Y-110018000D01*
X218222000Y-114518000D02*
X218222000Y-110018000D01*
X218222000Y-114518000D02*
X222722000Y-114518000D01*
D12*
X216972000Y-114968000D02*
G75*
G03X216972000Y-114968000I-100000J0D01*
G01*
G04 #@! TO.C,SW3*
X227132000Y-114968000D02*
G75*
G03X227132000Y-114968000I-100000J0D01*
G01*
D13*
X228382000Y-114518000D02*
X232882000Y-114518000D01*
X228382000Y-114518000D02*
X228382000Y-110018000D01*
X232882000Y-110018000D02*
X228382000Y-110018000D01*
X232882000Y-110018000D02*
X232882000Y-114518000D01*
D14*
G04 #@! TO.C,J2*
X203200000Y-100584000D02*
X198120000Y-100584000D01*
X198120000Y-100584000D02*
X198120000Y-109474000D01*
X198120000Y-109474000D02*
X203200000Y-109474000D01*
X203200000Y-109474000D02*
X203200000Y-100584000D01*
D11*
G04 #@! TO.C,C9*
X189431200Y-93482379D02*
X189431200Y-93156821D01*
X190451200Y-93482379D02*
X190451200Y-93156821D01*
G04 #@! TO.C,C11*
X199849200Y-85994021D02*
X199849200Y-86319579D01*
X198829200Y-85994021D02*
X198829200Y-86319579D01*
G04 #@! TO.C,C12*
X187352400Y-93431579D02*
X187352400Y-93106021D01*
X186332400Y-93431579D02*
X186332400Y-93106021D01*
G04 #@! TO.C,C13*
X187856400Y-96784379D02*
X187856400Y-96458821D01*
X188876400Y-96784379D02*
X188876400Y-96458821D01*
G04 #@! TO.C,D1*
X228378400Y-108499200D02*
X228378400Y-107299200D01*
X226528400Y-108499200D02*
X228378400Y-108499200D01*
X226528400Y-107299200D02*
X228378400Y-107299200D01*
G04 #@! TO.C,D3*
X226528400Y-106080000D02*
X228378400Y-106080000D01*
X226528400Y-107280000D02*
X228378400Y-107280000D01*
X228378400Y-107280000D02*
X228378400Y-106080000D01*
G04 #@! TO.C,D4*
X228440400Y-106111600D02*
X228440400Y-104911600D01*
X226590400Y-106111600D02*
X228440400Y-106111600D01*
X226590400Y-104911600D02*
X228440400Y-104911600D01*
G04 #@! TO.C,L1*
X187856400Y-99933979D02*
X187856400Y-99608421D01*
X188876400Y-99933979D02*
X188876400Y-99608421D01*
G04 #@! TO.C,R20*
X188927200Y-93482379D02*
X188927200Y-93156821D01*
X187907200Y-93482379D02*
X187907200Y-93156821D01*
G04 #@! TO.C,R22*
X198993979Y-88851200D02*
X198668421Y-88851200D01*
X198993979Y-87831200D02*
X198668421Y-87831200D01*
G04 #@! TO.C,R18*
X191514000Y-108392279D02*
X191514000Y-108066721D01*
X192534000Y-108392279D02*
X192534000Y-108066721D01*
D13*
G04 #@! TO.C,J3*
X190916000Y-96529000D02*
X190916000Y-89279000D01*
X185686000Y-94594000D02*
X185686000Y-84744000D01*
X185686000Y-84744000D02*
X190916000Y-84744000D01*
X190916000Y-84744000D02*
X190916000Y-85804000D01*
X184903319Y-98044000D02*
G75*
G03X184903319Y-98044000I-87319J0D01*
G01*
D11*
G04 #@! TO.C,C8*
X197360000Y-105501221D02*
X197360000Y-105826779D01*
X196340000Y-105501221D02*
X196340000Y-105826779D01*
G04 #@! TO.C,U4*
X206944800Y-105628800D02*
X205144800Y-105628800D01*
X205144800Y-108848800D02*
X207594800Y-108848800D01*
G04 #@! TO.C,R3*
X196433221Y-109679200D02*
X196758779Y-109679200D01*
X196433221Y-108659200D02*
X196758779Y-108659200D01*
G04 #@! TO.C,R8*
X187309979Y-108608400D02*
X186984421Y-108608400D01*
X187309979Y-109628400D02*
X186984421Y-109628400D01*
G04 #@! TO.C,R4*
X192936400Y-108041221D02*
X192936400Y-108366779D01*
X193956400Y-108041221D02*
X193956400Y-108366779D01*
G04 #@! TO.C,J2*
D14*
X199461428Y-105536952D02*
X199461428Y-104775047D01*
X199842380Y-105156000D02*
X199080476Y-105156000D01*
X202001428Y-105536952D02*
X202001428Y-104775047D01*
G04 #@! TD*
M02*
