G04 #@! TF.GenerationSoftware,KiCad,Pcbnew,(5.0.1)-3*
G04 #@! TF.CreationDate,2019-11-22T16:36:39-05:00*
G04 #@! TF.ProjectId,SmartWatch,536D61727457617463682E6B69636164,rev?*
G04 #@! TF.SameCoordinates,Original*
G04 #@! TF.FileFunction,Soldermask,Bot*
G04 #@! TF.FilePolarity,Negative*
%FSLAX46Y46*%
G04 Gerber Fmt 4.6, Leading zero omitted, Abs format (unit mm)*
G04 Created by KiCad (PCBNEW (5.0.1)-3) date 11/22/2019 4:36:39 PM*
%MOMM*%
%LPD*%
G01*
G04 APERTURE LIST*
%ADD10C,0.100000*%
G04 APERTURE END LIST*
D10*
G36*
X215475477Y-114921450D02*
X215516557Y-114933911D01*
X215554426Y-114954153D01*
X215587613Y-114981387D01*
X215614847Y-115014574D01*
X215635089Y-115052443D01*
X215647550Y-115093523D01*
X215652000Y-115138704D01*
X215652000Y-115747296D01*
X215647550Y-115792477D01*
X215635089Y-115833557D01*
X215614847Y-115871426D01*
X215587613Y-115904613D01*
X215554426Y-115931847D01*
X215516557Y-115952089D01*
X215475477Y-115964550D01*
X215430296Y-115969000D01*
X214896704Y-115969000D01*
X214851523Y-115964550D01*
X214810443Y-115952089D01*
X214772574Y-115931847D01*
X214739387Y-115904613D01*
X214712153Y-115871426D01*
X214691911Y-115833557D01*
X214679450Y-115792477D01*
X214675000Y-115747296D01*
X214675000Y-115138704D01*
X214679450Y-115093523D01*
X214691911Y-115052443D01*
X214712153Y-115014574D01*
X214739387Y-114981387D01*
X214772574Y-114954153D01*
X214810443Y-114933911D01*
X214851523Y-114921450D01*
X214896704Y-114917000D01*
X215430296Y-114917000D01*
X215475477Y-114921450D01*
X215475477Y-114921450D01*
G37*
G36*
X213900477Y-114921450D02*
X213941557Y-114933911D01*
X213979426Y-114954153D01*
X214012613Y-114981387D01*
X214039847Y-115014574D01*
X214060089Y-115052443D01*
X214072550Y-115093523D01*
X214077000Y-115138704D01*
X214077000Y-115747296D01*
X214072550Y-115792477D01*
X214060089Y-115833557D01*
X214039847Y-115871426D01*
X214012613Y-115904613D01*
X213979426Y-115931847D01*
X213941557Y-115952089D01*
X213900477Y-115964550D01*
X213855296Y-115969000D01*
X213321704Y-115969000D01*
X213276523Y-115964550D01*
X213235443Y-115952089D01*
X213197574Y-115931847D01*
X213164387Y-115904613D01*
X213137153Y-115871426D01*
X213116911Y-115833557D01*
X213104450Y-115792477D01*
X213100000Y-115747296D01*
X213100000Y-115138704D01*
X213104450Y-115093523D01*
X213116911Y-115052443D01*
X213137153Y-115014574D01*
X213164387Y-114981387D01*
X213197574Y-114954153D01*
X213235443Y-114933911D01*
X213276523Y-114921450D01*
X213321704Y-114917000D01*
X213855296Y-114917000D01*
X213900477Y-114921450D01*
X213900477Y-114921450D01*
G37*
G36*
X229965477Y-114476450D02*
X230006557Y-114488911D01*
X230044426Y-114509153D01*
X230077613Y-114536387D01*
X230104847Y-114569574D01*
X230125089Y-114607443D01*
X230137550Y-114648523D01*
X230142000Y-114693704D01*
X230142000Y-115227296D01*
X230137550Y-115272477D01*
X230125089Y-115313557D01*
X230104847Y-115351426D01*
X230077613Y-115384613D01*
X230044426Y-115411847D01*
X230006557Y-115432089D01*
X229965477Y-115444550D01*
X229920296Y-115449000D01*
X229311704Y-115449000D01*
X229266523Y-115444550D01*
X229225443Y-115432089D01*
X229187574Y-115411847D01*
X229154387Y-115384613D01*
X229127153Y-115351426D01*
X229106911Y-115313557D01*
X229094450Y-115272477D01*
X229090000Y-115227296D01*
X229090000Y-114693704D01*
X229094450Y-114648523D01*
X229106911Y-114607443D01*
X229127153Y-114569574D01*
X229154387Y-114536387D01*
X229187574Y-114509153D01*
X229225443Y-114488911D01*
X229266523Y-114476450D01*
X229311704Y-114472000D01*
X229920296Y-114472000D01*
X229965477Y-114476450D01*
X229965477Y-114476450D01*
G37*
G36*
X235832000Y-114987000D02*
X233830000Y-114987000D01*
X233830000Y-113085000D01*
X235832000Y-113085000D01*
X235832000Y-114987000D01*
X235832000Y-114987000D01*
G37*
G36*
X233132000Y-114437000D02*
X231430000Y-114437000D01*
X231430000Y-112235000D01*
X233132000Y-112235000D01*
X233132000Y-114437000D01*
X233132000Y-114437000D01*
G37*
G36*
X216036000Y-114431000D02*
X215034000Y-114431000D01*
X215034000Y-113529000D01*
X216036000Y-113529000D01*
X216036000Y-114431000D01*
X216036000Y-114431000D01*
G37*
G36*
X229965477Y-112901450D02*
X230006557Y-112913911D01*
X230044426Y-112934153D01*
X230077613Y-112961387D01*
X230104847Y-112994574D01*
X230125089Y-113032443D01*
X230137550Y-113073523D01*
X230142000Y-113118704D01*
X230142000Y-113652296D01*
X230137550Y-113697477D01*
X230125089Y-113738557D01*
X230104847Y-113776426D01*
X230077613Y-113809613D01*
X230044426Y-113836847D01*
X230006557Y-113857089D01*
X229965477Y-113869550D01*
X229920296Y-113874000D01*
X229311704Y-113874000D01*
X229266523Y-113869550D01*
X229225443Y-113857089D01*
X229187574Y-113836847D01*
X229154387Y-113809613D01*
X229127153Y-113776426D01*
X229106911Y-113738557D01*
X229094450Y-113697477D01*
X229090000Y-113652296D01*
X229090000Y-113118704D01*
X229094450Y-113073523D01*
X229106911Y-113032443D01*
X229127153Y-112994574D01*
X229154387Y-112961387D01*
X229187574Y-112934153D01*
X229225443Y-112913911D01*
X229266523Y-112901450D01*
X229311704Y-112897000D01*
X229920296Y-112897000D01*
X229965477Y-112901450D01*
X229965477Y-112901450D01*
G37*
G36*
X191611477Y-112520650D02*
X191652557Y-112533111D01*
X191690426Y-112553353D01*
X191723613Y-112580587D01*
X191750847Y-112613774D01*
X191771089Y-112651643D01*
X191783550Y-112692723D01*
X191788000Y-112737904D01*
X191788000Y-113271496D01*
X191783550Y-113316677D01*
X191771089Y-113357757D01*
X191750847Y-113395626D01*
X191723613Y-113428813D01*
X191690426Y-113456047D01*
X191652557Y-113476289D01*
X191611477Y-113488750D01*
X191566296Y-113493200D01*
X190957704Y-113493200D01*
X190912523Y-113488750D01*
X190871443Y-113476289D01*
X190833574Y-113456047D01*
X190800387Y-113428813D01*
X190773153Y-113395626D01*
X190752911Y-113357757D01*
X190740450Y-113316677D01*
X190736000Y-113271496D01*
X190736000Y-112737904D01*
X190740450Y-112692723D01*
X190752911Y-112651643D01*
X190773153Y-112613774D01*
X190800387Y-112580587D01*
X190833574Y-112553353D01*
X190871443Y-112533111D01*
X190912523Y-112520650D01*
X190957704Y-112516200D01*
X191566296Y-112516200D01*
X191611477Y-112520650D01*
X191611477Y-112520650D01*
G37*
G36*
X201771477Y-112520650D02*
X201812557Y-112533111D01*
X201850426Y-112553353D01*
X201883613Y-112580587D01*
X201910847Y-112613774D01*
X201931089Y-112651643D01*
X201943550Y-112692723D01*
X201948000Y-112737904D01*
X201948000Y-113271496D01*
X201943550Y-113316677D01*
X201931089Y-113357757D01*
X201910847Y-113395626D01*
X201883613Y-113428813D01*
X201850426Y-113456047D01*
X201812557Y-113476289D01*
X201771477Y-113488750D01*
X201726296Y-113493200D01*
X201117704Y-113493200D01*
X201072523Y-113488750D01*
X201031443Y-113476289D01*
X200993574Y-113456047D01*
X200960387Y-113428813D01*
X200933153Y-113395626D01*
X200912911Y-113357757D01*
X200900450Y-113316677D01*
X200896000Y-113271496D01*
X200896000Y-112737904D01*
X200900450Y-112692723D01*
X200912911Y-112651643D01*
X200933153Y-112613774D01*
X200960387Y-112580587D01*
X200993574Y-112553353D01*
X201031443Y-112533111D01*
X201072523Y-112520650D01*
X201117704Y-112516200D01*
X201726296Y-112516200D01*
X201771477Y-112520650D01*
X201771477Y-112520650D01*
G37*
G36*
X218036000Y-113481000D02*
X217034000Y-113481000D01*
X217034000Y-112579000D01*
X218036000Y-112579000D01*
X218036000Y-113481000D01*
X218036000Y-113481000D01*
G37*
G36*
X194698077Y-111797250D02*
X194739157Y-111809711D01*
X194777026Y-111829953D01*
X194810213Y-111857187D01*
X194837447Y-111890374D01*
X194857689Y-111928243D01*
X194870150Y-111969323D01*
X194874600Y-112014504D01*
X194874600Y-112623096D01*
X194870150Y-112668277D01*
X194857689Y-112709357D01*
X194837447Y-112747226D01*
X194810213Y-112780413D01*
X194777026Y-112807647D01*
X194739157Y-112827889D01*
X194698077Y-112840350D01*
X194652896Y-112844800D01*
X194119304Y-112844800D01*
X194074123Y-112840350D01*
X194033043Y-112827889D01*
X193995174Y-112807647D01*
X193961987Y-112780413D01*
X193934753Y-112747226D01*
X193914511Y-112709357D01*
X193902050Y-112668277D01*
X193897600Y-112623096D01*
X193897600Y-112014504D01*
X193902050Y-111969323D01*
X193914511Y-111928243D01*
X193934753Y-111890374D01*
X193961987Y-111857187D01*
X193995174Y-111829953D01*
X194033043Y-111809711D01*
X194074123Y-111797250D01*
X194119304Y-111792800D01*
X194652896Y-111792800D01*
X194698077Y-111797250D01*
X194698077Y-111797250D01*
G37*
G36*
X196273077Y-111797250D02*
X196314157Y-111809711D01*
X196352026Y-111829953D01*
X196385213Y-111857187D01*
X196412447Y-111890374D01*
X196432689Y-111928243D01*
X196445150Y-111969323D01*
X196449600Y-112014504D01*
X196449600Y-112623096D01*
X196445150Y-112668277D01*
X196432689Y-112709357D01*
X196412447Y-112747226D01*
X196385213Y-112780413D01*
X196352026Y-112807647D01*
X196314157Y-112827889D01*
X196273077Y-112840350D01*
X196227896Y-112844800D01*
X195694304Y-112844800D01*
X195649123Y-112840350D01*
X195608043Y-112827889D01*
X195570174Y-112807647D01*
X195536987Y-112780413D01*
X195509753Y-112747226D01*
X195489511Y-112709357D01*
X195477050Y-112668277D01*
X195472600Y-112623096D01*
X195472600Y-112014504D01*
X195477050Y-111969323D01*
X195489511Y-111928243D01*
X195509753Y-111890374D01*
X195536987Y-111857187D01*
X195570174Y-111829953D01*
X195608043Y-111809711D01*
X195649123Y-111797250D01*
X195694304Y-111792800D01*
X196227896Y-111792800D01*
X196273077Y-111797250D01*
X196273077Y-111797250D01*
G37*
G36*
X219145077Y-111860250D02*
X219186157Y-111872711D01*
X219224026Y-111892953D01*
X219257213Y-111920187D01*
X219284447Y-111953374D01*
X219304689Y-111991243D01*
X219317150Y-112032323D01*
X219321600Y-112077504D01*
X219321600Y-112611096D01*
X219317150Y-112656277D01*
X219304689Y-112697357D01*
X219284447Y-112735226D01*
X219257213Y-112768413D01*
X219224026Y-112795647D01*
X219186157Y-112815889D01*
X219145077Y-112828350D01*
X219099896Y-112832800D01*
X218491304Y-112832800D01*
X218446123Y-112828350D01*
X218405043Y-112815889D01*
X218367174Y-112795647D01*
X218333987Y-112768413D01*
X218306753Y-112735226D01*
X218286511Y-112697357D01*
X218274050Y-112656277D01*
X218269600Y-112611096D01*
X218269600Y-112077504D01*
X218274050Y-112032323D01*
X218286511Y-111991243D01*
X218306753Y-111953374D01*
X218333987Y-111920187D01*
X218367174Y-111892953D01*
X218405043Y-111872711D01*
X218446123Y-111860250D01*
X218491304Y-111855800D01*
X219099896Y-111855800D01*
X219145077Y-111860250D01*
X219145077Y-111860250D01*
G37*
G36*
X208883477Y-111809450D02*
X208924557Y-111821911D01*
X208962426Y-111842153D01*
X208995613Y-111869387D01*
X209022847Y-111902574D01*
X209043089Y-111940443D01*
X209055550Y-111981523D01*
X209060000Y-112026704D01*
X209060000Y-112560296D01*
X209055550Y-112605477D01*
X209043089Y-112646557D01*
X209022847Y-112684426D01*
X208995613Y-112717613D01*
X208962426Y-112744847D01*
X208924557Y-112765089D01*
X208883477Y-112777550D01*
X208838296Y-112782000D01*
X208229704Y-112782000D01*
X208184523Y-112777550D01*
X208143443Y-112765089D01*
X208105574Y-112744847D01*
X208072387Y-112717613D01*
X208045153Y-112684426D01*
X208024911Y-112646557D01*
X208012450Y-112605477D01*
X208008000Y-112560296D01*
X208008000Y-112026704D01*
X208012450Y-111981523D01*
X208024911Y-111940443D01*
X208045153Y-111902574D01*
X208072387Y-111869387D01*
X208105574Y-111842153D01*
X208143443Y-111821911D01*
X208184523Y-111809450D01*
X208229704Y-111805000D01*
X208838296Y-111805000D01*
X208883477Y-111809450D01*
X208883477Y-111809450D01*
G37*
G36*
X228073677Y-111543250D02*
X228114757Y-111555711D01*
X228152626Y-111575953D01*
X228185813Y-111603187D01*
X228213047Y-111636374D01*
X228233289Y-111674243D01*
X228245750Y-111715323D01*
X228250200Y-111760504D01*
X228250200Y-112369096D01*
X228245750Y-112414277D01*
X228233289Y-112455357D01*
X228213047Y-112493226D01*
X228185813Y-112526413D01*
X228152626Y-112553647D01*
X228114757Y-112573889D01*
X228073677Y-112586350D01*
X228028496Y-112590800D01*
X227494904Y-112590800D01*
X227449723Y-112586350D01*
X227408643Y-112573889D01*
X227370774Y-112553647D01*
X227337587Y-112526413D01*
X227310353Y-112493226D01*
X227290111Y-112455357D01*
X227277650Y-112414277D01*
X227273200Y-112369096D01*
X227273200Y-111760504D01*
X227277650Y-111715323D01*
X227290111Y-111674243D01*
X227310353Y-111636374D01*
X227337587Y-111603187D01*
X227370774Y-111575953D01*
X227408643Y-111555711D01*
X227449723Y-111543250D01*
X227494904Y-111538800D01*
X228028496Y-111538800D01*
X228073677Y-111543250D01*
X228073677Y-111543250D01*
G37*
G36*
X229648677Y-111543250D02*
X229689757Y-111555711D01*
X229727626Y-111575953D01*
X229760813Y-111603187D01*
X229788047Y-111636374D01*
X229808289Y-111674243D01*
X229820750Y-111715323D01*
X229825200Y-111760504D01*
X229825200Y-112369096D01*
X229820750Y-112414277D01*
X229808289Y-112455357D01*
X229788047Y-112493226D01*
X229760813Y-112526413D01*
X229727626Y-112553647D01*
X229689757Y-112573889D01*
X229648677Y-112586350D01*
X229603496Y-112590800D01*
X229069904Y-112590800D01*
X229024723Y-112586350D01*
X228983643Y-112573889D01*
X228945774Y-112553647D01*
X228912587Y-112526413D01*
X228885353Y-112493226D01*
X228865111Y-112455357D01*
X228852650Y-112414277D01*
X228848200Y-112369096D01*
X228848200Y-111760504D01*
X228852650Y-111715323D01*
X228865111Y-111674243D01*
X228885353Y-111636374D01*
X228912587Y-111603187D01*
X228945774Y-111575953D01*
X228983643Y-111555711D01*
X229024723Y-111543250D01*
X229069904Y-111538800D01*
X229603496Y-111538800D01*
X229648677Y-111543250D01*
X229648677Y-111543250D01*
G37*
G36*
X216036000Y-112531000D02*
X215034000Y-112531000D01*
X215034000Y-111629000D01*
X216036000Y-111629000D01*
X216036000Y-112531000D01*
X216036000Y-112531000D01*
G37*
G36*
X235832000Y-112437000D02*
X233830000Y-112437000D01*
X233830000Y-110435000D01*
X235832000Y-110435000D01*
X235832000Y-112437000D01*
X235832000Y-112437000D01*
G37*
G36*
X211550477Y-111428450D02*
X211591557Y-111440911D01*
X211629426Y-111461153D01*
X211662613Y-111488387D01*
X211689847Y-111521574D01*
X211710089Y-111559443D01*
X211722550Y-111600523D01*
X211727000Y-111645704D01*
X211727000Y-112179296D01*
X211722550Y-112224477D01*
X211710089Y-112265557D01*
X211689847Y-112303426D01*
X211662613Y-112336613D01*
X211629426Y-112363847D01*
X211591557Y-112384089D01*
X211550477Y-112396550D01*
X211505296Y-112401000D01*
X210896704Y-112401000D01*
X210851523Y-112396550D01*
X210810443Y-112384089D01*
X210772574Y-112363847D01*
X210739387Y-112336613D01*
X210712153Y-112303426D01*
X210691911Y-112265557D01*
X210679450Y-112224477D01*
X210675000Y-112179296D01*
X210675000Y-111645704D01*
X210679450Y-111600523D01*
X210691911Y-111559443D01*
X210712153Y-111521574D01*
X210739387Y-111488387D01*
X210772574Y-111461153D01*
X210810443Y-111440911D01*
X210851523Y-111428450D01*
X210896704Y-111424000D01*
X211505296Y-111424000D01*
X211550477Y-111428450D01*
X211550477Y-111428450D01*
G37*
G36*
X191611477Y-110945650D02*
X191652557Y-110958111D01*
X191690426Y-110978353D01*
X191723613Y-111005587D01*
X191750847Y-111038774D01*
X191771089Y-111076643D01*
X191783550Y-111117723D01*
X191788000Y-111162904D01*
X191788000Y-111696496D01*
X191783550Y-111741677D01*
X191771089Y-111782757D01*
X191750847Y-111820626D01*
X191723613Y-111853813D01*
X191690426Y-111881047D01*
X191652557Y-111901289D01*
X191611477Y-111913750D01*
X191566296Y-111918200D01*
X190957704Y-111918200D01*
X190912523Y-111913750D01*
X190871443Y-111901289D01*
X190833574Y-111881047D01*
X190800387Y-111853813D01*
X190773153Y-111820626D01*
X190752911Y-111782757D01*
X190740450Y-111741677D01*
X190736000Y-111696496D01*
X190736000Y-111162904D01*
X190740450Y-111117723D01*
X190752911Y-111076643D01*
X190773153Y-111038774D01*
X190800387Y-111005587D01*
X190833574Y-110978353D01*
X190871443Y-110958111D01*
X190912523Y-110945650D01*
X190957704Y-110941200D01*
X191566296Y-110941200D01*
X191611477Y-110945650D01*
X191611477Y-110945650D01*
G37*
G36*
X201771477Y-110945650D02*
X201812557Y-110958111D01*
X201850426Y-110978353D01*
X201883613Y-111005587D01*
X201910847Y-111038774D01*
X201931089Y-111076643D01*
X201943550Y-111117723D01*
X201948000Y-111162904D01*
X201948000Y-111696496D01*
X201943550Y-111741677D01*
X201931089Y-111782757D01*
X201910847Y-111820626D01*
X201883613Y-111853813D01*
X201850426Y-111881047D01*
X201812557Y-111901289D01*
X201771477Y-111913750D01*
X201726296Y-111918200D01*
X201117704Y-111918200D01*
X201072523Y-111913750D01*
X201031443Y-111901289D01*
X200993574Y-111881047D01*
X200960387Y-111853813D01*
X200933153Y-111820626D01*
X200912911Y-111782757D01*
X200900450Y-111741677D01*
X200896000Y-111696496D01*
X200896000Y-111162904D01*
X200900450Y-111117723D01*
X200912911Y-111076643D01*
X200933153Y-111038774D01*
X200960387Y-111005587D01*
X200993574Y-110978353D01*
X201031443Y-110958111D01*
X201072523Y-110945650D01*
X201117704Y-110941200D01*
X201726296Y-110941200D01*
X201771477Y-110945650D01*
X201771477Y-110945650D01*
G37*
G36*
X232882000Y-111787000D02*
X231430000Y-111787000D01*
X231430000Y-111285000D01*
X232882000Y-111285000D01*
X232882000Y-111787000D01*
X232882000Y-111787000D01*
G37*
G36*
X198508077Y-110273250D02*
X198549157Y-110285711D01*
X198587026Y-110305953D01*
X198620213Y-110333187D01*
X198647447Y-110366374D01*
X198667689Y-110404243D01*
X198680150Y-110445323D01*
X198684600Y-110490504D01*
X198684600Y-111099096D01*
X198680150Y-111144277D01*
X198667689Y-111185357D01*
X198647447Y-111223226D01*
X198620213Y-111256413D01*
X198587026Y-111283647D01*
X198549157Y-111303889D01*
X198508077Y-111316350D01*
X198462896Y-111320800D01*
X197929304Y-111320800D01*
X197884123Y-111316350D01*
X197843043Y-111303889D01*
X197805174Y-111283647D01*
X197771987Y-111256413D01*
X197744753Y-111223226D01*
X197724511Y-111185357D01*
X197712050Y-111144277D01*
X197707600Y-111099096D01*
X197707600Y-110490504D01*
X197712050Y-110445323D01*
X197724511Y-110404243D01*
X197744753Y-110366374D01*
X197771987Y-110333187D01*
X197805174Y-110305953D01*
X197843043Y-110285711D01*
X197884123Y-110273250D01*
X197929304Y-110268800D01*
X198462896Y-110268800D01*
X198508077Y-110273250D01*
X198508077Y-110273250D01*
G37*
G36*
X200083077Y-110273250D02*
X200124157Y-110285711D01*
X200162026Y-110305953D01*
X200195213Y-110333187D01*
X200222447Y-110366374D01*
X200242689Y-110404243D01*
X200255150Y-110445323D01*
X200259600Y-110490504D01*
X200259600Y-111099096D01*
X200255150Y-111144277D01*
X200242689Y-111185357D01*
X200222447Y-111223226D01*
X200195213Y-111256413D01*
X200162026Y-111283647D01*
X200124157Y-111303889D01*
X200083077Y-111316350D01*
X200037896Y-111320800D01*
X199504304Y-111320800D01*
X199459123Y-111316350D01*
X199418043Y-111303889D01*
X199380174Y-111283647D01*
X199346987Y-111256413D01*
X199319753Y-111223226D01*
X199299511Y-111185357D01*
X199287050Y-111144277D01*
X199282600Y-111099096D01*
X199282600Y-110490504D01*
X199287050Y-110445323D01*
X199299511Y-110404243D01*
X199319753Y-110366374D01*
X199346987Y-110333187D01*
X199380174Y-110305953D01*
X199418043Y-110285711D01*
X199459123Y-110273250D01*
X199504304Y-110268800D01*
X200037896Y-110268800D01*
X200083077Y-110273250D01*
X200083077Y-110273250D01*
G37*
G36*
X219145077Y-110285250D02*
X219186157Y-110297711D01*
X219224026Y-110317953D01*
X219257213Y-110345187D01*
X219284447Y-110378374D01*
X219304689Y-110416243D01*
X219317150Y-110457323D01*
X219321600Y-110502504D01*
X219321600Y-111036096D01*
X219317150Y-111081277D01*
X219304689Y-111122357D01*
X219284447Y-111160226D01*
X219257213Y-111193413D01*
X219224026Y-111220647D01*
X219186157Y-111240889D01*
X219145077Y-111253350D01*
X219099896Y-111257800D01*
X218491304Y-111257800D01*
X218446123Y-111253350D01*
X218405043Y-111240889D01*
X218367174Y-111220647D01*
X218333987Y-111193413D01*
X218306753Y-111160226D01*
X218286511Y-111122357D01*
X218274050Y-111081277D01*
X218269600Y-111036096D01*
X218269600Y-110502504D01*
X218274050Y-110457323D01*
X218286511Y-110416243D01*
X218306753Y-110378374D01*
X218333987Y-110345187D01*
X218367174Y-110317953D01*
X218405043Y-110297711D01*
X218446123Y-110285250D01*
X218491304Y-110280800D01*
X219099896Y-110280800D01*
X219145077Y-110285250D01*
X219145077Y-110285250D01*
G37*
G36*
X230309077Y-110171650D02*
X230350157Y-110184111D01*
X230388026Y-110204353D01*
X230421213Y-110231587D01*
X230448447Y-110264774D01*
X230468689Y-110302643D01*
X230481150Y-110343723D01*
X230485600Y-110388904D01*
X230485600Y-110997496D01*
X230481150Y-111042677D01*
X230468689Y-111083757D01*
X230448447Y-111121626D01*
X230421213Y-111154813D01*
X230388026Y-111182047D01*
X230350157Y-111202289D01*
X230309077Y-111214750D01*
X230263896Y-111219200D01*
X229730304Y-111219200D01*
X229685123Y-111214750D01*
X229644043Y-111202289D01*
X229606174Y-111182047D01*
X229572987Y-111154813D01*
X229545753Y-111121626D01*
X229525511Y-111083757D01*
X229513050Y-111042677D01*
X229508600Y-110997496D01*
X229508600Y-110388904D01*
X229513050Y-110343723D01*
X229525511Y-110302643D01*
X229545753Y-110264774D01*
X229572987Y-110231587D01*
X229606174Y-110204353D01*
X229644043Y-110184111D01*
X229685123Y-110171650D01*
X229730304Y-110167200D01*
X230263896Y-110167200D01*
X230309077Y-110171650D01*
X230309077Y-110171650D01*
G37*
G36*
X228734077Y-110171650D02*
X228775157Y-110184111D01*
X228813026Y-110204353D01*
X228846213Y-110231587D01*
X228873447Y-110264774D01*
X228893689Y-110302643D01*
X228906150Y-110343723D01*
X228910600Y-110388904D01*
X228910600Y-110997496D01*
X228906150Y-111042677D01*
X228893689Y-111083757D01*
X228873447Y-111121626D01*
X228846213Y-111154813D01*
X228813026Y-111182047D01*
X228775157Y-111202289D01*
X228734077Y-111214750D01*
X228688896Y-111219200D01*
X228155304Y-111219200D01*
X228110123Y-111214750D01*
X228069043Y-111202289D01*
X228031174Y-111182047D01*
X227997987Y-111154813D01*
X227970753Y-111121626D01*
X227950511Y-111083757D01*
X227938050Y-111042677D01*
X227933600Y-110997496D01*
X227933600Y-110388904D01*
X227938050Y-110343723D01*
X227950511Y-110302643D01*
X227970753Y-110264774D01*
X227997987Y-110231587D01*
X228031174Y-110204353D01*
X228069043Y-110184111D01*
X228110123Y-110171650D01*
X228155304Y-110167200D01*
X228688896Y-110167200D01*
X228734077Y-110171650D01*
X228734077Y-110171650D01*
G37*
G36*
X208883477Y-110234450D02*
X208924557Y-110246911D01*
X208962426Y-110267153D01*
X208995613Y-110294387D01*
X209022847Y-110327574D01*
X209043089Y-110365443D01*
X209055550Y-110406523D01*
X209060000Y-110451704D01*
X209060000Y-110985296D01*
X209055550Y-111030477D01*
X209043089Y-111071557D01*
X209022847Y-111109426D01*
X208995613Y-111142613D01*
X208962426Y-111169847D01*
X208924557Y-111190089D01*
X208883477Y-111202550D01*
X208838296Y-111207000D01*
X208229704Y-111207000D01*
X208184523Y-111202550D01*
X208143443Y-111190089D01*
X208105574Y-111169847D01*
X208072387Y-111142613D01*
X208045153Y-111109426D01*
X208024911Y-111071557D01*
X208012450Y-111030477D01*
X208008000Y-110985296D01*
X208008000Y-110451704D01*
X208012450Y-110406523D01*
X208024911Y-110365443D01*
X208045153Y-110327574D01*
X208072387Y-110294387D01*
X208105574Y-110267153D01*
X208143443Y-110246911D01*
X208184523Y-110234450D01*
X208229704Y-110230000D01*
X208838296Y-110230000D01*
X208883477Y-110234450D01*
X208883477Y-110234450D01*
G37*
G36*
X214281477Y-110095450D02*
X214322557Y-110107911D01*
X214360426Y-110128153D01*
X214393613Y-110155387D01*
X214420847Y-110188574D01*
X214441089Y-110226443D01*
X214453550Y-110267523D01*
X214458000Y-110312704D01*
X214458000Y-110921296D01*
X214453550Y-110966477D01*
X214441089Y-111007557D01*
X214420847Y-111045426D01*
X214393613Y-111078613D01*
X214360426Y-111105847D01*
X214322557Y-111126089D01*
X214281477Y-111138550D01*
X214236296Y-111143000D01*
X213702704Y-111143000D01*
X213657523Y-111138550D01*
X213616443Y-111126089D01*
X213578574Y-111105847D01*
X213545387Y-111078613D01*
X213518153Y-111045426D01*
X213497911Y-111007557D01*
X213485450Y-110966477D01*
X213481000Y-110921296D01*
X213481000Y-110312704D01*
X213485450Y-110267523D01*
X213497911Y-110226443D01*
X213518153Y-110188574D01*
X213545387Y-110155387D01*
X213578574Y-110128153D01*
X213616443Y-110107911D01*
X213657523Y-110095450D01*
X213702704Y-110091000D01*
X214236296Y-110091000D01*
X214281477Y-110095450D01*
X214281477Y-110095450D01*
G37*
G36*
X215856477Y-110095450D02*
X215897557Y-110107911D01*
X215935426Y-110128153D01*
X215968613Y-110155387D01*
X215995847Y-110188574D01*
X216016089Y-110226443D01*
X216028550Y-110267523D01*
X216033000Y-110312704D01*
X216033000Y-110921296D01*
X216028550Y-110966477D01*
X216016089Y-111007557D01*
X215995847Y-111045426D01*
X215968613Y-111078613D01*
X215935426Y-111105847D01*
X215897557Y-111126089D01*
X215856477Y-111138550D01*
X215811296Y-111143000D01*
X215277704Y-111143000D01*
X215232523Y-111138550D01*
X215191443Y-111126089D01*
X215153574Y-111105847D01*
X215120387Y-111078613D01*
X215093153Y-111045426D01*
X215072911Y-111007557D01*
X215060450Y-110966477D01*
X215056000Y-110921296D01*
X215056000Y-110312704D01*
X215060450Y-110267523D01*
X215072911Y-110226443D01*
X215093153Y-110188574D01*
X215120387Y-110155387D01*
X215153574Y-110128153D01*
X215191443Y-110107911D01*
X215232523Y-110095450D01*
X215277704Y-110091000D01*
X215811296Y-110091000D01*
X215856477Y-110095450D01*
X215856477Y-110095450D01*
G37*
G36*
X232882000Y-111137000D02*
X231430000Y-111137000D01*
X231430000Y-110635000D01*
X232882000Y-110635000D01*
X232882000Y-111137000D01*
X232882000Y-111137000D01*
G37*
G36*
X211550477Y-109853450D02*
X211591557Y-109865911D01*
X211629426Y-109886153D01*
X211662613Y-109913387D01*
X211689847Y-109946574D01*
X211710089Y-109984443D01*
X211722550Y-110025523D01*
X211727000Y-110070704D01*
X211727000Y-110604296D01*
X211722550Y-110649477D01*
X211710089Y-110690557D01*
X211689847Y-110728426D01*
X211662613Y-110761613D01*
X211629426Y-110788847D01*
X211591557Y-110809089D01*
X211550477Y-110821550D01*
X211505296Y-110826000D01*
X210896704Y-110826000D01*
X210851523Y-110821550D01*
X210810443Y-110809089D01*
X210772574Y-110788847D01*
X210739387Y-110761613D01*
X210712153Y-110728426D01*
X210691911Y-110690557D01*
X210679450Y-110649477D01*
X210675000Y-110604296D01*
X210675000Y-110070704D01*
X210679450Y-110025523D01*
X210691911Y-109984443D01*
X210712153Y-109946574D01*
X210739387Y-109913387D01*
X210772574Y-109886153D01*
X210810443Y-109865911D01*
X210851523Y-109853450D01*
X210896704Y-109849000D01*
X211505296Y-109849000D01*
X211550477Y-109853450D01*
X211550477Y-109853450D01*
G37*
G36*
X232882000Y-110487000D02*
X231430000Y-110487000D01*
X231430000Y-109985000D01*
X232882000Y-109985000D01*
X232882000Y-110487000D01*
X232882000Y-110487000D01*
G37*
G36*
X235832000Y-110037000D02*
X233830000Y-110037000D01*
X233830000Y-108035000D01*
X235832000Y-108035000D01*
X235832000Y-110037000D01*
X235832000Y-110037000D01*
G37*
G36*
X232882000Y-109837000D02*
X231430000Y-109837000D01*
X231430000Y-109335000D01*
X232882000Y-109335000D01*
X232882000Y-109837000D01*
X232882000Y-109837000D01*
G37*
G36*
X224832200Y-109668600D02*
X223630200Y-109668600D01*
X223630200Y-108466600D01*
X224832200Y-108466600D01*
X224832200Y-109668600D01*
X224832200Y-109668600D01*
G37*
G36*
X227632200Y-109668600D02*
X226430200Y-109668600D01*
X226430200Y-108466600D01*
X227632200Y-108466600D01*
X227632200Y-109668600D01*
X227632200Y-109668600D01*
G37*
G36*
X193301639Y-108426447D02*
X193313420Y-108430021D01*
X193324265Y-108435818D01*
X193333777Y-108443623D01*
X193341582Y-108453135D01*
X193347379Y-108463980D01*
X193350953Y-108475761D01*
X193352400Y-108490453D01*
X193352400Y-109261547D01*
X193350953Y-109276239D01*
X193347379Y-109288020D01*
X193341582Y-109298865D01*
X193333777Y-109308377D01*
X193324265Y-109316182D01*
X193313420Y-109321979D01*
X193301639Y-109325553D01*
X193286947Y-109327000D01*
X193065853Y-109327000D01*
X193051161Y-109325553D01*
X193039380Y-109321979D01*
X193028535Y-109316182D01*
X193019023Y-109308377D01*
X193011218Y-109298865D01*
X193005421Y-109288020D01*
X193001847Y-109276239D01*
X193000400Y-109261547D01*
X193000400Y-108490453D01*
X193001847Y-108475761D01*
X193005421Y-108463980D01*
X193011218Y-108453135D01*
X193019023Y-108443623D01*
X193028535Y-108435818D01*
X193039380Y-108430021D01*
X193051161Y-108426447D01*
X193065853Y-108425000D01*
X193286947Y-108425000D01*
X193301639Y-108426447D01*
X193301639Y-108426447D01*
G37*
G36*
X191801639Y-108426447D02*
X191813420Y-108430021D01*
X191824265Y-108435818D01*
X191833777Y-108443623D01*
X191841582Y-108453135D01*
X191847379Y-108463980D01*
X191850953Y-108475761D01*
X191852400Y-108490453D01*
X191852400Y-109261547D01*
X191850953Y-109276239D01*
X191847379Y-109288020D01*
X191841582Y-109298865D01*
X191833777Y-109308377D01*
X191824265Y-109316182D01*
X191813420Y-109321979D01*
X191801639Y-109325553D01*
X191786947Y-109327000D01*
X191565853Y-109327000D01*
X191551161Y-109325553D01*
X191539380Y-109321979D01*
X191528535Y-109316182D01*
X191519023Y-109308377D01*
X191511218Y-109298865D01*
X191505421Y-109288020D01*
X191501847Y-109276239D01*
X191500400Y-109261547D01*
X191500400Y-108490453D01*
X191501847Y-108475761D01*
X191505421Y-108463980D01*
X191511218Y-108453135D01*
X191519023Y-108443623D01*
X191528535Y-108435818D01*
X191539380Y-108430021D01*
X191551161Y-108426447D01*
X191565853Y-108425000D01*
X191786947Y-108425000D01*
X191801639Y-108426447D01*
X191801639Y-108426447D01*
G37*
G36*
X193801639Y-108426447D02*
X193813420Y-108430021D01*
X193824265Y-108435818D01*
X193833777Y-108443623D01*
X193841582Y-108453135D01*
X193847379Y-108463980D01*
X193850953Y-108475761D01*
X193852400Y-108490453D01*
X193852400Y-109261547D01*
X193850953Y-109276239D01*
X193847379Y-109288020D01*
X193841582Y-109298865D01*
X193833777Y-109308377D01*
X193824265Y-109316182D01*
X193813420Y-109321979D01*
X193801639Y-109325553D01*
X193786947Y-109327000D01*
X193565853Y-109327000D01*
X193551161Y-109325553D01*
X193539380Y-109321979D01*
X193528535Y-109316182D01*
X193519023Y-109308377D01*
X193511218Y-109298865D01*
X193505421Y-109288020D01*
X193501847Y-109276239D01*
X193500400Y-109261547D01*
X193500400Y-108490453D01*
X193501847Y-108475761D01*
X193505421Y-108463980D01*
X193511218Y-108453135D01*
X193519023Y-108443623D01*
X193528535Y-108435818D01*
X193539380Y-108430021D01*
X193551161Y-108426447D01*
X193565853Y-108425000D01*
X193786947Y-108425000D01*
X193801639Y-108426447D01*
X193801639Y-108426447D01*
G37*
G36*
X192801639Y-108426447D02*
X192813420Y-108430021D01*
X192824265Y-108435818D01*
X192833777Y-108443623D01*
X192841582Y-108453135D01*
X192847379Y-108463980D01*
X192850953Y-108475761D01*
X192852400Y-108490453D01*
X192852400Y-109261547D01*
X192850953Y-109276239D01*
X192847379Y-109288020D01*
X192841582Y-109298865D01*
X192833777Y-109308377D01*
X192824265Y-109316182D01*
X192813420Y-109321979D01*
X192801639Y-109325553D01*
X192786947Y-109327000D01*
X192565853Y-109327000D01*
X192551161Y-109325553D01*
X192539380Y-109321979D01*
X192528535Y-109316182D01*
X192519023Y-109308377D01*
X192511218Y-109298865D01*
X192505421Y-109288020D01*
X192501847Y-109276239D01*
X192500400Y-109261547D01*
X192500400Y-108490453D01*
X192501847Y-108475761D01*
X192505421Y-108463980D01*
X192511218Y-108453135D01*
X192519023Y-108443623D01*
X192528535Y-108435818D01*
X192539380Y-108430021D01*
X192551161Y-108426447D01*
X192565853Y-108425000D01*
X192786947Y-108425000D01*
X192801639Y-108426447D01*
X192801639Y-108426447D01*
G37*
G36*
X192301639Y-108426447D02*
X192313420Y-108430021D01*
X192324265Y-108435818D01*
X192333777Y-108443623D01*
X192341582Y-108453135D01*
X192347379Y-108463980D01*
X192350953Y-108475761D01*
X192352400Y-108490453D01*
X192352400Y-109261547D01*
X192350953Y-109276239D01*
X192347379Y-109288020D01*
X192341582Y-109298865D01*
X192333777Y-109308377D01*
X192324265Y-109316182D01*
X192313420Y-109321979D01*
X192301639Y-109325553D01*
X192286947Y-109327000D01*
X192065853Y-109327000D01*
X192051161Y-109325553D01*
X192039380Y-109321979D01*
X192028535Y-109316182D01*
X192019023Y-109308377D01*
X192011218Y-109298865D01*
X192005421Y-109288020D01*
X192001847Y-109276239D01*
X192000400Y-109261547D01*
X192000400Y-108490453D01*
X192001847Y-108475761D01*
X192005421Y-108463980D01*
X192011218Y-108453135D01*
X192019023Y-108443623D01*
X192028535Y-108435818D01*
X192039380Y-108430021D01*
X192051161Y-108426447D01*
X192065853Y-108425000D01*
X192286947Y-108425000D01*
X192301639Y-108426447D01*
X192301639Y-108426447D01*
G37*
G36*
X191301639Y-108426447D02*
X191313420Y-108430021D01*
X191324265Y-108435818D01*
X191333777Y-108443623D01*
X191341582Y-108453135D01*
X191347379Y-108463980D01*
X191350953Y-108475761D01*
X191352400Y-108490453D01*
X191352400Y-109261547D01*
X191350953Y-109276239D01*
X191347379Y-109288020D01*
X191341582Y-109298865D01*
X191333777Y-109308377D01*
X191324265Y-109316182D01*
X191313420Y-109321979D01*
X191301639Y-109325553D01*
X191286947Y-109327000D01*
X191065853Y-109327000D01*
X191051161Y-109325553D01*
X191039380Y-109321979D01*
X191028535Y-109316182D01*
X191019023Y-109308377D01*
X191011218Y-109298865D01*
X191005421Y-109288020D01*
X191001847Y-109276239D01*
X191000400Y-109261547D01*
X191000400Y-108490453D01*
X191001847Y-108475761D01*
X191005421Y-108463980D01*
X191011218Y-108453135D01*
X191019023Y-108443623D01*
X191028535Y-108435818D01*
X191039380Y-108430021D01*
X191051161Y-108426447D01*
X191065853Y-108425000D01*
X191286947Y-108425000D01*
X191301639Y-108426447D01*
X191301639Y-108426447D01*
G37*
G36*
X190801639Y-108426447D02*
X190813420Y-108430021D01*
X190824265Y-108435818D01*
X190833777Y-108443623D01*
X190841582Y-108453135D01*
X190847379Y-108463980D01*
X190850953Y-108475761D01*
X190852400Y-108490453D01*
X190852400Y-109261547D01*
X190850953Y-109276239D01*
X190847379Y-109288020D01*
X190841582Y-109298865D01*
X190833777Y-109308377D01*
X190824265Y-109316182D01*
X190813420Y-109321979D01*
X190801639Y-109325553D01*
X190786947Y-109327000D01*
X190565853Y-109327000D01*
X190551161Y-109325553D01*
X190539380Y-109321979D01*
X190528535Y-109316182D01*
X190519023Y-109308377D01*
X190511218Y-109298865D01*
X190505421Y-109288020D01*
X190501847Y-109276239D01*
X190500400Y-109261547D01*
X190500400Y-108490453D01*
X190501847Y-108475761D01*
X190505421Y-108463980D01*
X190511218Y-108453135D01*
X190519023Y-108443623D01*
X190528535Y-108435818D01*
X190539380Y-108430021D01*
X190551161Y-108426447D01*
X190565853Y-108425000D01*
X190786947Y-108425000D01*
X190801639Y-108426447D01*
X190801639Y-108426447D01*
G37*
G36*
X232882000Y-109187000D02*
X231430000Y-109187000D01*
X231430000Y-108685000D01*
X232882000Y-108685000D01*
X232882000Y-109187000D01*
X232882000Y-109187000D01*
G37*
G36*
X202849000Y-108564800D02*
X201687000Y-108564800D01*
X201687000Y-107812800D01*
X202849000Y-107812800D01*
X202849000Y-108564800D01*
X202849000Y-108564800D01*
G37*
G36*
X200649000Y-108564800D02*
X199487000Y-108564800D01*
X199487000Y-107812800D01*
X200649000Y-107812800D01*
X200649000Y-108564800D01*
X200649000Y-108564800D01*
G37*
G36*
X233132000Y-108237000D02*
X231430000Y-108237000D01*
X231430000Y-106035000D01*
X233132000Y-106035000D01*
X233132000Y-108237000D01*
X233132000Y-108237000D01*
G37*
G36*
X188700600Y-108231800D02*
X187798600Y-108231800D01*
X187798600Y-107229800D01*
X188700600Y-107229800D01*
X188700600Y-108231800D01*
X188700600Y-108231800D01*
G37*
G36*
X186800600Y-108231800D02*
X185898600Y-108231800D01*
X185898600Y-107229800D01*
X186800600Y-107229800D01*
X186800600Y-108231800D01*
X186800600Y-108231800D01*
G37*
G36*
X193729234Y-104704369D02*
X193769541Y-104716597D01*
X193806679Y-104736447D01*
X193839235Y-104763165D01*
X193865953Y-104795721D01*
X193885803Y-104832859D01*
X193898031Y-104873166D01*
X193902400Y-104917528D01*
X193902400Y-107934472D01*
X193898031Y-107978834D01*
X193885803Y-108019141D01*
X193865953Y-108056279D01*
X193839235Y-108088835D01*
X193806679Y-108115553D01*
X193769541Y-108135403D01*
X193729234Y-108147631D01*
X193684872Y-108152000D01*
X190667928Y-108152000D01*
X190623566Y-108147631D01*
X190583259Y-108135403D01*
X190546121Y-108115553D01*
X190513565Y-108088835D01*
X190486847Y-108056279D01*
X190466997Y-108019141D01*
X190454769Y-107978834D01*
X190450400Y-107934472D01*
X190450400Y-104917528D01*
X190454769Y-104873166D01*
X190466997Y-104832859D01*
X190486847Y-104795721D01*
X190513565Y-104763165D01*
X190546121Y-104736447D01*
X190583259Y-104716597D01*
X190623566Y-104704369D01*
X190667928Y-104700000D01*
X193684872Y-104700000D01*
X193729234Y-104704369D01*
X193729234Y-104704369D01*
G37*
G36*
X195026639Y-107751447D02*
X195038420Y-107755021D01*
X195049265Y-107760818D01*
X195058777Y-107768623D01*
X195066582Y-107778135D01*
X195072379Y-107788980D01*
X195075953Y-107800761D01*
X195077400Y-107815453D01*
X195077400Y-108036547D01*
X195075953Y-108051239D01*
X195072379Y-108063020D01*
X195066582Y-108073865D01*
X195058777Y-108083377D01*
X195049265Y-108091182D01*
X195038420Y-108096979D01*
X195026639Y-108100553D01*
X195011947Y-108102000D01*
X194240853Y-108102000D01*
X194226161Y-108100553D01*
X194214380Y-108096979D01*
X194203535Y-108091182D01*
X194194023Y-108083377D01*
X194186218Y-108073865D01*
X194180421Y-108063020D01*
X194176847Y-108051239D01*
X194175400Y-108036547D01*
X194175400Y-107815453D01*
X194176847Y-107800761D01*
X194180421Y-107788980D01*
X194186218Y-107778135D01*
X194194023Y-107768623D01*
X194203535Y-107760818D01*
X194214380Y-107755021D01*
X194226161Y-107751447D01*
X194240853Y-107750000D01*
X195011947Y-107750000D01*
X195026639Y-107751447D01*
X195026639Y-107751447D01*
G37*
G36*
X190126639Y-107751447D02*
X190138420Y-107755021D01*
X190149265Y-107760818D01*
X190158777Y-107768623D01*
X190166582Y-107778135D01*
X190172379Y-107788980D01*
X190175953Y-107800761D01*
X190177400Y-107815453D01*
X190177400Y-108036547D01*
X190175953Y-108051239D01*
X190172379Y-108063020D01*
X190166582Y-108073865D01*
X190158777Y-108083377D01*
X190149265Y-108091182D01*
X190138420Y-108096979D01*
X190126639Y-108100553D01*
X190111947Y-108102000D01*
X189340853Y-108102000D01*
X189326161Y-108100553D01*
X189314380Y-108096979D01*
X189303535Y-108091182D01*
X189294023Y-108083377D01*
X189286218Y-108073865D01*
X189280421Y-108063020D01*
X189276847Y-108051239D01*
X189275400Y-108036547D01*
X189275400Y-107815453D01*
X189276847Y-107800761D01*
X189280421Y-107788980D01*
X189286218Y-107778135D01*
X189294023Y-107768623D01*
X189303535Y-107760818D01*
X189314380Y-107755021D01*
X189326161Y-107751447D01*
X189340853Y-107750000D01*
X190111947Y-107750000D01*
X190126639Y-107751447D01*
X190126639Y-107751447D01*
G37*
G36*
X200649000Y-107614800D02*
X199487000Y-107614800D01*
X199487000Y-106862800D01*
X200649000Y-106862800D01*
X200649000Y-107614800D01*
X200649000Y-107614800D01*
G37*
G36*
X195026639Y-107251447D02*
X195038420Y-107255021D01*
X195049265Y-107260818D01*
X195058777Y-107268623D01*
X195066582Y-107278135D01*
X195072379Y-107288980D01*
X195075953Y-107300761D01*
X195077400Y-107315453D01*
X195077400Y-107536547D01*
X195075953Y-107551239D01*
X195072379Y-107563020D01*
X195066582Y-107573865D01*
X195058777Y-107583377D01*
X195049265Y-107591182D01*
X195038420Y-107596979D01*
X195026639Y-107600553D01*
X195011947Y-107602000D01*
X194240853Y-107602000D01*
X194226161Y-107600553D01*
X194214380Y-107596979D01*
X194203535Y-107591182D01*
X194194023Y-107583377D01*
X194186218Y-107573865D01*
X194180421Y-107563020D01*
X194176847Y-107551239D01*
X194175400Y-107536547D01*
X194175400Y-107315453D01*
X194176847Y-107300761D01*
X194180421Y-107288980D01*
X194186218Y-107278135D01*
X194194023Y-107268623D01*
X194203535Y-107260818D01*
X194214380Y-107255021D01*
X194226161Y-107251447D01*
X194240853Y-107250000D01*
X195011947Y-107250000D01*
X195026639Y-107251447D01*
X195026639Y-107251447D01*
G37*
G36*
X190126639Y-107251447D02*
X190138420Y-107255021D01*
X190149265Y-107260818D01*
X190158777Y-107268623D01*
X190166582Y-107278135D01*
X190172379Y-107288980D01*
X190175953Y-107300761D01*
X190177400Y-107315453D01*
X190177400Y-107536547D01*
X190175953Y-107551239D01*
X190172379Y-107563020D01*
X190166582Y-107573865D01*
X190158777Y-107583377D01*
X190149265Y-107591182D01*
X190138420Y-107596979D01*
X190126639Y-107600553D01*
X190111947Y-107602000D01*
X189340853Y-107602000D01*
X189326161Y-107600553D01*
X189314380Y-107596979D01*
X189303535Y-107591182D01*
X189294023Y-107583377D01*
X189286218Y-107573865D01*
X189280421Y-107563020D01*
X189276847Y-107551239D01*
X189275400Y-107536547D01*
X189275400Y-107315453D01*
X189276847Y-107300761D01*
X189280421Y-107288980D01*
X189286218Y-107278135D01*
X189294023Y-107268623D01*
X189303535Y-107260818D01*
X189314380Y-107255021D01*
X189326161Y-107251447D01*
X189340853Y-107250000D01*
X190111947Y-107250000D01*
X190126639Y-107251447D01*
X190126639Y-107251447D01*
G37*
G36*
X235832000Y-107387000D02*
X233830000Y-107387000D01*
X233830000Y-105485000D01*
X235832000Y-105485000D01*
X235832000Y-107387000D01*
X235832000Y-107387000D01*
G37*
G36*
X195026639Y-106751447D02*
X195038420Y-106755021D01*
X195049265Y-106760818D01*
X195058777Y-106768623D01*
X195066582Y-106778135D01*
X195072379Y-106788980D01*
X195075953Y-106800761D01*
X195077400Y-106815453D01*
X195077400Y-107036547D01*
X195075953Y-107051239D01*
X195072379Y-107063020D01*
X195066582Y-107073865D01*
X195058777Y-107083377D01*
X195049265Y-107091182D01*
X195038420Y-107096979D01*
X195026639Y-107100553D01*
X195011947Y-107102000D01*
X194240853Y-107102000D01*
X194226161Y-107100553D01*
X194214380Y-107096979D01*
X194203535Y-107091182D01*
X194194023Y-107083377D01*
X194186218Y-107073865D01*
X194180421Y-107063020D01*
X194176847Y-107051239D01*
X194175400Y-107036547D01*
X194175400Y-106815453D01*
X194176847Y-106800761D01*
X194180421Y-106788980D01*
X194186218Y-106778135D01*
X194194023Y-106768623D01*
X194203535Y-106760818D01*
X194214380Y-106755021D01*
X194226161Y-106751447D01*
X194240853Y-106750000D01*
X195011947Y-106750000D01*
X195026639Y-106751447D01*
X195026639Y-106751447D01*
G37*
G36*
X190126639Y-106751447D02*
X190138420Y-106755021D01*
X190149265Y-106760818D01*
X190158777Y-106768623D01*
X190166582Y-106778135D01*
X190172379Y-106788980D01*
X190175953Y-106800761D01*
X190177400Y-106815453D01*
X190177400Y-107036547D01*
X190175953Y-107051239D01*
X190172379Y-107063020D01*
X190166582Y-107073865D01*
X190158777Y-107083377D01*
X190149265Y-107091182D01*
X190138420Y-107096979D01*
X190126639Y-107100553D01*
X190111947Y-107102000D01*
X189340853Y-107102000D01*
X189326161Y-107100553D01*
X189314380Y-107096979D01*
X189303535Y-107091182D01*
X189294023Y-107083377D01*
X189286218Y-107073865D01*
X189280421Y-107063020D01*
X189276847Y-107051239D01*
X189275400Y-107036547D01*
X189275400Y-106815453D01*
X189276847Y-106800761D01*
X189280421Y-106788980D01*
X189286218Y-106778135D01*
X189294023Y-106768623D01*
X189303535Y-106760818D01*
X189314380Y-106755021D01*
X189326161Y-106751447D01*
X189340853Y-106750000D01*
X190111947Y-106750000D01*
X190126639Y-106751447D01*
X190126639Y-106751447D01*
G37*
G36*
X202849000Y-106664800D02*
X201687000Y-106664800D01*
X201687000Y-105912800D01*
X202849000Y-105912800D01*
X202849000Y-106664800D01*
X202849000Y-106664800D01*
G37*
G36*
X200649000Y-106664800D02*
X199487000Y-106664800D01*
X199487000Y-105912800D01*
X200649000Y-105912800D01*
X200649000Y-106664800D01*
X200649000Y-106664800D01*
G37*
G36*
X190126639Y-106251447D02*
X190138420Y-106255021D01*
X190149265Y-106260818D01*
X190158777Y-106268623D01*
X190166582Y-106278135D01*
X190172379Y-106288980D01*
X190175953Y-106300761D01*
X190177400Y-106315453D01*
X190177400Y-106536547D01*
X190175953Y-106551239D01*
X190172379Y-106563020D01*
X190166582Y-106573865D01*
X190158777Y-106583377D01*
X190149265Y-106591182D01*
X190138420Y-106596979D01*
X190126639Y-106600553D01*
X190111947Y-106602000D01*
X189340853Y-106602000D01*
X189326161Y-106600553D01*
X189314380Y-106596979D01*
X189303535Y-106591182D01*
X189294023Y-106583377D01*
X189286218Y-106573865D01*
X189280421Y-106563020D01*
X189276847Y-106551239D01*
X189275400Y-106536547D01*
X189275400Y-106315453D01*
X189276847Y-106300761D01*
X189280421Y-106288980D01*
X189286218Y-106278135D01*
X189294023Y-106268623D01*
X189303535Y-106260818D01*
X189314380Y-106255021D01*
X189326161Y-106251447D01*
X189340853Y-106250000D01*
X190111947Y-106250000D01*
X190126639Y-106251447D01*
X190126639Y-106251447D01*
G37*
G36*
X195026639Y-106251447D02*
X195038420Y-106255021D01*
X195049265Y-106260818D01*
X195058777Y-106268623D01*
X195066582Y-106278135D01*
X195072379Y-106288980D01*
X195075953Y-106300761D01*
X195077400Y-106315453D01*
X195077400Y-106536547D01*
X195075953Y-106551239D01*
X195072379Y-106563020D01*
X195066582Y-106573865D01*
X195058777Y-106583377D01*
X195049265Y-106591182D01*
X195038420Y-106596979D01*
X195026639Y-106600553D01*
X195011947Y-106602000D01*
X194240853Y-106602000D01*
X194226161Y-106600553D01*
X194214380Y-106596979D01*
X194203535Y-106591182D01*
X194194023Y-106583377D01*
X194186218Y-106573865D01*
X194180421Y-106563020D01*
X194176847Y-106551239D01*
X194175400Y-106536547D01*
X194175400Y-106315453D01*
X194176847Y-106300761D01*
X194180421Y-106288980D01*
X194186218Y-106278135D01*
X194194023Y-106268623D01*
X194203535Y-106260818D01*
X194214380Y-106255021D01*
X194226161Y-106251447D01*
X194240853Y-106250000D01*
X195011947Y-106250000D01*
X195026639Y-106251447D01*
X195026639Y-106251447D01*
G37*
G36*
X187750600Y-106231800D02*
X186848600Y-106231800D01*
X186848600Y-105229800D01*
X187750600Y-105229800D01*
X187750600Y-106231800D01*
X187750600Y-106231800D01*
G37*
G36*
X195026639Y-105751447D02*
X195038420Y-105755021D01*
X195049265Y-105760818D01*
X195058777Y-105768623D01*
X195066582Y-105778135D01*
X195072379Y-105788980D01*
X195075953Y-105800761D01*
X195077400Y-105815453D01*
X195077400Y-106036547D01*
X195075953Y-106051239D01*
X195072379Y-106063020D01*
X195066582Y-106073865D01*
X195058777Y-106083377D01*
X195049265Y-106091182D01*
X195038420Y-106096979D01*
X195026639Y-106100553D01*
X195011947Y-106102000D01*
X194240853Y-106102000D01*
X194226161Y-106100553D01*
X194214380Y-106096979D01*
X194203535Y-106091182D01*
X194194023Y-106083377D01*
X194186218Y-106073865D01*
X194180421Y-106063020D01*
X194176847Y-106051239D01*
X194175400Y-106036547D01*
X194175400Y-105815453D01*
X194176847Y-105800761D01*
X194180421Y-105788980D01*
X194186218Y-105778135D01*
X194194023Y-105768623D01*
X194203535Y-105760818D01*
X194214380Y-105755021D01*
X194226161Y-105751447D01*
X194240853Y-105750000D01*
X195011947Y-105750000D01*
X195026639Y-105751447D01*
X195026639Y-105751447D01*
G37*
G36*
X190126639Y-105751447D02*
X190138420Y-105755021D01*
X190149265Y-105760818D01*
X190158777Y-105768623D01*
X190166582Y-105778135D01*
X190172379Y-105788980D01*
X190175953Y-105800761D01*
X190177400Y-105815453D01*
X190177400Y-106036547D01*
X190175953Y-106051239D01*
X190172379Y-106063020D01*
X190166582Y-106073865D01*
X190158777Y-106083377D01*
X190149265Y-106091182D01*
X190138420Y-106096979D01*
X190126639Y-106100553D01*
X190111947Y-106102000D01*
X189340853Y-106102000D01*
X189326161Y-106100553D01*
X189314380Y-106096979D01*
X189303535Y-106091182D01*
X189294023Y-106083377D01*
X189286218Y-106073865D01*
X189280421Y-106063020D01*
X189276847Y-106051239D01*
X189275400Y-106036547D01*
X189275400Y-105815453D01*
X189276847Y-105800761D01*
X189280421Y-105788980D01*
X189286218Y-105778135D01*
X189294023Y-105768623D01*
X189303535Y-105760818D01*
X189314380Y-105755021D01*
X189326161Y-105751447D01*
X189340853Y-105750000D01*
X190111947Y-105750000D01*
X190126639Y-105751447D01*
X190126639Y-105751447D01*
G37*
G36*
X190126639Y-105251447D02*
X190138420Y-105255021D01*
X190149265Y-105260818D01*
X190158777Y-105268623D01*
X190166582Y-105278135D01*
X190172379Y-105288980D01*
X190175953Y-105300761D01*
X190177400Y-105315453D01*
X190177400Y-105536547D01*
X190175953Y-105551239D01*
X190172379Y-105563020D01*
X190166582Y-105573865D01*
X190158777Y-105583377D01*
X190149265Y-105591182D01*
X190138420Y-105596979D01*
X190126639Y-105600553D01*
X190111947Y-105602000D01*
X189340853Y-105602000D01*
X189326161Y-105600553D01*
X189314380Y-105596979D01*
X189303535Y-105591182D01*
X189294023Y-105583377D01*
X189286218Y-105573865D01*
X189280421Y-105563020D01*
X189276847Y-105551239D01*
X189275400Y-105536547D01*
X189275400Y-105315453D01*
X189276847Y-105300761D01*
X189280421Y-105288980D01*
X189286218Y-105278135D01*
X189294023Y-105268623D01*
X189303535Y-105260818D01*
X189314380Y-105255021D01*
X189326161Y-105251447D01*
X189340853Y-105250000D01*
X190111947Y-105250000D01*
X190126639Y-105251447D01*
X190126639Y-105251447D01*
G37*
G36*
X195026639Y-105251447D02*
X195038420Y-105255021D01*
X195049265Y-105260818D01*
X195058777Y-105268623D01*
X195066582Y-105278135D01*
X195072379Y-105288980D01*
X195075953Y-105300761D01*
X195077400Y-105315453D01*
X195077400Y-105536547D01*
X195075953Y-105551239D01*
X195072379Y-105563020D01*
X195066582Y-105573865D01*
X195058777Y-105583377D01*
X195049265Y-105591182D01*
X195038420Y-105596979D01*
X195026639Y-105600553D01*
X195011947Y-105602000D01*
X194240853Y-105602000D01*
X194226161Y-105600553D01*
X194214380Y-105596979D01*
X194203535Y-105591182D01*
X194194023Y-105583377D01*
X194186218Y-105573865D01*
X194180421Y-105563020D01*
X194176847Y-105551239D01*
X194175400Y-105536547D01*
X194175400Y-105315453D01*
X194176847Y-105300761D01*
X194180421Y-105288980D01*
X194186218Y-105278135D01*
X194194023Y-105268623D01*
X194203535Y-105260818D01*
X194214380Y-105255021D01*
X194226161Y-105251447D01*
X194240853Y-105250000D01*
X195011947Y-105250000D01*
X195026639Y-105251447D01*
X195026639Y-105251447D01*
G37*
G36*
X190126639Y-104751447D02*
X190138420Y-104755021D01*
X190149265Y-104760818D01*
X190158777Y-104768623D01*
X190166582Y-104778135D01*
X190172379Y-104788980D01*
X190175953Y-104800761D01*
X190177400Y-104815453D01*
X190177400Y-105036547D01*
X190175953Y-105051239D01*
X190172379Y-105063020D01*
X190166582Y-105073865D01*
X190158777Y-105083377D01*
X190149265Y-105091182D01*
X190138420Y-105096979D01*
X190126639Y-105100553D01*
X190111947Y-105102000D01*
X189340853Y-105102000D01*
X189326161Y-105100553D01*
X189314380Y-105096979D01*
X189303535Y-105091182D01*
X189294023Y-105083377D01*
X189286218Y-105073865D01*
X189280421Y-105063020D01*
X189276847Y-105051239D01*
X189275400Y-105036547D01*
X189275400Y-104815453D01*
X189276847Y-104800761D01*
X189280421Y-104788980D01*
X189286218Y-104778135D01*
X189294023Y-104768623D01*
X189303535Y-104760818D01*
X189314380Y-104755021D01*
X189326161Y-104751447D01*
X189340853Y-104750000D01*
X190111947Y-104750000D01*
X190126639Y-104751447D01*
X190126639Y-104751447D01*
G37*
G36*
X195026639Y-104751447D02*
X195038420Y-104755021D01*
X195049265Y-104760818D01*
X195058777Y-104768623D01*
X195066582Y-104778135D01*
X195072379Y-104788980D01*
X195075953Y-104800761D01*
X195077400Y-104815453D01*
X195077400Y-105036547D01*
X195075953Y-105051239D01*
X195072379Y-105063020D01*
X195066582Y-105073865D01*
X195058777Y-105083377D01*
X195049265Y-105091182D01*
X195038420Y-105096979D01*
X195026639Y-105100553D01*
X195011947Y-105102000D01*
X194240853Y-105102000D01*
X194226161Y-105100553D01*
X194214380Y-105096979D01*
X194203535Y-105091182D01*
X194194023Y-105083377D01*
X194186218Y-105073865D01*
X194180421Y-105063020D01*
X194176847Y-105051239D01*
X194175400Y-105036547D01*
X194175400Y-104815453D01*
X194176847Y-104800761D01*
X194180421Y-104788980D01*
X194186218Y-104778135D01*
X194194023Y-104768623D01*
X194203535Y-104760818D01*
X194214380Y-104755021D01*
X194226161Y-104751447D01*
X194240853Y-104750000D01*
X195011947Y-104750000D01*
X195026639Y-104751447D01*
X195026639Y-104751447D01*
G37*
G36*
X190801639Y-103526447D02*
X190813420Y-103530021D01*
X190824265Y-103535818D01*
X190833777Y-103543623D01*
X190841582Y-103553135D01*
X190847379Y-103563980D01*
X190850953Y-103575761D01*
X190852400Y-103590453D01*
X190852400Y-104361547D01*
X190850953Y-104376239D01*
X190847379Y-104388020D01*
X190841582Y-104398865D01*
X190833777Y-104408377D01*
X190824265Y-104416182D01*
X190813420Y-104421979D01*
X190801639Y-104425553D01*
X190786947Y-104427000D01*
X190565853Y-104427000D01*
X190551161Y-104425553D01*
X190539380Y-104421979D01*
X190528535Y-104416182D01*
X190519023Y-104408377D01*
X190511218Y-104398865D01*
X190505421Y-104388020D01*
X190501847Y-104376239D01*
X190500400Y-104361547D01*
X190500400Y-103590453D01*
X190501847Y-103575761D01*
X190505421Y-103563980D01*
X190511218Y-103553135D01*
X190519023Y-103543623D01*
X190528535Y-103535818D01*
X190539380Y-103530021D01*
X190551161Y-103526447D01*
X190565853Y-103525000D01*
X190786947Y-103525000D01*
X190801639Y-103526447D01*
X190801639Y-103526447D01*
G37*
G36*
X193801639Y-103526447D02*
X193813420Y-103530021D01*
X193824265Y-103535818D01*
X193833777Y-103543623D01*
X193841582Y-103553135D01*
X193847379Y-103563980D01*
X193850953Y-103575761D01*
X193852400Y-103590453D01*
X193852400Y-104361547D01*
X193850953Y-104376239D01*
X193847379Y-104388020D01*
X193841582Y-104398865D01*
X193833777Y-104408377D01*
X193824265Y-104416182D01*
X193813420Y-104421979D01*
X193801639Y-104425553D01*
X193786947Y-104427000D01*
X193565853Y-104427000D01*
X193551161Y-104425553D01*
X193539380Y-104421979D01*
X193528535Y-104416182D01*
X193519023Y-104408377D01*
X193511218Y-104398865D01*
X193505421Y-104388020D01*
X193501847Y-104376239D01*
X193500400Y-104361547D01*
X193500400Y-103590453D01*
X193501847Y-103575761D01*
X193505421Y-103563980D01*
X193511218Y-103553135D01*
X193519023Y-103543623D01*
X193528535Y-103535818D01*
X193539380Y-103530021D01*
X193551161Y-103526447D01*
X193565853Y-103525000D01*
X193786947Y-103525000D01*
X193801639Y-103526447D01*
X193801639Y-103526447D01*
G37*
G36*
X193301639Y-103526447D02*
X193313420Y-103530021D01*
X193324265Y-103535818D01*
X193333777Y-103543623D01*
X193341582Y-103553135D01*
X193347379Y-103563980D01*
X193350953Y-103575761D01*
X193352400Y-103590453D01*
X193352400Y-104361547D01*
X193350953Y-104376239D01*
X193347379Y-104388020D01*
X193341582Y-104398865D01*
X193333777Y-104408377D01*
X193324265Y-104416182D01*
X193313420Y-104421979D01*
X193301639Y-104425553D01*
X193286947Y-104427000D01*
X193065853Y-104427000D01*
X193051161Y-104425553D01*
X193039380Y-104421979D01*
X193028535Y-104416182D01*
X193019023Y-104408377D01*
X193011218Y-104398865D01*
X193005421Y-104388020D01*
X193001847Y-104376239D01*
X193000400Y-104361547D01*
X193000400Y-103590453D01*
X193001847Y-103575761D01*
X193005421Y-103563980D01*
X193011218Y-103553135D01*
X193019023Y-103543623D01*
X193028535Y-103535818D01*
X193039380Y-103530021D01*
X193051161Y-103526447D01*
X193065853Y-103525000D01*
X193286947Y-103525000D01*
X193301639Y-103526447D01*
X193301639Y-103526447D01*
G37*
G36*
X192801639Y-103526447D02*
X192813420Y-103530021D01*
X192824265Y-103535818D01*
X192833777Y-103543623D01*
X192841582Y-103553135D01*
X192847379Y-103563980D01*
X192850953Y-103575761D01*
X192852400Y-103590453D01*
X192852400Y-104361547D01*
X192850953Y-104376239D01*
X192847379Y-104388020D01*
X192841582Y-104398865D01*
X192833777Y-104408377D01*
X192824265Y-104416182D01*
X192813420Y-104421979D01*
X192801639Y-104425553D01*
X192786947Y-104427000D01*
X192565853Y-104427000D01*
X192551161Y-104425553D01*
X192539380Y-104421979D01*
X192528535Y-104416182D01*
X192519023Y-104408377D01*
X192511218Y-104398865D01*
X192505421Y-104388020D01*
X192501847Y-104376239D01*
X192500400Y-104361547D01*
X192500400Y-103590453D01*
X192501847Y-103575761D01*
X192505421Y-103563980D01*
X192511218Y-103553135D01*
X192519023Y-103543623D01*
X192528535Y-103535818D01*
X192539380Y-103530021D01*
X192551161Y-103526447D01*
X192565853Y-103525000D01*
X192786947Y-103525000D01*
X192801639Y-103526447D01*
X192801639Y-103526447D01*
G37*
G36*
X192301639Y-103526447D02*
X192313420Y-103530021D01*
X192324265Y-103535818D01*
X192333777Y-103543623D01*
X192341582Y-103553135D01*
X192347379Y-103563980D01*
X192350953Y-103575761D01*
X192352400Y-103590453D01*
X192352400Y-104361547D01*
X192350953Y-104376239D01*
X192347379Y-104388020D01*
X192341582Y-104398865D01*
X192333777Y-104408377D01*
X192324265Y-104416182D01*
X192313420Y-104421979D01*
X192301639Y-104425553D01*
X192286947Y-104427000D01*
X192065853Y-104427000D01*
X192051161Y-104425553D01*
X192039380Y-104421979D01*
X192028535Y-104416182D01*
X192019023Y-104408377D01*
X192011218Y-104398865D01*
X192005421Y-104388020D01*
X192001847Y-104376239D01*
X192000400Y-104361547D01*
X192000400Y-103590453D01*
X192001847Y-103575761D01*
X192005421Y-103563980D01*
X192011218Y-103553135D01*
X192019023Y-103543623D01*
X192028535Y-103535818D01*
X192039380Y-103530021D01*
X192051161Y-103526447D01*
X192065853Y-103525000D01*
X192286947Y-103525000D01*
X192301639Y-103526447D01*
X192301639Y-103526447D01*
G37*
G36*
X191801639Y-103526447D02*
X191813420Y-103530021D01*
X191824265Y-103535818D01*
X191833777Y-103543623D01*
X191841582Y-103553135D01*
X191847379Y-103563980D01*
X191850953Y-103575761D01*
X191852400Y-103590453D01*
X191852400Y-104361547D01*
X191850953Y-104376239D01*
X191847379Y-104388020D01*
X191841582Y-104398865D01*
X191833777Y-104408377D01*
X191824265Y-104416182D01*
X191813420Y-104421979D01*
X191801639Y-104425553D01*
X191786947Y-104427000D01*
X191565853Y-104427000D01*
X191551161Y-104425553D01*
X191539380Y-104421979D01*
X191528535Y-104416182D01*
X191519023Y-104408377D01*
X191511218Y-104398865D01*
X191505421Y-104388020D01*
X191501847Y-104376239D01*
X191500400Y-104361547D01*
X191500400Y-103590453D01*
X191501847Y-103575761D01*
X191505421Y-103563980D01*
X191511218Y-103553135D01*
X191519023Y-103543623D01*
X191528535Y-103535818D01*
X191539380Y-103530021D01*
X191551161Y-103526447D01*
X191565853Y-103525000D01*
X191786947Y-103525000D01*
X191801639Y-103526447D01*
X191801639Y-103526447D01*
G37*
G36*
X191301639Y-103526447D02*
X191313420Y-103530021D01*
X191324265Y-103535818D01*
X191333777Y-103543623D01*
X191341582Y-103553135D01*
X191347379Y-103563980D01*
X191350953Y-103575761D01*
X191352400Y-103590453D01*
X191352400Y-104361547D01*
X191350953Y-104376239D01*
X191347379Y-104388020D01*
X191341582Y-104398865D01*
X191333777Y-104408377D01*
X191324265Y-104416182D01*
X191313420Y-104421979D01*
X191301639Y-104425553D01*
X191286947Y-104427000D01*
X191065853Y-104427000D01*
X191051161Y-104425553D01*
X191039380Y-104421979D01*
X191028535Y-104416182D01*
X191019023Y-104408377D01*
X191011218Y-104398865D01*
X191005421Y-104388020D01*
X191001847Y-104376239D01*
X191000400Y-104361547D01*
X191000400Y-103590453D01*
X191001847Y-103575761D01*
X191005421Y-103563980D01*
X191011218Y-103553135D01*
X191019023Y-103543623D01*
X191028535Y-103535818D01*
X191039380Y-103530021D01*
X191051161Y-103526447D01*
X191065853Y-103525000D01*
X191286947Y-103525000D01*
X191301639Y-103526447D01*
X191301639Y-103526447D01*
G37*
G36*
X200179800Y-104271000D02*
X199177800Y-104271000D01*
X199177800Y-103369000D01*
X200179800Y-103369000D01*
X200179800Y-104271000D01*
X200179800Y-104271000D01*
G37*
G36*
X198179800Y-103321000D02*
X197177800Y-103321000D01*
X197177800Y-102419000D01*
X198179800Y-102419000D01*
X198179800Y-103321000D01*
X198179800Y-103321000D01*
G37*
G36*
X190036677Y-101954250D02*
X190077757Y-101966711D01*
X190115626Y-101986953D01*
X190148813Y-102014187D01*
X190176047Y-102047374D01*
X190196289Y-102085243D01*
X190208750Y-102126323D01*
X190213200Y-102171504D01*
X190213200Y-102705096D01*
X190208750Y-102750277D01*
X190196289Y-102791357D01*
X190176047Y-102829226D01*
X190148813Y-102862413D01*
X190115626Y-102889647D01*
X190077757Y-102909889D01*
X190036677Y-102922350D01*
X189991496Y-102926800D01*
X189382904Y-102926800D01*
X189337723Y-102922350D01*
X189296643Y-102909889D01*
X189258774Y-102889647D01*
X189225587Y-102862413D01*
X189198353Y-102829226D01*
X189178111Y-102791357D01*
X189165650Y-102750277D01*
X189161200Y-102705096D01*
X189161200Y-102171504D01*
X189165650Y-102126323D01*
X189178111Y-102085243D01*
X189198353Y-102047374D01*
X189225587Y-102014187D01*
X189258774Y-101986953D01*
X189296643Y-101966711D01*
X189337723Y-101954250D01*
X189382904Y-101949800D01*
X189991496Y-101949800D01*
X190036677Y-101954250D01*
X190036677Y-101954250D01*
G37*
G36*
X200179800Y-102371000D02*
X199177800Y-102371000D01*
X199177800Y-101469000D01*
X200179800Y-101469000D01*
X200179800Y-102371000D01*
X200179800Y-102371000D01*
G37*
G36*
X193237077Y-101014550D02*
X193278157Y-101027011D01*
X193316026Y-101047253D01*
X193349213Y-101074487D01*
X193376447Y-101107674D01*
X193396689Y-101145543D01*
X193409150Y-101186623D01*
X193413600Y-101231804D01*
X193413600Y-101765396D01*
X193409150Y-101810577D01*
X193396689Y-101851657D01*
X193376447Y-101889526D01*
X193349213Y-101922713D01*
X193316026Y-101949947D01*
X193278157Y-101970189D01*
X193237077Y-101982650D01*
X193191896Y-101987100D01*
X192583304Y-101987100D01*
X192538123Y-101982650D01*
X192497043Y-101970189D01*
X192459174Y-101949947D01*
X192425987Y-101922713D01*
X192398753Y-101889526D01*
X192378511Y-101851657D01*
X192366050Y-101810577D01*
X192361600Y-101765396D01*
X192361600Y-101231804D01*
X192366050Y-101186623D01*
X192378511Y-101145543D01*
X192398753Y-101107674D01*
X192425987Y-101074487D01*
X192459174Y-101047253D01*
X192497043Y-101027011D01*
X192538123Y-101014550D01*
X192583304Y-101010100D01*
X193191896Y-101010100D01*
X193237077Y-101014550D01*
X193237077Y-101014550D01*
G37*
G36*
X194608677Y-101014550D02*
X194649757Y-101027011D01*
X194687626Y-101047253D01*
X194720813Y-101074487D01*
X194748047Y-101107674D01*
X194768289Y-101145543D01*
X194780750Y-101186623D01*
X194785200Y-101231804D01*
X194785200Y-101765396D01*
X194780750Y-101810577D01*
X194768289Y-101851657D01*
X194748047Y-101889526D01*
X194720813Y-101922713D01*
X194687626Y-101949947D01*
X194649757Y-101970189D01*
X194608677Y-101982650D01*
X194563496Y-101987100D01*
X193954904Y-101987100D01*
X193909723Y-101982650D01*
X193868643Y-101970189D01*
X193830774Y-101949947D01*
X193797587Y-101922713D01*
X193770353Y-101889526D01*
X193750111Y-101851657D01*
X193737650Y-101810577D01*
X193733200Y-101765396D01*
X193733200Y-101231804D01*
X193737650Y-101186623D01*
X193750111Y-101145543D01*
X193770353Y-101107674D01*
X193797587Y-101074487D01*
X193830774Y-101047253D01*
X193868643Y-101027011D01*
X193909723Y-101014550D01*
X193954904Y-101010100D01*
X194563496Y-101010100D01*
X194608677Y-101014550D01*
X194608677Y-101014550D01*
G37*
G36*
X190036677Y-100379250D02*
X190077757Y-100391711D01*
X190115626Y-100411953D01*
X190148813Y-100439187D01*
X190176047Y-100472374D01*
X190196289Y-100510243D01*
X190208750Y-100551323D01*
X190213200Y-100596504D01*
X190213200Y-101130096D01*
X190208750Y-101175277D01*
X190196289Y-101216357D01*
X190176047Y-101254226D01*
X190148813Y-101287413D01*
X190115626Y-101314647D01*
X190077757Y-101334889D01*
X190036677Y-101347350D01*
X189991496Y-101351800D01*
X189382904Y-101351800D01*
X189337723Y-101347350D01*
X189296643Y-101334889D01*
X189258774Y-101314647D01*
X189225587Y-101287413D01*
X189198353Y-101254226D01*
X189178111Y-101216357D01*
X189165650Y-101175277D01*
X189161200Y-101130096D01*
X189161200Y-100596504D01*
X189165650Y-100551323D01*
X189178111Y-100510243D01*
X189198353Y-100472374D01*
X189225587Y-100439187D01*
X189258774Y-100411953D01*
X189296643Y-100391711D01*
X189337723Y-100379250D01*
X189382904Y-100374800D01*
X189991496Y-100374800D01*
X190036677Y-100379250D01*
X190036677Y-100379250D01*
G37*
G36*
X193237077Y-99439550D02*
X193278157Y-99452011D01*
X193316026Y-99472253D01*
X193349213Y-99499487D01*
X193376447Y-99532674D01*
X193396689Y-99570543D01*
X193409150Y-99611623D01*
X193413600Y-99656804D01*
X193413600Y-100190396D01*
X193409150Y-100235577D01*
X193396689Y-100276657D01*
X193376447Y-100314526D01*
X193349213Y-100347713D01*
X193316026Y-100374947D01*
X193278157Y-100395189D01*
X193237077Y-100407650D01*
X193191896Y-100412100D01*
X192583304Y-100412100D01*
X192538123Y-100407650D01*
X192497043Y-100395189D01*
X192459174Y-100374947D01*
X192425987Y-100347713D01*
X192398753Y-100314526D01*
X192378511Y-100276657D01*
X192366050Y-100235577D01*
X192361600Y-100190396D01*
X192361600Y-99656804D01*
X192366050Y-99611623D01*
X192378511Y-99570543D01*
X192398753Y-99532674D01*
X192425987Y-99499487D01*
X192459174Y-99472253D01*
X192497043Y-99452011D01*
X192538123Y-99439550D01*
X192583304Y-99435100D01*
X193191896Y-99435100D01*
X193237077Y-99439550D01*
X193237077Y-99439550D01*
G37*
G36*
X194608677Y-99439550D02*
X194649757Y-99452011D01*
X194687626Y-99472253D01*
X194720813Y-99499487D01*
X194748047Y-99532674D01*
X194768289Y-99570543D01*
X194780750Y-99611623D01*
X194785200Y-99656804D01*
X194785200Y-100190396D01*
X194780750Y-100235577D01*
X194768289Y-100276657D01*
X194748047Y-100314526D01*
X194720813Y-100347713D01*
X194687626Y-100374947D01*
X194649757Y-100395189D01*
X194608677Y-100407650D01*
X194563496Y-100412100D01*
X193954904Y-100412100D01*
X193909723Y-100407650D01*
X193868643Y-100395189D01*
X193830774Y-100374947D01*
X193797587Y-100347713D01*
X193770353Y-100314526D01*
X193750111Y-100276657D01*
X193737650Y-100235577D01*
X193733200Y-100190396D01*
X193733200Y-99656804D01*
X193737650Y-99611623D01*
X193750111Y-99570543D01*
X193770353Y-99532674D01*
X193797587Y-99499487D01*
X193830774Y-99472253D01*
X193868643Y-99452011D01*
X193909723Y-99439550D01*
X193954904Y-99435100D01*
X194563496Y-99435100D01*
X194608677Y-99439550D01*
X194608677Y-99439550D01*
G37*
G36*
X198505200Y-90852400D02*
X198506161Y-90862155D01*
X198509006Y-90871534D01*
X198513627Y-90880179D01*
X198519845Y-90887755D01*
X198527421Y-90893973D01*
X198536066Y-90898594D01*
X198545445Y-90901439D01*
X198555200Y-90902400D01*
X199070200Y-90902400D01*
X199070200Y-96854400D01*
X198555200Y-96854400D01*
X198545445Y-96855361D01*
X198536066Y-96858206D01*
X198527421Y-96862827D01*
X198519845Y-96869045D01*
X198513627Y-96876621D01*
X198509006Y-96885266D01*
X198506161Y-96894645D01*
X198505200Y-96904400D01*
X198505200Y-97419400D01*
X192553200Y-97419400D01*
X192553200Y-96904400D01*
X192552239Y-96894645D01*
X192549394Y-96885266D01*
X192544773Y-96876621D01*
X192538555Y-96869045D01*
X192530979Y-96862827D01*
X192522334Y-96858206D01*
X192512955Y-96855361D01*
X192503200Y-96854400D01*
X191988200Y-96854400D01*
X191988200Y-90939400D01*
X192540200Y-90939400D01*
X192540200Y-96817400D01*
X192541161Y-96827155D01*
X192544006Y-96836534D01*
X192548627Y-96845179D01*
X192554845Y-96852755D01*
X192562421Y-96858973D01*
X192571066Y-96863594D01*
X192580445Y-96866439D01*
X192590200Y-96867400D01*
X198468200Y-96867400D01*
X198477955Y-96866439D01*
X198487334Y-96863594D01*
X198495979Y-96858973D01*
X198503555Y-96852755D01*
X198509773Y-96845179D01*
X198514394Y-96836534D01*
X198517239Y-96827155D01*
X198518200Y-96817400D01*
X198518200Y-90939400D01*
X198517239Y-90929645D01*
X198514394Y-90920266D01*
X198509773Y-90911621D01*
X198503555Y-90904045D01*
X198495979Y-90897827D01*
X198487334Y-90893206D01*
X198477955Y-90890361D01*
X198468200Y-90889400D01*
X192590200Y-90889400D01*
X192580445Y-90890361D01*
X192571066Y-90893206D01*
X192562421Y-90897827D01*
X192554845Y-90904045D01*
X192548627Y-90911621D01*
X192544006Y-90920266D01*
X192541161Y-90929645D01*
X192540200Y-90939400D01*
X191988200Y-90939400D01*
X191988200Y-90902400D01*
X192503200Y-90902400D01*
X192512955Y-90901439D01*
X192522334Y-90898594D01*
X192530979Y-90893973D01*
X192538555Y-90887755D01*
X192544773Y-90880179D01*
X192549394Y-90871534D01*
X192552239Y-90862155D01*
X192553200Y-90852400D01*
X192553200Y-90337400D01*
X198505200Y-90337400D01*
X198505200Y-90852400D01*
X198505200Y-90852400D01*
G37*
G36*
X198280200Y-96629400D02*
X192778200Y-96629400D01*
X192778200Y-91127400D01*
X198280200Y-91127400D01*
X198280200Y-96629400D01*
X198280200Y-96629400D01*
G37*
G36*
X193837639Y-86370247D02*
X193849420Y-86373821D01*
X193860265Y-86379618D01*
X193869777Y-86387423D01*
X193877582Y-86396935D01*
X193883379Y-86407780D01*
X193886953Y-86419561D01*
X193888400Y-86434253D01*
X193888400Y-87230347D01*
X193886953Y-87245039D01*
X193883379Y-87256820D01*
X193877582Y-87267665D01*
X193869777Y-87277177D01*
X193860265Y-87284982D01*
X193849420Y-87290779D01*
X193837639Y-87294353D01*
X193822947Y-87295800D01*
X193601853Y-87295800D01*
X193587161Y-87294353D01*
X193575380Y-87290779D01*
X193564535Y-87284982D01*
X193555023Y-87277177D01*
X193547218Y-87267665D01*
X193541421Y-87256820D01*
X193537847Y-87245039D01*
X193536400Y-87230347D01*
X193536400Y-86434253D01*
X193537847Y-86419561D01*
X193541421Y-86407780D01*
X193547218Y-86396935D01*
X193555023Y-86387423D01*
X193564535Y-86379618D01*
X193575380Y-86373821D01*
X193587161Y-86370247D01*
X193601853Y-86368800D01*
X193822947Y-86368800D01*
X193837639Y-86370247D01*
X193837639Y-86370247D01*
G37*
G36*
X194337639Y-86370247D02*
X194349420Y-86373821D01*
X194360265Y-86379618D01*
X194369777Y-86387423D01*
X194377582Y-86396935D01*
X194383379Y-86407780D01*
X194386953Y-86419561D01*
X194388400Y-86434253D01*
X194388400Y-87230347D01*
X194386953Y-87245039D01*
X194383379Y-87256820D01*
X194377582Y-87267665D01*
X194369777Y-87277177D01*
X194360265Y-87284982D01*
X194349420Y-87290779D01*
X194337639Y-87294353D01*
X194322947Y-87295800D01*
X194101853Y-87295800D01*
X194087161Y-87294353D01*
X194075380Y-87290779D01*
X194064535Y-87284982D01*
X194055023Y-87277177D01*
X194047218Y-87267665D01*
X194041421Y-87256820D01*
X194037847Y-87245039D01*
X194036400Y-87230347D01*
X194036400Y-86434253D01*
X194037847Y-86419561D01*
X194041421Y-86407780D01*
X194047218Y-86396935D01*
X194055023Y-86387423D01*
X194064535Y-86379618D01*
X194075380Y-86373821D01*
X194087161Y-86370247D01*
X194101853Y-86368800D01*
X194322947Y-86368800D01*
X194337639Y-86370247D01*
X194337639Y-86370247D01*
G37*
G36*
X194837639Y-86370247D02*
X194849420Y-86373821D01*
X194860265Y-86379618D01*
X194869777Y-86387423D01*
X194877582Y-86396935D01*
X194883379Y-86407780D01*
X194886953Y-86419561D01*
X194888400Y-86434253D01*
X194888400Y-87230347D01*
X194886953Y-87245039D01*
X194883379Y-87256820D01*
X194877582Y-87267665D01*
X194869777Y-87277177D01*
X194860265Y-87284982D01*
X194849420Y-87290779D01*
X194837639Y-87294353D01*
X194822947Y-87295800D01*
X194601853Y-87295800D01*
X194587161Y-87294353D01*
X194575380Y-87290779D01*
X194564535Y-87284982D01*
X194555023Y-87277177D01*
X194547218Y-87267665D01*
X194541421Y-87256820D01*
X194537847Y-87245039D01*
X194536400Y-87230347D01*
X194536400Y-86434253D01*
X194537847Y-86419561D01*
X194541421Y-86407780D01*
X194547218Y-86396935D01*
X194555023Y-86387423D01*
X194564535Y-86379618D01*
X194575380Y-86373821D01*
X194587161Y-86370247D01*
X194601853Y-86368800D01*
X194822947Y-86368800D01*
X194837639Y-86370247D01*
X194837639Y-86370247D01*
G37*
G36*
X195337639Y-86370247D02*
X195349420Y-86373821D01*
X195360265Y-86379618D01*
X195369777Y-86387423D01*
X195377582Y-86396935D01*
X195383379Y-86407780D01*
X195386953Y-86419561D01*
X195388400Y-86434253D01*
X195388400Y-87230347D01*
X195386953Y-87245039D01*
X195383379Y-87256820D01*
X195377582Y-87267665D01*
X195369777Y-87277177D01*
X195360265Y-87284982D01*
X195349420Y-87290779D01*
X195337639Y-87294353D01*
X195322947Y-87295800D01*
X195101853Y-87295800D01*
X195087161Y-87294353D01*
X195075380Y-87290779D01*
X195064535Y-87284982D01*
X195055023Y-87277177D01*
X195047218Y-87267665D01*
X195041421Y-87256820D01*
X195037847Y-87245039D01*
X195036400Y-87230347D01*
X195036400Y-86434253D01*
X195037847Y-86419561D01*
X195041421Y-86407780D01*
X195047218Y-86396935D01*
X195055023Y-86387423D01*
X195064535Y-86379618D01*
X195075380Y-86373821D01*
X195087161Y-86370247D01*
X195101853Y-86368800D01*
X195322947Y-86368800D01*
X195337639Y-86370247D01*
X195337639Y-86370247D01*
G37*
G36*
X196312639Y-85970247D02*
X196324420Y-85973821D01*
X196335265Y-85979618D01*
X196344777Y-85987423D01*
X196352582Y-85996935D01*
X196358379Y-86007780D01*
X196361953Y-86019561D01*
X196363400Y-86034253D01*
X196363400Y-86255347D01*
X196361953Y-86270039D01*
X196358379Y-86281820D01*
X196352582Y-86292665D01*
X196344777Y-86302177D01*
X196335265Y-86309982D01*
X196324420Y-86315779D01*
X196312639Y-86319353D01*
X196297947Y-86320800D01*
X195501853Y-86320800D01*
X195487161Y-86319353D01*
X195475380Y-86315779D01*
X195464535Y-86309982D01*
X195455023Y-86302177D01*
X195447218Y-86292665D01*
X195441421Y-86281820D01*
X195437847Y-86270039D01*
X195436400Y-86255347D01*
X195436400Y-86034253D01*
X195437847Y-86019561D01*
X195441421Y-86007780D01*
X195447218Y-85996935D01*
X195455023Y-85987423D01*
X195464535Y-85979618D01*
X195475380Y-85973821D01*
X195487161Y-85970247D01*
X195501853Y-85968800D01*
X196297947Y-85968800D01*
X196312639Y-85970247D01*
X196312639Y-85970247D01*
G37*
G36*
X193437639Y-85970247D02*
X193449420Y-85973821D01*
X193460265Y-85979618D01*
X193469777Y-85987423D01*
X193477582Y-85996935D01*
X193483379Y-86007780D01*
X193486953Y-86019561D01*
X193488400Y-86034253D01*
X193488400Y-86255347D01*
X193486953Y-86270039D01*
X193483379Y-86281820D01*
X193477582Y-86292665D01*
X193469777Y-86302177D01*
X193460265Y-86309982D01*
X193449420Y-86315779D01*
X193437639Y-86319353D01*
X193422947Y-86320800D01*
X192626853Y-86320800D01*
X192612161Y-86319353D01*
X192600380Y-86315779D01*
X192589535Y-86309982D01*
X192580023Y-86302177D01*
X192572218Y-86292665D01*
X192566421Y-86281820D01*
X192562847Y-86270039D01*
X192561400Y-86255347D01*
X192561400Y-86034253D01*
X192562847Y-86019561D01*
X192566421Y-86007780D01*
X192572218Y-85996935D01*
X192580023Y-85987423D01*
X192589535Y-85979618D01*
X192600380Y-85973821D01*
X192612161Y-85970247D01*
X192626853Y-85968800D01*
X193422947Y-85968800D01*
X193437639Y-85970247D01*
X193437639Y-85970247D01*
G37*
G36*
X195126964Y-84548486D02*
X195170361Y-84561651D01*
X195210353Y-84583027D01*
X195245406Y-84611794D01*
X195274173Y-84646847D01*
X195295549Y-84686839D01*
X195308714Y-84730236D01*
X195313400Y-84777816D01*
X195313400Y-86011784D01*
X195308714Y-86059364D01*
X195295549Y-86102761D01*
X195274173Y-86142753D01*
X195245406Y-86177806D01*
X195210353Y-86206573D01*
X195170361Y-86227949D01*
X195126964Y-86241114D01*
X195079384Y-86245800D01*
X193845416Y-86245800D01*
X193797836Y-86241114D01*
X193754439Y-86227949D01*
X193714447Y-86206573D01*
X193679394Y-86177806D01*
X193650627Y-86142753D01*
X193629251Y-86102761D01*
X193616086Y-86059364D01*
X193611400Y-86011784D01*
X193611400Y-84777816D01*
X193616086Y-84730236D01*
X193629251Y-84686839D01*
X193650627Y-84646847D01*
X193679394Y-84611794D01*
X193714447Y-84583027D01*
X193754439Y-84561651D01*
X193797836Y-84548486D01*
X193845416Y-84543800D01*
X195079384Y-84543800D01*
X195126964Y-84548486D01*
X195126964Y-84548486D01*
G37*
G36*
X196312639Y-85470247D02*
X196324420Y-85473821D01*
X196335265Y-85479618D01*
X196344777Y-85487423D01*
X196352582Y-85496935D01*
X196358379Y-85507780D01*
X196361953Y-85519561D01*
X196363400Y-85534253D01*
X196363400Y-85755347D01*
X196361953Y-85770039D01*
X196358379Y-85781820D01*
X196352582Y-85792665D01*
X196344777Y-85802177D01*
X196335265Y-85809982D01*
X196324420Y-85815779D01*
X196312639Y-85819353D01*
X196297947Y-85820800D01*
X195501853Y-85820800D01*
X195487161Y-85819353D01*
X195475380Y-85815779D01*
X195464535Y-85809982D01*
X195455023Y-85802177D01*
X195447218Y-85792665D01*
X195441421Y-85781820D01*
X195437847Y-85770039D01*
X195436400Y-85755347D01*
X195436400Y-85534253D01*
X195437847Y-85519561D01*
X195441421Y-85507780D01*
X195447218Y-85496935D01*
X195455023Y-85487423D01*
X195464535Y-85479618D01*
X195475380Y-85473821D01*
X195487161Y-85470247D01*
X195501853Y-85468800D01*
X196297947Y-85468800D01*
X196312639Y-85470247D01*
X196312639Y-85470247D01*
G37*
G36*
X193437639Y-85470247D02*
X193449420Y-85473821D01*
X193460265Y-85479618D01*
X193469777Y-85487423D01*
X193477582Y-85496935D01*
X193483379Y-85507780D01*
X193486953Y-85519561D01*
X193488400Y-85534253D01*
X193488400Y-85755347D01*
X193486953Y-85770039D01*
X193483379Y-85781820D01*
X193477582Y-85792665D01*
X193469777Y-85802177D01*
X193460265Y-85809982D01*
X193449420Y-85815779D01*
X193437639Y-85819353D01*
X193422947Y-85820800D01*
X192626853Y-85820800D01*
X192612161Y-85819353D01*
X192600380Y-85815779D01*
X192589535Y-85809982D01*
X192580023Y-85802177D01*
X192572218Y-85792665D01*
X192566421Y-85781820D01*
X192562847Y-85770039D01*
X192561400Y-85755347D01*
X192561400Y-85534253D01*
X192562847Y-85519561D01*
X192566421Y-85507780D01*
X192572218Y-85496935D01*
X192580023Y-85487423D01*
X192589535Y-85479618D01*
X192600380Y-85473821D01*
X192612161Y-85470247D01*
X192626853Y-85468800D01*
X193422947Y-85468800D01*
X193437639Y-85470247D01*
X193437639Y-85470247D01*
G37*
G36*
X193437639Y-84970247D02*
X193449420Y-84973821D01*
X193460265Y-84979618D01*
X193469777Y-84987423D01*
X193477582Y-84996935D01*
X193483379Y-85007780D01*
X193486953Y-85019561D01*
X193488400Y-85034253D01*
X193488400Y-85255347D01*
X193486953Y-85270039D01*
X193483379Y-85281820D01*
X193477582Y-85292665D01*
X193469777Y-85302177D01*
X193460265Y-85309982D01*
X193449420Y-85315779D01*
X193437639Y-85319353D01*
X193422947Y-85320800D01*
X192626853Y-85320800D01*
X192612161Y-85319353D01*
X192600380Y-85315779D01*
X192589535Y-85309982D01*
X192580023Y-85302177D01*
X192572218Y-85292665D01*
X192566421Y-85281820D01*
X192562847Y-85270039D01*
X192561400Y-85255347D01*
X192561400Y-85034253D01*
X192562847Y-85019561D01*
X192566421Y-85007780D01*
X192572218Y-84996935D01*
X192580023Y-84987423D01*
X192589535Y-84979618D01*
X192600380Y-84973821D01*
X192612161Y-84970247D01*
X192626853Y-84968800D01*
X193422947Y-84968800D01*
X193437639Y-84970247D01*
X193437639Y-84970247D01*
G37*
G36*
X196312639Y-84970247D02*
X196324420Y-84973821D01*
X196335265Y-84979618D01*
X196344777Y-84987423D01*
X196352582Y-84996935D01*
X196358379Y-85007780D01*
X196361953Y-85019561D01*
X196363400Y-85034253D01*
X196363400Y-85255347D01*
X196361953Y-85270039D01*
X196358379Y-85281820D01*
X196352582Y-85292665D01*
X196344777Y-85302177D01*
X196335265Y-85309982D01*
X196324420Y-85315779D01*
X196312639Y-85319353D01*
X196297947Y-85320800D01*
X195501853Y-85320800D01*
X195487161Y-85319353D01*
X195475380Y-85315779D01*
X195464535Y-85309982D01*
X195455023Y-85302177D01*
X195447218Y-85292665D01*
X195441421Y-85281820D01*
X195437847Y-85270039D01*
X195436400Y-85255347D01*
X195436400Y-85034253D01*
X195437847Y-85019561D01*
X195441421Y-85007780D01*
X195447218Y-84996935D01*
X195455023Y-84987423D01*
X195464535Y-84979618D01*
X195475380Y-84973821D01*
X195487161Y-84970247D01*
X195501853Y-84968800D01*
X196297947Y-84968800D01*
X196312639Y-84970247D01*
X196312639Y-84970247D01*
G37*
G36*
X193437639Y-84470247D02*
X193449420Y-84473821D01*
X193460265Y-84479618D01*
X193469777Y-84487423D01*
X193477582Y-84496935D01*
X193483379Y-84507780D01*
X193486953Y-84519561D01*
X193488400Y-84534253D01*
X193488400Y-84755347D01*
X193486953Y-84770039D01*
X193483379Y-84781820D01*
X193477582Y-84792665D01*
X193469777Y-84802177D01*
X193460265Y-84809982D01*
X193449420Y-84815779D01*
X193437639Y-84819353D01*
X193422947Y-84820800D01*
X192626853Y-84820800D01*
X192612161Y-84819353D01*
X192600380Y-84815779D01*
X192589535Y-84809982D01*
X192580023Y-84802177D01*
X192572218Y-84792665D01*
X192566421Y-84781820D01*
X192562847Y-84770039D01*
X192561400Y-84755347D01*
X192561400Y-84534253D01*
X192562847Y-84519561D01*
X192566421Y-84507780D01*
X192572218Y-84496935D01*
X192580023Y-84487423D01*
X192589535Y-84479618D01*
X192600380Y-84473821D01*
X192612161Y-84470247D01*
X192626853Y-84468800D01*
X193422947Y-84468800D01*
X193437639Y-84470247D01*
X193437639Y-84470247D01*
G37*
G36*
X196312639Y-84470247D02*
X196324420Y-84473821D01*
X196335265Y-84479618D01*
X196344777Y-84487423D01*
X196352582Y-84496935D01*
X196358379Y-84507780D01*
X196361953Y-84519561D01*
X196363400Y-84534253D01*
X196363400Y-84755347D01*
X196361953Y-84770039D01*
X196358379Y-84781820D01*
X196352582Y-84792665D01*
X196344777Y-84802177D01*
X196335265Y-84809982D01*
X196324420Y-84815779D01*
X196312639Y-84819353D01*
X196297947Y-84820800D01*
X195501853Y-84820800D01*
X195487161Y-84819353D01*
X195475380Y-84815779D01*
X195464535Y-84809982D01*
X195455023Y-84802177D01*
X195447218Y-84792665D01*
X195441421Y-84781820D01*
X195437847Y-84770039D01*
X195436400Y-84755347D01*
X195436400Y-84534253D01*
X195437847Y-84519561D01*
X195441421Y-84507780D01*
X195447218Y-84496935D01*
X195455023Y-84487423D01*
X195464535Y-84479618D01*
X195475380Y-84473821D01*
X195487161Y-84470247D01*
X195501853Y-84468800D01*
X196297947Y-84468800D01*
X196312639Y-84470247D01*
X196312639Y-84470247D01*
G37*
G36*
X195337639Y-83495247D02*
X195349420Y-83498821D01*
X195360265Y-83504618D01*
X195369777Y-83512423D01*
X195377582Y-83521935D01*
X195383379Y-83532780D01*
X195386953Y-83544561D01*
X195388400Y-83559253D01*
X195388400Y-84355347D01*
X195386953Y-84370039D01*
X195383379Y-84381820D01*
X195377582Y-84392665D01*
X195369777Y-84402177D01*
X195360265Y-84409982D01*
X195349420Y-84415779D01*
X195337639Y-84419353D01*
X195322947Y-84420800D01*
X195101853Y-84420800D01*
X195087161Y-84419353D01*
X195075380Y-84415779D01*
X195064535Y-84409982D01*
X195055023Y-84402177D01*
X195047218Y-84392665D01*
X195041421Y-84381820D01*
X195037847Y-84370039D01*
X195036400Y-84355347D01*
X195036400Y-83559253D01*
X195037847Y-83544561D01*
X195041421Y-83532780D01*
X195047218Y-83521935D01*
X195055023Y-83512423D01*
X195064535Y-83504618D01*
X195075380Y-83498821D01*
X195087161Y-83495247D01*
X195101853Y-83493800D01*
X195322947Y-83493800D01*
X195337639Y-83495247D01*
X195337639Y-83495247D01*
G37*
G36*
X194837639Y-83495247D02*
X194849420Y-83498821D01*
X194860265Y-83504618D01*
X194869777Y-83512423D01*
X194877582Y-83521935D01*
X194883379Y-83532780D01*
X194886953Y-83544561D01*
X194888400Y-83559253D01*
X194888400Y-84355347D01*
X194886953Y-84370039D01*
X194883379Y-84381820D01*
X194877582Y-84392665D01*
X194869777Y-84402177D01*
X194860265Y-84409982D01*
X194849420Y-84415779D01*
X194837639Y-84419353D01*
X194822947Y-84420800D01*
X194601853Y-84420800D01*
X194587161Y-84419353D01*
X194575380Y-84415779D01*
X194564535Y-84409982D01*
X194555023Y-84402177D01*
X194547218Y-84392665D01*
X194541421Y-84381820D01*
X194537847Y-84370039D01*
X194536400Y-84355347D01*
X194536400Y-83559253D01*
X194537847Y-83544561D01*
X194541421Y-83532780D01*
X194547218Y-83521935D01*
X194555023Y-83512423D01*
X194564535Y-83504618D01*
X194575380Y-83498821D01*
X194587161Y-83495247D01*
X194601853Y-83493800D01*
X194822947Y-83493800D01*
X194837639Y-83495247D01*
X194837639Y-83495247D01*
G37*
G36*
X194337639Y-83495247D02*
X194349420Y-83498821D01*
X194360265Y-83504618D01*
X194369777Y-83512423D01*
X194377582Y-83521935D01*
X194383379Y-83532780D01*
X194386953Y-83544561D01*
X194388400Y-83559253D01*
X194388400Y-84355347D01*
X194386953Y-84370039D01*
X194383379Y-84381820D01*
X194377582Y-84392665D01*
X194369777Y-84402177D01*
X194360265Y-84409982D01*
X194349420Y-84415779D01*
X194337639Y-84419353D01*
X194322947Y-84420800D01*
X194101853Y-84420800D01*
X194087161Y-84419353D01*
X194075380Y-84415779D01*
X194064535Y-84409982D01*
X194055023Y-84402177D01*
X194047218Y-84392665D01*
X194041421Y-84381820D01*
X194037847Y-84370039D01*
X194036400Y-84355347D01*
X194036400Y-83559253D01*
X194037847Y-83544561D01*
X194041421Y-83532780D01*
X194047218Y-83521935D01*
X194055023Y-83512423D01*
X194064535Y-83504618D01*
X194075380Y-83498821D01*
X194087161Y-83495247D01*
X194101853Y-83493800D01*
X194322947Y-83493800D01*
X194337639Y-83495247D01*
X194337639Y-83495247D01*
G37*
G36*
X193837639Y-83495247D02*
X193849420Y-83498821D01*
X193860265Y-83504618D01*
X193869777Y-83512423D01*
X193877582Y-83521935D01*
X193883379Y-83532780D01*
X193886953Y-83544561D01*
X193888400Y-83559253D01*
X193888400Y-84355347D01*
X193886953Y-84370039D01*
X193883379Y-84381820D01*
X193877582Y-84392665D01*
X193869777Y-84402177D01*
X193860265Y-84409982D01*
X193849420Y-84415779D01*
X193837639Y-84419353D01*
X193822947Y-84420800D01*
X193601853Y-84420800D01*
X193587161Y-84419353D01*
X193575380Y-84415779D01*
X193564535Y-84409982D01*
X193555023Y-84402177D01*
X193547218Y-84392665D01*
X193541421Y-84381820D01*
X193537847Y-84370039D01*
X193536400Y-84355347D01*
X193536400Y-83559253D01*
X193537847Y-83544561D01*
X193541421Y-83532780D01*
X193547218Y-83521935D01*
X193555023Y-83512423D01*
X193564535Y-83504618D01*
X193575380Y-83498821D01*
X193587161Y-83495247D01*
X193601853Y-83493800D01*
X193822947Y-83493800D01*
X193837639Y-83495247D01*
X193837639Y-83495247D01*
G37*
M02*
