G04 #@! TF.GenerationSoftware,KiCad,Pcbnew,(5.0.1)-3*
G04 #@! TF.CreationDate,2019-11-22T16:36:38-05:00*
G04 #@! TF.ProjectId,SmartWatch,536D61727457617463682E6B69636164,rev?*
G04 #@! TF.SameCoordinates,Original*
G04 #@! TF.FileFunction,Copper,L1,Top,Signal*
G04 #@! TF.FilePolarity,Positive*
%FSLAX46Y46*%
G04 Gerber Fmt 4.6, Leading zero omitted, Abs format (unit mm)*
G04 Created by KiCad (PCBNEW (5.0.1)-3) date 11/22/2019 4:36:38 PM*
%MOMM*%
%LPD*%
G01*
G04 APERTURE LIST*
G04 #@! TA.AperFunction,NonConductor*
%ADD10C,0.187500*%
G04 #@! TD*
G04 #@! TA.AperFunction,Conductor*
%ADD11C,0.100000*%
G04 #@! TD*
G04 #@! TA.AperFunction,SMDPad,CuDef*
%ADD12C,0.875000*%
G04 #@! TD*
G04 #@! TA.AperFunction,SMDPad,CuDef*
%ADD13C,2.410000*%
G04 #@! TD*
G04 #@! TA.AperFunction,ViaPad*
%ADD14C,0.500000*%
G04 #@! TD*
G04 #@! TA.AperFunction,SMDPad,CuDef*
%ADD15C,0.600000*%
G04 #@! TD*
G04 #@! TA.AperFunction,SMDPad,CuDef*
%ADD16R,1.600000X1.400000*%
G04 #@! TD*
G04 #@! TA.AperFunction,SMDPad,CuDef*
%ADD17R,4.000000X2.000000*%
G04 #@! TD*
G04 #@! TA.AperFunction,SMDPad,CuDef*
%ADD18R,1.524000X3.000000*%
G04 #@! TD*
G04 #@! TA.AperFunction,SMDPad,CuDef*
%ADD19R,0.600000X0.700000*%
G04 #@! TD*
G04 #@! TA.AperFunction,SMDPad,CuDef*
%ADD20R,1.500000X1.200000*%
G04 #@! TD*
G04 #@! TA.AperFunction,SMDPad,CuDef*
%ADD21R,1.060000X0.650000*%
G04 #@! TD*
G04 #@! TA.AperFunction,ViaPad*
%ADD22C,0.800000*%
G04 #@! TD*
G04 #@! TA.AperFunction,Conductor*
%ADD23C,0.750000*%
G04 #@! TD*
G04 #@! TA.AperFunction,Conductor*
%ADD24C,0.500000*%
G04 #@! TD*
G04 #@! TA.AperFunction,Conductor*
%ADD25C,0.250000*%
G04 #@! TD*
G04 #@! TA.AperFunction,Conductor*
%ADD26C,0.150000*%
G04 #@! TD*
G04 APERTURE END LIST*
D10*
X185563457Y-82736885D02*
X185563457Y-82236885D01*
X185563457Y-82379742D02*
X185599171Y-82308314D01*
X185634885Y-82272600D01*
X185706314Y-82236885D01*
X185777742Y-82236885D01*
X186313457Y-82701171D02*
X186242028Y-82736885D01*
X186099171Y-82736885D01*
X186027742Y-82701171D01*
X185992028Y-82629742D01*
X185992028Y-82344028D01*
X186027742Y-82272600D01*
X186099171Y-82236885D01*
X186242028Y-82236885D01*
X186313457Y-82272600D01*
X186349171Y-82344028D01*
X186349171Y-82415457D01*
X185992028Y-82486885D01*
X186599171Y-82236885D02*
X186777742Y-82736885D01*
X186956314Y-82236885D01*
X187242028Y-82665457D02*
X187277742Y-82701171D01*
X187242028Y-82736885D01*
X187206314Y-82701171D01*
X187242028Y-82665457D01*
X187242028Y-82736885D01*
X188563457Y-82736885D02*
X188134885Y-82736885D01*
X188349171Y-82736885D02*
X188349171Y-81986885D01*
X188277742Y-82094028D01*
X188206314Y-82165457D01*
X188134885Y-82201171D01*
X185577257Y-81771685D02*
X185577257Y-81021685D01*
X185827257Y-81557400D01*
X186077257Y-81021685D01*
X186077257Y-81771685D01*
X186755828Y-81771685D02*
X186755828Y-81378828D01*
X186720114Y-81307400D01*
X186648685Y-81271685D01*
X186505828Y-81271685D01*
X186434400Y-81307400D01*
X186755828Y-81735971D02*
X186684400Y-81771685D01*
X186505828Y-81771685D01*
X186434400Y-81735971D01*
X186398685Y-81664542D01*
X186398685Y-81593114D01*
X186434400Y-81521685D01*
X186505828Y-81485971D01*
X186684400Y-81485971D01*
X186755828Y-81450257D01*
X187005828Y-81271685D02*
X187291542Y-81271685D01*
X187112971Y-81021685D02*
X187112971Y-81664542D01*
X187148685Y-81735971D01*
X187220114Y-81771685D01*
X187291542Y-81771685D01*
X187434400Y-81271685D02*
X187720114Y-81271685D01*
X187541542Y-81021685D02*
X187541542Y-81664542D01*
X187577257Y-81735971D01*
X187648685Y-81771685D01*
X187720114Y-81771685D01*
X187970114Y-81771685D02*
X187970114Y-81021685D01*
X188291542Y-81771685D02*
X188291542Y-81378828D01*
X188255828Y-81307400D01*
X188184400Y-81271685D01*
X188077257Y-81271685D01*
X188005828Y-81307400D01*
X187970114Y-81343114D01*
X188934400Y-81735971D02*
X188862971Y-81771685D01*
X188720114Y-81771685D01*
X188648685Y-81735971D01*
X188612971Y-81664542D01*
X188612971Y-81378828D01*
X188648685Y-81307400D01*
X188720114Y-81271685D01*
X188862971Y-81271685D01*
X188934400Y-81307400D01*
X188970114Y-81378828D01*
X188970114Y-81450257D01*
X188612971Y-81521685D01*
X189220114Y-81271685D02*
X189362971Y-81771685D01*
X189505828Y-81414542D01*
X189648685Y-81771685D01*
X189791542Y-81271685D01*
X190862971Y-81021685D02*
X190862971Y-81557400D01*
X190827257Y-81664542D01*
X190755828Y-81735971D01*
X190648685Y-81771685D01*
X190577257Y-81771685D01*
X191541542Y-81771685D02*
X191541542Y-81378828D01*
X191505828Y-81307400D01*
X191434400Y-81271685D01*
X191291542Y-81271685D01*
X191220114Y-81307400D01*
X191541542Y-81735971D02*
X191470114Y-81771685D01*
X191291542Y-81771685D01*
X191220114Y-81735971D01*
X191184400Y-81664542D01*
X191184400Y-81593114D01*
X191220114Y-81521685D01*
X191291542Y-81485971D01*
X191470114Y-81485971D01*
X191541542Y-81450257D01*
X191898685Y-81771685D02*
X191898685Y-81271685D01*
X191898685Y-81343114D02*
X191934400Y-81307400D01*
X192005828Y-81271685D01*
X192112971Y-81271685D01*
X192184400Y-81307400D01*
X192220114Y-81378828D01*
X192220114Y-81771685D01*
X192220114Y-81378828D02*
X192255828Y-81307400D01*
X192327257Y-81271685D01*
X192434400Y-81271685D01*
X192505828Y-81307400D01*
X192541542Y-81378828D01*
X192541542Y-81771685D01*
X193184400Y-81735971D02*
X193112971Y-81771685D01*
X192970114Y-81771685D01*
X192898685Y-81735971D01*
X192862971Y-81664542D01*
X192862971Y-81378828D01*
X192898685Y-81307400D01*
X192970114Y-81271685D01*
X193112971Y-81271685D01*
X193184400Y-81307400D01*
X193220114Y-81378828D01*
X193220114Y-81450257D01*
X192862971Y-81521685D01*
X193505828Y-81735971D02*
X193577257Y-81771685D01*
X193720114Y-81771685D01*
X193791542Y-81735971D01*
X193827257Y-81664542D01*
X193827257Y-81628828D01*
X193791542Y-81557400D01*
X193720114Y-81521685D01*
X193612971Y-81521685D01*
X193541542Y-81485971D01*
X193505828Y-81414542D01*
X193505828Y-81378828D01*
X193541542Y-81307400D01*
X193612971Y-81271685D01*
X193720114Y-81271685D01*
X193791542Y-81307400D01*
X194970114Y-81378828D02*
X195077257Y-81414542D01*
X195112971Y-81450257D01*
X195148685Y-81521685D01*
X195148685Y-81628828D01*
X195112971Y-81700257D01*
X195077257Y-81735971D01*
X195005828Y-81771685D01*
X194720114Y-81771685D01*
X194720114Y-81021685D01*
X194970114Y-81021685D01*
X195041542Y-81057400D01*
X195077257Y-81093114D01*
X195112971Y-81164542D01*
X195112971Y-81235971D01*
X195077257Y-81307400D01*
X195041542Y-81343114D01*
X194970114Y-81378828D01*
X194720114Y-81378828D01*
X195755828Y-81735971D02*
X195684400Y-81771685D01*
X195541542Y-81771685D01*
X195470114Y-81735971D01*
X195434400Y-81664542D01*
X195434400Y-81378828D01*
X195470114Y-81307400D01*
X195541542Y-81271685D01*
X195684400Y-81271685D01*
X195755828Y-81307400D01*
X195791542Y-81378828D01*
X195791542Y-81450257D01*
X195434400Y-81521685D01*
X196220114Y-81771685D02*
X196148685Y-81735971D01*
X196112971Y-81664542D01*
X196112971Y-81021685D01*
X196612971Y-81771685D02*
X196541542Y-81735971D01*
X196505828Y-81664542D01*
X196505828Y-81021685D01*
X197220114Y-81771685D02*
X197220114Y-81378828D01*
X197184400Y-81307400D01*
X197112971Y-81271685D01*
X196970114Y-81271685D01*
X196898685Y-81307400D01*
X197220114Y-81735971D02*
X197148685Y-81771685D01*
X196970114Y-81771685D01*
X196898685Y-81735971D01*
X196862971Y-81664542D01*
X196862971Y-81593114D01*
X196898685Y-81521685D01*
X196970114Y-81485971D01*
X197148685Y-81485971D01*
X197220114Y-81450257D01*
X197470114Y-81271685D02*
X197755828Y-81271685D01*
X197577257Y-81771685D02*
X197577257Y-81128828D01*
X197612971Y-81057400D01*
X197684400Y-81021685D01*
X197755828Y-81021685D01*
X198327257Y-81771685D02*
X198327257Y-81378828D01*
X198291542Y-81307400D01*
X198220114Y-81271685D01*
X198077257Y-81271685D01*
X198005828Y-81307400D01*
X198327257Y-81735971D02*
X198255828Y-81771685D01*
X198077257Y-81771685D01*
X198005828Y-81735971D01*
X197970114Y-81664542D01*
X197970114Y-81593114D01*
X198005828Y-81521685D01*
X198077257Y-81485971D01*
X198255828Y-81485971D01*
X198327257Y-81450257D01*
X198684400Y-81771685D02*
X198684400Y-81271685D01*
X198684400Y-81021685D02*
X198648685Y-81057400D01*
X198684400Y-81093114D01*
X198720114Y-81057400D01*
X198684400Y-81021685D01*
X198684400Y-81093114D01*
X199041542Y-81771685D02*
X199041542Y-81271685D01*
X199041542Y-81414542D02*
X199077257Y-81343114D01*
X199112971Y-81307400D01*
X199184400Y-81271685D01*
X199255828Y-81271685D01*
X199791542Y-81735971D02*
X199720114Y-81771685D01*
X199577257Y-81771685D01*
X199505828Y-81735971D01*
X199470114Y-81664542D01*
X199470114Y-81378828D01*
X199505828Y-81307400D01*
X199577257Y-81271685D01*
X199720114Y-81271685D01*
X199791542Y-81307400D01*
X199827257Y-81378828D01*
X199827257Y-81450257D01*
X199470114Y-81521685D01*
D11*
G04 #@! TO.N,GND*
G04 #@! TO.C,C10*
G36*
X198194491Y-86507853D02*
X198215726Y-86511003D01*
X198236550Y-86516219D01*
X198256762Y-86523451D01*
X198276168Y-86532630D01*
X198294581Y-86543666D01*
X198311824Y-86556454D01*
X198327730Y-86570870D01*
X198342146Y-86586776D01*
X198354934Y-86604019D01*
X198365970Y-86622432D01*
X198375149Y-86641838D01*
X198382381Y-86662050D01*
X198387597Y-86682874D01*
X198390747Y-86704109D01*
X198391800Y-86725550D01*
X198391800Y-87163050D01*
X198390747Y-87184491D01*
X198387597Y-87205726D01*
X198382381Y-87226550D01*
X198375149Y-87246762D01*
X198365970Y-87266168D01*
X198354934Y-87284581D01*
X198342146Y-87301824D01*
X198327730Y-87317730D01*
X198311824Y-87332146D01*
X198294581Y-87344934D01*
X198276168Y-87355970D01*
X198256762Y-87365149D01*
X198236550Y-87372381D01*
X198215726Y-87377597D01*
X198194491Y-87380747D01*
X198173050Y-87381800D01*
X197660550Y-87381800D01*
X197639109Y-87380747D01*
X197617874Y-87377597D01*
X197597050Y-87372381D01*
X197576838Y-87365149D01*
X197557432Y-87355970D01*
X197539019Y-87344934D01*
X197521776Y-87332146D01*
X197505870Y-87317730D01*
X197491454Y-87301824D01*
X197478666Y-87284581D01*
X197467630Y-87266168D01*
X197458451Y-87246762D01*
X197451219Y-87226550D01*
X197446003Y-87205726D01*
X197442853Y-87184491D01*
X197441800Y-87163050D01*
X197441800Y-86725550D01*
X197442853Y-86704109D01*
X197446003Y-86682874D01*
X197451219Y-86662050D01*
X197458451Y-86641838D01*
X197467630Y-86622432D01*
X197478666Y-86604019D01*
X197491454Y-86586776D01*
X197505870Y-86570870D01*
X197521776Y-86556454D01*
X197539019Y-86543666D01*
X197557432Y-86532630D01*
X197576838Y-86523451D01*
X197597050Y-86516219D01*
X197617874Y-86511003D01*
X197639109Y-86507853D01*
X197660550Y-86506800D01*
X198173050Y-86506800D01*
X198194491Y-86507853D01*
X198194491Y-86507853D01*
G37*
D12*
G04 #@! TD*
G04 #@! TO.P,C10,2*
G04 #@! TO.N,GND*
X197916800Y-86944300D03*
D11*
G04 #@! TO.N,+3V3*
G04 #@! TO.C,C10*
G36*
X198194491Y-84932853D02*
X198215726Y-84936003D01*
X198236550Y-84941219D01*
X198256762Y-84948451D01*
X198276168Y-84957630D01*
X198294581Y-84968666D01*
X198311824Y-84981454D01*
X198327730Y-84995870D01*
X198342146Y-85011776D01*
X198354934Y-85029019D01*
X198365970Y-85047432D01*
X198375149Y-85066838D01*
X198382381Y-85087050D01*
X198387597Y-85107874D01*
X198390747Y-85129109D01*
X198391800Y-85150550D01*
X198391800Y-85588050D01*
X198390747Y-85609491D01*
X198387597Y-85630726D01*
X198382381Y-85651550D01*
X198375149Y-85671762D01*
X198365970Y-85691168D01*
X198354934Y-85709581D01*
X198342146Y-85726824D01*
X198327730Y-85742730D01*
X198311824Y-85757146D01*
X198294581Y-85769934D01*
X198276168Y-85780970D01*
X198256762Y-85790149D01*
X198236550Y-85797381D01*
X198215726Y-85802597D01*
X198194491Y-85805747D01*
X198173050Y-85806800D01*
X197660550Y-85806800D01*
X197639109Y-85805747D01*
X197617874Y-85802597D01*
X197597050Y-85797381D01*
X197576838Y-85790149D01*
X197557432Y-85780970D01*
X197539019Y-85769934D01*
X197521776Y-85757146D01*
X197505870Y-85742730D01*
X197491454Y-85726824D01*
X197478666Y-85709581D01*
X197467630Y-85691168D01*
X197458451Y-85671762D01*
X197451219Y-85651550D01*
X197446003Y-85630726D01*
X197442853Y-85609491D01*
X197441800Y-85588050D01*
X197441800Y-85150550D01*
X197442853Y-85129109D01*
X197446003Y-85107874D01*
X197451219Y-85087050D01*
X197458451Y-85066838D01*
X197467630Y-85047432D01*
X197478666Y-85029019D01*
X197491454Y-85011776D01*
X197505870Y-84995870D01*
X197521776Y-84981454D01*
X197539019Y-84968666D01*
X197557432Y-84957630D01*
X197576838Y-84948451D01*
X197597050Y-84941219D01*
X197617874Y-84936003D01*
X197639109Y-84932853D01*
X197660550Y-84931800D01*
X198173050Y-84931800D01*
X198194491Y-84932853D01*
X198194491Y-84932853D01*
G37*
D12*
G04 #@! TD*
G04 #@! TO.P,C10,1*
G04 #@! TO.N,+3V3*
X197916800Y-85369300D03*
D11*
G04 #@! TO.N,+3V3*
G04 #@! TO.C,C2*
G36*
X221054491Y-107183453D02*
X221075726Y-107186603D01*
X221096550Y-107191819D01*
X221116762Y-107199051D01*
X221136168Y-107208230D01*
X221154581Y-107219266D01*
X221171824Y-107232054D01*
X221187730Y-107246470D01*
X221202146Y-107262376D01*
X221214934Y-107279619D01*
X221225970Y-107298032D01*
X221235149Y-107317438D01*
X221242381Y-107337650D01*
X221247597Y-107358474D01*
X221250747Y-107379709D01*
X221251800Y-107401150D01*
X221251800Y-107838650D01*
X221250747Y-107860091D01*
X221247597Y-107881326D01*
X221242381Y-107902150D01*
X221235149Y-107922362D01*
X221225970Y-107941768D01*
X221214934Y-107960181D01*
X221202146Y-107977424D01*
X221187730Y-107993330D01*
X221171824Y-108007746D01*
X221154581Y-108020534D01*
X221136168Y-108031570D01*
X221116762Y-108040749D01*
X221096550Y-108047981D01*
X221075726Y-108053197D01*
X221054491Y-108056347D01*
X221033050Y-108057400D01*
X220520550Y-108057400D01*
X220499109Y-108056347D01*
X220477874Y-108053197D01*
X220457050Y-108047981D01*
X220436838Y-108040749D01*
X220417432Y-108031570D01*
X220399019Y-108020534D01*
X220381776Y-108007746D01*
X220365870Y-107993330D01*
X220351454Y-107977424D01*
X220338666Y-107960181D01*
X220327630Y-107941768D01*
X220318451Y-107922362D01*
X220311219Y-107902150D01*
X220306003Y-107881326D01*
X220302853Y-107860091D01*
X220301800Y-107838650D01*
X220301800Y-107401150D01*
X220302853Y-107379709D01*
X220306003Y-107358474D01*
X220311219Y-107337650D01*
X220318451Y-107317438D01*
X220327630Y-107298032D01*
X220338666Y-107279619D01*
X220351454Y-107262376D01*
X220365870Y-107246470D01*
X220381776Y-107232054D01*
X220399019Y-107219266D01*
X220417432Y-107208230D01*
X220436838Y-107199051D01*
X220457050Y-107191819D01*
X220477874Y-107186603D01*
X220499109Y-107183453D01*
X220520550Y-107182400D01*
X221033050Y-107182400D01*
X221054491Y-107183453D01*
X221054491Y-107183453D01*
G37*
D12*
G04 #@! TD*
G04 #@! TO.P,C2,1*
G04 #@! TO.N,+3V3*
X220776800Y-107619900D03*
D11*
G04 #@! TO.N,GND*
G04 #@! TO.C,C2*
G36*
X221054491Y-105608453D02*
X221075726Y-105611603D01*
X221096550Y-105616819D01*
X221116762Y-105624051D01*
X221136168Y-105633230D01*
X221154581Y-105644266D01*
X221171824Y-105657054D01*
X221187730Y-105671470D01*
X221202146Y-105687376D01*
X221214934Y-105704619D01*
X221225970Y-105723032D01*
X221235149Y-105742438D01*
X221242381Y-105762650D01*
X221247597Y-105783474D01*
X221250747Y-105804709D01*
X221251800Y-105826150D01*
X221251800Y-106263650D01*
X221250747Y-106285091D01*
X221247597Y-106306326D01*
X221242381Y-106327150D01*
X221235149Y-106347362D01*
X221225970Y-106366768D01*
X221214934Y-106385181D01*
X221202146Y-106402424D01*
X221187730Y-106418330D01*
X221171824Y-106432746D01*
X221154581Y-106445534D01*
X221136168Y-106456570D01*
X221116762Y-106465749D01*
X221096550Y-106472981D01*
X221075726Y-106478197D01*
X221054491Y-106481347D01*
X221033050Y-106482400D01*
X220520550Y-106482400D01*
X220499109Y-106481347D01*
X220477874Y-106478197D01*
X220457050Y-106472981D01*
X220436838Y-106465749D01*
X220417432Y-106456570D01*
X220399019Y-106445534D01*
X220381776Y-106432746D01*
X220365870Y-106418330D01*
X220351454Y-106402424D01*
X220338666Y-106385181D01*
X220327630Y-106366768D01*
X220318451Y-106347362D01*
X220311219Y-106327150D01*
X220306003Y-106306326D01*
X220302853Y-106285091D01*
X220301800Y-106263650D01*
X220301800Y-105826150D01*
X220302853Y-105804709D01*
X220306003Y-105783474D01*
X220311219Y-105762650D01*
X220318451Y-105742438D01*
X220327630Y-105723032D01*
X220338666Y-105704619D01*
X220351454Y-105687376D01*
X220365870Y-105671470D01*
X220381776Y-105657054D01*
X220399019Y-105644266D01*
X220417432Y-105633230D01*
X220436838Y-105624051D01*
X220457050Y-105616819D01*
X220477874Y-105611603D01*
X220499109Y-105608453D01*
X220520550Y-105607400D01*
X221033050Y-105607400D01*
X221054491Y-105608453D01*
X221054491Y-105608453D01*
G37*
D12*
G04 #@! TD*
G04 #@! TO.P,C2,2*
G04 #@! TO.N,GND*
X220776800Y-106044900D03*
D11*
G04 #@! TO.N,GND*
G04 #@! TO.C,C3*
G36*
X219632091Y-105608453D02*
X219653326Y-105611603D01*
X219674150Y-105616819D01*
X219694362Y-105624051D01*
X219713768Y-105633230D01*
X219732181Y-105644266D01*
X219749424Y-105657054D01*
X219765330Y-105671470D01*
X219779746Y-105687376D01*
X219792534Y-105704619D01*
X219803570Y-105723032D01*
X219812749Y-105742438D01*
X219819981Y-105762650D01*
X219825197Y-105783474D01*
X219828347Y-105804709D01*
X219829400Y-105826150D01*
X219829400Y-106263650D01*
X219828347Y-106285091D01*
X219825197Y-106306326D01*
X219819981Y-106327150D01*
X219812749Y-106347362D01*
X219803570Y-106366768D01*
X219792534Y-106385181D01*
X219779746Y-106402424D01*
X219765330Y-106418330D01*
X219749424Y-106432746D01*
X219732181Y-106445534D01*
X219713768Y-106456570D01*
X219694362Y-106465749D01*
X219674150Y-106472981D01*
X219653326Y-106478197D01*
X219632091Y-106481347D01*
X219610650Y-106482400D01*
X219098150Y-106482400D01*
X219076709Y-106481347D01*
X219055474Y-106478197D01*
X219034650Y-106472981D01*
X219014438Y-106465749D01*
X218995032Y-106456570D01*
X218976619Y-106445534D01*
X218959376Y-106432746D01*
X218943470Y-106418330D01*
X218929054Y-106402424D01*
X218916266Y-106385181D01*
X218905230Y-106366768D01*
X218896051Y-106347362D01*
X218888819Y-106327150D01*
X218883603Y-106306326D01*
X218880453Y-106285091D01*
X218879400Y-106263650D01*
X218879400Y-105826150D01*
X218880453Y-105804709D01*
X218883603Y-105783474D01*
X218888819Y-105762650D01*
X218896051Y-105742438D01*
X218905230Y-105723032D01*
X218916266Y-105704619D01*
X218929054Y-105687376D01*
X218943470Y-105671470D01*
X218959376Y-105657054D01*
X218976619Y-105644266D01*
X218995032Y-105633230D01*
X219014438Y-105624051D01*
X219034650Y-105616819D01*
X219055474Y-105611603D01*
X219076709Y-105608453D01*
X219098150Y-105607400D01*
X219610650Y-105607400D01*
X219632091Y-105608453D01*
X219632091Y-105608453D01*
G37*
D12*
G04 #@! TD*
G04 #@! TO.P,C3,2*
G04 #@! TO.N,GND*
X219354400Y-106044900D03*
D11*
G04 #@! TO.N,+3V3*
G04 #@! TO.C,C3*
G36*
X219632091Y-107183453D02*
X219653326Y-107186603D01*
X219674150Y-107191819D01*
X219694362Y-107199051D01*
X219713768Y-107208230D01*
X219732181Y-107219266D01*
X219749424Y-107232054D01*
X219765330Y-107246470D01*
X219779746Y-107262376D01*
X219792534Y-107279619D01*
X219803570Y-107298032D01*
X219812749Y-107317438D01*
X219819981Y-107337650D01*
X219825197Y-107358474D01*
X219828347Y-107379709D01*
X219829400Y-107401150D01*
X219829400Y-107838650D01*
X219828347Y-107860091D01*
X219825197Y-107881326D01*
X219819981Y-107902150D01*
X219812749Y-107922362D01*
X219803570Y-107941768D01*
X219792534Y-107960181D01*
X219779746Y-107977424D01*
X219765330Y-107993330D01*
X219749424Y-108007746D01*
X219732181Y-108020534D01*
X219713768Y-108031570D01*
X219694362Y-108040749D01*
X219674150Y-108047981D01*
X219653326Y-108053197D01*
X219632091Y-108056347D01*
X219610650Y-108057400D01*
X219098150Y-108057400D01*
X219076709Y-108056347D01*
X219055474Y-108053197D01*
X219034650Y-108047981D01*
X219014438Y-108040749D01*
X218995032Y-108031570D01*
X218976619Y-108020534D01*
X218959376Y-108007746D01*
X218943470Y-107993330D01*
X218929054Y-107977424D01*
X218916266Y-107960181D01*
X218905230Y-107941768D01*
X218896051Y-107922362D01*
X218888819Y-107902150D01*
X218883603Y-107881326D01*
X218880453Y-107860091D01*
X218879400Y-107838650D01*
X218879400Y-107401150D01*
X218880453Y-107379709D01*
X218883603Y-107358474D01*
X218888819Y-107337650D01*
X218896051Y-107317438D01*
X218905230Y-107298032D01*
X218916266Y-107279619D01*
X218929054Y-107262376D01*
X218943470Y-107246470D01*
X218959376Y-107232054D01*
X218976619Y-107219266D01*
X218995032Y-107208230D01*
X219014438Y-107199051D01*
X219034650Y-107191819D01*
X219055474Y-107186603D01*
X219076709Y-107183453D01*
X219098150Y-107182400D01*
X219610650Y-107182400D01*
X219632091Y-107183453D01*
X219632091Y-107183453D01*
G37*
D12*
G04 #@! TD*
G04 #@! TO.P,C3,1*
G04 #@! TO.N,+3V3*
X219354400Y-107619900D03*
D11*
G04 #@! TO.N,Net-(C1-Pad1)*
G04 #@! TO.C,C1*
G36*
X210069691Y-104631253D02*
X210090926Y-104634403D01*
X210111750Y-104639619D01*
X210131962Y-104646851D01*
X210151368Y-104656030D01*
X210169781Y-104667066D01*
X210187024Y-104679854D01*
X210202930Y-104694270D01*
X210217346Y-104710176D01*
X210230134Y-104727419D01*
X210241170Y-104745832D01*
X210250349Y-104765238D01*
X210257581Y-104785450D01*
X210262797Y-104806274D01*
X210265947Y-104827509D01*
X210267000Y-104848950D01*
X210267000Y-105361450D01*
X210265947Y-105382891D01*
X210262797Y-105404126D01*
X210257581Y-105424950D01*
X210250349Y-105445162D01*
X210241170Y-105464568D01*
X210230134Y-105482981D01*
X210217346Y-105500224D01*
X210202930Y-105516130D01*
X210187024Y-105530546D01*
X210169781Y-105543334D01*
X210151368Y-105554370D01*
X210131962Y-105563549D01*
X210111750Y-105570781D01*
X210090926Y-105575997D01*
X210069691Y-105579147D01*
X210048250Y-105580200D01*
X209610750Y-105580200D01*
X209589309Y-105579147D01*
X209568074Y-105575997D01*
X209547250Y-105570781D01*
X209527038Y-105563549D01*
X209507632Y-105554370D01*
X209489219Y-105543334D01*
X209471976Y-105530546D01*
X209456070Y-105516130D01*
X209441654Y-105500224D01*
X209428866Y-105482981D01*
X209417830Y-105464568D01*
X209408651Y-105445162D01*
X209401419Y-105424950D01*
X209396203Y-105404126D01*
X209393053Y-105382891D01*
X209392000Y-105361450D01*
X209392000Y-104848950D01*
X209393053Y-104827509D01*
X209396203Y-104806274D01*
X209401419Y-104785450D01*
X209408651Y-104765238D01*
X209417830Y-104745832D01*
X209428866Y-104727419D01*
X209441654Y-104710176D01*
X209456070Y-104694270D01*
X209471976Y-104679854D01*
X209489219Y-104667066D01*
X209507632Y-104656030D01*
X209527038Y-104646851D01*
X209547250Y-104639619D01*
X209568074Y-104634403D01*
X209589309Y-104631253D01*
X209610750Y-104630200D01*
X210048250Y-104630200D01*
X210069691Y-104631253D01*
X210069691Y-104631253D01*
G37*
D12*
G04 #@! TD*
G04 #@! TO.P,C1,1*
G04 #@! TO.N,Net-(C1-Pad1)*
X209829500Y-105105200D03*
D11*
G04 #@! TO.N,GND*
G04 #@! TO.C,C1*
G36*
X208494691Y-104631253D02*
X208515926Y-104634403D01*
X208536750Y-104639619D01*
X208556962Y-104646851D01*
X208576368Y-104656030D01*
X208594781Y-104667066D01*
X208612024Y-104679854D01*
X208627930Y-104694270D01*
X208642346Y-104710176D01*
X208655134Y-104727419D01*
X208666170Y-104745832D01*
X208675349Y-104765238D01*
X208682581Y-104785450D01*
X208687797Y-104806274D01*
X208690947Y-104827509D01*
X208692000Y-104848950D01*
X208692000Y-105361450D01*
X208690947Y-105382891D01*
X208687797Y-105404126D01*
X208682581Y-105424950D01*
X208675349Y-105445162D01*
X208666170Y-105464568D01*
X208655134Y-105482981D01*
X208642346Y-105500224D01*
X208627930Y-105516130D01*
X208612024Y-105530546D01*
X208594781Y-105543334D01*
X208576368Y-105554370D01*
X208556962Y-105563549D01*
X208536750Y-105570781D01*
X208515926Y-105575997D01*
X208494691Y-105579147D01*
X208473250Y-105580200D01*
X208035750Y-105580200D01*
X208014309Y-105579147D01*
X207993074Y-105575997D01*
X207972250Y-105570781D01*
X207952038Y-105563549D01*
X207932632Y-105554370D01*
X207914219Y-105543334D01*
X207896976Y-105530546D01*
X207881070Y-105516130D01*
X207866654Y-105500224D01*
X207853866Y-105482981D01*
X207842830Y-105464568D01*
X207833651Y-105445162D01*
X207826419Y-105424950D01*
X207821203Y-105404126D01*
X207818053Y-105382891D01*
X207817000Y-105361450D01*
X207817000Y-104848950D01*
X207818053Y-104827509D01*
X207821203Y-104806274D01*
X207826419Y-104785450D01*
X207833651Y-104765238D01*
X207842830Y-104745832D01*
X207853866Y-104727419D01*
X207866654Y-104710176D01*
X207881070Y-104694270D01*
X207896976Y-104679854D01*
X207914219Y-104667066D01*
X207932632Y-104656030D01*
X207952038Y-104646851D01*
X207972250Y-104639619D01*
X207993074Y-104634403D01*
X208014309Y-104631253D01*
X208035750Y-104630200D01*
X208473250Y-104630200D01*
X208494691Y-104631253D01*
X208494691Y-104631253D01*
G37*
D12*
G04 #@! TD*
G04 #@! TO.P,C1,2*
G04 #@! TO.N,GND*
X208254500Y-105105200D03*
D11*
G04 #@! TO.N,GND*
G04 #@! TO.C,U1*
G36*
X215203106Y-105385204D02*
X215227374Y-105388804D01*
X215251173Y-105394765D01*
X215274272Y-105403030D01*
X215296450Y-105413519D01*
X215317493Y-105426132D01*
X215337199Y-105440747D01*
X215355377Y-105457223D01*
X215371853Y-105475401D01*
X215386468Y-105495107D01*
X215399081Y-105516150D01*
X215409570Y-105538328D01*
X215417835Y-105561427D01*
X215423796Y-105585226D01*
X215427396Y-105609494D01*
X215428600Y-105633998D01*
X215428600Y-108234002D01*
X215427396Y-108258506D01*
X215423796Y-108282774D01*
X215417835Y-108306573D01*
X215409570Y-108329672D01*
X215399081Y-108351850D01*
X215386468Y-108372893D01*
X215371853Y-108392599D01*
X215355377Y-108410777D01*
X215337199Y-108427253D01*
X215317493Y-108441868D01*
X215296450Y-108454481D01*
X215274272Y-108464970D01*
X215251173Y-108473235D01*
X215227374Y-108479196D01*
X215203106Y-108482796D01*
X215178602Y-108484000D01*
X213268598Y-108484000D01*
X213244094Y-108482796D01*
X213219826Y-108479196D01*
X213196027Y-108473235D01*
X213172928Y-108464970D01*
X213150750Y-108454481D01*
X213129707Y-108441868D01*
X213110001Y-108427253D01*
X213091823Y-108410777D01*
X213075347Y-108392599D01*
X213060732Y-108372893D01*
X213048119Y-108351850D01*
X213037630Y-108329672D01*
X213029365Y-108306573D01*
X213023404Y-108282774D01*
X213019804Y-108258506D01*
X213018600Y-108234002D01*
X213018600Y-105633998D01*
X213019804Y-105609494D01*
X213023404Y-105585226D01*
X213029365Y-105561427D01*
X213037630Y-105538328D01*
X213048119Y-105516150D01*
X213060732Y-105495107D01*
X213075347Y-105475401D01*
X213091823Y-105457223D01*
X213110001Y-105440747D01*
X213129707Y-105426132D01*
X213150750Y-105413519D01*
X213172928Y-105403030D01*
X213196027Y-105394765D01*
X213219826Y-105388804D01*
X213244094Y-105385204D01*
X213268598Y-105384000D01*
X215178602Y-105384000D01*
X215203106Y-105385204D01*
X215203106Y-105385204D01*
G37*
D13*
G04 #@! TD*
G04 #@! TO.P,U1,9*
G04 #@! TO.N,GND*
X214223600Y-106934000D03*
D14*
G04 #@! TO.N,GND*
G04 #@! TO.C,U1*
X215178600Y-108234000D03*
X213268600Y-108234000D03*
X215178600Y-106934000D03*
X213268600Y-106934000D03*
X215178600Y-105634000D03*
X213268600Y-105634000D03*
D11*
G04 #@! TO.N,+3V3*
G36*
X217538303Y-108539722D02*
X217552864Y-108541882D01*
X217567143Y-108545459D01*
X217581003Y-108550418D01*
X217594310Y-108556712D01*
X217606936Y-108564280D01*
X217618759Y-108573048D01*
X217629666Y-108582934D01*
X217639552Y-108593841D01*
X217648320Y-108605664D01*
X217655888Y-108618290D01*
X217662182Y-108631597D01*
X217667141Y-108645457D01*
X217670718Y-108659736D01*
X217672878Y-108674297D01*
X217673600Y-108689000D01*
X217673600Y-108989000D01*
X217672878Y-109003703D01*
X217670718Y-109018264D01*
X217667141Y-109032543D01*
X217662182Y-109046403D01*
X217655888Y-109059710D01*
X217648320Y-109072336D01*
X217639552Y-109084159D01*
X217629666Y-109095066D01*
X217618759Y-109104952D01*
X217606936Y-109113720D01*
X217594310Y-109121288D01*
X217581003Y-109127582D01*
X217567143Y-109132541D01*
X217552864Y-109136118D01*
X217538303Y-109138278D01*
X217523600Y-109139000D01*
X216223600Y-109139000D01*
X216208897Y-109138278D01*
X216194336Y-109136118D01*
X216180057Y-109132541D01*
X216166197Y-109127582D01*
X216152890Y-109121288D01*
X216140264Y-109113720D01*
X216128441Y-109104952D01*
X216117534Y-109095066D01*
X216107648Y-109084159D01*
X216098880Y-109072336D01*
X216091312Y-109059710D01*
X216085018Y-109046403D01*
X216080059Y-109032543D01*
X216076482Y-109018264D01*
X216074322Y-109003703D01*
X216073600Y-108989000D01*
X216073600Y-108689000D01*
X216074322Y-108674297D01*
X216076482Y-108659736D01*
X216080059Y-108645457D01*
X216085018Y-108631597D01*
X216091312Y-108618290D01*
X216098880Y-108605664D01*
X216107648Y-108593841D01*
X216117534Y-108582934D01*
X216128441Y-108573048D01*
X216140264Y-108564280D01*
X216152890Y-108556712D01*
X216166197Y-108550418D01*
X216180057Y-108545459D01*
X216194336Y-108541882D01*
X216208897Y-108539722D01*
X216223600Y-108539000D01*
X217523600Y-108539000D01*
X217538303Y-108539722D01*
X217538303Y-108539722D01*
G37*
D15*
G04 #@! TD*
G04 #@! TO.P,U1,1*
G04 #@! TO.N,+3V3*
X216873600Y-108839000D03*
D11*
G04 #@! TO.N,UV_LO*
G04 #@! TO.C,U1*
G36*
X217538303Y-107269722D02*
X217552864Y-107271882D01*
X217567143Y-107275459D01*
X217581003Y-107280418D01*
X217594310Y-107286712D01*
X217606936Y-107294280D01*
X217618759Y-107303048D01*
X217629666Y-107312934D01*
X217639552Y-107323841D01*
X217648320Y-107335664D01*
X217655888Y-107348290D01*
X217662182Y-107361597D01*
X217667141Y-107375457D01*
X217670718Y-107389736D01*
X217672878Y-107404297D01*
X217673600Y-107419000D01*
X217673600Y-107719000D01*
X217672878Y-107733703D01*
X217670718Y-107748264D01*
X217667141Y-107762543D01*
X217662182Y-107776403D01*
X217655888Y-107789710D01*
X217648320Y-107802336D01*
X217639552Y-107814159D01*
X217629666Y-107825066D01*
X217618759Y-107834952D01*
X217606936Y-107843720D01*
X217594310Y-107851288D01*
X217581003Y-107857582D01*
X217567143Y-107862541D01*
X217552864Y-107866118D01*
X217538303Y-107868278D01*
X217523600Y-107869000D01*
X216223600Y-107869000D01*
X216208897Y-107868278D01*
X216194336Y-107866118D01*
X216180057Y-107862541D01*
X216166197Y-107857582D01*
X216152890Y-107851288D01*
X216140264Y-107843720D01*
X216128441Y-107834952D01*
X216117534Y-107825066D01*
X216107648Y-107814159D01*
X216098880Y-107802336D01*
X216091312Y-107789710D01*
X216085018Y-107776403D01*
X216080059Y-107762543D01*
X216076482Y-107748264D01*
X216074322Y-107733703D01*
X216073600Y-107719000D01*
X216073600Y-107419000D01*
X216074322Y-107404297D01*
X216076482Y-107389736D01*
X216080059Y-107375457D01*
X216085018Y-107361597D01*
X216091312Y-107348290D01*
X216098880Y-107335664D01*
X216107648Y-107323841D01*
X216117534Y-107312934D01*
X216128441Y-107303048D01*
X216140264Y-107294280D01*
X216152890Y-107286712D01*
X216166197Y-107280418D01*
X216180057Y-107275459D01*
X216194336Y-107271882D01*
X216208897Y-107269722D01*
X216223600Y-107269000D01*
X217523600Y-107269000D01*
X217538303Y-107269722D01*
X217538303Y-107269722D01*
G37*
D15*
G04 #@! TD*
G04 #@! TO.P,U1,2*
G04 #@! TO.N,UV_LO*
X216873600Y-107569000D03*
D11*
G04 #@! TO.N,N/C*
G04 #@! TO.C,U1*
G36*
X217538303Y-105999722D02*
X217552864Y-106001882D01*
X217567143Y-106005459D01*
X217581003Y-106010418D01*
X217594310Y-106016712D01*
X217606936Y-106024280D01*
X217618759Y-106033048D01*
X217629666Y-106042934D01*
X217639552Y-106053841D01*
X217648320Y-106065664D01*
X217655888Y-106078290D01*
X217662182Y-106091597D01*
X217667141Y-106105457D01*
X217670718Y-106119736D01*
X217672878Y-106134297D01*
X217673600Y-106149000D01*
X217673600Y-106449000D01*
X217672878Y-106463703D01*
X217670718Y-106478264D01*
X217667141Y-106492543D01*
X217662182Y-106506403D01*
X217655888Y-106519710D01*
X217648320Y-106532336D01*
X217639552Y-106544159D01*
X217629666Y-106555066D01*
X217618759Y-106564952D01*
X217606936Y-106573720D01*
X217594310Y-106581288D01*
X217581003Y-106587582D01*
X217567143Y-106592541D01*
X217552864Y-106596118D01*
X217538303Y-106598278D01*
X217523600Y-106599000D01*
X216223600Y-106599000D01*
X216208897Y-106598278D01*
X216194336Y-106596118D01*
X216180057Y-106592541D01*
X216166197Y-106587582D01*
X216152890Y-106581288D01*
X216140264Y-106573720D01*
X216128441Y-106564952D01*
X216117534Y-106555066D01*
X216107648Y-106544159D01*
X216098880Y-106532336D01*
X216091312Y-106519710D01*
X216085018Y-106506403D01*
X216080059Y-106492543D01*
X216076482Y-106478264D01*
X216074322Y-106463703D01*
X216073600Y-106449000D01*
X216073600Y-106149000D01*
X216074322Y-106134297D01*
X216076482Y-106119736D01*
X216080059Y-106105457D01*
X216085018Y-106091597D01*
X216091312Y-106078290D01*
X216098880Y-106065664D01*
X216107648Y-106053841D01*
X216117534Y-106042934D01*
X216128441Y-106033048D01*
X216140264Y-106024280D01*
X216152890Y-106016712D01*
X216166197Y-106010418D01*
X216180057Y-106005459D01*
X216194336Y-106001882D01*
X216208897Y-105999722D01*
X216223600Y-105999000D01*
X217523600Y-105999000D01*
X217538303Y-105999722D01*
X217538303Y-105999722D01*
G37*
D15*
G04 #@! TD*
G04 #@! TO.P,U1,3*
G04 #@! TO.N,N/C*
X216873600Y-106299000D03*
D11*
G04 #@! TO.N,GND*
G04 #@! TO.C,U1*
G36*
X217538303Y-104729722D02*
X217552864Y-104731882D01*
X217567143Y-104735459D01*
X217581003Y-104740418D01*
X217594310Y-104746712D01*
X217606936Y-104754280D01*
X217618759Y-104763048D01*
X217629666Y-104772934D01*
X217639552Y-104783841D01*
X217648320Y-104795664D01*
X217655888Y-104808290D01*
X217662182Y-104821597D01*
X217667141Y-104835457D01*
X217670718Y-104849736D01*
X217672878Y-104864297D01*
X217673600Y-104879000D01*
X217673600Y-105179000D01*
X217672878Y-105193703D01*
X217670718Y-105208264D01*
X217667141Y-105222543D01*
X217662182Y-105236403D01*
X217655888Y-105249710D01*
X217648320Y-105262336D01*
X217639552Y-105274159D01*
X217629666Y-105285066D01*
X217618759Y-105294952D01*
X217606936Y-105303720D01*
X217594310Y-105311288D01*
X217581003Y-105317582D01*
X217567143Y-105322541D01*
X217552864Y-105326118D01*
X217538303Y-105328278D01*
X217523600Y-105329000D01*
X216223600Y-105329000D01*
X216208897Y-105328278D01*
X216194336Y-105326118D01*
X216180057Y-105322541D01*
X216166197Y-105317582D01*
X216152890Y-105311288D01*
X216140264Y-105303720D01*
X216128441Y-105294952D01*
X216117534Y-105285066D01*
X216107648Y-105274159D01*
X216098880Y-105262336D01*
X216091312Y-105249710D01*
X216085018Y-105236403D01*
X216080059Y-105222543D01*
X216076482Y-105208264D01*
X216074322Y-105193703D01*
X216073600Y-105179000D01*
X216073600Y-104879000D01*
X216074322Y-104864297D01*
X216076482Y-104849736D01*
X216080059Y-104835457D01*
X216085018Y-104821597D01*
X216091312Y-104808290D01*
X216098880Y-104795664D01*
X216107648Y-104783841D01*
X216117534Y-104772934D01*
X216128441Y-104763048D01*
X216140264Y-104754280D01*
X216152890Y-104746712D01*
X216166197Y-104740418D01*
X216180057Y-104735459D01*
X216194336Y-104731882D01*
X216208897Y-104729722D01*
X216223600Y-104729000D01*
X217523600Y-104729000D01*
X217538303Y-104729722D01*
X217538303Y-104729722D01*
G37*
D15*
G04 #@! TD*
G04 #@! TO.P,U1,4*
G04 #@! TO.N,GND*
X216873600Y-105029000D03*
D11*
G04 #@! TO.N,Net-(C1-Pad1)*
G04 #@! TO.C,U1*
G36*
X212238303Y-104729722D02*
X212252864Y-104731882D01*
X212267143Y-104735459D01*
X212281003Y-104740418D01*
X212294310Y-104746712D01*
X212306936Y-104754280D01*
X212318759Y-104763048D01*
X212329666Y-104772934D01*
X212339552Y-104783841D01*
X212348320Y-104795664D01*
X212355888Y-104808290D01*
X212362182Y-104821597D01*
X212367141Y-104835457D01*
X212370718Y-104849736D01*
X212372878Y-104864297D01*
X212373600Y-104879000D01*
X212373600Y-105179000D01*
X212372878Y-105193703D01*
X212370718Y-105208264D01*
X212367141Y-105222543D01*
X212362182Y-105236403D01*
X212355888Y-105249710D01*
X212348320Y-105262336D01*
X212339552Y-105274159D01*
X212329666Y-105285066D01*
X212318759Y-105294952D01*
X212306936Y-105303720D01*
X212294310Y-105311288D01*
X212281003Y-105317582D01*
X212267143Y-105322541D01*
X212252864Y-105326118D01*
X212238303Y-105328278D01*
X212223600Y-105329000D01*
X210923600Y-105329000D01*
X210908897Y-105328278D01*
X210894336Y-105326118D01*
X210880057Y-105322541D01*
X210866197Y-105317582D01*
X210852890Y-105311288D01*
X210840264Y-105303720D01*
X210828441Y-105294952D01*
X210817534Y-105285066D01*
X210807648Y-105274159D01*
X210798880Y-105262336D01*
X210791312Y-105249710D01*
X210785018Y-105236403D01*
X210780059Y-105222543D01*
X210776482Y-105208264D01*
X210774322Y-105193703D01*
X210773600Y-105179000D01*
X210773600Y-104879000D01*
X210774322Y-104864297D01*
X210776482Y-104849736D01*
X210780059Y-104835457D01*
X210785018Y-104821597D01*
X210791312Y-104808290D01*
X210798880Y-104795664D01*
X210807648Y-104783841D01*
X210817534Y-104772934D01*
X210828441Y-104763048D01*
X210840264Y-104754280D01*
X210852890Y-104746712D01*
X210866197Y-104740418D01*
X210880057Y-104735459D01*
X210894336Y-104731882D01*
X210908897Y-104729722D01*
X210923600Y-104729000D01*
X212223600Y-104729000D01*
X212238303Y-104729722D01*
X212238303Y-104729722D01*
G37*
D15*
G04 #@! TD*
G04 #@! TO.P,U1,5*
G04 #@! TO.N,Net-(C1-Pad1)*
X211573600Y-105029000D03*
D11*
G04 #@! TO.N,N/C*
G04 #@! TO.C,U1*
G36*
X212238303Y-105999722D02*
X212252864Y-106001882D01*
X212267143Y-106005459D01*
X212281003Y-106010418D01*
X212294310Y-106016712D01*
X212306936Y-106024280D01*
X212318759Y-106033048D01*
X212329666Y-106042934D01*
X212339552Y-106053841D01*
X212348320Y-106065664D01*
X212355888Y-106078290D01*
X212362182Y-106091597D01*
X212367141Y-106105457D01*
X212370718Y-106119736D01*
X212372878Y-106134297D01*
X212373600Y-106149000D01*
X212373600Y-106449000D01*
X212372878Y-106463703D01*
X212370718Y-106478264D01*
X212367141Y-106492543D01*
X212362182Y-106506403D01*
X212355888Y-106519710D01*
X212348320Y-106532336D01*
X212339552Y-106544159D01*
X212329666Y-106555066D01*
X212318759Y-106564952D01*
X212306936Y-106573720D01*
X212294310Y-106581288D01*
X212281003Y-106587582D01*
X212267143Y-106592541D01*
X212252864Y-106596118D01*
X212238303Y-106598278D01*
X212223600Y-106599000D01*
X210923600Y-106599000D01*
X210908897Y-106598278D01*
X210894336Y-106596118D01*
X210880057Y-106592541D01*
X210866197Y-106587582D01*
X210852890Y-106581288D01*
X210840264Y-106573720D01*
X210828441Y-106564952D01*
X210817534Y-106555066D01*
X210807648Y-106544159D01*
X210798880Y-106532336D01*
X210791312Y-106519710D01*
X210785018Y-106506403D01*
X210780059Y-106492543D01*
X210776482Y-106478264D01*
X210774322Y-106463703D01*
X210773600Y-106449000D01*
X210773600Y-106149000D01*
X210774322Y-106134297D01*
X210776482Y-106119736D01*
X210780059Y-106105457D01*
X210785018Y-106091597D01*
X210791312Y-106078290D01*
X210798880Y-106065664D01*
X210807648Y-106053841D01*
X210817534Y-106042934D01*
X210828441Y-106033048D01*
X210840264Y-106024280D01*
X210852890Y-106016712D01*
X210866197Y-106010418D01*
X210880057Y-106005459D01*
X210894336Y-106001882D01*
X210908897Y-105999722D01*
X210923600Y-105999000D01*
X212223600Y-105999000D01*
X212238303Y-105999722D01*
X212238303Y-105999722D01*
G37*
D15*
G04 #@! TD*
G04 #@! TO.P,U1,6*
G04 #@! TO.N,N/C*
X211573600Y-106299000D03*
D11*
G04 #@! TO.N,N/C*
G04 #@! TO.C,U1*
G36*
X212238303Y-107269722D02*
X212252864Y-107271882D01*
X212267143Y-107275459D01*
X212281003Y-107280418D01*
X212294310Y-107286712D01*
X212306936Y-107294280D01*
X212318759Y-107303048D01*
X212329666Y-107312934D01*
X212339552Y-107323841D01*
X212348320Y-107335664D01*
X212355888Y-107348290D01*
X212362182Y-107361597D01*
X212367141Y-107375457D01*
X212370718Y-107389736D01*
X212372878Y-107404297D01*
X212373600Y-107419000D01*
X212373600Y-107719000D01*
X212372878Y-107733703D01*
X212370718Y-107748264D01*
X212367141Y-107762543D01*
X212362182Y-107776403D01*
X212355888Y-107789710D01*
X212348320Y-107802336D01*
X212339552Y-107814159D01*
X212329666Y-107825066D01*
X212318759Y-107834952D01*
X212306936Y-107843720D01*
X212294310Y-107851288D01*
X212281003Y-107857582D01*
X212267143Y-107862541D01*
X212252864Y-107866118D01*
X212238303Y-107868278D01*
X212223600Y-107869000D01*
X210923600Y-107869000D01*
X210908897Y-107868278D01*
X210894336Y-107866118D01*
X210880057Y-107862541D01*
X210866197Y-107857582D01*
X210852890Y-107851288D01*
X210840264Y-107843720D01*
X210828441Y-107834952D01*
X210817534Y-107825066D01*
X210807648Y-107814159D01*
X210798880Y-107802336D01*
X210791312Y-107789710D01*
X210785018Y-107776403D01*
X210780059Y-107762543D01*
X210776482Y-107748264D01*
X210774322Y-107733703D01*
X210773600Y-107719000D01*
X210773600Y-107419000D01*
X210774322Y-107404297D01*
X210776482Y-107389736D01*
X210780059Y-107375457D01*
X210785018Y-107361597D01*
X210791312Y-107348290D01*
X210798880Y-107335664D01*
X210807648Y-107323841D01*
X210817534Y-107312934D01*
X210828441Y-107303048D01*
X210840264Y-107294280D01*
X210852890Y-107286712D01*
X210866197Y-107280418D01*
X210880057Y-107275459D01*
X210894336Y-107271882D01*
X210908897Y-107269722D01*
X210923600Y-107269000D01*
X212223600Y-107269000D01*
X212238303Y-107269722D01*
X212238303Y-107269722D01*
G37*
D15*
G04 #@! TD*
G04 #@! TO.P,U1,7*
G04 #@! TO.N,N/C*
X211573600Y-107569000D03*
D11*
G04 #@! TO.N,BAT+*
G04 #@! TO.C,U1*
G36*
X212238303Y-108539722D02*
X212252864Y-108541882D01*
X212267143Y-108545459D01*
X212281003Y-108550418D01*
X212294310Y-108556712D01*
X212306936Y-108564280D01*
X212318759Y-108573048D01*
X212329666Y-108582934D01*
X212339552Y-108593841D01*
X212348320Y-108605664D01*
X212355888Y-108618290D01*
X212362182Y-108631597D01*
X212367141Y-108645457D01*
X212370718Y-108659736D01*
X212372878Y-108674297D01*
X212373600Y-108689000D01*
X212373600Y-108989000D01*
X212372878Y-109003703D01*
X212370718Y-109018264D01*
X212367141Y-109032543D01*
X212362182Y-109046403D01*
X212355888Y-109059710D01*
X212348320Y-109072336D01*
X212339552Y-109084159D01*
X212329666Y-109095066D01*
X212318759Y-109104952D01*
X212306936Y-109113720D01*
X212294310Y-109121288D01*
X212281003Y-109127582D01*
X212267143Y-109132541D01*
X212252864Y-109136118D01*
X212238303Y-109138278D01*
X212223600Y-109139000D01*
X210923600Y-109139000D01*
X210908897Y-109138278D01*
X210894336Y-109136118D01*
X210880057Y-109132541D01*
X210866197Y-109127582D01*
X210852890Y-109121288D01*
X210840264Y-109113720D01*
X210828441Y-109104952D01*
X210817534Y-109095066D01*
X210807648Y-109084159D01*
X210798880Y-109072336D01*
X210791312Y-109059710D01*
X210785018Y-109046403D01*
X210780059Y-109032543D01*
X210776482Y-109018264D01*
X210774322Y-109003703D01*
X210773600Y-108989000D01*
X210773600Y-108689000D01*
X210774322Y-108674297D01*
X210776482Y-108659736D01*
X210780059Y-108645457D01*
X210785018Y-108631597D01*
X210791312Y-108618290D01*
X210798880Y-108605664D01*
X210807648Y-108593841D01*
X210817534Y-108582934D01*
X210828441Y-108573048D01*
X210840264Y-108564280D01*
X210852890Y-108556712D01*
X210866197Y-108550418D01*
X210880057Y-108545459D01*
X210894336Y-108541882D01*
X210908897Y-108539722D01*
X210923600Y-108539000D01*
X212223600Y-108539000D01*
X212238303Y-108539722D01*
X212238303Y-108539722D01*
G37*
D15*
G04 #@! TD*
G04 #@! TO.P,U1,8*
G04 #@! TO.N,BAT+*
X211573600Y-108839000D03*
D16*
G04 #@! TO.P,SW4,1*
G04 #@! TO.N,Net-(SW4-Pad1)*
X186392000Y-113768000D03*
G04 #@! TO.P,SW4,2*
G04 #@! TO.N,GND*
X193592000Y-113768000D03*
G04 #@! TO.P,SW4,3*
G04 #@! TO.N,Net-(R8-Pad2)*
X186392000Y-110768000D03*
G04 #@! TO.P,SW4,4*
G04 #@! TO.N,Net-(C6-Pad1)*
X193592000Y-110768000D03*
G04 #@! TD*
G04 #@! TO.P,SW5,4*
G04 #@! TO.N,Net-(C7-Pad1)*
X203752000Y-110768000D03*
G04 #@! TO.P,SW5,3*
G04 #@! TO.N,Net-(R19-Pad2)*
X196552000Y-110768000D03*
G04 #@! TO.P,SW5,2*
G04 #@! TO.N,GND*
X203752000Y-113768000D03*
G04 #@! TO.P,SW5,1*
G04 #@! TO.N,Net-(SW5-Pad1)*
X196552000Y-113768000D03*
G04 #@! TD*
G04 #@! TO.P,SW1,1*
G04 #@! TO.N,+3V3*
X206712000Y-113768000D03*
G04 #@! TO.P,SW1,2*
G04 #@! TO.N,Net-(SW1-Pad2)*
X213912000Y-113768000D03*
G04 #@! TO.P,SW1,3*
G04 #@! TO.N,SW0*
X206712000Y-110768000D03*
G04 #@! TO.P,SW1,4*
G04 #@! TO.N,Net-(SW1-Pad4)*
X213912000Y-110768000D03*
G04 #@! TD*
G04 #@! TO.P,SW2,4*
G04 #@! TO.N,Net-(SW2-Pad4)*
X224072000Y-110768000D03*
G04 #@! TO.P,SW2,3*
G04 #@! TO.N,SW1*
X216872000Y-110768000D03*
G04 #@! TO.P,SW2,2*
G04 #@! TO.N,Net-(SW2-Pad2)*
X224072000Y-113768000D03*
G04 #@! TO.P,SW2,1*
G04 #@! TO.N,+3V3*
X216872000Y-113768000D03*
G04 #@! TD*
G04 #@! TO.P,SW3,1*
G04 #@! TO.N,+3V3*
X227032000Y-113768000D03*
G04 #@! TO.P,SW3,2*
G04 #@! TO.N,Net-(SW3-Pad2)*
X234232000Y-113768000D03*
G04 #@! TO.P,SW3,3*
G04 #@! TO.N,SW2*
X227032000Y-110768000D03*
G04 #@! TO.P,SW3,4*
G04 #@! TO.N,Net-(SW3-Pad4)*
X234232000Y-110768000D03*
G04 #@! TD*
D17*
G04 #@! TO.P,U8,8*
G04 #@! TO.N,/LCD_LED*
X194208400Y-102717600D03*
G04 #@! TO.P,U8,7*
G04 #@! TO.N,/LCD_SCK*
X194208400Y-100177600D03*
G04 #@! TO.P,U8,6*
G04 #@! TO.N,/LCD_SDA*
X194208400Y-97637600D03*
G04 #@! TO.P,U8,5*
G04 #@! TO.N,/LCD_A0*
X194208400Y-95097600D03*
G04 #@! TO.P,U8,4*
G04 #@! TO.N,/LCD_RST*
X194208400Y-92557600D03*
G04 #@! TO.P,U8,3*
G04 #@! TO.N,/LCD_CS*
X194208400Y-90017600D03*
G04 #@! TO.P,U8,2*
G04 #@! TO.N,GND*
X194208400Y-87477600D03*
G04 #@! TO.P,U8,1*
G04 #@! TO.N,+3V3*
X194208400Y-84937600D03*
G04 #@! TD*
D18*
G04 #@! TO.P,J2,1*
G04 #@! TO.N,GND*
X201930000Y-103124000D03*
G04 #@! TO.P,J2,2*
G04 #@! TO.N,BAT+*
X199390000Y-103124000D03*
G04 #@! TD*
D11*
G04 #@! TO.N,Net-(C9-Pad1)*
G04 #@! TO.C,C9*
G36*
X190218891Y-93670653D02*
X190240126Y-93673803D01*
X190260950Y-93679019D01*
X190281162Y-93686251D01*
X190300568Y-93695430D01*
X190318981Y-93706466D01*
X190336224Y-93719254D01*
X190352130Y-93733670D01*
X190366546Y-93749576D01*
X190379334Y-93766819D01*
X190390370Y-93785232D01*
X190399549Y-93804638D01*
X190406781Y-93824850D01*
X190411997Y-93845674D01*
X190415147Y-93866909D01*
X190416200Y-93888350D01*
X190416200Y-94325850D01*
X190415147Y-94347291D01*
X190411997Y-94368526D01*
X190406781Y-94389350D01*
X190399549Y-94409562D01*
X190390370Y-94428968D01*
X190379334Y-94447381D01*
X190366546Y-94464624D01*
X190352130Y-94480530D01*
X190336224Y-94494946D01*
X190318981Y-94507734D01*
X190300568Y-94518770D01*
X190281162Y-94527949D01*
X190260950Y-94535181D01*
X190240126Y-94540397D01*
X190218891Y-94543547D01*
X190197450Y-94544600D01*
X189684950Y-94544600D01*
X189663509Y-94543547D01*
X189642274Y-94540397D01*
X189621450Y-94535181D01*
X189601238Y-94527949D01*
X189581832Y-94518770D01*
X189563419Y-94507734D01*
X189546176Y-94494946D01*
X189530270Y-94480530D01*
X189515854Y-94464624D01*
X189503066Y-94447381D01*
X189492030Y-94428968D01*
X189482851Y-94409562D01*
X189475619Y-94389350D01*
X189470403Y-94368526D01*
X189467253Y-94347291D01*
X189466200Y-94325850D01*
X189466200Y-93888350D01*
X189467253Y-93866909D01*
X189470403Y-93845674D01*
X189475619Y-93824850D01*
X189482851Y-93804638D01*
X189492030Y-93785232D01*
X189503066Y-93766819D01*
X189515854Y-93749576D01*
X189530270Y-93733670D01*
X189546176Y-93719254D01*
X189563419Y-93706466D01*
X189581832Y-93695430D01*
X189601238Y-93686251D01*
X189621450Y-93679019D01*
X189642274Y-93673803D01*
X189663509Y-93670653D01*
X189684950Y-93669600D01*
X190197450Y-93669600D01*
X190218891Y-93670653D01*
X190218891Y-93670653D01*
G37*
D12*
G04 #@! TD*
G04 #@! TO.P,C9,1*
G04 #@! TO.N,Net-(C9-Pad1)*
X189941200Y-94107100D03*
D11*
G04 #@! TO.N,GND*
G04 #@! TO.C,C9*
G36*
X190218891Y-92095653D02*
X190240126Y-92098803D01*
X190260950Y-92104019D01*
X190281162Y-92111251D01*
X190300568Y-92120430D01*
X190318981Y-92131466D01*
X190336224Y-92144254D01*
X190352130Y-92158670D01*
X190366546Y-92174576D01*
X190379334Y-92191819D01*
X190390370Y-92210232D01*
X190399549Y-92229638D01*
X190406781Y-92249850D01*
X190411997Y-92270674D01*
X190415147Y-92291909D01*
X190416200Y-92313350D01*
X190416200Y-92750850D01*
X190415147Y-92772291D01*
X190411997Y-92793526D01*
X190406781Y-92814350D01*
X190399549Y-92834562D01*
X190390370Y-92853968D01*
X190379334Y-92872381D01*
X190366546Y-92889624D01*
X190352130Y-92905530D01*
X190336224Y-92919946D01*
X190318981Y-92932734D01*
X190300568Y-92943770D01*
X190281162Y-92952949D01*
X190260950Y-92960181D01*
X190240126Y-92965397D01*
X190218891Y-92968547D01*
X190197450Y-92969600D01*
X189684950Y-92969600D01*
X189663509Y-92968547D01*
X189642274Y-92965397D01*
X189621450Y-92960181D01*
X189601238Y-92952949D01*
X189581832Y-92943770D01*
X189563419Y-92932734D01*
X189546176Y-92919946D01*
X189530270Y-92905530D01*
X189515854Y-92889624D01*
X189503066Y-92872381D01*
X189492030Y-92853968D01*
X189482851Y-92834562D01*
X189475619Y-92814350D01*
X189470403Y-92793526D01*
X189467253Y-92772291D01*
X189466200Y-92750850D01*
X189466200Y-92313350D01*
X189467253Y-92291909D01*
X189470403Y-92270674D01*
X189475619Y-92249850D01*
X189482851Y-92229638D01*
X189492030Y-92210232D01*
X189503066Y-92191819D01*
X189515854Y-92174576D01*
X189530270Y-92158670D01*
X189546176Y-92144254D01*
X189563419Y-92131466D01*
X189581832Y-92120430D01*
X189601238Y-92111251D01*
X189621450Y-92104019D01*
X189642274Y-92098803D01*
X189663509Y-92095653D01*
X189684950Y-92094600D01*
X190197450Y-92094600D01*
X190218891Y-92095653D01*
X190218891Y-92095653D01*
G37*
D12*
G04 #@! TD*
G04 #@! TO.P,C9,2*
G04 #@! TO.N,GND*
X189941200Y-92532100D03*
D11*
G04 #@! TO.N,+3V3*
G04 #@! TO.C,C11*
G36*
X199616891Y-84932853D02*
X199638126Y-84936003D01*
X199658950Y-84941219D01*
X199679162Y-84948451D01*
X199698568Y-84957630D01*
X199716981Y-84968666D01*
X199734224Y-84981454D01*
X199750130Y-84995870D01*
X199764546Y-85011776D01*
X199777334Y-85029019D01*
X199788370Y-85047432D01*
X199797549Y-85066838D01*
X199804781Y-85087050D01*
X199809997Y-85107874D01*
X199813147Y-85129109D01*
X199814200Y-85150550D01*
X199814200Y-85588050D01*
X199813147Y-85609491D01*
X199809997Y-85630726D01*
X199804781Y-85651550D01*
X199797549Y-85671762D01*
X199788370Y-85691168D01*
X199777334Y-85709581D01*
X199764546Y-85726824D01*
X199750130Y-85742730D01*
X199734224Y-85757146D01*
X199716981Y-85769934D01*
X199698568Y-85780970D01*
X199679162Y-85790149D01*
X199658950Y-85797381D01*
X199638126Y-85802597D01*
X199616891Y-85805747D01*
X199595450Y-85806800D01*
X199082950Y-85806800D01*
X199061509Y-85805747D01*
X199040274Y-85802597D01*
X199019450Y-85797381D01*
X198999238Y-85790149D01*
X198979832Y-85780970D01*
X198961419Y-85769934D01*
X198944176Y-85757146D01*
X198928270Y-85742730D01*
X198913854Y-85726824D01*
X198901066Y-85709581D01*
X198890030Y-85691168D01*
X198880851Y-85671762D01*
X198873619Y-85651550D01*
X198868403Y-85630726D01*
X198865253Y-85609491D01*
X198864200Y-85588050D01*
X198864200Y-85150550D01*
X198865253Y-85129109D01*
X198868403Y-85107874D01*
X198873619Y-85087050D01*
X198880851Y-85066838D01*
X198890030Y-85047432D01*
X198901066Y-85029019D01*
X198913854Y-85011776D01*
X198928270Y-84995870D01*
X198944176Y-84981454D01*
X198961419Y-84968666D01*
X198979832Y-84957630D01*
X198999238Y-84948451D01*
X199019450Y-84941219D01*
X199040274Y-84936003D01*
X199061509Y-84932853D01*
X199082950Y-84931800D01*
X199595450Y-84931800D01*
X199616891Y-84932853D01*
X199616891Y-84932853D01*
G37*
D12*
G04 #@! TD*
G04 #@! TO.P,C11,1*
G04 #@! TO.N,+3V3*
X199339200Y-85369300D03*
D11*
G04 #@! TO.N,GND*
G04 #@! TO.C,C11*
G36*
X199616891Y-86507853D02*
X199638126Y-86511003D01*
X199658950Y-86516219D01*
X199679162Y-86523451D01*
X199698568Y-86532630D01*
X199716981Y-86543666D01*
X199734224Y-86556454D01*
X199750130Y-86570870D01*
X199764546Y-86586776D01*
X199777334Y-86604019D01*
X199788370Y-86622432D01*
X199797549Y-86641838D01*
X199804781Y-86662050D01*
X199809997Y-86682874D01*
X199813147Y-86704109D01*
X199814200Y-86725550D01*
X199814200Y-87163050D01*
X199813147Y-87184491D01*
X199809997Y-87205726D01*
X199804781Y-87226550D01*
X199797549Y-87246762D01*
X199788370Y-87266168D01*
X199777334Y-87284581D01*
X199764546Y-87301824D01*
X199750130Y-87317730D01*
X199734224Y-87332146D01*
X199716981Y-87344934D01*
X199698568Y-87355970D01*
X199679162Y-87365149D01*
X199658950Y-87372381D01*
X199638126Y-87377597D01*
X199616891Y-87380747D01*
X199595450Y-87381800D01*
X199082950Y-87381800D01*
X199061509Y-87380747D01*
X199040274Y-87377597D01*
X199019450Y-87372381D01*
X198999238Y-87365149D01*
X198979832Y-87355970D01*
X198961419Y-87344934D01*
X198944176Y-87332146D01*
X198928270Y-87317730D01*
X198913854Y-87301824D01*
X198901066Y-87284581D01*
X198890030Y-87266168D01*
X198880851Y-87246762D01*
X198873619Y-87226550D01*
X198868403Y-87205726D01*
X198865253Y-87184491D01*
X198864200Y-87163050D01*
X198864200Y-86725550D01*
X198865253Y-86704109D01*
X198868403Y-86682874D01*
X198873619Y-86662050D01*
X198880851Y-86641838D01*
X198890030Y-86622432D01*
X198901066Y-86604019D01*
X198913854Y-86586776D01*
X198928270Y-86570870D01*
X198944176Y-86556454D01*
X198961419Y-86543666D01*
X198979832Y-86532630D01*
X198999238Y-86523451D01*
X199019450Y-86516219D01*
X199040274Y-86511003D01*
X199061509Y-86507853D01*
X199082950Y-86506800D01*
X199595450Y-86506800D01*
X199616891Y-86507853D01*
X199616891Y-86507853D01*
G37*
D12*
G04 #@! TD*
G04 #@! TO.P,C11,2*
G04 #@! TO.N,GND*
X199339200Y-86944300D03*
D11*
G04 #@! TO.N,GND*
G04 #@! TO.C,C12*
G36*
X187120091Y-92044853D02*
X187141326Y-92048003D01*
X187162150Y-92053219D01*
X187182362Y-92060451D01*
X187201768Y-92069630D01*
X187220181Y-92080666D01*
X187237424Y-92093454D01*
X187253330Y-92107870D01*
X187267746Y-92123776D01*
X187280534Y-92141019D01*
X187291570Y-92159432D01*
X187300749Y-92178838D01*
X187307981Y-92199050D01*
X187313197Y-92219874D01*
X187316347Y-92241109D01*
X187317400Y-92262550D01*
X187317400Y-92700050D01*
X187316347Y-92721491D01*
X187313197Y-92742726D01*
X187307981Y-92763550D01*
X187300749Y-92783762D01*
X187291570Y-92803168D01*
X187280534Y-92821581D01*
X187267746Y-92838824D01*
X187253330Y-92854730D01*
X187237424Y-92869146D01*
X187220181Y-92881934D01*
X187201768Y-92892970D01*
X187182362Y-92902149D01*
X187162150Y-92909381D01*
X187141326Y-92914597D01*
X187120091Y-92917747D01*
X187098650Y-92918800D01*
X186586150Y-92918800D01*
X186564709Y-92917747D01*
X186543474Y-92914597D01*
X186522650Y-92909381D01*
X186502438Y-92902149D01*
X186483032Y-92892970D01*
X186464619Y-92881934D01*
X186447376Y-92869146D01*
X186431470Y-92854730D01*
X186417054Y-92838824D01*
X186404266Y-92821581D01*
X186393230Y-92803168D01*
X186384051Y-92783762D01*
X186376819Y-92763550D01*
X186371603Y-92742726D01*
X186368453Y-92721491D01*
X186367400Y-92700050D01*
X186367400Y-92262550D01*
X186368453Y-92241109D01*
X186371603Y-92219874D01*
X186376819Y-92199050D01*
X186384051Y-92178838D01*
X186393230Y-92159432D01*
X186404266Y-92141019D01*
X186417054Y-92123776D01*
X186431470Y-92107870D01*
X186447376Y-92093454D01*
X186464619Y-92080666D01*
X186483032Y-92069630D01*
X186502438Y-92060451D01*
X186522650Y-92053219D01*
X186543474Y-92048003D01*
X186564709Y-92044853D01*
X186586150Y-92043800D01*
X187098650Y-92043800D01*
X187120091Y-92044853D01*
X187120091Y-92044853D01*
G37*
D12*
G04 #@! TD*
G04 #@! TO.P,C12,2*
G04 #@! TO.N,GND*
X186842400Y-92481300D03*
D11*
G04 #@! TO.N,Net-(C12-Pad1)*
G04 #@! TO.C,C12*
G36*
X187120091Y-93619853D02*
X187141326Y-93623003D01*
X187162150Y-93628219D01*
X187182362Y-93635451D01*
X187201768Y-93644630D01*
X187220181Y-93655666D01*
X187237424Y-93668454D01*
X187253330Y-93682870D01*
X187267746Y-93698776D01*
X187280534Y-93716019D01*
X187291570Y-93734432D01*
X187300749Y-93753838D01*
X187307981Y-93774050D01*
X187313197Y-93794874D01*
X187316347Y-93816109D01*
X187317400Y-93837550D01*
X187317400Y-94275050D01*
X187316347Y-94296491D01*
X187313197Y-94317726D01*
X187307981Y-94338550D01*
X187300749Y-94358762D01*
X187291570Y-94378168D01*
X187280534Y-94396581D01*
X187267746Y-94413824D01*
X187253330Y-94429730D01*
X187237424Y-94444146D01*
X187220181Y-94456934D01*
X187201768Y-94467970D01*
X187182362Y-94477149D01*
X187162150Y-94484381D01*
X187141326Y-94489597D01*
X187120091Y-94492747D01*
X187098650Y-94493800D01*
X186586150Y-94493800D01*
X186564709Y-94492747D01*
X186543474Y-94489597D01*
X186522650Y-94484381D01*
X186502438Y-94477149D01*
X186483032Y-94467970D01*
X186464619Y-94456934D01*
X186447376Y-94444146D01*
X186431470Y-94429730D01*
X186417054Y-94413824D01*
X186404266Y-94396581D01*
X186393230Y-94378168D01*
X186384051Y-94358762D01*
X186376819Y-94338550D01*
X186371603Y-94317726D01*
X186368453Y-94296491D01*
X186367400Y-94275050D01*
X186367400Y-93837550D01*
X186368453Y-93816109D01*
X186371603Y-93794874D01*
X186376819Y-93774050D01*
X186384051Y-93753838D01*
X186393230Y-93734432D01*
X186404266Y-93716019D01*
X186417054Y-93698776D01*
X186431470Y-93682870D01*
X186447376Y-93668454D01*
X186464619Y-93655666D01*
X186483032Y-93644630D01*
X186502438Y-93635451D01*
X186522650Y-93628219D01*
X186543474Y-93623003D01*
X186564709Y-93619853D01*
X186586150Y-93618800D01*
X187098650Y-93618800D01*
X187120091Y-93619853D01*
X187120091Y-93619853D01*
G37*
D12*
G04 #@! TD*
G04 #@! TO.P,C12,1*
G04 #@! TO.N,Net-(C12-Pad1)*
X186842400Y-94056300D03*
D11*
G04 #@! TO.N,/ESP32 Pico D4/LNA_IN*
G04 #@! TO.C,C13*
G36*
X188644091Y-96972653D02*
X188665326Y-96975803D01*
X188686150Y-96981019D01*
X188706362Y-96988251D01*
X188725768Y-96997430D01*
X188744181Y-97008466D01*
X188761424Y-97021254D01*
X188777330Y-97035670D01*
X188791746Y-97051576D01*
X188804534Y-97068819D01*
X188815570Y-97087232D01*
X188824749Y-97106638D01*
X188831981Y-97126850D01*
X188837197Y-97147674D01*
X188840347Y-97168909D01*
X188841400Y-97190350D01*
X188841400Y-97627850D01*
X188840347Y-97649291D01*
X188837197Y-97670526D01*
X188831981Y-97691350D01*
X188824749Y-97711562D01*
X188815570Y-97730968D01*
X188804534Y-97749381D01*
X188791746Y-97766624D01*
X188777330Y-97782530D01*
X188761424Y-97796946D01*
X188744181Y-97809734D01*
X188725768Y-97820770D01*
X188706362Y-97829949D01*
X188686150Y-97837181D01*
X188665326Y-97842397D01*
X188644091Y-97845547D01*
X188622650Y-97846600D01*
X188110150Y-97846600D01*
X188088709Y-97845547D01*
X188067474Y-97842397D01*
X188046650Y-97837181D01*
X188026438Y-97829949D01*
X188007032Y-97820770D01*
X187988619Y-97809734D01*
X187971376Y-97796946D01*
X187955470Y-97782530D01*
X187941054Y-97766624D01*
X187928266Y-97749381D01*
X187917230Y-97730968D01*
X187908051Y-97711562D01*
X187900819Y-97691350D01*
X187895603Y-97670526D01*
X187892453Y-97649291D01*
X187891400Y-97627850D01*
X187891400Y-97190350D01*
X187892453Y-97168909D01*
X187895603Y-97147674D01*
X187900819Y-97126850D01*
X187908051Y-97106638D01*
X187917230Y-97087232D01*
X187928266Y-97068819D01*
X187941054Y-97051576D01*
X187955470Y-97035670D01*
X187971376Y-97021254D01*
X187988619Y-97008466D01*
X188007032Y-96997430D01*
X188026438Y-96988251D01*
X188046650Y-96981019D01*
X188067474Y-96975803D01*
X188088709Y-96972653D01*
X188110150Y-96971600D01*
X188622650Y-96971600D01*
X188644091Y-96972653D01*
X188644091Y-96972653D01*
G37*
D12*
G04 #@! TD*
G04 #@! TO.P,C13,1*
G04 #@! TO.N,/ESP32 Pico D4/LNA_IN*
X188366400Y-97409100D03*
D11*
G04 #@! TO.N,Net-(C12-Pad1)*
G04 #@! TO.C,C13*
G36*
X188644091Y-95397653D02*
X188665326Y-95400803D01*
X188686150Y-95406019D01*
X188706362Y-95413251D01*
X188725768Y-95422430D01*
X188744181Y-95433466D01*
X188761424Y-95446254D01*
X188777330Y-95460670D01*
X188791746Y-95476576D01*
X188804534Y-95493819D01*
X188815570Y-95512232D01*
X188824749Y-95531638D01*
X188831981Y-95551850D01*
X188837197Y-95572674D01*
X188840347Y-95593909D01*
X188841400Y-95615350D01*
X188841400Y-96052850D01*
X188840347Y-96074291D01*
X188837197Y-96095526D01*
X188831981Y-96116350D01*
X188824749Y-96136562D01*
X188815570Y-96155968D01*
X188804534Y-96174381D01*
X188791746Y-96191624D01*
X188777330Y-96207530D01*
X188761424Y-96221946D01*
X188744181Y-96234734D01*
X188725768Y-96245770D01*
X188706362Y-96254949D01*
X188686150Y-96262181D01*
X188665326Y-96267397D01*
X188644091Y-96270547D01*
X188622650Y-96271600D01*
X188110150Y-96271600D01*
X188088709Y-96270547D01*
X188067474Y-96267397D01*
X188046650Y-96262181D01*
X188026438Y-96254949D01*
X188007032Y-96245770D01*
X187988619Y-96234734D01*
X187971376Y-96221946D01*
X187955470Y-96207530D01*
X187941054Y-96191624D01*
X187928266Y-96174381D01*
X187917230Y-96155968D01*
X187908051Y-96136562D01*
X187900819Y-96116350D01*
X187895603Y-96095526D01*
X187892453Y-96074291D01*
X187891400Y-96052850D01*
X187891400Y-95615350D01*
X187892453Y-95593909D01*
X187895603Y-95572674D01*
X187900819Y-95551850D01*
X187908051Y-95531638D01*
X187917230Y-95512232D01*
X187928266Y-95493819D01*
X187941054Y-95476576D01*
X187955470Y-95460670D01*
X187971376Y-95446254D01*
X187988619Y-95433466D01*
X188007032Y-95422430D01*
X188026438Y-95413251D01*
X188046650Y-95406019D01*
X188067474Y-95400803D01*
X188088709Y-95397653D01*
X188110150Y-95396600D01*
X188622650Y-95396600D01*
X188644091Y-95397653D01*
X188644091Y-95397653D01*
G37*
D12*
G04 #@! TD*
G04 #@! TO.P,C13,2*
G04 #@! TO.N,Net-(C12-Pad1)*
X188366400Y-95834100D03*
D19*
G04 #@! TO.P,D1,2*
G04 #@! TO.N,GND*
X226528400Y-107899200D03*
G04 #@! TO.P,D1,1*
G04 #@! TO.N,Net-(D1-Pad1)*
X227928400Y-107899200D03*
G04 #@! TD*
G04 #@! TO.P,D3,1*
G04 #@! TO.N,Net-(D3-Pad1)*
X227928400Y-106680000D03*
G04 #@! TO.P,D3,2*
G04 #@! TO.N,GND*
X226528400Y-106680000D03*
G04 #@! TD*
G04 #@! TO.P,D4,2*
G04 #@! TO.N,GND*
X226590400Y-105511600D03*
G04 #@! TO.P,D4,1*
G04 #@! TO.N,Net-(D4-Pad1)*
X227990400Y-105511600D03*
G04 #@! TD*
D11*
G04 #@! TO.N,GND*
G04 #@! TO.C,L1*
G36*
X188644091Y-100122253D02*
X188665326Y-100125403D01*
X188686150Y-100130619D01*
X188706362Y-100137851D01*
X188725768Y-100147030D01*
X188744181Y-100158066D01*
X188761424Y-100170854D01*
X188777330Y-100185270D01*
X188791746Y-100201176D01*
X188804534Y-100218419D01*
X188815570Y-100236832D01*
X188824749Y-100256238D01*
X188831981Y-100276450D01*
X188837197Y-100297274D01*
X188840347Y-100318509D01*
X188841400Y-100339950D01*
X188841400Y-100777450D01*
X188840347Y-100798891D01*
X188837197Y-100820126D01*
X188831981Y-100840950D01*
X188824749Y-100861162D01*
X188815570Y-100880568D01*
X188804534Y-100898981D01*
X188791746Y-100916224D01*
X188777330Y-100932130D01*
X188761424Y-100946546D01*
X188744181Y-100959334D01*
X188725768Y-100970370D01*
X188706362Y-100979549D01*
X188686150Y-100986781D01*
X188665326Y-100991997D01*
X188644091Y-100995147D01*
X188622650Y-100996200D01*
X188110150Y-100996200D01*
X188088709Y-100995147D01*
X188067474Y-100991997D01*
X188046650Y-100986781D01*
X188026438Y-100979549D01*
X188007032Y-100970370D01*
X187988619Y-100959334D01*
X187971376Y-100946546D01*
X187955470Y-100932130D01*
X187941054Y-100916224D01*
X187928266Y-100898981D01*
X187917230Y-100880568D01*
X187908051Y-100861162D01*
X187900819Y-100840950D01*
X187895603Y-100820126D01*
X187892453Y-100798891D01*
X187891400Y-100777450D01*
X187891400Y-100339950D01*
X187892453Y-100318509D01*
X187895603Y-100297274D01*
X187900819Y-100276450D01*
X187908051Y-100256238D01*
X187917230Y-100236832D01*
X187928266Y-100218419D01*
X187941054Y-100201176D01*
X187955470Y-100185270D01*
X187971376Y-100170854D01*
X187988619Y-100158066D01*
X188007032Y-100147030D01*
X188026438Y-100137851D01*
X188046650Y-100130619D01*
X188067474Y-100125403D01*
X188088709Y-100122253D01*
X188110150Y-100121200D01*
X188622650Y-100121200D01*
X188644091Y-100122253D01*
X188644091Y-100122253D01*
G37*
D12*
G04 #@! TD*
G04 #@! TO.P,L1,1*
G04 #@! TO.N,GND*
X188366400Y-100558700D03*
D11*
G04 #@! TO.N,/ESP32 Pico D4/LNA_IN*
G04 #@! TO.C,L1*
G36*
X188644091Y-98547253D02*
X188665326Y-98550403D01*
X188686150Y-98555619D01*
X188706362Y-98562851D01*
X188725768Y-98572030D01*
X188744181Y-98583066D01*
X188761424Y-98595854D01*
X188777330Y-98610270D01*
X188791746Y-98626176D01*
X188804534Y-98643419D01*
X188815570Y-98661832D01*
X188824749Y-98681238D01*
X188831981Y-98701450D01*
X188837197Y-98722274D01*
X188840347Y-98743509D01*
X188841400Y-98764950D01*
X188841400Y-99202450D01*
X188840347Y-99223891D01*
X188837197Y-99245126D01*
X188831981Y-99265950D01*
X188824749Y-99286162D01*
X188815570Y-99305568D01*
X188804534Y-99323981D01*
X188791746Y-99341224D01*
X188777330Y-99357130D01*
X188761424Y-99371546D01*
X188744181Y-99384334D01*
X188725768Y-99395370D01*
X188706362Y-99404549D01*
X188686150Y-99411781D01*
X188665326Y-99416997D01*
X188644091Y-99420147D01*
X188622650Y-99421200D01*
X188110150Y-99421200D01*
X188088709Y-99420147D01*
X188067474Y-99416997D01*
X188046650Y-99411781D01*
X188026438Y-99404549D01*
X188007032Y-99395370D01*
X187988619Y-99384334D01*
X187971376Y-99371546D01*
X187955470Y-99357130D01*
X187941054Y-99341224D01*
X187928266Y-99323981D01*
X187917230Y-99305568D01*
X187908051Y-99286162D01*
X187900819Y-99265950D01*
X187895603Y-99245126D01*
X187892453Y-99223891D01*
X187891400Y-99202450D01*
X187891400Y-98764950D01*
X187892453Y-98743509D01*
X187895603Y-98722274D01*
X187900819Y-98701450D01*
X187908051Y-98681238D01*
X187917230Y-98661832D01*
X187928266Y-98643419D01*
X187941054Y-98626176D01*
X187955470Y-98610270D01*
X187971376Y-98595854D01*
X187988619Y-98583066D01*
X188007032Y-98572030D01*
X188026438Y-98562851D01*
X188046650Y-98555619D01*
X188067474Y-98550403D01*
X188088709Y-98547253D01*
X188110150Y-98546200D01*
X188622650Y-98546200D01*
X188644091Y-98547253D01*
X188644091Y-98547253D01*
G37*
D12*
G04 #@! TD*
G04 #@! TO.P,L1,2*
G04 #@! TO.N,/ESP32 Pico D4/LNA_IN*
X188366400Y-98983700D03*
D11*
G04 #@! TO.N,+3V3*
G04 #@! TO.C,R20*
G36*
X188694891Y-92095653D02*
X188716126Y-92098803D01*
X188736950Y-92104019D01*
X188757162Y-92111251D01*
X188776568Y-92120430D01*
X188794981Y-92131466D01*
X188812224Y-92144254D01*
X188828130Y-92158670D01*
X188842546Y-92174576D01*
X188855334Y-92191819D01*
X188866370Y-92210232D01*
X188875549Y-92229638D01*
X188882781Y-92249850D01*
X188887997Y-92270674D01*
X188891147Y-92291909D01*
X188892200Y-92313350D01*
X188892200Y-92750850D01*
X188891147Y-92772291D01*
X188887997Y-92793526D01*
X188882781Y-92814350D01*
X188875549Y-92834562D01*
X188866370Y-92853968D01*
X188855334Y-92872381D01*
X188842546Y-92889624D01*
X188828130Y-92905530D01*
X188812224Y-92919946D01*
X188794981Y-92932734D01*
X188776568Y-92943770D01*
X188757162Y-92952949D01*
X188736950Y-92960181D01*
X188716126Y-92965397D01*
X188694891Y-92968547D01*
X188673450Y-92969600D01*
X188160950Y-92969600D01*
X188139509Y-92968547D01*
X188118274Y-92965397D01*
X188097450Y-92960181D01*
X188077238Y-92952949D01*
X188057832Y-92943770D01*
X188039419Y-92932734D01*
X188022176Y-92919946D01*
X188006270Y-92905530D01*
X187991854Y-92889624D01*
X187979066Y-92872381D01*
X187968030Y-92853968D01*
X187958851Y-92834562D01*
X187951619Y-92814350D01*
X187946403Y-92793526D01*
X187943253Y-92772291D01*
X187942200Y-92750850D01*
X187942200Y-92313350D01*
X187943253Y-92291909D01*
X187946403Y-92270674D01*
X187951619Y-92249850D01*
X187958851Y-92229638D01*
X187968030Y-92210232D01*
X187979066Y-92191819D01*
X187991854Y-92174576D01*
X188006270Y-92158670D01*
X188022176Y-92144254D01*
X188039419Y-92131466D01*
X188057832Y-92120430D01*
X188077238Y-92111251D01*
X188097450Y-92104019D01*
X188118274Y-92098803D01*
X188139509Y-92095653D01*
X188160950Y-92094600D01*
X188673450Y-92094600D01*
X188694891Y-92095653D01*
X188694891Y-92095653D01*
G37*
D12*
G04 #@! TD*
G04 #@! TO.P,R20,2*
G04 #@! TO.N,+3V3*
X188417200Y-92532100D03*
D11*
G04 #@! TO.N,Net-(C9-Pad1)*
G04 #@! TO.C,R20*
G36*
X188694891Y-93670653D02*
X188716126Y-93673803D01*
X188736950Y-93679019D01*
X188757162Y-93686251D01*
X188776568Y-93695430D01*
X188794981Y-93706466D01*
X188812224Y-93719254D01*
X188828130Y-93733670D01*
X188842546Y-93749576D01*
X188855334Y-93766819D01*
X188866370Y-93785232D01*
X188875549Y-93804638D01*
X188882781Y-93824850D01*
X188887997Y-93845674D01*
X188891147Y-93866909D01*
X188892200Y-93888350D01*
X188892200Y-94325850D01*
X188891147Y-94347291D01*
X188887997Y-94368526D01*
X188882781Y-94389350D01*
X188875549Y-94409562D01*
X188866370Y-94428968D01*
X188855334Y-94447381D01*
X188842546Y-94464624D01*
X188828130Y-94480530D01*
X188812224Y-94494946D01*
X188794981Y-94507734D01*
X188776568Y-94518770D01*
X188757162Y-94527949D01*
X188736950Y-94535181D01*
X188716126Y-94540397D01*
X188694891Y-94543547D01*
X188673450Y-94544600D01*
X188160950Y-94544600D01*
X188139509Y-94543547D01*
X188118274Y-94540397D01*
X188097450Y-94535181D01*
X188077238Y-94527949D01*
X188057832Y-94518770D01*
X188039419Y-94507734D01*
X188022176Y-94494946D01*
X188006270Y-94480530D01*
X187991854Y-94464624D01*
X187979066Y-94447381D01*
X187968030Y-94428968D01*
X187958851Y-94409562D01*
X187951619Y-94389350D01*
X187946403Y-94368526D01*
X187943253Y-94347291D01*
X187942200Y-94325850D01*
X187942200Y-93888350D01*
X187943253Y-93866909D01*
X187946403Y-93845674D01*
X187951619Y-93824850D01*
X187958851Y-93804638D01*
X187968030Y-93785232D01*
X187979066Y-93766819D01*
X187991854Y-93749576D01*
X188006270Y-93733670D01*
X188022176Y-93719254D01*
X188039419Y-93706466D01*
X188057832Y-93695430D01*
X188077238Y-93686251D01*
X188097450Y-93679019D01*
X188118274Y-93673803D01*
X188139509Y-93670653D01*
X188160950Y-93669600D01*
X188673450Y-93669600D01*
X188694891Y-93670653D01*
X188694891Y-93670653D01*
G37*
D12*
G04 #@! TD*
G04 #@! TO.P,R20,1*
G04 #@! TO.N,Net-(C9-Pad1)*
X188417200Y-94107100D03*
D11*
G04 #@! TO.N,+3V3*
G04 #@! TO.C,R22*
G36*
X199858891Y-87867253D02*
X199880126Y-87870403D01*
X199900950Y-87875619D01*
X199921162Y-87882851D01*
X199940568Y-87892030D01*
X199958981Y-87903066D01*
X199976224Y-87915854D01*
X199992130Y-87930270D01*
X200006546Y-87946176D01*
X200019334Y-87963419D01*
X200030370Y-87981832D01*
X200039549Y-88001238D01*
X200046781Y-88021450D01*
X200051997Y-88042274D01*
X200055147Y-88063509D01*
X200056200Y-88084950D01*
X200056200Y-88597450D01*
X200055147Y-88618891D01*
X200051997Y-88640126D01*
X200046781Y-88660950D01*
X200039549Y-88681162D01*
X200030370Y-88700568D01*
X200019334Y-88718981D01*
X200006546Y-88736224D01*
X199992130Y-88752130D01*
X199976224Y-88766546D01*
X199958981Y-88779334D01*
X199940568Y-88790370D01*
X199921162Y-88799549D01*
X199900950Y-88806781D01*
X199880126Y-88811997D01*
X199858891Y-88815147D01*
X199837450Y-88816200D01*
X199399950Y-88816200D01*
X199378509Y-88815147D01*
X199357274Y-88811997D01*
X199336450Y-88806781D01*
X199316238Y-88799549D01*
X199296832Y-88790370D01*
X199278419Y-88779334D01*
X199261176Y-88766546D01*
X199245270Y-88752130D01*
X199230854Y-88736224D01*
X199218066Y-88718981D01*
X199207030Y-88700568D01*
X199197851Y-88681162D01*
X199190619Y-88660950D01*
X199185403Y-88640126D01*
X199182253Y-88618891D01*
X199181200Y-88597450D01*
X199181200Y-88084950D01*
X199182253Y-88063509D01*
X199185403Y-88042274D01*
X199190619Y-88021450D01*
X199197851Y-88001238D01*
X199207030Y-87981832D01*
X199218066Y-87963419D01*
X199230854Y-87946176D01*
X199245270Y-87930270D01*
X199261176Y-87915854D01*
X199278419Y-87903066D01*
X199296832Y-87892030D01*
X199316238Y-87882851D01*
X199336450Y-87875619D01*
X199357274Y-87870403D01*
X199378509Y-87867253D01*
X199399950Y-87866200D01*
X199837450Y-87866200D01*
X199858891Y-87867253D01*
X199858891Y-87867253D01*
G37*
D12*
G04 #@! TD*
G04 #@! TO.P,R22,1*
G04 #@! TO.N,+3V3*
X199618700Y-88341200D03*
D11*
G04 #@! TO.N,Net-(R22-Pad2)*
G04 #@! TO.C,R22*
G36*
X198283891Y-87867253D02*
X198305126Y-87870403D01*
X198325950Y-87875619D01*
X198346162Y-87882851D01*
X198365568Y-87892030D01*
X198383981Y-87903066D01*
X198401224Y-87915854D01*
X198417130Y-87930270D01*
X198431546Y-87946176D01*
X198444334Y-87963419D01*
X198455370Y-87981832D01*
X198464549Y-88001238D01*
X198471781Y-88021450D01*
X198476997Y-88042274D01*
X198480147Y-88063509D01*
X198481200Y-88084950D01*
X198481200Y-88597450D01*
X198480147Y-88618891D01*
X198476997Y-88640126D01*
X198471781Y-88660950D01*
X198464549Y-88681162D01*
X198455370Y-88700568D01*
X198444334Y-88718981D01*
X198431546Y-88736224D01*
X198417130Y-88752130D01*
X198401224Y-88766546D01*
X198383981Y-88779334D01*
X198365568Y-88790370D01*
X198346162Y-88799549D01*
X198325950Y-88806781D01*
X198305126Y-88811997D01*
X198283891Y-88815147D01*
X198262450Y-88816200D01*
X197824950Y-88816200D01*
X197803509Y-88815147D01*
X197782274Y-88811997D01*
X197761450Y-88806781D01*
X197741238Y-88799549D01*
X197721832Y-88790370D01*
X197703419Y-88779334D01*
X197686176Y-88766546D01*
X197670270Y-88752130D01*
X197655854Y-88736224D01*
X197643066Y-88718981D01*
X197632030Y-88700568D01*
X197622851Y-88681162D01*
X197615619Y-88660950D01*
X197610403Y-88640126D01*
X197607253Y-88618891D01*
X197606200Y-88597450D01*
X197606200Y-88084950D01*
X197607253Y-88063509D01*
X197610403Y-88042274D01*
X197615619Y-88021450D01*
X197622851Y-88001238D01*
X197632030Y-87981832D01*
X197643066Y-87963419D01*
X197655854Y-87946176D01*
X197670270Y-87930270D01*
X197686176Y-87915854D01*
X197703419Y-87903066D01*
X197721832Y-87892030D01*
X197741238Y-87882851D01*
X197761450Y-87875619D01*
X197782274Y-87870403D01*
X197803509Y-87867253D01*
X197824950Y-87866200D01*
X198262450Y-87866200D01*
X198283891Y-87867253D01*
X198283891Y-87867253D01*
G37*
D12*
G04 #@! TD*
G04 #@! TO.P,R22,2*
G04 #@! TO.N,Net-(R22-Pad2)*
X198043700Y-88341200D03*
D11*
G04 #@! TO.N,Net-(R18-Pad1)*
G04 #@! TO.C,R18*
G36*
X192301691Y-108580553D02*
X192322926Y-108583703D01*
X192343750Y-108588919D01*
X192363962Y-108596151D01*
X192383368Y-108605330D01*
X192401781Y-108616366D01*
X192419024Y-108629154D01*
X192434930Y-108643570D01*
X192449346Y-108659476D01*
X192462134Y-108676719D01*
X192473170Y-108695132D01*
X192482349Y-108714538D01*
X192489581Y-108734750D01*
X192494797Y-108755574D01*
X192497947Y-108776809D01*
X192499000Y-108798250D01*
X192499000Y-109235750D01*
X192497947Y-109257191D01*
X192494797Y-109278426D01*
X192489581Y-109299250D01*
X192482349Y-109319462D01*
X192473170Y-109338868D01*
X192462134Y-109357281D01*
X192449346Y-109374524D01*
X192434930Y-109390430D01*
X192419024Y-109404846D01*
X192401781Y-109417634D01*
X192383368Y-109428670D01*
X192363962Y-109437849D01*
X192343750Y-109445081D01*
X192322926Y-109450297D01*
X192301691Y-109453447D01*
X192280250Y-109454500D01*
X191767750Y-109454500D01*
X191746309Y-109453447D01*
X191725074Y-109450297D01*
X191704250Y-109445081D01*
X191684038Y-109437849D01*
X191664632Y-109428670D01*
X191646219Y-109417634D01*
X191628976Y-109404846D01*
X191613070Y-109390430D01*
X191598654Y-109374524D01*
X191585866Y-109357281D01*
X191574830Y-109338868D01*
X191565651Y-109319462D01*
X191558419Y-109299250D01*
X191553203Y-109278426D01*
X191550053Y-109257191D01*
X191549000Y-109235750D01*
X191549000Y-108798250D01*
X191550053Y-108776809D01*
X191553203Y-108755574D01*
X191558419Y-108734750D01*
X191565651Y-108714538D01*
X191574830Y-108695132D01*
X191585866Y-108676719D01*
X191598654Y-108659476D01*
X191613070Y-108643570D01*
X191628976Y-108629154D01*
X191646219Y-108616366D01*
X191664632Y-108605330D01*
X191684038Y-108596151D01*
X191704250Y-108588919D01*
X191725074Y-108583703D01*
X191746309Y-108580553D01*
X191767750Y-108579500D01*
X192280250Y-108579500D01*
X192301691Y-108580553D01*
X192301691Y-108580553D01*
G37*
D12*
G04 #@! TD*
G04 #@! TO.P,R18,1*
G04 #@! TO.N,Net-(R18-Pad1)*
X192024000Y-109017000D03*
D11*
G04 #@! TO.N,GND*
G04 #@! TO.C,R18*
G36*
X192301691Y-107005553D02*
X192322926Y-107008703D01*
X192343750Y-107013919D01*
X192363962Y-107021151D01*
X192383368Y-107030330D01*
X192401781Y-107041366D01*
X192419024Y-107054154D01*
X192434930Y-107068570D01*
X192449346Y-107084476D01*
X192462134Y-107101719D01*
X192473170Y-107120132D01*
X192482349Y-107139538D01*
X192489581Y-107159750D01*
X192494797Y-107180574D01*
X192497947Y-107201809D01*
X192499000Y-107223250D01*
X192499000Y-107660750D01*
X192497947Y-107682191D01*
X192494797Y-107703426D01*
X192489581Y-107724250D01*
X192482349Y-107744462D01*
X192473170Y-107763868D01*
X192462134Y-107782281D01*
X192449346Y-107799524D01*
X192434930Y-107815430D01*
X192419024Y-107829846D01*
X192401781Y-107842634D01*
X192383368Y-107853670D01*
X192363962Y-107862849D01*
X192343750Y-107870081D01*
X192322926Y-107875297D01*
X192301691Y-107878447D01*
X192280250Y-107879500D01*
X191767750Y-107879500D01*
X191746309Y-107878447D01*
X191725074Y-107875297D01*
X191704250Y-107870081D01*
X191684038Y-107862849D01*
X191664632Y-107853670D01*
X191646219Y-107842634D01*
X191628976Y-107829846D01*
X191613070Y-107815430D01*
X191598654Y-107799524D01*
X191585866Y-107782281D01*
X191574830Y-107763868D01*
X191565651Y-107744462D01*
X191558419Y-107724250D01*
X191553203Y-107703426D01*
X191550053Y-107682191D01*
X191549000Y-107660750D01*
X191549000Y-107223250D01*
X191550053Y-107201809D01*
X191553203Y-107180574D01*
X191558419Y-107159750D01*
X191565651Y-107139538D01*
X191574830Y-107120132D01*
X191585866Y-107101719D01*
X191598654Y-107084476D01*
X191613070Y-107068570D01*
X191628976Y-107054154D01*
X191646219Y-107041366D01*
X191664632Y-107030330D01*
X191684038Y-107021151D01*
X191704250Y-107013919D01*
X191725074Y-107008703D01*
X191746309Y-107005553D01*
X191767750Y-107004500D01*
X192280250Y-107004500D01*
X192301691Y-107005553D01*
X192301691Y-107005553D01*
G37*
D12*
G04 #@! TD*
G04 #@! TO.P,R18,2*
G04 #@! TO.N,GND*
X192024000Y-107442000D03*
D20*
G04 #@! TO.P,J3,3*
G04 #@! TO.N,Net-(J3-Pad3)*
X190166000Y-98044000D03*
G04 #@! TO.P,J3,4*
G04 #@! TO.N,Net-(J3-Pad4)*
X190166000Y-87344000D03*
G04 #@! TO.P,J3,2*
G04 #@! TO.N,Net-(C12-Pad1)*
X186436000Y-95844000D03*
G04 #@! TO.P,J3,1*
G04 #@! TO.N,GND*
X186436000Y-98044000D03*
G04 #@! TD*
D11*
G04 #@! TO.N,+3V3*
G04 #@! TO.C,C8*
G36*
X197127691Y-104440053D02*
X197148926Y-104443203D01*
X197169750Y-104448419D01*
X197189962Y-104455651D01*
X197209368Y-104464830D01*
X197227781Y-104475866D01*
X197245024Y-104488654D01*
X197260930Y-104503070D01*
X197275346Y-104518976D01*
X197288134Y-104536219D01*
X197299170Y-104554632D01*
X197308349Y-104574038D01*
X197315581Y-104594250D01*
X197320797Y-104615074D01*
X197323947Y-104636309D01*
X197325000Y-104657750D01*
X197325000Y-105095250D01*
X197323947Y-105116691D01*
X197320797Y-105137926D01*
X197315581Y-105158750D01*
X197308349Y-105178962D01*
X197299170Y-105198368D01*
X197288134Y-105216781D01*
X197275346Y-105234024D01*
X197260930Y-105249930D01*
X197245024Y-105264346D01*
X197227781Y-105277134D01*
X197209368Y-105288170D01*
X197189962Y-105297349D01*
X197169750Y-105304581D01*
X197148926Y-105309797D01*
X197127691Y-105312947D01*
X197106250Y-105314000D01*
X196593750Y-105314000D01*
X196572309Y-105312947D01*
X196551074Y-105309797D01*
X196530250Y-105304581D01*
X196510038Y-105297349D01*
X196490632Y-105288170D01*
X196472219Y-105277134D01*
X196454976Y-105264346D01*
X196439070Y-105249930D01*
X196424654Y-105234024D01*
X196411866Y-105216781D01*
X196400830Y-105198368D01*
X196391651Y-105178962D01*
X196384419Y-105158750D01*
X196379203Y-105137926D01*
X196376053Y-105116691D01*
X196375000Y-105095250D01*
X196375000Y-104657750D01*
X196376053Y-104636309D01*
X196379203Y-104615074D01*
X196384419Y-104594250D01*
X196391651Y-104574038D01*
X196400830Y-104554632D01*
X196411866Y-104536219D01*
X196424654Y-104518976D01*
X196439070Y-104503070D01*
X196454976Y-104488654D01*
X196472219Y-104475866D01*
X196490632Y-104464830D01*
X196510038Y-104455651D01*
X196530250Y-104448419D01*
X196551074Y-104443203D01*
X196572309Y-104440053D01*
X196593750Y-104439000D01*
X197106250Y-104439000D01*
X197127691Y-104440053D01*
X197127691Y-104440053D01*
G37*
D12*
G04 #@! TD*
G04 #@! TO.P,C8,1*
G04 #@! TO.N,+3V3*
X196850000Y-104876500D03*
D11*
G04 #@! TO.N,GND*
G04 #@! TO.C,C8*
G36*
X197127691Y-106015053D02*
X197148926Y-106018203D01*
X197169750Y-106023419D01*
X197189962Y-106030651D01*
X197209368Y-106039830D01*
X197227781Y-106050866D01*
X197245024Y-106063654D01*
X197260930Y-106078070D01*
X197275346Y-106093976D01*
X197288134Y-106111219D01*
X197299170Y-106129632D01*
X197308349Y-106149038D01*
X197315581Y-106169250D01*
X197320797Y-106190074D01*
X197323947Y-106211309D01*
X197325000Y-106232750D01*
X197325000Y-106670250D01*
X197323947Y-106691691D01*
X197320797Y-106712926D01*
X197315581Y-106733750D01*
X197308349Y-106753962D01*
X197299170Y-106773368D01*
X197288134Y-106791781D01*
X197275346Y-106809024D01*
X197260930Y-106824930D01*
X197245024Y-106839346D01*
X197227781Y-106852134D01*
X197209368Y-106863170D01*
X197189962Y-106872349D01*
X197169750Y-106879581D01*
X197148926Y-106884797D01*
X197127691Y-106887947D01*
X197106250Y-106889000D01*
X196593750Y-106889000D01*
X196572309Y-106887947D01*
X196551074Y-106884797D01*
X196530250Y-106879581D01*
X196510038Y-106872349D01*
X196490632Y-106863170D01*
X196472219Y-106852134D01*
X196454976Y-106839346D01*
X196439070Y-106824930D01*
X196424654Y-106809024D01*
X196411866Y-106791781D01*
X196400830Y-106773368D01*
X196391651Y-106753962D01*
X196384419Y-106733750D01*
X196379203Y-106712926D01*
X196376053Y-106691691D01*
X196375000Y-106670250D01*
X196375000Y-106232750D01*
X196376053Y-106211309D01*
X196379203Y-106190074D01*
X196384419Y-106169250D01*
X196391651Y-106149038D01*
X196400830Y-106129632D01*
X196411866Y-106111219D01*
X196424654Y-106093976D01*
X196439070Y-106078070D01*
X196454976Y-106063654D01*
X196472219Y-106050866D01*
X196490632Y-106039830D01*
X196510038Y-106030651D01*
X196530250Y-106023419D01*
X196551074Y-106018203D01*
X196572309Y-106015053D01*
X196593750Y-106014000D01*
X197106250Y-106014000D01*
X197127691Y-106015053D01*
X197127691Y-106015053D01*
G37*
D12*
G04 #@! TD*
G04 #@! TO.P,C8,2*
G04 #@! TO.N,GND*
X196850000Y-106451500D03*
D21*
G04 #@! TO.P,U4,1*
G04 #@! TO.N,BAT+*
X207144800Y-108188800D03*
G04 #@! TO.P,U4,2*
G04 #@! TO.N,GND*
X207144800Y-107238800D03*
G04 #@! TO.P,U4,3*
X207144800Y-106288800D03*
G04 #@! TO.P,U4,4*
G04 #@! TO.N,BAT+*
X204944800Y-106288800D03*
G04 #@! TO.P,U4,5*
G04 #@! TO.N,UV_LO*
X204944800Y-108188800D03*
G04 #@! TD*
D11*
G04 #@! TO.N,VUSB*
G04 #@! TO.C,R3*
G36*
X197623691Y-108695253D02*
X197644926Y-108698403D01*
X197665750Y-108703619D01*
X197685962Y-108710851D01*
X197705368Y-108720030D01*
X197723781Y-108731066D01*
X197741024Y-108743854D01*
X197756930Y-108758270D01*
X197771346Y-108774176D01*
X197784134Y-108791419D01*
X197795170Y-108809832D01*
X197804349Y-108829238D01*
X197811581Y-108849450D01*
X197816797Y-108870274D01*
X197819947Y-108891509D01*
X197821000Y-108912950D01*
X197821000Y-109425450D01*
X197819947Y-109446891D01*
X197816797Y-109468126D01*
X197811581Y-109488950D01*
X197804349Y-109509162D01*
X197795170Y-109528568D01*
X197784134Y-109546981D01*
X197771346Y-109564224D01*
X197756930Y-109580130D01*
X197741024Y-109594546D01*
X197723781Y-109607334D01*
X197705368Y-109618370D01*
X197685962Y-109627549D01*
X197665750Y-109634781D01*
X197644926Y-109639997D01*
X197623691Y-109643147D01*
X197602250Y-109644200D01*
X197164750Y-109644200D01*
X197143309Y-109643147D01*
X197122074Y-109639997D01*
X197101250Y-109634781D01*
X197081038Y-109627549D01*
X197061632Y-109618370D01*
X197043219Y-109607334D01*
X197025976Y-109594546D01*
X197010070Y-109580130D01*
X196995654Y-109564224D01*
X196982866Y-109546981D01*
X196971830Y-109528568D01*
X196962651Y-109509162D01*
X196955419Y-109488950D01*
X196950203Y-109468126D01*
X196947053Y-109446891D01*
X196946000Y-109425450D01*
X196946000Y-108912950D01*
X196947053Y-108891509D01*
X196950203Y-108870274D01*
X196955419Y-108849450D01*
X196962651Y-108829238D01*
X196971830Y-108809832D01*
X196982866Y-108791419D01*
X196995654Y-108774176D01*
X197010070Y-108758270D01*
X197025976Y-108743854D01*
X197043219Y-108731066D01*
X197061632Y-108720030D01*
X197081038Y-108710851D01*
X197101250Y-108703619D01*
X197122074Y-108698403D01*
X197143309Y-108695253D01*
X197164750Y-108694200D01*
X197602250Y-108694200D01*
X197623691Y-108695253D01*
X197623691Y-108695253D01*
G37*
D12*
G04 #@! TD*
G04 #@! TO.P,R3,2*
G04 #@! TO.N,VUSB*
X197383500Y-109169200D03*
D11*
G04 #@! TO.N,Net-(R3-Pad1)*
G04 #@! TO.C,R3*
G36*
X196048691Y-108695253D02*
X196069926Y-108698403D01*
X196090750Y-108703619D01*
X196110962Y-108710851D01*
X196130368Y-108720030D01*
X196148781Y-108731066D01*
X196166024Y-108743854D01*
X196181930Y-108758270D01*
X196196346Y-108774176D01*
X196209134Y-108791419D01*
X196220170Y-108809832D01*
X196229349Y-108829238D01*
X196236581Y-108849450D01*
X196241797Y-108870274D01*
X196244947Y-108891509D01*
X196246000Y-108912950D01*
X196246000Y-109425450D01*
X196244947Y-109446891D01*
X196241797Y-109468126D01*
X196236581Y-109488950D01*
X196229349Y-109509162D01*
X196220170Y-109528568D01*
X196209134Y-109546981D01*
X196196346Y-109564224D01*
X196181930Y-109580130D01*
X196166024Y-109594546D01*
X196148781Y-109607334D01*
X196130368Y-109618370D01*
X196110962Y-109627549D01*
X196090750Y-109634781D01*
X196069926Y-109639997D01*
X196048691Y-109643147D01*
X196027250Y-109644200D01*
X195589750Y-109644200D01*
X195568309Y-109643147D01*
X195547074Y-109639997D01*
X195526250Y-109634781D01*
X195506038Y-109627549D01*
X195486632Y-109618370D01*
X195468219Y-109607334D01*
X195450976Y-109594546D01*
X195435070Y-109580130D01*
X195420654Y-109564224D01*
X195407866Y-109546981D01*
X195396830Y-109528568D01*
X195387651Y-109509162D01*
X195380419Y-109488950D01*
X195375203Y-109468126D01*
X195372053Y-109446891D01*
X195371000Y-109425450D01*
X195371000Y-108912950D01*
X195372053Y-108891509D01*
X195375203Y-108870274D01*
X195380419Y-108849450D01*
X195387651Y-108829238D01*
X195396830Y-108809832D01*
X195407866Y-108791419D01*
X195420654Y-108774176D01*
X195435070Y-108758270D01*
X195450976Y-108743854D01*
X195468219Y-108731066D01*
X195486632Y-108720030D01*
X195506038Y-108710851D01*
X195526250Y-108703619D01*
X195547074Y-108698403D01*
X195568309Y-108695253D01*
X195589750Y-108694200D01*
X196027250Y-108694200D01*
X196048691Y-108695253D01*
X196048691Y-108695253D01*
G37*
D12*
G04 #@! TD*
G04 #@! TO.P,R3,1*
G04 #@! TO.N,Net-(R3-Pad1)*
X195808500Y-109169200D03*
D11*
G04 #@! TO.N,Net-(R8-Pad2)*
G04 #@! TO.C,R8*
G36*
X186599891Y-108644453D02*
X186621126Y-108647603D01*
X186641950Y-108652819D01*
X186662162Y-108660051D01*
X186681568Y-108669230D01*
X186699981Y-108680266D01*
X186717224Y-108693054D01*
X186733130Y-108707470D01*
X186747546Y-108723376D01*
X186760334Y-108740619D01*
X186771370Y-108759032D01*
X186780549Y-108778438D01*
X186787781Y-108798650D01*
X186792997Y-108819474D01*
X186796147Y-108840709D01*
X186797200Y-108862150D01*
X186797200Y-109374650D01*
X186796147Y-109396091D01*
X186792997Y-109417326D01*
X186787781Y-109438150D01*
X186780549Y-109458362D01*
X186771370Y-109477768D01*
X186760334Y-109496181D01*
X186747546Y-109513424D01*
X186733130Y-109529330D01*
X186717224Y-109543746D01*
X186699981Y-109556534D01*
X186681568Y-109567570D01*
X186662162Y-109576749D01*
X186641950Y-109583981D01*
X186621126Y-109589197D01*
X186599891Y-109592347D01*
X186578450Y-109593400D01*
X186140950Y-109593400D01*
X186119509Y-109592347D01*
X186098274Y-109589197D01*
X186077450Y-109583981D01*
X186057238Y-109576749D01*
X186037832Y-109567570D01*
X186019419Y-109556534D01*
X186002176Y-109543746D01*
X185986270Y-109529330D01*
X185971854Y-109513424D01*
X185959066Y-109496181D01*
X185948030Y-109477768D01*
X185938851Y-109458362D01*
X185931619Y-109438150D01*
X185926403Y-109417326D01*
X185923253Y-109396091D01*
X185922200Y-109374650D01*
X185922200Y-108862150D01*
X185923253Y-108840709D01*
X185926403Y-108819474D01*
X185931619Y-108798650D01*
X185938851Y-108778438D01*
X185948030Y-108759032D01*
X185959066Y-108740619D01*
X185971854Y-108723376D01*
X185986270Y-108707470D01*
X186002176Y-108693054D01*
X186019419Y-108680266D01*
X186037832Y-108669230D01*
X186057238Y-108660051D01*
X186077450Y-108652819D01*
X186098274Y-108647603D01*
X186119509Y-108644453D01*
X186140950Y-108643400D01*
X186578450Y-108643400D01*
X186599891Y-108644453D01*
X186599891Y-108644453D01*
G37*
D12*
G04 #@! TD*
G04 #@! TO.P,R8,2*
G04 #@! TO.N,Net-(R8-Pad2)*
X186359700Y-109118400D03*
D11*
G04 #@! TO.N,/ESP32 Pico D4/IO0*
G04 #@! TO.C,R8*
G36*
X188174891Y-108644453D02*
X188196126Y-108647603D01*
X188216950Y-108652819D01*
X188237162Y-108660051D01*
X188256568Y-108669230D01*
X188274981Y-108680266D01*
X188292224Y-108693054D01*
X188308130Y-108707470D01*
X188322546Y-108723376D01*
X188335334Y-108740619D01*
X188346370Y-108759032D01*
X188355549Y-108778438D01*
X188362781Y-108798650D01*
X188367997Y-108819474D01*
X188371147Y-108840709D01*
X188372200Y-108862150D01*
X188372200Y-109374650D01*
X188371147Y-109396091D01*
X188367997Y-109417326D01*
X188362781Y-109438150D01*
X188355549Y-109458362D01*
X188346370Y-109477768D01*
X188335334Y-109496181D01*
X188322546Y-109513424D01*
X188308130Y-109529330D01*
X188292224Y-109543746D01*
X188274981Y-109556534D01*
X188256568Y-109567570D01*
X188237162Y-109576749D01*
X188216950Y-109583981D01*
X188196126Y-109589197D01*
X188174891Y-109592347D01*
X188153450Y-109593400D01*
X187715950Y-109593400D01*
X187694509Y-109592347D01*
X187673274Y-109589197D01*
X187652450Y-109583981D01*
X187632238Y-109576749D01*
X187612832Y-109567570D01*
X187594419Y-109556534D01*
X187577176Y-109543746D01*
X187561270Y-109529330D01*
X187546854Y-109513424D01*
X187534066Y-109496181D01*
X187523030Y-109477768D01*
X187513851Y-109458362D01*
X187506619Y-109438150D01*
X187501403Y-109417326D01*
X187498253Y-109396091D01*
X187497200Y-109374650D01*
X187497200Y-108862150D01*
X187498253Y-108840709D01*
X187501403Y-108819474D01*
X187506619Y-108798650D01*
X187513851Y-108778438D01*
X187523030Y-108759032D01*
X187534066Y-108740619D01*
X187546854Y-108723376D01*
X187561270Y-108707470D01*
X187577176Y-108693054D01*
X187594419Y-108680266D01*
X187612832Y-108669230D01*
X187632238Y-108660051D01*
X187652450Y-108652819D01*
X187673274Y-108647603D01*
X187694509Y-108644453D01*
X187715950Y-108643400D01*
X188153450Y-108643400D01*
X188174891Y-108644453D01*
X188174891Y-108644453D01*
G37*
D12*
G04 #@! TD*
G04 #@! TO.P,R8,1*
G04 #@! TO.N,/ESP32 Pico D4/IO0*
X187934700Y-109118400D03*
D11*
G04 #@! TO.N,Net-(R3-Pad1)*
G04 #@! TO.C,R4*
G36*
X193724091Y-108555053D02*
X193745326Y-108558203D01*
X193766150Y-108563419D01*
X193786362Y-108570651D01*
X193805768Y-108579830D01*
X193824181Y-108590866D01*
X193841424Y-108603654D01*
X193857330Y-108618070D01*
X193871746Y-108633976D01*
X193884534Y-108651219D01*
X193895570Y-108669632D01*
X193904749Y-108689038D01*
X193911981Y-108709250D01*
X193917197Y-108730074D01*
X193920347Y-108751309D01*
X193921400Y-108772750D01*
X193921400Y-109210250D01*
X193920347Y-109231691D01*
X193917197Y-109252926D01*
X193911981Y-109273750D01*
X193904749Y-109293962D01*
X193895570Y-109313368D01*
X193884534Y-109331781D01*
X193871746Y-109349024D01*
X193857330Y-109364930D01*
X193841424Y-109379346D01*
X193824181Y-109392134D01*
X193805768Y-109403170D01*
X193786362Y-109412349D01*
X193766150Y-109419581D01*
X193745326Y-109424797D01*
X193724091Y-109427947D01*
X193702650Y-109429000D01*
X193190150Y-109429000D01*
X193168709Y-109427947D01*
X193147474Y-109424797D01*
X193126650Y-109419581D01*
X193106438Y-109412349D01*
X193087032Y-109403170D01*
X193068619Y-109392134D01*
X193051376Y-109379346D01*
X193035470Y-109364930D01*
X193021054Y-109349024D01*
X193008266Y-109331781D01*
X192997230Y-109313368D01*
X192988051Y-109293962D01*
X192980819Y-109273750D01*
X192975603Y-109252926D01*
X192972453Y-109231691D01*
X192971400Y-109210250D01*
X192971400Y-108772750D01*
X192972453Y-108751309D01*
X192975603Y-108730074D01*
X192980819Y-108709250D01*
X192988051Y-108689038D01*
X192997230Y-108669632D01*
X193008266Y-108651219D01*
X193021054Y-108633976D01*
X193035470Y-108618070D01*
X193051376Y-108603654D01*
X193068619Y-108590866D01*
X193087032Y-108579830D01*
X193106438Y-108570651D01*
X193126650Y-108563419D01*
X193147474Y-108558203D01*
X193168709Y-108555053D01*
X193190150Y-108554000D01*
X193702650Y-108554000D01*
X193724091Y-108555053D01*
X193724091Y-108555053D01*
G37*
D12*
G04 #@! TD*
G04 #@! TO.P,R4,2*
G04 #@! TO.N,Net-(R3-Pad1)*
X193446400Y-108991500D03*
D11*
G04 #@! TO.N,GND*
G04 #@! TO.C,R4*
G36*
X193724091Y-106980053D02*
X193745326Y-106983203D01*
X193766150Y-106988419D01*
X193786362Y-106995651D01*
X193805768Y-107004830D01*
X193824181Y-107015866D01*
X193841424Y-107028654D01*
X193857330Y-107043070D01*
X193871746Y-107058976D01*
X193884534Y-107076219D01*
X193895570Y-107094632D01*
X193904749Y-107114038D01*
X193911981Y-107134250D01*
X193917197Y-107155074D01*
X193920347Y-107176309D01*
X193921400Y-107197750D01*
X193921400Y-107635250D01*
X193920347Y-107656691D01*
X193917197Y-107677926D01*
X193911981Y-107698750D01*
X193904749Y-107718962D01*
X193895570Y-107738368D01*
X193884534Y-107756781D01*
X193871746Y-107774024D01*
X193857330Y-107789930D01*
X193841424Y-107804346D01*
X193824181Y-107817134D01*
X193805768Y-107828170D01*
X193786362Y-107837349D01*
X193766150Y-107844581D01*
X193745326Y-107849797D01*
X193724091Y-107852947D01*
X193702650Y-107854000D01*
X193190150Y-107854000D01*
X193168709Y-107852947D01*
X193147474Y-107849797D01*
X193126650Y-107844581D01*
X193106438Y-107837349D01*
X193087032Y-107828170D01*
X193068619Y-107817134D01*
X193051376Y-107804346D01*
X193035470Y-107789930D01*
X193021054Y-107774024D01*
X193008266Y-107756781D01*
X192997230Y-107738368D01*
X192988051Y-107718962D01*
X192980819Y-107698750D01*
X192975603Y-107677926D01*
X192972453Y-107656691D01*
X192971400Y-107635250D01*
X192971400Y-107197750D01*
X192972453Y-107176309D01*
X192975603Y-107155074D01*
X192980819Y-107134250D01*
X192988051Y-107114038D01*
X192997230Y-107094632D01*
X193008266Y-107076219D01*
X193021054Y-107058976D01*
X193035470Y-107043070D01*
X193051376Y-107028654D01*
X193068619Y-107015866D01*
X193087032Y-107004830D01*
X193106438Y-106995651D01*
X193126650Y-106988419D01*
X193147474Y-106983203D01*
X193168709Y-106980053D01*
X193190150Y-106979000D01*
X193702650Y-106979000D01*
X193724091Y-106980053D01*
X193724091Y-106980053D01*
G37*
D12*
G04 #@! TD*
G04 #@! TO.P,R4,1*
G04 #@! TO.N,GND*
X193446400Y-107416500D03*
D22*
G04 #@! TO.N,BAT+*
X198602600Y-105887520D03*
G04 #@! TO.N,GND*
X197205600Y-95199200D03*
X197205600Y-93675200D03*
X197205600Y-92354400D03*
X230880998Y-112776000D03*
X230632000Y-114960400D03*
X225806000Y-106730800D03*
X225806000Y-105562400D03*
X225806000Y-107950000D03*
X199339200Y-100279200D03*
X200355200Y-100279200D03*
X201335200Y-100279200D03*
X209854800Y-106273600D03*
X208838800Y-106288800D03*
X219659200Y-112318800D03*
X208635600Y-113233200D03*
X192176400Y-106426000D03*
X190347600Y-112979200D03*
X192278000Y-114096800D03*
X186842400Y-91541600D03*
X189941200Y-91592400D03*
X194287041Y-87951641D03*
X191516000Y-85242400D03*
X221691200Y-106070400D03*
X222554800Y-106070400D03*
X199034400Y-107238800D03*
X188366400Y-101447600D03*
X186436000Y-99314000D03*
X205282800Y-113792000D03*
G04 #@! TO.N,Net-(C7-Pad1)*
X202438000Y-111252000D03*
G04 #@! TO.N,SW2*
X228447600Y-113385600D03*
X202174990Y-105224002D03*
X209850756Y-107854960D03*
X203911200Y-105156000D03*
X219472978Y-113979963D03*
G04 #@! TO.N,SW0*
X209296000Y-110794800D03*
X201559800Y-99304748D03*
X205181200Y-111244808D03*
G04 #@! TO.N,SW1*
X219659200Y-110794800D03*
X201117200Y-98196400D03*
X211048600Y-113111280D03*
G04 #@! TO.N,/LCD_CS*
X199644000Y-95605600D03*
G04 #@! TO.N,/LCD_SCK*
X199390000Y-99060000D03*
G04 #@! TO.N,/LCD_SDA*
X198454200Y-98552000D03*
G04 #@! TO.N,/LCD_RST*
X191159414Y-92383588D03*
G04 #@! TO.N,/LCD_A0*
X190754000Y-96843998D03*
G04 #@! TO.N,/LCD_LED*
X194208400Y-102717600D03*
G04 #@! TO.N,UV_LO*
X218135200Y-106984800D03*
X205994000Y-105054400D03*
G04 #@! TO.N,VUSB*
X201015600Y-108894789D03*
G04 #@! TO.N,+3V3*
X218490800Y-113792000D03*
X226568000Y-112789810D03*
X194716400Y-108610400D03*
X197256400Y-104089200D03*
X197815200Y-101650800D03*
X198628000Y-97485200D03*
X188417200Y-91643200D03*
X191608398Y-97688400D03*
X196951600Y-85394800D03*
X200761600Y-88392000D03*
X191262000Y-95300800D03*
X221691200Y-107645200D03*
X222554800Y-107696000D03*
X206756000Y-112522000D03*
X196596000Y-112268000D03*
G04 #@! TO.N,Net-(R19-Pad2)*
X198069200Y-111810800D03*
G04 #@! TO.N,Net-(C6-Pad1)*
X193592000Y-110768000D03*
G04 #@! TO.N,Net-(D3-Pad1)*
X230075572Y-109786010D03*
G04 #@! TO.N,Net-(D4-Pad1)*
X230209762Y-112002571D03*
G04 #@! TO.N,Net-(D1-Pad1)*
X228752400Y-108305600D03*
G04 #@! TO.N,/ESP32 Pico D4/USB_DP*
X225679000Y-115214400D03*
X195681600Y-105984797D03*
X212511998Y-114071400D03*
G04 #@! TO.N,/ESP32 Pico D4/USB_DN*
X222056960Y-115496340D03*
X195681600Y-106984800D03*
X210088103Y-114050703D03*
G04 #@! TO.N,/ESP32 Pico D4/IO0*
X187299600Y-105730800D03*
X187858400Y-90220800D03*
X201880906Y-90629408D03*
G04 #@! TO.N,/ESP32 Pico D4/IO15*
X189077600Y-90170000D03*
X189738000Y-99771200D03*
X201269600Y-89838011D03*
G04 #@! TO.N,Net-(R3-Pad1)*
X194970400Y-109728000D03*
G04 #@! TO.N,Net-(R18-Pad1)*
X191976639Y-110219112D03*
G04 #@! TO.N,/ESP32 Pico D4/DTR*
X188366400Y-104902000D03*
X195681600Y-104317602D03*
X190500000Y-114046000D03*
X187706000Y-114808000D03*
X211582000Y-115316000D03*
X200533000Y-113842800D03*
G04 #@! TO.N,/ESP32 Pico D4/IO13*
X208286176Y-108217600D03*
X212293200Y-111252000D03*
G04 #@! TO.N,/ESP32 Pico D4/RTS*
X191583331Y-102745581D03*
X209550493Y-111761877D03*
G04 #@! TO.N,Net-(R22-Pad2)*
X197053200Y-88138000D03*
G04 #@! TO.N,Net-(C9-Pad1)*
X190804800Y-94030800D03*
G04 #@! TO.N,/ESP32 Pico D4/EN*
X199593200Y-115366800D03*
X199796400Y-111963200D03*
G04 #@! TO.N,/ESP32 Pico D4/LNA_IN*
X190333522Y-95672191D03*
G04 #@! TD*
D23*
G04 #@! TO.N,BAT+*
X203664800Y-106288800D02*
X204944800Y-106288800D01*
X200304800Y-106288800D02*
X203664800Y-106288800D01*
X199390000Y-105374000D02*
X200304800Y-106288800D01*
X199390000Y-103124000D02*
X199390000Y-105374000D01*
X211202890Y-109209710D02*
X211573600Y-108839000D01*
X203664800Y-108798802D02*
X204075708Y-109209710D01*
X203664800Y-106288800D02*
X203664800Y-108798802D01*
X207144800Y-108734910D02*
X207619600Y-109209710D01*
X207144800Y-108188800D02*
X207144800Y-108734910D01*
X204075708Y-109209710D02*
X207619600Y-109209710D01*
X207619600Y-109209710D02*
X211202890Y-109209710D01*
D24*
X199390000Y-105665805D02*
X199390000Y-105374000D01*
X199168285Y-105887520D02*
X199390000Y-105665805D01*
X198602600Y-105887520D02*
X199168285Y-105887520D01*
D25*
G04 #@! TO.N,GND*
X226528400Y-106680000D02*
X225856800Y-106680000D01*
X225856800Y-106680000D02*
X225806000Y-106730800D01*
X225856800Y-105511600D02*
X225806000Y-105562400D01*
X226590400Y-105511600D02*
X225856800Y-105511600D01*
X226528400Y-107899200D02*
X225856800Y-107899200D01*
X225856800Y-107899200D02*
X225806000Y-107950000D01*
D23*
X201930000Y-100874000D02*
X201335200Y-100279200D01*
X201930000Y-103124000D02*
X201930000Y-100874000D01*
X199339200Y-100279200D02*
X199339200Y-100279200D01*
X201335200Y-100279200D02*
X201335200Y-100279200D01*
X208254500Y-105179100D02*
X207144800Y-106288800D01*
X208254500Y-105105200D02*
X208254500Y-105179100D01*
X207144800Y-106288800D02*
X207144800Y-107238800D01*
X207144800Y-106288800D02*
X208838800Y-106288800D01*
X209819200Y-106288800D02*
X209854800Y-106324400D01*
X208838800Y-106288800D02*
X209819200Y-106288800D01*
X219760900Y-105029000D02*
X220776800Y-106044900D01*
X216873600Y-105029000D02*
X219760900Y-105029000D01*
X219354400Y-106044900D02*
X220776800Y-106044900D01*
X215783600Y-105029000D02*
X215178600Y-105634000D01*
X216873600Y-105029000D02*
X215783600Y-105029000D01*
D25*
X192049500Y-107416500D02*
X192024000Y-107442000D01*
X193446400Y-107416500D02*
X192049500Y-107416500D01*
X192024000Y-107442000D02*
X192024000Y-106578400D01*
X192024000Y-106578400D02*
X192176400Y-106426000D01*
X193592000Y-113768000D02*
X192606800Y-113768000D01*
X192606800Y-113768000D02*
X192278000Y-114096800D01*
X186842400Y-92481300D02*
X186842400Y-91541600D01*
X189941200Y-92532100D02*
X189941200Y-91592400D01*
X188100700Y-100558700D02*
X188366400Y-100558700D01*
X186436000Y-98894000D02*
X188100700Y-100558700D01*
X186436000Y-98044000D02*
X186436000Y-98894000D01*
D24*
X194741700Y-86944300D02*
X194208400Y-87477600D01*
X197916800Y-86944300D02*
X194741700Y-86944300D01*
X197916800Y-86944300D02*
X199339200Y-86944300D01*
X222529300Y-106044900D02*
X222554800Y-106070400D01*
X220776800Y-106044900D02*
X222529300Y-106044900D01*
D25*
X197637300Y-107238800D02*
X199034400Y-107238800D01*
X196850000Y-106451500D02*
X197637300Y-107238800D01*
D26*
X188366400Y-100558700D02*
X188366400Y-101447600D01*
X186436000Y-98044000D02*
X186436000Y-99314000D01*
D25*
X203752000Y-113768000D02*
X205258800Y-113768000D01*
X205258800Y-113768000D02*
X205282800Y-113792000D01*
D23*
X201335200Y-100279200D02*
X199339200Y-100279200D01*
D24*
X197771285Y-95199200D02*
X197205600Y-95199200D01*
X200240001Y-97667916D02*
X197771285Y-95199200D01*
X200240001Y-99598316D02*
X200240001Y-97667916D01*
X200355200Y-99713515D02*
X200240001Y-99598316D01*
X200355200Y-100279200D02*
X200355200Y-99713515D01*
X197205600Y-92354400D02*
X197205600Y-95199200D01*
D25*
G04 #@! TO.N,Net-(C7-Pad1)*
X202922000Y-110768000D02*
X202438000Y-111252000D01*
X203752000Y-110768000D02*
X202922000Y-110768000D01*
G04 #@! TO.N,SW2*
X227132000Y-110768000D02*
X227032000Y-110768000D01*
X228447600Y-112083600D02*
X227132000Y-110768000D01*
X228447600Y-113385600D02*
X228447600Y-112083600D01*
D26*
X203843198Y-105224002D02*
X203911200Y-105156000D01*
X202174990Y-105224002D02*
X203843198Y-105224002D01*
X226082000Y-110768000D02*
X227032000Y-110768000D01*
X225106999Y-111743001D02*
X226082000Y-110768000D01*
X222275625Y-111743001D02*
X225106999Y-111743001D01*
X220038663Y-113979963D02*
X222275625Y-111743001D01*
X219472978Y-113979963D02*
X220038663Y-113979963D01*
D25*
G04 #@! TO.N,SW0*
X206738800Y-110794800D02*
X206712000Y-110768000D01*
X209296000Y-110794800D02*
X206738800Y-110794800D01*
D26*
X205658008Y-110768000D02*
X206712000Y-110768000D01*
X205181200Y-111244808D02*
X205658008Y-110768000D01*
D25*
G04 #@! TO.N,SW1*
X216898800Y-110794800D02*
X216872000Y-110768000D01*
X219659200Y-110794800D02*
X216898800Y-110794800D01*
D26*
X215922000Y-110768000D02*
X216872000Y-110768000D01*
X214946999Y-111743001D02*
X215922000Y-110768000D01*
X213940879Y-111743001D02*
X214946999Y-111743001D01*
X212901479Y-112782401D02*
X213940879Y-111743001D01*
X211321599Y-112782401D02*
X212901479Y-112782401D01*
X210921600Y-113182400D02*
X211321599Y-112782401D01*
G04 #@! TO.N,/LCD_CS*
X199644000Y-93303200D02*
X199644000Y-95605600D01*
X194208400Y-90017600D02*
X196358400Y-90017600D01*
X196358400Y-90017600D02*
X199644000Y-93303200D01*
X199644000Y-95605600D02*
X199644000Y-95605600D01*
G04 #@! TO.N,/LCD_SCK*
X198272400Y-100177600D02*
X194208400Y-100177600D01*
X199390000Y-99060000D02*
X198272400Y-100177600D01*
G04 #@! TO.N,/LCD_SDA*
X197539800Y-97637600D02*
X194208400Y-97637600D01*
X198454200Y-98552000D02*
X197539800Y-97637600D01*
G04 #@! TO.N,/LCD_RST*
X194034388Y-92383588D02*
X194208400Y-92557600D01*
X191159414Y-92383588D02*
X194034388Y-92383588D01*
G04 #@! TO.N,/LCD_A0*
X193208400Y-95097600D02*
X194208400Y-95097600D01*
X191862001Y-96443999D02*
X193208400Y-95097600D01*
X191153999Y-96443999D02*
X191862001Y-96443999D01*
X190754000Y-96843998D02*
X191153999Y-96443999D01*
D25*
G04 #@! TO.N,UV_LO*
X216873600Y-107569000D02*
X217551000Y-107569000D01*
X217551000Y-107569000D02*
X218135200Y-106984800D01*
X205149800Y-108188800D02*
X204944800Y-108188800D01*
X205994000Y-107344600D02*
X205149800Y-108188800D01*
X205994000Y-105054400D02*
X205994000Y-107344600D01*
G04 #@! TO.N,VUSB*
X197383500Y-109169200D02*
X200741189Y-109169200D01*
X200741189Y-109169200D02*
X201015600Y-108894789D01*
D23*
G04 #@! TO.N,+3V3*
X218135300Y-108839000D02*
X219354400Y-107619900D01*
X216873600Y-108839000D02*
X218135300Y-108839000D01*
X219354400Y-107619900D02*
X220776800Y-107619900D01*
D25*
X216872000Y-113768000D02*
X218466800Y-113768000D01*
X218466800Y-113768000D02*
X218490800Y-113792000D01*
X227003810Y-112789810D02*
X226568000Y-112789810D01*
X227032000Y-113768000D02*
X227032000Y-112818000D01*
X227032000Y-112818000D02*
X227003810Y-112789810D01*
X196850000Y-104876500D02*
X196850000Y-104495600D01*
X196850000Y-104495600D02*
X197256400Y-104089200D01*
X188417200Y-92532100D02*
X188417200Y-91643200D01*
D24*
X194665600Y-85394800D02*
X194208400Y-84937600D01*
X196951600Y-85394800D02*
X194665600Y-85394800D01*
X196977100Y-85369300D02*
X196951600Y-85394800D01*
X197916800Y-85369300D02*
X196977100Y-85369300D01*
X197916800Y-85369300D02*
X199339200Y-85369300D01*
X199618700Y-88341200D02*
X200710800Y-88341200D01*
X200710800Y-88341200D02*
X200761600Y-88392000D01*
X222478700Y-107619900D02*
X222554800Y-107696000D01*
X220776800Y-107619900D02*
X222478700Y-107619900D01*
D26*
X206712000Y-113240000D02*
X206712000Y-113768000D01*
X206712000Y-112566000D02*
X206756000Y-112522000D01*
X206712000Y-113768000D02*
X206712000Y-112566000D01*
D25*
G04 #@! TO.N,Net-(R19-Pad2)*
X196552000Y-110768000D02*
X197026400Y-110768000D01*
X197026400Y-110768000D02*
X198069200Y-111810800D01*
G04 #@! TO.N,Net-(R8-Pad2)*
X186359700Y-110735700D02*
X186392000Y-110768000D01*
X186359700Y-109118400D02*
X186359700Y-110735700D01*
G04 #@! TO.N,Net-(C12-Pad1)*
X186842400Y-95437600D02*
X186436000Y-95844000D01*
X186842400Y-94056300D02*
X186842400Y-95437600D01*
X186445900Y-95834100D02*
X186436000Y-95844000D01*
X188366400Y-95834100D02*
X186445900Y-95834100D01*
G04 #@! TO.N,Net-(D3-Pad1)*
X230075572Y-109220325D02*
X230075572Y-109786010D01*
X229100401Y-107580599D02*
X230075572Y-108555770D01*
X230075572Y-108555770D02*
X230075572Y-109220325D01*
X228778999Y-107580599D02*
X229100401Y-107580599D01*
X227928400Y-106730000D02*
X228778999Y-107580599D01*
X227928400Y-106680000D02*
X227928400Y-106730000D01*
G04 #@! TO.N,Net-(D4-Pad1)*
X230899801Y-108235589D02*
X230899801Y-111238199D01*
X227990400Y-105511600D02*
X228175812Y-105511600D01*
X228175812Y-105511600D02*
X230899801Y-108235589D01*
X230899801Y-111238199D02*
X230209762Y-111928238D01*
X230209762Y-111928238D02*
X230209762Y-112002571D01*
D24*
G04 #@! TO.N,Net-(D1-Pad1)*
X228334800Y-108305600D02*
X227928400Y-107899200D01*
X228752400Y-108305600D02*
X228334800Y-108305600D01*
D25*
G04 #@! TO.N,/ESP32 Pico D4/USB_DN*
X201712999Y-109270392D02*
X201955400Y-109027991D01*
X202089999Y-111977001D02*
X201712999Y-111600001D01*
X202786001Y-111977001D02*
X202089999Y-111977001D01*
X201712999Y-111600001D02*
X201712999Y-109270392D01*
X204826590Y-111963200D02*
X202799802Y-111963200D01*
X204833199Y-111969809D02*
X204826590Y-111963200D01*
X209688104Y-113650704D02*
X209688104Y-113212702D01*
X210088103Y-114050703D02*
X209688104Y-113650704D01*
X209688104Y-113212702D02*
X208272401Y-111796999D01*
X208272401Y-111796999D02*
X205702011Y-111796999D01*
X205702011Y-111796999D02*
X205529201Y-111969809D01*
X202799802Y-111963200D02*
X202786001Y-111977001D01*
X205529201Y-111969809D02*
X204833199Y-111969809D01*
X196081599Y-107384799D02*
X195681600Y-106984800D01*
X196660601Y-107963801D02*
X196081599Y-107384799D01*
X201157614Y-107963801D02*
X196660601Y-107963801D01*
X201955400Y-108761587D02*
X201157614Y-107963801D01*
X201955400Y-109027991D02*
X201955400Y-108761587D01*
G04 #@! TO.N,/ESP32 Pico D4/IO0*
X187934700Y-109118400D02*
X187934700Y-106365900D01*
X187934700Y-106365900D02*
X187299600Y-105730800D01*
D26*
X187858400Y-89655115D02*
X187858400Y-90220800D01*
X187858400Y-87311610D02*
X187858400Y-89655115D01*
X191857421Y-83312589D02*
X187858400Y-87311610D01*
X198950761Y-83312589D02*
X191857421Y-83312589D01*
X202280905Y-86642733D02*
X198950761Y-83312589D01*
X202280905Y-90229409D02*
X202280905Y-86642733D01*
X201880906Y-90629408D02*
X202280905Y-90229409D01*
G04 #@! TO.N,/ESP32 Pico D4/IO15*
X189077600Y-86587398D02*
X189077600Y-89604315D01*
X192002399Y-83662599D02*
X189077600Y-86587398D01*
X189077600Y-89604315D02*
X189077600Y-90170000D01*
X198805783Y-83662599D02*
X192002399Y-83662599D01*
X201436601Y-86293417D02*
X198805783Y-83662599D01*
X201436601Y-89671010D02*
X201436601Y-86293417D01*
X201269600Y-89838011D02*
X201436601Y-89671010D01*
D25*
G04 #@! TO.N,Net-(R3-Pad1)*
X193908012Y-109453112D02*
X193446400Y-108991500D01*
X195230602Y-109169200D02*
X194946690Y-109453112D01*
X195808500Y-109169200D02*
X195230602Y-109169200D01*
X194946690Y-109453112D02*
X193908012Y-109453112D01*
G04 #@! TO.N,Net-(R18-Pad1)*
X192024000Y-109017000D02*
X192024000Y-110171751D01*
X192024000Y-110171751D02*
X191976639Y-110219112D01*
G04 #@! TO.N,/ESP32 Pico D4/DTR*
X194919600Y-104902000D02*
X195376800Y-104444800D01*
X188366400Y-104902000D02*
X194919600Y-104902000D01*
X195376800Y-104444800D02*
X195503998Y-104317602D01*
X195503998Y-104317602D02*
X195681600Y-104317602D01*
X188468000Y-114046000D02*
X190500000Y-114046000D01*
X187706000Y-114808000D02*
X188468000Y-114046000D01*
X211582000Y-115316000D02*
X211182001Y-114916001D01*
X200533000Y-111626798D02*
X200533000Y-113842800D01*
X200144401Y-111238199D02*
X200533000Y-111626798D01*
X199071399Y-111615199D02*
X199448399Y-111238199D01*
X199448399Y-111238199D02*
X200144401Y-111238199D01*
X191803001Y-112742999D02*
X194652001Y-112742999D01*
X190500000Y-114046000D02*
X191803001Y-112742999D01*
X194652001Y-112742999D02*
X195072000Y-113162998D01*
X199071399Y-114110601D02*
X199071399Y-111615199D01*
X195072000Y-113162998D02*
X195072000Y-114373002D01*
X198388999Y-114793001D02*
X199071399Y-114110601D01*
X195072000Y-114373002D02*
X195491999Y-114793001D01*
X195491999Y-114793001D02*
X198388999Y-114793001D01*
X202814999Y-114916001D02*
X211182001Y-114916001D01*
X201741798Y-113842800D02*
X202814999Y-114916001D01*
X200533000Y-113842800D02*
X201741798Y-113842800D01*
D26*
G04 #@! TO.N,Net-(R22-Pad2)*
X198043700Y-88341200D02*
X197256400Y-88341200D01*
X197256400Y-88341200D02*
X197053200Y-88138000D01*
D25*
G04 #@! TO.N,Net-(C9-Pad1)*
X188417200Y-94107100D02*
X189941200Y-94107100D01*
D26*
X190017500Y-94030800D02*
X189941200Y-94107100D01*
X190804800Y-94030800D02*
X190017500Y-94030800D01*
D25*
G04 #@! TO.N,/ESP32 Pico D4/EN*
X199593200Y-115366800D02*
X199593200Y-112166400D01*
X199593200Y-112166400D02*
X199796400Y-111963200D01*
G04 #@! TO.N,/ESP32 Pico D4/LNA_IN*
X188366400Y-98983700D02*
X188366400Y-97409100D01*
D26*
X190333522Y-95672191D02*
X189519009Y-95672191D01*
X188828012Y-96947488D02*
X188366400Y-97409100D01*
X189116410Y-96659090D02*
X188828012Y-96947488D01*
X189116410Y-96074790D02*
X189116410Y-96659090D01*
X189519009Y-95672191D02*
X189116410Y-96074790D01*
D23*
G04 #@! TO.N,Net-(C1-Pad1)*
X211497400Y-105105200D02*
X211573600Y-105029000D01*
X209829500Y-105105200D02*
X211497400Y-105105200D01*
G04 #@! TD*
M02*
