G04 #@! TF.GenerationSoftware,KiCad,Pcbnew,(5.0.1)-3*
G04 #@! TF.CreationDate,2019-11-22T16:36:39-05:00*
G04 #@! TF.ProjectId,SmartWatch,536D61727457617463682E6B69636164,rev?*
G04 #@! TF.SameCoordinates,Original*
G04 #@! TF.FileFunction,Soldermask,Top*
G04 #@! TF.FilePolarity,Negative*
%FSLAX46Y46*%
G04 Gerber Fmt 4.6, Leading zero omitted, Abs format (unit mm)*
G04 Created by KiCad (PCBNEW (5.0.1)-3) date 11/22/2019 4:36:39 PM*
%MOMM*%
%LPD*%
G01*
G04 APERTURE LIST*
%ADD10C,0.100000*%
G04 APERTURE END LIST*
D10*
G36*
X187243000Y-114519000D02*
X185541000Y-114519000D01*
X185541000Y-113017000D01*
X187243000Y-113017000D01*
X187243000Y-114519000D01*
X187243000Y-114519000D01*
G37*
G36*
X227883000Y-114519000D02*
X226181000Y-114519000D01*
X226181000Y-113017000D01*
X227883000Y-113017000D01*
X227883000Y-114519000D01*
X227883000Y-114519000D01*
G37*
G36*
X235083000Y-114519000D02*
X233381000Y-114519000D01*
X233381000Y-113017000D01*
X235083000Y-113017000D01*
X235083000Y-114519000D01*
X235083000Y-114519000D01*
G37*
G36*
X217723000Y-114519000D02*
X216021000Y-114519000D01*
X216021000Y-113017000D01*
X217723000Y-113017000D01*
X217723000Y-114519000D01*
X217723000Y-114519000D01*
G37*
G36*
X224923000Y-114519000D02*
X223221000Y-114519000D01*
X223221000Y-113017000D01*
X224923000Y-113017000D01*
X224923000Y-114519000D01*
X224923000Y-114519000D01*
G37*
G36*
X214763000Y-114519000D02*
X213061000Y-114519000D01*
X213061000Y-113017000D01*
X214763000Y-113017000D01*
X214763000Y-114519000D01*
X214763000Y-114519000D01*
G37*
G36*
X197403000Y-114519000D02*
X195701000Y-114519000D01*
X195701000Y-113017000D01*
X197403000Y-113017000D01*
X197403000Y-114519000D01*
X197403000Y-114519000D01*
G37*
G36*
X207563000Y-114519000D02*
X205861000Y-114519000D01*
X205861000Y-113017000D01*
X207563000Y-113017000D01*
X207563000Y-114519000D01*
X207563000Y-114519000D01*
G37*
G36*
X194443000Y-114519000D02*
X192741000Y-114519000D01*
X192741000Y-113017000D01*
X194443000Y-113017000D01*
X194443000Y-114519000D01*
X194443000Y-114519000D01*
G37*
G36*
X204603000Y-114519000D02*
X202901000Y-114519000D01*
X202901000Y-113017000D01*
X204603000Y-113017000D01*
X204603000Y-114519000D01*
X204603000Y-114519000D01*
G37*
G36*
X207563000Y-111519000D02*
X205861000Y-111519000D01*
X205861000Y-110017000D01*
X207563000Y-110017000D01*
X207563000Y-111519000D01*
X207563000Y-111519000D01*
G37*
G36*
X187243000Y-111519000D02*
X185541000Y-111519000D01*
X185541000Y-110017000D01*
X187243000Y-110017000D01*
X187243000Y-111519000D01*
X187243000Y-111519000D01*
G37*
G36*
X217723000Y-111519000D02*
X216021000Y-111519000D01*
X216021000Y-110017000D01*
X217723000Y-110017000D01*
X217723000Y-111519000D01*
X217723000Y-111519000D01*
G37*
G36*
X235083000Y-111519000D02*
X233381000Y-111519000D01*
X233381000Y-110017000D01*
X235083000Y-110017000D01*
X235083000Y-111519000D01*
X235083000Y-111519000D01*
G37*
G36*
X214763000Y-111519000D02*
X213061000Y-111519000D01*
X213061000Y-110017000D01*
X214763000Y-110017000D01*
X214763000Y-111519000D01*
X214763000Y-111519000D01*
G37*
G36*
X197403000Y-111519000D02*
X195701000Y-111519000D01*
X195701000Y-110017000D01*
X197403000Y-110017000D01*
X197403000Y-111519000D01*
X197403000Y-111519000D01*
G37*
G36*
X224923000Y-111519000D02*
X223221000Y-111519000D01*
X223221000Y-110017000D01*
X224923000Y-110017000D01*
X224923000Y-111519000D01*
X224923000Y-111519000D01*
G37*
G36*
X227883000Y-111519000D02*
X226181000Y-111519000D01*
X226181000Y-110017000D01*
X227883000Y-110017000D01*
X227883000Y-111519000D01*
X227883000Y-111519000D01*
G37*
G36*
X204603000Y-111519000D02*
X202901000Y-111519000D01*
X202901000Y-110017000D01*
X204603000Y-110017000D01*
X204603000Y-111519000D01*
X204603000Y-111519000D01*
G37*
G36*
X194443000Y-111519000D02*
X192741000Y-111519000D01*
X192741000Y-110017000D01*
X194443000Y-110017000D01*
X194443000Y-111519000D01*
X194443000Y-111519000D01*
G37*
G36*
X196120477Y-108647650D02*
X196161557Y-108660111D01*
X196199426Y-108680353D01*
X196232613Y-108707587D01*
X196259847Y-108740774D01*
X196280089Y-108778643D01*
X196292550Y-108819723D01*
X196297000Y-108864904D01*
X196297000Y-109473496D01*
X196292550Y-109518677D01*
X196280089Y-109559757D01*
X196259847Y-109597626D01*
X196232613Y-109630813D01*
X196199426Y-109658047D01*
X196161557Y-109678289D01*
X196120477Y-109690750D01*
X196075296Y-109695200D01*
X195541704Y-109695200D01*
X195496523Y-109690750D01*
X195455443Y-109678289D01*
X195417574Y-109658047D01*
X195384387Y-109630813D01*
X195357153Y-109597626D01*
X195336911Y-109559757D01*
X195324450Y-109518677D01*
X195320000Y-109473496D01*
X195320000Y-108864904D01*
X195324450Y-108819723D01*
X195336911Y-108778643D01*
X195357153Y-108740774D01*
X195384387Y-108707587D01*
X195417574Y-108680353D01*
X195455443Y-108660111D01*
X195496523Y-108647650D01*
X195541704Y-108643200D01*
X196075296Y-108643200D01*
X196120477Y-108647650D01*
X196120477Y-108647650D01*
G37*
G36*
X197695477Y-108647650D02*
X197736557Y-108660111D01*
X197774426Y-108680353D01*
X197807613Y-108707587D01*
X197834847Y-108740774D01*
X197855089Y-108778643D01*
X197867550Y-108819723D01*
X197872000Y-108864904D01*
X197872000Y-109473496D01*
X197867550Y-109518677D01*
X197855089Y-109559757D01*
X197834847Y-109597626D01*
X197807613Y-109630813D01*
X197774426Y-109658047D01*
X197736557Y-109678289D01*
X197695477Y-109690750D01*
X197650296Y-109695200D01*
X197116704Y-109695200D01*
X197071523Y-109690750D01*
X197030443Y-109678289D01*
X196992574Y-109658047D01*
X196959387Y-109630813D01*
X196932153Y-109597626D01*
X196911911Y-109559757D01*
X196899450Y-109518677D01*
X196895000Y-109473496D01*
X196895000Y-108864904D01*
X196899450Y-108819723D01*
X196911911Y-108778643D01*
X196932153Y-108740774D01*
X196959387Y-108707587D01*
X196992574Y-108680353D01*
X197030443Y-108660111D01*
X197071523Y-108647650D01*
X197116704Y-108643200D01*
X197650296Y-108643200D01*
X197695477Y-108647650D01*
X197695477Y-108647650D01*
G37*
G36*
X186671677Y-108596850D02*
X186712757Y-108609311D01*
X186750626Y-108629553D01*
X186783813Y-108656787D01*
X186811047Y-108689974D01*
X186831289Y-108727843D01*
X186843750Y-108768923D01*
X186848200Y-108814104D01*
X186848200Y-109422696D01*
X186843750Y-109467877D01*
X186831289Y-109508957D01*
X186811047Y-109546826D01*
X186783813Y-109580013D01*
X186750626Y-109607247D01*
X186712757Y-109627489D01*
X186671677Y-109639950D01*
X186626496Y-109644400D01*
X186092904Y-109644400D01*
X186047723Y-109639950D01*
X186006643Y-109627489D01*
X185968774Y-109607247D01*
X185935587Y-109580013D01*
X185908353Y-109546826D01*
X185888111Y-109508957D01*
X185875650Y-109467877D01*
X185871200Y-109422696D01*
X185871200Y-108814104D01*
X185875650Y-108768923D01*
X185888111Y-108727843D01*
X185908353Y-108689974D01*
X185935587Y-108656787D01*
X185968774Y-108629553D01*
X186006643Y-108609311D01*
X186047723Y-108596850D01*
X186092904Y-108592400D01*
X186626496Y-108592400D01*
X186671677Y-108596850D01*
X186671677Y-108596850D01*
G37*
G36*
X188246677Y-108596850D02*
X188287757Y-108609311D01*
X188325626Y-108629553D01*
X188358813Y-108656787D01*
X188386047Y-108689974D01*
X188406289Y-108727843D01*
X188418750Y-108768923D01*
X188423200Y-108814104D01*
X188423200Y-109422696D01*
X188418750Y-109467877D01*
X188406289Y-109508957D01*
X188386047Y-109546826D01*
X188358813Y-109580013D01*
X188325626Y-109607247D01*
X188287757Y-109627489D01*
X188246677Y-109639950D01*
X188201496Y-109644400D01*
X187667904Y-109644400D01*
X187622723Y-109639950D01*
X187581643Y-109627489D01*
X187543774Y-109607247D01*
X187510587Y-109580013D01*
X187483353Y-109546826D01*
X187463111Y-109508957D01*
X187450650Y-109467877D01*
X187446200Y-109422696D01*
X187446200Y-108814104D01*
X187450650Y-108768923D01*
X187463111Y-108727843D01*
X187483353Y-108689974D01*
X187510587Y-108656787D01*
X187543774Y-108629553D01*
X187581643Y-108609311D01*
X187622723Y-108596850D01*
X187667904Y-108592400D01*
X188201496Y-108592400D01*
X188246677Y-108596850D01*
X188246677Y-108596850D01*
G37*
G36*
X192373477Y-108532950D02*
X192414557Y-108545411D01*
X192452426Y-108565653D01*
X192485613Y-108592887D01*
X192512847Y-108626074D01*
X192533089Y-108663943D01*
X192545550Y-108705023D01*
X192550000Y-108750204D01*
X192550000Y-109283796D01*
X192545550Y-109328977D01*
X192533089Y-109370057D01*
X192512847Y-109407926D01*
X192485613Y-109441113D01*
X192452426Y-109468347D01*
X192414557Y-109488589D01*
X192373477Y-109501050D01*
X192328296Y-109505500D01*
X191719704Y-109505500D01*
X191674523Y-109501050D01*
X191633443Y-109488589D01*
X191595574Y-109468347D01*
X191562387Y-109441113D01*
X191535153Y-109407926D01*
X191514911Y-109370057D01*
X191502450Y-109328977D01*
X191498000Y-109283796D01*
X191498000Y-108750204D01*
X191502450Y-108705023D01*
X191514911Y-108663943D01*
X191535153Y-108626074D01*
X191562387Y-108592887D01*
X191595574Y-108565653D01*
X191633443Y-108545411D01*
X191674523Y-108532950D01*
X191719704Y-108528500D01*
X192328296Y-108528500D01*
X192373477Y-108532950D01*
X192373477Y-108532950D01*
G37*
G36*
X193795877Y-108507450D02*
X193836957Y-108519911D01*
X193874826Y-108540153D01*
X193908013Y-108567387D01*
X193935247Y-108600574D01*
X193955489Y-108638443D01*
X193967950Y-108679523D01*
X193972400Y-108724704D01*
X193972400Y-109258296D01*
X193967950Y-109303477D01*
X193955489Y-109344557D01*
X193935247Y-109382426D01*
X193908013Y-109415613D01*
X193874826Y-109442847D01*
X193836957Y-109463089D01*
X193795877Y-109475550D01*
X193750696Y-109480000D01*
X193142104Y-109480000D01*
X193096923Y-109475550D01*
X193055843Y-109463089D01*
X193017974Y-109442847D01*
X192984787Y-109415613D01*
X192957553Y-109382426D01*
X192937311Y-109344557D01*
X192924850Y-109303477D01*
X192920400Y-109258296D01*
X192920400Y-108724704D01*
X192924850Y-108679523D01*
X192937311Y-108638443D01*
X192957553Y-108600574D01*
X192984787Y-108567387D01*
X193017974Y-108540153D01*
X193055843Y-108519911D01*
X193096923Y-108507450D01*
X193142104Y-108503000D01*
X193750696Y-108503000D01*
X193795877Y-108507450D01*
X193795877Y-108507450D01*
G37*
G36*
X212303414Y-108491129D02*
X212331601Y-108499679D01*
X212357580Y-108513565D01*
X212380349Y-108532251D01*
X212399035Y-108555020D01*
X212412921Y-108580999D01*
X212421471Y-108609186D01*
X212424600Y-108640954D01*
X212424600Y-109037046D01*
X212421471Y-109068814D01*
X212412921Y-109097001D01*
X212399035Y-109122980D01*
X212380349Y-109145749D01*
X212357580Y-109164435D01*
X212331601Y-109178321D01*
X212303414Y-109186871D01*
X212271646Y-109190000D01*
X210875554Y-109190000D01*
X210843786Y-109186871D01*
X210815599Y-109178321D01*
X210789620Y-109164435D01*
X210766851Y-109145749D01*
X210748165Y-109122980D01*
X210734279Y-109097001D01*
X210725729Y-109068814D01*
X210722600Y-109037046D01*
X210722600Y-108640954D01*
X210725729Y-108609186D01*
X210734279Y-108580999D01*
X210748165Y-108555020D01*
X210766851Y-108532251D01*
X210789620Y-108513565D01*
X210815599Y-108499679D01*
X210843786Y-108491129D01*
X210875554Y-108488000D01*
X212271646Y-108488000D01*
X212303414Y-108491129D01*
X212303414Y-108491129D01*
G37*
G36*
X217603414Y-108491129D02*
X217631601Y-108499679D01*
X217657580Y-108513565D01*
X217680349Y-108532251D01*
X217699035Y-108555020D01*
X217712921Y-108580999D01*
X217721471Y-108609186D01*
X217724600Y-108640954D01*
X217724600Y-109037046D01*
X217721471Y-109068814D01*
X217712921Y-109097001D01*
X217699035Y-109122980D01*
X217680349Y-109145749D01*
X217657580Y-109164435D01*
X217631601Y-109178321D01*
X217603414Y-109186871D01*
X217571646Y-109190000D01*
X216175554Y-109190000D01*
X216143786Y-109186871D01*
X216115599Y-109178321D01*
X216089620Y-109164435D01*
X216066851Y-109145749D01*
X216048165Y-109122980D01*
X216034279Y-109097001D01*
X216025729Y-109068814D01*
X216022600Y-109037046D01*
X216022600Y-108640954D01*
X216025729Y-108609186D01*
X216034279Y-108580999D01*
X216048165Y-108555020D01*
X216066851Y-108532251D01*
X216089620Y-108513565D01*
X216115599Y-108499679D01*
X216143786Y-108491129D01*
X216175554Y-108488000D01*
X217571646Y-108488000D01*
X217603414Y-108491129D01*
X217603414Y-108491129D01*
G37*
G36*
X205525800Y-108564800D02*
X204363800Y-108564800D01*
X204363800Y-107812800D01*
X205525800Y-107812800D01*
X205525800Y-108564800D01*
X205525800Y-108564800D01*
G37*
G36*
X207725800Y-108564800D02*
X206563800Y-108564800D01*
X206563800Y-107812800D01*
X207725800Y-107812800D01*
X207725800Y-108564800D01*
X207725800Y-108564800D01*
G37*
G36*
X215301705Y-105337482D02*
X215343109Y-105350042D01*
X215381268Y-105370439D01*
X215414714Y-105397886D01*
X215442161Y-105431332D01*
X215462558Y-105469491D01*
X215475118Y-105510895D01*
X215479600Y-105556407D01*
X215479600Y-108311593D01*
X215475118Y-108357105D01*
X215462558Y-108398509D01*
X215442161Y-108436668D01*
X215414714Y-108470114D01*
X215381268Y-108497561D01*
X215343109Y-108517958D01*
X215301705Y-108530518D01*
X215256193Y-108535000D01*
X213191007Y-108535000D01*
X213145495Y-108530518D01*
X213104091Y-108517958D01*
X213065932Y-108497561D01*
X213032486Y-108470114D01*
X213005039Y-108436668D01*
X212984642Y-108398509D01*
X212972082Y-108357105D01*
X212967600Y-108311593D01*
X212967600Y-105556407D01*
X212972082Y-105510895D01*
X212984642Y-105469491D01*
X213005039Y-105431332D01*
X213032486Y-105397886D01*
X213065932Y-105370439D01*
X213104091Y-105350042D01*
X213145495Y-105337482D01*
X213191007Y-105333000D01*
X215256193Y-105333000D01*
X215301705Y-105337482D01*
X215301705Y-105337482D01*
G37*
G36*
X228279400Y-108300200D02*
X227577400Y-108300200D01*
X227577400Y-107498200D01*
X228279400Y-107498200D01*
X228279400Y-108300200D01*
X228279400Y-108300200D01*
G37*
G36*
X226879400Y-108300200D02*
X226177400Y-108300200D01*
X226177400Y-107498200D01*
X226879400Y-107498200D01*
X226879400Y-108300200D01*
X226879400Y-108300200D01*
G37*
G36*
X221126277Y-107135850D02*
X221167357Y-107148311D01*
X221205226Y-107168553D01*
X221238413Y-107195787D01*
X221265647Y-107228974D01*
X221285889Y-107266843D01*
X221298350Y-107307923D01*
X221302800Y-107353104D01*
X221302800Y-107886696D01*
X221298350Y-107931877D01*
X221285889Y-107972957D01*
X221265647Y-108010826D01*
X221238413Y-108044013D01*
X221205226Y-108071247D01*
X221167357Y-108091489D01*
X221126277Y-108103950D01*
X221081096Y-108108400D01*
X220472504Y-108108400D01*
X220427323Y-108103950D01*
X220386243Y-108091489D01*
X220348374Y-108071247D01*
X220315187Y-108044013D01*
X220287953Y-108010826D01*
X220267711Y-107972957D01*
X220255250Y-107931877D01*
X220250800Y-107886696D01*
X220250800Y-107353104D01*
X220255250Y-107307923D01*
X220267711Y-107266843D01*
X220287953Y-107228974D01*
X220315187Y-107195787D01*
X220348374Y-107168553D01*
X220386243Y-107148311D01*
X220427323Y-107135850D01*
X220472504Y-107131400D01*
X221081096Y-107131400D01*
X221126277Y-107135850D01*
X221126277Y-107135850D01*
G37*
G36*
X219703877Y-107135850D02*
X219744957Y-107148311D01*
X219782826Y-107168553D01*
X219816013Y-107195787D01*
X219843247Y-107228974D01*
X219863489Y-107266843D01*
X219875950Y-107307923D01*
X219880400Y-107353104D01*
X219880400Y-107886696D01*
X219875950Y-107931877D01*
X219863489Y-107972957D01*
X219843247Y-108010826D01*
X219816013Y-108044013D01*
X219782826Y-108071247D01*
X219744957Y-108091489D01*
X219703877Y-108103950D01*
X219658696Y-108108400D01*
X219050104Y-108108400D01*
X219004923Y-108103950D01*
X218963843Y-108091489D01*
X218925974Y-108071247D01*
X218892787Y-108044013D01*
X218865553Y-108010826D01*
X218845311Y-107972957D01*
X218832850Y-107931877D01*
X218828400Y-107886696D01*
X218828400Y-107353104D01*
X218832850Y-107307923D01*
X218845311Y-107266843D01*
X218865553Y-107228974D01*
X218892787Y-107195787D01*
X218925974Y-107168553D01*
X218963843Y-107148311D01*
X219004923Y-107135850D01*
X219050104Y-107131400D01*
X219658696Y-107131400D01*
X219703877Y-107135850D01*
X219703877Y-107135850D01*
G37*
G36*
X192373477Y-106957950D02*
X192414557Y-106970411D01*
X192452426Y-106990653D01*
X192485613Y-107017887D01*
X192512847Y-107051074D01*
X192533089Y-107088943D01*
X192545550Y-107130023D01*
X192550000Y-107175204D01*
X192550000Y-107708796D01*
X192545550Y-107753977D01*
X192533089Y-107795057D01*
X192512847Y-107832926D01*
X192485613Y-107866113D01*
X192452426Y-107893347D01*
X192414557Y-107913589D01*
X192373477Y-107926050D01*
X192328296Y-107930500D01*
X191719704Y-107930500D01*
X191674523Y-107926050D01*
X191633443Y-107913589D01*
X191595574Y-107893347D01*
X191562387Y-107866113D01*
X191535153Y-107832926D01*
X191514911Y-107795057D01*
X191502450Y-107753977D01*
X191498000Y-107708796D01*
X191498000Y-107175204D01*
X191502450Y-107130023D01*
X191514911Y-107088943D01*
X191535153Y-107051074D01*
X191562387Y-107017887D01*
X191595574Y-106990653D01*
X191633443Y-106970411D01*
X191674523Y-106957950D01*
X191719704Y-106953500D01*
X192328296Y-106953500D01*
X192373477Y-106957950D01*
X192373477Y-106957950D01*
G37*
G36*
X217603414Y-107221129D02*
X217631601Y-107229679D01*
X217657580Y-107243565D01*
X217680349Y-107262251D01*
X217699035Y-107285020D01*
X217712921Y-107310999D01*
X217721471Y-107339186D01*
X217724600Y-107370954D01*
X217724600Y-107767046D01*
X217721471Y-107798814D01*
X217712921Y-107827001D01*
X217699035Y-107852980D01*
X217680349Y-107875749D01*
X217657580Y-107894435D01*
X217631601Y-107908321D01*
X217603414Y-107916871D01*
X217571646Y-107920000D01*
X216175554Y-107920000D01*
X216143786Y-107916871D01*
X216115599Y-107908321D01*
X216089620Y-107894435D01*
X216066851Y-107875749D01*
X216048165Y-107852980D01*
X216034279Y-107827001D01*
X216025729Y-107798814D01*
X216022600Y-107767046D01*
X216022600Y-107370954D01*
X216025729Y-107339186D01*
X216034279Y-107310999D01*
X216048165Y-107285020D01*
X216066851Y-107262251D01*
X216089620Y-107243565D01*
X216115599Y-107229679D01*
X216143786Y-107221129D01*
X216175554Y-107218000D01*
X217571646Y-107218000D01*
X217603414Y-107221129D01*
X217603414Y-107221129D01*
G37*
G36*
X212303414Y-107221129D02*
X212331601Y-107229679D01*
X212357580Y-107243565D01*
X212380349Y-107262251D01*
X212399035Y-107285020D01*
X212412921Y-107310999D01*
X212421471Y-107339186D01*
X212424600Y-107370954D01*
X212424600Y-107767046D01*
X212421471Y-107798814D01*
X212412921Y-107827001D01*
X212399035Y-107852980D01*
X212380349Y-107875749D01*
X212357580Y-107894435D01*
X212331601Y-107908321D01*
X212303414Y-107916871D01*
X212271646Y-107920000D01*
X210875554Y-107920000D01*
X210843786Y-107916871D01*
X210815599Y-107908321D01*
X210789620Y-107894435D01*
X210766851Y-107875749D01*
X210748165Y-107852980D01*
X210734279Y-107827001D01*
X210725729Y-107798814D01*
X210722600Y-107767046D01*
X210722600Y-107370954D01*
X210725729Y-107339186D01*
X210734279Y-107310999D01*
X210748165Y-107285020D01*
X210766851Y-107262251D01*
X210789620Y-107243565D01*
X210815599Y-107229679D01*
X210843786Y-107221129D01*
X210875554Y-107218000D01*
X212271646Y-107218000D01*
X212303414Y-107221129D01*
X212303414Y-107221129D01*
G37*
G36*
X193795877Y-106932450D02*
X193836957Y-106944911D01*
X193874826Y-106965153D01*
X193908013Y-106992387D01*
X193935247Y-107025574D01*
X193955489Y-107063443D01*
X193967950Y-107104523D01*
X193972400Y-107149704D01*
X193972400Y-107683296D01*
X193967950Y-107728477D01*
X193955489Y-107769557D01*
X193935247Y-107807426D01*
X193908013Y-107840613D01*
X193874826Y-107867847D01*
X193836957Y-107888089D01*
X193795877Y-107900550D01*
X193750696Y-107905000D01*
X193142104Y-107905000D01*
X193096923Y-107900550D01*
X193055843Y-107888089D01*
X193017974Y-107867847D01*
X192984787Y-107840613D01*
X192957553Y-107807426D01*
X192937311Y-107769557D01*
X192924850Y-107728477D01*
X192920400Y-107683296D01*
X192920400Y-107149704D01*
X192924850Y-107104523D01*
X192937311Y-107063443D01*
X192957553Y-107025574D01*
X192984787Y-106992387D01*
X193017974Y-106965153D01*
X193055843Y-106944911D01*
X193096923Y-106932450D01*
X193142104Y-106928000D01*
X193750696Y-106928000D01*
X193795877Y-106932450D01*
X193795877Y-106932450D01*
G37*
G36*
X207725800Y-107614800D02*
X206563800Y-107614800D01*
X206563800Y-106862800D01*
X207725800Y-106862800D01*
X207725800Y-107614800D01*
X207725800Y-107614800D01*
G37*
G36*
X228279400Y-107081000D02*
X227577400Y-107081000D01*
X227577400Y-106279000D01*
X228279400Y-106279000D01*
X228279400Y-107081000D01*
X228279400Y-107081000D01*
G37*
G36*
X226879400Y-107081000D02*
X226177400Y-107081000D01*
X226177400Y-106279000D01*
X226879400Y-106279000D01*
X226879400Y-107081000D01*
X226879400Y-107081000D01*
G37*
G36*
X197199477Y-105967450D02*
X197240557Y-105979911D01*
X197278426Y-106000153D01*
X197311613Y-106027387D01*
X197338847Y-106060574D01*
X197359089Y-106098443D01*
X197371550Y-106139523D01*
X197376000Y-106184704D01*
X197376000Y-106718296D01*
X197371550Y-106763477D01*
X197359089Y-106804557D01*
X197338847Y-106842426D01*
X197311613Y-106875613D01*
X197278426Y-106902847D01*
X197240557Y-106923089D01*
X197199477Y-106935550D01*
X197154296Y-106940000D01*
X196545704Y-106940000D01*
X196500523Y-106935550D01*
X196459443Y-106923089D01*
X196421574Y-106902847D01*
X196388387Y-106875613D01*
X196361153Y-106842426D01*
X196340911Y-106804557D01*
X196328450Y-106763477D01*
X196324000Y-106718296D01*
X196324000Y-106184704D01*
X196328450Y-106139523D01*
X196340911Y-106098443D01*
X196361153Y-106060574D01*
X196388387Y-106027387D01*
X196421574Y-106000153D01*
X196459443Y-105979911D01*
X196500523Y-105967450D01*
X196545704Y-105963000D01*
X197154296Y-105963000D01*
X197199477Y-105967450D01*
X197199477Y-105967450D01*
G37*
G36*
X207725800Y-106664800D02*
X206563800Y-106664800D01*
X206563800Y-105912800D01*
X207725800Y-105912800D01*
X207725800Y-106664800D01*
X207725800Y-106664800D01*
G37*
G36*
X205525800Y-106664800D02*
X204363800Y-106664800D01*
X204363800Y-105912800D01*
X205525800Y-105912800D01*
X205525800Y-106664800D01*
X205525800Y-106664800D01*
G37*
G36*
X212303414Y-105951129D02*
X212331601Y-105959679D01*
X212357580Y-105973565D01*
X212380349Y-105992251D01*
X212399035Y-106015020D01*
X212412921Y-106040999D01*
X212421471Y-106069186D01*
X212424600Y-106100954D01*
X212424600Y-106497046D01*
X212421471Y-106528814D01*
X212412921Y-106557001D01*
X212399035Y-106582980D01*
X212380349Y-106605749D01*
X212357580Y-106624435D01*
X212331601Y-106638321D01*
X212303414Y-106646871D01*
X212271646Y-106650000D01*
X210875554Y-106650000D01*
X210843786Y-106646871D01*
X210815599Y-106638321D01*
X210789620Y-106624435D01*
X210766851Y-106605749D01*
X210748165Y-106582980D01*
X210734279Y-106557001D01*
X210725729Y-106528814D01*
X210722600Y-106497046D01*
X210722600Y-106100954D01*
X210725729Y-106069186D01*
X210734279Y-106040999D01*
X210748165Y-106015020D01*
X210766851Y-105992251D01*
X210789620Y-105973565D01*
X210815599Y-105959679D01*
X210843786Y-105951129D01*
X210875554Y-105948000D01*
X212271646Y-105948000D01*
X212303414Y-105951129D01*
X212303414Y-105951129D01*
G37*
G36*
X217603414Y-105951129D02*
X217631601Y-105959679D01*
X217657580Y-105973565D01*
X217680349Y-105992251D01*
X217699035Y-106015020D01*
X217712921Y-106040999D01*
X217721471Y-106069186D01*
X217724600Y-106100954D01*
X217724600Y-106497046D01*
X217721471Y-106528814D01*
X217712921Y-106557001D01*
X217699035Y-106582980D01*
X217680349Y-106605749D01*
X217657580Y-106624435D01*
X217631601Y-106638321D01*
X217603414Y-106646871D01*
X217571646Y-106650000D01*
X216175554Y-106650000D01*
X216143786Y-106646871D01*
X216115599Y-106638321D01*
X216089620Y-106624435D01*
X216066851Y-106605749D01*
X216048165Y-106582980D01*
X216034279Y-106557001D01*
X216025729Y-106528814D01*
X216022600Y-106497046D01*
X216022600Y-106100954D01*
X216025729Y-106069186D01*
X216034279Y-106040999D01*
X216048165Y-106015020D01*
X216066851Y-105992251D01*
X216089620Y-105973565D01*
X216115599Y-105959679D01*
X216143786Y-105951129D01*
X216175554Y-105948000D01*
X217571646Y-105948000D01*
X217603414Y-105951129D01*
X217603414Y-105951129D01*
G37*
G36*
X219703877Y-105560850D02*
X219744957Y-105573311D01*
X219782826Y-105593553D01*
X219816013Y-105620787D01*
X219843247Y-105653974D01*
X219863489Y-105691843D01*
X219875950Y-105732923D01*
X219880400Y-105778104D01*
X219880400Y-106311696D01*
X219875950Y-106356877D01*
X219863489Y-106397957D01*
X219843247Y-106435826D01*
X219816013Y-106469013D01*
X219782826Y-106496247D01*
X219744957Y-106516489D01*
X219703877Y-106528950D01*
X219658696Y-106533400D01*
X219050104Y-106533400D01*
X219004923Y-106528950D01*
X218963843Y-106516489D01*
X218925974Y-106496247D01*
X218892787Y-106469013D01*
X218865553Y-106435826D01*
X218845311Y-106397957D01*
X218832850Y-106356877D01*
X218828400Y-106311696D01*
X218828400Y-105778104D01*
X218832850Y-105732923D01*
X218845311Y-105691843D01*
X218865553Y-105653974D01*
X218892787Y-105620787D01*
X218925974Y-105593553D01*
X218963843Y-105573311D01*
X219004923Y-105560850D01*
X219050104Y-105556400D01*
X219658696Y-105556400D01*
X219703877Y-105560850D01*
X219703877Y-105560850D01*
G37*
G36*
X221126277Y-105560850D02*
X221167357Y-105573311D01*
X221205226Y-105593553D01*
X221238413Y-105620787D01*
X221265647Y-105653974D01*
X221285889Y-105691843D01*
X221298350Y-105732923D01*
X221302800Y-105778104D01*
X221302800Y-106311696D01*
X221298350Y-106356877D01*
X221285889Y-106397957D01*
X221265647Y-106435826D01*
X221238413Y-106469013D01*
X221205226Y-106496247D01*
X221167357Y-106516489D01*
X221126277Y-106528950D01*
X221081096Y-106533400D01*
X220472504Y-106533400D01*
X220427323Y-106528950D01*
X220386243Y-106516489D01*
X220348374Y-106496247D01*
X220315187Y-106469013D01*
X220287953Y-106435826D01*
X220267711Y-106397957D01*
X220255250Y-106356877D01*
X220250800Y-106311696D01*
X220250800Y-105778104D01*
X220255250Y-105732923D01*
X220267711Y-105691843D01*
X220287953Y-105653974D01*
X220315187Y-105620787D01*
X220348374Y-105593553D01*
X220386243Y-105573311D01*
X220427323Y-105560850D01*
X220472504Y-105556400D01*
X221081096Y-105556400D01*
X221126277Y-105560850D01*
X221126277Y-105560850D01*
G37*
G36*
X228341400Y-105912600D02*
X227639400Y-105912600D01*
X227639400Y-105110600D01*
X228341400Y-105110600D01*
X228341400Y-105912600D01*
X228341400Y-105912600D01*
G37*
G36*
X226941400Y-105912600D02*
X226239400Y-105912600D01*
X226239400Y-105110600D01*
X226941400Y-105110600D01*
X226941400Y-105912600D01*
X226941400Y-105912600D01*
G37*
G36*
X210141477Y-104583650D02*
X210182557Y-104596111D01*
X210220426Y-104616353D01*
X210253613Y-104643587D01*
X210280847Y-104676774D01*
X210301089Y-104714643D01*
X210313550Y-104755723D01*
X210318000Y-104800904D01*
X210318000Y-105409496D01*
X210313550Y-105454677D01*
X210301089Y-105495757D01*
X210280847Y-105533626D01*
X210253613Y-105566813D01*
X210220426Y-105594047D01*
X210182557Y-105614289D01*
X210141477Y-105626750D01*
X210096296Y-105631200D01*
X209562704Y-105631200D01*
X209517523Y-105626750D01*
X209476443Y-105614289D01*
X209438574Y-105594047D01*
X209405387Y-105566813D01*
X209378153Y-105533626D01*
X209357911Y-105495757D01*
X209345450Y-105454677D01*
X209341000Y-105409496D01*
X209341000Y-104800904D01*
X209345450Y-104755723D01*
X209357911Y-104714643D01*
X209378153Y-104676774D01*
X209405387Y-104643587D01*
X209438574Y-104616353D01*
X209476443Y-104596111D01*
X209517523Y-104583650D01*
X209562704Y-104579200D01*
X210096296Y-104579200D01*
X210141477Y-104583650D01*
X210141477Y-104583650D01*
G37*
G36*
X208566477Y-104583650D02*
X208607557Y-104596111D01*
X208645426Y-104616353D01*
X208678613Y-104643587D01*
X208705847Y-104676774D01*
X208726089Y-104714643D01*
X208738550Y-104755723D01*
X208743000Y-104800904D01*
X208743000Y-105409496D01*
X208738550Y-105454677D01*
X208726089Y-105495757D01*
X208705847Y-105533626D01*
X208678613Y-105566813D01*
X208645426Y-105594047D01*
X208607557Y-105614289D01*
X208566477Y-105626750D01*
X208521296Y-105631200D01*
X207987704Y-105631200D01*
X207942523Y-105626750D01*
X207901443Y-105614289D01*
X207863574Y-105594047D01*
X207830387Y-105566813D01*
X207803153Y-105533626D01*
X207782911Y-105495757D01*
X207770450Y-105454677D01*
X207766000Y-105409496D01*
X207766000Y-104800904D01*
X207770450Y-104755723D01*
X207782911Y-104714643D01*
X207803153Y-104676774D01*
X207830387Y-104643587D01*
X207863574Y-104616353D01*
X207901443Y-104596111D01*
X207942523Y-104583650D01*
X207987704Y-104579200D01*
X208521296Y-104579200D01*
X208566477Y-104583650D01*
X208566477Y-104583650D01*
G37*
G36*
X217603414Y-104681129D02*
X217631601Y-104689679D01*
X217657580Y-104703565D01*
X217680349Y-104722251D01*
X217699035Y-104745020D01*
X217712921Y-104770999D01*
X217721471Y-104799186D01*
X217724600Y-104830954D01*
X217724600Y-105227046D01*
X217721471Y-105258814D01*
X217712921Y-105287001D01*
X217699035Y-105312980D01*
X217680349Y-105335749D01*
X217657580Y-105354435D01*
X217631601Y-105368321D01*
X217603414Y-105376871D01*
X217571646Y-105380000D01*
X216175554Y-105380000D01*
X216143786Y-105376871D01*
X216115599Y-105368321D01*
X216089620Y-105354435D01*
X216066851Y-105335749D01*
X216048165Y-105312980D01*
X216034279Y-105287001D01*
X216025729Y-105258814D01*
X216022600Y-105227046D01*
X216022600Y-104830954D01*
X216025729Y-104799186D01*
X216034279Y-104770999D01*
X216048165Y-104745020D01*
X216066851Y-104722251D01*
X216089620Y-104703565D01*
X216115599Y-104689679D01*
X216143786Y-104681129D01*
X216175554Y-104678000D01*
X217571646Y-104678000D01*
X217603414Y-104681129D01*
X217603414Y-104681129D01*
G37*
G36*
X212303414Y-104681129D02*
X212331601Y-104689679D01*
X212357580Y-104703565D01*
X212380349Y-104722251D01*
X212399035Y-104745020D01*
X212412921Y-104770999D01*
X212421471Y-104799186D01*
X212424600Y-104830954D01*
X212424600Y-105227046D01*
X212421471Y-105258814D01*
X212412921Y-105287001D01*
X212399035Y-105312980D01*
X212380349Y-105335749D01*
X212357580Y-105354435D01*
X212331601Y-105368321D01*
X212303414Y-105376871D01*
X212271646Y-105380000D01*
X210875554Y-105380000D01*
X210843786Y-105376871D01*
X210815599Y-105368321D01*
X210789620Y-105354435D01*
X210766851Y-105335749D01*
X210748165Y-105312980D01*
X210734279Y-105287001D01*
X210725729Y-105258814D01*
X210722600Y-105227046D01*
X210722600Y-104830954D01*
X210725729Y-104799186D01*
X210734279Y-104770999D01*
X210748165Y-104745020D01*
X210766851Y-104722251D01*
X210789620Y-104703565D01*
X210815599Y-104689679D01*
X210843786Y-104681129D01*
X210875554Y-104678000D01*
X212271646Y-104678000D01*
X212303414Y-104681129D01*
X212303414Y-104681129D01*
G37*
G36*
X197199477Y-104392450D02*
X197240557Y-104404911D01*
X197278426Y-104425153D01*
X197311613Y-104452387D01*
X197338847Y-104485574D01*
X197359089Y-104523443D01*
X197371550Y-104564523D01*
X197376000Y-104609704D01*
X197376000Y-105143296D01*
X197371550Y-105188477D01*
X197359089Y-105229557D01*
X197338847Y-105267426D01*
X197311613Y-105300613D01*
X197278426Y-105327847D01*
X197240557Y-105348089D01*
X197199477Y-105360550D01*
X197154296Y-105365000D01*
X196545704Y-105365000D01*
X196500523Y-105360550D01*
X196459443Y-105348089D01*
X196421574Y-105327847D01*
X196388387Y-105300613D01*
X196361153Y-105267426D01*
X196340911Y-105229557D01*
X196328450Y-105188477D01*
X196324000Y-105143296D01*
X196324000Y-104609704D01*
X196328450Y-104564523D01*
X196340911Y-104523443D01*
X196361153Y-104485574D01*
X196388387Y-104452387D01*
X196421574Y-104425153D01*
X196459443Y-104404911D01*
X196500523Y-104392450D01*
X196545704Y-104388000D01*
X197154296Y-104388000D01*
X197199477Y-104392450D01*
X197199477Y-104392450D01*
G37*
G36*
X202743000Y-104675000D02*
X201117000Y-104675000D01*
X201117000Y-101573000D01*
X202743000Y-101573000D01*
X202743000Y-104675000D01*
X202743000Y-104675000D01*
G37*
G36*
X200203000Y-104675000D02*
X198577000Y-104675000D01*
X198577000Y-101573000D01*
X200203000Y-101573000D01*
X200203000Y-104675000D01*
X200203000Y-104675000D01*
G37*
G36*
X196259400Y-103768600D02*
X192157400Y-103768600D01*
X192157400Y-101666600D01*
X196259400Y-101666600D01*
X196259400Y-103768600D01*
X196259400Y-103768600D01*
G37*
G36*
X196259400Y-101228600D02*
X192157400Y-101228600D01*
X192157400Y-99126600D01*
X196259400Y-99126600D01*
X196259400Y-101228600D01*
X196259400Y-101228600D01*
G37*
G36*
X188715877Y-100074650D02*
X188756957Y-100087111D01*
X188794826Y-100107353D01*
X188828013Y-100134587D01*
X188855247Y-100167774D01*
X188875489Y-100205643D01*
X188887950Y-100246723D01*
X188892400Y-100291904D01*
X188892400Y-100825496D01*
X188887950Y-100870677D01*
X188875489Y-100911757D01*
X188855247Y-100949626D01*
X188828013Y-100982813D01*
X188794826Y-101010047D01*
X188756957Y-101030289D01*
X188715877Y-101042750D01*
X188670696Y-101047200D01*
X188062104Y-101047200D01*
X188016923Y-101042750D01*
X187975843Y-101030289D01*
X187937974Y-101010047D01*
X187904787Y-100982813D01*
X187877553Y-100949626D01*
X187857311Y-100911757D01*
X187844850Y-100870677D01*
X187840400Y-100825496D01*
X187840400Y-100291904D01*
X187844850Y-100246723D01*
X187857311Y-100205643D01*
X187877553Y-100167774D01*
X187904787Y-100134587D01*
X187937974Y-100107353D01*
X187975843Y-100087111D01*
X188016923Y-100074650D01*
X188062104Y-100070200D01*
X188670696Y-100070200D01*
X188715877Y-100074650D01*
X188715877Y-100074650D01*
G37*
G36*
X188715877Y-98499650D02*
X188756957Y-98512111D01*
X188794826Y-98532353D01*
X188828013Y-98559587D01*
X188855247Y-98592774D01*
X188875489Y-98630643D01*
X188887950Y-98671723D01*
X188892400Y-98716904D01*
X188892400Y-99250496D01*
X188887950Y-99295677D01*
X188875489Y-99336757D01*
X188855247Y-99374626D01*
X188828013Y-99407813D01*
X188794826Y-99435047D01*
X188756957Y-99455289D01*
X188715877Y-99467750D01*
X188670696Y-99472200D01*
X188062104Y-99472200D01*
X188016923Y-99467750D01*
X187975843Y-99455289D01*
X187937974Y-99435047D01*
X187904787Y-99407813D01*
X187877553Y-99374626D01*
X187857311Y-99336757D01*
X187844850Y-99295677D01*
X187840400Y-99250496D01*
X187840400Y-98716904D01*
X187844850Y-98671723D01*
X187857311Y-98630643D01*
X187877553Y-98592774D01*
X187904787Y-98559587D01*
X187937974Y-98532353D01*
X187975843Y-98512111D01*
X188016923Y-98499650D01*
X188062104Y-98495200D01*
X188670696Y-98495200D01*
X188715877Y-98499650D01*
X188715877Y-98499650D01*
G37*
G36*
X187237000Y-98695000D02*
X185635000Y-98695000D01*
X185635000Y-97393000D01*
X187237000Y-97393000D01*
X187237000Y-98695000D01*
X187237000Y-98695000D01*
G37*
G36*
X190967000Y-98695000D02*
X189365000Y-98695000D01*
X189365000Y-97393000D01*
X190967000Y-97393000D01*
X190967000Y-98695000D01*
X190967000Y-98695000D01*
G37*
G36*
X196259400Y-98688600D02*
X192157400Y-98688600D01*
X192157400Y-96586600D01*
X196259400Y-96586600D01*
X196259400Y-98688600D01*
X196259400Y-98688600D01*
G37*
G36*
X188715877Y-96925050D02*
X188756957Y-96937511D01*
X188794826Y-96957753D01*
X188828013Y-96984987D01*
X188855247Y-97018174D01*
X188875489Y-97056043D01*
X188887950Y-97097123D01*
X188892400Y-97142304D01*
X188892400Y-97675896D01*
X188887950Y-97721077D01*
X188875489Y-97762157D01*
X188855247Y-97800026D01*
X188828013Y-97833213D01*
X188794826Y-97860447D01*
X188756957Y-97880689D01*
X188715877Y-97893150D01*
X188670696Y-97897600D01*
X188062104Y-97897600D01*
X188016923Y-97893150D01*
X187975843Y-97880689D01*
X187937974Y-97860447D01*
X187904787Y-97833213D01*
X187877553Y-97800026D01*
X187857311Y-97762157D01*
X187844850Y-97721077D01*
X187840400Y-97675896D01*
X187840400Y-97142304D01*
X187844850Y-97097123D01*
X187857311Y-97056043D01*
X187877553Y-97018174D01*
X187904787Y-96984987D01*
X187937974Y-96957753D01*
X187975843Y-96937511D01*
X188016923Y-96925050D01*
X188062104Y-96920600D01*
X188670696Y-96920600D01*
X188715877Y-96925050D01*
X188715877Y-96925050D01*
G37*
G36*
X187237000Y-96495000D02*
X185635000Y-96495000D01*
X185635000Y-95193000D01*
X187237000Y-95193000D01*
X187237000Y-96495000D01*
X187237000Y-96495000D01*
G37*
G36*
X188715877Y-95350050D02*
X188756957Y-95362511D01*
X188794826Y-95382753D01*
X188828013Y-95409987D01*
X188855247Y-95443174D01*
X188875489Y-95481043D01*
X188887950Y-95522123D01*
X188892400Y-95567304D01*
X188892400Y-96100896D01*
X188887950Y-96146077D01*
X188875489Y-96187157D01*
X188855247Y-96225026D01*
X188828013Y-96258213D01*
X188794826Y-96285447D01*
X188756957Y-96305689D01*
X188715877Y-96318150D01*
X188670696Y-96322600D01*
X188062104Y-96322600D01*
X188016923Y-96318150D01*
X187975843Y-96305689D01*
X187937974Y-96285447D01*
X187904787Y-96258213D01*
X187877553Y-96225026D01*
X187857311Y-96187157D01*
X187844850Y-96146077D01*
X187840400Y-96100896D01*
X187840400Y-95567304D01*
X187844850Y-95522123D01*
X187857311Y-95481043D01*
X187877553Y-95443174D01*
X187904787Y-95409987D01*
X187937974Y-95382753D01*
X187975843Y-95362511D01*
X188016923Y-95350050D01*
X188062104Y-95345600D01*
X188670696Y-95345600D01*
X188715877Y-95350050D01*
X188715877Y-95350050D01*
G37*
G36*
X196259400Y-96148600D02*
X192157400Y-96148600D01*
X192157400Y-94046600D01*
X196259400Y-94046600D01*
X196259400Y-96148600D01*
X196259400Y-96148600D01*
G37*
G36*
X188766677Y-93623050D02*
X188807757Y-93635511D01*
X188845626Y-93655753D01*
X188878813Y-93682987D01*
X188906047Y-93716174D01*
X188926289Y-93754043D01*
X188938750Y-93795123D01*
X188943200Y-93840304D01*
X188943200Y-94373896D01*
X188938750Y-94419077D01*
X188926289Y-94460157D01*
X188906047Y-94498026D01*
X188878813Y-94531213D01*
X188845626Y-94558447D01*
X188807757Y-94578689D01*
X188766677Y-94591150D01*
X188721496Y-94595600D01*
X188112904Y-94595600D01*
X188067723Y-94591150D01*
X188026643Y-94578689D01*
X187988774Y-94558447D01*
X187955587Y-94531213D01*
X187928353Y-94498026D01*
X187908111Y-94460157D01*
X187895650Y-94419077D01*
X187891200Y-94373896D01*
X187891200Y-93840304D01*
X187895650Y-93795123D01*
X187908111Y-93754043D01*
X187928353Y-93716174D01*
X187955587Y-93682987D01*
X187988774Y-93655753D01*
X188026643Y-93635511D01*
X188067723Y-93623050D01*
X188112904Y-93618600D01*
X188721496Y-93618600D01*
X188766677Y-93623050D01*
X188766677Y-93623050D01*
G37*
G36*
X190290677Y-93623050D02*
X190331757Y-93635511D01*
X190369626Y-93655753D01*
X190402813Y-93682987D01*
X190430047Y-93716174D01*
X190450289Y-93754043D01*
X190462750Y-93795123D01*
X190467200Y-93840304D01*
X190467200Y-94373896D01*
X190462750Y-94419077D01*
X190450289Y-94460157D01*
X190430047Y-94498026D01*
X190402813Y-94531213D01*
X190369626Y-94558447D01*
X190331757Y-94578689D01*
X190290677Y-94591150D01*
X190245496Y-94595600D01*
X189636904Y-94595600D01*
X189591723Y-94591150D01*
X189550643Y-94578689D01*
X189512774Y-94558447D01*
X189479587Y-94531213D01*
X189452353Y-94498026D01*
X189432111Y-94460157D01*
X189419650Y-94419077D01*
X189415200Y-94373896D01*
X189415200Y-93840304D01*
X189419650Y-93795123D01*
X189432111Y-93754043D01*
X189452353Y-93716174D01*
X189479587Y-93682987D01*
X189512774Y-93655753D01*
X189550643Y-93635511D01*
X189591723Y-93623050D01*
X189636904Y-93618600D01*
X190245496Y-93618600D01*
X190290677Y-93623050D01*
X190290677Y-93623050D01*
G37*
G36*
X187191877Y-93572250D02*
X187232957Y-93584711D01*
X187270826Y-93604953D01*
X187304013Y-93632187D01*
X187331247Y-93665374D01*
X187351489Y-93703243D01*
X187363950Y-93744323D01*
X187368400Y-93789504D01*
X187368400Y-94323096D01*
X187363950Y-94368277D01*
X187351489Y-94409357D01*
X187331247Y-94447226D01*
X187304013Y-94480413D01*
X187270826Y-94507647D01*
X187232957Y-94527889D01*
X187191877Y-94540350D01*
X187146696Y-94544800D01*
X186538104Y-94544800D01*
X186492923Y-94540350D01*
X186451843Y-94527889D01*
X186413974Y-94507647D01*
X186380787Y-94480413D01*
X186353553Y-94447226D01*
X186333311Y-94409357D01*
X186320850Y-94368277D01*
X186316400Y-94323096D01*
X186316400Y-93789504D01*
X186320850Y-93744323D01*
X186333311Y-93703243D01*
X186353553Y-93665374D01*
X186380787Y-93632187D01*
X186413974Y-93604953D01*
X186451843Y-93584711D01*
X186492923Y-93572250D01*
X186538104Y-93567800D01*
X187146696Y-93567800D01*
X187191877Y-93572250D01*
X187191877Y-93572250D01*
G37*
G36*
X196259400Y-93608600D02*
X192157400Y-93608600D01*
X192157400Y-91506600D01*
X196259400Y-91506600D01*
X196259400Y-93608600D01*
X196259400Y-93608600D01*
G37*
G36*
X190290677Y-92048050D02*
X190331757Y-92060511D01*
X190369626Y-92080753D01*
X190402813Y-92107987D01*
X190430047Y-92141174D01*
X190450289Y-92179043D01*
X190462750Y-92220123D01*
X190467200Y-92265304D01*
X190467200Y-92798896D01*
X190462750Y-92844077D01*
X190450289Y-92885157D01*
X190430047Y-92923026D01*
X190402813Y-92956213D01*
X190369626Y-92983447D01*
X190331757Y-93003689D01*
X190290677Y-93016150D01*
X190245496Y-93020600D01*
X189636904Y-93020600D01*
X189591723Y-93016150D01*
X189550643Y-93003689D01*
X189512774Y-92983447D01*
X189479587Y-92956213D01*
X189452353Y-92923026D01*
X189432111Y-92885157D01*
X189419650Y-92844077D01*
X189415200Y-92798896D01*
X189415200Y-92265304D01*
X189419650Y-92220123D01*
X189432111Y-92179043D01*
X189452353Y-92141174D01*
X189479587Y-92107987D01*
X189512774Y-92080753D01*
X189550643Y-92060511D01*
X189591723Y-92048050D01*
X189636904Y-92043600D01*
X190245496Y-92043600D01*
X190290677Y-92048050D01*
X190290677Y-92048050D01*
G37*
G36*
X188766677Y-92048050D02*
X188807757Y-92060511D01*
X188845626Y-92080753D01*
X188878813Y-92107987D01*
X188906047Y-92141174D01*
X188926289Y-92179043D01*
X188938750Y-92220123D01*
X188943200Y-92265304D01*
X188943200Y-92798896D01*
X188938750Y-92844077D01*
X188926289Y-92885157D01*
X188906047Y-92923026D01*
X188878813Y-92956213D01*
X188845626Y-92983447D01*
X188807757Y-93003689D01*
X188766677Y-93016150D01*
X188721496Y-93020600D01*
X188112904Y-93020600D01*
X188067723Y-93016150D01*
X188026643Y-93003689D01*
X187988774Y-92983447D01*
X187955587Y-92956213D01*
X187928353Y-92923026D01*
X187908111Y-92885157D01*
X187895650Y-92844077D01*
X187891200Y-92798896D01*
X187891200Y-92265304D01*
X187895650Y-92220123D01*
X187908111Y-92179043D01*
X187928353Y-92141174D01*
X187955587Y-92107987D01*
X187988774Y-92080753D01*
X188026643Y-92060511D01*
X188067723Y-92048050D01*
X188112904Y-92043600D01*
X188721496Y-92043600D01*
X188766677Y-92048050D01*
X188766677Y-92048050D01*
G37*
G36*
X187191877Y-91997250D02*
X187232957Y-92009711D01*
X187270826Y-92029953D01*
X187304013Y-92057187D01*
X187331247Y-92090374D01*
X187351489Y-92128243D01*
X187363950Y-92169323D01*
X187368400Y-92214504D01*
X187368400Y-92748096D01*
X187363950Y-92793277D01*
X187351489Y-92834357D01*
X187331247Y-92872226D01*
X187304013Y-92905413D01*
X187270826Y-92932647D01*
X187232957Y-92952889D01*
X187191877Y-92965350D01*
X187146696Y-92969800D01*
X186538104Y-92969800D01*
X186492923Y-92965350D01*
X186451843Y-92952889D01*
X186413974Y-92932647D01*
X186380787Y-92905413D01*
X186353553Y-92872226D01*
X186333311Y-92834357D01*
X186320850Y-92793277D01*
X186316400Y-92748096D01*
X186316400Y-92214504D01*
X186320850Y-92169323D01*
X186333311Y-92128243D01*
X186353553Y-92090374D01*
X186380787Y-92057187D01*
X186413974Y-92029953D01*
X186451843Y-92009711D01*
X186492923Y-91997250D01*
X186538104Y-91992800D01*
X187146696Y-91992800D01*
X187191877Y-91997250D01*
X187191877Y-91997250D01*
G37*
G36*
X196259400Y-91068600D02*
X192157400Y-91068600D01*
X192157400Y-88966600D01*
X196259400Y-88966600D01*
X196259400Y-91068600D01*
X196259400Y-91068600D01*
G37*
G36*
X198355677Y-87819650D02*
X198396757Y-87832111D01*
X198434626Y-87852353D01*
X198467813Y-87879587D01*
X198495047Y-87912774D01*
X198515289Y-87950643D01*
X198527750Y-87991723D01*
X198532200Y-88036904D01*
X198532200Y-88645496D01*
X198527750Y-88690677D01*
X198515289Y-88731757D01*
X198495047Y-88769626D01*
X198467813Y-88802813D01*
X198434626Y-88830047D01*
X198396757Y-88850289D01*
X198355677Y-88862750D01*
X198310496Y-88867200D01*
X197776904Y-88867200D01*
X197731723Y-88862750D01*
X197690643Y-88850289D01*
X197652774Y-88830047D01*
X197619587Y-88802813D01*
X197592353Y-88769626D01*
X197572111Y-88731757D01*
X197559650Y-88690677D01*
X197555200Y-88645496D01*
X197555200Y-88036904D01*
X197559650Y-87991723D01*
X197572111Y-87950643D01*
X197592353Y-87912774D01*
X197619587Y-87879587D01*
X197652774Y-87852353D01*
X197690643Y-87832111D01*
X197731723Y-87819650D01*
X197776904Y-87815200D01*
X198310496Y-87815200D01*
X198355677Y-87819650D01*
X198355677Y-87819650D01*
G37*
G36*
X199930677Y-87819650D02*
X199971757Y-87832111D01*
X200009626Y-87852353D01*
X200042813Y-87879587D01*
X200070047Y-87912774D01*
X200090289Y-87950643D01*
X200102750Y-87991723D01*
X200107200Y-88036904D01*
X200107200Y-88645496D01*
X200102750Y-88690677D01*
X200090289Y-88731757D01*
X200070047Y-88769626D01*
X200042813Y-88802813D01*
X200009626Y-88830047D01*
X199971757Y-88850289D01*
X199930677Y-88862750D01*
X199885496Y-88867200D01*
X199351904Y-88867200D01*
X199306723Y-88862750D01*
X199265643Y-88850289D01*
X199227774Y-88830047D01*
X199194587Y-88802813D01*
X199167353Y-88769626D01*
X199147111Y-88731757D01*
X199134650Y-88690677D01*
X199130200Y-88645496D01*
X199130200Y-88036904D01*
X199134650Y-87991723D01*
X199147111Y-87950643D01*
X199167353Y-87912774D01*
X199194587Y-87879587D01*
X199227774Y-87852353D01*
X199265643Y-87832111D01*
X199306723Y-87819650D01*
X199351904Y-87815200D01*
X199885496Y-87815200D01*
X199930677Y-87819650D01*
X199930677Y-87819650D01*
G37*
G36*
X196259400Y-88528600D02*
X192157400Y-88528600D01*
X192157400Y-86426600D01*
X196259400Y-86426600D01*
X196259400Y-88528600D01*
X196259400Y-88528600D01*
G37*
G36*
X190967000Y-87995000D02*
X189365000Y-87995000D01*
X189365000Y-86693000D01*
X190967000Y-86693000D01*
X190967000Y-87995000D01*
X190967000Y-87995000D01*
G37*
G36*
X198266277Y-86460250D02*
X198307357Y-86472711D01*
X198345226Y-86492953D01*
X198378413Y-86520187D01*
X198405647Y-86553374D01*
X198425889Y-86591243D01*
X198438350Y-86632323D01*
X198442800Y-86677504D01*
X198442800Y-87211096D01*
X198438350Y-87256277D01*
X198425889Y-87297357D01*
X198405647Y-87335226D01*
X198378413Y-87368413D01*
X198345226Y-87395647D01*
X198307357Y-87415889D01*
X198266277Y-87428350D01*
X198221096Y-87432800D01*
X197612504Y-87432800D01*
X197567323Y-87428350D01*
X197526243Y-87415889D01*
X197488374Y-87395647D01*
X197455187Y-87368413D01*
X197427953Y-87335226D01*
X197407711Y-87297357D01*
X197395250Y-87256277D01*
X197390800Y-87211096D01*
X197390800Y-86677504D01*
X197395250Y-86632323D01*
X197407711Y-86591243D01*
X197427953Y-86553374D01*
X197455187Y-86520187D01*
X197488374Y-86492953D01*
X197526243Y-86472711D01*
X197567323Y-86460250D01*
X197612504Y-86455800D01*
X198221096Y-86455800D01*
X198266277Y-86460250D01*
X198266277Y-86460250D01*
G37*
G36*
X199688677Y-86460250D02*
X199729757Y-86472711D01*
X199767626Y-86492953D01*
X199800813Y-86520187D01*
X199828047Y-86553374D01*
X199848289Y-86591243D01*
X199860750Y-86632323D01*
X199865200Y-86677504D01*
X199865200Y-87211096D01*
X199860750Y-87256277D01*
X199848289Y-87297357D01*
X199828047Y-87335226D01*
X199800813Y-87368413D01*
X199767626Y-87395647D01*
X199729757Y-87415889D01*
X199688677Y-87428350D01*
X199643496Y-87432800D01*
X199034904Y-87432800D01*
X198989723Y-87428350D01*
X198948643Y-87415889D01*
X198910774Y-87395647D01*
X198877587Y-87368413D01*
X198850353Y-87335226D01*
X198830111Y-87297357D01*
X198817650Y-87256277D01*
X198813200Y-87211096D01*
X198813200Y-86677504D01*
X198817650Y-86632323D01*
X198830111Y-86591243D01*
X198850353Y-86553374D01*
X198877587Y-86520187D01*
X198910774Y-86492953D01*
X198948643Y-86472711D01*
X198989723Y-86460250D01*
X199034904Y-86455800D01*
X199643496Y-86455800D01*
X199688677Y-86460250D01*
X199688677Y-86460250D01*
G37*
G36*
X196259400Y-85988600D02*
X192157400Y-85988600D01*
X192157400Y-83886600D01*
X196259400Y-83886600D01*
X196259400Y-85988600D01*
X196259400Y-85988600D01*
G37*
G36*
X199688677Y-84885250D02*
X199729757Y-84897711D01*
X199767626Y-84917953D01*
X199800813Y-84945187D01*
X199828047Y-84978374D01*
X199848289Y-85016243D01*
X199860750Y-85057323D01*
X199865200Y-85102504D01*
X199865200Y-85636096D01*
X199860750Y-85681277D01*
X199848289Y-85722357D01*
X199828047Y-85760226D01*
X199800813Y-85793413D01*
X199767626Y-85820647D01*
X199729757Y-85840889D01*
X199688677Y-85853350D01*
X199643496Y-85857800D01*
X199034904Y-85857800D01*
X198989723Y-85853350D01*
X198948643Y-85840889D01*
X198910774Y-85820647D01*
X198877587Y-85793413D01*
X198850353Y-85760226D01*
X198830111Y-85722357D01*
X198817650Y-85681277D01*
X198813200Y-85636096D01*
X198813200Y-85102504D01*
X198817650Y-85057323D01*
X198830111Y-85016243D01*
X198850353Y-84978374D01*
X198877587Y-84945187D01*
X198910774Y-84917953D01*
X198948643Y-84897711D01*
X198989723Y-84885250D01*
X199034904Y-84880800D01*
X199643496Y-84880800D01*
X199688677Y-84885250D01*
X199688677Y-84885250D01*
G37*
G36*
X198266277Y-84885250D02*
X198307357Y-84897711D01*
X198345226Y-84917953D01*
X198378413Y-84945187D01*
X198405647Y-84978374D01*
X198425889Y-85016243D01*
X198438350Y-85057323D01*
X198442800Y-85102504D01*
X198442800Y-85636096D01*
X198438350Y-85681277D01*
X198425889Y-85722357D01*
X198405647Y-85760226D01*
X198378413Y-85793413D01*
X198345226Y-85820647D01*
X198307357Y-85840889D01*
X198266277Y-85853350D01*
X198221096Y-85857800D01*
X197612504Y-85857800D01*
X197567323Y-85853350D01*
X197526243Y-85840889D01*
X197488374Y-85820647D01*
X197455187Y-85793413D01*
X197427953Y-85760226D01*
X197407711Y-85722357D01*
X197395250Y-85681277D01*
X197390800Y-85636096D01*
X197390800Y-85102504D01*
X197395250Y-85057323D01*
X197407711Y-85016243D01*
X197427953Y-84978374D01*
X197455187Y-84945187D01*
X197488374Y-84917953D01*
X197526243Y-84897711D01*
X197567323Y-84885250D01*
X197612504Y-84880800D01*
X198221096Y-84880800D01*
X198266277Y-84885250D01*
X198266277Y-84885250D01*
G37*
M02*
