G04 #@! TF.GenerationSoftware,KiCad,Pcbnew,(5.0.1)-3*
G04 #@! TF.CreationDate,2019-11-22T16:36:39-05:00*
G04 #@! TF.ProjectId,SmartWatch,536D61727457617463682E6B69636164,rev?*
G04 #@! TF.SameCoordinates,Original*
G04 #@! TF.FileFunction,Other,User*
%FSLAX46Y46*%
G04 Gerber Fmt 4.6, Leading zero omitted, Abs format (unit mm)*
G04 Created by KiCad (PCBNEW (5.0.1)-3) date 11/22/2019 4:36:39 PM*
%MOMM*%
%LPD*%
G01*
G04 APERTURE LIST*
%ADD10C,0.050000*%
G04 APERTURE END LIST*
D10*
G04 #@! TO.C,C10*
X197186800Y-87636800D02*
X197186800Y-84676800D01*
X198646800Y-87636800D02*
X197186800Y-87636800D01*
X198646800Y-84676800D02*
X198646800Y-87636800D01*
X197186800Y-84676800D02*
X198646800Y-84676800D01*
G04 #@! TO.C,C2*
X221506800Y-108312400D02*
X220046800Y-108312400D01*
X220046800Y-108312400D02*
X220046800Y-105352400D01*
X220046800Y-105352400D02*
X221506800Y-105352400D01*
X221506800Y-105352400D02*
X221506800Y-108312400D01*
G04 #@! TO.C,C3*
X220084400Y-105352400D02*
X220084400Y-108312400D01*
X218624400Y-105352400D02*
X220084400Y-105352400D01*
X218624400Y-108312400D02*
X218624400Y-105352400D01*
X220084400Y-108312400D02*
X218624400Y-108312400D01*
G04 #@! TO.C,C1*
X210522000Y-104375200D02*
X210522000Y-105835200D01*
X210522000Y-105835200D02*
X207562000Y-105835200D01*
X207562000Y-105835200D02*
X207562000Y-104375200D01*
X207562000Y-104375200D02*
X210522000Y-104375200D01*
G04 #@! TO.C,U1*
X217923600Y-109634000D02*
X217923600Y-104234000D01*
X217923600Y-104234000D02*
X210523600Y-104234000D01*
X210523600Y-104234000D02*
X210523600Y-109634000D01*
X210523600Y-109634000D02*
X217923600Y-109634000D01*
G04 #@! TO.C,C9*
X190671200Y-94799600D02*
X189211200Y-94799600D01*
X189211200Y-94799600D02*
X189211200Y-91839600D01*
X189211200Y-91839600D02*
X190671200Y-91839600D01*
X190671200Y-91839600D02*
X190671200Y-94799600D01*
G04 #@! TO.C,C11*
X198609200Y-84676800D02*
X200069200Y-84676800D01*
X200069200Y-84676800D02*
X200069200Y-87636800D01*
X200069200Y-87636800D02*
X198609200Y-87636800D01*
X198609200Y-87636800D02*
X198609200Y-84676800D01*
G04 #@! TO.C,C12*
X187572400Y-91788800D02*
X187572400Y-94748800D01*
X186112400Y-91788800D02*
X187572400Y-91788800D01*
X186112400Y-94748800D02*
X186112400Y-91788800D01*
X187572400Y-94748800D02*
X186112400Y-94748800D01*
G04 #@! TO.C,C13*
X189096400Y-98101600D02*
X187636400Y-98101600D01*
X187636400Y-98101600D02*
X187636400Y-95141600D01*
X187636400Y-95141600D02*
X189096400Y-95141600D01*
X189096400Y-95141600D02*
X189096400Y-98101600D01*
G04 #@! TO.C,D1*
X225978400Y-108599200D02*
X225978400Y-107199200D01*
X228478400Y-108599200D02*
X225978400Y-108599200D01*
X228478400Y-107199200D02*
X228478400Y-108599200D01*
X225978400Y-107199200D02*
X228478400Y-107199200D01*
G04 #@! TO.C,D3*
X225978400Y-105980000D02*
X228478400Y-105980000D01*
X228478400Y-105980000D02*
X228478400Y-107380000D01*
X228478400Y-107380000D02*
X225978400Y-107380000D01*
X225978400Y-107380000D02*
X225978400Y-105980000D01*
G04 #@! TO.C,D4*
X226040400Y-106211600D02*
X226040400Y-104811600D01*
X228540400Y-106211600D02*
X226040400Y-106211600D01*
X228540400Y-104811600D02*
X228540400Y-106211600D01*
X226040400Y-104811600D02*
X228540400Y-104811600D01*
G04 #@! TO.C,L1*
X189096400Y-101251200D02*
X187636400Y-101251200D01*
X187636400Y-101251200D02*
X187636400Y-98291200D01*
X187636400Y-98291200D02*
X189096400Y-98291200D01*
X189096400Y-98291200D02*
X189096400Y-101251200D01*
G04 #@! TO.C,R20*
X189147200Y-91839600D02*
X189147200Y-94799600D01*
X187687200Y-91839600D02*
X189147200Y-91839600D01*
X187687200Y-94799600D02*
X187687200Y-91839600D01*
X189147200Y-94799600D02*
X187687200Y-94799600D01*
G04 #@! TO.C,R22*
X200311200Y-87611200D02*
X200311200Y-89071200D01*
X200311200Y-89071200D02*
X197351200Y-89071200D01*
X197351200Y-89071200D02*
X197351200Y-87611200D01*
X197351200Y-87611200D02*
X200311200Y-87611200D01*
G04 #@! TO.C,R18*
X192754000Y-109709500D02*
X191294000Y-109709500D01*
X191294000Y-109709500D02*
X191294000Y-106749500D01*
X191294000Y-106749500D02*
X192754000Y-106749500D01*
X192754000Y-106749500D02*
X192754000Y-109709500D01*
G04 #@! TO.C,C8*
X196120000Y-104184000D02*
X197580000Y-104184000D01*
X197580000Y-104184000D02*
X197580000Y-107144000D01*
X197580000Y-107144000D02*
X196120000Y-107144000D01*
X196120000Y-107144000D02*
X196120000Y-104184000D01*
G04 #@! TO.C,U4*
X207944800Y-109038800D02*
X204144800Y-109038800D01*
X204144800Y-109038800D02*
X204144800Y-105438800D01*
X204144800Y-105438800D02*
X207944800Y-105438800D01*
X207944800Y-105438800D02*
X207944800Y-109038800D01*
G04 #@! TO.C,R3*
X198076000Y-109899200D02*
X195116000Y-109899200D01*
X198076000Y-108439200D02*
X198076000Y-109899200D01*
X195116000Y-108439200D02*
X198076000Y-108439200D01*
X195116000Y-109899200D02*
X195116000Y-108439200D01*
G04 #@! TO.C,R8*
X185667200Y-108388400D02*
X188627200Y-108388400D01*
X185667200Y-109848400D02*
X185667200Y-108388400D01*
X188627200Y-109848400D02*
X185667200Y-109848400D01*
X188627200Y-108388400D02*
X188627200Y-109848400D01*
G04 #@! TO.C,R4*
X192716400Y-109684000D02*
X192716400Y-106724000D01*
X194176400Y-109684000D02*
X192716400Y-109684000D01*
X194176400Y-106724000D02*
X194176400Y-109684000D01*
X192716400Y-106724000D02*
X194176400Y-106724000D01*
G04 #@! TD*
M02*
