G04 #@! TF.GenerationSoftware,KiCad,Pcbnew,(5.0.1)-3*
G04 #@! TF.CreationDate,2019-11-22T16:36:38-05:00*
G04 #@! TF.ProjectId,SmartWatch,536D61727457617463682E6B69636164,rev?*
G04 #@! TF.SameCoordinates,Original*
G04 #@! TF.FileFunction,Copper,L2,Inr,Signal*
G04 #@! TF.FilePolarity,Positive*
%FSLAX46Y46*%
G04 Gerber Fmt 4.6, Leading zero omitted, Abs format (unit mm)*
G04 Created by KiCad (PCBNEW (5.0.1)-3) date 11/22/2019 4:36:38 PM*
%MOMM*%
%LPD*%
G01*
G04 APERTURE LIST*
G04 #@! TA.AperFunction,ViaPad*
%ADD10C,0.500000*%
G04 #@! TD*
G04 #@! TA.AperFunction,ViaPad*
%ADD11C,0.800000*%
G04 #@! TD*
G04 #@! TA.AperFunction,Conductor*
%ADD12C,0.500000*%
G04 #@! TD*
G04 #@! TA.AperFunction,Conductor*
%ADD13C,0.250000*%
G04 #@! TD*
G04 #@! TA.AperFunction,Conductor*
%ADD14C,0.254000*%
G04 #@! TD*
G04 APERTURE END LIST*
D10*
G04 #@! TO.N,GND*
G04 #@! TO.C,U1*
X215178600Y-108234000D03*
X213268600Y-108234000D03*
X215178600Y-106934000D03*
X213268600Y-106934000D03*
X215178600Y-105634000D03*
X213268600Y-105634000D03*
G04 #@! TD*
D11*
G04 #@! TO.N,BAT+*
X198602600Y-105887520D03*
G04 #@! TO.N,GND*
X197205600Y-95199200D03*
X197205600Y-93675200D03*
X197205600Y-92354400D03*
X230880998Y-112776000D03*
X230632000Y-114960400D03*
X225806000Y-106730800D03*
X225806000Y-105562400D03*
X225806000Y-107950000D03*
X199339200Y-100279200D03*
X200355200Y-100279200D03*
X201335200Y-100279200D03*
X209854800Y-106273600D03*
X208838800Y-106288800D03*
X219659200Y-112318800D03*
X208635600Y-113233200D03*
X192176400Y-106426000D03*
X190347600Y-112979200D03*
X192278000Y-114096800D03*
X186842400Y-91541600D03*
X189941200Y-91592400D03*
X194287041Y-87951641D03*
X191516000Y-85242400D03*
X221691200Y-106070400D03*
X222554800Y-106070400D03*
X199034400Y-107238800D03*
X188366400Y-101447600D03*
X186436000Y-99314000D03*
X205282800Y-113792000D03*
G04 #@! TO.N,Net-(C7-Pad1)*
X202438000Y-111252000D03*
G04 #@! TO.N,SW2*
X228447600Y-113385600D03*
X202174990Y-105224002D03*
X209850756Y-107854960D03*
X203911200Y-105156000D03*
X219472978Y-113979963D03*
G04 #@! TO.N,SW0*
X209296000Y-110794800D03*
X201559800Y-99304748D03*
X205181200Y-111244808D03*
G04 #@! TO.N,SW1*
X219659200Y-110794800D03*
X201117200Y-98196400D03*
X211048600Y-113111280D03*
G04 #@! TO.N,/LCD_CS*
X199644000Y-95605600D03*
G04 #@! TO.N,/LCD_SCK*
X199390000Y-99060000D03*
G04 #@! TO.N,/LCD_SDA*
X198454200Y-98552000D03*
G04 #@! TO.N,/LCD_RST*
X191159414Y-92383588D03*
G04 #@! TO.N,/LCD_A0*
X190754000Y-96843998D03*
G04 #@! TO.N,/LCD_LED*
X194208400Y-102717600D03*
G04 #@! TO.N,UV_LO*
X218135200Y-106984800D03*
X205994000Y-105054400D03*
G04 #@! TO.N,VUSB*
X201015600Y-108894789D03*
G04 #@! TO.N,+3V3*
X218490800Y-113792000D03*
X226568000Y-112789810D03*
X194716400Y-108610400D03*
X197256400Y-104089200D03*
X197815200Y-101650800D03*
X198628000Y-97485200D03*
X188417200Y-91643200D03*
X191608398Y-97688400D03*
X196951600Y-85394800D03*
X200761600Y-88392000D03*
X191262000Y-95300800D03*
X221691200Y-107645200D03*
X222554800Y-107696000D03*
X206756000Y-112522000D03*
X196596000Y-112268000D03*
G04 #@! TO.N,Net-(R19-Pad2)*
X198069200Y-111810800D03*
G04 #@! TO.N,Net-(C6-Pad1)*
X193592000Y-110768000D03*
G04 #@! TO.N,Net-(D3-Pad1)*
X230075572Y-109786010D03*
G04 #@! TO.N,Net-(D4-Pad1)*
X230209762Y-112002571D03*
G04 #@! TO.N,Net-(D1-Pad1)*
X228752400Y-108305600D03*
G04 #@! TO.N,/ESP32 Pico D4/USB_DP*
X225679000Y-115214400D03*
X195681600Y-105984797D03*
X212511998Y-114071400D03*
G04 #@! TO.N,/ESP32 Pico D4/USB_DN*
X222056960Y-115496340D03*
X195681600Y-106984800D03*
X210088103Y-114050703D03*
G04 #@! TO.N,/ESP32 Pico D4/IO0*
X187299600Y-105730800D03*
X187858400Y-90220800D03*
X201880906Y-90629408D03*
G04 #@! TO.N,/ESP32 Pico D4/IO15*
X189077600Y-90170000D03*
X189738000Y-99771200D03*
X201269600Y-89838011D03*
G04 #@! TO.N,Net-(R3-Pad1)*
X194970400Y-109728000D03*
G04 #@! TO.N,Net-(R18-Pad1)*
X191976639Y-110219112D03*
G04 #@! TO.N,/ESP32 Pico D4/DTR*
X188366400Y-104902000D03*
X195681600Y-104317602D03*
X190500000Y-114046000D03*
X187706000Y-114808000D03*
X211582000Y-115316000D03*
X200533000Y-113842800D03*
G04 #@! TO.N,/ESP32 Pico D4/IO13*
X208286176Y-108217600D03*
X212293200Y-111252000D03*
G04 #@! TO.N,/ESP32 Pico D4/RTS*
X191583331Y-102745581D03*
X209550493Y-111761877D03*
G04 #@! TO.N,Net-(R22-Pad2)*
X197053200Y-88138000D03*
G04 #@! TO.N,Net-(C9-Pad1)*
X190804800Y-94030800D03*
G04 #@! TO.N,/ESP32 Pico D4/EN*
X199593200Y-115366800D03*
X199796400Y-111963200D03*
G04 #@! TO.N,/ESP32 Pico D4/LNA_IN*
X190333522Y-95672191D03*
G04 #@! TD*
D12*
G04 #@! TO.N,GND*
X199984400Y-106288800D02*
X208838800Y-106288800D01*
X199034400Y-107238800D02*
X199984400Y-106288800D01*
X209839600Y-106288800D02*
X209854800Y-106273600D01*
X208838800Y-106288800D02*
X209839600Y-106288800D01*
D13*
G04 #@! TO.N,/ESP32 Pico D4/USB_DP*
X195754599Y-105984797D02*
X195681600Y-105984797D01*
X213230388Y-114789790D02*
X212511998Y-114071400D01*
X221423808Y-114789790D02*
X213230388Y-114789790D01*
X221698799Y-114514799D02*
X221423808Y-114789790D01*
X225679000Y-115214400D02*
X224979399Y-114514799D01*
X224979399Y-114514799D02*
X221698799Y-114514799D01*
X209644001Y-110069799D02*
X197727401Y-110069799D01*
X212111999Y-112537797D02*
X209644001Y-110069799D01*
X212511998Y-114071400D02*
X212111999Y-113671401D01*
X212111999Y-113671401D02*
X212111999Y-112537797D01*
X196247285Y-105984797D02*
X195681600Y-105984797D01*
X196406601Y-106144113D02*
X196247285Y-105984797D01*
X196406601Y-108748999D02*
X196406601Y-106144113D01*
X197727401Y-110069799D02*
X196406601Y-108748999D01*
G04 #@! TO.N,/ESP32 Pico D4/USB_DN*
X211389705Y-114050703D02*
X210088103Y-114050703D01*
X222056960Y-115496340D02*
X212835342Y-115496340D01*
X212835342Y-115496340D02*
X211389705Y-114050703D01*
G04 #@! TO.N,/ESP32 Pico D4/RTS*
X209548616Y-111760000D02*
X209550493Y-111761877D01*
X191183332Y-103145580D02*
X191583331Y-102745581D01*
X190202799Y-114821801D02*
X189622599Y-114241601D01*
X192626001Y-114821801D02*
X190202799Y-114821801D01*
X189622599Y-114241601D02*
X189622599Y-104706313D01*
X192806003Y-114641799D02*
X192626001Y-114821801D01*
X202857211Y-114641799D02*
X192806003Y-114641799D01*
X205737133Y-111761877D02*
X202857211Y-114641799D01*
X189622599Y-104706313D02*
X191183332Y-103145580D01*
X209550493Y-111761877D02*
X205737133Y-111761877D01*
G04 #@! TD*
D14*
G04 #@! TO.N,+3V3*
G36*
X202311000Y-89687283D02*
X202304600Y-89684632D01*
X202304600Y-89632137D01*
X202147031Y-89251731D01*
X201855880Y-88960580D01*
X201475474Y-88803011D01*
X201063726Y-88803011D01*
X200683320Y-88960580D01*
X200392169Y-89251731D01*
X200234600Y-89632137D01*
X200234600Y-90043885D01*
X200392169Y-90424291D01*
X200683320Y-90715442D01*
X200845906Y-90782787D01*
X200845906Y-90835282D01*
X201003475Y-91215688D01*
X201294626Y-91506839D01*
X201675032Y-91664408D01*
X202086780Y-91664408D01*
X202311000Y-91571533D01*
X202311000Y-98592237D01*
X202146080Y-98427317D01*
X202142450Y-98425813D01*
X202152200Y-98402274D01*
X202152200Y-97990526D01*
X201994631Y-97610120D01*
X201703480Y-97318969D01*
X201323074Y-97161400D01*
X200911326Y-97161400D01*
X200530920Y-97318969D01*
X200239769Y-97610120D01*
X200082200Y-97990526D01*
X200082200Y-98288489D01*
X199976280Y-98182569D01*
X199595874Y-98025000D01*
X199356186Y-98025000D01*
X199331631Y-97965720D01*
X199040480Y-97674569D01*
X198660074Y-97517000D01*
X198248326Y-97517000D01*
X197867920Y-97674569D01*
X197576769Y-97965720D01*
X197419200Y-98346126D01*
X197419200Y-98757874D01*
X197576769Y-99138280D01*
X197867920Y-99429431D01*
X198248326Y-99587000D01*
X198488014Y-99587000D01*
X198511351Y-99643338D01*
X198461769Y-99692920D01*
X198304200Y-100073326D01*
X198304200Y-100485074D01*
X198461769Y-100865480D01*
X198752920Y-101156631D01*
X199133326Y-101314200D01*
X199545074Y-101314200D01*
X199847200Y-101189056D01*
X200149326Y-101314200D01*
X200561074Y-101314200D01*
X200845200Y-101196511D01*
X201129326Y-101314200D01*
X201541074Y-101314200D01*
X201921480Y-101156631D01*
X202212631Y-100865480D01*
X202311000Y-100627996D01*
X202311000Y-104189002D01*
X201969116Y-104189002D01*
X201588710Y-104346571D01*
X201297559Y-104637722D01*
X201139990Y-105018128D01*
X201139990Y-105403800D01*
X200071561Y-105403800D01*
X199984400Y-105386463D01*
X199897239Y-105403800D01*
X199897235Y-105403800D01*
X199639090Y-105455148D01*
X199564442Y-105505026D01*
X199480031Y-105301240D01*
X199188880Y-105010089D01*
X198808474Y-104852520D01*
X198396726Y-104852520D01*
X198016320Y-105010089D01*
X197725169Y-105301240D01*
X197567600Y-105681646D01*
X197567600Y-106093394D01*
X197725169Y-106473800D01*
X198016320Y-106764951D01*
X198096621Y-106798213D01*
X197999400Y-107032926D01*
X197999400Y-107444674D01*
X198156969Y-107825080D01*
X198448120Y-108116231D01*
X198828526Y-108273800D01*
X199240274Y-108273800D01*
X199620680Y-108116231D01*
X199911831Y-107825080D01*
X200061831Y-107462948D01*
X200350979Y-107173800D01*
X208270793Y-107173800D01*
X208292038Y-107182600D01*
X208080302Y-107182600D01*
X207699896Y-107340169D01*
X207408745Y-107631320D01*
X207251176Y-108011726D01*
X207251176Y-108423474D01*
X207408745Y-108803880D01*
X207699896Y-109095031D01*
X208080302Y-109252600D01*
X208492050Y-109252600D01*
X208872456Y-109095031D01*
X209163607Y-108803880D01*
X209214089Y-108682004D01*
X209264476Y-108732391D01*
X209644882Y-108889960D01*
X210056630Y-108889960D01*
X210437036Y-108732391D01*
X210728187Y-108441240D01*
X210885756Y-108060834D01*
X210885756Y-107649086D01*
X210728187Y-107268680D01*
X210525809Y-107066302D01*
X210732231Y-106859880D01*
X210889800Y-106479474D01*
X210889800Y-106067726D01*
X210732231Y-105687320D01*
X210441080Y-105396169D01*
X210060674Y-105238600D01*
X209648926Y-105238600D01*
X209328452Y-105371344D01*
X209044674Y-105253800D01*
X208632926Y-105253800D01*
X208270793Y-105403800D01*
X206969550Y-105403800D01*
X207029000Y-105260274D01*
X207029000Y-104850000D01*
X212848727Y-104850000D01*
X212767288Y-104883733D01*
X212518333Y-105132688D01*
X212383600Y-105457963D01*
X212383600Y-105810037D01*
X212518333Y-106135312D01*
X212667021Y-106284000D01*
X212518333Y-106432688D01*
X212383600Y-106757963D01*
X212383600Y-107110037D01*
X212518333Y-107435312D01*
X212667021Y-107584000D01*
X212518333Y-107732688D01*
X212383600Y-108057963D01*
X212383600Y-108410037D01*
X212518333Y-108735312D01*
X212767288Y-108984267D01*
X213092563Y-109119000D01*
X213444637Y-109119000D01*
X213769912Y-108984267D01*
X214018867Y-108735312D01*
X214153600Y-108410037D01*
X214153600Y-108057963D01*
X214018867Y-107732688D01*
X213870179Y-107584000D01*
X214018867Y-107435312D01*
X214153600Y-107110037D01*
X214153600Y-106757963D01*
X214018867Y-106432688D01*
X213870179Y-106284000D01*
X214018867Y-106135312D01*
X214153600Y-105810037D01*
X214153600Y-105457963D01*
X214018867Y-105132688D01*
X213769912Y-104883733D01*
X213688473Y-104850000D01*
X214758727Y-104850000D01*
X214677288Y-104883733D01*
X214428333Y-105132688D01*
X214293600Y-105457963D01*
X214293600Y-105810037D01*
X214428333Y-106135312D01*
X214577021Y-106284000D01*
X214428333Y-106432688D01*
X214293600Y-106757963D01*
X214293600Y-107110037D01*
X214428333Y-107435312D01*
X214577021Y-107584000D01*
X214428333Y-107732688D01*
X214293600Y-108057963D01*
X214293600Y-108410037D01*
X214428333Y-108735312D01*
X214677288Y-108984267D01*
X215002563Y-109119000D01*
X215354637Y-109119000D01*
X215679912Y-108984267D01*
X215928867Y-108735312D01*
X216063600Y-108410037D01*
X216063600Y-108057963D01*
X215928867Y-107732688D01*
X215780179Y-107584000D01*
X215928867Y-107435312D01*
X216063600Y-107110037D01*
X216063600Y-106778926D01*
X217100200Y-106778926D01*
X217100200Y-107190674D01*
X217257769Y-107571080D01*
X217548920Y-107862231D01*
X217929326Y-108019800D01*
X218341074Y-108019800D01*
X218721480Y-107862231D01*
X219012631Y-107571080D01*
X219170200Y-107190674D01*
X219170200Y-106778926D01*
X219012631Y-106398520D01*
X218721480Y-106107369D01*
X218341074Y-105949800D01*
X217929326Y-105949800D01*
X217548920Y-106107369D01*
X217257769Y-106398520D01*
X217100200Y-106778926D01*
X216063600Y-106778926D01*
X216063600Y-106757963D01*
X215928867Y-106432688D01*
X215780179Y-106284000D01*
X215928867Y-106135312D01*
X216041029Y-105864526D01*
X220656200Y-105864526D01*
X220656200Y-106276274D01*
X220813769Y-106656680D01*
X221104920Y-106947831D01*
X221485326Y-107105400D01*
X221897074Y-107105400D01*
X222123000Y-107011819D01*
X222348926Y-107105400D01*
X222760674Y-107105400D01*
X223141080Y-106947831D01*
X223432231Y-106656680D01*
X223589800Y-106276274D01*
X223589800Y-105864526D01*
X223432231Y-105484120D01*
X223141080Y-105192969D01*
X222760674Y-105035400D01*
X222348926Y-105035400D01*
X222123000Y-105128981D01*
X221897074Y-105035400D01*
X221485326Y-105035400D01*
X221104920Y-105192969D01*
X220813769Y-105484120D01*
X220656200Y-105864526D01*
X216041029Y-105864526D01*
X216063600Y-105810037D01*
X216063600Y-105457963D01*
X215928867Y-105132688D01*
X215679912Y-104883733D01*
X215598473Y-104850000D01*
X225054689Y-104850000D01*
X224928569Y-104976120D01*
X224771000Y-105356526D01*
X224771000Y-105768274D01*
X224927707Y-106146600D01*
X224771000Y-106524926D01*
X224771000Y-106936674D01*
X224928569Y-107317080D01*
X224951889Y-107340400D01*
X224928569Y-107363720D01*
X224771000Y-107744126D01*
X224771000Y-108155874D01*
X224928569Y-108536280D01*
X225219720Y-108827431D01*
X225600126Y-108985000D01*
X226011874Y-108985000D01*
X226392280Y-108827431D01*
X226683431Y-108536280D01*
X226841000Y-108155874D01*
X226841000Y-108099726D01*
X227717400Y-108099726D01*
X227717400Y-108511474D01*
X227874969Y-108891880D01*
X228166120Y-109183031D01*
X228546526Y-109340600D01*
X228958274Y-109340600D01*
X229177384Y-109249842D01*
X229040572Y-109580136D01*
X229040572Y-109991884D01*
X229198141Y-110372290D01*
X229489292Y-110663441D01*
X229869698Y-110821010D01*
X230281446Y-110821010D01*
X230661852Y-110663441D01*
X230953003Y-110372290D01*
X231110572Y-109991884D01*
X231110572Y-109580136D01*
X230953003Y-109199730D01*
X230661852Y-108908579D01*
X230281446Y-108751010D01*
X229869698Y-108751010D01*
X229650588Y-108841768D01*
X229787400Y-108511474D01*
X229787400Y-108099726D01*
X229629831Y-107719320D01*
X229338680Y-107428169D01*
X228958274Y-107270600D01*
X228546526Y-107270600D01*
X228166120Y-107428169D01*
X227874969Y-107719320D01*
X227717400Y-108099726D01*
X226841000Y-108099726D01*
X226841000Y-107744126D01*
X226683431Y-107363720D01*
X226660111Y-107340400D01*
X226683431Y-107317080D01*
X226841000Y-106936674D01*
X226841000Y-106524926D01*
X226684293Y-106146600D01*
X226841000Y-105768274D01*
X226841000Y-105356526D01*
X226683431Y-104976120D01*
X226557311Y-104850000D01*
X235485000Y-104850000D01*
X235485001Y-115622000D01*
X231434111Y-115622000D01*
X231509431Y-115546680D01*
X231667000Y-115166274D01*
X231667000Y-114754526D01*
X231509431Y-114374120D01*
X231218280Y-114082969D01*
X230837874Y-113925400D01*
X230426126Y-113925400D01*
X230045720Y-114082969D01*
X229754569Y-114374120D01*
X229597000Y-114754526D01*
X229597000Y-115166274D01*
X229754569Y-115546680D01*
X229829889Y-115622000D01*
X226630443Y-115622000D01*
X226714000Y-115420274D01*
X226714000Y-115008526D01*
X226556431Y-114628120D01*
X226265280Y-114336969D01*
X225884874Y-114179400D01*
X225718801Y-114179400D01*
X225569730Y-114030329D01*
X225527328Y-113966870D01*
X225275936Y-113798895D01*
X225054251Y-113754799D01*
X225054246Y-113754799D01*
X224979399Y-113739911D01*
X224904552Y-113754799D01*
X221773645Y-113754799D01*
X221698798Y-113739911D01*
X221623951Y-113754799D01*
X221623947Y-113754799D01*
X221402262Y-113798895D01*
X221150870Y-113966870D01*
X221108828Y-114029790D01*
X220507978Y-114029790D01*
X220507978Y-113774089D01*
X220350409Y-113393683D01*
X220180056Y-113223330D01*
X220245480Y-113196231D01*
X220261985Y-113179726D01*
X227412600Y-113179726D01*
X227412600Y-113591474D01*
X227570169Y-113971880D01*
X227861320Y-114263031D01*
X228241726Y-114420600D01*
X228653474Y-114420600D01*
X229033880Y-114263031D01*
X229325031Y-113971880D01*
X229482600Y-113591474D01*
X229482600Y-113179726D01*
X229325031Y-112799320D01*
X229033880Y-112508169D01*
X228653474Y-112350600D01*
X228241726Y-112350600D01*
X227861320Y-112508169D01*
X227570169Y-112799320D01*
X227412600Y-113179726D01*
X220261985Y-113179726D01*
X220536631Y-112905080D01*
X220694200Y-112524674D01*
X220694200Y-112112926D01*
X220563214Y-111796697D01*
X229174762Y-111796697D01*
X229174762Y-112208445D01*
X229332331Y-112588851D01*
X229623482Y-112880002D01*
X229845998Y-112972171D01*
X229845998Y-112981874D01*
X230003567Y-113362280D01*
X230294718Y-113653431D01*
X230675124Y-113811000D01*
X231086872Y-113811000D01*
X231467278Y-113653431D01*
X231758429Y-113362280D01*
X231915998Y-112981874D01*
X231915998Y-112570126D01*
X231758429Y-112189720D01*
X231467278Y-111898569D01*
X231244762Y-111806400D01*
X231244762Y-111796697D01*
X231087193Y-111416291D01*
X230796042Y-111125140D01*
X230415636Y-110967571D01*
X230003888Y-110967571D01*
X229623482Y-111125140D01*
X229332331Y-111416291D01*
X229174762Y-111796697D01*
X220563214Y-111796697D01*
X220536631Y-111732520D01*
X220360911Y-111556800D01*
X220536631Y-111381080D01*
X220694200Y-111000674D01*
X220694200Y-110588926D01*
X220536631Y-110208520D01*
X220245480Y-109917369D01*
X219865074Y-109759800D01*
X219453326Y-109759800D01*
X219072920Y-109917369D01*
X218781769Y-110208520D01*
X218624200Y-110588926D01*
X218624200Y-111000674D01*
X218781769Y-111381080D01*
X218957489Y-111556800D01*
X218781769Y-111732520D01*
X218624200Y-112112926D01*
X218624200Y-112524674D01*
X218781769Y-112905080D01*
X218952122Y-113075433D01*
X218886698Y-113102532D01*
X218595547Y-113393683D01*
X218437978Y-113774089D01*
X218437978Y-114029790D01*
X213546998Y-114029790D01*
X213546998Y-113865526D01*
X213389429Y-113485120D01*
X213098278Y-113193969D01*
X212871999Y-113100241D01*
X212871999Y-112612643D01*
X212886887Y-112537796D01*
X212871999Y-112462949D01*
X212871999Y-112462945D01*
X212827903Y-112241260D01*
X212780559Y-112170405D01*
X212879480Y-112129431D01*
X213170631Y-111838280D01*
X213328200Y-111457874D01*
X213328200Y-111046126D01*
X213170631Y-110665720D01*
X212879480Y-110374569D01*
X212499074Y-110217000D01*
X212087326Y-110217000D01*
X211706920Y-110374569D01*
X211415769Y-110665720D01*
X211386173Y-110737170D01*
X210234332Y-109585329D01*
X210191930Y-109521870D01*
X209940538Y-109353895D01*
X209718853Y-109309799D01*
X209718848Y-109309799D01*
X209644001Y-109294911D01*
X209569154Y-109309799D01*
X201963973Y-109309799D01*
X202050600Y-109100663D01*
X202050600Y-108688915D01*
X201893031Y-108308509D01*
X201601880Y-108017358D01*
X201221474Y-107859789D01*
X200809726Y-107859789D01*
X200429320Y-108017358D01*
X200138169Y-108308509D01*
X199980600Y-108688915D01*
X199980600Y-109100663D01*
X200067227Y-109309799D01*
X198042203Y-109309799D01*
X197166601Y-108434198D01*
X197166601Y-106218961D01*
X197181489Y-106144113D01*
X197166601Y-106069265D01*
X197166601Y-106069261D01*
X197122505Y-105847576D01*
X196954530Y-105596184D01*
X196891071Y-105553782D01*
X196837616Y-105500327D01*
X196795214Y-105436868D01*
X196543822Y-105268893D01*
X196400997Y-105240483D01*
X196311714Y-105151200D01*
X196559031Y-104903882D01*
X196716600Y-104523476D01*
X196716600Y-104111728D01*
X196559031Y-103731322D01*
X196267880Y-103440171D01*
X195887474Y-103282602D01*
X195475726Y-103282602D01*
X195095320Y-103440171D01*
X194804169Y-103731322D01*
X194646600Y-104111728D01*
X194646600Y-104523476D01*
X194804169Y-104903882D01*
X195051487Y-105151200D01*
X194804169Y-105398517D01*
X194646600Y-105778923D01*
X194646600Y-106190671D01*
X194768431Y-106484798D01*
X194646600Y-106778926D01*
X194646600Y-107190674D01*
X194804169Y-107571080D01*
X195095320Y-107862231D01*
X195475726Y-108019800D01*
X195646601Y-108019800D01*
X195646601Y-108674152D01*
X195631713Y-108748999D01*
X195646601Y-108823846D01*
X195646601Y-108823850D01*
X195675563Y-108969452D01*
X195556680Y-108850569D01*
X195176274Y-108693000D01*
X194764526Y-108693000D01*
X194384120Y-108850569D01*
X194092969Y-109141720D01*
X193935400Y-109522126D01*
X193935400Y-109789965D01*
X193797874Y-109733000D01*
X193386126Y-109733000D01*
X193005720Y-109890569D01*
X192973977Y-109922312D01*
X192854070Y-109632832D01*
X192562919Y-109341681D01*
X192182513Y-109184112D01*
X191770765Y-109184112D01*
X191390359Y-109341681D01*
X191099208Y-109632832D01*
X190941639Y-110013238D01*
X190941639Y-110424986D01*
X191099208Y-110805392D01*
X191390359Y-111096543D01*
X191770765Y-111254112D01*
X192182513Y-111254112D01*
X192562919Y-111096543D01*
X192594662Y-111064800D01*
X192714569Y-111354280D01*
X193005720Y-111645431D01*
X193386126Y-111803000D01*
X193797874Y-111803000D01*
X194178280Y-111645431D01*
X194469431Y-111354280D01*
X194627000Y-110973874D01*
X194627000Y-110706035D01*
X194764526Y-110763000D01*
X195176274Y-110763000D01*
X195556680Y-110605431D01*
X195847831Y-110314280D01*
X196005400Y-109933874D01*
X196005400Y-109522126D01*
X195935024Y-109352223D01*
X197137071Y-110554271D01*
X197179472Y-110617728D01*
X197430864Y-110785703D01*
X197652549Y-110829799D01*
X197652553Y-110829799D01*
X197706874Y-110840604D01*
X197482920Y-110933369D01*
X197191769Y-111224520D01*
X197034200Y-111604926D01*
X197034200Y-112016674D01*
X197191769Y-112397080D01*
X197482920Y-112688231D01*
X197863326Y-112845800D01*
X198275074Y-112845800D01*
X198655480Y-112688231D01*
X198882434Y-112461277D01*
X198918969Y-112549480D01*
X199210120Y-112840631D01*
X199590526Y-112998200D01*
X199913889Y-112998200D01*
X199655569Y-113256520D01*
X199498000Y-113636926D01*
X199498000Y-113881799D01*
X193309219Y-113881799D01*
X193155431Y-113510520D01*
X192864280Y-113219369D01*
X192483874Y-113061800D01*
X192072126Y-113061800D01*
X191691720Y-113219369D01*
X191400569Y-113510520D01*
X191399521Y-113513050D01*
X191377431Y-113459720D01*
X191300644Y-113382933D01*
X191382600Y-113185074D01*
X191382600Y-112773326D01*
X191225031Y-112392920D01*
X190933880Y-112101769D01*
X190553474Y-111944200D01*
X190382599Y-111944200D01*
X190382599Y-106220126D01*
X191141400Y-106220126D01*
X191141400Y-106631874D01*
X191298969Y-107012280D01*
X191590120Y-107303431D01*
X191970526Y-107461000D01*
X192382274Y-107461000D01*
X192762680Y-107303431D01*
X193053831Y-107012280D01*
X193211400Y-106631874D01*
X193211400Y-106220126D01*
X193053831Y-105839720D01*
X192762680Y-105548569D01*
X192382274Y-105391000D01*
X191970526Y-105391000D01*
X191590120Y-105548569D01*
X191298969Y-105839720D01*
X191141400Y-106220126D01*
X190382599Y-106220126D01*
X190382599Y-105021114D01*
X191623133Y-103780581D01*
X191789205Y-103780581D01*
X192169611Y-103623012D01*
X192460762Y-103331861D01*
X192618331Y-102951455D01*
X192618331Y-102539707D01*
X192606741Y-102511726D01*
X193173400Y-102511726D01*
X193173400Y-102923474D01*
X193330969Y-103303880D01*
X193622120Y-103595031D01*
X194002526Y-103752600D01*
X194414274Y-103752600D01*
X194794680Y-103595031D01*
X195085831Y-103303880D01*
X195243400Y-102923474D01*
X195243400Y-102511726D01*
X195085831Y-102131320D01*
X194794680Y-101840169D01*
X194414274Y-101682600D01*
X194002526Y-101682600D01*
X193622120Y-101840169D01*
X193330969Y-102131320D01*
X193173400Y-102511726D01*
X192606741Y-102511726D01*
X192460762Y-102159301D01*
X192169611Y-101868150D01*
X191789205Y-101710581D01*
X191377457Y-101710581D01*
X190997051Y-101868150D01*
X190705900Y-102159301D01*
X190548331Y-102539707D01*
X190548331Y-102705779D01*
X189138127Y-104115984D01*
X189081759Y-104153648D01*
X188952680Y-104024569D01*
X188572274Y-103867000D01*
X188160526Y-103867000D01*
X187780120Y-104024569D01*
X187488969Y-104315720D01*
X187331535Y-104695800D01*
X187093726Y-104695800D01*
X186713320Y-104853369D01*
X186422169Y-105144520D01*
X186264600Y-105524926D01*
X186264600Y-105936674D01*
X186422169Y-106317080D01*
X186713320Y-106608231D01*
X187093726Y-106765800D01*
X187505474Y-106765800D01*
X187885880Y-106608231D01*
X188177031Y-106317080D01*
X188334465Y-105937000D01*
X188572274Y-105937000D01*
X188862600Y-105816743D01*
X188862599Y-114166754D01*
X188847711Y-114241601D01*
X188862599Y-114316448D01*
X188862599Y-114316452D01*
X188906695Y-114538137D01*
X189074670Y-114789530D01*
X189138129Y-114831932D01*
X189612470Y-115306274D01*
X189654870Y-115369730D01*
X189718326Y-115412130D01*
X189906261Y-115537705D01*
X189951382Y-115546680D01*
X190127947Y-115581801D01*
X190127951Y-115581801D01*
X190202799Y-115596689D01*
X190277647Y-115581801D01*
X192551154Y-115581801D01*
X192626001Y-115596689D01*
X192700848Y-115581801D01*
X192700853Y-115581801D01*
X192922538Y-115537705D01*
X193125935Y-115401799D01*
X198558200Y-115401799D01*
X198558200Y-115572674D01*
X198578631Y-115622000D01*
X188355711Y-115622000D01*
X188583431Y-115394280D01*
X188741000Y-115013874D01*
X188741000Y-114602126D01*
X188583431Y-114221720D01*
X188292280Y-113930569D01*
X187911874Y-113773000D01*
X187500126Y-113773000D01*
X187119720Y-113930569D01*
X186828569Y-114221720D01*
X186671000Y-114602126D01*
X186671000Y-115013874D01*
X186828569Y-115394280D01*
X187056289Y-115622000D01*
X185622000Y-115622000D01*
X185622000Y-101241726D01*
X187331400Y-101241726D01*
X187331400Y-101653474D01*
X187488969Y-102033880D01*
X187780120Y-102325031D01*
X188160526Y-102482600D01*
X188572274Y-102482600D01*
X188952680Y-102325031D01*
X189243831Y-102033880D01*
X189401400Y-101653474D01*
X189401400Y-101241726D01*
X189243831Y-100861320D01*
X188952680Y-100570169D01*
X188572274Y-100412600D01*
X188160526Y-100412600D01*
X187780120Y-100570169D01*
X187488969Y-100861320D01*
X187331400Y-101241726D01*
X185622000Y-101241726D01*
X185622000Y-99963711D01*
X185849720Y-100191431D01*
X186230126Y-100349000D01*
X186641874Y-100349000D01*
X187022280Y-100191431D01*
X187313431Y-99900280D01*
X187452173Y-99565326D01*
X188703000Y-99565326D01*
X188703000Y-99977074D01*
X188860569Y-100357480D01*
X189151720Y-100648631D01*
X189532126Y-100806200D01*
X189943874Y-100806200D01*
X190324280Y-100648631D01*
X190615431Y-100357480D01*
X190773000Y-99977074D01*
X190773000Y-99565326D01*
X190615431Y-99184920D01*
X190324280Y-98893769D01*
X189943874Y-98736200D01*
X189532126Y-98736200D01*
X189151720Y-98893769D01*
X188860569Y-99184920D01*
X188703000Y-99565326D01*
X187452173Y-99565326D01*
X187471000Y-99519874D01*
X187471000Y-99108126D01*
X187313431Y-98727720D01*
X187022280Y-98436569D01*
X186641874Y-98279000D01*
X186230126Y-98279000D01*
X185849720Y-98436569D01*
X185622000Y-98664289D01*
X185622000Y-91335726D01*
X185807400Y-91335726D01*
X185807400Y-91747474D01*
X185964969Y-92127880D01*
X186256120Y-92419031D01*
X186636526Y-92576600D01*
X187048274Y-92576600D01*
X187428680Y-92419031D01*
X187719831Y-92127880D01*
X187877400Y-91747474D01*
X187877400Y-91335726D01*
X187844294Y-91255800D01*
X188064274Y-91255800D01*
X188444680Y-91098231D01*
X188494262Y-91048649D01*
X188871726Y-91205000D01*
X188981390Y-91205000D01*
X188906200Y-91386526D01*
X188906200Y-91798274D01*
X189063769Y-92178680D01*
X189354920Y-92469831D01*
X189735326Y-92627400D01*
X190140128Y-92627400D01*
X190281983Y-92969868D01*
X190393150Y-93081035D01*
X190218520Y-93153369D01*
X189927369Y-93444520D01*
X189769800Y-93824926D01*
X189769800Y-94236674D01*
X189927369Y-94617080D01*
X190000250Y-94689961D01*
X189747242Y-94794760D01*
X189456091Y-95085911D01*
X189298522Y-95466317D01*
X189298522Y-95878065D01*
X189456091Y-96258471D01*
X189747242Y-96549622D01*
X189754426Y-96552598D01*
X189719000Y-96638124D01*
X189719000Y-97049872D01*
X189876569Y-97430278D01*
X190167720Y-97721429D01*
X190548126Y-97878998D01*
X190959874Y-97878998D01*
X191340280Y-97721429D01*
X191631431Y-97430278D01*
X191789000Y-97049872D01*
X191789000Y-96638124D01*
X191631431Y-96257718D01*
X191340280Y-95966567D01*
X191333096Y-95963591D01*
X191368522Y-95878065D01*
X191368522Y-95466317D01*
X191210953Y-95085911D01*
X191138072Y-95013030D01*
X191391080Y-94908231D01*
X191682231Y-94617080D01*
X191839800Y-94236674D01*
X191839800Y-93824926D01*
X191682231Y-93444520D01*
X191571064Y-93333353D01*
X191745694Y-93261019D01*
X192036845Y-92969868D01*
X192194414Y-92589462D01*
X192194414Y-92177714D01*
X192182324Y-92148526D01*
X196170600Y-92148526D01*
X196170600Y-92560274D01*
X196328169Y-92940680D01*
X196402289Y-93014800D01*
X196328169Y-93088920D01*
X196170600Y-93469326D01*
X196170600Y-93881074D01*
X196328169Y-94261480D01*
X196503889Y-94437200D01*
X196328169Y-94612920D01*
X196170600Y-94993326D01*
X196170600Y-95405074D01*
X196328169Y-95785480D01*
X196619320Y-96076631D01*
X196999726Y-96234200D01*
X197411474Y-96234200D01*
X197791880Y-96076631D01*
X198083031Y-95785480D01*
X198240600Y-95405074D01*
X198240600Y-95399726D01*
X198609000Y-95399726D01*
X198609000Y-95811474D01*
X198766569Y-96191880D01*
X199057720Y-96483031D01*
X199438126Y-96640600D01*
X199849874Y-96640600D01*
X200230280Y-96483031D01*
X200521431Y-96191880D01*
X200679000Y-95811474D01*
X200679000Y-95399726D01*
X200521431Y-95019320D01*
X200230280Y-94728169D01*
X199849874Y-94570600D01*
X199438126Y-94570600D01*
X199057720Y-94728169D01*
X198766569Y-95019320D01*
X198609000Y-95399726D01*
X198240600Y-95399726D01*
X198240600Y-94993326D01*
X198083031Y-94612920D01*
X197907311Y-94437200D01*
X198083031Y-94261480D01*
X198240600Y-93881074D01*
X198240600Y-93469326D01*
X198083031Y-93088920D01*
X198008911Y-93014800D01*
X198083031Y-92940680D01*
X198240600Y-92560274D01*
X198240600Y-92148526D01*
X198083031Y-91768120D01*
X197791880Y-91476969D01*
X197411474Y-91319400D01*
X196999726Y-91319400D01*
X196619320Y-91476969D01*
X196328169Y-91768120D01*
X196170600Y-92148526D01*
X192182324Y-92148526D01*
X192036845Y-91797308D01*
X191745694Y-91506157D01*
X191365288Y-91348588D01*
X190960486Y-91348588D01*
X190818631Y-91006120D01*
X190527480Y-90714969D01*
X190147074Y-90557400D01*
X190037410Y-90557400D01*
X190112600Y-90375874D01*
X190112600Y-89964126D01*
X189955031Y-89583720D01*
X189663880Y-89292569D01*
X189283474Y-89135000D01*
X188871726Y-89135000D01*
X188491320Y-89292569D01*
X188441738Y-89342151D01*
X188064274Y-89185800D01*
X187652526Y-89185800D01*
X187272120Y-89343369D01*
X186980969Y-89634520D01*
X186823400Y-90014926D01*
X186823400Y-90426674D01*
X186856506Y-90506600D01*
X186636526Y-90506600D01*
X186256120Y-90664169D01*
X185964969Y-90955320D01*
X185807400Y-91335726D01*
X185622000Y-91335726D01*
X185622000Y-87745767D01*
X193252041Y-87745767D01*
X193252041Y-88157515D01*
X193409610Y-88537921D01*
X193700761Y-88829072D01*
X194081167Y-88986641D01*
X194492915Y-88986641D01*
X194873321Y-88829072D01*
X195164472Y-88537921D01*
X195322041Y-88157515D01*
X195322041Y-87932126D01*
X196018200Y-87932126D01*
X196018200Y-88343874D01*
X196175769Y-88724280D01*
X196466920Y-89015431D01*
X196847326Y-89173000D01*
X197259074Y-89173000D01*
X197639480Y-89015431D01*
X197930631Y-88724280D01*
X198088200Y-88343874D01*
X198088200Y-87932126D01*
X197930631Y-87551720D01*
X197639480Y-87260569D01*
X197259074Y-87103000D01*
X196847326Y-87103000D01*
X196466920Y-87260569D01*
X196175769Y-87551720D01*
X196018200Y-87932126D01*
X195322041Y-87932126D01*
X195322041Y-87745767D01*
X195164472Y-87365361D01*
X194873321Y-87074210D01*
X194492915Y-86916641D01*
X194081167Y-86916641D01*
X193700761Y-87074210D01*
X193409610Y-87365361D01*
X193252041Y-87745767D01*
X185622000Y-87745767D01*
X185622000Y-85036526D01*
X190481000Y-85036526D01*
X190481000Y-85448274D01*
X190638569Y-85828680D01*
X190929720Y-86119831D01*
X191310126Y-86277400D01*
X191721874Y-86277400D01*
X192102280Y-86119831D01*
X192393431Y-85828680D01*
X192551000Y-85448274D01*
X192551000Y-85036526D01*
X192393431Y-84656120D01*
X192102280Y-84364969D01*
X191721874Y-84207400D01*
X191310126Y-84207400D01*
X190929720Y-84364969D01*
X190638569Y-84656120D01*
X190481000Y-85036526D01*
X185622000Y-85036526D01*
X185622000Y-79450000D01*
X202311000Y-79450000D01*
X202311000Y-89687283D01*
X202311000Y-89687283D01*
G37*
X202311000Y-89687283D02*
X202304600Y-89684632D01*
X202304600Y-89632137D01*
X202147031Y-89251731D01*
X201855880Y-88960580D01*
X201475474Y-88803011D01*
X201063726Y-88803011D01*
X200683320Y-88960580D01*
X200392169Y-89251731D01*
X200234600Y-89632137D01*
X200234600Y-90043885D01*
X200392169Y-90424291D01*
X200683320Y-90715442D01*
X200845906Y-90782787D01*
X200845906Y-90835282D01*
X201003475Y-91215688D01*
X201294626Y-91506839D01*
X201675032Y-91664408D01*
X202086780Y-91664408D01*
X202311000Y-91571533D01*
X202311000Y-98592237D01*
X202146080Y-98427317D01*
X202142450Y-98425813D01*
X202152200Y-98402274D01*
X202152200Y-97990526D01*
X201994631Y-97610120D01*
X201703480Y-97318969D01*
X201323074Y-97161400D01*
X200911326Y-97161400D01*
X200530920Y-97318969D01*
X200239769Y-97610120D01*
X200082200Y-97990526D01*
X200082200Y-98288489D01*
X199976280Y-98182569D01*
X199595874Y-98025000D01*
X199356186Y-98025000D01*
X199331631Y-97965720D01*
X199040480Y-97674569D01*
X198660074Y-97517000D01*
X198248326Y-97517000D01*
X197867920Y-97674569D01*
X197576769Y-97965720D01*
X197419200Y-98346126D01*
X197419200Y-98757874D01*
X197576769Y-99138280D01*
X197867920Y-99429431D01*
X198248326Y-99587000D01*
X198488014Y-99587000D01*
X198511351Y-99643338D01*
X198461769Y-99692920D01*
X198304200Y-100073326D01*
X198304200Y-100485074D01*
X198461769Y-100865480D01*
X198752920Y-101156631D01*
X199133326Y-101314200D01*
X199545074Y-101314200D01*
X199847200Y-101189056D01*
X200149326Y-101314200D01*
X200561074Y-101314200D01*
X200845200Y-101196511D01*
X201129326Y-101314200D01*
X201541074Y-101314200D01*
X201921480Y-101156631D01*
X202212631Y-100865480D01*
X202311000Y-100627996D01*
X202311000Y-104189002D01*
X201969116Y-104189002D01*
X201588710Y-104346571D01*
X201297559Y-104637722D01*
X201139990Y-105018128D01*
X201139990Y-105403800D01*
X200071561Y-105403800D01*
X199984400Y-105386463D01*
X199897239Y-105403800D01*
X199897235Y-105403800D01*
X199639090Y-105455148D01*
X199564442Y-105505026D01*
X199480031Y-105301240D01*
X199188880Y-105010089D01*
X198808474Y-104852520D01*
X198396726Y-104852520D01*
X198016320Y-105010089D01*
X197725169Y-105301240D01*
X197567600Y-105681646D01*
X197567600Y-106093394D01*
X197725169Y-106473800D01*
X198016320Y-106764951D01*
X198096621Y-106798213D01*
X197999400Y-107032926D01*
X197999400Y-107444674D01*
X198156969Y-107825080D01*
X198448120Y-108116231D01*
X198828526Y-108273800D01*
X199240274Y-108273800D01*
X199620680Y-108116231D01*
X199911831Y-107825080D01*
X200061831Y-107462948D01*
X200350979Y-107173800D01*
X208270793Y-107173800D01*
X208292038Y-107182600D01*
X208080302Y-107182600D01*
X207699896Y-107340169D01*
X207408745Y-107631320D01*
X207251176Y-108011726D01*
X207251176Y-108423474D01*
X207408745Y-108803880D01*
X207699896Y-109095031D01*
X208080302Y-109252600D01*
X208492050Y-109252600D01*
X208872456Y-109095031D01*
X209163607Y-108803880D01*
X209214089Y-108682004D01*
X209264476Y-108732391D01*
X209644882Y-108889960D01*
X210056630Y-108889960D01*
X210437036Y-108732391D01*
X210728187Y-108441240D01*
X210885756Y-108060834D01*
X210885756Y-107649086D01*
X210728187Y-107268680D01*
X210525809Y-107066302D01*
X210732231Y-106859880D01*
X210889800Y-106479474D01*
X210889800Y-106067726D01*
X210732231Y-105687320D01*
X210441080Y-105396169D01*
X210060674Y-105238600D01*
X209648926Y-105238600D01*
X209328452Y-105371344D01*
X209044674Y-105253800D01*
X208632926Y-105253800D01*
X208270793Y-105403800D01*
X206969550Y-105403800D01*
X207029000Y-105260274D01*
X207029000Y-104850000D01*
X212848727Y-104850000D01*
X212767288Y-104883733D01*
X212518333Y-105132688D01*
X212383600Y-105457963D01*
X212383600Y-105810037D01*
X212518333Y-106135312D01*
X212667021Y-106284000D01*
X212518333Y-106432688D01*
X212383600Y-106757963D01*
X212383600Y-107110037D01*
X212518333Y-107435312D01*
X212667021Y-107584000D01*
X212518333Y-107732688D01*
X212383600Y-108057963D01*
X212383600Y-108410037D01*
X212518333Y-108735312D01*
X212767288Y-108984267D01*
X213092563Y-109119000D01*
X213444637Y-109119000D01*
X213769912Y-108984267D01*
X214018867Y-108735312D01*
X214153600Y-108410037D01*
X214153600Y-108057963D01*
X214018867Y-107732688D01*
X213870179Y-107584000D01*
X214018867Y-107435312D01*
X214153600Y-107110037D01*
X214153600Y-106757963D01*
X214018867Y-106432688D01*
X213870179Y-106284000D01*
X214018867Y-106135312D01*
X214153600Y-105810037D01*
X214153600Y-105457963D01*
X214018867Y-105132688D01*
X213769912Y-104883733D01*
X213688473Y-104850000D01*
X214758727Y-104850000D01*
X214677288Y-104883733D01*
X214428333Y-105132688D01*
X214293600Y-105457963D01*
X214293600Y-105810037D01*
X214428333Y-106135312D01*
X214577021Y-106284000D01*
X214428333Y-106432688D01*
X214293600Y-106757963D01*
X214293600Y-107110037D01*
X214428333Y-107435312D01*
X214577021Y-107584000D01*
X214428333Y-107732688D01*
X214293600Y-108057963D01*
X214293600Y-108410037D01*
X214428333Y-108735312D01*
X214677288Y-108984267D01*
X215002563Y-109119000D01*
X215354637Y-109119000D01*
X215679912Y-108984267D01*
X215928867Y-108735312D01*
X216063600Y-108410037D01*
X216063600Y-108057963D01*
X215928867Y-107732688D01*
X215780179Y-107584000D01*
X215928867Y-107435312D01*
X216063600Y-107110037D01*
X216063600Y-106778926D01*
X217100200Y-106778926D01*
X217100200Y-107190674D01*
X217257769Y-107571080D01*
X217548920Y-107862231D01*
X217929326Y-108019800D01*
X218341074Y-108019800D01*
X218721480Y-107862231D01*
X219012631Y-107571080D01*
X219170200Y-107190674D01*
X219170200Y-106778926D01*
X219012631Y-106398520D01*
X218721480Y-106107369D01*
X218341074Y-105949800D01*
X217929326Y-105949800D01*
X217548920Y-106107369D01*
X217257769Y-106398520D01*
X217100200Y-106778926D01*
X216063600Y-106778926D01*
X216063600Y-106757963D01*
X215928867Y-106432688D01*
X215780179Y-106284000D01*
X215928867Y-106135312D01*
X216041029Y-105864526D01*
X220656200Y-105864526D01*
X220656200Y-106276274D01*
X220813769Y-106656680D01*
X221104920Y-106947831D01*
X221485326Y-107105400D01*
X221897074Y-107105400D01*
X222123000Y-107011819D01*
X222348926Y-107105400D01*
X222760674Y-107105400D01*
X223141080Y-106947831D01*
X223432231Y-106656680D01*
X223589800Y-106276274D01*
X223589800Y-105864526D01*
X223432231Y-105484120D01*
X223141080Y-105192969D01*
X222760674Y-105035400D01*
X222348926Y-105035400D01*
X222123000Y-105128981D01*
X221897074Y-105035400D01*
X221485326Y-105035400D01*
X221104920Y-105192969D01*
X220813769Y-105484120D01*
X220656200Y-105864526D01*
X216041029Y-105864526D01*
X216063600Y-105810037D01*
X216063600Y-105457963D01*
X215928867Y-105132688D01*
X215679912Y-104883733D01*
X215598473Y-104850000D01*
X225054689Y-104850000D01*
X224928569Y-104976120D01*
X224771000Y-105356526D01*
X224771000Y-105768274D01*
X224927707Y-106146600D01*
X224771000Y-106524926D01*
X224771000Y-106936674D01*
X224928569Y-107317080D01*
X224951889Y-107340400D01*
X224928569Y-107363720D01*
X224771000Y-107744126D01*
X224771000Y-108155874D01*
X224928569Y-108536280D01*
X225219720Y-108827431D01*
X225600126Y-108985000D01*
X226011874Y-108985000D01*
X226392280Y-108827431D01*
X226683431Y-108536280D01*
X226841000Y-108155874D01*
X226841000Y-108099726D01*
X227717400Y-108099726D01*
X227717400Y-108511474D01*
X227874969Y-108891880D01*
X228166120Y-109183031D01*
X228546526Y-109340600D01*
X228958274Y-109340600D01*
X229177384Y-109249842D01*
X229040572Y-109580136D01*
X229040572Y-109991884D01*
X229198141Y-110372290D01*
X229489292Y-110663441D01*
X229869698Y-110821010D01*
X230281446Y-110821010D01*
X230661852Y-110663441D01*
X230953003Y-110372290D01*
X231110572Y-109991884D01*
X231110572Y-109580136D01*
X230953003Y-109199730D01*
X230661852Y-108908579D01*
X230281446Y-108751010D01*
X229869698Y-108751010D01*
X229650588Y-108841768D01*
X229787400Y-108511474D01*
X229787400Y-108099726D01*
X229629831Y-107719320D01*
X229338680Y-107428169D01*
X228958274Y-107270600D01*
X228546526Y-107270600D01*
X228166120Y-107428169D01*
X227874969Y-107719320D01*
X227717400Y-108099726D01*
X226841000Y-108099726D01*
X226841000Y-107744126D01*
X226683431Y-107363720D01*
X226660111Y-107340400D01*
X226683431Y-107317080D01*
X226841000Y-106936674D01*
X226841000Y-106524926D01*
X226684293Y-106146600D01*
X226841000Y-105768274D01*
X226841000Y-105356526D01*
X226683431Y-104976120D01*
X226557311Y-104850000D01*
X235485000Y-104850000D01*
X235485001Y-115622000D01*
X231434111Y-115622000D01*
X231509431Y-115546680D01*
X231667000Y-115166274D01*
X231667000Y-114754526D01*
X231509431Y-114374120D01*
X231218280Y-114082969D01*
X230837874Y-113925400D01*
X230426126Y-113925400D01*
X230045720Y-114082969D01*
X229754569Y-114374120D01*
X229597000Y-114754526D01*
X229597000Y-115166274D01*
X229754569Y-115546680D01*
X229829889Y-115622000D01*
X226630443Y-115622000D01*
X226714000Y-115420274D01*
X226714000Y-115008526D01*
X226556431Y-114628120D01*
X226265280Y-114336969D01*
X225884874Y-114179400D01*
X225718801Y-114179400D01*
X225569730Y-114030329D01*
X225527328Y-113966870D01*
X225275936Y-113798895D01*
X225054251Y-113754799D01*
X225054246Y-113754799D01*
X224979399Y-113739911D01*
X224904552Y-113754799D01*
X221773645Y-113754799D01*
X221698798Y-113739911D01*
X221623951Y-113754799D01*
X221623947Y-113754799D01*
X221402262Y-113798895D01*
X221150870Y-113966870D01*
X221108828Y-114029790D01*
X220507978Y-114029790D01*
X220507978Y-113774089D01*
X220350409Y-113393683D01*
X220180056Y-113223330D01*
X220245480Y-113196231D01*
X220261985Y-113179726D01*
X227412600Y-113179726D01*
X227412600Y-113591474D01*
X227570169Y-113971880D01*
X227861320Y-114263031D01*
X228241726Y-114420600D01*
X228653474Y-114420600D01*
X229033880Y-114263031D01*
X229325031Y-113971880D01*
X229482600Y-113591474D01*
X229482600Y-113179726D01*
X229325031Y-112799320D01*
X229033880Y-112508169D01*
X228653474Y-112350600D01*
X228241726Y-112350600D01*
X227861320Y-112508169D01*
X227570169Y-112799320D01*
X227412600Y-113179726D01*
X220261985Y-113179726D01*
X220536631Y-112905080D01*
X220694200Y-112524674D01*
X220694200Y-112112926D01*
X220563214Y-111796697D01*
X229174762Y-111796697D01*
X229174762Y-112208445D01*
X229332331Y-112588851D01*
X229623482Y-112880002D01*
X229845998Y-112972171D01*
X229845998Y-112981874D01*
X230003567Y-113362280D01*
X230294718Y-113653431D01*
X230675124Y-113811000D01*
X231086872Y-113811000D01*
X231467278Y-113653431D01*
X231758429Y-113362280D01*
X231915998Y-112981874D01*
X231915998Y-112570126D01*
X231758429Y-112189720D01*
X231467278Y-111898569D01*
X231244762Y-111806400D01*
X231244762Y-111796697D01*
X231087193Y-111416291D01*
X230796042Y-111125140D01*
X230415636Y-110967571D01*
X230003888Y-110967571D01*
X229623482Y-111125140D01*
X229332331Y-111416291D01*
X229174762Y-111796697D01*
X220563214Y-111796697D01*
X220536631Y-111732520D01*
X220360911Y-111556800D01*
X220536631Y-111381080D01*
X220694200Y-111000674D01*
X220694200Y-110588926D01*
X220536631Y-110208520D01*
X220245480Y-109917369D01*
X219865074Y-109759800D01*
X219453326Y-109759800D01*
X219072920Y-109917369D01*
X218781769Y-110208520D01*
X218624200Y-110588926D01*
X218624200Y-111000674D01*
X218781769Y-111381080D01*
X218957489Y-111556800D01*
X218781769Y-111732520D01*
X218624200Y-112112926D01*
X218624200Y-112524674D01*
X218781769Y-112905080D01*
X218952122Y-113075433D01*
X218886698Y-113102532D01*
X218595547Y-113393683D01*
X218437978Y-113774089D01*
X218437978Y-114029790D01*
X213546998Y-114029790D01*
X213546998Y-113865526D01*
X213389429Y-113485120D01*
X213098278Y-113193969D01*
X212871999Y-113100241D01*
X212871999Y-112612643D01*
X212886887Y-112537796D01*
X212871999Y-112462949D01*
X212871999Y-112462945D01*
X212827903Y-112241260D01*
X212780559Y-112170405D01*
X212879480Y-112129431D01*
X213170631Y-111838280D01*
X213328200Y-111457874D01*
X213328200Y-111046126D01*
X213170631Y-110665720D01*
X212879480Y-110374569D01*
X212499074Y-110217000D01*
X212087326Y-110217000D01*
X211706920Y-110374569D01*
X211415769Y-110665720D01*
X211386173Y-110737170D01*
X210234332Y-109585329D01*
X210191930Y-109521870D01*
X209940538Y-109353895D01*
X209718853Y-109309799D01*
X209718848Y-109309799D01*
X209644001Y-109294911D01*
X209569154Y-109309799D01*
X201963973Y-109309799D01*
X202050600Y-109100663D01*
X202050600Y-108688915D01*
X201893031Y-108308509D01*
X201601880Y-108017358D01*
X201221474Y-107859789D01*
X200809726Y-107859789D01*
X200429320Y-108017358D01*
X200138169Y-108308509D01*
X199980600Y-108688915D01*
X199980600Y-109100663D01*
X200067227Y-109309799D01*
X198042203Y-109309799D01*
X197166601Y-108434198D01*
X197166601Y-106218961D01*
X197181489Y-106144113D01*
X197166601Y-106069265D01*
X197166601Y-106069261D01*
X197122505Y-105847576D01*
X196954530Y-105596184D01*
X196891071Y-105553782D01*
X196837616Y-105500327D01*
X196795214Y-105436868D01*
X196543822Y-105268893D01*
X196400997Y-105240483D01*
X196311714Y-105151200D01*
X196559031Y-104903882D01*
X196716600Y-104523476D01*
X196716600Y-104111728D01*
X196559031Y-103731322D01*
X196267880Y-103440171D01*
X195887474Y-103282602D01*
X195475726Y-103282602D01*
X195095320Y-103440171D01*
X194804169Y-103731322D01*
X194646600Y-104111728D01*
X194646600Y-104523476D01*
X194804169Y-104903882D01*
X195051487Y-105151200D01*
X194804169Y-105398517D01*
X194646600Y-105778923D01*
X194646600Y-106190671D01*
X194768431Y-106484798D01*
X194646600Y-106778926D01*
X194646600Y-107190674D01*
X194804169Y-107571080D01*
X195095320Y-107862231D01*
X195475726Y-108019800D01*
X195646601Y-108019800D01*
X195646601Y-108674152D01*
X195631713Y-108748999D01*
X195646601Y-108823846D01*
X195646601Y-108823850D01*
X195675563Y-108969452D01*
X195556680Y-108850569D01*
X195176274Y-108693000D01*
X194764526Y-108693000D01*
X194384120Y-108850569D01*
X194092969Y-109141720D01*
X193935400Y-109522126D01*
X193935400Y-109789965D01*
X193797874Y-109733000D01*
X193386126Y-109733000D01*
X193005720Y-109890569D01*
X192973977Y-109922312D01*
X192854070Y-109632832D01*
X192562919Y-109341681D01*
X192182513Y-109184112D01*
X191770765Y-109184112D01*
X191390359Y-109341681D01*
X191099208Y-109632832D01*
X190941639Y-110013238D01*
X190941639Y-110424986D01*
X191099208Y-110805392D01*
X191390359Y-111096543D01*
X191770765Y-111254112D01*
X192182513Y-111254112D01*
X192562919Y-111096543D01*
X192594662Y-111064800D01*
X192714569Y-111354280D01*
X193005720Y-111645431D01*
X193386126Y-111803000D01*
X193797874Y-111803000D01*
X194178280Y-111645431D01*
X194469431Y-111354280D01*
X194627000Y-110973874D01*
X194627000Y-110706035D01*
X194764526Y-110763000D01*
X195176274Y-110763000D01*
X195556680Y-110605431D01*
X195847831Y-110314280D01*
X196005400Y-109933874D01*
X196005400Y-109522126D01*
X195935024Y-109352223D01*
X197137071Y-110554271D01*
X197179472Y-110617728D01*
X197430864Y-110785703D01*
X197652549Y-110829799D01*
X197652553Y-110829799D01*
X197706874Y-110840604D01*
X197482920Y-110933369D01*
X197191769Y-111224520D01*
X197034200Y-111604926D01*
X197034200Y-112016674D01*
X197191769Y-112397080D01*
X197482920Y-112688231D01*
X197863326Y-112845800D01*
X198275074Y-112845800D01*
X198655480Y-112688231D01*
X198882434Y-112461277D01*
X198918969Y-112549480D01*
X199210120Y-112840631D01*
X199590526Y-112998200D01*
X199913889Y-112998200D01*
X199655569Y-113256520D01*
X199498000Y-113636926D01*
X199498000Y-113881799D01*
X193309219Y-113881799D01*
X193155431Y-113510520D01*
X192864280Y-113219369D01*
X192483874Y-113061800D01*
X192072126Y-113061800D01*
X191691720Y-113219369D01*
X191400569Y-113510520D01*
X191399521Y-113513050D01*
X191377431Y-113459720D01*
X191300644Y-113382933D01*
X191382600Y-113185074D01*
X191382600Y-112773326D01*
X191225031Y-112392920D01*
X190933880Y-112101769D01*
X190553474Y-111944200D01*
X190382599Y-111944200D01*
X190382599Y-106220126D01*
X191141400Y-106220126D01*
X191141400Y-106631874D01*
X191298969Y-107012280D01*
X191590120Y-107303431D01*
X191970526Y-107461000D01*
X192382274Y-107461000D01*
X192762680Y-107303431D01*
X193053831Y-107012280D01*
X193211400Y-106631874D01*
X193211400Y-106220126D01*
X193053831Y-105839720D01*
X192762680Y-105548569D01*
X192382274Y-105391000D01*
X191970526Y-105391000D01*
X191590120Y-105548569D01*
X191298969Y-105839720D01*
X191141400Y-106220126D01*
X190382599Y-106220126D01*
X190382599Y-105021114D01*
X191623133Y-103780581D01*
X191789205Y-103780581D01*
X192169611Y-103623012D01*
X192460762Y-103331861D01*
X192618331Y-102951455D01*
X192618331Y-102539707D01*
X192606741Y-102511726D01*
X193173400Y-102511726D01*
X193173400Y-102923474D01*
X193330969Y-103303880D01*
X193622120Y-103595031D01*
X194002526Y-103752600D01*
X194414274Y-103752600D01*
X194794680Y-103595031D01*
X195085831Y-103303880D01*
X195243400Y-102923474D01*
X195243400Y-102511726D01*
X195085831Y-102131320D01*
X194794680Y-101840169D01*
X194414274Y-101682600D01*
X194002526Y-101682600D01*
X193622120Y-101840169D01*
X193330969Y-102131320D01*
X193173400Y-102511726D01*
X192606741Y-102511726D01*
X192460762Y-102159301D01*
X192169611Y-101868150D01*
X191789205Y-101710581D01*
X191377457Y-101710581D01*
X190997051Y-101868150D01*
X190705900Y-102159301D01*
X190548331Y-102539707D01*
X190548331Y-102705779D01*
X189138127Y-104115984D01*
X189081759Y-104153648D01*
X188952680Y-104024569D01*
X188572274Y-103867000D01*
X188160526Y-103867000D01*
X187780120Y-104024569D01*
X187488969Y-104315720D01*
X187331535Y-104695800D01*
X187093726Y-104695800D01*
X186713320Y-104853369D01*
X186422169Y-105144520D01*
X186264600Y-105524926D01*
X186264600Y-105936674D01*
X186422169Y-106317080D01*
X186713320Y-106608231D01*
X187093726Y-106765800D01*
X187505474Y-106765800D01*
X187885880Y-106608231D01*
X188177031Y-106317080D01*
X188334465Y-105937000D01*
X188572274Y-105937000D01*
X188862600Y-105816743D01*
X188862599Y-114166754D01*
X188847711Y-114241601D01*
X188862599Y-114316448D01*
X188862599Y-114316452D01*
X188906695Y-114538137D01*
X189074670Y-114789530D01*
X189138129Y-114831932D01*
X189612470Y-115306274D01*
X189654870Y-115369730D01*
X189718326Y-115412130D01*
X189906261Y-115537705D01*
X189951382Y-115546680D01*
X190127947Y-115581801D01*
X190127951Y-115581801D01*
X190202799Y-115596689D01*
X190277647Y-115581801D01*
X192551154Y-115581801D01*
X192626001Y-115596689D01*
X192700848Y-115581801D01*
X192700853Y-115581801D01*
X192922538Y-115537705D01*
X193125935Y-115401799D01*
X198558200Y-115401799D01*
X198558200Y-115572674D01*
X198578631Y-115622000D01*
X188355711Y-115622000D01*
X188583431Y-115394280D01*
X188741000Y-115013874D01*
X188741000Y-114602126D01*
X188583431Y-114221720D01*
X188292280Y-113930569D01*
X187911874Y-113773000D01*
X187500126Y-113773000D01*
X187119720Y-113930569D01*
X186828569Y-114221720D01*
X186671000Y-114602126D01*
X186671000Y-115013874D01*
X186828569Y-115394280D01*
X187056289Y-115622000D01*
X185622000Y-115622000D01*
X185622000Y-101241726D01*
X187331400Y-101241726D01*
X187331400Y-101653474D01*
X187488969Y-102033880D01*
X187780120Y-102325031D01*
X188160526Y-102482600D01*
X188572274Y-102482600D01*
X188952680Y-102325031D01*
X189243831Y-102033880D01*
X189401400Y-101653474D01*
X189401400Y-101241726D01*
X189243831Y-100861320D01*
X188952680Y-100570169D01*
X188572274Y-100412600D01*
X188160526Y-100412600D01*
X187780120Y-100570169D01*
X187488969Y-100861320D01*
X187331400Y-101241726D01*
X185622000Y-101241726D01*
X185622000Y-99963711D01*
X185849720Y-100191431D01*
X186230126Y-100349000D01*
X186641874Y-100349000D01*
X187022280Y-100191431D01*
X187313431Y-99900280D01*
X187452173Y-99565326D01*
X188703000Y-99565326D01*
X188703000Y-99977074D01*
X188860569Y-100357480D01*
X189151720Y-100648631D01*
X189532126Y-100806200D01*
X189943874Y-100806200D01*
X190324280Y-100648631D01*
X190615431Y-100357480D01*
X190773000Y-99977074D01*
X190773000Y-99565326D01*
X190615431Y-99184920D01*
X190324280Y-98893769D01*
X189943874Y-98736200D01*
X189532126Y-98736200D01*
X189151720Y-98893769D01*
X188860569Y-99184920D01*
X188703000Y-99565326D01*
X187452173Y-99565326D01*
X187471000Y-99519874D01*
X187471000Y-99108126D01*
X187313431Y-98727720D01*
X187022280Y-98436569D01*
X186641874Y-98279000D01*
X186230126Y-98279000D01*
X185849720Y-98436569D01*
X185622000Y-98664289D01*
X185622000Y-91335726D01*
X185807400Y-91335726D01*
X185807400Y-91747474D01*
X185964969Y-92127880D01*
X186256120Y-92419031D01*
X186636526Y-92576600D01*
X187048274Y-92576600D01*
X187428680Y-92419031D01*
X187719831Y-92127880D01*
X187877400Y-91747474D01*
X187877400Y-91335726D01*
X187844294Y-91255800D01*
X188064274Y-91255800D01*
X188444680Y-91098231D01*
X188494262Y-91048649D01*
X188871726Y-91205000D01*
X188981390Y-91205000D01*
X188906200Y-91386526D01*
X188906200Y-91798274D01*
X189063769Y-92178680D01*
X189354920Y-92469831D01*
X189735326Y-92627400D01*
X190140128Y-92627400D01*
X190281983Y-92969868D01*
X190393150Y-93081035D01*
X190218520Y-93153369D01*
X189927369Y-93444520D01*
X189769800Y-93824926D01*
X189769800Y-94236674D01*
X189927369Y-94617080D01*
X190000250Y-94689961D01*
X189747242Y-94794760D01*
X189456091Y-95085911D01*
X189298522Y-95466317D01*
X189298522Y-95878065D01*
X189456091Y-96258471D01*
X189747242Y-96549622D01*
X189754426Y-96552598D01*
X189719000Y-96638124D01*
X189719000Y-97049872D01*
X189876569Y-97430278D01*
X190167720Y-97721429D01*
X190548126Y-97878998D01*
X190959874Y-97878998D01*
X191340280Y-97721429D01*
X191631431Y-97430278D01*
X191789000Y-97049872D01*
X191789000Y-96638124D01*
X191631431Y-96257718D01*
X191340280Y-95966567D01*
X191333096Y-95963591D01*
X191368522Y-95878065D01*
X191368522Y-95466317D01*
X191210953Y-95085911D01*
X191138072Y-95013030D01*
X191391080Y-94908231D01*
X191682231Y-94617080D01*
X191839800Y-94236674D01*
X191839800Y-93824926D01*
X191682231Y-93444520D01*
X191571064Y-93333353D01*
X191745694Y-93261019D01*
X192036845Y-92969868D01*
X192194414Y-92589462D01*
X192194414Y-92177714D01*
X192182324Y-92148526D01*
X196170600Y-92148526D01*
X196170600Y-92560274D01*
X196328169Y-92940680D01*
X196402289Y-93014800D01*
X196328169Y-93088920D01*
X196170600Y-93469326D01*
X196170600Y-93881074D01*
X196328169Y-94261480D01*
X196503889Y-94437200D01*
X196328169Y-94612920D01*
X196170600Y-94993326D01*
X196170600Y-95405074D01*
X196328169Y-95785480D01*
X196619320Y-96076631D01*
X196999726Y-96234200D01*
X197411474Y-96234200D01*
X197791880Y-96076631D01*
X198083031Y-95785480D01*
X198240600Y-95405074D01*
X198240600Y-95399726D01*
X198609000Y-95399726D01*
X198609000Y-95811474D01*
X198766569Y-96191880D01*
X199057720Y-96483031D01*
X199438126Y-96640600D01*
X199849874Y-96640600D01*
X200230280Y-96483031D01*
X200521431Y-96191880D01*
X200679000Y-95811474D01*
X200679000Y-95399726D01*
X200521431Y-95019320D01*
X200230280Y-94728169D01*
X199849874Y-94570600D01*
X199438126Y-94570600D01*
X199057720Y-94728169D01*
X198766569Y-95019320D01*
X198609000Y-95399726D01*
X198240600Y-95399726D01*
X198240600Y-94993326D01*
X198083031Y-94612920D01*
X197907311Y-94437200D01*
X198083031Y-94261480D01*
X198240600Y-93881074D01*
X198240600Y-93469326D01*
X198083031Y-93088920D01*
X198008911Y-93014800D01*
X198083031Y-92940680D01*
X198240600Y-92560274D01*
X198240600Y-92148526D01*
X198083031Y-91768120D01*
X197791880Y-91476969D01*
X197411474Y-91319400D01*
X196999726Y-91319400D01*
X196619320Y-91476969D01*
X196328169Y-91768120D01*
X196170600Y-92148526D01*
X192182324Y-92148526D01*
X192036845Y-91797308D01*
X191745694Y-91506157D01*
X191365288Y-91348588D01*
X190960486Y-91348588D01*
X190818631Y-91006120D01*
X190527480Y-90714969D01*
X190147074Y-90557400D01*
X190037410Y-90557400D01*
X190112600Y-90375874D01*
X190112600Y-89964126D01*
X189955031Y-89583720D01*
X189663880Y-89292569D01*
X189283474Y-89135000D01*
X188871726Y-89135000D01*
X188491320Y-89292569D01*
X188441738Y-89342151D01*
X188064274Y-89185800D01*
X187652526Y-89185800D01*
X187272120Y-89343369D01*
X186980969Y-89634520D01*
X186823400Y-90014926D01*
X186823400Y-90426674D01*
X186856506Y-90506600D01*
X186636526Y-90506600D01*
X186256120Y-90664169D01*
X185964969Y-90955320D01*
X185807400Y-91335726D01*
X185622000Y-91335726D01*
X185622000Y-87745767D01*
X193252041Y-87745767D01*
X193252041Y-88157515D01*
X193409610Y-88537921D01*
X193700761Y-88829072D01*
X194081167Y-88986641D01*
X194492915Y-88986641D01*
X194873321Y-88829072D01*
X195164472Y-88537921D01*
X195322041Y-88157515D01*
X195322041Y-87932126D01*
X196018200Y-87932126D01*
X196018200Y-88343874D01*
X196175769Y-88724280D01*
X196466920Y-89015431D01*
X196847326Y-89173000D01*
X197259074Y-89173000D01*
X197639480Y-89015431D01*
X197930631Y-88724280D01*
X198088200Y-88343874D01*
X198088200Y-87932126D01*
X197930631Y-87551720D01*
X197639480Y-87260569D01*
X197259074Y-87103000D01*
X196847326Y-87103000D01*
X196466920Y-87260569D01*
X196175769Y-87551720D01*
X196018200Y-87932126D01*
X195322041Y-87932126D01*
X195322041Y-87745767D01*
X195164472Y-87365361D01*
X194873321Y-87074210D01*
X194492915Y-86916641D01*
X194081167Y-86916641D01*
X193700761Y-87074210D01*
X193409610Y-87365361D01*
X193252041Y-87745767D01*
X185622000Y-87745767D01*
X185622000Y-85036526D01*
X190481000Y-85036526D01*
X190481000Y-85448274D01*
X190638569Y-85828680D01*
X190929720Y-86119831D01*
X191310126Y-86277400D01*
X191721874Y-86277400D01*
X192102280Y-86119831D01*
X192393431Y-85828680D01*
X192551000Y-85448274D01*
X192551000Y-85036526D01*
X192393431Y-84656120D01*
X192102280Y-84364969D01*
X191721874Y-84207400D01*
X191310126Y-84207400D01*
X190929720Y-84364969D01*
X190638569Y-84656120D01*
X190481000Y-85036526D01*
X185622000Y-85036526D01*
X185622000Y-79450000D01*
X202311000Y-79450000D01*
X202311000Y-89687283D01*
G36*
X207758169Y-112646920D02*
X207600600Y-113027326D01*
X207600600Y-113439074D01*
X207758169Y-113819480D01*
X208049320Y-114110631D01*
X208429726Y-114268200D01*
X208841474Y-114268200D01*
X209053103Y-114180541D01*
X209053103Y-114256577D01*
X209210672Y-114636983D01*
X209501823Y-114928134D01*
X209882229Y-115085703D01*
X210293977Y-115085703D01*
X210611614Y-114954134D01*
X210547000Y-115110126D01*
X210547000Y-115521874D01*
X210588473Y-115622000D01*
X200607769Y-115622000D01*
X200628200Y-115572674D01*
X200628200Y-115401799D01*
X202782364Y-115401799D01*
X202857211Y-115416687D01*
X202932058Y-115401799D01*
X202932063Y-115401799D01*
X203153748Y-115357703D01*
X203405140Y-115189728D01*
X203447542Y-115126269D01*
X204343909Y-114229902D01*
X204405369Y-114378280D01*
X204696520Y-114669431D01*
X205076926Y-114827000D01*
X205488674Y-114827000D01*
X205869080Y-114669431D01*
X206160231Y-114378280D01*
X206317800Y-113997874D01*
X206317800Y-113586126D01*
X206160231Y-113205720D01*
X205869080Y-112914569D01*
X205720703Y-112853109D01*
X206051935Y-112521877D01*
X207883212Y-112521877D01*
X207758169Y-112646920D01*
X207758169Y-112646920D01*
G37*
X207758169Y-112646920D02*
X207600600Y-113027326D01*
X207600600Y-113439074D01*
X207758169Y-113819480D01*
X208049320Y-114110631D01*
X208429726Y-114268200D01*
X208841474Y-114268200D01*
X209053103Y-114180541D01*
X209053103Y-114256577D01*
X209210672Y-114636983D01*
X209501823Y-114928134D01*
X209882229Y-115085703D01*
X210293977Y-115085703D01*
X210611614Y-114954134D01*
X210547000Y-115110126D01*
X210547000Y-115521874D01*
X210588473Y-115622000D01*
X200607769Y-115622000D01*
X200628200Y-115572674D01*
X200628200Y-115401799D01*
X202782364Y-115401799D01*
X202857211Y-115416687D01*
X202932058Y-115401799D01*
X202932063Y-115401799D01*
X203153748Y-115357703D01*
X203405140Y-115189728D01*
X203447542Y-115126269D01*
X204343909Y-114229902D01*
X204405369Y-114378280D01*
X204696520Y-114669431D01*
X205076926Y-114827000D01*
X205488674Y-114827000D01*
X205869080Y-114669431D01*
X206160231Y-114378280D01*
X206317800Y-113997874D01*
X206317800Y-113586126D01*
X206160231Y-113205720D01*
X205869080Y-112914569D01*
X205720703Y-112853109D01*
X206051935Y-112521877D01*
X207883212Y-112521877D01*
X207758169Y-112646920D01*
G04 #@! TD*
M02*
