G04 #@! TF.GenerationSoftware,KiCad,Pcbnew,(5.0.1)-3*
G04 #@! TF.CreationDate,2019-11-22T16:36:39-05:00*
G04 #@! TF.ProjectId,SmartWatch,536D61727457617463682E6B69636164,rev?*
G04 #@! TF.SameCoordinates,Original*
G04 #@! TF.FileFunction,Other,ECO2*
%FSLAX46Y46*%
G04 Gerber Fmt 4.6, Leading zero omitted, Abs format (unit mm)*
G04 Created by KiCad (PCBNEW (5.0.1)-3) date 11/22/2019 4:36:39 PM*
%MOMM*%
%LPD*%
G01*
G04 APERTURE LIST*
%ADD10C,0.200000*%
%ADD11C,0.127000*%
%ADD12C,0.300000*%
G04 APERTURE END LIST*
D10*
G04 #@! TO.C,SW4*
X186492000Y-114968000D02*
G75*
G03X186492000Y-114968000I-100000J0D01*
G01*
D11*
X187742000Y-114518000D02*
X192242000Y-114518000D01*
X187742000Y-114518000D02*
X187742000Y-110018000D01*
X192242000Y-110018000D02*
X187742000Y-110018000D01*
X192242000Y-110018000D02*
X192242000Y-114518000D01*
G04 #@! TO.C,SW5*
X202402000Y-110018000D02*
X202402000Y-114518000D01*
X202402000Y-110018000D02*
X197902000Y-110018000D01*
X197902000Y-114518000D02*
X197902000Y-110018000D01*
X197902000Y-114518000D02*
X202402000Y-114518000D01*
D10*
X196652000Y-114968000D02*
G75*
G03X196652000Y-114968000I-100000J0D01*
G01*
G04 #@! TO.C,SW1*
X206812000Y-114968000D02*
G75*
G03X206812000Y-114968000I-100000J0D01*
G01*
D11*
X208062000Y-114518000D02*
X212562000Y-114518000D01*
X208062000Y-114518000D02*
X208062000Y-110018000D01*
X212562000Y-110018000D02*
X208062000Y-110018000D01*
X212562000Y-110018000D02*
X212562000Y-114518000D01*
G04 #@! TO.C,SW2*
X222722000Y-110018000D02*
X222722000Y-114518000D01*
X222722000Y-110018000D02*
X218222000Y-110018000D01*
X218222000Y-114518000D02*
X218222000Y-110018000D01*
X218222000Y-114518000D02*
X222722000Y-114518000D01*
D10*
X216972000Y-114968000D02*
G75*
G03X216972000Y-114968000I-100000J0D01*
G01*
G04 #@! TO.C,SW3*
X227132000Y-114968000D02*
G75*
G03X227132000Y-114968000I-100000J0D01*
G01*
D11*
X228382000Y-114518000D02*
X232882000Y-114518000D01*
X228382000Y-114518000D02*
X228382000Y-110018000D01*
X232882000Y-110018000D02*
X228382000Y-110018000D01*
X232882000Y-110018000D02*
X232882000Y-114518000D01*
G04 #@! TO.C,J1*
X231931000Y-106486000D02*
X231931000Y-113986000D01*
X231931000Y-113986000D02*
X236281000Y-113986000D01*
X236281000Y-113986000D02*
X237592000Y-113986000D01*
X237592000Y-113986000D02*
X237592000Y-106486000D01*
X237592000Y-106486000D02*
X236281000Y-106486000D01*
X236281000Y-106486000D02*
X231931000Y-106486000D01*
X236281000Y-113986000D02*
X236281000Y-106486000D01*
X236281000Y-113986000D02*
X236281000Y-117386000D01*
D12*
X230956000Y-108836000D02*
G75*
G03X230956000Y-108836000I-100000J0D01*
G01*
D11*
G04 #@! TO.C,U12*
X191979200Y-90328400D02*
X191979200Y-97428400D01*
X191979200Y-97428400D02*
X199079200Y-97428400D01*
X199079200Y-97428400D02*
X199079200Y-90328400D01*
X199079200Y-90328400D02*
X191979200Y-90328400D01*
D10*
X191429200Y-96678400D02*
G75*
G03X191429200Y-96678400I-100000J0D01*
G01*
D11*
G04 #@! TO.C,J3*
X190916000Y-98494000D02*
X190916000Y-84744000D01*
X190916000Y-84744000D02*
X185686000Y-84744000D01*
X185686000Y-84744000D02*
X185686000Y-98494000D01*
X185686000Y-98494000D02*
X190916000Y-98494000D01*
X184899813Y-98044000D02*
G75*
G03X184899813Y-98044000I-83813J0D01*
G01*
G04 #@! TD*
M02*
