G04 #@! TF.GenerationSoftware,KiCad,Pcbnew,(5.0.1)-3*
G04 #@! TF.CreationDate,2019-11-22T16:36:38-05:00*
G04 #@! TF.ProjectId,SmartWatch,536D61727457617463682E6B69636164,rev?*
G04 #@! TF.SameCoordinates,Original*
G04 #@! TF.FileFunction,Copper,L3,Inr,Signal*
G04 #@! TF.FilePolarity,Positive*
%FSLAX46Y46*%
G04 Gerber Fmt 4.6, Leading zero omitted, Abs format (unit mm)*
G04 Created by KiCad (PCBNEW (5.0.1)-3) date 11/22/2019 4:36:38 PM*
%MOMM*%
%LPD*%
G01*
G04 APERTURE LIST*
G04 #@! TA.AperFunction,ViaPad*
%ADD10C,0.500000*%
G04 #@! TD*
G04 #@! TA.AperFunction,ViaPad*
%ADD11C,0.800000*%
G04 #@! TD*
G04 #@! TA.AperFunction,Conductor*
%ADD12C,0.500000*%
G04 #@! TD*
G04 #@! TA.AperFunction,Conductor*
%ADD13C,0.150000*%
G04 #@! TD*
G04 #@! TA.AperFunction,Conductor*
%ADD14C,0.254000*%
G04 #@! TD*
G04 APERTURE END LIST*
D10*
G04 #@! TO.N,GND*
G04 #@! TO.C,U1*
X215178600Y-108234000D03*
X213268600Y-108234000D03*
X215178600Y-106934000D03*
X213268600Y-106934000D03*
X215178600Y-105634000D03*
X213268600Y-105634000D03*
G04 #@! TD*
D11*
G04 #@! TO.N,BAT+*
X198602600Y-105887520D03*
G04 #@! TO.N,GND*
X197205600Y-95199200D03*
X197205600Y-93675200D03*
X197205600Y-92354400D03*
X230880998Y-112776000D03*
X230632000Y-114960400D03*
X225806000Y-106730800D03*
X225806000Y-105562400D03*
X225806000Y-107950000D03*
X199339200Y-100279200D03*
X200355200Y-100279200D03*
X201335200Y-100279200D03*
X209854800Y-106273600D03*
X208838800Y-106288800D03*
X219659200Y-112318800D03*
X208635600Y-113233200D03*
X192176400Y-106426000D03*
X190347600Y-112979200D03*
X192278000Y-114096800D03*
X186842400Y-91541600D03*
X189941200Y-91592400D03*
X194287041Y-87951641D03*
X191516000Y-85242400D03*
X221691200Y-106070400D03*
X222554800Y-106070400D03*
X199034400Y-107238800D03*
X188366400Y-101447600D03*
X186436000Y-99314000D03*
X205282800Y-113792000D03*
G04 #@! TO.N,Net-(C7-Pad1)*
X202438000Y-111252000D03*
G04 #@! TO.N,SW2*
X228447600Y-113385600D03*
X202174990Y-105224002D03*
X209850756Y-107854960D03*
X203911200Y-105156000D03*
X219472978Y-113979963D03*
G04 #@! TO.N,SW0*
X209296000Y-110794800D03*
X201559800Y-99304748D03*
X205181200Y-111244808D03*
G04 #@! TO.N,SW1*
X219659200Y-110794800D03*
X201117200Y-98196400D03*
X211048600Y-113111280D03*
G04 #@! TO.N,/LCD_CS*
X199644000Y-95605600D03*
G04 #@! TO.N,/LCD_SCK*
X199390000Y-99060000D03*
G04 #@! TO.N,/LCD_SDA*
X198454200Y-98552000D03*
G04 #@! TO.N,/LCD_RST*
X191159414Y-92383588D03*
G04 #@! TO.N,/LCD_A0*
X190754000Y-96843998D03*
G04 #@! TO.N,/LCD_LED*
X194208400Y-102717600D03*
G04 #@! TO.N,UV_LO*
X218135200Y-106984800D03*
X205994000Y-105054400D03*
G04 #@! TO.N,VUSB*
X201015600Y-108894789D03*
G04 #@! TO.N,+3V3*
X218490800Y-113792000D03*
X226568000Y-112789810D03*
X194716400Y-108610400D03*
X197256400Y-104089200D03*
X197815200Y-101650800D03*
X198628000Y-97485200D03*
X188417200Y-91643200D03*
X191608398Y-97688400D03*
X196951600Y-85394800D03*
X200761600Y-88392000D03*
X191262000Y-95300800D03*
X221691200Y-107645200D03*
X222554800Y-107696000D03*
X206756000Y-112522000D03*
X196596000Y-112268000D03*
G04 #@! TO.N,Net-(R19-Pad2)*
X198069200Y-111810800D03*
G04 #@! TO.N,Net-(C6-Pad1)*
X193592000Y-110768000D03*
G04 #@! TO.N,Net-(D3-Pad1)*
X230075572Y-109786010D03*
G04 #@! TO.N,Net-(D4-Pad1)*
X230209762Y-112002571D03*
G04 #@! TO.N,Net-(D1-Pad1)*
X228752400Y-108305600D03*
G04 #@! TO.N,/ESP32 Pico D4/USB_DP*
X225679000Y-115214400D03*
X195681600Y-105984797D03*
X212511998Y-114071400D03*
G04 #@! TO.N,/ESP32 Pico D4/USB_DN*
X222056960Y-115496340D03*
X195681600Y-106984800D03*
X210088103Y-114050703D03*
G04 #@! TO.N,/ESP32 Pico D4/IO0*
X187299600Y-105730800D03*
X187858400Y-90220800D03*
X201880906Y-90629408D03*
G04 #@! TO.N,/ESP32 Pico D4/IO15*
X189077600Y-90170000D03*
X189738000Y-99771200D03*
X201269600Y-89838011D03*
G04 #@! TO.N,Net-(R3-Pad1)*
X194970400Y-109728000D03*
G04 #@! TO.N,Net-(R18-Pad1)*
X191976639Y-110219112D03*
G04 #@! TO.N,/ESP32 Pico D4/DTR*
X188366400Y-104902000D03*
X195681600Y-104317602D03*
X190500000Y-114046000D03*
X187706000Y-114808000D03*
X211582000Y-115316000D03*
X200533000Y-113842800D03*
G04 #@! TO.N,/ESP32 Pico D4/IO13*
X208286176Y-108217600D03*
X212293200Y-111252000D03*
G04 #@! TO.N,/ESP32 Pico D4/RTS*
X191583331Y-102745581D03*
X209550493Y-111761877D03*
G04 #@! TO.N,Net-(R22-Pad2)*
X197053200Y-88138000D03*
G04 #@! TO.N,Net-(C9-Pad1)*
X190804800Y-94030800D03*
G04 #@! TO.N,/ESP32 Pico D4/EN*
X199593200Y-115366800D03*
X199796400Y-111963200D03*
G04 #@! TO.N,/ESP32 Pico D4/LNA_IN*
X190333522Y-95672191D03*
G04 #@! TD*
D12*
G04 #@! TO.N,GND*
X205282800Y-113226315D02*
X205282800Y-113792000D01*
X205282800Y-112737198D02*
X205282800Y-113226315D01*
X206498758Y-111521240D02*
X205282800Y-112737198D01*
X208235601Y-112743599D02*
X207013242Y-111521240D01*
X207013242Y-111521240D02*
X206498758Y-111521240D01*
X208235601Y-112833201D02*
X208235601Y-112743599D01*
X208635600Y-113233200D02*
X208235601Y-112833201D01*
D13*
G04 #@! TO.N,SW2*
X214203280Y-112438180D02*
X213803281Y-112038181D01*
X213803281Y-112038181D02*
X213803281Y-111763079D01*
X213803281Y-111763079D02*
X210295161Y-108254959D01*
X210295161Y-108254959D02*
X210250755Y-108254959D01*
X210250755Y-108254959D02*
X209850756Y-107854960D01*
X219472978Y-113978785D02*
X219472978Y-113979963D01*
X218135982Y-112438180D02*
X219476770Y-113778968D01*
X214203280Y-112438180D02*
X218135982Y-112438180D01*
X219476770Y-113778968D02*
X219476770Y-113965212D01*
X219476770Y-113965212D02*
X219475131Y-113966851D01*
X219475131Y-113966851D02*
X219475131Y-113976632D01*
X219475131Y-113976632D02*
X219472978Y-113978785D01*
G04 #@! TO.N,SW0*
X201499989Y-107563597D02*
X205181200Y-111244808D01*
X201499989Y-104900001D02*
X201499989Y-107563597D01*
X201559800Y-104840190D02*
X201499989Y-104900001D01*
X201559800Y-100954201D02*
X201559800Y-104840190D01*
X201559800Y-99604199D02*
X201659201Y-99604199D01*
X201559800Y-99304748D02*
X201559800Y-99604199D01*
X201659201Y-99604199D02*
X202010201Y-99955199D01*
X202010201Y-99955199D02*
X202010201Y-100603201D01*
X202010201Y-100603201D02*
X201659201Y-100954201D01*
X201659201Y-100954201D02*
X201559800Y-100954201D01*
G04 #@! TO.N,SW1*
X209226492Y-112436878D02*
X210176078Y-112436878D01*
X202234801Y-99628749D02*
X202206770Y-99656780D01*
X202234801Y-98980747D02*
X202234801Y-99628749D01*
X201883801Y-98629747D02*
X202234801Y-98980747D01*
X201235799Y-98629747D02*
X201883801Y-98629747D01*
X208875492Y-112085878D02*
X209226492Y-112436878D01*
X201117200Y-98196400D02*
X201117200Y-98748346D01*
X201117200Y-98748346D02*
X201235799Y-98629747D01*
X202206770Y-99656780D02*
X202360211Y-99810221D01*
X202360211Y-99810221D02*
X202360211Y-100748179D01*
X202498991Y-104549001D02*
X202849991Y-104900001D01*
X202849991Y-105548003D02*
X202687597Y-105710397D01*
X210176078Y-112436878D02*
X210921600Y-113182400D01*
X202360211Y-100748179D02*
X201909810Y-101198580D01*
X201909810Y-101198580D02*
X201909810Y-104549001D01*
X201909810Y-104549001D02*
X202498991Y-104549001D01*
X202849991Y-104900001D02*
X202849991Y-105548003D01*
X202687597Y-105710397D02*
X208875492Y-111898292D01*
X208875492Y-111898292D02*
X208875492Y-112085878D01*
D12*
G04 #@! TO.N,+3V3*
X208569019Y-114900704D02*
X206756000Y-113087685D01*
X212152601Y-113221399D02*
X210473296Y-114900704D01*
X206756000Y-113087685D02*
X206756000Y-112522000D01*
X212919999Y-113221399D02*
X212152601Y-113221399D01*
X213361999Y-113663399D02*
X212919999Y-113221399D01*
X210473296Y-114900704D02*
X208569019Y-114900704D01*
X213361999Y-114191999D02*
X213361999Y-113663399D01*
X218090801Y-114191999D02*
X213361999Y-114191999D01*
X218490800Y-113792000D02*
X218090801Y-114191999D01*
D13*
G04 #@! TO.N,/ESP32 Pico D4/IO0*
X189041401Y-96625389D02*
X188772800Y-96356788D01*
X189041401Y-101771601D02*
X189041401Y-96625389D01*
X187299600Y-105730800D02*
X187299600Y-103513402D01*
X187299600Y-103513402D02*
X189041401Y-101771601D01*
X187742199Y-91967201D02*
X187742199Y-90337001D01*
X188772800Y-96356788D02*
X188772800Y-92997802D01*
X188772800Y-92997802D02*
X187742199Y-91967201D01*
X187742199Y-90337001D02*
X187858400Y-90220800D01*
G04 #@! TO.N,/ESP32 Pico D4/IO15*
X190398400Y-97487400D02*
X189179200Y-96268200D01*
X190398400Y-99263200D02*
X190398400Y-97487400D01*
X189179200Y-91355398D02*
X189077600Y-91253798D01*
X189179200Y-96268200D02*
X189179200Y-91355398D01*
X189077600Y-91253798D02*
X189077600Y-90170000D01*
X189077600Y-90170000D02*
X189077600Y-90170000D01*
X190398400Y-99263200D02*
X190246000Y-99263200D01*
X190246000Y-99263200D02*
X189738000Y-99771200D01*
G04 #@! TO.N,/ESP32 Pico D4/IO13*
X208286176Y-108217600D02*
X209258800Y-108217600D01*
X209258800Y-108217600D02*
X212293200Y-111252000D01*
G04 #@! TD*
D14*
G04 #@! TO.N,GND*
G36*
X204959000Y-105260274D02*
X205116569Y-105640680D01*
X205407720Y-105931831D01*
X205788126Y-106089400D01*
X206199874Y-106089400D01*
X206580280Y-105931831D01*
X206871431Y-105640680D01*
X206910263Y-105546930D01*
X212370472Y-105546930D01*
X212405517Y-105897257D01*
X212472158Y-106058140D01*
X212661898Y-106063925D01*
X213091823Y-105634000D01*
X213445377Y-105634000D01*
X213875302Y-106063925D01*
X214065042Y-106058140D01*
X214166728Y-105721070D01*
X214149308Y-105546930D01*
X214280472Y-105546930D01*
X214315517Y-105897257D01*
X214382158Y-106058140D01*
X214571898Y-106063925D01*
X215001823Y-105634000D01*
X215355377Y-105634000D01*
X215785302Y-106063925D01*
X215975042Y-106058140D01*
X216076728Y-105721070D01*
X216041683Y-105370743D01*
X215975042Y-105209860D01*
X215785302Y-105204075D01*
X215355377Y-105634000D01*
X215001823Y-105634000D01*
X214571898Y-105204075D01*
X214382158Y-105209860D01*
X214280472Y-105546930D01*
X214149308Y-105546930D01*
X214131683Y-105370743D01*
X214065042Y-105209860D01*
X213875302Y-105204075D01*
X213445377Y-105634000D01*
X213091823Y-105634000D01*
X212661898Y-105204075D01*
X212472158Y-105209860D01*
X212370472Y-105546930D01*
X206910263Y-105546930D01*
X207029000Y-105260274D01*
X207029000Y-104850000D01*
X212844081Y-104850000D01*
X212838675Y-105027298D01*
X213268600Y-105457223D01*
X213698525Y-105027298D01*
X213693119Y-104850000D01*
X214754081Y-104850000D01*
X214748675Y-105027298D01*
X215178600Y-105457223D01*
X215608525Y-105027298D01*
X215603119Y-104850000D01*
X235485000Y-104850000D01*
X235485001Y-115622000D01*
X226630443Y-115622000D01*
X226714000Y-115420274D01*
X226714000Y-115008526D01*
X226556431Y-114628120D01*
X226265280Y-114336969D01*
X225884874Y-114179400D01*
X225473126Y-114179400D01*
X225092720Y-114336969D01*
X224801569Y-114628120D01*
X224644000Y-115008526D01*
X224644000Y-115420274D01*
X224727557Y-115622000D01*
X223091960Y-115622000D01*
X223091960Y-115290466D01*
X222934391Y-114910060D01*
X222643240Y-114618909D01*
X222262834Y-114461340D01*
X221851086Y-114461340D01*
X221470680Y-114618909D01*
X221179529Y-114910060D01*
X221021960Y-115290466D01*
X221021960Y-115622000D01*
X212575527Y-115622000D01*
X212617000Y-115521874D01*
X212617000Y-115110126D01*
X212615457Y-115106400D01*
X212717872Y-115106400D01*
X212976939Y-114999091D01*
X213016689Y-115025651D01*
X213361999Y-115094337D01*
X213449163Y-115076999D01*
X218003640Y-115076999D01*
X218090801Y-115094336D01*
X218177962Y-115076999D01*
X218177966Y-115076999D01*
X218436111Y-115025651D01*
X218728850Y-114830048D01*
X218743979Y-114807406D01*
X218809550Y-114780246D01*
X218886698Y-114857394D01*
X219267104Y-115014963D01*
X219678852Y-115014963D01*
X220059258Y-114857394D01*
X220350409Y-114566243D01*
X220507978Y-114185837D01*
X220507978Y-113774089D01*
X220350409Y-113393683D01*
X220059258Y-113102532D01*
X219678852Y-112944963D01*
X219646856Y-112944963D01*
X219285829Y-112583936D01*
X225533000Y-112583936D01*
X225533000Y-112995684D01*
X225690569Y-113376090D01*
X225981720Y-113667241D01*
X226362126Y-113824810D01*
X226773874Y-113824810D01*
X227154280Y-113667241D01*
X227412600Y-113408921D01*
X227412600Y-113591474D01*
X227570169Y-113971880D01*
X227861320Y-114263031D01*
X228241726Y-114420600D01*
X228653474Y-114420600D01*
X229033880Y-114263031D01*
X229325031Y-113971880D01*
X229482600Y-113591474D01*
X229482600Y-113179726D01*
X229325031Y-112799320D01*
X229033880Y-112508169D01*
X228653474Y-112350600D01*
X228241726Y-112350600D01*
X227861320Y-112508169D01*
X227603000Y-112766489D01*
X227603000Y-112583936D01*
X227445431Y-112203530D01*
X227154280Y-111912379D01*
X226874999Y-111796697D01*
X229174762Y-111796697D01*
X229174762Y-112208445D01*
X229332331Y-112588851D01*
X229623482Y-112880002D01*
X230003888Y-113037571D01*
X230415636Y-113037571D01*
X230796042Y-112880002D01*
X231087193Y-112588851D01*
X231244762Y-112208445D01*
X231244762Y-111796697D01*
X231087193Y-111416291D01*
X230796042Y-111125140D01*
X230415636Y-110967571D01*
X230003888Y-110967571D01*
X229623482Y-111125140D01*
X229332331Y-111416291D01*
X229174762Y-111796697D01*
X226874999Y-111796697D01*
X226773874Y-111754810D01*
X226362126Y-111754810D01*
X225981720Y-111912379D01*
X225690569Y-112203530D01*
X225533000Y-112583936D01*
X219285829Y-112583936D01*
X218687476Y-111985584D01*
X218647863Y-111926299D01*
X218413010Y-111769375D01*
X218205908Y-111728180D01*
X218205906Y-111728180D01*
X218135982Y-111714271D01*
X218066058Y-111728180D01*
X214520248Y-111728180D01*
X214472086Y-111486050D01*
X214354772Y-111310478D01*
X214354771Y-111310477D01*
X214315162Y-111251198D01*
X214255883Y-111211589D01*
X213633220Y-110588926D01*
X218624200Y-110588926D01*
X218624200Y-111000674D01*
X218781769Y-111381080D01*
X219072920Y-111672231D01*
X219453326Y-111829800D01*
X219865074Y-111829800D01*
X220245480Y-111672231D01*
X220536631Y-111381080D01*
X220694200Y-111000674D01*
X220694200Y-110588926D01*
X220536631Y-110208520D01*
X220245480Y-109917369D01*
X219865074Y-109759800D01*
X219453326Y-109759800D01*
X219072920Y-109917369D01*
X218781769Y-110208520D01*
X218624200Y-110588926D01*
X213633220Y-110588926D01*
X211884996Y-108840702D01*
X212838675Y-108840702D01*
X212844460Y-109030442D01*
X213181530Y-109132128D01*
X213531857Y-109097083D01*
X213692740Y-109030442D01*
X213698525Y-108840702D01*
X214748675Y-108840702D01*
X214754460Y-109030442D01*
X215091530Y-109132128D01*
X215441857Y-109097083D01*
X215602740Y-109030442D01*
X215608525Y-108840702D01*
X215178600Y-108410777D01*
X214748675Y-108840702D01*
X213698525Y-108840702D01*
X213268600Y-108410777D01*
X212838675Y-108840702D01*
X211884996Y-108840702D01*
X211191223Y-108146930D01*
X212370472Y-108146930D01*
X212405517Y-108497257D01*
X212472158Y-108658140D01*
X212661898Y-108663925D01*
X213091823Y-108234000D01*
X213445377Y-108234000D01*
X213875302Y-108663925D01*
X214065042Y-108658140D01*
X214166728Y-108321070D01*
X214149308Y-108146930D01*
X214280472Y-108146930D01*
X214315517Y-108497257D01*
X214382158Y-108658140D01*
X214571898Y-108663925D01*
X215001823Y-108234000D01*
X215355377Y-108234000D01*
X215785302Y-108663925D01*
X215975042Y-108658140D01*
X216076728Y-108321070D01*
X216041683Y-107970743D01*
X215975042Y-107809860D01*
X215785302Y-107804075D01*
X215355377Y-108234000D01*
X215001823Y-108234000D01*
X214571898Y-107804075D01*
X214382158Y-107809860D01*
X214280472Y-108146930D01*
X214149308Y-108146930D01*
X214131683Y-107970743D01*
X214065042Y-107809860D01*
X213875302Y-107804075D01*
X213445377Y-108234000D01*
X213091823Y-108234000D01*
X212661898Y-107804075D01*
X212472158Y-107809860D01*
X212370472Y-108146930D01*
X211191223Y-108146930D01*
X210885756Y-107841464D01*
X210885756Y-107649086D01*
X210840862Y-107540702D01*
X212838675Y-107540702D01*
X212839995Y-107584000D01*
X212838675Y-107627298D01*
X212841398Y-107630021D01*
X212844460Y-107730442D01*
X212983878Y-107772501D01*
X213268600Y-108057223D01*
X213528394Y-107797429D01*
X213531857Y-107797083D01*
X213692740Y-107730442D01*
X213695802Y-107630021D01*
X213698525Y-107627298D01*
X213697205Y-107584000D01*
X213698525Y-107540702D01*
X214748675Y-107540702D01*
X214749995Y-107584000D01*
X214748675Y-107627298D01*
X214751398Y-107630021D01*
X214754460Y-107730442D01*
X214893878Y-107772501D01*
X215178600Y-108057223D01*
X215438394Y-107797429D01*
X215441857Y-107797083D01*
X215602740Y-107730442D01*
X215605802Y-107630021D01*
X215608525Y-107627298D01*
X215607205Y-107584000D01*
X215608525Y-107540702D01*
X215605802Y-107537979D01*
X215602740Y-107437558D01*
X215463322Y-107395499D01*
X215178600Y-107110777D01*
X214918806Y-107370571D01*
X214915343Y-107370917D01*
X214754460Y-107437558D01*
X214751398Y-107537979D01*
X214748675Y-107540702D01*
X213698525Y-107540702D01*
X213695802Y-107537979D01*
X213692740Y-107437558D01*
X213553322Y-107395499D01*
X213268600Y-107110777D01*
X213008806Y-107370571D01*
X213005343Y-107370917D01*
X212844460Y-107437558D01*
X212841398Y-107537979D01*
X212838675Y-107540702D01*
X210840862Y-107540702D01*
X210728187Y-107268680D01*
X210437036Y-106977529D01*
X210121742Y-106846930D01*
X212370472Y-106846930D01*
X212405517Y-107197257D01*
X212472158Y-107358140D01*
X212661898Y-107363925D01*
X213091823Y-106934000D01*
X213445377Y-106934000D01*
X213875302Y-107363925D01*
X214065042Y-107358140D01*
X214166728Y-107021070D01*
X214149308Y-106846930D01*
X214280472Y-106846930D01*
X214315517Y-107197257D01*
X214382158Y-107358140D01*
X214571898Y-107363925D01*
X215001823Y-106934000D01*
X215355377Y-106934000D01*
X215785302Y-107363925D01*
X215975042Y-107358140D01*
X216076728Y-107021070D01*
X216052506Y-106778926D01*
X217100200Y-106778926D01*
X217100200Y-107190674D01*
X217257769Y-107571080D01*
X217548920Y-107862231D01*
X217929326Y-108019800D01*
X218341074Y-108019800D01*
X218721480Y-107862231D01*
X219012631Y-107571080D01*
X219067205Y-107439326D01*
X220656200Y-107439326D01*
X220656200Y-107851074D01*
X220813769Y-108231480D01*
X221104920Y-108522631D01*
X221485326Y-108680200D01*
X221897074Y-108680200D01*
X222061679Y-108612019D01*
X222348926Y-108731000D01*
X222760674Y-108731000D01*
X223141080Y-108573431D01*
X223432231Y-108282280D01*
X223507847Y-108099726D01*
X227717400Y-108099726D01*
X227717400Y-108511474D01*
X227874969Y-108891880D01*
X228166120Y-109183031D01*
X228546526Y-109340600D01*
X228958274Y-109340600D01*
X229177384Y-109249842D01*
X229040572Y-109580136D01*
X229040572Y-109991884D01*
X229198141Y-110372290D01*
X229489292Y-110663441D01*
X229869698Y-110821010D01*
X230281446Y-110821010D01*
X230661852Y-110663441D01*
X230953003Y-110372290D01*
X231110572Y-109991884D01*
X231110572Y-109580136D01*
X230953003Y-109199730D01*
X230661852Y-108908579D01*
X230281446Y-108751010D01*
X229869698Y-108751010D01*
X229650588Y-108841768D01*
X229787400Y-108511474D01*
X229787400Y-108099726D01*
X229629831Y-107719320D01*
X229338680Y-107428169D01*
X228958274Y-107270600D01*
X228546526Y-107270600D01*
X228166120Y-107428169D01*
X227874969Y-107719320D01*
X227717400Y-108099726D01*
X223507847Y-108099726D01*
X223589800Y-107901874D01*
X223589800Y-107490126D01*
X223432231Y-107109720D01*
X223141080Y-106818569D01*
X222760674Y-106661000D01*
X222348926Y-106661000D01*
X222184321Y-106729181D01*
X221897074Y-106610200D01*
X221485326Y-106610200D01*
X221104920Y-106767769D01*
X220813769Y-107058920D01*
X220656200Y-107439326D01*
X219067205Y-107439326D01*
X219170200Y-107190674D01*
X219170200Y-106778926D01*
X219012631Y-106398520D01*
X218721480Y-106107369D01*
X218341074Y-105949800D01*
X217929326Y-105949800D01*
X217548920Y-106107369D01*
X217257769Y-106398520D01*
X217100200Y-106778926D01*
X216052506Y-106778926D01*
X216041683Y-106670743D01*
X215975042Y-106509860D01*
X215785302Y-106504075D01*
X215355377Y-106934000D01*
X215001823Y-106934000D01*
X214571898Y-106504075D01*
X214382158Y-106509860D01*
X214280472Y-106846930D01*
X214149308Y-106846930D01*
X214131683Y-106670743D01*
X214065042Y-106509860D01*
X213875302Y-106504075D01*
X213445377Y-106934000D01*
X213091823Y-106934000D01*
X212661898Y-106504075D01*
X212472158Y-106509860D01*
X212370472Y-106846930D01*
X210121742Y-106846930D01*
X210056630Y-106819960D01*
X209644882Y-106819960D01*
X209264476Y-106977529D01*
X208973325Y-107268680D01*
X208922843Y-107390556D01*
X208872456Y-107340169D01*
X208492050Y-107182600D01*
X208080302Y-107182600D01*
X207699896Y-107340169D01*
X207408745Y-107631320D01*
X207251176Y-108011726D01*
X207251176Y-108423474D01*
X207408745Y-108803880D01*
X207699896Y-109095031D01*
X208080302Y-109252600D01*
X208492050Y-109252600D01*
X208872456Y-109095031D01*
X209002298Y-108965189D01*
X211258200Y-111221092D01*
X211258200Y-111457874D01*
X211415769Y-111838280D01*
X211706920Y-112129431D01*
X212087326Y-112287000D01*
X212499074Y-112287000D01*
X212879480Y-112129431D01*
X213022511Y-111986400D01*
X213080634Y-112044523D01*
X213093281Y-112108105D01*
X213093281Y-112108106D01*
X213134476Y-112315208D01*
X213170320Y-112368853D01*
X213007164Y-112336399D01*
X213007160Y-112336399D01*
X212919999Y-112319062D01*
X212832838Y-112336399D01*
X212239762Y-112336399D01*
X212152601Y-112319062D01*
X212065440Y-112336399D01*
X212065436Y-112336399D01*
X211807291Y-112387747D01*
X211796193Y-112395162D01*
X211634880Y-112233849D01*
X211254474Y-112076280D01*
X210842726Y-112076280D01*
X210826352Y-112083062D01*
X210727572Y-111984282D01*
X210687959Y-111924997D01*
X210585493Y-111856531D01*
X210585493Y-111556003D01*
X210427924Y-111175597D01*
X210308155Y-111055828D01*
X210331000Y-111000674D01*
X210331000Y-110588926D01*
X210173431Y-110208520D01*
X209882280Y-109917369D01*
X209501874Y-109759800D01*
X209090126Y-109759800D01*
X208709720Y-109917369D01*
X208418569Y-110208520D01*
X208351567Y-110370277D01*
X204221992Y-106240702D01*
X212838675Y-106240702D01*
X212839995Y-106284000D01*
X212838675Y-106327298D01*
X212841398Y-106330021D01*
X212844460Y-106430442D01*
X212983878Y-106472501D01*
X213268600Y-106757223D01*
X213528394Y-106497429D01*
X213531857Y-106497083D01*
X213692740Y-106430442D01*
X213695802Y-106330021D01*
X213698525Y-106327298D01*
X213697205Y-106284000D01*
X213698525Y-106240702D01*
X214748675Y-106240702D01*
X214749995Y-106284000D01*
X214748675Y-106327298D01*
X214751398Y-106330021D01*
X214754460Y-106430442D01*
X214893878Y-106472501D01*
X215178600Y-106757223D01*
X215438394Y-106497429D01*
X215441857Y-106497083D01*
X215602740Y-106430442D01*
X215605802Y-106330021D01*
X215608525Y-106327298D01*
X215607205Y-106284000D01*
X215608525Y-106240702D01*
X215605802Y-106237979D01*
X215602740Y-106137558D01*
X215463322Y-106095499D01*
X215178600Y-105810777D01*
X214918806Y-106070571D01*
X214915343Y-106070917D01*
X214754460Y-106137558D01*
X214751398Y-106237979D01*
X214748675Y-106240702D01*
X213698525Y-106240702D01*
X213695802Y-106237979D01*
X213692740Y-106137558D01*
X213553322Y-106095499D01*
X213268600Y-105810777D01*
X213008806Y-106070571D01*
X213005343Y-106070917D01*
X212844460Y-106137558D01*
X212841398Y-106237979D01*
X212838675Y-106240702D01*
X204221992Y-106240702D01*
X204156118Y-106174828D01*
X204497480Y-106033431D01*
X204788631Y-105742280D01*
X204946200Y-105361874D01*
X204946200Y-104950126D01*
X204904727Y-104850000D01*
X204959000Y-104850000D01*
X204959000Y-105260274D01*
X204959000Y-105260274D01*
G37*
X204959000Y-105260274D02*
X205116569Y-105640680D01*
X205407720Y-105931831D01*
X205788126Y-106089400D01*
X206199874Y-106089400D01*
X206580280Y-105931831D01*
X206871431Y-105640680D01*
X206910263Y-105546930D01*
X212370472Y-105546930D01*
X212405517Y-105897257D01*
X212472158Y-106058140D01*
X212661898Y-106063925D01*
X213091823Y-105634000D01*
X213445377Y-105634000D01*
X213875302Y-106063925D01*
X214065042Y-106058140D01*
X214166728Y-105721070D01*
X214149308Y-105546930D01*
X214280472Y-105546930D01*
X214315517Y-105897257D01*
X214382158Y-106058140D01*
X214571898Y-106063925D01*
X215001823Y-105634000D01*
X215355377Y-105634000D01*
X215785302Y-106063925D01*
X215975042Y-106058140D01*
X216076728Y-105721070D01*
X216041683Y-105370743D01*
X215975042Y-105209860D01*
X215785302Y-105204075D01*
X215355377Y-105634000D01*
X215001823Y-105634000D01*
X214571898Y-105204075D01*
X214382158Y-105209860D01*
X214280472Y-105546930D01*
X214149308Y-105546930D01*
X214131683Y-105370743D01*
X214065042Y-105209860D01*
X213875302Y-105204075D01*
X213445377Y-105634000D01*
X213091823Y-105634000D01*
X212661898Y-105204075D01*
X212472158Y-105209860D01*
X212370472Y-105546930D01*
X206910263Y-105546930D01*
X207029000Y-105260274D01*
X207029000Y-104850000D01*
X212844081Y-104850000D01*
X212838675Y-105027298D01*
X213268600Y-105457223D01*
X213698525Y-105027298D01*
X213693119Y-104850000D01*
X214754081Y-104850000D01*
X214748675Y-105027298D01*
X215178600Y-105457223D01*
X215608525Y-105027298D01*
X215603119Y-104850000D01*
X235485000Y-104850000D01*
X235485001Y-115622000D01*
X226630443Y-115622000D01*
X226714000Y-115420274D01*
X226714000Y-115008526D01*
X226556431Y-114628120D01*
X226265280Y-114336969D01*
X225884874Y-114179400D01*
X225473126Y-114179400D01*
X225092720Y-114336969D01*
X224801569Y-114628120D01*
X224644000Y-115008526D01*
X224644000Y-115420274D01*
X224727557Y-115622000D01*
X223091960Y-115622000D01*
X223091960Y-115290466D01*
X222934391Y-114910060D01*
X222643240Y-114618909D01*
X222262834Y-114461340D01*
X221851086Y-114461340D01*
X221470680Y-114618909D01*
X221179529Y-114910060D01*
X221021960Y-115290466D01*
X221021960Y-115622000D01*
X212575527Y-115622000D01*
X212617000Y-115521874D01*
X212617000Y-115110126D01*
X212615457Y-115106400D01*
X212717872Y-115106400D01*
X212976939Y-114999091D01*
X213016689Y-115025651D01*
X213361999Y-115094337D01*
X213449163Y-115076999D01*
X218003640Y-115076999D01*
X218090801Y-115094336D01*
X218177962Y-115076999D01*
X218177966Y-115076999D01*
X218436111Y-115025651D01*
X218728850Y-114830048D01*
X218743979Y-114807406D01*
X218809550Y-114780246D01*
X218886698Y-114857394D01*
X219267104Y-115014963D01*
X219678852Y-115014963D01*
X220059258Y-114857394D01*
X220350409Y-114566243D01*
X220507978Y-114185837D01*
X220507978Y-113774089D01*
X220350409Y-113393683D01*
X220059258Y-113102532D01*
X219678852Y-112944963D01*
X219646856Y-112944963D01*
X219285829Y-112583936D01*
X225533000Y-112583936D01*
X225533000Y-112995684D01*
X225690569Y-113376090D01*
X225981720Y-113667241D01*
X226362126Y-113824810D01*
X226773874Y-113824810D01*
X227154280Y-113667241D01*
X227412600Y-113408921D01*
X227412600Y-113591474D01*
X227570169Y-113971880D01*
X227861320Y-114263031D01*
X228241726Y-114420600D01*
X228653474Y-114420600D01*
X229033880Y-114263031D01*
X229325031Y-113971880D01*
X229482600Y-113591474D01*
X229482600Y-113179726D01*
X229325031Y-112799320D01*
X229033880Y-112508169D01*
X228653474Y-112350600D01*
X228241726Y-112350600D01*
X227861320Y-112508169D01*
X227603000Y-112766489D01*
X227603000Y-112583936D01*
X227445431Y-112203530D01*
X227154280Y-111912379D01*
X226874999Y-111796697D01*
X229174762Y-111796697D01*
X229174762Y-112208445D01*
X229332331Y-112588851D01*
X229623482Y-112880002D01*
X230003888Y-113037571D01*
X230415636Y-113037571D01*
X230796042Y-112880002D01*
X231087193Y-112588851D01*
X231244762Y-112208445D01*
X231244762Y-111796697D01*
X231087193Y-111416291D01*
X230796042Y-111125140D01*
X230415636Y-110967571D01*
X230003888Y-110967571D01*
X229623482Y-111125140D01*
X229332331Y-111416291D01*
X229174762Y-111796697D01*
X226874999Y-111796697D01*
X226773874Y-111754810D01*
X226362126Y-111754810D01*
X225981720Y-111912379D01*
X225690569Y-112203530D01*
X225533000Y-112583936D01*
X219285829Y-112583936D01*
X218687476Y-111985584D01*
X218647863Y-111926299D01*
X218413010Y-111769375D01*
X218205908Y-111728180D01*
X218205906Y-111728180D01*
X218135982Y-111714271D01*
X218066058Y-111728180D01*
X214520248Y-111728180D01*
X214472086Y-111486050D01*
X214354772Y-111310478D01*
X214354771Y-111310477D01*
X214315162Y-111251198D01*
X214255883Y-111211589D01*
X213633220Y-110588926D01*
X218624200Y-110588926D01*
X218624200Y-111000674D01*
X218781769Y-111381080D01*
X219072920Y-111672231D01*
X219453326Y-111829800D01*
X219865074Y-111829800D01*
X220245480Y-111672231D01*
X220536631Y-111381080D01*
X220694200Y-111000674D01*
X220694200Y-110588926D01*
X220536631Y-110208520D01*
X220245480Y-109917369D01*
X219865074Y-109759800D01*
X219453326Y-109759800D01*
X219072920Y-109917369D01*
X218781769Y-110208520D01*
X218624200Y-110588926D01*
X213633220Y-110588926D01*
X211884996Y-108840702D01*
X212838675Y-108840702D01*
X212844460Y-109030442D01*
X213181530Y-109132128D01*
X213531857Y-109097083D01*
X213692740Y-109030442D01*
X213698525Y-108840702D01*
X214748675Y-108840702D01*
X214754460Y-109030442D01*
X215091530Y-109132128D01*
X215441857Y-109097083D01*
X215602740Y-109030442D01*
X215608525Y-108840702D01*
X215178600Y-108410777D01*
X214748675Y-108840702D01*
X213698525Y-108840702D01*
X213268600Y-108410777D01*
X212838675Y-108840702D01*
X211884996Y-108840702D01*
X211191223Y-108146930D01*
X212370472Y-108146930D01*
X212405517Y-108497257D01*
X212472158Y-108658140D01*
X212661898Y-108663925D01*
X213091823Y-108234000D01*
X213445377Y-108234000D01*
X213875302Y-108663925D01*
X214065042Y-108658140D01*
X214166728Y-108321070D01*
X214149308Y-108146930D01*
X214280472Y-108146930D01*
X214315517Y-108497257D01*
X214382158Y-108658140D01*
X214571898Y-108663925D01*
X215001823Y-108234000D01*
X215355377Y-108234000D01*
X215785302Y-108663925D01*
X215975042Y-108658140D01*
X216076728Y-108321070D01*
X216041683Y-107970743D01*
X215975042Y-107809860D01*
X215785302Y-107804075D01*
X215355377Y-108234000D01*
X215001823Y-108234000D01*
X214571898Y-107804075D01*
X214382158Y-107809860D01*
X214280472Y-108146930D01*
X214149308Y-108146930D01*
X214131683Y-107970743D01*
X214065042Y-107809860D01*
X213875302Y-107804075D01*
X213445377Y-108234000D01*
X213091823Y-108234000D01*
X212661898Y-107804075D01*
X212472158Y-107809860D01*
X212370472Y-108146930D01*
X211191223Y-108146930D01*
X210885756Y-107841464D01*
X210885756Y-107649086D01*
X210840862Y-107540702D01*
X212838675Y-107540702D01*
X212839995Y-107584000D01*
X212838675Y-107627298D01*
X212841398Y-107630021D01*
X212844460Y-107730442D01*
X212983878Y-107772501D01*
X213268600Y-108057223D01*
X213528394Y-107797429D01*
X213531857Y-107797083D01*
X213692740Y-107730442D01*
X213695802Y-107630021D01*
X213698525Y-107627298D01*
X213697205Y-107584000D01*
X213698525Y-107540702D01*
X214748675Y-107540702D01*
X214749995Y-107584000D01*
X214748675Y-107627298D01*
X214751398Y-107630021D01*
X214754460Y-107730442D01*
X214893878Y-107772501D01*
X215178600Y-108057223D01*
X215438394Y-107797429D01*
X215441857Y-107797083D01*
X215602740Y-107730442D01*
X215605802Y-107630021D01*
X215608525Y-107627298D01*
X215607205Y-107584000D01*
X215608525Y-107540702D01*
X215605802Y-107537979D01*
X215602740Y-107437558D01*
X215463322Y-107395499D01*
X215178600Y-107110777D01*
X214918806Y-107370571D01*
X214915343Y-107370917D01*
X214754460Y-107437558D01*
X214751398Y-107537979D01*
X214748675Y-107540702D01*
X213698525Y-107540702D01*
X213695802Y-107537979D01*
X213692740Y-107437558D01*
X213553322Y-107395499D01*
X213268600Y-107110777D01*
X213008806Y-107370571D01*
X213005343Y-107370917D01*
X212844460Y-107437558D01*
X212841398Y-107537979D01*
X212838675Y-107540702D01*
X210840862Y-107540702D01*
X210728187Y-107268680D01*
X210437036Y-106977529D01*
X210121742Y-106846930D01*
X212370472Y-106846930D01*
X212405517Y-107197257D01*
X212472158Y-107358140D01*
X212661898Y-107363925D01*
X213091823Y-106934000D01*
X213445377Y-106934000D01*
X213875302Y-107363925D01*
X214065042Y-107358140D01*
X214166728Y-107021070D01*
X214149308Y-106846930D01*
X214280472Y-106846930D01*
X214315517Y-107197257D01*
X214382158Y-107358140D01*
X214571898Y-107363925D01*
X215001823Y-106934000D01*
X215355377Y-106934000D01*
X215785302Y-107363925D01*
X215975042Y-107358140D01*
X216076728Y-107021070D01*
X216052506Y-106778926D01*
X217100200Y-106778926D01*
X217100200Y-107190674D01*
X217257769Y-107571080D01*
X217548920Y-107862231D01*
X217929326Y-108019800D01*
X218341074Y-108019800D01*
X218721480Y-107862231D01*
X219012631Y-107571080D01*
X219067205Y-107439326D01*
X220656200Y-107439326D01*
X220656200Y-107851074D01*
X220813769Y-108231480D01*
X221104920Y-108522631D01*
X221485326Y-108680200D01*
X221897074Y-108680200D01*
X222061679Y-108612019D01*
X222348926Y-108731000D01*
X222760674Y-108731000D01*
X223141080Y-108573431D01*
X223432231Y-108282280D01*
X223507847Y-108099726D01*
X227717400Y-108099726D01*
X227717400Y-108511474D01*
X227874969Y-108891880D01*
X228166120Y-109183031D01*
X228546526Y-109340600D01*
X228958274Y-109340600D01*
X229177384Y-109249842D01*
X229040572Y-109580136D01*
X229040572Y-109991884D01*
X229198141Y-110372290D01*
X229489292Y-110663441D01*
X229869698Y-110821010D01*
X230281446Y-110821010D01*
X230661852Y-110663441D01*
X230953003Y-110372290D01*
X231110572Y-109991884D01*
X231110572Y-109580136D01*
X230953003Y-109199730D01*
X230661852Y-108908579D01*
X230281446Y-108751010D01*
X229869698Y-108751010D01*
X229650588Y-108841768D01*
X229787400Y-108511474D01*
X229787400Y-108099726D01*
X229629831Y-107719320D01*
X229338680Y-107428169D01*
X228958274Y-107270600D01*
X228546526Y-107270600D01*
X228166120Y-107428169D01*
X227874969Y-107719320D01*
X227717400Y-108099726D01*
X223507847Y-108099726D01*
X223589800Y-107901874D01*
X223589800Y-107490126D01*
X223432231Y-107109720D01*
X223141080Y-106818569D01*
X222760674Y-106661000D01*
X222348926Y-106661000D01*
X222184321Y-106729181D01*
X221897074Y-106610200D01*
X221485326Y-106610200D01*
X221104920Y-106767769D01*
X220813769Y-107058920D01*
X220656200Y-107439326D01*
X219067205Y-107439326D01*
X219170200Y-107190674D01*
X219170200Y-106778926D01*
X219012631Y-106398520D01*
X218721480Y-106107369D01*
X218341074Y-105949800D01*
X217929326Y-105949800D01*
X217548920Y-106107369D01*
X217257769Y-106398520D01*
X217100200Y-106778926D01*
X216052506Y-106778926D01*
X216041683Y-106670743D01*
X215975042Y-106509860D01*
X215785302Y-106504075D01*
X215355377Y-106934000D01*
X215001823Y-106934000D01*
X214571898Y-106504075D01*
X214382158Y-106509860D01*
X214280472Y-106846930D01*
X214149308Y-106846930D01*
X214131683Y-106670743D01*
X214065042Y-106509860D01*
X213875302Y-106504075D01*
X213445377Y-106934000D01*
X213091823Y-106934000D01*
X212661898Y-106504075D01*
X212472158Y-106509860D01*
X212370472Y-106846930D01*
X210121742Y-106846930D01*
X210056630Y-106819960D01*
X209644882Y-106819960D01*
X209264476Y-106977529D01*
X208973325Y-107268680D01*
X208922843Y-107390556D01*
X208872456Y-107340169D01*
X208492050Y-107182600D01*
X208080302Y-107182600D01*
X207699896Y-107340169D01*
X207408745Y-107631320D01*
X207251176Y-108011726D01*
X207251176Y-108423474D01*
X207408745Y-108803880D01*
X207699896Y-109095031D01*
X208080302Y-109252600D01*
X208492050Y-109252600D01*
X208872456Y-109095031D01*
X209002298Y-108965189D01*
X211258200Y-111221092D01*
X211258200Y-111457874D01*
X211415769Y-111838280D01*
X211706920Y-112129431D01*
X212087326Y-112287000D01*
X212499074Y-112287000D01*
X212879480Y-112129431D01*
X213022511Y-111986400D01*
X213080634Y-112044523D01*
X213093281Y-112108105D01*
X213093281Y-112108106D01*
X213134476Y-112315208D01*
X213170320Y-112368853D01*
X213007164Y-112336399D01*
X213007160Y-112336399D01*
X212919999Y-112319062D01*
X212832838Y-112336399D01*
X212239762Y-112336399D01*
X212152601Y-112319062D01*
X212065440Y-112336399D01*
X212065436Y-112336399D01*
X211807291Y-112387747D01*
X211796193Y-112395162D01*
X211634880Y-112233849D01*
X211254474Y-112076280D01*
X210842726Y-112076280D01*
X210826352Y-112083062D01*
X210727572Y-111984282D01*
X210687959Y-111924997D01*
X210585493Y-111856531D01*
X210585493Y-111556003D01*
X210427924Y-111175597D01*
X210308155Y-111055828D01*
X210331000Y-111000674D01*
X210331000Y-110588926D01*
X210173431Y-110208520D01*
X209882280Y-109917369D01*
X209501874Y-109759800D01*
X209090126Y-109759800D01*
X208709720Y-109917369D01*
X208418569Y-110208520D01*
X208351567Y-110370277D01*
X204221992Y-106240702D01*
X212838675Y-106240702D01*
X212839995Y-106284000D01*
X212838675Y-106327298D01*
X212841398Y-106330021D01*
X212844460Y-106430442D01*
X212983878Y-106472501D01*
X213268600Y-106757223D01*
X213528394Y-106497429D01*
X213531857Y-106497083D01*
X213692740Y-106430442D01*
X213695802Y-106330021D01*
X213698525Y-106327298D01*
X213697205Y-106284000D01*
X213698525Y-106240702D01*
X214748675Y-106240702D01*
X214749995Y-106284000D01*
X214748675Y-106327298D01*
X214751398Y-106330021D01*
X214754460Y-106430442D01*
X214893878Y-106472501D01*
X215178600Y-106757223D01*
X215438394Y-106497429D01*
X215441857Y-106497083D01*
X215602740Y-106430442D01*
X215605802Y-106330021D01*
X215608525Y-106327298D01*
X215607205Y-106284000D01*
X215608525Y-106240702D01*
X215605802Y-106237979D01*
X215602740Y-106137558D01*
X215463322Y-106095499D01*
X215178600Y-105810777D01*
X214918806Y-106070571D01*
X214915343Y-106070917D01*
X214754460Y-106137558D01*
X214751398Y-106237979D01*
X214748675Y-106240702D01*
X213698525Y-106240702D01*
X213695802Y-106237979D01*
X213692740Y-106137558D01*
X213553322Y-106095499D01*
X213268600Y-105810777D01*
X213008806Y-106070571D01*
X213005343Y-106070917D01*
X212844460Y-106137558D01*
X212841398Y-106237979D01*
X212838675Y-106240702D01*
X204221992Y-106240702D01*
X204156118Y-106174828D01*
X204497480Y-106033431D01*
X204788631Y-105742280D01*
X204946200Y-105361874D01*
X204946200Y-104950126D01*
X204904727Y-104850000D01*
X204959000Y-104850000D01*
X204959000Y-105260274D01*
G36*
X202311000Y-89687283D02*
X202304600Y-89684632D01*
X202304600Y-89632137D01*
X202147031Y-89251731D01*
X201855880Y-88960580D01*
X201677046Y-88886505D01*
X201796600Y-88597874D01*
X201796600Y-88186126D01*
X201639031Y-87805720D01*
X201347880Y-87514569D01*
X200967474Y-87357000D01*
X200555726Y-87357000D01*
X200175320Y-87514569D01*
X199884169Y-87805720D01*
X199726600Y-88186126D01*
X199726600Y-88597874D01*
X199884169Y-88978280D01*
X200175320Y-89269431D01*
X200354154Y-89343506D01*
X200234600Y-89632137D01*
X200234600Y-90043885D01*
X200392169Y-90424291D01*
X200683320Y-90715442D01*
X200845906Y-90782787D01*
X200845906Y-90835282D01*
X201003475Y-91215688D01*
X201294626Y-91506839D01*
X201675032Y-91664408D01*
X202086780Y-91664408D01*
X202311000Y-91571533D01*
X202311000Y-98061283D01*
X202160829Y-97960942D01*
X202138071Y-97956415D01*
X201994631Y-97610120D01*
X201703480Y-97318969D01*
X201323074Y-97161400D01*
X200911326Y-97161400D01*
X200530920Y-97318969D01*
X200239769Y-97610120D01*
X200082200Y-97990526D01*
X200082200Y-98288489D01*
X199976280Y-98182569D01*
X199595874Y-98025000D01*
X199524684Y-98025000D01*
X199663000Y-97691074D01*
X199663000Y-97279326D01*
X199505431Y-96898920D01*
X199214280Y-96607769D01*
X198833874Y-96450200D01*
X198422126Y-96450200D01*
X198041720Y-96607769D01*
X197750569Y-96898920D01*
X197593000Y-97279326D01*
X197593000Y-97691074D01*
X197668688Y-97873801D01*
X197576769Y-97965720D01*
X197419200Y-98346126D01*
X197419200Y-98757874D01*
X197576769Y-99138280D01*
X197867920Y-99429431D01*
X198248326Y-99587000D01*
X198488014Y-99587000D01*
X198512569Y-99646280D01*
X198803720Y-99937431D01*
X199184126Y-100095000D01*
X199595874Y-100095000D01*
X199976280Y-99937431D01*
X200267431Y-99646280D01*
X200425000Y-99265874D01*
X200425000Y-98967911D01*
X200439936Y-98982847D01*
X200448395Y-99025374D01*
X200524800Y-99139721D01*
X200524800Y-99510622D01*
X200682369Y-99891028D01*
X200973520Y-100182179D01*
X201259787Y-100300754D01*
X201047919Y-100442320D01*
X200890995Y-100677173D01*
X200835891Y-100954201D01*
X200849800Y-101024127D01*
X200849801Y-104595112D01*
X200831184Y-104622974D01*
X200794220Y-104808805D01*
X200776080Y-104900001D01*
X200789989Y-104969926D01*
X200789990Y-107493668D01*
X200776080Y-107563597D01*
X200811782Y-107743079D01*
X200831185Y-107840625D01*
X200843990Y-107859789D01*
X200809726Y-107859789D01*
X200429320Y-108017358D01*
X200138169Y-108308509D01*
X199980600Y-108688915D01*
X199980600Y-109100663D01*
X200138169Y-109481069D01*
X200429320Y-109772220D01*
X200809726Y-109929789D01*
X201221474Y-109929789D01*
X201601880Y-109772220D01*
X201893031Y-109481069D01*
X202045435Y-109113133D01*
X204146200Y-111213900D01*
X204146200Y-111450682D01*
X204303769Y-111831088D01*
X204594920Y-112122239D01*
X204975326Y-112279808D01*
X205387074Y-112279808D01*
X205767480Y-112122239D01*
X205825232Y-112064487D01*
X205721000Y-112316126D01*
X205721000Y-112727874D01*
X205858975Y-113060977D01*
X205853663Y-113087685D01*
X205871000Y-113174846D01*
X205871000Y-113174849D01*
X205922348Y-113432994D01*
X206117951Y-113725734D01*
X206191847Y-113775110D01*
X207881596Y-115464860D01*
X207930970Y-115538753D01*
X208004863Y-115588127D01*
X208004864Y-115588128D01*
X208055557Y-115622000D01*
X200607769Y-115622000D01*
X200628200Y-115572674D01*
X200628200Y-115160926D01*
X200510926Y-114877800D01*
X200738874Y-114877800D01*
X201119280Y-114720231D01*
X201410431Y-114429080D01*
X201568000Y-114048674D01*
X201568000Y-113636926D01*
X201410431Y-113256520D01*
X201119280Y-112965369D01*
X200738874Y-112807800D01*
X200415511Y-112807800D01*
X200673831Y-112549480D01*
X200831400Y-112169074D01*
X200831400Y-111757326D01*
X200673831Y-111376920D01*
X200382680Y-111085769D01*
X200286974Y-111046126D01*
X201403000Y-111046126D01*
X201403000Y-111457874D01*
X201560569Y-111838280D01*
X201851720Y-112129431D01*
X202232126Y-112287000D01*
X202643874Y-112287000D01*
X203024280Y-112129431D01*
X203315431Y-111838280D01*
X203473000Y-111457874D01*
X203473000Y-111046126D01*
X203315431Y-110665720D01*
X203024280Y-110374569D01*
X202643874Y-110217000D01*
X202232126Y-110217000D01*
X201851720Y-110374569D01*
X201560569Y-110665720D01*
X201403000Y-111046126D01*
X200286974Y-111046126D01*
X200002274Y-110928200D01*
X199590526Y-110928200D01*
X199210120Y-111085769D01*
X198983166Y-111312723D01*
X198946631Y-111224520D01*
X198655480Y-110933369D01*
X198275074Y-110775800D01*
X197863326Y-110775800D01*
X197482920Y-110933369D01*
X197191769Y-111224520D01*
X197131672Y-111369607D01*
X196801874Y-111233000D01*
X196390126Y-111233000D01*
X196009720Y-111390569D01*
X195718569Y-111681720D01*
X195561000Y-112062126D01*
X195561000Y-112473874D01*
X195718569Y-112854280D01*
X196009720Y-113145431D01*
X196390126Y-113303000D01*
X196801874Y-113303000D01*
X197182280Y-113145431D01*
X197473431Y-112854280D01*
X197533528Y-112709193D01*
X197863326Y-112845800D01*
X198275074Y-112845800D01*
X198655480Y-112688231D01*
X198882434Y-112461277D01*
X198918969Y-112549480D01*
X199210120Y-112840631D01*
X199590526Y-112998200D01*
X199913889Y-112998200D01*
X199655569Y-113256520D01*
X199498000Y-113636926D01*
X199498000Y-114048674D01*
X199615274Y-114331800D01*
X199387326Y-114331800D01*
X199006920Y-114489369D01*
X198715769Y-114780520D01*
X198558200Y-115160926D01*
X198558200Y-115572674D01*
X198578631Y-115622000D01*
X188355711Y-115622000D01*
X188583431Y-115394280D01*
X188741000Y-115013874D01*
X188741000Y-114602126D01*
X188583431Y-114221720D01*
X188292280Y-113930569D01*
X188073931Y-113840126D01*
X189465000Y-113840126D01*
X189465000Y-114251874D01*
X189622569Y-114632280D01*
X189913720Y-114923431D01*
X190294126Y-115081000D01*
X190705874Y-115081000D01*
X191086280Y-114923431D01*
X191377431Y-114632280D01*
X191535000Y-114251874D01*
X191535000Y-113840126D01*
X191377431Y-113459720D01*
X191086280Y-113168569D01*
X190705874Y-113011000D01*
X190294126Y-113011000D01*
X189913720Y-113168569D01*
X189622569Y-113459720D01*
X189465000Y-113840126D01*
X188073931Y-113840126D01*
X187911874Y-113773000D01*
X187500126Y-113773000D01*
X187119720Y-113930569D01*
X186828569Y-114221720D01*
X186671000Y-114602126D01*
X186671000Y-115013874D01*
X186828569Y-115394280D01*
X187056289Y-115622000D01*
X185622000Y-115622000D01*
X185622000Y-110013238D01*
X190941639Y-110013238D01*
X190941639Y-110424986D01*
X191099208Y-110805392D01*
X191390359Y-111096543D01*
X191770765Y-111254112D01*
X192182513Y-111254112D01*
X192562919Y-111096543D01*
X192594662Y-111064800D01*
X192714569Y-111354280D01*
X193005720Y-111645431D01*
X193386126Y-111803000D01*
X193797874Y-111803000D01*
X194178280Y-111645431D01*
X194469431Y-111354280D01*
X194627000Y-110973874D01*
X194627000Y-110706035D01*
X194764526Y-110763000D01*
X195176274Y-110763000D01*
X195556680Y-110605431D01*
X195847831Y-110314280D01*
X196005400Y-109933874D01*
X196005400Y-109522126D01*
X195847831Y-109141720D01*
X195684323Y-108978212D01*
X195751400Y-108816274D01*
X195751400Y-108404526D01*
X195593831Y-108024120D01*
X195589511Y-108019800D01*
X195887474Y-108019800D01*
X196267880Y-107862231D01*
X196559031Y-107571080D01*
X196716600Y-107190674D01*
X196716600Y-106778926D01*
X196594769Y-106484798D01*
X196716600Y-106190671D01*
X196716600Y-105778923D01*
X196676307Y-105681646D01*
X197567600Y-105681646D01*
X197567600Y-106093394D01*
X197725169Y-106473800D01*
X198016320Y-106764951D01*
X198396726Y-106922520D01*
X198808474Y-106922520D01*
X199188880Y-106764951D01*
X199480031Y-106473800D01*
X199637600Y-106093394D01*
X199637600Y-105681646D01*
X199480031Y-105301240D01*
X199188880Y-105010089D01*
X198808474Y-104852520D01*
X198396726Y-104852520D01*
X198016320Y-105010089D01*
X197725169Y-105301240D01*
X197567600Y-105681646D01*
X196676307Y-105681646D01*
X196559031Y-105398517D01*
X196311714Y-105151200D01*
X196559031Y-104903882D01*
X196573189Y-104869700D01*
X196670120Y-104966631D01*
X197050526Y-105124200D01*
X197462274Y-105124200D01*
X197842680Y-104966631D01*
X198133831Y-104675480D01*
X198291400Y-104295074D01*
X198291400Y-103883326D01*
X198133831Y-103502920D01*
X197842680Y-103211769D01*
X197462274Y-103054200D01*
X197050526Y-103054200D01*
X196670120Y-103211769D01*
X196378969Y-103502920D01*
X196364811Y-103537102D01*
X196267880Y-103440171D01*
X195887474Y-103282602D01*
X195475726Y-103282602D01*
X195095320Y-103440171D01*
X194804169Y-103731322D01*
X194646600Y-104111728D01*
X194646600Y-104523476D01*
X194804169Y-104903882D01*
X195051487Y-105151200D01*
X194804169Y-105398517D01*
X194646600Y-105778923D01*
X194646600Y-106190671D01*
X194768431Y-106484798D01*
X194646600Y-106778926D01*
X194646600Y-107190674D01*
X194804169Y-107571080D01*
X194808489Y-107575400D01*
X194510526Y-107575400D01*
X194130120Y-107732969D01*
X193838969Y-108024120D01*
X193681400Y-108404526D01*
X193681400Y-108816274D01*
X193838969Y-109196680D01*
X194002477Y-109360188D01*
X193935400Y-109522126D01*
X193935400Y-109789965D01*
X193797874Y-109733000D01*
X193386126Y-109733000D01*
X193005720Y-109890569D01*
X192973977Y-109922312D01*
X192854070Y-109632832D01*
X192562919Y-109341681D01*
X192182513Y-109184112D01*
X191770765Y-109184112D01*
X191390359Y-109341681D01*
X191099208Y-109632832D01*
X190941639Y-110013238D01*
X185622000Y-110013238D01*
X185622000Y-105524926D01*
X186264600Y-105524926D01*
X186264600Y-105936674D01*
X186422169Y-106317080D01*
X186713320Y-106608231D01*
X187093726Y-106765800D01*
X187505474Y-106765800D01*
X187885880Y-106608231D01*
X188177031Y-106317080D01*
X188334465Y-105937000D01*
X188572274Y-105937000D01*
X188952680Y-105779431D01*
X189243831Y-105488280D01*
X189401400Y-105107874D01*
X189401400Y-104696126D01*
X189243831Y-104315720D01*
X188952680Y-104024569D01*
X188572274Y-103867000D01*
X188160526Y-103867000D01*
X188009600Y-103929515D01*
X188009600Y-103807492D01*
X189277386Y-102539707D01*
X190548331Y-102539707D01*
X190548331Y-102951455D01*
X190705900Y-103331861D01*
X190997051Y-103623012D01*
X191377457Y-103780581D01*
X191789205Y-103780581D01*
X192169611Y-103623012D01*
X192460762Y-103331861D01*
X192618331Y-102951455D01*
X192618331Y-102539707D01*
X192606741Y-102511726D01*
X193173400Y-102511726D01*
X193173400Y-102923474D01*
X193330969Y-103303880D01*
X193622120Y-103595031D01*
X194002526Y-103752600D01*
X194414274Y-103752600D01*
X194794680Y-103595031D01*
X195085831Y-103303880D01*
X195243400Y-102923474D01*
X195243400Y-102511726D01*
X195085831Y-102131320D01*
X194794680Y-101840169D01*
X194414274Y-101682600D01*
X194002526Y-101682600D01*
X193622120Y-101840169D01*
X193330969Y-102131320D01*
X193173400Y-102511726D01*
X192606741Y-102511726D01*
X192460762Y-102159301D01*
X192169611Y-101868150D01*
X191789205Y-101710581D01*
X191377457Y-101710581D01*
X190997051Y-101868150D01*
X190705900Y-102159301D01*
X190548331Y-102539707D01*
X189277386Y-102539707D01*
X189494005Y-102323089D01*
X189553281Y-102283482D01*
X189592889Y-102224205D01*
X189592892Y-102224202D01*
X189710206Y-102048629D01*
X189765310Y-101771601D01*
X189751401Y-101701675D01*
X189751401Y-101444926D01*
X196780200Y-101444926D01*
X196780200Y-101856674D01*
X196937769Y-102237080D01*
X197228920Y-102528231D01*
X197609326Y-102685800D01*
X198021074Y-102685800D01*
X198401480Y-102528231D01*
X198692631Y-102237080D01*
X198850200Y-101856674D01*
X198850200Y-101444926D01*
X198692631Y-101064520D01*
X198401480Y-100773369D01*
X198021074Y-100615800D01*
X197609326Y-100615800D01*
X197228920Y-100773369D01*
X196937769Y-101064520D01*
X196780200Y-101444926D01*
X189751401Y-101444926D01*
X189751401Y-100806200D01*
X189943874Y-100806200D01*
X190324280Y-100648631D01*
X190615431Y-100357480D01*
X190773000Y-99977074D01*
X190773000Y-99866809D01*
X190910281Y-99775081D01*
X191067205Y-99540228D01*
X191086481Y-99443319D01*
X191108400Y-99333126D01*
X191108400Y-99333125D01*
X191122309Y-99263200D01*
X191108400Y-99193274D01*
X191108400Y-98601570D01*
X191402524Y-98723400D01*
X191814272Y-98723400D01*
X192194678Y-98565831D01*
X192485829Y-98274680D01*
X192643398Y-97894274D01*
X192643398Y-97482526D01*
X192485829Y-97102120D01*
X192194678Y-96810969D01*
X191814272Y-96653400D01*
X191789000Y-96653400D01*
X191789000Y-96638124D01*
X191635085Y-96266539D01*
X191848280Y-96178231D01*
X192139431Y-95887080D01*
X192297000Y-95506674D01*
X192297000Y-95399726D01*
X198609000Y-95399726D01*
X198609000Y-95811474D01*
X198766569Y-96191880D01*
X199057720Y-96483031D01*
X199438126Y-96640600D01*
X199849874Y-96640600D01*
X200230280Y-96483031D01*
X200521431Y-96191880D01*
X200679000Y-95811474D01*
X200679000Y-95399726D01*
X200521431Y-95019320D01*
X200230280Y-94728169D01*
X199849874Y-94570600D01*
X199438126Y-94570600D01*
X199057720Y-94728169D01*
X198766569Y-95019320D01*
X198609000Y-95399726D01*
X192297000Y-95399726D01*
X192297000Y-95094926D01*
X192139431Y-94714520D01*
X191848280Y-94423369D01*
X191775035Y-94393030D01*
X191839800Y-94236674D01*
X191839800Y-93824926D01*
X191682231Y-93444520D01*
X191571064Y-93333353D01*
X191745694Y-93261019D01*
X192036845Y-92969868D01*
X192194414Y-92589462D01*
X192194414Y-92177714D01*
X192036845Y-91797308D01*
X191745694Y-91506157D01*
X191365288Y-91348588D01*
X190953540Y-91348588D01*
X190573134Y-91506157D01*
X190281983Y-91797308D01*
X190124414Y-92177714D01*
X190124414Y-92589462D01*
X190281983Y-92969868D01*
X190393150Y-93081035D01*
X190218520Y-93153369D01*
X189927369Y-93444520D01*
X189889200Y-93536668D01*
X189889200Y-91425318D01*
X189903108Y-91355397D01*
X189889200Y-91285477D01*
X189889200Y-91285472D01*
X189848005Y-91078370D01*
X189787600Y-90987968D01*
X189787600Y-90923711D01*
X189955031Y-90756280D01*
X190112600Y-90375874D01*
X190112600Y-89964126D01*
X189955031Y-89583720D01*
X189663880Y-89292569D01*
X189283474Y-89135000D01*
X188871726Y-89135000D01*
X188491320Y-89292569D01*
X188441738Y-89342151D01*
X188064274Y-89185800D01*
X187652526Y-89185800D01*
X187272120Y-89343369D01*
X186980969Y-89634520D01*
X186823400Y-90014926D01*
X186823400Y-90426674D01*
X186980969Y-90807080D01*
X187032200Y-90858311D01*
X187032199Y-91897276D01*
X187018290Y-91967201D01*
X187032199Y-92037125D01*
X187032199Y-92037126D01*
X187073394Y-92244228D01*
X187230318Y-92479081D01*
X187289600Y-92518692D01*
X188062801Y-93291894D01*
X188062800Y-96286863D01*
X188048891Y-96356788D01*
X188062800Y-96426712D01*
X188062800Y-96426713D01*
X188103995Y-96633815D01*
X188260919Y-96868668D01*
X188320202Y-96908280D01*
X188331402Y-96919480D01*
X188331401Y-101477509D01*
X186847002Y-102961910D01*
X186787720Y-103001521D01*
X186748110Y-103060802D01*
X186630796Y-103236374D01*
X186575691Y-103513402D01*
X186589601Y-103583331D01*
X186589600Y-104977089D01*
X186422169Y-105144520D01*
X186264600Y-105524926D01*
X185622000Y-105524926D01*
X185622000Y-87932126D01*
X196018200Y-87932126D01*
X196018200Y-88343874D01*
X196175769Y-88724280D01*
X196466920Y-89015431D01*
X196847326Y-89173000D01*
X197259074Y-89173000D01*
X197639480Y-89015431D01*
X197930631Y-88724280D01*
X198088200Y-88343874D01*
X198088200Y-87932126D01*
X197930631Y-87551720D01*
X197639480Y-87260569D01*
X197259074Y-87103000D01*
X196847326Y-87103000D01*
X196466920Y-87260569D01*
X196175769Y-87551720D01*
X196018200Y-87932126D01*
X185622000Y-87932126D01*
X185622000Y-85188926D01*
X195916600Y-85188926D01*
X195916600Y-85600674D01*
X196074169Y-85981080D01*
X196365320Y-86272231D01*
X196745726Y-86429800D01*
X197157474Y-86429800D01*
X197537880Y-86272231D01*
X197829031Y-85981080D01*
X197986600Y-85600674D01*
X197986600Y-85188926D01*
X197829031Y-84808520D01*
X197537880Y-84517369D01*
X197157474Y-84359800D01*
X196745726Y-84359800D01*
X196365320Y-84517369D01*
X196074169Y-84808520D01*
X195916600Y-85188926D01*
X185622000Y-85188926D01*
X185622000Y-79450000D01*
X202311000Y-79450000D01*
X202311000Y-89687283D01*
X202311000Y-89687283D01*
G37*
X202311000Y-89687283D02*
X202304600Y-89684632D01*
X202304600Y-89632137D01*
X202147031Y-89251731D01*
X201855880Y-88960580D01*
X201677046Y-88886505D01*
X201796600Y-88597874D01*
X201796600Y-88186126D01*
X201639031Y-87805720D01*
X201347880Y-87514569D01*
X200967474Y-87357000D01*
X200555726Y-87357000D01*
X200175320Y-87514569D01*
X199884169Y-87805720D01*
X199726600Y-88186126D01*
X199726600Y-88597874D01*
X199884169Y-88978280D01*
X200175320Y-89269431D01*
X200354154Y-89343506D01*
X200234600Y-89632137D01*
X200234600Y-90043885D01*
X200392169Y-90424291D01*
X200683320Y-90715442D01*
X200845906Y-90782787D01*
X200845906Y-90835282D01*
X201003475Y-91215688D01*
X201294626Y-91506839D01*
X201675032Y-91664408D01*
X202086780Y-91664408D01*
X202311000Y-91571533D01*
X202311000Y-98061283D01*
X202160829Y-97960942D01*
X202138071Y-97956415D01*
X201994631Y-97610120D01*
X201703480Y-97318969D01*
X201323074Y-97161400D01*
X200911326Y-97161400D01*
X200530920Y-97318969D01*
X200239769Y-97610120D01*
X200082200Y-97990526D01*
X200082200Y-98288489D01*
X199976280Y-98182569D01*
X199595874Y-98025000D01*
X199524684Y-98025000D01*
X199663000Y-97691074D01*
X199663000Y-97279326D01*
X199505431Y-96898920D01*
X199214280Y-96607769D01*
X198833874Y-96450200D01*
X198422126Y-96450200D01*
X198041720Y-96607769D01*
X197750569Y-96898920D01*
X197593000Y-97279326D01*
X197593000Y-97691074D01*
X197668688Y-97873801D01*
X197576769Y-97965720D01*
X197419200Y-98346126D01*
X197419200Y-98757874D01*
X197576769Y-99138280D01*
X197867920Y-99429431D01*
X198248326Y-99587000D01*
X198488014Y-99587000D01*
X198512569Y-99646280D01*
X198803720Y-99937431D01*
X199184126Y-100095000D01*
X199595874Y-100095000D01*
X199976280Y-99937431D01*
X200267431Y-99646280D01*
X200425000Y-99265874D01*
X200425000Y-98967911D01*
X200439936Y-98982847D01*
X200448395Y-99025374D01*
X200524800Y-99139721D01*
X200524800Y-99510622D01*
X200682369Y-99891028D01*
X200973520Y-100182179D01*
X201259787Y-100300754D01*
X201047919Y-100442320D01*
X200890995Y-100677173D01*
X200835891Y-100954201D01*
X200849800Y-101024127D01*
X200849801Y-104595112D01*
X200831184Y-104622974D01*
X200794220Y-104808805D01*
X200776080Y-104900001D01*
X200789989Y-104969926D01*
X200789990Y-107493668D01*
X200776080Y-107563597D01*
X200811782Y-107743079D01*
X200831185Y-107840625D01*
X200843990Y-107859789D01*
X200809726Y-107859789D01*
X200429320Y-108017358D01*
X200138169Y-108308509D01*
X199980600Y-108688915D01*
X199980600Y-109100663D01*
X200138169Y-109481069D01*
X200429320Y-109772220D01*
X200809726Y-109929789D01*
X201221474Y-109929789D01*
X201601880Y-109772220D01*
X201893031Y-109481069D01*
X202045435Y-109113133D01*
X204146200Y-111213900D01*
X204146200Y-111450682D01*
X204303769Y-111831088D01*
X204594920Y-112122239D01*
X204975326Y-112279808D01*
X205387074Y-112279808D01*
X205767480Y-112122239D01*
X205825232Y-112064487D01*
X205721000Y-112316126D01*
X205721000Y-112727874D01*
X205858975Y-113060977D01*
X205853663Y-113087685D01*
X205871000Y-113174846D01*
X205871000Y-113174849D01*
X205922348Y-113432994D01*
X206117951Y-113725734D01*
X206191847Y-113775110D01*
X207881596Y-115464860D01*
X207930970Y-115538753D01*
X208004863Y-115588127D01*
X208004864Y-115588128D01*
X208055557Y-115622000D01*
X200607769Y-115622000D01*
X200628200Y-115572674D01*
X200628200Y-115160926D01*
X200510926Y-114877800D01*
X200738874Y-114877800D01*
X201119280Y-114720231D01*
X201410431Y-114429080D01*
X201568000Y-114048674D01*
X201568000Y-113636926D01*
X201410431Y-113256520D01*
X201119280Y-112965369D01*
X200738874Y-112807800D01*
X200415511Y-112807800D01*
X200673831Y-112549480D01*
X200831400Y-112169074D01*
X200831400Y-111757326D01*
X200673831Y-111376920D01*
X200382680Y-111085769D01*
X200286974Y-111046126D01*
X201403000Y-111046126D01*
X201403000Y-111457874D01*
X201560569Y-111838280D01*
X201851720Y-112129431D01*
X202232126Y-112287000D01*
X202643874Y-112287000D01*
X203024280Y-112129431D01*
X203315431Y-111838280D01*
X203473000Y-111457874D01*
X203473000Y-111046126D01*
X203315431Y-110665720D01*
X203024280Y-110374569D01*
X202643874Y-110217000D01*
X202232126Y-110217000D01*
X201851720Y-110374569D01*
X201560569Y-110665720D01*
X201403000Y-111046126D01*
X200286974Y-111046126D01*
X200002274Y-110928200D01*
X199590526Y-110928200D01*
X199210120Y-111085769D01*
X198983166Y-111312723D01*
X198946631Y-111224520D01*
X198655480Y-110933369D01*
X198275074Y-110775800D01*
X197863326Y-110775800D01*
X197482920Y-110933369D01*
X197191769Y-111224520D01*
X197131672Y-111369607D01*
X196801874Y-111233000D01*
X196390126Y-111233000D01*
X196009720Y-111390569D01*
X195718569Y-111681720D01*
X195561000Y-112062126D01*
X195561000Y-112473874D01*
X195718569Y-112854280D01*
X196009720Y-113145431D01*
X196390126Y-113303000D01*
X196801874Y-113303000D01*
X197182280Y-113145431D01*
X197473431Y-112854280D01*
X197533528Y-112709193D01*
X197863326Y-112845800D01*
X198275074Y-112845800D01*
X198655480Y-112688231D01*
X198882434Y-112461277D01*
X198918969Y-112549480D01*
X199210120Y-112840631D01*
X199590526Y-112998200D01*
X199913889Y-112998200D01*
X199655569Y-113256520D01*
X199498000Y-113636926D01*
X199498000Y-114048674D01*
X199615274Y-114331800D01*
X199387326Y-114331800D01*
X199006920Y-114489369D01*
X198715769Y-114780520D01*
X198558200Y-115160926D01*
X198558200Y-115572674D01*
X198578631Y-115622000D01*
X188355711Y-115622000D01*
X188583431Y-115394280D01*
X188741000Y-115013874D01*
X188741000Y-114602126D01*
X188583431Y-114221720D01*
X188292280Y-113930569D01*
X188073931Y-113840126D01*
X189465000Y-113840126D01*
X189465000Y-114251874D01*
X189622569Y-114632280D01*
X189913720Y-114923431D01*
X190294126Y-115081000D01*
X190705874Y-115081000D01*
X191086280Y-114923431D01*
X191377431Y-114632280D01*
X191535000Y-114251874D01*
X191535000Y-113840126D01*
X191377431Y-113459720D01*
X191086280Y-113168569D01*
X190705874Y-113011000D01*
X190294126Y-113011000D01*
X189913720Y-113168569D01*
X189622569Y-113459720D01*
X189465000Y-113840126D01*
X188073931Y-113840126D01*
X187911874Y-113773000D01*
X187500126Y-113773000D01*
X187119720Y-113930569D01*
X186828569Y-114221720D01*
X186671000Y-114602126D01*
X186671000Y-115013874D01*
X186828569Y-115394280D01*
X187056289Y-115622000D01*
X185622000Y-115622000D01*
X185622000Y-110013238D01*
X190941639Y-110013238D01*
X190941639Y-110424986D01*
X191099208Y-110805392D01*
X191390359Y-111096543D01*
X191770765Y-111254112D01*
X192182513Y-111254112D01*
X192562919Y-111096543D01*
X192594662Y-111064800D01*
X192714569Y-111354280D01*
X193005720Y-111645431D01*
X193386126Y-111803000D01*
X193797874Y-111803000D01*
X194178280Y-111645431D01*
X194469431Y-111354280D01*
X194627000Y-110973874D01*
X194627000Y-110706035D01*
X194764526Y-110763000D01*
X195176274Y-110763000D01*
X195556680Y-110605431D01*
X195847831Y-110314280D01*
X196005400Y-109933874D01*
X196005400Y-109522126D01*
X195847831Y-109141720D01*
X195684323Y-108978212D01*
X195751400Y-108816274D01*
X195751400Y-108404526D01*
X195593831Y-108024120D01*
X195589511Y-108019800D01*
X195887474Y-108019800D01*
X196267880Y-107862231D01*
X196559031Y-107571080D01*
X196716600Y-107190674D01*
X196716600Y-106778926D01*
X196594769Y-106484798D01*
X196716600Y-106190671D01*
X196716600Y-105778923D01*
X196676307Y-105681646D01*
X197567600Y-105681646D01*
X197567600Y-106093394D01*
X197725169Y-106473800D01*
X198016320Y-106764951D01*
X198396726Y-106922520D01*
X198808474Y-106922520D01*
X199188880Y-106764951D01*
X199480031Y-106473800D01*
X199637600Y-106093394D01*
X199637600Y-105681646D01*
X199480031Y-105301240D01*
X199188880Y-105010089D01*
X198808474Y-104852520D01*
X198396726Y-104852520D01*
X198016320Y-105010089D01*
X197725169Y-105301240D01*
X197567600Y-105681646D01*
X196676307Y-105681646D01*
X196559031Y-105398517D01*
X196311714Y-105151200D01*
X196559031Y-104903882D01*
X196573189Y-104869700D01*
X196670120Y-104966631D01*
X197050526Y-105124200D01*
X197462274Y-105124200D01*
X197842680Y-104966631D01*
X198133831Y-104675480D01*
X198291400Y-104295074D01*
X198291400Y-103883326D01*
X198133831Y-103502920D01*
X197842680Y-103211769D01*
X197462274Y-103054200D01*
X197050526Y-103054200D01*
X196670120Y-103211769D01*
X196378969Y-103502920D01*
X196364811Y-103537102D01*
X196267880Y-103440171D01*
X195887474Y-103282602D01*
X195475726Y-103282602D01*
X195095320Y-103440171D01*
X194804169Y-103731322D01*
X194646600Y-104111728D01*
X194646600Y-104523476D01*
X194804169Y-104903882D01*
X195051487Y-105151200D01*
X194804169Y-105398517D01*
X194646600Y-105778923D01*
X194646600Y-106190671D01*
X194768431Y-106484798D01*
X194646600Y-106778926D01*
X194646600Y-107190674D01*
X194804169Y-107571080D01*
X194808489Y-107575400D01*
X194510526Y-107575400D01*
X194130120Y-107732969D01*
X193838969Y-108024120D01*
X193681400Y-108404526D01*
X193681400Y-108816274D01*
X193838969Y-109196680D01*
X194002477Y-109360188D01*
X193935400Y-109522126D01*
X193935400Y-109789965D01*
X193797874Y-109733000D01*
X193386126Y-109733000D01*
X193005720Y-109890569D01*
X192973977Y-109922312D01*
X192854070Y-109632832D01*
X192562919Y-109341681D01*
X192182513Y-109184112D01*
X191770765Y-109184112D01*
X191390359Y-109341681D01*
X191099208Y-109632832D01*
X190941639Y-110013238D01*
X185622000Y-110013238D01*
X185622000Y-105524926D01*
X186264600Y-105524926D01*
X186264600Y-105936674D01*
X186422169Y-106317080D01*
X186713320Y-106608231D01*
X187093726Y-106765800D01*
X187505474Y-106765800D01*
X187885880Y-106608231D01*
X188177031Y-106317080D01*
X188334465Y-105937000D01*
X188572274Y-105937000D01*
X188952680Y-105779431D01*
X189243831Y-105488280D01*
X189401400Y-105107874D01*
X189401400Y-104696126D01*
X189243831Y-104315720D01*
X188952680Y-104024569D01*
X188572274Y-103867000D01*
X188160526Y-103867000D01*
X188009600Y-103929515D01*
X188009600Y-103807492D01*
X189277386Y-102539707D01*
X190548331Y-102539707D01*
X190548331Y-102951455D01*
X190705900Y-103331861D01*
X190997051Y-103623012D01*
X191377457Y-103780581D01*
X191789205Y-103780581D01*
X192169611Y-103623012D01*
X192460762Y-103331861D01*
X192618331Y-102951455D01*
X192618331Y-102539707D01*
X192606741Y-102511726D01*
X193173400Y-102511726D01*
X193173400Y-102923474D01*
X193330969Y-103303880D01*
X193622120Y-103595031D01*
X194002526Y-103752600D01*
X194414274Y-103752600D01*
X194794680Y-103595031D01*
X195085831Y-103303880D01*
X195243400Y-102923474D01*
X195243400Y-102511726D01*
X195085831Y-102131320D01*
X194794680Y-101840169D01*
X194414274Y-101682600D01*
X194002526Y-101682600D01*
X193622120Y-101840169D01*
X193330969Y-102131320D01*
X193173400Y-102511726D01*
X192606741Y-102511726D01*
X192460762Y-102159301D01*
X192169611Y-101868150D01*
X191789205Y-101710581D01*
X191377457Y-101710581D01*
X190997051Y-101868150D01*
X190705900Y-102159301D01*
X190548331Y-102539707D01*
X189277386Y-102539707D01*
X189494005Y-102323089D01*
X189553281Y-102283482D01*
X189592889Y-102224205D01*
X189592892Y-102224202D01*
X189710206Y-102048629D01*
X189765310Y-101771601D01*
X189751401Y-101701675D01*
X189751401Y-101444926D01*
X196780200Y-101444926D01*
X196780200Y-101856674D01*
X196937769Y-102237080D01*
X197228920Y-102528231D01*
X197609326Y-102685800D01*
X198021074Y-102685800D01*
X198401480Y-102528231D01*
X198692631Y-102237080D01*
X198850200Y-101856674D01*
X198850200Y-101444926D01*
X198692631Y-101064520D01*
X198401480Y-100773369D01*
X198021074Y-100615800D01*
X197609326Y-100615800D01*
X197228920Y-100773369D01*
X196937769Y-101064520D01*
X196780200Y-101444926D01*
X189751401Y-101444926D01*
X189751401Y-100806200D01*
X189943874Y-100806200D01*
X190324280Y-100648631D01*
X190615431Y-100357480D01*
X190773000Y-99977074D01*
X190773000Y-99866809D01*
X190910281Y-99775081D01*
X191067205Y-99540228D01*
X191086481Y-99443319D01*
X191108400Y-99333126D01*
X191108400Y-99333125D01*
X191122309Y-99263200D01*
X191108400Y-99193274D01*
X191108400Y-98601570D01*
X191402524Y-98723400D01*
X191814272Y-98723400D01*
X192194678Y-98565831D01*
X192485829Y-98274680D01*
X192643398Y-97894274D01*
X192643398Y-97482526D01*
X192485829Y-97102120D01*
X192194678Y-96810969D01*
X191814272Y-96653400D01*
X191789000Y-96653400D01*
X191789000Y-96638124D01*
X191635085Y-96266539D01*
X191848280Y-96178231D01*
X192139431Y-95887080D01*
X192297000Y-95506674D01*
X192297000Y-95399726D01*
X198609000Y-95399726D01*
X198609000Y-95811474D01*
X198766569Y-96191880D01*
X199057720Y-96483031D01*
X199438126Y-96640600D01*
X199849874Y-96640600D01*
X200230280Y-96483031D01*
X200521431Y-96191880D01*
X200679000Y-95811474D01*
X200679000Y-95399726D01*
X200521431Y-95019320D01*
X200230280Y-94728169D01*
X199849874Y-94570600D01*
X199438126Y-94570600D01*
X199057720Y-94728169D01*
X198766569Y-95019320D01*
X198609000Y-95399726D01*
X192297000Y-95399726D01*
X192297000Y-95094926D01*
X192139431Y-94714520D01*
X191848280Y-94423369D01*
X191775035Y-94393030D01*
X191839800Y-94236674D01*
X191839800Y-93824926D01*
X191682231Y-93444520D01*
X191571064Y-93333353D01*
X191745694Y-93261019D01*
X192036845Y-92969868D01*
X192194414Y-92589462D01*
X192194414Y-92177714D01*
X192036845Y-91797308D01*
X191745694Y-91506157D01*
X191365288Y-91348588D01*
X190953540Y-91348588D01*
X190573134Y-91506157D01*
X190281983Y-91797308D01*
X190124414Y-92177714D01*
X190124414Y-92589462D01*
X190281983Y-92969868D01*
X190393150Y-93081035D01*
X190218520Y-93153369D01*
X189927369Y-93444520D01*
X189889200Y-93536668D01*
X189889200Y-91425318D01*
X189903108Y-91355397D01*
X189889200Y-91285477D01*
X189889200Y-91285472D01*
X189848005Y-91078370D01*
X189787600Y-90987968D01*
X189787600Y-90923711D01*
X189955031Y-90756280D01*
X190112600Y-90375874D01*
X190112600Y-89964126D01*
X189955031Y-89583720D01*
X189663880Y-89292569D01*
X189283474Y-89135000D01*
X188871726Y-89135000D01*
X188491320Y-89292569D01*
X188441738Y-89342151D01*
X188064274Y-89185800D01*
X187652526Y-89185800D01*
X187272120Y-89343369D01*
X186980969Y-89634520D01*
X186823400Y-90014926D01*
X186823400Y-90426674D01*
X186980969Y-90807080D01*
X187032200Y-90858311D01*
X187032199Y-91897276D01*
X187018290Y-91967201D01*
X187032199Y-92037125D01*
X187032199Y-92037126D01*
X187073394Y-92244228D01*
X187230318Y-92479081D01*
X187289600Y-92518692D01*
X188062801Y-93291894D01*
X188062800Y-96286863D01*
X188048891Y-96356788D01*
X188062800Y-96426712D01*
X188062800Y-96426713D01*
X188103995Y-96633815D01*
X188260919Y-96868668D01*
X188320202Y-96908280D01*
X188331402Y-96919480D01*
X188331401Y-101477509D01*
X186847002Y-102961910D01*
X186787720Y-103001521D01*
X186748110Y-103060802D01*
X186630796Y-103236374D01*
X186575691Y-103513402D01*
X186589601Y-103583331D01*
X186589600Y-104977089D01*
X186422169Y-105144520D01*
X186264600Y-105524926D01*
X185622000Y-105524926D01*
X185622000Y-87932126D01*
X196018200Y-87932126D01*
X196018200Y-88343874D01*
X196175769Y-88724280D01*
X196466920Y-89015431D01*
X196847326Y-89173000D01*
X197259074Y-89173000D01*
X197639480Y-89015431D01*
X197930631Y-88724280D01*
X198088200Y-88343874D01*
X198088200Y-87932126D01*
X197930631Y-87551720D01*
X197639480Y-87260569D01*
X197259074Y-87103000D01*
X196847326Y-87103000D01*
X196466920Y-87260569D01*
X196175769Y-87551720D01*
X196018200Y-87932126D01*
X185622000Y-87932126D01*
X185622000Y-85188926D01*
X195916600Y-85188926D01*
X195916600Y-85600674D01*
X196074169Y-85981080D01*
X196365320Y-86272231D01*
X196745726Y-86429800D01*
X197157474Y-86429800D01*
X197537880Y-86272231D01*
X197829031Y-85981080D01*
X197986600Y-85600674D01*
X197986600Y-85188926D01*
X197829031Y-84808520D01*
X197537880Y-84517369D01*
X197157474Y-84359800D01*
X196745726Y-84359800D01*
X196365320Y-84517369D01*
X196074169Y-84808520D01*
X195916600Y-85188926D01*
X185622000Y-85188926D01*
X185622000Y-79450000D01*
X202311000Y-79450000D01*
X202311000Y-89687283D01*
G36*
X202234997Y-106261887D02*
X208174575Y-112201466D01*
X208206687Y-112362906D01*
X208363612Y-112597759D01*
X208422894Y-112637370D01*
X208674998Y-112889474D01*
X208714611Y-112948759D01*
X208949464Y-113105683D01*
X209156566Y-113146878D01*
X209156567Y-113146878D01*
X209226492Y-113160787D01*
X209296416Y-113146878D01*
X209565544Y-113146878D01*
X209501823Y-113173272D01*
X209210672Y-113464423D01*
X209053103Y-113844829D01*
X209053103Y-114015704D01*
X208935598Y-114015704D01*
X207749048Y-112829155D01*
X207791000Y-112727874D01*
X207791000Y-112316126D01*
X207633431Y-111935720D01*
X207342280Y-111644569D01*
X206961874Y-111487000D01*
X206550126Y-111487000D01*
X206169720Y-111644569D01*
X206111968Y-111702321D01*
X206216200Y-111450682D01*
X206216200Y-111038934D01*
X206058631Y-110658528D01*
X205767480Y-110367377D01*
X205387074Y-110209808D01*
X205150292Y-110209808D01*
X202209989Y-107269507D01*
X202209989Y-106259002D01*
X202230680Y-106259002D01*
X202234997Y-106261887D01*
X202234997Y-106261887D01*
G37*
X202234997Y-106261887D02*
X208174575Y-112201466D01*
X208206687Y-112362906D01*
X208363612Y-112597759D01*
X208422894Y-112637370D01*
X208674998Y-112889474D01*
X208714611Y-112948759D01*
X208949464Y-113105683D01*
X209156566Y-113146878D01*
X209156567Y-113146878D01*
X209226492Y-113160787D01*
X209296416Y-113146878D01*
X209565544Y-113146878D01*
X209501823Y-113173272D01*
X209210672Y-113464423D01*
X209053103Y-113844829D01*
X209053103Y-114015704D01*
X208935598Y-114015704D01*
X207749048Y-112829155D01*
X207791000Y-112727874D01*
X207791000Y-112316126D01*
X207633431Y-111935720D01*
X207342280Y-111644569D01*
X206961874Y-111487000D01*
X206550126Y-111487000D01*
X206169720Y-111644569D01*
X206111968Y-111702321D01*
X206216200Y-111450682D01*
X206216200Y-111038934D01*
X206058631Y-110658528D01*
X205767480Y-110367377D01*
X205387074Y-110209808D01*
X205150292Y-110209808D01*
X202209989Y-107269507D01*
X202209989Y-106259002D01*
X202230680Y-106259002D01*
X202234997Y-106261887D01*
G04 #@! TD*
M02*
