G04 #@! TF.GenerationSoftware,KiCad,Pcbnew,(5.0.1)-3*
G04 #@! TF.CreationDate,2019-11-22T16:36:38-05:00*
G04 #@! TF.ProjectId,SmartWatch,536D61727457617463682E6B69636164,rev?*
G04 #@! TF.SameCoordinates,Original*
G04 #@! TF.FileFunction,Paste,Top*
G04 #@! TF.FilePolarity,Positive*
%FSLAX46Y46*%
G04 Gerber Fmt 4.6, Leading zero omitted, Abs format (unit mm)*
G04 Created by KiCad (PCBNEW (5.0.1)-3) date 11/22/2019 4:36:38 PM*
%MOMM*%
%LPD*%
G01*
G04 APERTURE LIST*
%ADD10C,0.100000*%
%ADD11C,0.875000*%
%ADD12C,0.970000*%
%ADD13C,0.600000*%
%ADD14R,1.600000X1.400000*%
%ADD15R,4.000000X2.000000*%
%ADD16R,1.524000X3.000000*%
%ADD17R,0.600000X0.700000*%
%ADD18R,1.500000X1.200000*%
%ADD19R,1.060000X0.650000*%
G04 APERTURE END LIST*
D10*
G04 #@! TO.C,C10*
G36*
X198194491Y-86507853D02*
X198215726Y-86511003D01*
X198236550Y-86516219D01*
X198256762Y-86523451D01*
X198276168Y-86532630D01*
X198294581Y-86543666D01*
X198311824Y-86556454D01*
X198327730Y-86570870D01*
X198342146Y-86586776D01*
X198354934Y-86604019D01*
X198365970Y-86622432D01*
X198375149Y-86641838D01*
X198382381Y-86662050D01*
X198387597Y-86682874D01*
X198390747Y-86704109D01*
X198391800Y-86725550D01*
X198391800Y-87163050D01*
X198390747Y-87184491D01*
X198387597Y-87205726D01*
X198382381Y-87226550D01*
X198375149Y-87246762D01*
X198365970Y-87266168D01*
X198354934Y-87284581D01*
X198342146Y-87301824D01*
X198327730Y-87317730D01*
X198311824Y-87332146D01*
X198294581Y-87344934D01*
X198276168Y-87355970D01*
X198256762Y-87365149D01*
X198236550Y-87372381D01*
X198215726Y-87377597D01*
X198194491Y-87380747D01*
X198173050Y-87381800D01*
X197660550Y-87381800D01*
X197639109Y-87380747D01*
X197617874Y-87377597D01*
X197597050Y-87372381D01*
X197576838Y-87365149D01*
X197557432Y-87355970D01*
X197539019Y-87344934D01*
X197521776Y-87332146D01*
X197505870Y-87317730D01*
X197491454Y-87301824D01*
X197478666Y-87284581D01*
X197467630Y-87266168D01*
X197458451Y-87246762D01*
X197451219Y-87226550D01*
X197446003Y-87205726D01*
X197442853Y-87184491D01*
X197441800Y-87163050D01*
X197441800Y-86725550D01*
X197442853Y-86704109D01*
X197446003Y-86682874D01*
X197451219Y-86662050D01*
X197458451Y-86641838D01*
X197467630Y-86622432D01*
X197478666Y-86604019D01*
X197491454Y-86586776D01*
X197505870Y-86570870D01*
X197521776Y-86556454D01*
X197539019Y-86543666D01*
X197557432Y-86532630D01*
X197576838Y-86523451D01*
X197597050Y-86516219D01*
X197617874Y-86511003D01*
X197639109Y-86507853D01*
X197660550Y-86506800D01*
X198173050Y-86506800D01*
X198194491Y-86507853D01*
X198194491Y-86507853D01*
G37*
D11*
X197916800Y-86944300D03*
D10*
G36*
X198194491Y-84932853D02*
X198215726Y-84936003D01*
X198236550Y-84941219D01*
X198256762Y-84948451D01*
X198276168Y-84957630D01*
X198294581Y-84968666D01*
X198311824Y-84981454D01*
X198327730Y-84995870D01*
X198342146Y-85011776D01*
X198354934Y-85029019D01*
X198365970Y-85047432D01*
X198375149Y-85066838D01*
X198382381Y-85087050D01*
X198387597Y-85107874D01*
X198390747Y-85129109D01*
X198391800Y-85150550D01*
X198391800Y-85588050D01*
X198390747Y-85609491D01*
X198387597Y-85630726D01*
X198382381Y-85651550D01*
X198375149Y-85671762D01*
X198365970Y-85691168D01*
X198354934Y-85709581D01*
X198342146Y-85726824D01*
X198327730Y-85742730D01*
X198311824Y-85757146D01*
X198294581Y-85769934D01*
X198276168Y-85780970D01*
X198256762Y-85790149D01*
X198236550Y-85797381D01*
X198215726Y-85802597D01*
X198194491Y-85805747D01*
X198173050Y-85806800D01*
X197660550Y-85806800D01*
X197639109Y-85805747D01*
X197617874Y-85802597D01*
X197597050Y-85797381D01*
X197576838Y-85790149D01*
X197557432Y-85780970D01*
X197539019Y-85769934D01*
X197521776Y-85757146D01*
X197505870Y-85742730D01*
X197491454Y-85726824D01*
X197478666Y-85709581D01*
X197467630Y-85691168D01*
X197458451Y-85671762D01*
X197451219Y-85651550D01*
X197446003Y-85630726D01*
X197442853Y-85609491D01*
X197441800Y-85588050D01*
X197441800Y-85150550D01*
X197442853Y-85129109D01*
X197446003Y-85107874D01*
X197451219Y-85087050D01*
X197458451Y-85066838D01*
X197467630Y-85047432D01*
X197478666Y-85029019D01*
X197491454Y-85011776D01*
X197505870Y-84995870D01*
X197521776Y-84981454D01*
X197539019Y-84968666D01*
X197557432Y-84957630D01*
X197576838Y-84948451D01*
X197597050Y-84941219D01*
X197617874Y-84936003D01*
X197639109Y-84932853D01*
X197660550Y-84931800D01*
X198173050Y-84931800D01*
X198194491Y-84932853D01*
X198194491Y-84932853D01*
G37*
D11*
X197916800Y-85369300D03*
G04 #@! TD*
D10*
G04 #@! TO.C,C2*
G36*
X221054491Y-107183453D02*
X221075726Y-107186603D01*
X221096550Y-107191819D01*
X221116762Y-107199051D01*
X221136168Y-107208230D01*
X221154581Y-107219266D01*
X221171824Y-107232054D01*
X221187730Y-107246470D01*
X221202146Y-107262376D01*
X221214934Y-107279619D01*
X221225970Y-107298032D01*
X221235149Y-107317438D01*
X221242381Y-107337650D01*
X221247597Y-107358474D01*
X221250747Y-107379709D01*
X221251800Y-107401150D01*
X221251800Y-107838650D01*
X221250747Y-107860091D01*
X221247597Y-107881326D01*
X221242381Y-107902150D01*
X221235149Y-107922362D01*
X221225970Y-107941768D01*
X221214934Y-107960181D01*
X221202146Y-107977424D01*
X221187730Y-107993330D01*
X221171824Y-108007746D01*
X221154581Y-108020534D01*
X221136168Y-108031570D01*
X221116762Y-108040749D01*
X221096550Y-108047981D01*
X221075726Y-108053197D01*
X221054491Y-108056347D01*
X221033050Y-108057400D01*
X220520550Y-108057400D01*
X220499109Y-108056347D01*
X220477874Y-108053197D01*
X220457050Y-108047981D01*
X220436838Y-108040749D01*
X220417432Y-108031570D01*
X220399019Y-108020534D01*
X220381776Y-108007746D01*
X220365870Y-107993330D01*
X220351454Y-107977424D01*
X220338666Y-107960181D01*
X220327630Y-107941768D01*
X220318451Y-107922362D01*
X220311219Y-107902150D01*
X220306003Y-107881326D01*
X220302853Y-107860091D01*
X220301800Y-107838650D01*
X220301800Y-107401150D01*
X220302853Y-107379709D01*
X220306003Y-107358474D01*
X220311219Y-107337650D01*
X220318451Y-107317438D01*
X220327630Y-107298032D01*
X220338666Y-107279619D01*
X220351454Y-107262376D01*
X220365870Y-107246470D01*
X220381776Y-107232054D01*
X220399019Y-107219266D01*
X220417432Y-107208230D01*
X220436838Y-107199051D01*
X220457050Y-107191819D01*
X220477874Y-107186603D01*
X220499109Y-107183453D01*
X220520550Y-107182400D01*
X221033050Y-107182400D01*
X221054491Y-107183453D01*
X221054491Y-107183453D01*
G37*
D11*
X220776800Y-107619900D03*
D10*
G36*
X221054491Y-105608453D02*
X221075726Y-105611603D01*
X221096550Y-105616819D01*
X221116762Y-105624051D01*
X221136168Y-105633230D01*
X221154581Y-105644266D01*
X221171824Y-105657054D01*
X221187730Y-105671470D01*
X221202146Y-105687376D01*
X221214934Y-105704619D01*
X221225970Y-105723032D01*
X221235149Y-105742438D01*
X221242381Y-105762650D01*
X221247597Y-105783474D01*
X221250747Y-105804709D01*
X221251800Y-105826150D01*
X221251800Y-106263650D01*
X221250747Y-106285091D01*
X221247597Y-106306326D01*
X221242381Y-106327150D01*
X221235149Y-106347362D01*
X221225970Y-106366768D01*
X221214934Y-106385181D01*
X221202146Y-106402424D01*
X221187730Y-106418330D01*
X221171824Y-106432746D01*
X221154581Y-106445534D01*
X221136168Y-106456570D01*
X221116762Y-106465749D01*
X221096550Y-106472981D01*
X221075726Y-106478197D01*
X221054491Y-106481347D01*
X221033050Y-106482400D01*
X220520550Y-106482400D01*
X220499109Y-106481347D01*
X220477874Y-106478197D01*
X220457050Y-106472981D01*
X220436838Y-106465749D01*
X220417432Y-106456570D01*
X220399019Y-106445534D01*
X220381776Y-106432746D01*
X220365870Y-106418330D01*
X220351454Y-106402424D01*
X220338666Y-106385181D01*
X220327630Y-106366768D01*
X220318451Y-106347362D01*
X220311219Y-106327150D01*
X220306003Y-106306326D01*
X220302853Y-106285091D01*
X220301800Y-106263650D01*
X220301800Y-105826150D01*
X220302853Y-105804709D01*
X220306003Y-105783474D01*
X220311219Y-105762650D01*
X220318451Y-105742438D01*
X220327630Y-105723032D01*
X220338666Y-105704619D01*
X220351454Y-105687376D01*
X220365870Y-105671470D01*
X220381776Y-105657054D01*
X220399019Y-105644266D01*
X220417432Y-105633230D01*
X220436838Y-105624051D01*
X220457050Y-105616819D01*
X220477874Y-105611603D01*
X220499109Y-105608453D01*
X220520550Y-105607400D01*
X221033050Y-105607400D01*
X221054491Y-105608453D01*
X221054491Y-105608453D01*
G37*
D11*
X220776800Y-106044900D03*
G04 #@! TD*
D10*
G04 #@! TO.C,C3*
G36*
X219632091Y-105608453D02*
X219653326Y-105611603D01*
X219674150Y-105616819D01*
X219694362Y-105624051D01*
X219713768Y-105633230D01*
X219732181Y-105644266D01*
X219749424Y-105657054D01*
X219765330Y-105671470D01*
X219779746Y-105687376D01*
X219792534Y-105704619D01*
X219803570Y-105723032D01*
X219812749Y-105742438D01*
X219819981Y-105762650D01*
X219825197Y-105783474D01*
X219828347Y-105804709D01*
X219829400Y-105826150D01*
X219829400Y-106263650D01*
X219828347Y-106285091D01*
X219825197Y-106306326D01*
X219819981Y-106327150D01*
X219812749Y-106347362D01*
X219803570Y-106366768D01*
X219792534Y-106385181D01*
X219779746Y-106402424D01*
X219765330Y-106418330D01*
X219749424Y-106432746D01*
X219732181Y-106445534D01*
X219713768Y-106456570D01*
X219694362Y-106465749D01*
X219674150Y-106472981D01*
X219653326Y-106478197D01*
X219632091Y-106481347D01*
X219610650Y-106482400D01*
X219098150Y-106482400D01*
X219076709Y-106481347D01*
X219055474Y-106478197D01*
X219034650Y-106472981D01*
X219014438Y-106465749D01*
X218995032Y-106456570D01*
X218976619Y-106445534D01*
X218959376Y-106432746D01*
X218943470Y-106418330D01*
X218929054Y-106402424D01*
X218916266Y-106385181D01*
X218905230Y-106366768D01*
X218896051Y-106347362D01*
X218888819Y-106327150D01*
X218883603Y-106306326D01*
X218880453Y-106285091D01*
X218879400Y-106263650D01*
X218879400Y-105826150D01*
X218880453Y-105804709D01*
X218883603Y-105783474D01*
X218888819Y-105762650D01*
X218896051Y-105742438D01*
X218905230Y-105723032D01*
X218916266Y-105704619D01*
X218929054Y-105687376D01*
X218943470Y-105671470D01*
X218959376Y-105657054D01*
X218976619Y-105644266D01*
X218995032Y-105633230D01*
X219014438Y-105624051D01*
X219034650Y-105616819D01*
X219055474Y-105611603D01*
X219076709Y-105608453D01*
X219098150Y-105607400D01*
X219610650Y-105607400D01*
X219632091Y-105608453D01*
X219632091Y-105608453D01*
G37*
D11*
X219354400Y-106044900D03*
D10*
G36*
X219632091Y-107183453D02*
X219653326Y-107186603D01*
X219674150Y-107191819D01*
X219694362Y-107199051D01*
X219713768Y-107208230D01*
X219732181Y-107219266D01*
X219749424Y-107232054D01*
X219765330Y-107246470D01*
X219779746Y-107262376D01*
X219792534Y-107279619D01*
X219803570Y-107298032D01*
X219812749Y-107317438D01*
X219819981Y-107337650D01*
X219825197Y-107358474D01*
X219828347Y-107379709D01*
X219829400Y-107401150D01*
X219829400Y-107838650D01*
X219828347Y-107860091D01*
X219825197Y-107881326D01*
X219819981Y-107902150D01*
X219812749Y-107922362D01*
X219803570Y-107941768D01*
X219792534Y-107960181D01*
X219779746Y-107977424D01*
X219765330Y-107993330D01*
X219749424Y-108007746D01*
X219732181Y-108020534D01*
X219713768Y-108031570D01*
X219694362Y-108040749D01*
X219674150Y-108047981D01*
X219653326Y-108053197D01*
X219632091Y-108056347D01*
X219610650Y-108057400D01*
X219098150Y-108057400D01*
X219076709Y-108056347D01*
X219055474Y-108053197D01*
X219034650Y-108047981D01*
X219014438Y-108040749D01*
X218995032Y-108031570D01*
X218976619Y-108020534D01*
X218959376Y-108007746D01*
X218943470Y-107993330D01*
X218929054Y-107977424D01*
X218916266Y-107960181D01*
X218905230Y-107941768D01*
X218896051Y-107922362D01*
X218888819Y-107902150D01*
X218883603Y-107881326D01*
X218880453Y-107860091D01*
X218879400Y-107838650D01*
X218879400Y-107401150D01*
X218880453Y-107379709D01*
X218883603Y-107358474D01*
X218888819Y-107337650D01*
X218896051Y-107317438D01*
X218905230Y-107298032D01*
X218916266Y-107279619D01*
X218929054Y-107262376D01*
X218943470Y-107246470D01*
X218959376Y-107232054D01*
X218976619Y-107219266D01*
X218995032Y-107208230D01*
X219014438Y-107199051D01*
X219034650Y-107191819D01*
X219055474Y-107186603D01*
X219076709Y-107183453D01*
X219098150Y-107182400D01*
X219610650Y-107182400D01*
X219632091Y-107183453D01*
X219632091Y-107183453D01*
G37*
D11*
X219354400Y-107619900D03*
G04 #@! TD*
D10*
G04 #@! TO.C,C1*
G36*
X210069691Y-104631253D02*
X210090926Y-104634403D01*
X210111750Y-104639619D01*
X210131962Y-104646851D01*
X210151368Y-104656030D01*
X210169781Y-104667066D01*
X210187024Y-104679854D01*
X210202930Y-104694270D01*
X210217346Y-104710176D01*
X210230134Y-104727419D01*
X210241170Y-104745832D01*
X210250349Y-104765238D01*
X210257581Y-104785450D01*
X210262797Y-104806274D01*
X210265947Y-104827509D01*
X210267000Y-104848950D01*
X210267000Y-105361450D01*
X210265947Y-105382891D01*
X210262797Y-105404126D01*
X210257581Y-105424950D01*
X210250349Y-105445162D01*
X210241170Y-105464568D01*
X210230134Y-105482981D01*
X210217346Y-105500224D01*
X210202930Y-105516130D01*
X210187024Y-105530546D01*
X210169781Y-105543334D01*
X210151368Y-105554370D01*
X210131962Y-105563549D01*
X210111750Y-105570781D01*
X210090926Y-105575997D01*
X210069691Y-105579147D01*
X210048250Y-105580200D01*
X209610750Y-105580200D01*
X209589309Y-105579147D01*
X209568074Y-105575997D01*
X209547250Y-105570781D01*
X209527038Y-105563549D01*
X209507632Y-105554370D01*
X209489219Y-105543334D01*
X209471976Y-105530546D01*
X209456070Y-105516130D01*
X209441654Y-105500224D01*
X209428866Y-105482981D01*
X209417830Y-105464568D01*
X209408651Y-105445162D01*
X209401419Y-105424950D01*
X209396203Y-105404126D01*
X209393053Y-105382891D01*
X209392000Y-105361450D01*
X209392000Y-104848950D01*
X209393053Y-104827509D01*
X209396203Y-104806274D01*
X209401419Y-104785450D01*
X209408651Y-104765238D01*
X209417830Y-104745832D01*
X209428866Y-104727419D01*
X209441654Y-104710176D01*
X209456070Y-104694270D01*
X209471976Y-104679854D01*
X209489219Y-104667066D01*
X209507632Y-104656030D01*
X209527038Y-104646851D01*
X209547250Y-104639619D01*
X209568074Y-104634403D01*
X209589309Y-104631253D01*
X209610750Y-104630200D01*
X210048250Y-104630200D01*
X210069691Y-104631253D01*
X210069691Y-104631253D01*
G37*
D11*
X209829500Y-105105200D03*
D10*
G36*
X208494691Y-104631253D02*
X208515926Y-104634403D01*
X208536750Y-104639619D01*
X208556962Y-104646851D01*
X208576368Y-104656030D01*
X208594781Y-104667066D01*
X208612024Y-104679854D01*
X208627930Y-104694270D01*
X208642346Y-104710176D01*
X208655134Y-104727419D01*
X208666170Y-104745832D01*
X208675349Y-104765238D01*
X208682581Y-104785450D01*
X208687797Y-104806274D01*
X208690947Y-104827509D01*
X208692000Y-104848950D01*
X208692000Y-105361450D01*
X208690947Y-105382891D01*
X208687797Y-105404126D01*
X208682581Y-105424950D01*
X208675349Y-105445162D01*
X208666170Y-105464568D01*
X208655134Y-105482981D01*
X208642346Y-105500224D01*
X208627930Y-105516130D01*
X208612024Y-105530546D01*
X208594781Y-105543334D01*
X208576368Y-105554370D01*
X208556962Y-105563549D01*
X208536750Y-105570781D01*
X208515926Y-105575997D01*
X208494691Y-105579147D01*
X208473250Y-105580200D01*
X208035750Y-105580200D01*
X208014309Y-105579147D01*
X207993074Y-105575997D01*
X207972250Y-105570781D01*
X207952038Y-105563549D01*
X207932632Y-105554370D01*
X207914219Y-105543334D01*
X207896976Y-105530546D01*
X207881070Y-105516130D01*
X207866654Y-105500224D01*
X207853866Y-105482981D01*
X207842830Y-105464568D01*
X207833651Y-105445162D01*
X207826419Y-105424950D01*
X207821203Y-105404126D01*
X207818053Y-105382891D01*
X207817000Y-105361450D01*
X207817000Y-104848950D01*
X207818053Y-104827509D01*
X207821203Y-104806274D01*
X207826419Y-104785450D01*
X207833651Y-104765238D01*
X207842830Y-104745832D01*
X207853866Y-104727419D01*
X207866654Y-104710176D01*
X207881070Y-104694270D01*
X207896976Y-104679854D01*
X207914219Y-104667066D01*
X207932632Y-104656030D01*
X207952038Y-104646851D01*
X207972250Y-104639619D01*
X207993074Y-104634403D01*
X208014309Y-104631253D01*
X208035750Y-104630200D01*
X208473250Y-104630200D01*
X208494691Y-104631253D01*
X208494691Y-104631253D01*
G37*
D11*
X208254500Y-105105200D03*
G04 #@! TD*
D10*
G04 #@! TO.C,U1*
G36*
X215089869Y-107085168D02*
X215113409Y-107088660D01*
X215136494Y-107094442D01*
X215158901Y-107102459D01*
X215180414Y-107112634D01*
X215200826Y-107124869D01*
X215219940Y-107139045D01*
X215237573Y-107155027D01*
X215253555Y-107172660D01*
X215267731Y-107191774D01*
X215279966Y-107212186D01*
X215290141Y-107233699D01*
X215298158Y-107256106D01*
X215303940Y-107279191D01*
X215307432Y-107302731D01*
X215308600Y-107326500D01*
X215308600Y-108091500D01*
X215307432Y-108115269D01*
X215303940Y-108138809D01*
X215298158Y-108161894D01*
X215290141Y-108184301D01*
X215279966Y-108205814D01*
X215267731Y-108226226D01*
X215253555Y-108245340D01*
X215237573Y-108262973D01*
X215219940Y-108278955D01*
X215200826Y-108293131D01*
X215180414Y-108305366D01*
X215158901Y-108315541D01*
X215136494Y-108323558D01*
X215113409Y-108329340D01*
X215089869Y-108332832D01*
X215066100Y-108334000D01*
X214581100Y-108334000D01*
X214557331Y-108332832D01*
X214533791Y-108329340D01*
X214510706Y-108323558D01*
X214488299Y-108315541D01*
X214466786Y-108305366D01*
X214446374Y-108293131D01*
X214427260Y-108278955D01*
X214409627Y-108262973D01*
X214393645Y-108245340D01*
X214379469Y-108226226D01*
X214367234Y-108205814D01*
X214357059Y-108184301D01*
X214349042Y-108161894D01*
X214343260Y-108138809D01*
X214339768Y-108115269D01*
X214338600Y-108091500D01*
X214338600Y-107326500D01*
X214339768Y-107302731D01*
X214343260Y-107279191D01*
X214349042Y-107256106D01*
X214357059Y-107233699D01*
X214367234Y-107212186D01*
X214379469Y-107191774D01*
X214393645Y-107172660D01*
X214409627Y-107155027D01*
X214427260Y-107139045D01*
X214446374Y-107124869D01*
X214466786Y-107112634D01*
X214488299Y-107102459D01*
X214510706Y-107094442D01*
X214533791Y-107088660D01*
X214557331Y-107085168D01*
X214581100Y-107084000D01*
X215066100Y-107084000D01*
X215089869Y-107085168D01*
X215089869Y-107085168D01*
G37*
D12*
X214823600Y-107709000D03*
D10*
G36*
X215089869Y-105535168D02*
X215113409Y-105538660D01*
X215136494Y-105544442D01*
X215158901Y-105552459D01*
X215180414Y-105562634D01*
X215200826Y-105574869D01*
X215219940Y-105589045D01*
X215237573Y-105605027D01*
X215253555Y-105622660D01*
X215267731Y-105641774D01*
X215279966Y-105662186D01*
X215290141Y-105683699D01*
X215298158Y-105706106D01*
X215303940Y-105729191D01*
X215307432Y-105752731D01*
X215308600Y-105776500D01*
X215308600Y-106541500D01*
X215307432Y-106565269D01*
X215303940Y-106588809D01*
X215298158Y-106611894D01*
X215290141Y-106634301D01*
X215279966Y-106655814D01*
X215267731Y-106676226D01*
X215253555Y-106695340D01*
X215237573Y-106712973D01*
X215219940Y-106728955D01*
X215200826Y-106743131D01*
X215180414Y-106755366D01*
X215158901Y-106765541D01*
X215136494Y-106773558D01*
X215113409Y-106779340D01*
X215089869Y-106782832D01*
X215066100Y-106784000D01*
X214581100Y-106784000D01*
X214557331Y-106782832D01*
X214533791Y-106779340D01*
X214510706Y-106773558D01*
X214488299Y-106765541D01*
X214466786Y-106755366D01*
X214446374Y-106743131D01*
X214427260Y-106728955D01*
X214409627Y-106712973D01*
X214393645Y-106695340D01*
X214379469Y-106676226D01*
X214367234Y-106655814D01*
X214357059Y-106634301D01*
X214349042Y-106611894D01*
X214343260Y-106588809D01*
X214339768Y-106565269D01*
X214338600Y-106541500D01*
X214338600Y-105776500D01*
X214339768Y-105752731D01*
X214343260Y-105729191D01*
X214349042Y-105706106D01*
X214357059Y-105683699D01*
X214367234Y-105662186D01*
X214379469Y-105641774D01*
X214393645Y-105622660D01*
X214409627Y-105605027D01*
X214427260Y-105589045D01*
X214446374Y-105574869D01*
X214466786Y-105562634D01*
X214488299Y-105552459D01*
X214510706Y-105544442D01*
X214533791Y-105538660D01*
X214557331Y-105535168D01*
X214581100Y-105534000D01*
X215066100Y-105534000D01*
X215089869Y-105535168D01*
X215089869Y-105535168D01*
G37*
D12*
X214823600Y-106159000D03*
D10*
G36*
X213889869Y-107085168D02*
X213913409Y-107088660D01*
X213936494Y-107094442D01*
X213958901Y-107102459D01*
X213980414Y-107112634D01*
X214000826Y-107124869D01*
X214019940Y-107139045D01*
X214037573Y-107155027D01*
X214053555Y-107172660D01*
X214067731Y-107191774D01*
X214079966Y-107212186D01*
X214090141Y-107233699D01*
X214098158Y-107256106D01*
X214103940Y-107279191D01*
X214107432Y-107302731D01*
X214108600Y-107326500D01*
X214108600Y-108091500D01*
X214107432Y-108115269D01*
X214103940Y-108138809D01*
X214098158Y-108161894D01*
X214090141Y-108184301D01*
X214079966Y-108205814D01*
X214067731Y-108226226D01*
X214053555Y-108245340D01*
X214037573Y-108262973D01*
X214019940Y-108278955D01*
X214000826Y-108293131D01*
X213980414Y-108305366D01*
X213958901Y-108315541D01*
X213936494Y-108323558D01*
X213913409Y-108329340D01*
X213889869Y-108332832D01*
X213866100Y-108334000D01*
X213381100Y-108334000D01*
X213357331Y-108332832D01*
X213333791Y-108329340D01*
X213310706Y-108323558D01*
X213288299Y-108315541D01*
X213266786Y-108305366D01*
X213246374Y-108293131D01*
X213227260Y-108278955D01*
X213209627Y-108262973D01*
X213193645Y-108245340D01*
X213179469Y-108226226D01*
X213167234Y-108205814D01*
X213157059Y-108184301D01*
X213149042Y-108161894D01*
X213143260Y-108138809D01*
X213139768Y-108115269D01*
X213138600Y-108091500D01*
X213138600Y-107326500D01*
X213139768Y-107302731D01*
X213143260Y-107279191D01*
X213149042Y-107256106D01*
X213157059Y-107233699D01*
X213167234Y-107212186D01*
X213179469Y-107191774D01*
X213193645Y-107172660D01*
X213209627Y-107155027D01*
X213227260Y-107139045D01*
X213246374Y-107124869D01*
X213266786Y-107112634D01*
X213288299Y-107102459D01*
X213310706Y-107094442D01*
X213333791Y-107088660D01*
X213357331Y-107085168D01*
X213381100Y-107084000D01*
X213866100Y-107084000D01*
X213889869Y-107085168D01*
X213889869Y-107085168D01*
G37*
D12*
X213623600Y-107709000D03*
D10*
G36*
X213889869Y-105535168D02*
X213913409Y-105538660D01*
X213936494Y-105544442D01*
X213958901Y-105552459D01*
X213980414Y-105562634D01*
X214000826Y-105574869D01*
X214019940Y-105589045D01*
X214037573Y-105605027D01*
X214053555Y-105622660D01*
X214067731Y-105641774D01*
X214079966Y-105662186D01*
X214090141Y-105683699D01*
X214098158Y-105706106D01*
X214103940Y-105729191D01*
X214107432Y-105752731D01*
X214108600Y-105776500D01*
X214108600Y-106541500D01*
X214107432Y-106565269D01*
X214103940Y-106588809D01*
X214098158Y-106611894D01*
X214090141Y-106634301D01*
X214079966Y-106655814D01*
X214067731Y-106676226D01*
X214053555Y-106695340D01*
X214037573Y-106712973D01*
X214019940Y-106728955D01*
X214000826Y-106743131D01*
X213980414Y-106755366D01*
X213958901Y-106765541D01*
X213936494Y-106773558D01*
X213913409Y-106779340D01*
X213889869Y-106782832D01*
X213866100Y-106784000D01*
X213381100Y-106784000D01*
X213357331Y-106782832D01*
X213333791Y-106779340D01*
X213310706Y-106773558D01*
X213288299Y-106765541D01*
X213266786Y-106755366D01*
X213246374Y-106743131D01*
X213227260Y-106728955D01*
X213209627Y-106712973D01*
X213193645Y-106695340D01*
X213179469Y-106676226D01*
X213167234Y-106655814D01*
X213157059Y-106634301D01*
X213149042Y-106611894D01*
X213143260Y-106588809D01*
X213139768Y-106565269D01*
X213138600Y-106541500D01*
X213138600Y-105776500D01*
X213139768Y-105752731D01*
X213143260Y-105729191D01*
X213149042Y-105706106D01*
X213157059Y-105683699D01*
X213167234Y-105662186D01*
X213179469Y-105641774D01*
X213193645Y-105622660D01*
X213209627Y-105605027D01*
X213227260Y-105589045D01*
X213246374Y-105574869D01*
X213266786Y-105562634D01*
X213288299Y-105552459D01*
X213310706Y-105544442D01*
X213333791Y-105538660D01*
X213357331Y-105535168D01*
X213381100Y-105534000D01*
X213866100Y-105534000D01*
X213889869Y-105535168D01*
X213889869Y-105535168D01*
G37*
D12*
X213623600Y-106159000D03*
D10*
G36*
X217538303Y-108539722D02*
X217552864Y-108541882D01*
X217567143Y-108545459D01*
X217581003Y-108550418D01*
X217594310Y-108556712D01*
X217606936Y-108564280D01*
X217618759Y-108573048D01*
X217629666Y-108582934D01*
X217639552Y-108593841D01*
X217648320Y-108605664D01*
X217655888Y-108618290D01*
X217662182Y-108631597D01*
X217667141Y-108645457D01*
X217670718Y-108659736D01*
X217672878Y-108674297D01*
X217673600Y-108689000D01*
X217673600Y-108989000D01*
X217672878Y-109003703D01*
X217670718Y-109018264D01*
X217667141Y-109032543D01*
X217662182Y-109046403D01*
X217655888Y-109059710D01*
X217648320Y-109072336D01*
X217639552Y-109084159D01*
X217629666Y-109095066D01*
X217618759Y-109104952D01*
X217606936Y-109113720D01*
X217594310Y-109121288D01*
X217581003Y-109127582D01*
X217567143Y-109132541D01*
X217552864Y-109136118D01*
X217538303Y-109138278D01*
X217523600Y-109139000D01*
X216223600Y-109139000D01*
X216208897Y-109138278D01*
X216194336Y-109136118D01*
X216180057Y-109132541D01*
X216166197Y-109127582D01*
X216152890Y-109121288D01*
X216140264Y-109113720D01*
X216128441Y-109104952D01*
X216117534Y-109095066D01*
X216107648Y-109084159D01*
X216098880Y-109072336D01*
X216091312Y-109059710D01*
X216085018Y-109046403D01*
X216080059Y-109032543D01*
X216076482Y-109018264D01*
X216074322Y-109003703D01*
X216073600Y-108989000D01*
X216073600Y-108689000D01*
X216074322Y-108674297D01*
X216076482Y-108659736D01*
X216080059Y-108645457D01*
X216085018Y-108631597D01*
X216091312Y-108618290D01*
X216098880Y-108605664D01*
X216107648Y-108593841D01*
X216117534Y-108582934D01*
X216128441Y-108573048D01*
X216140264Y-108564280D01*
X216152890Y-108556712D01*
X216166197Y-108550418D01*
X216180057Y-108545459D01*
X216194336Y-108541882D01*
X216208897Y-108539722D01*
X216223600Y-108539000D01*
X217523600Y-108539000D01*
X217538303Y-108539722D01*
X217538303Y-108539722D01*
G37*
D13*
X216873600Y-108839000D03*
D10*
G36*
X217538303Y-107269722D02*
X217552864Y-107271882D01*
X217567143Y-107275459D01*
X217581003Y-107280418D01*
X217594310Y-107286712D01*
X217606936Y-107294280D01*
X217618759Y-107303048D01*
X217629666Y-107312934D01*
X217639552Y-107323841D01*
X217648320Y-107335664D01*
X217655888Y-107348290D01*
X217662182Y-107361597D01*
X217667141Y-107375457D01*
X217670718Y-107389736D01*
X217672878Y-107404297D01*
X217673600Y-107419000D01*
X217673600Y-107719000D01*
X217672878Y-107733703D01*
X217670718Y-107748264D01*
X217667141Y-107762543D01*
X217662182Y-107776403D01*
X217655888Y-107789710D01*
X217648320Y-107802336D01*
X217639552Y-107814159D01*
X217629666Y-107825066D01*
X217618759Y-107834952D01*
X217606936Y-107843720D01*
X217594310Y-107851288D01*
X217581003Y-107857582D01*
X217567143Y-107862541D01*
X217552864Y-107866118D01*
X217538303Y-107868278D01*
X217523600Y-107869000D01*
X216223600Y-107869000D01*
X216208897Y-107868278D01*
X216194336Y-107866118D01*
X216180057Y-107862541D01*
X216166197Y-107857582D01*
X216152890Y-107851288D01*
X216140264Y-107843720D01*
X216128441Y-107834952D01*
X216117534Y-107825066D01*
X216107648Y-107814159D01*
X216098880Y-107802336D01*
X216091312Y-107789710D01*
X216085018Y-107776403D01*
X216080059Y-107762543D01*
X216076482Y-107748264D01*
X216074322Y-107733703D01*
X216073600Y-107719000D01*
X216073600Y-107419000D01*
X216074322Y-107404297D01*
X216076482Y-107389736D01*
X216080059Y-107375457D01*
X216085018Y-107361597D01*
X216091312Y-107348290D01*
X216098880Y-107335664D01*
X216107648Y-107323841D01*
X216117534Y-107312934D01*
X216128441Y-107303048D01*
X216140264Y-107294280D01*
X216152890Y-107286712D01*
X216166197Y-107280418D01*
X216180057Y-107275459D01*
X216194336Y-107271882D01*
X216208897Y-107269722D01*
X216223600Y-107269000D01*
X217523600Y-107269000D01*
X217538303Y-107269722D01*
X217538303Y-107269722D01*
G37*
D13*
X216873600Y-107569000D03*
D10*
G36*
X217538303Y-105999722D02*
X217552864Y-106001882D01*
X217567143Y-106005459D01*
X217581003Y-106010418D01*
X217594310Y-106016712D01*
X217606936Y-106024280D01*
X217618759Y-106033048D01*
X217629666Y-106042934D01*
X217639552Y-106053841D01*
X217648320Y-106065664D01*
X217655888Y-106078290D01*
X217662182Y-106091597D01*
X217667141Y-106105457D01*
X217670718Y-106119736D01*
X217672878Y-106134297D01*
X217673600Y-106149000D01*
X217673600Y-106449000D01*
X217672878Y-106463703D01*
X217670718Y-106478264D01*
X217667141Y-106492543D01*
X217662182Y-106506403D01*
X217655888Y-106519710D01*
X217648320Y-106532336D01*
X217639552Y-106544159D01*
X217629666Y-106555066D01*
X217618759Y-106564952D01*
X217606936Y-106573720D01*
X217594310Y-106581288D01*
X217581003Y-106587582D01*
X217567143Y-106592541D01*
X217552864Y-106596118D01*
X217538303Y-106598278D01*
X217523600Y-106599000D01*
X216223600Y-106599000D01*
X216208897Y-106598278D01*
X216194336Y-106596118D01*
X216180057Y-106592541D01*
X216166197Y-106587582D01*
X216152890Y-106581288D01*
X216140264Y-106573720D01*
X216128441Y-106564952D01*
X216117534Y-106555066D01*
X216107648Y-106544159D01*
X216098880Y-106532336D01*
X216091312Y-106519710D01*
X216085018Y-106506403D01*
X216080059Y-106492543D01*
X216076482Y-106478264D01*
X216074322Y-106463703D01*
X216073600Y-106449000D01*
X216073600Y-106149000D01*
X216074322Y-106134297D01*
X216076482Y-106119736D01*
X216080059Y-106105457D01*
X216085018Y-106091597D01*
X216091312Y-106078290D01*
X216098880Y-106065664D01*
X216107648Y-106053841D01*
X216117534Y-106042934D01*
X216128441Y-106033048D01*
X216140264Y-106024280D01*
X216152890Y-106016712D01*
X216166197Y-106010418D01*
X216180057Y-106005459D01*
X216194336Y-106001882D01*
X216208897Y-105999722D01*
X216223600Y-105999000D01*
X217523600Y-105999000D01*
X217538303Y-105999722D01*
X217538303Y-105999722D01*
G37*
D13*
X216873600Y-106299000D03*
D10*
G36*
X217538303Y-104729722D02*
X217552864Y-104731882D01*
X217567143Y-104735459D01*
X217581003Y-104740418D01*
X217594310Y-104746712D01*
X217606936Y-104754280D01*
X217618759Y-104763048D01*
X217629666Y-104772934D01*
X217639552Y-104783841D01*
X217648320Y-104795664D01*
X217655888Y-104808290D01*
X217662182Y-104821597D01*
X217667141Y-104835457D01*
X217670718Y-104849736D01*
X217672878Y-104864297D01*
X217673600Y-104879000D01*
X217673600Y-105179000D01*
X217672878Y-105193703D01*
X217670718Y-105208264D01*
X217667141Y-105222543D01*
X217662182Y-105236403D01*
X217655888Y-105249710D01*
X217648320Y-105262336D01*
X217639552Y-105274159D01*
X217629666Y-105285066D01*
X217618759Y-105294952D01*
X217606936Y-105303720D01*
X217594310Y-105311288D01*
X217581003Y-105317582D01*
X217567143Y-105322541D01*
X217552864Y-105326118D01*
X217538303Y-105328278D01*
X217523600Y-105329000D01*
X216223600Y-105329000D01*
X216208897Y-105328278D01*
X216194336Y-105326118D01*
X216180057Y-105322541D01*
X216166197Y-105317582D01*
X216152890Y-105311288D01*
X216140264Y-105303720D01*
X216128441Y-105294952D01*
X216117534Y-105285066D01*
X216107648Y-105274159D01*
X216098880Y-105262336D01*
X216091312Y-105249710D01*
X216085018Y-105236403D01*
X216080059Y-105222543D01*
X216076482Y-105208264D01*
X216074322Y-105193703D01*
X216073600Y-105179000D01*
X216073600Y-104879000D01*
X216074322Y-104864297D01*
X216076482Y-104849736D01*
X216080059Y-104835457D01*
X216085018Y-104821597D01*
X216091312Y-104808290D01*
X216098880Y-104795664D01*
X216107648Y-104783841D01*
X216117534Y-104772934D01*
X216128441Y-104763048D01*
X216140264Y-104754280D01*
X216152890Y-104746712D01*
X216166197Y-104740418D01*
X216180057Y-104735459D01*
X216194336Y-104731882D01*
X216208897Y-104729722D01*
X216223600Y-104729000D01*
X217523600Y-104729000D01*
X217538303Y-104729722D01*
X217538303Y-104729722D01*
G37*
D13*
X216873600Y-105029000D03*
D10*
G36*
X212238303Y-104729722D02*
X212252864Y-104731882D01*
X212267143Y-104735459D01*
X212281003Y-104740418D01*
X212294310Y-104746712D01*
X212306936Y-104754280D01*
X212318759Y-104763048D01*
X212329666Y-104772934D01*
X212339552Y-104783841D01*
X212348320Y-104795664D01*
X212355888Y-104808290D01*
X212362182Y-104821597D01*
X212367141Y-104835457D01*
X212370718Y-104849736D01*
X212372878Y-104864297D01*
X212373600Y-104879000D01*
X212373600Y-105179000D01*
X212372878Y-105193703D01*
X212370718Y-105208264D01*
X212367141Y-105222543D01*
X212362182Y-105236403D01*
X212355888Y-105249710D01*
X212348320Y-105262336D01*
X212339552Y-105274159D01*
X212329666Y-105285066D01*
X212318759Y-105294952D01*
X212306936Y-105303720D01*
X212294310Y-105311288D01*
X212281003Y-105317582D01*
X212267143Y-105322541D01*
X212252864Y-105326118D01*
X212238303Y-105328278D01*
X212223600Y-105329000D01*
X210923600Y-105329000D01*
X210908897Y-105328278D01*
X210894336Y-105326118D01*
X210880057Y-105322541D01*
X210866197Y-105317582D01*
X210852890Y-105311288D01*
X210840264Y-105303720D01*
X210828441Y-105294952D01*
X210817534Y-105285066D01*
X210807648Y-105274159D01*
X210798880Y-105262336D01*
X210791312Y-105249710D01*
X210785018Y-105236403D01*
X210780059Y-105222543D01*
X210776482Y-105208264D01*
X210774322Y-105193703D01*
X210773600Y-105179000D01*
X210773600Y-104879000D01*
X210774322Y-104864297D01*
X210776482Y-104849736D01*
X210780059Y-104835457D01*
X210785018Y-104821597D01*
X210791312Y-104808290D01*
X210798880Y-104795664D01*
X210807648Y-104783841D01*
X210817534Y-104772934D01*
X210828441Y-104763048D01*
X210840264Y-104754280D01*
X210852890Y-104746712D01*
X210866197Y-104740418D01*
X210880057Y-104735459D01*
X210894336Y-104731882D01*
X210908897Y-104729722D01*
X210923600Y-104729000D01*
X212223600Y-104729000D01*
X212238303Y-104729722D01*
X212238303Y-104729722D01*
G37*
D13*
X211573600Y-105029000D03*
D10*
G36*
X212238303Y-105999722D02*
X212252864Y-106001882D01*
X212267143Y-106005459D01*
X212281003Y-106010418D01*
X212294310Y-106016712D01*
X212306936Y-106024280D01*
X212318759Y-106033048D01*
X212329666Y-106042934D01*
X212339552Y-106053841D01*
X212348320Y-106065664D01*
X212355888Y-106078290D01*
X212362182Y-106091597D01*
X212367141Y-106105457D01*
X212370718Y-106119736D01*
X212372878Y-106134297D01*
X212373600Y-106149000D01*
X212373600Y-106449000D01*
X212372878Y-106463703D01*
X212370718Y-106478264D01*
X212367141Y-106492543D01*
X212362182Y-106506403D01*
X212355888Y-106519710D01*
X212348320Y-106532336D01*
X212339552Y-106544159D01*
X212329666Y-106555066D01*
X212318759Y-106564952D01*
X212306936Y-106573720D01*
X212294310Y-106581288D01*
X212281003Y-106587582D01*
X212267143Y-106592541D01*
X212252864Y-106596118D01*
X212238303Y-106598278D01*
X212223600Y-106599000D01*
X210923600Y-106599000D01*
X210908897Y-106598278D01*
X210894336Y-106596118D01*
X210880057Y-106592541D01*
X210866197Y-106587582D01*
X210852890Y-106581288D01*
X210840264Y-106573720D01*
X210828441Y-106564952D01*
X210817534Y-106555066D01*
X210807648Y-106544159D01*
X210798880Y-106532336D01*
X210791312Y-106519710D01*
X210785018Y-106506403D01*
X210780059Y-106492543D01*
X210776482Y-106478264D01*
X210774322Y-106463703D01*
X210773600Y-106449000D01*
X210773600Y-106149000D01*
X210774322Y-106134297D01*
X210776482Y-106119736D01*
X210780059Y-106105457D01*
X210785018Y-106091597D01*
X210791312Y-106078290D01*
X210798880Y-106065664D01*
X210807648Y-106053841D01*
X210817534Y-106042934D01*
X210828441Y-106033048D01*
X210840264Y-106024280D01*
X210852890Y-106016712D01*
X210866197Y-106010418D01*
X210880057Y-106005459D01*
X210894336Y-106001882D01*
X210908897Y-105999722D01*
X210923600Y-105999000D01*
X212223600Y-105999000D01*
X212238303Y-105999722D01*
X212238303Y-105999722D01*
G37*
D13*
X211573600Y-106299000D03*
D10*
G36*
X212238303Y-107269722D02*
X212252864Y-107271882D01*
X212267143Y-107275459D01*
X212281003Y-107280418D01*
X212294310Y-107286712D01*
X212306936Y-107294280D01*
X212318759Y-107303048D01*
X212329666Y-107312934D01*
X212339552Y-107323841D01*
X212348320Y-107335664D01*
X212355888Y-107348290D01*
X212362182Y-107361597D01*
X212367141Y-107375457D01*
X212370718Y-107389736D01*
X212372878Y-107404297D01*
X212373600Y-107419000D01*
X212373600Y-107719000D01*
X212372878Y-107733703D01*
X212370718Y-107748264D01*
X212367141Y-107762543D01*
X212362182Y-107776403D01*
X212355888Y-107789710D01*
X212348320Y-107802336D01*
X212339552Y-107814159D01*
X212329666Y-107825066D01*
X212318759Y-107834952D01*
X212306936Y-107843720D01*
X212294310Y-107851288D01*
X212281003Y-107857582D01*
X212267143Y-107862541D01*
X212252864Y-107866118D01*
X212238303Y-107868278D01*
X212223600Y-107869000D01*
X210923600Y-107869000D01*
X210908897Y-107868278D01*
X210894336Y-107866118D01*
X210880057Y-107862541D01*
X210866197Y-107857582D01*
X210852890Y-107851288D01*
X210840264Y-107843720D01*
X210828441Y-107834952D01*
X210817534Y-107825066D01*
X210807648Y-107814159D01*
X210798880Y-107802336D01*
X210791312Y-107789710D01*
X210785018Y-107776403D01*
X210780059Y-107762543D01*
X210776482Y-107748264D01*
X210774322Y-107733703D01*
X210773600Y-107719000D01*
X210773600Y-107419000D01*
X210774322Y-107404297D01*
X210776482Y-107389736D01*
X210780059Y-107375457D01*
X210785018Y-107361597D01*
X210791312Y-107348290D01*
X210798880Y-107335664D01*
X210807648Y-107323841D01*
X210817534Y-107312934D01*
X210828441Y-107303048D01*
X210840264Y-107294280D01*
X210852890Y-107286712D01*
X210866197Y-107280418D01*
X210880057Y-107275459D01*
X210894336Y-107271882D01*
X210908897Y-107269722D01*
X210923600Y-107269000D01*
X212223600Y-107269000D01*
X212238303Y-107269722D01*
X212238303Y-107269722D01*
G37*
D13*
X211573600Y-107569000D03*
D10*
G36*
X212238303Y-108539722D02*
X212252864Y-108541882D01*
X212267143Y-108545459D01*
X212281003Y-108550418D01*
X212294310Y-108556712D01*
X212306936Y-108564280D01*
X212318759Y-108573048D01*
X212329666Y-108582934D01*
X212339552Y-108593841D01*
X212348320Y-108605664D01*
X212355888Y-108618290D01*
X212362182Y-108631597D01*
X212367141Y-108645457D01*
X212370718Y-108659736D01*
X212372878Y-108674297D01*
X212373600Y-108689000D01*
X212373600Y-108989000D01*
X212372878Y-109003703D01*
X212370718Y-109018264D01*
X212367141Y-109032543D01*
X212362182Y-109046403D01*
X212355888Y-109059710D01*
X212348320Y-109072336D01*
X212339552Y-109084159D01*
X212329666Y-109095066D01*
X212318759Y-109104952D01*
X212306936Y-109113720D01*
X212294310Y-109121288D01*
X212281003Y-109127582D01*
X212267143Y-109132541D01*
X212252864Y-109136118D01*
X212238303Y-109138278D01*
X212223600Y-109139000D01*
X210923600Y-109139000D01*
X210908897Y-109138278D01*
X210894336Y-109136118D01*
X210880057Y-109132541D01*
X210866197Y-109127582D01*
X210852890Y-109121288D01*
X210840264Y-109113720D01*
X210828441Y-109104952D01*
X210817534Y-109095066D01*
X210807648Y-109084159D01*
X210798880Y-109072336D01*
X210791312Y-109059710D01*
X210785018Y-109046403D01*
X210780059Y-109032543D01*
X210776482Y-109018264D01*
X210774322Y-109003703D01*
X210773600Y-108989000D01*
X210773600Y-108689000D01*
X210774322Y-108674297D01*
X210776482Y-108659736D01*
X210780059Y-108645457D01*
X210785018Y-108631597D01*
X210791312Y-108618290D01*
X210798880Y-108605664D01*
X210807648Y-108593841D01*
X210817534Y-108582934D01*
X210828441Y-108573048D01*
X210840264Y-108564280D01*
X210852890Y-108556712D01*
X210866197Y-108550418D01*
X210880057Y-108545459D01*
X210894336Y-108541882D01*
X210908897Y-108539722D01*
X210923600Y-108539000D01*
X212223600Y-108539000D01*
X212238303Y-108539722D01*
X212238303Y-108539722D01*
G37*
D13*
X211573600Y-108839000D03*
G04 #@! TD*
D14*
G04 #@! TO.C,SW4*
X186392000Y-113768000D03*
X193592000Y-113768000D03*
X186392000Y-110768000D03*
X193592000Y-110768000D03*
G04 #@! TD*
G04 #@! TO.C,SW5*
X203752000Y-110768000D03*
X196552000Y-110768000D03*
X203752000Y-113768000D03*
X196552000Y-113768000D03*
G04 #@! TD*
G04 #@! TO.C,SW1*
X206712000Y-113768000D03*
X213912000Y-113768000D03*
X206712000Y-110768000D03*
X213912000Y-110768000D03*
G04 #@! TD*
G04 #@! TO.C,SW2*
X224072000Y-110768000D03*
X216872000Y-110768000D03*
X224072000Y-113768000D03*
X216872000Y-113768000D03*
G04 #@! TD*
G04 #@! TO.C,SW3*
X227032000Y-113768000D03*
X234232000Y-113768000D03*
X227032000Y-110768000D03*
X234232000Y-110768000D03*
G04 #@! TD*
D15*
G04 #@! TO.C,U8*
X194208400Y-102717600D03*
X194208400Y-100177600D03*
X194208400Y-97637600D03*
X194208400Y-95097600D03*
X194208400Y-92557600D03*
X194208400Y-90017600D03*
X194208400Y-87477600D03*
X194208400Y-84937600D03*
G04 #@! TD*
D16*
G04 #@! TO.C,J2*
X201930000Y-103124000D03*
X199390000Y-103124000D03*
G04 #@! TD*
D10*
G04 #@! TO.C,C9*
G36*
X190218891Y-93670653D02*
X190240126Y-93673803D01*
X190260950Y-93679019D01*
X190281162Y-93686251D01*
X190300568Y-93695430D01*
X190318981Y-93706466D01*
X190336224Y-93719254D01*
X190352130Y-93733670D01*
X190366546Y-93749576D01*
X190379334Y-93766819D01*
X190390370Y-93785232D01*
X190399549Y-93804638D01*
X190406781Y-93824850D01*
X190411997Y-93845674D01*
X190415147Y-93866909D01*
X190416200Y-93888350D01*
X190416200Y-94325850D01*
X190415147Y-94347291D01*
X190411997Y-94368526D01*
X190406781Y-94389350D01*
X190399549Y-94409562D01*
X190390370Y-94428968D01*
X190379334Y-94447381D01*
X190366546Y-94464624D01*
X190352130Y-94480530D01*
X190336224Y-94494946D01*
X190318981Y-94507734D01*
X190300568Y-94518770D01*
X190281162Y-94527949D01*
X190260950Y-94535181D01*
X190240126Y-94540397D01*
X190218891Y-94543547D01*
X190197450Y-94544600D01*
X189684950Y-94544600D01*
X189663509Y-94543547D01*
X189642274Y-94540397D01*
X189621450Y-94535181D01*
X189601238Y-94527949D01*
X189581832Y-94518770D01*
X189563419Y-94507734D01*
X189546176Y-94494946D01*
X189530270Y-94480530D01*
X189515854Y-94464624D01*
X189503066Y-94447381D01*
X189492030Y-94428968D01*
X189482851Y-94409562D01*
X189475619Y-94389350D01*
X189470403Y-94368526D01*
X189467253Y-94347291D01*
X189466200Y-94325850D01*
X189466200Y-93888350D01*
X189467253Y-93866909D01*
X189470403Y-93845674D01*
X189475619Y-93824850D01*
X189482851Y-93804638D01*
X189492030Y-93785232D01*
X189503066Y-93766819D01*
X189515854Y-93749576D01*
X189530270Y-93733670D01*
X189546176Y-93719254D01*
X189563419Y-93706466D01*
X189581832Y-93695430D01*
X189601238Y-93686251D01*
X189621450Y-93679019D01*
X189642274Y-93673803D01*
X189663509Y-93670653D01*
X189684950Y-93669600D01*
X190197450Y-93669600D01*
X190218891Y-93670653D01*
X190218891Y-93670653D01*
G37*
D11*
X189941200Y-94107100D03*
D10*
G36*
X190218891Y-92095653D02*
X190240126Y-92098803D01*
X190260950Y-92104019D01*
X190281162Y-92111251D01*
X190300568Y-92120430D01*
X190318981Y-92131466D01*
X190336224Y-92144254D01*
X190352130Y-92158670D01*
X190366546Y-92174576D01*
X190379334Y-92191819D01*
X190390370Y-92210232D01*
X190399549Y-92229638D01*
X190406781Y-92249850D01*
X190411997Y-92270674D01*
X190415147Y-92291909D01*
X190416200Y-92313350D01*
X190416200Y-92750850D01*
X190415147Y-92772291D01*
X190411997Y-92793526D01*
X190406781Y-92814350D01*
X190399549Y-92834562D01*
X190390370Y-92853968D01*
X190379334Y-92872381D01*
X190366546Y-92889624D01*
X190352130Y-92905530D01*
X190336224Y-92919946D01*
X190318981Y-92932734D01*
X190300568Y-92943770D01*
X190281162Y-92952949D01*
X190260950Y-92960181D01*
X190240126Y-92965397D01*
X190218891Y-92968547D01*
X190197450Y-92969600D01*
X189684950Y-92969600D01*
X189663509Y-92968547D01*
X189642274Y-92965397D01*
X189621450Y-92960181D01*
X189601238Y-92952949D01*
X189581832Y-92943770D01*
X189563419Y-92932734D01*
X189546176Y-92919946D01*
X189530270Y-92905530D01*
X189515854Y-92889624D01*
X189503066Y-92872381D01*
X189492030Y-92853968D01*
X189482851Y-92834562D01*
X189475619Y-92814350D01*
X189470403Y-92793526D01*
X189467253Y-92772291D01*
X189466200Y-92750850D01*
X189466200Y-92313350D01*
X189467253Y-92291909D01*
X189470403Y-92270674D01*
X189475619Y-92249850D01*
X189482851Y-92229638D01*
X189492030Y-92210232D01*
X189503066Y-92191819D01*
X189515854Y-92174576D01*
X189530270Y-92158670D01*
X189546176Y-92144254D01*
X189563419Y-92131466D01*
X189581832Y-92120430D01*
X189601238Y-92111251D01*
X189621450Y-92104019D01*
X189642274Y-92098803D01*
X189663509Y-92095653D01*
X189684950Y-92094600D01*
X190197450Y-92094600D01*
X190218891Y-92095653D01*
X190218891Y-92095653D01*
G37*
D11*
X189941200Y-92532100D03*
G04 #@! TD*
D10*
G04 #@! TO.C,C11*
G36*
X199616891Y-84932853D02*
X199638126Y-84936003D01*
X199658950Y-84941219D01*
X199679162Y-84948451D01*
X199698568Y-84957630D01*
X199716981Y-84968666D01*
X199734224Y-84981454D01*
X199750130Y-84995870D01*
X199764546Y-85011776D01*
X199777334Y-85029019D01*
X199788370Y-85047432D01*
X199797549Y-85066838D01*
X199804781Y-85087050D01*
X199809997Y-85107874D01*
X199813147Y-85129109D01*
X199814200Y-85150550D01*
X199814200Y-85588050D01*
X199813147Y-85609491D01*
X199809997Y-85630726D01*
X199804781Y-85651550D01*
X199797549Y-85671762D01*
X199788370Y-85691168D01*
X199777334Y-85709581D01*
X199764546Y-85726824D01*
X199750130Y-85742730D01*
X199734224Y-85757146D01*
X199716981Y-85769934D01*
X199698568Y-85780970D01*
X199679162Y-85790149D01*
X199658950Y-85797381D01*
X199638126Y-85802597D01*
X199616891Y-85805747D01*
X199595450Y-85806800D01*
X199082950Y-85806800D01*
X199061509Y-85805747D01*
X199040274Y-85802597D01*
X199019450Y-85797381D01*
X198999238Y-85790149D01*
X198979832Y-85780970D01*
X198961419Y-85769934D01*
X198944176Y-85757146D01*
X198928270Y-85742730D01*
X198913854Y-85726824D01*
X198901066Y-85709581D01*
X198890030Y-85691168D01*
X198880851Y-85671762D01*
X198873619Y-85651550D01*
X198868403Y-85630726D01*
X198865253Y-85609491D01*
X198864200Y-85588050D01*
X198864200Y-85150550D01*
X198865253Y-85129109D01*
X198868403Y-85107874D01*
X198873619Y-85087050D01*
X198880851Y-85066838D01*
X198890030Y-85047432D01*
X198901066Y-85029019D01*
X198913854Y-85011776D01*
X198928270Y-84995870D01*
X198944176Y-84981454D01*
X198961419Y-84968666D01*
X198979832Y-84957630D01*
X198999238Y-84948451D01*
X199019450Y-84941219D01*
X199040274Y-84936003D01*
X199061509Y-84932853D01*
X199082950Y-84931800D01*
X199595450Y-84931800D01*
X199616891Y-84932853D01*
X199616891Y-84932853D01*
G37*
D11*
X199339200Y-85369300D03*
D10*
G36*
X199616891Y-86507853D02*
X199638126Y-86511003D01*
X199658950Y-86516219D01*
X199679162Y-86523451D01*
X199698568Y-86532630D01*
X199716981Y-86543666D01*
X199734224Y-86556454D01*
X199750130Y-86570870D01*
X199764546Y-86586776D01*
X199777334Y-86604019D01*
X199788370Y-86622432D01*
X199797549Y-86641838D01*
X199804781Y-86662050D01*
X199809997Y-86682874D01*
X199813147Y-86704109D01*
X199814200Y-86725550D01*
X199814200Y-87163050D01*
X199813147Y-87184491D01*
X199809997Y-87205726D01*
X199804781Y-87226550D01*
X199797549Y-87246762D01*
X199788370Y-87266168D01*
X199777334Y-87284581D01*
X199764546Y-87301824D01*
X199750130Y-87317730D01*
X199734224Y-87332146D01*
X199716981Y-87344934D01*
X199698568Y-87355970D01*
X199679162Y-87365149D01*
X199658950Y-87372381D01*
X199638126Y-87377597D01*
X199616891Y-87380747D01*
X199595450Y-87381800D01*
X199082950Y-87381800D01*
X199061509Y-87380747D01*
X199040274Y-87377597D01*
X199019450Y-87372381D01*
X198999238Y-87365149D01*
X198979832Y-87355970D01*
X198961419Y-87344934D01*
X198944176Y-87332146D01*
X198928270Y-87317730D01*
X198913854Y-87301824D01*
X198901066Y-87284581D01*
X198890030Y-87266168D01*
X198880851Y-87246762D01*
X198873619Y-87226550D01*
X198868403Y-87205726D01*
X198865253Y-87184491D01*
X198864200Y-87163050D01*
X198864200Y-86725550D01*
X198865253Y-86704109D01*
X198868403Y-86682874D01*
X198873619Y-86662050D01*
X198880851Y-86641838D01*
X198890030Y-86622432D01*
X198901066Y-86604019D01*
X198913854Y-86586776D01*
X198928270Y-86570870D01*
X198944176Y-86556454D01*
X198961419Y-86543666D01*
X198979832Y-86532630D01*
X198999238Y-86523451D01*
X199019450Y-86516219D01*
X199040274Y-86511003D01*
X199061509Y-86507853D01*
X199082950Y-86506800D01*
X199595450Y-86506800D01*
X199616891Y-86507853D01*
X199616891Y-86507853D01*
G37*
D11*
X199339200Y-86944300D03*
G04 #@! TD*
D10*
G04 #@! TO.C,C12*
G36*
X187120091Y-92044853D02*
X187141326Y-92048003D01*
X187162150Y-92053219D01*
X187182362Y-92060451D01*
X187201768Y-92069630D01*
X187220181Y-92080666D01*
X187237424Y-92093454D01*
X187253330Y-92107870D01*
X187267746Y-92123776D01*
X187280534Y-92141019D01*
X187291570Y-92159432D01*
X187300749Y-92178838D01*
X187307981Y-92199050D01*
X187313197Y-92219874D01*
X187316347Y-92241109D01*
X187317400Y-92262550D01*
X187317400Y-92700050D01*
X187316347Y-92721491D01*
X187313197Y-92742726D01*
X187307981Y-92763550D01*
X187300749Y-92783762D01*
X187291570Y-92803168D01*
X187280534Y-92821581D01*
X187267746Y-92838824D01*
X187253330Y-92854730D01*
X187237424Y-92869146D01*
X187220181Y-92881934D01*
X187201768Y-92892970D01*
X187182362Y-92902149D01*
X187162150Y-92909381D01*
X187141326Y-92914597D01*
X187120091Y-92917747D01*
X187098650Y-92918800D01*
X186586150Y-92918800D01*
X186564709Y-92917747D01*
X186543474Y-92914597D01*
X186522650Y-92909381D01*
X186502438Y-92902149D01*
X186483032Y-92892970D01*
X186464619Y-92881934D01*
X186447376Y-92869146D01*
X186431470Y-92854730D01*
X186417054Y-92838824D01*
X186404266Y-92821581D01*
X186393230Y-92803168D01*
X186384051Y-92783762D01*
X186376819Y-92763550D01*
X186371603Y-92742726D01*
X186368453Y-92721491D01*
X186367400Y-92700050D01*
X186367400Y-92262550D01*
X186368453Y-92241109D01*
X186371603Y-92219874D01*
X186376819Y-92199050D01*
X186384051Y-92178838D01*
X186393230Y-92159432D01*
X186404266Y-92141019D01*
X186417054Y-92123776D01*
X186431470Y-92107870D01*
X186447376Y-92093454D01*
X186464619Y-92080666D01*
X186483032Y-92069630D01*
X186502438Y-92060451D01*
X186522650Y-92053219D01*
X186543474Y-92048003D01*
X186564709Y-92044853D01*
X186586150Y-92043800D01*
X187098650Y-92043800D01*
X187120091Y-92044853D01*
X187120091Y-92044853D01*
G37*
D11*
X186842400Y-92481300D03*
D10*
G36*
X187120091Y-93619853D02*
X187141326Y-93623003D01*
X187162150Y-93628219D01*
X187182362Y-93635451D01*
X187201768Y-93644630D01*
X187220181Y-93655666D01*
X187237424Y-93668454D01*
X187253330Y-93682870D01*
X187267746Y-93698776D01*
X187280534Y-93716019D01*
X187291570Y-93734432D01*
X187300749Y-93753838D01*
X187307981Y-93774050D01*
X187313197Y-93794874D01*
X187316347Y-93816109D01*
X187317400Y-93837550D01*
X187317400Y-94275050D01*
X187316347Y-94296491D01*
X187313197Y-94317726D01*
X187307981Y-94338550D01*
X187300749Y-94358762D01*
X187291570Y-94378168D01*
X187280534Y-94396581D01*
X187267746Y-94413824D01*
X187253330Y-94429730D01*
X187237424Y-94444146D01*
X187220181Y-94456934D01*
X187201768Y-94467970D01*
X187182362Y-94477149D01*
X187162150Y-94484381D01*
X187141326Y-94489597D01*
X187120091Y-94492747D01*
X187098650Y-94493800D01*
X186586150Y-94493800D01*
X186564709Y-94492747D01*
X186543474Y-94489597D01*
X186522650Y-94484381D01*
X186502438Y-94477149D01*
X186483032Y-94467970D01*
X186464619Y-94456934D01*
X186447376Y-94444146D01*
X186431470Y-94429730D01*
X186417054Y-94413824D01*
X186404266Y-94396581D01*
X186393230Y-94378168D01*
X186384051Y-94358762D01*
X186376819Y-94338550D01*
X186371603Y-94317726D01*
X186368453Y-94296491D01*
X186367400Y-94275050D01*
X186367400Y-93837550D01*
X186368453Y-93816109D01*
X186371603Y-93794874D01*
X186376819Y-93774050D01*
X186384051Y-93753838D01*
X186393230Y-93734432D01*
X186404266Y-93716019D01*
X186417054Y-93698776D01*
X186431470Y-93682870D01*
X186447376Y-93668454D01*
X186464619Y-93655666D01*
X186483032Y-93644630D01*
X186502438Y-93635451D01*
X186522650Y-93628219D01*
X186543474Y-93623003D01*
X186564709Y-93619853D01*
X186586150Y-93618800D01*
X187098650Y-93618800D01*
X187120091Y-93619853D01*
X187120091Y-93619853D01*
G37*
D11*
X186842400Y-94056300D03*
G04 #@! TD*
D10*
G04 #@! TO.C,C13*
G36*
X188644091Y-96972653D02*
X188665326Y-96975803D01*
X188686150Y-96981019D01*
X188706362Y-96988251D01*
X188725768Y-96997430D01*
X188744181Y-97008466D01*
X188761424Y-97021254D01*
X188777330Y-97035670D01*
X188791746Y-97051576D01*
X188804534Y-97068819D01*
X188815570Y-97087232D01*
X188824749Y-97106638D01*
X188831981Y-97126850D01*
X188837197Y-97147674D01*
X188840347Y-97168909D01*
X188841400Y-97190350D01*
X188841400Y-97627850D01*
X188840347Y-97649291D01*
X188837197Y-97670526D01*
X188831981Y-97691350D01*
X188824749Y-97711562D01*
X188815570Y-97730968D01*
X188804534Y-97749381D01*
X188791746Y-97766624D01*
X188777330Y-97782530D01*
X188761424Y-97796946D01*
X188744181Y-97809734D01*
X188725768Y-97820770D01*
X188706362Y-97829949D01*
X188686150Y-97837181D01*
X188665326Y-97842397D01*
X188644091Y-97845547D01*
X188622650Y-97846600D01*
X188110150Y-97846600D01*
X188088709Y-97845547D01*
X188067474Y-97842397D01*
X188046650Y-97837181D01*
X188026438Y-97829949D01*
X188007032Y-97820770D01*
X187988619Y-97809734D01*
X187971376Y-97796946D01*
X187955470Y-97782530D01*
X187941054Y-97766624D01*
X187928266Y-97749381D01*
X187917230Y-97730968D01*
X187908051Y-97711562D01*
X187900819Y-97691350D01*
X187895603Y-97670526D01*
X187892453Y-97649291D01*
X187891400Y-97627850D01*
X187891400Y-97190350D01*
X187892453Y-97168909D01*
X187895603Y-97147674D01*
X187900819Y-97126850D01*
X187908051Y-97106638D01*
X187917230Y-97087232D01*
X187928266Y-97068819D01*
X187941054Y-97051576D01*
X187955470Y-97035670D01*
X187971376Y-97021254D01*
X187988619Y-97008466D01*
X188007032Y-96997430D01*
X188026438Y-96988251D01*
X188046650Y-96981019D01*
X188067474Y-96975803D01*
X188088709Y-96972653D01*
X188110150Y-96971600D01*
X188622650Y-96971600D01*
X188644091Y-96972653D01*
X188644091Y-96972653D01*
G37*
D11*
X188366400Y-97409100D03*
D10*
G36*
X188644091Y-95397653D02*
X188665326Y-95400803D01*
X188686150Y-95406019D01*
X188706362Y-95413251D01*
X188725768Y-95422430D01*
X188744181Y-95433466D01*
X188761424Y-95446254D01*
X188777330Y-95460670D01*
X188791746Y-95476576D01*
X188804534Y-95493819D01*
X188815570Y-95512232D01*
X188824749Y-95531638D01*
X188831981Y-95551850D01*
X188837197Y-95572674D01*
X188840347Y-95593909D01*
X188841400Y-95615350D01*
X188841400Y-96052850D01*
X188840347Y-96074291D01*
X188837197Y-96095526D01*
X188831981Y-96116350D01*
X188824749Y-96136562D01*
X188815570Y-96155968D01*
X188804534Y-96174381D01*
X188791746Y-96191624D01*
X188777330Y-96207530D01*
X188761424Y-96221946D01*
X188744181Y-96234734D01*
X188725768Y-96245770D01*
X188706362Y-96254949D01*
X188686150Y-96262181D01*
X188665326Y-96267397D01*
X188644091Y-96270547D01*
X188622650Y-96271600D01*
X188110150Y-96271600D01*
X188088709Y-96270547D01*
X188067474Y-96267397D01*
X188046650Y-96262181D01*
X188026438Y-96254949D01*
X188007032Y-96245770D01*
X187988619Y-96234734D01*
X187971376Y-96221946D01*
X187955470Y-96207530D01*
X187941054Y-96191624D01*
X187928266Y-96174381D01*
X187917230Y-96155968D01*
X187908051Y-96136562D01*
X187900819Y-96116350D01*
X187895603Y-96095526D01*
X187892453Y-96074291D01*
X187891400Y-96052850D01*
X187891400Y-95615350D01*
X187892453Y-95593909D01*
X187895603Y-95572674D01*
X187900819Y-95551850D01*
X187908051Y-95531638D01*
X187917230Y-95512232D01*
X187928266Y-95493819D01*
X187941054Y-95476576D01*
X187955470Y-95460670D01*
X187971376Y-95446254D01*
X187988619Y-95433466D01*
X188007032Y-95422430D01*
X188026438Y-95413251D01*
X188046650Y-95406019D01*
X188067474Y-95400803D01*
X188088709Y-95397653D01*
X188110150Y-95396600D01*
X188622650Y-95396600D01*
X188644091Y-95397653D01*
X188644091Y-95397653D01*
G37*
D11*
X188366400Y-95834100D03*
G04 #@! TD*
D17*
G04 #@! TO.C,D1*
X226528400Y-107899200D03*
X227928400Y-107899200D03*
G04 #@! TD*
G04 #@! TO.C,D3*
X227928400Y-106680000D03*
X226528400Y-106680000D03*
G04 #@! TD*
G04 #@! TO.C,D4*
X226590400Y-105511600D03*
X227990400Y-105511600D03*
G04 #@! TD*
D10*
G04 #@! TO.C,L1*
G36*
X188644091Y-100122253D02*
X188665326Y-100125403D01*
X188686150Y-100130619D01*
X188706362Y-100137851D01*
X188725768Y-100147030D01*
X188744181Y-100158066D01*
X188761424Y-100170854D01*
X188777330Y-100185270D01*
X188791746Y-100201176D01*
X188804534Y-100218419D01*
X188815570Y-100236832D01*
X188824749Y-100256238D01*
X188831981Y-100276450D01*
X188837197Y-100297274D01*
X188840347Y-100318509D01*
X188841400Y-100339950D01*
X188841400Y-100777450D01*
X188840347Y-100798891D01*
X188837197Y-100820126D01*
X188831981Y-100840950D01*
X188824749Y-100861162D01*
X188815570Y-100880568D01*
X188804534Y-100898981D01*
X188791746Y-100916224D01*
X188777330Y-100932130D01*
X188761424Y-100946546D01*
X188744181Y-100959334D01*
X188725768Y-100970370D01*
X188706362Y-100979549D01*
X188686150Y-100986781D01*
X188665326Y-100991997D01*
X188644091Y-100995147D01*
X188622650Y-100996200D01*
X188110150Y-100996200D01*
X188088709Y-100995147D01*
X188067474Y-100991997D01*
X188046650Y-100986781D01*
X188026438Y-100979549D01*
X188007032Y-100970370D01*
X187988619Y-100959334D01*
X187971376Y-100946546D01*
X187955470Y-100932130D01*
X187941054Y-100916224D01*
X187928266Y-100898981D01*
X187917230Y-100880568D01*
X187908051Y-100861162D01*
X187900819Y-100840950D01*
X187895603Y-100820126D01*
X187892453Y-100798891D01*
X187891400Y-100777450D01*
X187891400Y-100339950D01*
X187892453Y-100318509D01*
X187895603Y-100297274D01*
X187900819Y-100276450D01*
X187908051Y-100256238D01*
X187917230Y-100236832D01*
X187928266Y-100218419D01*
X187941054Y-100201176D01*
X187955470Y-100185270D01*
X187971376Y-100170854D01*
X187988619Y-100158066D01*
X188007032Y-100147030D01*
X188026438Y-100137851D01*
X188046650Y-100130619D01*
X188067474Y-100125403D01*
X188088709Y-100122253D01*
X188110150Y-100121200D01*
X188622650Y-100121200D01*
X188644091Y-100122253D01*
X188644091Y-100122253D01*
G37*
D11*
X188366400Y-100558700D03*
D10*
G36*
X188644091Y-98547253D02*
X188665326Y-98550403D01*
X188686150Y-98555619D01*
X188706362Y-98562851D01*
X188725768Y-98572030D01*
X188744181Y-98583066D01*
X188761424Y-98595854D01*
X188777330Y-98610270D01*
X188791746Y-98626176D01*
X188804534Y-98643419D01*
X188815570Y-98661832D01*
X188824749Y-98681238D01*
X188831981Y-98701450D01*
X188837197Y-98722274D01*
X188840347Y-98743509D01*
X188841400Y-98764950D01*
X188841400Y-99202450D01*
X188840347Y-99223891D01*
X188837197Y-99245126D01*
X188831981Y-99265950D01*
X188824749Y-99286162D01*
X188815570Y-99305568D01*
X188804534Y-99323981D01*
X188791746Y-99341224D01*
X188777330Y-99357130D01*
X188761424Y-99371546D01*
X188744181Y-99384334D01*
X188725768Y-99395370D01*
X188706362Y-99404549D01*
X188686150Y-99411781D01*
X188665326Y-99416997D01*
X188644091Y-99420147D01*
X188622650Y-99421200D01*
X188110150Y-99421200D01*
X188088709Y-99420147D01*
X188067474Y-99416997D01*
X188046650Y-99411781D01*
X188026438Y-99404549D01*
X188007032Y-99395370D01*
X187988619Y-99384334D01*
X187971376Y-99371546D01*
X187955470Y-99357130D01*
X187941054Y-99341224D01*
X187928266Y-99323981D01*
X187917230Y-99305568D01*
X187908051Y-99286162D01*
X187900819Y-99265950D01*
X187895603Y-99245126D01*
X187892453Y-99223891D01*
X187891400Y-99202450D01*
X187891400Y-98764950D01*
X187892453Y-98743509D01*
X187895603Y-98722274D01*
X187900819Y-98701450D01*
X187908051Y-98681238D01*
X187917230Y-98661832D01*
X187928266Y-98643419D01*
X187941054Y-98626176D01*
X187955470Y-98610270D01*
X187971376Y-98595854D01*
X187988619Y-98583066D01*
X188007032Y-98572030D01*
X188026438Y-98562851D01*
X188046650Y-98555619D01*
X188067474Y-98550403D01*
X188088709Y-98547253D01*
X188110150Y-98546200D01*
X188622650Y-98546200D01*
X188644091Y-98547253D01*
X188644091Y-98547253D01*
G37*
D11*
X188366400Y-98983700D03*
G04 #@! TD*
D10*
G04 #@! TO.C,R20*
G36*
X188694891Y-92095653D02*
X188716126Y-92098803D01*
X188736950Y-92104019D01*
X188757162Y-92111251D01*
X188776568Y-92120430D01*
X188794981Y-92131466D01*
X188812224Y-92144254D01*
X188828130Y-92158670D01*
X188842546Y-92174576D01*
X188855334Y-92191819D01*
X188866370Y-92210232D01*
X188875549Y-92229638D01*
X188882781Y-92249850D01*
X188887997Y-92270674D01*
X188891147Y-92291909D01*
X188892200Y-92313350D01*
X188892200Y-92750850D01*
X188891147Y-92772291D01*
X188887997Y-92793526D01*
X188882781Y-92814350D01*
X188875549Y-92834562D01*
X188866370Y-92853968D01*
X188855334Y-92872381D01*
X188842546Y-92889624D01*
X188828130Y-92905530D01*
X188812224Y-92919946D01*
X188794981Y-92932734D01*
X188776568Y-92943770D01*
X188757162Y-92952949D01*
X188736950Y-92960181D01*
X188716126Y-92965397D01*
X188694891Y-92968547D01*
X188673450Y-92969600D01*
X188160950Y-92969600D01*
X188139509Y-92968547D01*
X188118274Y-92965397D01*
X188097450Y-92960181D01*
X188077238Y-92952949D01*
X188057832Y-92943770D01*
X188039419Y-92932734D01*
X188022176Y-92919946D01*
X188006270Y-92905530D01*
X187991854Y-92889624D01*
X187979066Y-92872381D01*
X187968030Y-92853968D01*
X187958851Y-92834562D01*
X187951619Y-92814350D01*
X187946403Y-92793526D01*
X187943253Y-92772291D01*
X187942200Y-92750850D01*
X187942200Y-92313350D01*
X187943253Y-92291909D01*
X187946403Y-92270674D01*
X187951619Y-92249850D01*
X187958851Y-92229638D01*
X187968030Y-92210232D01*
X187979066Y-92191819D01*
X187991854Y-92174576D01*
X188006270Y-92158670D01*
X188022176Y-92144254D01*
X188039419Y-92131466D01*
X188057832Y-92120430D01*
X188077238Y-92111251D01*
X188097450Y-92104019D01*
X188118274Y-92098803D01*
X188139509Y-92095653D01*
X188160950Y-92094600D01*
X188673450Y-92094600D01*
X188694891Y-92095653D01*
X188694891Y-92095653D01*
G37*
D11*
X188417200Y-92532100D03*
D10*
G36*
X188694891Y-93670653D02*
X188716126Y-93673803D01*
X188736950Y-93679019D01*
X188757162Y-93686251D01*
X188776568Y-93695430D01*
X188794981Y-93706466D01*
X188812224Y-93719254D01*
X188828130Y-93733670D01*
X188842546Y-93749576D01*
X188855334Y-93766819D01*
X188866370Y-93785232D01*
X188875549Y-93804638D01*
X188882781Y-93824850D01*
X188887997Y-93845674D01*
X188891147Y-93866909D01*
X188892200Y-93888350D01*
X188892200Y-94325850D01*
X188891147Y-94347291D01*
X188887997Y-94368526D01*
X188882781Y-94389350D01*
X188875549Y-94409562D01*
X188866370Y-94428968D01*
X188855334Y-94447381D01*
X188842546Y-94464624D01*
X188828130Y-94480530D01*
X188812224Y-94494946D01*
X188794981Y-94507734D01*
X188776568Y-94518770D01*
X188757162Y-94527949D01*
X188736950Y-94535181D01*
X188716126Y-94540397D01*
X188694891Y-94543547D01*
X188673450Y-94544600D01*
X188160950Y-94544600D01*
X188139509Y-94543547D01*
X188118274Y-94540397D01*
X188097450Y-94535181D01*
X188077238Y-94527949D01*
X188057832Y-94518770D01*
X188039419Y-94507734D01*
X188022176Y-94494946D01*
X188006270Y-94480530D01*
X187991854Y-94464624D01*
X187979066Y-94447381D01*
X187968030Y-94428968D01*
X187958851Y-94409562D01*
X187951619Y-94389350D01*
X187946403Y-94368526D01*
X187943253Y-94347291D01*
X187942200Y-94325850D01*
X187942200Y-93888350D01*
X187943253Y-93866909D01*
X187946403Y-93845674D01*
X187951619Y-93824850D01*
X187958851Y-93804638D01*
X187968030Y-93785232D01*
X187979066Y-93766819D01*
X187991854Y-93749576D01*
X188006270Y-93733670D01*
X188022176Y-93719254D01*
X188039419Y-93706466D01*
X188057832Y-93695430D01*
X188077238Y-93686251D01*
X188097450Y-93679019D01*
X188118274Y-93673803D01*
X188139509Y-93670653D01*
X188160950Y-93669600D01*
X188673450Y-93669600D01*
X188694891Y-93670653D01*
X188694891Y-93670653D01*
G37*
D11*
X188417200Y-94107100D03*
G04 #@! TD*
D10*
G04 #@! TO.C,R22*
G36*
X199858891Y-87867253D02*
X199880126Y-87870403D01*
X199900950Y-87875619D01*
X199921162Y-87882851D01*
X199940568Y-87892030D01*
X199958981Y-87903066D01*
X199976224Y-87915854D01*
X199992130Y-87930270D01*
X200006546Y-87946176D01*
X200019334Y-87963419D01*
X200030370Y-87981832D01*
X200039549Y-88001238D01*
X200046781Y-88021450D01*
X200051997Y-88042274D01*
X200055147Y-88063509D01*
X200056200Y-88084950D01*
X200056200Y-88597450D01*
X200055147Y-88618891D01*
X200051997Y-88640126D01*
X200046781Y-88660950D01*
X200039549Y-88681162D01*
X200030370Y-88700568D01*
X200019334Y-88718981D01*
X200006546Y-88736224D01*
X199992130Y-88752130D01*
X199976224Y-88766546D01*
X199958981Y-88779334D01*
X199940568Y-88790370D01*
X199921162Y-88799549D01*
X199900950Y-88806781D01*
X199880126Y-88811997D01*
X199858891Y-88815147D01*
X199837450Y-88816200D01*
X199399950Y-88816200D01*
X199378509Y-88815147D01*
X199357274Y-88811997D01*
X199336450Y-88806781D01*
X199316238Y-88799549D01*
X199296832Y-88790370D01*
X199278419Y-88779334D01*
X199261176Y-88766546D01*
X199245270Y-88752130D01*
X199230854Y-88736224D01*
X199218066Y-88718981D01*
X199207030Y-88700568D01*
X199197851Y-88681162D01*
X199190619Y-88660950D01*
X199185403Y-88640126D01*
X199182253Y-88618891D01*
X199181200Y-88597450D01*
X199181200Y-88084950D01*
X199182253Y-88063509D01*
X199185403Y-88042274D01*
X199190619Y-88021450D01*
X199197851Y-88001238D01*
X199207030Y-87981832D01*
X199218066Y-87963419D01*
X199230854Y-87946176D01*
X199245270Y-87930270D01*
X199261176Y-87915854D01*
X199278419Y-87903066D01*
X199296832Y-87892030D01*
X199316238Y-87882851D01*
X199336450Y-87875619D01*
X199357274Y-87870403D01*
X199378509Y-87867253D01*
X199399950Y-87866200D01*
X199837450Y-87866200D01*
X199858891Y-87867253D01*
X199858891Y-87867253D01*
G37*
D11*
X199618700Y-88341200D03*
D10*
G36*
X198283891Y-87867253D02*
X198305126Y-87870403D01*
X198325950Y-87875619D01*
X198346162Y-87882851D01*
X198365568Y-87892030D01*
X198383981Y-87903066D01*
X198401224Y-87915854D01*
X198417130Y-87930270D01*
X198431546Y-87946176D01*
X198444334Y-87963419D01*
X198455370Y-87981832D01*
X198464549Y-88001238D01*
X198471781Y-88021450D01*
X198476997Y-88042274D01*
X198480147Y-88063509D01*
X198481200Y-88084950D01*
X198481200Y-88597450D01*
X198480147Y-88618891D01*
X198476997Y-88640126D01*
X198471781Y-88660950D01*
X198464549Y-88681162D01*
X198455370Y-88700568D01*
X198444334Y-88718981D01*
X198431546Y-88736224D01*
X198417130Y-88752130D01*
X198401224Y-88766546D01*
X198383981Y-88779334D01*
X198365568Y-88790370D01*
X198346162Y-88799549D01*
X198325950Y-88806781D01*
X198305126Y-88811997D01*
X198283891Y-88815147D01*
X198262450Y-88816200D01*
X197824950Y-88816200D01*
X197803509Y-88815147D01*
X197782274Y-88811997D01*
X197761450Y-88806781D01*
X197741238Y-88799549D01*
X197721832Y-88790370D01*
X197703419Y-88779334D01*
X197686176Y-88766546D01*
X197670270Y-88752130D01*
X197655854Y-88736224D01*
X197643066Y-88718981D01*
X197632030Y-88700568D01*
X197622851Y-88681162D01*
X197615619Y-88660950D01*
X197610403Y-88640126D01*
X197607253Y-88618891D01*
X197606200Y-88597450D01*
X197606200Y-88084950D01*
X197607253Y-88063509D01*
X197610403Y-88042274D01*
X197615619Y-88021450D01*
X197622851Y-88001238D01*
X197632030Y-87981832D01*
X197643066Y-87963419D01*
X197655854Y-87946176D01*
X197670270Y-87930270D01*
X197686176Y-87915854D01*
X197703419Y-87903066D01*
X197721832Y-87892030D01*
X197741238Y-87882851D01*
X197761450Y-87875619D01*
X197782274Y-87870403D01*
X197803509Y-87867253D01*
X197824950Y-87866200D01*
X198262450Y-87866200D01*
X198283891Y-87867253D01*
X198283891Y-87867253D01*
G37*
D11*
X198043700Y-88341200D03*
G04 #@! TD*
D10*
G04 #@! TO.C,R18*
G36*
X192301691Y-108580553D02*
X192322926Y-108583703D01*
X192343750Y-108588919D01*
X192363962Y-108596151D01*
X192383368Y-108605330D01*
X192401781Y-108616366D01*
X192419024Y-108629154D01*
X192434930Y-108643570D01*
X192449346Y-108659476D01*
X192462134Y-108676719D01*
X192473170Y-108695132D01*
X192482349Y-108714538D01*
X192489581Y-108734750D01*
X192494797Y-108755574D01*
X192497947Y-108776809D01*
X192499000Y-108798250D01*
X192499000Y-109235750D01*
X192497947Y-109257191D01*
X192494797Y-109278426D01*
X192489581Y-109299250D01*
X192482349Y-109319462D01*
X192473170Y-109338868D01*
X192462134Y-109357281D01*
X192449346Y-109374524D01*
X192434930Y-109390430D01*
X192419024Y-109404846D01*
X192401781Y-109417634D01*
X192383368Y-109428670D01*
X192363962Y-109437849D01*
X192343750Y-109445081D01*
X192322926Y-109450297D01*
X192301691Y-109453447D01*
X192280250Y-109454500D01*
X191767750Y-109454500D01*
X191746309Y-109453447D01*
X191725074Y-109450297D01*
X191704250Y-109445081D01*
X191684038Y-109437849D01*
X191664632Y-109428670D01*
X191646219Y-109417634D01*
X191628976Y-109404846D01*
X191613070Y-109390430D01*
X191598654Y-109374524D01*
X191585866Y-109357281D01*
X191574830Y-109338868D01*
X191565651Y-109319462D01*
X191558419Y-109299250D01*
X191553203Y-109278426D01*
X191550053Y-109257191D01*
X191549000Y-109235750D01*
X191549000Y-108798250D01*
X191550053Y-108776809D01*
X191553203Y-108755574D01*
X191558419Y-108734750D01*
X191565651Y-108714538D01*
X191574830Y-108695132D01*
X191585866Y-108676719D01*
X191598654Y-108659476D01*
X191613070Y-108643570D01*
X191628976Y-108629154D01*
X191646219Y-108616366D01*
X191664632Y-108605330D01*
X191684038Y-108596151D01*
X191704250Y-108588919D01*
X191725074Y-108583703D01*
X191746309Y-108580553D01*
X191767750Y-108579500D01*
X192280250Y-108579500D01*
X192301691Y-108580553D01*
X192301691Y-108580553D01*
G37*
D11*
X192024000Y-109017000D03*
D10*
G36*
X192301691Y-107005553D02*
X192322926Y-107008703D01*
X192343750Y-107013919D01*
X192363962Y-107021151D01*
X192383368Y-107030330D01*
X192401781Y-107041366D01*
X192419024Y-107054154D01*
X192434930Y-107068570D01*
X192449346Y-107084476D01*
X192462134Y-107101719D01*
X192473170Y-107120132D01*
X192482349Y-107139538D01*
X192489581Y-107159750D01*
X192494797Y-107180574D01*
X192497947Y-107201809D01*
X192499000Y-107223250D01*
X192499000Y-107660750D01*
X192497947Y-107682191D01*
X192494797Y-107703426D01*
X192489581Y-107724250D01*
X192482349Y-107744462D01*
X192473170Y-107763868D01*
X192462134Y-107782281D01*
X192449346Y-107799524D01*
X192434930Y-107815430D01*
X192419024Y-107829846D01*
X192401781Y-107842634D01*
X192383368Y-107853670D01*
X192363962Y-107862849D01*
X192343750Y-107870081D01*
X192322926Y-107875297D01*
X192301691Y-107878447D01*
X192280250Y-107879500D01*
X191767750Y-107879500D01*
X191746309Y-107878447D01*
X191725074Y-107875297D01*
X191704250Y-107870081D01*
X191684038Y-107862849D01*
X191664632Y-107853670D01*
X191646219Y-107842634D01*
X191628976Y-107829846D01*
X191613070Y-107815430D01*
X191598654Y-107799524D01*
X191585866Y-107782281D01*
X191574830Y-107763868D01*
X191565651Y-107744462D01*
X191558419Y-107724250D01*
X191553203Y-107703426D01*
X191550053Y-107682191D01*
X191549000Y-107660750D01*
X191549000Y-107223250D01*
X191550053Y-107201809D01*
X191553203Y-107180574D01*
X191558419Y-107159750D01*
X191565651Y-107139538D01*
X191574830Y-107120132D01*
X191585866Y-107101719D01*
X191598654Y-107084476D01*
X191613070Y-107068570D01*
X191628976Y-107054154D01*
X191646219Y-107041366D01*
X191664632Y-107030330D01*
X191684038Y-107021151D01*
X191704250Y-107013919D01*
X191725074Y-107008703D01*
X191746309Y-107005553D01*
X191767750Y-107004500D01*
X192280250Y-107004500D01*
X192301691Y-107005553D01*
X192301691Y-107005553D01*
G37*
D11*
X192024000Y-107442000D03*
G04 #@! TD*
D18*
G04 #@! TO.C,J3*
X190166000Y-98044000D03*
X190166000Y-87344000D03*
X186436000Y-95844000D03*
X186436000Y-98044000D03*
G04 #@! TD*
D10*
G04 #@! TO.C,C8*
G36*
X197127691Y-104440053D02*
X197148926Y-104443203D01*
X197169750Y-104448419D01*
X197189962Y-104455651D01*
X197209368Y-104464830D01*
X197227781Y-104475866D01*
X197245024Y-104488654D01*
X197260930Y-104503070D01*
X197275346Y-104518976D01*
X197288134Y-104536219D01*
X197299170Y-104554632D01*
X197308349Y-104574038D01*
X197315581Y-104594250D01*
X197320797Y-104615074D01*
X197323947Y-104636309D01*
X197325000Y-104657750D01*
X197325000Y-105095250D01*
X197323947Y-105116691D01*
X197320797Y-105137926D01*
X197315581Y-105158750D01*
X197308349Y-105178962D01*
X197299170Y-105198368D01*
X197288134Y-105216781D01*
X197275346Y-105234024D01*
X197260930Y-105249930D01*
X197245024Y-105264346D01*
X197227781Y-105277134D01*
X197209368Y-105288170D01*
X197189962Y-105297349D01*
X197169750Y-105304581D01*
X197148926Y-105309797D01*
X197127691Y-105312947D01*
X197106250Y-105314000D01*
X196593750Y-105314000D01*
X196572309Y-105312947D01*
X196551074Y-105309797D01*
X196530250Y-105304581D01*
X196510038Y-105297349D01*
X196490632Y-105288170D01*
X196472219Y-105277134D01*
X196454976Y-105264346D01*
X196439070Y-105249930D01*
X196424654Y-105234024D01*
X196411866Y-105216781D01*
X196400830Y-105198368D01*
X196391651Y-105178962D01*
X196384419Y-105158750D01*
X196379203Y-105137926D01*
X196376053Y-105116691D01*
X196375000Y-105095250D01*
X196375000Y-104657750D01*
X196376053Y-104636309D01*
X196379203Y-104615074D01*
X196384419Y-104594250D01*
X196391651Y-104574038D01*
X196400830Y-104554632D01*
X196411866Y-104536219D01*
X196424654Y-104518976D01*
X196439070Y-104503070D01*
X196454976Y-104488654D01*
X196472219Y-104475866D01*
X196490632Y-104464830D01*
X196510038Y-104455651D01*
X196530250Y-104448419D01*
X196551074Y-104443203D01*
X196572309Y-104440053D01*
X196593750Y-104439000D01*
X197106250Y-104439000D01*
X197127691Y-104440053D01*
X197127691Y-104440053D01*
G37*
D11*
X196850000Y-104876500D03*
D10*
G36*
X197127691Y-106015053D02*
X197148926Y-106018203D01*
X197169750Y-106023419D01*
X197189962Y-106030651D01*
X197209368Y-106039830D01*
X197227781Y-106050866D01*
X197245024Y-106063654D01*
X197260930Y-106078070D01*
X197275346Y-106093976D01*
X197288134Y-106111219D01*
X197299170Y-106129632D01*
X197308349Y-106149038D01*
X197315581Y-106169250D01*
X197320797Y-106190074D01*
X197323947Y-106211309D01*
X197325000Y-106232750D01*
X197325000Y-106670250D01*
X197323947Y-106691691D01*
X197320797Y-106712926D01*
X197315581Y-106733750D01*
X197308349Y-106753962D01*
X197299170Y-106773368D01*
X197288134Y-106791781D01*
X197275346Y-106809024D01*
X197260930Y-106824930D01*
X197245024Y-106839346D01*
X197227781Y-106852134D01*
X197209368Y-106863170D01*
X197189962Y-106872349D01*
X197169750Y-106879581D01*
X197148926Y-106884797D01*
X197127691Y-106887947D01*
X197106250Y-106889000D01*
X196593750Y-106889000D01*
X196572309Y-106887947D01*
X196551074Y-106884797D01*
X196530250Y-106879581D01*
X196510038Y-106872349D01*
X196490632Y-106863170D01*
X196472219Y-106852134D01*
X196454976Y-106839346D01*
X196439070Y-106824930D01*
X196424654Y-106809024D01*
X196411866Y-106791781D01*
X196400830Y-106773368D01*
X196391651Y-106753962D01*
X196384419Y-106733750D01*
X196379203Y-106712926D01*
X196376053Y-106691691D01*
X196375000Y-106670250D01*
X196375000Y-106232750D01*
X196376053Y-106211309D01*
X196379203Y-106190074D01*
X196384419Y-106169250D01*
X196391651Y-106149038D01*
X196400830Y-106129632D01*
X196411866Y-106111219D01*
X196424654Y-106093976D01*
X196439070Y-106078070D01*
X196454976Y-106063654D01*
X196472219Y-106050866D01*
X196490632Y-106039830D01*
X196510038Y-106030651D01*
X196530250Y-106023419D01*
X196551074Y-106018203D01*
X196572309Y-106015053D01*
X196593750Y-106014000D01*
X197106250Y-106014000D01*
X197127691Y-106015053D01*
X197127691Y-106015053D01*
G37*
D11*
X196850000Y-106451500D03*
G04 #@! TD*
D19*
G04 #@! TO.C,U4*
X207144800Y-108188800D03*
X207144800Y-107238800D03*
X207144800Y-106288800D03*
X204944800Y-106288800D03*
X204944800Y-108188800D03*
G04 #@! TD*
D10*
G04 #@! TO.C,R3*
G36*
X197623691Y-108695253D02*
X197644926Y-108698403D01*
X197665750Y-108703619D01*
X197685962Y-108710851D01*
X197705368Y-108720030D01*
X197723781Y-108731066D01*
X197741024Y-108743854D01*
X197756930Y-108758270D01*
X197771346Y-108774176D01*
X197784134Y-108791419D01*
X197795170Y-108809832D01*
X197804349Y-108829238D01*
X197811581Y-108849450D01*
X197816797Y-108870274D01*
X197819947Y-108891509D01*
X197821000Y-108912950D01*
X197821000Y-109425450D01*
X197819947Y-109446891D01*
X197816797Y-109468126D01*
X197811581Y-109488950D01*
X197804349Y-109509162D01*
X197795170Y-109528568D01*
X197784134Y-109546981D01*
X197771346Y-109564224D01*
X197756930Y-109580130D01*
X197741024Y-109594546D01*
X197723781Y-109607334D01*
X197705368Y-109618370D01*
X197685962Y-109627549D01*
X197665750Y-109634781D01*
X197644926Y-109639997D01*
X197623691Y-109643147D01*
X197602250Y-109644200D01*
X197164750Y-109644200D01*
X197143309Y-109643147D01*
X197122074Y-109639997D01*
X197101250Y-109634781D01*
X197081038Y-109627549D01*
X197061632Y-109618370D01*
X197043219Y-109607334D01*
X197025976Y-109594546D01*
X197010070Y-109580130D01*
X196995654Y-109564224D01*
X196982866Y-109546981D01*
X196971830Y-109528568D01*
X196962651Y-109509162D01*
X196955419Y-109488950D01*
X196950203Y-109468126D01*
X196947053Y-109446891D01*
X196946000Y-109425450D01*
X196946000Y-108912950D01*
X196947053Y-108891509D01*
X196950203Y-108870274D01*
X196955419Y-108849450D01*
X196962651Y-108829238D01*
X196971830Y-108809832D01*
X196982866Y-108791419D01*
X196995654Y-108774176D01*
X197010070Y-108758270D01*
X197025976Y-108743854D01*
X197043219Y-108731066D01*
X197061632Y-108720030D01*
X197081038Y-108710851D01*
X197101250Y-108703619D01*
X197122074Y-108698403D01*
X197143309Y-108695253D01*
X197164750Y-108694200D01*
X197602250Y-108694200D01*
X197623691Y-108695253D01*
X197623691Y-108695253D01*
G37*
D11*
X197383500Y-109169200D03*
D10*
G36*
X196048691Y-108695253D02*
X196069926Y-108698403D01*
X196090750Y-108703619D01*
X196110962Y-108710851D01*
X196130368Y-108720030D01*
X196148781Y-108731066D01*
X196166024Y-108743854D01*
X196181930Y-108758270D01*
X196196346Y-108774176D01*
X196209134Y-108791419D01*
X196220170Y-108809832D01*
X196229349Y-108829238D01*
X196236581Y-108849450D01*
X196241797Y-108870274D01*
X196244947Y-108891509D01*
X196246000Y-108912950D01*
X196246000Y-109425450D01*
X196244947Y-109446891D01*
X196241797Y-109468126D01*
X196236581Y-109488950D01*
X196229349Y-109509162D01*
X196220170Y-109528568D01*
X196209134Y-109546981D01*
X196196346Y-109564224D01*
X196181930Y-109580130D01*
X196166024Y-109594546D01*
X196148781Y-109607334D01*
X196130368Y-109618370D01*
X196110962Y-109627549D01*
X196090750Y-109634781D01*
X196069926Y-109639997D01*
X196048691Y-109643147D01*
X196027250Y-109644200D01*
X195589750Y-109644200D01*
X195568309Y-109643147D01*
X195547074Y-109639997D01*
X195526250Y-109634781D01*
X195506038Y-109627549D01*
X195486632Y-109618370D01*
X195468219Y-109607334D01*
X195450976Y-109594546D01*
X195435070Y-109580130D01*
X195420654Y-109564224D01*
X195407866Y-109546981D01*
X195396830Y-109528568D01*
X195387651Y-109509162D01*
X195380419Y-109488950D01*
X195375203Y-109468126D01*
X195372053Y-109446891D01*
X195371000Y-109425450D01*
X195371000Y-108912950D01*
X195372053Y-108891509D01*
X195375203Y-108870274D01*
X195380419Y-108849450D01*
X195387651Y-108829238D01*
X195396830Y-108809832D01*
X195407866Y-108791419D01*
X195420654Y-108774176D01*
X195435070Y-108758270D01*
X195450976Y-108743854D01*
X195468219Y-108731066D01*
X195486632Y-108720030D01*
X195506038Y-108710851D01*
X195526250Y-108703619D01*
X195547074Y-108698403D01*
X195568309Y-108695253D01*
X195589750Y-108694200D01*
X196027250Y-108694200D01*
X196048691Y-108695253D01*
X196048691Y-108695253D01*
G37*
D11*
X195808500Y-109169200D03*
G04 #@! TD*
D10*
G04 #@! TO.C,R8*
G36*
X186599891Y-108644453D02*
X186621126Y-108647603D01*
X186641950Y-108652819D01*
X186662162Y-108660051D01*
X186681568Y-108669230D01*
X186699981Y-108680266D01*
X186717224Y-108693054D01*
X186733130Y-108707470D01*
X186747546Y-108723376D01*
X186760334Y-108740619D01*
X186771370Y-108759032D01*
X186780549Y-108778438D01*
X186787781Y-108798650D01*
X186792997Y-108819474D01*
X186796147Y-108840709D01*
X186797200Y-108862150D01*
X186797200Y-109374650D01*
X186796147Y-109396091D01*
X186792997Y-109417326D01*
X186787781Y-109438150D01*
X186780549Y-109458362D01*
X186771370Y-109477768D01*
X186760334Y-109496181D01*
X186747546Y-109513424D01*
X186733130Y-109529330D01*
X186717224Y-109543746D01*
X186699981Y-109556534D01*
X186681568Y-109567570D01*
X186662162Y-109576749D01*
X186641950Y-109583981D01*
X186621126Y-109589197D01*
X186599891Y-109592347D01*
X186578450Y-109593400D01*
X186140950Y-109593400D01*
X186119509Y-109592347D01*
X186098274Y-109589197D01*
X186077450Y-109583981D01*
X186057238Y-109576749D01*
X186037832Y-109567570D01*
X186019419Y-109556534D01*
X186002176Y-109543746D01*
X185986270Y-109529330D01*
X185971854Y-109513424D01*
X185959066Y-109496181D01*
X185948030Y-109477768D01*
X185938851Y-109458362D01*
X185931619Y-109438150D01*
X185926403Y-109417326D01*
X185923253Y-109396091D01*
X185922200Y-109374650D01*
X185922200Y-108862150D01*
X185923253Y-108840709D01*
X185926403Y-108819474D01*
X185931619Y-108798650D01*
X185938851Y-108778438D01*
X185948030Y-108759032D01*
X185959066Y-108740619D01*
X185971854Y-108723376D01*
X185986270Y-108707470D01*
X186002176Y-108693054D01*
X186019419Y-108680266D01*
X186037832Y-108669230D01*
X186057238Y-108660051D01*
X186077450Y-108652819D01*
X186098274Y-108647603D01*
X186119509Y-108644453D01*
X186140950Y-108643400D01*
X186578450Y-108643400D01*
X186599891Y-108644453D01*
X186599891Y-108644453D01*
G37*
D11*
X186359700Y-109118400D03*
D10*
G36*
X188174891Y-108644453D02*
X188196126Y-108647603D01*
X188216950Y-108652819D01*
X188237162Y-108660051D01*
X188256568Y-108669230D01*
X188274981Y-108680266D01*
X188292224Y-108693054D01*
X188308130Y-108707470D01*
X188322546Y-108723376D01*
X188335334Y-108740619D01*
X188346370Y-108759032D01*
X188355549Y-108778438D01*
X188362781Y-108798650D01*
X188367997Y-108819474D01*
X188371147Y-108840709D01*
X188372200Y-108862150D01*
X188372200Y-109374650D01*
X188371147Y-109396091D01*
X188367997Y-109417326D01*
X188362781Y-109438150D01*
X188355549Y-109458362D01*
X188346370Y-109477768D01*
X188335334Y-109496181D01*
X188322546Y-109513424D01*
X188308130Y-109529330D01*
X188292224Y-109543746D01*
X188274981Y-109556534D01*
X188256568Y-109567570D01*
X188237162Y-109576749D01*
X188216950Y-109583981D01*
X188196126Y-109589197D01*
X188174891Y-109592347D01*
X188153450Y-109593400D01*
X187715950Y-109593400D01*
X187694509Y-109592347D01*
X187673274Y-109589197D01*
X187652450Y-109583981D01*
X187632238Y-109576749D01*
X187612832Y-109567570D01*
X187594419Y-109556534D01*
X187577176Y-109543746D01*
X187561270Y-109529330D01*
X187546854Y-109513424D01*
X187534066Y-109496181D01*
X187523030Y-109477768D01*
X187513851Y-109458362D01*
X187506619Y-109438150D01*
X187501403Y-109417326D01*
X187498253Y-109396091D01*
X187497200Y-109374650D01*
X187497200Y-108862150D01*
X187498253Y-108840709D01*
X187501403Y-108819474D01*
X187506619Y-108798650D01*
X187513851Y-108778438D01*
X187523030Y-108759032D01*
X187534066Y-108740619D01*
X187546854Y-108723376D01*
X187561270Y-108707470D01*
X187577176Y-108693054D01*
X187594419Y-108680266D01*
X187612832Y-108669230D01*
X187632238Y-108660051D01*
X187652450Y-108652819D01*
X187673274Y-108647603D01*
X187694509Y-108644453D01*
X187715950Y-108643400D01*
X188153450Y-108643400D01*
X188174891Y-108644453D01*
X188174891Y-108644453D01*
G37*
D11*
X187934700Y-109118400D03*
G04 #@! TD*
D10*
G04 #@! TO.C,R4*
G36*
X193724091Y-108555053D02*
X193745326Y-108558203D01*
X193766150Y-108563419D01*
X193786362Y-108570651D01*
X193805768Y-108579830D01*
X193824181Y-108590866D01*
X193841424Y-108603654D01*
X193857330Y-108618070D01*
X193871746Y-108633976D01*
X193884534Y-108651219D01*
X193895570Y-108669632D01*
X193904749Y-108689038D01*
X193911981Y-108709250D01*
X193917197Y-108730074D01*
X193920347Y-108751309D01*
X193921400Y-108772750D01*
X193921400Y-109210250D01*
X193920347Y-109231691D01*
X193917197Y-109252926D01*
X193911981Y-109273750D01*
X193904749Y-109293962D01*
X193895570Y-109313368D01*
X193884534Y-109331781D01*
X193871746Y-109349024D01*
X193857330Y-109364930D01*
X193841424Y-109379346D01*
X193824181Y-109392134D01*
X193805768Y-109403170D01*
X193786362Y-109412349D01*
X193766150Y-109419581D01*
X193745326Y-109424797D01*
X193724091Y-109427947D01*
X193702650Y-109429000D01*
X193190150Y-109429000D01*
X193168709Y-109427947D01*
X193147474Y-109424797D01*
X193126650Y-109419581D01*
X193106438Y-109412349D01*
X193087032Y-109403170D01*
X193068619Y-109392134D01*
X193051376Y-109379346D01*
X193035470Y-109364930D01*
X193021054Y-109349024D01*
X193008266Y-109331781D01*
X192997230Y-109313368D01*
X192988051Y-109293962D01*
X192980819Y-109273750D01*
X192975603Y-109252926D01*
X192972453Y-109231691D01*
X192971400Y-109210250D01*
X192971400Y-108772750D01*
X192972453Y-108751309D01*
X192975603Y-108730074D01*
X192980819Y-108709250D01*
X192988051Y-108689038D01*
X192997230Y-108669632D01*
X193008266Y-108651219D01*
X193021054Y-108633976D01*
X193035470Y-108618070D01*
X193051376Y-108603654D01*
X193068619Y-108590866D01*
X193087032Y-108579830D01*
X193106438Y-108570651D01*
X193126650Y-108563419D01*
X193147474Y-108558203D01*
X193168709Y-108555053D01*
X193190150Y-108554000D01*
X193702650Y-108554000D01*
X193724091Y-108555053D01*
X193724091Y-108555053D01*
G37*
D11*
X193446400Y-108991500D03*
D10*
G36*
X193724091Y-106980053D02*
X193745326Y-106983203D01*
X193766150Y-106988419D01*
X193786362Y-106995651D01*
X193805768Y-107004830D01*
X193824181Y-107015866D01*
X193841424Y-107028654D01*
X193857330Y-107043070D01*
X193871746Y-107058976D01*
X193884534Y-107076219D01*
X193895570Y-107094632D01*
X193904749Y-107114038D01*
X193911981Y-107134250D01*
X193917197Y-107155074D01*
X193920347Y-107176309D01*
X193921400Y-107197750D01*
X193921400Y-107635250D01*
X193920347Y-107656691D01*
X193917197Y-107677926D01*
X193911981Y-107698750D01*
X193904749Y-107718962D01*
X193895570Y-107738368D01*
X193884534Y-107756781D01*
X193871746Y-107774024D01*
X193857330Y-107789930D01*
X193841424Y-107804346D01*
X193824181Y-107817134D01*
X193805768Y-107828170D01*
X193786362Y-107837349D01*
X193766150Y-107844581D01*
X193745326Y-107849797D01*
X193724091Y-107852947D01*
X193702650Y-107854000D01*
X193190150Y-107854000D01*
X193168709Y-107852947D01*
X193147474Y-107849797D01*
X193126650Y-107844581D01*
X193106438Y-107837349D01*
X193087032Y-107828170D01*
X193068619Y-107817134D01*
X193051376Y-107804346D01*
X193035470Y-107789930D01*
X193021054Y-107774024D01*
X193008266Y-107756781D01*
X192997230Y-107738368D01*
X192988051Y-107718962D01*
X192980819Y-107698750D01*
X192975603Y-107677926D01*
X192972453Y-107656691D01*
X192971400Y-107635250D01*
X192971400Y-107197750D01*
X192972453Y-107176309D01*
X192975603Y-107155074D01*
X192980819Y-107134250D01*
X192988051Y-107114038D01*
X192997230Y-107094632D01*
X193008266Y-107076219D01*
X193021054Y-107058976D01*
X193035470Y-107043070D01*
X193051376Y-107028654D01*
X193068619Y-107015866D01*
X193087032Y-107004830D01*
X193106438Y-106995651D01*
X193126650Y-106988419D01*
X193147474Y-106983203D01*
X193168709Y-106980053D01*
X193190150Y-106979000D01*
X193702650Y-106979000D01*
X193724091Y-106980053D01*
X193724091Y-106980053D01*
G37*
D11*
X193446400Y-107416500D03*
G04 #@! TD*
M02*
