G04 #@! TF.GenerationSoftware,KiCad,Pcbnew,(5.0.1)-3*
G04 #@! TF.CreationDate,2019-11-22T16:36:39-05:00*
G04 #@! TF.ProjectId,SmartWatch,536D61727457617463682E6B69636164,rev?*
G04 #@! TF.SameCoordinates,Original*
G04 #@! TF.FileFunction,Other,Fab,Bot*
%FSLAX46Y46*%
G04 Gerber Fmt 4.6, Leading zero omitted, Abs format (unit mm)*
G04 Created by KiCad (PCBNEW (5.0.1)-3) date 11/22/2019 4:36:39 PM*
%MOMM*%
%LPD*%
G01*
G04 APERTURE LIST*
%ADD10C,0.100000*%
%ADD11C,0.150000*%
%ADD12C,0.060000*%
%ADD13C,0.075000*%
%ADD14C,0.110000*%
G04 APERTURE END LIST*
D10*
G04 #@! TO.C,U10*
X193676400Y-103926000D02*
X189676400Y-103926000D01*
X189676400Y-103926000D02*
X189676400Y-108926000D01*
X189676400Y-108926000D02*
X194676400Y-108926000D01*
X194676400Y-108926000D02*
X194676400Y-104926000D01*
X194676400Y-104926000D02*
X193676400Y-103926000D01*
G04 #@! TO.C,D2*
X225881200Y-109067600D02*
X226381200Y-109067600D01*
X225881200Y-108667600D02*
X225281200Y-109067600D01*
X225881200Y-109467600D02*
X225881200Y-108667600D01*
X225281200Y-109067600D02*
X225881200Y-109467600D01*
X225281200Y-109067600D02*
X225281200Y-108517600D01*
X225281200Y-109067600D02*
X225281200Y-109617600D01*
X224881200Y-109067600D02*
X225281200Y-109067600D01*
X224231200Y-108167600D02*
X224231200Y-109967600D01*
X227031200Y-108167600D02*
X224231200Y-108167600D01*
X227031200Y-109967600D02*
X227031200Y-108167600D01*
X224231200Y-109967600D02*
X227031200Y-109967600D01*
G04 #@! TO.C,R19*
X199783600Y-111194800D02*
X199783600Y-110394800D01*
X199783600Y-110394800D02*
X198183600Y-110394800D01*
X198183600Y-110394800D02*
X198183600Y-111194800D01*
X198183600Y-111194800D02*
X199783600Y-111194800D01*
G04 #@! TO.C,C6*
X191662000Y-113017200D02*
X191662000Y-111417200D01*
X190862000Y-113017200D02*
X191662000Y-113017200D01*
X190862000Y-111417200D02*
X190862000Y-113017200D01*
X191662000Y-111417200D02*
X190862000Y-111417200D01*
G04 #@! TO.C,C7*
X201822000Y-111417200D02*
X201022000Y-111417200D01*
X201022000Y-111417200D02*
X201022000Y-113017200D01*
X201022000Y-113017200D02*
X201822000Y-113017200D01*
X201822000Y-113017200D02*
X201822000Y-111417200D01*
G04 #@! TO.C,Q2*
X215835000Y-113980000D02*
X215835000Y-111530000D01*
X216385000Y-114550000D02*
X217235000Y-114550000D01*
X215835000Y-113980000D02*
X216385000Y-114550000D01*
X217235000Y-114550000D02*
X217235000Y-111510000D01*
X215835000Y-111510000D02*
X217235000Y-111510000D01*
G04 #@! TO.C,Q3*
X199378800Y-104390000D02*
X197978800Y-104390000D01*
X197978800Y-101350000D02*
X197978800Y-104390000D01*
X199378800Y-101920000D02*
X198828800Y-101350000D01*
X198828800Y-101350000D02*
X197978800Y-101350000D01*
X199378800Y-101920000D02*
X199378800Y-104370000D01*
G04 #@! TO.C,Q4*
X188249600Y-107430800D02*
X185799600Y-107430800D01*
X188819600Y-106880800D02*
X188819600Y-106030800D01*
X188249600Y-107430800D02*
X188819600Y-106880800D01*
X188819600Y-106030800D02*
X185779600Y-106030800D01*
X185779600Y-107430800D02*
X185779600Y-106030800D01*
G04 #@! TO.C,U5*
X202068000Y-108788800D02*
X202068000Y-105688800D01*
X202068000Y-105688800D02*
X200268000Y-105688800D01*
X200268000Y-108138800D02*
X200268000Y-105688800D01*
X202068000Y-108788800D02*
X200918000Y-108788800D01*
X200268000Y-108138800D02*
X200918000Y-108788800D01*
G04 #@! TO.C,R1*
X192487600Y-101511100D02*
X193287600Y-101511100D01*
X193287600Y-101511100D02*
X193287600Y-99911100D01*
X193287600Y-99911100D02*
X192487600Y-99911100D01*
X192487600Y-99911100D02*
X192487600Y-101511100D01*
G04 #@! TO.C,R2*
X193859200Y-99911100D02*
X193859200Y-101511100D01*
X194659200Y-99911100D02*
X193859200Y-99911100D01*
X194659200Y-101511100D02*
X194659200Y-99911100D01*
X193859200Y-101511100D02*
X194659200Y-101511100D01*
G04 #@! TO.C,R17*
X230016000Y-113373000D02*
X229216000Y-113373000D01*
X229216000Y-113373000D02*
X229216000Y-114973000D01*
X229216000Y-114973000D02*
X230016000Y-114973000D01*
X230016000Y-114973000D02*
X230016000Y-113373000D01*
G04 #@! TO.C,R16*
X219195600Y-112356800D02*
X219195600Y-110756800D01*
X218395600Y-112356800D02*
X219195600Y-112356800D01*
X218395600Y-110756800D02*
X218395600Y-112356800D01*
X219195600Y-110756800D02*
X218395600Y-110756800D01*
G04 #@! TO.C,R15*
X208934000Y-110706000D02*
X208134000Y-110706000D01*
X208134000Y-110706000D02*
X208134000Y-112306000D01*
X208134000Y-112306000D02*
X208934000Y-112306000D01*
X208934000Y-112306000D02*
X208934000Y-110706000D01*
G04 #@! TO.C,R13*
X215176000Y-115043000D02*
X213576000Y-115043000D01*
X215176000Y-115843000D02*
X215176000Y-115043000D01*
X213576000Y-115843000D02*
X215176000Y-115843000D01*
X213576000Y-115043000D02*
X213576000Y-115843000D01*
G04 #@! TO.C,R10*
X229349200Y-111664800D02*
X227749200Y-111664800D01*
X229349200Y-112464800D02*
X229349200Y-111664800D01*
X227749200Y-112464800D02*
X229349200Y-112464800D01*
X227749200Y-111664800D02*
X227749200Y-112464800D01*
G04 #@! TO.C,R9*
X230009600Y-111093200D02*
X230009600Y-110293200D01*
X230009600Y-110293200D02*
X228409600Y-110293200D01*
X228409600Y-110293200D02*
X228409600Y-111093200D01*
X228409600Y-111093200D02*
X230009600Y-111093200D01*
G04 #@! TO.C,R6*
X195973600Y-112718800D02*
X195973600Y-111918800D01*
X195973600Y-111918800D02*
X194373600Y-111918800D01*
X194373600Y-111918800D02*
X194373600Y-112718800D01*
X194373600Y-112718800D02*
X195973600Y-112718800D01*
G04 #@! TO.C,R5*
X213957000Y-111017000D02*
X215557000Y-111017000D01*
X213957000Y-110217000D02*
X213957000Y-111017000D01*
X215557000Y-110217000D02*
X213957000Y-110217000D01*
X215557000Y-111017000D02*
X215557000Y-110217000D01*
G04 #@! TO.C,R7*
X190087200Y-100850800D02*
X189287200Y-100850800D01*
X189287200Y-100850800D02*
X189287200Y-102450800D01*
X189287200Y-102450800D02*
X190087200Y-102450800D01*
X190087200Y-102450800D02*
X190087200Y-100850800D01*
G04 #@! TO.C,R14*
X211601000Y-110325000D02*
X210801000Y-110325000D01*
X210801000Y-110325000D02*
X210801000Y-111925000D01*
X210801000Y-111925000D02*
X211601000Y-111925000D01*
X211601000Y-111925000D02*
X211601000Y-110325000D01*
G04 #@! TO.C,U7*
X195212400Y-86894800D02*
X195962400Y-86144800D01*
X192962400Y-86894800D02*
X195212400Y-86894800D01*
X192962400Y-83894800D02*
X192962400Y-86894800D01*
X195962400Y-83894800D02*
X192962400Y-83894800D01*
X195962400Y-86144800D02*
X195962400Y-83894800D01*
G04 #@! TD*
G04 #@! TO.C,U10*
D11*
X198890685Y-110583142D02*
X198938304Y-110630761D01*
X199081161Y-110678380D01*
X199176400Y-110678380D01*
X199319257Y-110630761D01*
X199414495Y-110535523D01*
X199462114Y-110440285D01*
X199509733Y-110249809D01*
X199509733Y-110106952D01*
X199462114Y-109916476D01*
X199414495Y-109821238D01*
X199319257Y-109726000D01*
X199176400Y-109678380D01*
X199081161Y-109678380D01*
X198938304Y-109726000D01*
X198890685Y-109773619D01*
X198462114Y-110678380D02*
X198462114Y-109678380D01*
X198081161Y-109678380D01*
X197985923Y-109726000D01*
X197938304Y-109773619D01*
X197890685Y-109868857D01*
X197890685Y-110011714D01*
X197938304Y-110106952D01*
X197985923Y-110154571D01*
X198081161Y-110202190D01*
X198462114Y-110202190D01*
X197509733Y-109773619D02*
X197462114Y-109726000D01*
X197366876Y-109678380D01*
X197128780Y-109678380D01*
X197033542Y-109726000D01*
X196985923Y-109773619D01*
X196938304Y-109868857D01*
X196938304Y-109964095D01*
X196985923Y-110106952D01*
X197557352Y-110678380D01*
X196938304Y-110678380D01*
X195985923Y-110678380D02*
X196557352Y-110678380D01*
X196271638Y-110678380D02*
X196271638Y-109678380D01*
X196366876Y-109821238D01*
X196462114Y-109916476D01*
X196557352Y-109964095D01*
X195366876Y-109678380D02*
X195271638Y-109678380D01*
X195176400Y-109726000D01*
X195128780Y-109773619D01*
X195081161Y-109868857D01*
X195033542Y-110059333D01*
X195033542Y-110297428D01*
X195081161Y-110487904D01*
X195128780Y-110583142D01*
X195176400Y-110630761D01*
X195271638Y-110678380D01*
X195366876Y-110678380D01*
X195462114Y-110630761D01*
X195509733Y-110583142D01*
X195557352Y-110487904D01*
X195604971Y-110297428D01*
X195604971Y-110059333D01*
X195557352Y-109868857D01*
X195509733Y-109773619D01*
X195462114Y-109726000D01*
X195366876Y-109678380D01*
X194652590Y-109773619D02*
X194604971Y-109726000D01*
X194509733Y-109678380D01*
X194271638Y-109678380D01*
X194176400Y-109726000D01*
X194128780Y-109773619D01*
X194081161Y-109868857D01*
X194081161Y-109964095D01*
X194128780Y-110106952D01*
X194700209Y-110678380D01*
X194081161Y-110678380D01*
X193652590Y-110297428D02*
X192890685Y-110297428D01*
X191890685Y-109726000D02*
X191985923Y-109678380D01*
X192128780Y-109678380D01*
X192271638Y-109726000D01*
X192366876Y-109821238D01*
X192414495Y-109916476D01*
X192462114Y-110106952D01*
X192462114Y-110249809D01*
X192414495Y-110440285D01*
X192366876Y-110535523D01*
X192271638Y-110630761D01*
X192128780Y-110678380D01*
X192033542Y-110678380D01*
X191890685Y-110630761D01*
X191843066Y-110583142D01*
X191843066Y-110249809D01*
X192033542Y-110249809D01*
X191414495Y-110678380D02*
X191414495Y-109678380D01*
X191081161Y-110392666D01*
X190747828Y-109678380D01*
X190747828Y-110678380D01*
X189700209Y-110678380D02*
X190033542Y-110202190D01*
X190271638Y-110678380D02*
X190271638Y-109678380D01*
X189890685Y-109678380D01*
X189795447Y-109726000D01*
X189747828Y-109773619D01*
X189700209Y-109868857D01*
X189700209Y-110011714D01*
X189747828Y-110106952D01*
X189795447Y-110154571D01*
X189890685Y-110202190D01*
X190271638Y-110202190D01*
X189509733Y-110773619D02*
X188747828Y-110773619D01*
X188509733Y-110678380D02*
X188509733Y-109678380D01*
X187938304Y-110678380D01*
X187938304Y-109678380D01*
X186890685Y-110678380D02*
X187224019Y-110202190D01*
X187462114Y-110678380D02*
X187462114Y-109678380D01*
X187081161Y-109678380D01*
X186985923Y-109726000D01*
X186938304Y-109773619D01*
X186890685Y-109868857D01*
X186890685Y-110011714D01*
X186938304Y-110106952D01*
X186985923Y-110154571D01*
X187081161Y-110202190D01*
X187462114Y-110202190D01*
X186462114Y-110678380D02*
X186462114Y-109678380D01*
X185890685Y-110678380D01*
X185890685Y-109678380D01*
X185414495Y-110678380D02*
X185414495Y-109678380D01*
X185176400Y-109678380D01*
X185033542Y-109726000D01*
X184938304Y-109821238D01*
X184890685Y-109916476D01*
X184843066Y-110106952D01*
X184843066Y-110249809D01*
X184890685Y-110440285D01*
X184938304Y-110535523D01*
X185033542Y-110630761D01*
X185176400Y-110678380D01*
X185414495Y-110678380D01*
X193414495Y-105878380D02*
X193414495Y-106687904D01*
X193366876Y-106783142D01*
X193319257Y-106830761D01*
X193224019Y-106878380D01*
X193033542Y-106878380D01*
X192938304Y-106830761D01*
X192890685Y-106783142D01*
X192843066Y-106687904D01*
X192843066Y-105878380D01*
X191843066Y-106878380D02*
X192414495Y-106878380D01*
X192128780Y-106878380D02*
X192128780Y-105878380D01*
X192224019Y-106021238D01*
X192319257Y-106116476D01*
X192414495Y-106164095D01*
X191224019Y-105878380D02*
X191128780Y-105878380D01*
X191033542Y-105926000D01*
X190985923Y-105973619D01*
X190938304Y-106068857D01*
X190890685Y-106259333D01*
X190890685Y-106497428D01*
X190938304Y-106687904D01*
X190985923Y-106783142D01*
X191033542Y-106830761D01*
X191128780Y-106878380D01*
X191224019Y-106878380D01*
X191319257Y-106830761D01*
X191366876Y-106783142D01*
X191414495Y-106687904D01*
X191462114Y-106497428D01*
X191462114Y-106259333D01*
X191414495Y-106068857D01*
X191366876Y-105973619D01*
X191319257Y-105926000D01*
X191224019Y-105878380D01*
G04 #@! TO.C,D2*
X228750247Y-106896171D02*
X229083580Y-106896171D01*
X229083580Y-107419980D02*
X229083580Y-106419980D01*
X228607390Y-106419980D01*
X228274057Y-107372361D02*
X228131200Y-107419980D01*
X227893104Y-107419980D01*
X227797866Y-107372361D01*
X227750247Y-107324742D01*
X227702628Y-107229504D01*
X227702628Y-107134266D01*
X227750247Y-107039028D01*
X227797866Y-106991409D01*
X227893104Y-106943790D01*
X228083580Y-106896171D01*
X228178819Y-106848552D01*
X228226438Y-106800933D01*
X228274057Y-106705695D01*
X228274057Y-106610457D01*
X228226438Y-106515219D01*
X228178819Y-106467600D01*
X228083580Y-106419980D01*
X227845485Y-106419980D01*
X227702628Y-106467600D01*
X227416914Y-106419980D02*
X227083580Y-107419980D01*
X226750247Y-106419980D01*
X226512152Y-106419980D02*
X225893104Y-106419980D01*
X226226438Y-106800933D01*
X226083580Y-106800933D01*
X225988342Y-106848552D01*
X225940723Y-106896171D01*
X225893104Y-106991409D01*
X225893104Y-107229504D01*
X225940723Y-107324742D01*
X225988342Y-107372361D01*
X226083580Y-107419980D01*
X226369295Y-107419980D01*
X226464533Y-107372361D01*
X226512152Y-107324742D01*
X225035961Y-106753314D02*
X225035961Y-107419980D01*
X225274057Y-106372361D02*
X225512152Y-107086647D01*
X224893104Y-107086647D01*
X224321676Y-106419980D02*
X224226438Y-106419980D01*
X224131200Y-106467600D01*
X224083580Y-106515219D01*
X224035961Y-106610457D01*
X223988342Y-106800933D01*
X223988342Y-107039028D01*
X224035961Y-107229504D01*
X224083580Y-107324742D01*
X224131200Y-107372361D01*
X224226438Y-107419980D01*
X224321676Y-107419980D01*
X224416914Y-107372361D01*
X224464533Y-107324742D01*
X224512152Y-107229504D01*
X224559771Y-107039028D01*
X224559771Y-106800933D01*
X224512152Y-106610457D01*
X224464533Y-106515219D01*
X224416914Y-106467600D01*
X224321676Y-106419980D01*
X223226438Y-106896171D02*
X223559771Y-106896171D01*
X223559771Y-107419980D02*
X223559771Y-106419980D01*
X223083580Y-106419980D01*
X222702628Y-107419980D02*
X222702628Y-106419980D01*
X222321676Y-106419980D01*
X222226438Y-106467600D01*
X222178819Y-106515219D01*
X222131200Y-106610457D01*
X222131200Y-106753314D01*
X222178819Y-106848552D01*
X222226438Y-106896171D01*
X222321676Y-106943790D01*
X222702628Y-106943790D01*
X226242295Y-111424980D02*
X226242295Y-110424980D01*
X226004200Y-110424980D01*
X225861342Y-110472600D01*
X225766104Y-110567838D01*
X225718485Y-110663076D01*
X225670866Y-110853552D01*
X225670866Y-110996409D01*
X225718485Y-111186885D01*
X225766104Y-111282123D01*
X225861342Y-111377361D01*
X226004200Y-111424980D01*
X226242295Y-111424980D01*
X225289914Y-110520219D02*
X225242295Y-110472600D01*
X225147057Y-110424980D01*
X224908961Y-110424980D01*
X224813723Y-110472600D01*
X224766104Y-110520219D01*
X224718485Y-110615457D01*
X224718485Y-110710695D01*
X224766104Y-110853552D01*
X225337533Y-111424980D01*
X224718485Y-111424980D01*
G04 #@! TO.C,R19*
X199531219Y-111677180D02*
X199435980Y-111677180D01*
X199340742Y-111724800D01*
X199293123Y-111772419D01*
X199245504Y-111867657D01*
X199197885Y-112058133D01*
X199197885Y-112296228D01*
X199245504Y-112486704D01*
X199293123Y-112581942D01*
X199340742Y-112629561D01*
X199435980Y-112677180D01*
X199531219Y-112677180D01*
X199626457Y-112629561D01*
X199674076Y-112581942D01*
X199721695Y-112486704D01*
X199769314Y-112296228D01*
X199769314Y-112058133D01*
X199721695Y-111867657D01*
X199674076Y-111772419D01*
X199626457Y-111724800D01*
X199531219Y-111677180D01*
X198197885Y-112677180D02*
X198531219Y-112200990D01*
X198769314Y-112677180D02*
X198769314Y-111677180D01*
X198388361Y-111677180D01*
X198293123Y-111724800D01*
X198245504Y-111772419D01*
X198197885Y-111867657D01*
X198197885Y-112010514D01*
X198245504Y-112105752D01*
X198293123Y-112153371D01*
X198388361Y-112200990D01*
X198769314Y-112200990D01*
D12*
X199240742Y-110975752D02*
X199374076Y-110785276D01*
X199469314Y-110975752D02*
X199469314Y-110575752D01*
X199316933Y-110575752D01*
X199278838Y-110594800D01*
X199259790Y-110613847D01*
X199240742Y-110651942D01*
X199240742Y-110709085D01*
X199259790Y-110747180D01*
X199278838Y-110766228D01*
X199316933Y-110785276D01*
X199469314Y-110785276D01*
X198859790Y-110975752D02*
X199088361Y-110975752D01*
X198974076Y-110975752D02*
X198974076Y-110575752D01*
X199012171Y-110632895D01*
X199050266Y-110670990D01*
X199088361Y-110690038D01*
X198669314Y-110975752D02*
X198593123Y-110975752D01*
X198555028Y-110956704D01*
X198535980Y-110937657D01*
X198497885Y-110880514D01*
X198478838Y-110804323D01*
X198478838Y-110651942D01*
X198497885Y-110613847D01*
X198516933Y-110594800D01*
X198555028Y-110575752D01*
X198631219Y-110575752D01*
X198669314Y-110594800D01*
X198688361Y-110613847D01*
X198707409Y-110651942D01*
X198707409Y-110747180D01*
X198688361Y-110785276D01*
X198669314Y-110804323D01*
X198631219Y-110823371D01*
X198555028Y-110823371D01*
X198516933Y-110804323D01*
X198497885Y-110785276D01*
X198478838Y-110747180D01*
G04 #@! TO.C,C6*
D11*
X192144380Y-108931485D02*
X192144380Y-109026723D01*
X192192000Y-109121961D01*
X192239619Y-109169580D01*
X192334857Y-109217200D01*
X192525333Y-109264819D01*
X192763428Y-109264819D01*
X192953904Y-109217200D01*
X193049142Y-109169580D01*
X193096761Y-109121961D01*
X193144380Y-109026723D01*
X193144380Y-108931485D01*
X193096761Y-108836247D01*
X193049142Y-108788628D01*
X192953904Y-108741009D01*
X192763428Y-108693390D01*
X192525333Y-108693390D01*
X192334857Y-108741009D01*
X192239619Y-108788628D01*
X192192000Y-108836247D01*
X192144380Y-108931485D01*
X193049142Y-109693390D02*
X193096761Y-109741009D01*
X193144380Y-109693390D01*
X193096761Y-109645771D01*
X193049142Y-109693390D01*
X193144380Y-109693390D01*
X193144380Y-110693390D02*
X193144380Y-110121961D01*
X193144380Y-110407676D02*
X192144380Y-110407676D01*
X192287238Y-110312438D01*
X192382476Y-110217200D01*
X192430095Y-110121961D01*
X192477714Y-111550533D02*
X193144380Y-111550533D01*
X192477714Y-111121961D02*
X193001523Y-111121961D01*
X193096761Y-111169580D01*
X193144380Y-111264819D01*
X193144380Y-111407676D01*
X193096761Y-111502914D01*
X193049142Y-111550533D01*
X193525333Y-113074342D02*
X193477714Y-113026723D01*
X193334857Y-112931485D01*
X193239619Y-112883866D01*
X193096761Y-112836247D01*
X192858666Y-112788628D01*
X192668190Y-112788628D01*
X192430095Y-112836247D01*
X192287238Y-112883866D01*
X192192000Y-112931485D01*
X192049142Y-113026723D01*
X192001523Y-113074342D01*
X193144380Y-113455295D02*
X192144380Y-113455295D01*
X193144380Y-114026723D01*
X192144380Y-114026723D01*
X193049142Y-115074342D02*
X193096761Y-115026723D01*
X193144380Y-114883866D01*
X193144380Y-114788628D01*
X193096761Y-114645771D01*
X193001523Y-114550533D01*
X192906285Y-114502914D01*
X192715809Y-114455295D01*
X192572952Y-114455295D01*
X192382476Y-114502914D01*
X192287238Y-114550533D01*
X192192000Y-114645771D01*
X192144380Y-114788628D01*
X192144380Y-114883866D01*
X192192000Y-115026723D01*
X192239619Y-115074342D01*
X193525333Y-115407676D02*
X193477714Y-115455295D01*
X193334857Y-115550533D01*
X193239619Y-115598152D01*
X193096761Y-115645771D01*
X192858666Y-115693390D01*
X192668190Y-115693390D01*
X192430095Y-115645771D01*
X192287238Y-115598152D01*
X192192000Y-115550533D01*
X192049142Y-115455295D01*
X192001523Y-115407676D01*
D12*
X191404857Y-112150533D02*
X191423904Y-112131485D01*
X191442952Y-112074342D01*
X191442952Y-112036247D01*
X191423904Y-111979104D01*
X191385809Y-111941009D01*
X191347714Y-111921961D01*
X191271523Y-111902914D01*
X191214380Y-111902914D01*
X191138190Y-111921961D01*
X191100095Y-111941009D01*
X191062000Y-111979104D01*
X191042952Y-112036247D01*
X191042952Y-112074342D01*
X191062000Y-112131485D01*
X191081047Y-112150533D01*
X191042952Y-112493390D02*
X191042952Y-112417200D01*
X191062000Y-112379104D01*
X191081047Y-112360057D01*
X191138190Y-112321961D01*
X191214380Y-112302914D01*
X191366761Y-112302914D01*
X191404857Y-112321961D01*
X191423904Y-112341009D01*
X191442952Y-112379104D01*
X191442952Y-112455295D01*
X191423904Y-112493390D01*
X191404857Y-112512438D01*
X191366761Y-112531485D01*
X191271523Y-112531485D01*
X191233428Y-112512438D01*
X191214380Y-112493390D01*
X191195333Y-112455295D01*
X191195333Y-112379104D01*
X191214380Y-112341009D01*
X191233428Y-112321961D01*
X191271523Y-112302914D01*
G04 #@! TO.C,C7*
D11*
X202304380Y-111002914D02*
X202304380Y-111098152D01*
X202352000Y-111193390D01*
X202399619Y-111241009D01*
X202494857Y-111288628D01*
X202685333Y-111336247D01*
X202923428Y-111336247D01*
X203113904Y-111288628D01*
X203209142Y-111241009D01*
X203256761Y-111193390D01*
X203304380Y-111098152D01*
X203304380Y-111002914D01*
X203256761Y-110907676D01*
X203209142Y-110860057D01*
X203113904Y-110812438D01*
X202923428Y-110764819D01*
X202685333Y-110764819D01*
X202494857Y-110812438D01*
X202399619Y-110860057D01*
X202352000Y-110907676D01*
X202304380Y-111002914D01*
X203209142Y-111764819D02*
X203256761Y-111812438D01*
X203304380Y-111764819D01*
X203256761Y-111717200D01*
X203209142Y-111764819D01*
X203304380Y-111764819D01*
X203304380Y-112764819D02*
X203304380Y-112193390D01*
X203304380Y-112479104D02*
X202304380Y-112479104D01*
X202447238Y-112383866D01*
X202542476Y-112288628D01*
X202590095Y-112193390D01*
X202637714Y-113621961D02*
X203304380Y-113621961D01*
X202637714Y-113193390D02*
X203161523Y-113193390D01*
X203256761Y-113241009D01*
X203304380Y-113336247D01*
X203304380Y-113479104D01*
X203256761Y-113574342D01*
X203209142Y-113621961D01*
D12*
X201564857Y-112150533D02*
X201583904Y-112131485D01*
X201602952Y-112074342D01*
X201602952Y-112036247D01*
X201583904Y-111979104D01*
X201545809Y-111941009D01*
X201507714Y-111921961D01*
X201431523Y-111902914D01*
X201374380Y-111902914D01*
X201298190Y-111921961D01*
X201260095Y-111941009D01*
X201222000Y-111979104D01*
X201202952Y-112036247D01*
X201202952Y-112074342D01*
X201222000Y-112131485D01*
X201241047Y-112150533D01*
X201202952Y-112283866D02*
X201202952Y-112550533D01*
X201602952Y-112379104D01*
G04 #@! TO.C,Q2*
D11*
X220630238Y-110982380D02*
X220630238Y-109982380D01*
X220296904Y-110696666D01*
X219963571Y-109982380D01*
X219963571Y-110982380D01*
X219487380Y-110982380D02*
X219487380Y-109982380D01*
X219154047Y-110696666D01*
X218820714Y-109982380D01*
X218820714Y-110982380D01*
X218011190Y-110458571D02*
X217868333Y-110506190D01*
X217820714Y-110553809D01*
X217773095Y-110649047D01*
X217773095Y-110791904D01*
X217820714Y-110887142D01*
X217868333Y-110934761D01*
X217963571Y-110982380D01*
X218344523Y-110982380D01*
X218344523Y-109982380D01*
X218011190Y-109982380D01*
X217915952Y-110030000D01*
X217868333Y-110077619D01*
X217820714Y-110172857D01*
X217820714Y-110268095D01*
X217868333Y-110363333D01*
X217915952Y-110410952D01*
X218011190Y-110458571D01*
X218344523Y-110458571D01*
X217487380Y-109982380D02*
X216915952Y-109982380D01*
X217201666Y-110982380D02*
X217201666Y-109982380D01*
X216106428Y-109982380D02*
X216582619Y-109982380D01*
X216630238Y-110458571D01*
X216582619Y-110410952D01*
X216487380Y-110363333D01*
X216249285Y-110363333D01*
X216154047Y-110410952D01*
X216106428Y-110458571D01*
X216058809Y-110553809D01*
X216058809Y-110791904D01*
X216106428Y-110887142D01*
X216154047Y-110934761D01*
X216249285Y-110982380D01*
X216487380Y-110982380D01*
X216582619Y-110934761D01*
X216630238Y-110887142D01*
X215154047Y-109982380D02*
X215630238Y-109982380D01*
X215677857Y-110458571D01*
X215630238Y-110410952D01*
X215535000Y-110363333D01*
X215296904Y-110363333D01*
X215201666Y-110410952D01*
X215154047Y-110458571D01*
X215106428Y-110553809D01*
X215106428Y-110791904D01*
X215154047Y-110887142D01*
X215201666Y-110934761D01*
X215296904Y-110982380D01*
X215535000Y-110982380D01*
X215630238Y-110934761D01*
X215677857Y-110887142D01*
X214201666Y-109982380D02*
X214677857Y-109982380D01*
X214725476Y-110458571D01*
X214677857Y-110410952D01*
X214582619Y-110363333D01*
X214344523Y-110363333D01*
X214249285Y-110410952D01*
X214201666Y-110458571D01*
X214154047Y-110553809D01*
X214154047Y-110791904D01*
X214201666Y-110887142D01*
X214249285Y-110934761D01*
X214344523Y-110982380D01*
X214582619Y-110982380D01*
X214677857Y-110934761D01*
X214725476Y-110887142D01*
X213201666Y-110982380D02*
X213773095Y-110982380D01*
X213487380Y-110982380D02*
X213487380Y-109982380D01*
X213582619Y-110125238D01*
X213677857Y-110220476D01*
X213773095Y-110268095D01*
X212296904Y-110982380D02*
X212773095Y-110982380D01*
X212773095Y-109982380D01*
D13*
X216261190Y-113077619D02*
X216285000Y-113125238D01*
X216332619Y-113172857D01*
X216404047Y-113244285D01*
X216427857Y-113291904D01*
X216427857Y-113339523D01*
X216308809Y-113315714D02*
X216332619Y-113363333D01*
X216380238Y-113410952D01*
X216475476Y-113434761D01*
X216642142Y-113434761D01*
X216737380Y-113410952D01*
X216785000Y-113363333D01*
X216808809Y-113315714D01*
X216808809Y-113220476D01*
X216785000Y-113172857D01*
X216737380Y-113125238D01*
X216642142Y-113101428D01*
X216475476Y-113101428D01*
X216380238Y-113125238D01*
X216332619Y-113172857D01*
X216308809Y-113220476D01*
X216308809Y-113315714D01*
X216761190Y-112910952D02*
X216785000Y-112887142D01*
X216808809Y-112839523D01*
X216808809Y-112720476D01*
X216785000Y-112672857D01*
X216761190Y-112649047D01*
X216713571Y-112625238D01*
X216665952Y-112625238D01*
X216594523Y-112649047D01*
X216308809Y-112934761D01*
X216308809Y-112625238D01*
G04 #@! TO.C,Q3*
D11*
X201488323Y-105298571D02*
X201821657Y-105298571D01*
X201821657Y-105822380D02*
X201821657Y-104822380D01*
X201345466Y-104822380D01*
X200964514Y-105822380D02*
X200964514Y-104822380D01*
X200726419Y-104822380D01*
X200583561Y-104870000D01*
X200488323Y-104965238D01*
X200440704Y-105060476D01*
X200393085Y-105250952D01*
X200393085Y-105393809D01*
X200440704Y-105584285D01*
X200488323Y-105679523D01*
X200583561Y-105774761D01*
X200726419Y-105822380D01*
X200964514Y-105822380D01*
X199964514Y-105822380D02*
X199964514Y-104822380D01*
X199393085Y-105822380D01*
X199393085Y-104822380D01*
X199012133Y-104822380D02*
X198393085Y-104822380D01*
X198726419Y-105203333D01*
X198583561Y-105203333D01*
X198488323Y-105250952D01*
X198440704Y-105298571D01*
X198393085Y-105393809D01*
X198393085Y-105631904D01*
X198440704Y-105727142D01*
X198488323Y-105774761D01*
X198583561Y-105822380D01*
X198869276Y-105822380D01*
X198964514Y-105774761D01*
X199012133Y-105727142D01*
X197535942Y-105155714D02*
X197535942Y-105822380D01*
X197774038Y-104774761D02*
X198012133Y-105489047D01*
X197393085Y-105489047D01*
X196821657Y-104822380D02*
X196726419Y-104822380D01*
X196631180Y-104870000D01*
X196583561Y-104917619D01*
X196535942Y-105012857D01*
X196488323Y-105203333D01*
X196488323Y-105441428D01*
X196535942Y-105631904D01*
X196583561Y-105727142D01*
X196631180Y-105774761D01*
X196726419Y-105822380D01*
X196821657Y-105822380D01*
X196916895Y-105774761D01*
X196964514Y-105727142D01*
X197012133Y-105631904D01*
X197059752Y-105441428D01*
X197059752Y-105203333D01*
X197012133Y-105012857D01*
X196964514Y-104917619D01*
X196916895Y-104870000D01*
X196821657Y-104822380D01*
X196059752Y-105822380D02*
X196059752Y-104822380D01*
X195678800Y-104822380D01*
X195583561Y-104870000D01*
X195535942Y-104917619D01*
X195488323Y-105012857D01*
X195488323Y-105155714D01*
X195535942Y-105250952D01*
X195583561Y-105298571D01*
X195678800Y-105346190D01*
X196059752Y-105346190D01*
D13*
X198952609Y-102822380D02*
X198928800Y-102774761D01*
X198881180Y-102727142D01*
X198809752Y-102655714D01*
X198785942Y-102608095D01*
X198785942Y-102560476D01*
X198904990Y-102584285D02*
X198881180Y-102536666D01*
X198833561Y-102489047D01*
X198738323Y-102465238D01*
X198571657Y-102465238D01*
X198476419Y-102489047D01*
X198428800Y-102536666D01*
X198404990Y-102584285D01*
X198404990Y-102679523D01*
X198428800Y-102727142D01*
X198476419Y-102774761D01*
X198571657Y-102798571D01*
X198738323Y-102798571D01*
X198833561Y-102774761D01*
X198881180Y-102727142D01*
X198904990Y-102679523D01*
X198904990Y-102584285D01*
X198404990Y-102965238D02*
X198404990Y-103274761D01*
X198595466Y-103108095D01*
X198595466Y-103179523D01*
X198619276Y-103227142D01*
X198643085Y-103250952D01*
X198690704Y-103274761D01*
X198809752Y-103274761D01*
X198857371Y-103250952D01*
X198881180Y-103227142D01*
X198904990Y-103179523D01*
X198904990Y-103036666D01*
X198881180Y-102989047D01*
X198857371Y-102965238D01*
G04 #@! TO.C,Q4*
D11*
X185251980Y-102635561D02*
X184251980Y-102635561D01*
X184966266Y-102968895D01*
X184251980Y-103302228D01*
X185251980Y-103302228D01*
X185251980Y-103778419D02*
X184251980Y-103778419D01*
X184966266Y-104111752D01*
X184251980Y-104445085D01*
X185251980Y-104445085D01*
X184728171Y-105254609D02*
X184775790Y-105397466D01*
X184823409Y-105445085D01*
X184918647Y-105492704D01*
X185061504Y-105492704D01*
X185156742Y-105445085D01*
X185204361Y-105397466D01*
X185251980Y-105302228D01*
X185251980Y-104921276D01*
X184251980Y-104921276D01*
X184251980Y-105254609D01*
X184299600Y-105349847D01*
X184347219Y-105397466D01*
X184442457Y-105445085D01*
X184537695Y-105445085D01*
X184632933Y-105397466D01*
X184680552Y-105349847D01*
X184728171Y-105254609D01*
X184728171Y-104921276D01*
X184251980Y-105778419D02*
X184251980Y-106349847D01*
X185251980Y-106064133D02*
X184251980Y-106064133D01*
X184251980Y-107159371D02*
X184251980Y-106683180D01*
X184728171Y-106635561D01*
X184680552Y-106683180D01*
X184632933Y-106778419D01*
X184632933Y-107016514D01*
X184680552Y-107111752D01*
X184728171Y-107159371D01*
X184823409Y-107206990D01*
X185061504Y-107206990D01*
X185156742Y-107159371D01*
X185204361Y-107111752D01*
X185251980Y-107016514D01*
X185251980Y-106778419D01*
X185204361Y-106683180D01*
X185156742Y-106635561D01*
X184251980Y-108111752D02*
X184251980Y-107635561D01*
X184728171Y-107587942D01*
X184680552Y-107635561D01*
X184632933Y-107730800D01*
X184632933Y-107968895D01*
X184680552Y-108064133D01*
X184728171Y-108111752D01*
X184823409Y-108159371D01*
X185061504Y-108159371D01*
X185156742Y-108111752D01*
X185204361Y-108064133D01*
X185251980Y-107968895D01*
X185251980Y-107730800D01*
X185204361Y-107635561D01*
X185156742Y-107587942D01*
X184251980Y-109064133D02*
X184251980Y-108587942D01*
X184728171Y-108540323D01*
X184680552Y-108587942D01*
X184632933Y-108683180D01*
X184632933Y-108921276D01*
X184680552Y-109016514D01*
X184728171Y-109064133D01*
X184823409Y-109111752D01*
X185061504Y-109111752D01*
X185156742Y-109064133D01*
X185204361Y-109016514D01*
X185251980Y-108921276D01*
X185251980Y-108683180D01*
X185204361Y-108587942D01*
X185156742Y-108540323D01*
X185251980Y-110064133D02*
X185251980Y-109492704D01*
X185251980Y-109778419D02*
X184251980Y-109778419D01*
X184394838Y-109683180D01*
X184490076Y-109587942D01*
X184537695Y-109492704D01*
X185251980Y-110968895D02*
X185251980Y-110492704D01*
X184251980Y-110492704D01*
D13*
X187347219Y-107004609D02*
X187394838Y-106980800D01*
X187442457Y-106933180D01*
X187513885Y-106861752D01*
X187561504Y-106837942D01*
X187609123Y-106837942D01*
X187585314Y-106956990D02*
X187632933Y-106933180D01*
X187680552Y-106885561D01*
X187704361Y-106790323D01*
X187704361Y-106623657D01*
X187680552Y-106528419D01*
X187632933Y-106480800D01*
X187585314Y-106456990D01*
X187490076Y-106456990D01*
X187442457Y-106480800D01*
X187394838Y-106528419D01*
X187371028Y-106623657D01*
X187371028Y-106790323D01*
X187394838Y-106885561D01*
X187442457Y-106933180D01*
X187490076Y-106956990D01*
X187585314Y-106956990D01*
X186942457Y-106623657D02*
X186942457Y-106956990D01*
X187061504Y-106433180D02*
X187180552Y-106790323D01*
X186871028Y-106790323D01*
G04 #@! TO.C,U5*
D11*
X209072761Y-104791180D02*
X209072761Y-103791180D01*
X208739428Y-104505466D01*
X208406095Y-103791180D01*
X208406095Y-104791180D01*
X207358476Y-104695942D02*
X207406095Y-104743561D01*
X207548952Y-104791180D01*
X207644190Y-104791180D01*
X207787047Y-104743561D01*
X207882285Y-104648323D01*
X207929904Y-104553085D01*
X207977523Y-104362609D01*
X207977523Y-104219752D01*
X207929904Y-104029276D01*
X207882285Y-103934038D01*
X207787047Y-103838800D01*
X207644190Y-103791180D01*
X207548952Y-103791180D01*
X207406095Y-103838800D01*
X207358476Y-103886419D01*
X206929904Y-104791180D02*
X206929904Y-103791180D01*
X206548952Y-103791180D01*
X206453714Y-103838800D01*
X206406095Y-103886419D01*
X206358476Y-103981657D01*
X206358476Y-104124514D01*
X206406095Y-104219752D01*
X206453714Y-104267371D01*
X206548952Y-104314990D01*
X206929904Y-104314990D01*
X206025142Y-103791180D02*
X205358476Y-103791180D01*
X205787047Y-104791180D01*
X205072761Y-103791180D02*
X204453714Y-103791180D01*
X204787047Y-104172133D01*
X204644190Y-104172133D01*
X204548952Y-104219752D01*
X204501333Y-104267371D01*
X204453714Y-104362609D01*
X204453714Y-104600704D01*
X204501333Y-104695942D01*
X204548952Y-104743561D01*
X204644190Y-104791180D01*
X204929904Y-104791180D01*
X205025142Y-104743561D01*
X205072761Y-104695942D01*
X203882285Y-104219752D02*
X203977523Y-104172133D01*
X204025142Y-104124514D01*
X204072761Y-104029276D01*
X204072761Y-103981657D01*
X204025142Y-103886419D01*
X203977523Y-103838800D01*
X203882285Y-103791180D01*
X203691809Y-103791180D01*
X203596571Y-103838800D01*
X203548952Y-103886419D01*
X203501333Y-103981657D01*
X203501333Y-104029276D01*
X203548952Y-104124514D01*
X203596571Y-104172133D01*
X203691809Y-104219752D01*
X203882285Y-104219752D01*
X203977523Y-104267371D01*
X204025142Y-104314990D01*
X204072761Y-104410228D01*
X204072761Y-104600704D01*
X204025142Y-104695942D01*
X203977523Y-104743561D01*
X203882285Y-104791180D01*
X203691809Y-104791180D01*
X203596571Y-104743561D01*
X203548952Y-104695942D01*
X203501333Y-104600704D01*
X203501333Y-104410228D01*
X203548952Y-104314990D01*
X203596571Y-104267371D01*
X203691809Y-104219752D01*
X202548952Y-104791180D02*
X203120380Y-104791180D01*
X202834666Y-104791180D02*
X202834666Y-103791180D01*
X202929904Y-103934038D01*
X203025142Y-104029276D01*
X203120380Y-104076895D01*
X201596571Y-104791180D02*
X202168000Y-104791180D01*
X201882285Y-104791180D02*
X201882285Y-103791180D01*
X201977523Y-103934038D01*
X202072761Y-104029276D01*
X202168000Y-104076895D01*
X201310857Y-103791180D02*
X200739428Y-103791180D01*
X201025142Y-104791180D02*
X201025142Y-103791180D01*
X200406095Y-104410228D02*
X199644190Y-104410228D01*
X198739428Y-104124514D02*
X198739428Y-104791180D01*
X198977523Y-103743561D02*
X199215619Y-104457847D01*
X198596571Y-104457847D01*
X198263238Y-103886419D02*
X198215619Y-103838800D01*
X198120380Y-103791180D01*
X197882285Y-103791180D01*
X197787047Y-103838800D01*
X197739428Y-103886419D01*
X197691809Y-103981657D01*
X197691809Y-104076895D01*
X197739428Y-104219752D01*
X198310857Y-104791180D01*
X197691809Y-104791180D01*
X197072761Y-103791180D02*
X196977523Y-103791180D01*
X196882285Y-103838800D01*
X196834666Y-103886419D01*
X196787047Y-103981657D01*
X196739428Y-104172133D01*
X196739428Y-104410228D01*
X196787047Y-104600704D01*
X196834666Y-104695942D01*
X196882285Y-104743561D01*
X196977523Y-104791180D01*
X197072761Y-104791180D01*
X197168000Y-104743561D01*
X197215619Y-104695942D01*
X197263238Y-104600704D01*
X197310857Y-104410228D01*
X197310857Y-104172133D01*
X197263238Y-103981657D01*
X197215619Y-103886419D01*
X197168000Y-103838800D01*
X197072761Y-103791180D01*
X196310857Y-104791180D02*
X196310857Y-103791180D01*
X195834666Y-104410228D02*
X195072761Y-104410228D01*
X194406095Y-103791180D02*
X194215619Y-103791180D01*
X194120380Y-103838800D01*
X194025142Y-103934038D01*
X193977523Y-104124514D01*
X193977523Y-104457847D01*
X194025142Y-104648323D01*
X194120380Y-104743561D01*
X194215619Y-104791180D01*
X194406095Y-104791180D01*
X194501333Y-104743561D01*
X194596571Y-104648323D01*
X194644190Y-104457847D01*
X194644190Y-104124514D01*
X194596571Y-103934038D01*
X194501333Y-103838800D01*
X194406095Y-103791180D01*
X193691809Y-103791180D02*
X193120380Y-103791180D01*
X193406095Y-104791180D02*
X193406095Y-103791180D01*
D13*
X200894190Y-106857847D02*
X201298952Y-106857847D01*
X201346571Y-106881657D01*
X201370380Y-106905466D01*
X201394190Y-106953085D01*
X201394190Y-107048323D01*
X201370380Y-107095942D01*
X201346571Y-107119752D01*
X201298952Y-107143561D01*
X200894190Y-107143561D01*
X200894190Y-107619752D02*
X200894190Y-107381657D01*
X201132285Y-107357847D01*
X201108476Y-107381657D01*
X201084666Y-107429276D01*
X201084666Y-107548323D01*
X201108476Y-107595942D01*
X201132285Y-107619752D01*
X201179904Y-107643561D01*
X201298952Y-107643561D01*
X201346571Y-107619752D01*
X201370380Y-107595942D01*
X201394190Y-107548323D01*
X201394190Y-107429276D01*
X201370380Y-107381657D01*
X201346571Y-107357847D01*
G04 #@! TO.C,R1*
D11*
X191909980Y-100592052D02*
X191909980Y-100020623D01*
X191909980Y-100306338D02*
X190909980Y-100306338D01*
X191052838Y-100211100D01*
X191148076Y-100115861D01*
X191195695Y-100020623D01*
X191909980Y-101020623D02*
X190909980Y-101020623D01*
X191529028Y-101115861D02*
X191909980Y-101401576D01*
X191243314Y-101401576D02*
X191624266Y-101020623D01*
D12*
X193068552Y-100644433D02*
X192878076Y-100511100D01*
X193068552Y-100415861D02*
X192668552Y-100415861D01*
X192668552Y-100568242D01*
X192687600Y-100606338D01*
X192706647Y-100625385D01*
X192744742Y-100644433D01*
X192801885Y-100644433D01*
X192839980Y-100625385D01*
X192859028Y-100606338D01*
X192878076Y-100568242D01*
X192878076Y-100415861D01*
X193068552Y-101025385D02*
X193068552Y-100796814D01*
X193068552Y-100911100D02*
X192668552Y-100911100D01*
X192725695Y-100873004D01*
X192763790Y-100834909D01*
X192782838Y-100796814D01*
G04 #@! TO.C,R2*
D11*
X193281580Y-100592052D02*
X193281580Y-100020623D01*
X193281580Y-100306338D02*
X192281580Y-100306338D01*
X192424438Y-100211100D01*
X192519676Y-100115861D01*
X192567295Y-100020623D01*
X193281580Y-101020623D02*
X192281580Y-101020623D01*
X192900628Y-101115861D02*
X193281580Y-101401576D01*
X192614914Y-101401576D02*
X192995866Y-101020623D01*
D12*
X194440152Y-100644433D02*
X194249676Y-100511100D01*
X194440152Y-100415861D02*
X194040152Y-100415861D01*
X194040152Y-100568242D01*
X194059200Y-100606338D01*
X194078247Y-100625385D01*
X194116342Y-100644433D01*
X194173485Y-100644433D01*
X194211580Y-100625385D01*
X194230628Y-100606338D01*
X194249676Y-100568242D01*
X194249676Y-100415861D01*
X194078247Y-100796814D02*
X194059200Y-100815861D01*
X194040152Y-100853957D01*
X194040152Y-100949195D01*
X194059200Y-100987290D01*
X194078247Y-101006338D01*
X194116342Y-101025385D01*
X194154438Y-101025385D01*
X194211580Y-101006338D01*
X194440152Y-100777766D01*
X194440152Y-101025385D01*
G04 #@! TO.C,R17*
D11*
X231498380Y-113577761D02*
X231498380Y-113006333D01*
X231498380Y-113292047D02*
X230498380Y-113292047D01*
X230641238Y-113196809D01*
X230736476Y-113101571D01*
X230784095Y-113006333D01*
X230498380Y-114196809D02*
X230498380Y-114292047D01*
X230546000Y-114387285D01*
X230593619Y-114434904D01*
X230688857Y-114482523D01*
X230879333Y-114530142D01*
X231117428Y-114530142D01*
X231307904Y-114482523D01*
X231403142Y-114434904D01*
X231450761Y-114387285D01*
X231498380Y-114292047D01*
X231498380Y-114196809D01*
X231450761Y-114101571D01*
X231403142Y-114053952D01*
X231307904Y-114006333D01*
X231117428Y-113958714D01*
X230879333Y-113958714D01*
X230688857Y-114006333D01*
X230593619Y-114053952D01*
X230546000Y-114101571D01*
X230498380Y-114196809D01*
X231498380Y-114958714D02*
X230498380Y-114958714D01*
X231117428Y-115053952D02*
X231498380Y-115339666D01*
X230831714Y-115339666D02*
X231212666Y-114958714D01*
D12*
X229796952Y-113915857D02*
X229606476Y-113782523D01*
X229796952Y-113687285D02*
X229396952Y-113687285D01*
X229396952Y-113839666D01*
X229416000Y-113877761D01*
X229435047Y-113896809D01*
X229473142Y-113915857D01*
X229530285Y-113915857D01*
X229568380Y-113896809D01*
X229587428Y-113877761D01*
X229606476Y-113839666D01*
X229606476Y-113687285D01*
X229796952Y-114296809D02*
X229796952Y-114068238D01*
X229796952Y-114182523D02*
X229396952Y-114182523D01*
X229454095Y-114144428D01*
X229492190Y-114106333D01*
X229511238Y-114068238D01*
X229396952Y-114430142D02*
X229396952Y-114696809D01*
X229796952Y-114525380D01*
G04 #@! TO.C,R16*
D11*
X220677980Y-110961561D02*
X220677980Y-110390133D01*
X220677980Y-110675847D02*
X219677980Y-110675847D01*
X219820838Y-110580609D01*
X219916076Y-110485371D01*
X219963695Y-110390133D01*
X219677980Y-111580609D02*
X219677980Y-111675847D01*
X219725600Y-111771085D01*
X219773219Y-111818704D01*
X219868457Y-111866323D01*
X220058933Y-111913942D01*
X220297028Y-111913942D01*
X220487504Y-111866323D01*
X220582742Y-111818704D01*
X220630361Y-111771085D01*
X220677980Y-111675847D01*
X220677980Y-111580609D01*
X220630361Y-111485371D01*
X220582742Y-111437752D01*
X220487504Y-111390133D01*
X220297028Y-111342514D01*
X220058933Y-111342514D01*
X219868457Y-111390133D01*
X219773219Y-111437752D01*
X219725600Y-111485371D01*
X219677980Y-111580609D01*
X220677980Y-112342514D02*
X219677980Y-112342514D01*
X220297028Y-112437752D02*
X220677980Y-112723466D01*
X220011314Y-112723466D02*
X220392266Y-112342514D01*
D12*
X218976552Y-111299657D02*
X218786076Y-111166323D01*
X218976552Y-111071085D02*
X218576552Y-111071085D01*
X218576552Y-111223466D01*
X218595600Y-111261561D01*
X218614647Y-111280609D01*
X218652742Y-111299657D01*
X218709885Y-111299657D01*
X218747980Y-111280609D01*
X218767028Y-111261561D01*
X218786076Y-111223466D01*
X218786076Y-111071085D01*
X218976552Y-111680609D02*
X218976552Y-111452038D01*
X218976552Y-111566323D02*
X218576552Y-111566323D01*
X218633695Y-111528228D01*
X218671790Y-111490133D01*
X218690838Y-111452038D01*
X218576552Y-112023466D02*
X218576552Y-111947276D01*
X218595600Y-111909180D01*
X218614647Y-111890133D01*
X218671790Y-111852038D01*
X218747980Y-111832990D01*
X218900361Y-111832990D01*
X218938457Y-111852038D01*
X218957504Y-111871085D01*
X218976552Y-111909180D01*
X218976552Y-111985371D01*
X218957504Y-112023466D01*
X218938457Y-112042514D01*
X218900361Y-112061561D01*
X218805123Y-112061561D01*
X218767028Y-112042514D01*
X218747980Y-112023466D01*
X218728933Y-111985371D01*
X218728933Y-111909180D01*
X218747980Y-111871085D01*
X218767028Y-111852038D01*
X218805123Y-111832990D01*
G04 #@! TO.C,R15*
D11*
X210416380Y-110910761D02*
X210416380Y-110339333D01*
X210416380Y-110625047D02*
X209416380Y-110625047D01*
X209559238Y-110529809D01*
X209654476Y-110434571D01*
X209702095Y-110339333D01*
X209416380Y-111529809D02*
X209416380Y-111625047D01*
X209464000Y-111720285D01*
X209511619Y-111767904D01*
X209606857Y-111815523D01*
X209797333Y-111863142D01*
X210035428Y-111863142D01*
X210225904Y-111815523D01*
X210321142Y-111767904D01*
X210368761Y-111720285D01*
X210416380Y-111625047D01*
X210416380Y-111529809D01*
X210368761Y-111434571D01*
X210321142Y-111386952D01*
X210225904Y-111339333D01*
X210035428Y-111291714D01*
X209797333Y-111291714D01*
X209606857Y-111339333D01*
X209511619Y-111386952D01*
X209464000Y-111434571D01*
X209416380Y-111529809D01*
X210416380Y-112291714D02*
X209416380Y-112291714D01*
X210035428Y-112386952D02*
X210416380Y-112672666D01*
X209749714Y-112672666D02*
X210130666Y-112291714D01*
D12*
X208714952Y-111248857D02*
X208524476Y-111115523D01*
X208714952Y-111020285D02*
X208314952Y-111020285D01*
X208314952Y-111172666D01*
X208334000Y-111210761D01*
X208353047Y-111229809D01*
X208391142Y-111248857D01*
X208448285Y-111248857D01*
X208486380Y-111229809D01*
X208505428Y-111210761D01*
X208524476Y-111172666D01*
X208524476Y-111020285D01*
X208714952Y-111629809D02*
X208714952Y-111401238D01*
X208714952Y-111515523D02*
X208314952Y-111515523D01*
X208372095Y-111477428D01*
X208410190Y-111439333D01*
X208429238Y-111401238D01*
X208314952Y-111991714D02*
X208314952Y-111801238D01*
X208505428Y-111782190D01*
X208486380Y-111801238D01*
X208467333Y-111839333D01*
X208467333Y-111934571D01*
X208486380Y-111972666D01*
X208505428Y-111991714D01*
X208543523Y-112010761D01*
X208638761Y-112010761D01*
X208676857Y-111991714D01*
X208695904Y-111972666D01*
X208714952Y-111934571D01*
X208714952Y-111839333D01*
X208695904Y-111801238D01*
X208676857Y-111782190D01*
G04 #@! TO.C,R13*
D11*
X214495047Y-114465380D02*
X215066476Y-114465380D01*
X214780761Y-114465380D02*
X214780761Y-113465380D01*
X214876000Y-113608238D01*
X214971238Y-113703476D01*
X215066476Y-113751095D01*
X214066476Y-114465380D02*
X214066476Y-113465380D01*
X213971238Y-114084428D02*
X213685523Y-114465380D01*
X213685523Y-113798714D02*
X214066476Y-114179666D01*
D12*
X214633142Y-115623952D02*
X214766476Y-115433476D01*
X214861714Y-115623952D02*
X214861714Y-115223952D01*
X214709333Y-115223952D01*
X214671238Y-115243000D01*
X214652190Y-115262047D01*
X214633142Y-115300142D01*
X214633142Y-115357285D01*
X214652190Y-115395380D01*
X214671238Y-115414428D01*
X214709333Y-115433476D01*
X214861714Y-115433476D01*
X214252190Y-115623952D02*
X214480761Y-115623952D01*
X214366476Y-115623952D02*
X214366476Y-115223952D01*
X214404571Y-115281095D01*
X214442666Y-115319190D01*
X214480761Y-115338238D01*
X214118857Y-115223952D02*
X213871238Y-115223952D01*
X214004571Y-115376333D01*
X213947428Y-115376333D01*
X213909333Y-115395380D01*
X213890285Y-115414428D01*
X213871238Y-115452523D01*
X213871238Y-115547761D01*
X213890285Y-115585857D01*
X213909333Y-115604904D01*
X213947428Y-115623952D01*
X214061714Y-115623952D01*
X214099809Y-115604904D01*
X214118857Y-115585857D01*
G04 #@! TO.C,R10*
D11*
X228596819Y-110087180D02*
X228501580Y-110087180D01*
X228406342Y-110134800D01*
X228358723Y-110182419D01*
X228311104Y-110277657D01*
X228263485Y-110468133D01*
X228263485Y-110706228D01*
X228311104Y-110896704D01*
X228358723Y-110991942D01*
X228406342Y-111039561D01*
X228501580Y-111087180D01*
X228596819Y-111087180D01*
X228692057Y-111039561D01*
X228739676Y-110991942D01*
X228787295Y-110896704D01*
X228834914Y-110706228D01*
X228834914Y-110468133D01*
X228787295Y-110277657D01*
X228739676Y-110182419D01*
X228692057Y-110134800D01*
X228596819Y-110087180D01*
D12*
X228806342Y-112245752D02*
X228939676Y-112055276D01*
X229034914Y-112245752D02*
X229034914Y-111845752D01*
X228882533Y-111845752D01*
X228844438Y-111864800D01*
X228825390Y-111883847D01*
X228806342Y-111921942D01*
X228806342Y-111979085D01*
X228825390Y-112017180D01*
X228844438Y-112036228D01*
X228882533Y-112055276D01*
X229034914Y-112055276D01*
X228425390Y-112245752D02*
X228653961Y-112245752D01*
X228539676Y-112245752D02*
X228539676Y-111845752D01*
X228577771Y-111902895D01*
X228615866Y-111940990D01*
X228653961Y-111960038D01*
X228177771Y-111845752D02*
X228139676Y-111845752D01*
X228101580Y-111864800D01*
X228082533Y-111883847D01*
X228063485Y-111921942D01*
X228044438Y-111998133D01*
X228044438Y-112093371D01*
X228063485Y-112169561D01*
X228082533Y-112207657D01*
X228101580Y-112226704D01*
X228139676Y-112245752D01*
X228177771Y-112245752D01*
X228215866Y-112226704D01*
X228234914Y-112207657D01*
X228253961Y-112169561D01*
X228273009Y-112093371D01*
X228273009Y-111998133D01*
X228253961Y-111921942D01*
X228234914Y-111883847D01*
X228215866Y-111864800D01*
X228177771Y-111845752D01*
G04 #@! TO.C,R9*
D11*
X229257219Y-111575580D02*
X229161980Y-111575580D01*
X229066742Y-111623200D01*
X229019123Y-111670819D01*
X228971504Y-111766057D01*
X228923885Y-111956533D01*
X228923885Y-112194628D01*
X228971504Y-112385104D01*
X229019123Y-112480342D01*
X229066742Y-112527961D01*
X229161980Y-112575580D01*
X229257219Y-112575580D01*
X229352457Y-112527961D01*
X229400076Y-112480342D01*
X229447695Y-112385104D01*
X229495314Y-112194628D01*
X229495314Y-111956533D01*
X229447695Y-111766057D01*
X229400076Y-111670819D01*
X229352457Y-111623200D01*
X229257219Y-111575580D01*
D12*
X229276266Y-110874152D02*
X229409600Y-110683676D01*
X229504838Y-110874152D02*
X229504838Y-110474152D01*
X229352457Y-110474152D01*
X229314361Y-110493200D01*
X229295314Y-110512247D01*
X229276266Y-110550342D01*
X229276266Y-110607485D01*
X229295314Y-110645580D01*
X229314361Y-110664628D01*
X229352457Y-110683676D01*
X229504838Y-110683676D01*
X229085790Y-110874152D02*
X229009600Y-110874152D01*
X228971504Y-110855104D01*
X228952457Y-110836057D01*
X228914361Y-110778914D01*
X228895314Y-110702723D01*
X228895314Y-110550342D01*
X228914361Y-110512247D01*
X228933409Y-110493200D01*
X228971504Y-110474152D01*
X229047695Y-110474152D01*
X229085790Y-110493200D01*
X229104838Y-110512247D01*
X229123885Y-110550342D01*
X229123885Y-110645580D01*
X229104838Y-110683676D01*
X229085790Y-110702723D01*
X229047695Y-110721771D01*
X228971504Y-110721771D01*
X228933409Y-110702723D01*
X228914361Y-110683676D01*
X228895314Y-110645580D01*
G04 #@! TO.C,R6*
D11*
X196578361Y-113534514D02*
X196578361Y-114201180D01*
X196816457Y-113153561D02*
X197054552Y-113867847D01*
X196435504Y-113867847D01*
X196149790Y-113201180D02*
X195483123Y-113201180D01*
X195911695Y-114201180D01*
X195102171Y-114105942D02*
X195054552Y-114153561D01*
X195102171Y-114201180D01*
X195149790Y-114153561D01*
X195102171Y-114105942D01*
X195102171Y-114201180D01*
X194149790Y-113201180D02*
X194625980Y-113201180D01*
X194673600Y-113677371D01*
X194625980Y-113629752D01*
X194530742Y-113582133D01*
X194292647Y-113582133D01*
X194197409Y-113629752D01*
X194149790Y-113677371D01*
X194102171Y-113772609D01*
X194102171Y-114010704D01*
X194149790Y-114105942D01*
X194197409Y-114153561D01*
X194292647Y-114201180D01*
X194530742Y-114201180D01*
X194625980Y-114153561D01*
X194673600Y-114105942D01*
X193673600Y-114201180D02*
X193673600Y-113201180D01*
X193578361Y-113820228D02*
X193292647Y-114201180D01*
X193292647Y-113534514D02*
X193673600Y-113915466D01*
D12*
X195240266Y-112499752D02*
X195373600Y-112309276D01*
X195468838Y-112499752D02*
X195468838Y-112099752D01*
X195316457Y-112099752D01*
X195278361Y-112118800D01*
X195259314Y-112137847D01*
X195240266Y-112175942D01*
X195240266Y-112233085D01*
X195259314Y-112271180D01*
X195278361Y-112290228D01*
X195316457Y-112309276D01*
X195468838Y-112309276D01*
X194897409Y-112099752D02*
X194973600Y-112099752D01*
X195011695Y-112118800D01*
X195030742Y-112137847D01*
X195068838Y-112194990D01*
X195087885Y-112271180D01*
X195087885Y-112423561D01*
X195068838Y-112461657D01*
X195049790Y-112480704D01*
X195011695Y-112499752D01*
X194935504Y-112499752D01*
X194897409Y-112480704D01*
X194878361Y-112461657D01*
X194859314Y-112423561D01*
X194859314Y-112328323D01*
X194878361Y-112290228D01*
X194897409Y-112271180D01*
X194935504Y-112252133D01*
X195011695Y-112252133D01*
X195049790Y-112271180D01*
X195068838Y-112290228D01*
X195087885Y-112328323D01*
G04 #@! TO.C,R5*
D11*
X216495095Y-111499380D02*
X216399857Y-111499380D01*
X216304619Y-111547000D01*
X216257000Y-111594619D01*
X216209380Y-111689857D01*
X216161761Y-111880333D01*
X216161761Y-112118428D01*
X216209380Y-112308904D01*
X216257000Y-112404142D01*
X216304619Y-112451761D01*
X216399857Y-112499380D01*
X216495095Y-112499380D01*
X216590333Y-112451761D01*
X216637952Y-112404142D01*
X216685571Y-112308904D01*
X216733190Y-112118428D01*
X216733190Y-111880333D01*
X216685571Y-111689857D01*
X216637952Y-111594619D01*
X216590333Y-111547000D01*
X216495095Y-111499380D01*
X215447476Y-112880333D02*
X215495095Y-112832714D01*
X215590333Y-112689857D01*
X215637952Y-112594619D01*
X215685571Y-112451761D01*
X215733190Y-112213666D01*
X215733190Y-112023190D01*
X215685571Y-111785095D01*
X215637952Y-111642238D01*
X215590333Y-111547000D01*
X215495095Y-111404142D01*
X215447476Y-111356523D01*
X215066523Y-112499380D02*
X215066523Y-111499380D01*
X214495095Y-112499380D01*
X214495095Y-111499380D01*
X213447476Y-112404142D02*
X213495095Y-112451761D01*
X213637952Y-112499380D01*
X213733190Y-112499380D01*
X213876047Y-112451761D01*
X213971285Y-112356523D01*
X214018904Y-112261285D01*
X214066523Y-112070809D01*
X214066523Y-111927952D01*
X214018904Y-111737476D01*
X213971285Y-111642238D01*
X213876047Y-111547000D01*
X213733190Y-111499380D01*
X213637952Y-111499380D01*
X213495095Y-111547000D01*
X213447476Y-111594619D01*
X213114142Y-112880333D02*
X213066523Y-112832714D01*
X212971285Y-112689857D01*
X212923666Y-112594619D01*
X212876047Y-112451761D01*
X212828428Y-112213666D01*
X212828428Y-112023190D01*
X212876047Y-111785095D01*
X212923666Y-111642238D01*
X212971285Y-111547000D01*
X213066523Y-111404142D01*
X213114142Y-111356523D01*
D12*
X214823666Y-110797952D02*
X214957000Y-110607476D01*
X215052238Y-110797952D02*
X215052238Y-110397952D01*
X214899857Y-110397952D01*
X214861761Y-110417000D01*
X214842714Y-110436047D01*
X214823666Y-110474142D01*
X214823666Y-110531285D01*
X214842714Y-110569380D01*
X214861761Y-110588428D01*
X214899857Y-110607476D01*
X215052238Y-110607476D01*
X214461761Y-110397952D02*
X214652238Y-110397952D01*
X214671285Y-110588428D01*
X214652238Y-110569380D01*
X214614142Y-110550333D01*
X214518904Y-110550333D01*
X214480809Y-110569380D01*
X214461761Y-110588428D01*
X214442714Y-110626523D01*
X214442714Y-110721761D01*
X214461761Y-110759857D01*
X214480809Y-110778904D01*
X214518904Y-110797952D01*
X214614142Y-110797952D01*
X214652238Y-110778904D01*
X214671285Y-110759857D01*
G04 #@! TO.C,R7*
D11*
X190569580Y-99912704D02*
X190569580Y-100007942D01*
X190617200Y-100103180D01*
X190664819Y-100150800D01*
X190760057Y-100198419D01*
X190950533Y-100246038D01*
X191188628Y-100246038D01*
X191379104Y-100198419D01*
X191474342Y-100150800D01*
X191521961Y-100103180D01*
X191569580Y-100007942D01*
X191569580Y-99912704D01*
X191521961Y-99817466D01*
X191474342Y-99769847D01*
X191379104Y-99722228D01*
X191188628Y-99674609D01*
X190950533Y-99674609D01*
X190760057Y-99722228D01*
X190664819Y-99769847D01*
X190617200Y-99817466D01*
X190569580Y-99912704D01*
X191950533Y-100960323D02*
X191902914Y-100912704D01*
X191760057Y-100817466D01*
X191664819Y-100769847D01*
X191521961Y-100722228D01*
X191283866Y-100674609D01*
X191093390Y-100674609D01*
X190855295Y-100722228D01*
X190712438Y-100769847D01*
X190617200Y-100817466D01*
X190474342Y-100912704D01*
X190426723Y-100960323D01*
X191569580Y-101341276D02*
X190569580Y-101341276D01*
X191569580Y-101912704D01*
X190569580Y-101912704D01*
X191474342Y-102960323D02*
X191521961Y-102912704D01*
X191569580Y-102769847D01*
X191569580Y-102674609D01*
X191521961Y-102531752D01*
X191426723Y-102436514D01*
X191331485Y-102388895D01*
X191141009Y-102341276D01*
X190998152Y-102341276D01*
X190807676Y-102388895D01*
X190712438Y-102436514D01*
X190617200Y-102531752D01*
X190569580Y-102674609D01*
X190569580Y-102769847D01*
X190617200Y-102912704D01*
X190664819Y-102960323D01*
X191950533Y-103293657D02*
X191902914Y-103341276D01*
X191760057Y-103436514D01*
X191664819Y-103484133D01*
X191521961Y-103531752D01*
X191283866Y-103579371D01*
X191093390Y-103579371D01*
X190855295Y-103531752D01*
X190712438Y-103484133D01*
X190617200Y-103436514D01*
X190474342Y-103341276D01*
X190426723Y-103293657D01*
D12*
X189868152Y-101584133D02*
X189677676Y-101450800D01*
X189868152Y-101355561D02*
X189468152Y-101355561D01*
X189468152Y-101507942D01*
X189487200Y-101546038D01*
X189506247Y-101565085D01*
X189544342Y-101584133D01*
X189601485Y-101584133D01*
X189639580Y-101565085D01*
X189658628Y-101546038D01*
X189677676Y-101507942D01*
X189677676Y-101355561D01*
X189468152Y-101717466D02*
X189468152Y-101984133D01*
X189868152Y-101812704D01*
G04 #@! TO.C,R14*
D11*
X213083380Y-111005952D02*
X213083380Y-110434523D01*
X213083380Y-110720238D02*
X212083380Y-110720238D01*
X212226238Y-110625000D01*
X212321476Y-110529761D01*
X212369095Y-110434523D01*
X213083380Y-111434523D02*
X212083380Y-111434523D01*
X212702428Y-111529761D02*
X213083380Y-111815476D01*
X212416714Y-111815476D02*
X212797666Y-111434523D01*
D12*
X211381952Y-110867857D02*
X211191476Y-110734523D01*
X211381952Y-110639285D02*
X210981952Y-110639285D01*
X210981952Y-110791666D01*
X211001000Y-110829761D01*
X211020047Y-110848809D01*
X211058142Y-110867857D01*
X211115285Y-110867857D01*
X211153380Y-110848809D01*
X211172428Y-110829761D01*
X211191476Y-110791666D01*
X211191476Y-110639285D01*
X211381952Y-111248809D02*
X211381952Y-111020238D01*
X211381952Y-111134523D02*
X210981952Y-111134523D01*
X211039095Y-111096428D01*
X211077190Y-111058333D01*
X211096238Y-111020238D01*
X211115285Y-111591666D02*
X211381952Y-111591666D01*
X210962904Y-111496428D02*
X211248619Y-111401190D01*
X211248619Y-111648809D01*
G04 #@! TO.C,U7*
D11*
X191829066Y-82347180D02*
X191829066Y-82823371D01*
X192114780Y-82251942D02*
X191114780Y-82585276D01*
X192114780Y-82918609D01*
X192114780Y-83251942D02*
X191114780Y-83251942D01*
X191114780Y-83490038D01*
X191162400Y-83632895D01*
X191257638Y-83728133D01*
X191352876Y-83775752D01*
X191543352Y-83823371D01*
X191686209Y-83823371D01*
X191876685Y-83775752D01*
X191971923Y-83728133D01*
X192067161Y-83632895D01*
X192114780Y-83490038D01*
X192114780Y-83251942D01*
X191114780Y-84156704D02*
X192114780Y-84823371D01*
X191114780Y-84823371D02*
X192114780Y-84156704D01*
X192114780Y-85680514D02*
X192114780Y-85204323D01*
X191114780Y-85204323D01*
X191114780Y-85918609D02*
X191114780Y-86537657D01*
X191495733Y-86204323D01*
X191495733Y-86347180D01*
X191543352Y-86442419D01*
X191590971Y-86490038D01*
X191686209Y-86537657D01*
X191924304Y-86537657D01*
X192019542Y-86490038D01*
X192067161Y-86442419D01*
X192114780Y-86347180D01*
X192114780Y-86061466D01*
X192067161Y-85966228D01*
X192019542Y-85918609D01*
X191114780Y-86870990D02*
X191114780Y-87490038D01*
X191495733Y-87156704D01*
X191495733Y-87299561D01*
X191543352Y-87394800D01*
X191590971Y-87442419D01*
X191686209Y-87490038D01*
X191924304Y-87490038D01*
X192019542Y-87442419D01*
X192067161Y-87394800D01*
X192114780Y-87299561D01*
X192114780Y-87013847D01*
X192067161Y-86918609D01*
X192019542Y-86870990D01*
X191114780Y-87823371D02*
X191114780Y-88490038D01*
X192114780Y-88061466D01*
D14*
X194051685Y-84823371D02*
X194658828Y-84823371D01*
X194730257Y-84859085D01*
X194765971Y-84894800D01*
X194801685Y-84966228D01*
X194801685Y-85109085D01*
X194765971Y-85180514D01*
X194730257Y-85216228D01*
X194658828Y-85251942D01*
X194051685Y-85251942D01*
X194051685Y-85537657D02*
X194051685Y-86037657D01*
X194801685Y-85716228D01*
G04 #@! TD*
M02*
