G04 #@! TF.GenerationSoftware,KiCad,Pcbnew,(5.0.1)-3*
G04 #@! TF.CreationDate,2019-11-22T16:36:39-05:00*
G04 #@! TF.ProjectId,SmartWatch,536D61727457617463682E6B69636164,rev?*
G04 #@! TF.SameCoordinates,Original*
G04 #@! TF.FileFunction,Drawing*
%FSLAX46Y46*%
G04 Gerber Fmt 4.6, Leading zero omitted, Abs format (unit mm)*
G04 Created by KiCad (PCBNEW (5.0.1)-3) date 11/22/2019 4:36:39 PM*
%MOMM*%
%LPD*%
G01*
G04 APERTURE LIST*
%ADD10C,0.100000*%
G04 APERTURE END LIST*
D10*
G04 #@! TO.C,J3*
G36*
X189041000Y-99344000D02*
X189041000Y-96744000D01*
X191291000Y-96744000D01*
X191291000Y-99344000D01*
X189041000Y-99344000D01*
G37*
G36*
X185536000Y-96894000D02*
X185536000Y-94794000D01*
X187336000Y-94794000D01*
X187336000Y-96894000D01*
X185536000Y-96894000D01*
G37*
G36*
X188941000Y-88744000D02*
X188941000Y-85944000D01*
X191391000Y-85944000D01*
X191391000Y-88744000D01*
X188941000Y-88744000D01*
G37*
G36*
X189041000Y-99344000D02*
X189041000Y-96744000D01*
X191291000Y-96744000D01*
X191291000Y-99344000D01*
X189041000Y-99344000D01*
G37*
G36*
X185536000Y-96894000D02*
X185536000Y-94794000D01*
X187336000Y-94794000D01*
X187336000Y-96894000D01*
X185536000Y-96894000D01*
G37*
G36*
X188941000Y-88744000D02*
X188941000Y-85944000D01*
X191391000Y-85944000D01*
X191391000Y-88744000D01*
X188941000Y-88744000D01*
G37*
G36*
X189041000Y-99344000D02*
X189041000Y-96744000D01*
X191291000Y-96744000D01*
X191291000Y-99344000D01*
X189041000Y-99344000D01*
G37*
G36*
X188941000Y-88744000D02*
X188941000Y-85944000D01*
X191391000Y-85944000D01*
X191391000Y-88744000D01*
X188941000Y-88744000D01*
G37*
G36*
X185536000Y-96894000D02*
X185536000Y-94794000D01*
X187336000Y-94794000D01*
X187336000Y-96894000D01*
X185536000Y-96894000D01*
G37*
G04 #@! TD*
M02*
