G04 #@! TF.GenerationSoftware,KiCad,Pcbnew,(5.1.7)-1*
G04 #@! TF.CreationDate,2021-01-26T15:50:25-05:00*
G04 #@! TF.ProjectId,SmartWatch V5,536d6172-7457-4617-9463-682056352e6b,rev?*
G04 #@! TF.SameCoordinates,Original*
G04 #@! TF.FileFunction,Paste,Bot*
G04 #@! TF.FilePolarity,Positive*
%FSLAX46Y46*%
G04 Gerber Fmt 4.6, Leading zero omitted, Abs format (unit mm)*
G04 Created by KiCad (PCBNEW (5.1.7)-1) date 2021-01-26 15:50:25*
%MOMM*%
%LPD*%
G01*
G04 APERTURE LIST*
%ADD10R,0.900000X0.800000*%
%ADD11R,0.450000X1.500000*%
%ADD12R,2.387600X1.803400*%
%ADD13R,0.152400X0.711200*%
%ADD14R,0.800000X0.900000*%
%ADD15C,1.500000*%
%ADD16R,0.900000X1.200000*%
%ADD17R,3.000000X0.500000*%
G04 APERTURE END LIST*
G36*
G01*
X87378250Y-79431500D02*
X86865750Y-79431500D01*
G75*
G02*
X86647000Y-79212750I0J218750D01*
G01*
X86647000Y-78775250D01*
G75*
G02*
X86865750Y-78556500I218750J0D01*
G01*
X87378250Y-78556500D01*
G75*
G02*
X87597000Y-78775250I0J-218750D01*
G01*
X87597000Y-79212750D01*
G75*
G02*
X87378250Y-79431500I-218750J0D01*
G01*
G37*
G36*
G01*
X87378250Y-81006500D02*
X86865750Y-81006500D01*
G75*
G02*
X86647000Y-80787750I0J218750D01*
G01*
X86647000Y-80350250D01*
G75*
G02*
X86865750Y-80131500I218750J0D01*
G01*
X87378250Y-80131500D01*
G75*
G02*
X87597000Y-80350250I0J-218750D01*
G01*
X87597000Y-80787750D01*
G75*
G02*
X87378250Y-81006500I-218750J0D01*
G01*
G37*
G36*
G01*
X88996000Y-73535250D02*
X88996000Y-73022750D01*
G75*
G02*
X89214750Y-72804000I218750J0D01*
G01*
X89652250Y-72804000D01*
G75*
G02*
X89871000Y-73022750I0J-218750D01*
G01*
X89871000Y-73535250D01*
G75*
G02*
X89652250Y-73754000I-218750J0D01*
G01*
X89214750Y-73754000D01*
G75*
G02*
X88996000Y-73535250I0J218750D01*
G01*
G37*
G36*
G01*
X87421000Y-73535250D02*
X87421000Y-73022750D01*
G75*
G02*
X87639750Y-72804000I218750J0D01*
G01*
X88077250Y-72804000D01*
G75*
G02*
X88296000Y-73022750I0J-218750D01*
G01*
X88296000Y-73535250D01*
G75*
G02*
X88077250Y-73754000I-218750J0D01*
G01*
X87639750Y-73754000D01*
G75*
G02*
X87421000Y-73535250I0J218750D01*
G01*
G37*
G36*
G01*
X87246750Y-96235000D02*
X87759250Y-96235000D01*
G75*
G02*
X87978000Y-96453750I0J-218750D01*
G01*
X87978000Y-96891250D01*
G75*
G02*
X87759250Y-97110000I-218750J0D01*
G01*
X87246750Y-97110000D01*
G75*
G02*
X87028000Y-96891250I0J218750D01*
G01*
X87028000Y-96453750D01*
G75*
G02*
X87246750Y-96235000I218750J0D01*
G01*
G37*
G36*
G01*
X87246750Y-94660000D02*
X87759250Y-94660000D01*
G75*
G02*
X87978000Y-94878750I0J-218750D01*
G01*
X87978000Y-95316250D01*
G75*
G02*
X87759250Y-95535000I-218750J0D01*
G01*
X87246750Y-95535000D01*
G75*
G02*
X87028000Y-95316250I0J218750D01*
G01*
X87028000Y-94878750D01*
G75*
G02*
X87246750Y-94660000I218750J0D01*
G01*
G37*
G36*
G01*
X87407000Y-71371750D02*
X87407000Y-71884250D01*
G75*
G02*
X87188250Y-72103000I-218750J0D01*
G01*
X86750750Y-72103000D01*
G75*
G02*
X86532000Y-71884250I0J218750D01*
G01*
X86532000Y-71371750D01*
G75*
G02*
X86750750Y-71153000I218750J0D01*
G01*
X87188250Y-71153000D01*
G75*
G02*
X87407000Y-71371750I0J-218750D01*
G01*
G37*
G36*
G01*
X88982000Y-71371750D02*
X88982000Y-71884250D01*
G75*
G02*
X88763250Y-72103000I-218750J0D01*
G01*
X88325750Y-72103000D01*
G75*
G02*
X88107000Y-71884250I0J218750D01*
G01*
X88107000Y-71371750D01*
G75*
G02*
X88325750Y-71153000I218750J0D01*
G01*
X88763250Y-71153000D01*
G75*
G02*
X88982000Y-71371750I0J-218750D01*
G01*
G37*
G36*
G01*
X95193500Y-87251250D02*
X95193500Y-86738750D01*
G75*
G02*
X95412250Y-86520000I218750J0D01*
G01*
X95849750Y-86520000D01*
G75*
G02*
X96068500Y-86738750I0J-218750D01*
G01*
X96068500Y-87251250D01*
G75*
G02*
X95849750Y-87470000I-218750J0D01*
G01*
X95412250Y-87470000D01*
G75*
G02*
X95193500Y-87251250I0J218750D01*
G01*
G37*
G36*
G01*
X93618500Y-87251250D02*
X93618500Y-86738750D01*
G75*
G02*
X93837250Y-86520000I218750J0D01*
G01*
X94274750Y-86520000D01*
G75*
G02*
X94493500Y-86738750I0J-218750D01*
G01*
X94493500Y-87251250D01*
G75*
G02*
X94274750Y-87470000I-218750J0D01*
G01*
X93837250Y-87470000D01*
G75*
G02*
X93618500Y-87251250I0J218750D01*
G01*
G37*
G36*
G01*
X93757000Y-74800750D02*
X93757000Y-75313250D01*
G75*
G02*
X93538250Y-75532000I-218750J0D01*
G01*
X93100750Y-75532000D01*
G75*
G02*
X92882000Y-75313250I0J218750D01*
G01*
X92882000Y-74800750D01*
G75*
G02*
X93100750Y-74582000I218750J0D01*
G01*
X93538250Y-74582000D01*
G75*
G02*
X93757000Y-74800750I0J-218750D01*
G01*
G37*
G36*
G01*
X95332000Y-74800750D02*
X95332000Y-75313250D01*
G75*
G02*
X95113250Y-75532000I-218750J0D01*
G01*
X94675750Y-75532000D01*
G75*
G02*
X94457000Y-75313250I0J218750D01*
G01*
X94457000Y-74800750D01*
G75*
G02*
X94675750Y-74582000I218750J0D01*
G01*
X95113250Y-74582000D01*
G75*
G02*
X95332000Y-74800750I0J-218750D01*
G01*
G37*
D10*
X87900000Y-75946000D03*
X89900000Y-76896000D03*
X89900000Y-74996000D03*
D11*
X90921000Y-85950000D03*
X90271000Y-85950000D03*
X89621000Y-85950000D03*
X88971000Y-85950000D03*
X88321000Y-85950000D03*
X87671000Y-85950000D03*
X87021000Y-85950000D03*
X86371000Y-85950000D03*
X86371000Y-91850000D03*
X87021000Y-91850000D03*
X87671000Y-91850000D03*
X88321000Y-91850000D03*
X88971000Y-91850000D03*
X89621000Y-91850000D03*
X90271000Y-91850000D03*
X90921000Y-91850000D03*
G36*
G01*
X95223500Y-80591000D02*
X95568500Y-80591000D01*
G75*
G02*
X95741000Y-80763500I0J-172500D01*
G01*
X95741000Y-81288500D01*
G75*
G02*
X95568500Y-81461000I-172500J0D01*
G01*
X95223500Y-81461000D01*
G75*
G02*
X95051000Y-81288500I0J172500D01*
G01*
X95051000Y-80763500D01*
G75*
G02*
X95223500Y-80591000I172500J0D01*
G01*
G37*
G36*
G01*
X94423500Y-80591000D02*
X94768500Y-80591000D01*
G75*
G02*
X94941000Y-80763500I0J-172500D01*
G01*
X94941000Y-81288500D01*
G75*
G02*
X94768500Y-81461000I-172500J0D01*
G01*
X94423500Y-81461000D01*
G75*
G02*
X94251000Y-81288500I0J172500D01*
G01*
X94251000Y-80763500D01*
G75*
G02*
X94423500Y-80591000I172500J0D01*
G01*
G37*
G36*
G01*
X94239750Y-81726000D02*
X94452250Y-81726000D01*
G75*
G02*
X94546000Y-81819750I0J-93750D01*
G01*
X94546000Y-82007250D01*
G75*
G02*
X94452250Y-82101000I-93750J0D01*
G01*
X94239750Y-82101000D01*
G75*
G02*
X94146000Y-82007250I0J93750D01*
G01*
X94146000Y-81819750D01*
G75*
G02*
X94239750Y-81726000I93750J0D01*
G01*
G37*
G36*
G01*
X94889750Y-81726000D02*
X95102250Y-81726000D01*
G75*
G02*
X95196000Y-81819750I0J-93750D01*
G01*
X95196000Y-82007250D01*
G75*
G02*
X95102250Y-82101000I-93750J0D01*
G01*
X94889750Y-82101000D01*
G75*
G02*
X94796000Y-82007250I0J93750D01*
G01*
X94796000Y-81819750D01*
G75*
G02*
X94889750Y-81726000I93750J0D01*
G01*
G37*
G36*
G01*
X95539750Y-81726000D02*
X95752250Y-81726000D01*
G75*
G02*
X95846000Y-81819750I0J-93750D01*
G01*
X95846000Y-82007250D01*
G75*
G02*
X95752250Y-82101000I-93750J0D01*
G01*
X95539750Y-82101000D01*
G75*
G02*
X95446000Y-82007250I0J93750D01*
G01*
X95446000Y-81819750D01*
G75*
G02*
X95539750Y-81726000I93750J0D01*
G01*
G37*
G36*
G01*
X95539750Y-79951000D02*
X95752250Y-79951000D01*
G75*
G02*
X95846000Y-80044750I0J-93750D01*
G01*
X95846000Y-80232250D01*
G75*
G02*
X95752250Y-80326000I-93750J0D01*
G01*
X95539750Y-80326000D01*
G75*
G02*
X95446000Y-80232250I0J93750D01*
G01*
X95446000Y-80044750D01*
G75*
G02*
X95539750Y-79951000I93750J0D01*
G01*
G37*
G36*
G01*
X94889750Y-79951000D02*
X95102250Y-79951000D01*
G75*
G02*
X95196000Y-80044750I0J-93750D01*
G01*
X95196000Y-80232250D01*
G75*
G02*
X95102250Y-80326000I-93750J0D01*
G01*
X94889750Y-80326000D01*
G75*
G02*
X94796000Y-80232250I0J93750D01*
G01*
X94796000Y-80044750D01*
G75*
G02*
X94889750Y-79951000I93750J0D01*
G01*
G37*
G36*
G01*
X94239750Y-79951000D02*
X94452250Y-79951000D01*
G75*
G02*
X94546000Y-80044750I0J-93750D01*
G01*
X94546000Y-80232250D01*
G75*
G02*
X94452250Y-80326000I-93750J0D01*
G01*
X94239750Y-80326000D01*
G75*
G02*
X94146000Y-80232250I0J93750D01*
G01*
X94146000Y-80044750D01*
G75*
G02*
X94239750Y-79951000I93750J0D01*
G01*
G37*
G36*
G01*
X98042500Y-92728000D02*
X98742500Y-92728000D01*
G75*
G02*
X98805000Y-92790500I0J-62500D01*
G01*
X98805000Y-92915500D01*
G75*
G02*
X98742500Y-92978000I-62500J0D01*
G01*
X98042500Y-92978000D01*
G75*
G02*
X97980000Y-92915500I0J62500D01*
G01*
X97980000Y-92790500D01*
G75*
G02*
X98042500Y-92728000I62500J0D01*
G01*
G37*
G36*
G01*
X98042500Y-93228000D02*
X98742500Y-93228000D01*
G75*
G02*
X98805000Y-93290500I0J-62500D01*
G01*
X98805000Y-93415500D01*
G75*
G02*
X98742500Y-93478000I-62500J0D01*
G01*
X98042500Y-93478000D01*
G75*
G02*
X97980000Y-93415500I0J62500D01*
G01*
X97980000Y-93290500D01*
G75*
G02*
X98042500Y-93228000I62500J0D01*
G01*
G37*
G36*
G01*
X98042500Y-93728000D02*
X98742500Y-93728000D01*
G75*
G02*
X98805000Y-93790500I0J-62500D01*
G01*
X98805000Y-93915500D01*
G75*
G02*
X98742500Y-93978000I-62500J0D01*
G01*
X98042500Y-93978000D01*
G75*
G02*
X97980000Y-93915500I0J62500D01*
G01*
X97980000Y-93790500D01*
G75*
G02*
X98042500Y-93728000I62500J0D01*
G01*
G37*
G36*
G01*
X98042500Y-94228000D02*
X98742500Y-94228000D01*
G75*
G02*
X98805000Y-94290500I0J-62500D01*
G01*
X98805000Y-94415500D01*
G75*
G02*
X98742500Y-94478000I-62500J0D01*
G01*
X98042500Y-94478000D01*
G75*
G02*
X97980000Y-94415500I0J62500D01*
G01*
X97980000Y-94290500D01*
G75*
G02*
X98042500Y-94228000I62500J0D01*
G01*
G37*
G36*
G01*
X98042500Y-94728000D02*
X98742500Y-94728000D01*
G75*
G02*
X98805000Y-94790500I0J-62500D01*
G01*
X98805000Y-94915500D01*
G75*
G02*
X98742500Y-94978000I-62500J0D01*
G01*
X98042500Y-94978000D01*
G75*
G02*
X97980000Y-94915500I0J62500D01*
G01*
X97980000Y-94790500D01*
G75*
G02*
X98042500Y-94728000I62500J0D01*
G01*
G37*
G36*
G01*
X99267500Y-95378000D02*
X99392500Y-95378000D01*
G75*
G02*
X99455000Y-95440500I0J-62500D01*
G01*
X99455000Y-96140500D01*
G75*
G02*
X99392500Y-96203000I-62500J0D01*
G01*
X99267500Y-96203000D01*
G75*
G02*
X99205000Y-96140500I0J62500D01*
G01*
X99205000Y-95440500D01*
G75*
G02*
X99267500Y-95378000I62500J0D01*
G01*
G37*
G36*
G01*
X99767500Y-95378000D02*
X99892500Y-95378000D01*
G75*
G02*
X99955000Y-95440500I0J-62500D01*
G01*
X99955000Y-96140500D01*
G75*
G02*
X99892500Y-96203000I-62500J0D01*
G01*
X99767500Y-96203000D01*
G75*
G02*
X99705000Y-96140500I0J62500D01*
G01*
X99705000Y-95440500D01*
G75*
G02*
X99767500Y-95378000I62500J0D01*
G01*
G37*
G36*
G01*
X100267500Y-95378000D02*
X100392500Y-95378000D01*
G75*
G02*
X100455000Y-95440500I0J-62500D01*
G01*
X100455000Y-96140500D01*
G75*
G02*
X100392500Y-96203000I-62500J0D01*
G01*
X100267500Y-96203000D01*
G75*
G02*
X100205000Y-96140500I0J62500D01*
G01*
X100205000Y-95440500D01*
G75*
G02*
X100267500Y-95378000I62500J0D01*
G01*
G37*
G36*
G01*
X100767500Y-95378000D02*
X100892500Y-95378000D01*
G75*
G02*
X100955000Y-95440500I0J-62500D01*
G01*
X100955000Y-96140500D01*
G75*
G02*
X100892500Y-96203000I-62500J0D01*
G01*
X100767500Y-96203000D01*
G75*
G02*
X100705000Y-96140500I0J62500D01*
G01*
X100705000Y-95440500D01*
G75*
G02*
X100767500Y-95378000I62500J0D01*
G01*
G37*
G36*
G01*
X101267500Y-95378000D02*
X101392500Y-95378000D01*
G75*
G02*
X101455000Y-95440500I0J-62500D01*
G01*
X101455000Y-96140500D01*
G75*
G02*
X101392500Y-96203000I-62500J0D01*
G01*
X101267500Y-96203000D01*
G75*
G02*
X101205000Y-96140500I0J62500D01*
G01*
X101205000Y-95440500D01*
G75*
G02*
X101267500Y-95378000I62500J0D01*
G01*
G37*
G36*
G01*
X101917500Y-94728000D02*
X102617500Y-94728000D01*
G75*
G02*
X102680000Y-94790500I0J-62500D01*
G01*
X102680000Y-94915500D01*
G75*
G02*
X102617500Y-94978000I-62500J0D01*
G01*
X101917500Y-94978000D01*
G75*
G02*
X101855000Y-94915500I0J62500D01*
G01*
X101855000Y-94790500D01*
G75*
G02*
X101917500Y-94728000I62500J0D01*
G01*
G37*
G36*
G01*
X101917500Y-94228000D02*
X102617500Y-94228000D01*
G75*
G02*
X102680000Y-94290500I0J-62500D01*
G01*
X102680000Y-94415500D01*
G75*
G02*
X102617500Y-94478000I-62500J0D01*
G01*
X101917500Y-94478000D01*
G75*
G02*
X101855000Y-94415500I0J62500D01*
G01*
X101855000Y-94290500D01*
G75*
G02*
X101917500Y-94228000I62500J0D01*
G01*
G37*
G36*
G01*
X101917500Y-93728000D02*
X102617500Y-93728000D01*
G75*
G02*
X102680000Y-93790500I0J-62500D01*
G01*
X102680000Y-93915500D01*
G75*
G02*
X102617500Y-93978000I-62500J0D01*
G01*
X101917500Y-93978000D01*
G75*
G02*
X101855000Y-93915500I0J62500D01*
G01*
X101855000Y-93790500D01*
G75*
G02*
X101917500Y-93728000I62500J0D01*
G01*
G37*
G36*
G01*
X101917500Y-93228000D02*
X102617500Y-93228000D01*
G75*
G02*
X102680000Y-93290500I0J-62500D01*
G01*
X102680000Y-93415500D01*
G75*
G02*
X102617500Y-93478000I-62500J0D01*
G01*
X101917500Y-93478000D01*
G75*
G02*
X101855000Y-93415500I0J62500D01*
G01*
X101855000Y-93290500D01*
G75*
G02*
X101917500Y-93228000I62500J0D01*
G01*
G37*
G36*
G01*
X101917500Y-92728000D02*
X102617500Y-92728000D01*
G75*
G02*
X102680000Y-92790500I0J-62500D01*
G01*
X102680000Y-92915500D01*
G75*
G02*
X102617500Y-92978000I-62500J0D01*
G01*
X101917500Y-92978000D01*
G75*
G02*
X101855000Y-92915500I0J62500D01*
G01*
X101855000Y-92790500D01*
G75*
G02*
X101917500Y-92728000I62500J0D01*
G01*
G37*
G36*
G01*
X101267500Y-91503000D02*
X101392500Y-91503000D01*
G75*
G02*
X101455000Y-91565500I0J-62500D01*
G01*
X101455000Y-92265500D01*
G75*
G02*
X101392500Y-92328000I-62500J0D01*
G01*
X101267500Y-92328000D01*
G75*
G02*
X101205000Y-92265500I0J62500D01*
G01*
X101205000Y-91565500D01*
G75*
G02*
X101267500Y-91503000I62500J0D01*
G01*
G37*
G36*
G01*
X100767500Y-91503000D02*
X100892500Y-91503000D01*
G75*
G02*
X100955000Y-91565500I0J-62500D01*
G01*
X100955000Y-92265500D01*
G75*
G02*
X100892500Y-92328000I-62500J0D01*
G01*
X100767500Y-92328000D01*
G75*
G02*
X100705000Y-92265500I0J62500D01*
G01*
X100705000Y-91565500D01*
G75*
G02*
X100767500Y-91503000I62500J0D01*
G01*
G37*
G36*
G01*
X100267500Y-91503000D02*
X100392500Y-91503000D01*
G75*
G02*
X100455000Y-91565500I0J-62500D01*
G01*
X100455000Y-92265500D01*
G75*
G02*
X100392500Y-92328000I-62500J0D01*
G01*
X100267500Y-92328000D01*
G75*
G02*
X100205000Y-92265500I0J62500D01*
G01*
X100205000Y-91565500D01*
G75*
G02*
X100267500Y-91503000I62500J0D01*
G01*
G37*
G36*
G01*
X99767500Y-91503000D02*
X99892500Y-91503000D01*
G75*
G02*
X99955000Y-91565500I0J-62500D01*
G01*
X99955000Y-92265500D01*
G75*
G02*
X99892500Y-92328000I-62500J0D01*
G01*
X99767500Y-92328000D01*
G75*
G02*
X99705000Y-92265500I0J62500D01*
G01*
X99705000Y-91565500D01*
G75*
G02*
X99767500Y-91503000I62500J0D01*
G01*
G37*
G36*
G01*
X99267500Y-91503000D02*
X99392500Y-91503000D01*
G75*
G02*
X99455000Y-91565500I0J-62500D01*
G01*
X99455000Y-92265500D01*
G75*
G02*
X99392500Y-92328000I-62500J0D01*
G01*
X99267500Y-92328000D01*
G75*
G02*
X99205000Y-92265500I0J62500D01*
G01*
X99205000Y-91565500D01*
G75*
G02*
X99267500Y-91503000I62500J0D01*
G01*
G37*
G36*
G01*
X100700000Y-93973000D02*
X101210000Y-93973000D01*
G75*
G02*
X101460000Y-94223000I0J-250000D01*
G01*
X101460000Y-94733000D01*
G75*
G02*
X101210000Y-94983000I-250000J0D01*
G01*
X100700000Y-94983000D01*
G75*
G02*
X100450000Y-94733000I0J250000D01*
G01*
X100450000Y-94223000D01*
G75*
G02*
X100700000Y-93973000I250000J0D01*
G01*
G37*
G36*
G01*
X99450000Y-93973000D02*
X99960000Y-93973000D01*
G75*
G02*
X100210000Y-94223000I0J-250000D01*
G01*
X100210000Y-94733000D01*
G75*
G02*
X99960000Y-94983000I-250000J0D01*
G01*
X99450000Y-94983000D01*
G75*
G02*
X99200000Y-94733000I0J250000D01*
G01*
X99200000Y-94223000D01*
G75*
G02*
X99450000Y-93973000I250000J0D01*
G01*
G37*
G36*
G01*
X100700000Y-92723000D02*
X101210000Y-92723000D01*
G75*
G02*
X101460000Y-92973000I0J-250000D01*
G01*
X101460000Y-93483000D01*
G75*
G02*
X101210000Y-93733000I-250000J0D01*
G01*
X100700000Y-93733000D01*
G75*
G02*
X100450000Y-93483000I0J250000D01*
G01*
X100450000Y-92973000D01*
G75*
G02*
X100700000Y-92723000I250000J0D01*
G01*
G37*
G36*
G01*
X99450000Y-92723000D02*
X99960000Y-92723000D01*
G75*
G02*
X100210000Y-92973000I0J-250000D01*
G01*
X100210000Y-93483000D01*
G75*
G02*
X99960000Y-93733000I-250000J0D01*
G01*
X99450000Y-93733000D01*
G75*
G02*
X99200000Y-93483000I0J250000D01*
G01*
X99200000Y-92973000D01*
G75*
G02*
X99450000Y-92723000I250000J0D01*
G01*
G37*
D12*
X100584000Y-79883000D03*
D13*
X99384000Y-81381600D03*
X99783999Y-81381600D03*
X100184001Y-81381600D03*
X100584000Y-81381600D03*
X100983999Y-81381600D03*
X101384001Y-81381600D03*
X101784000Y-81381600D03*
X101784000Y-78384400D03*
X101384001Y-78384400D03*
X100983999Y-78384400D03*
X100584000Y-78384400D03*
X100184001Y-78384400D03*
X99783999Y-78384400D03*
X99384000Y-78384400D03*
G36*
G01*
X91183750Y-76550000D02*
X91696250Y-76550000D01*
G75*
G02*
X91915000Y-76768750I0J-218750D01*
G01*
X91915000Y-77206250D01*
G75*
G02*
X91696250Y-77425000I-218750J0D01*
G01*
X91183750Y-77425000D01*
G75*
G02*
X90965000Y-77206250I0J218750D01*
G01*
X90965000Y-76768750D01*
G75*
G02*
X91183750Y-76550000I218750J0D01*
G01*
G37*
G36*
G01*
X91183750Y-74975000D02*
X91696250Y-74975000D01*
G75*
G02*
X91915000Y-75193750I0J-218750D01*
G01*
X91915000Y-75631250D01*
G75*
G02*
X91696250Y-75850000I-218750J0D01*
G01*
X91183750Y-75850000D01*
G75*
G02*
X90965000Y-75631250I0J218750D01*
G01*
X90965000Y-75193750D01*
G75*
G02*
X91183750Y-74975000I218750J0D01*
G01*
G37*
G36*
G01*
X103048750Y-80333000D02*
X103961250Y-80333000D01*
G75*
G02*
X104205000Y-80576750I0J-243750D01*
G01*
X104205000Y-81064250D01*
G75*
G02*
X103961250Y-81308000I-243750J0D01*
G01*
X103048750Y-81308000D01*
G75*
G02*
X102805000Y-81064250I0J243750D01*
G01*
X102805000Y-80576750D01*
G75*
G02*
X103048750Y-80333000I243750J0D01*
G01*
G37*
G36*
G01*
X103048750Y-78458000D02*
X103961250Y-78458000D01*
G75*
G02*
X104205000Y-78701750I0J-243750D01*
G01*
X104205000Y-79189250D01*
G75*
G02*
X103961250Y-79433000I-243750J0D01*
G01*
X103048750Y-79433000D01*
G75*
G02*
X102805000Y-79189250I0J243750D01*
G01*
X102805000Y-78701750D01*
G75*
G02*
X103048750Y-78458000I243750J0D01*
G01*
G37*
G36*
G01*
X91945750Y-79623500D02*
X92458250Y-79623500D01*
G75*
G02*
X92677000Y-79842250I0J-218750D01*
G01*
X92677000Y-80279750D01*
G75*
G02*
X92458250Y-80498500I-218750J0D01*
G01*
X91945750Y-80498500D01*
G75*
G02*
X91727000Y-80279750I0J218750D01*
G01*
X91727000Y-79842250D01*
G75*
G02*
X91945750Y-79623500I218750J0D01*
G01*
G37*
G36*
G01*
X91945750Y-78048500D02*
X92458250Y-78048500D01*
G75*
G02*
X92677000Y-78267250I0J-218750D01*
G01*
X92677000Y-78704750D01*
G75*
G02*
X92458250Y-78923500I-218750J0D01*
G01*
X91945750Y-78923500D01*
G75*
G02*
X91727000Y-78704750I0J218750D01*
G01*
X91727000Y-78267250D01*
G75*
G02*
X91945750Y-78048500I218750J0D01*
G01*
G37*
G36*
G01*
X92712250Y-87813500D02*
X92199750Y-87813500D01*
G75*
G02*
X91981000Y-87594750I0J218750D01*
G01*
X91981000Y-87157250D01*
G75*
G02*
X92199750Y-86938500I218750J0D01*
G01*
X92712250Y-86938500D01*
G75*
G02*
X92931000Y-87157250I0J-218750D01*
G01*
X92931000Y-87594750D01*
G75*
G02*
X92712250Y-87813500I-218750J0D01*
G01*
G37*
G36*
G01*
X92712250Y-89388500D02*
X92199750Y-89388500D01*
G75*
G02*
X91981000Y-89169750I0J218750D01*
G01*
X91981000Y-88732250D01*
G75*
G02*
X92199750Y-88513500I218750J0D01*
G01*
X92712250Y-88513500D01*
G75*
G02*
X92931000Y-88732250I0J-218750D01*
G01*
X92931000Y-89169750D01*
G75*
G02*
X92712250Y-89388500I-218750J0D01*
G01*
G37*
G36*
G01*
X100967250Y-83317500D02*
X100454750Y-83317500D01*
G75*
G02*
X100236000Y-83098750I0J218750D01*
G01*
X100236000Y-82661250D01*
G75*
G02*
X100454750Y-82442500I218750J0D01*
G01*
X100967250Y-82442500D01*
G75*
G02*
X101186000Y-82661250I0J-218750D01*
G01*
X101186000Y-83098750D01*
G75*
G02*
X100967250Y-83317500I-218750J0D01*
G01*
G37*
G36*
G01*
X100967250Y-84892500D02*
X100454750Y-84892500D01*
G75*
G02*
X100236000Y-84673750I0J218750D01*
G01*
X100236000Y-84236250D01*
G75*
G02*
X100454750Y-84017500I218750J0D01*
G01*
X100967250Y-84017500D01*
G75*
G02*
X101186000Y-84236250I0J-218750D01*
G01*
X101186000Y-84673750D01*
G75*
G02*
X100967250Y-84892500I-218750J0D01*
G01*
G37*
G36*
G01*
X90164500Y-94871250D02*
X90164500Y-94358750D01*
G75*
G02*
X90383250Y-94140000I218750J0D01*
G01*
X90820750Y-94140000D01*
G75*
G02*
X91039500Y-94358750I0J-218750D01*
G01*
X91039500Y-94871250D01*
G75*
G02*
X90820750Y-95090000I-218750J0D01*
G01*
X90383250Y-95090000D01*
G75*
G02*
X90164500Y-94871250I0J218750D01*
G01*
G37*
G36*
G01*
X88589500Y-94871250D02*
X88589500Y-94358750D01*
G75*
G02*
X88808250Y-94140000I218750J0D01*
G01*
X89245750Y-94140000D01*
G75*
G02*
X89464500Y-94358750I0J-218750D01*
G01*
X89464500Y-94871250D01*
G75*
G02*
X89245750Y-95090000I-218750J0D01*
G01*
X88808250Y-95090000D01*
G75*
G02*
X88589500Y-94871250I0J218750D01*
G01*
G37*
G36*
G01*
X92136250Y-83763500D02*
X92648750Y-83763500D01*
G75*
G02*
X92867500Y-83982250I0J-218750D01*
G01*
X92867500Y-84419750D01*
G75*
G02*
X92648750Y-84638500I-218750J0D01*
G01*
X92136250Y-84638500D01*
G75*
G02*
X91917500Y-84419750I0J218750D01*
G01*
X91917500Y-83982250D01*
G75*
G02*
X92136250Y-83763500I218750J0D01*
G01*
G37*
G36*
G01*
X92136250Y-82188500D02*
X92648750Y-82188500D01*
G75*
G02*
X92867500Y-82407250I0J-218750D01*
G01*
X92867500Y-82844750D01*
G75*
G02*
X92648750Y-83063500I-218750J0D01*
G01*
X92136250Y-83063500D01*
G75*
G02*
X91917500Y-82844750I0J218750D01*
G01*
X91917500Y-82407250D01*
G75*
G02*
X92136250Y-82188500I218750J0D01*
G01*
G37*
G36*
G01*
X90612250Y-83751000D02*
X91124750Y-83751000D01*
G75*
G02*
X91343500Y-83969750I0J-218750D01*
G01*
X91343500Y-84407250D01*
G75*
G02*
X91124750Y-84626000I-218750J0D01*
G01*
X90612250Y-84626000D01*
G75*
G02*
X90393500Y-84407250I0J218750D01*
G01*
X90393500Y-83969750D01*
G75*
G02*
X90612250Y-83751000I218750J0D01*
G01*
G37*
G36*
G01*
X90612250Y-82176000D02*
X91124750Y-82176000D01*
G75*
G02*
X91343500Y-82394750I0J-218750D01*
G01*
X91343500Y-82832250D01*
G75*
G02*
X91124750Y-83051000I-218750J0D01*
G01*
X90612250Y-83051000D01*
G75*
G02*
X90393500Y-82832250I0J218750D01*
G01*
X90393500Y-82394750D01*
G75*
G02*
X90612250Y-82176000I218750J0D01*
G01*
G37*
G36*
G01*
X95628750Y-97022500D02*
X96141250Y-97022500D01*
G75*
G02*
X96360000Y-97241250I0J-218750D01*
G01*
X96360000Y-97678750D01*
G75*
G02*
X96141250Y-97897500I-218750J0D01*
G01*
X95628750Y-97897500D01*
G75*
G02*
X95410000Y-97678750I0J218750D01*
G01*
X95410000Y-97241250D01*
G75*
G02*
X95628750Y-97022500I218750J0D01*
G01*
G37*
G36*
G01*
X95628750Y-95447500D02*
X96141250Y-95447500D01*
G75*
G02*
X96360000Y-95666250I0J-218750D01*
G01*
X96360000Y-96103750D01*
G75*
G02*
X96141250Y-96322500I-218750J0D01*
G01*
X95628750Y-96322500D01*
G75*
G02*
X95410000Y-96103750I0J218750D01*
G01*
X95410000Y-95666250D01*
G75*
G02*
X95628750Y-95447500I218750J0D01*
G01*
G37*
G36*
G01*
X96141250Y-93223500D02*
X95628750Y-93223500D01*
G75*
G02*
X95410000Y-93004750I0J218750D01*
G01*
X95410000Y-92567250D01*
G75*
G02*
X95628750Y-92348500I218750J0D01*
G01*
X96141250Y-92348500D01*
G75*
G02*
X96360000Y-92567250I0J-218750D01*
G01*
X96360000Y-93004750D01*
G75*
G02*
X96141250Y-93223500I-218750J0D01*
G01*
G37*
G36*
G01*
X96141250Y-94798500D02*
X95628750Y-94798500D01*
G75*
G02*
X95410000Y-94579750I0J218750D01*
G01*
X95410000Y-94142250D01*
G75*
G02*
X95628750Y-93923500I218750J0D01*
G01*
X96141250Y-93923500D01*
G75*
G02*
X96360000Y-94142250I0J-218750D01*
G01*
X96360000Y-94579750D01*
G75*
G02*
X96141250Y-94798500I-218750J0D01*
G01*
G37*
G36*
G01*
X98427250Y-76040500D02*
X97914750Y-76040500D01*
G75*
G02*
X97696000Y-75821750I0J218750D01*
G01*
X97696000Y-75384250D01*
G75*
G02*
X97914750Y-75165500I218750J0D01*
G01*
X98427250Y-75165500D01*
G75*
G02*
X98646000Y-75384250I0J-218750D01*
G01*
X98646000Y-75821750D01*
G75*
G02*
X98427250Y-76040500I-218750J0D01*
G01*
G37*
G36*
G01*
X98427250Y-77615500D02*
X97914750Y-77615500D01*
G75*
G02*
X97696000Y-77396750I0J218750D01*
G01*
X97696000Y-76959250D01*
G75*
G02*
X97914750Y-76740500I218750J0D01*
G01*
X98427250Y-76740500D01*
G75*
G02*
X98646000Y-76959250I0J-218750D01*
G01*
X98646000Y-77396750D01*
G75*
G02*
X98427250Y-77615500I-218750J0D01*
G01*
G37*
G36*
G01*
X97411250Y-80193500D02*
X96898750Y-80193500D01*
G75*
G02*
X96680000Y-79974750I0J218750D01*
G01*
X96680000Y-79537250D01*
G75*
G02*
X96898750Y-79318500I218750J0D01*
G01*
X97411250Y-79318500D01*
G75*
G02*
X97630000Y-79537250I0J-218750D01*
G01*
X97630000Y-79974750D01*
G75*
G02*
X97411250Y-80193500I-218750J0D01*
G01*
G37*
G36*
G01*
X97411250Y-81768500D02*
X96898750Y-81768500D01*
G75*
G02*
X96680000Y-81549750I0J218750D01*
G01*
X96680000Y-81112250D01*
G75*
G02*
X96898750Y-80893500I218750J0D01*
G01*
X97411250Y-80893500D01*
G75*
G02*
X97630000Y-81112250I0J-218750D01*
G01*
X97630000Y-81549750D01*
G75*
G02*
X97411250Y-81768500I-218750J0D01*
G01*
G37*
G36*
G01*
X104015250Y-83216000D02*
X103502750Y-83216000D01*
G75*
G02*
X103284000Y-82997250I0J218750D01*
G01*
X103284000Y-82559750D01*
G75*
G02*
X103502750Y-82341000I218750J0D01*
G01*
X104015250Y-82341000D01*
G75*
G02*
X104234000Y-82559750I0J-218750D01*
G01*
X104234000Y-82997250D01*
G75*
G02*
X104015250Y-83216000I-218750J0D01*
G01*
G37*
G36*
G01*
X104015250Y-84791000D02*
X103502750Y-84791000D01*
G75*
G02*
X103284000Y-84572250I0J218750D01*
G01*
X103284000Y-84134750D01*
G75*
G02*
X103502750Y-83916000I218750J0D01*
G01*
X104015250Y-83916000D01*
G75*
G02*
X104234000Y-84134750I0J-218750D01*
G01*
X104234000Y-84572250D01*
G75*
G02*
X104015250Y-84791000I-218750J0D01*
G01*
G37*
D10*
X88678000Y-79502000D03*
X90678000Y-80452000D03*
X90678000Y-78552000D03*
D14*
X93345000Y-92329000D03*
X92395000Y-94329000D03*
X94295000Y-94329000D03*
X93157000Y-97885000D03*
X94107000Y-95885000D03*
X92207000Y-95885000D03*
X98171000Y-83582000D03*
X97221000Y-85582000D03*
X99121000Y-85582000D03*
D15*
X91059000Y-71882000D03*
X92964000Y-71882000D03*
X94869000Y-71882000D03*
G36*
G01*
X100195000Y-72279000D02*
X101735000Y-72279000D01*
G75*
G02*
X102235000Y-72779000I0J-500000D01*
G01*
X102235000Y-73779000D01*
G75*
G02*
X101735000Y-74279000I-500000J0D01*
G01*
X100195000Y-74279000D01*
G75*
G02*
X99695000Y-73779000I0J500000D01*
G01*
X99695000Y-72779000D01*
G75*
G02*
X100195000Y-72279000I500000J0D01*
G01*
G37*
G36*
G01*
X100195000Y-74819000D02*
X101735000Y-74819000D01*
G75*
G02*
X102235000Y-75319000I0J-500000D01*
G01*
X102235000Y-76319000D01*
G75*
G02*
X101735000Y-76819000I-500000J0D01*
G01*
X100195000Y-76819000D01*
G75*
G02*
X99695000Y-76319000I0J500000D01*
G01*
X99695000Y-75319000D01*
G75*
G02*
X100195000Y-74819000I500000J0D01*
G01*
G37*
G36*
G01*
X97308500Y-97529000D02*
X97509500Y-97529000D01*
G75*
G02*
X97589000Y-97608500I0J-79500D01*
G01*
X97589000Y-97767500D01*
G75*
G02*
X97509500Y-97847000I-79500J0D01*
G01*
X97308500Y-97847000D01*
G75*
G02*
X97229000Y-97767500I0J79500D01*
G01*
X97229000Y-97608500D01*
G75*
G02*
X97308500Y-97529000I79500J0D01*
G01*
G37*
G36*
G01*
X97308500Y-96839000D02*
X97509500Y-96839000D01*
G75*
G02*
X97589000Y-96918500I0J-79500D01*
G01*
X97589000Y-97077500D01*
G75*
G02*
X97509500Y-97157000I-79500J0D01*
G01*
X97308500Y-97157000D01*
G75*
G02*
X97229000Y-97077500I0J79500D01*
G01*
X97229000Y-96918500D01*
G75*
G02*
X97308500Y-96839000I79500J0D01*
G01*
G37*
D16*
X100646500Y-87503000D03*
X97346500Y-87503000D03*
G36*
G01*
X88907000Y-83568250D02*
X88907000Y-83055750D01*
G75*
G02*
X89125750Y-82837000I218750J0D01*
G01*
X89563250Y-82837000D01*
G75*
G02*
X89782000Y-83055750I0J-218750D01*
G01*
X89782000Y-83568250D01*
G75*
G02*
X89563250Y-83787000I-218750J0D01*
G01*
X89125750Y-83787000D01*
G75*
G02*
X88907000Y-83568250I0J218750D01*
G01*
G37*
G36*
G01*
X87332000Y-83568250D02*
X87332000Y-83055750D01*
G75*
G02*
X87550750Y-82837000I218750J0D01*
G01*
X87988250Y-82837000D01*
G75*
G02*
X88207000Y-83055750I0J-218750D01*
G01*
X88207000Y-83568250D01*
G75*
G02*
X87988250Y-83787000I-218750J0D01*
G01*
X87550750Y-83787000D01*
G75*
G02*
X87332000Y-83568250I0J218750D01*
G01*
G37*
G36*
G01*
X96077750Y-77094500D02*
X95565250Y-77094500D01*
G75*
G02*
X95346500Y-76875750I0J218750D01*
G01*
X95346500Y-76438250D01*
G75*
G02*
X95565250Y-76219500I218750J0D01*
G01*
X96077750Y-76219500D01*
G75*
G02*
X96296500Y-76438250I0J-218750D01*
G01*
X96296500Y-76875750D01*
G75*
G02*
X96077750Y-77094500I-218750J0D01*
G01*
G37*
G36*
G01*
X96077750Y-78669500D02*
X95565250Y-78669500D01*
G75*
G02*
X95346500Y-78450750I0J218750D01*
G01*
X95346500Y-78013250D01*
G75*
G02*
X95565250Y-77794500I218750J0D01*
G01*
X96077750Y-77794500D01*
G75*
G02*
X96296500Y-78013250I0J-218750D01*
G01*
X96296500Y-78450750D01*
G75*
G02*
X96077750Y-78669500I-218750J0D01*
G01*
G37*
G36*
G01*
X101978750Y-84271500D02*
X102491250Y-84271500D01*
G75*
G02*
X102710000Y-84490250I0J-218750D01*
G01*
X102710000Y-84927750D01*
G75*
G02*
X102491250Y-85146500I-218750J0D01*
G01*
X101978750Y-85146500D01*
G75*
G02*
X101760000Y-84927750I0J218750D01*
G01*
X101760000Y-84490250D01*
G75*
G02*
X101978750Y-84271500I218750J0D01*
G01*
G37*
G36*
G01*
X101978750Y-82696500D02*
X102491250Y-82696500D01*
G75*
G02*
X102710000Y-82915250I0J-218750D01*
G01*
X102710000Y-83352750D01*
G75*
G02*
X102491250Y-83571500I-218750J0D01*
G01*
X101978750Y-83571500D01*
G75*
G02*
X101760000Y-83352750I0J218750D01*
G01*
X101760000Y-82915250D01*
G75*
G02*
X101978750Y-82696500I218750J0D01*
G01*
G37*
G36*
G01*
X94490250Y-77094500D02*
X93977750Y-77094500D01*
G75*
G02*
X93759000Y-76875750I0J218750D01*
G01*
X93759000Y-76438250D01*
G75*
G02*
X93977750Y-76219500I218750J0D01*
G01*
X94490250Y-76219500D01*
G75*
G02*
X94709000Y-76438250I0J-218750D01*
G01*
X94709000Y-76875750D01*
G75*
G02*
X94490250Y-77094500I-218750J0D01*
G01*
G37*
G36*
G01*
X94490250Y-78669500D02*
X93977750Y-78669500D01*
G75*
G02*
X93759000Y-78450750I0J218750D01*
G01*
X93759000Y-78013250D01*
G75*
G02*
X93977750Y-77794500I218750J0D01*
G01*
X94490250Y-77794500D01*
G75*
G02*
X94709000Y-78013250I0J-218750D01*
G01*
X94709000Y-78450750D01*
G75*
G02*
X94490250Y-78669500I-218750J0D01*
G01*
G37*
G36*
G01*
X94417500Y-82928750D02*
X94417500Y-83441250D01*
G75*
G02*
X94198750Y-83660000I-218750J0D01*
G01*
X93761250Y-83660000D01*
G75*
G02*
X93542500Y-83441250I0J218750D01*
G01*
X93542500Y-82928750D01*
G75*
G02*
X93761250Y-82710000I218750J0D01*
G01*
X94198750Y-82710000D01*
G75*
G02*
X94417500Y-82928750I0J-218750D01*
G01*
G37*
G36*
G01*
X95992500Y-82928750D02*
X95992500Y-83441250D01*
G75*
G02*
X95773750Y-83660000I-218750J0D01*
G01*
X95336250Y-83660000D01*
G75*
G02*
X95117500Y-83441250I0J218750D01*
G01*
X95117500Y-82928750D01*
G75*
G02*
X95336250Y-82710000I218750J0D01*
G01*
X95773750Y-82710000D01*
G75*
G02*
X95992500Y-82928750I0J-218750D01*
G01*
G37*
G36*
G01*
X99954500Y-97152750D02*
X99954500Y-97665250D01*
G75*
G02*
X99735750Y-97884000I-218750J0D01*
G01*
X99298250Y-97884000D01*
G75*
G02*
X99079500Y-97665250I0J218750D01*
G01*
X99079500Y-97152750D01*
G75*
G02*
X99298250Y-96934000I218750J0D01*
G01*
X99735750Y-96934000D01*
G75*
G02*
X99954500Y-97152750I0J-218750D01*
G01*
G37*
G36*
G01*
X101529500Y-97152750D02*
X101529500Y-97665250D01*
G75*
G02*
X101310750Y-97884000I-218750J0D01*
G01*
X100873250Y-97884000D01*
G75*
G02*
X100654500Y-97665250I0J218750D01*
G01*
X100654500Y-97152750D01*
G75*
G02*
X100873250Y-96934000I218750J0D01*
G01*
X101310750Y-96934000D01*
G75*
G02*
X101529500Y-97152750I0J-218750D01*
G01*
G37*
G36*
G01*
X94417500Y-84452750D02*
X94417500Y-84965250D01*
G75*
G02*
X94198750Y-85184000I-218750J0D01*
G01*
X93761250Y-85184000D01*
G75*
G02*
X93542500Y-84965250I0J218750D01*
G01*
X93542500Y-84452750D01*
G75*
G02*
X93761250Y-84234000I218750J0D01*
G01*
X94198750Y-84234000D01*
G75*
G02*
X94417500Y-84452750I0J-218750D01*
G01*
G37*
G36*
G01*
X95992500Y-84452750D02*
X95992500Y-84965250D01*
G75*
G02*
X95773750Y-85184000I-218750J0D01*
G01*
X95336250Y-85184000D01*
G75*
G02*
X95117500Y-84965250I0J218750D01*
G01*
X95117500Y-84452750D01*
G75*
G02*
X95336250Y-84234000I218750J0D01*
G01*
X95773750Y-84234000D01*
G75*
G02*
X95992500Y-84452750I0J-218750D01*
G01*
G37*
G36*
G01*
X98427250Y-72992500D02*
X97914750Y-72992500D01*
G75*
G02*
X97696000Y-72773750I0J218750D01*
G01*
X97696000Y-72336250D01*
G75*
G02*
X97914750Y-72117500I218750J0D01*
G01*
X98427250Y-72117500D01*
G75*
G02*
X98646000Y-72336250I0J-218750D01*
G01*
X98646000Y-72773750D01*
G75*
G02*
X98427250Y-72992500I-218750J0D01*
G01*
G37*
G36*
G01*
X98427250Y-74567500D02*
X97914750Y-74567500D01*
G75*
G02*
X97696000Y-74348750I0J218750D01*
G01*
X97696000Y-73911250D01*
G75*
G02*
X97914750Y-73692500I218750J0D01*
G01*
X98427250Y-73692500D01*
G75*
G02*
X98646000Y-73911250I0J-218750D01*
G01*
X98646000Y-74348750D01*
G75*
G02*
X98427250Y-74567500I-218750J0D01*
G01*
G37*
D17*
X83388200Y-91497800D03*
X83387000Y-90703000D03*
X83387000Y-89903000D03*
X83387000Y-89103000D03*
X83387000Y-87503000D03*
X83387000Y-86703000D03*
X83387000Y-85903000D03*
X83387000Y-85103000D03*
X83387000Y-84303000D03*
X83387000Y-83503000D03*
X83387000Y-82703000D03*
X83387000Y-81903000D03*
X83387000Y-81103000D03*
X83387000Y-80303000D03*
X83387000Y-79503000D03*
X83387000Y-78703000D03*
X83387000Y-77903000D03*
X83387000Y-77103000D03*
M02*
