M48
; DRILL file {KiCad (5.1.5)-3} date 8/8/2020 2:50:33 PM
; FORMAT={-:-/ absolute / inch / decimal}
; #@! TF.CreationDate,2020-08-08T14:50:33-04:00
; #@! TF.GenerationSoftware,Kicad,Pcbnew,(5.1.5)-3
FMAT,2
INCH
T1C0.0079
T2C0.0197
%
G90
G05
T1
X3.2175Y-2.8775
X3.2175Y-2.9275
X3.225Y-3.72
X3.225Y-3.795
X3.225Y-3.855
X3.245Y-2.8925
X3.245Y-2.9425
X3.2725Y-2.9275
X3.275Y-2.8775
X3.2775Y-3.6575
X3.28Y-3.865
X3.2925Y-3.8175
X3.2947Y-3.48
X3.305Y-3.065
X3.3075Y-3.65
X3.325Y-3.13
X3.325Y-3.16
X3.3331Y-3.3503
X3.34Y-3.475
X3.3525Y-3.4975
X3.354Y-3.5222
X3.3548Y-3.5686
X3.375Y-3.8625
X3.3756Y-3.5199
X3.3823Y-2.899
X3.3825Y-2.9423
X3.3825Y-2.965
X3.3827Y-2.9206
X3.385Y-2.8775
X3.3902Y-3.5017
X3.395Y-3.18
X3.41Y-2.96
X3.42Y-3.065
X3.425Y-2.82
X3.425Y-3.235
X3.435Y-3.705
X3.44Y-3.325
X3.445Y-3.745
X3.45Y-3.66
X3.46Y-3.095
X3.4638Y-3.5203
X3.4638Y-3.4257
X3.475Y-3.32
X3.48Y-3.065
X3.485Y-2.82
X3.49Y-2.96
X3.49Y-3.23
X3.4975Y-3.7975
X3.4994Y-3.496
X3.5025Y-3.52
X3.505Y-3.4127
X3.505Y-3.7275
X3.52Y-3.245
X3.5225Y-3.32
X3.525Y-3.065
X3.525Y-3.21
X3.5275Y-3.4127
X3.5295Y-3.4966
X3.532Y-3.5212
X3.535Y-2.84
X3.535Y-3.18
X3.54Y-3.02
X3.565Y-3.13
X3.567Y-3.725
X3.58Y-3.66
X3.585Y-2.85
X3.6Y-3.03
X3.6Y-3.13
X3.6151Y-3.3367
X3.64Y-3.5025
X3.6425Y-3.4302
X3.6425Y-3.8055
X3.66Y-2.85
X3.67Y-3.06
X3.67Y-3.125
X3.67Y-3.1775
X3.6702Y-3.485
X3.675Y-2.925
X3.69Y-3.82
X3.6975Y-3.3675
X3.7Y-3.2775
X3.71Y-3.018
X3.7125Y-3.08
X3.715Y-3.125
X3.7358Y-3.8703
X3.74Y-2.955
X3.745Y-3.125
X3.765Y-3.425
X3.77Y-3.125
X3.7725Y-3.018
X3.7725Y-3.0825
X3.805Y-3.695
X3.8119Y-3.7168
X3.812Y-2.8771
X3.8235Y-2.8955
X3.825Y-3.2025
X3.8275Y-2.925
X3.835Y-3.005
X3.835Y-3.735
X3.8381Y-3.8703
X3.84Y-3.67
X3.84Y-3.695
X3.8432Y-3.6423
X3.847Y-3.3209
X3.8625Y-3.345
X3.8627Y-3.2385
X3.865Y-3.26
X3.875Y-3.135
X3.885Y-2.8775
X3.8874Y-3.5934
X3.8875Y-3.6325
X3.915Y-2.8925
X3.92Y-3.54
X3.9326Y-3.8703
X3.94Y-2.8775
X3.94Y-3.235
X3.95Y-3.685
X3.95Y-3.7053
X3.975Y-2.885
X3.9828Y-3.89
X3.99Y-3.34
X3.995Y-3.04
X3.9979Y-3.2473
X4.0Y-2.86
X4.0Y-2.91
X4.0Y-3.535
X4.0013Y-3.1556
X4.0054Y-3.5823
X4.01Y-3.385
X4.01Y-3.405
X4.01Y-3.425
X4.0167Y-3.04
X4.025Y-3.332
X4.03Y-3.15
X4.0325Y-3.1825
X4.035Y-3.8703
X4.05Y-3.3875
X4.05Y-3.575
X4.065Y-3.7575
X4.0654Y-3.69
X4.0713Y-3.6637
X4.075Y-3.145
X4.09Y-3.23
X4.0925Y-2.9075
X3.7183Y-3.19
X3.7617Y-3.19
T2
X4.085Y-2.99
X4.085Y-3.0294
T0
M30
