G04 #@! TF.GenerationSoftware,KiCad,Pcbnew,(5.1.5)-3*
G04 #@! TF.CreationDate,2020-08-08T14:50:29-04:00*
G04 #@! TF.ProjectId,SmartWatch V5,536d6172-7457-4617-9463-682056352e6b,rev?*
G04 #@! TF.SameCoordinates,Original*
G04 #@! TF.FileFunction,Copper,L2,Inr*
G04 #@! TF.FilePolarity,Positive*
%FSLAX46Y46*%
G04 Gerber Fmt 4.6, Leading zero omitted, Abs format (unit mm)*
G04 Created by KiCad (PCBNEW (5.1.5)-3) date 2020-08-08 14:50:29*
%MOMM*%
%LPD*%
G04 APERTURE LIST*
%ADD10C,0.500000*%
%ADD11O,0.850000X0.850000*%
%ADD12R,0.850000X0.850000*%
%ADD13C,0.450000*%
%ADD14C,0.254000*%
G04 APERTURE END LIST*
D10*
X95546000Y-81026000D03*
X94446000Y-81026000D03*
D11*
X103759000Y-76946000D03*
D12*
X103759000Y-75946000D03*
D13*
X88963500Y-89408000D03*
X86111990Y-88943747D03*
X88884920Y-88799074D03*
X85740682Y-89404615D03*
X85192475Y-89463992D03*
X89713511Y-89439603D03*
X85153504Y-88836500D03*
X89648705Y-88812682D03*
X86868000Y-77851000D03*
X83947000Y-77851000D03*
X92964000Y-72390000D03*
X88519000Y-71628000D03*
X81915000Y-97917000D03*
X82423000Y-74739500D03*
X83121500Y-74358500D03*
X81724500Y-74358500D03*
X94297500Y-78232000D03*
X95821500Y-78295500D03*
X90932000Y-92964000D03*
X89027000Y-94678500D03*
X92456000Y-88963500D03*
X97155000Y-81343500D03*
X93218000Y-77724000D03*
X93218000Y-79375000D03*
X93218000Y-80708500D03*
X94361000Y-79375000D03*
X95758000Y-79375000D03*
X101164002Y-98806000D03*
X84661991Y-85097798D03*
X94996000Y-75057000D03*
X101346000Y-84836000D03*
X102870000Y-90805000D03*
X84455000Y-79502000D03*
X84455000Y-80264000D03*
X87503000Y-95123000D03*
X85915500Y-75311000D03*
X85915324Y-74734157D03*
X97218500Y-74295000D03*
X98425000Y-79629000D03*
X85921280Y-74184177D03*
X97712834Y-84351765D03*
X85910780Y-73634265D03*
X97117305Y-73544989D03*
X98107500Y-84963000D03*
X85979000Y-73088500D03*
X96825658Y-73078668D03*
X91059000Y-72390000D03*
X95631000Y-86995000D03*
X86995000Y-71628000D03*
X89535000Y-81534000D03*
X91440000Y-79502000D03*
X81915000Y-96393000D03*
X87884000Y-78613000D03*
X90551000Y-79502000D03*
X103949500Y-73850500D03*
X101600000Y-73914000D03*
X101600000Y-72644000D03*
X99441000Y-73469500D03*
X100076000Y-73088500D03*
X98679000Y-73088500D03*
X82423000Y-73469500D03*
X83185000Y-73088500D03*
X81724500Y-73088500D03*
X89408000Y-82423000D03*
X88836500Y-96456500D03*
X103505000Y-79883000D03*
X87630000Y-92964000D03*
X92519500Y-96660002D03*
X81915000Y-94488000D03*
X93980000Y-83248500D03*
X93916500Y-85534500D03*
X94234000Y-76657000D03*
X95821500Y-76657000D03*
X102235000Y-84633000D03*
X102870000Y-86042500D03*
X102425500Y-80835500D03*
X103251000Y-95440500D03*
X102489000Y-98306000D03*
X99889000Y-98306000D03*
X97489000Y-98306000D03*
X94889000Y-98306000D03*
X98742500Y-92265500D03*
X89027000Y-86683490D03*
X89598500Y-86683490D03*
X100965000Y-73279000D03*
X101632009Y-80151317D03*
X97616445Y-92514409D03*
X91440000Y-76962000D03*
X100330000Y-94115000D03*
X100330000Y-93599000D03*
X89916000Y-76708000D03*
X85725000Y-98107500D03*
X87249000Y-94107000D03*
X89789000Y-72136000D03*
X85212001Y-90642582D03*
X89789000Y-80772000D03*
X88646000Y-82042000D03*
X102362000Y-80010000D03*
X101547930Y-82482290D03*
X101854000Y-85979000D03*
X101854000Y-86487000D03*
X101854000Y-86995000D03*
X97409000Y-94869000D03*
X99568000Y-89916000D03*
X101600000Y-89789000D03*
X93726000Y-97028000D03*
X97536000Y-93853000D03*
X96822430Y-94407291D03*
X90602000Y-94615000D03*
X88646000Y-75184000D03*
X97536000Y-93218000D03*
X96647000Y-93853000D03*
X83629500Y-96964500D03*
X83312000Y-98171000D03*
X86995000Y-82169000D03*
X87980404Y-89414602D03*
X89535000Y-77851000D03*
X88392000Y-77851000D03*
X83685968Y-88392000D03*
X84836000Y-88265000D03*
X103261823Y-93726000D03*
X103411776Y-93058603D03*
X100076000Y-82169000D03*
X103886000Y-82042000D03*
X95123000Y-79375000D03*
X102023013Y-77216000D03*
X101737377Y-90989510D03*
X98740718Y-91272862D03*
X98111796Y-82257183D03*
X88265000Y-84328000D03*
X89471500Y-84328000D03*
X98171000Y-82804000D03*
X87376000Y-84455000D03*
X91823816Y-84752970D03*
X86233000Y-80772000D03*
X86614000Y-75184000D03*
X93345000Y-74295000D03*
X101473000Y-77216000D03*
X97409000Y-76327000D03*
X93223990Y-88519000D03*
X87980885Y-87013721D03*
X92519500Y-87127990D03*
X84010500Y-92710000D03*
X83248500Y-92900500D03*
D14*
G36*
X86493000Y-71677443D02*
G01*
X86512292Y-71774428D01*
X86550133Y-71865786D01*
X86605071Y-71948006D01*
X86674994Y-72017929D01*
X86757214Y-72072867D01*
X86848572Y-72110708D01*
X86945557Y-72130000D01*
X87044443Y-72130000D01*
X87141428Y-72110708D01*
X87199734Y-72086557D01*
X89287000Y-72086557D01*
X89287000Y-72185443D01*
X89306292Y-72282428D01*
X89344133Y-72373786D01*
X89399071Y-72456006D01*
X89468994Y-72525929D01*
X89551214Y-72580867D01*
X89642572Y-72618708D01*
X89739557Y-72638000D01*
X89838443Y-72638000D01*
X89935428Y-72618708D01*
X90026786Y-72580867D01*
X90109006Y-72525929D01*
X90178929Y-72456006D01*
X90233867Y-72373786D01*
X90247630Y-72340557D01*
X90557000Y-72340557D01*
X90557000Y-72439443D01*
X90576292Y-72536428D01*
X90614133Y-72627786D01*
X90669071Y-72710006D01*
X90738994Y-72779929D01*
X90821214Y-72834867D01*
X90912572Y-72872708D01*
X91009557Y-72892000D01*
X91108443Y-72892000D01*
X91205428Y-72872708D01*
X91296786Y-72834867D01*
X91379006Y-72779929D01*
X91448929Y-72710006D01*
X91503867Y-72627786D01*
X91541708Y-72536428D01*
X91561000Y-72439443D01*
X91561000Y-72340557D01*
X91541708Y-72243572D01*
X91503867Y-72152214D01*
X91448929Y-72069994D01*
X91379006Y-72000071D01*
X91296786Y-71945133D01*
X91205428Y-71907292D01*
X91108443Y-71888000D01*
X91009557Y-71888000D01*
X90912572Y-71907292D01*
X90821214Y-71945133D01*
X90738994Y-72000071D01*
X90669071Y-72069994D01*
X90614133Y-72152214D01*
X90576292Y-72243572D01*
X90557000Y-72340557D01*
X90247630Y-72340557D01*
X90271708Y-72282428D01*
X90291000Y-72185443D01*
X90291000Y-72086557D01*
X90271708Y-71989572D01*
X90233867Y-71898214D01*
X90178929Y-71815994D01*
X90109006Y-71746071D01*
X90026786Y-71691133D01*
X89935428Y-71653292D01*
X89838443Y-71634000D01*
X89739557Y-71634000D01*
X89642572Y-71653292D01*
X89551214Y-71691133D01*
X89468994Y-71746071D01*
X89399071Y-71815994D01*
X89344133Y-71898214D01*
X89306292Y-71989572D01*
X89287000Y-72086557D01*
X87199734Y-72086557D01*
X87232786Y-72072867D01*
X87315006Y-72017929D01*
X87384929Y-71948006D01*
X87439867Y-71865786D01*
X87477708Y-71774428D01*
X87497000Y-71677443D01*
X87497000Y-71628000D01*
X104267000Y-71628000D01*
X104267000Y-73458897D01*
X104187286Y-73405633D01*
X104095928Y-73367792D01*
X103998943Y-73348500D01*
X103900057Y-73348500D01*
X103803072Y-73367792D01*
X103711714Y-73405633D01*
X103629494Y-73460571D01*
X103559571Y-73530494D01*
X103504633Y-73612714D01*
X103466792Y-73704072D01*
X103447500Y-73801057D01*
X103447500Y-73899943D01*
X103466792Y-73996928D01*
X103504633Y-74088286D01*
X103559571Y-74170506D01*
X103629494Y-74240429D01*
X103711714Y-74295367D01*
X103803072Y-74333208D01*
X103900057Y-74352500D01*
X103998943Y-74352500D01*
X104095928Y-74333208D01*
X104187286Y-74295367D01*
X104267000Y-74242103D01*
X104267000Y-75256714D01*
X104238301Y-75248008D01*
X104184000Y-75242660D01*
X103334000Y-75242660D01*
X103279699Y-75248008D01*
X103227484Y-75263847D01*
X103179363Y-75289569D01*
X103137184Y-75324184D01*
X103102569Y-75366363D01*
X103076847Y-75414484D01*
X103061008Y-75466699D01*
X103055660Y-75521000D01*
X103055660Y-76371000D01*
X103061008Y-76425301D01*
X103076847Y-76477516D01*
X103102569Y-76525637D01*
X103137184Y-76567816D01*
X103156703Y-76583834D01*
X103136895Y-76613478D01*
X103083977Y-76741234D01*
X103057000Y-76876859D01*
X103057000Y-77015141D01*
X103083977Y-77150766D01*
X103136895Y-77278522D01*
X103213721Y-77393499D01*
X103311501Y-77491279D01*
X103426478Y-77568105D01*
X103554234Y-77621023D01*
X103689859Y-77648000D01*
X103828141Y-77648000D01*
X103963766Y-77621023D01*
X104091522Y-77568105D01*
X104206499Y-77491279D01*
X104267000Y-77430778D01*
X104267000Y-81713065D01*
X104206006Y-81652071D01*
X104123786Y-81597133D01*
X104032428Y-81559292D01*
X103935443Y-81540000D01*
X103836557Y-81540000D01*
X103739572Y-81559292D01*
X103648214Y-81597133D01*
X103565994Y-81652071D01*
X103496071Y-81721994D01*
X103441133Y-81804214D01*
X103403292Y-81895572D01*
X103384000Y-81992557D01*
X103384000Y-82091443D01*
X103403292Y-82188428D01*
X103441133Y-82279786D01*
X103496071Y-82362006D01*
X103565994Y-82431929D01*
X103648214Y-82486867D01*
X103739572Y-82524708D01*
X103836557Y-82544000D01*
X103935443Y-82544000D01*
X104032428Y-82524708D01*
X104123786Y-82486867D01*
X104206006Y-82431929D01*
X104267000Y-82370935D01*
X104267000Y-99441000D01*
X81280000Y-99441000D01*
X81280000Y-98121557D01*
X82810000Y-98121557D01*
X82810000Y-98220443D01*
X82829292Y-98317428D01*
X82867133Y-98408786D01*
X82922071Y-98491006D01*
X82991994Y-98560929D01*
X83074214Y-98615867D01*
X83165572Y-98653708D01*
X83262557Y-98673000D01*
X83361443Y-98673000D01*
X83458428Y-98653708D01*
X83549786Y-98615867D01*
X83632006Y-98560929D01*
X83701929Y-98491006D01*
X83756867Y-98408786D01*
X83794708Y-98317428D01*
X83814000Y-98220443D01*
X83814000Y-98121557D01*
X83801369Y-98058057D01*
X85223000Y-98058057D01*
X85223000Y-98156943D01*
X85242292Y-98253928D01*
X85280133Y-98345286D01*
X85335071Y-98427506D01*
X85404994Y-98497429D01*
X85487214Y-98552367D01*
X85578572Y-98590208D01*
X85675557Y-98609500D01*
X85774443Y-98609500D01*
X85871428Y-98590208D01*
X85962786Y-98552367D01*
X86045006Y-98497429D01*
X86114929Y-98427506D01*
X86169867Y-98345286D01*
X86206619Y-98256557D01*
X94387000Y-98256557D01*
X94387000Y-98355443D01*
X94406292Y-98452428D01*
X94444133Y-98543786D01*
X94499071Y-98626006D01*
X94568994Y-98695929D01*
X94651214Y-98750867D01*
X94742572Y-98788708D01*
X94839557Y-98808000D01*
X94938443Y-98808000D01*
X95035428Y-98788708D01*
X95126786Y-98750867D01*
X95209006Y-98695929D01*
X95278929Y-98626006D01*
X95333867Y-98543786D01*
X95371708Y-98452428D01*
X95391000Y-98355443D01*
X95391000Y-98256557D01*
X96987000Y-98256557D01*
X96987000Y-98355443D01*
X97006292Y-98452428D01*
X97044133Y-98543786D01*
X97099071Y-98626006D01*
X97168994Y-98695929D01*
X97251214Y-98750867D01*
X97342572Y-98788708D01*
X97439557Y-98808000D01*
X97538443Y-98808000D01*
X97635428Y-98788708D01*
X97726786Y-98750867D01*
X97809006Y-98695929D01*
X97878929Y-98626006D01*
X97933867Y-98543786D01*
X97971708Y-98452428D01*
X97991000Y-98355443D01*
X97991000Y-98256557D01*
X99387000Y-98256557D01*
X99387000Y-98355443D01*
X99406292Y-98452428D01*
X99444133Y-98543786D01*
X99499071Y-98626006D01*
X99568994Y-98695929D01*
X99651214Y-98750867D01*
X99742572Y-98788708D01*
X99839557Y-98808000D01*
X99938443Y-98808000D01*
X100035428Y-98788708D01*
X100126786Y-98750867D01*
X100209006Y-98695929D01*
X100278929Y-98626006D01*
X100333867Y-98543786D01*
X100371708Y-98452428D01*
X100391000Y-98355443D01*
X100391000Y-98256557D01*
X101987000Y-98256557D01*
X101987000Y-98355443D01*
X102006292Y-98452428D01*
X102044133Y-98543786D01*
X102099071Y-98626006D01*
X102168994Y-98695929D01*
X102251214Y-98750867D01*
X102342572Y-98788708D01*
X102439557Y-98808000D01*
X102538443Y-98808000D01*
X102635428Y-98788708D01*
X102726786Y-98750867D01*
X102809006Y-98695929D01*
X102878929Y-98626006D01*
X102933867Y-98543786D01*
X102971708Y-98452428D01*
X102991000Y-98355443D01*
X102991000Y-98256557D01*
X102971708Y-98159572D01*
X102933867Y-98068214D01*
X102878929Y-97985994D01*
X102809006Y-97916071D01*
X102726786Y-97861133D01*
X102635428Y-97823292D01*
X102538443Y-97804000D01*
X102439557Y-97804000D01*
X102342572Y-97823292D01*
X102251214Y-97861133D01*
X102168994Y-97916071D01*
X102099071Y-97985994D01*
X102044133Y-98068214D01*
X102006292Y-98159572D01*
X101987000Y-98256557D01*
X100391000Y-98256557D01*
X100371708Y-98159572D01*
X100333867Y-98068214D01*
X100278929Y-97985994D01*
X100209006Y-97916071D01*
X100126786Y-97861133D01*
X100035428Y-97823292D01*
X99938443Y-97804000D01*
X99839557Y-97804000D01*
X99742572Y-97823292D01*
X99651214Y-97861133D01*
X99568994Y-97916071D01*
X99499071Y-97985994D01*
X99444133Y-98068214D01*
X99406292Y-98159572D01*
X99387000Y-98256557D01*
X97991000Y-98256557D01*
X97971708Y-98159572D01*
X97933867Y-98068214D01*
X97878929Y-97985994D01*
X97809006Y-97916071D01*
X97726786Y-97861133D01*
X97635428Y-97823292D01*
X97538443Y-97804000D01*
X97439557Y-97804000D01*
X97342572Y-97823292D01*
X97251214Y-97861133D01*
X97168994Y-97916071D01*
X97099071Y-97985994D01*
X97044133Y-98068214D01*
X97006292Y-98159572D01*
X96987000Y-98256557D01*
X95391000Y-98256557D01*
X95371708Y-98159572D01*
X95333867Y-98068214D01*
X95278929Y-97985994D01*
X95209006Y-97916071D01*
X95126786Y-97861133D01*
X95035428Y-97823292D01*
X94938443Y-97804000D01*
X94839557Y-97804000D01*
X94742572Y-97823292D01*
X94651214Y-97861133D01*
X94568994Y-97916071D01*
X94499071Y-97985994D01*
X94444133Y-98068214D01*
X94406292Y-98159572D01*
X94387000Y-98256557D01*
X86206619Y-98256557D01*
X86207708Y-98253928D01*
X86227000Y-98156943D01*
X86227000Y-98058057D01*
X86207708Y-97961072D01*
X86169867Y-97869714D01*
X86114929Y-97787494D01*
X86045006Y-97717571D01*
X85962786Y-97662633D01*
X85871428Y-97624792D01*
X85774443Y-97605500D01*
X85675557Y-97605500D01*
X85578572Y-97624792D01*
X85487214Y-97662633D01*
X85404994Y-97717571D01*
X85335071Y-97787494D01*
X85280133Y-97869714D01*
X85242292Y-97961072D01*
X85223000Y-98058057D01*
X83801369Y-98058057D01*
X83794708Y-98024572D01*
X83756867Y-97933214D01*
X83701929Y-97850994D01*
X83632006Y-97781071D01*
X83549786Y-97726133D01*
X83458428Y-97688292D01*
X83361443Y-97669000D01*
X83262557Y-97669000D01*
X83165572Y-97688292D01*
X83074214Y-97726133D01*
X82991994Y-97781071D01*
X82922071Y-97850994D01*
X82867133Y-97933214D01*
X82829292Y-98024572D01*
X82810000Y-98121557D01*
X81280000Y-98121557D01*
X81280000Y-96915057D01*
X83127500Y-96915057D01*
X83127500Y-97013943D01*
X83146792Y-97110928D01*
X83184633Y-97202286D01*
X83239571Y-97284506D01*
X83309494Y-97354429D01*
X83391714Y-97409367D01*
X83483072Y-97447208D01*
X83580057Y-97466500D01*
X83678943Y-97466500D01*
X83775928Y-97447208D01*
X83867286Y-97409367D01*
X83949506Y-97354429D01*
X84019429Y-97284506D01*
X84074367Y-97202286D01*
X84112208Y-97110928D01*
X84131500Y-97013943D01*
X84131500Y-96915057D01*
X84112208Y-96818072D01*
X84074367Y-96726714D01*
X84019429Y-96644494D01*
X83949506Y-96574571D01*
X83867286Y-96519633D01*
X83775928Y-96481792D01*
X83678943Y-96462500D01*
X83580057Y-96462500D01*
X83483072Y-96481792D01*
X83391714Y-96519633D01*
X83309494Y-96574571D01*
X83239571Y-96644494D01*
X83184633Y-96726714D01*
X83146792Y-96818072D01*
X83127500Y-96915057D01*
X81280000Y-96915057D01*
X81280000Y-96343557D01*
X81413000Y-96343557D01*
X81413000Y-96442443D01*
X81432292Y-96539428D01*
X81470133Y-96630786D01*
X81525071Y-96713006D01*
X81594994Y-96782929D01*
X81677214Y-96837867D01*
X81768572Y-96875708D01*
X81865557Y-96895000D01*
X81964443Y-96895000D01*
X82061428Y-96875708D01*
X82152786Y-96837867D01*
X82235006Y-96782929D01*
X82304929Y-96713006D01*
X82359867Y-96630786D01*
X82397708Y-96539428D01*
X82417000Y-96442443D01*
X82417000Y-96407057D01*
X88334500Y-96407057D01*
X88334500Y-96505943D01*
X88353792Y-96602928D01*
X88391633Y-96694286D01*
X88446571Y-96776506D01*
X88516494Y-96846429D01*
X88598714Y-96901367D01*
X88690072Y-96939208D01*
X88787057Y-96958500D01*
X88885943Y-96958500D01*
X88982928Y-96939208D01*
X89074286Y-96901367D01*
X89156506Y-96846429D01*
X89226429Y-96776506D01*
X89281367Y-96694286D01*
X89316047Y-96610559D01*
X92017500Y-96610559D01*
X92017500Y-96709445D01*
X92036792Y-96806430D01*
X92074633Y-96897788D01*
X92129571Y-96980008D01*
X92199494Y-97049931D01*
X92281714Y-97104869D01*
X92373072Y-97142710D01*
X92470057Y-97162002D01*
X92568943Y-97162002D01*
X92665928Y-97142710D01*
X92757286Y-97104869D01*
X92839506Y-97049931D01*
X92909429Y-96980008D01*
X92910398Y-96978557D01*
X93224000Y-96978557D01*
X93224000Y-97077443D01*
X93243292Y-97174428D01*
X93281133Y-97265786D01*
X93336071Y-97348006D01*
X93405994Y-97417929D01*
X93488214Y-97472867D01*
X93579572Y-97510708D01*
X93676557Y-97530000D01*
X93775443Y-97530000D01*
X93872428Y-97510708D01*
X93963786Y-97472867D01*
X94046006Y-97417929D01*
X94115929Y-97348006D01*
X94170867Y-97265786D01*
X94208708Y-97174428D01*
X94228000Y-97077443D01*
X94228000Y-96978557D01*
X94208708Y-96881572D01*
X94170867Y-96790214D01*
X94115929Y-96707994D01*
X94046006Y-96638071D01*
X93963786Y-96583133D01*
X93872428Y-96545292D01*
X93775443Y-96526000D01*
X93676557Y-96526000D01*
X93579572Y-96545292D01*
X93488214Y-96583133D01*
X93405994Y-96638071D01*
X93336071Y-96707994D01*
X93281133Y-96790214D01*
X93243292Y-96881572D01*
X93224000Y-96978557D01*
X92910398Y-96978557D01*
X92964367Y-96897788D01*
X93002208Y-96806430D01*
X93021500Y-96709445D01*
X93021500Y-96610559D01*
X93002208Y-96513574D01*
X92964367Y-96422216D01*
X92909429Y-96339996D01*
X92839506Y-96270073D01*
X92757286Y-96215135D01*
X92665928Y-96177294D01*
X92568943Y-96158002D01*
X92470057Y-96158002D01*
X92373072Y-96177294D01*
X92281714Y-96215135D01*
X92199494Y-96270073D01*
X92129571Y-96339996D01*
X92074633Y-96422216D01*
X92036792Y-96513574D01*
X92017500Y-96610559D01*
X89316047Y-96610559D01*
X89319208Y-96602928D01*
X89338500Y-96505943D01*
X89338500Y-96407057D01*
X89319208Y-96310072D01*
X89281367Y-96218714D01*
X89226429Y-96136494D01*
X89156506Y-96066571D01*
X89074286Y-96011633D01*
X88982928Y-95973792D01*
X88885943Y-95954500D01*
X88787057Y-95954500D01*
X88690072Y-95973792D01*
X88598714Y-96011633D01*
X88516494Y-96066571D01*
X88446571Y-96136494D01*
X88391633Y-96218714D01*
X88353792Y-96310072D01*
X88334500Y-96407057D01*
X82417000Y-96407057D01*
X82417000Y-96343557D01*
X82397708Y-96246572D01*
X82359867Y-96155214D01*
X82304929Y-96072994D01*
X82235006Y-96003071D01*
X82152786Y-95948133D01*
X82061428Y-95910292D01*
X81964443Y-95891000D01*
X81865557Y-95891000D01*
X81768572Y-95910292D01*
X81677214Y-95948133D01*
X81594994Y-96003071D01*
X81525071Y-96072994D01*
X81470133Y-96155214D01*
X81432292Y-96246572D01*
X81413000Y-96343557D01*
X81280000Y-96343557D01*
X81280000Y-95391057D01*
X102749000Y-95391057D01*
X102749000Y-95489943D01*
X102768292Y-95586928D01*
X102806133Y-95678286D01*
X102861071Y-95760506D01*
X102930994Y-95830429D01*
X103013214Y-95885367D01*
X103104572Y-95923208D01*
X103201557Y-95942500D01*
X103300443Y-95942500D01*
X103397428Y-95923208D01*
X103488786Y-95885367D01*
X103571006Y-95830429D01*
X103640929Y-95760506D01*
X103695867Y-95678286D01*
X103733708Y-95586928D01*
X103753000Y-95489943D01*
X103753000Y-95391057D01*
X103733708Y-95294072D01*
X103695867Y-95202714D01*
X103640929Y-95120494D01*
X103571006Y-95050571D01*
X103488786Y-94995633D01*
X103397428Y-94957792D01*
X103300443Y-94938500D01*
X103201557Y-94938500D01*
X103104572Y-94957792D01*
X103013214Y-94995633D01*
X102930994Y-95050571D01*
X102861071Y-95120494D01*
X102806133Y-95202714D01*
X102768292Y-95294072D01*
X102749000Y-95391057D01*
X81280000Y-95391057D01*
X81280000Y-94438557D01*
X81413000Y-94438557D01*
X81413000Y-94537443D01*
X81432292Y-94634428D01*
X81470133Y-94725786D01*
X81525071Y-94808006D01*
X81594994Y-94877929D01*
X81677214Y-94932867D01*
X81768572Y-94970708D01*
X81865557Y-94990000D01*
X81964443Y-94990000D01*
X82061428Y-94970708D01*
X82152786Y-94932867D01*
X82235006Y-94877929D01*
X82304929Y-94808006D01*
X82359867Y-94725786D01*
X82397708Y-94634428D01*
X82417000Y-94537443D01*
X82417000Y-94438557D01*
X82397708Y-94341572D01*
X82359867Y-94250214D01*
X82304929Y-94167994D01*
X82235006Y-94098071D01*
X82174373Y-94057557D01*
X86747000Y-94057557D01*
X86747000Y-94156443D01*
X86766292Y-94253428D01*
X86804133Y-94344786D01*
X86859071Y-94427006D01*
X86928994Y-94496929D01*
X87011214Y-94551867D01*
X87102572Y-94589708D01*
X87199557Y-94609000D01*
X87298443Y-94609000D01*
X87395428Y-94589708D01*
X87453734Y-94565557D01*
X90100000Y-94565557D01*
X90100000Y-94664443D01*
X90119292Y-94761428D01*
X90157133Y-94852786D01*
X90212071Y-94935006D01*
X90281994Y-95004929D01*
X90364214Y-95059867D01*
X90455572Y-95097708D01*
X90552557Y-95117000D01*
X90651443Y-95117000D01*
X90748428Y-95097708D01*
X90839786Y-95059867D01*
X90922006Y-95004929D01*
X90991929Y-94935006D01*
X91046867Y-94852786D01*
X91084708Y-94761428D01*
X91104000Y-94664443D01*
X91104000Y-94565557D01*
X91084708Y-94468572D01*
X91046867Y-94377214D01*
X90991929Y-94294994D01*
X90922006Y-94225071D01*
X90839786Y-94170133D01*
X90748428Y-94132292D01*
X90651443Y-94113000D01*
X90552557Y-94113000D01*
X90455572Y-94132292D01*
X90364214Y-94170133D01*
X90281994Y-94225071D01*
X90212071Y-94294994D01*
X90157133Y-94377214D01*
X90119292Y-94468572D01*
X90100000Y-94565557D01*
X87453734Y-94565557D01*
X87486786Y-94551867D01*
X87569006Y-94496929D01*
X87638929Y-94427006D01*
X87693867Y-94344786D01*
X87731708Y-94253428D01*
X87751000Y-94156443D01*
X87751000Y-94057557D01*
X87731708Y-93960572D01*
X87693867Y-93869214D01*
X87649997Y-93803557D01*
X96145000Y-93803557D01*
X96145000Y-93902443D01*
X96164292Y-93999428D01*
X96202133Y-94090786D01*
X96257071Y-94173006D01*
X96326994Y-94242929D01*
X96342781Y-94253478D01*
X96339722Y-94260863D01*
X96320430Y-94357848D01*
X96320430Y-94456734D01*
X96339722Y-94553719D01*
X96377563Y-94645077D01*
X96432501Y-94727297D01*
X96502424Y-94797220D01*
X96584644Y-94852158D01*
X96676002Y-94889999D01*
X96772987Y-94909291D01*
X96871873Y-94909291D01*
X96907000Y-94902304D01*
X96907000Y-94918443D01*
X96926292Y-95015428D01*
X96964133Y-95106786D01*
X97019071Y-95189006D01*
X97088994Y-95258929D01*
X97171214Y-95313867D01*
X97262572Y-95351708D01*
X97359557Y-95371000D01*
X97458443Y-95371000D01*
X97555428Y-95351708D01*
X97646786Y-95313867D01*
X97729006Y-95258929D01*
X97798929Y-95189006D01*
X97853867Y-95106786D01*
X97891708Y-95015428D01*
X97911000Y-94918443D01*
X97911000Y-94819557D01*
X97891708Y-94722572D01*
X97853867Y-94631214D01*
X97798929Y-94548994D01*
X97729006Y-94479071D01*
X97646786Y-94424133D01*
X97555428Y-94386292D01*
X97458443Y-94367000D01*
X97359557Y-94367000D01*
X97324430Y-94373987D01*
X97324430Y-94357848D01*
X97313781Y-94304315D01*
X97389572Y-94335708D01*
X97486557Y-94355000D01*
X97585443Y-94355000D01*
X97682428Y-94335708D01*
X97773786Y-94297867D01*
X97856006Y-94242929D01*
X97925929Y-94173006D01*
X97980867Y-94090786D01*
X98018708Y-93999428D01*
X98038000Y-93902443D01*
X98038000Y-93803557D01*
X98018708Y-93706572D01*
X97980867Y-93615214D01*
X97936996Y-93549557D01*
X99828000Y-93549557D01*
X99828000Y-93648443D01*
X99847292Y-93745428D01*
X99885133Y-93836786D01*
X99898640Y-93857000D01*
X99885133Y-93877214D01*
X99847292Y-93968572D01*
X99828000Y-94065557D01*
X99828000Y-94164443D01*
X99847292Y-94261428D01*
X99885133Y-94352786D01*
X99940071Y-94435006D01*
X100009994Y-94504929D01*
X100092214Y-94559867D01*
X100183572Y-94597708D01*
X100280557Y-94617000D01*
X100379443Y-94617000D01*
X100476428Y-94597708D01*
X100567786Y-94559867D01*
X100650006Y-94504929D01*
X100719929Y-94435006D01*
X100774867Y-94352786D01*
X100812708Y-94261428D01*
X100832000Y-94164443D01*
X100832000Y-94065557D01*
X100812708Y-93968572D01*
X100774867Y-93877214D01*
X100761360Y-93857000D01*
X100774867Y-93836786D01*
X100812708Y-93745428D01*
X100826407Y-93676557D01*
X102759823Y-93676557D01*
X102759823Y-93775443D01*
X102779115Y-93872428D01*
X102816956Y-93963786D01*
X102871894Y-94046006D01*
X102941817Y-94115929D01*
X103024037Y-94170867D01*
X103115395Y-94208708D01*
X103212380Y-94228000D01*
X103311266Y-94228000D01*
X103408251Y-94208708D01*
X103499609Y-94170867D01*
X103581829Y-94115929D01*
X103651752Y-94046006D01*
X103706690Y-93963786D01*
X103744531Y-93872428D01*
X103763823Y-93775443D01*
X103763823Y-93676557D01*
X103744531Y-93579572D01*
X103706690Y-93488214D01*
X103696104Y-93472371D01*
X103731782Y-93448532D01*
X103801705Y-93378609D01*
X103856643Y-93296389D01*
X103894484Y-93205031D01*
X103913776Y-93108046D01*
X103913776Y-93009160D01*
X103894484Y-92912175D01*
X103856643Y-92820817D01*
X103801705Y-92738597D01*
X103731782Y-92668674D01*
X103649562Y-92613736D01*
X103558204Y-92575895D01*
X103461219Y-92556603D01*
X103362333Y-92556603D01*
X103265348Y-92575895D01*
X103173990Y-92613736D01*
X103091770Y-92668674D01*
X103021847Y-92738597D01*
X102966909Y-92820817D01*
X102929068Y-92912175D01*
X102909776Y-93009160D01*
X102909776Y-93108046D01*
X102929068Y-93205031D01*
X102966909Y-93296389D01*
X102977495Y-93312232D01*
X102941817Y-93336071D01*
X102871894Y-93405994D01*
X102816956Y-93488214D01*
X102779115Y-93579572D01*
X102759823Y-93676557D01*
X100826407Y-93676557D01*
X100832000Y-93648443D01*
X100832000Y-93549557D01*
X100812708Y-93452572D01*
X100774867Y-93361214D01*
X100719929Y-93278994D01*
X100650006Y-93209071D01*
X100567786Y-93154133D01*
X100476428Y-93116292D01*
X100379443Y-93097000D01*
X100280557Y-93097000D01*
X100183572Y-93116292D01*
X100092214Y-93154133D01*
X100009994Y-93209071D01*
X99940071Y-93278994D01*
X99885133Y-93361214D01*
X99847292Y-93452572D01*
X99828000Y-93549557D01*
X97936996Y-93549557D01*
X97927603Y-93535500D01*
X97980867Y-93455786D01*
X98018708Y-93364428D01*
X98038000Y-93267443D01*
X98038000Y-93168557D01*
X98018708Y-93071572D01*
X97980867Y-92980214D01*
X97932107Y-92907240D01*
X97936451Y-92904338D01*
X98006374Y-92834415D01*
X98061312Y-92752195D01*
X98099153Y-92660837D01*
X98118445Y-92563852D01*
X98118445Y-92464966D01*
X98099153Y-92367981D01*
X98061312Y-92276623D01*
X98006374Y-92194403D01*
X97936451Y-92124480D01*
X97854231Y-92069542D01*
X97762873Y-92031701D01*
X97665888Y-92012409D01*
X97567002Y-92012409D01*
X97470017Y-92031701D01*
X97378659Y-92069542D01*
X97296439Y-92124480D01*
X97226516Y-92194403D01*
X97171578Y-92276623D01*
X97133737Y-92367981D01*
X97114445Y-92464966D01*
X97114445Y-92563852D01*
X97133737Y-92660837D01*
X97171578Y-92752195D01*
X97220338Y-92825169D01*
X97215994Y-92828071D01*
X97146071Y-92897994D01*
X97091133Y-92980214D01*
X97053292Y-93071572D01*
X97034000Y-93168557D01*
X97034000Y-93267443D01*
X97053292Y-93364428D01*
X97091133Y-93455786D01*
X97144397Y-93535500D01*
X97091500Y-93614665D01*
X97036929Y-93532994D01*
X96967006Y-93463071D01*
X96884786Y-93408133D01*
X96793428Y-93370292D01*
X96696443Y-93351000D01*
X96597557Y-93351000D01*
X96500572Y-93370292D01*
X96409214Y-93408133D01*
X96326994Y-93463071D01*
X96257071Y-93532994D01*
X96202133Y-93615214D01*
X96164292Y-93706572D01*
X96145000Y-93803557D01*
X87649997Y-93803557D01*
X87638929Y-93786994D01*
X87569006Y-93717071D01*
X87486786Y-93662133D01*
X87395428Y-93624292D01*
X87298443Y-93605000D01*
X87199557Y-93605000D01*
X87102572Y-93624292D01*
X87011214Y-93662133D01*
X86928994Y-93717071D01*
X86859071Y-93786994D01*
X86804133Y-93869214D01*
X86766292Y-93960572D01*
X86747000Y-94057557D01*
X82174373Y-94057557D01*
X82152786Y-94043133D01*
X82061428Y-94005292D01*
X81964443Y-93986000D01*
X81865557Y-93986000D01*
X81768572Y-94005292D01*
X81677214Y-94043133D01*
X81594994Y-94098071D01*
X81525071Y-94167994D01*
X81470133Y-94250214D01*
X81432292Y-94341572D01*
X81413000Y-94438557D01*
X81280000Y-94438557D01*
X81280000Y-92851057D01*
X82746500Y-92851057D01*
X82746500Y-92949943D01*
X82765792Y-93046928D01*
X82803633Y-93138286D01*
X82858571Y-93220506D01*
X82928494Y-93290429D01*
X83010714Y-93345367D01*
X83102072Y-93383208D01*
X83199057Y-93402500D01*
X83297943Y-93402500D01*
X83394928Y-93383208D01*
X83486286Y-93345367D01*
X83568506Y-93290429D01*
X83638429Y-93220506D01*
X83693367Y-93138286D01*
X83705188Y-93109747D01*
X83772714Y-93154867D01*
X83864072Y-93192708D01*
X83961057Y-93212000D01*
X84059943Y-93212000D01*
X84156928Y-93192708D01*
X84248286Y-93154867D01*
X84330506Y-93099929D01*
X84400429Y-93030006D01*
X84455367Y-92947786D01*
X84469130Y-92914557D01*
X87128000Y-92914557D01*
X87128000Y-93013443D01*
X87147292Y-93110428D01*
X87185133Y-93201786D01*
X87240071Y-93284006D01*
X87309994Y-93353929D01*
X87392214Y-93408867D01*
X87483572Y-93446708D01*
X87580557Y-93466000D01*
X87679443Y-93466000D01*
X87776428Y-93446708D01*
X87867786Y-93408867D01*
X87950006Y-93353929D01*
X88019929Y-93284006D01*
X88074867Y-93201786D01*
X88112708Y-93110428D01*
X88132000Y-93013443D01*
X88132000Y-92914557D01*
X88112708Y-92817572D01*
X88074867Y-92726214D01*
X88019929Y-92643994D01*
X87950006Y-92574071D01*
X87867786Y-92519133D01*
X87776428Y-92481292D01*
X87679443Y-92462000D01*
X87580557Y-92462000D01*
X87483572Y-92481292D01*
X87392214Y-92519133D01*
X87309994Y-92574071D01*
X87240071Y-92643994D01*
X87185133Y-92726214D01*
X87147292Y-92817572D01*
X87128000Y-92914557D01*
X84469130Y-92914557D01*
X84493208Y-92856428D01*
X84512500Y-92759443D01*
X84512500Y-92660557D01*
X84493208Y-92563572D01*
X84455367Y-92472214D01*
X84400429Y-92389994D01*
X84330506Y-92320071D01*
X84248286Y-92265133D01*
X84156928Y-92227292D01*
X84059943Y-92208000D01*
X83961057Y-92208000D01*
X83864072Y-92227292D01*
X83772714Y-92265133D01*
X83690494Y-92320071D01*
X83620571Y-92389994D01*
X83565633Y-92472214D01*
X83553812Y-92500753D01*
X83486286Y-92455633D01*
X83394928Y-92417792D01*
X83297943Y-92398500D01*
X83199057Y-92398500D01*
X83102072Y-92417792D01*
X83010714Y-92455633D01*
X82928494Y-92510571D01*
X82858571Y-92580494D01*
X82803633Y-92662714D01*
X82765792Y-92754072D01*
X82746500Y-92851057D01*
X81280000Y-92851057D01*
X81280000Y-91223419D01*
X98238718Y-91223419D01*
X98238718Y-91322305D01*
X98258010Y-91419290D01*
X98295851Y-91510648D01*
X98350789Y-91592868D01*
X98420712Y-91662791D01*
X98502932Y-91717729D01*
X98594290Y-91755570D01*
X98663606Y-91769358D01*
X98596072Y-91782792D01*
X98504714Y-91820633D01*
X98422494Y-91875571D01*
X98352571Y-91945494D01*
X98297633Y-92027714D01*
X98259792Y-92119072D01*
X98240500Y-92216057D01*
X98240500Y-92314943D01*
X98259792Y-92411928D01*
X98297633Y-92503286D01*
X98352571Y-92585506D01*
X98422494Y-92655429D01*
X98504714Y-92710367D01*
X98596072Y-92748208D01*
X98693057Y-92767500D01*
X98791943Y-92767500D01*
X98888928Y-92748208D01*
X98980286Y-92710367D01*
X99062506Y-92655429D01*
X99132429Y-92585506D01*
X99187367Y-92503286D01*
X99225208Y-92411928D01*
X99244500Y-92314943D01*
X99244500Y-92216057D01*
X99225208Y-92119072D01*
X99187367Y-92027714D01*
X99132429Y-91945494D01*
X99062506Y-91875571D01*
X98980286Y-91820633D01*
X98888928Y-91782792D01*
X98819612Y-91769004D01*
X98887146Y-91755570D01*
X98978504Y-91717729D01*
X99060724Y-91662791D01*
X99130647Y-91592868D01*
X99185585Y-91510648D01*
X99223426Y-91419290D01*
X99242718Y-91322305D01*
X99242718Y-91223419D01*
X99223426Y-91126434D01*
X99185585Y-91035076D01*
X99130647Y-90952856D01*
X99117858Y-90940067D01*
X101235377Y-90940067D01*
X101235377Y-91038953D01*
X101254669Y-91135938D01*
X101292510Y-91227296D01*
X101347448Y-91309516D01*
X101417371Y-91379439D01*
X101499591Y-91434377D01*
X101590949Y-91472218D01*
X101687934Y-91491510D01*
X101786820Y-91491510D01*
X101883805Y-91472218D01*
X101975163Y-91434377D01*
X102057383Y-91379439D01*
X102127306Y-91309516D01*
X102182244Y-91227296D01*
X102220085Y-91135938D01*
X102239377Y-91038953D01*
X102239377Y-90940067D01*
X102220085Y-90843082D01*
X102182244Y-90751724D01*
X102127306Y-90669504D01*
X102057383Y-90599581D01*
X101975163Y-90544643D01*
X101883805Y-90506802D01*
X101786820Y-90487510D01*
X101687934Y-90487510D01*
X101590949Y-90506802D01*
X101499591Y-90544643D01*
X101417371Y-90599581D01*
X101347448Y-90669504D01*
X101292510Y-90751724D01*
X101254669Y-90843082D01*
X101235377Y-90940067D01*
X99117858Y-90940067D01*
X99060724Y-90882933D01*
X98978504Y-90827995D01*
X98887146Y-90790154D01*
X98790161Y-90770862D01*
X98691275Y-90770862D01*
X98594290Y-90790154D01*
X98502932Y-90827995D01*
X98420712Y-90882933D01*
X98350789Y-90952856D01*
X98295851Y-91035076D01*
X98258010Y-91126434D01*
X98238718Y-91223419D01*
X81280000Y-91223419D01*
X81280000Y-90593139D01*
X84710001Y-90593139D01*
X84710001Y-90692025D01*
X84729293Y-90789010D01*
X84767134Y-90880368D01*
X84822072Y-90962588D01*
X84891995Y-91032511D01*
X84974215Y-91087449D01*
X85065573Y-91125290D01*
X85162558Y-91144582D01*
X85261444Y-91144582D01*
X85358429Y-91125290D01*
X85449787Y-91087449D01*
X85532007Y-91032511D01*
X85601930Y-90962588D01*
X85656868Y-90880368D01*
X85694709Y-90789010D01*
X85714001Y-90692025D01*
X85714001Y-90593139D01*
X85694709Y-90496154D01*
X85656868Y-90404796D01*
X85601930Y-90322576D01*
X85532007Y-90252653D01*
X85449787Y-90197715D01*
X85358429Y-90159874D01*
X85261444Y-90140582D01*
X85162558Y-90140582D01*
X85065573Y-90159874D01*
X84974215Y-90197715D01*
X84891995Y-90252653D01*
X84822072Y-90322576D01*
X84767134Y-90404796D01*
X84729293Y-90496154D01*
X84710001Y-90593139D01*
X81280000Y-90593139D01*
X81280000Y-88342557D01*
X83183968Y-88342557D01*
X83183968Y-88441443D01*
X83203260Y-88538428D01*
X83241101Y-88629786D01*
X83296039Y-88712006D01*
X83365962Y-88781929D01*
X83448182Y-88836867D01*
X83539540Y-88874708D01*
X83636525Y-88894000D01*
X83735411Y-88894000D01*
X83832396Y-88874708D01*
X83923754Y-88836867D01*
X84005974Y-88781929D01*
X84075897Y-88712006D01*
X84130835Y-88629786D01*
X84168676Y-88538428D01*
X84187968Y-88441443D01*
X84187968Y-88342557D01*
X84168676Y-88245572D01*
X84156244Y-88215557D01*
X84334000Y-88215557D01*
X84334000Y-88314443D01*
X84353292Y-88411428D01*
X84391133Y-88502786D01*
X84446071Y-88585006D01*
X84515994Y-88654929D01*
X84598214Y-88709867D01*
X84661633Y-88736136D01*
X84651504Y-88787057D01*
X84651504Y-88885943D01*
X84670796Y-88982928D01*
X84708637Y-89074286D01*
X84763575Y-89156506D01*
X84781922Y-89174853D01*
X84747608Y-89226206D01*
X84709767Y-89317564D01*
X84690475Y-89414549D01*
X84690475Y-89513435D01*
X84709767Y-89610420D01*
X84747608Y-89701778D01*
X84802546Y-89783998D01*
X84872469Y-89853921D01*
X84954689Y-89908859D01*
X85046047Y-89946700D01*
X85143032Y-89965992D01*
X85241918Y-89965992D01*
X85338903Y-89946700D01*
X85430261Y-89908859D01*
X85512481Y-89853921D01*
X85512813Y-89853589D01*
X85594254Y-89887323D01*
X85691239Y-89906615D01*
X85790125Y-89906615D01*
X85887110Y-89887323D01*
X85978468Y-89849482D01*
X86060688Y-89794544D01*
X86130611Y-89724621D01*
X86185549Y-89642401D01*
X86223390Y-89551043D01*
X86242682Y-89454058D01*
X86242682Y-89429585D01*
X86258418Y-89426455D01*
X86349776Y-89388614D01*
X86384878Y-89365159D01*
X87478404Y-89365159D01*
X87478404Y-89464045D01*
X87497696Y-89561030D01*
X87535537Y-89652388D01*
X87590475Y-89734608D01*
X87660398Y-89804531D01*
X87742618Y-89859469D01*
X87833976Y-89897310D01*
X87930961Y-89916602D01*
X88029847Y-89916602D01*
X88126832Y-89897310D01*
X88218190Y-89859469D01*
X88300410Y-89804531D01*
X88370333Y-89734608D01*
X88425271Y-89652388D01*
X88463112Y-89561030D01*
X88472609Y-89513288D01*
X88480792Y-89554428D01*
X88518633Y-89645786D01*
X88573571Y-89728006D01*
X88643494Y-89797929D01*
X88725714Y-89852867D01*
X88817072Y-89890708D01*
X88914057Y-89910000D01*
X89012943Y-89910000D01*
X89109928Y-89890708D01*
X89201286Y-89852867D01*
X89283506Y-89797929D01*
X89322879Y-89758556D01*
X89323582Y-89759609D01*
X89393505Y-89829532D01*
X89475725Y-89884470D01*
X89567083Y-89922311D01*
X89664068Y-89941603D01*
X89762954Y-89941603D01*
X89859939Y-89922311D01*
X89951297Y-89884470D01*
X89978105Y-89866557D01*
X99066000Y-89866557D01*
X99066000Y-89965443D01*
X99085292Y-90062428D01*
X99123133Y-90153786D01*
X99178071Y-90236006D01*
X99247994Y-90305929D01*
X99330214Y-90360867D01*
X99421572Y-90398708D01*
X99518557Y-90418000D01*
X99617443Y-90418000D01*
X99714428Y-90398708D01*
X99805786Y-90360867D01*
X99888006Y-90305929D01*
X99957929Y-90236006D01*
X100012867Y-90153786D01*
X100050708Y-90062428D01*
X100070000Y-89965443D01*
X100070000Y-89866557D01*
X100050708Y-89769572D01*
X100038276Y-89739557D01*
X101098000Y-89739557D01*
X101098000Y-89838443D01*
X101117292Y-89935428D01*
X101155133Y-90026786D01*
X101210071Y-90109006D01*
X101279994Y-90178929D01*
X101362214Y-90233867D01*
X101453572Y-90271708D01*
X101550557Y-90291000D01*
X101649443Y-90291000D01*
X101746428Y-90271708D01*
X101837786Y-90233867D01*
X101920006Y-90178929D01*
X101989929Y-90109006D01*
X102044867Y-90026786D01*
X102082708Y-89935428D01*
X102102000Y-89838443D01*
X102102000Y-89739557D01*
X102082708Y-89642572D01*
X102044867Y-89551214D01*
X101989929Y-89468994D01*
X101920006Y-89399071D01*
X101837786Y-89344133D01*
X101746428Y-89306292D01*
X101649443Y-89287000D01*
X101550557Y-89287000D01*
X101453572Y-89306292D01*
X101362214Y-89344133D01*
X101279994Y-89399071D01*
X101210071Y-89468994D01*
X101155133Y-89551214D01*
X101117292Y-89642572D01*
X101098000Y-89739557D01*
X100038276Y-89739557D01*
X100012867Y-89678214D01*
X99957929Y-89595994D01*
X99888006Y-89526071D01*
X99805786Y-89471133D01*
X99714428Y-89433292D01*
X99617443Y-89414000D01*
X99518557Y-89414000D01*
X99421572Y-89433292D01*
X99330214Y-89471133D01*
X99247994Y-89526071D01*
X99178071Y-89595994D01*
X99123133Y-89678214D01*
X99085292Y-89769572D01*
X99066000Y-89866557D01*
X89978105Y-89866557D01*
X90033517Y-89829532D01*
X90103440Y-89759609D01*
X90158378Y-89677389D01*
X90196219Y-89586031D01*
X90215511Y-89489046D01*
X90215511Y-89390160D01*
X90196219Y-89293175D01*
X90158378Y-89201817D01*
X90103440Y-89119597D01*
X90069835Y-89085992D01*
X90093572Y-89050468D01*
X90131413Y-88959110D01*
X90150705Y-88862125D01*
X90150705Y-88763239D01*
X90131413Y-88666254D01*
X90093572Y-88574896D01*
X90038634Y-88492676D01*
X90015515Y-88469557D01*
X92721990Y-88469557D01*
X92721990Y-88568443D01*
X92741282Y-88665428D01*
X92779123Y-88756786D01*
X92834061Y-88839006D01*
X92903984Y-88908929D01*
X92986204Y-88963867D01*
X93077562Y-89001708D01*
X93174547Y-89021000D01*
X93273433Y-89021000D01*
X93370418Y-89001708D01*
X93461776Y-88963867D01*
X93543996Y-88908929D01*
X93613919Y-88839006D01*
X93668857Y-88756786D01*
X93706698Y-88665428D01*
X93725990Y-88568443D01*
X93725990Y-88469557D01*
X93706698Y-88372572D01*
X93668857Y-88281214D01*
X93613919Y-88198994D01*
X93543996Y-88129071D01*
X93461776Y-88074133D01*
X93370418Y-88036292D01*
X93273433Y-88017000D01*
X93174547Y-88017000D01*
X93077562Y-88036292D01*
X92986204Y-88074133D01*
X92903984Y-88129071D01*
X92834061Y-88198994D01*
X92779123Y-88281214D01*
X92741282Y-88372572D01*
X92721990Y-88469557D01*
X90015515Y-88469557D01*
X89968711Y-88422753D01*
X89886491Y-88367815D01*
X89795133Y-88329974D01*
X89698148Y-88310682D01*
X89599262Y-88310682D01*
X89502277Y-88329974D01*
X89410919Y-88367815D01*
X89328699Y-88422753D01*
X89273617Y-88477836D01*
X89204926Y-88409145D01*
X89122706Y-88354207D01*
X89031348Y-88316366D01*
X88934363Y-88297074D01*
X88835477Y-88297074D01*
X88738492Y-88316366D01*
X88647134Y-88354207D01*
X88564914Y-88409145D01*
X88494991Y-88479068D01*
X88440053Y-88561288D01*
X88402212Y-88652646D01*
X88382920Y-88749631D01*
X88382920Y-88848517D01*
X88402212Y-88945502D01*
X88440053Y-89036860D01*
X88494991Y-89119080D01*
X88529645Y-89153734D01*
X88518633Y-89170214D01*
X88480792Y-89261572D01*
X88471295Y-89309314D01*
X88463112Y-89268174D01*
X88425271Y-89176816D01*
X88370333Y-89094596D01*
X88300410Y-89024673D01*
X88218190Y-88969735D01*
X88126832Y-88931894D01*
X88029847Y-88912602D01*
X87930961Y-88912602D01*
X87833976Y-88931894D01*
X87742618Y-88969735D01*
X87660398Y-89024673D01*
X87590475Y-89094596D01*
X87535537Y-89176816D01*
X87497696Y-89268174D01*
X87478404Y-89365159D01*
X86384878Y-89365159D01*
X86431996Y-89333676D01*
X86501919Y-89263753D01*
X86556857Y-89181533D01*
X86594698Y-89090175D01*
X86613990Y-88993190D01*
X86613990Y-88894304D01*
X86594698Y-88797319D01*
X86556857Y-88705961D01*
X86501919Y-88623741D01*
X86431996Y-88553818D01*
X86349776Y-88498880D01*
X86258418Y-88461039D01*
X86161433Y-88441747D01*
X86062547Y-88441747D01*
X85965562Y-88461039D01*
X85874204Y-88498880D01*
X85791984Y-88553818D01*
X85722061Y-88623741D01*
X85667123Y-88705961D01*
X85648376Y-88751222D01*
X85636212Y-88690072D01*
X85598371Y-88598714D01*
X85543433Y-88516494D01*
X85473510Y-88446571D01*
X85391290Y-88391633D01*
X85327871Y-88365364D01*
X85338000Y-88314443D01*
X85338000Y-88215557D01*
X85318708Y-88118572D01*
X85280867Y-88027214D01*
X85225929Y-87944994D01*
X85156006Y-87875071D01*
X85073786Y-87820133D01*
X84982428Y-87782292D01*
X84885443Y-87763000D01*
X84786557Y-87763000D01*
X84689572Y-87782292D01*
X84598214Y-87820133D01*
X84515994Y-87875071D01*
X84446071Y-87944994D01*
X84391133Y-88027214D01*
X84353292Y-88118572D01*
X84334000Y-88215557D01*
X84156244Y-88215557D01*
X84130835Y-88154214D01*
X84075897Y-88071994D01*
X84005974Y-88002071D01*
X83923754Y-87947133D01*
X83832396Y-87909292D01*
X83735411Y-87890000D01*
X83636525Y-87890000D01*
X83539540Y-87909292D01*
X83448182Y-87947133D01*
X83365962Y-88002071D01*
X83296039Y-88071994D01*
X83241101Y-88154214D01*
X83203260Y-88245572D01*
X83183968Y-88342557D01*
X81280000Y-88342557D01*
X81280000Y-86964278D01*
X87478885Y-86964278D01*
X87478885Y-87063164D01*
X87498177Y-87160149D01*
X87536018Y-87251507D01*
X87590956Y-87333727D01*
X87660879Y-87403650D01*
X87743099Y-87458588D01*
X87834457Y-87496429D01*
X87931442Y-87515721D01*
X88030328Y-87515721D01*
X88127313Y-87496429D01*
X88218671Y-87458588D01*
X88300891Y-87403650D01*
X88370814Y-87333727D01*
X88425752Y-87251507D01*
X88463593Y-87160149D01*
X88482885Y-87063164D01*
X88482885Y-86964278D01*
X88463593Y-86867293D01*
X88425752Y-86775935D01*
X88370814Y-86693715D01*
X88311146Y-86634047D01*
X88525000Y-86634047D01*
X88525000Y-86732933D01*
X88544292Y-86829918D01*
X88582133Y-86921276D01*
X88637071Y-87003496D01*
X88706994Y-87073419D01*
X88789214Y-87128357D01*
X88880572Y-87166198D01*
X88977557Y-87185490D01*
X89076443Y-87185490D01*
X89173428Y-87166198D01*
X89264786Y-87128357D01*
X89312750Y-87096308D01*
X89360714Y-87128357D01*
X89452072Y-87166198D01*
X89549057Y-87185490D01*
X89647943Y-87185490D01*
X89744928Y-87166198D01*
X89836286Y-87128357D01*
X89910831Y-87078547D01*
X92017500Y-87078547D01*
X92017500Y-87177433D01*
X92036792Y-87274418D01*
X92074633Y-87365776D01*
X92129571Y-87447996D01*
X92199494Y-87517919D01*
X92281714Y-87572857D01*
X92373072Y-87610698D01*
X92470057Y-87629990D01*
X92568943Y-87629990D01*
X92665928Y-87610698D01*
X92757286Y-87572857D01*
X92839506Y-87517919D01*
X92909429Y-87447996D01*
X92964367Y-87365776D01*
X93002208Y-87274418D01*
X93021500Y-87177433D01*
X93021500Y-87078547D01*
X93002208Y-86981562D01*
X92987295Y-86945557D01*
X95129000Y-86945557D01*
X95129000Y-87044443D01*
X95148292Y-87141428D01*
X95186133Y-87232786D01*
X95241071Y-87315006D01*
X95310994Y-87384929D01*
X95393214Y-87439867D01*
X95484572Y-87477708D01*
X95581557Y-87497000D01*
X95680443Y-87497000D01*
X95777428Y-87477708D01*
X95868786Y-87439867D01*
X95951006Y-87384929D01*
X96020929Y-87315006D01*
X96075867Y-87232786D01*
X96113708Y-87141428D01*
X96133000Y-87044443D01*
X96133000Y-86945557D01*
X96113708Y-86848572D01*
X96075867Y-86757214D01*
X96020929Y-86674994D01*
X95951006Y-86605071D01*
X95868786Y-86550133D01*
X95777428Y-86512292D01*
X95680443Y-86493000D01*
X95581557Y-86493000D01*
X95484572Y-86512292D01*
X95393214Y-86550133D01*
X95310994Y-86605071D01*
X95241071Y-86674994D01*
X95186133Y-86757214D01*
X95148292Y-86848572D01*
X95129000Y-86945557D01*
X92987295Y-86945557D01*
X92964367Y-86890204D01*
X92909429Y-86807984D01*
X92839506Y-86738061D01*
X92757286Y-86683123D01*
X92665928Y-86645282D01*
X92568943Y-86625990D01*
X92470057Y-86625990D01*
X92373072Y-86645282D01*
X92281714Y-86683123D01*
X92199494Y-86738061D01*
X92129571Y-86807984D01*
X92074633Y-86890204D01*
X92036792Y-86981562D01*
X92017500Y-87078547D01*
X89910831Y-87078547D01*
X89918506Y-87073419D01*
X89988429Y-87003496D01*
X90043367Y-86921276D01*
X90081208Y-86829918D01*
X90100500Y-86732933D01*
X90100500Y-86634047D01*
X90081208Y-86537062D01*
X90043367Y-86445704D01*
X89988429Y-86363484D01*
X89918506Y-86293561D01*
X89836286Y-86238623D01*
X89744928Y-86200782D01*
X89647943Y-86181490D01*
X89549057Y-86181490D01*
X89452072Y-86200782D01*
X89360714Y-86238623D01*
X89312750Y-86270672D01*
X89264786Y-86238623D01*
X89173428Y-86200782D01*
X89076443Y-86181490D01*
X88977557Y-86181490D01*
X88880572Y-86200782D01*
X88789214Y-86238623D01*
X88706994Y-86293561D01*
X88637071Y-86363484D01*
X88582133Y-86445704D01*
X88544292Y-86537062D01*
X88525000Y-86634047D01*
X88311146Y-86634047D01*
X88300891Y-86623792D01*
X88218671Y-86568854D01*
X88127313Y-86531013D01*
X88030328Y-86511721D01*
X87931442Y-86511721D01*
X87834457Y-86531013D01*
X87743099Y-86568854D01*
X87660879Y-86623792D01*
X87590956Y-86693715D01*
X87536018Y-86775935D01*
X87498177Y-86867293D01*
X87478885Y-86964278D01*
X81280000Y-86964278D01*
X81280000Y-85485057D01*
X93414500Y-85485057D01*
X93414500Y-85583943D01*
X93433792Y-85680928D01*
X93471633Y-85772286D01*
X93526571Y-85854506D01*
X93596494Y-85924429D01*
X93678714Y-85979367D01*
X93770072Y-86017208D01*
X93867057Y-86036500D01*
X93965943Y-86036500D01*
X94062928Y-86017208D01*
X94154286Y-85979367D01*
X94228831Y-85929557D01*
X101352000Y-85929557D01*
X101352000Y-86028443D01*
X101371292Y-86125428D01*
X101409133Y-86216786D01*
X101419967Y-86233000D01*
X101409133Y-86249214D01*
X101371292Y-86340572D01*
X101352000Y-86437557D01*
X101352000Y-86536443D01*
X101371292Y-86633428D01*
X101409133Y-86724786D01*
X101419967Y-86741000D01*
X101409133Y-86757214D01*
X101371292Y-86848572D01*
X101352000Y-86945557D01*
X101352000Y-87044443D01*
X101371292Y-87141428D01*
X101409133Y-87232786D01*
X101464071Y-87315006D01*
X101533994Y-87384929D01*
X101616214Y-87439867D01*
X101707572Y-87477708D01*
X101804557Y-87497000D01*
X101903443Y-87497000D01*
X102000428Y-87477708D01*
X102091786Y-87439867D01*
X102174006Y-87384929D01*
X102243929Y-87315006D01*
X102298867Y-87232786D01*
X102336708Y-87141428D01*
X102356000Y-87044443D01*
X102356000Y-86945557D01*
X102336708Y-86848572D01*
X102298867Y-86757214D01*
X102288033Y-86741000D01*
X102298867Y-86724786D01*
X102336708Y-86633428D01*
X102356000Y-86536443D01*
X102356000Y-86437557D01*
X102336708Y-86340572D01*
X102298867Y-86249214D01*
X102288033Y-86233000D01*
X102298867Y-86216786D01*
X102336708Y-86125428D01*
X102356000Y-86028443D01*
X102356000Y-85993057D01*
X102368000Y-85993057D01*
X102368000Y-86091943D01*
X102387292Y-86188928D01*
X102425133Y-86280286D01*
X102480071Y-86362506D01*
X102549994Y-86432429D01*
X102632214Y-86487367D01*
X102723572Y-86525208D01*
X102820557Y-86544500D01*
X102919443Y-86544500D01*
X103016428Y-86525208D01*
X103107786Y-86487367D01*
X103190006Y-86432429D01*
X103259929Y-86362506D01*
X103314867Y-86280286D01*
X103352708Y-86188928D01*
X103372000Y-86091943D01*
X103372000Y-85993057D01*
X103352708Y-85896072D01*
X103314867Y-85804714D01*
X103259929Y-85722494D01*
X103190006Y-85652571D01*
X103107786Y-85597633D01*
X103016428Y-85559792D01*
X102919443Y-85540500D01*
X102820557Y-85540500D01*
X102723572Y-85559792D01*
X102632214Y-85597633D01*
X102549994Y-85652571D01*
X102480071Y-85722494D01*
X102425133Y-85804714D01*
X102387292Y-85896072D01*
X102368000Y-85993057D01*
X102356000Y-85993057D01*
X102356000Y-85929557D01*
X102336708Y-85832572D01*
X102298867Y-85741214D01*
X102243929Y-85658994D01*
X102174006Y-85589071D01*
X102091786Y-85534133D01*
X102000428Y-85496292D01*
X101903443Y-85477000D01*
X101804557Y-85477000D01*
X101707572Y-85496292D01*
X101616214Y-85534133D01*
X101533994Y-85589071D01*
X101464071Y-85658994D01*
X101409133Y-85741214D01*
X101371292Y-85832572D01*
X101352000Y-85929557D01*
X94228831Y-85929557D01*
X94236506Y-85924429D01*
X94306429Y-85854506D01*
X94361367Y-85772286D01*
X94399208Y-85680928D01*
X94418500Y-85583943D01*
X94418500Y-85485057D01*
X94399208Y-85388072D01*
X94361367Y-85296714D01*
X94306429Y-85214494D01*
X94236506Y-85144571D01*
X94154286Y-85089633D01*
X94062928Y-85051792D01*
X93965943Y-85032500D01*
X93867057Y-85032500D01*
X93770072Y-85051792D01*
X93678714Y-85089633D01*
X93596494Y-85144571D01*
X93526571Y-85214494D01*
X93471633Y-85296714D01*
X93433792Y-85388072D01*
X93414500Y-85485057D01*
X81280000Y-85485057D01*
X81280000Y-84405557D01*
X86874000Y-84405557D01*
X86874000Y-84504443D01*
X86893292Y-84601428D01*
X86931133Y-84692786D01*
X86986071Y-84775006D01*
X87055994Y-84844929D01*
X87138214Y-84899867D01*
X87229572Y-84937708D01*
X87326557Y-84957000D01*
X87425443Y-84957000D01*
X87522428Y-84937708D01*
X87613786Y-84899867D01*
X87696006Y-84844929D01*
X87765929Y-84775006D01*
X87820867Y-84692786D01*
X87853060Y-84615064D01*
X87875071Y-84648006D01*
X87944994Y-84717929D01*
X88027214Y-84772867D01*
X88118572Y-84810708D01*
X88215557Y-84830000D01*
X88314443Y-84830000D01*
X88411428Y-84810708D01*
X88502786Y-84772867D01*
X88585006Y-84717929D01*
X88654929Y-84648006D01*
X88709867Y-84565786D01*
X88747708Y-84474428D01*
X88767000Y-84377443D01*
X88767000Y-84278557D01*
X88969500Y-84278557D01*
X88969500Y-84377443D01*
X88988792Y-84474428D01*
X89026633Y-84565786D01*
X89081571Y-84648006D01*
X89151494Y-84717929D01*
X89233714Y-84772867D01*
X89325072Y-84810708D01*
X89422057Y-84830000D01*
X89520943Y-84830000D01*
X89617928Y-84810708D01*
X89709286Y-84772867D01*
X89791506Y-84717929D01*
X89805908Y-84703527D01*
X91321816Y-84703527D01*
X91321816Y-84802413D01*
X91341108Y-84899398D01*
X91378949Y-84990756D01*
X91433887Y-85072976D01*
X91503810Y-85142899D01*
X91586030Y-85197837D01*
X91677388Y-85235678D01*
X91774373Y-85254970D01*
X91873259Y-85254970D01*
X91970244Y-85235678D01*
X92061602Y-85197837D01*
X92143822Y-85142899D01*
X92213745Y-85072976D01*
X92268683Y-84990756D01*
X92306524Y-84899398D01*
X92325816Y-84802413D01*
X92325816Y-84703527D01*
X92306524Y-84606542D01*
X92268683Y-84515184D01*
X92213745Y-84432964D01*
X92143822Y-84363041D01*
X92061602Y-84308103D01*
X92047646Y-84302322D01*
X97210834Y-84302322D01*
X97210834Y-84401208D01*
X97230126Y-84498193D01*
X97267967Y-84589551D01*
X97322905Y-84671771D01*
X97392828Y-84741694D01*
X97475048Y-84796632D01*
X97566406Y-84834473D01*
X97619144Y-84844964D01*
X97605500Y-84913557D01*
X97605500Y-85012443D01*
X97624792Y-85109428D01*
X97662633Y-85200786D01*
X97717571Y-85283006D01*
X97787494Y-85352929D01*
X97869714Y-85407867D01*
X97961072Y-85445708D01*
X98058057Y-85465000D01*
X98156943Y-85465000D01*
X98253928Y-85445708D01*
X98345286Y-85407867D01*
X98427506Y-85352929D01*
X98497429Y-85283006D01*
X98552367Y-85200786D01*
X98590208Y-85109428D01*
X98609500Y-85012443D01*
X98609500Y-84913557D01*
X98590208Y-84816572D01*
X98552367Y-84725214D01*
X98497429Y-84642994D01*
X98437992Y-84583557D01*
X101733000Y-84583557D01*
X101733000Y-84682443D01*
X101752292Y-84779428D01*
X101790133Y-84870786D01*
X101845071Y-84953006D01*
X101914994Y-85022929D01*
X101997214Y-85077867D01*
X102088572Y-85115708D01*
X102185557Y-85135000D01*
X102284443Y-85135000D01*
X102381428Y-85115708D01*
X102472786Y-85077867D01*
X102555006Y-85022929D01*
X102624929Y-84953006D01*
X102679867Y-84870786D01*
X102717708Y-84779428D01*
X102737000Y-84682443D01*
X102737000Y-84583557D01*
X102717708Y-84486572D01*
X102679867Y-84395214D01*
X102624929Y-84312994D01*
X102555006Y-84243071D01*
X102472786Y-84188133D01*
X102381428Y-84150292D01*
X102284443Y-84131000D01*
X102185557Y-84131000D01*
X102088572Y-84150292D01*
X101997214Y-84188133D01*
X101914994Y-84243071D01*
X101845071Y-84312994D01*
X101790133Y-84395214D01*
X101752292Y-84486572D01*
X101733000Y-84583557D01*
X98437992Y-84583557D01*
X98427506Y-84573071D01*
X98345286Y-84518133D01*
X98253928Y-84480292D01*
X98201190Y-84469801D01*
X98214834Y-84401208D01*
X98214834Y-84302322D01*
X98195542Y-84205337D01*
X98157701Y-84113979D01*
X98102763Y-84031759D01*
X98032840Y-83961836D01*
X97950620Y-83906898D01*
X97859262Y-83869057D01*
X97762277Y-83849765D01*
X97663391Y-83849765D01*
X97566406Y-83869057D01*
X97475048Y-83906898D01*
X97392828Y-83961836D01*
X97322905Y-84031759D01*
X97267967Y-84113979D01*
X97230126Y-84205337D01*
X97210834Y-84302322D01*
X92047646Y-84302322D01*
X91970244Y-84270262D01*
X91873259Y-84250970D01*
X91774373Y-84250970D01*
X91677388Y-84270262D01*
X91586030Y-84308103D01*
X91503810Y-84363041D01*
X91433887Y-84432964D01*
X91378949Y-84515184D01*
X91341108Y-84606542D01*
X91321816Y-84703527D01*
X89805908Y-84703527D01*
X89861429Y-84648006D01*
X89916367Y-84565786D01*
X89954208Y-84474428D01*
X89973500Y-84377443D01*
X89973500Y-84278557D01*
X89954208Y-84181572D01*
X89916367Y-84090214D01*
X89861429Y-84007994D01*
X89791506Y-83938071D01*
X89709286Y-83883133D01*
X89617928Y-83845292D01*
X89520943Y-83826000D01*
X89422057Y-83826000D01*
X89325072Y-83845292D01*
X89233714Y-83883133D01*
X89151494Y-83938071D01*
X89081571Y-84007994D01*
X89026633Y-84090214D01*
X88988792Y-84181572D01*
X88969500Y-84278557D01*
X88767000Y-84278557D01*
X88747708Y-84181572D01*
X88709867Y-84090214D01*
X88654929Y-84007994D01*
X88585006Y-83938071D01*
X88502786Y-83883133D01*
X88411428Y-83845292D01*
X88314443Y-83826000D01*
X88215557Y-83826000D01*
X88118572Y-83845292D01*
X88027214Y-83883133D01*
X87944994Y-83938071D01*
X87875071Y-84007994D01*
X87820133Y-84090214D01*
X87787940Y-84167936D01*
X87765929Y-84134994D01*
X87696006Y-84065071D01*
X87613786Y-84010133D01*
X87522428Y-83972292D01*
X87425443Y-83953000D01*
X87326557Y-83953000D01*
X87229572Y-83972292D01*
X87138214Y-84010133D01*
X87055994Y-84065071D01*
X86986071Y-84134994D01*
X86931133Y-84217214D01*
X86893292Y-84308572D01*
X86874000Y-84405557D01*
X81280000Y-84405557D01*
X81280000Y-83199057D01*
X93478000Y-83199057D01*
X93478000Y-83297943D01*
X93497292Y-83394928D01*
X93535133Y-83486286D01*
X93590071Y-83568506D01*
X93659994Y-83638429D01*
X93742214Y-83693367D01*
X93833572Y-83731208D01*
X93930557Y-83750500D01*
X94029443Y-83750500D01*
X94126428Y-83731208D01*
X94217786Y-83693367D01*
X94300006Y-83638429D01*
X94369929Y-83568506D01*
X94424867Y-83486286D01*
X94462708Y-83394928D01*
X94482000Y-83297943D01*
X94482000Y-83199057D01*
X94462708Y-83102072D01*
X94424867Y-83010714D01*
X94369929Y-82928494D01*
X94300006Y-82858571D01*
X94217786Y-82803633D01*
X94126428Y-82765792D01*
X94029443Y-82746500D01*
X93930557Y-82746500D01*
X93833572Y-82765792D01*
X93742214Y-82803633D01*
X93659994Y-82858571D01*
X93590071Y-82928494D01*
X93535133Y-83010714D01*
X93497292Y-83102072D01*
X93478000Y-83199057D01*
X81280000Y-83199057D01*
X81280000Y-82119557D01*
X86493000Y-82119557D01*
X86493000Y-82218443D01*
X86512292Y-82315428D01*
X86550133Y-82406786D01*
X86605071Y-82489006D01*
X86674994Y-82558929D01*
X86757214Y-82613867D01*
X86848572Y-82651708D01*
X86945557Y-82671000D01*
X87044443Y-82671000D01*
X87141428Y-82651708D01*
X87232786Y-82613867D01*
X87315006Y-82558929D01*
X87384929Y-82489006D01*
X87439867Y-82406786D01*
X87477708Y-82315428D01*
X87497000Y-82218443D01*
X87497000Y-82119557D01*
X87477708Y-82022572D01*
X87465276Y-81992557D01*
X88144000Y-81992557D01*
X88144000Y-82091443D01*
X88163292Y-82188428D01*
X88201133Y-82279786D01*
X88256071Y-82362006D01*
X88325994Y-82431929D01*
X88408214Y-82486867D01*
X88499572Y-82524708D01*
X88596557Y-82544000D01*
X88695443Y-82544000D01*
X88792428Y-82524708D01*
X88883786Y-82486867D01*
X88906000Y-82472024D01*
X88906000Y-82472443D01*
X88925292Y-82569428D01*
X88963133Y-82660786D01*
X89018071Y-82743006D01*
X89087994Y-82812929D01*
X89170214Y-82867867D01*
X89261572Y-82905708D01*
X89358557Y-82925000D01*
X89457443Y-82925000D01*
X89554428Y-82905708D01*
X89645786Y-82867867D01*
X89728006Y-82812929D01*
X89797929Y-82743006D01*
X89852867Y-82660786D01*
X89890708Y-82569428D01*
X89910000Y-82472443D01*
X89910000Y-82373557D01*
X89890708Y-82276572D01*
X89862198Y-82207740D01*
X97609796Y-82207740D01*
X97609796Y-82306626D01*
X97629088Y-82403611D01*
X97666929Y-82494969D01*
X97721694Y-82576930D01*
X97688292Y-82657572D01*
X97669000Y-82754557D01*
X97669000Y-82853443D01*
X97688292Y-82950428D01*
X97726133Y-83041786D01*
X97781071Y-83124006D01*
X97850994Y-83193929D01*
X97933214Y-83248867D01*
X98024572Y-83286708D01*
X98121557Y-83306000D01*
X98220443Y-83306000D01*
X98317428Y-83286708D01*
X98408786Y-83248867D01*
X98491006Y-83193929D01*
X98560929Y-83124006D01*
X98615867Y-83041786D01*
X98653708Y-82950428D01*
X98673000Y-82853443D01*
X98673000Y-82754557D01*
X98653708Y-82657572D01*
X98615867Y-82566214D01*
X98561102Y-82484253D01*
X98594504Y-82403611D01*
X98613796Y-82306626D01*
X98613796Y-82207740D01*
X98596255Y-82119557D01*
X99574000Y-82119557D01*
X99574000Y-82218443D01*
X99593292Y-82315428D01*
X99631133Y-82406786D01*
X99686071Y-82489006D01*
X99755994Y-82558929D01*
X99838214Y-82613867D01*
X99929572Y-82651708D01*
X100026557Y-82671000D01*
X100125443Y-82671000D01*
X100222428Y-82651708D01*
X100313786Y-82613867D01*
X100396006Y-82558929D01*
X100465929Y-82489006D01*
X100503453Y-82432847D01*
X101045930Y-82432847D01*
X101045930Y-82531733D01*
X101065222Y-82628718D01*
X101103063Y-82720076D01*
X101158001Y-82802296D01*
X101227924Y-82872219D01*
X101310144Y-82927157D01*
X101401502Y-82964998D01*
X101498487Y-82984290D01*
X101597373Y-82984290D01*
X101694358Y-82964998D01*
X101785716Y-82927157D01*
X101867936Y-82872219D01*
X101937859Y-82802296D01*
X101992797Y-82720076D01*
X102030638Y-82628718D01*
X102049930Y-82531733D01*
X102049930Y-82432847D01*
X102030638Y-82335862D01*
X101992797Y-82244504D01*
X101937859Y-82162284D01*
X101867936Y-82092361D01*
X101785716Y-82037423D01*
X101694358Y-81999582D01*
X101597373Y-81980290D01*
X101498487Y-81980290D01*
X101401502Y-81999582D01*
X101310144Y-82037423D01*
X101227924Y-82092361D01*
X101158001Y-82162284D01*
X101103063Y-82244504D01*
X101065222Y-82335862D01*
X101045930Y-82432847D01*
X100503453Y-82432847D01*
X100520867Y-82406786D01*
X100558708Y-82315428D01*
X100578000Y-82218443D01*
X100578000Y-82119557D01*
X100558708Y-82022572D01*
X100520867Y-81931214D01*
X100465929Y-81848994D01*
X100396006Y-81779071D01*
X100313786Y-81724133D01*
X100222428Y-81686292D01*
X100125443Y-81667000D01*
X100026557Y-81667000D01*
X99929572Y-81686292D01*
X99838214Y-81724133D01*
X99755994Y-81779071D01*
X99686071Y-81848994D01*
X99631133Y-81931214D01*
X99593292Y-82022572D01*
X99574000Y-82119557D01*
X98596255Y-82119557D01*
X98594504Y-82110755D01*
X98556663Y-82019397D01*
X98501725Y-81937177D01*
X98431802Y-81867254D01*
X98349582Y-81812316D01*
X98258224Y-81774475D01*
X98161239Y-81755183D01*
X98062353Y-81755183D01*
X97965368Y-81774475D01*
X97874010Y-81812316D01*
X97791790Y-81867254D01*
X97721867Y-81937177D01*
X97666929Y-82019397D01*
X97629088Y-82110755D01*
X97609796Y-82207740D01*
X89862198Y-82207740D01*
X89852867Y-82185214D01*
X89797929Y-82102994D01*
X89728006Y-82033071D01*
X89695064Y-82011060D01*
X89772786Y-81978867D01*
X89855006Y-81923929D01*
X89924929Y-81854006D01*
X89979867Y-81771786D01*
X90017708Y-81680428D01*
X90037000Y-81583443D01*
X90037000Y-81484557D01*
X90017708Y-81387572D01*
X89979867Y-81296214D01*
X89948512Y-81249288D01*
X90026786Y-81216867D01*
X90109006Y-81161929D01*
X90178929Y-81092006D01*
X90233867Y-81009786D01*
X90248650Y-80974095D01*
X93919000Y-80974095D01*
X93919000Y-81077905D01*
X93939252Y-81179720D01*
X93978979Y-81275628D01*
X94036652Y-81361943D01*
X94110057Y-81435348D01*
X94196372Y-81493021D01*
X94292280Y-81532748D01*
X94394095Y-81553000D01*
X94497905Y-81553000D01*
X94599720Y-81532748D01*
X94695628Y-81493021D01*
X94781943Y-81435348D01*
X94855348Y-81361943D01*
X94913021Y-81275628D01*
X94952748Y-81179720D01*
X94973000Y-81077905D01*
X94973000Y-80974095D01*
X95019000Y-80974095D01*
X95019000Y-81077905D01*
X95039252Y-81179720D01*
X95078979Y-81275628D01*
X95136652Y-81361943D01*
X95210057Y-81435348D01*
X95296372Y-81493021D01*
X95392280Y-81532748D01*
X95494095Y-81553000D01*
X95597905Y-81553000D01*
X95699720Y-81532748D01*
X95795628Y-81493021D01*
X95881943Y-81435348D01*
X95955348Y-81361943D01*
X96013021Y-81275628D01*
X96052748Y-81179720D01*
X96073000Y-81077905D01*
X96073000Y-80974095D01*
X96052748Y-80872280D01*
X96013021Y-80776372D01*
X95955348Y-80690057D01*
X95881943Y-80616652D01*
X95795628Y-80558979D01*
X95699720Y-80519252D01*
X95597905Y-80499000D01*
X95494095Y-80499000D01*
X95392280Y-80519252D01*
X95296372Y-80558979D01*
X95210057Y-80616652D01*
X95136652Y-80690057D01*
X95078979Y-80776372D01*
X95039252Y-80872280D01*
X95019000Y-80974095D01*
X94973000Y-80974095D01*
X94952748Y-80872280D01*
X94913021Y-80776372D01*
X94855348Y-80690057D01*
X94781943Y-80616652D01*
X94695628Y-80558979D01*
X94599720Y-80519252D01*
X94497905Y-80499000D01*
X94394095Y-80499000D01*
X94292280Y-80519252D01*
X94196372Y-80558979D01*
X94110057Y-80616652D01*
X94036652Y-80690057D01*
X93978979Y-80776372D01*
X93939252Y-80872280D01*
X93919000Y-80974095D01*
X90248650Y-80974095D01*
X90271708Y-80918428D01*
X90291000Y-80821443D01*
X90291000Y-80722557D01*
X90271708Y-80625572D01*
X90233867Y-80534214D01*
X90178929Y-80451994D01*
X90109006Y-80382071D01*
X90026786Y-80327133D01*
X89935428Y-80289292D01*
X89838443Y-80270000D01*
X89739557Y-80270000D01*
X89642572Y-80289292D01*
X89551214Y-80327133D01*
X89468994Y-80382071D01*
X89399071Y-80451994D01*
X89344133Y-80534214D01*
X89306292Y-80625572D01*
X89287000Y-80722557D01*
X89287000Y-80821443D01*
X89306292Y-80918428D01*
X89344133Y-81009786D01*
X89375488Y-81056712D01*
X89297214Y-81089133D01*
X89214994Y-81144071D01*
X89145071Y-81213994D01*
X89090133Y-81296214D01*
X89052292Y-81387572D01*
X89033000Y-81484557D01*
X89033000Y-81583443D01*
X89052292Y-81680428D01*
X89090133Y-81771786D01*
X89145071Y-81854006D01*
X89214994Y-81923929D01*
X89247936Y-81945940D01*
X89170214Y-81978133D01*
X89148000Y-81992976D01*
X89148000Y-81992557D01*
X89128708Y-81895572D01*
X89090867Y-81804214D01*
X89035929Y-81721994D01*
X88966006Y-81652071D01*
X88883786Y-81597133D01*
X88792428Y-81559292D01*
X88695443Y-81540000D01*
X88596557Y-81540000D01*
X88499572Y-81559292D01*
X88408214Y-81597133D01*
X88325994Y-81652071D01*
X88256071Y-81721994D01*
X88201133Y-81804214D01*
X88163292Y-81895572D01*
X88144000Y-81992557D01*
X87465276Y-81992557D01*
X87439867Y-81931214D01*
X87384929Y-81848994D01*
X87315006Y-81779071D01*
X87232786Y-81724133D01*
X87141428Y-81686292D01*
X87044443Y-81667000D01*
X86945557Y-81667000D01*
X86848572Y-81686292D01*
X86757214Y-81724133D01*
X86674994Y-81779071D01*
X86605071Y-81848994D01*
X86550133Y-81931214D01*
X86512292Y-82022572D01*
X86493000Y-82119557D01*
X81280000Y-82119557D01*
X81280000Y-80722557D01*
X85731000Y-80722557D01*
X85731000Y-80821443D01*
X85750292Y-80918428D01*
X85788133Y-81009786D01*
X85843071Y-81092006D01*
X85912994Y-81161929D01*
X85995214Y-81216867D01*
X86086572Y-81254708D01*
X86183557Y-81274000D01*
X86282443Y-81274000D01*
X86379428Y-81254708D01*
X86470786Y-81216867D01*
X86553006Y-81161929D01*
X86622929Y-81092006D01*
X86677867Y-81009786D01*
X86715708Y-80918428D01*
X86735000Y-80821443D01*
X86735000Y-80722557D01*
X86715708Y-80625572D01*
X86677867Y-80534214D01*
X86622929Y-80451994D01*
X86553006Y-80382071D01*
X86470786Y-80327133D01*
X86379428Y-80289292D01*
X86282443Y-80270000D01*
X86183557Y-80270000D01*
X86086572Y-80289292D01*
X85995214Y-80327133D01*
X85912994Y-80382071D01*
X85843071Y-80451994D01*
X85788133Y-80534214D01*
X85750292Y-80625572D01*
X85731000Y-80722557D01*
X81280000Y-80722557D01*
X81280000Y-79452557D01*
X90049000Y-79452557D01*
X90049000Y-79551443D01*
X90068292Y-79648428D01*
X90106133Y-79739786D01*
X90161071Y-79822006D01*
X90230994Y-79891929D01*
X90313214Y-79946867D01*
X90404572Y-79984708D01*
X90501557Y-80004000D01*
X90600443Y-80004000D01*
X90697428Y-79984708D01*
X90788786Y-79946867D01*
X90871006Y-79891929D01*
X90940929Y-79822006D01*
X90995500Y-79740335D01*
X91050071Y-79822006D01*
X91119994Y-79891929D01*
X91202214Y-79946867D01*
X91293572Y-79984708D01*
X91390557Y-80004000D01*
X91489443Y-80004000D01*
X91586428Y-79984708D01*
X91677786Y-79946867D01*
X91760006Y-79891929D01*
X91829929Y-79822006D01*
X91884867Y-79739786D01*
X91922708Y-79648428D01*
X91942000Y-79551443D01*
X91942000Y-79452557D01*
X91922708Y-79355572D01*
X91910276Y-79325557D01*
X94621000Y-79325557D01*
X94621000Y-79424443D01*
X94640292Y-79521428D01*
X94678133Y-79612786D01*
X94733071Y-79695006D01*
X94802994Y-79764929D01*
X94885214Y-79819867D01*
X94976572Y-79857708D01*
X95073557Y-79877000D01*
X95172443Y-79877000D01*
X95269428Y-79857708D01*
X95360786Y-79819867D01*
X95443006Y-79764929D01*
X95512929Y-79695006D01*
X95567867Y-79612786D01*
X95581630Y-79579557D01*
X97923000Y-79579557D01*
X97923000Y-79678443D01*
X97942292Y-79775428D01*
X97980133Y-79866786D01*
X98035071Y-79949006D01*
X98104994Y-80018929D01*
X98187214Y-80073867D01*
X98278572Y-80111708D01*
X98375557Y-80131000D01*
X98474443Y-80131000D01*
X98571428Y-80111708D01*
X98595169Y-80101874D01*
X101130009Y-80101874D01*
X101130009Y-80200760D01*
X101149301Y-80297745D01*
X101187142Y-80389103D01*
X101242080Y-80471323D01*
X101312003Y-80541246D01*
X101394223Y-80596184D01*
X101485581Y-80634025D01*
X101582566Y-80653317D01*
X101681452Y-80653317D01*
X101778437Y-80634025D01*
X101869795Y-80596184D01*
X101952015Y-80541246D01*
X102021938Y-80471323D01*
X102061108Y-80412701D01*
X102107898Y-80443965D01*
X102105494Y-80445571D01*
X102035571Y-80515494D01*
X101980633Y-80597714D01*
X101942792Y-80689072D01*
X101923500Y-80786057D01*
X101923500Y-80884943D01*
X101942792Y-80981928D01*
X101980633Y-81073286D01*
X102035571Y-81155506D01*
X102105494Y-81225429D01*
X102187714Y-81280367D01*
X102279072Y-81318208D01*
X102376057Y-81337500D01*
X102474943Y-81337500D01*
X102571928Y-81318208D01*
X102663286Y-81280367D01*
X102745506Y-81225429D01*
X102815429Y-81155506D01*
X102870367Y-81073286D01*
X102908208Y-80981928D01*
X102927500Y-80884943D01*
X102927500Y-80786057D01*
X102908208Y-80689072D01*
X102870367Y-80597714D01*
X102815429Y-80515494D01*
X102745506Y-80445571D01*
X102679602Y-80401535D01*
X102682006Y-80399929D01*
X102751929Y-80330006D01*
X102806867Y-80247786D01*
X102844708Y-80156428D01*
X102864000Y-80059443D01*
X102864000Y-79960557D01*
X102844708Y-79863572D01*
X102832276Y-79833557D01*
X103003000Y-79833557D01*
X103003000Y-79932443D01*
X103022292Y-80029428D01*
X103060133Y-80120786D01*
X103115071Y-80203006D01*
X103184994Y-80272929D01*
X103267214Y-80327867D01*
X103358572Y-80365708D01*
X103455557Y-80385000D01*
X103554443Y-80385000D01*
X103651428Y-80365708D01*
X103742786Y-80327867D01*
X103825006Y-80272929D01*
X103894929Y-80203006D01*
X103949867Y-80120786D01*
X103987708Y-80029428D01*
X104007000Y-79932443D01*
X104007000Y-79833557D01*
X103987708Y-79736572D01*
X103949867Y-79645214D01*
X103894929Y-79562994D01*
X103825006Y-79493071D01*
X103742786Y-79438133D01*
X103651428Y-79400292D01*
X103554443Y-79381000D01*
X103455557Y-79381000D01*
X103358572Y-79400292D01*
X103267214Y-79438133D01*
X103184994Y-79493071D01*
X103115071Y-79562994D01*
X103060133Y-79645214D01*
X103022292Y-79736572D01*
X103003000Y-79833557D01*
X102832276Y-79833557D01*
X102806867Y-79772214D01*
X102751929Y-79689994D01*
X102682006Y-79620071D01*
X102599786Y-79565133D01*
X102508428Y-79527292D01*
X102411443Y-79508000D01*
X102312557Y-79508000D01*
X102215572Y-79527292D01*
X102124214Y-79565133D01*
X102041994Y-79620071D01*
X101972071Y-79689994D01*
X101932901Y-79748616D01*
X101869795Y-79706450D01*
X101778437Y-79668609D01*
X101681452Y-79649317D01*
X101582566Y-79649317D01*
X101485581Y-79668609D01*
X101394223Y-79706450D01*
X101312003Y-79761388D01*
X101242080Y-79831311D01*
X101187142Y-79913531D01*
X101149301Y-80004889D01*
X101130009Y-80101874D01*
X98595169Y-80101874D01*
X98662786Y-80073867D01*
X98745006Y-80018929D01*
X98814929Y-79949006D01*
X98869867Y-79866786D01*
X98907708Y-79775428D01*
X98927000Y-79678443D01*
X98927000Y-79579557D01*
X98907708Y-79482572D01*
X98869867Y-79391214D01*
X98814929Y-79308994D01*
X98745006Y-79239071D01*
X98662786Y-79184133D01*
X98571428Y-79146292D01*
X98474443Y-79127000D01*
X98375557Y-79127000D01*
X98278572Y-79146292D01*
X98187214Y-79184133D01*
X98104994Y-79239071D01*
X98035071Y-79308994D01*
X97980133Y-79391214D01*
X97942292Y-79482572D01*
X97923000Y-79579557D01*
X95581630Y-79579557D01*
X95605708Y-79521428D01*
X95625000Y-79424443D01*
X95625000Y-79325557D01*
X95605708Y-79228572D01*
X95567867Y-79137214D01*
X95512929Y-79054994D01*
X95443006Y-78985071D01*
X95360786Y-78930133D01*
X95269428Y-78892292D01*
X95172443Y-78873000D01*
X95073557Y-78873000D01*
X94976572Y-78892292D01*
X94885214Y-78930133D01*
X94802994Y-78985071D01*
X94733071Y-79054994D01*
X94678133Y-79137214D01*
X94640292Y-79228572D01*
X94621000Y-79325557D01*
X91910276Y-79325557D01*
X91884867Y-79264214D01*
X91829929Y-79181994D01*
X91760006Y-79112071D01*
X91677786Y-79057133D01*
X91586428Y-79019292D01*
X91489443Y-79000000D01*
X91390557Y-79000000D01*
X91293572Y-79019292D01*
X91202214Y-79057133D01*
X91119994Y-79112071D01*
X91050071Y-79181994D01*
X90995500Y-79263665D01*
X90940929Y-79181994D01*
X90871006Y-79112071D01*
X90788786Y-79057133D01*
X90697428Y-79019292D01*
X90600443Y-79000000D01*
X90501557Y-79000000D01*
X90404572Y-79019292D01*
X90313214Y-79057133D01*
X90230994Y-79112071D01*
X90161071Y-79181994D01*
X90106133Y-79264214D01*
X90068292Y-79355572D01*
X90049000Y-79452557D01*
X81280000Y-79452557D01*
X81280000Y-78563557D01*
X87382000Y-78563557D01*
X87382000Y-78662443D01*
X87401292Y-78759428D01*
X87439133Y-78850786D01*
X87494071Y-78933006D01*
X87563994Y-79002929D01*
X87646214Y-79057867D01*
X87737572Y-79095708D01*
X87834557Y-79115000D01*
X87933443Y-79115000D01*
X88030428Y-79095708D01*
X88121786Y-79057867D01*
X88204006Y-79002929D01*
X88273929Y-78933006D01*
X88328867Y-78850786D01*
X88366708Y-78759428D01*
X88386000Y-78662443D01*
X88386000Y-78563557D01*
X88366708Y-78466572D01*
X88328867Y-78375214D01*
X88309650Y-78346454D01*
X88342557Y-78353000D01*
X88441443Y-78353000D01*
X88538428Y-78333708D01*
X88629786Y-78295867D01*
X88712006Y-78240929D01*
X88781929Y-78171006D01*
X88836867Y-78088786D01*
X88874708Y-77997428D01*
X88894000Y-77900443D01*
X88894000Y-77801557D01*
X89033000Y-77801557D01*
X89033000Y-77900443D01*
X89052292Y-77997428D01*
X89090133Y-78088786D01*
X89145071Y-78171006D01*
X89214994Y-78240929D01*
X89297214Y-78295867D01*
X89388572Y-78333708D01*
X89485557Y-78353000D01*
X89584443Y-78353000D01*
X89681428Y-78333708D01*
X89772786Y-78295867D01*
X89855006Y-78240929D01*
X89924929Y-78171006D01*
X89979867Y-78088786D01*
X90017708Y-77997428D01*
X90037000Y-77900443D01*
X90037000Y-77801557D01*
X90017708Y-77704572D01*
X89979867Y-77613214D01*
X89924929Y-77530994D01*
X89855006Y-77461071D01*
X89772786Y-77406133D01*
X89681428Y-77368292D01*
X89584443Y-77349000D01*
X89485557Y-77349000D01*
X89388572Y-77368292D01*
X89297214Y-77406133D01*
X89214994Y-77461071D01*
X89145071Y-77530994D01*
X89090133Y-77613214D01*
X89052292Y-77704572D01*
X89033000Y-77801557D01*
X88894000Y-77801557D01*
X88874708Y-77704572D01*
X88836867Y-77613214D01*
X88781929Y-77530994D01*
X88712006Y-77461071D01*
X88629786Y-77406133D01*
X88538428Y-77368292D01*
X88441443Y-77349000D01*
X88342557Y-77349000D01*
X88245572Y-77368292D01*
X88154214Y-77406133D01*
X88071994Y-77461071D01*
X88002071Y-77530994D01*
X87947133Y-77613214D01*
X87909292Y-77704572D01*
X87890000Y-77801557D01*
X87890000Y-77900443D01*
X87909292Y-77997428D01*
X87947133Y-78088786D01*
X87966350Y-78117546D01*
X87933443Y-78111000D01*
X87834557Y-78111000D01*
X87737572Y-78130292D01*
X87646214Y-78168133D01*
X87563994Y-78223071D01*
X87494071Y-78292994D01*
X87439133Y-78375214D01*
X87401292Y-78466572D01*
X87382000Y-78563557D01*
X81280000Y-78563557D01*
X81280000Y-77801557D01*
X83445000Y-77801557D01*
X83445000Y-77900443D01*
X83464292Y-77997428D01*
X83502133Y-78088786D01*
X83557071Y-78171006D01*
X83626994Y-78240929D01*
X83709214Y-78295867D01*
X83800572Y-78333708D01*
X83897557Y-78353000D01*
X83996443Y-78353000D01*
X84093428Y-78333708D01*
X84184786Y-78295867D01*
X84267006Y-78240929D01*
X84336929Y-78171006D01*
X84391867Y-78088786D01*
X84429708Y-77997428D01*
X84449000Y-77900443D01*
X84449000Y-77801557D01*
X86366000Y-77801557D01*
X86366000Y-77900443D01*
X86385292Y-77997428D01*
X86423133Y-78088786D01*
X86478071Y-78171006D01*
X86547994Y-78240929D01*
X86630214Y-78295867D01*
X86721572Y-78333708D01*
X86818557Y-78353000D01*
X86917443Y-78353000D01*
X87014428Y-78333708D01*
X87105786Y-78295867D01*
X87188006Y-78240929D01*
X87257929Y-78171006D01*
X87312867Y-78088786D01*
X87350708Y-77997428D01*
X87370000Y-77900443D01*
X87370000Y-77801557D01*
X87350708Y-77704572D01*
X87312867Y-77613214D01*
X87257929Y-77530994D01*
X87188006Y-77461071D01*
X87105786Y-77406133D01*
X87014428Y-77368292D01*
X86917443Y-77349000D01*
X86818557Y-77349000D01*
X86721572Y-77368292D01*
X86630214Y-77406133D01*
X86547994Y-77461071D01*
X86478071Y-77530994D01*
X86423133Y-77613214D01*
X86385292Y-77704572D01*
X86366000Y-77801557D01*
X84449000Y-77801557D01*
X84429708Y-77704572D01*
X84391867Y-77613214D01*
X84336929Y-77530994D01*
X84267006Y-77461071D01*
X84184786Y-77406133D01*
X84093428Y-77368292D01*
X83996443Y-77349000D01*
X83897557Y-77349000D01*
X83800572Y-77368292D01*
X83709214Y-77406133D01*
X83626994Y-77461071D01*
X83557071Y-77530994D01*
X83502133Y-77613214D01*
X83464292Y-77704572D01*
X83445000Y-77801557D01*
X81280000Y-77801557D01*
X81280000Y-76658557D01*
X89414000Y-76658557D01*
X89414000Y-76757443D01*
X89433292Y-76854428D01*
X89471133Y-76945786D01*
X89526071Y-77028006D01*
X89595994Y-77097929D01*
X89678214Y-77152867D01*
X89769572Y-77190708D01*
X89866557Y-77210000D01*
X89965443Y-77210000D01*
X90062428Y-77190708D01*
X90153786Y-77152867D01*
X90236006Y-77097929D01*
X90305929Y-77028006D01*
X90360867Y-76945786D01*
X90374630Y-76912557D01*
X90938000Y-76912557D01*
X90938000Y-77011443D01*
X90957292Y-77108428D01*
X90995133Y-77199786D01*
X91050071Y-77282006D01*
X91119994Y-77351929D01*
X91202214Y-77406867D01*
X91293572Y-77444708D01*
X91390557Y-77464000D01*
X91489443Y-77464000D01*
X91586428Y-77444708D01*
X91677786Y-77406867D01*
X91760006Y-77351929D01*
X91829929Y-77282006D01*
X91884867Y-77199786D01*
X91898630Y-77166557D01*
X100971000Y-77166557D01*
X100971000Y-77265443D01*
X100990292Y-77362428D01*
X101028133Y-77453786D01*
X101083071Y-77536006D01*
X101152994Y-77605929D01*
X101235214Y-77660867D01*
X101326572Y-77698708D01*
X101423557Y-77718000D01*
X101522443Y-77718000D01*
X101619428Y-77698708D01*
X101710786Y-77660867D01*
X101748007Y-77635997D01*
X101785227Y-77660867D01*
X101876585Y-77698708D01*
X101973570Y-77718000D01*
X102072456Y-77718000D01*
X102169441Y-77698708D01*
X102260799Y-77660867D01*
X102343019Y-77605929D01*
X102412942Y-77536006D01*
X102467880Y-77453786D01*
X102505721Y-77362428D01*
X102525013Y-77265443D01*
X102525013Y-77166557D01*
X102505721Y-77069572D01*
X102467880Y-76978214D01*
X102412942Y-76895994D01*
X102343019Y-76826071D01*
X102260799Y-76771133D01*
X102169441Y-76733292D01*
X102072456Y-76714000D01*
X101973570Y-76714000D01*
X101876585Y-76733292D01*
X101785227Y-76771133D01*
X101748006Y-76796003D01*
X101710786Y-76771133D01*
X101619428Y-76733292D01*
X101522443Y-76714000D01*
X101423557Y-76714000D01*
X101326572Y-76733292D01*
X101235214Y-76771133D01*
X101152994Y-76826071D01*
X101083071Y-76895994D01*
X101028133Y-76978214D01*
X100990292Y-77069572D01*
X100971000Y-77166557D01*
X91898630Y-77166557D01*
X91922708Y-77108428D01*
X91942000Y-77011443D01*
X91942000Y-76912557D01*
X91922708Y-76815572D01*
X91884867Y-76724214D01*
X91829929Y-76641994D01*
X91795492Y-76607557D01*
X93732000Y-76607557D01*
X93732000Y-76706443D01*
X93751292Y-76803428D01*
X93789133Y-76894786D01*
X93844071Y-76977006D01*
X93913994Y-77046929D01*
X93996214Y-77101867D01*
X94087572Y-77139708D01*
X94184557Y-77159000D01*
X94283443Y-77159000D01*
X94380428Y-77139708D01*
X94471786Y-77101867D01*
X94554006Y-77046929D01*
X94623929Y-76977006D01*
X94678867Y-76894786D01*
X94716708Y-76803428D01*
X94736000Y-76706443D01*
X94736000Y-76607557D01*
X95319500Y-76607557D01*
X95319500Y-76706443D01*
X95338792Y-76803428D01*
X95376633Y-76894786D01*
X95431571Y-76977006D01*
X95501494Y-77046929D01*
X95583714Y-77101867D01*
X95675072Y-77139708D01*
X95772057Y-77159000D01*
X95870943Y-77159000D01*
X95967928Y-77139708D01*
X96059286Y-77101867D01*
X96141506Y-77046929D01*
X96211429Y-76977006D01*
X96266367Y-76894786D01*
X96304208Y-76803428D01*
X96323500Y-76706443D01*
X96323500Y-76607557D01*
X96304208Y-76510572D01*
X96266367Y-76419214D01*
X96211429Y-76336994D01*
X96151992Y-76277557D01*
X96907000Y-76277557D01*
X96907000Y-76376443D01*
X96926292Y-76473428D01*
X96964133Y-76564786D01*
X97019071Y-76647006D01*
X97088994Y-76716929D01*
X97171214Y-76771867D01*
X97262572Y-76809708D01*
X97359557Y-76829000D01*
X97458443Y-76829000D01*
X97555428Y-76809708D01*
X97646786Y-76771867D01*
X97729006Y-76716929D01*
X97798929Y-76647006D01*
X97853867Y-76564786D01*
X97891708Y-76473428D01*
X97911000Y-76376443D01*
X97911000Y-76277557D01*
X97891708Y-76180572D01*
X97853867Y-76089214D01*
X97798929Y-76006994D01*
X97729006Y-75937071D01*
X97646786Y-75882133D01*
X97555428Y-75844292D01*
X97458443Y-75825000D01*
X97359557Y-75825000D01*
X97262572Y-75844292D01*
X97171214Y-75882133D01*
X97088994Y-75937071D01*
X97019071Y-76006994D01*
X96964133Y-76089214D01*
X96926292Y-76180572D01*
X96907000Y-76277557D01*
X96151992Y-76277557D01*
X96141506Y-76267071D01*
X96059286Y-76212133D01*
X95967928Y-76174292D01*
X95870943Y-76155000D01*
X95772057Y-76155000D01*
X95675072Y-76174292D01*
X95583714Y-76212133D01*
X95501494Y-76267071D01*
X95431571Y-76336994D01*
X95376633Y-76419214D01*
X95338792Y-76510572D01*
X95319500Y-76607557D01*
X94736000Y-76607557D01*
X94716708Y-76510572D01*
X94678867Y-76419214D01*
X94623929Y-76336994D01*
X94554006Y-76267071D01*
X94471786Y-76212133D01*
X94380428Y-76174292D01*
X94283443Y-76155000D01*
X94184557Y-76155000D01*
X94087572Y-76174292D01*
X93996214Y-76212133D01*
X93913994Y-76267071D01*
X93844071Y-76336994D01*
X93789133Y-76419214D01*
X93751292Y-76510572D01*
X93732000Y-76607557D01*
X91795492Y-76607557D01*
X91760006Y-76572071D01*
X91677786Y-76517133D01*
X91586428Y-76479292D01*
X91489443Y-76460000D01*
X91390557Y-76460000D01*
X91293572Y-76479292D01*
X91202214Y-76517133D01*
X91119994Y-76572071D01*
X91050071Y-76641994D01*
X90995133Y-76724214D01*
X90957292Y-76815572D01*
X90938000Y-76912557D01*
X90374630Y-76912557D01*
X90398708Y-76854428D01*
X90418000Y-76757443D01*
X90418000Y-76658557D01*
X90398708Y-76561572D01*
X90360867Y-76470214D01*
X90305929Y-76387994D01*
X90236006Y-76318071D01*
X90153786Y-76263133D01*
X90062428Y-76225292D01*
X89965443Y-76206000D01*
X89866557Y-76206000D01*
X89769572Y-76225292D01*
X89678214Y-76263133D01*
X89595994Y-76318071D01*
X89526071Y-76387994D01*
X89471133Y-76470214D01*
X89433292Y-76561572D01*
X89414000Y-76658557D01*
X81280000Y-76658557D01*
X81280000Y-73326835D01*
X81334571Y-73408506D01*
X81404494Y-73478429D01*
X81486714Y-73533367D01*
X81578072Y-73571208D01*
X81675057Y-73590500D01*
X81773943Y-73590500D01*
X81870928Y-73571208D01*
X81926794Y-73548068D01*
X81940292Y-73615928D01*
X81978133Y-73707286D01*
X82033071Y-73789506D01*
X82102994Y-73859429D01*
X82185214Y-73914367D01*
X82276572Y-73952208D01*
X82373557Y-73971500D01*
X82472443Y-73971500D01*
X82569428Y-73952208D01*
X82660786Y-73914367D01*
X82743006Y-73859429D01*
X82812929Y-73789506D01*
X82867867Y-73707286D01*
X82905708Y-73615928D01*
X82925000Y-73518943D01*
X82925000Y-73518524D01*
X82947214Y-73533367D01*
X83038572Y-73571208D01*
X83135557Y-73590500D01*
X83234443Y-73590500D01*
X83262987Y-73584822D01*
X85408780Y-73584822D01*
X85408780Y-73683708D01*
X85428072Y-73780693D01*
X85465913Y-73872051D01*
X85495999Y-73917078D01*
X85476413Y-73946391D01*
X85438572Y-74037749D01*
X85419280Y-74134734D01*
X85419280Y-74233620D01*
X85438572Y-74330605D01*
X85476413Y-74421963D01*
X85498294Y-74454710D01*
X85470457Y-74496371D01*
X85432616Y-74587729D01*
X85413324Y-74684714D01*
X85413324Y-74783600D01*
X85432616Y-74880585D01*
X85470457Y-74971943D01*
X85504379Y-75022710D01*
X85470633Y-75073214D01*
X85432792Y-75164572D01*
X85413500Y-75261557D01*
X85413500Y-75360443D01*
X85432792Y-75457428D01*
X85470633Y-75548786D01*
X85525571Y-75631006D01*
X85595494Y-75700929D01*
X85677714Y-75755867D01*
X85769072Y-75793708D01*
X85866057Y-75813000D01*
X85964943Y-75813000D01*
X86061928Y-75793708D01*
X86153286Y-75755867D01*
X86235506Y-75700929D01*
X86305429Y-75631006D01*
X86328266Y-75596829D01*
X86376214Y-75628867D01*
X86467572Y-75666708D01*
X86564557Y-75686000D01*
X86663443Y-75686000D01*
X86760428Y-75666708D01*
X86851786Y-75628867D01*
X86934006Y-75573929D01*
X87003929Y-75504006D01*
X87058867Y-75421786D01*
X87096708Y-75330428D01*
X87116000Y-75233443D01*
X87116000Y-75134557D01*
X88144000Y-75134557D01*
X88144000Y-75233443D01*
X88163292Y-75330428D01*
X88201133Y-75421786D01*
X88256071Y-75504006D01*
X88325994Y-75573929D01*
X88408214Y-75628867D01*
X88499572Y-75666708D01*
X88596557Y-75686000D01*
X88695443Y-75686000D01*
X88792428Y-75666708D01*
X88883786Y-75628867D01*
X88966006Y-75573929D01*
X89035929Y-75504006D01*
X89090867Y-75421786D01*
X89128708Y-75330428D01*
X89148000Y-75233443D01*
X89148000Y-75134557D01*
X89128708Y-75037572D01*
X89090867Y-74946214D01*
X89035929Y-74863994D01*
X88966006Y-74794071D01*
X88883786Y-74739133D01*
X88792428Y-74701292D01*
X88695443Y-74682000D01*
X88596557Y-74682000D01*
X88499572Y-74701292D01*
X88408214Y-74739133D01*
X88325994Y-74794071D01*
X88256071Y-74863994D01*
X88201133Y-74946214D01*
X88163292Y-75037572D01*
X88144000Y-75134557D01*
X87116000Y-75134557D01*
X87096708Y-75037572D01*
X87058867Y-74946214D01*
X87003929Y-74863994D01*
X86934006Y-74794071D01*
X86851786Y-74739133D01*
X86760428Y-74701292D01*
X86663443Y-74682000D01*
X86564557Y-74682000D01*
X86467572Y-74701292D01*
X86417324Y-74722105D01*
X86417324Y-74684714D01*
X86398032Y-74587729D01*
X86360191Y-74496371D01*
X86338310Y-74463624D01*
X86366147Y-74421963D01*
X86403988Y-74330605D01*
X86420905Y-74245557D01*
X92843000Y-74245557D01*
X92843000Y-74344443D01*
X92862292Y-74441428D01*
X92900133Y-74532786D01*
X92955071Y-74615006D01*
X93024994Y-74684929D01*
X93107214Y-74739867D01*
X93198572Y-74777708D01*
X93295557Y-74797000D01*
X93394443Y-74797000D01*
X93491428Y-74777708D01*
X93582786Y-74739867D01*
X93665006Y-74684929D01*
X93734929Y-74615006D01*
X93789867Y-74532786D01*
X93827708Y-74441428D01*
X93847000Y-74344443D01*
X93847000Y-74245557D01*
X93827708Y-74148572D01*
X93789867Y-74057214D01*
X93734929Y-73974994D01*
X93665006Y-73905071D01*
X93582786Y-73850133D01*
X93491428Y-73812292D01*
X93394443Y-73793000D01*
X93295557Y-73793000D01*
X93198572Y-73812292D01*
X93107214Y-73850133D01*
X93024994Y-73905071D01*
X92955071Y-73974994D01*
X92900133Y-74057214D01*
X92862292Y-74148572D01*
X92843000Y-74245557D01*
X86420905Y-74245557D01*
X86423280Y-74233620D01*
X86423280Y-74134734D01*
X86403988Y-74037749D01*
X86366147Y-73946391D01*
X86336061Y-73901364D01*
X86355647Y-73872051D01*
X86393488Y-73780693D01*
X86412780Y-73683708D01*
X86412780Y-73584822D01*
X86393488Y-73487837D01*
X86363060Y-73414375D01*
X86368929Y-73408506D01*
X86423867Y-73326286D01*
X86461708Y-73234928D01*
X86481000Y-73137943D01*
X86481000Y-73039057D01*
X86479045Y-73029225D01*
X96323658Y-73029225D01*
X96323658Y-73128111D01*
X96342950Y-73225096D01*
X96380791Y-73316454D01*
X96435729Y-73398674D01*
X96505652Y-73468597D01*
X96587872Y-73523535D01*
X96615305Y-73534898D01*
X96615305Y-73594432D01*
X96634597Y-73691417D01*
X96672438Y-73782775D01*
X96727376Y-73864995D01*
X96797299Y-73934918D01*
X96840069Y-73963496D01*
X96828571Y-73974994D01*
X96773633Y-74057214D01*
X96735792Y-74148572D01*
X96716500Y-74245557D01*
X96716500Y-74344443D01*
X96735792Y-74441428D01*
X96773633Y-74532786D01*
X96828571Y-74615006D01*
X96898494Y-74684929D01*
X96980714Y-74739867D01*
X97072072Y-74777708D01*
X97169057Y-74797000D01*
X97267943Y-74797000D01*
X97364928Y-74777708D01*
X97456286Y-74739867D01*
X97538506Y-74684929D01*
X97608429Y-74615006D01*
X97663367Y-74532786D01*
X97701208Y-74441428D01*
X97720500Y-74344443D01*
X97720500Y-74245557D01*
X97701208Y-74148572D01*
X97663367Y-74057214D01*
X97608429Y-73974994D01*
X97538506Y-73905071D01*
X97495736Y-73876493D01*
X97507234Y-73864995D01*
X97562172Y-73782775D01*
X97600013Y-73691417D01*
X97619305Y-73594432D01*
X97619305Y-73495546D01*
X97600013Y-73398561D01*
X97562172Y-73307203D01*
X97507234Y-73224983D01*
X97437311Y-73155060D01*
X97355091Y-73100122D01*
X97327658Y-73088759D01*
X97327658Y-73039057D01*
X98177000Y-73039057D01*
X98177000Y-73137943D01*
X98196292Y-73234928D01*
X98234133Y-73326286D01*
X98289071Y-73408506D01*
X98358994Y-73478429D01*
X98441214Y-73533367D01*
X98532572Y-73571208D01*
X98629557Y-73590500D01*
X98728443Y-73590500D01*
X98825428Y-73571208D01*
X98916786Y-73533367D01*
X98939000Y-73518524D01*
X98939000Y-73518943D01*
X98958292Y-73615928D01*
X98996133Y-73707286D01*
X99051071Y-73789506D01*
X99120994Y-73859429D01*
X99203214Y-73914367D01*
X99294572Y-73952208D01*
X99391557Y-73971500D01*
X99490443Y-73971500D01*
X99587428Y-73952208D01*
X99678786Y-73914367D01*
X99761006Y-73859429D01*
X99830929Y-73789506D01*
X99885867Y-73707286D01*
X99923708Y-73615928D01*
X99932488Y-73571788D01*
X100026557Y-73590500D01*
X100125443Y-73590500D01*
X100222428Y-73571208D01*
X100313786Y-73533367D01*
X100396006Y-73478429D01*
X100465929Y-73408506D01*
X100475944Y-73393517D01*
X100482292Y-73425428D01*
X100520133Y-73516786D01*
X100575071Y-73599006D01*
X100644994Y-73668929D01*
X100727214Y-73723867D01*
X100818572Y-73761708D01*
X100915557Y-73781000D01*
X101014443Y-73781000D01*
X101111428Y-73761708D01*
X101121438Y-73757562D01*
X101117292Y-73767572D01*
X101098000Y-73864557D01*
X101098000Y-73963443D01*
X101117292Y-74060428D01*
X101155133Y-74151786D01*
X101210071Y-74234006D01*
X101279994Y-74303929D01*
X101362214Y-74358867D01*
X101453572Y-74396708D01*
X101550557Y-74416000D01*
X101649443Y-74416000D01*
X101746428Y-74396708D01*
X101837786Y-74358867D01*
X101920006Y-74303929D01*
X101989929Y-74234006D01*
X102044867Y-74151786D01*
X102082708Y-74060428D01*
X102102000Y-73963443D01*
X102102000Y-73864557D01*
X102082708Y-73767572D01*
X102044867Y-73676214D01*
X101989929Y-73593994D01*
X101920006Y-73524071D01*
X101837786Y-73469133D01*
X101746428Y-73431292D01*
X101649443Y-73412000D01*
X101550557Y-73412000D01*
X101453572Y-73431292D01*
X101443562Y-73435438D01*
X101447708Y-73425428D01*
X101467000Y-73328443D01*
X101467000Y-73229557D01*
X101447708Y-73132572D01*
X101443562Y-73122562D01*
X101453572Y-73126708D01*
X101550557Y-73146000D01*
X101649443Y-73146000D01*
X101746428Y-73126708D01*
X101837786Y-73088867D01*
X101920006Y-73033929D01*
X101989929Y-72964006D01*
X102044867Y-72881786D01*
X102082708Y-72790428D01*
X102102000Y-72693443D01*
X102102000Y-72594557D01*
X102082708Y-72497572D01*
X102044867Y-72406214D01*
X101989929Y-72323994D01*
X101920006Y-72254071D01*
X101837786Y-72199133D01*
X101746428Y-72161292D01*
X101649443Y-72142000D01*
X101550557Y-72142000D01*
X101453572Y-72161292D01*
X101362214Y-72199133D01*
X101279994Y-72254071D01*
X101210071Y-72323994D01*
X101155133Y-72406214D01*
X101117292Y-72497572D01*
X101098000Y-72594557D01*
X101098000Y-72693443D01*
X101117292Y-72790428D01*
X101121438Y-72800438D01*
X101111428Y-72796292D01*
X101014443Y-72777000D01*
X100915557Y-72777000D01*
X100818572Y-72796292D01*
X100727214Y-72834133D01*
X100644994Y-72889071D01*
X100575071Y-72958994D01*
X100565056Y-72973983D01*
X100558708Y-72942072D01*
X100520867Y-72850714D01*
X100465929Y-72768494D01*
X100396006Y-72698571D01*
X100313786Y-72643633D01*
X100222428Y-72605792D01*
X100125443Y-72586500D01*
X100026557Y-72586500D01*
X99929572Y-72605792D01*
X99838214Y-72643633D01*
X99755994Y-72698571D01*
X99686071Y-72768494D01*
X99631133Y-72850714D01*
X99593292Y-72942072D01*
X99584512Y-72986212D01*
X99490443Y-72967500D01*
X99391557Y-72967500D01*
X99294572Y-72986792D01*
X99203214Y-73024633D01*
X99181000Y-73039476D01*
X99181000Y-73039057D01*
X99161708Y-72942072D01*
X99123867Y-72850714D01*
X99068929Y-72768494D01*
X98999006Y-72698571D01*
X98916786Y-72643633D01*
X98825428Y-72605792D01*
X98728443Y-72586500D01*
X98629557Y-72586500D01*
X98532572Y-72605792D01*
X98441214Y-72643633D01*
X98358994Y-72698571D01*
X98289071Y-72768494D01*
X98234133Y-72850714D01*
X98196292Y-72942072D01*
X98177000Y-73039057D01*
X97327658Y-73039057D01*
X97327658Y-73029225D01*
X97308366Y-72932240D01*
X97270525Y-72840882D01*
X97215587Y-72758662D01*
X97145664Y-72688739D01*
X97063444Y-72633801D01*
X96972086Y-72595960D01*
X96875101Y-72576668D01*
X96776215Y-72576668D01*
X96679230Y-72595960D01*
X96587872Y-72633801D01*
X96505652Y-72688739D01*
X96435729Y-72758662D01*
X96380791Y-72840882D01*
X96342950Y-72932240D01*
X96323658Y-73029225D01*
X86479045Y-73029225D01*
X86461708Y-72942072D01*
X86423867Y-72850714D01*
X86368929Y-72768494D01*
X86299006Y-72698571D01*
X86216786Y-72643633D01*
X86125428Y-72605792D01*
X86028443Y-72586500D01*
X85929557Y-72586500D01*
X85832572Y-72605792D01*
X85741214Y-72643633D01*
X85658994Y-72698571D01*
X85589071Y-72768494D01*
X85534133Y-72850714D01*
X85496292Y-72942072D01*
X85477000Y-73039057D01*
X85477000Y-73137943D01*
X85496292Y-73234928D01*
X85526720Y-73308390D01*
X85520851Y-73314259D01*
X85465913Y-73396479D01*
X85428072Y-73487837D01*
X85408780Y-73584822D01*
X83262987Y-73584822D01*
X83331428Y-73571208D01*
X83422786Y-73533367D01*
X83505006Y-73478429D01*
X83574929Y-73408506D01*
X83629867Y-73326286D01*
X83667708Y-73234928D01*
X83687000Y-73137943D01*
X83687000Y-73039057D01*
X83667708Y-72942072D01*
X83629867Y-72850714D01*
X83574929Y-72768494D01*
X83505006Y-72698571D01*
X83422786Y-72643633D01*
X83331428Y-72605792D01*
X83234443Y-72586500D01*
X83135557Y-72586500D01*
X83038572Y-72605792D01*
X82947214Y-72643633D01*
X82864994Y-72698571D01*
X82795071Y-72768494D01*
X82740133Y-72850714D01*
X82702292Y-72942072D01*
X82683000Y-73039057D01*
X82683000Y-73039476D01*
X82660786Y-73024633D01*
X82569428Y-72986792D01*
X82472443Y-72967500D01*
X82373557Y-72967500D01*
X82276572Y-72986792D01*
X82220706Y-73009932D01*
X82207208Y-72942072D01*
X82169367Y-72850714D01*
X82114429Y-72768494D01*
X82044506Y-72698571D01*
X81962286Y-72643633D01*
X81870928Y-72605792D01*
X81773943Y-72586500D01*
X81675057Y-72586500D01*
X81578072Y-72605792D01*
X81486714Y-72643633D01*
X81404494Y-72698571D01*
X81334571Y-72768494D01*
X81280000Y-72850165D01*
X81280000Y-71628000D01*
X86493000Y-71628000D01*
X86493000Y-71677443D01*
G37*
X86493000Y-71677443D02*
X86512292Y-71774428D01*
X86550133Y-71865786D01*
X86605071Y-71948006D01*
X86674994Y-72017929D01*
X86757214Y-72072867D01*
X86848572Y-72110708D01*
X86945557Y-72130000D01*
X87044443Y-72130000D01*
X87141428Y-72110708D01*
X87199734Y-72086557D01*
X89287000Y-72086557D01*
X89287000Y-72185443D01*
X89306292Y-72282428D01*
X89344133Y-72373786D01*
X89399071Y-72456006D01*
X89468994Y-72525929D01*
X89551214Y-72580867D01*
X89642572Y-72618708D01*
X89739557Y-72638000D01*
X89838443Y-72638000D01*
X89935428Y-72618708D01*
X90026786Y-72580867D01*
X90109006Y-72525929D01*
X90178929Y-72456006D01*
X90233867Y-72373786D01*
X90247630Y-72340557D01*
X90557000Y-72340557D01*
X90557000Y-72439443D01*
X90576292Y-72536428D01*
X90614133Y-72627786D01*
X90669071Y-72710006D01*
X90738994Y-72779929D01*
X90821214Y-72834867D01*
X90912572Y-72872708D01*
X91009557Y-72892000D01*
X91108443Y-72892000D01*
X91205428Y-72872708D01*
X91296786Y-72834867D01*
X91379006Y-72779929D01*
X91448929Y-72710006D01*
X91503867Y-72627786D01*
X91541708Y-72536428D01*
X91561000Y-72439443D01*
X91561000Y-72340557D01*
X91541708Y-72243572D01*
X91503867Y-72152214D01*
X91448929Y-72069994D01*
X91379006Y-72000071D01*
X91296786Y-71945133D01*
X91205428Y-71907292D01*
X91108443Y-71888000D01*
X91009557Y-71888000D01*
X90912572Y-71907292D01*
X90821214Y-71945133D01*
X90738994Y-72000071D01*
X90669071Y-72069994D01*
X90614133Y-72152214D01*
X90576292Y-72243572D01*
X90557000Y-72340557D01*
X90247630Y-72340557D01*
X90271708Y-72282428D01*
X90291000Y-72185443D01*
X90291000Y-72086557D01*
X90271708Y-71989572D01*
X90233867Y-71898214D01*
X90178929Y-71815994D01*
X90109006Y-71746071D01*
X90026786Y-71691133D01*
X89935428Y-71653292D01*
X89838443Y-71634000D01*
X89739557Y-71634000D01*
X89642572Y-71653292D01*
X89551214Y-71691133D01*
X89468994Y-71746071D01*
X89399071Y-71815994D01*
X89344133Y-71898214D01*
X89306292Y-71989572D01*
X89287000Y-72086557D01*
X87199734Y-72086557D01*
X87232786Y-72072867D01*
X87315006Y-72017929D01*
X87384929Y-71948006D01*
X87439867Y-71865786D01*
X87477708Y-71774428D01*
X87497000Y-71677443D01*
X87497000Y-71628000D01*
X104267000Y-71628000D01*
X104267000Y-73458897D01*
X104187286Y-73405633D01*
X104095928Y-73367792D01*
X103998943Y-73348500D01*
X103900057Y-73348500D01*
X103803072Y-73367792D01*
X103711714Y-73405633D01*
X103629494Y-73460571D01*
X103559571Y-73530494D01*
X103504633Y-73612714D01*
X103466792Y-73704072D01*
X103447500Y-73801057D01*
X103447500Y-73899943D01*
X103466792Y-73996928D01*
X103504633Y-74088286D01*
X103559571Y-74170506D01*
X103629494Y-74240429D01*
X103711714Y-74295367D01*
X103803072Y-74333208D01*
X103900057Y-74352500D01*
X103998943Y-74352500D01*
X104095928Y-74333208D01*
X104187286Y-74295367D01*
X104267000Y-74242103D01*
X104267000Y-75256714D01*
X104238301Y-75248008D01*
X104184000Y-75242660D01*
X103334000Y-75242660D01*
X103279699Y-75248008D01*
X103227484Y-75263847D01*
X103179363Y-75289569D01*
X103137184Y-75324184D01*
X103102569Y-75366363D01*
X103076847Y-75414484D01*
X103061008Y-75466699D01*
X103055660Y-75521000D01*
X103055660Y-76371000D01*
X103061008Y-76425301D01*
X103076847Y-76477516D01*
X103102569Y-76525637D01*
X103137184Y-76567816D01*
X103156703Y-76583834D01*
X103136895Y-76613478D01*
X103083977Y-76741234D01*
X103057000Y-76876859D01*
X103057000Y-77015141D01*
X103083977Y-77150766D01*
X103136895Y-77278522D01*
X103213721Y-77393499D01*
X103311501Y-77491279D01*
X103426478Y-77568105D01*
X103554234Y-77621023D01*
X103689859Y-77648000D01*
X103828141Y-77648000D01*
X103963766Y-77621023D01*
X104091522Y-77568105D01*
X104206499Y-77491279D01*
X104267000Y-77430778D01*
X104267000Y-81713065D01*
X104206006Y-81652071D01*
X104123786Y-81597133D01*
X104032428Y-81559292D01*
X103935443Y-81540000D01*
X103836557Y-81540000D01*
X103739572Y-81559292D01*
X103648214Y-81597133D01*
X103565994Y-81652071D01*
X103496071Y-81721994D01*
X103441133Y-81804214D01*
X103403292Y-81895572D01*
X103384000Y-81992557D01*
X103384000Y-82091443D01*
X103403292Y-82188428D01*
X103441133Y-82279786D01*
X103496071Y-82362006D01*
X103565994Y-82431929D01*
X103648214Y-82486867D01*
X103739572Y-82524708D01*
X103836557Y-82544000D01*
X103935443Y-82544000D01*
X104032428Y-82524708D01*
X104123786Y-82486867D01*
X104206006Y-82431929D01*
X104267000Y-82370935D01*
X104267000Y-99441000D01*
X81280000Y-99441000D01*
X81280000Y-98121557D01*
X82810000Y-98121557D01*
X82810000Y-98220443D01*
X82829292Y-98317428D01*
X82867133Y-98408786D01*
X82922071Y-98491006D01*
X82991994Y-98560929D01*
X83074214Y-98615867D01*
X83165572Y-98653708D01*
X83262557Y-98673000D01*
X83361443Y-98673000D01*
X83458428Y-98653708D01*
X83549786Y-98615867D01*
X83632006Y-98560929D01*
X83701929Y-98491006D01*
X83756867Y-98408786D01*
X83794708Y-98317428D01*
X83814000Y-98220443D01*
X83814000Y-98121557D01*
X83801369Y-98058057D01*
X85223000Y-98058057D01*
X85223000Y-98156943D01*
X85242292Y-98253928D01*
X85280133Y-98345286D01*
X85335071Y-98427506D01*
X85404994Y-98497429D01*
X85487214Y-98552367D01*
X85578572Y-98590208D01*
X85675557Y-98609500D01*
X85774443Y-98609500D01*
X85871428Y-98590208D01*
X85962786Y-98552367D01*
X86045006Y-98497429D01*
X86114929Y-98427506D01*
X86169867Y-98345286D01*
X86206619Y-98256557D01*
X94387000Y-98256557D01*
X94387000Y-98355443D01*
X94406292Y-98452428D01*
X94444133Y-98543786D01*
X94499071Y-98626006D01*
X94568994Y-98695929D01*
X94651214Y-98750867D01*
X94742572Y-98788708D01*
X94839557Y-98808000D01*
X94938443Y-98808000D01*
X95035428Y-98788708D01*
X95126786Y-98750867D01*
X95209006Y-98695929D01*
X95278929Y-98626006D01*
X95333867Y-98543786D01*
X95371708Y-98452428D01*
X95391000Y-98355443D01*
X95391000Y-98256557D01*
X96987000Y-98256557D01*
X96987000Y-98355443D01*
X97006292Y-98452428D01*
X97044133Y-98543786D01*
X97099071Y-98626006D01*
X97168994Y-98695929D01*
X97251214Y-98750867D01*
X97342572Y-98788708D01*
X97439557Y-98808000D01*
X97538443Y-98808000D01*
X97635428Y-98788708D01*
X97726786Y-98750867D01*
X97809006Y-98695929D01*
X97878929Y-98626006D01*
X97933867Y-98543786D01*
X97971708Y-98452428D01*
X97991000Y-98355443D01*
X97991000Y-98256557D01*
X99387000Y-98256557D01*
X99387000Y-98355443D01*
X99406292Y-98452428D01*
X99444133Y-98543786D01*
X99499071Y-98626006D01*
X99568994Y-98695929D01*
X99651214Y-98750867D01*
X99742572Y-98788708D01*
X99839557Y-98808000D01*
X99938443Y-98808000D01*
X100035428Y-98788708D01*
X100126786Y-98750867D01*
X100209006Y-98695929D01*
X100278929Y-98626006D01*
X100333867Y-98543786D01*
X100371708Y-98452428D01*
X100391000Y-98355443D01*
X100391000Y-98256557D01*
X101987000Y-98256557D01*
X101987000Y-98355443D01*
X102006292Y-98452428D01*
X102044133Y-98543786D01*
X102099071Y-98626006D01*
X102168994Y-98695929D01*
X102251214Y-98750867D01*
X102342572Y-98788708D01*
X102439557Y-98808000D01*
X102538443Y-98808000D01*
X102635428Y-98788708D01*
X102726786Y-98750867D01*
X102809006Y-98695929D01*
X102878929Y-98626006D01*
X102933867Y-98543786D01*
X102971708Y-98452428D01*
X102991000Y-98355443D01*
X102991000Y-98256557D01*
X102971708Y-98159572D01*
X102933867Y-98068214D01*
X102878929Y-97985994D01*
X102809006Y-97916071D01*
X102726786Y-97861133D01*
X102635428Y-97823292D01*
X102538443Y-97804000D01*
X102439557Y-97804000D01*
X102342572Y-97823292D01*
X102251214Y-97861133D01*
X102168994Y-97916071D01*
X102099071Y-97985994D01*
X102044133Y-98068214D01*
X102006292Y-98159572D01*
X101987000Y-98256557D01*
X100391000Y-98256557D01*
X100371708Y-98159572D01*
X100333867Y-98068214D01*
X100278929Y-97985994D01*
X100209006Y-97916071D01*
X100126786Y-97861133D01*
X100035428Y-97823292D01*
X99938443Y-97804000D01*
X99839557Y-97804000D01*
X99742572Y-97823292D01*
X99651214Y-97861133D01*
X99568994Y-97916071D01*
X99499071Y-97985994D01*
X99444133Y-98068214D01*
X99406292Y-98159572D01*
X99387000Y-98256557D01*
X97991000Y-98256557D01*
X97971708Y-98159572D01*
X97933867Y-98068214D01*
X97878929Y-97985994D01*
X97809006Y-97916071D01*
X97726786Y-97861133D01*
X97635428Y-97823292D01*
X97538443Y-97804000D01*
X97439557Y-97804000D01*
X97342572Y-97823292D01*
X97251214Y-97861133D01*
X97168994Y-97916071D01*
X97099071Y-97985994D01*
X97044133Y-98068214D01*
X97006292Y-98159572D01*
X96987000Y-98256557D01*
X95391000Y-98256557D01*
X95371708Y-98159572D01*
X95333867Y-98068214D01*
X95278929Y-97985994D01*
X95209006Y-97916071D01*
X95126786Y-97861133D01*
X95035428Y-97823292D01*
X94938443Y-97804000D01*
X94839557Y-97804000D01*
X94742572Y-97823292D01*
X94651214Y-97861133D01*
X94568994Y-97916071D01*
X94499071Y-97985994D01*
X94444133Y-98068214D01*
X94406292Y-98159572D01*
X94387000Y-98256557D01*
X86206619Y-98256557D01*
X86207708Y-98253928D01*
X86227000Y-98156943D01*
X86227000Y-98058057D01*
X86207708Y-97961072D01*
X86169867Y-97869714D01*
X86114929Y-97787494D01*
X86045006Y-97717571D01*
X85962786Y-97662633D01*
X85871428Y-97624792D01*
X85774443Y-97605500D01*
X85675557Y-97605500D01*
X85578572Y-97624792D01*
X85487214Y-97662633D01*
X85404994Y-97717571D01*
X85335071Y-97787494D01*
X85280133Y-97869714D01*
X85242292Y-97961072D01*
X85223000Y-98058057D01*
X83801369Y-98058057D01*
X83794708Y-98024572D01*
X83756867Y-97933214D01*
X83701929Y-97850994D01*
X83632006Y-97781071D01*
X83549786Y-97726133D01*
X83458428Y-97688292D01*
X83361443Y-97669000D01*
X83262557Y-97669000D01*
X83165572Y-97688292D01*
X83074214Y-97726133D01*
X82991994Y-97781071D01*
X82922071Y-97850994D01*
X82867133Y-97933214D01*
X82829292Y-98024572D01*
X82810000Y-98121557D01*
X81280000Y-98121557D01*
X81280000Y-96915057D01*
X83127500Y-96915057D01*
X83127500Y-97013943D01*
X83146792Y-97110928D01*
X83184633Y-97202286D01*
X83239571Y-97284506D01*
X83309494Y-97354429D01*
X83391714Y-97409367D01*
X83483072Y-97447208D01*
X83580057Y-97466500D01*
X83678943Y-97466500D01*
X83775928Y-97447208D01*
X83867286Y-97409367D01*
X83949506Y-97354429D01*
X84019429Y-97284506D01*
X84074367Y-97202286D01*
X84112208Y-97110928D01*
X84131500Y-97013943D01*
X84131500Y-96915057D01*
X84112208Y-96818072D01*
X84074367Y-96726714D01*
X84019429Y-96644494D01*
X83949506Y-96574571D01*
X83867286Y-96519633D01*
X83775928Y-96481792D01*
X83678943Y-96462500D01*
X83580057Y-96462500D01*
X83483072Y-96481792D01*
X83391714Y-96519633D01*
X83309494Y-96574571D01*
X83239571Y-96644494D01*
X83184633Y-96726714D01*
X83146792Y-96818072D01*
X83127500Y-96915057D01*
X81280000Y-96915057D01*
X81280000Y-96343557D01*
X81413000Y-96343557D01*
X81413000Y-96442443D01*
X81432292Y-96539428D01*
X81470133Y-96630786D01*
X81525071Y-96713006D01*
X81594994Y-96782929D01*
X81677214Y-96837867D01*
X81768572Y-96875708D01*
X81865557Y-96895000D01*
X81964443Y-96895000D01*
X82061428Y-96875708D01*
X82152786Y-96837867D01*
X82235006Y-96782929D01*
X82304929Y-96713006D01*
X82359867Y-96630786D01*
X82397708Y-96539428D01*
X82417000Y-96442443D01*
X82417000Y-96407057D01*
X88334500Y-96407057D01*
X88334500Y-96505943D01*
X88353792Y-96602928D01*
X88391633Y-96694286D01*
X88446571Y-96776506D01*
X88516494Y-96846429D01*
X88598714Y-96901367D01*
X88690072Y-96939208D01*
X88787057Y-96958500D01*
X88885943Y-96958500D01*
X88982928Y-96939208D01*
X89074286Y-96901367D01*
X89156506Y-96846429D01*
X89226429Y-96776506D01*
X89281367Y-96694286D01*
X89316047Y-96610559D01*
X92017500Y-96610559D01*
X92017500Y-96709445D01*
X92036792Y-96806430D01*
X92074633Y-96897788D01*
X92129571Y-96980008D01*
X92199494Y-97049931D01*
X92281714Y-97104869D01*
X92373072Y-97142710D01*
X92470057Y-97162002D01*
X92568943Y-97162002D01*
X92665928Y-97142710D01*
X92757286Y-97104869D01*
X92839506Y-97049931D01*
X92909429Y-96980008D01*
X92910398Y-96978557D01*
X93224000Y-96978557D01*
X93224000Y-97077443D01*
X93243292Y-97174428D01*
X93281133Y-97265786D01*
X93336071Y-97348006D01*
X93405994Y-97417929D01*
X93488214Y-97472867D01*
X93579572Y-97510708D01*
X93676557Y-97530000D01*
X93775443Y-97530000D01*
X93872428Y-97510708D01*
X93963786Y-97472867D01*
X94046006Y-97417929D01*
X94115929Y-97348006D01*
X94170867Y-97265786D01*
X94208708Y-97174428D01*
X94228000Y-97077443D01*
X94228000Y-96978557D01*
X94208708Y-96881572D01*
X94170867Y-96790214D01*
X94115929Y-96707994D01*
X94046006Y-96638071D01*
X93963786Y-96583133D01*
X93872428Y-96545292D01*
X93775443Y-96526000D01*
X93676557Y-96526000D01*
X93579572Y-96545292D01*
X93488214Y-96583133D01*
X93405994Y-96638071D01*
X93336071Y-96707994D01*
X93281133Y-96790214D01*
X93243292Y-96881572D01*
X93224000Y-96978557D01*
X92910398Y-96978557D01*
X92964367Y-96897788D01*
X93002208Y-96806430D01*
X93021500Y-96709445D01*
X93021500Y-96610559D01*
X93002208Y-96513574D01*
X92964367Y-96422216D01*
X92909429Y-96339996D01*
X92839506Y-96270073D01*
X92757286Y-96215135D01*
X92665928Y-96177294D01*
X92568943Y-96158002D01*
X92470057Y-96158002D01*
X92373072Y-96177294D01*
X92281714Y-96215135D01*
X92199494Y-96270073D01*
X92129571Y-96339996D01*
X92074633Y-96422216D01*
X92036792Y-96513574D01*
X92017500Y-96610559D01*
X89316047Y-96610559D01*
X89319208Y-96602928D01*
X89338500Y-96505943D01*
X89338500Y-96407057D01*
X89319208Y-96310072D01*
X89281367Y-96218714D01*
X89226429Y-96136494D01*
X89156506Y-96066571D01*
X89074286Y-96011633D01*
X88982928Y-95973792D01*
X88885943Y-95954500D01*
X88787057Y-95954500D01*
X88690072Y-95973792D01*
X88598714Y-96011633D01*
X88516494Y-96066571D01*
X88446571Y-96136494D01*
X88391633Y-96218714D01*
X88353792Y-96310072D01*
X88334500Y-96407057D01*
X82417000Y-96407057D01*
X82417000Y-96343557D01*
X82397708Y-96246572D01*
X82359867Y-96155214D01*
X82304929Y-96072994D01*
X82235006Y-96003071D01*
X82152786Y-95948133D01*
X82061428Y-95910292D01*
X81964443Y-95891000D01*
X81865557Y-95891000D01*
X81768572Y-95910292D01*
X81677214Y-95948133D01*
X81594994Y-96003071D01*
X81525071Y-96072994D01*
X81470133Y-96155214D01*
X81432292Y-96246572D01*
X81413000Y-96343557D01*
X81280000Y-96343557D01*
X81280000Y-95391057D01*
X102749000Y-95391057D01*
X102749000Y-95489943D01*
X102768292Y-95586928D01*
X102806133Y-95678286D01*
X102861071Y-95760506D01*
X102930994Y-95830429D01*
X103013214Y-95885367D01*
X103104572Y-95923208D01*
X103201557Y-95942500D01*
X103300443Y-95942500D01*
X103397428Y-95923208D01*
X103488786Y-95885367D01*
X103571006Y-95830429D01*
X103640929Y-95760506D01*
X103695867Y-95678286D01*
X103733708Y-95586928D01*
X103753000Y-95489943D01*
X103753000Y-95391057D01*
X103733708Y-95294072D01*
X103695867Y-95202714D01*
X103640929Y-95120494D01*
X103571006Y-95050571D01*
X103488786Y-94995633D01*
X103397428Y-94957792D01*
X103300443Y-94938500D01*
X103201557Y-94938500D01*
X103104572Y-94957792D01*
X103013214Y-94995633D01*
X102930994Y-95050571D01*
X102861071Y-95120494D01*
X102806133Y-95202714D01*
X102768292Y-95294072D01*
X102749000Y-95391057D01*
X81280000Y-95391057D01*
X81280000Y-94438557D01*
X81413000Y-94438557D01*
X81413000Y-94537443D01*
X81432292Y-94634428D01*
X81470133Y-94725786D01*
X81525071Y-94808006D01*
X81594994Y-94877929D01*
X81677214Y-94932867D01*
X81768572Y-94970708D01*
X81865557Y-94990000D01*
X81964443Y-94990000D01*
X82061428Y-94970708D01*
X82152786Y-94932867D01*
X82235006Y-94877929D01*
X82304929Y-94808006D01*
X82359867Y-94725786D01*
X82397708Y-94634428D01*
X82417000Y-94537443D01*
X82417000Y-94438557D01*
X82397708Y-94341572D01*
X82359867Y-94250214D01*
X82304929Y-94167994D01*
X82235006Y-94098071D01*
X82174373Y-94057557D01*
X86747000Y-94057557D01*
X86747000Y-94156443D01*
X86766292Y-94253428D01*
X86804133Y-94344786D01*
X86859071Y-94427006D01*
X86928994Y-94496929D01*
X87011214Y-94551867D01*
X87102572Y-94589708D01*
X87199557Y-94609000D01*
X87298443Y-94609000D01*
X87395428Y-94589708D01*
X87453734Y-94565557D01*
X90100000Y-94565557D01*
X90100000Y-94664443D01*
X90119292Y-94761428D01*
X90157133Y-94852786D01*
X90212071Y-94935006D01*
X90281994Y-95004929D01*
X90364214Y-95059867D01*
X90455572Y-95097708D01*
X90552557Y-95117000D01*
X90651443Y-95117000D01*
X90748428Y-95097708D01*
X90839786Y-95059867D01*
X90922006Y-95004929D01*
X90991929Y-94935006D01*
X91046867Y-94852786D01*
X91084708Y-94761428D01*
X91104000Y-94664443D01*
X91104000Y-94565557D01*
X91084708Y-94468572D01*
X91046867Y-94377214D01*
X90991929Y-94294994D01*
X90922006Y-94225071D01*
X90839786Y-94170133D01*
X90748428Y-94132292D01*
X90651443Y-94113000D01*
X90552557Y-94113000D01*
X90455572Y-94132292D01*
X90364214Y-94170133D01*
X90281994Y-94225071D01*
X90212071Y-94294994D01*
X90157133Y-94377214D01*
X90119292Y-94468572D01*
X90100000Y-94565557D01*
X87453734Y-94565557D01*
X87486786Y-94551867D01*
X87569006Y-94496929D01*
X87638929Y-94427006D01*
X87693867Y-94344786D01*
X87731708Y-94253428D01*
X87751000Y-94156443D01*
X87751000Y-94057557D01*
X87731708Y-93960572D01*
X87693867Y-93869214D01*
X87649997Y-93803557D01*
X96145000Y-93803557D01*
X96145000Y-93902443D01*
X96164292Y-93999428D01*
X96202133Y-94090786D01*
X96257071Y-94173006D01*
X96326994Y-94242929D01*
X96342781Y-94253478D01*
X96339722Y-94260863D01*
X96320430Y-94357848D01*
X96320430Y-94456734D01*
X96339722Y-94553719D01*
X96377563Y-94645077D01*
X96432501Y-94727297D01*
X96502424Y-94797220D01*
X96584644Y-94852158D01*
X96676002Y-94889999D01*
X96772987Y-94909291D01*
X96871873Y-94909291D01*
X96907000Y-94902304D01*
X96907000Y-94918443D01*
X96926292Y-95015428D01*
X96964133Y-95106786D01*
X97019071Y-95189006D01*
X97088994Y-95258929D01*
X97171214Y-95313867D01*
X97262572Y-95351708D01*
X97359557Y-95371000D01*
X97458443Y-95371000D01*
X97555428Y-95351708D01*
X97646786Y-95313867D01*
X97729006Y-95258929D01*
X97798929Y-95189006D01*
X97853867Y-95106786D01*
X97891708Y-95015428D01*
X97911000Y-94918443D01*
X97911000Y-94819557D01*
X97891708Y-94722572D01*
X97853867Y-94631214D01*
X97798929Y-94548994D01*
X97729006Y-94479071D01*
X97646786Y-94424133D01*
X97555428Y-94386292D01*
X97458443Y-94367000D01*
X97359557Y-94367000D01*
X97324430Y-94373987D01*
X97324430Y-94357848D01*
X97313781Y-94304315D01*
X97389572Y-94335708D01*
X97486557Y-94355000D01*
X97585443Y-94355000D01*
X97682428Y-94335708D01*
X97773786Y-94297867D01*
X97856006Y-94242929D01*
X97925929Y-94173006D01*
X97980867Y-94090786D01*
X98018708Y-93999428D01*
X98038000Y-93902443D01*
X98038000Y-93803557D01*
X98018708Y-93706572D01*
X97980867Y-93615214D01*
X97936996Y-93549557D01*
X99828000Y-93549557D01*
X99828000Y-93648443D01*
X99847292Y-93745428D01*
X99885133Y-93836786D01*
X99898640Y-93857000D01*
X99885133Y-93877214D01*
X99847292Y-93968572D01*
X99828000Y-94065557D01*
X99828000Y-94164443D01*
X99847292Y-94261428D01*
X99885133Y-94352786D01*
X99940071Y-94435006D01*
X100009994Y-94504929D01*
X100092214Y-94559867D01*
X100183572Y-94597708D01*
X100280557Y-94617000D01*
X100379443Y-94617000D01*
X100476428Y-94597708D01*
X100567786Y-94559867D01*
X100650006Y-94504929D01*
X100719929Y-94435006D01*
X100774867Y-94352786D01*
X100812708Y-94261428D01*
X100832000Y-94164443D01*
X100832000Y-94065557D01*
X100812708Y-93968572D01*
X100774867Y-93877214D01*
X100761360Y-93857000D01*
X100774867Y-93836786D01*
X100812708Y-93745428D01*
X100826407Y-93676557D01*
X102759823Y-93676557D01*
X102759823Y-93775443D01*
X102779115Y-93872428D01*
X102816956Y-93963786D01*
X102871894Y-94046006D01*
X102941817Y-94115929D01*
X103024037Y-94170867D01*
X103115395Y-94208708D01*
X103212380Y-94228000D01*
X103311266Y-94228000D01*
X103408251Y-94208708D01*
X103499609Y-94170867D01*
X103581829Y-94115929D01*
X103651752Y-94046006D01*
X103706690Y-93963786D01*
X103744531Y-93872428D01*
X103763823Y-93775443D01*
X103763823Y-93676557D01*
X103744531Y-93579572D01*
X103706690Y-93488214D01*
X103696104Y-93472371D01*
X103731782Y-93448532D01*
X103801705Y-93378609D01*
X103856643Y-93296389D01*
X103894484Y-93205031D01*
X103913776Y-93108046D01*
X103913776Y-93009160D01*
X103894484Y-92912175D01*
X103856643Y-92820817D01*
X103801705Y-92738597D01*
X103731782Y-92668674D01*
X103649562Y-92613736D01*
X103558204Y-92575895D01*
X103461219Y-92556603D01*
X103362333Y-92556603D01*
X103265348Y-92575895D01*
X103173990Y-92613736D01*
X103091770Y-92668674D01*
X103021847Y-92738597D01*
X102966909Y-92820817D01*
X102929068Y-92912175D01*
X102909776Y-93009160D01*
X102909776Y-93108046D01*
X102929068Y-93205031D01*
X102966909Y-93296389D01*
X102977495Y-93312232D01*
X102941817Y-93336071D01*
X102871894Y-93405994D01*
X102816956Y-93488214D01*
X102779115Y-93579572D01*
X102759823Y-93676557D01*
X100826407Y-93676557D01*
X100832000Y-93648443D01*
X100832000Y-93549557D01*
X100812708Y-93452572D01*
X100774867Y-93361214D01*
X100719929Y-93278994D01*
X100650006Y-93209071D01*
X100567786Y-93154133D01*
X100476428Y-93116292D01*
X100379443Y-93097000D01*
X100280557Y-93097000D01*
X100183572Y-93116292D01*
X100092214Y-93154133D01*
X100009994Y-93209071D01*
X99940071Y-93278994D01*
X99885133Y-93361214D01*
X99847292Y-93452572D01*
X99828000Y-93549557D01*
X97936996Y-93549557D01*
X97927603Y-93535500D01*
X97980867Y-93455786D01*
X98018708Y-93364428D01*
X98038000Y-93267443D01*
X98038000Y-93168557D01*
X98018708Y-93071572D01*
X97980867Y-92980214D01*
X97932107Y-92907240D01*
X97936451Y-92904338D01*
X98006374Y-92834415D01*
X98061312Y-92752195D01*
X98099153Y-92660837D01*
X98118445Y-92563852D01*
X98118445Y-92464966D01*
X98099153Y-92367981D01*
X98061312Y-92276623D01*
X98006374Y-92194403D01*
X97936451Y-92124480D01*
X97854231Y-92069542D01*
X97762873Y-92031701D01*
X97665888Y-92012409D01*
X97567002Y-92012409D01*
X97470017Y-92031701D01*
X97378659Y-92069542D01*
X97296439Y-92124480D01*
X97226516Y-92194403D01*
X97171578Y-92276623D01*
X97133737Y-92367981D01*
X97114445Y-92464966D01*
X97114445Y-92563852D01*
X97133737Y-92660837D01*
X97171578Y-92752195D01*
X97220338Y-92825169D01*
X97215994Y-92828071D01*
X97146071Y-92897994D01*
X97091133Y-92980214D01*
X97053292Y-93071572D01*
X97034000Y-93168557D01*
X97034000Y-93267443D01*
X97053292Y-93364428D01*
X97091133Y-93455786D01*
X97144397Y-93535500D01*
X97091500Y-93614665D01*
X97036929Y-93532994D01*
X96967006Y-93463071D01*
X96884786Y-93408133D01*
X96793428Y-93370292D01*
X96696443Y-93351000D01*
X96597557Y-93351000D01*
X96500572Y-93370292D01*
X96409214Y-93408133D01*
X96326994Y-93463071D01*
X96257071Y-93532994D01*
X96202133Y-93615214D01*
X96164292Y-93706572D01*
X96145000Y-93803557D01*
X87649997Y-93803557D01*
X87638929Y-93786994D01*
X87569006Y-93717071D01*
X87486786Y-93662133D01*
X87395428Y-93624292D01*
X87298443Y-93605000D01*
X87199557Y-93605000D01*
X87102572Y-93624292D01*
X87011214Y-93662133D01*
X86928994Y-93717071D01*
X86859071Y-93786994D01*
X86804133Y-93869214D01*
X86766292Y-93960572D01*
X86747000Y-94057557D01*
X82174373Y-94057557D01*
X82152786Y-94043133D01*
X82061428Y-94005292D01*
X81964443Y-93986000D01*
X81865557Y-93986000D01*
X81768572Y-94005292D01*
X81677214Y-94043133D01*
X81594994Y-94098071D01*
X81525071Y-94167994D01*
X81470133Y-94250214D01*
X81432292Y-94341572D01*
X81413000Y-94438557D01*
X81280000Y-94438557D01*
X81280000Y-92851057D01*
X82746500Y-92851057D01*
X82746500Y-92949943D01*
X82765792Y-93046928D01*
X82803633Y-93138286D01*
X82858571Y-93220506D01*
X82928494Y-93290429D01*
X83010714Y-93345367D01*
X83102072Y-93383208D01*
X83199057Y-93402500D01*
X83297943Y-93402500D01*
X83394928Y-93383208D01*
X83486286Y-93345367D01*
X83568506Y-93290429D01*
X83638429Y-93220506D01*
X83693367Y-93138286D01*
X83705188Y-93109747D01*
X83772714Y-93154867D01*
X83864072Y-93192708D01*
X83961057Y-93212000D01*
X84059943Y-93212000D01*
X84156928Y-93192708D01*
X84248286Y-93154867D01*
X84330506Y-93099929D01*
X84400429Y-93030006D01*
X84455367Y-92947786D01*
X84469130Y-92914557D01*
X87128000Y-92914557D01*
X87128000Y-93013443D01*
X87147292Y-93110428D01*
X87185133Y-93201786D01*
X87240071Y-93284006D01*
X87309994Y-93353929D01*
X87392214Y-93408867D01*
X87483572Y-93446708D01*
X87580557Y-93466000D01*
X87679443Y-93466000D01*
X87776428Y-93446708D01*
X87867786Y-93408867D01*
X87950006Y-93353929D01*
X88019929Y-93284006D01*
X88074867Y-93201786D01*
X88112708Y-93110428D01*
X88132000Y-93013443D01*
X88132000Y-92914557D01*
X88112708Y-92817572D01*
X88074867Y-92726214D01*
X88019929Y-92643994D01*
X87950006Y-92574071D01*
X87867786Y-92519133D01*
X87776428Y-92481292D01*
X87679443Y-92462000D01*
X87580557Y-92462000D01*
X87483572Y-92481292D01*
X87392214Y-92519133D01*
X87309994Y-92574071D01*
X87240071Y-92643994D01*
X87185133Y-92726214D01*
X87147292Y-92817572D01*
X87128000Y-92914557D01*
X84469130Y-92914557D01*
X84493208Y-92856428D01*
X84512500Y-92759443D01*
X84512500Y-92660557D01*
X84493208Y-92563572D01*
X84455367Y-92472214D01*
X84400429Y-92389994D01*
X84330506Y-92320071D01*
X84248286Y-92265133D01*
X84156928Y-92227292D01*
X84059943Y-92208000D01*
X83961057Y-92208000D01*
X83864072Y-92227292D01*
X83772714Y-92265133D01*
X83690494Y-92320071D01*
X83620571Y-92389994D01*
X83565633Y-92472214D01*
X83553812Y-92500753D01*
X83486286Y-92455633D01*
X83394928Y-92417792D01*
X83297943Y-92398500D01*
X83199057Y-92398500D01*
X83102072Y-92417792D01*
X83010714Y-92455633D01*
X82928494Y-92510571D01*
X82858571Y-92580494D01*
X82803633Y-92662714D01*
X82765792Y-92754072D01*
X82746500Y-92851057D01*
X81280000Y-92851057D01*
X81280000Y-91223419D01*
X98238718Y-91223419D01*
X98238718Y-91322305D01*
X98258010Y-91419290D01*
X98295851Y-91510648D01*
X98350789Y-91592868D01*
X98420712Y-91662791D01*
X98502932Y-91717729D01*
X98594290Y-91755570D01*
X98663606Y-91769358D01*
X98596072Y-91782792D01*
X98504714Y-91820633D01*
X98422494Y-91875571D01*
X98352571Y-91945494D01*
X98297633Y-92027714D01*
X98259792Y-92119072D01*
X98240500Y-92216057D01*
X98240500Y-92314943D01*
X98259792Y-92411928D01*
X98297633Y-92503286D01*
X98352571Y-92585506D01*
X98422494Y-92655429D01*
X98504714Y-92710367D01*
X98596072Y-92748208D01*
X98693057Y-92767500D01*
X98791943Y-92767500D01*
X98888928Y-92748208D01*
X98980286Y-92710367D01*
X99062506Y-92655429D01*
X99132429Y-92585506D01*
X99187367Y-92503286D01*
X99225208Y-92411928D01*
X99244500Y-92314943D01*
X99244500Y-92216057D01*
X99225208Y-92119072D01*
X99187367Y-92027714D01*
X99132429Y-91945494D01*
X99062506Y-91875571D01*
X98980286Y-91820633D01*
X98888928Y-91782792D01*
X98819612Y-91769004D01*
X98887146Y-91755570D01*
X98978504Y-91717729D01*
X99060724Y-91662791D01*
X99130647Y-91592868D01*
X99185585Y-91510648D01*
X99223426Y-91419290D01*
X99242718Y-91322305D01*
X99242718Y-91223419D01*
X99223426Y-91126434D01*
X99185585Y-91035076D01*
X99130647Y-90952856D01*
X99117858Y-90940067D01*
X101235377Y-90940067D01*
X101235377Y-91038953D01*
X101254669Y-91135938D01*
X101292510Y-91227296D01*
X101347448Y-91309516D01*
X101417371Y-91379439D01*
X101499591Y-91434377D01*
X101590949Y-91472218D01*
X101687934Y-91491510D01*
X101786820Y-91491510D01*
X101883805Y-91472218D01*
X101975163Y-91434377D01*
X102057383Y-91379439D01*
X102127306Y-91309516D01*
X102182244Y-91227296D01*
X102220085Y-91135938D01*
X102239377Y-91038953D01*
X102239377Y-90940067D01*
X102220085Y-90843082D01*
X102182244Y-90751724D01*
X102127306Y-90669504D01*
X102057383Y-90599581D01*
X101975163Y-90544643D01*
X101883805Y-90506802D01*
X101786820Y-90487510D01*
X101687934Y-90487510D01*
X101590949Y-90506802D01*
X101499591Y-90544643D01*
X101417371Y-90599581D01*
X101347448Y-90669504D01*
X101292510Y-90751724D01*
X101254669Y-90843082D01*
X101235377Y-90940067D01*
X99117858Y-90940067D01*
X99060724Y-90882933D01*
X98978504Y-90827995D01*
X98887146Y-90790154D01*
X98790161Y-90770862D01*
X98691275Y-90770862D01*
X98594290Y-90790154D01*
X98502932Y-90827995D01*
X98420712Y-90882933D01*
X98350789Y-90952856D01*
X98295851Y-91035076D01*
X98258010Y-91126434D01*
X98238718Y-91223419D01*
X81280000Y-91223419D01*
X81280000Y-90593139D01*
X84710001Y-90593139D01*
X84710001Y-90692025D01*
X84729293Y-90789010D01*
X84767134Y-90880368D01*
X84822072Y-90962588D01*
X84891995Y-91032511D01*
X84974215Y-91087449D01*
X85065573Y-91125290D01*
X85162558Y-91144582D01*
X85261444Y-91144582D01*
X85358429Y-91125290D01*
X85449787Y-91087449D01*
X85532007Y-91032511D01*
X85601930Y-90962588D01*
X85656868Y-90880368D01*
X85694709Y-90789010D01*
X85714001Y-90692025D01*
X85714001Y-90593139D01*
X85694709Y-90496154D01*
X85656868Y-90404796D01*
X85601930Y-90322576D01*
X85532007Y-90252653D01*
X85449787Y-90197715D01*
X85358429Y-90159874D01*
X85261444Y-90140582D01*
X85162558Y-90140582D01*
X85065573Y-90159874D01*
X84974215Y-90197715D01*
X84891995Y-90252653D01*
X84822072Y-90322576D01*
X84767134Y-90404796D01*
X84729293Y-90496154D01*
X84710001Y-90593139D01*
X81280000Y-90593139D01*
X81280000Y-88342557D01*
X83183968Y-88342557D01*
X83183968Y-88441443D01*
X83203260Y-88538428D01*
X83241101Y-88629786D01*
X83296039Y-88712006D01*
X83365962Y-88781929D01*
X83448182Y-88836867D01*
X83539540Y-88874708D01*
X83636525Y-88894000D01*
X83735411Y-88894000D01*
X83832396Y-88874708D01*
X83923754Y-88836867D01*
X84005974Y-88781929D01*
X84075897Y-88712006D01*
X84130835Y-88629786D01*
X84168676Y-88538428D01*
X84187968Y-88441443D01*
X84187968Y-88342557D01*
X84168676Y-88245572D01*
X84156244Y-88215557D01*
X84334000Y-88215557D01*
X84334000Y-88314443D01*
X84353292Y-88411428D01*
X84391133Y-88502786D01*
X84446071Y-88585006D01*
X84515994Y-88654929D01*
X84598214Y-88709867D01*
X84661633Y-88736136D01*
X84651504Y-88787057D01*
X84651504Y-88885943D01*
X84670796Y-88982928D01*
X84708637Y-89074286D01*
X84763575Y-89156506D01*
X84781922Y-89174853D01*
X84747608Y-89226206D01*
X84709767Y-89317564D01*
X84690475Y-89414549D01*
X84690475Y-89513435D01*
X84709767Y-89610420D01*
X84747608Y-89701778D01*
X84802546Y-89783998D01*
X84872469Y-89853921D01*
X84954689Y-89908859D01*
X85046047Y-89946700D01*
X85143032Y-89965992D01*
X85241918Y-89965992D01*
X85338903Y-89946700D01*
X85430261Y-89908859D01*
X85512481Y-89853921D01*
X85512813Y-89853589D01*
X85594254Y-89887323D01*
X85691239Y-89906615D01*
X85790125Y-89906615D01*
X85887110Y-89887323D01*
X85978468Y-89849482D01*
X86060688Y-89794544D01*
X86130611Y-89724621D01*
X86185549Y-89642401D01*
X86223390Y-89551043D01*
X86242682Y-89454058D01*
X86242682Y-89429585D01*
X86258418Y-89426455D01*
X86349776Y-89388614D01*
X86384878Y-89365159D01*
X87478404Y-89365159D01*
X87478404Y-89464045D01*
X87497696Y-89561030D01*
X87535537Y-89652388D01*
X87590475Y-89734608D01*
X87660398Y-89804531D01*
X87742618Y-89859469D01*
X87833976Y-89897310D01*
X87930961Y-89916602D01*
X88029847Y-89916602D01*
X88126832Y-89897310D01*
X88218190Y-89859469D01*
X88300410Y-89804531D01*
X88370333Y-89734608D01*
X88425271Y-89652388D01*
X88463112Y-89561030D01*
X88472609Y-89513288D01*
X88480792Y-89554428D01*
X88518633Y-89645786D01*
X88573571Y-89728006D01*
X88643494Y-89797929D01*
X88725714Y-89852867D01*
X88817072Y-89890708D01*
X88914057Y-89910000D01*
X89012943Y-89910000D01*
X89109928Y-89890708D01*
X89201286Y-89852867D01*
X89283506Y-89797929D01*
X89322879Y-89758556D01*
X89323582Y-89759609D01*
X89393505Y-89829532D01*
X89475725Y-89884470D01*
X89567083Y-89922311D01*
X89664068Y-89941603D01*
X89762954Y-89941603D01*
X89859939Y-89922311D01*
X89951297Y-89884470D01*
X89978105Y-89866557D01*
X99066000Y-89866557D01*
X99066000Y-89965443D01*
X99085292Y-90062428D01*
X99123133Y-90153786D01*
X99178071Y-90236006D01*
X99247994Y-90305929D01*
X99330214Y-90360867D01*
X99421572Y-90398708D01*
X99518557Y-90418000D01*
X99617443Y-90418000D01*
X99714428Y-90398708D01*
X99805786Y-90360867D01*
X99888006Y-90305929D01*
X99957929Y-90236006D01*
X100012867Y-90153786D01*
X100050708Y-90062428D01*
X100070000Y-89965443D01*
X100070000Y-89866557D01*
X100050708Y-89769572D01*
X100038276Y-89739557D01*
X101098000Y-89739557D01*
X101098000Y-89838443D01*
X101117292Y-89935428D01*
X101155133Y-90026786D01*
X101210071Y-90109006D01*
X101279994Y-90178929D01*
X101362214Y-90233867D01*
X101453572Y-90271708D01*
X101550557Y-90291000D01*
X101649443Y-90291000D01*
X101746428Y-90271708D01*
X101837786Y-90233867D01*
X101920006Y-90178929D01*
X101989929Y-90109006D01*
X102044867Y-90026786D01*
X102082708Y-89935428D01*
X102102000Y-89838443D01*
X102102000Y-89739557D01*
X102082708Y-89642572D01*
X102044867Y-89551214D01*
X101989929Y-89468994D01*
X101920006Y-89399071D01*
X101837786Y-89344133D01*
X101746428Y-89306292D01*
X101649443Y-89287000D01*
X101550557Y-89287000D01*
X101453572Y-89306292D01*
X101362214Y-89344133D01*
X101279994Y-89399071D01*
X101210071Y-89468994D01*
X101155133Y-89551214D01*
X101117292Y-89642572D01*
X101098000Y-89739557D01*
X100038276Y-89739557D01*
X100012867Y-89678214D01*
X99957929Y-89595994D01*
X99888006Y-89526071D01*
X99805786Y-89471133D01*
X99714428Y-89433292D01*
X99617443Y-89414000D01*
X99518557Y-89414000D01*
X99421572Y-89433292D01*
X99330214Y-89471133D01*
X99247994Y-89526071D01*
X99178071Y-89595994D01*
X99123133Y-89678214D01*
X99085292Y-89769572D01*
X99066000Y-89866557D01*
X89978105Y-89866557D01*
X90033517Y-89829532D01*
X90103440Y-89759609D01*
X90158378Y-89677389D01*
X90196219Y-89586031D01*
X90215511Y-89489046D01*
X90215511Y-89390160D01*
X90196219Y-89293175D01*
X90158378Y-89201817D01*
X90103440Y-89119597D01*
X90069835Y-89085992D01*
X90093572Y-89050468D01*
X90131413Y-88959110D01*
X90150705Y-88862125D01*
X90150705Y-88763239D01*
X90131413Y-88666254D01*
X90093572Y-88574896D01*
X90038634Y-88492676D01*
X90015515Y-88469557D01*
X92721990Y-88469557D01*
X92721990Y-88568443D01*
X92741282Y-88665428D01*
X92779123Y-88756786D01*
X92834061Y-88839006D01*
X92903984Y-88908929D01*
X92986204Y-88963867D01*
X93077562Y-89001708D01*
X93174547Y-89021000D01*
X93273433Y-89021000D01*
X93370418Y-89001708D01*
X93461776Y-88963867D01*
X93543996Y-88908929D01*
X93613919Y-88839006D01*
X93668857Y-88756786D01*
X93706698Y-88665428D01*
X93725990Y-88568443D01*
X93725990Y-88469557D01*
X93706698Y-88372572D01*
X93668857Y-88281214D01*
X93613919Y-88198994D01*
X93543996Y-88129071D01*
X93461776Y-88074133D01*
X93370418Y-88036292D01*
X93273433Y-88017000D01*
X93174547Y-88017000D01*
X93077562Y-88036292D01*
X92986204Y-88074133D01*
X92903984Y-88129071D01*
X92834061Y-88198994D01*
X92779123Y-88281214D01*
X92741282Y-88372572D01*
X92721990Y-88469557D01*
X90015515Y-88469557D01*
X89968711Y-88422753D01*
X89886491Y-88367815D01*
X89795133Y-88329974D01*
X89698148Y-88310682D01*
X89599262Y-88310682D01*
X89502277Y-88329974D01*
X89410919Y-88367815D01*
X89328699Y-88422753D01*
X89273617Y-88477836D01*
X89204926Y-88409145D01*
X89122706Y-88354207D01*
X89031348Y-88316366D01*
X88934363Y-88297074D01*
X88835477Y-88297074D01*
X88738492Y-88316366D01*
X88647134Y-88354207D01*
X88564914Y-88409145D01*
X88494991Y-88479068D01*
X88440053Y-88561288D01*
X88402212Y-88652646D01*
X88382920Y-88749631D01*
X88382920Y-88848517D01*
X88402212Y-88945502D01*
X88440053Y-89036860D01*
X88494991Y-89119080D01*
X88529645Y-89153734D01*
X88518633Y-89170214D01*
X88480792Y-89261572D01*
X88471295Y-89309314D01*
X88463112Y-89268174D01*
X88425271Y-89176816D01*
X88370333Y-89094596D01*
X88300410Y-89024673D01*
X88218190Y-88969735D01*
X88126832Y-88931894D01*
X88029847Y-88912602D01*
X87930961Y-88912602D01*
X87833976Y-88931894D01*
X87742618Y-88969735D01*
X87660398Y-89024673D01*
X87590475Y-89094596D01*
X87535537Y-89176816D01*
X87497696Y-89268174D01*
X87478404Y-89365159D01*
X86384878Y-89365159D01*
X86431996Y-89333676D01*
X86501919Y-89263753D01*
X86556857Y-89181533D01*
X86594698Y-89090175D01*
X86613990Y-88993190D01*
X86613990Y-88894304D01*
X86594698Y-88797319D01*
X86556857Y-88705961D01*
X86501919Y-88623741D01*
X86431996Y-88553818D01*
X86349776Y-88498880D01*
X86258418Y-88461039D01*
X86161433Y-88441747D01*
X86062547Y-88441747D01*
X85965562Y-88461039D01*
X85874204Y-88498880D01*
X85791984Y-88553818D01*
X85722061Y-88623741D01*
X85667123Y-88705961D01*
X85648376Y-88751222D01*
X85636212Y-88690072D01*
X85598371Y-88598714D01*
X85543433Y-88516494D01*
X85473510Y-88446571D01*
X85391290Y-88391633D01*
X85327871Y-88365364D01*
X85338000Y-88314443D01*
X85338000Y-88215557D01*
X85318708Y-88118572D01*
X85280867Y-88027214D01*
X85225929Y-87944994D01*
X85156006Y-87875071D01*
X85073786Y-87820133D01*
X84982428Y-87782292D01*
X84885443Y-87763000D01*
X84786557Y-87763000D01*
X84689572Y-87782292D01*
X84598214Y-87820133D01*
X84515994Y-87875071D01*
X84446071Y-87944994D01*
X84391133Y-88027214D01*
X84353292Y-88118572D01*
X84334000Y-88215557D01*
X84156244Y-88215557D01*
X84130835Y-88154214D01*
X84075897Y-88071994D01*
X84005974Y-88002071D01*
X83923754Y-87947133D01*
X83832396Y-87909292D01*
X83735411Y-87890000D01*
X83636525Y-87890000D01*
X83539540Y-87909292D01*
X83448182Y-87947133D01*
X83365962Y-88002071D01*
X83296039Y-88071994D01*
X83241101Y-88154214D01*
X83203260Y-88245572D01*
X83183968Y-88342557D01*
X81280000Y-88342557D01*
X81280000Y-86964278D01*
X87478885Y-86964278D01*
X87478885Y-87063164D01*
X87498177Y-87160149D01*
X87536018Y-87251507D01*
X87590956Y-87333727D01*
X87660879Y-87403650D01*
X87743099Y-87458588D01*
X87834457Y-87496429D01*
X87931442Y-87515721D01*
X88030328Y-87515721D01*
X88127313Y-87496429D01*
X88218671Y-87458588D01*
X88300891Y-87403650D01*
X88370814Y-87333727D01*
X88425752Y-87251507D01*
X88463593Y-87160149D01*
X88482885Y-87063164D01*
X88482885Y-86964278D01*
X88463593Y-86867293D01*
X88425752Y-86775935D01*
X88370814Y-86693715D01*
X88311146Y-86634047D01*
X88525000Y-86634047D01*
X88525000Y-86732933D01*
X88544292Y-86829918D01*
X88582133Y-86921276D01*
X88637071Y-87003496D01*
X88706994Y-87073419D01*
X88789214Y-87128357D01*
X88880572Y-87166198D01*
X88977557Y-87185490D01*
X89076443Y-87185490D01*
X89173428Y-87166198D01*
X89264786Y-87128357D01*
X89312750Y-87096308D01*
X89360714Y-87128357D01*
X89452072Y-87166198D01*
X89549057Y-87185490D01*
X89647943Y-87185490D01*
X89744928Y-87166198D01*
X89836286Y-87128357D01*
X89910831Y-87078547D01*
X92017500Y-87078547D01*
X92017500Y-87177433D01*
X92036792Y-87274418D01*
X92074633Y-87365776D01*
X92129571Y-87447996D01*
X92199494Y-87517919D01*
X92281714Y-87572857D01*
X92373072Y-87610698D01*
X92470057Y-87629990D01*
X92568943Y-87629990D01*
X92665928Y-87610698D01*
X92757286Y-87572857D01*
X92839506Y-87517919D01*
X92909429Y-87447996D01*
X92964367Y-87365776D01*
X93002208Y-87274418D01*
X93021500Y-87177433D01*
X93021500Y-87078547D01*
X93002208Y-86981562D01*
X92987295Y-86945557D01*
X95129000Y-86945557D01*
X95129000Y-87044443D01*
X95148292Y-87141428D01*
X95186133Y-87232786D01*
X95241071Y-87315006D01*
X95310994Y-87384929D01*
X95393214Y-87439867D01*
X95484572Y-87477708D01*
X95581557Y-87497000D01*
X95680443Y-87497000D01*
X95777428Y-87477708D01*
X95868786Y-87439867D01*
X95951006Y-87384929D01*
X96020929Y-87315006D01*
X96075867Y-87232786D01*
X96113708Y-87141428D01*
X96133000Y-87044443D01*
X96133000Y-86945557D01*
X96113708Y-86848572D01*
X96075867Y-86757214D01*
X96020929Y-86674994D01*
X95951006Y-86605071D01*
X95868786Y-86550133D01*
X95777428Y-86512292D01*
X95680443Y-86493000D01*
X95581557Y-86493000D01*
X95484572Y-86512292D01*
X95393214Y-86550133D01*
X95310994Y-86605071D01*
X95241071Y-86674994D01*
X95186133Y-86757214D01*
X95148292Y-86848572D01*
X95129000Y-86945557D01*
X92987295Y-86945557D01*
X92964367Y-86890204D01*
X92909429Y-86807984D01*
X92839506Y-86738061D01*
X92757286Y-86683123D01*
X92665928Y-86645282D01*
X92568943Y-86625990D01*
X92470057Y-86625990D01*
X92373072Y-86645282D01*
X92281714Y-86683123D01*
X92199494Y-86738061D01*
X92129571Y-86807984D01*
X92074633Y-86890204D01*
X92036792Y-86981562D01*
X92017500Y-87078547D01*
X89910831Y-87078547D01*
X89918506Y-87073419D01*
X89988429Y-87003496D01*
X90043367Y-86921276D01*
X90081208Y-86829918D01*
X90100500Y-86732933D01*
X90100500Y-86634047D01*
X90081208Y-86537062D01*
X90043367Y-86445704D01*
X89988429Y-86363484D01*
X89918506Y-86293561D01*
X89836286Y-86238623D01*
X89744928Y-86200782D01*
X89647943Y-86181490D01*
X89549057Y-86181490D01*
X89452072Y-86200782D01*
X89360714Y-86238623D01*
X89312750Y-86270672D01*
X89264786Y-86238623D01*
X89173428Y-86200782D01*
X89076443Y-86181490D01*
X88977557Y-86181490D01*
X88880572Y-86200782D01*
X88789214Y-86238623D01*
X88706994Y-86293561D01*
X88637071Y-86363484D01*
X88582133Y-86445704D01*
X88544292Y-86537062D01*
X88525000Y-86634047D01*
X88311146Y-86634047D01*
X88300891Y-86623792D01*
X88218671Y-86568854D01*
X88127313Y-86531013D01*
X88030328Y-86511721D01*
X87931442Y-86511721D01*
X87834457Y-86531013D01*
X87743099Y-86568854D01*
X87660879Y-86623792D01*
X87590956Y-86693715D01*
X87536018Y-86775935D01*
X87498177Y-86867293D01*
X87478885Y-86964278D01*
X81280000Y-86964278D01*
X81280000Y-85485057D01*
X93414500Y-85485057D01*
X93414500Y-85583943D01*
X93433792Y-85680928D01*
X93471633Y-85772286D01*
X93526571Y-85854506D01*
X93596494Y-85924429D01*
X93678714Y-85979367D01*
X93770072Y-86017208D01*
X93867057Y-86036500D01*
X93965943Y-86036500D01*
X94062928Y-86017208D01*
X94154286Y-85979367D01*
X94228831Y-85929557D01*
X101352000Y-85929557D01*
X101352000Y-86028443D01*
X101371292Y-86125428D01*
X101409133Y-86216786D01*
X101419967Y-86233000D01*
X101409133Y-86249214D01*
X101371292Y-86340572D01*
X101352000Y-86437557D01*
X101352000Y-86536443D01*
X101371292Y-86633428D01*
X101409133Y-86724786D01*
X101419967Y-86741000D01*
X101409133Y-86757214D01*
X101371292Y-86848572D01*
X101352000Y-86945557D01*
X101352000Y-87044443D01*
X101371292Y-87141428D01*
X101409133Y-87232786D01*
X101464071Y-87315006D01*
X101533994Y-87384929D01*
X101616214Y-87439867D01*
X101707572Y-87477708D01*
X101804557Y-87497000D01*
X101903443Y-87497000D01*
X102000428Y-87477708D01*
X102091786Y-87439867D01*
X102174006Y-87384929D01*
X102243929Y-87315006D01*
X102298867Y-87232786D01*
X102336708Y-87141428D01*
X102356000Y-87044443D01*
X102356000Y-86945557D01*
X102336708Y-86848572D01*
X102298867Y-86757214D01*
X102288033Y-86741000D01*
X102298867Y-86724786D01*
X102336708Y-86633428D01*
X102356000Y-86536443D01*
X102356000Y-86437557D01*
X102336708Y-86340572D01*
X102298867Y-86249214D01*
X102288033Y-86233000D01*
X102298867Y-86216786D01*
X102336708Y-86125428D01*
X102356000Y-86028443D01*
X102356000Y-85993057D01*
X102368000Y-85993057D01*
X102368000Y-86091943D01*
X102387292Y-86188928D01*
X102425133Y-86280286D01*
X102480071Y-86362506D01*
X102549994Y-86432429D01*
X102632214Y-86487367D01*
X102723572Y-86525208D01*
X102820557Y-86544500D01*
X102919443Y-86544500D01*
X103016428Y-86525208D01*
X103107786Y-86487367D01*
X103190006Y-86432429D01*
X103259929Y-86362506D01*
X103314867Y-86280286D01*
X103352708Y-86188928D01*
X103372000Y-86091943D01*
X103372000Y-85993057D01*
X103352708Y-85896072D01*
X103314867Y-85804714D01*
X103259929Y-85722494D01*
X103190006Y-85652571D01*
X103107786Y-85597633D01*
X103016428Y-85559792D01*
X102919443Y-85540500D01*
X102820557Y-85540500D01*
X102723572Y-85559792D01*
X102632214Y-85597633D01*
X102549994Y-85652571D01*
X102480071Y-85722494D01*
X102425133Y-85804714D01*
X102387292Y-85896072D01*
X102368000Y-85993057D01*
X102356000Y-85993057D01*
X102356000Y-85929557D01*
X102336708Y-85832572D01*
X102298867Y-85741214D01*
X102243929Y-85658994D01*
X102174006Y-85589071D01*
X102091786Y-85534133D01*
X102000428Y-85496292D01*
X101903443Y-85477000D01*
X101804557Y-85477000D01*
X101707572Y-85496292D01*
X101616214Y-85534133D01*
X101533994Y-85589071D01*
X101464071Y-85658994D01*
X101409133Y-85741214D01*
X101371292Y-85832572D01*
X101352000Y-85929557D01*
X94228831Y-85929557D01*
X94236506Y-85924429D01*
X94306429Y-85854506D01*
X94361367Y-85772286D01*
X94399208Y-85680928D01*
X94418500Y-85583943D01*
X94418500Y-85485057D01*
X94399208Y-85388072D01*
X94361367Y-85296714D01*
X94306429Y-85214494D01*
X94236506Y-85144571D01*
X94154286Y-85089633D01*
X94062928Y-85051792D01*
X93965943Y-85032500D01*
X93867057Y-85032500D01*
X93770072Y-85051792D01*
X93678714Y-85089633D01*
X93596494Y-85144571D01*
X93526571Y-85214494D01*
X93471633Y-85296714D01*
X93433792Y-85388072D01*
X93414500Y-85485057D01*
X81280000Y-85485057D01*
X81280000Y-84405557D01*
X86874000Y-84405557D01*
X86874000Y-84504443D01*
X86893292Y-84601428D01*
X86931133Y-84692786D01*
X86986071Y-84775006D01*
X87055994Y-84844929D01*
X87138214Y-84899867D01*
X87229572Y-84937708D01*
X87326557Y-84957000D01*
X87425443Y-84957000D01*
X87522428Y-84937708D01*
X87613786Y-84899867D01*
X87696006Y-84844929D01*
X87765929Y-84775006D01*
X87820867Y-84692786D01*
X87853060Y-84615064D01*
X87875071Y-84648006D01*
X87944994Y-84717929D01*
X88027214Y-84772867D01*
X88118572Y-84810708D01*
X88215557Y-84830000D01*
X88314443Y-84830000D01*
X88411428Y-84810708D01*
X88502786Y-84772867D01*
X88585006Y-84717929D01*
X88654929Y-84648006D01*
X88709867Y-84565786D01*
X88747708Y-84474428D01*
X88767000Y-84377443D01*
X88767000Y-84278557D01*
X88969500Y-84278557D01*
X88969500Y-84377443D01*
X88988792Y-84474428D01*
X89026633Y-84565786D01*
X89081571Y-84648006D01*
X89151494Y-84717929D01*
X89233714Y-84772867D01*
X89325072Y-84810708D01*
X89422057Y-84830000D01*
X89520943Y-84830000D01*
X89617928Y-84810708D01*
X89709286Y-84772867D01*
X89791506Y-84717929D01*
X89805908Y-84703527D01*
X91321816Y-84703527D01*
X91321816Y-84802413D01*
X91341108Y-84899398D01*
X91378949Y-84990756D01*
X91433887Y-85072976D01*
X91503810Y-85142899D01*
X91586030Y-85197837D01*
X91677388Y-85235678D01*
X91774373Y-85254970D01*
X91873259Y-85254970D01*
X91970244Y-85235678D01*
X92061602Y-85197837D01*
X92143822Y-85142899D01*
X92213745Y-85072976D01*
X92268683Y-84990756D01*
X92306524Y-84899398D01*
X92325816Y-84802413D01*
X92325816Y-84703527D01*
X92306524Y-84606542D01*
X92268683Y-84515184D01*
X92213745Y-84432964D01*
X92143822Y-84363041D01*
X92061602Y-84308103D01*
X92047646Y-84302322D01*
X97210834Y-84302322D01*
X97210834Y-84401208D01*
X97230126Y-84498193D01*
X97267967Y-84589551D01*
X97322905Y-84671771D01*
X97392828Y-84741694D01*
X97475048Y-84796632D01*
X97566406Y-84834473D01*
X97619144Y-84844964D01*
X97605500Y-84913557D01*
X97605500Y-85012443D01*
X97624792Y-85109428D01*
X97662633Y-85200786D01*
X97717571Y-85283006D01*
X97787494Y-85352929D01*
X97869714Y-85407867D01*
X97961072Y-85445708D01*
X98058057Y-85465000D01*
X98156943Y-85465000D01*
X98253928Y-85445708D01*
X98345286Y-85407867D01*
X98427506Y-85352929D01*
X98497429Y-85283006D01*
X98552367Y-85200786D01*
X98590208Y-85109428D01*
X98609500Y-85012443D01*
X98609500Y-84913557D01*
X98590208Y-84816572D01*
X98552367Y-84725214D01*
X98497429Y-84642994D01*
X98437992Y-84583557D01*
X101733000Y-84583557D01*
X101733000Y-84682443D01*
X101752292Y-84779428D01*
X101790133Y-84870786D01*
X101845071Y-84953006D01*
X101914994Y-85022929D01*
X101997214Y-85077867D01*
X102088572Y-85115708D01*
X102185557Y-85135000D01*
X102284443Y-85135000D01*
X102381428Y-85115708D01*
X102472786Y-85077867D01*
X102555006Y-85022929D01*
X102624929Y-84953006D01*
X102679867Y-84870786D01*
X102717708Y-84779428D01*
X102737000Y-84682443D01*
X102737000Y-84583557D01*
X102717708Y-84486572D01*
X102679867Y-84395214D01*
X102624929Y-84312994D01*
X102555006Y-84243071D01*
X102472786Y-84188133D01*
X102381428Y-84150292D01*
X102284443Y-84131000D01*
X102185557Y-84131000D01*
X102088572Y-84150292D01*
X101997214Y-84188133D01*
X101914994Y-84243071D01*
X101845071Y-84312994D01*
X101790133Y-84395214D01*
X101752292Y-84486572D01*
X101733000Y-84583557D01*
X98437992Y-84583557D01*
X98427506Y-84573071D01*
X98345286Y-84518133D01*
X98253928Y-84480292D01*
X98201190Y-84469801D01*
X98214834Y-84401208D01*
X98214834Y-84302322D01*
X98195542Y-84205337D01*
X98157701Y-84113979D01*
X98102763Y-84031759D01*
X98032840Y-83961836D01*
X97950620Y-83906898D01*
X97859262Y-83869057D01*
X97762277Y-83849765D01*
X97663391Y-83849765D01*
X97566406Y-83869057D01*
X97475048Y-83906898D01*
X97392828Y-83961836D01*
X97322905Y-84031759D01*
X97267967Y-84113979D01*
X97230126Y-84205337D01*
X97210834Y-84302322D01*
X92047646Y-84302322D01*
X91970244Y-84270262D01*
X91873259Y-84250970D01*
X91774373Y-84250970D01*
X91677388Y-84270262D01*
X91586030Y-84308103D01*
X91503810Y-84363041D01*
X91433887Y-84432964D01*
X91378949Y-84515184D01*
X91341108Y-84606542D01*
X91321816Y-84703527D01*
X89805908Y-84703527D01*
X89861429Y-84648006D01*
X89916367Y-84565786D01*
X89954208Y-84474428D01*
X89973500Y-84377443D01*
X89973500Y-84278557D01*
X89954208Y-84181572D01*
X89916367Y-84090214D01*
X89861429Y-84007994D01*
X89791506Y-83938071D01*
X89709286Y-83883133D01*
X89617928Y-83845292D01*
X89520943Y-83826000D01*
X89422057Y-83826000D01*
X89325072Y-83845292D01*
X89233714Y-83883133D01*
X89151494Y-83938071D01*
X89081571Y-84007994D01*
X89026633Y-84090214D01*
X88988792Y-84181572D01*
X88969500Y-84278557D01*
X88767000Y-84278557D01*
X88747708Y-84181572D01*
X88709867Y-84090214D01*
X88654929Y-84007994D01*
X88585006Y-83938071D01*
X88502786Y-83883133D01*
X88411428Y-83845292D01*
X88314443Y-83826000D01*
X88215557Y-83826000D01*
X88118572Y-83845292D01*
X88027214Y-83883133D01*
X87944994Y-83938071D01*
X87875071Y-84007994D01*
X87820133Y-84090214D01*
X87787940Y-84167936D01*
X87765929Y-84134994D01*
X87696006Y-84065071D01*
X87613786Y-84010133D01*
X87522428Y-83972292D01*
X87425443Y-83953000D01*
X87326557Y-83953000D01*
X87229572Y-83972292D01*
X87138214Y-84010133D01*
X87055994Y-84065071D01*
X86986071Y-84134994D01*
X86931133Y-84217214D01*
X86893292Y-84308572D01*
X86874000Y-84405557D01*
X81280000Y-84405557D01*
X81280000Y-83199057D01*
X93478000Y-83199057D01*
X93478000Y-83297943D01*
X93497292Y-83394928D01*
X93535133Y-83486286D01*
X93590071Y-83568506D01*
X93659994Y-83638429D01*
X93742214Y-83693367D01*
X93833572Y-83731208D01*
X93930557Y-83750500D01*
X94029443Y-83750500D01*
X94126428Y-83731208D01*
X94217786Y-83693367D01*
X94300006Y-83638429D01*
X94369929Y-83568506D01*
X94424867Y-83486286D01*
X94462708Y-83394928D01*
X94482000Y-83297943D01*
X94482000Y-83199057D01*
X94462708Y-83102072D01*
X94424867Y-83010714D01*
X94369929Y-82928494D01*
X94300006Y-82858571D01*
X94217786Y-82803633D01*
X94126428Y-82765792D01*
X94029443Y-82746500D01*
X93930557Y-82746500D01*
X93833572Y-82765792D01*
X93742214Y-82803633D01*
X93659994Y-82858571D01*
X93590071Y-82928494D01*
X93535133Y-83010714D01*
X93497292Y-83102072D01*
X93478000Y-83199057D01*
X81280000Y-83199057D01*
X81280000Y-82119557D01*
X86493000Y-82119557D01*
X86493000Y-82218443D01*
X86512292Y-82315428D01*
X86550133Y-82406786D01*
X86605071Y-82489006D01*
X86674994Y-82558929D01*
X86757214Y-82613867D01*
X86848572Y-82651708D01*
X86945557Y-82671000D01*
X87044443Y-82671000D01*
X87141428Y-82651708D01*
X87232786Y-82613867D01*
X87315006Y-82558929D01*
X87384929Y-82489006D01*
X87439867Y-82406786D01*
X87477708Y-82315428D01*
X87497000Y-82218443D01*
X87497000Y-82119557D01*
X87477708Y-82022572D01*
X87465276Y-81992557D01*
X88144000Y-81992557D01*
X88144000Y-82091443D01*
X88163292Y-82188428D01*
X88201133Y-82279786D01*
X88256071Y-82362006D01*
X88325994Y-82431929D01*
X88408214Y-82486867D01*
X88499572Y-82524708D01*
X88596557Y-82544000D01*
X88695443Y-82544000D01*
X88792428Y-82524708D01*
X88883786Y-82486867D01*
X88906000Y-82472024D01*
X88906000Y-82472443D01*
X88925292Y-82569428D01*
X88963133Y-82660786D01*
X89018071Y-82743006D01*
X89087994Y-82812929D01*
X89170214Y-82867867D01*
X89261572Y-82905708D01*
X89358557Y-82925000D01*
X89457443Y-82925000D01*
X89554428Y-82905708D01*
X89645786Y-82867867D01*
X89728006Y-82812929D01*
X89797929Y-82743006D01*
X89852867Y-82660786D01*
X89890708Y-82569428D01*
X89910000Y-82472443D01*
X89910000Y-82373557D01*
X89890708Y-82276572D01*
X89862198Y-82207740D01*
X97609796Y-82207740D01*
X97609796Y-82306626D01*
X97629088Y-82403611D01*
X97666929Y-82494969D01*
X97721694Y-82576930D01*
X97688292Y-82657572D01*
X97669000Y-82754557D01*
X97669000Y-82853443D01*
X97688292Y-82950428D01*
X97726133Y-83041786D01*
X97781071Y-83124006D01*
X97850994Y-83193929D01*
X97933214Y-83248867D01*
X98024572Y-83286708D01*
X98121557Y-83306000D01*
X98220443Y-83306000D01*
X98317428Y-83286708D01*
X98408786Y-83248867D01*
X98491006Y-83193929D01*
X98560929Y-83124006D01*
X98615867Y-83041786D01*
X98653708Y-82950428D01*
X98673000Y-82853443D01*
X98673000Y-82754557D01*
X98653708Y-82657572D01*
X98615867Y-82566214D01*
X98561102Y-82484253D01*
X98594504Y-82403611D01*
X98613796Y-82306626D01*
X98613796Y-82207740D01*
X98596255Y-82119557D01*
X99574000Y-82119557D01*
X99574000Y-82218443D01*
X99593292Y-82315428D01*
X99631133Y-82406786D01*
X99686071Y-82489006D01*
X99755994Y-82558929D01*
X99838214Y-82613867D01*
X99929572Y-82651708D01*
X100026557Y-82671000D01*
X100125443Y-82671000D01*
X100222428Y-82651708D01*
X100313786Y-82613867D01*
X100396006Y-82558929D01*
X100465929Y-82489006D01*
X100503453Y-82432847D01*
X101045930Y-82432847D01*
X101045930Y-82531733D01*
X101065222Y-82628718D01*
X101103063Y-82720076D01*
X101158001Y-82802296D01*
X101227924Y-82872219D01*
X101310144Y-82927157D01*
X101401502Y-82964998D01*
X101498487Y-82984290D01*
X101597373Y-82984290D01*
X101694358Y-82964998D01*
X101785716Y-82927157D01*
X101867936Y-82872219D01*
X101937859Y-82802296D01*
X101992797Y-82720076D01*
X102030638Y-82628718D01*
X102049930Y-82531733D01*
X102049930Y-82432847D01*
X102030638Y-82335862D01*
X101992797Y-82244504D01*
X101937859Y-82162284D01*
X101867936Y-82092361D01*
X101785716Y-82037423D01*
X101694358Y-81999582D01*
X101597373Y-81980290D01*
X101498487Y-81980290D01*
X101401502Y-81999582D01*
X101310144Y-82037423D01*
X101227924Y-82092361D01*
X101158001Y-82162284D01*
X101103063Y-82244504D01*
X101065222Y-82335862D01*
X101045930Y-82432847D01*
X100503453Y-82432847D01*
X100520867Y-82406786D01*
X100558708Y-82315428D01*
X100578000Y-82218443D01*
X100578000Y-82119557D01*
X100558708Y-82022572D01*
X100520867Y-81931214D01*
X100465929Y-81848994D01*
X100396006Y-81779071D01*
X100313786Y-81724133D01*
X100222428Y-81686292D01*
X100125443Y-81667000D01*
X100026557Y-81667000D01*
X99929572Y-81686292D01*
X99838214Y-81724133D01*
X99755994Y-81779071D01*
X99686071Y-81848994D01*
X99631133Y-81931214D01*
X99593292Y-82022572D01*
X99574000Y-82119557D01*
X98596255Y-82119557D01*
X98594504Y-82110755D01*
X98556663Y-82019397D01*
X98501725Y-81937177D01*
X98431802Y-81867254D01*
X98349582Y-81812316D01*
X98258224Y-81774475D01*
X98161239Y-81755183D01*
X98062353Y-81755183D01*
X97965368Y-81774475D01*
X97874010Y-81812316D01*
X97791790Y-81867254D01*
X97721867Y-81937177D01*
X97666929Y-82019397D01*
X97629088Y-82110755D01*
X97609796Y-82207740D01*
X89862198Y-82207740D01*
X89852867Y-82185214D01*
X89797929Y-82102994D01*
X89728006Y-82033071D01*
X89695064Y-82011060D01*
X89772786Y-81978867D01*
X89855006Y-81923929D01*
X89924929Y-81854006D01*
X89979867Y-81771786D01*
X90017708Y-81680428D01*
X90037000Y-81583443D01*
X90037000Y-81484557D01*
X90017708Y-81387572D01*
X89979867Y-81296214D01*
X89948512Y-81249288D01*
X90026786Y-81216867D01*
X90109006Y-81161929D01*
X90178929Y-81092006D01*
X90233867Y-81009786D01*
X90248650Y-80974095D01*
X93919000Y-80974095D01*
X93919000Y-81077905D01*
X93939252Y-81179720D01*
X93978979Y-81275628D01*
X94036652Y-81361943D01*
X94110057Y-81435348D01*
X94196372Y-81493021D01*
X94292280Y-81532748D01*
X94394095Y-81553000D01*
X94497905Y-81553000D01*
X94599720Y-81532748D01*
X94695628Y-81493021D01*
X94781943Y-81435348D01*
X94855348Y-81361943D01*
X94913021Y-81275628D01*
X94952748Y-81179720D01*
X94973000Y-81077905D01*
X94973000Y-80974095D01*
X95019000Y-80974095D01*
X95019000Y-81077905D01*
X95039252Y-81179720D01*
X95078979Y-81275628D01*
X95136652Y-81361943D01*
X95210057Y-81435348D01*
X95296372Y-81493021D01*
X95392280Y-81532748D01*
X95494095Y-81553000D01*
X95597905Y-81553000D01*
X95699720Y-81532748D01*
X95795628Y-81493021D01*
X95881943Y-81435348D01*
X95955348Y-81361943D01*
X96013021Y-81275628D01*
X96052748Y-81179720D01*
X96073000Y-81077905D01*
X96073000Y-80974095D01*
X96052748Y-80872280D01*
X96013021Y-80776372D01*
X95955348Y-80690057D01*
X95881943Y-80616652D01*
X95795628Y-80558979D01*
X95699720Y-80519252D01*
X95597905Y-80499000D01*
X95494095Y-80499000D01*
X95392280Y-80519252D01*
X95296372Y-80558979D01*
X95210057Y-80616652D01*
X95136652Y-80690057D01*
X95078979Y-80776372D01*
X95039252Y-80872280D01*
X95019000Y-80974095D01*
X94973000Y-80974095D01*
X94952748Y-80872280D01*
X94913021Y-80776372D01*
X94855348Y-80690057D01*
X94781943Y-80616652D01*
X94695628Y-80558979D01*
X94599720Y-80519252D01*
X94497905Y-80499000D01*
X94394095Y-80499000D01*
X94292280Y-80519252D01*
X94196372Y-80558979D01*
X94110057Y-80616652D01*
X94036652Y-80690057D01*
X93978979Y-80776372D01*
X93939252Y-80872280D01*
X93919000Y-80974095D01*
X90248650Y-80974095D01*
X90271708Y-80918428D01*
X90291000Y-80821443D01*
X90291000Y-80722557D01*
X90271708Y-80625572D01*
X90233867Y-80534214D01*
X90178929Y-80451994D01*
X90109006Y-80382071D01*
X90026786Y-80327133D01*
X89935428Y-80289292D01*
X89838443Y-80270000D01*
X89739557Y-80270000D01*
X89642572Y-80289292D01*
X89551214Y-80327133D01*
X89468994Y-80382071D01*
X89399071Y-80451994D01*
X89344133Y-80534214D01*
X89306292Y-80625572D01*
X89287000Y-80722557D01*
X89287000Y-80821443D01*
X89306292Y-80918428D01*
X89344133Y-81009786D01*
X89375488Y-81056712D01*
X89297214Y-81089133D01*
X89214994Y-81144071D01*
X89145071Y-81213994D01*
X89090133Y-81296214D01*
X89052292Y-81387572D01*
X89033000Y-81484557D01*
X89033000Y-81583443D01*
X89052292Y-81680428D01*
X89090133Y-81771786D01*
X89145071Y-81854006D01*
X89214994Y-81923929D01*
X89247936Y-81945940D01*
X89170214Y-81978133D01*
X89148000Y-81992976D01*
X89148000Y-81992557D01*
X89128708Y-81895572D01*
X89090867Y-81804214D01*
X89035929Y-81721994D01*
X88966006Y-81652071D01*
X88883786Y-81597133D01*
X88792428Y-81559292D01*
X88695443Y-81540000D01*
X88596557Y-81540000D01*
X88499572Y-81559292D01*
X88408214Y-81597133D01*
X88325994Y-81652071D01*
X88256071Y-81721994D01*
X88201133Y-81804214D01*
X88163292Y-81895572D01*
X88144000Y-81992557D01*
X87465276Y-81992557D01*
X87439867Y-81931214D01*
X87384929Y-81848994D01*
X87315006Y-81779071D01*
X87232786Y-81724133D01*
X87141428Y-81686292D01*
X87044443Y-81667000D01*
X86945557Y-81667000D01*
X86848572Y-81686292D01*
X86757214Y-81724133D01*
X86674994Y-81779071D01*
X86605071Y-81848994D01*
X86550133Y-81931214D01*
X86512292Y-82022572D01*
X86493000Y-82119557D01*
X81280000Y-82119557D01*
X81280000Y-80722557D01*
X85731000Y-80722557D01*
X85731000Y-80821443D01*
X85750292Y-80918428D01*
X85788133Y-81009786D01*
X85843071Y-81092006D01*
X85912994Y-81161929D01*
X85995214Y-81216867D01*
X86086572Y-81254708D01*
X86183557Y-81274000D01*
X86282443Y-81274000D01*
X86379428Y-81254708D01*
X86470786Y-81216867D01*
X86553006Y-81161929D01*
X86622929Y-81092006D01*
X86677867Y-81009786D01*
X86715708Y-80918428D01*
X86735000Y-80821443D01*
X86735000Y-80722557D01*
X86715708Y-80625572D01*
X86677867Y-80534214D01*
X86622929Y-80451994D01*
X86553006Y-80382071D01*
X86470786Y-80327133D01*
X86379428Y-80289292D01*
X86282443Y-80270000D01*
X86183557Y-80270000D01*
X86086572Y-80289292D01*
X85995214Y-80327133D01*
X85912994Y-80382071D01*
X85843071Y-80451994D01*
X85788133Y-80534214D01*
X85750292Y-80625572D01*
X85731000Y-80722557D01*
X81280000Y-80722557D01*
X81280000Y-79452557D01*
X90049000Y-79452557D01*
X90049000Y-79551443D01*
X90068292Y-79648428D01*
X90106133Y-79739786D01*
X90161071Y-79822006D01*
X90230994Y-79891929D01*
X90313214Y-79946867D01*
X90404572Y-79984708D01*
X90501557Y-80004000D01*
X90600443Y-80004000D01*
X90697428Y-79984708D01*
X90788786Y-79946867D01*
X90871006Y-79891929D01*
X90940929Y-79822006D01*
X90995500Y-79740335D01*
X91050071Y-79822006D01*
X91119994Y-79891929D01*
X91202214Y-79946867D01*
X91293572Y-79984708D01*
X91390557Y-80004000D01*
X91489443Y-80004000D01*
X91586428Y-79984708D01*
X91677786Y-79946867D01*
X91760006Y-79891929D01*
X91829929Y-79822006D01*
X91884867Y-79739786D01*
X91922708Y-79648428D01*
X91942000Y-79551443D01*
X91942000Y-79452557D01*
X91922708Y-79355572D01*
X91910276Y-79325557D01*
X94621000Y-79325557D01*
X94621000Y-79424443D01*
X94640292Y-79521428D01*
X94678133Y-79612786D01*
X94733071Y-79695006D01*
X94802994Y-79764929D01*
X94885214Y-79819867D01*
X94976572Y-79857708D01*
X95073557Y-79877000D01*
X95172443Y-79877000D01*
X95269428Y-79857708D01*
X95360786Y-79819867D01*
X95443006Y-79764929D01*
X95512929Y-79695006D01*
X95567867Y-79612786D01*
X95581630Y-79579557D01*
X97923000Y-79579557D01*
X97923000Y-79678443D01*
X97942292Y-79775428D01*
X97980133Y-79866786D01*
X98035071Y-79949006D01*
X98104994Y-80018929D01*
X98187214Y-80073867D01*
X98278572Y-80111708D01*
X98375557Y-80131000D01*
X98474443Y-80131000D01*
X98571428Y-80111708D01*
X98595169Y-80101874D01*
X101130009Y-80101874D01*
X101130009Y-80200760D01*
X101149301Y-80297745D01*
X101187142Y-80389103D01*
X101242080Y-80471323D01*
X101312003Y-80541246D01*
X101394223Y-80596184D01*
X101485581Y-80634025D01*
X101582566Y-80653317D01*
X101681452Y-80653317D01*
X101778437Y-80634025D01*
X101869795Y-80596184D01*
X101952015Y-80541246D01*
X102021938Y-80471323D01*
X102061108Y-80412701D01*
X102107898Y-80443965D01*
X102105494Y-80445571D01*
X102035571Y-80515494D01*
X101980633Y-80597714D01*
X101942792Y-80689072D01*
X101923500Y-80786057D01*
X101923500Y-80884943D01*
X101942792Y-80981928D01*
X101980633Y-81073286D01*
X102035571Y-81155506D01*
X102105494Y-81225429D01*
X102187714Y-81280367D01*
X102279072Y-81318208D01*
X102376057Y-81337500D01*
X102474943Y-81337500D01*
X102571928Y-81318208D01*
X102663286Y-81280367D01*
X102745506Y-81225429D01*
X102815429Y-81155506D01*
X102870367Y-81073286D01*
X102908208Y-80981928D01*
X102927500Y-80884943D01*
X102927500Y-80786057D01*
X102908208Y-80689072D01*
X102870367Y-80597714D01*
X102815429Y-80515494D01*
X102745506Y-80445571D01*
X102679602Y-80401535D01*
X102682006Y-80399929D01*
X102751929Y-80330006D01*
X102806867Y-80247786D01*
X102844708Y-80156428D01*
X102864000Y-80059443D01*
X102864000Y-79960557D01*
X102844708Y-79863572D01*
X102832276Y-79833557D01*
X103003000Y-79833557D01*
X103003000Y-79932443D01*
X103022292Y-80029428D01*
X103060133Y-80120786D01*
X103115071Y-80203006D01*
X103184994Y-80272929D01*
X103267214Y-80327867D01*
X103358572Y-80365708D01*
X103455557Y-80385000D01*
X103554443Y-80385000D01*
X103651428Y-80365708D01*
X103742786Y-80327867D01*
X103825006Y-80272929D01*
X103894929Y-80203006D01*
X103949867Y-80120786D01*
X103987708Y-80029428D01*
X104007000Y-79932443D01*
X104007000Y-79833557D01*
X103987708Y-79736572D01*
X103949867Y-79645214D01*
X103894929Y-79562994D01*
X103825006Y-79493071D01*
X103742786Y-79438133D01*
X103651428Y-79400292D01*
X103554443Y-79381000D01*
X103455557Y-79381000D01*
X103358572Y-79400292D01*
X103267214Y-79438133D01*
X103184994Y-79493071D01*
X103115071Y-79562994D01*
X103060133Y-79645214D01*
X103022292Y-79736572D01*
X103003000Y-79833557D01*
X102832276Y-79833557D01*
X102806867Y-79772214D01*
X102751929Y-79689994D01*
X102682006Y-79620071D01*
X102599786Y-79565133D01*
X102508428Y-79527292D01*
X102411443Y-79508000D01*
X102312557Y-79508000D01*
X102215572Y-79527292D01*
X102124214Y-79565133D01*
X102041994Y-79620071D01*
X101972071Y-79689994D01*
X101932901Y-79748616D01*
X101869795Y-79706450D01*
X101778437Y-79668609D01*
X101681452Y-79649317D01*
X101582566Y-79649317D01*
X101485581Y-79668609D01*
X101394223Y-79706450D01*
X101312003Y-79761388D01*
X101242080Y-79831311D01*
X101187142Y-79913531D01*
X101149301Y-80004889D01*
X101130009Y-80101874D01*
X98595169Y-80101874D01*
X98662786Y-80073867D01*
X98745006Y-80018929D01*
X98814929Y-79949006D01*
X98869867Y-79866786D01*
X98907708Y-79775428D01*
X98927000Y-79678443D01*
X98927000Y-79579557D01*
X98907708Y-79482572D01*
X98869867Y-79391214D01*
X98814929Y-79308994D01*
X98745006Y-79239071D01*
X98662786Y-79184133D01*
X98571428Y-79146292D01*
X98474443Y-79127000D01*
X98375557Y-79127000D01*
X98278572Y-79146292D01*
X98187214Y-79184133D01*
X98104994Y-79239071D01*
X98035071Y-79308994D01*
X97980133Y-79391214D01*
X97942292Y-79482572D01*
X97923000Y-79579557D01*
X95581630Y-79579557D01*
X95605708Y-79521428D01*
X95625000Y-79424443D01*
X95625000Y-79325557D01*
X95605708Y-79228572D01*
X95567867Y-79137214D01*
X95512929Y-79054994D01*
X95443006Y-78985071D01*
X95360786Y-78930133D01*
X95269428Y-78892292D01*
X95172443Y-78873000D01*
X95073557Y-78873000D01*
X94976572Y-78892292D01*
X94885214Y-78930133D01*
X94802994Y-78985071D01*
X94733071Y-79054994D01*
X94678133Y-79137214D01*
X94640292Y-79228572D01*
X94621000Y-79325557D01*
X91910276Y-79325557D01*
X91884867Y-79264214D01*
X91829929Y-79181994D01*
X91760006Y-79112071D01*
X91677786Y-79057133D01*
X91586428Y-79019292D01*
X91489443Y-79000000D01*
X91390557Y-79000000D01*
X91293572Y-79019292D01*
X91202214Y-79057133D01*
X91119994Y-79112071D01*
X91050071Y-79181994D01*
X90995500Y-79263665D01*
X90940929Y-79181994D01*
X90871006Y-79112071D01*
X90788786Y-79057133D01*
X90697428Y-79019292D01*
X90600443Y-79000000D01*
X90501557Y-79000000D01*
X90404572Y-79019292D01*
X90313214Y-79057133D01*
X90230994Y-79112071D01*
X90161071Y-79181994D01*
X90106133Y-79264214D01*
X90068292Y-79355572D01*
X90049000Y-79452557D01*
X81280000Y-79452557D01*
X81280000Y-78563557D01*
X87382000Y-78563557D01*
X87382000Y-78662443D01*
X87401292Y-78759428D01*
X87439133Y-78850786D01*
X87494071Y-78933006D01*
X87563994Y-79002929D01*
X87646214Y-79057867D01*
X87737572Y-79095708D01*
X87834557Y-79115000D01*
X87933443Y-79115000D01*
X88030428Y-79095708D01*
X88121786Y-79057867D01*
X88204006Y-79002929D01*
X88273929Y-78933006D01*
X88328867Y-78850786D01*
X88366708Y-78759428D01*
X88386000Y-78662443D01*
X88386000Y-78563557D01*
X88366708Y-78466572D01*
X88328867Y-78375214D01*
X88309650Y-78346454D01*
X88342557Y-78353000D01*
X88441443Y-78353000D01*
X88538428Y-78333708D01*
X88629786Y-78295867D01*
X88712006Y-78240929D01*
X88781929Y-78171006D01*
X88836867Y-78088786D01*
X88874708Y-77997428D01*
X88894000Y-77900443D01*
X88894000Y-77801557D01*
X89033000Y-77801557D01*
X89033000Y-77900443D01*
X89052292Y-77997428D01*
X89090133Y-78088786D01*
X89145071Y-78171006D01*
X89214994Y-78240929D01*
X89297214Y-78295867D01*
X89388572Y-78333708D01*
X89485557Y-78353000D01*
X89584443Y-78353000D01*
X89681428Y-78333708D01*
X89772786Y-78295867D01*
X89855006Y-78240929D01*
X89924929Y-78171006D01*
X89979867Y-78088786D01*
X90017708Y-77997428D01*
X90037000Y-77900443D01*
X90037000Y-77801557D01*
X90017708Y-77704572D01*
X89979867Y-77613214D01*
X89924929Y-77530994D01*
X89855006Y-77461071D01*
X89772786Y-77406133D01*
X89681428Y-77368292D01*
X89584443Y-77349000D01*
X89485557Y-77349000D01*
X89388572Y-77368292D01*
X89297214Y-77406133D01*
X89214994Y-77461071D01*
X89145071Y-77530994D01*
X89090133Y-77613214D01*
X89052292Y-77704572D01*
X89033000Y-77801557D01*
X88894000Y-77801557D01*
X88874708Y-77704572D01*
X88836867Y-77613214D01*
X88781929Y-77530994D01*
X88712006Y-77461071D01*
X88629786Y-77406133D01*
X88538428Y-77368292D01*
X88441443Y-77349000D01*
X88342557Y-77349000D01*
X88245572Y-77368292D01*
X88154214Y-77406133D01*
X88071994Y-77461071D01*
X88002071Y-77530994D01*
X87947133Y-77613214D01*
X87909292Y-77704572D01*
X87890000Y-77801557D01*
X87890000Y-77900443D01*
X87909292Y-77997428D01*
X87947133Y-78088786D01*
X87966350Y-78117546D01*
X87933443Y-78111000D01*
X87834557Y-78111000D01*
X87737572Y-78130292D01*
X87646214Y-78168133D01*
X87563994Y-78223071D01*
X87494071Y-78292994D01*
X87439133Y-78375214D01*
X87401292Y-78466572D01*
X87382000Y-78563557D01*
X81280000Y-78563557D01*
X81280000Y-77801557D01*
X83445000Y-77801557D01*
X83445000Y-77900443D01*
X83464292Y-77997428D01*
X83502133Y-78088786D01*
X83557071Y-78171006D01*
X83626994Y-78240929D01*
X83709214Y-78295867D01*
X83800572Y-78333708D01*
X83897557Y-78353000D01*
X83996443Y-78353000D01*
X84093428Y-78333708D01*
X84184786Y-78295867D01*
X84267006Y-78240929D01*
X84336929Y-78171006D01*
X84391867Y-78088786D01*
X84429708Y-77997428D01*
X84449000Y-77900443D01*
X84449000Y-77801557D01*
X86366000Y-77801557D01*
X86366000Y-77900443D01*
X86385292Y-77997428D01*
X86423133Y-78088786D01*
X86478071Y-78171006D01*
X86547994Y-78240929D01*
X86630214Y-78295867D01*
X86721572Y-78333708D01*
X86818557Y-78353000D01*
X86917443Y-78353000D01*
X87014428Y-78333708D01*
X87105786Y-78295867D01*
X87188006Y-78240929D01*
X87257929Y-78171006D01*
X87312867Y-78088786D01*
X87350708Y-77997428D01*
X87370000Y-77900443D01*
X87370000Y-77801557D01*
X87350708Y-77704572D01*
X87312867Y-77613214D01*
X87257929Y-77530994D01*
X87188006Y-77461071D01*
X87105786Y-77406133D01*
X87014428Y-77368292D01*
X86917443Y-77349000D01*
X86818557Y-77349000D01*
X86721572Y-77368292D01*
X86630214Y-77406133D01*
X86547994Y-77461071D01*
X86478071Y-77530994D01*
X86423133Y-77613214D01*
X86385292Y-77704572D01*
X86366000Y-77801557D01*
X84449000Y-77801557D01*
X84429708Y-77704572D01*
X84391867Y-77613214D01*
X84336929Y-77530994D01*
X84267006Y-77461071D01*
X84184786Y-77406133D01*
X84093428Y-77368292D01*
X83996443Y-77349000D01*
X83897557Y-77349000D01*
X83800572Y-77368292D01*
X83709214Y-77406133D01*
X83626994Y-77461071D01*
X83557071Y-77530994D01*
X83502133Y-77613214D01*
X83464292Y-77704572D01*
X83445000Y-77801557D01*
X81280000Y-77801557D01*
X81280000Y-76658557D01*
X89414000Y-76658557D01*
X89414000Y-76757443D01*
X89433292Y-76854428D01*
X89471133Y-76945786D01*
X89526071Y-77028006D01*
X89595994Y-77097929D01*
X89678214Y-77152867D01*
X89769572Y-77190708D01*
X89866557Y-77210000D01*
X89965443Y-77210000D01*
X90062428Y-77190708D01*
X90153786Y-77152867D01*
X90236006Y-77097929D01*
X90305929Y-77028006D01*
X90360867Y-76945786D01*
X90374630Y-76912557D01*
X90938000Y-76912557D01*
X90938000Y-77011443D01*
X90957292Y-77108428D01*
X90995133Y-77199786D01*
X91050071Y-77282006D01*
X91119994Y-77351929D01*
X91202214Y-77406867D01*
X91293572Y-77444708D01*
X91390557Y-77464000D01*
X91489443Y-77464000D01*
X91586428Y-77444708D01*
X91677786Y-77406867D01*
X91760006Y-77351929D01*
X91829929Y-77282006D01*
X91884867Y-77199786D01*
X91898630Y-77166557D01*
X100971000Y-77166557D01*
X100971000Y-77265443D01*
X100990292Y-77362428D01*
X101028133Y-77453786D01*
X101083071Y-77536006D01*
X101152994Y-77605929D01*
X101235214Y-77660867D01*
X101326572Y-77698708D01*
X101423557Y-77718000D01*
X101522443Y-77718000D01*
X101619428Y-77698708D01*
X101710786Y-77660867D01*
X101748007Y-77635997D01*
X101785227Y-77660867D01*
X101876585Y-77698708D01*
X101973570Y-77718000D01*
X102072456Y-77718000D01*
X102169441Y-77698708D01*
X102260799Y-77660867D01*
X102343019Y-77605929D01*
X102412942Y-77536006D01*
X102467880Y-77453786D01*
X102505721Y-77362428D01*
X102525013Y-77265443D01*
X102525013Y-77166557D01*
X102505721Y-77069572D01*
X102467880Y-76978214D01*
X102412942Y-76895994D01*
X102343019Y-76826071D01*
X102260799Y-76771133D01*
X102169441Y-76733292D01*
X102072456Y-76714000D01*
X101973570Y-76714000D01*
X101876585Y-76733292D01*
X101785227Y-76771133D01*
X101748006Y-76796003D01*
X101710786Y-76771133D01*
X101619428Y-76733292D01*
X101522443Y-76714000D01*
X101423557Y-76714000D01*
X101326572Y-76733292D01*
X101235214Y-76771133D01*
X101152994Y-76826071D01*
X101083071Y-76895994D01*
X101028133Y-76978214D01*
X100990292Y-77069572D01*
X100971000Y-77166557D01*
X91898630Y-77166557D01*
X91922708Y-77108428D01*
X91942000Y-77011443D01*
X91942000Y-76912557D01*
X91922708Y-76815572D01*
X91884867Y-76724214D01*
X91829929Y-76641994D01*
X91795492Y-76607557D01*
X93732000Y-76607557D01*
X93732000Y-76706443D01*
X93751292Y-76803428D01*
X93789133Y-76894786D01*
X93844071Y-76977006D01*
X93913994Y-77046929D01*
X93996214Y-77101867D01*
X94087572Y-77139708D01*
X94184557Y-77159000D01*
X94283443Y-77159000D01*
X94380428Y-77139708D01*
X94471786Y-77101867D01*
X94554006Y-77046929D01*
X94623929Y-76977006D01*
X94678867Y-76894786D01*
X94716708Y-76803428D01*
X94736000Y-76706443D01*
X94736000Y-76607557D01*
X95319500Y-76607557D01*
X95319500Y-76706443D01*
X95338792Y-76803428D01*
X95376633Y-76894786D01*
X95431571Y-76977006D01*
X95501494Y-77046929D01*
X95583714Y-77101867D01*
X95675072Y-77139708D01*
X95772057Y-77159000D01*
X95870943Y-77159000D01*
X95967928Y-77139708D01*
X96059286Y-77101867D01*
X96141506Y-77046929D01*
X96211429Y-76977006D01*
X96266367Y-76894786D01*
X96304208Y-76803428D01*
X96323500Y-76706443D01*
X96323500Y-76607557D01*
X96304208Y-76510572D01*
X96266367Y-76419214D01*
X96211429Y-76336994D01*
X96151992Y-76277557D01*
X96907000Y-76277557D01*
X96907000Y-76376443D01*
X96926292Y-76473428D01*
X96964133Y-76564786D01*
X97019071Y-76647006D01*
X97088994Y-76716929D01*
X97171214Y-76771867D01*
X97262572Y-76809708D01*
X97359557Y-76829000D01*
X97458443Y-76829000D01*
X97555428Y-76809708D01*
X97646786Y-76771867D01*
X97729006Y-76716929D01*
X97798929Y-76647006D01*
X97853867Y-76564786D01*
X97891708Y-76473428D01*
X97911000Y-76376443D01*
X97911000Y-76277557D01*
X97891708Y-76180572D01*
X97853867Y-76089214D01*
X97798929Y-76006994D01*
X97729006Y-75937071D01*
X97646786Y-75882133D01*
X97555428Y-75844292D01*
X97458443Y-75825000D01*
X97359557Y-75825000D01*
X97262572Y-75844292D01*
X97171214Y-75882133D01*
X97088994Y-75937071D01*
X97019071Y-76006994D01*
X96964133Y-76089214D01*
X96926292Y-76180572D01*
X96907000Y-76277557D01*
X96151992Y-76277557D01*
X96141506Y-76267071D01*
X96059286Y-76212133D01*
X95967928Y-76174292D01*
X95870943Y-76155000D01*
X95772057Y-76155000D01*
X95675072Y-76174292D01*
X95583714Y-76212133D01*
X95501494Y-76267071D01*
X95431571Y-76336994D01*
X95376633Y-76419214D01*
X95338792Y-76510572D01*
X95319500Y-76607557D01*
X94736000Y-76607557D01*
X94716708Y-76510572D01*
X94678867Y-76419214D01*
X94623929Y-76336994D01*
X94554006Y-76267071D01*
X94471786Y-76212133D01*
X94380428Y-76174292D01*
X94283443Y-76155000D01*
X94184557Y-76155000D01*
X94087572Y-76174292D01*
X93996214Y-76212133D01*
X93913994Y-76267071D01*
X93844071Y-76336994D01*
X93789133Y-76419214D01*
X93751292Y-76510572D01*
X93732000Y-76607557D01*
X91795492Y-76607557D01*
X91760006Y-76572071D01*
X91677786Y-76517133D01*
X91586428Y-76479292D01*
X91489443Y-76460000D01*
X91390557Y-76460000D01*
X91293572Y-76479292D01*
X91202214Y-76517133D01*
X91119994Y-76572071D01*
X91050071Y-76641994D01*
X90995133Y-76724214D01*
X90957292Y-76815572D01*
X90938000Y-76912557D01*
X90374630Y-76912557D01*
X90398708Y-76854428D01*
X90418000Y-76757443D01*
X90418000Y-76658557D01*
X90398708Y-76561572D01*
X90360867Y-76470214D01*
X90305929Y-76387994D01*
X90236006Y-76318071D01*
X90153786Y-76263133D01*
X90062428Y-76225292D01*
X89965443Y-76206000D01*
X89866557Y-76206000D01*
X89769572Y-76225292D01*
X89678214Y-76263133D01*
X89595994Y-76318071D01*
X89526071Y-76387994D01*
X89471133Y-76470214D01*
X89433292Y-76561572D01*
X89414000Y-76658557D01*
X81280000Y-76658557D01*
X81280000Y-73326835D01*
X81334571Y-73408506D01*
X81404494Y-73478429D01*
X81486714Y-73533367D01*
X81578072Y-73571208D01*
X81675057Y-73590500D01*
X81773943Y-73590500D01*
X81870928Y-73571208D01*
X81926794Y-73548068D01*
X81940292Y-73615928D01*
X81978133Y-73707286D01*
X82033071Y-73789506D01*
X82102994Y-73859429D01*
X82185214Y-73914367D01*
X82276572Y-73952208D01*
X82373557Y-73971500D01*
X82472443Y-73971500D01*
X82569428Y-73952208D01*
X82660786Y-73914367D01*
X82743006Y-73859429D01*
X82812929Y-73789506D01*
X82867867Y-73707286D01*
X82905708Y-73615928D01*
X82925000Y-73518943D01*
X82925000Y-73518524D01*
X82947214Y-73533367D01*
X83038572Y-73571208D01*
X83135557Y-73590500D01*
X83234443Y-73590500D01*
X83262987Y-73584822D01*
X85408780Y-73584822D01*
X85408780Y-73683708D01*
X85428072Y-73780693D01*
X85465913Y-73872051D01*
X85495999Y-73917078D01*
X85476413Y-73946391D01*
X85438572Y-74037749D01*
X85419280Y-74134734D01*
X85419280Y-74233620D01*
X85438572Y-74330605D01*
X85476413Y-74421963D01*
X85498294Y-74454710D01*
X85470457Y-74496371D01*
X85432616Y-74587729D01*
X85413324Y-74684714D01*
X85413324Y-74783600D01*
X85432616Y-74880585D01*
X85470457Y-74971943D01*
X85504379Y-75022710D01*
X85470633Y-75073214D01*
X85432792Y-75164572D01*
X85413500Y-75261557D01*
X85413500Y-75360443D01*
X85432792Y-75457428D01*
X85470633Y-75548786D01*
X85525571Y-75631006D01*
X85595494Y-75700929D01*
X85677714Y-75755867D01*
X85769072Y-75793708D01*
X85866057Y-75813000D01*
X85964943Y-75813000D01*
X86061928Y-75793708D01*
X86153286Y-75755867D01*
X86235506Y-75700929D01*
X86305429Y-75631006D01*
X86328266Y-75596829D01*
X86376214Y-75628867D01*
X86467572Y-75666708D01*
X86564557Y-75686000D01*
X86663443Y-75686000D01*
X86760428Y-75666708D01*
X86851786Y-75628867D01*
X86934006Y-75573929D01*
X87003929Y-75504006D01*
X87058867Y-75421786D01*
X87096708Y-75330428D01*
X87116000Y-75233443D01*
X87116000Y-75134557D01*
X88144000Y-75134557D01*
X88144000Y-75233443D01*
X88163292Y-75330428D01*
X88201133Y-75421786D01*
X88256071Y-75504006D01*
X88325994Y-75573929D01*
X88408214Y-75628867D01*
X88499572Y-75666708D01*
X88596557Y-75686000D01*
X88695443Y-75686000D01*
X88792428Y-75666708D01*
X88883786Y-75628867D01*
X88966006Y-75573929D01*
X89035929Y-75504006D01*
X89090867Y-75421786D01*
X89128708Y-75330428D01*
X89148000Y-75233443D01*
X89148000Y-75134557D01*
X89128708Y-75037572D01*
X89090867Y-74946214D01*
X89035929Y-74863994D01*
X88966006Y-74794071D01*
X88883786Y-74739133D01*
X88792428Y-74701292D01*
X88695443Y-74682000D01*
X88596557Y-74682000D01*
X88499572Y-74701292D01*
X88408214Y-74739133D01*
X88325994Y-74794071D01*
X88256071Y-74863994D01*
X88201133Y-74946214D01*
X88163292Y-75037572D01*
X88144000Y-75134557D01*
X87116000Y-75134557D01*
X87096708Y-75037572D01*
X87058867Y-74946214D01*
X87003929Y-74863994D01*
X86934006Y-74794071D01*
X86851786Y-74739133D01*
X86760428Y-74701292D01*
X86663443Y-74682000D01*
X86564557Y-74682000D01*
X86467572Y-74701292D01*
X86417324Y-74722105D01*
X86417324Y-74684714D01*
X86398032Y-74587729D01*
X86360191Y-74496371D01*
X86338310Y-74463624D01*
X86366147Y-74421963D01*
X86403988Y-74330605D01*
X86420905Y-74245557D01*
X92843000Y-74245557D01*
X92843000Y-74344443D01*
X92862292Y-74441428D01*
X92900133Y-74532786D01*
X92955071Y-74615006D01*
X93024994Y-74684929D01*
X93107214Y-74739867D01*
X93198572Y-74777708D01*
X93295557Y-74797000D01*
X93394443Y-74797000D01*
X93491428Y-74777708D01*
X93582786Y-74739867D01*
X93665006Y-74684929D01*
X93734929Y-74615006D01*
X93789867Y-74532786D01*
X93827708Y-74441428D01*
X93847000Y-74344443D01*
X93847000Y-74245557D01*
X93827708Y-74148572D01*
X93789867Y-74057214D01*
X93734929Y-73974994D01*
X93665006Y-73905071D01*
X93582786Y-73850133D01*
X93491428Y-73812292D01*
X93394443Y-73793000D01*
X93295557Y-73793000D01*
X93198572Y-73812292D01*
X93107214Y-73850133D01*
X93024994Y-73905071D01*
X92955071Y-73974994D01*
X92900133Y-74057214D01*
X92862292Y-74148572D01*
X92843000Y-74245557D01*
X86420905Y-74245557D01*
X86423280Y-74233620D01*
X86423280Y-74134734D01*
X86403988Y-74037749D01*
X86366147Y-73946391D01*
X86336061Y-73901364D01*
X86355647Y-73872051D01*
X86393488Y-73780693D01*
X86412780Y-73683708D01*
X86412780Y-73584822D01*
X86393488Y-73487837D01*
X86363060Y-73414375D01*
X86368929Y-73408506D01*
X86423867Y-73326286D01*
X86461708Y-73234928D01*
X86481000Y-73137943D01*
X86481000Y-73039057D01*
X86479045Y-73029225D01*
X96323658Y-73029225D01*
X96323658Y-73128111D01*
X96342950Y-73225096D01*
X96380791Y-73316454D01*
X96435729Y-73398674D01*
X96505652Y-73468597D01*
X96587872Y-73523535D01*
X96615305Y-73534898D01*
X96615305Y-73594432D01*
X96634597Y-73691417D01*
X96672438Y-73782775D01*
X96727376Y-73864995D01*
X96797299Y-73934918D01*
X96840069Y-73963496D01*
X96828571Y-73974994D01*
X96773633Y-74057214D01*
X96735792Y-74148572D01*
X96716500Y-74245557D01*
X96716500Y-74344443D01*
X96735792Y-74441428D01*
X96773633Y-74532786D01*
X96828571Y-74615006D01*
X96898494Y-74684929D01*
X96980714Y-74739867D01*
X97072072Y-74777708D01*
X97169057Y-74797000D01*
X97267943Y-74797000D01*
X97364928Y-74777708D01*
X97456286Y-74739867D01*
X97538506Y-74684929D01*
X97608429Y-74615006D01*
X97663367Y-74532786D01*
X97701208Y-74441428D01*
X97720500Y-74344443D01*
X97720500Y-74245557D01*
X97701208Y-74148572D01*
X97663367Y-74057214D01*
X97608429Y-73974994D01*
X97538506Y-73905071D01*
X97495736Y-73876493D01*
X97507234Y-73864995D01*
X97562172Y-73782775D01*
X97600013Y-73691417D01*
X97619305Y-73594432D01*
X97619305Y-73495546D01*
X97600013Y-73398561D01*
X97562172Y-73307203D01*
X97507234Y-73224983D01*
X97437311Y-73155060D01*
X97355091Y-73100122D01*
X97327658Y-73088759D01*
X97327658Y-73039057D01*
X98177000Y-73039057D01*
X98177000Y-73137943D01*
X98196292Y-73234928D01*
X98234133Y-73326286D01*
X98289071Y-73408506D01*
X98358994Y-73478429D01*
X98441214Y-73533367D01*
X98532572Y-73571208D01*
X98629557Y-73590500D01*
X98728443Y-73590500D01*
X98825428Y-73571208D01*
X98916786Y-73533367D01*
X98939000Y-73518524D01*
X98939000Y-73518943D01*
X98958292Y-73615928D01*
X98996133Y-73707286D01*
X99051071Y-73789506D01*
X99120994Y-73859429D01*
X99203214Y-73914367D01*
X99294572Y-73952208D01*
X99391557Y-73971500D01*
X99490443Y-73971500D01*
X99587428Y-73952208D01*
X99678786Y-73914367D01*
X99761006Y-73859429D01*
X99830929Y-73789506D01*
X99885867Y-73707286D01*
X99923708Y-73615928D01*
X99932488Y-73571788D01*
X100026557Y-73590500D01*
X100125443Y-73590500D01*
X100222428Y-73571208D01*
X100313786Y-73533367D01*
X100396006Y-73478429D01*
X100465929Y-73408506D01*
X100475944Y-73393517D01*
X100482292Y-73425428D01*
X100520133Y-73516786D01*
X100575071Y-73599006D01*
X100644994Y-73668929D01*
X100727214Y-73723867D01*
X100818572Y-73761708D01*
X100915557Y-73781000D01*
X101014443Y-73781000D01*
X101111428Y-73761708D01*
X101121438Y-73757562D01*
X101117292Y-73767572D01*
X101098000Y-73864557D01*
X101098000Y-73963443D01*
X101117292Y-74060428D01*
X101155133Y-74151786D01*
X101210071Y-74234006D01*
X101279994Y-74303929D01*
X101362214Y-74358867D01*
X101453572Y-74396708D01*
X101550557Y-74416000D01*
X101649443Y-74416000D01*
X101746428Y-74396708D01*
X101837786Y-74358867D01*
X101920006Y-74303929D01*
X101989929Y-74234006D01*
X102044867Y-74151786D01*
X102082708Y-74060428D01*
X102102000Y-73963443D01*
X102102000Y-73864557D01*
X102082708Y-73767572D01*
X102044867Y-73676214D01*
X101989929Y-73593994D01*
X101920006Y-73524071D01*
X101837786Y-73469133D01*
X101746428Y-73431292D01*
X101649443Y-73412000D01*
X101550557Y-73412000D01*
X101453572Y-73431292D01*
X101443562Y-73435438D01*
X101447708Y-73425428D01*
X101467000Y-73328443D01*
X101467000Y-73229557D01*
X101447708Y-73132572D01*
X101443562Y-73122562D01*
X101453572Y-73126708D01*
X101550557Y-73146000D01*
X101649443Y-73146000D01*
X101746428Y-73126708D01*
X101837786Y-73088867D01*
X101920006Y-73033929D01*
X101989929Y-72964006D01*
X102044867Y-72881786D01*
X102082708Y-72790428D01*
X102102000Y-72693443D01*
X102102000Y-72594557D01*
X102082708Y-72497572D01*
X102044867Y-72406214D01*
X101989929Y-72323994D01*
X101920006Y-72254071D01*
X101837786Y-72199133D01*
X101746428Y-72161292D01*
X101649443Y-72142000D01*
X101550557Y-72142000D01*
X101453572Y-72161292D01*
X101362214Y-72199133D01*
X101279994Y-72254071D01*
X101210071Y-72323994D01*
X101155133Y-72406214D01*
X101117292Y-72497572D01*
X101098000Y-72594557D01*
X101098000Y-72693443D01*
X101117292Y-72790428D01*
X101121438Y-72800438D01*
X101111428Y-72796292D01*
X101014443Y-72777000D01*
X100915557Y-72777000D01*
X100818572Y-72796292D01*
X100727214Y-72834133D01*
X100644994Y-72889071D01*
X100575071Y-72958994D01*
X100565056Y-72973983D01*
X100558708Y-72942072D01*
X100520867Y-72850714D01*
X100465929Y-72768494D01*
X100396006Y-72698571D01*
X100313786Y-72643633D01*
X100222428Y-72605792D01*
X100125443Y-72586500D01*
X100026557Y-72586500D01*
X99929572Y-72605792D01*
X99838214Y-72643633D01*
X99755994Y-72698571D01*
X99686071Y-72768494D01*
X99631133Y-72850714D01*
X99593292Y-72942072D01*
X99584512Y-72986212D01*
X99490443Y-72967500D01*
X99391557Y-72967500D01*
X99294572Y-72986792D01*
X99203214Y-73024633D01*
X99181000Y-73039476D01*
X99181000Y-73039057D01*
X99161708Y-72942072D01*
X99123867Y-72850714D01*
X99068929Y-72768494D01*
X98999006Y-72698571D01*
X98916786Y-72643633D01*
X98825428Y-72605792D01*
X98728443Y-72586500D01*
X98629557Y-72586500D01*
X98532572Y-72605792D01*
X98441214Y-72643633D01*
X98358994Y-72698571D01*
X98289071Y-72768494D01*
X98234133Y-72850714D01*
X98196292Y-72942072D01*
X98177000Y-73039057D01*
X97327658Y-73039057D01*
X97327658Y-73029225D01*
X97308366Y-72932240D01*
X97270525Y-72840882D01*
X97215587Y-72758662D01*
X97145664Y-72688739D01*
X97063444Y-72633801D01*
X96972086Y-72595960D01*
X96875101Y-72576668D01*
X96776215Y-72576668D01*
X96679230Y-72595960D01*
X96587872Y-72633801D01*
X96505652Y-72688739D01*
X96435729Y-72758662D01*
X96380791Y-72840882D01*
X96342950Y-72932240D01*
X96323658Y-73029225D01*
X86479045Y-73029225D01*
X86461708Y-72942072D01*
X86423867Y-72850714D01*
X86368929Y-72768494D01*
X86299006Y-72698571D01*
X86216786Y-72643633D01*
X86125428Y-72605792D01*
X86028443Y-72586500D01*
X85929557Y-72586500D01*
X85832572Y-72605792D01*
X85741214Y-72643633D01*
X85658994Y-72698571D01*
X85589071Y-72768494D01*
X85534133Y-72850714D01*
X85496292Y-72942072D01*
X85477000Y-73039057D01*
X85477000Y-73137943D01*
X85496292Y-73234928D01*
X85526720Y-73308390D01*
X85520851Y-73314259D01*
X85465913Y-73396479D01*
X85428072Y-73487837D01*
X85408780Y-73584822D01*
X83262987Y-73584822D01*
X83331428Y-73571208D01*
X83422786Y-73533367D01*
X83505006Y-73478429D01*
X83574929Y-73408506D01*
X83629867Y-73326286D01*
X83667708Y-73234928D01*
X83687000Y-73137943D01*
X83687000Y-73039057D01*
X83667708Y-72942072D01*
X83629867Y-72850714D01*
X83574929Y-72768494D01*
X83505006Y-72698571D01*
X83422786Y-72643633D01*
X83331428Y-72605792D01*
X83234443Y-72586500D01*
X83135557Y-72586500D01*
X83038572Y-72605792D01*
X82947214Y-72643633D01*
X82864994Y-72698571D01*
X82795071Y-72768494D01*
X82740133Y-72850714D01*
X82702292Y-72942072D01*
X82683000Y-73039057D01*
X82683000Y-73039476D01*
X82660786Y-73024633D01*
X82569428Y-72986792D01*
X82472443Y-72967500D01*
X82373557Y-72967500D01*
X82276572Y-72986792D01*
X82220706Y-73009932D01*
X82207208Y-72942072D01*
X82169367Y-72850714D01*
X82114429Y-72768494D01*
X82044506Y-72698571D01*
X81962286Y-72643633D01*
X81870928Y-72605792D01*
X81773943Y-72586500D01*
X81675057Y-72586500D01*
X81578072Y-72605792D01*
X81486714Y-72643633D01*
X81404494Y-72698571D01*
X81334571Y-72768494D01*
X81280000Y-72850165D01*
X81280000Y-71628000D01*
X86493000Y-71628000D01*
X86493000Y-71677443D01*
M02*
