G04 #@! TF.GenerationSoftware,KiCad,Pcbnew,(5.1.5)-3*
G04 #@! TF.CreationDate,2020-08-08T14:50:29-04:00*
G04 #@! TF.ProjectId,SmartWatch V5,536d6172-7457-4617-9463-682056352e6b,rev?*
G04 #@! TF.SameCoordinates,Original*
G04 #@! TF.FileFunction,Paste,Top*
G04 #@! TF.FilePolarity,Positive*
%FSLAX46Y46*%
G04 Gerber Fmt 4.6, Leading zero omitted, Abs format (unit mm)*
G04 Created by KiCad (PCBNEW (5.1.5)-3) date 2020-08-08 14:50:29*
%MOMM*%
%LPD*%
G04 APERTURE LIST*
%ADD10C,0.100000*%
%ADD11R,2.000000X0.900000*%
%ADD12R,0.900000X2.000000*%
%ADD13R,5.000000X5.000000*%
%ADD14R,1.600200X1.600200*%
%ADD15R,0.812800X0.203200*%
%ADD16R,0.203200X0.812800*%
%ADD17R,0.650000X1.060000*%
%ADD18R,1.400000X1.050000*%
%ADD19R,1.050000X1.400000*%
%ADD20R,0.400000X1.350000*%
%ADD21R,2.100000X1.600000*%
%ADD22R,1.800000X1.900000*%
%ADD23R,1.900000X1.900000*%
G04 APERTURE END LIST*
D10*
G36*
X82192691Y-95956553D02*
G01*
X82213926Y-95959703D01*
X82234750Y-95964919D01*
X82254962Y-95972151D01*
X82274368Y-95981330D01*
X82292781Y-95992366D01*
X82310024Y-96005154D01*
X82325930Y-96019570D01*
X82340346Y-96035476D01*
X82353134Y-96052719D01*
X82364170Y-96071132D01*
X82373349Y-96090538D01*
X82380581Y-96110750D01*
X82385797Y-96131574D01*
X82388947Y-96152809D01*
X82390000Y-96174250D01*
X82390000Y-96611750D01*
X82388947Y-96633191D01*
X82385797Y-96654426D01*
X82380581Y-96675250D01*
X82373349Y-96695462D01*
X82364170Y-96714868D01*
X82353134Y-96733281D01*
X82340346Y-96750524D01*
X82325930Y-96766430D01*
X82310024Y-96780846D01*
X82292781Y-96793634D01*
X82274368Y-96804670D01*
X82254962Y-96813849D01*
X82234750Y-96821081D01*
X82213926Y-96826297D01*
X82192691Y-96829447D01*
X82171250Y-96830500D01*
X81658750Y-96830500D01*
X81637309Y-96829447D01*
X81616074Y-96826297D01*
X81595250Y-96821081D01*
X81575038Y-96813849D01*
X81555632Y-96804670D01*
X81537219Y-96793634D01*
X81519976Y-96780846D01*
X81504070Y-96766430D01*
X81489654Y-96750524D01*
X81476866Y-96733281D01*
X81465830Y-96714868D01*
X81456651Y-96695462D01*
X81449419Y-96675250D01*
X81444203Y-96654426D01*
X81441053Y-96633191D01*
X81440000Y-96611750D01*
X81440000Y-96174250D01*
X81441053Y-96152809D01*
X81444203Y-96131574D01*
X81449419Y-96110750D01*
X81456651Y-96090538D01*
X81465830Y-96071132D01*
X81476866Y-96052719D01*
X81489654Y-96035476D01*
X81504070Y-96019570D01*
X81519976Y-96005154D01*
X81537219Y-95992366D01*
X81555632Y-95981330D01*
X81575038Y-95972151D01*
X81595250Y-95964919D01*
X81616074Y-95959703D01*
X81637309Y-95956553D01*
X81658750Y-95955500D01*
X82171250Y-95955500D01*
X82192691Y-95956553D01*
G37*
G36*
X82192691Y-97531553D02*
G01*
X82213926Y-97534703D01*
X82234750Y-97539919D01*
X82254962Y-97547151D01*
X82274368Y-97556330D01*
X82292781Y-97567366D01*
X82310024Y-97580154D01*
X82325930Y-97594570D01*
X82340346Y-97610476D01*
X82353134Y-97627719D01*
X82364170Y-97646132D01*
X82373349Y-97665538D01*
X82380581Y-97685750D01*
X82385797Y-97706574D01*
X82388947Y-97727809D01*
X82390000Y-97749250D01*
X82390000Y-98186750D01*
X82388947Y-98208191D01*
X82385797Y-98229426D01*
X82380581Y-98250250D01*
X82373349Y-98270462D01*
X82364170Y-98289868D01*
X82353134Y-98308281D01*
X82340346Y-98325524D01*
X82325930Y-98341430D01*
X82310024Y-98355846D01*
X82292781Y-98368634D01*
X82274368Y-98379670D01*
X82254962Y-98388849D01*
X82234750Y-98396081D01*
X82213926Y-98401297D01*
X82192691Y-98404447D01*
X82171250Y-98405500D01*
X81658750Y-98405500D01*
X81637309Y-98404447D01*
X81616074Y-98401297D01*
X81595250Y-98396081D01*
X81575038Y-98388849D01*
X81555632Y-98379670D01*
X81537219Y-98368634D01*
X81519976Y-98355846D01*
X81504070Y-98341430D01*
X81489654Y-98325524D01*
X81476866Y-98308281D01*
X81465830Y-98289868D01*
X81456651Y-98270462D01*
X81449419Y-98250250D01*
X81444203Y-98229426D01*
X81441053Y-98208191D01*
X81440000Y-98186750D01*
X81440000Y-97749250D01*
X81441053Y-97727809D01*
X81444203Y-97706574D01*
X81449419Y-97685750D01*
X81456651Y-97665538D01*
X81465830Y-97646132D01*
X81476866Y-97627719D01*
X81489654Y-97610476D01*
X81504070Y-97594570D01*
X81519976Y-97580154D01*
X81537219Y-97567366D01*
X81555632Y-97556330D01*
X81575038Y-97547151D01*
X81595250Y-97539919D01*
X81616074Y-97534703D01*
X81637309Y-97531553D01*
X81658750Y-97530500D01*
X82171250Y-97530500D01*
X82192691Y-97531553D01*
G37*
D11*
X99441000Y-73279000D03*
X99441000Y-74549000D03*
X99441000Y-75819000D03*
X99441000Y-77089000D03*
X99441000Y-78359000D03*
X99441000Y-79629000D03*
X99441000Y-80899000D03*
X99441000Y-82169000D03*
X99441000Y-83439000D03*
X99441000Y-84709000D03*
X99441000Y-85979000D03*
X99441000Y-87249000D03*
X99441000Y-88519000D03*
X99441000Y-89789000D03*
D12*
X96656000Y-90789000D03*
X95386000Y-90789000D03*
X94116000Y-90789000D03*
X92846000Y-90789000D03*
X91576000Y-90789000D03*
X90306000Y-90789000D03*
X89036000Y-90789000D03*
X87766000Y-90789000D03*
X86496000Y-90789000D03*
X85226000Y-90789000D03*
D11*
X82441000Y-89789000D03*
X82441000Y-88519000D03*
X82441000Y-87249000D03*
X82441000Y-85979000D03*
X82441000Y-84709000D03*
X82441000Y-83439000D03*
X82441000Y-82169000D03*
X82441000Y-80899000D03*
X82441000Y-79629000D03*
X82441000Y-78359000D03*
X82441000Y-77089000D03*
X82441000Y-75819000D03*
X82441000Y-74549000D03*
X82441000Y-73279000D03*
D13*
X89941000Y-80779000D03*
D14*
X84963000Y-95123000D03*
D15*
X86410800Y-94372999D03*
X86410800Y-94873000D03*
X86410800Y-95373000D03*
X86410800Y-95873001D03*
D16*
X85713001Y-96570800D03*
X85213000Y-96570800D03*
X84713000Y-96570800D03*
X84212999Y-96570800D03*
D15*
X83515200Y-95873001D03*
X83515200Y-95373000D03*
X83515200Y-94873000D03*
X83515200Y-94372999D03*
D16*
X84212999Y-93675200D03*
X84713000Y-93675200D03*
X85213000Y-93675200D03*
X85713001Y-93675200D03*
D17*
X103632000Y-81194000D03*
X101732000Y-81194000D03*
X101732000Y-78994000D03*
X102682000Y-78994000D03*
X103632000Y-78994000D03*
D18*
X88856000Y-96467000D03*
X92456000Y-96467000D03*
X88856000Y-97917000D03*
X92456000Y-97917000D03*
D19*
X103949500Y-70250500D03*
X103949500Y-73850500D03*
X102499500Y-70250500D03*
X102499500Y-73850500D03*
D10*
G36*
X85965191Y-97633553D02*
G01*
X85986426Y-97636703D01*
X86007250Y-97641919D01*
X86027462Y-97649151D01*
X86046868Y-97658330D01*
X86065281Y-97669366D01*
X86082524Y-97682154D01*
X86098430Y-97696570D01*
X86112846Y-97712476D01*
X86125634Y-97729719D01*
X86136670Y-97748132D01*
X86145849Y-97767538D01*
X86153081Y-97787750D01*
X86158297Y-97808574D01*
X86161447Y-97829809D01*
X86162500Y-97851250D01*
X86162500Y-98363750D01*
X86161447Y-98385191D01*
X86158297Y-98406426D01*
X86153081Y-98427250D01*
X86145849Y-98447462D01*
X86136670Y-98466868D01*
X86125634Y-98485281D01*
X86112846Y-98502524D01*
X86098430Y-98518430D01*
X86082524Y-98532846D01*
X86065281Y-98545634D01*
X86046868Y-98556670D01*
X86027462Y-98565849D01*
X86007250Y-98573081D01*
X85986426Y-98578297D01*
X85965191Y-98581447D01*
X85943750Y-98582500D01*
X85506250Y-98582500D01*
X85484809Y-98581447D01*
X85463574Y-98578297D01*
X85442750Y-98573081D01*
X85422538Y-98565849D01*
X85403132Y-98556670D01*
X85384719Y-98545634D01*
X85367476Y-98532846D01*
X85351570Y-98518430D01*
X85337154Y-98502524D01*
X85324366Y-98485281D01*
X85313330Y-98466868D01*
X85304151Y-98447462D01*
X85296919Y-98427250D01*
X85291703Y-98406426D01*
X85288553Y-98385191D01*
X85287500Y-98363750D01*
X85287500Y-97851250D01*
X85288553Y-97829809D01*
X85291703Y-97808574D01*
X85296919Y-97787750D01*
X85304151Y-97767538D01*
X85313330Y-97748132D01*
X85324366Y-97729719D01*
X85337154Y-97712476D01*
X85351570Y-97696570D01*
X85367476Y-97682154D01*
X85384719Y-97669366D01*
X85403132Y-97658330D01*
X85422538Y-97649151D01*
X85442750Y-97641919D01*
X85463574Y-97636703D01*
X85484809Y-97633553D01*
X85506250Y-97632500D01*
X85943750Y-97632500D01*
X85965191Y-97633553D01*
G37*
G36*
X84390191Y-97633553D02*
G01*
X84411426Y-97636703D01*
X84432250Y-97641919D01*
X84452462Y-97649151D01*
X84471868Y-97658330D01*
X84490281Y-97669366D01*
X84507524Y-97682154D01*
X84523430Y-97696570D01*
X84537846Y-97712476D01*
X84550634Y-97729719D01*
X84561670Y-97748132D01*
X84570849Y-97767538D01*
X84578081Y-97787750D01*
X84583297Y-97808574D01*
X84586447Y-97829809D01*
X84587500Y-97851250D01*
X84587500Y-98363750D01*
X84586447Y-98385191D01*
X84583297Y-98406426D01*
X84578081Y-98427250D01*
X84570849Y-98447462D01*
X84561670Y-98466868D01*
X84550634Y-98485281D01*
X84537846Y-98502524D01*
X84523430Y-98518430D01*
X84507524Y-98532846D01*
X84490281Y-98545634D01*
X84471868Y-98556670D01*
X84452462Y-98565849D01*
X84432250Y-98573081D01*
X84411426Y-98578297D01*
X84390191Y-98581447D01*
X84368750Y-98582500D01*
X83931250Y-98582500D01*
X83909809Y-98581447D01*
X83888574Y-98578297D01*
X83867750Y-98573081D01*
X83847538Y-98565849D01*
X83828132Y-98556670D01*
X83809719Y-98545634D01*
X83792476Y-98532846D01*
X83776570Y-98518430D01*
X83762154Y-98502524D01*
X83749366Y-98485281D01*
X83738330Y-98466868D01*
X83729151Y-98447462D01*
X83721919Y-98427250D01*
X83716703Y-98406426D01*
X83713553Y-98385191D01*
X83712500Y-98363750D01*
X83712500Y-97851250D01*
X83713553Y-97829809D01*
X83716703Y-97808574D01*
X83721919Y-97787750D01*
X83729151Y-97767538D01*
X83738330Y-97748132D01*
X83749366Y-97729719D01*
X83762154Y-97712476D01*
X83776570Y-97696570D01*
X83792476Y-97682154D01*
X83809719Y-97669366D01*
X83828132Y-97658330D01*
X83847538Y-97649151D01*
X83867750Y-97641919D01*
X83888574Y-97636703D01*
X83909809Y-97633553D01*
X83931250Y-97632500D01*
X84368750Y-97632500D01*
X84390191Y-97633553D01*
G37*
G36*
X82192691Y-94051553D02*
G01*
X82213926Y-94054703D01*
X82234750Y-94059919D01*
X82254962Y-94067151D01*
X82274368Y-94076330D01*
X82292781Y-94087366D01*
X82310024Y-94100154D01*
X82325930Y-94114570D01*
X82340346Y-94130476D01*
X82353134Y-94147719D01*
X82364170Y-94166132D01*
X82373349Y-94185538D01*
X82380581Y-94205750D01*
X82385797Y-94226574D01*
X82388947Y-94247809D01*
X82390000Y-94269250D01*
X82390000Y-94706750D01*
X82388947Y-94728191D01*
X82385797Y-94749426D01*
X82380581Y-94770250D01*
X82373349Y-94790462D01*
X82364170Y-94809868D01*
X82353134Y-94828281D01*
X82340346Y-94845524D01*
X82325930Y-94861430D01*
X82310024Y-94875846D01*
X82292781Y-94888634D01*
X82274368Y-94899670D01*
X82254962Y-94908849D01*
X82234750Y-94916081D01*
X82213926Y-94921297D01*
X82192691Y-94924447D01*
X82171250Y-94925500D01*
X81658750Y-94925500D01*
X81637309Y-94924447D01*
X81616074Y-94921297D01*
X81595250Y-94916081D01*
X81575038Y-94908849D01*
X81555632Y-94899670D01*
X81537219Y-94888634D01*
X81519976Y-94875846D01*
X81504070Y-94861430D01*
X81489654Y-94845524D01*
X81476866Y-94828281D01*
X81465830Y-94809868D01*
X81456651Y-94790462D01*
X81449419Y-94770250D01*
X81444203Y-94749426D01*
X81441053Y-94728191D01*
X81440000Y-94706750D01*
X81440000Y-94269250D01*
X81441053Y-94247809D01*
X81444203Y-94226574D01*
X81449419Y-94205750D01*
X81456651Y-94185538D01*
X81465830Y-94166132D01*
X81476866Y-94147719D01*
X81489654Y-94130476D01*
X81504070Y-94114570D01*
X81519976Y-94100154D01*
X81537219Y-94087366D01*
X81555632Y-94076330D01*
X81575038Y-94067151D01*
X81595250Y-94059919D01*
X81616074Y-94054703D01*
X81637309Y-94051553D01*
X81658750Y-94050500D01*
X82171250Y-94050500D01*
X82192691Y-94051553D01*
G37*
G36*
X82192691Y-92476553D02*
G01*
X82213926Y-92479703D01*
X82234750Y-92484919D01*
X82254962Y-92492151D01*
X82274368Y-92501330D01*
X82292781Y-92512366D01*
X82310024Y-92525154D01*
X82325930Y-92539570D01*
X82340346Y-92555476D01*
X82353134Y-92572719D01*
X82364170Y-92591132D01*
X82373349Y-92610538D01*
X82380581Y-92630750D01*
X82385797Y-92651574D01*
X82388947Y-92672809D01*
X82390000Y-92694250D01*
X82390000Y-93131750D01*
X82388947Y-93153191D01*
X82385797Y-93174426D01*
X82380581Y-93195250D01*
X82373349Y-93215462D01*
X82364170Y-93234868D01*
X82353134Y-93253281D01*
X82340346Y-93270524D01*
X82325930Y-93286430D01*
X82310024Y-93300846D01*
X82292781Y-93313634D01*
X82274368Y-93324670D01*
X82254962Y-93333849D01*
X82234750Y-93341081D01*
X82213926Y-93346297D01*
X82192691Y-93349447D01*
X82171250Y-93350500D01*
X81658750Y-93350500D01*
X81637309Y-93349447D01*
X81616074Y-93346297D01*
X81595250Y-93341081D01*
X81575038Y-93333849D01*
X81555632Y-93324670D01*
X81537219Y-93313634D01*
X81519976Y-93300846D01*
X81504070Y-93286430D01*
X81489654Y-93270524D01*
X81476866Y-93253281D01*
X81465830Y-93234868D01*
X81456651Y-93215462D01*
X81449419Y-93195250D01*
X81444203Y-93174426D01*
X81441053Y-93153191D01*
X81440000Y-93131750D01*
X81440000Y-92694250D01*
X81441053Y-92672809D01*
X81444203Y-92651574D01*
X81449419Y-92630750D01*
X81456651Y-92610538D01*
X81465830Y-92591132D01*
X81476866Y-92572719D01*
X81489654Y-92555476D01*
X81504070Y-92539570D01*
X81519976Y-92525154D01*
X81537219Y-92512366D01*
X81555632Y-92501330D01*
X81575038Y-92492151D01*
X81595250Y-92484919D01*
X81616074Y-92479703D01*
X81637309Y-92476553D01*
X81658750Y-92475500D01*
X82171250Y-92475500D01*
X82192691Y-92476553D01*
G37*
G36*
X103147691Y-90368553D02*
G01*
X103168926Y-90371703D01*
X103189750Y-90376919D01*
X103209962Y-90384151D01*
X103229368Y-90393330D01*
X103247781Y-90404366D01*
X103265024Y-90417154D01*
X103280930Y-90431570D01*
X103295346Y-90447476D01*
X103308134Y-90464719D01*
X103319170Y-90483132D01*
X103328349Y-90502538D01*
X103335581Y-90522750D01*
X103340797Y-90543574D01*
X103343947Y-90564809D01*
X103345000Y-90586250D01*
X103345000Y-91023750D01*
X103343947Y-91045191D01*
X103340797Y-91066426D01*
X103335581Y-91087250D01*
X103328349Y-91107462D01*
X103319170Y-91126868D01*
X103308134Y-91145281D01*
X103295346Y-91162524D01*
X103280930Y-91178430D01*
X103265024Y-91192846D01*
X103247781Y-91205634D01*
X103229368Y-91216670D01*
X103209962Y-91225849D01*
X103189750Y-91233081D01*
X103168926Y-91238297D01*
X103147691Y-91241447D01*
X103126250Y-91242500D01*
X102613750Y-91242500D01*
X102592309Y-91241447D01*
X102571074Y-91238297D01*
X102550250Y-91233081D01*
X102530038Y-91225849D01*
X102510632Y-91216670D01*
X102492219Y-91205634D01*
X102474976Y-91192846D01*
X102459070Y-91178430D01*
X102444654Y-91162524D01*
X102431866Y-91145281D01*
X102420830Y-91126868D01*
X102411651Y-91107462D01*
X102404419Y-91087250D01*
X102399203Y-91066426D01*
X102396053Y-91045191D01*
X102395000Y-91023750D01*
X102395000Y-90586250D01*
X102396053Y-90564809D01*
X102399203Y-90543574D01*
X102404419Y-90522750D01*
X102411651Y-90502538D01*
X102420830Y-90483132D01*
X102431866Y-90464719D01*
X102444654Y-90447476D01*
X102459070Y-90431570D01*
X102474976Y-90417154D01*
X102492219Y-90404366D01*
X102510632Y-90393330D01*
X102530038Y-90384151D01*
X102550250Y-90376919D01*
X102571074Y-90371703D01*
X102592309Y-90368553D01*
X102613750Y-90367500D01*
X103126250Y-90367500D01*
X103147691Y-90368553D01*
G37*
G36*
X103147691Y-88793553D02*
G01*
X103168926Y-88796703D01*
X103189750Y-88801919D01*
X103209962Y-88809151D01*
X103229368Y-88818330D01*
X103247781Y-88829366D01*
X103265024Y-88842154D01*
X103280930Y-88856570D01*
X103295346Y-88872476D01*
X103308134Y-88889719D01*
X103319170Y-88908132D01*
X103328349Y-88927538D01*
X103335581Y-88947750D01*
X103340797Y-88968574D01*
X103343947Y-88989809D01*
X103345000Y-89011250D01*
X103345000Y-89448750D01*
X103343947Y-89470191D01*
X103340797Y-89491426D01*
X103335581Y-89512250D01*
X103328349Y-89532462D01*
X103319170Y-89551868D01*
X103308134Y-89570281D01*
X103295346Y-89587524D01*
X103280930Y-89603430D01*
X103265024Y-89617846D01*
X103247781Y-89630634D01*
X103229368Y-89641670D01*
X103209962Y-89650849D01*
X103189750Y-89658081D01*
X103168926Y-89663297D01*
X103147691Y-89666447D01*
X103126250Y-89667500D01*
X102613750Y-89667500D01*
X102592309Y-89666447D01*
X102571074Y-89663297D01*
X102550250Y-89658081D01*
X102530038Y-89650849D01*
X102510632Y-89641670D01*
X102492219Y-89630634D01*
X102474976Y-89617846D01*
X102459070Y-89603430D01*
X102444654Y-89587524D01*
X102431866Y-89570281D01*
X102420830Y-89551868D01*
X102411651Y-89532462D01*
X102404419Y-89512250D01*
X102399203Y-89491426D01*
X102396053Y-89470191D01*
X102395000Y-89448750D01*
X102395000Y-89011250D01*
X102396053Y-88989809D01*
X102399203Y-88968574D01*
X102404419Y-88947750D01*
X102411651Y-88927538D01*
X102420830Y-88908132D01*
X102431866Y-88889719D01*
X102444654Y-88872476D01*
X102459070Y-88856570D01*
X102474976Y-88842154D01*
X102492219Y-88829366D01*
X102510632Y-88818330D01*
X102530038Y-88809151D01*
X102550250Y-88801919D01*
X102571074Y-88796703D01*
X102592309Y-88793553D01*
X102613750Y-88792500D01*
X103126250Y-88792500D01*
X103147691Y-88793553D01*
G37*
G36*
X103288191Y-91855053D02*
G01*
X103309426Y-91858203D01*
X103330250Y-91863419D01*
X103350462Y-91870651D01*
X103369868Y-91879830D01*
X103388281Y-91890866D01*
X103405524Y-91903654D01*
X103421430Y-91918070D01*
X103435846Y-91933976D01*
X103448634Y-91951219D01*
X103459670Y-91969632D01*
X103468849Y-91989038D01*
X103476081Y-92009250D01*
X103481297Y-92030074D01*
X103484447Y-92051309D01*
X103485500Y-92072750D01*
X103485500Y-92585250D01*
X103484447Y-92606691D01*
X103481297Y-92627926D01*
X103476081Y-92648750D01*
X103468849Y-92668962D01*
X103459670Y-92688368D01*
X103448634Y-92706781D01*
X103435846Y-92724024D01*
X103421430Y-92739930D01*
X103405524Y-92754346D01*
X103388281Y-92767134D01*
X103369868Y-92778170D01*
X103350462Y-92787349D01*
X103330250Y-92794581D01*
X103309426Y-92799797D01*
X103288191Y-92802947D01*
X103266750Y-92804000D01*
X102829250Y-92804000D01*
X102807809Y-92802947D01*
X102786574Y-92799797D01*
X102765750Y-92794581D01*
X102745538Y-92787349D01*
X102726132Y-92778170D01*
X102707719Y-92767134D01*
X102690476Y-92754346D01*
X102674570Y-92739930D01*
X102660154Y-92724024D01*
X102647366Y-92706781D01*
X102636330Y-92688368D01*
X102627151Y-92668962D01*
X102619919Y-92648750D01*
X102614703Y-92627926D01*
X102611553Y-92606691D01*
X102610500Y-92585250D01*
X102610500Y-92072750D01*
X102611553Y-92051309D01*
X102614703Y-92030074D01*
X102619919Y-92009250D01*
X102627151Y-91989038D01*
X102636330Y-91969632D01*
X102647366Y-91951219D01*
X102660154Y-91933976D01*
X102674570Y-91918070D01*
X102690476Y-91903654D01*
X102707719Y-91890866D01*
X102726132Y-91879830D01*
X102745538Y-91870651D01*
X102765750Y-91863419D01*
X102786574Y-91858203D01*
X102807809Y-91855053D01*
X102829250Y-91854000D01*
X103266750Y-91854000D01*
X103288191Y-91855053D01*
G37*
G36*
X101713191Y-91855053D02*
G01*
X101734426Y-91858203D01*
X101755250Y-91863419D01*
X101775462Y-91870651D01*
X101794868Y-91879830D01*
X101813281Y-91890866D01*
X101830524Y-91903654D01*
X101846430Y-91918070D01*
X101860846Y-91933976D01*
X101873634Y-91951219D01*
X101884670Y-91969632D01*
X101893849Y-91989038D01*
X101901081Y-92009250D01*
X101906297Y-92030074D01*
X101909447Y-92051309D01*
X101910500Y-92072750D01*
X101910500Y-92585250D01*
X101909447Y-92606691D01*
X101906297Y-92627926D01*
X101901081Y-92648750D01*
X101893849Y-92668962D01*
X101884670Y-92688368D01*
X101873634Y-92706781D01*
X101860846Y-92724024D01*
X101846430Y-92739930D01*
X101830524Y-92754346D01*
X101813281Y-92767134D01*
X101794868Y-92778170D01*
X101775462Y-92787349D01*
X101755250Y-92794581D01*
X101734426Y-92799797D01*
X101713191Y-92802947D01*
X101691750Y-92804000D01*
X101254250Y-92804000D01*
X101232809Y-92802947D01*
X101211574Y-92799797D01*
X101190750Y-92794581D01*
X101170538Y-92787349D01*
X101151132Y-92778170D01*
X101132719Y-92767134D01*
X101115476Y-92754346D01*
X101099570Y-92739930D01*
X101085154Y-92724024D01*
X101072366Y-92706781D01*
X101061330Y-92688368D01*
X101052151Y-92668962D01*
X101044919Y-92648750D01*
X101039703Y-92627926D01*
X101036553Y-92606691D01*
X101035500Y-92585250D01*
X101035500Y-92072750D01*
X101036553Y-92051309D01*
X101039703Y-92030074D01*
X101044919Y-92009250D01*
X101052151Y-91989038D01*
X101061330Y-91969632D01*
X101072366Y-91951219D01*
X101085154Y-91933976D01*
X101099570Y-91918070D01*
X101115476Y-91903654D01*
X101132719Y-91890866D01*
X101151132Y-91879830D01*
X101170538Y-91870651D01*
X101190750Y-91863419D01*
X101211574Y-91858203D01*
X101232809Y-91855053D01*
X101254250Y-91854000D01*
X101691750Y-91854000D01*
X101713191Y-91855053D01*
G37*
G36*
X103288191Y-93379053D02*
G01*
X103309426Y-93382203D01*
X103330250Y-93387419D01*
X103350462Y-93394651D01*
X103369868Y-93403830D01*
X103388281Y-93414866D01*
X103405524Y-93427654D01*
X103421430Y-93442070D01*
X103435846Y-93457976D01*
X103448634Y-93475219D01*
X103459670Y-93493632D01*
X103468849Y-93513038D01*
X103476081Y-93533250D01*
X103481297Y-93554074D01*
X103484447Y-93575309D01*
X103485500Y-93596750D01*
X103485500Y-94109250D01*
X103484447Y-94130691D01*
X103481297Y-94151926D01*
X103476081Y-94172750D01*
X103468849Y-94192962D01*
X103459670Y-94212368D01*
X103448634Y-94230781D01*
X103435846Y-94248024D01*
X103421430Y-94263930D01*
X103405524Y-94278346D01*
X103388281Y-94291134D01*
X103369868Y-94302170D01*
X103350462Y-94311349D01*
X103330250Y-94318581D01*
X103309426Y-94323797D01*
X103288191Y-94326947D01*
X103266750Y-94328000D01*
X102829250Y-94328000D01*
X102807809Y-94326947D01*
X102786574Y-94323797D01*
X102765750Y-94318581D01*
X102745538Y-94311349D01*
X102726132Y-94302170D01*
X102707719Y-94291134D01*
X102690476Y-94278346D01*
X102674570Y-94263930D01*
X102660154Y-94248024D01*
X102647366Y-94230781D01*
X102636330Y-94212368D01*
X102627151Y-94192962D01*
X102619919Y-94172750D01*
X102614703Y-94151926D01*
X102611553Y-94130691D01*
X102610500Y-94109250D01*
X102610500Y-93596750D01*
X102611553Y-93575309D01*
X102614703Y-93554074D01*
X102619919Y-93533250D01*
X102627151Y-93513038D01*
X102636330Y-93493632D01*
X102647366Y-93475219D01*
X102660154Y-93457976D01*
X102674570Y-93442070D01*
X102690476Y-93427654D01*
X102707719Y-93414866D01*
X102726132Y-93403830D01*
X102745538Y-93394651D01*
X102765750Y-93387419D01*
X102786574Y-93382203D01*
X102807809Y-93379053D01*
X102829250Y-93378000D01*
X103266750Y-93378000D01*
X103288191Y-93379053D01*
G37*
G36*
X101713191Y-93379053D02*
G01*
X101734426Y-93382203D01*
X101755250Y-93387419D01*
X101775462Y-93394651D01*
X101794868Y-93403830D01*
X101813281Y-93414866D01*
X101830524Y-93427654D01*
X101846430Y-93442070D01*
X101860846Y-93457976D01*
X101873634Y-93475219D01*
X101884670Y-93493632D01*
X101893849Y-93513038D01*
X101901081Y-93533250D01*
X101906297Y-93554074D01*
X101909447Y-93575309D01*
X101910500Y-93596750D01*
X101910500Y-94109250D01*
X101909447Y-94130691D01*
X101906297Y-94151926D01*
X101901081Y-94172750D01*
X101893849Y-94192962D01*
X101884670Y-94212368D01*
X101873634Y-94230781D01*
X101860846Y-94248024D01*
X101846430Y-94263930D01*
X101830524Y-94278346D01*
X101813281Y-94291134D01*
X101794868Y-94302170D01*
X101775462Y-94311349D01*
X101755250Y-94318581D01*
X101734426Y-94323797D01*
X101713191Y-94326947D01*
X101691750Y-94328000D01*
X101254250Y-94328000D01*
X101232809Y-94326947D01*
X101211574Y-94323797D01*
X101190750Y-94318581D01*
X101170538Y-94311349D01*
X101151132Y-94302170D01*
X101132719Y-94291134D01*
X101115476Y-94278346D01*
X101099570Y-94263930D01*
X101085154Y-94248024D01*
X101072366Y-94230781D01*
X101061330Y-94212368D01*
X101052151Y-94192962D01*
X101044919Y-94172750D01*
X101039703Y-94151926D01*
X101036553Y-94130691D01*
X101035500Y-94109250D01*
X101035500Y-93596750D01*
X101036553Y-93575309D01*
X101039703Y-93554074D01*
X101044919Y-93533250D01*
X101052151Y-93513038D01*
X101061330Y-93493632D01*
X101072366Y-93475219D01*
X101085154Y-93457976D01*
X101099570Y-93442070D01*
X101115476Y-93427654D01*
X101132719Y-93414866D01*
X101151132Y-93403830D01*
X101170538Y-93394651D01*
X101190750Y-93387419D01*
X101211574Y-93382203D01*
X101232809Y-93379053D01*
X101254250Y-93378000D01*
X101691750Y-93378000D01*
X101713191Y-93379053D01*
G37*
G36*
X103147691Y-85796553D02*
G01*
X103168926Y-85799703D01*
X103189750Y-85804919D01*
X103209962Y-85812151D01*
X103229368Y-85821330D01*
X103247781Y-85832366D01*
X103265024Y-85845154D01*
X103280930Y-85859570D01*
X103295346Y-85875476D01*
X103308134Y-85892719D01*
X103319170Y-85911132D01*
X103328349Y-85930538D01*
X103335581Y-85950750D01*
X103340797Y-85971574D01*
X103343947Y-85992809D01*
X103345000Y-86014250D01*
X103345000Y-86451750D01*
X103343947Y-86473191D01*
X103340797Y-86494426D01*
X103335581Y-86515250D01*
X103328349Y-86535462D01*
X103319170Y-86554868D01*
X103308134Y-86573281D01*
X103295346Y-86590524D01*
X103280930Y-86606430D01*
X103265024Y-86620846D01*
X103247781Y-86633634D01*
X103229368Y-86644670D01*
X103209962Y-86653849D01*
X103189750Y-86661081D01*
X103168926Y-86666297D01*
X103147691Y-86669447D01*
X103126250Y-86670500D01*
X102613750Y-86670500D01*
X102592309Y-86669447D01*
X102571074Y-86666297D01*
X102550250Y-86661081D01*
X102530038Y-86653849D01*
X102510632Y-86644670D01*
X102492219Y-86633634D01*
X102474976Y-86620846D01*
X102459070Y-86606430D01*
X102444654Y-86590524D01*
X102431866Y-86573281D01*
X102420830Y-86554868D01*
X102411651Y-86535462D01*
X102404419Y-86515250D01*
X102399203Y-86494426D01*
X102396053Y-86473191D01*
X102395000Y-86451750D01*
X102395000Y-86014250D01*
X102396053Y-85992809D01*
X102399203Y-85971574D01*
X102404419Y-85950750D01*
X102411651Y-85930538D01*
X102420830Y-85911132D01*
X102431866Y-85892719D01*
X102444654Y-85875476D01*
X102459070Y-85859570D01*
X102474976Y-85845154D01*
X102492219Y-85832366D01*
X102510632Y-85821330D01*
X102530038Y-85812151D01*
X102550250Y-85804919D01*
X102571074Y-85799703D01*
X102592309Y-85796553D01*
X102613750Y-85795500D01*
X103126250Y-85795500D01*
X103147691Y-85796553D01*
G37*
G36*
X103147691Y-87371553D02*
G01*
X103168926Y-87374703D01*
X103189750Y-87379919D01*
X103209962Y-87387151D01*
X103229368Y-87396330D01*
X103247781Y-87407366D01*
X103265024Y-87420154D01*
X103280930Y-87434570D01*
X103295346Y-87450476D01*
X103308134Y-87467719D01*
X103319170Y-87486132D01*
X103328349Y-87505538D01*
X103335581Y-87525750D01*
X103340797Y-87546574D01*
X103343947Y-87567809D01*
X103345000Y-87589250D01*
X103345000Y-88026750D01*
X103343947Y-88048191D01*
X103340797Y-88069426D01*
X103335581Y-88090250D01*
X103328349Y-88110462D01*
X103319170Y-88129868D01*
X103308134Y-88148281D01*
X103295346Y-88165524D01*
X103280930Y-88181430D01*
X103265024Y-88195846D01*
X103247781Y-88208634D01*
X103229368Y-88219670D01*
X103209962Y-88228849D01*
X103189750Y-88236081D01*
X103168926Y-88241297D01*
X103147691Y-88244447D01*
X103126250Y-88245500D01*
X102613750Y-88245500D01*
X102592309Y-88244447D01*
X102571074Y-88241297D01*
X102550250Y-88236081D01*
X102530038Y-88228849D01*
X102510632Y-88219670D01*
X102492219Y-88208634D01*
X102474976Y-88195846D01*
X102459070Y-88181430D01*
X102444654Y-88165524D01*
X102431866Y-88148281D01*
X102420830Y-88129868D01*
X102411651Y-88110462D01*
X102404419Y-88090250D01*
X102399203Y-88069426D01*
X102396053Y-88048191D01*
X102395000Y-88026750D01*
X102395000Y-87589250D01*
X102396053Y-87567809D01*
X102399203Y-87546574D01*
X102404419Y-87525750D01*
X102411651Y-87505538D01*
X102420830Y-87486132D01*
X102431866Y-87467719D01*
X102444654Y-87450476D01*
X102459070Y-87434570D01*
X102474976Y-87420154D01*
X102492219Y-87407366D01*
X102510632Y-87396330D01*
X102530038Y-87387151D01*
X102550250Y-87379919D01*
X102571074Y-87374703D01*
X102592309Y-87371553D01*
X102613750Y-87370500D01*
X103126250Y-87370500D01*
X103147691Y-87371553D01*
G37*
D20*
X98689000Y-95631000D03*
X98039000Y-95631000D03*
X99339000Y-95631000D03*
X97389000Y-95631000D03*
X99989000Y-95631000D03*
D21*
X95589000Y-95756000D03*
X101789000Y-95756000D03*
D22*
X94889000Y-98306000D03*
X102489000Y-98306000D03*
D23*
X97489000Y-98306000D03*
X99889000Y-98306000D03*
D10*
G36*
X98152292Y-93410383D02*
G01*
X98160010Y-93411528D01*
X98167578Y-93413423D01*
X98174923Y-93416052D01*
X98181976Y-93419387D01*
X98188668Y-93423398D01*
X98194934Y-93428046D01*
X98200715Y-93433285D01*
X98205954Y-93439066D01*
X98210602Y-93445332D01*
X98214613Y-93452024D01*
X98217948Y-93459077D01*
X98220577Y-93466422D01*
X98222472Y-93473990D01*
X98223617Y-93481708D01*
X98224000Y-93489500D01*
X98224000Y-93648500D01*
X98223617Y-93656292D01*
X98222472Y-93664010D01*
X98220577Y-93671578D01*
X98217948Y-93678923D01*
X98214613Y-93685976D01*
X98210602Y-93692668D01*
X98205954Y-93698934D01*
X98200715Y-93704715D01*
X98194934Y-93709954D01*
X98188668Y-93714602D01*
X98181976Y-93718613D01*
X98174923Y-93721948D01*
X98167578Y-93724577D01*
X98160010Y-93726472D01*
X98152292Y-93727617D01*
X98144500Y-93728000D01*
X97943500Y-93728000D01*
X97935708Y-93727617D01*
X97927990Y-93726472D01*
X97920422Y-93724577D01*
X97913077Y-93721948D01*
X97906024Y-93718613D01*
X97899332Y-93714602D01*
X97893066Y-93709954D01*
X97887285Y-93704715D01*
X97882046Y-93698934D01*
X97877398Y-93692668D01*
X97873387Y-93685976D01*
X97870052Y-93678923D01*
X97867423Y-93671578D01*
X97865528Y-93664010D01*
X97864383Y-93656292D01*
X97864000Y-93648500D01*
X97864000Y-93489500D01*
X97864383Y-93481708D01*
X97865528Y-93473990D01*
X97867423Y-93466422D01*
X97870052Y-93459077D01*
X97873387Y-93452024D01*
X97877398Y-93445332D01*
X97882046Y-93439066D01*
X97887285Y-93433285D01*
X97893066Y-93428046D01*
X97899332Y-93423398D01*
X97906024Y-93419387D01*
X97913077Y-93416052D01*
X97920422Y-93413423D01*
X97927990Y-93411528D01*
X97935708Y-93410383D01*
X97943500Y-93410000D01*
X98144500Y-93410000D01*
X98152292Y-93410383D01*
G37*
G36*
X98152292Y-94100383D02*
G01*
X98160010Y-94101528D01*
X98167578Y-94103423D01*
X98174923Y-94106052D01*
X98181976Y-94109387D01*
X98188668Y-94113398D01*
X98194934Y-94118046D01*
X98200715Y-94123285D01*
X98205954Y-94129066D01*
X98210602Y-94135332D01*
X98214613Y-94142024D01*
X98217948Y-94149077D01*
X98220577Y-94156422D01*
X98222472Y-94163990D01*
X98223617Y-94171708D01*
X98224000Y-94179500D01*
X98224000Y-94338500D01*
X98223617Y-94346292D01*
X98222472Y-94354010D01*
X98220577Y-94361578D01*
X98217948Y-94368923D01*
X98214613Y-94375976D01*
X98210602Y-94382668D01*
X98205954Y-94388934D01*
X98200715Y-94394715D01*
X98194934Y-94399954D01*
X98188668Y-94404602D01*
X98181976Y-94408613D01*
X98174923Y-94411948D01*
X98167578Y-94414577D01*
X98160010Y-94416472D01*
X98152292Y-94417617D01*
X98144500Y-94418000D01*
X97943500Y-94418000D01*
X97935708Y-94417617D01*
X97927990Y-94416472D01*
X97920422Y-94414577D01*
X97913077Y-94411948D01*
X97906024Y-94408613D01*
X97899332Y-94404602D01*
X97893066Y-94399954D01*
X97887285Y-94394715D01*
X97882046Y-94388934D01*
X97877398Y-94382668D01*
X97873387Y-94375976D01*
X97870052Y-94368923D01*
X97867423Y-94361578D01*
X97865528Y-94354010D01*
X97864383Y-94346292D01*
X97864000Y-94338500D01*
X97864000Y-94179500D01*
X97864383Y-94171708D01*
X97865528Y-94163990D01*
X97867423Y-94156422D01*
X97870052Y-94149077D01*
X97873387Y-94142024D01*
X97877398Y-94135332D01*
X97882046Y-94129066D01*
X97887285Y-94123285D01*
X97893066Y-94118046D01*
X97899332Y-94113398D01*
X97906024Y-94109387D01*
X97913077Y-94106052D01*
X97920422Y-94103423D01*
X97927990Y-94101528D01*
X97935708Y-94100383D01*
X97943500Y-94100000D01*
X98144500Y-94100000D01*
X98152292Y-94100383D01*
G37*
G36*
X98914292Y-93410383D02*
G01*
X98922010Y-93411528D01*
X98929578Y-93413423D01*
X98936923Y-93416052D01*
X98943976Y-93419387D01*
X98950668Y-93423398D01*
X98956934Y-93428046D01*
X98962715Y-93433285D01*
X98967954Y-93439066D01*
X98972602Y-93445332D01*
X98976613Y-93452024D01*
X98979948Y-93459077D01*
X98982577Y-93466422D01*
X98984472Y-93473990D01*
X98985617Y-93481708D01*
X98986000Y-93489500D01*
X98986000Y-93648500D01*
X98985617Y-93656292D01*
X98984472Y-93664010D01*
X98982577Y-93671578D01*
X98979948Y-93678923D01*
X98976613Y-93685976D01*
X98972602Y-93692668D01*
X98967954Y-93698934D01*
X98962715Y-93704715D01*
X98956934Y-93709954D01*
X98950668Y-93714602D01*
X98943976Y-93718613D01*
X98936923Y-93721948D01*
X98929578Y-93724577D01*
X98922010Y-93726472D01*
X98914292Y-93727617D01*
X98906500Y-93728000D01*
X98705500Y-93728000D01*
X98697708Y-93727617D01*
X98689990Y-93726472D01*
X98682422Y-93724577D01*
X98675077Y-93721948D01*
X98668024Y-93718613D01*
X98661332Y-93714602D01*
X98655066Y-93709954D01*
X98649285Y-93704715D01*
X98644046Y-93698934D01*
X98639398Y-93692668D01*
X98635387Y-93685976D01*
X98632052Y-93678923D01*
X98629423Y-93671578D01*
X98627528Y-93664010D01*
X98626383Y-93656292D01*
X98626000Y-93648500D01*
X98626000Y-93489500D01*
X98626383Y-93481708D01*
X98627528Y-93473990D01*
X98629423Y-93466422D01*
X98632052Y-93459077D01*
X98635387Y-93452024D01*
X98639398Y-93445332D01*
X98644046Y-93439066D01*
X98649285Y-93433285D01*
X98655066Y-93428046D01*
X98661332Y-93423398D01*
X98668024Y-93419387D01*
X98675077Y-93416052D01*
X98682422Y-93413423D01*
X98689990Y-93411528D01*
X98697708Y-93410383D01*
X98705500Y-93410000D01*
X98906500Y-93410000D01*
X98914292Y-93410383D01*
G37*
G36*
X98914292Y-94100383D02*
G01*
X98922010Y-94101528D01*
X98929578Y-94103423D01*
X98936923Y-94106052D01*
X98943976Y-94109387D01*
X98950668Y-94113398D01*
X98956934Y-94118046D01*
X98962715Y-94123285D01*
X98967954Y-94129066D01*
X98972602Y-94135332D01*
X98976613Y-94142024D01*
X98979948Y-94149077D01*
X98982577Y-94156422D01*
X98984472Y-94163990D01*
X98985617Y-94171708D01*
X98986000Y-94179500D01*
X98986000Y-94338500D01*
X98985617Y-94346292D01*
X98984472Y-94354010D01*
X98982577Y-94361578D01*
X98979948Y-94368923D01*
X98976613Y-94375976D01*
X98972602Y-94382668D01*
X98967954Y-94388934D01*
X98962715Y-94394715D01*
X98956934Y-94399954D01*
X98950668Y-94404602D01*
X98943976Y-94408613D01*
X98936923Y-94411948D01*
X98929578Y-94414577D01*
X98922010Y-94416472D01*
X98914292Y-94417617D01*
X98906500Y-94418000D01*
X98705500Y-94418000D01*
X98697708Y-94417617D01*
X98689990Y-94416472D01*
X98682422Y-94414577D01*
X98675077Y-94411948D01*
X98668024Y-94408613D01*
X98661332Y-94404602D01*
X98655066Y-94399954D01*
X98649285Y-94394715D01*
X98644046Y-94388934D01*
X98639398Y-94382668D01*
X98635387Y-94375976D01*
X98632052Y-94368923D01*
X98629423Y-94361578D01*
X98627528Y-94354010D01*
X98626383Y-94346292D01*
X98626000Y-94338500D01*
X98626000Y-94179500D01*
X98626383Y-94171708D01*
X98627528Y-94163990D01*
X98629423Y-94156422D01*
X98632052Y-94149077D01*
X98635387Y-94142024D01*
X98639398Y-94135332D01*
X98644046Y-94129066D01*
X98649285Y-94123285D01*
X98655066Y-94118046D01*
X98661332Y-94113398D01*
X98668024Y-94109387D01*
X98675077Y-94106052D01*
X98682422Y-94103423D01*
X98689990Y-94101528D01*
X98697708Y-94100383D01*
X98705500Y-94100000D01*
X98906500Y-94100000D01*
X98914292Y-94100383D01*
G37*
G36*
X102512691Y-84196553D02*
G01*
X102533926Y-84199703D01*
X102554750Y-84204919D01*
X102574962Y-84212151D01*
X102594368Y-84221330D01*
X102612781Y-84232366D01*
X102630024Y-84245154D01*
X102645930Y-84259570D01*
X102660346Y-84275476D01*
X102673134Y-84292719D01*
X102684170Y-84311132D01*
X102693349Y-84330538D01*
X102700581Y-84350750D01*
X102705797Y-84371574D01*
X102708947Y-84392809D01*
X102710000Y-84414250D01*
X102710000Y-84851750D01*
X102708947Y-84873191D01*
X102705797Y-84894426D01*
X102700581Y-84915250D01*
X102693349Y-84935462D01*
X102684170Y-84954868D01*
X102673134Y-84973281D01*
X102660346Y-84990524D01*
X102645930Y-85006430D01*
X102630024Y-85020846D01*
X102612781Y-85033634D01*
X102594368Y-85044670D01*
X102574962Y-85053849D01*
X102554750Y-85061081D01*
X102533926Y-85066297D01*
X102512691Y-85069447D01*
X102491250Y-85070500D01*
X101978750Y-85070500D01*
X101957309Y-85069447D01*
X101936074Y-85066297D01*
X101915250Y-85061081D01*
X101895038Y-85053849D01*
X101875632Y-85044670D01*
X101857219Y-85033634D01*
X101839976Y-85020846D01*
X101824070Y-85006430D01*
X101809654Y-84990524D01*
X101796866Y-84973281D01*
X101785830Y-84954868D01*
X101776651Y-84935462D01*
X101769419Y-84915250D01*
X101764203Y-84894426D01*
X101761053Y-84873191D01*
X101760000Y-84851750D01*
X101760000Y-84414250D01*
X101761053Y-84392809D01*
X101764203Y-84371574D01*
X101769419Y-84350750D01*
X101776651Y-84330538D01*
X101785830Y-84311132D01*
X101796866Y-84292719D01*
X101809654Y-84275476D01*
X101824070Y-84259570D01*
X101839976Y-84245154D01*
X101857219Y-84232366D01*
X101875632Y-84221330D01*
X101895038Y-84212151D01*
X101915250Y-84204919D01*
X101936074Y-84199703D01*
X101957309Y-84196553D01*
X101978750Y-84195500D01*
X102491250Y-84195500D01*
X102512691Y-84196553D01*
G37*
G36*
X102512691Y-82621553D02*
G01*
X102533926Y-82624703D01*
X102554750Y-82629919D01*
X102574962Y-82637151D01*
X102594368Y-82646330D01*
X102612781Y-82657366D01*
X102630024Y-82670154D01*
X102645930Y-82684570D01*
X102660346Y-82700476D01*
X102673134Y-82717719D01*
X102684170Y-82736132D01*
X102693349Y-82755538D01*
X102700581Y-82775750D01*
X102705797Y-82796574D01*
X102708947Y-82817809D01*
X102710000Y-82839250D01*
X102710000Y-83276750D01*
X102708947Y-83298191D01*
X102705797Y-83319426D01*
X102700581Y-83340250D01*
X102693349Y-83360462D01*
X102684170Y-83379868D01*
X102673134Y-83398281D01*
X102660346Y-83415524D01*
X102645930Y-83431430D01*
X102630024Y-83445846D01*
X102612781Y-83458634D01*
X102594368Y-83469670D01*
X102574962Y-83478849D01*
X102554750Y-83486081D01*
X102533926Y-83491297D01*
X102512691Y-83494447D01*
X102491250Y-83495500D01*
X101978750Y-83495500D01*
X101957309Y-83494447D01*
X101936074Y-83491297D01*
X101915250Y-83486081D01*
X101895038Y-83478849D01*
X101875632Y-83469670D01*
X101857219Y-83458634D01*
X101839976Y-83445846D01*
X101824070Y-83431430D01*
X101809654Y-83415524D01*
X101796866Y-83398281D01*
X101785830Y-83379868D01*
X101776651Y-83360462D01*
X101769419Y-83340250D01*
X101764203Y-83319426D01*
X101761053Y-83298191D01*
X101760000Y-83276750D01*
X101760000Y-82839250D01*
X101761053Y-82817809D01*
X101764203Y-82796574D01*
X101769419Y-82775750D01*
X101776651Y-82755538D01*
X101785830Y-82736132D01*
X101796866Y-82717719D01*
X101809654Y-82700476D01*
X101824070Y-82684570D01*
X101839976Y-82670154D01*
X101857219Y-82657366D01*
X101875632Y-82646330D01*
X101895038Y-82637151D01*
X101915250Y-82629919D01*
X101936074Y-82624703D01*
X101957309Y-82621553D01*
X101978750Y-82620500D01*
X102491250Y-82620500D01*
X102512691Y-82621553D01*
G37*
M02*
