G04 #@! TF.GenerationSoftware,KiCad,Pcbnew,(5.1.5)-3*
G04 #@! TF.CreationDate,2020-08-08T14:50:29-04:00*
G04 #@! TF.ProjectId,SmartWatch V5,536d6172-7457-4617-9463-682056352e6b,rev?*
G04 #@! TF.SameCoordinates,Original*
G04 #@! TF.FileFunction,Paste,Bot*
G04 #@! TF.FilePolarity,Positive*
%FSLAX46Y46*%
G04 Gerber Fmt 4.6, Leading zero omitted, Abs format (unit mm)*
G04 Created by KiCad (PCBNEW (5.1.5)-3) date 2020-08-08 14:50:29*
%MOMM*%
%LPD*%
G04 APERTURE LIST*
%ADD10C,0.100000*%
%ADD11R,0.900000X0.800000*%
%ADD12R,3.000000X0.500000*%
%ADD13R,0.450000X1.500000*%
%ADD14R,2.387600X1.803400*%
%ADD15R,0.152400X0.711200*%
%ADD16R,0.800000X0.900000*%
%ADD17C,1.500000*%
%ADD18R,0.900000X1.200000*%
G04 APERTURE END LIST*
D10*
G36*
X87399691Y-78557553D02*
G01*
X87420926Y-78560703D01*
X87441750Y-78565919D01*
X87461962Y-78573151D01*
X87481368Y-78582330D01*
X87499781Y-78593366D01*
X87517024Y-78606154D01*
X87532930Y-78620570D01*
X87547346Y-78636476D01*
X87560134Y-78653719D01*
X87571170Y-78672132D01*
X87580349Y-78691538D01*
X87587581Y-78711750D01*
X87592797Y-78732574D01*
X87595947Y-78753809D01*
X87597000Y-78775250D01*
X87597000Y-79212750D01*
X87595947Y-79234191D01*
X87592797Y-79255426D01*
X87587581Y-79276250D01*
X87580349Y-79296462D01*
X87571170Y-79315868D01*
X87560134Y-79334281D01*
X87547346Y-79351524D01*
X87532930Y-79367430D01*
X87517024Y-79381846D01*
X87499781Y-79394634D01*
X87481368Y-79405670D01*
X87461962Y-79414849D01*
X87441750Y-79422081D01*
X87420926Y-79427297D01*
X87399691Y-79430447D01*
X87378250Y-79431500D01*
X86865750Y-79431500D01*
X86844309Y-79430447D01*
X86823074Y-79427297D01*
X86802250Y-79422081D01*
X86782038Y-79414849D01*
X86762632Y-79405670D01*
X86744219Y-79394634D01*
X86726976Y-79381846D01*
X86711070Y-79367430D01*
X86696654Y-79351524D01*
X86683866Y-79334281D01*
X86672830Y-79315868D01*
X86663651Y-79296462D01*
X86656419Y-79276250D01*
X86651203Y-79255426D01*
X86648053Y-79234191D01*
X86647000Y-79212750D01*
X86647000Y-78775250D01*
X86648053Y-78753809D01*
X86651203Y-78732574D01*
X86656419Y-78711750D01*
X86663651Y-78691538D01*
X86672830Y-78672132D01*
X86683866Y-78653719D01*
X86696654Y-78636476D01*
X86711070Y-78620570D01*
X86726976Y-78606154D01*
X86744219Y-78593366D01*
X86762632Y-78582330D01*
X86782038Y-78573151D01*
X86802250Y-78565919D01*
X86823074Y-78560703D01*
X86844309Y-78557553D01*
X86865750Y-78556500D01*
X87378250Y-78556500D01*
X87399691Y-78557553D01*
G37*
G36*
X87399691Y-80132553D02*
G01*
X87420926Y-80135703D01*
X87441750Y-80140919D01*
X87461962Y-80148151D01*
X87481368Y-80157330D01*
X87499781Y-80168366D01*
X87517024Y-80181154D01*
X87532930Y-80195570D01*
X87547346Y-80211476D01*
X87560134Y-80228719D01*
X87571170Y-80247132D01*
X87580349Y-80266538D01*
X87587581Y-80286750D01*
X87592797Y-80307574D01*
X87595947Y-80328809D01*
X87597000Y-80350250D01*
X87597000Y-80787750D01*
X87595947Y-80809191D01*
X87592797Y-80830426D01*
X87587581Y-80851250D01*
X87580349Y-80871462D01*
X87571170Y-80890868D01*
X87560134Y-80909281D01*
X87547346Y-80926524D01*
X87532930Y-80942430D01*
X87517024Y-80956846D01*
X87499781Y-80969634D01*
X87481368Y-80980670D01*
X87461962Y-80989849D01*
X87441750Y-80997081D01*
X87420926Y-81002297D01*
X87399691Y-81005447D01*
X87378250Y-81006500D01*
X86865750Y-81006500D01*
X86844309Y-81005447D01*
X86823074Y-81002297D01*
X86802250Y-80997081D01*
X86782038Y-80989849D01*
X86762632Y-80980670D01*
X86744219Y-80969634D01*
X86726976Y-80956846D01*
X86711070Y-80942430D01*
X86696654Y-80926524D01*
X86683866Y-80909281D01*
X86672830Y-80890868D01*
X86663651Y-80871462D01*
X86656419Y-80851250D01*
X86651203Y-80830426D01*
X86648053Y-80809191D01*
X86647000Y-80787750D01*
X86647000Y-80350250D01*
X86648053Y-80328809D01*
X86651203Y-80307574D01*
X86656419Y-80286750D01*
X86663651Y-80266538D01*
X86672830Y-80247132D01*
X86683866Y-80228719D01*
X86696654Y-80211476D01*
X86711070Y-80195570D01*
X86726976Y-80181154D01*
X86744219Y-80168366D01*
X86762632Y-80157330D01*
X86782038Y-80148151D01*
X86802250Y-80140919D01*
X86823074Y-80135703D01*
X86844309Y-80132553D01*
X86865750Y-80131500D01*
X87378250Y-80131500D01*
X87399691Y-80132553D01*
G37*
G36*
X89673691Y-72805053D02*
G01*
X89694926Y-72808203D01*
X89715750Y-72813419D01*
X89735962Y-72820651D01*
X89755368Y-72829830D01*
X89773781Y-72840866D01*
X89791024Y-72853654D01*
X89806930Y-72868070D01*
X89821346Y-72883976D01*
X89834134Y-72901219D01*
X89845170Y-72919632D01*
X89854349Y-72939038D01*
X89861581Y-72959250D01*
X89866797Y-72980074D01*
X89869947Y-73001309D01*
X89871000Y-73022750D01*
X89871000Y-73535250D01*
X89869947Y-73556691D01*
X89866797Y-73577926D01*
X89861581Y-73598750D01*
X89854349Y-73618962D01*
X89845170Y-73638368D01*
X89834134Y-73656781D01*
X89821346Y-73674024D01*
X89806930Y-73689930D01*
X89791024Y-73704346D01*
X89773781Y-73717134D01*
X89755368Y-73728170D01*
X89735962Y-73737349D01*
X89715750Y-73744581D01*
X89694926Y-73749797D01*
X89673691Y-73752947D01*
X89652250Y-73754000D01*
X89214750Y-73754000D01*
X89193309Y-73752947D01*
X89172074Y-73749797D01*
X89151250Y-73744581D01*
X89131038Y-73737349D01*
X89111632Y-73728170D01*
X89093219Y-73717134D01*
X89075976Y-73704346D01*
X89060070Y-73689930D01*
X89045654Y-73674024D01*
X89032866Y-73656781D01*
X89021830Y-73638368D01*
X89012651Y-73618962D01*
X89005419Y-73598750D01*
X89000203Y-73577926D01*
X88997053Y-73556691D01*
X88996000Y-73535250D01*
X88996000Y-73022750D01*
X88997053Y-73001309D01*
X89000203Y-72980074D01*
X89005419Y-72959250D01*
X89012651Y-72939038D01*
X89021830Y-72919632D01*
X89032866Y-72901219D01*
X89045654Y-72883976D01*
X89060070Y-72868070D01*
X89075976Y-72853654D01*
X89093219Y-72840866D01*
X89111632Y-72829830D01*
X89131038Y-72820651D01*
X89151250Y-72813419D01*
X89172074Y-72808203D01*
X89193309Y-72805053D01*
X89214750Y-72804000D01*
X89652250Y-72804000D01*
X89673691Y-72805053D01*
G37*
G36*
X88098691Y-72805053D02*
G01*
X88119926Y-72808203D01*
X88140750Y-72813419D01*
X88160962Y-72820651D01*
X88180368Y-72829830D01*
X88198781Y-72840866D01*
X88216024Y-72853654D01*
X88231930Y-72868070D01*
X88246346Y-72883976D01*
X88259134Y-72901219D01*
X88270170Y-72919632D01*
X88279349Y-72939038D01*
X88286581Y-72959250D01*
X88291797Y-72980074D01*
X88294947Y-73001309D01*
X88296000Y-73022750D01*
X88296000Y-73535250D01*
X88294947Y-73556691D01*
X88291797Y-73577926D01*
X88286581Y-73598750D01*
X88279349Y-73618962D01*
X88270170Y-73638368D01*
X88259134Y-73656781D01*
X88246346Y-73674024D01*
X88231930Y-73689930D01*
X88216024Y-73704346D01*
X88198781Y-73717134D01*
X88180368Y-73728170D01*
X88160962Y-73737349D01*
X88140750Y-73744581D01*
X88119926Y-73749797D01*
X88098691Y-73752947D01*
X88077250Y-73754000D01*
X87639750Y-73754000D01*
X87618309Y-73752947D01*
X87597074Y-73749797D01*
X87576250Y-73744581D01*
X87556038Y-73737349D01*
X87536632Y-73728170D01*
X87518219Y-73717134D01*
X87500976Y-73704346D01*
X87485070Y-73689930D01*
X87470654Y-73674024D01*
X87457866Y-73656781D01*
X87446830Y-73638368D01*
X87437651Y-73618962D01*
X87430419Y-73598750D01*
X87425203Y-73577926D01*
X87422053Y-73556691D01*
X87421000Y-73535250D01*
X87421000Y-73022750D01*
X87422053Y-73001309D01*
X87425203Y-72980074D01*
X87430419Y-72959250D01*
X87437651Y-72939038D01*
X87446830Y-72919632D01*
X87457866Y-72901219D01*
X87470654Y-72883976D01*
X87485070Y-72868070D01*
X87500976Y-72853654D01*
X87518219Y-72840866D01*
X87536632Y-72829830D01*
X87556038Y-72820651D01*
X87576250Y-72813419D01*
X87597074Y-72808203D01*
X87618309Y-72805053D01*
X87639750Y-72804000D01*
X88077250Y-72804000D01*
X88098691Y-72805053D01*
G37*
G36*
X87780691Y-96236053D02*
G01*
X87801926Y-96239203D01*
X87822750Y-96244419D01*
X87842962Y-96251651D01*
X87862368Y-96260830D01*
X87880781Y-96271866D01*
X87898024Y-96284654D01*
X87913930Y-96299070D01*
X87928346Y-96314976D01*
X87941134Y-96332219D01*
X87952170Y-96350632D01*
X87961349Y-96370038D01*
X87968581Y-96390250D01*
X87973797Y-96411074D01*
X87976947Y-96432309D01*
X87978000Y-96453750D01*
X87978000Y-96891250D01*
X87976947Y-96912691D01*
X87973797Y-96933926D01*
X87968581Y-96954750D01*
X87961349Y-96974962D01*
X87952170Y-96994368D01*
X87941134Y-97012781D01*
X87928346Y-97030024D01*
X87913930Y-97045930D01*
X87898024Y-97060346D01*
X87880781Y-97073134D01*
X87862368Y-97084170D01*
X87842962Y-97093349D01*
X87822750Y-97100581D01*
X87801926Y-97105797D01*
X87780691Y-97108947D01*
X87759250Y-97110000D01*
X87246750Y-97110000D01*
X87225309Y-97108947D01*
X87204074Y-97105797D01*
X87183250Y-97100581D01*
X87163038Y-97093349D01*
X87143632Y-97084170D01*
X87125219Y-97073134D01*
X87107976Y-97060346D01*
X87092070Y-97045930D01*
X87077654Y-97030024D01*
X87064866Y-97012781D01*
X87053830Y-96994368D01*
X87044651Y-96974962D01*
X87037419Y-96954750D01*
X87032203Y-96933926D01*
X87029053Y-96912691D01*
X87028000Y-96891250D01*
X87028000Y-96453750D01*
X87029053Y-96432309D01*
X87032203Y-96411074D01*
X87037419Y-96390250D01*
X87044651Y-96370038D01*
X87053830Y-96350632D01*
X87064866Y-96332219D01*
X87077654Y-96314976D01*
X87092070Y-96299070D01*
X87107976Y-96284654D01*
X87125219Y-96271866D01*
X87143632Y-96260830D01*
X87163038Y-96251651D01*
X87183250Y-96244419D01*
X87204074Y-96239203D01*
X87225309Y-96236053D01*
X87246750Y-96235000D01*
X87759250Y-96235000D01*
X87780691Y-96236053D01*
G37*
G36*
X87780691Y-94661053D02*
G01*
X87801926Y-94664203D01*
X87822750Y-94669419D01*
X87842962Y-94676651D01*
X87862368Y-94685830D01*
X87880781Y-94696866D01*
X87898024Y-94709654D01*
X87913930Y-94724070D01*
X87928346Y-94739976D01*
X87941134Y-94757219D01*
X87952170Y-94775632D01*
X87961349Y-94795038D01*
X87968581Y-94815250D01*
X87973797Y-94836074D01*
X87976947Y-94857309D01*
X87978000Y-94878750D01*
X87978000Y-95316250D01*
X87976947Y-95337691D01*
X87973797Y-95358926D01*
X87968581Y-95379750D01*
X87961349Y-95399962D01*
X87952170Y-95419368D01*
X87941134Y-95437781D01*
X87928346Y-95455024D01*
X87913930Y-95470930D01*
X87898024Y-95485346D01*
X87880781Y-95498134D01*
X87862368Y-95509170D01*
X87842962Y-95518349D01*
X87822750Y-95525581D01*
X87801926Y-95530797D01*
X87780691Y-95533947D01*
X87759250Y-95535000D01*
X87246750Y-95535000D01*
X87225309Y-95533947D01*
X87204074Y-95530797D01*
X87183250Y-95525581D01*
X87163038Y-95518349D01*
X87143632Y-95509170D01*
X87125219Y-95498134D01*
X87107976Y-95485346D01*
X87092070Y-95470930D01*
X87077654Y-95455024D01*
X87064866Y-95437781D01*
X87053830Y-95419368D01*
X87044651Y-95399962D01*
X87037419Y-95379750D01*
X87032203Y-95358926D01*
X87029053Y-95337691D01*
X87028000Y-95316250D01*
X87028000Y-94878750D01*
X87029053Y-94857309D01*
X87032203Y-94836074D01*
X87037419Y-94815250D01*
X87044651Y-94795038D01*
X87053830Y-94775632D01*
X87064866Y-94757219D01*
X87077654Y-94739976D01*
X87092070Y-94724070D01*
X87107976Y-94709654D01*
X87125219Y-94696866D01*
X87143632Y-94685830D01*
X87163038Y-94676651D01*
X87183250Y-94669419D01*
X87204074Y-94664203D01*
X87225309Y-94661053D01*
X87246750Y-94660000D01*
X87759250Y-94660000D01*
X87780691Y-94661053D01*
G37*
G36*
X87209691Y-71154053D02*
G01*
X87230926Y-71157203D01*
X87251750Y-71162419D01*
X87271962Y-71169651D01*
X87291368Y-71178830D01*
X87309781Y-71189866D01*
X87327024Y-71202654D01*
X87342930Y-71217070D01*
X87357346Y-71232976D01*
X87370134Y-71250219D01*
X87381170Y-71268632D01*
X87390349Y-71288038D01*
X87397581Y-71308250D01*
X87402797Y-71329074D01*
X87405947Y-71350309D01*
X87407000Y-71371750D01*
X87407000Y-71884250D01*
X87405947Y-71905691D01*
X87402797Y-71926926D01*
X87397581Y-71947750D01*
X87390349Y-71967962D01*
X87381170Y-71987368D01*
X87370134Y-72005781D01*
X87357346Y-72023024D01*
X87342930Y-72038930D01*
X87327024Y-72053346D01*
X87309781Y-72066134D01*
X87291368Y-72077170D01*
X87271962Y-72086349D01*
X87251750Y-72093581D01*
X87230926Y-72098797D01*
X87209691Y-72101947D01*
X87188250Y-72103000D01*
X86750750Y-72103000D01*
X86729309Y-72101947D01*
X86708074Y-72098797D01*
X86687250Y-72093581D01*
X86667038Y-72086349D01*
X86647632Y-72077170D01*
X86629219Y-72066134D01*
X86611976Y-72053346D01*
X86596070Y-72038930D01*
X86581654Y-72023024D01*
X86568866Y-72005781D01*
X86557830Y-71987368D01*
X86548651Y-71967962D01*
X86541419Y-71947750D01*
X86536203Y-71926926D01*
X86533053Y-71905691D01*
X86532000Y-71884250D01*
X86532000Y-71371750D01*
X86533053Y-71350309D01*
X86536203Y-71329074D01*
X86541419Y-71308250D01*
X86548651Y-71288038D01*
X86557830Y-71268632D01*
X86568866Y-71250219D01*
X86581654Y-71232976D01*
X86596070Y-71217070D01*
X86611976Y-71202654D01*
X86629219Y-71189866D01*
X86647632Y-71178830D01*
X86667038Y-71169651D01*
X86687250Y-71162419D01*
X86708074Y-71157203D01*
X86729309Y-71154053D01*
X86750750Y-71153000D01*
X87188250Y-71153000D01*
X87209691Y-71154053D01*
G37*
G36*
X88784691Y-71154053D02*
G01*
X88805926Y-71157203D01*
X88826750Y-71162419D01*
X88846962Y-71169651D01*
X88866368Y-71178830D01*
X88884781Y-71189866D01*
X88902024Y-71202654D01*
X88917930Y-71217070D01*
X88932346Y-71232976D01*
X88945134Y-71250219D01*
X88956170Y-71268632D01*
X88965349Y-71288038D01*
X88972581Y-71308250D01*
X88977797Y-71329074D01*
X88980947Y-71350309D01*
X88982000Y-71371750D01*
X88982000Y-71884250D01*
X88980947Y-71905691D01*
X88977797Y-71926926D01*
X88972581Y-71947750D01*
X88965349Y-71967962D01*
X88956170Y-71987368D01*
X88945134Y-72005781D01*
X88932346Y-72023024D01*
X88917930Y-72038930D01*
X88902024Y-72053346D01*
X88884781Y-72066134D01*
X88866368Y-72077170D01*
X88846962Y-72086349D01*
X88826750Y-72093581D01*
X88805926Y-72098797D01*
X88784691Y-72101947D01*
X88763250Y-72103000D01*
X88325750Y-72103000D01*
X88304309Y-72101947D01*
X88283074Y-72098797D01*
X88262250Y-72093581D01*
X88242038Y-72086349D01*
X88222632Y-72077170D01*
X88204219Y-72066134D01*
X88186976Y-72053346D01*
X88171070Y-72038930D01*
X88156654Y-72023024D01*
X88143866Y-72005781D01*
X88132830Y-71987368D01*
X88123651Y-71967962D01*
X88116419Y-71947750D01*
X88111203Y-71926926D01*
X88108053Y-71905691D01*
X88107000Y-71884250D01*
X88107000Y-71371750D01*
X88108053Y-71350309D01*
X88111203Y-71329074D01*
X88116419Y-71308250D01*
X88123651Y-71288038D01*
X88132830Y-71268632D01*
X88143866Y-71250219D01*
X88156654Y-71232976D01*
X88171070Y-71217070D01*
X88186976Y-71202654D01*
X88204219Y-71189866D01*
X88222632Y-71178830D01*
X88242038Y-71169651D01*
X88262250Y-71162419D01*
X88283074Y-71157203D01*
X88304309Y-71154053D01*
X88325750Y-71153000D01*
X88763250Y-71153000D01*
X88784691Y-71154053D01*
G37*
G36*
X95871191Y-86521053D02*
G01*
X95892426Y-86524203D01*
X95913250Y-86529419D01*
X95933462Y-86536651D01*
X95952868Y-86545830D01*
X95971281Y-86556866D01*
X95988524Y-86569654D01*
X96004430Y-86584070D01*
X96018846Y-86599976D01*
X96031634Y-86617219D01*
X96042670Y-86635632D01*
X96051849Y-86655038D01*
X96059081Y-86675250D01*
X96064297Y-86696074D01*
X96067447Y-86717309D01*
X96068500Y-86738750D01*
X96068500Y-87251250D01*
X96067447Y-87272691D01*
X96064297Y-87293926D01*
X96059081Y-87314750D01*
X96051849Y-87334962D01*
X96042670Y-87354368D01*
X96031634Y-87372781D01*
X96018846Y-87390024D01*
X96004430Y-87405930D01*
X95988524Y-87420346D01*
X95971281Y-87433134D01*
X95952868Y-87444170D01*
X95933462Y-87453349D01*
X95913250Y-87460581D01*
X95892426Y-87465797D01*
X95871191Y-87468947D01*
X95849750Y-87470000D01*
X95412250Y-87470000D01*
X95390809Y-87468947D01*
X95369574Y-87465797D01*
X95348750Y-87460581D01*
X95328538Y-87453349D01*
X95309132Y-87444170D01*
X95290719Y-87433134D01*
X95273476Y-87420346D01*
X95257570Y-87405930D01*
X95243154Y-87390024D01*
X95230366Y-87372781D01*
X95219330Y-87354368D01*
X95210151Y-87334962D01*
X95202919Y-87314750D01*
X95197703Y-87293926D01*
X95194553Y-87272691D01*
X95193500Y-87251250D01*
X95193500Y-86738750D01*
X95194553Y-86717309D01*
X95197703Y-86696074D01*
X95202919Y-86675250D01*
X95210151Y-86655038D01*
X95219330Y-86635632D01*
X95230366Y-86617219D01*
X95243154Y-86599976D01*
X95257570Y-86584070D01*
X95273476Y-86569654D01*
X95290719Y-86556866D01*
X95309132Y-86545830D01*
X95328538Y-86536651D01*
X95348750Y-86529419D01*
X95369574Y-86524203D01*
X95390809Y-86521053D01*
X95412250Y-86520000D01*
X95849750Y-86520000D01*
X95871191Y-86521053D01*
G37*
G36*
X94296191Y-86521053D02*
G01*
X94317426Y-86524203D01*
X94338250Y-86529419D01*
X94358462Y-86536651D01*
X94377868Y-86545830D01*
X94396281Y-86556866D01*
X94413524Y-86569654D01*
X94429430Y-86584070D01*
X94443846Y-86599976D01*
X94456634Y-86617219D01*
X94467670Y-86635632D01*
X94476849Y-86655038D01*
X94484081Y-86675250D01*
X94489297Y-86696074D01*
X94492447Y-86717309D01*
X94493500Y-86738750D01*
X94493500Y-87251250D01*
X94492447Y-87272691D01*
X94489297Y-87293926D01*
X94484081Y-87314750D01*
X94476849Y-87334962D01*
X94467670Y-87354368D01*
X94456634Y-87372781D01*
X94443846Y-87390024D01*
X94429430Y-87405930D01*
X94413524Y-87420346D01*
X94396281Y-87433134D01*
X94377868Y-87444170D01*
X94358462Y-87453349D01*
X94338250Y-87460581D01*
X94317426Y-87465797D01*
X94296191Y-87468947D01*
X94274750Y-87470000D01*
X93837250Y-87470000D01*
X93815809Y-87468947D01*
X93794574Y-87465797D01*
X93773750Y-87460581D01*
X93753538Y-87453349D01*
X93734132Y-87444170D01*
X93715719Y-87433134D01*
X93698476Y-87420346D01*
X93682570Y-87405930D01*
X93668154Y-87390024D01*
X93655366Y-87372781D01*
X93644330Y-87354368D01*
X93635151Y-87334962D01*
X93627919Y-87314750D01*
X93622703Y-87293926D01*
X93619553Y-87272691D01*
X93618500Y-87251250D01*
X93618500Y-86738750D01*
X93619553Y-86717309D01*
X93622703Y-86696074D01*
X93627919Y-86675250D01*
X93635151Y-86655038D01*
X93644330Y-86635632D01*
X93655366Y-86617219D01*
X93668154Y-86599976D01*
X93682570Y-86584070D01*
X93698476Y-86569654D01*
X93715719Y-86556866D01*
X93734132Y-86545830D01*
X93753538Y-86536651D01*
X93773750Y-86529419D01*
X93794574Y-86524203D01*
X93815809Y-86521053D01*
X93837250Y-86520000D01*
X94274750Y-86520000D01*
X94296191Y-86521053D01*
G37*
G36*
X93559691Y-74583053D02*
G01*
X93580926Y-74586203D01*
X93601750Y-74591419D01*
X93621962Y-74598651D01*
X93641368Y-74607830D01*
X93659781Y-74618866D01*
X93677024Y-74631654D01*
X93692930Y-74646070D01*
X93707346Y-74661976D01*
X93720134Y-74679219D01*
X93731170Y-74697632D01*
X93740349Y-74717038D01*
X93747581Y-74737250D01*
X93752797Y-74758074D01*
X93755947Y-74779309D01*
X93757000Y-74800750D01*
X93757000Y-75313250D01*
X93755947Y-75334691D01*
X93752797Y-75355926D01*
X93747581Y-75376750D01*
X93740349Y-75396962D01*
X93731170Y-75416368D01*
X93720134Y-75434781D01*
X93707346Y-75452024D01*
X93692930Y-75467930D01*
X93677024Y-75482346D01*
X93659781Y-75495134D01*
X93641368Y-75506170D01*
X93621962Y-75515349D01*
X93601750Y-75522581D01*
X93580926Y-75527797D01*
X93559691Y-75530947D01*
X93538250Y-75532000D01*
X93100750Y-75532000D01*
X93079309Y-75530947D01*
X93058074Y-75527797D01*
X93037250Y-75522581D01*
X93017038Y-75515349D01*
X92997632Y-75506170D01*
X92979219Y-75495134D01*
X92961976Y-75482346D01*
X92946070Y-75467930D01*
X92931654Y-75452024D01*
X92918866Y-75434781D01*
X92907830Y-75416368D01*
X92898651Y-75396962D01*
X92891419Y-75376750D01*
X92886203Y-75355926D01*
X92883053Y-75334691D01*
X92882000Y-75313250D01*
X92882000Y-74800750D01*
X92883053Y-74779309D01*
X92886203Y-74758074D01*
X92891419Y-74737250D01*
X92898651Y-74717038D01*
X92907830Y-74697632D01*
X92918866Y-74679219D01*
X92931654Y-74661976D01*
X92946070Y-74646070D01*
X92961976Y-74631654D01*
X92979219Y-74618866D01*
X92997632Y-74607830D01*
X93017038Y-74598651D01*
X93037250Y-74591419D01*
X93058074Y-74586203D01*
X93079309Y-74583053D01*
X93100750Y-74582000D01*
X93538250Y-74582000D01*
X93559691Y-74583053D01*
G37*
G36*
X95134691Y-74583053D02*
G01*
X95155926Y-74586203D01*
X95176750Y-74591419D01*
X95196962Y-74598651D01*
X95216368Y-74607830D01*
X95234781Y-74618866D01*
X95252024Y-74631654D01*
X95267930Y-74646070D01*
X95282346Y-74661976D01*
X95295134Y-74679219D01*
X95306170Y-74697632D01*
X95315349Y-74717038D01*
X95322581Y-74737250D01*
X95327797Y-74758074D01*
X95330947Y-74779309D01*
X95332000Y-74800750D01*
X95332000Y-75313250D01*
X95330947Y-75334691D01*
X95327797Y-75355926D01*
X95322581Y-75376750D01*
X95315349Y-75396962D01*
X95306170Y-75416368D01*
X95295134Y-75434781D01*
X95282346Y-75452024D01*
X95267930Y-75467930D01*
X95252024Y-75482346D01*
X95234781Y-75495134D01*
X95216368Y-75506170D01*
X95196962Y-75515349D01*
X95176750Y-75522581D01*
X95155926Y-75527797D01*
X95134691Y-75530947D01*
X95113250Y-75532000D01*
X94675750Y-75532000D01*
X94654309Y-75530947D01*
X94633074Y-75527797D01*
X94612250Y-75522581D01*
X94592038Y-75515349D01*
X94572632Y-75506170D01*
X94554219Y-75495134D01*
X94536976Y-75482346D01*
X94521070Y-75467930D01*
X94506654Y-75452024D01*
X94493866Y-75434781D01*
X94482830Y-75416368D01*
X94473651Y-75396962D01*
X94466419Y-75376750D01*
X94461203Y-75355926D01*
X94458053Y-75334691D01*
X94457000Y-75313250D01*
X94457000Y-74800750D01*
X94458053Y-74779309D01*
X94461203Y-74758074D01*
X94466419Y-74737250D01*
X94473651Y-74717038D01*
X94482830Y-74697632D01*
X94493866Y-74679219D01*
X94506654Y-74661976D01*
X94521070Y-74646070D01*
X94536976Y-74631654D01*
X94554219Y-74618866D01*
X94572632Y-74607830D01*
X94592038Y-74598651D01*
X94612250Y-74591419D01*
X94633074Y-74586203D01*
X94654309Y-74583053D01*
X94675750Y-74582000D01*
X95113250Y-74582000D01*
X95134691Y-74583053D01*
G37*
D11*
X87900000Y-75946000D03*
X89900000Y-76896000D03*
X89900000Y-74996000D03*
D12*
X83388200Y-91497800D03*
X83387000Y-90703000D03*
X83387000Y-89903000D03*
X83387000Y-89103000D03*
X83387000Y-87503000D03*
X83387000Y-86703000D03*
X83387000Y-85903000D03*
X83387000Y-85103000D03*
X83387000Y-84303000D03*
X83387000Y-83503000D03*
X83387000Y-82703000D03*
X83387000Y-81903000D03*
X83387000Y-81103000D03*
X83387000Y-80303000D03*
X83387000Y-79503000D03*
X83387000Y-78703000D03*
X83387000Y-77903000D03*
X83387000Y-77103000D03*
D13*
X90921000Y-85950000D03*
X90271000Y-85950000D03*
X89621000Y-85950000D03*
X88971000Y-85950000D03*
X88321000Y-85950000D03*
X87671000Y-85950000D03*
X87021000Y-85950000D03*
X86371000Y-85950000D03*
X86371000Y-91850000D03*
X87021000Y-91850000D03*
X87671000Y-91850000D03*
X88321000Y-91850000D03*
X88971000Y-91850000D03*
X89621000Y-91850000D03*
X90271000Y-91850000D03*
X90921000Y-91850000D03*
D10*
G36*
X95585408Y-80591831D02*
G01*
X95602153Y-80594315D01*
X95618574Y-80598428D01*
X95634513Y-80604131D01*
X95649816Y-80611369D01*
X95664336Y-80620071D01*
X95677933Y-80630156D01*
X95690476Y-80641524D01*
X95701844Y-80654067D01*
X95711929Y-80667664D01*
X95720631Y-80682184D01*
X95727869Y-80697487D01*
X95733572Y-80713426D01*
X95737685Y-80729847D01*
X95740169Y-80746592D01*
X95741000Y-80763500D01*
X95741000Y-81288500D01*
X95740169Y-81305408D01*
X95737685Y-81322153D01*
X95733572Y-81338574D01*
X95727869Y-81354513D01*
X95720631Y-81369816D01*
X95711929Y-81384336D01*
X95701844Y-81397933D01*
X95690476Y-81410476D01*
X95677933Y-81421844D01*
X95664336Y-81431929D01*
X95649816Y-81440631D01*
X95634513Y-81447869D01*
X95618574Y-81453572D01*
X95602153Y-81457685D01*
X95585408Y-81460169D01*
X95568500Y-81461000D01*
X95223500Y-81461000D01*
X95206592Y-81460169D01*
X95189847Y-81457685D01*
X95173426Y-81453572D01*
X95157487Y-81447869D01*
X95142184Y-81440631D01*
X95127664Y-81431929D01*
X95114067Y-81421844D01*
X95101524Y-81410476D01*
X95090156Y-81397933D01*
X95080071Y-81384336D01*
X95071369Y-81369816D01*
X95064131Y-81354513D01*
X95058428Y-81338574D01*
X95054315Y-81322153D01*
X95051831Y-81305408D01*
X95051000Y-81288500D01*
X95051000Y-80763500D01*
X95051831Y-80746592D01*
X95054315Y-80729847D01*
X95058428Y-80713426D01*
X95064131Y-80697487D01*
X95071369Y-80682184D01*
X95080071Y-80667664D01*
X95090156Y-80654067D01*
X95101524Y-80641524D01*
X95114067Y-80630156D01*
X95127664Y-80620071D01*
X95142184Y-80611369D01*
X95157487Y-80604131D01*
X95173426Y-80598428D01*
X95189847Y-80594315D01*
X95206592Y-80591831D01*
X95223500Y-80591000D01*
X95568500Y-80591000D01*
X95585408Y-80591831D01*
G37*
G36*
X94785408Y-80591831D02*
G01*
X94802153Y-80594315D01*
X94818574Y-80598428D01*
X94834513Y-80604131D01*
X94849816Y-80611369D01*
X94864336Y-80620071D01*
X94877933Y-80630156D01*
X94890476Y-80641524D01*
X94901844Y-80654067D01*
X94911929Y-80667664D01*
X94920631Y-80682184D01*
X94927869Y-80697487D01*
X94933572Y-80713426D01*
X94937685Y-80729847D01*
X94940169Y-80746592D01*
X94941000Y-80763500D01*
X94941000Y-81288500D01*
X94940169Y-81305408D01*
X94937685Y-81322153D01*
X94933572Y-81338574D01*
X94927869Y-81354513D01*
X94920631Y-81369816D01*
X94911929Y-81384336D01*
X94901844Y-81397933D01*
X94890476Y-81410476D01*
X94877933Y-81421844D01*
X94864336Y-81431929D01*
X94849816Y-81440631D01*
X94834513Y-81447869D01*
X94818574Y-81453572D01*
X94802153Y-81457685D01*
X94785408Y-81460169D01*
X94768500Y-81461000D01*
X94423500Y-81461000D01*
X94406592Y-81460169D01*
X94389847Y-81457685D01*
X94373426Y-81453572D01*
X94357487Y-81447869D01*
X94342184Y-81440631D01*
X94327664Y-81431929D01*
X94314067Y-81421844D01*
X94301524Y-81410476D01*
X94290156Y-81397933D01*
X94280071Y-81384336D01*
X94271369Y-81369816D01*
X94264131Y-81354513D01*
X94258428Y-81338574D01*
X94254315Y-81322153D01*
X94251831Y-81305408D01*
X94251000Y-81288500D01*
X94251000Y-80763500D01*
X94251831Y-80746592D01*
X94254315Y-80729847D01*
X94258428Y-80713426D01*
X94264131Y-80697487D01*
X94271369Y-80682184D01*
X94280071Y-80667664D01*
X94290156Y-80654067D01*
X94301524Y-80641524D01*
X94314067Y-80630156D01*
X94327664Y-80620071D01*
X94342184Y-80611369D01*
X94357487Y-80604131D01*
X94373426Y-80598428D01*
X94389847Y-80594315D01*
X94406592Y-80591831D01*
X94423500Y-80591000D01*
X94768500Y-80591000D01*
X94785408Y-80591831D01*
G37*
G36*
X94461439Y-81726451D02*
G01*
X94470540Y-81727801D01*
X94479464Y-81730037D01*
X94488127Y-81733136D01*
X94496443Y-81737070D01*
X94504335Y-81741800D01*
X94511724Y-81747280D01*
X94518541Y-81753459D01*
X94524720Y-81760276D01*
X94530200Y-81767665D01*
X94534930Y-81775557D01*
X94538864Y-81783873D01*
X94541963Y-81792536D01*
X94544199Y-81801460D01*
X94545549Y-81810561D01*
X94546000Y-81819750D01*
X94546000Y-82007250D01*
X94545549Y-82016439D01*
X94544199Y-82025540D01*
X94541963Y-82034464D01*
X94538864Y-82043127D01*
X94534930Y-82051443D01*
X94530200Y-82059335D01*
X94524720Y-82066724D01*
X94518541Y-82073541D01*
X94511724Y-82079720D01*
X94504335Y-82085200D01*
X94496443Y-82089930D01*
X94488127Y-82093864D01*
X94479464Y-82096963D01*
X94470540Y-82099199D01*
X94461439Y-82100549D01*
X94452250Y-82101000D01*
X94239750Y-82101000D01*
X94230561Y-82100549D01*
X94221460Y-82099199D01*
X94212536Y-82096963D01*
X94203873Y-82093864D01*
X94195557Y-82089930D01*
X94187665Y-82085200D01*
X94180276Y-82079720D01*
X94173459Y-82073541D01*
X94167280Y-82066724D01*
X94161800Y-82059335D01*
X94157070Y-82051443D01*
X94153136Y-82043127D01*
X94150037Y-82034464D01*
X94147801Y-82025540D01*
X94146451Y-82016439D01*
X94146000Y-82007250D01*
X94146000Y-81819750D01*
X94146451Y-81810561D01*
X94147801Y-81801460D01*
X94150037Y-81792536D01*
X94153136Y-81783873D01*
X94157070Y-81775557D01*
X94161800Y-81767665D01*
X94167280Y-81760276D01*
X94173459Y-81753459D01*
X94180276Y-81747280D01*
X94187665Y-81741800D01*
X94195557Y-81737070D01*
X94203873Y-81733136D01*
X94212536Y-81730037D01*
X94221460Y-81727801D01*
X94230561Y-81726451D01*
X94239750Y-81726000D01*
X94452250Y-81726000D01*
X94461439Y-81726451D01*
G37*
G36*
X95111439Y-81726451D02*
G01*
X95120540Y-81727801D01*
X95129464Y-81730037D01*
X95138127Y-81733136D01*
X95146443Y-81737070D01*
X95154335Y-81741800D01*
X95161724Y-81747280D01*
X95168541Y-81753459D01*
X95174720Y-81760276D01*
X95180200Y-81767665D01*
X95184930Y-81775557D01*
X95188864Y-81783873D01*
X95191963Y-81792536D01*
X95194199Y-81801460D01*
X95195549Y-81810561D01*
X95196000Y-81819750D01*
X95196000Y-82007250D01*
X95195549Y-82016439D01*
X95194199Y-82025540D01*
X95191963Y-82034464D01*
X95188864Y-82043127D01*
X95184930Y-82051443D01*
X95180200Y-82059335D01*
X95174720Y-82066724D01*
X95168541Y-82073541D01*
X95161724Y-82079720D01*
X95154335Y-82085200D01*
X95146443Y-82089930D01*
X95138127Y-82093864D01*
X95129464Y-82096963D01*
X95120540Y-82099199D01*
X95111439Y-82100549D01*
X95102250Y-82101000D01*
X94889750Y-82101000D01*
X94880561Y-82100549D01*
X94871460Y-82099199D01*
X94862536Y-82096963D01*
X94853873Y-82093864D01*
X94845557Y-82089930D01*
X94837665Y-82085200D01*
X94830276Y-82079720D01*
X94823459Y-82073541D01*
X94817280Y-82066724D01*
X94811800Y-82059335D01*
X94807070Y-82051443D01*
X94803136Y-82043127D01*
X94800037Y-82034464D01*
X94797801Y-82025540D01*
X94796451Y-82016439D01*
X94796000Y-82007250D01*
X94796000Y-81819750D01*
X94796451Y-81810561D01*
X94797801Y-81801460D01*
X94800037Y-81792536D01*
X94803136Y-81783873D01*
X94807070Y-81775557D01*
X94811800Y-81767665D01*
X94817280Y-81760276D01*
X94823459Y-81753459D01*
X94830276Y-81747280D01*
X94837665Y-81741800D01*
X94845557Y-81737070D01*
X94853873Y-81733136D01*
X94862536Y-81730037D01*
X94871460Y-81727801D01*
X94880561Y-81726451D01*
X94889750Y-81726000D01*
X95102250Y-81726000D01*
X95111439Y-81726451D01*
G37*
G36*
X95761439Y-81726451D02*
G01*
X95770540Y-81727801D01*
X95779464Y-81730037D01*
X95788127Y-81733136D01*
X95796443Y-81737070D01*
X95804335Y-81741800D01*
X95811724Y-81747280D01*
X95818541Y-81753459D01*
X95824720Y-81760276D01*
X95830200Y-81767665D01*
X95834930Y-81775557D01*
X95838864Y-81783873D01*
X95841963Y-81792536D01*
X95844199Y-81801460D01*
X95845549Y-81810561D01*
X95846000Y-81819750D01*
X95846000Y-82007250D01*
X95845549Y-82016439D01*
X95844199Y-82025540D01*
X95841963Y-82034464D01*
X95838864Y-82043127D01*
X95834930Y-82051443D01*
X95830200Y-82059335D01*
X95824720Y-82066724D01*
X95818541Y-82073541D01*
X95811724Y-82079720D01*
X95804335Y-82085200D01*
X95796443Y-82089930D01*
X95788127Y-82093864D01*
X95779464Y-82096963D01*
X95770540Y-82099199D01*
X95761439Y-82100549D01*
X95752250Y-82101000D01*
X95539750Y-82101000D01*
X95530561Y-82100549D01*
X95521460Y-82099199D01*
X95512536Y-82096963D01*
X95503873Y-82093864D01*
X95495557Y-82089930D01*
X95487665Y-82085200D01*
X95480276Y-82079720D01*
X95473459Y-82073541D01*
X95467280Y-82066724D01*
X95461800Y-82059335D01*
X95457070Y-82051443D01*
X95453136Y-82043127D01*
X95450037Y-82034464D01*
X95447801Y-82025540D01*
X95446451Y-82016439D01*
X95446000Y-82007250D01*
X95446000Y-81819750D01*
X95446451Y-81810561D01*
X95447801Y-81801460D01*
X95450037Y-81792536D01*
X95453136Y-81783873D01*
X95457070Y-81775557D01*
X95461800Y-81767665D01*
X95467280Y-81760276D01*
X95473459Y-81753459D01*
X95480276Y-81747280D01*
X95487665Y-81741800D01*
X95495557Y-81737070D01*
X95503873Y-81733136D01*
X95512536Y-81730037D01*
X95521460Y-81727801D01*
X95530561Y-81726451D01*
X95539750Y-81726000D01*
X95752250Y-81726000D01*
X95761439Y-81726451D01*
G37*
G36*
X95761439Y-79951451D02*
G01*
X95770540Y-79952801D01*
X95779464Y-79955037D01*
X95788127Y-79958136D01*
X95796443Y-79962070D01*
X95804335Y-79966800D01*
X95811724Y-79972280D01*
X95818541Y-79978459D01*
X95824720Y-79985276D01*
X95830200Y-79992665D01*
X95834930Y-80000557D01*
X95838864Y-80008873D01*
X95841963Y-80017536D01*
X95844199Y-80026460D01*
X95845549Y-80035561D01*
X95846000Y-80044750D01*
X95846000Y-80232250D01*
X95845549Y-80241439D01*
X95844199Y-80250540D01*
X95841963Y-80259464D01*
X95838864Y-80268127D01*
X95834930Y-80276443D01*
X95830200Y-80284335D01*
X95824720Y-80291724D01*
X95818541Y-80298541D01*
X95811724Y-80304720D01*
X95804335Y-80310200D01*
X95796443Y-80314930D01*
X95788127Y-80318864D01*
X95779464Y-80321963D01*
X95770540Y-80324199D01*
X95761439Y-80325549D01*
X95752250Y-80326000D01*
X95539750Y-80326000D01*
X95530561Y-80325549D01*
X95521460Y-80324199D01*
X95512536Y-80321963D01*
X95503873Y-80318864D01*
X95495557Y-80314930D01*
X95487665Y-80310200D01*
X95480276Y-80304720D01*
X95473459Y-80298541D01*
X95467280Y-80291724D01*
X95461800Y-80284335D01*
X95457070Y-80276443D01*
X95453136Y-80268127D01*
X95450037Y-80259464D01*
X95447801Y-80250540D01*
X95446451Y-80241439D01*
X95446000Y-80232250D01*
X95446000Y-80044750D01*
X95446451Y-80035561D01*
X95447801Y-80026460D01*
X95450037Y-80017536D01*
X95453136Y-80008873D01*
X95457070Y-80000557D01*
X95461800Y-79992665D01*
X95467280Y-79985276D01*
X95473459Y-79978459D01*
X95480276Y-79972280D01*
X95487665Y-79966800D01*
X95495557Y-79962070D01*
X95503873Y-79958136D01*
X95512536Y-79955037D01*
X95521460Y-79952801D01*
X95530561Y-79951451D01*
X95539750Y-79951000D01*
X95752250Y-79951000D01*
X95761439Y-79951451D01*
G37*
G36*
X95111439Y-79951451D02*
G01*
X95120540Y-79952801D01*
X95129464Y-79955037D01*
X95138127Y-79958136D01*
X95146443Y-79962070D01*
X95154335Y-79966800D01*
X95161724Y-79972280D01*
X95168541Y-79978459D01*
X95174720Y-79985276D01*
X95180200Y-79992665D01*
X95184930Y-80000557D01*
X95188864Y-80008873D01*
X95191963Y-80017536D01*
X95194199Y-80026460D01*
X95195549Y-80035561D01*
X95196000Y-80044750D01*
X95196000Y-80232250D01*
X95195549Y-80241439D01*
X95194199Y-80250540D01*
X95191963Y-80259464D01*
X95188864Y-80268127D01*
X95184930Y-80276443D01*
X95180200Y-80284335D01*
X95174720Y-80291724D01*
X95168541Y-80298541D01*
X95161724Y-80304720D01*
X95154335Y-80310200D01*
X95146443Y-80314930D01*
X95138127Y-80318864D01*
X95129464Y-80321963D01*
X95120540Y-80324199D01*
X95111439Y-80325549D01*
X95102250Y-80326000D01*
X94889750Y-80326000D01*
X94880561Y-80325549D01*
X94871460Y-80324199D01*
X94862536Y-80321963D01*
X94853873Y-80318864D01*
X94845557Y-80314930D01*
X94837665Y-80310200D01*
X94830276Y-80304720D01*
X94823459Y-80298541D01*
X94817280Y-80291724D01*
X94811800Y-80284335D01*
X94807070Y-80276443D01*
X94803136Y-80268127D01*
X94800037Y-80259464D01*
X94797801Y-80250540D01*
X94796451Y-80241439D01*
X94796000Y-80232250D01*
X94796000Y-80044750D01*
X94796451Y-80035561D01*
X94797801Y-80026460D01*
X94800037Y-80017536D01*
X94803136Y-80008873D01*
X94807070Y-80000557D01*
X94811800Y-79992665D01*
X94817280Y-79985276D01*
X94823459Y-79978459D01*
X94830276Y-79972280D01*
X94837665Y-79966800D01*
X94845557Y-79962070D01*
X94853873Y-79958136D01*
X94862536Y-79955037D01*
X94871460Y-79952801D01*
X94880561Y-79951451D01*
X94889750Y-79951000D01*
X95102250Y-79951000D01*
X95111439Y-79951451D01*
G37*
G36*
X94461439Y-79951451D02*
G01*
X94470540Y-79952801D01*
X94479464Y-79955037D01*
X94488127Y-79958136D01*
X94496443Y-79962070D01*
X94504335Y-79966800D01*
X94511724Y-79972280D01*
X94518541Y-79978459D01*
X94524720Y-79985276D01*
X94530200Y-79992665D01*
X94534930Y-80000557D01*
X94538864Y-80008873D01*
X94541963Y-80017536D01*
X94544199Y-80026460D01*
X94545549Y-80035561D01*
X94546000Y-80044750D01*
X94546000Y-80232250D01*
X94545549Y-80241439D01*
X94544199Y-80250540D01*
X94541963Y-80259464D01*
X94538864Y-80268127D01*
X94534930Y-80276443D01*
X94530200Y-80284335D01*
X94524720Y-80291724D01*
X94518541Y-80298541D01*
X94511724Y-80304720D01*
X94504335Y-80310200D01*
X94496443Y-80314930D01*
X94488127Y-80318864D01*
X94479464Y-80321963D01*
X94470540Y-80324199D01*
X94461439Y-80325549D01*
X94452250Y-80326000D01*
X94239750Y-80326000D01*
X94230561Y-80325549D01*
X94221460Y-80324199D01*
X94212536Y-80321963D01*
X94203873Y-80318864D01*
X94195557Y-80314930D01*
X94187665Y-80310200D01*
X94180276Y-80304720D01*
X94173459Y-80298541D01*
X94167280Y-80291724D01*
X94161800Y-80284335D01*
X94157070Y-80276443D01*
X94153136Y-80268127D01*
X94150037Y-80259464D01*
X94147801Y-80250540D01*
X94146451Y-80241439D01*
X94146000Y-80232250D01*
X94146000Y-80044750D01*
X94146451Y-80035561D01*
X94147801Y-80026460D01*
X94150037Y-80017536D01*
X94153136Y-80008873D01*
X94157070Y-80000557D01*
X94161800Y-79992665D01*
X94167280Y-79985276D01*
X94173459Y-79978459D01*
X94180276Y-79972280D01*
X94187665Y-79966800D01*
X94195557Y-79962070D01*
X94203873Y-79958136D01*
X94212536Y-79955037D01*
X94221460Y-79952801D01*
X94230561Y-79951451D01*
X94239750Y-79951000D01*
X94452250Y-79951000D01*
X94461439Y-79951451D01*
G37*
G36*
X98748626Y-92728301D02*
G01*
X98754693Y-92729201D01*
X98760643Y-92730691D01*
X98766418Y-92732758D01*
X98771962Y-92735380D01*
X98777223Y-92738533D01*
X98782150Y-92742187D01*
X98786694Y-92746306D01*
X98790813Y-92750850D01*
X98794467Y-92755777D01*
X98797620Y-92761038D01*
X98800242Y-92766582D01*
X98802309Y-92772357D01*
X98803799Y-92778307D01*
X98804699Y-92784374D01*
X98805000Y-92790500D01*
X98805000Y-92915500D01*
X98804699Y-92921626D01*
X98803799Y-92927693D01*
X98802309Y-92933643D01*
X98800242Y-92939418D01*
X98797620Y-92944962D01*
X98794467Y-92950223D01*
X98790813Y-92955150D01*
X98786694Y-92959694D01*
X98782150Y-92963813D01*
X98777223Y-92967467D01*
X98771962Y-92970620D01*
X98766418Y-92973242D01*
X98760643Y-92975309D01*
X98754693Y-92976799D01*
X98748626Y-92977699D01*
X98742500Y-92978000D01*
X98042500Y-92978000D01*
X98036374Y-92977699D01*
X98030307Y-92976799D01*
X98024357Y-92975309D01*
X98018582Y-92973242D01*
X98013038Y-92970620D01*
X98007777Y-92967467D01*
X98002850Y-92963813D01*
X97998306Y-92959694D01*
X97994187Y-92955150D01*
X97990533Y-92950223D01*
X97987380Y-92944962D01*
X97984758Y-92939418D01*
X97982691Y-92933643D01*
X97981201Y-92927693D01*
X97980301Y-92921626D01*
X97980000Y-92915500D01*
X97980000Y-92790500D01*
X97980301Y-92784374D01*
X97981201Y-92778307D01*
X97982691Y-92772357D01*
X97984758Y-92766582D01*
X97987380Y-92761038D01*
X97990533Y-92755777D01*
X97994187Y-92750850D01*
X97998306Y-92746306D01*
X98002850Y-92742187D01*
X98007777Y-92738533D01*
X98013038Y-92735380D01*
X98018582Y-92732758D01*
X98024357Y-92730691D01*
X98030307Y-92729201D01*
X98036374Y-92728301D01*
X98042500Y-92728000D01*
X98742500Y-92728000D01*
X98748626Y-92728301D01*
G37*
G36*
X98748626Y-93228301D02*
G01*
X98754693Y-93229201D01*
X98760643Y-93230691D01*
X98766418Y-93232758D01*
X98771962Y-93235380D01*
X98777223Y-93238533D01*
X98782150Y-93242187D01*
X98786694Y-93246306D01*
X98790813Y-93250850D01*
X98794467Y-93255777D01*
X98797620Y-93261038D01*
X98800242Y-93266582D01*
X98802309Y-93272357D01*
X98803799Y-93278307D01*
X98804699Y-93284374D01*
X98805000Y-93290500D01*
X98805000Y-93415500D01*
X98804699Y-93421626D01*
X98803799Y-93427693D01*
X98802309Y-93433643D01*
X98800242Y-93439418D01*
X98797620Y-93444962D01*
X98794467Y-93450223D01*
X98790813Y-93455150D01*
X98786694Y-93459694D01*
X98782150Y-93463813D01*
X98777223Y-93467467D01*
X98771962Y-93470620D01*
X98766418Y-93473242D01*
X98760643Y-93475309D01*
X98754693Y-93476799D01*
X98748626Y-93477699D01*
X98742500Y-93478000D01*
X98042500Y-93478000D01*
X98036374Y-93477699D01*
X98030307Y-93476799D01*
X98024357Y-93475309D01*
X98018582Y-93473242D01*
X98013038Y-93470620D01*
X98007777Y-93467467D01*
X98002850Y-93463813D01*
X97998306Y-93459694D01*
X97994187Y-93455150D01*
X97990533Y-93450223D01*
X97987380Y-93444962D01*
X97984758Y-93439418D01*
X97982691Y-93433643D01*
X97981201Y-93427693D01*
X97980301Y-93421626D01*
X97980000Y-93415500D01*
X97980000Y-93290500D01*
X97980301Y-93284374D01*
X97981201Y-93278307D01*
X97982691Y-93272357D01*
X97984758Y-93266582D01*
X97987380Y-93261038D01*
X97990533Y-93255777D01*
X97994187Y-93250850D01*
X97998306Y-93246306D01*
X98002850Y-93242187D01*
X98007777Y-93238533D01*
X98013038Y-93235380D01*
X98018582Y-93232758D01*
X98024357Y-93230691D01*
X98030307Y-93229201D01*
X98036374Y-93228301D01*
X98042500Y-93228000D01*
X98742500Y-93228000D01*
X98748626Y-93228301D01*
G37*
G36*
X98748626Y-93728301D02*
G01*
X98754693Y-93729201D01*
X98760643Y-93730691D01*
X98766418Y-93732758D01*
X98771962Y-93735380D01*
X98777223Y-93738533D01*
X98782150Y-93742187D01*
X98786694Y-93746306D01*
X98790813Y-93750850D01*
X98794467Y-93755777D01*
X98797620Y-93761038D01*
X98800242Y-93766582D01*
X98802309Y-93772357D01*
X98803799Y-93778307D01*
X98804699Y-93784374D01*
X98805000Y-93790500D01*
X98805000Y-93915500D01*
X98804699Y-93921626D01*
X98803799Y-93927693D01*
X98802309Y-93933643D01*
X98800242Y-93939418D01*
X98797620Y-93944962D01*
X98794467Y-93950223D01*
X98790813Y-93955150D01*
X98786694Y-93959694D01*
X98782150Y-93963813D01*
X98777223Y-93967467D01*
X98771962Y-93970620D01*
X98766418Y-93973242D01*
X98760643Y-93975309D01*
X98754693Y-93976799D01*
X98748626Y-93977699D01*
X98742500Y-93978000D01*
X98042500Y-93978000D01*
X98036374Y-93977699D01*
X98030307Y-93976799D01*
X98024357Y-93975309D01*
X98018582Y-93973242D01*
X98013038Y-93970620D01*
X98007777Y-93967467D01*
X98002850Y-93963813D01*
X97998306Y-93959694D01*
X97994187Y-93955150D01*
X97990533Y-93950223D01*
X97987380Y-93944962D01*
X97984758Y-93939418D01*
X97982691Y-93933643D01*
X97981201Y-93927693D01*
X97980301Y-93921626D01*
X97980000Y-93915500D01*
X97980000Y-93790500D01*
X97980301Y-93784374D01*
X97981201Y-93778307D01*
X97982691Y-93772357D01*
X97984758Y-93766582D01*
X97987380Y-93761038D01*
X97990533Y-93755777D01*
X97994187Y-93750850D01*
X97998306Y-93746306D01*
X98002850Y-93742187D01*
X98007777Y-93738533D01*
X98013038Y-93735380D01*
X98018582Y-93732758D01*
X98024357Y-93730691D01*
X98030307Y-93729201D01*
X98036374Y-93728301D01*
X98042500Y-93728000D01*
X98742500Y-93728000D01*
X98748626Y-93728301D01*
G37*
G36*
X98748626Y-94228301D02*
G01*
X98754693Y-94229201D01*
X98760643Y-94230691D01*
X98766418Y-94232758D01*
X98771962Y-94235380D01*
X98777223Y-94238533D01*
X98782150Y-94242187D01*
X98786694Y-94246306D01*
X98790813Y-94250850D01*
X98794467Y-94255777D01*
X98797620Y-94261038D01*
X98800242Y-94266582D01*
X98802309Y-94272357D01*
X98803799Y-94278307D01*
X98804699Y-94284374D01*
X98805000Y-94290500D01*
X98805000Y-94415500D01*
X98804699Y-94421626D01*
X98803799Y-94427693D01*
X98802309Y-94433643D01*
X98800242Y-94439418D01*
X98797620Y-94444962D01*
X98794467Y-94450223D01*
X98790813Y-94455150D01*
X98786694Y-94459694D01*
X98782150Y-94463813D01*
X98777223Y-94467467D01*
X98771962Y-94470620D01*
X98766418Y-94473242D01*
X98760643Y-94475309D01*
X98754693Y-94476799D01*
X98748626Y-94477699D01*
X98742500Y-94478000D01*
X98042500Y-94478000D01*
X98036374Y-94477699D01*
X98030307Y-94476799D01*
X98024357Y-94475309D01*
X98018582Y-94473242D01*
X98013038Y-94470620D01*
X98007777Y-94467467D01*
X98002850Y-94463813D01*
X97998306Y-94459694D01*
X97994187Y-94455150D01*
X97990533Y-94450223D01*
X97987380Y-94444962D01*
X97984758Y-94439418D01*
X97982691Y-94433643D01*
X97981201Y-94427693D01*
X97980301Y-94421626D01*
X97980000Y-94415500D01*
X97980000Y-94290500D01*
X97980301Y-94284374D01*
X97981201Y-94278307D01*
X97982691Y-94272357D01*
X97984758Y-94266582D01*
X97987380Y-94261038D01*
X97990533Y-94255777D01*
X97994187Y-94250850D01*
X97998306Y-94246306D01*
X98002850Y-94242187D01*
X98007777Y-94238533D01*
X98013038Y-94235380D01*
X98018582Y-94232758D01*
X98024357Y-94230691D01*
X98030307Y-94229201D01*
X98036374Y-94228301D01*
X98042500Y-94228000D01*
X98742500Y-94228000D01*
X98748626Y-94228301D01*
G37*
G36*
X98748626Y-94728301D02*
G01*
X98754693Y-94729201D01*
X98760643Y-94730691D01*
X98766418Y-94732758D01*
X98771962Y-94735380D01*
X98777223Y-94738533D01*
X98782150Y-94742187D01*
X98786694Y-94746306D01*
X98790813Y-94750850D01*
X98794467Y-94755777D01*
X98797620Y-94761038D01*
X98800242Y-94766582D01*
X98802309Y-94772357D01*
X98803799Y-94778307D01*
X98804699Y-94784374D01*
X98805000Y-94790500D01*
X98805000Y-94915500D01*
X98804699Y-94921626D01*
X98803799Y-94927693D01*
X98802309Y-94933643D01*
X98800242Y-94939418D01*
X98797620Y-94944962D01*
X98794467Y-94950223D01*
X98790813Y-94955150D01*
X98786694Y-94959694D01*
X98782150Y-94963813D01*
X98777223Y-94967467D01*
X98771962Y-94970620D01*
X98766418Y-94973242D01*
X98760643Y-94975309D01*
X98754693Y-94976799D01*
X98748626Y-94977699D01*
X98742500Y-94978000D01*
X98042500Y-94978000D01*
X98036374Y-94977699D01*
X98030307Y-94976799D01*
X98024357Y-94975309D01*
X98018582Y-94973242D01*
X98013038Y-94970620D01*
X98007777Y-94967467D01*
X98002850Y-94963813D01*
X97998306Y-94959694D01*
X97994187Y-94955150D01*
X97990533Y-94950223D01*
X97987380Y-94944962D01*
X97984758Y-94939418D01*
X97982691Y-94933643D01*
X97981201Y-94927693D01*
X97980301Y-94921626D01*
X97980000Y-94915500D01*
X97980000Y-94790500D01*
X97980301Y-94784374D01*
X97981201Y-94778307D01*
X97982691Y-94772357D01*
X97984758Y-94766582D01*
X97987380Y-94761038D01*
X97990533Y-94755777D01*
X97994187Y-94750850D01*
X97998306Y-94746306D01*
X98002850Y-94742187D01*
X98007777Y-94738533D01*
X98013038Y-94735380D01*
X98018582Y-94732758D01*
X98024357Y-94730691D01*
X98030307Y-94729201D01*
X98036374Y-94728301D01*
X98042500Y-94728000D01*
X98742500Y-94728000D01*
X98748626Y-94728301D01*
G37*
G36*
X99398626Y-95378301D02*
G01*
X99404693Y-95379201D01*
X99410643Y-95380691D01*
X99416418Y-95382758D01*
X99421962Y-95385380D01*
X99427223Y-95388533D01*
X99432150Y-95392187D01*
X99436694Y-95396306D01*
X99440813Y-95400850D01*
X99444467Y-95405777D01*
X99447620Y-95411038D01*
X99450242Y-95416582D01*
X99452309Y-95422357D01*
X99453799Y-95428307D01*
X99454699Y-95434374D01*
X99455000Y-95440500D01*
X99455000Y-96140500D01*
X99454699Y-96146626D01*
X99453799Y-96152693D01*
X99452309Y-96158643D01*
X99450242Y-96164418D01*
X99447620Y-96169962D01*
X99444467Y-96175223D01*
X99440813Y-96180150D01*
X99436694Y-96184694D01*
X99432150Y-96188813D01*
X99427223Y-96192467D01*
X99421962Y-96195620D01*
X99416418Y-96198242D01*
X99410643Y-96200309D01*
X99404693Y-96201799D01*
X99398626Y-96202699D01*
X99392500Y-96203000D01*
X99267500Y-96203000D01*
X99261374Y-96202699D01*
X99255307Y-96201799D01*
X99249357Y-96200309D01*
X99243582Y-96198242D01*
X99238038Y-96195620D01*
X99232777Y-96192467D01*
X99227850Y-96188813D01*
X99223306Y-96184694D01*
X99219187Y-96180150D01*
X99215533Y-96175223D01*
X99212380Y-96169962D01*
X99209758Y-96164418D01*
X99207691Y-96158643D01*
X99206201Y-96152693D01*
X99205301Y-96146626D01*
X99205000Y-96140500D01*
X99205000Y-95440500D01*
X99205301Y-95434374D01*
X99206201Y-95428307D01*
X99207691Y-95422357D01*
X99209758Y-95416582D01*
X99212380Y-95411038D01*
X99215533Y-95405777D01*
X99219187Y-95400850D01*
X99223306Y-95396306D01*
X99227850Y-95392187D01*
X99232777Y-95388533D01*
X99238038Y-95385380D01*
X99243582Y-95382758D01*
X99249357Y-95380691D01*
X99255307Y-95379201D01*
X99261374Y-95378301D01*
X99267500Y-95378000D01*
X99392500Y-95378000D01*
X99398626Y-95378301D01*
G37*
G36*
X99898626Y-95378301D02*
G01*
X99904693Y-95379201D01*
X99910643Y-95380691D01*
X99916418Y-95382758D01*
X99921962Y-95385380D01*
X99927223Y-95388533D01*
X99932150Y-95392187D01*
X99936694Y-95396306D01*
X99940813Y-95400850D01*
X99944467Y-95405777D01*
X99947620Y-95411038D01*
X99950242Y-95416582D01*
X99952309Y-95422357D01*
X99953799Y-95428307D01*
X99954699Y-95434374D01*
X99955000Y-95440500D01*
X99955000Y-96140500D01*
X99954699Y-96146626D01*
X99953799Y-96152693D01*
X99952309Y-96158643D01*
X99950242Y-96164418D01*
X99947620Y-96169962D01*
X99944467Y-96175223D01*
X99940813Y-96180150D01*
X99936694Y-96184694D01*
X99932150Y-96188813D01*
X99927223Y-96192467D01*
X99921962Y-96195620D01*
X99916418Y-96198242D01*
X99910643Y-96200309D01*
X99904693Y-96201799D01*
X99898626Y-96202699D01*
X99892500Y-96203000D01*
X99767500Y-96203000D01*
X99761374Y-96202699D01*
X99755307Y-96201799D01*
X99749357Y-96200309D01*
X99743582Y-96198242D01*
X99738038Y-96195620D01*
X99732777Y-96192467D01*
X99727850Y-96188813D01*
X99723306Y-96184694D01*
X99719187Y-96180150D01*
X99715533Y-96175223D01*
X99712380Y-96169962D01*
X99709758Y-96164418D01*
X99707691Y-96158643D01*
X99706201Y-96152693D01*
X99705301Y-96146626D01*
X99705000Y-96140500D01*
X99705000Y-95440500D01*
X99705301Y-95434374D01*
X99706201Y-95428307D01*
X99707691Y-95422357D01*
X99709758Y-95416582D01*
X99712380Y-95411038D01*
X99715533Y-95405777D01*
X99719187Y-95400850D01*
X99723306Y-95396306D01*
X99727850Y-95392187D01*
X99732777Y-95388533D01*
X99738038Y-95385380D01*
X99743582Y-95382758D01*
X99749357Y-95380691D01*
X99755307Y-95379201D01*
X99761374Y-95378301D01*
X99767500Y-95378000D01*
X99892500Y-95378000D01*
X99898626Y-95378301D01*
G37*
G36*
X100398626Y-95378301D02*
G01*
X100404693Y-95379201D01*
X100410643Y-95380691D01*
X100416418Y-95382758D01*
X100421962Y-95385380D01*
X100427223Y-95388533D01*
X100432150Y-95392187D01*
X100436694Y-95396306D01*
X100440813Y-95400850D01*
X100444467Y-95405777D01*
X100447620Y-95411038D01*
X100450242Y-95416582D01*
X100452309Y-95422357D01*
X100453799Y-95428307D01*
X100454699Y-95434374D01*
X100455000Y-95440500D01*
X100455000Y-96140500D01*
X100454699Y-96146626D01*
X100453799Y-96152693D01*
X100452309Y-96158643D01*
X100450242Y-96164418D01*
X100447620Y-96169962D01*
X100444467Y-96175223D01*
X100440813Y-96180150D01*
X100436694Y-96184694D01*
X100432150Y-96188813D01*
X100427223Y-96192467D01*
X100421962Y-96195620D01*
X100416418Y-96198242D01*
X100410643Y-96200309D01*
X100404693Y-96201799D01*
X100398626Y-96202699D01*
X100392500Y-96203000D01*
X100267500Y-96203000D01*
X100261374Y-96202699D01*
X100255307Y-96201799D01*
X100249357Y-96200309D01*
X100243582Y-96198242D01*
X100238038Y-96195620D01*
X100232777Y-96192467D01*
X100227850Y-96188813D01*
X100223306Y-96184694D01*
X100219187Y-96180150D01*
X100215533Y-96175223D01*
X100212380Y-96169962D01*
X100209758Y-96164418D01*
X100207691Y-96158643D01*
X100206201Y-96152693D01*
X100205301Y-96146626D01*
X100205000Y-96140500D01*
X100205000Y-95440500D01*
X100205301Y-95434374D01*
X100206201Y-95428307D01*
X100207691Y-95422357D01*
X100209758Y-95416582D01*
X100212380Y-95411038D01*
X100215533Y-95405777D01*
X100219187Y-95400850D01*
X100223306Y-95396306D01*
X100227850Y-95392187D01*
X100232777Y-95388533D01*
X100238038Y-95385380D01*
X100243582Y-95382758D01*
X100249357Y-95380691D01*
X100255307Y-95379201D01*
X100261374Y-95378301D01*
X100267500Y-95378000D01*
X100392500Y-95378000D01*
X100398626Y-95378301D01*
G37*
G36*
X100898626Y-95378301D02*
G01*
X100904693Y-95379201D01*
X100910643Y-95380691D01*
X100916418Y-95382758D01*
X100921962Y-95385380D01*
X100927223Y-95388533D01*
X100932150Y-95392187D01*
X100936694Y-95396306D01*
X100940813Y-95400850D01*
X100944467Y-95405777D01*
X100947620Y-95411038D01*
X100950242Y-95416582D01*
X100952309Y-95422357D01*
X100953799Y-95428307D01*
X100954699Y-95434374D01*
X100955000Y-95440500D01*
X100955000Y-96140500D01*
X100954699Y-96146626D01*
X100953799Y-96152693D01*
X100952309Y-96158643D01*
X100950242Y-96164418D01*
X100947620Y-96169962D01*
X100944467Y-96175223D01*
X100940813Y-96180150D01*
X100936694Y-96184694D01*
X100932150Y-96188813D01*
X100927223Y-96192467D01*
X100921962Y-96195620D01*
X100916418Y-96198242D01*
X100910643Y-96200309D01*
X100904693Y-96201799D01*
X100898626Y-96202699D01*
X100892500Y-96203000D01*
X100767500Y-96203000D01*
X100761374Y-96202699D01*
X100755307Y-96201799D01*
X100749357Y-96200309D01*
X100743582Y-96198242D01*
X100738038Y-96195620D01*
X100732777Y-96192467D01*
X100727850Y-96188813D01*
X100723306Y-96184694D01*
X100719187Y-96180150D01*
X100715533Y-96175223D01*
X100712380Y-96169962D01*
X100709758Y-96164418D01*
X100707691Y-96158643D01*
X100706201Y-96152693D01*
X100705301Y-96146626D01*
X100705000Y-96140500D01*
X100705000Y-95440500D01*
X100705301Y-95434374D01*
X100706201Y-95428307D01*
X100707691Y-95422357D01*
X100709758Y-95416582D01*
X100712380Y-95411038D01*
X100715533Y-95405777D01*
X100719187Y-95400850D01*
X100723306Y-95396306D01*
X100727850Y-95392187D01*
X100732777Y-95388533D01*
X100738038Y-95385380D01*
X100743582Y-95382758D01*
X100749357Y-95380691D01*
X100755307Y-95379201D01*
X100761374Y-95378301D01*
X100767500Y-95378000D01*
X100892500Y-95378000D01*
X100898626Y-95378301D01*
G37*
G36*
X101398626Y-95378301D02*
G01*
X101404693Y-95379201D01*
X101410643Y-95380691D01*
X101416418Y-95382758D01*
X101421962Y-95385380D01*
X101427223Y-95388533D01*
X101432150Y-95392187D01*
X101436694Y-95396306D01*
X101440813Y-95400850D01*
X101444467Y-95405777D01*
X101447620Y-95411038D01*
X101450242Y-95416582D01*
X101452309Y-95422357D01*
X101453799Y-95428307D01*
X101454699Y-95434374D01*
X101455000Y-95440500D01*
X101455000Y-96140500D01*
X101454699Y-96146626D01*
X101453799Y-96152693D01*
X101452309Y-96158643D01*
X101450242Y-96164418D01*
X101447620Y-96169962D01*
X101444467Y-96175223D01*
X101440813Y-96180150D01*
X101436694Y-96184694D01*
X101432150Y-96188813D01*
X101427223Y-96192467D01*
X101421962Y-96195620D01*
X101416418Y-96198242D01*
X101410643Y-96200309D01*
X101404693Y-96201799D01*
X101398626Y-96202699D01*
X101392500Y-96203000D01*
X101267500Y-96203000D01*
X101261374Y-96202699D01*
X101255307Y-96201799D01*
X101249357Y-96200309D01*
X101243582Y-96198242D01*
X101238038Y-96195620D01*
X101232777Y-96192467D01*
X101227850Y-96188813D01*
X101223306Y-96184694D01*
X101219187Y-96180150D01*
X101215533Y-96175223D01*
X101212380Y-96169962D01*
X101209758Y-96164418D01*
X101207691Y-96158643D01*
X101206201Y-96152693D01*
X101205301Y-96146626D01*
X101205000Y-96140500D01*
X101205000Y-95440500D01*
X101205301Y-95434374D01*
X101206201Y-95428307D01*
X101207691Y-95422357D01*
X101209758Y-95416582D01*
X101212380Y-95411038D01*
X101215533Y-95405777D01*
X101219187Y-95400850D01*
X101223306Y-95396306D01*
X101227850Y-95392187D01*
X101232777Y-95388533D01*
X101238038Y-95385380D01*
X101243582Y-95382758D01*
X101249357Y-95380691D01*
X101255307Y-95379201D01*
X101261374Y-95378301D01*
X101267500Y-95378000D01*
X101392500Y-95378000D01*
X101398626Y-95378301D01*
G37*
G36*
X102623626Y-94728301D02*
G01*
X102629693Y-94729201D01*
X102635643Y-94730691D01*
X102641418Y-94732758D01*
X102646962Y-94735380D01*
X102652223Y-94738533D01*
X102657150Y-94742187D01*
X102661694Y-94746306D01*
X102665813Y-94750850D01*
X102669467Y-94755777D01*
X102672620Y-94761038D01*
X102675242Y-94766582D01*
X102677309Y-94772357D01*
X102678799Y-94778307D01*
X102679699Y-94784374D01*
X102680000Y-94790500D01*
X102680000Y-94915500D01*
X102679699Y-94921626D01*
X102678799Y-94927693D01*
X102677309Y-94933643D01*
X102675242Y-94939418D01*
X102672620Y-94944962D01*
X102669467Y-94950223D01*
X102665813Y-94955150D01*
X102661694Y-94959694D01*
X102657150Y-94963813D01*
X102652223Y-94967467D01*
X102646962Y-94970620D01*
X102641418Y-94973242D01*
X102635643Y-94975309D01*
X102629693Y-94976799D01*
X102623626Y-94977699D01*
X102617500Y-94978000D01*
X101917500Y-94978000D01*
X101911374Y-94977699D01*
X101905307Y-94976799D01*
X101899357Y-94975309D01*
X101893582Y-94973242D01*
X101888038Y-94970620D01*
X101882777Y-94967467D01*
X101877850Y-94963813D01*
X101873306Y-94959694D01*
X101869187Y-94955150D01*
X101865533Y-94950223D01*
X101862380Y-94944962D01*
X101859758Y-94939418D01*
X101857691Y-94933643D01*
X101856201Y-94927693D01*
X101855301Y-94921626D01*
X101855000Y-94915500D01*
X101855000Y-94790500D01*
X101855301Y-94784374D01*
X101856201Y-94778307D01*
X101857691Y-94772357D01*
X101859758Y-94766582D01*
X101862380Y-94761038D01*
X101865533Y-94755777D01*
X101869187Y-94750850D01*
X101873306Y-94746306D01*
X101877850Y-94742187D01*
X101882777Y-94738533D01*
X101888038Y-94735380D01*
X101893582Y-94732758D01*
X101899357Y-94730691D01*
X101905307Y-94729201D01*
X101911374Y-94728301D01*
X101917500Y-94728000D01*
X102617500Y-94728000D01*
X102623626Y-94728301D01*
G37*
G36*
X102623626Y-94228301D02*
G01*
X102629693Y-94229201D01*
X102635643Y-94230691D01*
X102641418Y-94232758D01*
X102646962Y-94235380D01*
X102652223Y-94238533D01*
X102657150Y-94242187D01*
X102661694Y-94246306D01*
X102665813Y-94250850D01*
X102669467Y-94255777D01*
X102672620Y-94261038D01*
X102675242Y-94266582D01*
X102677309Y-94272357D01*
X102678799Y-94278307D01*
X102679699Y-94284374D01*
X102680000Y-94290500D01*
X102680000Y-94415500D01*
X102679699Y-94421626D01*
X102678799Y-94427693D01*
X102677309Y-94433643D01*
X102675242Y-94439418D01*
X102672620Y-94444962D01*
X102669467Y-94450223D01*
X102665813Y-94455150D01*
X102661694Y-94459694D01*
X102657150Y-94463813D01*
X102652223Y-94467467D01*
X102646962Y-94470620D01*
X102641418Y-94473242D01*
X102635643Y-94475309D01*
X102629693Y-94476799D01*
X102623626Y-94477699D01*
X102617500Y-94478000D01*
X101917500Y-94478000D01*
X101911374Y-94477699D01*
X101905307Y-94476799D01*
X101899357Y-94475309D01*
X101893582Y-94473242D01*
X101888038Y-94470620D01*
X101882777Y-94467467D01*
X101877850Y-94463813D01*
X101873306Y-94459694D01*
X101869187Y-94455150D01*
X101865533Y-94450223D01*
X101862380Y-94444962D01*
X101859758Y-94439418D01*
X101857691Y-94433643D01*
X101856201Y-94427693D01*
X101855301Y-94421626D01*
X101855000Y-94415500D01*
X101855000Y-94290500D01*
X101855301Y-94284374D01*
X101856201Y-94278307D01*
X101857691Y-94272357D01*
X101859758Y-94266582D01*
X101862380Y-94261038D01*
X101865533Y-94255777D01*
X101869187Y-94250850D01*
X101873306Y-94246306D01*
X101877850Y-94242187D01*
X101882777Y-94238533D01*
X101888038Y-94235380D01*
X101893582Y-94232758D01*
X101899357Y-94230691D01*
X101905307Y-94229201D01*
X101911374Y-94228301D01*
X101917500Y-94228000D01*
X102617500Y-94228000D01*
X102623626Y-94228301D01*
G37*
G36*
X102623626Y-93728301D02*
G01*
X102629693Y-93729201D01*
X102635643Y-93730691D01*
X102641418Y-93732758D01*
X102646962Y-93735380D01*
X102652223Y-93738533D01*
X102657150Y-93742187D01*
X102661694Y-93746306D01*
X102665813Y-93750850D01*
X102669467Y-93755777D01*
X102672620Y-93761038D01*
X102675242Y-93766582D01*
X102677309Y-93772357D01*
X102678799Y-93778307D01*
X102679699Y-93784374D01*
X102680000Y-93790500D01*
X102680000Y-93915500D01*
X102679699Y-93921626D01*
X102678799Y-93927693D01*
X102677309Y-93933643D01*
X102675242Y-93939418D01*
X102672620Y-93944962D01*
X102669467Y-93950223D01*
X102665813Y-93955150D01*
X102661694Y-93959694D01*
X102657150Y-93963813D01*
X102652223Y-93967467D01*
X102646962Y-93970620D01*
X102641418Y-93973242D01*
X102635643Y-93975309D01*
X102629693Y-93976799D01*
X102623626Y-93977699D01*
X102617500Y-93978000D01*
X101917500Y-93978000D01*
X101911374Y-93977699D01*
X101905307Y-93976799D01*
X101899357Y-93975309D01*
X101893582Y-93973242D01*
X101888038Y-93970620D01*
X101882777Y-93967467D01*
X101877850Y-93963813D01*
X101873306Y-93959694D01*
X101869187Y-93955150D01*
X101865533Y-93950223D01*
X101862380Y-93944962D01*
X101859758Y-93939418D01*
X101857691Y-93933643D01*
X101856201Y-93927693D01*
X101855301Y-93921626D01*
X101855000Y-93915500D01*
X101855000Y-93790500D01*
X101855301Y-93784374D01*
X101856201Y-93778307D01*
X101857691Y-93772357D01*
X101859758Y-93766582D01*
X101862380Y-93761038D01*
X101865533Y-93755777D01*
X101869187Y-93750850D01*
X101873306Y-93746306D01*
X101877850Y-93742187D01*
X101882777Y-93738533D01*
X101888038Y-93735380D01*
X101893582Y-93732758D01*
X101899357Y-93730691D01*
X101905307Y-93729201D01*
X101911374Y-93728301D01*
X101917500Y-93728000D01*
X102617500Y-93728000D01*
X102623626Y-93728301D01*
G37*
G36*
X102623626Y-93228301D02*
G01*
X102629693Y-93229201D01*
X102635643Y-93230691D01*
X102641418Y-93232758D01*
X102646962Y-93235380D01*
X102652223Y-93238533D01*
X102657150Y-93242187D01*
X102661694Y-93246306D01*
X102665813Y-93250850D01*
X102669467Y-93255777D01*
X102672620Y-93261038D01*
X102675242Y-93266582D01*
X102677309Y-93272357D01*
X102678799Y-93278307D01*
X102679699Y-93284374D01*
X102680000Y-93290500D01*
X102680000Y-93415500D01*
X102679699Y-93421626D01*
X102678799Y-93427693D01*
X102677309Y-93433643D01*
X102675242Y-93439418D01*
X102672620Y-93444962D01*
X102669467Y-93450223D01*
X102665813Y-93455150D01*
X102661694Y-93459694D01*
X102657150Y-93463813D01*
X102652223Y-93467467D01*
X102646962Y-93470620D01*
X102641418Y-93473242D01*
X102635643Y-93475309D01*
X102629693Y-93476799D01*
X102623626Y-93477699D01*
X102617500Y-93478000D01*
X101917500Y-93478000D01*
X101911374Y-93477699D01*
X101905307Y-93476799D01*
X101899357Y-93475309D01*
X101893582Y-93473242D01*
X101888038Y-93470620D01*
X101882777Y-93467467D01*
X101877850Y-93463813D01*
X101873306Y-93459694D01*
X101869187Y-93455150D01*
X101865533Y-93450223D01*
X101862380Y-93444962D01*
X101859758Y-93439418D01*
X101857691Y-93433643D01*
X101856201Y-93427693D01*
X101855301Y-93421626D01*
X101855000Y-93415500D01*
X101855000Y-93290500D01*
X101855301Y-93284374D01*
X101856201Y-93278307D01*
X101857691Y-93272357D01*
X101859758Y-93266582D01*
X101862380Y-93261038D01*
X101865533Y-93255777D01*
X101869187Y-93250850D01*
X101873306Y-93246306D01*
X101877850Y-93242187D01*
X101882777Y-93238533D01*
X101888038Y-93235380D01*
X101893582Y-93232758D01*
X101899357Y-93230691D01*
X101905307Y-93229201D01*
X101911374Y-93228301D01*
X101917500Y-93228000D01*
X102617500Y-93228000D01*
X102623626Y-93228301D01*
G37*
G36*
X102623626Y-92728301D02*
G01*
X102629693Y-92729201D01*
X102635643Y-92730691D01*
X102641418Y-92732758D01*
X102646962Y-92735380D01*
X102652223Y-92738533D01*
X102657150Y-92742187D01*
X102661694Y-92746306D01*
X102665813Y-92750850D01*
X102669467Y-92755777D01*
X102672620Y-92761038D01*
X102675242Y-92766582D01*
X102677309Y-92772357D01*
X102678799Y-92778307D01*
X102679699Y-92784374D01*
X102680000Y-92790500D01*
X102680000Y-92915500D01*
X102679699Y-92921626D01*
X102678799Y-92927693D01*
X102677309Y-92933643D01*
X102675242Y-92939418D01*
X102672620Y-92944962D01*
X102669467Y-92950223D01*
X102665813Y-92955150D01*
X102661694Y-92959694D01*
X102657150Y-92963813D01*
X102652223Y-92967467D01*
X102646962Y-92970620D01*
X102641418Y-92973242D01*
X102635643Y-92975309D01*
X102629693Y-92976799D01*
X102623626Y-92977699D01*
X102617500Y-92978000D01*
X101917500Y-92978000D01*
X101911374Y-92977699D01*
X101905307Y-92976799D01*
X101899357Y-92975309D01*
X101893582Y-92973242D01*
X101888038Y-92970620D01*
X101882777Y-92967467D01*
X101877850Y-92963813D01*
X101873306Y-92959694D01*
X101869187Y-92955150D01*
X101865533Y-92950223D01*
X101862380Y-92944962D01*
X101859758Y-92939418D01*
X101857691Y-92933643D01*
X101856201Y-92927693D01*
X101855301Y-92921626D01*
X101855000Y-92915500D01*
X101855000Y-92790500D01*
X101855301Y-92784374D01*
X101856201Y-92778307D01*
X101857691Y-92772357D01*
X101859758Y-92766582D01*
X101862380Y-92761038D01*
X101865533Y-92755777D01*
X101869187Y-92750850D01*
X101873306Y-92746306D01*
X101877850Y-92742187D01*
X101882777Y-92738533D01*
X101888038Y-92735380D01*
X101893582Y-92732758D01*
X101899357Y-92730691D01*
X101905307Y-92729201D01*
X101911374Y-92728301D01*
X101917500Y-92728000D01*
X102617500Y-92728000D01*
X102623626Y-92728301D01*
G37*
G36*
X101398626Y-91503301D02*
G01*
X101404693Y-91504201D01*
X101410643Y-91505691D01*
X101416418Y-91507758D01*
X101421962Y-91510380D01*
X101427223Y-91513533D01*
X101432150Y-91517187D01*
X101436694Y-91521306D01*
X101440813Y-91525850D01*
X101444467Y-91530777D01*
X101447620Y-91536038D01*
X101450242Y-91541582D01*
X101452309Y-91547357D01*
X101453799Y-91553307D01*
X101454699Y-91559374D01*
X101455000Y-91565500D01*
X101455000Y-92265500D01*
X101454699Y-92271626D01*
X101453799Y-92277693D01*
X101452309Y-92283643D01*
X101450242Y-92289418D01*
X101447620Y-92294962D01*
X101444467Y-92300223D01*
X101440813Y-92305150D01*
X101436694Y-92309694D01*
X101432150Y-92313813D01*
X101427223Y-92317467D01*
X101421962Y-92320620D01*
X101416418Y-92323242D01*
X101410643Y-92325309D01*
X101404693Y-92326799D01*
X101398626Y-92327699D01*
X101392500Y-92328000D01*
X101267500Y-92328000D01*
X101261374Y-92327699D01*
X101255307Y-92326799D01*
X101249357Y-92325309D01*
X101243582Y-92323242D01*
X101238038Y-92320620D01*
X101232777Y-92317467D01*
X101227850Y-92313813D01*
X101223306Y-92309694D01*
X101219187Y-92305150D01*
X101215533Y-92300223D01*
X101212380Y-92294962D01*
X101209758Y-92289418D01*
X101207691Y-92283643D01*
X101206201Y-92277693D01*
X101205301Y-92271626D01*
X101205000Y-92265500D01*
X101205000Y-91565500D01*
X101205301Y-91559374D01*
X101206201Y-91553307D01*
X101207691Y-91547357D01*
X101209758Y-91541582D01*
X101212380Y-91536038D01*
X101215533Y-91530777D01*
X101219187Y-91525850D01*
X101223306Y-91521306D01*
X101227850Y-91517187D01*
X101232777Y-91513533D01*
X101238038Y-91510380D01*
X101243582Y-91507758D01*
X101249357Y-91505691D01*
X101255307Y-91504201D01*
X101261374Y-91503301D01*
X101267500Y-91503000D01*
X101392500Y-91503000D01*
X101398626Y-91503301D01*
G37*
G36*
X100898626Y-91503301D02*
G01*
X100904693Y-91504201D01*
X100910643Y-91505691D01*
X100916418Y-91507758D01*
X100921962Y-91510380D01*
X100927223Y-91513533D01*
X100932150Y-91517187D01*
X100936694Y-91521306D01*
X100940813Y-91525850D01*
X100944467Y-91530777D01*
X100947620Y-91536038D01*
X100950242Y-91541582D01*
X100952309Y-91547357D01*
X100953799Y-91553307D01*
X100954699Y-91559374D01*
X100955000Y-91565500D01*
X100955000Y-92265500D01*
X100954699Y-92271626D01*
X100953799Y-92277693D01*
X100952309Y-92283643D01*
X100950242Y-92289418D01*
X100947620Y-92294962D01*
X100944467Y-92300223D01*
X100940813Y-92305150D01*
X100936694Y-92309694D01*
X100932150Y-92313813D01*
X100927223Y-92317467D01*
X100921962Y-92320620D01*
X100916418Y-92323242D01*
X100910643Y-92325309D01*
X100904693Y-92326799D01*
X100898626Y-92327699D01*
X100892500Y-92328000D01*
X100767500Y-92328000D01*
X100761374Y-92327699D01*
X100755307Y-92326799D01*
X100749357Y-92325309D01*
X100743582Y-92323242D01*
X100738038Y-92320620D01*
X100732777Y-92317467D01*
X100727850Y-92313813D01*
X100723306Y-92309694D01*
X100719187Y-92305150D01*
X100715533Y-92300223D01*
X100712380Y-92294962D01*
X100709758Y-92289418D01*
X100707691Y-92283643D01*
X100706201Y-92277693D01*
X100705301Y-92271626D01*
X100705000Y-92265500D01*
X100705000Y-91565500D01*
X100705301Y-91559374D01*
X100706201Y-91553307D01*
X100707691Y-91547357D01*
X100709758Y-91541582D01*
X100712380Y-91536038D01*
X100715533Y-91530777D01*
X100719187Y-91525850D01*
X100723306Y-91521306D01*
X100727850Y-91517187D01*
X100732777Y-91513533D01*
X100738038Y-91510380D01*
X100743582Y-91507758D01*
X100749357Y-91505691D01*
X100755307Y-91504201D01*
X100761374Y-91503301D01*
X100767500Y-91503000D01*
X100892500Y-91503000D01*
X100898626Y-91503301D01*
G37*
G36*
X100398626Y-91503301D02*
G01*
X100404693Y-91504201D01*
X100410643Y-91505691D01*
X100416418Y-91507758D01*
X100421962Y-91510380D01*
X100427223Y-91513533D01*
X100432150Y-91517187D01*
X100436694Y-91521306D01*
X100440813Y-91525850D01*
X100444467Y-91530777D01*
X100447620Y-91536038D01*
X100450242Y-91541582D01*
X100452309Y-91547357D01*
X100453799Y-91553307D01*
X100454699Y-91559374D01*
X100455000Y-91565500D01*
X100455000Y-92265500D01*
X100454699Y-92271626D01*
X100453799Y-92277693D01*
X100452309Y-92283643D01*
X100450242Y-92289418D01*
X100447620Y-92294962D01*
X100444467Y-92300223D01*
X100440813Y-92305150D01*
X100436694Y-92309694D01*
X100432150Y-92313813D01*
X100427223Y-92317467D01*
X100421962Y-92320620D01*
X100416418Y-92323242D01*
X100410643Y-92325309D01*
X100404693Y-92326799D01*
X100398626Y-92327699D01*
X100392500Y-92328000D01*
X100267500Y-92328000D01*
X100261374Y-92327699D01*
X100255307Y-92326799D01*
X100249357Y-92325309D01*
X100243582Y-92323242D01*
X100238038Y-92320620D01*
X100232777Y-92317467D01*
X100227850Y-92313813D01*
X100223306Y-92309694D01*
X100219187Y-92305150D01*
X100215533Y-92300223D01*
X100212380Y-92294962D01*
X100209758Y-92289418D01*
X100207691Y-92283643D01*
X100206201Y-92277693D01*
X100205301Y-92271626D01*
X100205000Y-92265500D01*
X100205000Y-91565500D01*
X100205301Y-91559374D01*
X100206201Y-91553307D01*
X100207691Y-91547357D01*
X100209758Y-91541582D01*
X100212380Y-91536038D01*
X100215533Y-91530777D01*
X100219187Y-91525850D01*
X100223306Y-91521306D01*
X100227850Y-91517187D01*
X100232777Y-91513533D01*
X100238038Y-91510380D01*
X100243582Y-91507758D01*
X100249357Y-91505691D01*
X100255307Y-91504201D01*
X100261374Y-91503301D01*
X100267500Y-91503000D01*
X100392500Y-91503000D01*
X100398626Y-91503301D01*
G37*
G36*
X99898626Y-91503301D02*
G01*
X99904693Y-91504201D01*
X99910643Y-91505691D01*
X99916418Y-91507758D01*
X99921962Y-91510380D01*
X99927223Y-91513533D01*
X99932150Y-91517187D01*
X99936694Y-91521306D01*
X99940813Y-91525850D01*
X99944467Y-91530777D01*
X99947620Y-91536038D01*
X99950242Y-91541582D01*
X99952309Y-91547357D01*
X99953799Y-91553307D01*
X99954699Y-91559374D01*
X99955000Y-91565500D01*
X99955000Y-92265500D01*
X99954699Y-92271626D01*
X99953799Y-92277693D01*
X99952309Y-92283643D01*
X99950242Y-92289418D01*
X99947620Y-92294962D01*
X99944467Y-92300223D01*
X99940813Y-92305150D01*
X99936694Y-92309694D01*
X99932150Y-92313813D01*
X99927223Y-92317467D01*
X99921962Y-92320620D01*
X99916418Y-92323242D01*
X99910643Y-92325309D01*
X99904693Y-92326799D01*
X99898626Y-92327699D01*
X99892500Y-92328000D01*
X99767500Y-92328000D01*
X99761374Y-92327699D01*
X99755307Y-92326799D01*
X99749357Y-92325309D01*
X99743582Y-92323242D01*
X99738038Y-92320620D01*
X99732777Y-92317467D01*
X99727850Y-92313813D01*
X99723306Y-92309694D01*
X99719187Y-92305150D01*
X99715533Y-92300223D01*
X99712380Y-92294962D01*
X99709758Y-92289418D01*
X99707691Y-92283643D01*
X99706201Y-92277693D01*
X99705301Y-92271626D01*
X99705000Y-92265500D01*
X99705000Y-91565500D01*
X99705301Y-91559374D01*
X99706201Y-91553307D01*
X99707691Y-91547357D01*
X99709758Y-91541582D01*
X99712380Y-91536038D01*
X99715533Y-91530777D01*
X99719187Y-91525850D01*
X99723306Y-91521306D01*
X99727850Y-91517187D01*
X99732777Y-91513533D01*
X99738038Y-91510380D01*
X99743582Y-91507758D01*
X99749357Y-91505691D01*
X99755307Y-91504201D01*
X99761374Y-91503301D01*
X99767500Y-91503000D01*
X99892500Y-91503000D01*
X99898626Y-91503301D01*
G37*
G36*
X99398626Y-91503301D02*
G01*
X99404693Y-91504201D01*
X99410643Y-91505691D01*
X99416418Y-91507758D01*
X99421962Y-91510380D01*
X99427223Y-91513533D01*
X99432150Y-91517187D01*
X99436694Y-91521306D01*
X99440813Y-91525850D01*
X99444467Y-91530777D01*
X99447620Y-91536038D01*
X99450242Y-91541582D01*
X99452309Y-91547357D01*
X99453799Y-91553307D01*
X99454699Y-91559374D01*
X99455000Y-91565500D01*
X99455000Y-92265500D01*
X99454699Y-92271626D01*
X99453799Y-92277693D01*
X99452309Y-92283643D01*
X99450242Y-92289418D01*
X99447620Y-92294962D01*
X99444467Y-92300223D01*
X99440813Y-92305150D01*
X99436694Y-92309694D01*
X99432150Y-92313813D01*
X99427223Y-92317467D01*
X99421962Y-92320620D01*
X99416418Y-92323242D01*
X99410643Y-92325309D01*
X99404693Y-92326799D01*
X99398626Y-92327699D01*
X99392500Y-92328000D01*
X99267500Y-92328000D01*
X99261374Y-92327699D01*
X99255307Y-92326799D01*
X99249357Y-92325309D01*
X99243582Y-92323242D01*
X99238038Y-92320620D01*
X99232777Y-92317467D01*
X99227850Y-92313813D01*
X99223306Y-92309694D01*
X99219187Y-92305150D01*
X99215533Y-92300223D01*
X99212380Y-92294962D01*
X99209758Y-92289418D01*
X99207691Y-92283643D01*
X99206201Y-92277693D01*
X99205301Y-92271626D01*
X99205000Y-92265500D01*
X99205000Y-91565500D01*
X99205301Y-91559374D01*
X99206201Y-91553307D01*
X99207691Y-91547357D01*
X99209758Y-91541582D01*
X99212380Y-91536038D01*
X99215533Y-91530777D01*
X99219187Y-91525850D01*
X99223306Y-91521306D01*
X99227850Y-91517187D01*
X99232777Y-91513533D01*
X99238038Y-91510380D01*
X99243582Y-91507758D01*
X99249357Y-91505691D01*
X99255307Y-91504201D01*
X99261374Y-91503301D01*
X99267500Y-91503000D01*
X99392500Y-91503000D01*
X99398626Y-91503301D01*
G37*
G36*
X101234504Y-93974204D02*
G01*
X101258773Y-93977804D01*
X101282571Y-93983765D01*
X101305671Y-93992030D01*
X101327849Y-94002520D01*
X101348893Y-94015133D01*
X101368598Y-94029747D01*
X101386777Y-94046223D01*
X101403253Y-94064402D01*
X101417867Y-94084107D01*
X101430480Y-94105151D01*
X101440970Y-94127329D01*
X101449235Y-94150429D01*
X101455196Y-94174227D01*
X101458796Y-94198496D01*
X101460000Y-94223000D01*
X101460000Y-94733000D01*
X101458796Y-94757504D01*
X101455196Y-94781773D01*
X101449235Y-94805571D01*
X101440970Y-94828671D01*
X101430480Y-94850849D01*
X101417867Y-94871893D01*
X101403253Y-94891598D01*
X101386777Y-94909777D01*
X101368598Y-94926253D01*
X101348893Y-94940867D01*
X101327849Y-94953480D01*
X101305671Y-94963970D01*
X101282571Y-94972235D01*
X101258773Y-94978196D01*
X101234504Y-94981796D01*
X101210000Y-94983000D01*
X100700000Y-94983000D01*
X100675496Y-94981796D01*
X100651227Y-94978196D01*
X100627429Y-94972235D01*
X100604329Y-94963970D01*
X100582151Y-94953480D01*
X100561107Y-94940867D01*
X100541402Y-94926253D01*
X100523223Y-94909777D01*
X100506747Y-94891598D01*
X100492133Y-94871893D01*
X100479520Y-94850849D01*
X100469030Y-94828671D01*
X100460765Y-94805571D01*
X100454804Y-94781773D01*
X100451204Y-94757504D01*
X100450000Y-94733000D01*
X100450000Y-94223000D01*
X100451204Y-94198496D01*
X100454804Y-94174227D01*
X100460765Y-94150429D01*
X100469030Y-94127329D01*
X100479520Y-94105151D01*
X100492133Y-94084107D01*
X100506747Y-94064402D01*
X100523223Y-94046223D01*
X100541402Y-94029747D01*
X100561107Y-94015133D01*
X100582151Y-94002520D01*
X100604329Y-93992030D01*
X100627429Y-93983765D01*
X100651227Y-93977804D01*
X100675496Y-93974204D01*
X100700000Y-93973000D01*
X101210000Y-93973000D01*
X101234504Y-93974204D01*
G37*
G36*
X99984504Y-93974204D02*
G01*
X100008773Y-93977804D01*
X100032571Y-93983765D01*
X100055671Y-93992030D01*
X100077849Y-94002520D01*
X100098893Y-94015133D01*
X100118598Y-94029747D01*
X100136777Y-94046223D01*
X100153253Y-94064402D01*
X100167867Y-94084107D01*
X100180480Y-94105151D01*
X100190970Y-94127329D01*
X100199235Y-94150429D01*
X100205196Y-94174227D01*
X100208796Y-94198496D01*
X100210000Y-94223000D01*
X100210000Y-94733000D01*
X100208796Y-94757504D01*
X100205196Y-94781773D01*
X100199235Y-94805571D01*
X100190970Y-94828671D01*
X100180480Y-94850849D01*
X100167867Y-94871893D01*
X100153253Y-94891598D01*
X100136777Y-94909777D01*
X100118598Y-94926253D01*
X100098893Y-94940867D01*
X100077849Y-94953480D01*
X100055671Y-94963970D01*
X100032571Y-94972235D01*
X100008773Y-94978196D01*
X99984504Y-94981796D01*
X99960000Y-94983000D01*
X99450000Y-94983000D01*
X99425496Y-94981796D01*
X99401227Y-94978196D01*
X99377429Y-94972235D01*
X99354329Y-94963970D01*
X99332151Y-94953480D01*
X99311107Y-94940867D01*
X99291402Y-94926253D01*
X99273223Y-94909777D01*
X99256747Y-94891598D01*
X99242133Y-94871893D01*
X99229520Y-94850849D01*
X99219030Y-94828671D01*
X99210765Y-94805571D01*
X99204804Y-94781773D01*
X99201204Y-94757504D01*
X99200000Y-94733000D01*
X99200000Y-94223000D01*
X99201204Y-94198496D01*
X99204804Y-94174227D01*
X99210765Y-94150429D01*
X99219030Y-94127329D01*
X99229520Y-94105151D01*
X99242133Y-94084107D01*
X99256747Y-94064402D01*
X99273223Y-94046223D01*
X99291402Y-94029747D01*
X99311107Y-94015133D01*
X99332151Y-94002520D01*
X99354329Y-93992030D01*
X99377429Y-93983765D01*
X99401227Y-93977804D01*
X99425496Y-93974204D01*
X99450000Y-93973000D01*
X99960000Y-93973000D01*
X99984504Y-93974204D01*
G37*
G36*
X101234504Y-92724204D02*
G01*
X101258773Y-92727804D01*
X101282571Y-92733765D01*
X101305671Y-92742030D01*
X101327849Y-92752520D01*
X101348893Y-92765133D01*
X101368598Y-92779747D01*
X101386777Y-92796223D01*
X101403253Y-92814402D01*
X101417867Y-92834107D01*
X101430480Y-92855151D01*
X101440970Y-92877329D01*
X101449235Y-92900429D01*
X101455196Y-92924227D01*
X101458796Y-92948496D01*
X101460000Y-92973000D01*
X101460000Y-93483000D01*
X101458796Y-93507504D01*
X101455196Y-93531773D01*
X101449235Y-93555571D01*
X101440970Y-93578671D01*
X101430480Y-93600849D01*
X101417867Y-93621893D01*
X101403253Y-93641598D01*
X101386777Y-93659777D01*
X101368598Y-93676253D01*
X101348893Y-93690867D01*
X101327849Y-93703480D01*
X101305671Y-93713970D01*
X101282571Y-93722235D01*
X101258773Y-93728196D01*
X101234504Y-93731796D01*
X101210000Y-93733000D01*
X100700000Y-93733000D01*
X100675496Y-93731796D01*
X100651227Y-93728196D01*
X100627429Y-93722235D01*
X100604329Y-93713970D01*
X100582151Y-93703480D01*
X100561107Y-93690867D01*
X100541402Y-93676253D01*
X100523223Y-93659777D01*
X100506747Y-93641598D01*
X100492133Y-93621893D01*
X100479520Y-93600849D01*
X100469030Y-93578671D01*
X100460765Y-93555571D01*
X100454804Y-93531773D01*
X100451204Y-93507504D01*
X100450000Y-93483000D01*
X100450000Y-92973000D01*
X100451204Y-92948496D01*
X100454804Y-92924227D01*
X100460765Y-92900429D01*
X100469030Y-92877329D01*
X100479520Y-92855151D01*
X100492133Y-92834107D01*
X100506747Y-92814402D01*
X100523223Y-92796223D01*
X100541402Y-92779747D01*
X100561107Y-92765133D01*
X100582151Y-92752520D01*
X100604329Y-92742030D01*
X100627429Y-92733765D01*
X100651227Y-92727804D01*
X100675496Y-92724204D01*
X100700000Y-92723000D01*
X101210000Y-92723000D01*
X101234504Y-92724204D01*
G37*
G36*
X99984504Y-92724204D02*
G01*
X100008773Y-92727804D01*
X100032571Y-92733765D01*
X100055671Y-92742030D01*
X100077849Y-92752520D01*
X100098893Y-92765133D01*
X100118598Y-92779747D01*
X100136777Y-92796223D01*
X100153253Y-92814402D01*
X100167867Y-92834107D01*
X100180480Y-92855151D01*
X100190970Y-92877329D01*
X100199235Y-92900429D01*
X100205196Y-92924227D01*
X100208796Y-92948496D01*
X100210000Y-92973000D01*
X100210000Y-93483000D01*
X100208796Y-93507504D01*
X100205196Y-93531773D01*
X100199235Y-93555571D01*
X100190970Y-93578671D01*
X100180480Y-93600849D01*
X100167867Y-93621893D01*
X100153253Y-93641598D01*
X100136777Y-93659777D01*
X100118598Y-93676253D01*
X100098893Y-93690867D01*
X100077849Y-93703480D01*
X100055671Y-93713970D01*
X100032571Y-93722235D01*
X100008773Y-93728196D01*
X99984504Y-93731796D01*
X99960000Y-93733000D01*
X99450000Y-93733000D01*
X99425496Y-93731796D01*
X99401227Y-93728196D01*
X99377429Y-93722235D01*
X99354329Y-93713970D01*
X99332151Y-93703480D01*
X99311107Y-93690867D01*
X99291402Y-93676253D01*
X99273223Y-93659777D01*
X99256747Y-93641598D01*
X99242133Y-93621893D01*
X99229520Y-93600849D01*
X99219030Y-93578671D01*
X99210765Y-93555571D01*
X99204804Y-93531773D01*
X99201204Y-93507504D01*
X99200000Y-93483000D01*
X99200000Y-92973000D01*
X99201204Y-92948496D01*
X99204804Y-92924227D01*
X99210765Y-92900429D01*
X99219030Y-92877329D01*
X99229520Y-92855151D01*
X99242133Y-92834107D01*
X99256747Y-92814402D01*
X99273223Y-92796223D01*
X99291402Y-92779747D01*
X99311107Y-92765133D01*
X99332151Y-92752520D01*
X99354329Y-92742030D01*
X99377429Y-92733765D01*
X99401227Y-92727804D01*
X99425496Y-92724204D01*
X99450000Y-92723000D01*
X99960000Y-92723000D01*
X99984504Y-92724204D01*
G37*
D14*
X100584000Y-79883000D03*
D15*
X99384000Y-81381600D03*
X99783999Y-81381600D03*
X100184001Y-81381600D03*
X100584000Y-81381600D03*
X100983999Y-81381600D03*
X101384001Y-81381600D03*
X101784000Y-81381600D03*
X101784000Y-78384400D03*
X101384001Y-78384400D03*
X100983999Y-78384400D03*
X100584000Y-78384400D03*
X100184001Y-78384400D03*
X99783999Y-78384400D03*
X99384000Y-78384400D03*
D10*
G36*
X91717691Y-76551053D02*
G01*
X91738926Y-76554203D01*
X91759750Y-76559419D01*
X91779962Y-76566651D01*
X91799368Y-76575830D01*
X91817781Y-76586866D01*
X91835024Y-76599654D01*
X91850930Y-76614070D01*
X91865346Y-76629976D01*
X91878134Y-76647219D01*
X91889170Y-76665632D01*
X91898349Y-76685038D01*
X91905581Y-76705250D01*
X91910797Y-76726074D01*
X91913947Y-76747309D01*
X91915000Y-76768750D01*
X91915000Y-77206250D01*
X91913947Y-77227691D01*
X91910797Y-77248926D01*
X91905581Y-77269750D01*
X91898349Y-77289962D01*
X91889170Y-77309368D01*
X91878134Y-77327781D01*
X91865346Y-77345024D01*
X91850930Y-77360930D01*
X91835024Y-77375346D01*
X91817781Y-77388134D01*
X91799368Y-77399170D01*
X91779962Y-77408349D01*
X91759750Y-77415581D01*
X91738926Y-77420797D01*
X91717691Y-77423947D01*
X91696250Y-77425000D01*
X91183750Y-77425000D01*
X91162309Y-77423947D01*
X91141074Y-77420797D01*
X91120250Y-77415581D01*
X91100038Y-77408349D01*
X91080632Y-77399170D01*
X91062219Y-77388134D01*
X91044976Y-77375346D01*
X91029070Y-77360930D01*
X91014654Y-77345024D01*
X91001866Y-77327781D01*
X90990830Y-77309368D01*
X90981651Y-77289962D01*
X90974419Y-77269750D01*
X90969203Y-77248926D01*
X90966053Y-77227691D01*
X90965000Y-77206250D01*
X90965000Y-76768750D01*
X90966053Y-76747309D01*
X90969203Y-76726074D01*
X90974419Y-76705250D01*
X90981651Y-76685038D01*
X90990830Y-76665632D01*
X91001866Y-76647219D01*
X91014654Y-76629976D01*
X91029070Y-76614070D01*
X91044976Y-76599654D01*
X91062219Y-76586866D01*
X91080632Y-76575830D01*
X91100038Y-76566651D01*
X91120250Y-76559419D01*
X91141074Y-76554203D01*
X91162309Y-76551053D01*
X91183750Y-76550000D01*
X91696250Y-76550000D01*
X91717691Y-76551053D01*
G37*
G36*
X91717691Y-74976053D02*
G01*
X91738926Y-74979203D01*
X91759750Y-74984419D01*
X91779962Y-74991651D01*
X91799368Y-75000830D01*
X91817781Y-75011866D01*
X91835024Y-75024654D01*
X91850930Y-75039070D01*
X91865346Y-75054976D01*
X91878134Y-75072219D01*
X91889170Y-75090632D01*
X91898349Y-75110038D01*
X91905581Y-75130250D01*
X91910797Y-75151074D01*
X91913947Y-75172309D01*
X91915000Y-75193750D01*
X91915000Y-75631250D01*
X91913947Y-75652691D01*
X91910797Y-75673926D01*
X91905581Y-75694750D01*
X91898349Y-75714962D01*
X91889170Y-75734368D01*
X91878134Y-75752781D01*
X91865346Y-75770024D01*
X91850930Y-75785930D01*
X91835024Y-75800346D01*
X91817781Y-75813134D01*
X91799368Y-75824170D01*
X91779962Y-75833349D01*
X91759750Y-75840581D01*
X91738926Y-75845797D01*
X91717691Y-75848947D01*
X91696250Y-75850000D01*
X91183750Y-75850000D01*
X91162309Y-75848947D01*
X91141074Y-75845797D01*
X91120250Y-75840581D01*
X91100038Y-75833349D01*
X91080632Y-75824170D01*
X91062219Y-75813134D01*
X91044976Y-75800346D01*
X91029070Y-75785930D01*
X91014654Y-75770024D01*
X91001866Y-75752781D01*
X90990830Y-75734368D01*
X90981651Y-75714962D01*
X90974419Y-75694750D01*
X90969203Y-75673926D01*
X90966053Y-75652691D01*
X90965000Y-75631250D01*
X90965000Y-75193750D01*
X90966053Y-75172309D01*
X90969203Y-75151074D01*
X90974419Y-75130250D01*
X90981651Y-75110038D01*
X90990830Y-75090632D01*
X91001866Y-75072219D01*
X91014654Y-75054976D01*
X91029070Y-75039070D01*
X91044976Y-75024654D01*
X91062219Y-75011866D01*
X91080632Y-75000830D01*
X91100038Y-74991651D01*
X91120250Y-74984419D01*
X91141074Y-74979203D01*
X91162309Y-74976053D01*
X91183750Y-74975000D01*
X91696250Y-74975000D01*
X91717691Y-74976053D01*
G37*
G36*
X103985142Y-80334174D02*
G01*
X104008803Y-80337684D01*
X104032007Y-80343496D01*
X104054529Y-80351554D01*
X104076153Y-80361782D01*
X104096670Y-80374079D01*
X104115883Y-80388329D01*
X104133607Y-80404393D01*
X104149671Y-80422117D01*
X104163921Y-80441330D01*
X104176218Y-80461847D01*
X104186446Y-80483471D01*
X104194504Y-80505993D01*
X104200316Y-80529197D01*
X104203826Y-80552858D01*
X104205000Y-80576750D01*
X104205000Y-81064250D01*
X104203826Y-81088142D01*
X104200316Y-81111803D01*
X104194504Y-81135007D01*
X104186446Y-81157529D01*
X104176218Y-81179153D01*
X104163921Y-81199670D01*
X104149671Y-81218883D01*
X104133607Y-81236607D01*
X104115883Y-81252671D01*
X104096670Y-81266921D01*
X104076153Y-81279218D01*
X104054529Y-81289446D01*
X104032007Y-81297504D01*
X104008803Y-81303316D01*
X103985142Y-81306826D01*
X103961250Y-81308000D01*
X103048750Y-81308000D01*
X103024858Y-81306826D01*
X103001197Y-81303316D01*
X102977993Y-81297504D01*
X102955471Y-81289446D01*
X102933847Y-81279218D01*
X102913330Y-81266921D01*
X102894117Y-81252671D01*
X102876393Y-81236607D01*
X102860329Y-81218883D01*
X102846079Y-81199670D01*
X102833782Y-81179153D01*
X102823554Y-81157529D01*
X102815496Y-81135007D01*
X102809684Y-81111803D01*
X102806174Y-81088142D01*
X102805000Y-81064250D01*
X102805000Y-80576750D01*
X102806174Y-80552858D01*
X102809684Y-80529197D01*
X102815496Y-80505993D01*
X102823554Y-80483471D01*
X102833782Y-80461847D01*
X102846079Y-80441330D01*
X102860329Y-80422117D01*
X102876393Y-80404393D01*
X102894117Y-80388329D01*
X102913330Y-80374079D01*
X102933847Y-80361782D01*
X102955471Y-80351554D01*
X102977993Y-80343496D01*
X103001197Y-80337684D01*
X103024858Y-80334174D01*
X103048750Y-80333000D01*
X103961250Y-80333000D01*
X103985142Y-80334174D01*
G37*
G36*
X103985142Y-78459174D02*
G01*
X104008803Y-78462684D01*
X104032007Y-78468496D01*
X104054529Y-78476554D01*
X104076153Y-78486782D01*
X104096670Y-78499079D01*
X104115883Y-78513329D01*
X104133607Y-78529393D01*
X104149671Y-78547117D01*
X104163921Y-78566330D01*
X104176218Y-78586847D01*
X104186446Y-78608471D01*
X104194504Y-78630993D01*
X104200316Y-78654197D01*
X104203826Y-78677858D01*
X104205000Y-78701750D01*
X104205000Y-79189250D01*
X104203826Y-79213142D01*
X104200316Y-79236803D01*
X104194504Y-79260007D01*
X104186446Y-79282529D01*
X104176218Y-79304153D01*
X104163921Y-79324670D01*
X104149671Y-79343883D01*
X104133607Y-79361607D01*
X104115883Y-79377671D01*
X104096670Y-79391921D01*
X104076153Y-79404218D01*
X104054529Y-79414446D01*
X104032007Y-79422504D01*
X104008803Y-79428316D01*
X103985142Y-79431826D01*
X103961250Y-79433000D01*
X103048750Y-79433000D01*
X103024858Y-79431826D01*
X103001197Y-79428316D01*
X102977993Y-79422504D01*
X102955471Y-79414446D01*
X102933847Y-79404218D01*
X102913330Y-79391921D01*
X102894117Y-79377671D01*
X102876393Y-79361607D01*
X102860329Y-79343883D01*
X102846079Y-79324670D01*
X102833782Y-79304153D01*
X102823554Y-79282529D01*
X102815496Y-79260007D01*
X102809684Y-79236803D01*
X102806174Y-79213142D01*
X102805000Y-79189250D01*
X102805000Y-78701750D01*
X102806174Y-78677858D01*
X102809684Y-78654197D01*
X102815496Y-78630993D01*
X102823554Y-78608471D01*
X102833782Y-78586847D01*
X102846079Y-78566330D01*
X102860329Y-78547117D01*
X102876393Y-78529393D01*
X102894117Y-78513329D01*
X102913330Y-78499079D01*
X102933847Y-78486782D01*
X102955471Y-78476554D01*
X102977993Y-78468496D01*
X103001197Y-78462684D01*
X103024858Y-78459174D01*
X103048750Y-78458000D01*
X103961250Y-78458000D01*
X103985142Y-78459174D01*
G37*
G36*
X92479691Y-79624553D02*
G01*
X92500926Y-79627703D01*
X92521750Y-79632919D01*
X92541962Y-79640151D01*
X92561368Y-79649330D01*
X92579781Y-79660366D01*
X92597024Y-79673154D01*
X92612930Y-79687570D01*
X92627346Y-79703476D01*
X92640134Y-79720719D01*
X92651170Y-79739132D01*
X92660349Y-79758538D01*
X92667581Y-79778750D01*
X92672797Y-79799574D01*
X92675947Y-79820809D01*
X92677000Y-79842250D01*
X92677000Y-80279750D01*
X92675947Y-80301191D01*
X92672797Y-80322426D01*
X92667581Y-80343250D01*
X92660349Y-80363462D01*
X92651170Y-80382868D01*
X92640134Y-80401281D01*
X92627346Y-80418524D01*
X92612930Y-80434430D01*
X92597024Y-80448846D01*
X92579781Y-80461634D01*
X92561368Y-80472670D01*
X92541962Y-80481849D01*
X92521750Y-80489081D01*
X92500926Y-80494297D01*
X92479691Y-80497447D01*
X92458250Y-80498500D01*
X91945750Y-80498500D01*
X91924309Y-80497447D01*
X91903074Y-80494297D01*
X91882250Y-80489081D01*
X91862038Y-80481849D01*
X91842632Y-80472670D01*
X91824219Y-80461634D01*
X91806976Y-80448846D01*
X91791070Y-80434430D01*
X91776654Y-80418524D01*
X91763866Y-80401281D01*
X91752830Y-80382868D01*
X91743651Y-80363462D01*
X91736419Y-80343250D01*
X91731203Y-80322426D01*
X91728053Y-80301191D01*
X91727000Y-80279750D01*
X91727000Y-79842250D01*
X91728053Y-79820809D01*
X91731203Y-79799574D01*
X91736419Y-79778750D01*
X91743651Y-79758538D01*
X91752830Y-79739132D01*
X91763866Y-79720719D01*
X91776654Y-79703476D01*
X91791070Y-79687570D01*
X91806976Y-79673154D01*
X91824219Y-79660366D01*
X91842632Y-79649330D01*
X91862038Y-79640151D01*
X91882250Y-79632919D01*
X91903074Y-79627703D01*
X91924309Y-79624553D01*
X91945750Y-79623500D01*
X92458250Y-79623500D01*
X92479691Y-79624553D01*
G37*
G36*
X92479691Y-78049553D02*
G01*
X92500926Y-78052703D01*
X92521750Y-78057919D01*
X92541962Y-78065151D01*
X92561368Y-78074330D01*
X92579781Y-78085366D01*
X92597024Y-78098154D01*
X92612930Y-78112570D01*
X92627346Y-78128476D01*
X92640134Y-78145719D01*
X92651170Y-78164132D01*
X92660349Y-78183538D01*
X92667581Y-78203750D01*
X92672797Y-78224574D01*
X92675947Y-78245809D01*
X92677000Y-78267250D01*
X92677000Y-78704750D01*
X92675947Y-78726191D01*
X92672797Y-78747426D01*
X92667581Y-78768250D01*
X92660349Y-78788462D01*
X92651170Y-78807868D01*
X92640134Y-78826281D01*
X92627346Y-78843524D01*
X92612930Y-78859430D01*
X92597024Y-78873846D01*
X92579781Y-78886634D01*
X92561368Y-78897670D01*
X92541962Y-78906849D01*
X92521750Y-78914081D01*
X92500926Y-78919297D01*
X92479691Y-78922447D01*
X92458250Y-78923500D01*
X91945750Y-78923500D01*
X91924309Y-78922447D01*
X91903074Y-78919297D01*
X91882250Y-78914081D01*
X91862038Y-78906849D01*
X91842632Y-78897670D01*
X91824219Y-78886634D01*
X91806976Y-78873846D01*
X91791070Y-78859430D01*
X91776654Y-78843524D01*
X91763866Y-78826281D01*
X91752830Y-78807868D01*
X91743651Y-78788462D01*
X91736419Y-78768250D01*
X91731203Y-78747426D01*
X91728053Y-78726191D01*
X91727000Y-78704750D01*
X91727000Y-78267250D01*
X91728053Y-78245809D01*
X91731203Y-78224574D01*
X91736419Y-78203750D01*
X91743651Y-78183538D01*
X91752830Y-78164132D01*
X91763866Y-78145719D01*
X91776654Y-78128476D01*
X91791070Y-78112570D01*
X91806976Y-78098154D01*
X91824219Y-78085366D01*
X91842632Y-78074330D01*
X91862038Y-78065151D01*
X91882250Y-78057919D01*
X91903074Y-78052703D01*
X91924309Y-78049553D01*
X91945750Y-78048500D01*
X92458250Y-78048500D01*
X92479691Y-78049553D01*
G37*
G36*
X92733691Y-86939553D02*
G01*
X92754926Y-86942703D01*
X92775750Y-86947919D01*
X92795962Y-86955151D01*
X92815368Y-86964330D01*
X92833781Y-86975366D01*
X92851024Y-86988154D01*
X92866930Y-87002570D01*
X92881346Y-87018476D01*
X92894134Y-87035719D01*
X92905170Y-87054132D01*
X92914349Y-87073538D01*
X92921581Y-87093750D01*
X92926797Y-87114574D01*
X92929947Y-87135809D01*
X92931000Y-87157250D01*
X92931000Y-87594750D01*
X92929947Y-87616191D01*
X92926797Y-87637426D01*
X92921581Y-87658250D01*
X92914349Y-87678462D01*
X92905170Y-87697868D01*
X92894134Y-87716281D01*
X92881346Y-87733524D01*
X92866930Y-87749430D01*
X92851024Y-87763846D01*
X92833781Y-87776634D01*
X92815368Y-87787670D01*
X92795962Y-87796849D01*
X92775750Y-87804081D01*
X92754926Y-87809297D01*
X92733691Y-87812447D01*
X92712250Y-87813500D01*
X92199750Y-87813500D01*
X92178309Y-87812447D01*
X92157074Y-87809297D01*
X92136250Y-87804081D01*
X92116038Y-87796849D01*
X92096632Y-87787670D01*
X92078219Y-87776634D01*
X92060976Y-87763846D01*
X92045070Y-87749430D01*
X92030654Y-87733524D01*
X92017866Y-87716281D01*
X92006830Y-87697868D01*
X91997651Y-87678462D01*
X91990419Y-87658250D01*
X91985203Y-87637426D01*
X91982053Y-87616191D01*
X91981000Y-87594750D01*
X91981000Y-87157250D01*
X91982053Y-87135809D01*
X91985203Y-87114574D01*
X91990419Y-87093750D01*
X91997651Y-87073538D01*
X92006830Y-87054132D01*
X92017866Y-87035719D01*
X92030654Y-87018476D01*
X92045070Y-87002570D01*
X92060976Y-86988154D01*
X92078219Y-86975366D01*
X92096632Y-86964330D01*
X92116038Y-86955151D01*
X92136250Y-86947919D01*
X92157074Y-86942703D01*
X92178309Y-86939553D01*
X92199750Y-86938500D01*
X92712250Y-86938500D01*
X92733691Y-86939553D01*
G37*
G36*
X92733691Y-88514553D02*
G01*
X92754926Y-88517703D01*
X92775750Y-88522919D01*
X92795962Y-88530151D01*
X92815368Y-88539330D01*
X92833781Y-88550366D01*
X92851024Y-88563154D01*
X92866930Y-88577570D01*
X92881346Y-88593476D01*
X92894134Y-88610719D01*
X92905170Y-88629132D01*
X92914349Y-88648538D01*
X92921581Y-88668750D01*
X92926797Y-88689574D01*
X92929947Y-88710809D01*
X92931000Y-88732250D01*
X92931000Y-89169750D01*
X92929947Y-89191191D01*
X92926797Y-89212426D01*
X92921581Y-89233250D01*
X92914349Y-89253462D01*
X92905170Y-89272868D01*
X92894134Y-89291281D01*
X92881346Y-89308524D01*
X92866930Y-89324430D01*
X92851024Y-89338846D01*
X92833781Y-89351634D01*
X92815368Y-89362670D01*
X92795962Y-89371849D01*
X92775750Y-89379081D01*
X92754926Y-89384297D01*
X92733691Y-89387447D01*
X92712250Y-89388500D01*
X92199750Y-89388500D01*
X92178309Y-89387447D01*
X92157074Y-89384297D01*
X92136250Y-89379081D01*
X92116038Y-89371849D01*
X92096632Y-89362670D01*
X92078219Y-89351634D01*
X92060976Y-89338846D01*
X92045070Y-89324430D01*
X92030654Y-89308524D01*
X92017866Y-89291281D01*
X92006830Y-89272868D01*
X91997651Y-89253462D01*
X91990419Y-89233250D01*
X91985203Y-89212426D01*
X91982053Y-89191191D01*
X91981000Y-89169750D01*
X91981000Y-88732250D01*
X91982053Y-88710809D01*
X91985203Y-88689574D01*
X91990419Y-88668750D01*
X91997651Y-88648538D01*
X92006830Y-88629132D01*
X92017866Y-88610719D01*
X92030654Y-88593476D01*
X92045070Y-88577570D01*
X92060976Y-88563154D01*
X92078219Y-88550366D01*
X92096632Y-88539330D01*
X92116038Y-88530151D01*
X92136250Y-88522919D01*
X92157074Y-88517703D01*
X92178309Y-88514553D01*
X92199750Y-88513500D01*
X92712250Y-88513500D01*
X92733691Y-88514553D01*
G37*
G36*
X100988691Y-82443553D02*
G01*
X101009926Y-82446703D01*
X101030750Y-82451919D01*
X101050962Y-82459151D01*
X101070368Y-82468330D01*
X101088781Y-82479366D01*
X101106024Y-82492154D01*
X101121930Y-82506570D01*
X101136346Y-82522476D01*
X101149134Y-82539719D01*
X101160170Y-82558132D01*
X101169349Y-82577538D01*
X101176581Y-82597750D01*
X101181797Y-82618574D01*
X101184947Y-82639809D01*
X101186000Y-82661250D01*
X101186000Y-83098750D01*
X101184947Y-83120191D01*
X101181797Y-83141426D01*
X101176581Y-83162250D01*
X101169349Y-83182462D01*
X101160170Y-83201868D01*
X101149134Y-83220281D01*
X101136346Y-83237524D01*
X101121930Y-83253430D01*
X101106024Y-83267846D01*
X101088781Y-83280634D01*
X101070368Y-83291670D01*
X101050962Y-83300849D01*
X101030750Y-83308081D01*
X101009926Y-83313297D01*
X100988691Y-83316447D01*
X100967250Y-83317500D01*
X100454750Y-83317500D01*
X100433309Y-83316447D01*
X100412074Y-83313297D01*
X100391250Y-83308081D01*
X100371038Y-83300849D01*
X100351632Y-83291670D01*
X100333219Y-83280634D01*
X100315976Y-83267846D01*
X100300070Y-83253430D01*
X100285654Y-83237524D01*
X100272866Y-83220281D01*
X100261830Y-83201868D01*
X100252651Y-83182462D01*
X100245419Y-83162250D01*
X100240203Y-83141426D01*
X100237053Y-83120191D01*
X100236000Y-83098750D01*
X100236000Y-82661250D01*
X100237053Y-82639809D01*
X100240203Y-82618574D01*
X100245419Y-82597750D01*
X100252651Y-82577538D01*
X100261830Y-82558132D01*
X100272866Y-82539719D01*
X100285654Y-82522476D01*
X100300070Y-82506570D01*
X100315976Y-82492154D01*
X100333219Y-82479366D01*
X100351632Y-82468330D01*
X100371038Y-82459151D01*
X100391250Y-82451919D01*
X100412074Y-82446703D01*
X100433309Y-82443553D01*
X100454750Y-82442500D01*
X100967250Y-82442500D01*
X100988691Y-82443553D01*
G37*
G36*
X100988691Y-84018553D02*
G01*
X101009926Y-84021703D01*
X101030750Y-84026919D01*
X101050962Y-84034151D01*
X101070368Y-84043330D01*
X101088781Y-84054366D01*
X101106024Y-84067154D01*
X101121930Y-84081570D01*
X101136346Y-84097476D01*
X101149134Y-84114719D01*
X101160170Y-84133132D01*
X101169349Y-84152538D01*
X101176581Y-84172750D01*
X101181797Y-84193574D01*
X101184947Y-84214809D01*
X101186000Y-84236250D01*
X101186000Y-84673750D01*
X101184947Y-84695191D01*
X101181797Y-84716426D01*
X101176581Y-84737250D01*
X101169349Y-84757462D01*
X101160170Y-84776868D01*
X101149134Y-84795281D01*
X101136346Y-84812524D01*
X101121930Y-84828430D01*
X101106024Y-84842846D01*
X101088781Y-84855634D01*
X101070368Y-84866670D01*
X101050962Y-84875849D01*
X101030750Y-84883081D01*
X101009926Y-84888297D01*
X100988691Y-84891447D01*
X100967250Y-84892500D01*
X100454750Y-84892500D01*
X100433309Y-84891447D01*
X100412074Y-84888297D01*
X100391250Y-84883081D01*
X100371038Y-84875849D01*
X100351632Y-84866670D01*
X100333219Y-84855634D01*
X100315976Y-84842846D01*
X100300070Y-84828430D01*
X100285654Y-84812524D01*
X100272866Y-84795281D01*
X100261830Y-84776868D01*
X100252651Y-84757462D01*
X100245419Y-84737250D01*
X100240203Y-84716426D01*
X100237053Y-84695191D01*
X100236000Y-84673750D01*
X100236000Y-84236250D01*
X100237053Y-84214809D01*
X100240203Y-84193574D01*
X100245419Y-84172750D01*
X100252651Y-84152538D01*
X100261830Y-84133132D01*
X100272866Y-84114719D01*
X100285654Y-84097476D01*
X100300070Y-84081570D01*
X100315976Y-84067154D01*
X100333219Y-84054366D01*
X100351632Y-84043330D01*
X100371038Y-84034151D01*
X100391250Y-84026919D01*
X100412074Y-84021703D01*
X100433309Y-84018553D01*
X100454750Y-84017500D01*
X100967250Y-84017500D01*
X100988691Y-84018553D01*
G37*
G36*
X90842191Y-94141053D02*
G01*
X90863426Y-94144203D01*
X90884250Y-94149419D01*
X90904462Y-94156651D01*
X90923868Y-94165830D01*
X90942281Y-94176866D01*
X90959524Y-94189654D01*
X90975430Y-94204070D01*
X90989846Y-94219976D01*
X91002634Y-94237219D01*
X91013670Y-94255632D01*
X91022849Y-94275038D01*
X91030081Y-94295250D01*
X91035297Y-94316074D01*
X91038447Y-94337309D01*
X91039500Y-94358750D01*
X91039500Y-94871250D01*
X91038447Y-94892691D01*
X91035297Y-94913926D01*
X91030081Y-94934750D01*
X91022849Y-94954962D01*
X91013670Y-94974368D01*
X91002634Y-94992781D01*
X90989846Y-95010024D01*
X90975430Y-95025930D01*
X90959524Y-95040346D01*
X90942281Y-95053134D01*
X90923868Y-95064170D01*
X90904462Y-95073349D01*
X90884250Y-95080581D01*
X90863426Y-95085797D01*
X90842191Y-95088947D01*
X90820750Y-95090000D01*
X90383250Y-95090000D01*
X90361809Y-95088947D01*
X90340574Y-95085797D01*
X90319750Y-95080581D01*
X90299538Y-95073349D01*
X90280132Y-95064170D01*
X90261719Y-95053134D01*
X90244476Y-95040346D01*
X90228570Y-95025930D01*
X90214154Y-95010024D01*
X90201366Y-94992781D01*
X90190330Y-94974368D01*
X90181151Y-94954962D01*
X90173919Y-94934750D01*
X90168703Y-94913926D01*
X90165553Y-94892691D01*
X90164500Y-94871250D01*
X90164500Y-94358750D01*
X90165553Y-94337309D01*
X90168703Y-94316074D01*
X90173919Y-94295250D01*
X90181151Y-94275038D01*
X90190330Y-94255632D01*
X90201366Y-94237219D01*
X90214154Y-94219976D01*
X90228570Y-94204070D01*
X90244476Y-94189654D01*
X90261719Y-94176866D01*
X90280132Y-94165830D01*
X90299538Y-94156651D01*
X90319750Y-94149419D01*
X90340574Y-94144203D01*
X90361809Y-94141053D01*
X90383250Y-94140000D01*
X90820750Y-94140000D01*
X90842191Y-94141053D01*
G37*
G36*
X89267191Y-94141053D02*
G01*
X89288426Y-94144203D01*
X89309250Y-94149419D01*
X89329462Y-94156651D01*
X89348868Y-94165830D01*
X89367281Y-94176866D01*
X89384524Y-94189654D01*
X89400430Y-94204070D01*
X89414846Y-94219976D01*
X89427634Y-94237219D01*
X89438670Y-94255632D01*
X89447849Y-94275038D01*
X89455081Y-94295250D01*
X89460297Y-94316074D01*
X89463447Y-94337309D01*
X89464500Y-94358750D01*
X89464500Y-94871250D01*
X89463447Y-94892691D01*
X89460297Y-94913926D01*
X89455081Y-94934750D01*
X89447849Y-94954962D01*
X89438670Y-94974368D01*
X89427634Y-94992781D01*
X89414846Y-95010024D01*
X89400430Y-95025930D01*
X89384524Y-95040346D01*
X89367281Y-95053134D01*
X89348868Y-95064170D01*
X89329462Y-95073349D01*
X89309250Y-95080581D01*
X89288426Y-95085797D01*
X89267191Y-95088947D01*
X89245750Y-95090000D01*
X88808250Y-95090000D01*
X88786809Y-95088947D01*
X88765574Y-95085797D01*
X88744750Y-95080581D01*
X88724538Y-95073349D01*
X88705132Y-95064170D01*
X88686719Y-95053134D01*
X88669476Y-95040346D01*
X88653570Y-95025930D01*
X88639154Y-95010024D01*
X88626366Y-94992781D01*
X88615330Y-94974368D01*
X88606151Y-94954962D01*
X88598919Y-94934750D01*
X88593703Y-94913926D01*
X88590553Y-94892691D01*
X88589500Y-94871250D01*
X88589500Y-94358750D01*
X88590553Y-94337309D01*
X88593703Y-94316074D01*
X88598919Y-94295250D01*
X88606151Y-94275038D01*
X88615330Y-94255632D01*
X88626366Y-94237219D01*
X88639154Y-94219976D01*
X88653570Y-94204070D01*
X88669476Y-94189654D01*
X88686719Y-94176866D01*
X88705132Y-94165830D01*
X88724538Y-94156651D01*
X88744750Y-94149419D01*
X88765574Y-94144203D01*
X88786809Y-94141053D01*
X88808250Y-94140000D01*
X89245750Y-94140000D01*
X89267191Y-94141053D01*
G37*
G36*
X92670191Y-83764553D02*
G01*
X92691426Y-83767703D01*
X92712250Y-83772919D01*
X92732462Y-83780151D01*
X92751868Y-83789330D01*
X92770281Y-83800366D01*
X92787524Y-83813154D01*
X92803430Y-83827570D01*
X92817846Y-83843476D01*
X92830634Y-83860719D01*
X92841670Y-83879132D01*
X92850849Y-83898538D01*
X92858081Y-83918750D01*
X92863297Y-83939574D01*
X92866447Y-83960809D01*
X92867500Y-83982250D01*
X92867500Y-84419750D01*
X92866447Y-84441191D01*
X92863297Y-84462426D01*
X92858081Y-84483250D01*
X92850849Y-84503462D01*
X92841670Y-84522868D01*
X92830634Y-84541281D01*
X92817846Y-84558524D01*
X92803430Y-84574430D01*
X92787524Y-84588846D01*
X92770281Y-84601634D01*
X92751868Y-84612670D01*
X92732462Y-84621849D01*
X92712250Y-84629081D01*
X92691426Y-84634297D01*
X92670191Y-84637447D01*
X92648750Y-84638500D01*
X92136250Y-84638500D01*
X92114809Y-84637447D01*
X92093574Y-84634297D01*
X92072750Y-84629081D01*
X92052538Y-84621849D01*
X92033132Y-84612670D01*
X92014719Y-84601634D01*
X91997476Y-84588846D01*
X91981570Y-84574430D01*
X91967154Y-84558524D01*
X91954366Y-84541281D01*
X91943330Y-84522868D01*
X91934151Y-84503462D01*
X91926919Y-84483250D01*
X91921703Y-84462426D01*
X91918553Y-84441191D01*
X91917500Y-84419750D01*
X91917500Y-83982250D01*
X91918553Y-83960809D01*
X91921703Y-83939574D01*
X91926919Y-83918750D01*
X91934151Y-83898538D01*
X91943330Y-83879132D01*
X91954366Y-83860719D01*
X91967154Y-83843476D01*
X91981570Y-83827570D01*
X91997476Y-83813154D01*
X92014719Y-83800366D01*
X92033132Y-83789330D01*
X92052538Y-83780151D01*
X92072750Y-83772919D01*
X92093574Y-83767703D01*
X92114809Y-83764553D01*
X92136250Y-83763500D01*
X92648750Y-83763500D01*
X92670191Y-83764553D01*
G37*
G36*
X92670191Y-82189553D02*
G01*
X92691426Y-82192703D01*
X92712250Y-82197919D01*
X92732462Y-82205151D01*
X92751868Y-82214330D01*
X92770281Y-82225366D01*
X92787524Y-82238154D01*
X92803430Y-82252570D01*
X92817846Y-82268476D01*
X92830634Y-82285719D01*
X92841670Y-82304132D01*
X92850849Y-82323538D01*
X92858081Y-82343750D01*
X92863297Y-82364574D01*
X92866447Y-82385809D01*
X92867500Y-82407250D01*
X92867500Y-82844750D01*
X92866447Y-82866191D01*
X92863297Y-82887426D01*
X92858081Y-82908250D01*
X92850849Y-82928462D01*
X92841670Y-82947868D01*
X92830634Y-82966281D01*
X92817846Y-82983524D01*
X92803430Y-82999430D01*
X92787524Y-83013846D01*
X92770281Y-83026634D01*
X92751868Y-83037670D01*
X92732462Y-83046849D01*
X92712250Y-83054081D01*
X92691426Y-83059297D01*
X92670191Y-83062447D01*
X92648750Y-83063500D01*
X92136250Y-83063500D01*
X92114809Y-83062447D01*
X92093574Y-83059297D01*
X92072750Y-83054081D01*
X92052538Y-83046849D01*
X92033132Y-83037670D01*
X92014719Y-83026634D01*
X91997476Y-83013846D01*
X91981570Y-82999430D01*
X91967154Y-82983524D01*
X91954366Y-82966281D01*
X91943330Y-82947868D01*
X91934151Y-82928462D01*
X91926919Y-82908250D01*
X91921703Y-82887426D01*
X91918553Y-82866191D01*
X91917500Y-82844750D01*
X91917500Y-82407250D01*
X91918553Y-82385809D01*
X91921703Y-82364574D01*
X91926919Y-82343750D01*
X91934151Y-82323538D01*
X91943330Y-82304132D01*
X91954366Y-82285719D01*
X91967154Y-82268476D01*
X91981570Y-82252570D01*
X91997476Y-82238154D01*
X92014719Y-82225366D01*
X92033132Y-82214330D01*
X92052538Y-82205151D01*
X92072750Y-82197919D01*
X92093574Y-82192703D01*
X92114809Y-82189553D01*
X92136250Y-82188500D01*
X92648750Y-82188500D01*
X92670191Y-82189553D01*
G37*
G36*
X91146191Y-83752053D02*
G01*
X91167426Y-83755203D01*
X91188250Y-83760419D01*
X91208462Y-83767651D01*
X91227868Y-83776830D01*
X91246281Y-83787866D01*
X91263524Y-83800654D01*
X91279430Y-83815070D01*
X91293846Y-83830976D01*
X91306634Y-83848219D01*
X91317670Y-83866632D01*
X91326849Y-83886038D01*
X91334081Y-83906250D01*
X91339297Y-83927074D01*
X91342447Y-83948309D01*
X91343500Y-83969750D01*
X91343500Y-84407250D01*
X91342447Y-84428691D01*
X91339297Y-84449926D01*
X91334081Y-84470750D01*
X91326849Y-84490962D01*
X91317670Y-84510368D01*
X91306634Y-84528781D01*
X91293846Y-84546024D01*
X91279430Y-84561930D01*
X91263524Y-84576346D01*
X91246281Y-84589134D01*
X91227868Y-84600170D01*
X91208462Y-84609349D01*
X91188250Y-84616581D01*
X91167426Y-84621797D01*
X91146191Y-84624947D01*
X91124750Y-84626000D01*
X90612250Y-84626000D01*
X90590809Y-84624947D01*
X90569574Y-84621797D01*
X90548750Y-84616581D01*
X90528538Y-84609349D01*
X90509132Y-84600170D01*
X90490719Y-84589134D01*
X90473476Y-84576346D01*
X90457570Y-84561930D01*
X90443154Y-84546024D01*
X90430366Y-84528781D01*
X90419330Y-84510368D01*
X90410151Y-84490962D01*
X90402919Y-84470750D01*
X90397703Y-84449926D01*
X90394553Y-84428691D01*
X90393500Y-84407250D01*
X90393500Y-83969750D01*
X90394553Y-83948309D01*
X90397703Y-83927074D01*
X90402919Y-83906250D01*
X90410151Y-83886038D01*
X90419330Y-83866632D01*
X90430366Y-83848219D01*
X90443154Y-83830976D01*
X90457570Y-83815070D01*
X90473476Y-83800654D01*
X90490719Y-83787866D01*
X90509132Y-83776830D01*
X90528538Y-83767651D01*
X90548750Y-83760419D01*
X90569574Y-83755203D01*
X90590809Y-83752053D01*
X90612250Y-83751000D01*
X91124750Y-83751000D01*
X91146191Y-83752053D01*
G37*
G36*
X91146191Y-82177053D02*
G01*
X91167426Y-82180203D01*
X91188250Y-82185419D01*
X91208462Y-82192651D01*
X91227868Y-82201830D01*
X91246281Y-82212866D01*
X91263524Y-82225654D01*
X91279430Y-82240070D01*
X91293846Y-82255976D01*
X91306634Y-82273219D01*
X91317670Y-82291632D01*
X91326849Y-82311038D01*
X91334081Y-82331250D01*
X91339297Y-82352074D01*
X91342447Y-82373309D01*
X91343500Y-82394750D01*
X91343500Y-82832250D01*
X91342447Y-82853691D01*
X91339297Y-82874926D01*
X91334081Y-82895750D01*
X91326849Y-82915962D01*
X91317670Y-82935368D01*
X91306634Y-82953781D01*
X91293846Y-82971024D01*
X91279430Y-82986930D01*
X91263524Y-83001346D01*
X91246281Y-83014134D01*
X91227868Y-83025170D01*
X91208462Y-83034349D01*
X91188250Y-83041581D01*
X91167426Y-83046797D01*
X91146191Y-83049947D01*
X91124750Y-83051000D01*
X90612250Y-83051000D01*
X90590809Y-83049947D01*
X90569574Y-83046797D01*
X90548750Y-83041581D01*
X90528538Y-83034349D01*
X90509132Y-83025170D01*
X90490719Y-83014134D01*
X90473476Y-83001346D01*
X90457570Y-82986930D01*
X90443154Y-82971024D01*
X90430366Y-82953781D01*
X90419330Y-82935368D01*
X90410151Y-82915962D01*
X90402919Y-82895750D01*
X90397703Y-82874926D01*
X90394553Y-82853691D01*
X90393500Y-82832250D01*
X90393500Y-82394750D01*
X90394553Y-82373309D01*
X90397703Y-82352074D01*
X90402919Y-82331250D01*
X90410151Y-82311038D01*
X90419330Y-82291632D01*
X90430366Y-82273219D01*
X90443154Y-82255976D01*
X90457570Y-82240070D01*
X90473476Y-82225654D01*
X90490719Y-82212866D01*
X90509132Y-82201830D01*
X90528538Y-82192651D01*
X90548750Y-82185419D01*
X90569574Y-82180203D01*
X90590809Y-82177053D01*
X90612250Y-82176000D01*
X91124750Y-82176000D01*
X91146191Y-82177053D01*
G37*
G36*
X96162691Y-97023553D02*
G01*
X96183926Y-97026703D01*
X96204750Y-97031919D01*
X96224962Y-97039151D01*
X96244368Y-97048330D01*
X96262781Y-97059366D01*
X96280024Y-97072154D01*
X96295930Y-97086570D01*
X96310346Y-97102476D01*
X96323134Y-97119719D01*
X96334170Y-97138132D01*
X96343349Y-97157538D01*
X96350581Y-97177750D01*
X96355797Y-97198574D01*
X96358947Y-97219809D01*
X96360000Y-97241250D01*
X96360000Y-97678750D01*
X96358947Y-97700191D01*
X96355797Y-97721426D01*
X96350581Y-97742250D01*
X96343349Y-97762462D01*
X96334170Y-97781868D01*
X96323134Y-97800281D01*
X96310346Y-97817524D01*
X96295930Y-97833430D01*
X96280024Y-97847846D01*
X96262781Y-97860634D01*
X96244368Y-97871670D01*
X96224962Y-97880849D01*
X96204750Y-97888081D01*
X96183926Y-97893297D01*
X96162691Y-97896447D01*
X96141250Y-97897500D01*
X95628750Y-97897500D01*
X95607309Y-97896447D01*
X95586074Y-97893297D01*
X95565250Y-97888081D01*
X95545038Y-97880849D01*
X95525632Y-97871670D01*
X95507219Y-97860634D01*
X95489976Y-97847846D01*
X95474070Y-97833430D01*
X95459654Y-97817524D01*
X95446866Y-97800281D01*
X95435830Y-97781868D01*
X95426651Y-97762462D01*
X95419419Y-97742250D01*
X95414203Y-97721426D01*
X95411053Y-97700191D01*
X95410000Y-97678750D01*
X95410000Y-97241250D01*
X95411053Y-97219809D01*
X95414203Y-97198574D01*
X95419419Y-97177750D01*
X95426651Y-97157538D01*
X95435830Y-97138132D01*
X95446866Y-97119719D01*
X95459654Y-97102476D01*
X95474070Y-97086570D01*
X95489976Y-97072154D01*
X95507219Y-97059366D01*
X95525632Y-97048330D01*
X95545038Y-97039151D01*
X95565250Y-97031919D01*
X95586074Y-97026703D01*
X95607309Y-97023553D01*
X95628750Y-97022500D01*
X96141250Y-97022500D01*
X96162691Y-97023553D01*
G37*
G36*
X96162691Y-95448553D02*
G01*
X96183926Y-95451703D01*
X96204750Y-95456919D01*
X96224962Y-95464151D01*
X96244368Y-95473330D01*
X96262781Y-95484366D01*
X96280024Y-95497154D01*
X96295930Y-95511570D01*
X96310346Y-95527476D01*
X96323134Y-95544719D01*
X96334170Y-95563132D01*
X96343349Y-95582538D01*
X96350581Y-95602750D01*
X96355797Y-95623574D01*
X96358947Y-95644809D01*
X96360000Y-95666250D01*
X96360000Y-96103750D01*
X96358947Y-96125191D01*
X96355797Y-96146426D01*
X96350581Y-96167250D01*
X96343349Y-96187462D01*
X96334170Y-96206868D01*
X96323134Y-96225281D01*
X96310346Y-96242524D01*
X96295930Y-96258430D01*
X96280024Y-96272846D01*
X96262781Y-96285634D01*
X96244368Y-96296670D01*
X96224962Y-96305849D01*
X96204750Y-96313081D01*
X96183926Y-96318297D01*
X96162691Y-96321447D01*
X96141250Y-96322500D01*
X95628750Y-96322500D01*
X95607309Y-96321447D01*
X95586074Y-96318297D01*
X95565250Y-96313081D01*
X95545038Y-96305849D01*
X95525632Y-96296670D01*
X95507219Y-96285634D01*
X95489976Y-96272846D01*
X95474070Y-96258430D01*
X95459654Y-96242524D01*
X95446866Y-96225281D01*
X95435830Y-96206868D01*
X95426651Y-96187462D01*
X95419419Y-96167250D01*
X95414203Y-96146426D01*
X95411053Y-96125191D01*
X95410000Y-96103750D01*
X95410000Y-95666250D01*
X95411053Y-95644809D01*
X95414203Y-95623574D01*
X95419419Y-95602750D01*
X95426651Y-95582538D01*
X95435830Y-95563132D01*
X95446866Y-95544719D01*
X95459654Y-95527476D01*
X95474070Y-95511570D01*
X95489976Y-95497154D01*
X95507219Y-95484366D01*
X95525632Y-95473330D01*
X95545038Y-95464151D01*
X95565250Y-95456919D01*
X95586074Y-95451703D01*
X95607309Y-95448553D01*
X95628750Y-95447500D01*
X96141250Y-95447500D01*
X96162691Y-95448553D01*
G37*
G36*
X96162691Y-92349553D02*
G01*
X96183926Y-92352703D01*
X96204750Y-92357919D01*
X96224962Y-92365151D01*
X96244368Y-92374330D01*
X96262781Y-92385366D01*
X96280024Y-92398154D01*
X96295930Y-92412570D01*
X96310346Y-92428476D01*
X96323134Y-92445719D01*
X96334170Y-92464132D01*
X96343349Y-92483538D01*
X96350581Y-92503750D01*
X96355797Y-92524574D01*
X96358947Y-92545809D01*
X96360000Y-92567250D01*
X96360000Y-93004750D01*
X96358947Y-93026191D01*
X96355797Y-93047426D01*
X96350581Y-93068250D01*
X96343349Y-93088462D01*
X96334170Y-93107868D01*
X96323134Y-93126281D01*
X96310346Y-93143524D01*
X96295930Y-93159430D01*
X96280024Y-93173846D01*
X96262781Y-93186634D01*
X96244368Y-93197670D01*
X96224962Y-93206849D01*
X96204750Y-93214081D01*
X96183926Y-93219297D01*
X96162691Y-93222447D01*
X96141250Y-93223500D01*
X95628750Y-93223500D01*
X95607309Y-93222447D01*
X95586074Y-93219297D01*
X95565250Y-93214081D01*
X95545038Y-93206849D01*
X95525632Y-93197670D01*
X95507219Y-93186634D01*
X95489976Y-93173846D01*
X95474070Y-93159430D01*
X95459654Y-93143524D01*
X95446866Y-93126281D01*
X95435830Y-93107868D01*
X95426651Y-93088462D01*
X95419419Y-93068250D01*
X95414203Y-93047426D01*
X95411053Y-93026191D01*
X95410000Y-93004750D01*
X95410000Y-92567250D01*
X95411053Y-92545809D01*
X95414203Y-92524574D01*
X95419419Y-92503750D01*
X95426651Y-92483538D01*
X95435830Y-92464132D01*
X95446866Y-92445719D01*
X95459654Y-92428476D01*
X95474070Y-92412570D01*
X95489976Y-92398154D01*
X95507219Y-92385366D01*
X95525632Y-92374330D01*
X95545038Y-92365151D01*
X95565250Y-92357919D01*
X95586074Y-92352703D01*
X95607309Y-92349553D01*
X95628750Y-92348500D01*
X96141250Y-92348500D01*
X96162691Y-92349553D01*
G37*
G36*
X96162691Y-93924553D02*
G01*
X96183926Y-93927703D01*
X96204750Y-93932919D01*
X96224962Y-93940151D01*
X96244368Y-93949330D01*
X96262781Y-93960366D01*
X96280024Y-93973154D01*
X96295930Y-93987570D01*
X96310346Y-94003476D01*
X96323134Y-94020719D01*
X96334170Y-94039132D01*
X96343349Y-94058538D01*
X96350581Y-94078750D01*
X96355797Y-94099574D01*
X96358947Y-94120809D01*
X96360000Y-94142250D01*
X96360000Y-94579750D01*
X96358947Y-94601191D01*
X96355797Y-94622426D01*
X96350581Y-94643250D01*
X96343349Y-94663462D01*
X96334170Y-94682868D01*
X96323134Y-94701281D01*
X96310346Y-94718524D01*
X96295930Y-94734430D01*
X96280024Y-94748846D01*
X96262781Y-94761634D01*
X96244368Y-94772670D01*
X96224962Y-94781849D01*
X96204750Y-94789081D01*
X96183926Y-94794297D01*
X96162691Y-94797447D01*
X96141250Y-94798500D01*
X95628750Y-94798500D01*
X95607309Y-94797447D01*
X95586074Y-94794297D01*
X95565250Y-94789081D01*
X95545038Y-94781849D01*
X95525632Y-94772670D01*
X95507219Y-94761634D01*
X95489976Y-94748846D01*
X95474070Y-94734430D01*
X95459654Y-94718524D01*
X95446866Y-94701281D01*
X95435830Y-94682868D01*
X95426651Y-94663462D01*
X95419419Y-94643250D01*
X95414203Y-94622426D01*
X95411053Y-94601191D01*
X95410000Y-94579750D01*
X95410000Y-94142250D01*
X95411053Y-94120809D01*
X95414203Y-94099574D01*
X95419419Y-94078750D01*
X95426651Y-94058538D01*
X95435830Y-94039132D01*
X95446866Y-94020719D01*
X95459654Y-94003476D01*
X95474070Y-93987570D01*
X95489976Y-93973154D01*
X95507219Y-93960366D01*
X95525632Y-93949330D01*
X95545038Y-93940151D01*
X95565250Y-93932919D01*
X95586074Y-93927703D01*
X95607309Y-93924553D01*
X95628750Y-93923500D01*
X96141250Y-93923500D01*
X96162691Y-93924553D01*
G37*
G36*
X98448691Y-75166553D02*
G01*
X98469926Y-75169703D01*
X98490750Y-75174919D01*
X98510962Y-75182151D01*
X98530368Y-75191330D01*
X98548781Y-75202366D01*
X98566024Y-75215154D01*
X98581930Y-75229570D01*
X98596346Y-75245476D01*
X98609134Y-75262719D01*
X98620170Y-75281132D01*
X98629349Y-75300538D01*
X98636581Y-75320750D01*
X98641797Y-75341574D01*
X98644947Y-75362809D01*
X98646000Y-75384250D01*
X98646000Y-75821750D01*
X98644947Y-75843191D01*
X98641797Y-75864426D01*
X98636581Y-75885250D01*
X98629349Y-75905462D01*
X98620170Y-75924868D01*
X98609134Y-75943281D01*
X98596346Y-75960524D01*
X98581930Y-75976430D01*
X98566024Y-75990846D01*
X98548781Y-76003634D01*
X98530368Y-76014670D01*
X98510962Y-76023849D01*
X98490750Y-76031081D01*
X98469926Y-76036297D01*
X98448691Y-76039447D01*
X98427250Y-76040500D01*
X97914750Y-76040500D01*
X97893309Y-76039447D01*
X97872074Y-76036297D01*
X97851250Y-76031081D01*
X97831038Y-76023849D01*
X97811632Y-76014670D01*
X97793219Y-76003634D01*
X97775976Y-75990846D01*
X97760070Y-75976430D01*
X97745654Y-75960524D01*
X97732866Y-75943281D01*
X97721830Y-75924868D01*
X97712651Y-75905462D01*
X97705419Y-75885250D01*
X97700203Y-75864426D01*
X97697053Y-75843191D01*
X97696000Y-75821750D01*
X97696000Y-75384250D01*
X97697053Y-75362809D01*
X97700203Y-75341574D01*
X97705419Y-75320750D01*
X97712651Y-75300538D01*
X97721830Y-75281132D01*
X97732866Y-75262719D01*
X97745654Y-75245476D01*
X97760070Y-75229570D01*
X97775976Y-75215154D01*
X97793219Y-75202366D01*
X97811632Y-75191330D01*
X97831038Y-75182151D01*
X97851250Y-75174919D01*
X97872074Y-75169703D01*
X97893309Y-75166553D01*
X97914750Y-75165500D01*
X98427250Y-75165500D01*
X98448691Y-75166553D01*
G37*
G36*
X98448691Y-76741553D02*
G01*
X98469926Y-76744703D01*
X98490750Y-76749919D01*
X98510962Y-76757151D01*
X98530368Y-76766330D01*
X98548781Y-76777366D01*
X98566024Y-76790154D01*
X98581930Y-76804570D01*
X98596346Y-76820476D01*
X98609134Y-76837719D01*
X98620170Y-76856132D01*
X98629349Y-76875538D01*
X98636581Y-76895750D01*
X98641797Y-76916574D01*
X98644947Y-76937809D01*
X98646000Y-76959250D01*
X98646000Y-77396750D01*
X98644947Y-77418191D01*
X98641797Y-77439426D01*
X98636581Y-77460250D01*
X98629349Y-77480462D01*
X98620170Y-77499868D01*
X98609134Y-77518281D01*
X98596346Y-77535524D01*
X98581930Y-77551430D01*
X98566024Y-77565846D01*
X98548781Y-77578634D01*
X98530368Y-77589670D01*
X98510962Y-77598849D01*
X98490750Y-77606081D01*
X98469926Y-77611297D01*
X98448691Y-77614447D01*
X98427250Y-77615500D01*
X97914750Y-77615500D01*
X97893309Y-77614447D01*
X97872074Y-77611297D01*
X97851250Y-77606081D01*
X97831038Y-77598849D01*
X97811632Y-77589670D01*
X97793219Y-77578634D01*
X97775976Y-77565846D01*
X97760070Y-77551430D01*
X97745654Y-77535524D01*
X97732866Y-77518281D01*
X97721830Y-77499868D01*
X97712651Y-77480462D01*
X97705419Y-77460250D01*
X97700203Y-77439426D01*
X97697053Y-77418191D01*
X97696000Y-77396750D01*
X97696000Y-76959250D01*
X97697053Y-76937809D01*
X97700203Y-76916574D01*
X97705419Y-76895750D01*
X97712651Y-76875538D01*
X97721830Y-76856132D01*
X97732866Y-76837719D01*
X97745654Y-76820476D01*
X97760070Y-76804570D01*
X97775976Y-76790154D01*
X97793219Y-76777366D01*
X97811632Y-76766330D01*
X97831038Y-76757151D01*
X97851250Y-76749919D01*
X97872074Y-76744703D01*
X97893309Y-76741553D01*
X97914750Y-76740500D01*
X98427250Y-76740500D01*
X98448691Y-76741553D01*
G37*
G36*
X97432691Y-79319553D02*
G01*
X97453926Y-79322703D01*
X97474750Y-79327919D01*
X97494962Y-79335151D01*
X97514368Y-79344330D01*
X97532781Y-79355366D01*
X97550024Y-79368154D01*
X97565930Y-79382570D01*
X97580346Y-79398476D01*
X97593134Y-79415719D01*
X97604170Y-79434132D01*
X97613349Y-79453538D01*
X97620581Y-79473750D01*
X97625797Y-79494574D01*
X97628947Y-79515809D01*
X97630000Y-79537250D01*
X97630000Y-79974750D01*
X97628947Y-79996191D01*
X97625797Y-80017426D01*
X97620581Y-80038250D01*
X97613349Y-80058462D01*
X97604170Y-80077868D01*
X97593134Y-80096281D01*
X97580346Y-80113524D01*
X97565930Y-80129430D01*
X97550024Y-80143846D01*
X97532781Y-80156634D01*
X97514368Y-80167670D01*
X97494962Y-80176849D01*
X97474750Y-80184081D01*
X97453926Y-80189297D01*
X97432691Y-80192447D01*
X97411250Y-80193500D01*
X96898750Y-80193500D01*
X96877309Y-80192447D01*
X96856074Y-80189297D01*
X96835250Y-80184081D01*
X96815038Y-80176849D01*
X96795632Y-80167670D01*
X96777219Y-80156634D01*
X96759976Y-80143846D01*
X96744070Y-80129430D01*
X96729654Y-80113524D01*
X96716866Y-80096281D01*
X96705830Y-80077868D01*
X96696651Y-80058462D01*
X96689419Y-80038250D01*
X96684203Y-80017426D01*
X96681053Y-79996191D01*
X96680000Y-79974750D01*
X96680000Y-79537250D01*
X96681053Y-79515809D01*
X96684203Y-79494574D01*
X96689419Y-79473750D01*
X96696651Y-79453538D01*
X96705830Y-79434132D01*
X96716866Y-79415719D01*
X96729654Y-79398476D01*
X96744070Y-79382570D01*
X96759976Y-79368154D01*
X96777219Y-79355366D01*
X96795632Y-79344330D01*
X96815038Y-79335151D01*
X96835250Y-79327919D01*
X96856074Y-79322703D01*
X96877309Y-79319553D01*
X96898750Y-79318500D01*
X97411250Y-79318500D01*
X97432691Y-79319553D01*
G37*
G36*
X97432691Y-80894553D02*
G01*
X97453926Y-80897703D01*
X97474750Y-80902919D01*
X97494962Y-80910151D01*
X97514368Y-80919330D01*
X97532781Y-80930366D01*
X97550024Y-80943154D01*
X97565930Y-80957570D01*
X97580346Y-80973476D01*
X97593134Y-80990719D01*
X97604170Y-81009132D01*
X97613349Y-81028538D01*
X97620581Y-81048750D01*
X97625797Y-81069574D01*
X97628947Y-81090809D01*
X97630000Y-81112250D01*
X97630000Y-81549750D01*
X97628947Y-81571191D01*
X97625797Y-81592426D01*
X97620581Y-81613250D01*
X97613349Y-81633462D01*
X97604170Y-81652868D01*
X97593134Y-81671281D01*
X97580346Y-81688524D01*
X97565930Y-81704430D01*
X97550024Y-81718846D01*
X97532781Y-81731634D01*
X97514368Y-81742670D01*
X97494962Y-81751849D01*
X97474750Y-81759081D01*
X97453926Y-81764297D01*
X97432691Y-81767447D01*
X97411250Y-81768500D01*
X96898750Y-81768500D01*
X96877309Y-81767447D01*
X96856074Y-81764297D01*
X96835250Y-81759081D01*
X96815038Y-81751849D01*
X96795632Y-81742670D01*
X96777219Y-81731634D01*
X96759976Y-81718846D01*
X96744070Y-81704430D01*
X96729654Y-81688524D01*
X96716866Y-81671281D01*
X96705830Y-81652868D01*
X96696651Y-81633462D01*
X96689419Y-81613250D01*
X96684203Y-81592426D01*
X96681053Y-81571191D01*
X96680000Y-81549750D01*
X96680000Y-81112250D01*
X96681053Y-81090809D01*
X96684203Y-81069574D01*
X96689419Y-81048750D01*
X96696651Y-81028538D01*
X96705830Y-81009132D01*
X96716866Y-80990719D01*
X96729654Y-80973476D01*
X96744070Y-80957570D01*
X96759976Y-80943154D01*
X96777219Y-80930366D01*
X96795632Y-80919330D01*
X96815038Y-80910151D01*
X96835250Y-80902919D01*
X96856074Y-80897703D01*
X96877309Y-80894553D01*
X96898750Y-80893500D01*
X97411250Y-80893500D01*
X97432691Y-80894553D01*
G37*
G36*
X104036691Y-82342053D02*
G01*
X104057926Y-82345203D01*
X104078750Y-82350419D01*
X104098962Y-82357651D01*
X104118368Y-82366830D01*
X104136781Y-82377866D01*
X104154024Y-82390654D01*
X104169930Y-82405070D01*
X104184346Y-82420976D01*
X104197134Y-82438219D01*
X104208170Y-82456632D01*
X104217349Y-82476038D01*
X104224581Y-82496250D01*
X104229797Y-82517074D01*
X104232947Y-82538309D01*
X104234000Y-82559750D01*
X104234000Y-82997250D01*
X104232947Y-83018691D01*
X104229797Y-83039926D01*
X104224581Y-83060750D01*
X104217349Y-83080962D01*
X104208170Y-83100368D01*
X104197134Y-83118781D01*
X104184346Y-83136024D01*
X104169930Y-83151930D01*
X104154024Y-83166346D01*
X104136781Y-83179134D01*
X104118368Y-83190170D01*
X104098962Y-83199349D01*
X104078750Y-83206581D01*
X104057926Y-83211797D01*
X104036691Y-83214947D01*
X104015250Y-83216000D01*
X103502750Y-83216000D01*
X103481309Y-83214947D01*
X103460074Y-83211797D01*
X103439250Y-83206581D01*
X103419038Y-83199349D01*
X103399632Y-83190170D01*
X103381219Y-83179134D01*
X103363976Y-83166346D01*
X103348070Y-83151930D01*
X103333654Y-83136024D01*
X103320866Y-83118781D01*
X103309830Y-83100368D01*
X103300651Y-83080962D01*
X103293419Y-83060750D01*
X103288203Y-83039926D01*
X103285053Y-83018691D01*
X103284000Y-82997250D01*
X103284000Y-82559750D01*
X103285053Y-82538309D01*
X103288203Y-82517074D01*
X103293419Y-82496250D01*
X103300651Y-82476038D01*
X103309830Y-82456632D01*
X103320866Y-82438219D01*
X103333654Y-82420976D01*
X103348070Y-82405070D01*
X103363976Y-82390654D01*
X103381219Y-82377866D01*
X103399632Y-82366830D01*
X103419038Y-82357651D01*
X103439250Y-82350419D01*
X103460074Y-82345203D01*
X103481309Y-82342053D01*
X103502750Y-82341000D01*
X104015250Y-82341000D01*
X104036691Y-82342053D01*
G37*
G36*
X104036691Y-83917053D02*
G01*
X104057926Y-83920203D01*
X104078750Y-83925419D01*
X104098962Y-83932651D01*
X104118368Y-83941830D01*
X104136781Y-83952866D01*
X104154024Y-83965654D01*
X104169930Y-83980070D01*
X104184346Y-83995976D01*
X104197134Y-84013219D01*
X104208170Y-84031632D01*
X104217349Y-84051038D01*
X104224581Y-84071250D01*
X104229797Y-84092074D01*
X104232947Y-84113309D01*
X104234000Y-84134750D01*
X104234000Y-84572250D01*
X104232947Y-84593691D01*
X104229797Y-84614926D01*
X104224581Y-84635750D01*
X104217349Y-84655962D01*
X104208170Y-84675368D01*
X104197134Y-84693781D01*
X104184346Y-84711024D01*
X104169930Y-84726930D01*
X104154024Y-84741346D01*
X104136781Y-84754134D01*
X104118368Y-84765170D01*
X104098962Y-84774349D01*
X104078750Y-84781581D01*
X104057926Y-84786797D01*
X104036691Y-84789947D01*
X104015250Y-84791000D01*
X103502750Y-84791000D01*
X103481309Y-84789947D01*
X103460074Y-84786797D01*
X103439250Y-84781581D01*
X103419038Y-84774349D01*
X103399632Y-84765170D01*
X103381219Y-84754134D01*
X103363976Y-84741346D01*
X103348070Y-84726930D01*
X103333654Y-84711024D01*
X103320866Y-84693781D01*
X103309830Y-84675368D01*
X103300651Y-84655962D01*
X103293419Y-84635750D01*
X103288203Y-84614926D01*
X103285053Y-84593691D01*
X103284000Y-84572250D01*
X103284000Y-84134750D01*
X103285053Y-84113309D01*
X103288203Y-84092074D01*
X103293419Y-84071250D01*
X103300651Y-84051038D01*
X103309830Y-84031632D01*
X103320866Y-84013219D01*
X103333654Y-83995976D01*
X103348070Y-83980070D01*
X103363976Y-83965654D01*
X103381219Y-83952866D01*
X103399632Y-83941830D01*
X103419038Y-83932651D01*
X103439250Y-83925419D01*
X103460074Y-83920203D01*
X103481309Y-83917053D01*
X103502750Y-83916000D01*
X104015250Y-83916000D01*
X104036691Y-83917053D01*
G37*
D11*
X88678000Y-79502000D03*
X90678000Y-80452000D03*
X90678000Y-78552000D03*
D16*
X84836000Y-97139000D03*
X85786000Y-95139000D03*
X83886000Y-95139000D03*
X93345000Y-92329000D03*
X92395000Y-94329000D03*
X94295000Y-94329000D03*
X93157000Y-97885000D03*
X94107000Y-95885000D03*
X92207000Y-95885000D03*
X98171000Y-83582000D03*
X97221000Y-85582000D03*
X99121000Y-85582000D03*
D17*
X91059000Y-71882000D03*
X92964000Y-71882000D03*
X94869000Y-71882000D03*
D10*
G36*
X101784009Y-72281408D02*
G01*
X101832545Y-72288607D01*
X101880142Y-72300530D01*
X101926342Y-72317060D01*
X101970698Y-72338039D01*
X102012785Y-72363265D01*
X102052197Y-72392495D01*
X102088553Y-72425447D01*
X102121505Y-72461803D01*
X102150735Y-72501215D01*
X102175961Y-72543302D01*
X102196940Y-72587658D01*
X102213470Y-72633858D01*
X102225393Y-72681455D01*
X102232592Y-72729991D01*
X102235000Y-72779000D01*
X102235000Y-73779000D01*
X102232592Y-73828009D01*
X102225393Y-73876545D01*
X102213470Y-73924142D01*
X102196940Y-73970342D01*
X102175961Y-74014698D01*
X102150735Y-74056785D01*
X102121505Y-74096197D01*
X102088553Y-74132553D01*
X102052197Y-74165505D01*
X102012785Y-74194735D01*
X101970698Y-74219961D01*
X101926342Y-74240940D01*
X101880142Y-74257470D01*
X101832545Y-74269393D01*
X101784009Y-74276592D01*
X101735000Y-74279000D01*
X100195000Y-74279000D01*
X100145991Y-74276592D01*
X100097455Y-74269393D01*
X100049858Y-74257470D01*
X100003658Y-74240940D01*
X99959302Y-74219961D01*
X99917215Y-74194735D01*
X99877803Y-74165505D01*
X99841447Y-74132553D01*
X99808495Y-74096197D01*
X99779265Y-74056785D01*
X99754039Y-74014698D01*
X99733060Y-73970342D01*
X99716530Y-73924142D01*
X99704607Y-73876545D01*
X99697408Y-73828009D01*
X99695000Y-73779000D01*
X99695000Y-72779000D01*
X99697408Y-72729991D01*
X99704607Y-72681455D01*
X99716530Y-72633858D01*
X99733060Y-72587658D01*
X99754039Y-72543302D01*
X99779265Y-72501215D01*
X99808495Y-72461803D01*
X99841447Y-72425447D01*
X99877803Y-72392495D01*
X99917215Y-72363265D01*
X99959302Y-72338039D01*
X100003658Y-72317060D01*
X100049858Y-72300530D01*
X100097455Y-72288607D01*
X100145991Y-72281408D01*
X100195000Y-72279000D01*
X101735000Y-72279000D01*
X101784009Y-72281408D01*
G37*
G36*
X101784009Y-74821408D02*
G01*
X101832545Y-74828607D01*
X101880142Y-74840530D01*
X101926342Y-74857060D01*
X101970698Y-74878039D01*
X102012785Y-74903265D01*
X102052197Y-74932495D01*
X102088553Y-74965447D01*
X102121505Y-75001803D01*
X102150735Y-75041215D01*
X102175961Y-75083302D01*
X102196940Y-75127658D01*
X102213470Y-75173858D01*
X102225393Y-75221455D01*
X102232592Y-75269991D01*
X102235000Y-75319000D01*
X102235000Y-76319000D01*
X102232592Y-76368009D01*
X102225393Y-76416545D01*
X102213470Y-76464142D01*
X102196940Y-76510342D01*
X102175961Y-76554698D01*
X102150735Y-76596785D01*
X102121505Y-76636197D01*
X102088553Y-76672553D01*
X102052197Y-76705505D01*
X102012785Y-76734735D01*
X101970698Y-76759961D01*
X101926342Y-76780940D01*
X101880142Y-76797470D01*
X101832545Y-76809393D01*
X101784009Y-76816592D01*
X101735000Y-76819000D01*
X100195000Y-76819000D01*
X100145991Y-76816592D01*
X100097455Y-76809393D01*
X100049858Y-76797470D01*
X100003658Y-76780940D01*
X99959302Y-76759961D01*
X99917215Y-76734735D01*
X99877803Y-76705505D01*
X99841447Y-76672553D01*
X99808495Y-76636197D01*
X99779265Y-76596785D01*
X99754039Y-76554698D01*
X99733060Y-76510342D01*
X99716530Y-76464142D01*
X99704607Y-76416545D01*
X99697408Y-76368009D01*
X99695000Y-76319000D01*
X99695000Y-75319000D01*
X99697408Y-75269991D01*
X99704607Y-75221455D01*
X99716530Y-75173858D01*
X99733060Y-75127658D01*
X99754039Y-75083302D01*
X99779265Y-75041215D01*
X99808495Y-75001803D01*
X99841447Y-74965447D01*
X99877803Y-74932495D01*
X99917215Y-74903265D01*
X99959302Y-74878039D01*
X100003658Y-74857060D01*
X100049858Y-74840530D01*
X100097455Y-74828607D01*
X100145991Y-74821408D01*
X100195000Y-74819000D01*
X101735000Y-74819000D01*
X101784009Y-74821408D01*
G37*
G36*
X97517292Y-97529383D02*
G01*
X97525010Y-97530528D01*
X97532578Y-97532423D01*
X97539923Y-97535052D01*
X97546976Y-97538387D01*
X97553668Y-97542398D01*
X97559934Y-97547046D01*
X97565715Y-97552285D01*
X97570954Y-97558066D01*
X97575602Y-97564332D01*
X97579613Y-97571024D01*
X97582948Y-97578077D01*
X97585577Y-97585422D01*
X97587472Y-97592990D01*
X97588617Y-97600708D01*
X97589000Y-97608500D01*
X97589000Y-97767500D01*
X97588617Y-97775292D01*
X97587472Y-97783010D01*
X97585577Y-97790578D01*
X97582948Y-97797923D01*
X97579613Y-97804976D01*
X97575602Y-97811668D01*
X97570954Y-97817934D01*
X97565715Y-97823715D01*
X97559934Y-97828954D01*
X97553668Y-97833602D01*
X97546976Y-97837613D01*
X97539923Y-97840948D01*
X97532578Y-97843577D01*
X97525010Y-97845472D01*
X97517292Y-97846617D01*
X97509500Y-97847000D01*
X97308500Y-97847000D01*
X97300708Y-97846617D01*
X97292990Y-97845472D01*
X97285422Y-97843577D01*
X97278077Y-97840948D01*
X97271024Y-97837613D01*
X97264332Y-97833602D01*
X97258066Y-97828954D01*
X97252285Y-97823715D01*
X97247046Y-97817934D01*
X97242398Y-97811668D01*
X97238387Y-97804976D01*
X97235052Y-97797923D01*
X97232423Y-97790578D01*
X97230528Y-97783010D01*
X97229383Y-97775292D01*
X97229000Y-97767500D01*
X97229000Y-97608500D01*
X97229383Y-97600708D01*
X97230528Y-97592990D01*
X97232423Y-97585422D01*
X97235052Y-97578077D01*
X97238387Y-97571024D01*
X97242398Y-97564332D01*
X97247046Y-97558066D01*
X97252285Y-97552285D01*
X97258066Y-97547046D01*
X97264332Y-97542398D01*
X97271024Y-97538387D01*
X97278077Y-97535052D01*
X97285422Y-97532423D01*
X97292990Y-97530528D01*
X97300708Y-97529383D01*
X97308500Y-97529000D01*
X97509500Y-97529000D01*
X97517292Y-97529383D01*
G37*
G36*
X97517292Y-96839383D02*
G01*
X97525010Y-96840528D01*
X97532578Y-96842423D01*
X97539923Y-96845052D01*
X97546976Y-96848387D01*
X97553668Y-96852398D01*
X97559934Y-96857046D01*
X97565715Y-96862285D01*
X97570954Y-96868066D01*
X97575602Y-96874332D01*
X97579613Y-96881024D01*
X97582948Y-96888077D01*
X97585577Y-96895422D01*
X97587472Y-96902990D01*
X97588617Y-96910708D01*
X97589000Y-96918500D01*
X97589000Y-97077500D01*
X97588617Y-97085292D01*
X97587472Y-97093010D01*
X97585577Y-97100578D01*
X97582948Y-97107923D01*
X97579613Y-97114976D01*
X97575602Y-97121668D01*
X97570954Y-97127934D01*
X97565715Y-97133715D01*
X97559934Y-97138954D01*
X97553668Y-97143602D01*
X97546976Y-97147613D01*
X97539923Y-97150948D01*
X97532578Y-97153577D01*
X97525010Y-97155472D01*
X97517292Y-97156617D01*
X97509500Y-97157000D01*
X97308500Y-97157000D01*
X97300708Y-97156617D01*
X97292990Y-97155472D01*
X97285422Y-97153577D01*
X97278077Y-97150948D01*
X97271024Y-97147613D01*
X97264332Y-97143602D01*
X97258066Y-97138954D01*
X97252285Y-97133715D01*
X97247046Y-97127934D01*
X97242398Y-97121668D01*
X97238387Y-97114976D01*
X97235052Y-97107923D01*
X97232423Y-97100578D01*
X97230528Y-97093010D01*
X97229383Y-97085292D01*
X97229000Y-97077500D01*
X97229000Y-96918500D01*
X97229383Y-96910708D01*
X97230528Y-96902990D01*
X97232423Y-96895422D01*
X97235052Y-96888077D01*
X97238387Y-96881024D01*
X97242398Y-96874332D01*
X97247046Y-96868066D01*
X97252285Y-96862285D01*
X97258066Y-96857046D01*
X97264332Y-96852398D01*
X97271024Y-96848387D01*
X97278077Y-96845052D01*
X97285422Y-96842423D01*
X97292990Y-96840528D01*
X97300708Y-96839383D01*
X97308500Y-96839000D01*
X97509500Y-96839000D01*
X97517292Y-96839383D01*
G37*
D18*
X100646500Y-87503000D03*
X97346500Y-87503000D03*
D10*
G36*
X89584691Y-82838053D02*
G01*
X89605926Y-82841203D01*
X89626750Y-82846419D01*
X89646962Y-82853651D01*
X89666368Y-82862830D01*
X89684781Y-82873866D01*
X89702024Y-82886654D01*
X89717930Y-82901070D01*
X89732346Y-82916976D01*
X89745134Y-82934219D01*
X89756170Y-82952632D01*
X89765349Y-82972038D01*
X89772581Y-82992250D01*
X89777797Y-83013074D01*
X89780947Y-83034309D01*
X89782000Y-83055750D01*
X89782000Y-83568250D01*
X89780947Y-83589691D01*
X89777797Y-83610926D01*
X89772581Y-83631750D01*
X89765349Y-83651962D01*
X89756170Y-83671368D01*
X89745134Y-83689781D01*
X89732346Y-83707024D01*
X89717930Y-83722930D01*
X89702024Y-83737346D01*
X89684781Y-83750134D01*
X89666368Y-83761170D01*
X89646962Y-83770349D01*
X89626750Y-83777581D01*
X89605926Y-83782797D01*
X89584691Y-83785947D01*
X89563250Y-83787000D01*
X89125750Y-83787000D01*
X89104309Y-83785947D01*
X89083074Y-83782797D01*
X89062250Y-83777581D01*
X89042038Y-83770349D01*
X89022632Y-83761170D01*
X89004219Y-83750134D01*
X88986976Y-83737346D01*
X88971070Y-83722930D01*
X88956654Y-83707024D01*
X88943866Y-83689781D01*
X88932830Y-83671368D01*
X88923651Y-83651962D01*
X88916419Y-83631750D01*
X88911203Y-83610926D01*
X88908053Y-83589691D01*
X88907000Y-83568250D01*
X88907000Y-83055750D01*
X88908053Y-83034309D01*
X88911203Y-83013074D01*
X88916419Y-82992250D01*
X88923651Y-82972038D01*
X88932830Y-82952632D01*
X88943866Y-82934219D01*
X88956654Y-82916976D01*
X88971070Y-82901070D01*
X88986976Y-82886654D01*
X89004219Y-82873866D01*
X89022632Y-82862830D01*
X89042038Y-82853651D01*
X89062250Y-82846419D01*
X89083074Y-82841203D01*
X89104309Y-82838053D01*
X89125750Y-82837000D01*
X89563250Y-82837000D01*
X89584691Y-82838053D01*
G37*
G36*
X88009691Y-82838053D02*
G01*
X88030926Y-82841203D01*
X88051750Y-82846419D01*
X88071962Y-82853651D01*
X88091368Y-82862830D01*
X88109781Y-82873866D01*
X88127024Y-82886654D01*
X88142930Y-82901070D01*
X88157346Y-82916976D01*
X88170134Y-82934219D01*
X88181170Y-82952632D01*
X88190349Y-82972038D01*
X88197581Y-82992250D01*
X88202797Y-83013074D01*
X88205947Y-83034309D01*
X88207000Y-83055750D01*
X88207000Y-83568250D01*
X88205947Y-83589691D01*
X88202797Y-83610926D01*
X88197581Y-83631750D01*
X88190349Y-83651962D01*
X88181170Y-83671368D01*
X88170134Y-83689781D01*
X88157346Y-83707024D01*
X88142930Y-83722930D01*
X88127024Y-83737346D01*
X88109781Y-83750134D01*
X88091368Y-83761170D01*
X88071962Y-83770349D01*
X88051750Y-83777581D01*
X88030926Y-83782797D01*
X88009691Y-83785947D01*
X87988250Y-83787000D01*
X87550750Y-83787000D01*
X87529309Y-83785947D01*
X87508074Y-83782797D01*
X87487250Y-83777581D01*
X87467038Y-83770349D01*
X87447632Y-83761170D01*
X87429219Y-83750134D01*
X87411976Y-83737346D01*
X87396070Y-83722930D01*
X87381654Y-83707024D01*
X87368866Y-83689781D01*
X87357830Y-83671368D01*
X87348651Y-83651962D01*
X87341419Y-83631750D01*
X87336203Y-83610926D01*
X87333053Y-83589691D01*
X87332000Y-83568250D01*
X87332000Y-83055750D01*
X87333053Y-83034309D01*
X87336203Y-83013074D01*
X87341419Y-82992250D01*
X87348651Y-82972038D01*
X87357830Y-82952632D01*
X87368866Y-82934219D01*
X87381654Y-82916976D01*
X87396070Y-82901070D01*
X87411976Y-82886654D01*
X87429219Y-82873866D01*
X87447632Y-82862830D01*
X87467038Y-82853651D01*
X87487250Y-82846419D01*
X87508074Y-82841203D01*
X87529309Y-82838053D01*
X87550750Y-82837000D01*
X87988250Y-82837000D01*
X88009691Y-82838053D01*
G37*
G36*
X96099191Y-76220553D02*
G01*
X96120426Y-76223703D01*
X96141250Y-76228919D01*
X96161462Y-76236151D01*
X96180868Y-76245330D01*
X96199281Y-76256366D01*
X96216524Y-76269154D01*
X96232430Y-76283570D01*
X96246846Y-76299476D01*
X96259634Y-76316719D01*
X96270670Y-76335132D01*
X96279849Y-76354538D01*
X96287081Y-76374750D01*
X96292297Y-76395574D01*
X96295447Y-76416809D01*
X96296500Y-76438250D01*
X96296500Y-76875750D01*
X96295447Y-76897191D01*
X96292297Y-76918426D01*
X96287081Y-76939250D01*
X96279849Y-76959462D01*
X96270670Y-76978868D01*
X96259634Y-76997281D01*
X96246846Y-77014524D01*
X96232430Y-77030430D01*
X96216524Y-77044846D01*
X96199281Y-77057634D01*
X96180868Y-77068670D01*
X96161462Y-77077849D01*
X96141250Y-77085081D01*
X96120426Y-77090297D01*
X96099191Y-77093447D01*
X96077750Y-77094500D01*
X95565250Y-77094500D01*
X95543809Y-77093447D01*
X95522574Y-77090297D01*
X95501750Y-77085081D01*
X95481538Y-77077849D01*
X95462132Y-77068670D01*
X95443719Y-77057634D01*
X95426476Y-77044846D01*
X95410570Y-77030430D01*
X95396154Y-77014524D01*
X95383366Y-76997281D01*
X95372330Y-76978868D01*
X95363151Y-76959462D01*
X95355919Y-76939250D01*
X95350703Y-76918426D01*
X95347553Y-76897191D01*
X95346500Y-76875750D01*
X95346500Y-76438250D01*
X95347553Y-76416809D01*
X95350703Y-76395574D01*
X95355919Y-76374750D01*
X95363151Y-76354538D01*
X95372330Y-76335132D01*
X95383366Y-76316719D01*
X95396154Y-76299476D01*
X95410570Y-76283570D01*
X95426476Y-76269154D01*
X95443719Y-76256366D01*
X95462132Y-76245330D01*
X95481538Y-76236151D01*
X95501750Y-76228919D01*
X95522574Y-76223703D01*
X95543809Y-76220553D01*
X95565250Y-76219500D01*
X96077750Y-76219500D01*
X96099191Y-76220553D01*
G37*
G36*
X96099191Y-77795553D02*
G01*
X96120426Y-77798703D01*
X96141250Y-77803919D01*
X96161462Y-77811151D01*
X96180868Y-77820330D01*
X96199281Y-77831366D01*
X96216524Y-77844154D01*
X96232430Y-77858570D01*
X96246846Y-77874476D01*
X96259634Y-77891719D01*
X96270670Y-77910132D01*
X96279849Y-77929538D01*
X96287081Y-77949750D01*
X96292297Y-77970574D01*
X96295447Y-77991809D01*
X96296500Y-78013250D01*
X96296500Y-78450750D01*
X96295447Y-78472191D01*
X96292297Y-78493426D01*
X96287081Y-78514250D01*
X96279849Y-78534462D01*
X96270670Y-78553868D01*
X96259634Y-78572281D01*
X96246846Y-78589524D01*
X96232430Y-78605430D01*
X96216524Y-78619846D01*
X96199281Y-78632634D01*
X96180868Y-78643670D01*
X96161462Y-78652849D01*
X96141250Y-78660081D01*
X96120426Y-78665297D01*
X96099191Y-78668447D01*
X96077750Y-78669500D01*
X95565250Y-78669500D01*
X95543809Y-78668447D01*
X95522574Y-78665297D01*
X95501750Y-78660081D01*
X95481538Y-78652849D01*
X95462132Y-78643670D01*
X95443719Y-78632634D01*
X95426476Y-78619846D01*
X95410570Y-78605430D01*
X95396154Y-78589524D01*
X95383366Y-78572281D01*
X95372330Y-78553868D01*
X95363151Y-78534462D01*
X95355919Y-78514250D01*
X95350703Y-78493426D01*
X95347553Y-78472191D01*
X95346500Y-78450750D01*
X95346500Y-78013250D01*
X95347553Y-77991809D01*
X95350703Y-77970574D01*
X95355919Y-77949750D01*
X95363151Y-77929538D01*
X95372330Y-77910132D01*
X95383366Y-77891719D01*
X95396154Y-77874476D01*
X95410570Y-77858570D01*
X95426476Y-77844154D01*
X95443719Y-77831366D01*
X95462132Y-77820330D01*
X95481538Y-77811151D01*
X95501750Y-77803919D01*
X95522574Y-77798703D01*
X95543809Y-77795553D01*
X95565250Y-77794500D01*
X96077750Y-77794500D01*
X96099191Y-77795553D01*
G37*
G36*
X102512691Y-84272553D02*
G01*
X102533926Y-84275703D01*
X102554750Y-84280919D01*
X102574962Y-84288151D01*
X102594368Y-84297330D01*
X102612781Y-84308366D01*
X102630024Y-84321154D01*
X102645930Y-84335570D01*
X102660346Y-84351476D01*
X102673134Y-84368719D01*
X102684170Y-84387132D01*
X102693349Y-84406538D01*
X102700581Y-84426750D01*
X102705797Y-84447574D01*
X102708947Y-84468809D01*
X102710000Y-84490250D01*
X102710000Y-84927750D01*
X102708947Y-84949191D01*
X102705797Y-84970426D01*
X102700581Y-84991250D01*
X102693349Y-85011462D01*
X102684170Y-85030868D01*
X102673134Y-85049281D01*
X102660346Y-85066524D01*
X102645930Y-85082430D01*
X102630024Y-85096846D01*
X102612781Y-85109634D01*
X102594368Y-85120670D01*
X102574962Y-85129849D01*
X102554750Y-85137081D01*
X102533926Y-85142297D01*
X102512691Y-85145447D01*
X102491250Y-85146500D01*
X101978750Y-85146500D01*
X101957309Y-85145447D01*
X101936074Y-85142297D01*
X101915250Y-85137081D01*
X101895038Y-85129849D01*
X101875632Y-85120670D01*
X101857219Y-85109634D01*
X101839976Y-85096846D01*
X101824070Y-85082430D01*
X101809654Y-85066524D01*
X101796866Y-85049281D01*
X101785830Y-85030868D01*
X101776651Y-85011462D01*
X101769419Y-84991250D01*
X101764203Y-84970426D01*
X101761053Y-84949191D01*
X101760000Y-84927750D01*
X101760000Y-84490250D01*
X101761053Y-84468809D01*
X101764203Y-84447574D01*
X101769419Y-84426750D01*
X101776651Y-84406538D01*
X101785830Y-84387132D01*
X101796866Y-84368719D01*
X101809654Y-84351476D01*
X101824070Y-84335570D01*
X101839976Y-84321154D01*
X101857219Y-84308366D01*
X101875632Y-84297330D01*
X101895038Y-84288151D01*
X101915250Y-84280919D01*
X101936074Y-84275703D01*
X101957309Y-84272553D01*
X101978750Y-84271500D01*
X102491250Y-84271500D01*
X102512691Y-84272553D01*
G37*
G36*
X102512691Y-82697553D02*
G01*
X102533926Y-82700703D01*
X102554750Y-82705919D01*
X102574962Y-82713151D01*
X102594368Y-82722330D01*
X102612781Y-82733366D01*
X102630024Y-82746154D01*
X102645930Y-82760570D01*
X102660346Y-82776476D01*
X102673134Y-82793719D01*
X102684170Y-82812132D01*
X102693349Y-82831538D01*
X102700581Y-82851750D01*
X102705797Y-82872574D01*
X102708947Y-82893809D01*
X102710000Y-82915250D01*
X102710000Y-83352750D01*
X102708947Y-83374191D01*
X102705797Y-83395426D01*
X102700581Y-83416250D01*
X102693349Y-83436462D01*
X102684170Y-83455868D01*
X102673134Y-83474281D01*
X102660346Y-83491524D01*
X102645930Y-83507430D01*
X102630024Y-83521846D01*
X102612781Y-83534634D01*
X102594368Y-83545670D01*
X102574962Y-83554849D01*
X102554750Y-83562081D01*
X102533926Y-83567297D01*
X102512691Y-83570447D01*
X102491250Y-83571500D01*
X101978750Y-83571500D01*
X101957309Y-83570447D01*
X101936074Y-83567297D01*
X101915250Y-83562081D01*
X101895038Y-83554849D01*
X101875632Y-83545670D01*
X101857219Y-83534634D01*
X101839976Y-83521846D01*
X101824070Y-83507430D01*
X101809654Y-83491524D01*
X101796866Y-83474281D01*
X101785830Y-83455868D01*
X101776651Y-83436462D01*
X101769419Y-83416250D01*
X101764203Y-83395426D01*
X101761053Y-83374191D01*
X101760000Y-83352750D01*
X101760000Y-82915250D01*
X101761053Y-82893809D01*
X101764203Y-82872574D01*
X101769419Y-82851750D01*
X101776651Y-82831538D01*
X101785830Y-82812132D01*
X101796866Y-82793719D01*
X101809654Y-82776476D01*
X101824070Y-82760570D01*
X101839976Y-82746154D01*
X101857219Y-82733366D01*
X101875632Y-82722330D01*
X101895038Y-82713151D01*
X101915250Y-82705919D01*
X101936074Y-82700703D01*
X101957309Y-82697553D01*
X101978750Y-82696500D01*
X102491250Y-82696500D01*
X102512691Y-82697553D01*
G37*
G36*
X94511691Y-76220553D02*
G01*
X94532926Y-76223703D01*
X94553750Y-76228919D01*
X94573962Y-76236151D01*
X94593368Y-76245330D01*
X94611781Y-76256366D01*
X94629024Y-76269154D01*
X94644930Y-76283570D01*
X94659346Y-76299476D01*
X94672134Y-76316719D01*
X94683170Y-76335132D01*
X94692349Y-76354538D01*
X94699581Y-76374750D01*
X94704797Y-76395574D01*
X94707947Y-76416809D01*
X94709000Y-76438250D01*
X94709000Y-76875750D01*
X94707947Y-76897191D01*
X94704797Y-76918426D01*
X94699581Y-76939250D01*
X94692349Y-76959462D01*
X94683170Y-76978868D01*
X94672134Y-76997281D01*
X94659346Y-77014524D01*
X94644930Y-77030430D01*
X94629024Y-77044846D01*
X94611781Y-77057634D01*
X94593368Y-77068670D01*
X94573962Y-77077849D01*
X94553750Y-77085081D01*
X94532926Y-77090297D01*
X94511691Y-77093447D01*
X94490250Y-77094500D01*
X93977750Y-77094500D01*
X93956309Y-77093447D01*
X93935074Y-77090297D01*
X93914250Y-77085081D01*
X93894038Y-77077849D01*
X93874632Y-77068670D01*
X93856219Y-77057634D01*
X93838976Y-77044846D01*
X93823070Y-77030430D01*
X93808654Y-77014524D01*
X93795866Y-76997281D01*
X93784830Y-76978868D01*
X93775651Y-76959462D01*
X93768419Y-76939250D01*
X93763203Y-76918426D01*
X93760053Y-76897191D01*
X93759000Y-76875750D01*
X93759000Y-76438250D01*
X93760053Y-76416809D01*
X93763203Y-76395574D01*
X93768419Y-76374750D01*
X93775651Y-76354538D01*
X93784830Y-76335132D01*
X93795866Y-76316719D01*
X93808654Y-76299476D01*
X93823070Y-76283570D01*
X93838976Y-76269154D01*
X93856219Y-76256366D01*
X93874632Y-76245330D01*
X93894038Y-76236151D01*
X93914250Y-76228919D01*
X93935074Y-76223703D01*
X93956309Y-76220553D01*
X93977750Y-76219500D01*
X94490250Y-76219500D01*
X94511691Y-76220553D01*
G37*
G36*
X94511691Y-77795553D02*
G01*
X94532926Y-77798703D01*
X94553750Y-77803919D01*
X94573962Y-77811151D01*
X94593368Y-77820330D01*
X94611781Y-77831366D01*
X94629024Y-77844154D01*
X94644930Y-77858570D01*
X94659346Y-77874476D01*
X94672134Y-77891719D01*
X94683170Y-77910132D01*
X94692349Y-77929538D01*
X94699581Y-77949750D01*
X94704797Y-77970574D01*
X94707947Y-77991809D01*
X94709000Y-78013250D01*
X94709000Y-78450750D01*
X94707947Y-78472191D01*
X94704797Y-78493426D01*
X94699581Y-78514250D01*
X94692349Y-78534462D01*
X94683170Y-78553868D01*
X94672134Y-78572281D01*
X94659346Y-78589524D01*
X94644930Y-78605430D01*
X94629024Y-78619846D01*
X94611781Y-78632634D01*
X94593368Y-78643670D01*
X94573962Y-78652849D01*
X94553750Y-78660081D01*
X94532926Y-78665297D01*
X94511691Y-78668447D01*
X94490250Y-78669500D01*
X93977750Y-78669500D01*
X93956309Y-78668447D01*
X93935074Y-78665297D01*
X93914250Y-78660081D01*
X93894038Y-78652849D01*
X93874632Y-78643670D01*
X93856219Y-78632634D01*
X93838976Y-78619846D01*
X93823070Y-78605430D01*
X93808654Y-78589524D01*
X93795866Y-78572281D01*
X93784830Y-78553868D01*
X93775651Y-78534462D01*
X93768419Y-78514250D01*
X93763203Y-78493426D01*
X93760053Y-78472191D01*
X93759000Y-78450750D01*
X93759000Y-78013250D01*
X93760053Y-77991809D01*
X93763203Y-77970574D01*
X93768419Y-77949750D01*
X93775651Y-77929538D01*
X93784830Y-77910132D01*
X93795866Y-77891719D01*
X93808654Y-77874476D01*
X93823070Y-77858570D01*
X93838976Y-77844154D01*
X93856219Y-77831366D01*
X93874632Y-77820330D01*
X93894038Y-77811151D01*
X93914250Y-77803919D01*
X93935074Y-77798703D01*
X93956309Y-77795553D01*
X93977750Y-77794500D01*
X94490250Y-77794500D01*
X94511691Y-77795553D01*
G37*
G36*
X94220191Y-82711053D02*
G01*
X94241426Y-82714203D01*
X94262250Y-82719419D01*
X94282462Y-82726651D01*
X94301868Y-82735830D01*
X94320281Y-82746866D01*
X94337524Y-82759654D01*
X94353430Y-82774070D01*
X94367846Y-82789976D01*
X94380634Y-82807219D01*
X94391670Y-82825632D01*
X94400849Y-82845038D01*
X94408081Y-82865250D01*
X94413297Y-82886074D01*
X94416447Y-82907309D01*
X94417500Y-82928750D01*
X94417500Y-83441250D01*
X94416447Y-83462691D01*
X94413297Y-83483926D01*
X94408081Y-83504750D01*
X94400849Y-83524962D01*
X94391670Y-83544368D01*
X94380634Y-83562781D01*
X94367846Y-83580024D01*
X94353430Y-83595930D01*
X94337524Y-83610346D01*
X94320281Y-83623134D01*
X94301868Y-83634170D01*
X94282462Y-83643349D01*
X94262250Y-83650581D01*
X94241426Y-83655797D01*
X94220191Y-83658947D01*
X94198750Y-83660000D01*
X93761250Y-83660000D01*
X93739809Y-83658947D01*
X93718574Y-83655797D01*
X93697750Y-83650581D01*
X93677538Y-83643349D01*
X93658132Y-83634170D01*
X93639719Y-83623134D01*
X93622476Y-83610346D01*
X93606570Y-83595930D01*
X93592154Y-83580024D01*
X93579366Y-83562781D01*
X93568330Y-83544368D01*
X93559151Y-83524962D01*
X93551919Y-83504750D01*
X93546703Y-83483926D01*
X93543553Y-83462691D01*
X93542500Y-83441250D01*
X93542500Y-82928750D01*
X93543553Y-82907309D01*
X93546703Y-82886074D01*
X93551919Y-82865250D01*
X93559151Y-82845038D01*
X93568330Y-82825632D01*
X93579366Y-82807219D01*
X93592154Y-82789976D01*
X93606570Y-82774070D01*
X93622476Y-82759654D01*
X93639719Y-82746866D01*
X93658132Y-82735830D01*
X93677538Y-82726651D01*
X93697750Y-82719419D01*
X93718574Y-82714203D01*
X93739809Y-82711053D01*
X93761250Y-82710000D01*
X94198750Y-82710000D01*
X94220191Y-82711053D01*
G37*
G36*
X95795191Y-82711053D02*
G01*
X95816426Y-82714203D01*
X95837250Y-82719419D01*
X95857462Y-82726651D01*
X95876868Y-82735830D01*
X95895281Y-82746866D01*
X95912524Y-82759654D01*
X95928430Y-82774070D01*
X95942846Y-82789976D01*
X95955634Y-82807219D01*
X95966670Y-82825632D01*
X95975849Y-82845038D01*
X95983081Y-82865250D01*
X95988297Y-82886074D01*
X95991447Y-82907309D01*
X95992500Y-82928750D01*
X95992500Y-83441250D01*
X95991447Y-83462691D01*
X95988297Y-83483926D01*
X95983081Y-83504750D01*
X95975849Y-83524962D01*
X95966670Y-83544368D01*
X95955634Y-83562781D01*
X95942846Y-83580024D01*
X95928430Y-83595930D01*
X95912524Y-83610346D01*
X95895281Y-83623134D01*
X95876868Y-83634170D01*
X95857462Y-83643349D01*
X95837250Y-83650581D01*
X95816426Y-83655797D01*
X95795191Y-83658947D01*
X95773750Y-83660000D01*
X95336250Y-83660000D01*
X95314809Y-83658947D01*
X95293574Y-83655797D01*
X95272750Y-83650581D01*
X95252538Y-83643349D01*
X95233132Y-83634170D01*
X95214719Y-83623134D01*
X95197476Y-83610346D01*
X95181570Y-83595930D01*
X95167154Y-83580024D01*
X95154366Y-83562781D01*
X95143330Y-83544368D01*
X95134151Y-83524962D01*
X95126919Y-83504750D01*
X95121703Y-83483926D01*
X95118553Y-83462691D01*
X95117500Y-83441250D01*
X95117500Y-82928750D01*
X95118553Y-82907309D01*
X95121703Y-82886074D01*
X95126919Y-82865250D01*
X95134151Y-82845038D01*
X95143330Y-82825632D01*
X95154366Y-82807219D01*
X95167154Y-82789976D01*
X95181570Y-82774070D01*
X95197476Y-82759654D01*
X95214719Y-82746866D01*
X95233132Y-82735830D01*
X95252538Y-82726651D01*
X95272750Y-82719419D01*
X95293574Y-82714203D01*
X95314809Y-82711053D01*
X95336250Y-82710000D01*
X95773750Y-82710000D01*
X95795191Y-82711053D01*
G37*
G36*
X99757191Y-96935053D02*
G01*
X99778426Y-96938203D01*
X99799250Y-96943419D01*
X99819462Y-96950651D01*
X99838868Y-96959830D01*
X99857281Y-96970866D01*
X99874524Y-96983654D01*
X99890430Y-96998070D01*
X99904846Y-97013976D01*
X99917634Y-97031219D01*
X99928670Y-97049632D01*
X99937849Y-97069038D01*
X99945081Y-97089250D01*
X99950297Y-97110074D01*
X99953447Y-97131309D01*
X99954500Y-97152750D01*
X99954500Y-97665250D01*
X99953447Y-97686691D01*
X99950297Y-97707926D01*
X99945081Y-97728750D01*
X99937849Y-97748962D01*
X99928670Y-97768368D01*
X99917634Y-97786781D01*
X99904846Y-97804024D01*
X99890430Y-97819930D01*
X99874524Y-97834346D01*
X99857281Y-97847134D01*
X99838868Y-97858170D01*
X99819462Y-97867349D01*
X99799250Y-97874581D01*
X99778426Y-97879797D01*
X99757191Y-97882947D01*
X99735750Y-97884000D01*
X99298250Y-97884000D01*
X99276809Y-97882947D01*
X99255574Y-97879797D01*
X99234750Y-97874581D01*
X99214538Y-97867349D01*
X99195132Y-97858170D01*
X99176719Y-97847134D01*
X99159476Y-97834346D01*
X99143570Y-97819930D01*
X99129154Y-97804024D01*
X99116366Y-97786781D01*
X99105330Y-97768368D01*
X99096151Y-97748962D01*
X99088919Y-97728750D01*
X99083703Y-97707926D01*
X99080553Y-97686691D01*
X99079500Y-97665250D01*
X99079500Y-97152750D01*
X99080553Y-97131309D01*
X99083703Y-97110074D01*
X99088919Y-97089250D01*
X99096151Y-97069038D01*
X99105330Y-97049632D01*
X99116366Y-97031219D01*
X99129154Y-97013976D01*
X99143570Y-96998070D01*
X99159476Y-96983654D01*
X99176719Y-96970866D01*
X99195132Y-96959830D01*
X99214538Y-96950651D01*
X99234750Y-96943419D01*
X99255574Y-96938203D01*
X99276809Y-96935053D01*
X99298250Y-96934000D01*
X99735750Y-96934000D01*
X99757191Y-96935053D01*
G37*
G36*
X101332191Y-96935053D02*
G01*
X101353426Y-96938203D01*
X101374250Y-96943419D01*
X101394462Y-96950651D01*
X101413868Y-96959830D01*
X101432281Y-96970866D01*
X101449524Y-96983654D01*
X101465430Y-96998070D01*
X101479846Y-97013976D01*
X101492634Y-97031219D01*
X101503670Y-97049632D01*
X101512849Y-97069038D01*
X101520081Y-97089250D01*
X101525297Y-97110074D01*
X101528447Y-97131309D01*
X101529500Y-97152750D01*
X101529500Y-97665250D01*
X101528447Y-97686691D01*
X101525297Y-97707926D01*
X101520081Y-97728750D01*
X101512849Y-97748962D01*
X101503670Y-97768368D01*
X101492634Y-97786781D01*
X101479846Y-97804024D01*
X101465430Y-97819930D01*
X101449524Y-97834346D01*
X101432281Y-97847134D01*
X101413868Y-97858170D01*
X101394462Y-97867349D01*
X101374250Y-97874581D01*
X101353426Y-97879797D01*
X101332191Y-97882947D01*
X101310750Y-97884000D01*
X100873250Y-97884000D01*
X100851809Y-97882947D01*
X100830574Y-97879797D01*
X100809750Y-97874581D01*
X100789538Y-97867349D01*
X100770132Y-97858170D01*
X100751719Y-97847134D01*
X100734476Y-97834346D01*
X100718570Y-97819930D01*
X100704154Y-97804024D01*
X100691366Y-97786781D01*
X100680330Y-97768368D01*
X100671151Y-97748962D01*
X100663919Y-97728750D01*
X100658703Y-97707926D01*
X100655553Y-97686691D01*
X100654500Y-97665250D01*
X100654500Y-97152750D01*
X100655553Y-97131309D01*
X100658703Y-97110074D01*
X100663919Y-97089250D01*
X100671151Y-97069038D01*
X100680330Y-97049632D01*
X100691366Y-97031219D01*
X100704154Y-97013976D01*
X100718570Y-96998070D01*
X100734476Y-96983654D01*
X100751719Y-96970866D01*
X100770132Y-96959830D01*
X100789538Y-96950651D01*
X100809750Y-96943419D01*
X100830574Y-96938203D01*
X100851809Y-96935053D01*
X100873250Y-96934000D01*
X101310750Y-96934000D01*
X101332191Y-96935053D01*
G37*
G36*
X94220191Y-84235053D02*
G01*
X94241426Y-84238203D01*
X94262250Y-84243419D01*
X94282462Y-84250651D01*
X94301868Y-84259830D01*
X94320281Y-84270866D01*
X94337524Y-84283654D01*
X94353430Y-84298070D01*
X94367846Y-84313976D01*
X94380634Y-84331219D01*
X94391670Y-84349632D01*
X94400849Y-84369038D01*
X94408081Y-84389250D01*
X94413297Y-84410074D01*
X94416447Y-84431309D01*
X94417500Y-84452750D01*
X94417500Y-84965250D01*
X94416447Y-84986691D01*
X94413297Y-85007926D01*
X94408081Y-85028750D01*
X94400849Y-85048962D01*
X94391670Y-85068368D01*
X94380634Y-85086781D01*
X94367846Y-85104024D01*
X94353430Y-85119930D01*
X94337524Y-85134346D01*
X94320281Y-85147134D01*
X94301868Y-85158170D01*
X94282462Y-85167349D01*
X94262250Y-85174581D01*
X94241426Y-85179797D01*
X94220191Y-85182947D01*
X94198750Y-85184000D01*
X93761250Y-85184000D01*
X93739809Y-85182947D01*
X93718574Y-85179797D01*
X93697750Y-85174581D01*
X93677538Y-85167349D01*
X93658132Y-85158170D01*
X93639719Y-85147134D01*
X93622476Y-85134346D01*
X93606570Y-85119930D01*
X93592154Y-85104024D01*
X93579366Y-85086781D01*
X93568330Y-85068368D01*
X93559151Y-85048962D01*
X93551919Y-85028750D01*
X93546703Y-85007926D01*
X93543553Y-84986691D01*
X93542500Y-84965250D01*
X93542500Y-84452750D01*
X93543553Y-84431309D01*
X93546703Y-84410074D01*
X93551919Y-84389250D01*
X93559151Y-84369038D01*
X93568330Y-84349632D01*
X93579366Y-84331219D01*
X93592154Y-84313976D01*
X93606570Y-84298070D01*
X93622476Y-84283654D01*
X93639719Y-84270866D01*
X93658132Y-84259830D01*
X93677538Y-84250651D01*
X93697750Y-84243419D01*
X93718574Y-84238203D01*
X93739809Y-84235053D01*
X93761250Y-84234000D01*
X94198750Y-84234000D01*
X94220191Y-84235053D01*
G37*
G36*
X95795191Y-84235053D02*
G01*
X95816426Y-84238203D01*
X95837250Y-84243419D01*
X95857462Y-84250651D01*
X95876868Y-84259830D01*
X95895281Y-84270866D01*
X95912524Y-84283654D01*
X95928430Y-84298070D01*
X95942846Y-84313976D01*
X95955634Y-84331219D01*
X95966670Y-84349632D01*
X95975849Y-84369038D01*
X95983081Y-84389250D01*
X95988297Y-84410074D01*
X95991447Y-84431309D01*
X95992500Y-84452750D01*
X95992500Y-84965250D01*
X95991447Y-84986691D01*
X95988297Y-85007926D01*
X95983081Y-85028750D01*
X95975849Y-85048962D01*
X95966670Y-85068368D01*
X95955634Y-85086781D01*
X95942846Y-85104024D01*
X95928430Y-85119930D01*
X95912524Y-85134346D01*
X95895281Y-85147134D01*
X95876868Y-85158170D01*
X95857462Y-85167349D01*
X95837250Y-85174581D01*
X95816426Y-85179797D01*
X95795191Y-85182947D01*
X95773750Y-85184000D01*
X95336250Y-85184000D01*
X95314809Y-85182947D01*
X95293574Y-85179797D01*
X95272750Y-85174581D01*
X95252538Y-85167349D01*
X95233132Y-85158170D01*
X95214719Y-85147134D01*
X95197476Y-85134346D01*
X95181570Y-85119930D01*
X95167154Y-85104024D01*
X95154366Y-85086781D01*
X95143330Y-85068368D01*
X95134151Y-85048962D01*
X95126919Y-85028750D01*
X95121703Y-85007926D01*
X95118553Y-84986691D01*
X95117500Y-84965250D01*
X95117500Y-84452750D01*
X95118553Y-84431309D01*
X95121703Y-84410074D01*
X95126919Y-84389250D01*
X95134151Y-84369038D01*
X95143330Y-84349632D01*
X95154366Y-84331219D01*
X95167154Y-84313976D01*
X95181570Y-84298070D01*
X95197476Y-84283654D01*
X95214719Y-84270866D01*
X95233132Y-84259830D01*
X95252538Y-84250651D01*
X95272750Y-84243419D01*
X95293574Y-84238203D01*
X95314809Y-84235053D01*
X95336250Y-84234000D01*
X95773750Y-84234000D01*
X95795191Y-84235053D01*
G37*
G36*
X98448691Y-72118553D02*
G01*
X98469926Y-72121703D01*
X98490750Y-72126919D01*
X98510962Y-72134151D01*
X98530368Y-72143330D01*
X98548781Y-72154366D01*
X98566024Y-72167154D01*
X98581930Y-72181570D01*
X98596346Y-72197476D01*
X98609134Y-72214719D01*
X98620170Y-72233132D01*
X98629349Y-72252538D01*
X98636581Y-72272750D01*
X98641797Y-72293574D01*
X98644947Y-72314809D01*
X98646000Y-72336250D01*
X98646000Y-72773750D01*
X98644947Y-72795191D01*
X98641797Y-72816426D01*
X98636581Y-72837250D01*
X98629349Y-72857462D01*
X98620170Y-72876868D01*
X98609134Y-72895281D01*
X98596346Y-72912524D01*
X98581930Y-72928430D01*
X98566024Y-72942846D01*
X98548781Y-72955634D01*
X98530368Y-72966670D01*
X98510962Y-72975849D01*
X98490750Y-72983081D01*
X98469926Y-72988297D01*
X98448691Y-72991447D01*
X98427250Y-72992500D01*
X97914750Y-72992500D01*
X97893309Y-72991447D01*
X97872074Y-72988297D01*
X97851250Y-72983081D01*
X97831038Y-72975849D01*
X97811632Y-72966670D01*
X97793219Y-72955634D01*
X97775976Y-72942846D01*
X97760070Y-72928430D01*
X97745654Y-72912524D01*
X97732866Y-72895281D01*
X97721830Y-72876868D01*
X97712651Y-72857462D01*
X97705419Y-72837250D01*
X97700203Y-72816426D01*
X97697053Y-72795191D01*
X97696000Y-72773750D01*
X97696000Y-72336250D01*
X97697053Y-72314809D01*
X97700203Y-72293574D01*
X97705419Y-72272750D01*
X97712651Y-72252538D01*
X97721830Y-72233132D01*
X97732866Y-72214719D01*
X97745654Y-72197476D01*
X97760070Y-72181570D01*
X97775976Y-72167154D01*
X97793219Y-72154366D01*
X97811632Y-72143330D01*
X97831038Y-72134151D01*
X97851250Y-72126919D01*
X97872074Y-72121703D01*
X97893309Y-72118553D01*
X97914750Y-72117500D01*
X98427250Y-72117500D01*
X98448691Y-72118553D01*
G37*
G36*
X98448691Y-73693553D02*
G01*
X98469926Y-73696703D01*
X98490750Y-73701919D01*
X98510962Y-73709151D01*
X98530368Y-73718330D01*
X98548781Y-73729366D01*
X98566024Y-73742154D01*
X98581930Y-73756570D01*
X98596346Y-73772476D01*
X98609134Y-73789719D01*
X98620170Y-73808132D01*
X98629349Y-73827538D01*
X98636581Y-73847750D01*
X98641797Y-73868574D01*
X98644947Y-73889809D01*
X98646000Y-73911250D01*
X98646000Y-74348750D01*
X98644947Y-74370191D01*
X98641797Y-74391426D01*
X98636581Y-74412250D01*
X98629349Y-74432462D01*
X98620170Y-74451868D01*
X98609134Y-74470281D01*
X98596346Y-74487524D01*
X98581930Y-74503430D01*
X98566024Y-74517846D01*
X98548781Y-74530634D01*
X98530368Y-74541670D01*
X98510962Y-74550849D01*
X98490750Y-74558081D01*
X98469926Y-74563297D01*
X98448691Y-74566447D01*
X98427250Y-74567500D01*
X97914750Y-74567500D01*
X97893309Y-74566447D01*
X97872074Y-74563297D01*
X97851250Y-74558081D01*
X97831038Y-74550849D01*
X97811632Y-74541670D01*
X97793219Y-74530634D01*
X97775976Y-74517846D01*
X97760070Y-74503430D01*
X97745654Y-74487524D01*
X97732866Y-74470281D01*
X97721830Y-74451868D01*
X97712651Y-74432462D01*
X97705419Y-74412250D01*
X97700203Y-74391426D01*
X97697053Y-74370191D01*
X97696000Y-74348750D01*
X97696000Y-73911250D01*
X97697053Y-73889809D01*
X97700203Y-73868574D01*
X97705419Y-73847750D01*
X97712651Y-73827538D01*
X97721830Y-73808132D01*
X97732866Y-73789719D01*
X97745654Y-73772476D01*
X97760070Y-73756570D01*
X97775976Y-73742154D01*
X97793219Y-73729366D01*
X97811632Y-73718330D01*
X97831038Y-73709151D01*
X97851250Y-73701919D01*
X97872074Y-73696703D01*
X97893309Y-73693553D01*
X97914750Y-73692500D01*
X98427250Y-73692500D01*
X98448691Y-73693553D01*
G37*
M02*
