G04 #@! TF.GenerationSoftware,KiCad,Pcbnew,(5.1.7)-1*
G04 #@! TF.CreationDate,2021-01-26T15:50:25-05:00*
G04 #@! TF.ProjectId,SmartWatch V5,536d6172-7457-4617-9463-682056352e6b,rev?*
G04 #@! TF.SameCoordinates,Original*
G04 #@! TF.FileFunction,Copper,L3,Inr*
G04 #@! TF.FilePolarity,Positive*
%FSLAX46Y46*%
G04 Gerber Fmt 4.6, Leading zero omitted, Abs format (unit mm)*
G04 Created by KiCad (PCBNEW (5.1.7)-1) date 2021-01-26 15:50:25*
%MOMM*%
%LPD*%
G01*
G04 APERTURE LIST*
G04 #@! TA.AperFunction,ComponentPad*
%ADD10C,0.500000*%
G04 #@! TD*
G04 #@! TA.AperFunction,ComponentPad*
%ADD11O,0.850000X0.850000*%
G04 #@! TD*
G04 #@! TA.AperFunction,ComponentPad*
%ADD12R,0.850000X0.850000*%
G04 #@! TD*
G04 #@! TA.AperFunction,ViaPad*
%ADD13C,0.450000*%
G04 #@! TD*
G04 #@! TA.AperFunction,Conductor*
%ADD14C,0.254000*%
G04 #@! TD*
G04 #@! TA.AperFunction,Conductor*
%ADD15C,0.100000*%
G04 #@! TD*
G04 APERTURE END LIST*
D10*
X95546000Y-81026000D03*
X94446000Y-81026000D03*
D11*
X103759000Y-76946000D03*
D12*
X103759000Y-75946000D03*
D13*
X86111990Y-88943747D03*
X88963500Y-89408000D03*
X85740682Y-89404615D03*
X88884920Y-88799074D03*
X89713511Y-89439603D03*
X85192475Y-89463992D03*
X89648705Y-88812682D03*
X85153504Y-88836500D03*
X83947000Y-77851000D03*
X86868000Y-77851000D03*
X87503000Y-95123000D03*
X84455000Y-80264000D03*
X84455000Y-79502000D03*
X102870000Y-90805000D03*
X101346000Y-84836000D03*
X94996000Y-75057000D03*
X84661991Y-85097798D03*
X101164002Y-98806000D03*
X95758000Y-79375000D03*
X94361000Y-79375000D03*
X93218000Y-80708500D03*
X93218000Y-79375000D03*
X93218000Y-77724000D03*
X97155000Y-81343500D03*
X92456000Y-88963500D03*
X89027000Y-94678500D03*
X90932000Y-92964000D03*
X95821500Y-78295500D03*
X94297500Y-78232000D03*
X81724500Y-74358500D03*
X83121500Y-74358500D03*
X82423000Y-74739500D03*
X81915000Y-97917000D03*
X88519000Y-71628000D03*
X92964000Y-72390000D03*
X85915500Y-75311000D03*
X98425000Y-79629000D03*
X97218500Y-74295000D03*
X85915324Y-74734157D03*
X85921280Y-74184177D03*
X97117305Y-73544989D03*
X85910780Y-73634265D03*
X97712834Y-84351765D03*
X96825658Y-73078668D03*
X85979000Y-73088500D03*
X98107500Y-84963000D03*
X83629500Y-96964500D03*
X88646000Y-82042000D03*
X89789000Y-80772000D03*
X85212001Y-90642582D03*
X89789000Y-72136000D03*
X85725000Y-98107500D03*
X89916000Y-76708000D03*
X100330000Y-93599000D03*
X100330000Y-94115000D03*
X91440000Y-76962000D03*
X97616445Y-92514409D03*
X101632009Y-80151317D03*
X100965000Y-73279000D03*
X89598500Y-86683490D03*
X89027000Y-86683490D03*
X98742500Y-92265500D03*
X94889000Y-98306000D03*
X97489000Y-98306000D03*
X99889000Y-98306000D03*
X102489000Y-98306000D03*
X103251000Y-95440500D03*
X102425500Y-80835500D03*
X102870000Y-86042500D03*
X102235000Y-84633000D03*
X95821500Y-76657000D03*
X94234000Y-76657000D03*
X93916500Y-85534500D03*
X93980000Y-83248500D03*
X81915000Y-94488000D03*
X92519500Y-96660002D03*
X87630000Y-92964000D03*
X103505000Y-79883000D03*
X88836500Y-96456500D03*
X89408000Y-82423000D03*
X81724500Y-73088500D03*
X83185000Y-73088500D03*
X82423000Y-73469500D03*
X98679000Y-73088500D03*
X100076000Y-73088500D03*
X99441000Y-73469500D03*
X101600000Y-72644000D03*
X101600000Y-73914000D03*
X103949500Y-73850500D03*
X90551000Y-79502000D03*
X87884000Y-78613000D03*
X81915000Y-96393000D03*
X91440000Y-79502000D03*
X89535000Y-81534000D03*
X86995000Y-71628000D03*
X95631000Y-86995000D03*
X91059000Y-72390000D03*
X102362000Y-80010000D03*
X101547930Y-82482290D03*
X97409000Y-94869000D03*
X101854000Y-86995000D03*
X101854000Y-86487000D03*
X101854000Y-85979000D03*
X93726000Y-97028000D03*
X101600000Y-89789000D03*
X99568000Y-89916000D03*
X96822430Y-94407291D03*
X97536000Y-93853000D03*
X88646000Y-75184000D03*
X90602000Y-94615000D03*
X96647000Y-93853000D03*
X97536000Y-93218000D03*
X87980404Y-89414602D03*
X84836000Y-88265000D03*
X83685968Y-88392000D03*
X88392000Y-77851000D03*
X89535000Y-77851000D03*
X103261823Y-93726000D03*
X103411776Y-93058603D03*
X100076000Y-82169000D03*
X103886000Y-82042000D03*
X95123000Y-79375000D03*
X102023013Y-77216000D03*
X101737377Y-90989510D03*
X98740718Y-91272862D03*
X89471500Y-84328000D03*
X88265000Y-84328000D03*
X98111796Y-82257183D03*
X91823816Y-84752970D03*
X87376000Y-84455000D03*
X98171000Y-82804000D03*
X97409000Y-76327000D03*
X101473000Y-77216000D03*
X93345000Y-74295000D03*
X86614000Y-75184000D03*
X86233000Y-80772000D03*
X92519500Y-87127990D03*
X87980885Y-87013721D03*
X93223990Y-88519000D03*
X83248500Y-92900500D03*
X84010500Y-92710000D03*
D14*
X88017000Y-71677443D02*
X88036292Y-71774428D01*
X88074133Y-71865786D01*
X88129071Y-71948006D01*
X88198994Y-72017929D01*
X88281214Y-72072867D01*
X88372572Y-72110708D01*
X88469557Y-72130000D01*
X88568443Y-72130000D01*
X88665428Y-72110708D01*
X88756786Y-72072867D01*
X88839006Y-72017929D01*
X88908929Y-71948006D01*
X88963867Y-71865786D01*
X89001708Y-71774428D01*
X89021000Y-71677443D01*
X89021000Y-71628000D01*
X104267000Y-71628000D01*
X104267000Y-75256714D01*
X104238301Y-75248008D01*
X104184000Y-75242660D01*
X103334000Y-75242660D01*
X103279699Y-75248008D01*
X103227484Y-75263847D01*
X103179363Y-75289569D01*
X103137184Y-75324184D01*
X103102569Y-75366363D01*
X103076847Y-75414484D01*
X103061008Y-75466699D01*
X103055660Y-75521000D01*
X103055660Y-76239073D01*
X102991064Y-76302345D01*
X102880249Y-76464530D01*
X102803204Y-76645217D01*
X102797185Y-76665080D01*
X102910704Y-76819000D01*
X103632000Y-76819000D01*
X103632000Y-76799000D01*
X103886000Y-76799000D01*
X103886000Y-76819000D01*
X103906000Y-76819000D01*
X103906000Y-77073000D01*
X103886000Y-77073000D01*
X103886000Y-77795676D01*
X104039921Y-77907822D01*
X104222165Y-77834536D01*
X104267000Y-77805245D01*
X104267000Y-81713065D01*
X104206006Y-81652071D01*
X104123786Y-81597133D01*
X104032428Y-81559292D01*
X103935443Y-81540000D01*
X103836557Y-81540000D01*
X103739572Y-81559292D01*
X103648214Y-81597133D01*
X103565994Y-81652071D01*
X103496071Y-81721994D01*
X103441133Y-81804214D01*
X103403292Y-81895572D01*
X103384000Y-81992557D01*
X103384000Y-82091443D01*
X103403292Y-82188428D01*
X103441133Y-82279786D01*
X103496071Y-82362006D01*
X103565994Y-82431929D01*
X103648214Y-82486867D01*
X103739572Y-82524708D01*
X103836557Y-82544000D01*
X103935443Y-82544000D01*
X104032428Y-82524708D01*
X104123786Y-82486867D01*
X104206006Y-82431929D01*
X104267000Y-82370935D01*
X104267000Y-99441000D01*
X81280000Y-99441000D01*
X81280000Y-98756557D01*
X100662002Y-98756557D01*
X100662002Y-98855443D01*
X100681294Y-98952428D01*
X100719135Y-99043786D01*
X100774073Y-99126006D01*
X100843996Y-99195929D01*
X100926216Y-99250867D01*
X101017574Y-99288708D01*
X101114559Y-99308000D01*
X101213445Y-99308000D01*
X101310430Y-99288708D01*
X101401788Y-99250867D01*
X101484008Y-99195929D01*
X101553931Y-99126006D01*
X101608869Y-99043786D01*
X101646710Y-98952428D01*
X101666002Y-98855443D01*
X101666002Y-98756557D01*
X101646710Y-98659572D01*
X101608869Y-98568214D01*
X101553931Y-98485994D01*
X101484008Y-98416071D01*
X101401788Y-98361133D01*
X101310430Y-98323292D01*
X101213445Y-98304000D01*
X101114559Y-98304000D01*
X101017574Y-98323292D01*
X100926216Y-98361133D01*
X100843996Y-98416071D01*
X100774073Y-98485994D01*
X100719135Y-98568214D01*
X100681294Y-98659572D01*
X100662002Y-98756557D01*
X81280000Y-98756557D01*
X81280000Y-97867557D01*
X81413000Y-97867557D01*
X81413000Y-97966443D01*
X81432292Y-98063428D01*
X81470133Y-98154786D01*
X81525071Y-98237006D01*
X81594994Y-98306929D01*
X81677214Y-98361867D01*
X81768572Y-98399708D01*
X81865557Y-98419000D01*
X81964443Y-98419000D01*
X82061428Y-98399708D01*
X82152786Y-98361867D01*
X82235006Y-98306929D01*
X82304929Y-98237006D01*
X82359867Y-98154786D01*
X82397708Y-98063428D01*
X82417000Y-97966443D01*
X82417000Y-97867557D01*
X82397708Y-97770572D01*
X82359867Y-97679214D01*
X82304929Y-97596994D01*
X82235006Y-97527071D01*
X82152786Y-97472133D01*
X82061428Y-97434292D01*
X81964443Y-97415000D01*
X81865557Y-97415000D01*
X81768572Y-97434292D01*
X81677214Y-97472133D01*
X81594994Y-97527071D01*
X81525071Y-97596994D01*
X81470133Y-97679214D01*
X81432292Y-97770572D01*
X81413000Y-97867557D01*
X81280000Y-97867557D01*
X81280000Y-96978557D01*
X93224000Y-96978557D01*
X93224000Y-97077443D01*
X93243292Y-97174428D01*
X93281133Y-97265786D01*
X93336071Y-97348006D01*
X93405994Y-97417929D01*
X93488214Y-97472867D01*
X93579572Y-97510708D01*
X93676557Y-97530000D01*
X93775443Y-97530000D01*
X93872428Y-97510708D01*
X93963786Y-97472867D01*
X94046006Y-97417929D01*
X94115929Y-97348006D01*
X94170867Y-97265786D01*
X94208708Y-97174428D01*
X94228000Y-97077443D01*
X94228000Y-96978557D01*
X94208708Y-96881572D01*
X94170867Y-96790214D01*
X94115929Y-96707994D01*
X94046006Y-96638071D01*
X93963786Y-96583133D01*
X93872428Y-96545292D01*
X93775443Y-96526000D01*
X93676557Y-96526000D01*
X93579572Y-96545292D01*
X93488214Y-96583133D01*
X93405994Y-96638071D01*
X93336071Y-96707994D01*
X93281133Y-96790214D01*
X93243292Y-96881572D01*
X93224000Y-96978557D01*
X81280000Y-96978557D01*
X81280000Y-95073557D01*
X87001000Y-95073557D01*
X87001000Y-95172443D01*
X87020292Y-95269428D01*
X87058133Y-95360786D01*
X87113071Y-95443006D01*
X87182994Y-95512929D01*
X87265214Y-95567867D01*
X87356572Y-95605708D01*
X87453557Y-95625000D01*
X87552443Y-95625000D01*
X87649428Y-95605708D01*
X87740786Y-95567867D01*
X87823006Y-95512929D01*
X87892929Y-95443006D01*
X87947867Y-95360786D01*
X87985708Y-95269428D01*
X88005000Y-95172443D01*
X88005000Y-95073557D01*
X87985708Y-94976572D01*
X87947867Y-94885214D01*
X87892929Y-94802994D01*
X87823006Y-94733071D01*
X87740786Y-94678133D01*
X87649428Y-94640292D01*
X87592948Y-94629057D01*
X88525000Y-94629057D01*
X88525000Y-94727943D01*
X88544292Y-94824928D01*
X88582133Y-94916286D01*
X88637071Y-94998506D01*
X88706994Y-95068429D01*
X88789214Y-95123367D01*
X88880572Y-95161208D01*
X88977557Y-95180500D01*
X89076443Y-95180500D01*
X89173428Y-95161208D01*
X89264786Y-95123367D01*
X89347006Y-95068429D01*
X89416929Y-94998506D01*
X89471867Y-94916286D01*
X89509708Y-94824928D01*
X89529000Y-94727943D01*
X89529000Y-94629057D01*
X89516369Y-94565557D01*
X90100000Y-94565557D01*
X90100000Y-94664443D01*
X90119292Y-94761428D01*
X90157133Y-94852786D01*
X90212071Y-94935006D01*
X90281994Y-95004929D01*
X90364214Y-95059867D01*
X90455572Y-95097708D01*
X90552557Y-95117000D01*
X90651443Y-95117000D01*
X90748428Y-95097708D01*
X90839786Y-95059867D01*
X90922006Y-95004929D01*
X90991929Y-94935006D01*
X91046867Y-94852786D01*
X91084708Y-94761428D01*
X91104000Y-94664443D01*
X91104000Y-94565557D01*
X91084708Y-94468572D01*
X91046867Y-94377214D01*
X90991929Y-94294994D01*
X90922006Y-94225071D01*
X90839786Y-94170133D01*
X90748428Y-94132292D01*
X90651443Y-94113000D01*
X90552557Y-94113000D01*
X90455572Y-94132292D01*
X90364214Y-94170133D01*
X90281994Y-94225071D01*
X90212071Y-94294994D01*
X90157133Y-94377214D01*
X90119292Y-94468572D01*
X90100000Y-94565557D01*
X89516369Y-94565557D01*
X89509708Y-94532072D01*
X89471867Y-94440714D01*
X89416929Y-94358494D01*
X89347006Y-94288571D01*
X89264786Y-94233633D01*
X89173428Y-94195792D01*
X89076443Y-94176500D01*
X88977557Y-94176500D01*
X88880572Y-94195792D01*
X88789214Y-94233633D01*
X88706994Y-94288571D01*
X88637071Y-94358494D01*
X88582133Y-94440714D01*
X88544292Y-94532072D01*
X88525000Y-94629057D01*
X87592948Y-94629057D01*
X87552443Y-94621000D01*
X87453557Y-94621000D01*
X87356572Y-94640292D01*
X87265214Y-94678133D01*
X87182994Y-94733071D01*
X87113071Y-94802994D01*
X87058133Y-94885214D01*
X87020292Y-94976572D01*
X87001000Y-95073557D01*
X81280000Y-95073557D01*
X81280000Y-93803557D01*
X96145000Y-93803557D01*
X96145000Y-93902443D01*
X96164292Y-93999428D01*
X96202133Y-94090786D01*
X96257071Y-94173006D01*
X96326994Y-94242929D01*
X96342781Y-94253478D01*
X96339722Y-94260863D01*
X96320430Y-94357848D01*
X96320430Y-94456734D01*
X96339722Y-94553719D01*
X96377563Y-94645077D01*
X96432501Y-94727297D01*
X96502424Y-94797220D01*
X96584644Y-94852158D01*
X96676002Y-94889999D01*
X96772987Y-94909291D01*
X96871873Y-94909291D01*
X96907000Y-94902304D01*
X96907000Y-94918443D01*
X96926292Y-95015428D01*
X96964133Y-95106786D01*
X97019071Y-95189006D01*
X97088994Y-95258929D01*
X97171214Y-95313867D01*
X97262572Y-95351708D01*
X97359557Y-95371000D01*
X97458443Y-95371000D01*
X97555428Y-95351708D01*
X97646786Y-95313867D01*
X97729006Y-95258929D01*
X97798929Y-95189006D01*
X97853867Y-95106786D01*
X97891708Y-95015428D01*
X97911000Y-94918443D01*
X97911000Y-94819557D01*
X97891708Y-94722572D01*
X97853867Y-94631214D01*
X97798929Y-94548994D01*
X97729006Y-94479071D01*
X97646786Y-94424133D01*
X97555428Y-94386292D01*
X97458443Y-94367000D01*
X97359557Y-94367000D01*
X97324430Y-94373987D01*
X97324430Y-94357848D01*
X97313781Y-94304315D01*
X97389572Y-94335708D01*
X97486557Y-94355000D01*
X97585443Y-94355000D01*
X97682428Y-94335708D01*
X97773786Y-94297867D01*
X97856006Y-94242929D01*
X97925929Y-94173006D01*
X97980867Y-94090786D01*
X98018708Y-93999428D01*
X98038000Y-93902443D01*
X98038000Y-93803557D01*
X98018708Y-93706572D01*
X98006276Y-93676557D01*
X102759823Y-93676557D01*
X102759823Y-93775443D01*
X102779115Y-93872428D01*
X102816956Y-93963786D01*
X102871894Y-94046006D01*
X102941817Y-94115929D01*
X103024037Y-94170867D01*
X103115395Y-94208708D01*
X103212380Y-94228000D01*
X103311266Y-94228000D01*
X103408251Y-94208708D01*
X103499609Y-94170867D01*
X103581829Y-94115929D01*
X103651752Y-94046006D01*
X103706690Y-93963786D01*
X103744531Y-93872428D01*
X103763823Y-93775443D01*
X103763823Y-93676557D01*
X103744531Y-93579572D01*
X103706690Y-93488214D01*
X103696104Y-93472371D01*
X103731782Y-93448532D01*
X103801705Y-93378609D01*
X103856643Y-93296389D01*
X103894484Y-93205031D01*
X103913776Y-93108046D01*
X103913776Y-93009160D01*
X103894484Y-92912175D01*
X103856643Y-92820817D01*
X103801705Y-92738597D01*
X103731782Y-92668674D01*
X103649562Y-92613736D01*
X103558204Y-92575895D01*
X103461219Y-92556603D01*
X103362333Y-92556603D01*
X103265348Y-92575895D01*
X103173990Y-92613736D01*
X103091770Y-92668674D01*
X103021847Y-92738597D01*
X102966909Y-92820817D01*
X102929068Y-92912175D01*
X102909776Y-93009160D01*
X102909776Y-93108046D01*
X102929068Y-93205031D01*
X102966909Y-93296389D01*
X102977495Y-93312232D01*
X102941817Y-93336071D01*
X102871894Y-93405994D01*
X102816956Y-93488214D01*
X102779115Y-93579572D01*
X102759823Y-93676557D01*
X98006276Y-93676557D01*
X97980867Y-93615214D01*
X97927603Y-93535500D01*
X97980867Y-93455786D01*
X98018708Y-93364428D01*
X98038000Y-93267443D01*
X98038000Y-93168557D01*
X98018708Y-93071572D01*
X97980867Y-92980214D01*
X97925929Y-92897994D01*
X97856006Y-92828071D01*
X97773786Y-92773133D01*
X97682428Y-92735292D01*
X97585443Y-92716000D01*
X97486557Y-92716000D01*
X97389572Y-92735292D01*
X97298214Y-92773133D01*
X97215994Y-92828071D01*
X97146071Y-92897994D01*
X97091133Y-92980214D01*
X97053292Y-93071572D01*
X97034000Y-93168557D01*
X97034000Y-93267443D01*
X97053292Y-93364428D01*
X97091133Y-93455786D01*
X97144397Y-93535500D01*
X97091500Y-93614665D01*
X97036929Y-93532994D01*
X96967006Y-93463071D01*
X96884786Y-93408133D01*
X96793428Y-93370292D01*
X96696443Y-93351000D01*
X96597557Y-93351000D01*
X96500572Y-93370292D01*
X96409214Y-93408133D01*
X96326994Y-93463071D01*
X96257071Y-93532994D01*
X96202133Y-93615214D01*
X96164292Y-93706572D01*
X96145000Y-93803557D01*
X81280000Y-93803557D01*
X81280000Y-92851057D01*
X82746500Y-92851057D01*
X82746500Y-92949943D01*
X82765792Y-93046928D01*
X82803633Y-93138286D01*
X82858571Y-93220506D01*
X82928494Y-93290429D01*
X83010714Y-93345367D01*
X83102072Y-93383208D01*
X83199057Y-93402500D01*
X83297943Y-93402500D01*
X83394928Y-93383208D01*
X83486286Y-93345367D01*
X83568506Y-93290429D01*
X83638429Y-93220506D01*
X83693367Y-93138286D01*
X83705188Y-93109747D01*
X83772714Y-93154867D01*
X83864072Y-93192708D01*
X83961057Y-93212000D01*
X84059943Y-93212000D01*
X84156928Y-93192708D01*
X84248286Y-93154867D01*
X84330506Y-93099929D01*
X84400429Y-93030006D01*
X84455367Y-92947786D01*
X84469130Y-92914557D01*
X90430000Y-92914557D01*
X90430000Y-93013443D01*
X90449292Y-93110428D01*
X90487133Y-93201786D01*
X90542071Y-93284006D01*
X90611994Y-93353929D01*
X90694214Y-93408867D01*
X90785572Y-93446708D01*
X90882557Y-93466000D01*
X90981443Y-93466000D01*
X91078428Y-93446708D01*
X91169786Y-93408867D01*
X91252006Y-93353929D01*
X91321929Y-93284006D01*
X91376867Y-93201786D01*
X91414708Y-93110428D01*
X91434000Y-93013443D01*
X91434000Y-92914557D01*
X91414708Y-92817572D01*
X91376867Y-92726214D01*
X91321929Y-92643994D01*
X91252006Y-92574071D01*
X91169786Y-92519133D01*
X91078428Y-92481292D01*
X90981443Y-92462000D01*
X90882557Y-92462000D01*
X90785572Y-92481292D01*
X90694214Y-92519133D01*
X90611994Y-92574071D01*
X90542071Y-92643994D01*
X90487133Y-92726214D01*
X90449292Y-92817572D01*
X90430000Y-92914557D01*
X84469130Y-92914557D01*
X84493208Y-92856428D01*
X84512500Y-92759443D01*
X84512500Y-92660557D01*
X84493208Y-92563572D01*
X84455367Y-92472214D01*
X84400429Y-92389994D01*
X84330506Y-92320071D01*
X84248286Y-92265133D01*
X84156928Y-92227292D01*
X84059943Y-92208000D01*
X83961057Y-92208000D01*
X83864072Y-92227292D01*
X83772714Y-92265133D01*
X83690494Y-92320071D01*
X83620571Y-92389994D01*
X83565633Y-92472214D01*
X83553812Y-92500753D01*
X83486286Y-92455633D01*
X83394928Y-92417792D01*
X83297943Y-92398500D01*
X83199057Y-92398500D01*
X83102072Y-92417792D01*
X83010714Y-92455633D01*
X82928494Y-92510571D01*
X82858571Y-92580494D01*
X82803633Y-92662714D01*
X82765792Y-92754072D01*
X82746500Y-92851057D01*
X81280000Y-92851057D01*
X81280000Y-91223419D01*
X98238718Y-91223419D01*
X98238718Y-91322305D01*
X98258010Y-91419290D01*
X98295851Y-91510648D01*
X98350789Y-91592868D01*
X98420712Y-91662791D01*
X98502932Y-91717729D01*
X98594290Y-91755570D01*
X98691275Y-91774862D01*
X98790161Y-91774862D01*
X98887146Y-91755570D01*
X98978504Y-91717729D01*
X99060724Y-91662791D01*
X99130647Y-91592868D01*
X99185585Y-91510648D01*
X99223426Y-91419290D01*
X99242718Y-91322305D01*
X99242718Y-91223419D01*
X99223426Y-91126434D01*
X99185585Y-91035076D01*
X99130647Y-90952856D01*
X99117858Y-90940067D01*
X101235377Y-90940067D01*
X101235377Y-91038953D01*
X101254669Y-91135938D01*
X101292510Y-91227296D01*
X101347448Y-91309516D01*
X101417371Y-91379439D01*
X101499591Y-91434377D01*
X101590949Y-91472218D01*
X101687934Y-91491510D01*
X101786820Y-91491510D01*
X101883805Y-91472218D01*
X101975163Y-91434377D01*
X102057383Y-91379439D01*
X102127306Y-91309516D01*
X102182244Y-91227296D01*
X102220085Y-91135938D01*
X102239377Y-91038953D01*
X102239377Y-90940067D01*
X102220085Y-90843082D01*
X102183832Y-90755557D01*
X102368000Y-90755557D01*
X102368000Y-90854443D01*
X102387292Y-90951428D01*
X102425133Y-91042786D01*
X102480071Y-91125006D01*
X102549994Y-91194929D01*
X102632214Y-91249867D01*
X102723572Y-91287708D01*
X102820557Y-91307000D01*
X102919443Y-91307000D01*
X103016428Y-91287708D01*
X103107786Y-91249867D01*
X103190006Y-91194929D01*
X103259929Y-91125006D01*
X103314867Y-91042786D01*
X103352708Y-90951428D01*
X103372000Y-90854443D01*
X103372000Y-90755557D01*
X103352708Y-90658572D01*
X103314867Y-90567214D01*
X103259929Y-90484994D01*
X103190006Y-90415071D01*
X103107786Y-90360133D01*
X103016428Y-90322292D01*
X102919443Y-90303000D01*
X102820557Y-90303000D01*
X102723572Y-90322292D01*
X102632214Y-90360133D01*
X102549994Y-90415071D01*
X102480071Y-90484994D01*
X102425133Y-90567214D01*
X102387292Y-90658572D01*
X102368000Y-90755557D01*
X102183832Y-90755557D01*
X102182244Y-90751724D01*
X102127306Y-90669504D01*
X102057383Y-90599581D01*
X101975163Y-90544643D01*
X101883805Y-90506802D01*
X101786820Y-90487510D01*
X101687934Y-90487510D01*
X101590949Y-90506802D01*
X101499591Y-90544643D01*
X101417371Y-90599581D01*
X101347448Y-90669504D01*
X101292510Y-90751724D01*
X101254669Y-90843082D01*
X101235377Y-90940067D01*
X99117858Y-90940067D01*
X99060724Y-90882933D01*
X98978504Y-90827995D01*
X98887146Y-90790154D01*
X98790161Y-90770862D01*
X98691275Y-90770862D01*
X98594290Y-90790154D01*
X98502932Y-90827995D01*
X98420712Y-90882933D01*
X98350789Y-90952856D01*
X98295851Y-91035076D01*
X98258010Y-91126434D01*
X98238718Y-91223419D01*
X81280000Y-91223419D01*
X81280000Y-88342557D01*
X83183968Y-88342557D01*
X83183968Y-88441443D01*
X83203260Y-88538428D01*
X83241101Y-88629786D01*
X83296039Y-88712006D01*
X83365962Y-88781929D01*
X83448182Y-88836867D01*
X83539540Y-88874708D01*
X83636525Y-88894000D01*
X83735411Y-88894000D01*
X83832396Y-88874708D01*
X83923754Y-88836867D01*
X84005974Y-88781929D01*
X84075897Y-88712006D01*
X84130835Y-88629786D01*
X84168676Y-88538428D01*
X84187968Y-88441443D01*
X84187968Y-88342557D01*
X84168676Y-88245572D01*
X84156244Y-88215557D01*
X84334000Y-88215557D01*
X84334000Y-88314443D01*
X84353292Y-88411428D01*
X84391133Y-88502786D01*
X84446071Y-88585006D01*
X84515994Y-88654929D01*
X84598214Y-88709867D01*
X84661633Y-88736136D01*
X84651504Y-88787057D01*
X84651504Y-88885943D01*
X84670796Y-88982928D01*
X84708637Y-89074286D01*
X84763575Y-89156506D01*
X84781922Y-89174853D01*
X84747608Y-89226206D01*
X84709767Y-89317564D01*
X84690475Y-89414549D01*
X84690475Y-89513435D01*
X84709767Y-89610420D01*
X84747608Y-89701778D01*
X84802546Y-89783998D01*
X84872469Y-89853921D01*
X84954689Y-89908859D01*
X85046047Y-89946700D01*
X85143032Y-89965992D01*
X85241918Y-89965992D01*
X85338903Y-89946700D01*
X85430261Y-89908859D01*
X85512481Y-89853921D01*
X85512813Y-89853589D01*
X85594254Y-89887323D01*
X85691239Y-89906615D01*
X85790125Y-89906615D01*
X85887110Y-89887323D01*
X85978468Y-89849482D01*
X86060688Y-89794544D01*
X86130611Y-89724621D01*
X86185549Y-89642401D01*
X86223390Y-89551043D01*
X86242682Y-89454058D01*
X86242682Y-89429585D01*
X86258418Y-89426455D01*
X86349776Y-89388614D01*
X86384878Y-89365159D01*
X87478404Y-89365159D01*
X87478404Y-89464045D01*
X87497696Y-89561030D01*
X87535537Y-89652388D01*
X87590475Y-89734608D01*
X87660398Y-89804531D01*
X87742618Y-89859469D01*
X87833976Y-89897310D01*
X87930961Y-89916602D01*
X88029847Y-89916602D01*
X88126832Y-89897310D01*
X88218190Y-89859469D01*
X88300410Y-89804531D01*
X88370333Y-89734608D01*
X88425271Y-89652388D01*
X88463112Y-89561030D01*
X88472609Y-89513288D01*
X88480792Y-89554428D01*
X88518633Y-89645786D01*
X88573571Y-89728006D01*
X88643494Y-89797929D01*
X88725714Y-89852867D01*
X88817072Y-89890708D01*
X88914057Y-89910000D01*
X89012943Y-89910000D01*
X89109928Y-89890708D01*
X89201286Y-89852867D01*
X89283506Y-89797929D01*
X89322879Y-89758556D01*
X89323582Y-89759609D01*
X89393505Y-89829532D01*
X89475725Y-89884470D01*
X89567083Y-89922311D01*
X89664068Y-89941603D01*
X89762954Y-89941603D01*
X89859939Y-89922311D01*
X89951297Y-89884470D01*
X89978105Y-89866557D01*
X99066000Y-89866557D01*
X99066000Y-89965443D01*
X99085292Y-90062428D01*
X99123133Y-90153786D01*
X99178071Y-90236006D01*
X99247994Y-90305929D01*
X99330214Y-90360867D01*
X99421572Y-90398708D01*
X99518557Y-90418000D01*
X99617443Y-90418000D01*
X99714428Y-90398708D01*
X99805786Y-90360867D01*
X99888006Y-90305929D01*
X99957929Y-90236006D01*
X100012867Y-90153786D01*
X100050708Y-90062428D01*
X100070000Y-89965443D01*
X100070000Y-89866557D01*
X100050708Y-89769572D01*
X100038276Y-89739557D01*
X101098000Y-89739557D01*
X101098000Y-89838443D01*
X101117292Y-89935428D01*
X101155133Y-90026786D01*
X101210071Y-90109006D01*
X101279994Y-90178929D01*
X101362214Y-90233867D01*
X101453572Y-90271708D01*
X101550557Y-90291000D01*
X101649443Y-90291000D01*
X101746428Y-90271708D01*
X101837786Y-90233867D01*
X101920006Y-90178929D01*
X101989929Y-90109006D01*
X102044867Y-90026786D01*
X102082708Y-89935428D01*
X102102000Y-89838443D01*
X102102000Y-89739557D01*
X102082708Y-89642572D01*
X102044867Y-89551214D01*
X101989929Y-89468994D01*
X101920006Y-89399071D01*
X101837786Y-89344133D01*
X101746428Y-89306292D01*
X101649443Y-89287000D01*
X101550557Y-89287000D01*
X101453572Y-89306292D01*
X101362214Y-89344133D01*
X101279994Y-89399071D01*
X101210071Y-89468994D01*
X101155133Y-89551214D01*
X101117292Y-89642572D01*
X101098000Y-89739557D01*
X100038276Y-89739557D01*
X100012867Y-89678214D01*
X99957929Y-89595994D01*
X99888006Y-89526071D01*
X99805786Y-89471133D01*
X99714428Y-89433292D01*
X99617443Y-89414000D01*
X99518557Y-89414000D01*
X99421572Y-89433292D01*
X99330214Y-89471133D01*
X99247994Y-89526071D01*
X99178071Y-89595994D01*
X99123133Y-89678214D01*
X99085292Y-89769572D01*
X99066000Y-89866557D01*
X89978105Y-89866557D01*
X90033517Y-89829532D01*
X90103440Y-89759609D01*
X90158378Y-89677389D01*
X90196219Y-89586031D01*
X90215511Y-89489046D01*
X90215511Y-89390160D01*
X90196219Y-89293175D01*
X90158378Y-89201817D01*
X90103440Y-89119597D01*
X90069835Y-89085992D01*
X90093572Y-89050468D01*
X90131413Y-88959110D01*
X90140374Y-88914057D01*
X91954000Y-88914057D01*
X91954000Y-89012943D01*
X91973292Y-89109928D01*
X92011133Y-89201286D01*
X92066071Y-89283506D01*
X92135994Y-89353429D01*
X92218214Y-89408367D01*
X92309572Y-89446208D01*
X92406557Y-89465500D01*
X92505443Y-89465500D01*
X92602428Y-89446208D01*
X92693786Y-89408367D01*
X92776006Y-89353429D01*
X92845929Y-89283506D01*
X92900867Y-89201286D01*
X92938708Y-89109928D01*
X92958000Y-89012943D01*
X92958000Y-88945022D01*
X92986204Y-88963867D01*
X93077562Y-89001708D01*
X93174547Y-89021000D01*
X93273433Y-89021000D01*
X93370418Y-89001708D01*
X93461776Y-88963867D01*
X93543996Y-88908929D01*
X93613919Y-88839006D01*
X93668857Y-88756786D01*
X93706698Y-88665428D01*
X93725990Y-88568443D01*
X93725990Y-88469557D01*
X93706698Y-88372572D01*
X93668857Y-88281214D01*
X93613919Y-88198994D01*
X93543996Y-88129071D01*
X93461776Y-88074133D01*
X93370418Y-88036292D01*
X93273433Y-88017000D01*
X93174547Y-88017000D01*
X93077562Y-88036292D01*
X92986204Y-88074133D01*
X92903984Y-88129071D01*
X92834061Y-88198994D01*
X92779123Y-88281214D01*
X92741282Y-88372572D01*
X92721990Y-88469557D01*
X92721990Y-88537478D01*
X92693786Y-88518633D01*
X92602428Y-88480792D01*
X92505443Y-88461500D01*
X92406557Y-88461500D01*
X92309572Y-88480792D01*
X92218214Y-88518633D01*
X92135994Y-88573571D01*
X92066071Y-88643494D01*
X92011133Y-88725714D01*
X91973292Y-88817072D01*
X91954000Y-88914057D01*
X90140374Y-88914057D01*
X90150705Y-88862125D01*
X90150705Y-88763239D01*
X90131413Y-88666254D01*
X90093572Y-88574896D01*
X90038634Y-88492676D01*
X89968711Y-88422753D01*
X89886491Y-88367815D01*
X89795133Y-88329974D01*
X89698148Y-88310682D01*
X89599262Y-88310682D01*
X89502277Y-88329974D01*
X89410919Y-88367815D01*
X89328699Y-88422753D01*
X89273617Y-88477836D01*
X89204926Y-88409145D01*
X89122706Y-88354207D01*
X89031348Y-88316366D01*
X88934363Y-88297074D01*
X88835477Y-88297074D01*
X88738492Y-88316366D01*
X88647134Y-88354207D01*
X88564914Y-88409145D01*
X88494991Y-88479068D01*
X88440053Y-88561288D01*
X88402212Y-88652646D01*
X88382920Y-88749631D01*
X88382920Y-88848517D01*
X88402212Y-88945502D01*
X88440053Y-89036860D01*
X88494991Y-89119080D01*
X88529645Y-89153734D01*
X88518633Y-89170214D01*
X88480792Y-89261572D01*
X88471295Y-89309314D01*
X88463112Y-89268174D01*
X88425271Y-89176816D01*
X88370333Y-89094596D01*
X88300410Y-89024673D01*
X88218190Y-88969735D01*
X88126832Y-88931894D01*
X88029847Y-88912602D01*
X87930961Y-88912602D01*
X87833976Y-88931894D01*
X87742618Y-88969735D01*
X87660398Y-89024673D01*
X87590475Y-89094596D01*
X87535537Y-89176816D01*
X87497696Y-89268174D01*
X87478404Y-89365159D01*
X86384878Y-89365159D01*
X86431996Y-89333676D01*
X86501919Y-89263753D01*
X86556857Y-89181533D01*
X86594698Y-89090175D01*
X86613990Y-88993190D01*
X86613990Y-88894304D01*
X86594698Y-88797319D01*
X86556857Y-88705961D01*
X86501919Y-88623741D01*
X86431996Y-88553818D01*
X86349776Y-88498880D01*
X86258418Y-88461039D01*
X86161433Y-88441747D01*
X86062547Y-88441747D01*
X85965562Y-88461039D01*
X85874204Y-88498880D01*
X85791984Y-88553818D01*
X85722061Y-88623741D01*
X85667123Y-88705961D01*
X85648376Y-88751222D01*
X85636212Y-88690072D01*
X85598371Y-88598714D01*
X85543433Y-88516494D01*
X85473510Y-88446571D01*
X85391290Y-88391633D01*
X85327871Y-88365364D01*
X85338000Y-88314443D01*
X85338000Y-88215557D01*
X85318708Y-88118572D01*
X85280867Y-88027214D01*
X85225929Y-87944994D01*
X85156006Y-87875071D01*
X85073786Y-87820133D01*
X84982428Y-87782292D01*
X84885443Y-87763000D01*
X84786557Y-87763000D01*
X84689572Y-87782292D01*
X84598214Y-87820133D01*
X84515994Y-87875071D01*
X84446071Y-87944994D01*
X84391133Y-88027214D01*
X84353292Y-88118572D01*
X84334000Y-88215557D01*
X84156244Y-88215557D01*
X84130835Y-88154214D01*
X84075897Y-88071994D01*
X84005974Y-88002071D01*
X83923754Y-87947133D01*
X83832396Y-87909292D01*
X83735411Y-87890000D01*
X83636525Y-87890000D01*
X83539540Y-87909292D01*
X83448182Y-87947133D01*
X83365962Y-88002071D01*
X83296039Y-88071994D01*
X83241101Y-88154214D01*
X83203260Y-88245572D01*
X83183968Y-88342557D01*
X81280000Y-88342557D01*
X81280000Y-86964278D01*
X87478885Y-86964278D01*
X87478885Y-87063164D01*
X87498177Y-87160149D01*
X87536018Y-87251507D01*
X87590956Y-87333727D01*
X87660879Y-87403650D01*
X87743099Y-87458588D01*
X87834457Y-87496429D01*
X87931442Y-87515721D01*
X88030328Y-87515721D01*
X88127313Y-87496429D01*
X88218671Y-87458588D01*
X88300891Y-87403650D01*
X88370814Y-87333727D01*
X88425752Y-87251507D01*
X88463593Y-87160149D01*
X88479825Y-87078547D01*
X92017500Y-87078547D01*
X92017500Y-87177433D01*
X92036792Y-87274418D01*
X92074633Y-87365776D01*
X92129571Y-87447996D01*
X92199494Y-87517919D01*
X92281714Y-87572857D01*
X92373072Y-87610698D01*
X92470057Y-87629990D01*
X92568943Y-87629990D01*
X92665928Y-87610698D01*
X92757286Y-87572857D01*
X92839506Y-87517919D01*
X92909429Y-87447996D01*
X92964367Y-87365776D01*
X93002208Y-87274418D01*
X93021500Y-87177433D01*
X93021500Y-87078547D01*
X93002208Y-86981562D01*
X92964367Y-86890204D01*
X92909429Y-86807984D01*
X92839506Y-86738061D01*
X92757286Y-86683123D01*
X92665928Y-86645282D01*
X92568943Y-86625990D01*
X92470057Y-86625990D01*
X92373072Y-86645282D01*
X92281714Y-86683123D01*
X92199494Y-86738061D01*
X92129571Y-86807984D01*
X92074633Y-86890204D01*
X92036792Y-86981562D01*
X92017500Y-87078547D01*
X88479825Y-87078547D01*
X88482885Y-87063164D01*
X88482885Y-86964278D01*
X88463593Y-86867293D01*
X88425752Y-86775935D01*
X88370814Y-86693715D01*
X88300891Y-86623792D01*
X88218671Y-86568854D01*
X88127313Y-86531013D01*
X88030328Y-86511721D01*
X87931442Y-86511721D01*
X87834457Y-86531013D01*
X87743099Y-86568854D01*
X87660879Y-86623792D01*
X87590956Y-86693715D01*
X87536018Y-86775935D01*
X87498177Y-86867293D01*
X87478885Y-86964278D01*
X81280000Y-86964278D01*
X81280000Y-85929557D01*
X101352000Y-85929557D01*
X101352000Y-86028443D01*
X101371292Y-86125428D01*
X101409133Y-86216786D01*
X101419967Y-86233000D01*
X101409133Y-86249214D01*
X101371292Y-86340572D01*
X101352000Y-86437557D01*
X101352000Y-86536443D01*
X101371292Y-86633428D01*
X101409133Y-86724786D01*
X101419967Y-86741000D01*
X101409133Y-86757214D01*
X101371292Y-86848572D01*
X101352000Y-86945557D01*
X101352000Y-87044443D01*
X101371292Y-87141428D01*
X101409133Y-87232786D01*
X101464071Y-87315006D01*
X101533994Y-87384929D01*
X101616214Y-87439867D01*
X101707572Y-87477708D01*
X101804557Y-87497000D01*
X101903443Y-87497000D01*
X102000428Y-87477708D01*
X102091786Y-87439867D01*
X102174006Y-87384929D01*
X102243929Y-87315006D01*
X102298867Y-87232786D01*
X102336708Y-87141428D01*
X102356000Y-87044443D01*
X102356000Y-86945557D01*
X102336708Y-86848572D01*
X102298867Y-86757214D01*
X102288033Y-86741000D01*
X102298867Y-86724786D01*
X102336708Y-86633428D01*
X102356000Y-86536443D01*
X102356000Y-86437557D01*
X102336708Y-86340572D01*
X102298867Y-86249214D01*
X102288033Y-86233000D01*
X102298867Y-86216786D01*
X102336708Y-86125428D01*
X102356000Y-86028443D01*
X102356000Y-85929557D01*
X102336708Y-85832572D01*
X102298867Y-85741214D01*
X102243929Y-85658994D01*
X102174006Y-85589071D01*
X102091786Y-85534133D01*
X102000428Y-85496292D01*
X101903443Y-85477000D01*
X101804557Y-85477000D01*
X101707572Y-85496292D01*
X101616214Y-85534133D01*
X101533994Y-85589071D01*
X101464071Y-85658994D01*
X101409133Y-85741214D01*
X101371292Y-85832572D01*
X101352000Y-85929557D01*
X81280000Y-85929557D01*
X81280000Y-85048355D01*
X84159991Y-85048355D01*
X84159991Y-85147241D01*
X84179283Y-85244226D01*
X84217124Y-85335584D01*
X84272062Y-85417804D01*
X84341985Y-85487727D01*
X84424205Y-85542665D01*
X84515563Y-85580506D01*
X84612548Y-85599798D01*
X84711434Y-85599798D01*
X84808419Y-85580506D01*
X84899777Y-85542665D01*
X84981997Y-85487727D01*
X85051920Y-85417804D01*
X85106858Y-85335584D01*
X85144699Y-85244226D01*
X85163991Y-85147241D01*
X85163991Y-85048355D01*
X85144699Y-84951370D01*
X85106858Y-84860012D01*
X85051920Y-84777792D01*
X84981997Y-84707869D01*
X84899777Y-84652931D01*
X84808419Y-84615090D01*
X84711434Y-84595798D01*
X84612548Y-84595798D01*
X84515563Y-84615090D01*
X84424205Y-84652931D01*
X84341985Y-84707869D01*
X84272062Y-84777792D01*
X84217124Y-84860012D01*
X84179283Y-84951370D01*
X84159991Y-85048355D01*
X81280000Y-85048355D01*
X81280000Y-84405557D01*
X86874000Y-84405557D01*
X86874000Y-84504443D01*
X86893292Y-84601428D01*
X86931133Y-84692786D01*
X86986071Y-84775006D01*
X87055994Y-84844929D01*
X87138214Y-84899867D01*
X87229572Y-84937708D01*
X87326557Y-84957000D01*
X87425443Y-84957000D01*
X87522428Y-84937708D01*
X87613786Y-84899867D01*
X87696006Y-84844929D01*
X87765929Y-84775006D01*
X87820867Y-84692786D01*
X87853060Y-84615064D01*
X87875071Y-84648006D01*
X87944994Y-84717929D01*
X88027214Y-84772867D01*
X88118572Y-84810708D01*
X88215557Y-84830000D01*
X88314443Y-84830000D01*
X88411428Y-84810708D01*
X88502786Y-84772867D01*
X88585006Y-84717929D01*
X88654929Y-84648006D01*
X88709867Y-84565786D01*
X88747708Y-84474428D01*
X88767000Y-84377443D01*
X88767000Y-84278557D01*
X88969500Y-84278557D01*
X88969500Y-84377443D01*
X88988792Y-84474428D01*
X89026633Y-84565786D01*
X89081571Y-84648006D01*
X89151494Y-84717929D01*
X89233714Y-84772867D01*
X89325072Y-84810708D01*
X89422057Y-84830000D01*
X89520943Y-84830000D01*
X89617928Y-84810708D01*
X89709286Y-84772867D01*
X89791506Y-84717929D01*
X89805908Y-84703527D01*
X91321816Y-84703527D01*
X91321816Y-84802413D01*
X91341108Y-84899398D01*
X91378949Y-84990756D01*
X91433887Y-85072976D01*
X91503810Y-85142899D01*
X91586030Y-85197837D01*
X91677388Y-85235678D01*
X91774373Y-85254970D01*
X91873259Y-85254970D01*
X91970244Y-85235678D01*
X92061602Y-85197837D01*
X92143822Y-85142899D01*
X92213745Y-85072976D01*
X92268683Y-84990756D01*
X92306524Y-84899398D01*
X92325816Y-84802413D01*
X92325816Y-84703527D01*
X92306524Y-84606542D01*
X92268683Y-84515184D01*
X92213745Y-84432964D01*
X92143822Y-84363041D01*
X92061602Y-84308103D01*
X92047646Y-84302322D01*
X97210834Y-84302322D01*
X97210834Y-84401208D01*
X97230126Y-84498193D01*
X97267967Y-84589551D01*
X97322905Y-84671771D01*
X97392828Y-84741694D01*
X97475048Y-84796632D01*
X97566406Y-84834473D01*
X97619144Y-84844964D01*
X97605500Y-84913557D01*
X97605500Y-85012443D01*
X97624792Y-85109428D01*
X97662633Y-85200786D01*
X97717571Y-85283006D01*
X97787494Y-85352929D01*
X97869714Y-85407867D01*
X97961072Y-85445708D01*
X98058057Y-85465000D01*
X98156943Y-85465000D01*
X98253928Y-85445708D01*
X98345286Y-85407867D01*
X98427506Y-85352929D01*
X98497429Y-85283006D01*
X98552367Y-85200786D01*
X98590208Y-85109428D01*
X98609500Y-85012443D01*
X98609500Y-84913557D01*
X98590208Y-84816572D01*
X98577776Y-84786557D01*
X100844000Y-84786557D01*
X100844000Y-84885443D01*
X100863292Y-84982428D01*
X100901133Y-85073786D01*
X100956071Y-85156006D01*
X101025994Y-85225929D01*
X101108214Y-85280867D01*
X101199572Y-85318708D01*
X101296557Y-85338000D01*
X101395443Y-85338000D01*
X101492428Y-85318708D01*
X101583786Y-85280867D01*
X101666006Y-85225929D01*
X101735929Y-85156006D01*
X101790867Y-85073786D01*
X101828708Y-84982428D01*
X101848000Y-84885443D01*
X101848000Y-84786557D01*
X101828708Y-84689572D01*
X101790867Y-84598214D01*
X101735929Y-84515994D01*
X101666006Y-84446071D01*
X101583786Y-84391133D01*
X101492428Y-84353292D01*
X101395443Y-84334000D01*
X101296557Y-84334000D01*
X101199572Y-84353292D01*
X101108214Y-84391133D01*
X101025994Y-84446071D01*
X100956071Y-84515994D01*
X100901133Y-84598214D01*
X100863292Y-84689572D01*
X100844000Y-84786557D01*
X98577776Y-84786557D01*
X98552367Y-84725214D01*
X98497429Y-84642994D01*
X98427506Y-84573071D01*
X98345286Y-84518133D01*
X98253928Y-84480292D01*
X98201190Y-84469801D01*
X98214834Y-84401208D01*
X98214834Y-84302322D01*
X98195542Y-84205337D01*
X98157701Y-84113979D01*
X98102763Y-84031759D01*
X98032840Y-83961836D01*
X97950620Y-83906898D01*
X97859262Y-83869057D01*
X97762277Y-83849765D01*
X97663391Y-83849765D01*
X97566406Y-83869057D01*
X97475048Y-83906898D01*
X97392828Y-83961836D01*
X97322905Y-84031759D01*
X97267967Y-84113979D01*
X97230126Y-84205337D01*
X97210834Y-84302322D01*
X92047646Y-84302322D01*
X91970244Y-84270262D01*
X91873259Y-84250970D01*
X91774373Y-84250970D01*
X91677388Y-84270262D01*
X91586030Y-84308103D01*
X91503810Y-84363041D01*
X91433887Y-84432964D01*
X91378949Y-84515184D01*
X91341108Y-84606542D01*
X91321816Y-84703527D01*
X89805908Y-84703527D01*
X89861429Y-84648006D01*
X89916367Y-84565786D01*
X89954208Y-84474428D01*
X89973500Y-84377443D01*
X89973500Y-84278557D01*
X89954208Y-84181572D01*
X89916367Y-84090214D01*
X89861429Y-84007994D01*
X89791506Y-83938071D01*
X89709286Y-83883133D01*
X89617928Y-83845292D01*
X89520943Y-83826000D01*
X89422057Y-83826000D01*
X89325072Y-83845292D01*
X89233714Y-83883133D01*
X89151494Y-83938071D01*
X89081571Y-84007994D01*
X89026633Y-84090214D01*
X88988792Y-84181572D01*
X88969500Y-84278557D01*
X88767000Y-84278557D01*
X88747708Y-84181572D01*
X88709867Y-84090214D01*
X88654929Y-84007994D01*
X88585006Y-83938071D01*
X88502786Y-83883133D01*
X88411428Y-83845292D01*
X88314443Y-83826000D01*
X88215557Y-83826000D01*
X88118572Y-83845292D01*
X88027214Y-83883133D01*
X87944994Y-83938071D01*
X87875071Y-84007994D01*
X87820133Y-84090214D01*
X87787940Y-84167936D01*
X87765929Y-84134994D01*
X87696006Y-84065071D01*
X87613786Y-84010133D01*
X87522428Y-83972292D01*
X87425443Y-83953000D01*
X87326557Y-83953000D01*
X87229572Y-83972292D01*
X87138214Y-84010133D01*
X87055994Y-84065071D01*
X86986071Y-84134994D01*
X86931133Y-84217214D01*
X86893292Y-84308572D01*
X86874000Y-84405557D01*
X81280000Y-84405557D01*
X81280000Y-82207740D01*
X97609796Y-82207740D01*
X97609796Y-82306626D01*
X97629088Y-82403611D01*
X97666929Y-82494969D01*
X97721694Y-82576930D01*
X97688292Y-82657572D01*
X97669000Y-82754557D01*
X97669000Y-82853443D01*
X97688292Y-82950428D01*
X97726133Y-83041786D01*
X97781071Y-83124006D01*
X97850994Y-83193929D01*
X97933214Y-83248867D01*
X98024572Y-83286708D01*
X98121557Y-83306000D01*
X98220443Y-83306000D01*
X98317428Y-83286708D01*
X98408786Y-83248867D01*
X98491006Y-83193929D01*
X98560929Y-83124006D01*
X98615867Y-83041786D01*
X98653708Y-82950428D01*
X98673000Y-82853443D01*
X98673000Y-82754557D01*
X98653708Y-82657572D01*
X98615867Y-82566214D01*
X98561102Y-82484253D01*
X98594504Y-82403611D01*
X98613796Y-82306626D01*
X98613796Y-82207740D01*
X98596255Y-82119557D01*
X99574000Y-82119557D01*
X99574000Y-82218443D01*
X99593292Y-82315428D01*
X99631133Y-82406786D01*
X99686071Y-82489006D01*
X99755994Y-82558929D01*
X99838214Y-82613867D01*
X99929572Y-82651708D01*
X100026557Y-82671000D01*
X100125443Y-82671000D01*
X100222428Y-82651708D01*
X100313786Y-82613867D01*
X100396006Y-82558929D01*
X100465929Y-82489006D01*
X100503453Y-82432847D01*
X101045930Y-82432847D01*
X101045930Y-82531733D01*
X101065222Y-82628718D01*
X101103063Y-82720076D01*
X101158001Y-82802296D01*
X101227924Y-82872219D01*
X101310144Y-82927157D01*
X101401502Y-82964998D01*
X101498487Y-82984290D01*
X101597373Y-82984290D01*
X101694358Y-82964998D01*
X101785716Y-82927157D01*
X101867936Y-82872219D01*
X101937859Y-82802296D01*
X101992797Y-82720076D01*
X102030638Y-82628718D01*
X102049930Y-82531733D01*
X102049930Y-82432847D01*
X102030638Y-82335862D01*
X101992797Y-82244504D01*
X101937859Y-82162284D01*
X101867936Y-82092361D01*
X101785716Y-82037423D01*
X101694358Y-81999582D01*
X101597373Y-81980290D01*
X101498487Y-81980290D01*
X101401502Y-81999582D01*
X101310144Y-82037423D01*
X101227924Y-82092361D01*
X101158001Y-82162284D01*
X101103063Y-82244504D01*
X101065222Y-82335862D01*
X101045930Y-82432847D01*
X100503453Y-82432847D01*
X100520867Y-82406786D01*
X100558708Y-82315428D01*
X100578000Y-82218443D01*
X100578000Y-82119557D01*
X100558708Y-82022572D01*
X100520867Y-81931214D01*
X100465929Y-81848994D01*
X100396006Y-81779071D01*
X100313786Y-81724133D01*
X100222428Y-81686292D01*
X100125443Y-81667000D01*
X100026557Y-81667000D01*
X99929572Y-81686292D01*
X99838214Y-81724133D01*
X99755994Y-81779071D01*
X99686071Y-81848994D01*
X99631133Y-81931214D01*
X99593292Y-82022572D01*
X99574000Y-82119557D01*
X98596255Y-82119557D01*
X98594504Y-82110755D01*
X98556663Y-82019397D01*
X98501725Y-81937177D01*
X98431802Y-81867254D01*
X98349582Y-81812316D01*
X98258224Y-81774475D01*
X98161239Y-81755183D01*
X98062353Y-81755183D01*
X97965368Y-81774475D01*
X97874010Y-81812316D01*
X97791790Y-81867254D01*
X97721867Y-81937177D01*
X97666929Y-82019397D01*
X97629088Y-82110755D01*
X97609796Y-82207740D01*
X81280000Y-82207740D01*
X81280000Y-81590728D01*
X94055220Y-81590728D01*
X94062439Y-81763186D01*
X94213627Y-81823851D01*
X94373745Y-81853854D01*
X94536640Y-81852044D01*
X94696051Y-81818489D01*
X94829561Y-81763186D01*
X94836780Y-81590728D01*
X95155220Y-81590728D01*
X95162439Y-81763186D01*
X95313627Y-81823851D01*
X95473745Y-81853854D01*
X95636640Y-81852044D01*
X95796051Y-81818489D01*
X95929561Y-81763186D01*
X95936780Y-81590728D01*
X95546000Y-81199948D01*
X95155220Y-81590728D01*
X94836780Y-81590728D01*
X94446000Y-81199948D01*
X94055220Y-81590728D01*
X81280000Y-81590728D01*
X81280000Y-79452557D01*
X83953000Y-79452557D01*
X83953000Y-79551443D01*
X83972292Y-79648428D01*
X84010133Y-79739786D01*
X84065071Y-79822006D01*
X84126065Y-79883000D01*
X84065071Y-79943994D01*
X84010133Y-80026214D01*
X83972292Y-80117572D01*
X83953000Y-80214557D01*
X83953000Y-80313443D01*
X83972292Y-80410428D01*
X84010133Y-80501786D01*
X84065071Y-80584006D01*
X84134994Y-80653929D01*
X84217214Y-80708867D01*
X84308572Y-80746708D01*
X84405557Y-80766000D01*
X84504443Y-80766000D01*
X84601428Y-80746708D01*
X84659734Y-80722557D01*
X85731000Y-80722557D01*
X85731000Y-80821443D01*
X85750292Y-80918428D01*
X85788133Y-81009786D01*
X85843071Y-81092006D01*
X85912994Y-81161929D01*
X85995214Y-81216867D01*
X86086572Y-81254708D01*
X86183557Y-81274000D01*
X86282443Y-81274000D01*
X86379428Y-81254708D01*
X86470786Y-81216867D01*
X86553006Y-81161929D01*
X86622929Y-81092006D01*
X86677867Y-81009786D01*
X86715708Y-80918428D01*
X86735000Y-80821443D01*
X86735000Y-80722557D01*
X86722369Y-80659057D01*
X92716000Y-80659057D01*
X92716000Y-80757943D01*
X92735292Y-80854928D01*
X92773133Y-80946286D01*
X92828071Y-81028506D01*
X92897994Y-81098429D01*
X92980214Y-81153367D01*
X93071572Y-81191208D01*
X93168557Y-81210500D01*
X93267443Y-81210500D01*
X93364428Y-81191208D01*
X93455786Y-81153367D01*
X93538006Y-81098429D01*
X93607929Y-81028506D01*
X93618796Y-81012243D01*
X93619956Y-81116640D01*
X93653511Y-81276051D01*
X93708814Y-81409561D01*
X93881272Y-81416780D01*
X94272052Y-81026000D01*
X94619948Y-81026000D01*
X94722454Y-81128506D01*
X94753511Y-81276051D01*
X94808814Y-81409561D01*
X94981272Y-81416780D01*
X94996000Y-81402052D01*
X95010728Y-81416780D01*
X95183186Y-81409561D01*
X95243851Y-81258373D01*
X95267872Y-81130180D01*
X95372052Y-81026000D01*
X95719948Y-81026000D01*
X96110728Y-81416780D01*
X96283186Y-81409561D01*
X96329532Y-81294057D01*
X96653000Y-81294057D01*
X96653000Y-81392943D01*
X96672292Y-81489928D01*
X96710133Y-81581286D01*
X96765071Y-81663506D01*
X96834994Y-81733429D01*
X96917214Y-81788367D01*
X97008572Y-81826208D01*
X97105557Y-81845500D01*
X97204443Y-81845500D01*
X97301428Y-81826208D01*
X97392786Y-81788367D01*
X97475006Y-81733429D01*
X97544929Y-81663506D01*
X97599867Y-81581286D01*
X97637708Y-81489928D01*
X97657000Y-81392943D01*
X97657000Y-81294057D01*
X97637708Y-81197072D01*
X97599867Y-81105714D01*
X97544929Y-81023494D01*
X97475006Y-80953571D01*
X97392786Y-80898633D01*
X97301428Y-80860792D01*
X97204443Y-80841500D01*
X97105557Y-80841500D01*
X97008572Y-80860792D01*
X96917214Y-80898633D01*
X96834994Y-80953571D01*
X96765071Y-81023494D01*
X96710133Y-81105714D01*
X96672292Y-81197072D01*
X96653000Y-81294057D01*
X96329532Y-81294057D01*
X96343851Y-81258373D01*
X96373854Y-81098255D01*
X96372044Y-80935360D01*
X96338489Y-80775949D01*
X96283186Y-80642439D01*
X96110728Y-80635220D01*
X95719948Y-81026000D01*
X95372052Y-81026000D01*
X95269546Y-80923494D01*
X95238489Y-80775949D01*
X95183186Y-80642439D01*
X95010728Y-80635220D01*
X94996000Y-80649948D01*
X94981272Y-80635220D01*
X94808814Y-80642439D01*
X94748149Y-80793627D01*
X94724128Y-80921820D01*
X94619948Y-81026000D01*
X94272052Y-81026000D01*
X93881272Y-80635220D01*
X93716629Y-80642112D01*
X93700708Y-80562072D01*
X93662867Y-80470714D01*
X93656559Y-80461272D01*
X94055220Y-80461272D01*
X94446000Y-80852052D01*
X94836780Y-80461272D01*
X95155220Y-80461272D01*
X95546000Y-80852052D01*
X95936780Y-80461272D01*
X95929561Y-80288814D01*
X95778373Y-80228149D01*
X95618255Y-80198146D01*
X95455360Y-80199956D01*
X95295949Y-80233511D01*
X95162439Y-80288814D01*
X95155220Y-80461272D01*
X94836780Y-80461272D01*
X94829561Y-80288814D01*
X94678373Y-80228149D01*
X94518255Y-80198146D01*
X94355360Y-80199956D01*
X94195949Y-80233511D01*
X94062439Y-80288814D01*
X94055220Y-80461272D01*
X93656559Y-80461272D01*
X93607929Y-80388494D01*
X93538006Y-80318571D01*
X93455786Y-80263633D01*
X93364428Y-80225792D01*
X93267443Y-80206500D01*
X93168557Y-80206500D01*
X93071572Y-80225792D01*
X92980214Y-80263633D01*
X92897994Y-80318571D01*
X92828071Y-80388494D01*
X92773133Y-80470714D01*
X92735292Y-80562072D01*
X92716000Y-80659057D01*
X86722369Y-80659057D01*
X86715708Y-80625572D01*
X86677867Y-80534214D01*
X86622929Y-80451994D01*
X86553006Y-80382071D01*
X86470786Y-80327133D01*
X86379428Y-80289292D01*
X86282443Y-80270000D01*
X86183557Y-80270000D01*
X86086572Y-80289292D01*
X85995214Y-80327133D01*
X85912994Y-80382071D01*
X85843071Y-80451994D01*
X85788133Y-80534214D01*
X85750292Y-80625572D01*
X85731000Y-80722557D01*
X84659734Y-80722557D01*
X84692786Y-80708867D01*
X84775006Y-80653929D01*
X84844929Y-80584006D01*
X84899867Y-80501786D01*
X84937708Y-80410428D01*
X84957000Y-80313443D01*
X84957000Y-80214557D01*
X84937708Y-80117572D01*
X84899867Y-80026214D01*
X84844929Y-79943994D01*
X84783935Y-79883000D01*
X84844929Y-79822006D01*
X84899867Y-79739786D01*
X84937708Y-79648428D01*
X84957000Y-79551443D01*
X84957000Y-79452557D01*
X84937708Y-79355572D01*
X84925276Y-79325557D01*
X92716000Y-79325557D01*
X92716000Y-79424443D01*
X92735292Y-79521428D01*
X92773133Y-79612786D01*
X92828071Y-79695006D01*
X92897994Y-79764929D01*
X92980214Y-79819867D01*
X93071572Y-79857708D01*
X93168557Y-79877000D01*
X93267443Y-79877000D01*
X93364428Y-79857708D01*
X93455786Y-79819867D01*
X93538006Y-79764929D01*
X93607929Y-79695006D01*
X93662867Y-79612786D01*
X93700708Y-79521428D01*
X93720000Y-79424443D01*
X93720000Y-79325557D01*
X93859000Y-79325557D01*
X93859000Y-79424443D01*
X93878292Y-79521428D01*
X93916133Y-79612786D01*
X93971071Y-79695006D01*
X94040994Y-79764929D01*
X94123214Y-79819867D01*
X94214572Y-79857708D01*
X94311557Y-79877000D01*
X94410443Y-79877000D01*
X94507428Y-79857708D01*
X94598786Y-79819867D01*
X94681006Y-79764929D01*
X94742000Y-79703935D01*
X94802994Y-79764929D01*
X94885214Y-79819867D01*
X94976572Y-79857708D01*
X95073557Y-79877000D01*
X95172443Y-79877000D01*
X95269428Y-79857708D01*
X95360786Y-79819867D01*
X95440500Y-79766603D01*
X95520214Y-79819867D01*
X95611572Y-79857708D01*
X95708557Y-79877000D01*
X95807443Y-79877000D01*
X95904428Y-79857708D01*
X95995786Y-79819867D01*
X96078006Y-79764929D01*
X96147929Y-79695006D01*
X96202867Y-79612786D01*
X96216630Y-79579557D01*
X97923000Y-79579557D01*
X97923000Y-79678443D01*
X97942292Y-79775428D01*
X97980133Y-79866786D01*
X98035071Y-79949006D01*
X98104994Y-80018929D01*
X98187214Y-80073867D01*
X98278572Y-80111708D01*
X98375557Y-80131000D01*
X98474443Y-80131000D01*
X98571428Y-80111708D01*
X98662786Y-80073867D01*
X98745006Y-80018929D01*
X98803378Y-79960557D01*
X101860000Y-79960557D01*
X101860000Y-80059443D01*
X101879292Y-80156428D01*
X101917133Y-80247786D01*
X101972071Y-80330006D01*
X102041994Y-80399929D01*
X102124214Y-80454867D01*
X102215572Y-80492708D01*
X102312557Y-80512000D01*
X102411443Y-80512000D01*
X102508428Y-80492708D01*
X102599786Y-80454867D01*
X102682006Y-80399929D01*
X102751929Y-80330006D01*
X102806867Y-80247786D01*
X102844708Y-80156428D01*
X102864000Y-80059443D01*
X102864000Y-79960557D01*
X102844708Y-79863572D01*
X102806867Y-79772214D01*
X102751929Y-79689994D01*
X102682006Y-79620071D01*
X102599786Y-79565133D01*
X102508428Y-79527292D01*
X102411443Y-79508000D01*
X102312557Y-79508000D01*
X102215572Y-79527292D01*
X102124214Y-79565133D01*
X102041994Y-79620071D01*
X101972071Y-79689994D01*
X101917133Y-79772214D01*
X101879292Y-79863572D01*
X101860000Y-79960557D01*
X98803378Y-79960557D01*
X98814929Y-79949006D01*
X98869867Y-79866786D01*
X98907708Y-79775428D01*
X98927000Y-79678443D01*
X98927000Y-79579557D01*
X98907708Y-79482572D01*
X98869867Y-79391214D01*
X98814929Y-79308994D01*
X98745006Y-79239071D01*
X98662786Y-79184133D01*
X98571428Y-79146292D01*
X98474443Y-79127000D01*
X98375557Y-79127000D01*
X98278572Y-79146292D01*
X98187214Y-79184133D01*
X98104994Y-79239071D01*
X98035071Y-79308994D01*
X97980133Y-79391214D01*
X97942292Y-79482572D01*
X97923000Y-79579557D01*
X96216630Y-79579557D01*
X96240708Y-79521428D01*
X96260000Y-79424443D01*
X96260000Y-79325557D01*
X96240708Y-79228572D01*
X96202867Y-79137214D01*
X96147929Y-79054994D01*
X96078006Y-78985071D01*
X95995786Y-78930133D01*
X95904428Y-78892292D01*
X95807443Y-78873000D01*
X95708557Y-78873000D01*
X95611572Y-78892292D01*
X95520214Y-78930133D01*
X95440500Y-78983397D01*
X95360786Y-78930133D01*
X95269428Y-78892292D01*
X95172443Y-78873000D01*
X95073557Y-78873000D01*
X94976572Y-78892292D01*
X94885214Y-78930133D01*
X94802994Y-78985071D01*
X94742000Y-79046065D01*
X94681006Y-78985071D01*
X94598786Y-78930133D01*
X94507428Y-78892292D01*
X94410443Y-78873000D01*
X94311557Y-78873000D01*
X94214572Y-78892292D01*
X94123214Y-78930133D01*
X94040994Y-78985071D01*
X93971071Y-79054994D01*
X93916133Y-79137214D01*
X93878292Y-79228572D01*
X93859000Y-79325557D01*
X93720000Y-79325557D01*
X93700708Y-79228572D01*
X93662867Y-79137214D01*
X93607929Y-79054994D01*
X93538006Y-78985071D01*
X93455786Y-78930133D01*
X93364428Y-78892292D01*
X93267443Y-78873000D01*
X93168557Y-78873000D01*
X93071572Y-78892292D01*
X92980214Y-78930133D01*
X92897994Y-78985071D01*
X92828071Y-79054994D01*
X92773133Y-79137214D01*
X92735292Y-79228572D01*
X92716000Y-79325557D01*
X84925276Y-79325557D01*
X84899867Y-79264214D01*
X84844929Y-79181994D01*
X84775006Y-79112071D01*
X84692786Y-79057133D01*
X84601428Y-79019292D01*
X84504443Y-79000000D01*
X84405557Y-79000000D01*
X84308572Y-79019292D01*
X84217214Y-79057133D01*
X84134994Y-79112071D01*
X84065071Y-79181994D01*
X84010133Y-79264214D01*
X83972292Y-79355572D01*
X83953000Y-79452557D01*
X81280000Y-79452557D01*
X81280000Y-77801557D01*
X83445000Y-77801557D01*
X83445000Y-77900443D01*
X83464292Y-77997428D01*
X83502133Y-78088786D01*
X83557071Y-78171006D01*
X83626994Y-78240929D01*
X83709214Y-78295867D01*
X83800572Y-78333708D01*
X83897557Y-78353000D01*
X83996443Y-78353000D01*
X84093428Y-78333708D01*
X84184786Y-78295867D01*
X84267006Y-78240929D01*
X84336929Y-78171006D01*
X84391867Y-78088786D01*
X84429708Y-77997428D01*
X84449000Y-77900443D01*
X84449000Y-77801557D01*
X86366000Y-77801557D01*
X86366000Y-77900443D01*
X86385292Y-77997428D01*
X86423133Y-78088786D01*
X86478071Y-78171006D01*
X86547994Y-78240929D01*
X86630214Y-78295867D01*
X86721572Y-78333708D01*
X86818557Y-78353000D01*
X86917443Y-78353000D01*
X87014428Y-78333708D01*
X87105786Y-78295867D01*
X87188006Y-78240929D01*
X87257929Y-78171006D01*
X87312867Y-78088786D01*
X87350708Y-77997428D01*
X87370000Y-77900443D01*
X87370000Y-77801557D01*
X87890000Y-77801557D01*
X87890000Y-77900443D01*
X87909292Y-77997428D01*
X87947133Y-78088786D01*
X88002071Y-78171006D01*
X88071994Y-78240929D01*
X88154214Y-78295867D01*
X88245572Y-78333708D01*
X88342557Y-78353000D01*
X88441443Y-78353000D01*
X88538428Y-78333708D01*
X88629786Y-78295867D01*
X88712006Y-78240929D01*
X88781929Y-78171006D01*
X88836867Y-78088786D01*
X88874708Y-77997428D01*
X88894000Y-77900443D01*
X88894000Y-77801557D01*
X89033000Y-77801557D01*
X89033000Y-77900443D01*
X89052292Y-77997428D01*
X89090133Y-78088786D01*
X89145071Y-78171006D01*
X89214994Y-78240929D01*
X89297214Y-78295867D01*
X89388572Y-78333708D01*
X89485557Y-78353000D01*
X89584443Y-78353000D01*
X89681428Y-78333708D01*
X89772786Y-78295867D01*
X89855006Y-78240929D01*
X89924929Y-78171006D01*
X89979867Y-78088786D01*
X90017708Y-77997428D01*
X90037000Y-77900443D01*
X90037000Y-77801557D01*
X90017708Y-77704572D01*
X90005276Y-77674557D01*
X92716000Y-77674557D01*
X92716000Y-77773443D01*
X92735292Y-77870428D01*
X92773133Y-77961786D01*
X92828071Y-78044006D01*
X92897994Y-78113929D01*
X92980214Y-78168867D01*
X93071572Y-78206708D01*
X93168557Y-78226000D01*
X93267443Y-78226000D01*
X93364428Y-78206708D01*
X93422734Y-78182557D01*
X93795500Y-78182557D01*
X93795500Y-78281443D01*
X93814792Y-78378428D01*
X93852633Y-78469786D01*
X93907571Y-78552006D01*
X93977494Y-78621929D01*
X94059714Y-78676867D01*
X94151072Y-78714708D01*
X94248057Y-78734000D01*
X94346943Y-78734000D01*
X94443928Y-78714708D01*
X94535286Y-78676867D01*
X94617506Y-78621929D01*
X94687429Y-78552006D01*
X94742367Y-78469786D01*
X94780208Y-78378428D01*
X94799500Y-78281443D01*
X94799500Y-78246057D01*
X95319500Y-78246057D01*
X95319500Y-78344943D01*
X95338792Y-78441928D01*
X95376633Y-78533286D01*
X95431571Y-78615506D01*
X95501494Y-78685429D01*
X95583714Y-78740367D01*
X95675072Y-78778208D01*
X95772057Y-78797500D01*
X95870943Y-78797500D01*
X95967928Y-78778208D01*
X96059286Y-78740367D01*
X96141506Y-78685429D01*
X96211429Y-78615506D01*
X96266367Y-78533286D01*
X96304208Y-78441928D01*
X96323500Y-78344943D01*
X96323500Y-78246057D01*
X96304208Y-78149072D01*
X96266367Y-78057714D01*
X96211429Y-77975494D01*
X96141506Y-77905571D01*
X96059286Y-77850633D01*
X95967928Y-77812792D01*
X95870943Y-77793500D01*
X95772057Y-77793500D01*
X95675072Y-77812792D01*
X95583714Y-77850633D01*
X95501494Y-77905571D01*
X95431571Y-77975494D01*
X95376633Y-78057714D01*
X95338792Y-78149072D01*
X95319500Y-78246057D01*
X94799500Y-78246057D01*
X94799500Y-78182557D01*
X94780208Y-78085572D01*
X94742367Y-77994214D01*
X94687429Y-77911994D01*
X94617506Y-77842071D01*
X94535286Y-77787133D01*
X94443928Y-77749292D01*
X94346943Y-77730000D01*
X94248057Y-77730000D01*
X94151072Y-77749292D01*
X94059714Y-77787133D01*
X93977494Y-77842071D01*
X93907571Y-77911994D01*
X93852633Y-77994214D01*
X93814792Y-78085572D01*
X93795500Y-78182557D01*
X93422734Y-78182557D01*
X93455786Y-78168867D01*
X93538006Y-78113929D01*
X93607929Y-78044006D01*
X93662867Y-77961786D01*
X93700708Y-77870428D01*
X93720000Y-77773443D01*
X93720000Y-77674557D01*
X93700708Y-77577572D01*
X93662867Y-77486214D01*
X93607929Y-77403994D01*
X93538006Y-77334071D01*
X93455786Y-77279133D01*
X93364428Y-77241292D01*
X93267443Y-77222000D01*
X93168557Y-77222000D01*
X93071572Y-77241292D01*
X92980214Y-77279133D01*
X92897994Y-77334071D01*
X92828071Y-77403994D01*
X92773133Y-77486214D01*
X92735292Y-77577572D01*
X92716000Y-77674557D01*
X90005276Y-77674557D01*
X89979867Y-77613214D01*
X89924929Y-77530994D01*
X89855006Y-77461071D01*
X89772786Y-77406133D01*
X89681428Y-77368292D01*
X89584443Y-77349000D01*
X89485557Y-77349000D01*
X89388572Y-77368292D01*
X89297214Y-77406133D01*
X89214994Y-77461071D01*
X89145071Y-77530994D01*
X89090133Y-77613214D01*
X89052292Y-77704572D01*
X89033000Y-77801557D01*
X88894000Y-77801557D01*
X88874708Y-77704572D01*
X88836867Y-77613214D01*
X88781929Y-77530994D01*
X88712006Y-77461071D01*
X88629786Y-77406133D01*
X88538428Y-77368292D01*
X88441443Y-77349000D01*
X88342557Y-77349000D01*
X88245572Y-77368292D01*
X88154214Y-77406133D01*
X88071994Y-77461071D01*
X88002071Y-77530994D01*
X87947133Y-77613214D01*
X87909292Y-77704572D01*
X87890000Y-77801557D01*
X87370000Y-77801557D01*
X87350708Y-77704572D01*
X87312867Y-77613214D01*
X87257929Y-77530994D01*
X87188006Y-77461071D01*
X87105786Y-77406133D01*
X87014428Y-77368292D01*
X86917443Y-77349000D01*
X86818557Y-77349000D01*
X86721572Y-77368292D01*
X86630214Y-77406133D01*
X86547994Y-77461071D01*
X86478071Y-77530994D01*
X86423133Y-77613214D01*
X86385292Y-77704572D01*
X86366000Y-77801557D01*
X84449000Y-77801557D01*
X84429708Y-77704572D01*
X84391867Y-77613214D01*
X84336929Y-77530994D01*
X84267006Y-77461071D01*
X84184786Y-77406133D01*
X84093428Y-77368292D01*
X83996443Y-77349000D01*
X83897557Y-77349000D01*
X83800572Y-77368292D01*
X83709214Y-77406133D01*
X83626994Y-77461071D01*
X83557071Y-77530994D01*
X83502133Y-77613214D01*
X83464292Y-77704572D01*
X83445000Y-77801557D01*
X81280000Y-77801557D01*
X81280000Y-77166557D01*
X100971000Y-77166557D01*
X100971000Y-77265443D01*
X100990292Y-77362428D01*
X101028133Y-77453786D01*
X101083071Y-77536006D01*
X101152994Y-77605929D01*
X101235214Y-77660867D01*
X101326572Y-77698708D01*
X101423557Y-77718000D01*
X101522443Y-77718000D01*
X101619428Y-77698708D01*
X101710786Y-77660867D01*
X101748007Y-77635997D01*
X101785227Y-77660867D01*
X101876585Y-77698708D01*
X101973570Y-77718000D01*
X102072456Y-77718000D01*
X102169441Y-77698708D01*
X102260799Y-77660867D01*
X102343019Y-77605929D01*
X102412942Y-77536006D01*
X102467880Y-77453786D01*
X102505721Y-77362428D01*
X102525013Y-77265443D01*
X102525013Y-77226920D01*
X102797185Y-77226920D01*
X102803204Y-77246783D01*
X102880249Y-77427470D01*
X102991064Y-77589655D01*
X103131390Y-77727104D01*
X103295835Y-77834536D01*
X103478079Y-77907822D01*
X103632000Y-77795676D01*
X103632000Y-77073000D01*
X102910704Y-77073000D01*
X102797185Y-77226920D01*
X102525013Y-77226920D01*
X102525013Y-77166557D01*
X102505721Y-77069572D01*
X102467880Y-76978214D01*
X102412942Y-76895994D01*
X102343019Y-76826071D01*
X102260799Y-76771133D01*
X102169441Y-76733292D01*
X102072456Y-76714000D01*
X101973570Y-76714000D01*
X101876585Y-76733292D01*
X101785227Y-76771133D01*
X101748006Y-76796003D01*
X101710786Y-76771133D01*
X101619428Y-76733292D01*
X101522443Y-76714000D01*
X101423557Y-76714000D01*
X101326572Y-76733292D01*
X101235214Y-76771133D01*
X101152994Y-76826071D01*
X101083071Y-76895994D01*
X101028133Y-76978214D01*
X100990292Y-77069572D01*
X100971000Y-77166557D01*
X81280000Y-77166557D01*
X81280000Y-76277557D01*
X96907000Y-76277557D01*
X96907000Y-76376443D01*
X96926292Y-76473428D01*
X96964133Y-76564786D01*
X97019071Y-76647006D01*
X97088994Y-76716929D01*
X97171214Y-76771867D01*
X97262572Y-76809708D01*
X97359557Y-76829000D01*
X97458443Y-76829000D01*
X97555428Y-76809708D01*
X97646786Y-76771867D01*
X97729006Y-76716929D01*
X97798929Y-76647006D01*
X97853867Y-76564786D01*
X97891708Y-76473428D01*
X97911000Y-76376443D01*
X97911000Y-76277557D01*
X97891708Y-76180572D01*
X97853867Y-76089214D01*
X97798929Y-76006994D01*
X97729006Y-75937071D01*
X97646786Y-75882133D01*
X97555428Y-75844292D01*
X97458443Y-75825000D01*
X97359557Y-75825000D01*
X97262572Y-75844292D01*
X97171214Y-75882133D01*
X97088994Y-75937071D01*
X97019071Y-76006994D01*
X96964133Y-76089214D01*
X96926292Y-76180572D01*
X96907000Y-76277557D01*
X81280000Y-76277557D01*
X81280000Y-74596835D01*
X81334571Y-74678506D01*
X81404494Y-74748429D01*
X81486714Y-74803367D01*
X81578072Y-74841208D01*
X81675057Y-74860500D01*
X81773943Y-74860500D01*
X81870928Y-74841208D01*
X81926794Y-74818068D01*
X81940292Y-74885928D01*
X81978133Y-74977286D01*
X82033071Y-75059506D01*
X82102994Y-75129429D01*
X82185214Y-75184367D01*
X82276572Y-75222208D01*
X82373557Y-75241500D01*
X82472443Y-75241500D01*
X82569428Y-75222208D01*
X82660786Y-75184367D01*
X82743006Y-75129429D01*
X82812929Y-75059506D01*
X82867867Y-74977286D01*
X82905708Y-74885928D01*
X82919206Y-74818068D01*
X82975072Y-74841208D01*
X83072057Y-74860500D01*
X83170943Y-74860500D01*
X83267928Y-74841208D01*
X83359286Y-74803367D01*
X83441506Y-74748429D01*
X83511429Y-74678506D01*
X83566367Y-74596286D01*
X83604208Y-74504928D01*
X83623500Y-74407943D01*
X83623500Y-74309057D01*
X83604208Y-74212072D01*
X83566367Y-74120714D01*
X83511429Y-74038494D01*
X83441506Y-73968571D01*
X83359286Y-73913633D01*
X83267928Y-73875792D01*
X83170943Y-73856500D01*
X83072057Y-73856500D01*
X82975072Y-73875792D01*
X82883714Y-73913633D01*
X82801494Y-73968571D01*
X82731571Y-74038494D01*
X82676633Y-74120714D01*
X82638792Y-74212072D01*
X82625294Y-74279932D01*
X82569428Y-74256792D01*
X82472443Y-74237500D01*
X82373557Y-74237500D01*
X82276572Y-74256792D01*
X82220706Y-74279932D01*
X82207208Y-74212072D01*
X82169367Y-74120714D01*
X82114429Y-74038494D01*
X82044506Y-73968571D01*
X81962286Y-73913633D01*
X81870928Y-73875792D01*
X81773943Y-73856500D01*
X81675057Y-73856500D01*
X81578072Y-73875792D01*
X81486714Y-73913633D01*
X81404494Y-73968571D01*
X81334571Y-74038494D01*
X81280000Y-74120165D01*
X81280000Y-73584822D01*
X85408780Y-73584822D01*
X85408780Y-73683708D01*
X85428072Y-73780693D01*
X85465913Y-73872051D01*
X85495999Y-73917078D01*
X85476413Y-73946391D01*
X85438572Y-74037749D01*
X85419280Y-74134734D01*
X85419280Y-74233620D01*
X85438572Y-74330605D01*
X85476413Y-74421963D01*
X85498294Y-74454710D01*
X85470457Y-74496371D01*
X85432616Y-74587729D01*
X85413324Y-74684714D01*
X85413324Y-74783600D01*
X85432616Y-74880585D01*
X85470457Y-74971943D01*
X85504379Y-75022710D01*
X85470633Y-75073214D01*
X85432792Y-75164572D01*
X85413500Y-75261557D01*
X85413500Y-75360443D01*
X85432792Y-75457428D01*
X85470633Y-75548786D01*
X85525571Y-75631006D01*
X85595494Y-75700929D01*
X85677714Y-75755867D01*
X85769072Y-75793708D01*
X85866057Y-75813000D01*
X85964943Y-75813000D01*
X86061928Y-75793708D01*
X86153286Y-75755867D01*
X86235506Y-75700929D01*
X86305429Y-75631006D01*
X86328266Y-75596829D01*
X86376214Y-75628867D01*
X86467572Y-75666708D01*
X86564557Y-75686000D01*
X86663443Y-75686000D01*
X86760428Y-75666708D01*
X86851786Y-75628867D01*
X86934006Y-75573929D01*
X87003929Y-75504006D01*
X87058867Y-75421786D01*
X87096708Y-75330428D01*
X87116000Y-75233443D01*
X87116000Y-75134557D01*
X88144000Y-75134557D01*
X88144000Y-75233443D01*
X88163292Y-75330428D01*
X88201133Y-75421786D01*
X88256071Y-75504006D01*
X88325994Y-75573929D01*
X88408214Y-75628867D01*
X88499572Y-75666708D01*
X88596557Y-75686000D01*
X88695443Y-75686000D01*
X88792428Y-75666708D01*
X88883786Y-75628867D01*
X88966006Y-75573929D01*
X89035929Y-75504006D01*
X89090867Y-75421786D01*
X89128708Y-75330428D01*
X89148000Y-75233443D01*
X89148000Y-75134557D01*
X89128708Y-75037572D01*
X89116276Y-75007557D01*
X94494000Y-75007557D01*
X94494000Y-75106443D01*
X94513292Y-75203428D01*
X94551133Y-75294786D01*
X94606071Y-75377006D01*
X94675994Y-75446929D01*
X94758214Y-75501867D01*
X94849572Y-75539708D01*
X94946557Y-75559000D01*
X95045443Y-75559000D01*
X95142428Y-75539708D01*
X95233786Y-75501867D01*
X95316006Y-75446929D01*
X95385929Y-75377006D01*
X95440867Y-75294786D01*
X95478708Y-75203428D01*
X95498000Y-75106443D01*
X95498000Y-75007557D01*
X95478708Y-74910572D01*
X95440867Y-74819214D01*
X95385929Y-74736994D01*
X95316006Y-74667071D01*
X95233786Y-74612133D01*
X95142428Y-74574292D01*
X95045443Y-74555000D01*
X94946557Y-74555000D01*
X94849572Y-74574292D01*
X94758214Y-74612133D01*
X94675994Y-74667071D01*
X94606071Y-74736994D01*
X94551133Y-74819214D01*
X94513292Y-74910572D01*
X94494000Y-75007557D01*
X89116276Y-75007557D01*
X89090867Y-74946214D01*
X89035929Y-74863994D01*
X88966006Y-74794071D01*
X88883786Y-74739133D01*
X88792428Y-74701292D01*
X88695443Y-74682000D01*
X88596557Y-74682000D01*
X88499572Y-74701292D01*
X88408214Y-74739133D01*
X88325994Y-74794071D01*
X88256071Y-74863994D01*
X88201133Y-74946214D01*
X88163292Y-75037572D01*
X88144000Y-75134557D01*
X87116000Y-75134557D01*
X87096708Y-75037572D01*
X87058867Y-74946214D01*
X87003929Y-74863994D01*
X86934006Y-74794071D01*
X86851786Y-74739133D01*
X86760428Y-74701292D01*
X86663443Y-74682000D01*
X86564557Y-74682000D01*
X86467572Y-74701292D01*
X86417324Y-74722105D01*
X86417324Y-74684714D01*
X86398032Y-74587729D01*
X86360191Y-74496371D01*
X86338310Y-74463624D01*
X86366147Y-74421963D01*
X86403988Y-74330605D01*
X86420905Y-74245557D01*
X92843000Y-74245557D01*
X92843000Y-74344443D01*
X92862292Y-74441428D01*
X92900133Y-74532786D01*
X92955071Y-74615006D01*
X93024994Y-74684929D01*
X93107214Y-74739867D01*
X93198572Y-74777708D01*
X93295557Y-74797000D01*
X93394443Y-74797000D01*
X93491428Y-74777708D01*
X93582786Y-74739867D01*
X93665006Y-74684929D01*
X93734929Y-74615006D01*
X93789867Y-74532786D01*
X93827708Y-74441428D01*
X93847000Y-74344443D01*
X93847000Y-74245557D01*
X93827708Y-74148572D01*
X93789867Y-74057214D01*
X93734929Y-73974994D01*
X93665006Y-73905071D01*
X93582786Y-73850133D01*
X93491428Y-73812292D01*
X93394443Y-73793000D01*
X93295557Y-73793000D01*
X93198572Y-73812292D01*
X93107214Y-73850133D01*
X93024994Y-73905071D01*
X92955071Y-73974994D01*
X92900133Y-74057214D01*
X92862292Y-74148572D01*
X92843000Y-74245557D01*
X86420905Y-74245557D01*
X86423280Y-74233620D01*
X86423280Y-74134734D01*
X86403988Y-74037749D01*
X86366147Y-73946391D01*
X86336061Y-73901364D01*
X86355647Y-73872051D01*
X86393488Y-73780693D01*
X86412780Y-73683708D01*
X86412780Y-73584822D01*
X86393488Y-73487837D01*
X86363060Y-73414375D01*
X86368929Y-73408506D01*
X86423867Y-73326286D01*
X86461708Y-73234928D01*
X86481000Y-73137943D01*
X86481000Y-73039057D01*
X86479045Y-73029225D01*
X96323658Y-73029225D01*
X96323658Y-73128111D01*
X96342950Y-73225096D01*
X96380791Y-73316454D01*
X96435729Y-73398674D01*
X96505652Y-73468597D01*
X96587872Y-73523535D01*
X96615305Y-73534898D01*
X96615305Y-73594432D01*
X96634597Y-73691417D01*
X96672438Y-73782775D01*
X96727376Y-73864995D01*
X96797299Y-73934918D01*
X96840069Y-73963496D01*
X96828571Y-73974994D01*
X96773633Y-74057214D01*
X96735792Y-74148572D01*
X96716500Y-74245557D01*
X96716500Y-74344443D01*
X96735792Y-74441428D01*
X96773633Y-74532786D01*
X96828571Y-74615006D01*
X96898494Y-74684929D01*
X96980714Y-74739867D01*
X97072072Y-74777708D01*
X97169057Y-74797000D01*
X97267943Y-74797000D01*
X97364928Y-74777708D01*
X97456286Y-74739867D01*
X97538506Y-74684929D01*
X97608429Y-74615006D01*
X97663367Y-74532786D01*
X97701208Y-74441428D01*
X97720500Y-74344443D01*
X97720500Y-74245557D01*
X97701208Y-74148572D01*
X97663367Y-74057214D01*
X97608429Y-73974994D01*
X97538506Y-73905071D01*
X97495736Y-73876493D01*
X97507234Y-73864995D01*
X97562172Y-73782775D01*
X97600013Y-73691417D01*
X97619305Y-73594432D01*
X97619305Y-73495546D01*
X97600013Y-73398561D01*
X97562172Y-73307203D01*
X97507234Y-73224983D01*
X97437311Y-73155060D01*
X97355091Y-73100122D01*
X97327658Y-73088759D01*
X97327658Y-73029225D01*
X97308366Y-72932240D01*
X97270525Y-72840882D01*
X97215587Y-72758662D01*
X97145664Y-72688739D01*
X97063444Y-72633801D01*
X96972086Y-72595960D01*
X96875101Y-72576668D01*
X96776215Y-72576668D01*
X96679230Y-72595960D01*
X96587872Y-72633801D01*
X96505652Y-72688739D01*
X96435729Y-72758662D01*
X96380791Y-72840882D01*
X96342950Y-72932240D01*
X96323658Y-73029225D01*
X86479045Y-73029225D01*
X86461708Y-72942072D01*
X86423867Y-72850714D01*
X86368929Y-72768494D01*
X86299006Y-72698571D01*
X86216786Y-72643633D01*
X86125428Y-72605792D01*
X86028443Y-72586500D01*
X85929557Y-72586500D01*
X85832572Y-72605792D01*
X85741214Y-72643633D01*
X85658994Y-72698571D01*
X85589071Y-72768494D01*
X85534133Y-72850714D01*
X85496292Y-72942072D01*
X85477000Y-73039057D01*
X85477000Y-73137943D01*
X85496292Y-73234928D01*
X85526720Y-73308390D01*
X85520851Y-73314259D01*
X85465913Y-73396479D01*
X85428072Y-73487837D01*
X85408780Y-73584822D01*
X81280000Y-73584822D01*
X81280000Y-72340557D01*
X92462000Y-72340557D01*
X92462000Y-72439443D01*
X92481292Y-72536428D01*
X92519133Y-72627786D01*
X92574071Y-72710006D01*
X92643994Y-72779929D01*
X92726214Y-72834867D01*
X92817572Y-72872708D01*
X92914557Y-72892000D01*
X93013443Y-72892000D01*
X93110428Y-72872708D01*
X93201786Y-72834867D01*
X93284006Y-72779929D01*
X93353929Y-72710006D01*
X93408867Y-72627786D01*
X93446708Y-72536428D01*
X93466000Y-72439443D01*
X93466000Y-72340557D01*
X93446708Y-72243572D01*
X93408867Y-72152214D01*
X93353929Y-72069994D01*
X93284006Y-72000071D01*
X93201786Y-71945133D01*
X93110428Y-71907292D01*
X93013443Y-71888000D01*
X92914557Y-71888000D01*
X92817572Y-71907292D01*
X92726214Y-71945133D01*
X92643994Y-72000071D01*
X92574071Y-72069994D01*
X92519133Y-72152214D01*
X92481292Y-72243572D01*
X92462000Y-72340557D01*
X81280000Y-72340557D01*
X81280000Y-71628000D01*
X88017000Y-71628000D01*
X88017000Y-71677443D01*
G04 #@! TA.AperFunction,Conductor*
D15*
G36*
X88017000Y-71677443D02*
G01*
X88036292Y-71774428D01*
X88074133Y-71865786D01*
X88129071Y-71948006D01*
X88198994Y-72017929D01*
X88281214Y-72072867D01*
X88372572Y-72110708D01*
X88469557Y-72130000D01*
X88568443Y-72130000D01*
X88665428Y-72110708D01*
X88756786Y-72072867D01*
X88839006Y-72017929D01*
X88908929Y-71948006D01*
X88963867Y-71865786D01*
X89001708Y-71774428D01*
X89021000Y-71677443D01*
X89021000Y-71628000D01*
X104267000Y-71628000D01*
X104267000Y-75256714D01*
X104238301Y-75248008D01*
X104184000Y-75242660D01*
X103334000Y-75242660D01*
X103279699Y-75248008D01*
X103227484Y-75263847D01*
X103179363Y-75289569D01*
X103137184Y-75324184D01*
X103102569Y-75366363D01*
X103076847Y-75414484D01*
X103061008Y-75466699D01*
X103055660Y-75521000D01*
X103055660Y-76239073D01*
X102991064Y-76302345D01*
X102880249Y-76464530D01*
X102803204Y-76645217D01*
X102797185Y-76665080D01*
X102910704Y-76819000D01*
X103632000Y-76819000D01*
X103632000Y-76799000D01*
X103886000Y-76799000D01*
X103886000Y-76819000D01*
X103906000Y-76819000D01*
X103906000Y-77073000D01*
X103886000Y-77073000D01*
X103886000Y-77795676D01*
X104039921Y-77907822D01*
X104222165Y-77834536D01*
X104267000Y-77805245D01*
X104267000Y-81713065D01*
X104206006Y-81652071D01*
X104123786Y-81597133D01*
X104032428Y-81559292D01*
X103935443Y-81540000D01*
X103836557Y-81540000D01*
X103739572Y-81559292D01*
X103648214Y-81597133D01*
X103565994Y-81652071D01*
X103496071Y-81721994D01*
X103441133Y-81804214D01*
X103403292Y-81895572D01*
X103384000Y-81992557D01*
X103384000Y-82091443D01*
X103403292Y-82188428D01*
X103441133Y-82279786D01*
X103496071Y-82362006D01*
X103565994Y-82431929D01*
X103648214Y-82486867D01*
X103739572Y-82524708D01*
X103836557Y-82544000D01*
X103935443Y-82544000D01*
X104032428Y-82524708D01*
X104123786Y-82486867D01*
X104206006Y-82431929D01*
X104267000Y-82370935D01*
X104267000Y-99441000D01*
X81280000Y-99441000D01*
X81280000Y-98756557D01*
X100662002Y-98756557D01*
X100662002Y-98855443D01*
X100681294Y-98952428D01*
X100719135Y-99043786D01*
X100774073Y-99126006D01*
X100843996Y-99195929D01*
X100926216Y-99250867D01*
X101017574Y-99288708D01*
X101114559Y-99308000D01*
X101213445Y-99308000D01*
X101310430Y-99288708D01*
X101401788Y-99250867D01*
X101484008Y-99195929D01*
X101553931Y-99126006D01*
X101608869Y-99043786D01*
X101646710Y-98952428D01*
X101666002Y-98855443D01*
X101666002Y-98756557D01*
X101646710Y-98659572D01*
X101608869Y-98568214D01*
X101553931Y-98485994D01*
X101484008Y-98416071D01*
X101401788Y-98361133D01*
X101310430Y-98323292D01*
X101213445Y-98304000D01*
X101114559Y-98304000D01*
X101017574Y-98323292D01*
X100926216Y-98361133D01*
X100843996Y-98416071D01*
X100774073Y-98485994D01*
X100719135Y-98568214D01*
X100681294Y-98659572D01*
X100662002Y-98756557D01*
X81280000Y-98756557D01*
X81280000Y-97867557D01*
X81413000Y-97867557D01*
X81413000Y-97966443D01*
X81432292Y-98063428D01*
X81470133Y-98154786D01*
X81525071Y-98237006D01*
X81594994Y-98306929D01*
X81677214Y-98361867D01*
X81768572Y-98399708D01*
X81865557Y-98419000D01*
X81964443Y-98419000D01*
X82061428Y-98399708D01*
X82152786Y-98361867D01*
X82235006Y-98306929D01*
X82304929Y-98237006D01*
X82359867Y-98154786D01*
X82397708Y-98063428D01*
X82417000Y-97966443D01*
X82417000Y-97867557D01*
X82397708Y-97770572D01*
X82359867Y-97679214D01*
X82304929Y-97596994D01*
X82235006Y-97527071D01*
X82152786Y-97472133D01*
X82061428Y-97434292D01*
X81964443Y-97415000D01*
X81865557Y-97415000D01*
X81768572Y-97434292D01*
X81677214Y-97472133D01*
X81594994Y-97527071D01*
X81525071Y-97596994D01*
X81470133Y-97679214D01*
X81432292Y-97770572D01*
X81413000Y-97867557D01*
X81280000Y-97867557D01*
X81280000Y-96978557D01*
X93224000Y-96978557D01*
X93224000Y-97077443D01*
X93243292Y-97174428D01*
X93281133Y-97265786D01*
X93336071Y-97348006D01*
X93405994Y-97417929D01*
X93488214Y-97472867D01*
X93579572Y-97510708D01*
X93676557Y-97530000D01*
X93775443Y-97530000D01*
X93872428Y-97510708D01*
X93963786Y-97472867D01*
X94046006Y-97417929D01*
X94115929Y-97348006D01*
X94170867Y-97265786D01*
X94208708Y-97174428D01*
X94228000Y-97077443D01*
X94228000Y-96978557D01*
X94208708Y-96881572D01*
X94170867Y-96790214D01*
X94115929Y-96707994D01*
X94046006Y-96638071D01*
X93963786Y-96583133D01*
X93872428Y-96545292D01*
X93775443Y-96526000D01*
X93676557Y-96526000D01*
X93579572Y-96545292D01*
X93488214Y-96583133D01*
X93405994Y-96638071D01*
X93336071Y-96707994D01*
X93281133Y-96790214D01*
X93243292Y-96881572D01*
X93224000Y-96978557D01*
X81280000Y-96978557D01*
X81280000Y-95073557D01*
X87001000Y-95073557D01*
X87001000Y-95172443D01*
X87020292Y-95269428D01*
X87058133Y-95360786D01*
X87113071Y-95443006D01*
X87182994Y-95512929D01*
X87265214Y-95567867D01*
X87356572Y-95605708D01*
X87453557Y-95625000D01*
X87552443Y-95625000D01*
X87649428Y-95605708D01*
X87740786Y-95567867D01*
X87823006Y-95512929D01*
X87892929Y-95443006D01*
X87947867Y-95360786D01*
X87985708Y-95269428D01*
X88005000Y-95172443D01*
X88005000Y-95073557D01*
X87985708Y-94976572D01*
X87947867Y-94885214D01*
X87892929Y-94802994D01*
X87823006Y-94733071D01*
X87740786Y-94678133D01*
X87649428Y-94640292D01*
X87592948Y-94629057D01*
X88525000Y-94629057D01*
X88525000Y-94727943D01*
X88544292Y-94824928D01*
X88582133Y-94916286D01*
X88637071Y-94998506D01*
X88706994Y-95068429D01*
X88789214Y-95123367D01*
X88880572Y-95161208D01*
X88977557Y-95180500D01*
X89076443Y-95180500D01*
X89173428Y-95161208D01*
X89264786Y-95123367D01*
X89347006Y-95068429D01*
X89416929Y-94998506D01*
X89471867Y-94916286D01*
X89509708Y-94824928D01*
X89529000Y-94727943D01*
X89529000Y-94629057D01*
X89516369Y-94565557D01*
X90100000Y-94565557D01*
X90100000Y-94664443D01*
X90119292Y-94761428D01*
X90157133Y-94852786D01*
X90212071Y-94935006D01*
X90281994Y-95004929D01*
X90364214Y-95059867D01*
X90455572Y-95097708D01*
X90552557Y-95117000D01*
X90651443Y-95117000D01*
X90748428Y-95097708D01*
X90839786Y-95059867D01*
X90922006Y-95004929D01*
X90991929Y-94935006D01*
X91046867Y-94852786D01*
X91084708Y-94761428D01*
X91104000Y-94664443D01*
X91104000Y-94565557D01*
X91084708Y-94468572D01*
X91046867Y-94377214D01*
X90991929Y-94294994D01*
X90922006Y-94225071D01*
X90839786Y-94170133D01*
X90748428Y-94132292D01*
X90651443Y-94113000D01*
X90552557Y-94113000D01*
X90455572Y-94132292D01*
X90364214Y-94170133D01*
X90281994Y-94225071D01*
X90212071Y-94294994D01*
X90157133Y-94377214D01*
X90119292Y-94468572D01*
X90100000Y-94565557D01*
X89516369Y-94565557D01*
X89509708Y-94532072D01*
X89471867Y-94440714D01*
X89416929Y-94358494D01*
X89347006Y-94288571D01*
X89264786Y-94233633D01*
X89173428Y-94195792D01*
X89076443Y-94176500D01*
X88977557Y-94176500D01*
X88880572Y-94195792D01*
X88789214Y-94233633D01*
X88706994Y-94288571D01*
X88637071Y-94358494D01*
X88582133Y-94440714D01*
X88544292Y-94532072D01*
X88525000Y-94629057D01*
X87592948Y-94629057D01*
X87552443Y-94621000D01*
X87453557Y-94621000D01*
X87356572Y-94640292D01*
X87265214Y-94678133D01*
X87182994Y-94733071D01*
X87113071Y-94802994D01*
X87058133Y-94885214D01*
X87020292Y-94976572D01*
X87001000Y-95073557D01*
X81280000Y-95073557D01*
X81280000Y-93803557D01*
X96145000Y-93803557D01*
X96145000Y-93902443D01*
X96164292Y-93999428D01*
X96202133Y-94090786D01*
X96257071Y-94173006D01*
X96326994Y-94242929D01*
X96342781Y-94253478D01*
X96339722Y-94260863D01*
X96320430Y-94357848D01*
X96320430Y-94456734D01*
X96339722Y-94553719D01*
X96377563Y-94645077D01*
X96432501Y-94727297D01*
X96502424Y-94797220D01*
X96584644Y-94852158D01*
X96676002Y-94889999D01*
X96772987Y-94909291D01*
X96871873Y-94909291D01*
X96907000Y-94902304D01*
X96907000Y-94918443D01*
X96926292Y-95015428D01*
X96964133Y-95106786D01*
X97019071Y-95189006D01*
X97088994Y-95258929D01*
X97171214Y-95313867D01*
X97262572Y-95351708D01*
X97359557Y-95371000D01*
X97458443Y-95371000D01*
X97555428Y-95351708D01*
X97646786Y-95313867D01*
X97729006Y-95258929D01*
X97798929Y-95189006D01*
X97853867Y-95106786D01*
X97891708Y-95015428D01*
X97911000Y-94918443D01*
X97911000Y-94819557D01*
X97891708Y-94722572D01*
X97853867Y-94631214D01*
X97798929Y-94548994D01*
X97729006Y-94479071D01*
X97646786Y-94424133D01*
X97555428Y-94386292D01*
X97458443Y-94367000D01*
X97359557Y-94367000D01*
X97324430Y-94373987D01*
X97324430Y-94357848D01*
X97313781Y-94304315D01*
X97389572Y-94335708D01*
X97486557Y-94355000D01*
X97585443Y-94355000D01*
X97682428Y-94335708D01*
X97773786Y-94297867D01*
X97856006Y-94242929D01*
X97925929Y-94173006D01*
X97980867Y-94090786D01*
X98018708Y-93999428D01*
X98038000Y-93902443D01*
X98038000Y-93803557D01*
X98018708Y-93706572D01*
X98006276Y-93676557D01*
X102759823Y-93676557D01*
X102759823Y-93775443D01*
X102779115Y-93872428D01*
X102816956Y-93963786D01*
X102871894Y-94046006D01*
X102941817Y-94115929D01*
X103024037Y-94170867D01*
X103115395Y-94208708D01*
X103212380Y-94228000D01*
X103311266Y-94228000D01*
X103408251Y-94208708D01*
X103499609Y-94170867D01*
X103581829Y-94115929D01*
X103651752Y-94046006D01*
X103706690Y-93963786D01*
X103744531Y-93872428D01*
X103763823Y-93775443D01*
X103763823Y-93676557D01*
X103744531Y-93579572D01*
X103706690Y-93488214D01*
X103696104Y-93472371D01*
X103731782Y-93448532D01*
X103801705Y-93378609D01*
X103856643Y-93296389D01*
X103894484Y-93205031D01*
X103913776Y-93108046D01*
X103913776Y-93009160D01*
X103894484Y-92912175D01*
X103856643Y-92820817D01*
X103801705Y-92738597D01*
X103731782Y-92668674D01*
X103649562Y-92613736D01*
X103558204Y-92575895D01*
X103461219Y-92556603D01*
X103362333Y-92556603D01*
X103265348Y-92575895D01*
X103173990Y-92613736D01*
X103091770Y-92668674D01*
X103021847Y-92738597D01*
X102966909Y-92820817D01*
X102929068Y-92912175D01*
X102909776Y-93009160D01*
X102909776Y-93108046D01*
X102929068Y-93205031D01*
X102966909Y-93296389D01*
X102977495Y-93312232D01*
X102941817Y-93336071D01*
X102871894Y-93405994D01*
X102816956Y-93488214D01*
X102779115Y-93579572D01*
X102759823Y-93676557D01*
X98006276Y-93676557D01*
X97980867Y-93615214D01*
X97927603Y-93535500D01*
X97980867Y-93455786D01*
X98018708Y-93364428D01*
X98038000Y-93267443D01*
X98038000Y-93168557D01*
X98018708Y-93071572D01*
X97980867Y-92980214D01*
X97925929Y-92897994D01*
X97856006Y-92828071D01*
X97773786Y-92773133D01*
X97682428Y-92735292D01*
X97585443Y-92716000D01*
X97486557Y-92716000D01*
X97389572Y-92735292D01*
X97298214Y-92773133D01*
X97215994Y-92828071D01*
X97146071Y-92897994D01*
X97091133Y-92980214D01*
X97053292Y-93071572D01*
X97034000Y-93168557D01*
X97034000Y-93267443D01*
X97053292Y-93364428D01*
X97091133Y-93455786D01*
X97144397Y-93535500D01*
X97091500Y-93614665D01*
X97036929Y-93532994D01*
X96967006Y-93463071D01*
X96884786Y-93408133D01*
X96793428Y-93370292D01*
X96696443Y-93351000D01*
X96597557Y-93351000D01*
X96500572Y-93370292D01*
X96409214Y-93408133D01*
X96326994Y-93463071D01*
X96257071Y-93532994D01*
X96202133Y-93615214D01*
X96164292Y-93706572D01*
X96145000Y-93803557D01*
X81280000Y-93803557D01*
X81280000Y-92851057D01*
X82746500Y-92851057D01*
X82746500Y-92949943D01*
X82765792Y-93046928D01*
X82803633Y-93138286D01*
X82858571Y-93220506D01*
X82928494Y-93290429D01*
X83010714Y-93345367D01*
X83102072Y-93383208D01*
X83199057Y-93402500D01*
X83297943Y-93402500D01*
X83394928Y-93383208D01*
X83486286Y-93345367D01*
X83568506Y-93290429D01*
X83638429Y-93220506D01*
X83693367Y-93138286D01*
X83705188Y-93109747D01*
X83772714Y-93154867D01*
X83864072Y-93192708D01*
X83961057Y-93212000D01*
X84059943Y-93212000D01*
X84156928Y-93192708D01*
X84248286Y-93154867D01*
X84330506Y-93099929D01*
X84400429Y-93030006D01*
X84455367Y-92947786D01*
X84469130Y-92914557D01*
X90430000Y-92914557D01*
X90430000Y-93013443D01*
X90449292Y-93110428D01*
X90487133Y-93201786D01*
X90542071Y-93284006D01*
X90611994Y-93353929D01*
X90694214Y-93408867D01*
X90785572Y-93446708D01*
X90882557Y-93466000D01*
X90981443Y-93466000D01*
X91078428Y-93446708D01*
X91169786Y-93408867D01*
X91252006Y-93353929D01*
X91321929Y-93284006D01*
X91376867Y-93201786D01*
X91414708Y-93110428D01*
X91434000Y-93013443D01*
X91434000Y-92914557D01*
X91414708Y-92817572D01*
X91376867Y-92726214D01*
X91321929Y-92643994D01*
X91252006Y-92574071D01*
X91169786Y-92519133D01*
X91078428Y-92481292D01*
X90981443Y-92462000D01*
X90882557Y-92462000D01*
X90785572Y-92481292D01*
X90694214Y-92519133D01*
X90611994Y-92574071D01*
X90542071Y-92643994D01*
X90487133Y-92726214D01*
X90449292Y-92817572D01*
X90430000Y-92914557D01*
X84469130Y-92914557D01*
X84493208Y-92856428D01*
X84512500Y-92759443D01*
X84512500Y-92660557D01*
X84493208Y-92563572D01*
X84455367Y-92472214D01*
X84400429Y-92389994D01*
X84330506Y-92320071D01*
X84248286Y-92265133D01*
X84156928Y-92227292D01*
X84059943Y-92208000D01*
X83961057Y-92208000D01*
X83864072Y-92227292D01*
X83772714Y-92265133D01*
X83690494Y-92320071D01*
X83620571Y-92389994D01*
X83565633Y-92472214D01*
X83553812Y-92500753D01*
X83486286Y-92455633D01*
X83394928Y-92417792D01*
X83297943Y-92398500D01*
X83199057Y-92398500D01*
X83102072Y-92417792D01*
X83010714Y-92455633D01*
X82928494Y-92510571D01*
X82858571Y-92580494D01*
X82803633Y-92662714D01*
X82765792Y-92754072D01*
X82746500Y-92851057D01*
X81280000Y-92851057D01*
X81280000Y-91223419D01*
X98238718Y-91223419D01*
X98238718Y-91322305D01*
X98258010Y-91419290D01*
X98295851Y-91510648D01*
X98350789Y-91592868D01*
X98420712Y-91662791D01*
X98502932Y-91717729D01*
X98594290Y-91755570D01*
X98691275Y-91774862D01*
X98790161Y-91774862D01*
X98887146Y-91755570D01*
X98978504Y-91717729D01*
X99060724Y-91662791D01*
X99130647Y-91592868D01*
X99185585Y-91510648D01*
X99223426Y-91419290D01*
X99242718Y-91322305D01*
X99242718Y-91223419D01*
X99223426Y-91126434D01*
X99185585Y-91035076D01*
X99130647Y-90952856D01*
X99117858Y-90940067D01*
X101235377Y-90940067D01*
X101235377Y-91038953D01*
X101254669Y-91135938D01*
X101292510Y-91227296D01*
X101347448Y-91309516D01*
X101417371Y-91379439D01*
X101499591Y-91434377D01*
X101590949Y-91472218D01*
X101687934Y-91491510D01*
X101786820Y-91491510D01*
X101883805Y-91472218D01*
X101975163Y-91434377D01*
X102057383Y-91379439D01*
X102127306Y-91309516D01*
X102182244Y-91227296D01*
X102220085Y-91135938D01*
X102239377Y-91038953D01*
X102239377Y-90940067D01*
X102220085Y-90843082D01*
X102183832Y-90755557D01*
X102368000Y-90755557D01*
X102368000Y-90854443D01*
X102387292Y-90951428D01*
X102425133Y-91042786D01*
X102480071Y-91125006D01*
X102549994Y-91194929D01*
X102632214Y-91249867D01*
X102723572Y-91287708D01*
X102820557Y-91307000D01*
X102919443Y-91307000D01*
X103016428Y-91287708D01*
X103107786Y-91249867D01*
X103190006Y-91194929D01*
X103259929Y-91125006D01*
X103314867Y-91042786D01*
X103352708Y-90951428D01*
X103372000Y-90854443D01*
X103372000Y-90755557D01*
X103352708Y-90658572D01*
X103314867Y-90567214D01*
X103259929Y-90484994D01*
X103190006Y-90415071D01*
X103107786Y-90360133D01*
X103016428Y-90322292D01*
X102919443Y-90303000D01*
X102820557Y-90303000D01*
X102723572Y-90322292D01*
X102632214Y-90360133D01*
X102549994Y-90415071D01*
X102480071Y-90484994D01*
X102425133Y-90567214D01*
X102387292Y-90658572D01*
X102368000Y-90755557D01*
X102183832Y-90755557D01*
X102182244Y-90751724D01*
X102127306Y-90669504D01*
X102057383Y-90599581D01*
X101975163Y-90544643D01*
X101883805Y-90506802D01*
X101786820Y-90487510D01*
X101687934Y-90487510D01*
X101590949Y-90506802D01*
X101499591Y-90544643D01*
X101417371Y-90599581D01*
X101347448Y-90669504D01*
X101292510Y-90751724D01*
X101254669Y-90843082D01*
X101235377Y-90940067D01*
X99117858Y-90940067D01*
X99060724Y-90882933D01*
X98978504Y-90827995D01*
X98887146Y-90790154D01*
X98790161Y-90770862D01*
X98691275Y-90770862D01*
X98594290Y-90790154D01*
X98502932Y-90827995D01*
X98420712Y-90882933D01*
X98350789Y-90952856D01*
X98295851Y-91035076D01*
X98258010Y-91126434D01*
X98238718Y-91223419D01*
X81280000Y-91223419D01*
X81280000Y-88342557D01*
X83183968Y-88342557D01*
X83183968Y-88441443D01*
X83203260Y-88538428D01*
X83241101Y-88629786D01*
X83296039Y-88712006D01*
X83365962Y-88781929D01*
X83448182Y-88836867D01*
X83539540Y-88874708D01*
X83636525Y-88894000D01*
X83735411Y-88894000D01*
X83832396Y-88874708D01*
X83923754Y-88836867D01*
X84005974Y-88781929D01*
X84075897Y-88712006D01*
X84130835Y-88629786D01*
X84168676Y-88538428D01*
X84187968Y-88441443D01*
X84187968Y-88342557D01*
X84168676Y-88245572D01*
X84156244Y-88215557D01*
X84334000Y-88215557D01*
X84334000Y-88314443D01*
X84353292Y-88411428D01*
X84391133Y-88502786D01*
X84446071Y-88585006D01*
X84515994Y-88654929D01*
X84598214Y-88709867D01*
X84661633Y-88736136D01*
X84651504Y-88787057D01*
X84651504Y-88885943D01*
X84670796Y-88982928D01*
X84708637Y-89074286D01*
X84763575Y-89156506D01*
X84781922Y-89174853D01*
X84747608Y-89226206D01*
X84709767Y-89317564D01*
X84690475Y-89414549D01*
X84690475Y-89513435D01*
X84709767Y-89610420D01*
X84747608Y-89701778D01*
X84802546Y-89783998D01*
X84872469Y-89853921D01*
X84954689Y-89908859D01*
X85046047Y-89946700D01*
X85143032Y-89965992D01*
X85241918Y-89965992D01*
X85338903Y-89946700D01*
X85430261Y-89908859D01*
X85512481Y-89853921D01*
X85512813Y-89853589D01*
X85594254Y-89887323D01*
X85691239Y-89906615D01*
X85790125Y-89906615D01*
X85887110Y-89887323D01*
X85978468Y-89849482D01*
X86060688Y-89794544D01*
X86130611Y-89724621D01*
X86185549Y-89642401D01*
X86223390Y-89551043D01*
X86242682Y-89454058D01*
X86242682Y-89429585D01*
X86258418Y-89426455D01*
X86349776Y-89388614D01*
X86384878Y-89365159D01*
X87478404Y-89365159D01*
X87478404Y-89464045D01*
X87497696Y-89561030D01*
X87535537Y-89652388D01*
X87590475Y-89734608D01*
X87660398Y-89804531D01*
X87742618Y-89859469D01*
X87833976Y-89897310D01*
X87930961Y-89916602D01*
X88029847Y-89916602D01*
X88126832Y-89897310D01*
X88218190Y-89859469D01*
X88300410Y-89804531D01*
X88370333Y-89734608D01*
X88425271Y-89652388D01*
X88463112Y-89561030D01*
X88472609Y-89513288D01*
X88480792Y-89554428D01*
X88518633Y-89645786D01*
X88573571Y-89728006D01*
X88643494Y-89797929D01*
X88725714Y-89852867D01*
X88817072Y-89890708D01*
X88914057Y-89910000D01*
X89012943Y-89910000D01*
X89109928Y-89890708D01*
X89201286Y-89852867D01*
X89283506Y-89797929D01*
X89322879Y-89758556D01*
X89323582Y-89759609D01*
X89393505Y-89829532D01*
X89475725Y-89884470D01*
X89567083Y-89922311D01*
X89664068Y-89941603D01*
X89762954Y-89941603D01*
X89859939Y-89922311D01*
X89951297Y-89884470D01*
X89978105Y-89866557D01*
X99066000Y-89866557D01*
X99066000Y-89965443D01*
X99085292Y-90062428D01*
X99123133Y-90153786D01*
X99178071Y-90236006D01*
X99247994Y-90305929D01*
X99330214Y-90360867D01*
X99421572Y-90398708D01*
X99518557Y-90418000D01*
X99617443Y-90418000D01*
X99714428Y-90398708D01*
X99805786Y-90360867D01*
X99888006Y-90305929D01*
X99957929Y-90236006D01*
X100012867Y-90153786D01*
X100050708Y-90062428D01*
X100070000Y-89965443D01*
X100070000Y-89866557D01*
X100050708Y-89769572D01*
X100038276Y-89739557D01*
X101098000Y-89739557D01*
X101098000Y-89838443D01*
X101117292Y-89935428D01*
X101155133Y-90026786D01*
X101210071Y-90109006D01*
X101279994Y-90178929D01*
X101362214Y-90233867D01*
X101453572Y-90271708D01*
X101550557Y-90291000D01*
X101649443Y-90291000D01*
X101746428Y-90271708D01*
X101837786Y-90233867D01*
X101920006Y-90178929D01*
X101989929Y-90109006D01*
X102044867Y-90026786D01*
X102082708Y-89935428D01*
X102102000Y-89838443D01*
X102102000Y-89739557D01*
X102082708Y-89642572D01*
X102044867Y-89551214D01*
X101989929Y-89468994D01*
X101920006Y-89399071D01*
X101837786Y-89344133D01*
X101746428Y-89306292D01*
X101649443Y-89287000D01*
X101550557Y-89287000D01*
X101453572Y-89306292D01*
X101362214Y-89344133D01*
X101279994Y-89399071D01*
X101210071Y-89468994D01*
X101155133Y-89551214D01*
X101117292Y-89642572D01*
X101098000Y-89739557D01*
X100038276Y-89739557D01*
X100012867Y-89678214D01*
X99957929Y-89595994D01*
X99888006Y-89526071D01*
X99805786Y-89471133D01*
X99714428Y-89433292D01*
X99617443Y-89414000D01*
X99518557Y-89414000D01*
X99421572Y-89433292D01*
X99330214Y-89471133D01*
X99247994Y-89526071D01*
X99178071Y-89595994D01*
X99123133Y-89678214D01*
X99085292Y-89769572D01*
X99066000Y-89866557D01*
X89978105Y-89866557D01*
X90033517Y-89829532D01*
X90103440Y-89759609D01*
X90158378Y-89677389D01*
X90196219Y-89586031D01*
X90215511Y-89489046D01*
X90215511Y-89390160D01*
X90196219Y-89293175D01*
X90158378Y-89201817D01*
X90103440Y-89119597D01*
X90069835Y-89085992D01*
X90093572Y-89050468D01*
X90131413Y-88959110D01*
X90140374Y-88914057D01*
X91954000Y-88914057D01*
X91954000Y-89012943D01*
X91973292Y-89109928D01*
X92011133Y-89201286D01*
X92066071Y-89283506D01*
X92135994Y-89353429D01*
X92218214Y-89408367D01*
X92309572Y-89446208D01*
X92406557Y-89465500D01*
X92505443Y-89465500D01*
X92602428Y-89446208D01*
X92693786Y-89408367D01*
X92776006Y-89353429D01*
X92845929Y-89283506D01*
X92900867Y-89201286D01*
X92938708Y-89109928D01*
X92958000Y-89012943D01*
X92958000Y-88945022D01*
X92986204Y-88963867D01*
X93077562Y-89001708D01*
X93174547Y-89021000D01*
X93273433Y-89021000D01*
X93370418Y-89001708D01*
X93461776Y-88963867D01*
X93543996Y-88908929D01*
X93613919Y-88839006D01*
X93668857Y-88756786D01*
X93706698Y-88665428D01*
X93725990Y-88568443D01*
X93725990Y-88469557D01*
X93706698Y-88372572D01*
X93668857Y-88281214D01*
X93613919Y-88198994D01*
X93543996Y-88129071D01*
X93461776Y-88074133D01*
X93370418Y-88036292D01*
X93273433Y-88017000D01*
X93174547Y-88017000D01*
X93077562Y-88036292D01*
X92986204Y-88074133D01*
X92903984Y-88129071D01*
X92834061Y-88198994D01*
X92779123Y-88281214D01*
X92741282Y-88372572D01*
X92721990Y-88469557D01*
X92721990Y-88537478D01*
X92693786Y-88518633D01*
X92602428Y-88480792D01*
X92505443Y-88461500D01*
X92406557Y-88461500D01*
X92309572Y-88480792D01*
X92218214Y-88518633D01*
X92135994Y-88573571D01*
X92066071Y-88643494D01*
X92011133Y-88725714D01*
X91973292Y-88817072D01*
X91954000Y-88914057D01*
X90140374Y-88914057D01*
X90150705Y-88862125D01*
X90150705Y-88763239D01*
X90131413Y-88666254D01*
X90093572Y-88574896D01*
X90038634Y-88492676D01*
X89968711Y-88422753D01*
X89886491Y-88367815D01*
X89795133Y-88329974D01*
X89698148Y-88310682D01*
X89599262Y-88310682D01*
X89502277Y-88329974D01*
X89410919Y-88367815D01*
X89328699Y-88422753D01*
X89273617Y-88477836D01*
X89204926Y-88409145D01*
X89122706Y-88354207D01*
X89031348Y-88316366D01*
X88934363Y-88297074D01*
X88835477Y-88297074D01*
X88738492Y-88316366D01*
X88647134Y-88354207D01*
X88564914Y-88409145D01*
X88494991Y-88479068D01*
X88440053Y-88561288D01*
X88402212Y-88652646D01*
X88382920Y-88749631D01*
X88382920Y-88848517D01*
X88402212Y-88945502D01*
X88440053Y-89036860D01*
X88494991Y-89119080D01*
X88529645Y-89153734D01*
X88518633Y-89170214D01*
X88480792Y-89261572D01*
X88471295Y-89309314D01*
X88463112Y-89268174D01*
X88425271Y-89176816D01*
X88370333Y-89094596D01*
X88300410Y-89024673D01*
X88218190Y-88969735D01*
X88126832Y-88931894D01*
X88029847Y-88912602D01*
X87930961Y-88912602D01*
X87833976Y-88931894D01*
X87742618Y-88969735D01*
X87660398Y-89024673D01*
X87590475Y-89094596D01*
X87535537Y-89176816D01*
X87497696Y-89268174D01*
X87478404Y-89365159D01*
X86384878Y-89365159D01*
X86431996Y-89333676D01*
X86501919Y-89263753D01*
X86556857Y-89181533D01*
X86594698Y-89090175D01*
X86613990Y-88993190D01*
X86613990Y-88894304D01*
X86594698Y-88797319D01*
X86556857Y-88705961D01*
X86501919Y-88623741D01*
X86431996Y-88553818D01*
X86349776Y-88498880D01*
X86258418Y-88461039D01*
X86161433Y-88441747D01*
X86062547Y-88441747D01*
X85965562Y-88461039D01*
X85874204Y-88498880D01*
X85791984Y-88553818D01*
X85722061Y-88623741D01*
X85667123Y-88705961D01*
X85648376Y-88751222D01*
X85636212Y-88690072D01*
X85598371Y-88598714D01*
X85543433Y-88516494D01*
X85473510Y-88446571D01*
X85391290Y-88391633D01*
X85327871Y-88365364D01*
X85338000Y-88314443D01*
X85338000Y-88215557D01*
X85318708Y-88118572D01*
X85280867Y-88027214D01*
X85225929Y-87944994D01*
X85156006Y-87875071D01*
X85073786Y-87820133D01*
X84982428Y-87782292D01*
X84885443Y-87763000D01*
X84786557Y-87763000D01*
X84689572Y-87782292D01*
X84598214Y-87820133D01*
X84515994Y-87875071D01*
X84446071Y-87944994D01*
X84391133Y-88027214D01*
X84353292Y-88118572D01*
X84334000Y-88215557D01*
X84156244Y-88215557D01*
X84130835Y-88154214D01*
X84075897Y-88071994D01*
X84005974Y-88002071D01*
X83923754Y-87947133D01*
X83832396Y-87909292D01*
X83735411Y-87890000D01*
X83636525Y-87890000D01*
X83539540Y-87909292D01*
X83448182Y-87947133D01*
X83365962Y-88002071D01*
X83296039Y-88071994D01*
X83241101Y-88154214D01*
X83203260Y-88245572D01*
X83183968Y-88342557D01*
X81280000Y-88342557D01*
X81280000Y-86964278D01*
X87478885Y-86964278D01*
X87478885Y-87063164D01*
X87498177Y-87160149D01*
X87536018Y-87251507D01*
X87590956Y-87333727D01*
X87660879Y-87403650D01*
X87743099Y-87458588D01*
X87834457Y-87496429D01*
X87931442Y-87515721D01*
X88030328Y-87515721D01*
X88127313Y-87496429D01*
X88218671Y-87458588D01*
X88300891Y-87403650D01*
X88370814Y-87333727D01*
X88425752Y-87251507D01*
X88463593Y-87160149D01*
X88479825Y-87078547D01*
X92017500Y-87078547D01*
X92017500Y-87177433D01*
X92036792Y-87274418D01*
X92074633Y-87365776D01*
X92129571Y-87447996D01*
X92199494Y-87517919D01*
X92281714Y-87572857D01*
X92373072Y-87610698D01*
X92470057Y-87629990D01*
X92568943Y-87629990D01*
X92665928Y-87610698D01*
X92757286Y-87572857D01*
X92839506Y-87517919D01*
X92909429Y-87447996D01*
X92964367Y-87365776D01*
X93002208Y-87274418D01*
X93021500Y-87177433D01*
X93021500Y-87078547D01*
X93002208Y-86981562D01*
X92964367Y-86890204D01*
X92909429Y-86807984D01*
X92839506Y-86738061D01*
X92757286Y-86683123D01*
X92665928Y-86645282D01*
X92568943Y-86625990D01*
X92470057Y-86625990D01*
X92373072Y-86645282D01*
X92281714Y-86683123D01*
X92199494Y-86738061D01*
X92129571Y-86807984D01*
X92074633Y-86890204D01*
X92036792Y-86981562D01*
X92017500Y-87078547D01*
X88479825Y-87078547D01*
X88482885Y-87063164D01*
X88482885Y-86964278D01*
X88463593Y-86867293D01*
X88425752Y-86775935D01*
X88370814Y-86693715D01*
X88300891Y-86623792D01*
X88218671Y-86568854D01*
X88127313Y-86531013D01*
X88030328Y-86511721D01*
X87931442Y-86511721D01*
X87834457Y-86531013D01*
X87743099Y-86568854D01*
X87660879Y-86623792D01*
X87590956Y-86693715D01*
X87536018Y-86775935D01*
X87498177Y-86867293D01*
X87478885Y-86964278D01*
X81280000Y-86964278D01*
X81280000Y-85929557D01*
X101352000Y-85929557D01*
X101352000Y-86028443D01*
X101371292Y-86125428D01*
X101409133Y-86216786D01*
X101419967Y-86233000D01*
X101409133Y-86249214D01*
X101371292Y-86340572D01*
X101352000Y-86437557D01*
X101352000Y-86536443D01*
X101371292Y-86633428D01*
X101409133Y-86724786D01*
X101419967Y-86741000D01*
X101409133Y-86757214D01*
X101371292Y-86848572D01*
X101352000Y-86945557D01*
X101352000Y-87044443D01*
X101371292Y-87141428D01*
X101409133Y-87232786D01*
X101464071Y-87315006D01*
X101533994Y-87384929D01*
X101616214Y-87439867D01*
X101707572Y-87477708D01*
X101804557Y-87497000D01*
X101903443Y-87497000D01*
X102000428Y-87477708D01*
X102091786Y-87439867D01*
X102174006Y-87384929D01*
X102243929Y-87315006D01*
X102298867Y-87232786D01*
X102336708Y-87141428D01*
X102356000Y-87044443D01*
X102356000Y-86945557D01*
X102336708Y-86848572D01*
X102298867Y-86757214D01*
X102288033Y-86741000D01*
X102298867Y-86724786D01*
X102336708Y-86633428D01*
X102356000Y-86536443D01*
X102356000Y-86437557D01*
X102336708Y-86340572D01*
X102298867Y-86249214D01*
X102288033Y-86233000D01*
X102298867Y-86216786D01*
X102336708Y-86125428D01*
X102356000Y-86028443D01*
X102356000Y-85929557D01*
X102336708Y-85832572D01*
X102298867Y-85741214D01*
X102243929Y-85658994D01*
X102174006Y-85589071D01*
X102091786Y-85534133D01*
X102000428Y-85496292D01*
X101903443Y-85477000D01*
X101804557Y-85477000D01*
X101707572Y-85496292D01*
X101616214Y-85534133D01*
X101533994Y-85589071D01*
X101464071Y-85658994D01*
X101409133Y-85741214D01*
X101371292Y-85832572D01*
X101352000Y-85929557D01*
X81280000Y-85929557D01*
X81280000Y-85048355D01*
X84159991Y-85048355D01*
X84159991Y-85147241D01*
X84179283Y-85244226D01*
X84217124Y-85335584D01*
X84272062Y-85417804D01*
X84341985Y-85487727D01*
X84424205Y-85542665D01*
X84515563Y-85580506D01*
X84612548Y-85599798D01*
X84711434Y-85599798D01*
X84808419Y-85580506D01*
X84899777Y-85542665D01*
X84981997Y-85487727D01*
X85051920Y-85417804D01*
X85106858Y-85335584D01*
X85144699Y-85244226D01*
X85163991Y-85147241D01*
X85163991Y-85048355D01*
X85144699Y-84951370D01*
X85106858Y-84860012D01*
X85051920Y-84777792D01*
X84981997Y-84707869D01*
X84899777Y-84652931D01*
X84808419Y-84615090D01*
X84711434Y-84595798D01*
X84612548Y-84595798D01*
X84515563Y-84615090D01*
X84424205Y-84652931D01*
X84341985Y-84707869D01*
X84272062Y-84777792D01*
X84217124Y-84860012D01*
X84179283Y-84951370D01*
X84159991Y-85048355D01*
X81280000Y-85048355D01*
X81280000Y-84405557D01*
X86874000Y-84405557D01*
X86874000Y-84504443D01*
X86893292Y-84601428D01*
X86931133Y-84692786D01*
X86986071Y-84775006D01*
X87055994Y-84844929D01*
X87138214Y-84899867D01*
X87229572Y-84937708D01*
X87326557Y-84957000D01*
X87425443Y-84957000D01*
X87522428Y-84937708D01*
X87613786Y-84899867D01*
X87696006Y-84844929D01*
X87765929Y-84775006D01*
X87820867Y-84692786D01*
X87853060Y-84615064D01*
X87875071Y-84648006D01*
X87944994Y-84717929D01*
X88027214Y-84772867D01*
X88118572Y-84810708D01*
X88215557Y-84830000D01*
X88314443Y-84830000D01*
X88411428Y-84810708D01*
X88502786Y-84772867D01*
X88585006Y-84717929D01*
X88654929Y-84648006D01*
X88709867Y-84565786D01*
X88747708Y-84474428D01*
X88767000Y-84377443D01*
X88767000Y-84278557D01*
X88969500Y-84278557D01*
X88969500Y-84377443D01*
X88988792Y-84474428D01*
X89026633Y-84565786D01*
X89081571Y-84648006D01*
X89151494Y-84717929D01*
X89233714Y-84772867D01*
X89325072Y-84810708D01*
X89422057Y-84830000D01*
X89520943Y-84830000D01*
X89617928Y-84810708D01*
X89709286Y-84772867D01*
X89791506Y-84717929D01*
X89805908Y-84703527D01*
X91321816Y-84703527D01*
X91321816Y-84802413D01*
X91341108Y-84899398D01*
X91378949Y-84990756D01*
X91433887Y-85072976D01*
X91503810Y-85142899D01*
X91586030Y-85197837D01*
X91677388Y-85235678D01*
X91774373Y-85254970D01*
X91873259Y-85254970D01*
X91970244Y-85235678D01*
X92061602Y-85197837D01*
X92143822Y-85142899D01*
X92213745Y-85072976D01*
X92268683Y-84990756D01*
X92306524Y-84899398D01*
X92325816Y-84802413D01*
X92325816Y-84703527D01*
X92306524Y-84606542D01*
X92268683Y-84515184D01*
X92213745Y-84432964D01*
X92143822Y-84363041D01*
X92061602Y-84308103D01*
X92047646Y-84302322D01*
X97210834Y-84302322D01*
X97210834Y-84401208D01*
X97230126Y-84498193D01*
X97267967Y-84589551D01*
X97322905Y-84671771D01*
X97392828Y-84741694D01*
X97475048Y-84796632D01*
X97566406Y-84834473D01*
X97619144Y-84844964D01*
X97605500Y-84913557D01*
X97605500Y-85012443D01*
X97624792Y-85109428D01*
X97662633Y-85200786D01*
X97717571Y-85283006D01*
X97787494Y-85352929D01*
X97869714Y-85407867D01*
X97961072Y-85445708D01*
X98058057Y-85465000D01*
X98156943Y-85465000D01*
X98253928Y-85445708D01*
X98345286Y-85407867D01*
X98427506Y-85352929D01*
X98497429Y-85283006D01*
X98552367Y-85200786D01*
X98590208Y-85109428D01*
X98609500Y-85012443D01*
X98609500Y-84913557D01*
X98590208Y-84816572D01*
X98577776Y-84786557D01*
X100844000Y-84786557D01*
X100844000Y-84885443D01*
X100863292Y-84982428D01*
X100901133Y-85073786D01*
X100956071Y-85156006D01*
X101025994Y-85225929D01*
X101108214Y-85280867D01*
X101199572Y-85318708D01*
X101296557Y-85338000D01*
X101395443Y-85338000D01*
X101492428Y-85318708D01*
X101583786Y-85280867D01*
X101666006Y-85225929D01*
X101735929Y-85156006D01*
X101790867Y-85073786D01*
X101828708Y-84982428D01*
X101848000Y-84885443D01*
X101848000Y-84786557D01*
X101828708Y-84689572D01*
X101790867Y-84598214D01*
X101735929Y-84515994D01*
X101666006Y-84446071D01*
X101583786Y-84391133D01*
X101492428Y-84353292D01*
X101395443Y-84334000D01*
X101296557Y-84334000D01*
X101199572Y-84353292D01*
X101108214Y-84391133D01*
X101025994Y-84446071D01*
X100956071Y-84515994D01*
X100901133Y-84598214D01*
X100863292Y-84689572D01*
X100844000Y-84786557D01*
X98577776Y-84786557D01*
X98552367Y-84725214D01*
X98497429Y-84642994D01*
X98427506Y-84573071D01*
X98345286Y-84518133D01*
X98253928Y-84480292D01*
X98201190Y-84469801D01*
X98214834Y-84401208D01*
X98214834Y-84302322D01*
X98195542Y-84205337D01*
X98157701Y-84113979D01*
X98102763Y-84031759D01*
X98032840Y-83961836D01*
X97950620Y-83906898D01*
X97859262Y-83869057D01*
X97762277Y-83849765D01*
X97663391Y-83849765D01*
X97566406Y-83869057D01*
X97475048Y-83906898D01*
X97392828Y-83961836D01*
X97322905Y-84031759D01*
X97267967Y-84113979D01*
X97230126Y-84205337D01*
X97210834Y-84302322D01*
X92047646Y-84302322D01*
X91970244Y-84270262D01*
X91873259Y-84250970D01*
X91774373Y-84250970D01*
X91677388Y-84270262D01*
X91586030Y-84308103D01*
X91503810Y-84363041D01*
X91433887Y-84432964D01*
X91378949Y-84515184D01*
X91341108Y-84606542D01*
X91321816Y-84703527D01*
X89805908Y-84703527D01*
X89861429Y-84648006D01*
X89916367Y-84565786D01*
X89954208Y-84474428D01*
X89973500Y-84377443D01*
X89973500Y-84278557D01*
X89954208Y-84181572D01*
X89916367Y-84090214D01*
X89861429Y-84007994D01*
X89791506Y-83938071D01*
X89709286Y-83883133D01*
X89617928Y-83845292D01*
X89520943Y-83826000D01*
X89422057Y-83826000D01*
X89325072Y-83845292D01*
X89233714Y-83883133D01*
X89151494Y-83938071D01*
X89081571Y-84007994D01*
X89026633Y-84090214D01*
X88988792Y-84181572D01*
X88969500Y-84278557D01*
X88767000Y-84278557D01*
X88747708Y-84181572D01*
X88709867Y-84090214D01*
X88654929Y-84007994D01*
X88585006Y-83938071D01*
X88502786Y-83883133D01*
X88411428Y-83845292D01*
X88314443Y-83826000D01*
X88215557Y-83826000D01*
X88118572Y-83845292D01*
X88027214Y-83883133D01*
X87944994Y-83938071D01*
X87875071Y-84007994D01*
X87820133Y-84090214D01*
X87787940Y-84167936D01*
X87765929Y-84134994D01*
X87696006Y-84065071D01*
X87613786Y-84010133D01*
X87522428Y-83972292D01*
X87425443Y-83953000D01*
X87326557Y-83953000D01*
X87229572Y-83972292D01*
X87138214Y-84010133D01*
X87055994Y-84065071D01*
X86986071Y-84134994D01*
X86931133Y-84217214D01*
X86893292Y-84308572D01*
X86874000Y-84405557D01*
X81280000Y-84405557D01*
X81280000Y-82207740D01*
X97609796Y-82207740D01*
X97609796Y-82306626D01*
X97629088Y-82403611D01*
X97666929Y-82494969D01*
X97721694Y-82576930D01*
X97688292Y-82657572D01*
X97669000Y-82754557D01*
X97669000Y-82853443D01*
X97688292Y-82950428D01*
X97726133Y-83041786D01*
X97781071Y-83124006D01*
X97850994Y-83193929D01*
X97933214Y-83248867D01*
X98024572Y-83286708D01*
X98121557Y-83306000D01*
X98220443Y-83306000D01*
X98317428Y-83286708D01*
X98408786Y-83248867D01*
X98491006Y-83193929D01*
X98560929Y-83124006D01*
X98615867Y-83041786D01*
X98653708Y-82950428D01*
X98673000Y-82853443D01*
X98673000Y-82754557D01*
X98653708Y-82657572D01*
X98615867Y-82566214D01*
X98561102Y-82484253D01*
X98594504Y-82403611D01*
X98613796Y-82306626D01*
X98613796Y-82207740D01*
X98596255Y-82119557D01*
X99574000Y-82119557D01*
X99574000Y-82218443D01*
X99593292Y-82315428D01*
X99631133Y-82406786D01*
X99686071Y-82489006D01*
X99755994Y-82558929D01*
X99838214Y-82613867D01*
X99929572Y-82651708D01*
X100026557Y-82671000D01*
X100125443Y-82671000D01*
X100222428Y-82651708D01*
X100313786Y-82613867D01*
X100396006Y-82558929D01*
X100465929Y-82489006D01*
X100503453Y-82432847D01*
X101045930Y-82432847D01*
X101045930Y-82531733D01*
X101065222Y-82628718D01*
X101103063Y-82720076D01*
X101158001Y-82802296D01*
X101227924Y-82872219D01*
X101310144Y-82927157D01*
X101401502Y-82964998D01*
X101498487Y-82984290D01*
X101597373Y-82984290D01*
X101694358Y-82964998D01*
X101785716Y-82927157D01*
X101867936Y-82872219D01*
X101937859Y-82802296D01*
X101992797Y-82720076D01*
X102030638Y-82628718D01*
X102049930Y-82531733D01*
X102049930Y-82432847D01*
X102030638Y-82335862D01*
X101992797Y-82244504D01*
X101937859Y-82162284D01*
X101867936Y-82092361D01*
X101785716Y-82037423D01*
X101694358Y-81999582D01*
X101597373Y-81980290D01*
X101498487Y-81980290D01*
X101401502Y-81999582D01*
X101310144Y-82037423D01*
X101227924Y-82092361D01*
X101158001Y-82162284D01*
X101103063Y-82244504D01*
X101065222Y-82335862D01*
X101045930Y-82432847D01*
X100503453Y-82432847D01*
X100520867Y-82406786D01*
X100558708Y-82315428D01*
X100578000Y-82218443D01*
X100578000Y-82119557D01*
X100558708Y-82022572D01*
X100520867Y-81931214D01*
X100465929Y-81848994D01*
X100396006Y-81779071D01*
X100313786Y-81724133D01*
X100222428Y-81686292D01*
X100125443Y-81667000D01*
X100026557Y-81667000D01*
X99929572Y-81686292D01*
X99838214Y-81724133D01*
X99755994Y-81779071D01*
X99686071Y-81848994D01*
X99631133Y-81931214D01*
X99593292Y-82022572D01*
X99574000Y-82119557D01*
X98596255Y-82119557D01*
X98594504Y-82110755D01*
X98556663Y-82019397D01*
X98501725Y-81937177D01*
X98431802Y-81867254D01*
X98349582Y-81812316D01*
X98258224Y-81774475D01*
X98161239Y-81755183D01*
X98062353Y-81755183D01*
X97965368Y-81774475D01*
X97874010Y-81812316D01*
X97791790Y-81867254D01*
X97721867Y-81937177D01*
X97666929Y-82019397D01*
X97629088Y-82110755D01*
X97609796Y-82207740D01*
X81280000Y-82207740D01*
X81280000Y-81590728D01*
X94055220Y-81590728D01*
X94062439Y-81763186D01*
X94213627Y-81823851D01*
X94373745Y-81853854D01*
X94536640Y-81852044D01*
X94696051Y-81818489D01*
X94829561Y-81763186D01*
X94836780Y-81590728D01*
X95155220Y-81590728D01*
X95162439Y-81763186D01*
X95313627Y-81823851D01*
X95473745Y-81853854D01*
X95636640Y-81852044D01*
X95796051Y-81818489D01*
X95929561Y-81763186D01*
X95936780Y-81590728D01*
X95546000Y-81199948D01*
X95155220Y-81590728D01*
X94836780Y-81590728D01*
X94446000Y-81199948D01*
X94055220Y-81590728D01*
X81280000Y-81590728D01*
X81280000Y-79452557D01*
X83953000Y-79452557D01*
X83953000Y-79551443D01*
X83972292Y-79648428D01*
X84010133Y-79739786D01*
X84065071Y-79822006D01*
X84126065Y-79883000D01*
X84065071Y-79943994D01*
X84010133Y-80026214D01*
X83972292Y-80117572D01*
X83953000Y-80214557D01*
X83953000Y-80313443D01*
X83972292Y-80410428D01*
X84010133Y-80501786D01*
X84065071Y-80584006D01*
X84134994Y-80653929D01*
X84217214Y-80708867D01*
X84308572Y-80746708D01*
X84405557Y-80766000D01*
X84504443Y-80766000D01*
X84601428Y-80746708D01*
X84659734Y-80722557D01*
X85731000Y-80722557D01*
X85731000Y-80821443D01*
X85750292Y-80918428D01*
X85788133Y-81009786D01*
X85843071Y-81092006D01*
X85912994Y-81161929D01*
X85995214Y-81216867D01*
X86086572Y-81254708D01*
X86183557Y-81274000D01*
X86282443Y-81274000D01*
X86379428Y-81254708D01*
X86470786Y-81216867D01*
X86553006Y-81161929D01*
X86622929Y-81092006D01*
X86677867Y-81009786D01*
X86715708Y-80918428D01*
X86735000Y-80821443D01*
X86735000Y-80722557D01*
X86722369Y-80659057D01*
X92716000Y-80659057D01*
X92716000Y-80757943D01*
X92735292Y-80854928D01*
X92773133Y-80946286D01*
X92828071Y-81028506D01*
X92897994Y-81098429D01*
X92980214Y-81153367D01*
X93071572Y-81191208D01*
X93168557Y-81210500D01*
X93267443Y-81210500D01*
X93364428Y-81191208D01*
X93455786Y-81153367D01*
X93538006Y-81098429D01*
X93607929Y-81028506D01*
X93618796Y-81012243D01*
X93619956Y-81116640D01*
X93653511Y-81276051D01*
X93708814Y-81409561D01*
X93881272Y-81416780D01*
X94272052Y-81026000D01*
X94619948Y-81026000D01*
X94722454Y-81128506D01*
X94753511Y-81276051D01*
X94808814Y-81409561D01*
X94981272Y-81416780D01*
X94996000Y-81402052D01*
X95010728Y-81416780D01*
X95183186Y-81409561D01*
X95243851Y-81258373D01*
X95267872Y-81130180D01*
X95372052Y-81026000D01*
X95719948Y-81026000D01*
X96110728Y-81416780D01*
X96283186Y-81409561D01*
X96329532Y-81294057D01*
X96653000Y-81294057D01*
X96653000Y-81392943D01*
X96672292Y-81489928D01*
X96710133Y-81581286D01*
X96765071Y-81663506D01*
X96834994Y-81733429D01*
X96917214Y-81788367D01*
X97008572Y-81826208D01*
X97105557Y-81845500D01*
X97204443Y-81845500D01*
X97301428Y-81826208D01*
X97392786Y-81788367D01*
X97475006Y-81733429D01*
X97544929Y-81663506D01*
X97599867Y-81581286D01*
X97637708Y-81489928D01*
X97657000Y-81392943D01*
X97657000Y-81294057D01*
X97637708Y-81197072D01*
X97599867Y-81105714D01*
X97544929Y-81023494D01*
X97475006Y-80953571D01*
X97392786Y-80898633D01*
X97301428Y-80860792D01*
X97204443Y-80841500D01*
X97105557Y-80841500D01*
X97008572Y-80860792D01*
X96917214Y-80898633D01*
X96834994Y-80953571D01*
X96765071Y-81023494D01*
X96710133Y-81105714D01*
X96672292Y-81197072D01*
X96653000Y-81294057D01*
X96329532Y-81294057D01*
X96343851Y-81258373D01*
X96373854Y-81098255D01*
X96372044Y-80935360D01*
X96338489Y-80775949D01*
X96283186Y-80642439D01*
X96110728Y-80635220D01*
X95719948Y-81026000D01*
X95372052Y-81026000D01*
X95269546Y-80923494D01*
X95238489Y-80775949D01*
X95183186Y-80642439D01*
X95010728Y-80635220D01*
X94996000Y-80649948D01*
X94981272Y-80635220D01*
X94808814Y-80642439D01*
X94748149Y-80793627D01*
X94724128Y-80921820D01*
X94619948Y-81026000D01*
X94272052Y-81026000D01*
X93881272Y-80635220D01*
X93716629Y-80642112D01*
X93700708Y-80562072D01*
X93662867Y-80470714D01*
X93656559Y-80461272D01*
X94055220Y-80461272D01*
X94446000Y-80852052D01*
X94836780Y-80461272D01*
X95155220Y-80461272D01*
X95546000Y-80852052D01*
X95936780Y-80461272D01*
X95929561Y-80288814D01*
X95778373Y-80228149D01*
X95618255Y-80198146D01*
X95455360Y-80199956D01*
X95295949Y-80233511D01*
X95162439Y-80288814D01*
X95155220Y-80461272D01*
X94836780Y-80461272D01*
X94829561Y-80288814D01*
X94678373Y-80228149D01*
X94518255Y-80198146D01*
X94355360Y-80199956D01*
X94195949Y-80233511D01*
X94062439Y-80288814D01*
X94055220Y-80461272D01*
X93656559Y-80461272D01*
X93607929Y-80388494D01*
X93538006Y-80318571D01*
X93455786Y-80263633D01*
X93364428Y-80225792D01*
X93267443Y-80206500D01*
X93168557Y-80206500D01*
X93071572Y-80225792D01*
X92980214Y-80263633D01*
X92897994Y-80318571D01*
X92828071Y-80388494D01*
X92773133Y-80470714D01*
X92735292Y-80562072D01*
X92716000Y-80659057D01*
X86722369Y-80659057D01*
X86715708Y-80625572D01*
X86677867Y-80534214D01*
X86622929Y-80451994D01*
X86553006Y-80382071D01*
X86470786Y-80327133D01*
X86379428Y-80289292D01*
X86282443Y-80270000D01*
X86183557Y-80270000D01*
X86086572Y-80289292D01*
X85995214Y-80327133D01*
X85912994Y-80382071D01*
X85843071Y-80451994D01*
X85788133Y-80534214D01*
X85750292Y-80625572D01*
X85731000Y-80722557D01*
X84659734Y-80722557D01*
X84692786Y-80708867D01*
X84775006Y-80653929D01*
X84844929Y-80584006D01*
X84899867Y-80501786D01*
X84937708Y-80410428D01*
X84957000Y-80313443D01*
X84957000Y-80214557D01*
X84937708Y-80117572D01*
X84899867Y-80026214D01*
X84844929Y-79943994D01*
X84783935Y-79883000D01*
X84844929Y-79822006D01*
X84899867Y-79739786D01*
X84937708Y-79648428D01*
X84957000Y-79551443D01*
X84957000Y-79452557D01*
X84937708Y-79355572D01*
X84925276Y-79325557D01*
X92716000Y-79325557D01*
X92716000Y-79424443D01*
X92735292Y-79521428D01*
X92773133Y-79612786D01*
X92828071Y-79695006D01*
X92897994Y-79764929D01*
X92980214Y-79819867D01*
X93071572Y-79857708D01*
X93168557Y-79877000D01*
X93267443Y-79877000D01*
X93364428Y-79857708D01*
X93455786Y-79819867D01*
X93538006Y-79764929D01*
X93607929Y-79695006D01*
X93662867Y-79612786D01*
X93700708Y-79521428D01*
X93720000Y-79424443D01*
X93720000Y-79325557D01*
X93859000Y-79325557D01*
X93859000Y-79424443D01*
X93878292Y-79521428D01*
X93916133Y-79612786D01*
X93971071Y-79695006D01*
X94040994Y-79764929D01*
X94123214Y-79819867D01*
X94214572Y-79857708D01*
X94311557Y-79877000D01*
X94410443Y-79877000D01*
X94507428Y-79857708D01*
X94598786Y-79819867D01*
X94681006Y-79764929D01*
X94742000Y-79703935D01*
X94802994Y-79764929D01*
X94885214Y-79819867D01*
X94976572Y-79857708D01*
X95073557Y-79877000D01*
X95172443Y-79877000D01*
X95269428Y-79857708D01*
X95360786Y-79819867D01*
X95440500Y-79766603D01*
X95520214Y-79819867D01*
X95611572Y-79857708D01*
X95708557Y-79877000D01*
X95807443Y-79877000D01*
X95904428Y-79857708D01*
X95995786Y-79819867D01*
X96078006Y-79764929D01*
X96147929Y-79695006D01*
X96202867Y-79612786D01*
X96216630Y-79579557D01*
X97923000Y-79579557D01*
X97923000Y-79678443D01*
X97942292Y-79775428D01*
X97980133Y-79866786D01*
X98035071Y-79949006D01*
X98104994Y-80018929D01*
X98187214Y-80073867D01*
X98278572Y-80111708D01*
X98375557Y-80131000D01*
X98474443Y-80131000D01*
X98571428Y-80111708D01*
X98662786Y-80073867D01*
X98745006Y-80018929D01*
X98803378Y-79960557D01*
X101860000Y-79960557D01*
X101860000Y-80059443D01*
X101879292Y-80156428D01*
X101917133Y-80247786D01*
X101972071Y-80330006D01*
X102041994Y-80399929D01*
X102124214Y-80454867D01*
X102215572Y-80492708D01*
X102312557Y-80512000D01*
X102411443Y-80512000D01*
X102508428Y-80492708D01*
X102599786Y-80454867D01*
X102682006Y-80399929D01*
X102751929Y-80330006D01*
X102806867Y-80247786D01*
X102844708Y-80156428D01*
X102864000Y-80059443D01*
X102864000Y-79960557D01*
X102844708Y-79863572D01*
X102806867Y-79772214D01*
X102751929Y-79689994D01*
X102682006Y-79620071D01*
X102599786Y-79565133D01*
X102508428Y-79527292D01*
X102411443Y-79508000D01*
X102312557Y-79508000D01*
X102215572Y-79527292D01*
X102124214Y-79565133D01*
X102041994Y-79620071D01*
X101972071Y-79689994D01*
X101917133Y-79772214D01*
X101879292Y-79863572D01*
X101860000Y-79960557D01*
X98803378Y-79960557D01*
X98814929Y-79949006D01*
X98869867Y-79866786D01*
X98907708Y-79775428D01*
X98927000Y-79678443D01*
X98927000Y-79579557D01*
X98907708Y-79482572D01*
X98869867Y-79391214D01*
X98814929Y-79308994D01*
X98745006Y-79239071D01*
X98662786Y-79184133D01*
X98571428Y-79146292D01*
X98474443Y-79127000D01*
X98375557Y-79127000D01*
X98278572Y-79146292D01*
X98187214Y-79184133D01*
X98104994Y-79239071D01*
X98035071Y-79308994D01*
X97980133Y-79391214D01*
X97942292Y-79482572D01*
X97923000Y-79579557D01*
X96216630Y-79579557D01*
X96240708Y-79521428D01*
X96260000Y-79424443D01*
X96260000Y-79325557D01*
X96240708Y-79228572D01*
X96202867Y-79137214D01*
X96147929Y-79054994D01*
X96078006Y-78985071D01*
X95995786Y-78930133D01*
X95904428Y-78892292D01*
X95807443Y-78873000D01*
X95708557Y-78873000D01*
X95611572Y-78892292D01*
X95520214Y-78930133D01*
X95440500Y-78983397D01*
X95360786Y-78930133D01*
X95269428Y-78892292D01*
X95172443Y-78873000D01*
X95073557Y-78873000D01*
X94976572Y-78892292D01*
X94885214Y-78930133D01*
X94802994Y-78985071D01*
X94742000Y-79046065D01*
X94681006Y-78985071D01*
X94598786Y-78930133D01*
X94507428Y-78892292D01*
X94410443Y-78873000D01*
X94311557Y-78873000D01*
X94214572Y-78892292D01*
X94123214Y-78930133D01*
X94040994Y-78985071D01*
X93971071Y-79054994D01*
X93916133Y-79137214D01*
X93878292Y-79228572D01*
X93859000Y-79325557D01*
X93720000Y-79325557D01*
X93700708Y-79228572D01*
X93662867Y-79137214D01*
X93607929Y-79054994D01*
X93538006Y-78985071D01*
X93455786Y-78930133D01*
X93364428Y-78892292D01*
X93267443Y-78873000D01*
X93168557Y-78873000D01*
X93071572Y-78892292D01*
X92980214Y-78930133D01*
X92897994Y-78985071D01*
X92828071Y-79054994D01*
X92773133Y-79137214D01*
X92735292Y-79228572D01*
X92716000Y-79325557D01*
X84925276Y-79325557D01*
X84899867Y-79264214D01*
X84844929Y-79181994D01*
X84775006Y-79112071D01*
X84692786Y-79057133D01*
X84601428Y-79019292D01*
X84504443Y-79000000D01*
X84405557Y-79000000D01*
X84308572Y-79019292D01*
X84217214Y-79057133D01*
X84134994Y-79112071D01*
X84065071Y-79181994D01*
X84010133Y-79264214D01*
X83972292Y-79355572D01*
X83953000Y-79452557D01*
X81280000Y-79452557D01*
X81280000Y-77801557D01*
X83445000Y-77801557D01*
X83445000Y-77900443D01*
X83464292Y-77997428D01*
X83502133Y-78088786D01*
X83557071Y-78171006D01*
X83626994Y-78240929D01*
X83709214Y-78295867D01*
X83800572Y-78333708D01*
X83897557Y-78353000D01*
X83996443Y-78353000D01*
X84093428Y-78333708D01*
X84184786Y-78295867D01*
X84267006Y-78240929D01*
X84336929Y-78171006D01*
X84391867Y-78088786D01*
X84429708Y-77997428D01*
X84449000Y-77900443D01*
X84449000Y-77801557D01*
X86366000Y-77801557D01*
X86366000Y-77900443D01*
X86385292Y-77997428D01*
X86423133Y-78088786D01*
X86478071Y-78171006D01*
X86547994Y-78240929D01*
X86630214Y-78295867D01*
X86721572Y-78333708D01*
X86818557Y-78353000D01*
X86917443Y-78353000D01*
X87014428Y-78333708D01*
X87105786Y-78295867D01*
X87188006Y-78240929D01*
X87257929Y-78171006D01*
X87312867Y-78088786D01*
X87350708Y-77997428D01*
X87370000Y-77900443D01*
X87370000Y-77801557D01*
X87890000Y-77801557D01*
X87890000Y-77900443D01*
X87909292Y-77997428D01*
X87947133Y-78088786D01*
X88002071Y-78171006D01*
X88071994Y-78240929D01*
X88154214Y-78295867D01*
X88245572Y-78333708D01*
X88342557Y-78353000D01*
X88441443Y-78353000D01*
X88538428Y-78333708D01*
X88629786Y-78295867D01*
X88712006Y-78240929D01*
X88781929Y-78171006D01*
X88836867Y-78088786D01*
X88874708Y-77997428D01*
X88894000Y-77900443D01*
X88894000Y-77801557D01*
X89033000Y-77801557D01*
X89033000Y-77900443D01*
X89052292Y-77997428D01*
X89090133Y-78088786D01*
X89145071Y-78171006D01*
X89214994Y-78240929D01*
X89297214Y-78295867D01*
X89388572Y-78333708D01*
X89485557Y-78353000D01*
X89584443Y-78353000D01*
X89681428Y-78333708D01*
X89772786Y-78295867D01*
X89855006Y-78240929D01*
X89924929Y-78171006D01*
X89979867Y-78088786D01*
X90017708Y-77997428D01*
X90037000Y-77900443D01*
X90037000Y-77801557D01*
X90017708Y-77704572D01*
X90005276Y-77674557D01*
X92716000Y-77674557D01*
X92716000Y-77773443D01*
X92735292Y-77870428D01*
X92773133Y-77961786D01*
X92828071Y-78044006D01*
X92897994Y-78113929D01*
X92980214Y-78168867D01*
X93071572Y-78206708D01*
X93168557Y-78226000D01*
X93267443Y-78226000D01*
X93364428Y-78206708D01*
X93422734Y-78182557D01*
X93795500Y-78182557D01*
X93795500Y-78281443D01*
X93814792Y-78378428D01*
X93852633Y-78469786D01*
X93907571Y-78552006D01*
X93977494Y-78621929D01*
X94059714Y-78676867D01*
X94151072Y-78714708D01*
X94248057Y-78734000D01*
X94346943Y-78734000D01*
X94443928Y-78714708D01*
X94535286Y-78676867D01*
X94617506Y-78621929D01*
X94687429Y-78552006D01*
X94742367Y-78469786D01*
X94780208Y-78378428D01*
X94799500Y-78281443D01*
X94799500Y-78246057D01*
X95319500Y-78246057D01*
X95319500Y-78344943D01*
X95338792Y-78441928D01*
X95376633Y-78533286D01*
X95431571Y-78615506D01*
X95501494Y-78685429D01*
X95583714Y-78740367D01*
X95675072Y-78778208D01*
X95772057Y-78797500D01*
X95870943Y-78797500D01*
X95967928Y-78778208D01*
X96059286Y-78740367D01*
X96141506Y-78685429D01*
X96211429Y-78615506D01*
X96266367Y-78533286D01*
X96304208Y-78441928D01*
X96323500Y-78344943D01*
X96323500Y-78246057D01*
X96304208Y-78149072D01*
X96266367Y-78057714D01*
X96211429Y-77975494D01*
X96141506Y-77905571D01*
X96059286Y-77850633D01*
X95967928Y-77812792D01*
X95870943Y-77793500D01*
X95772057Y-77793500D01*
X95675072Y-77812792D01*
X95583714Y-77850633D01*
X95501494Y-77905571D01*
X95431571Y-77975494D01*
X95376633Y-78057714D01*
X95338792Y-78149072D01*
X95319500Y-78246057D01*
X94799500Y-78246057D01*
X94799500Y-78182557D01*
X94780208Y-78085572D01*
X94742367Y-77994214D01*
X94687429Y-77911994D01*
X94617506Y-77842071D01*
X94535286Y-77787133D01*
X94443928Y-77749292D01*
X94346943Y-77730000D01*
X94248057Y-77730000D01*
X94151072Y-77749292D01*
X94059714Y-77787133D01*
X93977494Y-77842071D01*
X93907571Y-77911994D01*
X93852633Y-77994214D01*
X93814792Y-78085572D01*
X93795500Y-78182557D01*
X93422734Y-78182557D01*
X93455786Y-78168867D01*
X93538006Y-78113929D01*
X93607929Y-78044006D01*
X93662867Y-77961786D01*
X93700708Y-77870428D01*
X93720000Y-77773443D01*
X93720000Y-77674557D01*
X93700708Y-77577572D01*
X93662867Y-77486214D01*
X93607929Y-77403994D01*
X93538006Y-77334071D01*
X93455786Y-77279133D01*
X93364428Y-77241292D01*
X93267443Y-77222000D01*
X93168557Y-77222000D01*
X93071572Y-77241292D01*
X92980214Y-77279133D01*
X92897994Y-77334071D01*
X92828071Y-77403994D01*
X92773133Y-77486214D01*
X92735292Y-77577572D01*
X92716000Y-77674557D01*
X90005276Y-77674557D01*
X89979867Y-77613214D01*
X89924929Y-77530994D01*
X89855006Y-77461071D01*
X89772786Y-77406133D01*
X89681428Y-77368292D01*
X89584443Y-77349000D01*
X89485557Y-77349000D01*
X89388572Y-77368292D01*
X89297214Y-77406133D01*
X89214994Y-77461071D01*
X89145071Y-77530994D01*
X89090133Y-77613214D01*
X89052292Y-77704572D01*
X89033000Y-77801557D01*
X88894000Y-77801557D01*
X88874708Y-77704572D01*
X88836867Y-77613214D01*
X88781929Y-77530994D01*
X88712006Y-77461071D01*
X88629786Y-77406133D01*
X88538428Y-77368292D01*
X88441443Y-77349000D01*
X88342557Y-77349000D01*
X88245572Y-77368292D01*
X88154214Y-77406133D01*
X88071994Y-77461071D01*
X88002071Y-77530994D01*
X87947133Y-77613214D01*
X87909292Y-77704572D01*
X87890000Y-77801557D01*
X87370000Y-77801557D01*
X87350708Y-77704572D01*
X87312867Y-77613214D01*
X87257929Y-77530994D01*
X87188006Y-77461071D01*
X87105786Y-77406133D01*
X87014428Y-77368292D01*
X86917443Y-77349000D01*
X86818557Y-77349000D01*
X86721572Y-77368292D01*
X86630214Y-77406133D01*
X86547994Y-77461071D01*
X86478071Y-77530994D01*
X86423133Y-77613214D01*
X86385292Y-77704572D01*
X86366000Y-77801557D01*
X84449000Y-77801557D01*
X84429708Y-77704572D01*
X84391867Y-77613214D01*
X84336929Y-77530994D01*
X84267006Y-77461071D01*
X84184786Y-77406133D01*
X84093428Y-77368292D01*
X83996443Y-77349000D01*
X83897557Y-77349000D01*
X83800572Y-77368292D01*
X83709214Y-77406133D01*
X83626994Y-77461071D01*
X83557071Y-77530994D01*
X83502133Y-77613214D01*
X83464292Y-77704572D01*
X83445000Y-77801557D01*
X81280000Y-77801557D01*
X81280000Y-77166557D01*
X100971000Y-77166557D01*
X100971000Y-77265443D01*
X100990292Y-77362428D01*
X101028133Y-77453786D01*
X101083071Y-77536006D01*
X101152994Y-77605929D01*
X101235214Y-77660867D01*
X101326572Y-77698708D01*
X101423557Y-77718000D01*
X101522443Y-77718000D01*
X101619428Y-77698708D01*
X101710786Y-77660867D01*
X101748007Y-77635997D01*
X101785227Y-77660867D01*
X101876585Y-77698708D01*
X101973570Y-77718000D01*
X102072456Y-77718000D01*
X102169441Y-77698708D01*
X102260799Y-77660867D01*
X102343019Y-77605929D01*
X102412942Y-77536006D01*
X102467880Y-77453786D01*
X102505721Y-77362428D01*
X102525013Y-77265443D01*
X102525013Y-77226920D01*
X102797185Y-77226920D01*
X102803204Y-77246783D01*
X102880249Y-77427470D01*
X102991064Y-77589655D01*
X103131390Y-77727104D01*
X103295835Y-77834536D01*
X103478079Y-77907822D01*
X103632000Y-77795676D01*
X103632000Y-77073000D01*
X102910704Y-77073000D01*
X102797185Y-77226920D01*
X102525013Y-77226920D01*
X102525013Y-77166557D01*
X102505721Y-77069572D01*
X102467880Y-76978214D01*
X102412942Y-76895994D01*
X102343019Y-76826071D01*
X102260799Y-76771133D01*
X102169441Y-76733292D01*
X102072456Y-76714000D01*
X101973570Y-76714000D01*
X101876585Y-76733292D01*
X101785227Y-76771133D01*
X101748006Y-76796003D01*
X101710786Y-76771133D01*
X101619428Y-76733292D01*
X101522443Y-76714000D01*
X101423557Y-76714000D01*
X101326572Y-76733292D01*
X101235214Y-76771133D01*
X101152994Y-76826071D01*
X101083071Y-76895994D01*
X101028133Y-76978214D01*
X100990292Y-77069572D01*
X100971000Y-77166557D01*
X81280000Y-77166557D01*
X81280000Y-76277557D01*
X96907000Y-76277557D01*
X96907000Y-76376443D01*
X96926292Y-76473428D01*
X96964133Y-76564786D01*
X97019071Y-76647006D01*
X97088994Y-76716929D01*
X97171214Y-76771867D01*
X97262572Y-76809708D01*
X97359557Y-76829000D01*
X97458443Y-76829000D01*
X97555428Y-76809708D01*
X97646786Y-76771867D01*
X97729006Y-76716929D01*
X97798929Y-76647006D01*
X97853867Y-76564786D01*
X97891708Y-76473428D01*
X97911000Y-76376443D01*
X97911000Y-76277557D01*
X97891708Y-76180572D01*
X97853867Y-76089214D01*
X97798929Y-76006994D01*
X97729006Y-75937071D01*
X97646786Y-75882133D01*
X97555428Y-75844292D01*
X97458443Y-75825000D01*
X97359557Y-75825000D01*
X97262572Y-75844292D01*
X97171214Y-75882133D01*
X97088994Y-75937071D01*
X97019071Y-76006994D01*
X96964133Y-76089214D01*
X96926292Y-76180572D01*
X96907000Y-76277557D01*
X81280000Y-76277557D01*
X81280000Y-74596835D01*
X81334571Y-74678506D01*
X81404494Y-74748429D01*
X81486714Y-74803367D01*
X81578072Y-74841208D01*
X81675057Y-74860500D01*
X81773943Y-74860500D01*
X81870928Y-74841208D01*
X81926794Y-74818068D01*
X81940292Y-74885928D01*
X81978133Y-74977286D01*
X82033071Y-75059506D01*
X82102994Y-75129429D01*
X82185214Y-75184367D01*
X82276572Y-75222208D01*
X82373557Y-75241500D01*
X82472443Y-75241500D01*
X82569428Y-75222208D01*
X82660786Y-75184367D01*
X82743006Y-75129429D01*
X82812929Y-75059506D01*
X82867867Y-74977286D01*
X82905708Y-74885928D01*
X82919206Y-74818068D01*
X82975072Y-74841208D01*
X83072057Y-74860500D01*
X83170943Y-74860500D01*
X83267928Y-74841208D01*
X83359286Y-74803367D01*
X83441506Y-74748429D01*
X83511429Y-74678506D01*
X83566367Y-74596286D01*
X83604208Y-74504928D01*
X83623500Y-74407943D01*
X83623500Y-74309057D01*
X83604208Y-74212072D01*
X83566367Y-74120714D01*
X83511429Y-74038494D01*
X83441506Y-73968571D01*
X83359286Y-73913633D01*
X83267928Y-73875792D01*
X83170943Y-73856500D01*
X83072057Y-73856500D01*
X82975072Y-73875792D01*
X82883714Y-73913633D01*
X82801494Y-73968571D01*
X82731571Y-74038494D01*
X82676633Y-74120714D01*
X82638792Y-74212072D01*
X82625294Y-74279932D01*
X82569428Y-74256792D01*
X82472443Y-74237500D01*
X82373557Y-74237500D01*
X82276572Y-74256792D01*
X82220706Y-74279932D01*
X82207208Y-74212072D01*
X82169367Y-74120714D01*
X82114429Y-74038494D01*
X82044506Y-73968571D01*
X81962286Y-73913633D01*
X81870928Y-73875792D01*
X81773943Y-73856500D01*
X81675057Y-73856500D01*
X81578072Y-73875792D01*
X81486714Y-73913633D01*
X81404494Y-73968571D01*
X81334571Y-74038494D01*
X81280000Y-74120165D01*
X81280000Y-73584822D01*
X85408780Y-73584822D01*
X85408780Y-73683708D01*
X85428072Y-73780693D01*
X85465913Y-73872051D01*
X85495999Y-73917078D01*
X85476413Y-73946391D01*
X85438572Y-74037749D01*
X85419280Y-74134734D01*
X85419280Y-74233620D01*
X85438572Y-74330605D01*
X85476413Y-74421963D01*
X85498294Y-74454710D01*
X85470457Y-74496371D01*
X85432616Y-74587729D01*
X85413324Y-74684714D01*
X85413324Y-74783600D01*
X85432616Y-74880585D01*
X85470457Y-74971943D01*
X85504379Y-75022710D01*
X85470633Y-75073214D01*
X85432792Y-75164572D01*
X85413500Y-75261557D01*
X85413500Y-75360443D01*
X85432792Y-75457428D01*
X85470633Y-75548786D01*
X85525571Y-75631006D01*
X85595494Y-75700929D01*
X85677714Y-75755867D01*
X85769072Y-75793708D01*
X85866057Y-75813000D01*
X85964943Y-75813000D01*
X86061928Y-75793708D01*
X86153286Y-75755867D01*
X86235506Y-75700929D01*
X86305429Y-75631006D01*
X86328266Y-75596829D01*
X86376214Y-75628867D01*
X86467572Y-75666708D01*
X86564557Y-75686000D01*
X86663443Y-75686000D01*
X86760428Y-75666708D01*
X86851786Y-75628867D01*
X86934006Y-75573929D01*
X87003929Y-75504006D01*
X87058867Y-75421786D01*
X87096708Y-75330428D01*
X87116000Y-75233443D01*
X87116000Y-75134557D01*
X88144000Y-75134557D01*
X88144000Y-75233443D01*
X88163292Y-75330428D01*
X88201133Y-75421786D01*
X88256071Y-75504006D01*
X88325994Y-75573929D01*
X88408214Y-75628867D01*
X88499572Y-75666708D01*
X88596557Y-75686000D01*
X88695443Y-75686000D01*
X88792428Y-75666708D01*
X88883786Y-75628867D01*
X88966006Y-75573929D01*
X89035929Y-75504006D01*
X89090867Y-75421786D01*
X89128708Y-75330428D01*
X89148000Y-75233443D01*
X89148000Y-75134557D01*
X89128708Y-75037572D01*
X89116276Y-75007557D01*
X94494000Y-75007557D01*
X94494000Y-75106443D01*
X94513292Y-75203428D01*
X94551133Y-75294786D01*
X94606071Y-75377006D01*
X94675994Y-75446929D01*
X94758214Y-75501867D01*
X94849572Y-75539708D01*
X94946557Y-75559000D01*
X95045443Y-75559000D01*
X95142428Y-75539708D01*
X95233786Y-75501867D01*
X95316006Y-75446929D01*
X95385929Y-75377006D01*
X95440867Y-75294786D01*
X95478708Y-75203428D01*
X95498000Y-75106443D01*
X95498000Y-75007557D01*
X95478708Y-74910572D01*
X95440867Y-74819214D01*
X95385929Y-74736994D01*
X95316006Y-74667071D01*
X95233786Y-74612133D01*
X95142428Y-74574292D01*
X95045443Y-74555000D01*
X94946557Y-74555000D01*
X94849572Y-74574292D01*
X94758214Y-74612133D01*
X94675994Y-74667071D01*
X94606071Y-74736994D01*
X94551133Y-74819214D01*
X94513292Y-74910572D01*
X94494000Y-75007557D01*
X89116276Y-75007557D01*
X89090867Y-74946214D01*
X89035929Y-74863994D01*
X88966006Y-74794071D01*
X88883786Y-74739133D01*
X88792428Y-74701292D01*
X88695443Y-74682000D01*
X88596557Y-74682000D01*
X88499572Y-74701292D01*
X88408214Y-74739133D01*
X88325994Y-74794071D01*
X88256071Y-74863994D01*
X88201133Y-74946214D01*
X88163292Y-75037572D01*
X88144000Y-75134557D01*
X87116000Y-75134557D01*
X87096708Y-75037572D01*
X87058867Y-74946214D01*
X87003929Y-74863994D01*
X86934006Y-74794071D01*
X86851786Y-74739133D01*
X86760428Y-74701292D01*
X86663443Y-74682000D01*
X86564557Y-74682000D01*
X86467572Y-74701292D01*
X86417324Y-74722105D01*
X86417324Y-74684714D01*
X86398032Y-74587729D01*
X86360191Y-74496371D01*
X86338310Y-74463624D01*
X86366147Y-74421963D01*
X86403988Y-74330605D01*
X86420905Y-74245557D01*
X92843000Y-74245557D01*
X92843000Y-74344443D01*
X92862292Y-74441428D01*
X92900133Y-74532786D01*
X92955071Y-74615006D01*
X93024994Y-74684929D01*
X93107214Y-74739867D01*
X93198572Y-74777708D01*
X93295557Y-74797000D01*
X93394443Y-74797000D01*
X93491428Y-74777708D01*
X93582786Y-74739867D01*
X93665006Y-74684929D01*
X93734929Y-74615006D01*
X93789867Y-74532786D01*
X93827708Y-74441428D01*
X93847000Y-74344443D01*
X93847000Y-74245557D01*
X93827708Y-74148572D01*
X93789867Y-74057214D01*
X93734929Y-73974994D01*
X93665006Y-73905071D01*
X93582786Y-73850133D01*
X93491428Y-73812292D01*
X93394443Y-73793000D01*
X93295557Y-73793000D01*
X93198572Y-73812292D01*
X93107214Y-73850133D01*
X93024994Y-73905071D01*
X92955071Y-73974994D01*
X92900133Y-74057214D01*
X92862292Y-74148572D01*
X92843000Y-74245557D01*
X86420905Y-74245557D01*
X86423280Y-74233620D01*
X86423280Y-74134734D01*
X86403988Y-74037749D01*
X86366147Y-73946391D01*
X86336061Y-73901364D01*
X86355647Y-73872051D01*
X86393488Y-73780693D01*
X86412780Y-73683708D01*
X86412780Y-73584822D01*
X86393488Y-73487837D01*
X86363060Y-73414375D01*
X86368929Y-73408506D01*
X86423867Y-73326286D01*
X86461708Y-73234928D01*
X86481000Y-73137943D01*
X86481000Y-73039057D01*
X86479045Y-73029225D01*
X96323658Y-73029225D01*
X96323658Y-73128111D01*
X96342950Y-73225096D01*
X96380791Y-73316454D01*
X96435729Y-73398674D01*
X96505652Y-73468597D01*
X96587872Y-73523535D01*
X96615305Y-73534898D01*
X96615305Y-73594432D01*
X96634597Y-73691417D01*
X96672438Y-73782775D01*
X96727376Y-73864995D01*
X96797299Y-73934918D01*
X96840069Y-73963496D01*
X96828571Y-73974994D01*
X96773633Y-74057214D01*
X96735792Y-74148572D01*
X96716500Y-74245557D01*
X96716500Y-74344443D01*
X96735792Y-74441428D01*
X96773633Y-74532786D01*
X96828571Y-74615006D01*
X96898494Y-74684929D01*
X96980714Y-74739867D01*
X97072072Y-74777708D01*
X97169057Y-74797000D01*
X97267943Y-74797000D01*
X97364928Y-74777708D01*
X97456286Y-74739867D01*
X97538506Y-74684929D01*
X97608429Y-74615006D01*
X97663367Y-74532786D01*
X97701208Y-74441428D01*
X97720500Y-74344443D01*
X97720500Y-74245557D01*
X97701208Y-74148572D01*
X97663367Y-74057214D01*
X97608429Y-73974994D01*
X97538506Y-73905071D01*
X97495736Y-73876493D01*
X97507234Y-73864995D01*
X97562172Y-73782775D01*
X97600013Y-73691417D01*
X97619305Y-73594432D01*
X97619305Y-73495546D01*
X97600013Y-73398561D01*
X97562172Y-73307203D01*
X97507234Y-73224983D01*
X97437311Y-73155060D01*
X97355091Y-73100122D01*
X97327658Y-73088759D01*
X97327658Y-73029225D01*
X97308366Y-72932240D01*
X97270525Y-72840882D01*
X97215587Y-72758662D01*
X97145664Y-72688739D01*
X97063444Y-72633801D01*
X96972086Y-72595960D01*
X96875101Y-72576668D01*
X96776215Y-72576668D01*
X96679230Y-72595960D01*
X96587872Y-72633801D01*
X96505652Y-72688739D01*
X96435729Y-72758662D01*
X96380791Y-72840882D01*
X96342950Y-72932240D01*
X96323658Y-73029225D01*
X86479045Y-73029225D01*
X86461708Y-72942072D01*
X86423867Y-72850714D01*
X86368929Y-72768494D01*
X86299006Y-72698571D01*
X86216786Y-72643633D01*
X86125428Y-72605792D01*
X86028443Y-72586500D01*
X85929557Y-72586500D01*
X85832572Y-72605792D01*
X85741214Y-72643633D01*
X85658994Y-72698571D01*
X85589071Y-72768494D01*
X85534133Y-72850714D01*
X85496292Y-72942072D01*
X85477000Y-73039057D01*
X85477000Y-73137943D01*
X85496292Y-73234928D01*
X85526720Y-73308390D01*
X85520851Y-73314259D01*
X85465913Y-73396479D01*
X85428072Y-73487837D01*
X85408780Y-73584822D01*
X81280000Y-73584822D01*
X81280000Y-72340557D01*
X92462000Y-72340557D01*
X92462000Y-72439443D01*
X92481292Y-72536428D01*
X92519133Y-72627786D01*
X92574071Y-72710006D01*
X92643994Y-72779929D01*
X92726214Y-72834867D01*
X92817572Y-72872708D01*
X92914557Y-72892000D01*
X93013443Y-72892000D01*
X93110428Y-72872708D01*
X93201786Y-72834867D01*
X93284006Y-72779929D01*
X93353929Y-72710006D01*
X93408867Y-72627786D01*
X93446708Y-72536428D01*
X93466000Y-72439443D01*
X93466000Y-72340557D01*
X93446708Y-72243572D01*
X93408867Y-72152214D01*
X93353929Y-72069994D01*
X93284006Y-72000071D01*
X93201786Y-71945133D01*
X93110428Y-71907292D01*
X93013443Y-71888000D01*
X92914557Y-71888000D01*
X92817572Y-71907292D01*
X92726214Y-71945133D01*
X92643994Y-72000071D01*
X92574071Y-72069994D01*
X92519133Y-72152214D01*
X92481292Y-72243572D01*
X92462000Y-72340557D01*
X81280000Y-72340557D01*
X81280000Y-71628000D01*
X88017000Y-71628000D01*
X88017000Y-71677443D01*
G37*
G04 #@! TD.AperFunction*
M02*
