G04 #@! TF.GenerationSoftware,KiCad,Pcbnew,(5.1.5)-3*
G04 #@! TF.CreationDate,2020-08-08T14:50:29-04:00*
G04 #@! TF.ProjectId,SmartWatch V5,536d6172-7457-4617-9463-682056352e6b,rev?*
G04 #@! TF.SameCoordinates,Original*
G04 #@! TF.FileFunction,Legend,Top*
G04 #@! TF.FilePolarity,Positive*
%FSLAX46Y46*%
G04 Gerber Fmt 4.6, Leading zero omitted, Abs format (unit mm)*
G04 Created by KiCad (PCBNEW (5.1.5)-3) date 2020-08-08 14:50:29*
%MOMM*%
%LPD*%
G04 APERTURE LIST*
%ADD10C,0.150000*%
%ADD11C,0.120000*%
%ADD12C,0.152400*%
%ADD13C,0.127000*%
%ADD14C,0.300000*%
%ADD15C,0.100000*%
%ADD16C,0.015000*%
G04 APERTURE END LIST*
D10*
X88630642Y-59110620D02*
X88678261Y-59063001D01*
X88773500Y-59015381D01*
X89011595Y-59015381D01*
X89106833Y-59063001D01*
X89154452Y-59110620D01*
X89202071Y-59205858D01*
X89202071Y-59301096D01*
X89154452Y-59443953D01*
X88583023Y-60015381D01*
X89202071Y-60015381D01*
X89535404Y-59015381D02*
X90154452Y-59015381D01*
X89821119Y-59396334D01*
X89963976Y-59396334D01*
X90059214Y-59443953D01*
X90106833Y-59491572D01*
X90154452Y-59586810D01*
X90154452Y-59824905D01*
X90106833Y-59920143D01*
X90059214Y-59967762D01*
X89963976Y-60015381D01*
X89678261Y-60015381D01*
X89583023Y-59967762D01*
X89535404Y-59920143D01*
X90583023Y-59920143D02*
X90630642Y-59967762D01*
X90583023Y-60015381D01*
X90535404Y-59967762D01*
X90583023Y-59920143D01*
X90583023Y-60015381D01*
X90963976Y-59015381D02*
X91630642Y-59015381D01*
X91202071Y-60015381D01*
X92440166Y-59348715D02*
X92440166Y-60015381D01*
X92202071Y-58967762D02*
X91963976Y-59682048D01*
X92583023Y-59682048D01*
X93011595Y-60015381D02*
X93202071Y-60015381D01*
X93297309Y-59967762D01*
X93344928Y-59920143D01*
X93440166Y-59777286D01*
X93487785Y-59586810D01*
X93487785Y-59205858D01*
X93440166Y-59110620D01*
X93392547Y-59063001D01*
X93297309Y-59015381D01*
X93106833Y-59015381D01*
X93011595Y-59063001D01*
X92963976Y-59110620D01*
X92916357Y-59205858D01*
X92916357Y-59443953D01*
X92963976Y-59539191D01*
X93011595Y-59586810D01*
X93106833Y-59634429D01*
X93297309Y-59634429D01*
X93392547Y-59586810D01*
X93440166Y-59539191D01*
X93487785Y-59443953D01*
X94678261Y-60015381D02*
X94678261Y-59348715D01*
X94678261Y-59443953D02*
X94725880Y-59396334D01*
X94821119Y-59348715D01*
X94963976Y-59348715D01*
X95059214Y-59396334D01*
X95106833Y-59491572D01*
X95106833Y-60015381D01*
X95106833Y-59491572D02*
X95154452Y-59396334D01*
X95249690Y-59348715D01*
X95392547Y-59348715D01*
X95487785Y-59396334D01*
X95535404Y-59491572D01*
X95535404Y-60015381D01*
X96011595Y-60015381D02*
X96011595Y-59348715D01*
X96011595Y-59443953D02*
X96059214Y-59396334D01*
X96154452Y-59348715D01*
X96297309Y-59348715D01*
X96392547Y-59396334D01*
X96440166Y-59491572D01*
X96440166Y-60015381D01*
X96440166Y-59491572D02*
X96487785Y-59396334D01*
X96583023Y-59348715D01*
X96725880Y-59348715D01*
X96821119Y-59396334D01*
X96868738Y-59491572D01*
X96868738Y-60015381D01*
D11*
X104648000Y-60833001D02*
X80899000Y-60833001D01*
X104648000Y-65659000D02*
X104648000Y-60246580D01*
X80899000Y-65659000D02*
X80899000Y-60246580D01*
X80899000Y-60833001D02*
X82025504Y-60246580D01*
X80899000Y-60833001D02*
X82025504Y-61419422D01*
X104648000Y-60833001D02*
X103521496Y-60246580D01*
X104648000Y-60833001D02*
X103521496Y-61419422D01*
D10*
X112125642Y-59110620D02*
X112173261Y-59063001D01*
X112268500Y-59015381D01*
X112506595Y-59015381D01*
X112601833Y-59063001D01*
X112649452Y-59110620D01*
X112697071Y-59205858D01*
X112697071Y-59301096D01*
X112649452Y-59443953D01*
X112078023Y-60015381D01*
X112697071Y-60015381D01*
X113030404Y-59015381D02*
X113649452Y-59015381D01*
X113316119Y-59396334D01*
X113458976Y-59396334D01*
X113554214Y-59443953D01*
X113601833Y-59491572D01*
X113649452Y-59586810D01*
X113649452Y-59824905D01*
X113601833Y-59920143D01*
X113554214Y-59967762D01*
X113458976Y-60015381D01*
X113173261Y-60015381D01*
X113078023Y-59967762D01*
X113030404Y-59920143D01*
X114078023Y-59920143D02*
X114125642Y-59967762D01*
X114078023Y-60015381D01*
X114030404Y-59967762D01*
X114078023Y-59920143D01*
X114078023Y-60015381D01*
X114506595Y-59110620D02*
X114554214Y-59063001D01*
X114649452Y-59015381D01*
X114887547Y-59015381D01*
X114982785Y-59063001D01*
X115030404Y-59110620D01*
X115078023Y-59205858D01*
X115078023Y-59301096D01*
X115030404Y-59443953D01*
X114458976Y-60015381D01*
X115078023Y-60015381D01*
X115935166Y-59348715D02*
X115935166Y-60015381D01*
X115697071Y-58967762D02*
X115458976Y-59682048D01*
X116078023Y-59682048D01*
X116982785Y-60015381D02*
X116411357Y-60015381D01*
X116697071Y-60015381D02*
X116697071Y-59015381D01*
X116601833Y-59158239D01*
X116506595Y-59253477D01*
X116411357Y-59301096D01*
X118173261Y-60015381D02*
X118173261Y-59348715D01*
X118173261Y-59443953D02*
X118220880Y-59396334D01*
X118316119Y-59348715D01*
X118458976Y-59348715D01*
X118554214Y-59396334D01*
X118601833Y-59491572D01*
X118601833Y-60015381D01*
X118601833Y-59491572D02*
X118649452Y-59396334D01*
X118744690Y-59348715D01*
X118887547Y-59348715D01*
X118982785Y-59396334D01*
X119030404Y-59491572D01*
X119030404Y-60015381D01*
X119506595Y-60015381D02*
X119506595Y-59348715D01*
X119506595Y-59443953D02*
X119554214Y-59396334D01*
X119649452Y-59348715D01*
X119792309Y-59348715D01*
X119887547Y-59396334D01*
X119935166Y-59491572D01*
X119935166Y-60015381D01*
X119935166Y-59491572D02*
X119982785Y-59396334D01*
X120078023Y-59348715D01*
X120220880Y-59348715D01*
X120316119Y-59396334D01*
X120363738Y-59491572D01*
X120363738Y-60015381D01*
D11*
X127889000Y-60833001D02*
X104648000Y-60833001D01*
X127889000Y-65659000D02*
X127889000Y-60246580D01*
X104648000Y-65659000D02*
X104648000Y-60246580D01*
X104648000Y-60833001D02*
X105774504Y-60246580D01*
X104648000Y-60833001D02*
X105774504Y-61419422D01*
X127889000Y-60833001D02*
X126762496Y-60246580D01*
X127889000Y-60833001D02*
X126762496Y-61419422D01*
D10*
X87455952Y-72223380D02*
X87455952Y-72937666D01*
X87408333Y-73080523D01*
X87313095Y-73175761D01*
X87170238Y-73223380D01*
X87075000Y-73223380D01*
X88408333Y-73223380D02*
X87932142Y-73223380D01*
X87932142Y-72223380D01*
X89313095Y-73128142D02*
X89265476Y-73175761D01*
X89122619Y-73223380D01*
X89027380Y-73223380D01*
X88884523Y-73175761D01*
X88789285Y-73080523D01*
X88741666Y-72985285D01*
X88694047Y-72794809D01*
X88694047Y-72651952D01*
X88741666Y-72461476D01*
X88789285Y-72366238D01*
X88884523Y-72271000D01*
X89027380Y-72223380D01*
X89122619Y-72223380D01*
X89265476Y-72271000D01*
X89313095Y-72318619D01*
X90027380Y-72223380D02*
X90027380Y-72937666D01*
X89979761Y-73080523D01*
X89884523Y-73175761D01*
X89741666Y-73223380D01*
X89646428Y-73223380D01*
X90979761Y-73223380D02*
X90503571Y-73223380D01*
X90503571Y-72223380D01*
X91884523Y-73128142D02*
X91836904Y-73175761D01*
X91694047Y-73223380D01*
X91598809Y-73223380D01*
X91455952Y-73175761D01*
X91360714Y-73080523D01*
X91313095Y-72985285D01*
X91265476Y-72794809D01*
X91265476Y-72651952D01*
X91313095Y-72461476D01*
X91360714Y-72366238D01*
X91455952Y-72271000D01*
X91598809Y-72223380D01*
X91694047Y-72223380D01*
X91836904Y-72271000D01*
X91884523Y-72318619D01*
X92598809Y-72223380D02*
X92598809Y-72937666D01*
X92551190Y-73080523D01*
X92455952Y-73175761D01*
X92313095Y-73223380D01*
X92217857Y-73223380D01*
X93551190Y-73223380D02*
X93075000Y-73223380D01*
X93075000Y-72223380D01*
X94455952Y-73128142D02*
X94408333Y-73175761D01*
X94265476Y-73223380D01*
X94170238Y-73223380D01*
X94027380Y-73175761D01*
X93932142Y-73080523D01*
X93884523Y-72985285D01*
X93836904Y-72794809D01*
X93836904Y-72651952D01*
X93884523Y-72461476D01*
X93932142Y-72366238D01*
X94027380Y-72271000D01*
X94170238Y-72223380D01*
X94265476Y-72223380D01*
X94408333Y-72271000D01*
X94455952Y-72318619D01*
X95170238Y-72223380D02*
X95170238Y-72937666D01*
X95122619Y-73080523D01*
X95027380Y-73175761D01*
X94884523Y-73223380D01*
X94789285Y-73223380D01*
X96122619Y-73223380D02*
X95646428Y-73223380D01*
X95646428Y-72223380D01*
X97027380Y-73128142D02*
X96979761Y-73175761D01*
X96836904Y-73223380D01*
X96741666Y-73223380D01*
X96598809Y-73175761D01*
X96503571Y-73080523D01*
X96455952Y-72985285D01*
X96408333Y-72794809D01*
X96408333Y-72651952D01*
X96455952Y-72461476D01*
X96503571Y-72366238D01*
X96598809Y-72271000D01*
X96741666Y-72223380D01*
X96836904Y-72223380D01*
X96979761Y-72271000D01*
X97027380Y-72318619D01*
X101147571Y-74382142D02*
X101195190Y-74239285D01*
X101242809Y-74191666D01*
X101338047Y-74144047D01*
X101480904Y-74144047D01*
X101576142Y-74191666D01*
X101623761Y-74239285D01*
X101671380Y-74334523D01*
X101671380Y-74715476D01*
X100671380Y-74715476D01*
X100671380Y-74382142D01*
X100719000Y-74286904D01*
X100766619Y-74239285D01*
X100861857Y-74191666D01*
X100957095Y-74191666D01*
X101052333Y-74239285D01*
X101099952Y-74286904D01*
X101147571Y-74382142D01*
X101147571Y-74715476D01*
X100671380Y-73525000D02*
X100671380Y-73334523D01*
X100719000Y-73239285D01*
X100814238Y-73144047D01*
X101004714Y-73096428D01*
X101338047Y-73096428D01*
X101528523Y-73144047D01*
X101623761Y-73239285D01*
X101671380Y-73334523D01*
X101671380Y-73525000D01*
X101623761Y-73620238D01*
X101528523Y-73715476D01*
X101338047Y-73763095D01*
X101004714Y-73763095D01*
X100814238Y-73715476D01*
X100719000Y-73620238D01*
X100671380Y-73525000D01*
X100671380Y-72477380D02*
X100671380Y-72286904D01*
X100719000Y-72191666D01*
X100814238Y-72096428D01*
X101004714Y-72048809D01*
X101338047Y-72048809D01*
X101528523Y-72096428D01*
X101623761Y-72191666D01*
X101671380Y-72286904D01*
X101671380Y-72477380D01*
X101623761Y-72572619D01*
X101528523Y-72667857D01*
X101338047Y-72715476D01*
X101004714Y-72715476D01*
X100814238Y-72667857D01*
X100719000Y-72572619D01*
X100671380Y-72477380D01*
X100671380Y-71763095D02*
X100671380Y-71191666D01*
X101671380Y-71477380D02*
X100671380Y-71477380D01*
X89812904Y-94797571D02*
X90146238Y-94797571D01*
X90289095Y-95321380D02*
X89812904Y-95321380D01*
X89812904Y-94321380D01*
X90289095Y-94321380D01*
X90717666Y-95321380D02*
X90717666Y-94321380D01*
X91289095Y-95321380D01*
X91289095Y-94321380D01*
X100727333Y-56427714D02*
X100727333Y-57094380D01*
X100489238Y-56046761D02*
X100251142Y-56761047D01*
X100870190Y-56761047D01*
X101679714Y-56094380D02*
X101489238Y-56094380D01*
X101394000Y-56142000D01*
X101346380Y-56189619D01*
X101251142Y-56332476D01*
X101203523Y-56522952D01*
X101203523Y-56903904D01*
X101251142Y-56999142D01*
X101298761Y-57046761D01*
X101394000Y-57094380D01*
X101584476Y-57094380D01*
X101679714Y-57046761D01*
X101727333Y-56999142D01*
X101774952Y-56903904D01*
X101774952Y-56665809D01*
X101727333Y-56570571D01*
X101679714Y-56522952D01*
X101584476Y-56475333D01*
X101394000Y-56475333D01*
X101298761Y-56522952D01*
X101251142Y-56570571D01*
X101203523Y-56665809D01*
X102203523Y-56999142D02*
X102251142Y-57046761D01*
X102203523Y-57094380D01*
X102155904Y-57046761D01*
X102203523Y-56999142D01*
X102203523Y-57094380D01*
X102727333Y-57094380D02*
X102917809Y-57094380D01*
X103013047Y-57046761D01*
X103060666Y-56999142D01*
X103155904Y-56856285D01*
X103203523Y-56665809D01*
X103203523Y-56284857D01*
X103155904Y-56189619D01*
X103108285Y-56142000D01*
X103013047Y-56094380D01*
X102822571Y-56094380D01*
X102727333Y-56142000D01*
X102679714Y-56189619D01*
X102632095Y-56284857D01*
X102632095Y-56522952D01*
X102679714Y-56618190D01*
X102727333Y-56665809D01*
X102822571Y-56713428D01*
X103013047Y-56713428D01*
X103108285Y-56665809D01*
X103155904Y-56618190D01*
X103203523Y-56522952D01*
X103679714Y-57094380D02*
X103870190Y-57094380D01*
X103965428Y-57046761D01*
X104013047Y-56999142D01*
X104108285Y-56856285D01*
X104155904Y-56665809D01*
X104155904Y-56284857D01*
X104108285Y-56189619D01*
X104060666Y-56142000D01*
X103965428Y-56094380D01*
X103774952Y-56094380D01*
X103679714Y-56142000D01*
X103632095Y-56189619D01*
X103584476Y-56284857D01*
X103584476Y-56522952D01*
X103632095Y-56618190D01*
X103679714Y-56665809D01*
X103774952Y-56713428D01*
X103965428Y-56713428D01*
X104060666Y-56665809D01*
X104108285Y-56618190D01*
X104155904Y-56522952D01*
X104774952Y-56094380D02*
X104870190Y-56094380D01*
X104965428Y-56142000D01*
X105013047Y-56189619D01*
X105060666Y-56284857D01*
X105108285Y-56475333D01*
X105108285Y-56713428D01*
X105060666Y-56903904D01*
X105013047Y-56999142D01*
X104965428Y-57046761D01*
X104870190Y-57094380D01*
X104774952Y-57094380D01*
X104679714Y-57046761D01*
X104632095Y-56999142D01*
X104584476Y-56903904D01*
X104536857Y-56713428D01*
X104536857Y-56475333D01*
X104584476Y-56284857D01*
X104632095Y-56189619D01*
X104679714Y-56142000D01*
X104774952Y-56094380D01*
X106298761Y-57094380D02*
X106298761Y-56427714D01*
X106298761Y-56522952D02*
X106346380Y-56475333D01*
X106441619Y-56427714D01*
X106584476Y-56427714D01*
X106679714Y-56475333D01*
X106727333Y-56570571D01*
X106727333Y-57094380D01*
X106727333Y-56570571D02*
X106774952Y-56475333D01*
X106870190Y-56427714D01*
X107013047Y-56427714D01*
X107108285Y-56475333D01*
X107155904Y-56570571D01*
X107155904Y-57094380D01*
X107632095Y-57094380D02*
X107632095Y-56427714D01*
X107632095Y-56522952D02*
X107679714Y-56475333D01*
X107774952Y-56427714D01*
X107917809Y-56427714D01*
X108013047Y-56475333D01*
X108060666Y-56570571D01*
X108060666Y-57094380D01*
X108060666Y-56570571D02*
X108108285Y-56475333D01*
X108203523Y-56427714D01*
X108346380Y-56427714D01*
X108441619Y-56475333D01*
X108489238Y-56570571D01*
X108489238Y-57094380D01*
D11*
X80899000Y-57912000D02*
X127889000Y-57912000D01*
X80899000Y-65659000D02*
X80899000Y-57325579D01*
X127889000Y-65659000D02*
X127889000Y-57325579D01*
X127889000Y-57912000D02*
X126762496Y-58498421D01*
X127889000Y-57912000D02*
X126762496Y-57325579D01*
X80899000Y-57912000D02*
X82025504Y-58498421D01*
X80899000Y-57912000D02*
X82025504Y-57325579D01*
D10*
X64877620Y-78509523D02*
X64877620Y-79128571D01*
X64496667Y-78795238D01*
X64496667Y-78938095D01*
X64449048Y-79033333D01*
X64401429Y-79080952D01*
X64306191Y-79128571D01*
X64068096Y-79128571D01*
X63972858Y-79080952D01*
X63925239Y-79033333D01*
X63877620Y-78938095D01*
X63877620Y-78652380D01*
X63925239Y-78557142D01*
X63972858Y-78509523D01*
X64544286Y-79985714D02*
X63877620Y-79985714D01*
X64925239Y-79747619D02*
X64210953Y-79509523D01*
X64210953Y-80128571D01*
X63972858Y-80509523D02*
X63925239Y-80557142D01*
X63877620Y-80509523D01*
X63925239Y-80461904D01*
X63972858Y-80509523D01*
X63877620Y-80509523D01*
X64782381Y-80938095D02*
X64830001Y-80985714D01*
X64877620Y-81080952D01*
X64877620Y-81319047D01*
X64830001Y-81414285D01*
X64782381Y-81461904D01*
X64687143Y-81509523D01*
X64591905Y-81509523D01*
X64449048Y-81461904D01*
X63877620Y-80890476D01*
X63877620Y-81509523D01*
X64877620Y-82128571D02*
X64877620Y-82223809D01*
X64830001Y-82319047D01*
X64782381Y-82366666D01*
X64687143Y-82414285D01*
X64496667Y-82461904D01*
X64258572Y-82461904D01*
X64068096Y-82414285D01*
X63972858Y-82366666D01*
X63925239Y-82319047D01*
X63877620Y-82223809D01*
X63877620Y-82128571D01*
X63925239Y-82033333D01*
X63972858Y-81985714D01*
X64068096Y-81938095D01*
X64258572Y-81890476D01*
X64496667Y-81890476D01*
X64687143Y-81938095D01*
X64782381Y-81985714D01*
X64830001Y-82033333D01*
X64877620Y-82128571D01*
X64877620Y-83080952D02*
X64877620Y-83176190D01*
X64830001Y-83271428D01*
X64782381Y-83319047D01*
X64687143Y-83366666D01*
X64496667Y-83414285D01*
X64258572Y-83414285D01*
X64068096Y-83366666D01*
X63972858Y-83319047D01*
X63925239Y-83271428D01*
X63877620Y-83176190D01*
X63877620Y-83080952D01*
X63925239Y-82985714D01*
X63972858Y-82938095D01*
X64068096Y-82890476D01*
X64258572Y-82842857D01*
X64496667Y-82842857D01*
X64687143Y-82890476D01*
X64782381Y-82938095D01*
X64830001Y-82985714D01*
X64877620Y-83080952D01*
X63877620Y-84604761D02*
X64544286Y-84604761D01*
X64449048Y-84604761D02*
X64496667Y-84652380D01*
X64544286Y-84747619D01*
X64544286Y-84890476D01*
X64496667Y-84985714D01*
X64401429Y-85033333D01*
X63877620Y-85033333D01*
X64401429Y-85033333D02*
X64496667Y-85080952D01*
X64544286Y-85176190D01*
X64544286Y-85319047D01*
X64496667Y-85414285D01*
X64401429Y-85461904D01*
X63877620Y-85461904D01*
X63877620Y-85938095D02*
X64544286Y-85938095D01*
X64449048Y-85938095D02*
X64496667Y-85985714D01*
X64544286Y-86080952D01*
X64544286Y-86223809D01*
X64496667Y-86319047D01*
X64401429Y-86366666D01*
X63877620Y-86366666D01*
X64401429Y-86366666D02*
X64496667Y-86414285D01*
X64544286Y-86509523D01*
X64544286Y-86652380D01*
X64496667Y-86747619D01*
X64401429Y-86795238D01*
X63877620Y-86795238D01*
D11*
X65600001Y-65600000D02*
X65600001Y-99800000D01*
X80800000Y-65600000D02*
X65013580Y-65600000D01*
X80800000Y-99800000D02*
X65013580Y-99800000D01*
X65600001Y-99800000D02*
X65013580Y-98673496D01*
X65600001Y-99800000D02*
X66186422Y-98673496D01*
X65600001Y-65600000D02*
X65013580Y-66726504D01*
X65600001Y-65600000D02*
X66186422Y-66726504D01*
X82425000Y-97343279D02*
X82425000Y-97017721D01*
X81405000Y-97343279D02*
X81405000Y-97017721D01*
X81821000Y-72089000D02*
X81441000Y-72089000D01*
X81821000Y-65669000D02*
X81821000Y-72089000D01*
X100061000Y-65669000D02*
X100061000Y-72089000D01*
X81821000Y-65669000D02*
X100061000Y-65669000D01*
X100061000Y-91414000D02*
X99061000Y-91414000D01*
X100061000Y-90634000D02*
X100061000Y-91414000D01*
X81821000Y-91414000D02*
X82821000Y-91414000D01*
X81821000Y-90634000D02*
X81821000Y-91414000D01*
D12*
X84903501Y-97231200D02*
X84903501Y-97485200D01*
X84522500Y-97231200D02*
X84903501Y-97231200D01*
X84522500Y-97485200D02*
X84522500Y-97231200D01*
X84903501Y-97485200D02*
X84522500Y-97485200D01*
X86639400Y-93938659D02*
X86639400Y-93446600D01*
X86147341Y-96799400D02*
X86639400Y-96799400D01*
X83286600Y-96307341D02*
X83286600Y-96799400D01*
X83778659Y-93446600D02*
X83286600Y-93446600D01*
X86639400Y-93446600D02*
X86147341Y-93446600D01*
X86639400Y-96799400D02*
X86639400Y-96307341D01*
X83286600Y-96799400D02*
X83778659Y-96799400D01*
X83286600Y-93446600D02*
X83286600Y-93938659D01*
D11*
X104292000Y-80994000D02*
X104292000Y-78544000D01*
X101072000Y-79194000D02*
X101072000Y-80994000D01*
D13*
X89922000Y-95742000D02*
X91390000Y-95742000D01*
X91390000Y-98642000D02*
X89922000Y-98642000D01*
D14*
X87597419Y-96392000D02*
G75*
G03X87597419Y-96392000I-141419J0D01*
G01*
D13*
X104674500Y-71316500D02*
X104674500Y-72784500D01*
X101774500Y-72784500D02*
X101774500Y-71316500D01*
D14*
X104165919Y-68850500D02*
G75*
G03X104165919Y-68850500I-141419J0D01*
G01*
D11*
X84774721Y-98617500D02*
X85100279Y-98617500D01*
X84774721Y-97597500D02*
X85100279Y-97597500D01*
X81405000Y-93537721D02*
X81405000Y-93863279D01*
X82425000Y-93537721D02*
X82425000Y-93863279D01*
X102360000Y-90180279D02*
X102360000Y-89854721D01*
X103380000Y-90180279D02*
X103380000Y-89854721D01*
X102097721Y-92839000D02*
X102423279Y-92839000D01*
X102097721Y-91819000D02*
X102423279Y-91819000D01*
X102097721Y-94363000D02*
X102423279Y-94363000D01*
X102097721Y-93343000D02*
X102423279Y-93343000D01*
X103380000Y-87183279D02*
X103380000Y-86857721D01*
X102360000Y-87183279D02*
X102360000Y-86857721D01*
D13*
X94939000Y-96781000D02*
X94939000Y-97131000D01*
X102439000Y-96781000D02*
X102439000Y-97131000D01*
X94939000Y-99481000D02*
X94939000Y-99756000D01*
X94939000Y-99756000D02*
X102439000Y-99756000D01*
X102439000Y-99756000D02*
X102439000Y-99481000D01*
X96859000Y-95406000D02*
X96969000Y-95406000D01*
X100409000Y-95406000D02*
X100519000Y-95406000D01*
D14*
X97389000Y-94331000D02*
G75*
G03X97389000Y-94331000I-100000J0D01*
G01*
D15*
X98094000Y-94774000D02*
G75*
G03X98094000Y-94774000I-50000J0D01*
G01*
X98856000Y-94774000D02*
G75*
G03X98856000Y-94774000I-50000J0D01*
G01*
D11*
X101725000Y-83682721D02*
X101725000Y-84008279D01*
X102745000Y-83682721D02*
X102745000Y-84008279D01*
D10*
X126849142Y-100623666D02*
X126896761Y-100671285D01*
X126944380Y-100814142D01*
X126944380Y-100909380D01*
X126896761Y-101052238D01*
X126801523Y-101147476D01*
X126706285Y-101195095D01*
X126515809Y-101242714D01*
X126372952Y-101242714D01*
X126182476Y-101195095D01*
X126087238Y-101147476D01*
X125992000Y-101052238D01*
X125944380Y-100909380D01*
X125944380Y-100814142D01*
X125992000Y-100671285D01*
X126039619Y-100623666D01*
X126944380Y-100147476D02*
X126944380Y-99957000D01*
X126896761Y-99861761D01*
X126849142Y-99814142D01*
X126706285Y-99718904D01*
X126515809Y-99671285D01*
X126134857Y-99671285D01*
X126039619Y-99718904D01*
X125992000Y-99766523D01*
X125944380Y-99861761D01*
X125944380Y-100052238D01*
X125992000Y-100147476D01*
X126039619Y-100195095D01*
X126134857Y-100242714D01*
X126372952Y-100242714D01*
X126468190Y-100195095D01*
X126515809Y-100147476D01*
X126563428Y-100052238D01*
X126563428Y-99861761D01*
X126515809Y-99766523D01*
X126468190Y-99718904D01*
X126372952Y-99671285D01*
X125944380Y-100964904D02*
X126753904Y-100964904D01*
X126849142Y-100917285D01*
X126896761Y-100869666D01*
X126944380Y-100774428D01*
X126944380Y-100583952D01*
X126896761Y-100488714D01*
X126849142Y-100441095D01*
X126753904Y-100393476D01*
X125944380Y-100393476D01*
X125944380Y-99488714D02*
X125944380Y-99679190D01*
X125992000Y-99774428D01*
X126039619Y-99822047D01*
X126182476Y-99917285D01*
X126372952Y-99964904D01*
X126753904Y-99964904D01*
X126849142Y-99917285D01*
X126896761Y-99869666D01*
X126944380Y-99774428D01*
X126944380Y-99583952D01*
X126896761Y-99488714D01*
X126849142Y-99441095D01*
X126753904Y-99393476D01*
X126515809Y-99393476D01*
X126420571Y-99441095D01*
X126372952Y-99488714D01*
X126325333Y-99583952D01*
X126325333Y-99774428D01*
X126372952Y-99869666D01*
X126420571Y-99917285D01*
X126515809Y-99964904D01*
X126198380Y-101091904D02*
X127007904Y-101091904D01*
X127103142Y-101044285D01*
X127150761Y-100996666D01*
X127198380Y-100901428D01*
X127198380Y-100710952D01*
X127150761Y-100615714D01*
X127103142Y-100568095D01*
X127007904Y-100520476D01*
X126198380Y-100520476D01*
X126626952Y-99901428D02*
X126579333Y-99996666D01*
X126531714Y-100044285D01*
X126436476Y-100091904D01*
X126388857Y-100091904D01*
X126293619Y-100044285D01*
X126246000Y-99996666D01*
X126198380Y-99901428D01*
X126198380Y-99710952D01*
X126246000Y-99615714D01*
X126293619Y-99568095D01*
X126388857Y-99520476D01*
X126436476Y-99520476D01*
X126531714Y-99568095D01*
X126579333Y-99615714D01*
X126626952Y-99710952D01*
X126626952Y-99901428D01*
X126674571Y-99996666D01*
X126722190Y-100044285D01*
X126817428Y-100091904D01*
X127007904Y-100091904D01*
X127103142Y-100044285D01*
X127150761Y-99996666D01*
X127198380Y-99901428D01*
X127198380Y-99710952D01*
X127150761Y-99615714D01*
X127103142Y-99568095D01*
X127007904Y-99520476D01*
X126817428Y-99520476D01*
X126722190Y-99568095D01*
X126674571Y-99615714D01*
X126626952Y-99710952D01*
X126658666Y-102869619D02*
X126658666Y-102393428D01*
X126944380Y-102964857D02*
X125944380Y-102631523D01*
X126944380Y-102298190D01*
X126944380Y-101964857D02*
X125944380Y-101964857D01*
X125944380Y-101726761D01*
X125992000Y-101583904D01*
X126087238Y-101488666D01*
X126182476Y-101441047D01*
X126372952Y-101393428D01*
X126515809Y-101393428D01*
X126706285Y-101441047D01*
X126801523Y-101488666D01*
X126896761Y-101583904D01*
X126944380Y-101726761D01*
X126944380Y-101964857D01*
X125944380Y-101060095D02*
X126944380Y-100393428D01*
X125944380Y-100393428D02*
X126944380Y-101060095D01*
X126944380Y-99536285D02*
X126944380Y-100012476D01*
X125944380Y-100012476D01*
X125944380Y-99298190D02*
X125944380Y-98679142D01*
X126325333Y-99012476D01*
X126325333Y-98869619D01*
X126372952Y-98774380D01*
X126420571Y-98726761D01*
X126515809Y-98679142D01*
X126753904Y-98679142D01*
X126849142Y-98726761D01*
X126896761Y-98774380D01*
X126944380Y-98869619D01*
X126944380Y-99155333D01*
X126896761Y-99250571D01*
X126849142Y-99298190D01*
X125944380Y-98345809D02*
X125944380Y-97726761D01*
X126325333Y-98060095D01*
X126325333Y-97917238D01*
X126372952Y-97822000D01*
X126420571Y-97774380D01*
X126515809Y-97726761D01*
X126753904Y-97726761D01*
X126849142Y-97774380D01*
X126896761Y-97822000D01*
X126944380Y-97917238D01*
X126944380Y-98202952D01*
X126896761Y-98298190D01*
X126849142Y-98345809D01*
X125944380Y-97393428D02*
X125944380Y-96726761D01*
X126944380Y-97155333D01*
X85415380Y-92633800D02*
X85653476Y-92633800D01*
X85558238Y-92871895D02*
X85653476Y-92633800D01*
X85558238Y-92395704D01*
X85843952Y-92776657D02*
X85653476Y-92633800D01*
X85843952Y-92490942D01*
X85415380Y-92633800D02*
X85653476Y-92633800D01*
X85558238Y-92871895D02*
X85653476Y-92633800D01*
X85558238Y-92395704D01*
X85843952Y-92776657D02*
X85653476Y-92633800D01*
X85843952Y-92490942D01*
X126452380Y-100837904D02*
X127261904Y-100837904D01*
X127357142Y-100790285D01*
X127404761Y-100742666D01*
X127452380Y-100647428D01*
X127452380Y-100456952D01*
X127404761Y-100361714D01*
X127357142Y-100314095D01*
X127261904Y-100266476D01*
X126452380Y-100266476D01*
X126452380Y-99314095D02*
X126452380Y-99790285D01*
X126928571Y-99837904D01*
X126880952Y-99790285D01*
X126833333Y-99695047D01*
X126833333Y-99456952D01*
X126880952Y-99361714D01*
X126928571Y-99314095D01*
X127023809Y-99266476D01*
X127261904Y-99266476D01*
X127357142Y-99314095D01*
X127404761Y-99361714D01*
X127452380Y-99456952D01*
X127452380Y-99695047D01*
X127404761Y-99790285D01*
X127357142Y-99837904D01*
D16*
X125004181Y-101024319D02*
X125204411Y-101091063D01*
X125538129Y-101091063D01*
X125671616Y-101024319D01*
X125738360Y-100957576D01*
X125805103Y-100824089D01*
X125805103Y-100690602D01*
X125738360Y-100557115D01*
X125671616Y-100490371D01*
X125538129Y-100423628D01*
X125271155Y-100356884D01*
X125137668Y-100290141D01*
X125070924Y-100223397D01*
X125004181Y-100089910D01*
X125004181Y-99956423D01*
X125070924Y-99822936D01*
X125137668Y-99756193D01*
X125271155Y-99689449D01*
X125604873Y-99689449D01*
X125805103Y-99756193D01*
X126272308Y-99689449D02*
X126606025Y-101091063D01*
X126873000Y-100089910D01*
X127139974Y-101091063D01*
X127473691Y-99689449D01*
X127940896Y-99822936D02*
X128007639Y-99756193D01*
X128141126Y-99689449D01*
X128474844Y-99689449D01*
X128608331Y-99756193D01*
X128675075Y-99822936D01*
X128741818Y-99956423D01*
X128741818Y-100089910D01*
X128675075Y-100290141D01*
X127874152Y-101091063D01*
X128741818Y-101091063D01*
X127186319Y-101944818D02*
X127253063Y-101744588D01*
X127253063Y-101410870D01*
X127186319Y-101277383D01*
X127119576Y-101210639D01*
X126986089Y-101143896D01*
X126852602Y-101143896D01*
X126719115Y-101210639D01*
X126652371Y-101277383D01*
X126585628Y-101410870D01*
X126518884Y-101677844D01*
X126452141Y-101811331D01*
X126385397Y-101878075D01*
X126251910Y-101944818D01*
X126118423Y-101944818D01*
X125984936Y-101878075D01*
X125918193Y-101811331D01*
X125851449Y-101677844D01*
X125851449Y-101344126D01*
X125918193Y-101143896D01*
X125851449Y-100676691D02*
X127253063Y-100342974D01*
X126251910Y-100076000D01*
X127253063Y-99809025D01*
X125851449Y-99475308D01*
X127253063Y-98207181D02*
X127253063Y-99008103D01*
X127253063Y-98607642D02*
X125851449Y-98607642D01*
X126051680Y-98741129D01*
X126185167Y-98874616D01*
X126251910Y-99008103D01*
D10*
X126230142Y-101036380D02*
X125896809Y-100560190D01*
X125658714Y-101036380D02*
X125658714Y-100036380D01*
X126039666Y-100036380D01*
X126134904Y-100084000D01*
X126182523Y-100131619D01*
X126230142Y-100226857D01*
X126230142Y-100369714D01*
X126182523Y-100464952D01*
X126134904Y-100512571D01*
X126039666Y-100560190D01*
X125658714Y-100560190D01*
X126611095Y-100131619D02*
X126658714Y-100084000D01*
X126753952Y-100036380D01*
X126992047Y-100036380D01*
X127087285Y-100084000D01*
X127134904Y-100131619D01*
X127182523Y-100226857D01*
X127182523Y-100322095D01*
X127134904Y-100464952D01*
X126563476Y-101036380D01*
X127182523Y-101036380D01*
X127801571Y-100036380D02*
X127896809Y-100036380D01*
X127992047Y-100084000D01*
X128039666Y-100131619D01*
X128087285Y-100226857D01*
X128134904Y-100417333D01*
X128134904Y-100655428D01*
X128087285Y-100845904D01*
X128039666Y-100941142D01*
X127992047Y-100988761D01*
X127896809Y-101036380D01*
X127801571Y-101036380D01*
X127706333Y-100988761D01*
X127658714Y-100941142D01*
X127611095Y-100845904D01*
X127563476Y-100655428D01*
X127563476Y-100417333D01*
X127611095Y-100226857D01*
X127658714Y-100131619D01*
X127706333Y-100084000D01*
X127801571Y-100036380D01*
X126817380Y-100718857D02*
X126341190Y-101052190D01*
X126817380Y-101290285D02*
X125817380Y-101290285D01*
X125817380Y-100909333D01*
X125865000Y-100814095D01*
X125912619Y-100766476D01*
X126007857Y-100718857D01*
X126150714Y-100718857D01*
X126245952Y-100766476D01*
X126293571Y-100814095D01*
X126341190Y-100909333D01*
X126341190Y-101290285D01*
X126817380Y-99766476D02*
X126817380Y-100337904D01*
X126817380Y-100052190D02*
X125817380Y-100052190D01*
X125960238Y-100147428D01*
X126055476Y-100242666D01*
X126103095Y-100337904D01*
X126817380Y-99290285D02*
X126817380Y-99099809D01*
X126769761Y-99004571D01*
X126722142Y-98956952D01*
X126579285Y-98861714D01*
X126388809Y-98814095D01*
X126007857Y-98814095D01*
X125912619Y-98861714D01*
X125865000Y-98909333D01*
X125817380Y-99004571D01*
X125817380Y-99195047D01*
X125865000Y-99290285D01*
X125912619Y-99337904D01*
X126007857Y-99385523D01*
X126245952Y-99385523D01*
X126341190Y-99337904D01*
X126388809Y-99290285D01*
X126436428Y-99195047D01*
X126436428Y-99004571D01*
X126388809Y-98909333D01*
X126341190Y-98861714D01*
X126245952Y-98814095D01*
X125293380Y-100032857D02*
X124817190Y-100366190D01*
X125293380Y-100604285D02*
X124293380Y-100604285D01*
X124293380Y-100223333D01*
X124341000Y-100128095D01*
X124388619Y-100080476D01*
X124483857Y-100032857D01*
X124626714Y-100032857D01*
X124721952Y-100080476D01*
X124769571Y-100128095D01*
X124817190Y-100223333D01*
X124817190Y-100604285D01*
X125293380Y-99080476D02*
X125293380Y-99651904D01*
X125293380Y-99366190D02*
X124293380Y-99366190D01*
X124436238Y-99461428D01*
X124531476Y-99556666D01*
X124579095Y-99651904D01*
X124293380Y-98175714D02*
X124293380Y-98651904D01*
X124769571Y-98699523D01*
X124721952Y-98651904D01*
X124674333Y-98556666D01*
X124674333Y-98318571D01*
X124721952Y-98223333D01*
X124769571Y-98175714D01*
X124864809Y-98128095D01*
X125102904Y-98128095D01*
X125198142Y-98175714D01*
X125245761Y-98223333D01*
X125293380Y-98318571D01*
X125293380Y-98556666D01*
X125245761Y-98651904D01*
X125198142Y-98699523D01*
X125817333Y-100655380D02*
X125484000Y-100179190D01*
X125245904Y-100655380D02*
X125245904Y-99655380D01*
X125626857Y-99655380D01*
X125722095Y-99703000D01*
X125769714Y-99750619D01*
X125817333Y-99845857D01*
X125817333Y-99988714D01*
X125769714Y-100083952D01*
X125722095Y-100131571D01*
X125626857Y-100179190D01*
X125245904Y-100179190D01*
X126150666Y-99655380D02*
X126769714Y-99655380D01*
X126436380Y-100036333D01*
X126579238Y-100036333D01*
X126674476Y-100083952D01*
X126722095Y-100131571D01*
X126769714Y-100226809D01*
X126769714Y-100464904D01*
X126722095Y-100560142D01*
X126674476Y-100607761D01*
X126579238Y-100655380D01*
X126293523Y-100655380D01*
X126198285Y-100607761D01*
X126150666Y-100560142D01*
X127214333Y-100655380D02*
X126881000Y-100179190D01*
X126642904Y-100655380D02*
X126642904Y-99655380D01*
X127023857Y-99655380D01*
X127119095Y-99703000D01*
X127166714Y-99750619D01*
X127214333Y-99845857D01*
X127214333Y-99988714D01*
X127166714Y-100083952D01*
X127119095Y-100131571D01*
X127023857Y-100179190D01*
X126642904Y-100179190D01*
X127595285Y-99750619D02*
X127642904Y-99703000D01*
X127738142Y-99655380D01*
X127976238Y-99655380D01*
X128071476Y-99703000D01*
X128119095Y-99750619D01*
X128166714Y-99845857D01*
X128166714Y-99941095D01*
X128119095Y-100083952D01*
X127547666Y-100655380D01*
X128166714Y-100655380D01*
X126039619Y-99528333D02*
X126515809Y-99195000D01*
X126039619Y-98956904D02*
X127039619Y-98956904D01*
X127039619Y-99337857D01*
X126992000Y-99433095D01*
X126944380Y-99480714D01*
X126849142Y-99528333D01*
X126706285Y-99528333D01*
X126611047Y-99480714D01*
X126563428Y-99433095D01*
X126515809Y-99337857D01*
X126515809Y-98956904D01*
X126039619Y-100480714D02*
X126039619Y-99909285D01*
X126039619Y-100195000D02*
X127039619Y-100195000D01*
X126896761Y-100099761D01*
X126801523Y-100004523D01*
X126753904Y-99909285D01*
D16*
X126102527Y-99644795D02*
X126102527Y-100207236D01*
X126065031Y-100319724D01*
X125990039Y-100394716D01*
X125877551Y-100432212D01*
X125802559Y-100432212D01*
X126889944Y-100432212D02*
X126439992Y-100432212D01*
X126664968Y-100432212D02*
X126664968Y-99644795D01*
X126589976Y-99757283D01*
X126514984Y-99832275D01*
X126439992Y-99869771D01*
D10*
X128722380Y-101830095D02*
X127722380Y-101830095D01*
X127722380Y-101592000D01*
X127770000Y-101449142D01*
X127865238Y-101353904D01*
X127960476Y-101306285D01*
X128150952Y-101258666D01*
X128293809Y-101258666D01*
X128484285Y-101306285D01*
X128579523Y-101353904D01*
X128674761Y-101449142D01*
X128722380Y-101592000D01*
X128722380Y-101830095D01*
X127722380Y-100925333D02*
X127722380Y-100306285D01*
X128103333Y-100639619D01*
X128103333Y-100496761D01*
X128150952Y-100401523D01*
X128198571Y-100353904D01*
X128293809Y-100306285D01*
X128531904Y-100306285D01*
X128627142Y-100353904D01*
X128674761Y-100401523D01*
X128722380Y-100496761D01*
X128722380Y-100782476D01*
X128674761Y-100877714D01*
X128627142Y-100925333D01*
X126436380Y-100941095D02*
X125436380Y-100941095D01*
X125436380Y-100703000D01*
X125484000Y-100560142D01*
X125579238Y-100464904D01*
X125674476Y-100417285D01*
X125864952Y-100369666D01*
X126007809Y-100369666D01*
X126198285Y-100417285D01*
X126293523Y-100464904D01*
X126388761Y-100560142D01*
X126436380Y-100703000D01*
X126436380Y-100941095D01*
X125531619Y-99988714D02*
X125484000Y-99941095D01*
X125436380Y-99845857D01*
X125436380Y-99607761D01*
X125484000Y-99512523D01*
X125531619Y-99464904D01*
X125626857Y-99417285D01*
X125722095Y-99417285D01*
X125864952Y-99464904D01*
X126436380Y-100036333D01*
X126436380Y-99417285D01*
X127992142Y-101480857D02*
X128039761Y-101528476D01*
X128087380Y-101671333D01*
X128087380Y-101766571D01*
X128039761Y-101909428D01*
X127944523Y-102004666D01*
X127849285Y-102052285D01*
X127658809Y-102099904D01*
X127515952Y-102099904D01*
X127325476Y-102052285D01*
X127230238Y-102004666D01*
X127135000Y-101909428D01*
X127087380Y-101766571D01*
X127087380Y-101671333D01*
X127135000Y-101528476D01*
X127182619Y-101480857D01*
X128087380Y-100528476D02*
X128087380Y-101099904D01*
X128087380Y-100814190D02*
X127087380Y-100814190D01*
X127230238Y-100909428D01*
X127325476Y-101004666D01*
X127373095Y-101099904D01*
X128087380Y-99576095D02*
X128087380Y-100147523D01*
X128087380Y-99861809D02*
X127087380Y-99861809D01*
X127230238Y-99957047D01*
X127325476Y-100052285D01*
X127373095Y-100147523D01*
M02*
