G04 #@! TF.GenerationSoftware,KiCad,Pcbnew,(5.1.5)-3*
G04 #@! TF.CreationDate,2020-08-08T14:50:29-04:00*
G04 #@! TF.ProjectId,SmartWatch V5,536d6172-7457-4617-9463-682056352e6b,rev?*
G04 #@! TF.SameCoordinates,Original*
G04 #@! TF.FileFunction,Soldermask,Top*
G04 #@! TF.FilePolarity,Negative*
%FSLAX46Y46*%
G04 Gerber Fmt 4.6, Leading zero omitted, Abs format (unit mm)*
G04 Created by KiCad (PCBNEW (5.1.5)-3) date 2020-08-08 14:50:29*
%MOMM*%
%LPD*%
G04 APERTURE LIST*
%ADD10C,0.100000*%
G04 APERTURE END LIST*
D10*
G36*
X103389000Y-99256000D02*
G01*
X101589000Y-99256000D01*
X101589000Y-97356000D01*
X103389000Y-97356000D01*
X103389000Y-99256000D01*
G37*
G36*
X100839000Y-99256000D02*
G01*
X98939000Y-99256000D01*
X98939000Y-97356000D01*
X100839000Y-97356000D01*
X100839000Y-99256000D01*
G37*
G36*
X98439000Y-99256000D02*
G01*
X96539000Y-99256000D01*
X96539000Y-97356000D01*
X98439000Y-97356000D01*
X98439000Y-99256000D01*
G37*
G36*
X95789000Y-99256000D02*
G01*
X93989000Y-99256000D01*
X93989000Y-97356000D01*
X95789000Y-97356000D01*
X95789000Y-99256000D01*
G37*
G36*
X85988433Y-97636679D02*
G01*
X86028997Y-97648984D01*
X86066380Y-97668966D01*
X86099145Y-97695855D01*
X86126034Y-97728620D01*
X86146016Y-97766003D01*
X86158321Y-97806567D01*
X86162500Y-97848996D01*
X86162500Y-98366004D01*
X86158321Y-98408433D01*
X86146016Y-98448997D01*
X86126034Y-98486380D01*
X86099145Y-98519145D01*
X86066380Y-98546034D01*
X86028997Y-98566016D01*
X85988433Y-98578321D01*
X85946004Y-98582500D01*
X85503996Y-98582500D01*
X85461567Y-98578321D01*
X85421003Y-98566016D01*
X85383620Y-98546034D01*
X85350855Y-98519145D01*
X85323966Y-98486380D01*
X85303984Y-98448997D01*
X85291679Y-98408433D01*
X85287500Y-98366004D01*
X85287500Y-97848996D01*
X85291679Y-97806567D01*
X85303984Y-97766003D01*
X85323966Y-97728620D01*
X85350855Y-97695855D01*
X85383620Y-97668966D01*
X85421003Y-97648984D01*
X85461567Y-97636679D01*
X85503996Y-97632500D01*
X85946004Y-97632500D01*
X85988433Y-97636679D01*
G37*
G36*
X84413433Y-97636679D02*
G01*
X84453997Y-97648984D01*
X84491380Y-97668966D01*
X84524145Y-97695855D01*
X84551034Y-97728620D01*
X84571016Y-97766003D01*
X84583321Y-97806567D01*
X84587500Y-97848996D01*
X84587500Y-98366004D01*
X84583321Y-98408433D01*
X84571016Y-98448997D01*
X84551034Y-98486380D01*
X84524145Y-98519145D01*
X84491380Y-98546034D01*
X84453997Y-98566016D01*
X84413433Y-98578321D01*
X84371004Y-98582500D01*
X83928996Y-98582500D01*
X83886567Y-98578321D01*
X83846003Y-98566016D01*
X83808620Y-98546034D01*
X83775855Y-98519145D01*
X83748966Y-98486380D01*
X83728984Y-98448997D01*
X83716679Y-98408433D01*
X83712500Y-98366004D01*
X83712500Y-97848996D01*
X83716679Y-97806567D01*
X83728984Y-97766003D01*
X83748966Y-97728620D01*
X83775855Y-97695855D01*
X83808620Y-97668966D01*
X83846003Y-97648984D01*
X83886567Y-97636679D01*
X83928996Y-97632500D01*
X84371004Y-97632500D01*
X84413433Y-97636679D01*
G37*
G36*
X93156000Y-98442000D02*
G01*
X91756000Y-98442000D01*
X91756000Y-97392000D01*
X93156000Y-97392000D01*
X93156000Y-98442000D01*
G37*
G36*
X89556000Y-98442000D02*
G01*
X88156000Y-98442000D01*
X88156000Y-97392000D01*
X89556000Y-97392000D01*
X89556000Y-98442000D01*
G37*
G36*
X82215933Y-97534679D02*
G01*
X82256497Y-97546984D01*
X82293880Y-97566966D01*
X82326645Y-97593855D01*
X82353534Y-97626620D01*
X82373516Y-97664003D01*
X82385821Y-97704567D01*
X82390000Y-97746996D01*
X82390000Y-98189004D01*
X82385821Y-98231433D01*
X82373516Y-98271997D01*
X82353534Y-98309380D01*
X82326645Y-98342145D01*
X82293880Y-98369034D01*
X82256497Y-98389016D01*
X82215933Y-98401321D01*
X82173504Y-98405500D01*
X81656496Y-98405500D01*
X81614067Y-98401321D01*
X81573503Y-98389016D01*
X81536120Y-98369034D01*
X81503355Y-98342145D01*
X81476466Y-98309380D01*
X81456484Y-98271997D01*
X81444179Y-98231433D01*
X81440000Y-98189004D01*
X81440000Y-97746996D01*
X81444179Y-97704567D01*
X81456484Y-97664003D01*
X81476466Y-97626620D01*
X81503355Y-97593855D01*
X81536120Y-97566966D01*
X81573503Y-97546984D01*
X81614067Y-97534679D01*
X81656496Y-97530500D01*
X82173504Y-97530500D01*
X82215933Y-97534679D01*
G37*
G36*
X89556000Y-96992000D02*
G01*
X88156000Y-96992000D01*
X88156000Y-95942000D01*
X89556000Y-95942000D01*
X89556000Y-96992000D01*
G37*
G36*
X93156000Y-96992000D02*
G01*
X91756000Y-96992000D01*
X91756000Y-95942000D01*
X93156000Y-95942000D01*
X93156000Y-96992000D01*
G37*
G36*
X84314599Y-96977200D02*
G01*
X84111399Y-96977200D01*
X84111399Y-96164400D01*
X84314599Y-96164400D01*
X84314599Y-96977200D01*
G37*
G36*
X84814600Y-96977200D02*
G01*
X84611400Y-96977200D01*
X84611400Y-96164400D01*
X84814600Y-96164400D01*
X84814600Y-96977200D01*
G37*
G36*
X85314600Y-96977200D02*
G01*
X85111400Y-96977200D01*
X85111400Y-96164400D01*
X85314600Y-96164400D01*
X85314600Y-96977200D01*
G37*
G36*
X85814601Y-96977200D02*
G01*
X85611401Y-96977200D01*
X85611401Y-96164400D01*
X85814601Y-96164400D01*
X85814601Y-96977200D01*
G37*
G36*
X82215933Y-95959679D02*
G01*
X82256497Y-95971984D01*
X82293880Y-95991966D01*
X82326645Y-96018855D01*
X82353534Y-96051620D01*
X82373516Y-96089003D01*
X82385821Y-96129567D01*
X82390000Y-96171996D01*
X82390000Y-96614004D01*
X82385821Y-96656433D01*
X82373516Y-96696997D01*
X82353534Y-96734380D01*
X82326645Y-96767145D01*
X82293880Y-96794034D01*
X82256497Y-96814016D01*
X82215933Y-96826321D01*
X82173504Y-96830500D01*
X81656496Y-96830500D01*
X81614067Y-96826321D01*
X81573503Y-96814016D01*
X81536120Y-96794034D01*
X81503355Y-96767145D01*
X81476466Y-96734380D01*
X81456484Y-96696997D01*
X81444179Y-96656433D01*
X81440000Y-96614004D01*
X81440000Y-96171996D01*
X81444179Y-96129567D01*
X81456484Y-96089003D01*
X81476466Y-96051620D01*
X81503355Y-96018855D01*
X81536120Y-95991966D01*
X81573503Y-95971984D01*
X81614067Y-95959679D01*
X81656496Y-95955500D01*
X82173504Y-95955500D01*
X82215933Y-95959679D01*
G37*
G36*
X102839000Y-96556000D02*
G01*
X100739000Y-96556000D01*
X100739000Y-94956000D01*
X102839000Y-94956000D01*
X102839000Y-96556000D01*
G37*
G36*
X96639000Y-96556000D02*
G01*
X94539000Y-96556000D01*
X94539000Y-94956000D01*
X96639000Y-94956000D01*
X96639000Y-96556000D01*
G37*
G36*
X97589000Y-96306000D02*
G01*
X97189000Y-96306000D01*
X97189000Y-94956000D01*
X97589000Y-94956000D01*
X97589000Y-96306000D01*
G37*
G36*
X98239000Y-96306000D02*
G01*
X97839000Y-96306000D01*
X97839000Y-94956000D01*
X98239000Y-94956000D01*
X98239000Y-96306000D01*
G37*
G36*
X98889000Y-96306000D02*
G01*
X98489000Y-96306000D01*
X98489000Y-94956000D01*
X98889000Y-94956000D01*
X98889000Y-96306000D01*
G37*
G36*
X99539000Y-96306000D02*
G01*
X99139000Y-96306000D01*
X99139000Y-94956000D01*
X99539000Y-94956000D01*
X99539000Y-96306000D01*
G37*
G36*
X100189000Y-96306000D02*
G01*
X99789000Y-96306000D01*
X99789000Y-94956000D01*
X100189000Y-94956000D01*
X100189000Y-96306000D01*
G37*
G36*
X83921600Y-95974601D02*
G01*
X83108800Y-95974601D01*
X83108800Y-95771401D01*
X83921600Y-95771401D01*
X83921600Y-95974601D01*
G37*
G36*
X86817200Y-95974601D02*
G01*
X86004400Y-95974601D01*
X86004400Y-95771401D01*
X86817200Y-95771401D01*
X86817200Y-95974601D01*
G37*
G36*
X85763100Y-95923100D02*
G01*
X84162900Y-95923100D01*
X84162900Y-94322900D01*
X85763100Y-94322900D01*
X85763100Y-95923100D01*
G37*
G36*
X86817200Y-95474600D02*
G01*
X86004400Y-95474600D01*
X86004400Y-95271400D01*
X86817200Y-95271400D01*
X86817200Y-95474600D01*
G37*
G36*
X83921600Y-95474600D02*
G01*
X83108800Y-95474600D01*
X83108800Y-95271400D01*
X83921600Y-95271400D01*
X83921600Y-95474600D01*
G37*
G36*
X83921600Y-94974600D02*
G01*
X83108800Y-94974600D01*
X83108800Y-94771400D01*
X83921600Y-94771400D01*
X83921600Y-94974600D01*
G37*
G36*
X86817200Y-94974600D02*
G01*
X86004400Y-94974600D01*
X86004400Y-94771400D01*
X86817200Y-94771400D01*
X86817200Y-94974600D01*
G37*
G36*
X82215933Y-94054679D02*
G01*
X82256497Y-94066984D01*
X82293880Y-94086966D01*
X82326645Y-94113855D01*
X82353534Y-94146620D01*
X82373516Y-94184003D01*
X82385821Y-94224567D01*
X82390000Y-94266996D01*
X82390000Y-94709004D01*
X82385821Y-94751433D01*
X82373516Y-94791997D01*
X82353534Y-94829380D01*
X82326645Y-94862145D01*
X82293880Y-94889034D01*
X82256497Y-94909016D01*
X82215933Y-94921321D01*
X82173504Y-94925500D01*
X81656496Y-94925500D01*
X81614067Y-94921321D01*
X81573503Y-94909016D01*
X81536120Y-94889034D01*
X81503355Y-94862145D01*
X81476466Y-94829380D01*
X81456484Y-94791997D01*
X81444179Y-94751433D01*
X81440000Y-94709004D01*
X81440000Y-94266996D01*
X81444179Y-94224567D01*
X81456484Y-94184003D01*
X81476466Y-94146620D01*
X81503355Y-94113855D01*
X81536120Y-94086966D01*
X81573503Y-94066984D01*
X81614067Y-94054679D01*
X81656496Y-94050500D01*
X82173504Y-94050500D01*
X82215933Y-94054679D01*
G37*
G36*
X86817200Y-94474599D02*
G01*
X86004400Y-94474599D01*
X86004400Y-94271399D01*
X86817200Y-94271399D01*
X86817200Y-94474599D01*
G37*
G36*
X83921600Y-94474599D02*
G01*
X83108800Y-94474599D01*
X83108800Y-94271399D01*
X83921600Y-94271399D01*
X83921600Y-94474599D01*
G37*
G36*
X98165516Y-94005897D02*
G01*
X98183801Y-94011444D01*
X98200658Y-94020454D01*
X98215426Y-94032574D01*
X98227546Y-94047342D01*
X98236556Y-94064199D01*
X98242103Y-94082484D01*
X98244000Y-94101746D01*
X98244000Y-94366254D01*
X98242103Y-94385516D01*
X98236556Y-94403801D01*
X98227546Y-94420658D01*
X98215426Y-94435426D01*
X98200658Y-94447546D01*
X98183801Y-94456556D01*
X98165516Y-94462103D01*
X98146254Y-94464000D01*
X97941746Y-94464000D01*
X97922484Y-94462103D01*
X97904199Y-94456556D01*
X97887342Y-94447546D01*
X97872574Y-94435426D01*
X97860454Y-94420658D01*
X97851444Y-94403801D01*
X97845897Y-94385516D01*
X97844000Y-94366254D01*
X97844000Y-94101746D01*
X97845897Y-94082484D01*
X97851444Y-94064199D01*
X97860454Y-94047342D01*
X97872574Y-94032574D01*
X97887342Y-94020454D01*
X97904199Y-94011444D01*
X97922484Y-94005897D01*
X97941746Y-94004000D01*
X98146254Y-94004000D01*
X98165516Y-94005897D01*
G37*
G36*
X98927516Y-94005897D02*
G01*
X98945801Y-94011444D01*
X98962658Y-94020454D01*
X98977426Y-94032574D01*
X98989546Y-94047342D01*
X98998556Y-94064199D01*
X99004103Y-94082484D01*
X99006000Y-94101746D01*
X99006000Y-94366254D01*
X99004103Y-94385516D01*
X98998556Y-94403801D01*
X98989546Y-94420658D01*
X98977426Y-94435426D01*
X98962658Y-94447546D01*
X98945801Y-94456556D01*
X98927516Y-94462103D01*
X98908254Y-94464000D01*
X98703746Y-94464000D01*
X98684484Y-94462103D01*
X98666199Y-94456556D01*
X98649342Y-94447546D01*
X98634574Y-94435426D01*
X98622454Y-94420658D01*
X98613444Y-94403801D01*
X98607897Y-94385516D01*
X98606000Y-94366254D01*
X98606000Y-94101746D01*
X98607897Y-94082484D01*
X98613444Y-94064199D01*
X98622454Y-94047342D01*
X98634574Y-94032574D01*
X98649342Y-94020454D01*
X98666199Y-94011444D01*
X98684484Y-94005897D01*
X98703746Y-94004000D01*
X98908254Y-94004000D01*
X98927516Y-94005897D01*
G37*
G36*
X101736433Y-93382179D02*
G01*
X101776997Y-93394484D01*
X101814380Y-93414466D01*
X101847145Y-93441355D01*
X101874034Y-93474120D01*
X101894016Y-93511503D01*
X101906321Y-93552067D01*
X101910500Y-93594496D01*
X101910500Y-94111504D01*
X101906321Y-94153933D01*
X101894016Y-94194497D01*
X101874034Y-94231880D01*
X101847145Y-94264645D01*
X101814380Y-94291534D01*
X101776997Y-94311516D01*
X101736433Y-94323821D01*
X101694004Y-94328000D01*
X101251996Y-94328000D01*
X101209567Y-94323821D01*
X101169003Y-94311516D01*
X101131620Y-94291534D01*
X101098855Y-94264645D01*
X101071966Y-94231880D01*
X101051984Y-94194497D01*
X101039679Y-94153933D01*
X101035500Y-94111504D01*
X101035500Y-93594496D01*
X101039679Y-93552067D01*
X101051984Y-93511503D01*
X101071966Y-93474120D01*
X101098855Y-93441355D01*
X101131620Y-93414466D01*
X101169003Y-93394484D01*
X101209567Y-93382179D01*
X101251996Y-93378000D01*
X101694004Y-93378000D01*
X101736433Y-93382179D01*
G37*
G36*
X103311433Y-93382179D02*
G01*
X103351997Y-93394484D01*
X103389380Y-93414466D01*
X103422145Y-93441355D01*
X103449034Y-93474120D01*
X103469016Y-93511503D01*
X103481321Y-93552067D01*
X103485500Y-93594496D01*
X103485500Y-94111504D01*
X103481321Y-94153933D01*
X103469016Y-94194497D01*
X103449034Y-94231880D01*
X103422145Y-94264645D01*
X103389380Y-94291534D01*
X103351997Y-94311516D01*
X103311433Y-94323821D01*
X103269004Y-94328000D01*
X102826996Y-94328000D01*
X102784567Y-94323821D01*
X102744003Y-94311516D01*
X102706620Y-94291534D01*
X102673855Y-94264645D01*
X102646966Y-94231880D01*
X102626984Y-94194497D01*
X102614679Y-94153933D01*
X102610500Y-94111504D01*
X102610500Y-93594496D01*
X102614679Y-93552067D01*
X102626984Y-93511503D01*
X102646966Y-93474120D01*
X102673855Y-93441355D01*
X102706620Y-93414466D01*
X102744003Y-93394484D01*
X102784567Y-93382179D01*
X102826996Y-93378000D01*
X103269004Y-93378000D01*
X103311433Y-93382179D01*
G37*
G36*
X84814600Y-94081600D02*
G01*
X84611400Y-94081600D01*
X84611400Y-93268800D01*
X84814600Y-93268800D01*
X84814600Y-94081600D01*
G37*
G36*
X85814601Y-94081600D02*
G01*
X85611401Y-94081600D01*
X85611401Y-93268800D01*
X85814601Y-93268800D01*
X85814601Y-94081600D01*
G37*
G36*
X84314599Y-94081600D02*
G01*
X84111399Y-94081600D01*
X84111399Y-93268800D01*
X84314599Y-93268800D01*
X84314599Y-94081600D01*
G37*
G36*
X85314600Y-94081600D02*
G01*
X85111400Y-94081600D01*
X85111400Y-93268800D01*
X85314600Y-93268800D01*
X85314600Y-94081600D01*
G37*
G36*
X98927516Y-93365897D02*
G01*
X98945801Y-93371444D01*
X98962658Y-93380454D01*
X98977426Y-93392574D01*
X98989546Y-93407342D01*
X98998556Y-93424199D01*
X99004103Y-93442484D01*
X99006000Y-93461746D01*
X99006000Y-93726254D01*
X99004103Y-93745516D01*
X98998556Y-93763801D01*
X98989546Y-93780658D01*
X98977426Y-93795426D01*
X98962658Y-93807546D01*
X98945801Y-93816556D01*
X98927516Y-93822103D01*
X98908254Y-93824000D01*
X98703746Y-93824000D01*
X98684484Y-93822103D01*
X98666199Y-93816556D01*
X98649342Y-93807546D01*
X98634574Y-93795426D01*
X98622454Y-93780658D01*
X98613444Y-93763801D01*
X98607897Y-93745516D01*
X98606000Y-93726254D01*
X98606000Y-93461746D01*
X98607897Y-93442484D01*
X98613444Y-93424199D01*
X98622454Y-93407342D01*
X98634574Y-93392574D01*
X98649342Y-93380454D01*
X98666199Y-93371444D01*
X98684484Y-93365897D01*
X98703746Y-93364000D01*
X98908254Y-93364000D01*
X98927516Y-93365897D01*
G37*
G36*
X98165516Y-93365897D02*
G01*
X98183801Y-93371444D01*
X98200658Y-93380454D01*
X98215426Y-93392574D01*
X98227546Y-93407342D01*
X98236556Y-93424199D01*
X98242103Y-93442484D01*
X98244000Y-93461746D01*
X98244000Y-93726254D01*
X98242103Y-93745516D01*
X98236556Y-93763801D01*
X98227546Y-93780658D01*
X98215426Y-93795426D01*
X98200658Y-93807546D01*
X98183801Y-93816556D01*
X98165516Y-93822103D01*
X98146254Y-93824000D01*
X97941746Y-93824000D01*
X97922484Y-93822103D01*
X97904199Y-93816556D01*
X97887342Y-93807546D01*
X97872574Y-93795426D01*
X97860454Y-93780658D01*
X97851444Y-93763801D01*
X97845897Y-93745516D01*
X97844000Y-93726254D01*
X97844000Y-93461746D01*
X97845897Y-93442484D01*
X97851444Y-93424199D01*
X97860454Y-93407342D01*
X97872574Y-93392574D01*
X97887342Y-93380454D01*
X97904199Y-93371444D01*
X97922484Y-93365897D01*
X97941746Y-93364000D01*
X98146254Y-93364000D01*
X98165516Y-93365897D01*
G37*
G36*
X82215933Y-92479679D02*
G01*
X82256497Y-92491984D01*
X82293880Y-92511966D01*
X82326645Y-92538855D01*
X82353534Y-92571620D01*
X82373516Y-92609003D01*
X82385821Y-92649567D01*
X82390000Y-92691996D01*
X82390000Y-93134004D01*
X82385821Y-93176433D01*
X82373516Y-93216997D01*
X82353534Y-93254380D01*
X82326645Y-93287145D01*
X82293880Y-93314034D01*
X82256497Y-93334016D01*
X82215933Y-93346321D01*
X82173504Y-93350500D01*
X81656496Y-93350500D01*
X81614067Y-93346321D01*
X81573503Y-93334016D01*
X81536120Y-93314034D01*
X81503355Y-93287145D01*
X81476466Y-93254380D01*
X81456484Y-93216997D01*
X81444179Y-93176433D01*
X81440000Y-93134004D01*
X81440000Y-92691996D01*
X81444179Y-92649567D01*
X81456484Y-92609003D01*
X81476466Y-92571620D01*
X81503355Y-92538855D01*
X81536120Y-92511966D01*
X81573503Y-92491984D01*
X81614067Y-92479679D01*
X81656496Y-92475500D01*
X82173504Y-92475500D01*
X82215933Y-92479679D01*
G37*
G36*
X103311433Y-91858179D02*
G01*
X103351997Y-91870484D01*
X103389380Y-91890466D01*
X103422145Y-91917355D01*
X103449034Y-91950120D01*
X103469016Y-91987503D01*
X103481321Y-92028067D01*
X103485500Y-92070496D01*
X103485500Y-92587504D01*
X103481321Y-92629933D01*
X103469016Y-92670497D01*
X103449034Y-92707880D01*
X103422145Y-92740645D01*
X103389380Y-92767534D01*
X103351997Y-92787516D01*
X103311433Y-92799821D01*
X103269004Y-92804000D01*
X102826996Y-92804000D01*
X102784567Y-92799821D01*
X102744003Y-92787516D01*
X102706620Y-92767534D01*
X102673855Y-92740645D01*
X102646966Y-92707880D01*
X102626984Y-92670497D01*
X102614679Y-92629933D01*
X102610500Y-92587504D01*
X102610500Y-92070496D01*
X102614679Y-92028067D01*
X102626984Y-91987503D01*
X102646966Y-91950120D01*
X102673855Y-91917355D01*
X102706620Y-91890466D01*
X102744003Y-91870484D01*
X102784567Y-91858179D01*
X102826996Y-91854000D01*
X103269004Y-91854000D01*
X103311433Y-91858179D01*
G37*
G36*
X101736433Y-91858179D02*
G01*
X101776997Y-91870484D01*
X101814380Y-91890466D01*
X101847145Y-91917355D01*
X101874034Y-91950120D01*
X101894016Y-91987503D01*
X101906321Y-92028067D01*
X101910500Y-92070496D01*
X101910500Y-92587504D01*
X101906321Y-92629933D01*
X101894016Y-92670497D01*
X101874034Y-92707880D01*
X101847145Y-92740645D01*
X101814380Y-92767534D01*
X101776997Y-92787516D01*
X101736433Y-92799821D01*
X101694004Y-92804000D01*
X101251996Y-92804000D01*
X101209567Y-92799821D01*
X101169003Y-92787516D01*
X101131620Y-92767534D01*
X101098855Y-92740645D01*
X101071966Y-92707880D01*
X101051984Y-92670497D01*
X101039679Y-92629933D01*
X101035500Y-92587504D01*
X101035500Y-92070496D01*
X101039679Y-92028067D01*
X101051984Y-91987503D01*
X101071966Y-91950120D01*
X101098855Y-91917355D01*
X101131620Y-91890466D01*
X101169003Y-91870484D01*
X101209567Y-91858179D01*
X101251996Y-91854000D01*
X101694004Y-91854000D01*
X101736433Y-91858179D01*
G37*
G36*
X97106000Y-91789000D02*
G01*
X96206000Y-91789000D01*
X96206000Y-89789000D01*
X97106000Y-89789000D01*
X97106000Y-91789000D01*
G37*
G36*
X95836000Y-91789000D02*
G01*
X94936000Y-91789000D01*
X94936000Y-89789000D01*
X95836000Y-89789000D01*
X95836000Y-91789000D01*
G37*
G36*
X85676000Y-91789000D02*
G01*
X84776000Y-91789000D01*
X84776000Y-89789000D01*
X85676000Y-89789000D01*
X85676000Y-91789000D01*
G37*
G36*
X86946000Y-91789000D02*
G01*
X86046000Y-91789000D01*
X86046000Y-89789000D01*
X86946000Y-89789000D01*
X86946000Y-91789000D01*
G37*
G36*
X88216000Y-91789000D02*
G01*
X87316000Y-91789000D01*
X87316000Y-89789000D01*
X88216000Y-89789000D01*
X88216000Y-91789000D01*
G37*
G36*
X90756000Y-91789000D02*
G01*
X89856000Y-91789000D01*
X89856000Y-89789000D01*
X90756000Y-89789000D01*
X90756000Y-91789000D01*
G37*
G36*
X89486000Y-91789000D02*
G01*
X88586000Y-91789000D01*
X88586000Y-89789000D01*
X89486000Y-89789000D01*
X89486000Y-91789000D01*
G37*
G36*
X94566000Y-91789000D02*
G01*
X93666000Y-91789000D01*
X93666000Y-89789000D01*
X94566000Y-89789000D01*
X94566000Y-91789000D01*
G37*
G36*
X92026000Y-91789000D02*
G01*
X91126000Y-91789000D01*
X91126000Y-89789000D01*
X92026000Y-89789000D01*
X92026000Y-91789000D01*
G37*
G36*
X93296000Y-91789000D02*
G01*
X92396000Y-91789000D01*
X92396000Y-89789000D01*
X93296000Y-89789000D01*
X93296000Y-91789000D01*
G37*
G36*
X103170933Y-90371679D02*
G01*
X103211497Y-90383984D01*
X103248880Y-90403966D01*
X103281645Y-90430855D01*
X103308534Y-90463620D01*
X103328516Y-90501003D01*
X103340821Y-90541567D01*
X103345000Y-90583996D01*
X103345000Y-91026004D01*
X103340821Y-91068433D01*
X103328516Y-91108997D01*
X103308534Y-91146380D01*
X103281645Y-91179145D01*
X103248880Y-91206034D01*
X103211497Y-91226016D01*
X103170933Y-91238321D01*
X103128504Y-91242500D01*
X102611496Y-91242500D01*
X102569067Y-91238321D01*
X102528503Y-91226016D01*
X102491120Y-91206034D01*
X102458355Y-91179145D01*
X102431466Y-91146380D01*
X102411484Y-91108997D01*
X102399179Y-91068433D01*
X102395000Y-91026004D01*
X102395000Y-90583996D01*
X102399179Y-90541567D01*
X102411484Y-90501003D01*
X102431466Y-90463620D01*
X102458355Y-90430855D01*
X102491120Y-90403966D01*
X102528503Y-90383984D01*
X102569067Y-90371679D01*
X102611496Y-90367500D01*
X103128504Y-90367500D01*
X103170933Y-90371679D01*
G37*
G36*
X83441000Y-90239000D02*
G01*
X81441000Y-90239000D01*
X81441000Y-89339000D01*
X83441000Y-89339000D01*
X83441000Y-90239000D01*
G37*
G36*
X100441000Y-90239000D02*
G01*
X98441000Y-90239000D01*
X98441000Y-89339000D01*
X100441000Y-89339000D01*
X100441000Y-90239000D01*
G37*
G36*
X103170933Y-88796679D02*
G01*
X103211497Y-88808984D01*
X103248880Y-88828966D01*
X103281645Y-88855855D01*
X103308534Y-88888620D01*
X103328516Y-88926003D01*
X103340821Y-88966567D01*
X103345000Y-89008996D01*
X103345000Y-89451004D01*
X103340821Y-89493433D01*
X103328516Y-89533997D01*
X103308534Y-89571380D01*
X103281645Y-89604145D01*
X103248880Y-89631034D01*
X103211497Y-89651016D01*
X103170933Y-89663321D01*
X103128504Y-89667500D01*
X102611496Y-89667500D01*
X102569067Y-89663321D01*
X102528503Y-89651016D01*
X102491120Y-89631034D01*
X102458355Y-89604145D01*
X102431466Y-89571380D01*
X102411484Y-89533997D01*
X102399179Y-89493433D01*
X102395000Y-89451004D01*
X102395000Y-89008996D01*
X102399179Y-88966567D01*
X102411484Y-88926003D01*
X102431466Y-88888620D01*
X102458355Y-88855855D01*
X102491120Y-88828966D01*
X102528503Y-88808984D01*
X102569067Y-88796679D01*
X102611496Y-88792500D01*
X103128504Y-88792500D01*
X103170933Y-88796679D01*
G37*
G36*
X100441000Y-88969000D02*
G01*
X98441000Y-88969000D01*
X98441000Y-88069000D01*
X100441000Y-88069000D01*
X100441000Y-88969000D01*
G37*
G36*
X83441000Y-88969000D02*
G01*
X81441000Y-88969000D01*
X81441000Y-88069000D01*
X83441000Y-88069000D01*
X83441000Y-88969000D01*
G37*
G36*
X103170933Y-87374679D02*
G01*
X103211497Y-87386984D01*
X103248880Y-87406966D01*
X103281645Y-87433855D01*
X103308534Y-87466620D01*
X103328516Y-87504003D01*
X103340821Y-87544567D01*
X103345000Y-87586996D01*
X103345000Y-88029004D01*
X103340821Y-88071433D01*
X103328516Y-88111997D01*
X103308534Y-88149380D01*
X103281645Y-88182145D01*
X103248880Y-88209034D01*
X103211497Y-88229016D01*
X103170933Y-88241321D01*
X103128504Y-88245500D01*
X102611496Y-88245500D01*
X102569067Y-88241321D01*
X102528503Y-88229016D01*
X102491120Y-88209034D01*
X102458355Y-88182145D01*
X102431466Y-88149380D01*
X102411484Y-88111997D01*
X102399179Y-88071433D01*
X102395000Y-88029004D01*
X102395000Y-87586996D01*
X102399179Y-87544567D01*
X102411484Y-87504003D01*
X102431466Y-87466620D01*
X102458355Y-87433855D01*
X102491120Y-87406966D01*
X102528503Y-87386984D01*
X102569067Y-87374679D01*
X102611496Y-87370500D01*
X103128504Y-87370500D01*
X103170933Y-87374679D01*
G37*
G36*
X100441000Y-87699000D02*
G01*
X98441000Y-87699000D01*
X98441000Y-86799000D01*
X100441000Y-86799000D01*
X100441000Y-87699000D01*
G37*
G36*
X83441000Y-87699000D02*
G01*
X81441000Y-87699000D01*
X81441000Y-86799000D01*
X83441000Y-86799000D01*
X83441000Y-87699000D01*
G37*
G36*
X103170933Y-85799679D02*
G01*
X103211497Y-85811984D01*
X103248880Y-85831966D01*
X103281645Y-85858855D01*
X103308534Y-85891620D01*
X103328516Y-85929003D01*
X103340821Y-85969567D01*
X103345000Y-86011996D01*
X103345000Y-86454004D01*
X103340821Y-86496433D01*
X103328516Y-86536997D01*
X103308534Y-86574380D01*
X103281645Y-86607145D01*
X103248880Y-86634034D01*
X103211497Y-86654016D01*
X103170933Y-86666321D01*
X103128504Y-86670500D01*
X102611496Y-86670500D01*
X102569067Y-86666321D01*
X102528503Y-86654016D01*
X102491120Y-86634034D01*
X102458355Y-86607145D01*
X102431466Y-86574380D01*
X102411484Y-86536997D01*
X102399179Y-86496433D01*
X102395000Y-86454004D01*
X102395000Y-86011996D01*
X102399179Y-85969567D01*
X102411484Y-85929003D01*
X102431466Y-85891620D01*
X102458355Y-85858855D01*
X102491120Y-85831966D01*
X102528503Y-85811984D01*
X102569067Y-85799679D01*
X102611496Y-85795500D01*
X103128504Y-85795500D01*
X103170933Y-85799679D01*
G37*
G36*
X83441000Y-86429000D02*
G01*
X81441000Y-86429000D01*
X81441000Y-85529000D01*
X83441000Y-85529000D01*
X83441000Y-86429000D01*
G37*
G36*
X100441000Y-86429000D02*
G01*
X98441000Y-86429000D01*
X98441000Y-85529000D01*
X100441000Y-85529000D01*
X100441000Y-86429000D01*
G37*
G36*
X100441000Y-85159000D02*
G01*
X98441000Y-85159000D01*
X98441000Y-84259000D01*
X100441000Y-84259000D01*
X100441000Y-85159000D01*
G37*
G36*
X83441000Y-85159000D02*
G01*
X81441000Y-85159000D01*
X81441000Y-84259000D01*
X83441000Y-84259000D01*
X83441000Y-85159000D01*
G37*
G36*
X102535933Y-84199679D02*
G01*
X102576497Y-84211984D01*
X102613880Y-84231966D01*
X102646645Y-84258855D01*
X102673534Y-84291620D01*
X102693516Y-84329003D01*
X102705821Y-84369567D01*
X102710000Y-84411996D01*
X102710000Y-84854004D01*
X102705821Y-84896433D01*
X102693516Y-84936997D01*
X102673534Y-84974380D01*
X102646645Y-85007145D01*
X102613880Y-85034034D01*
X102576497Y-85054016D01*
X102535933Y-85066321D01*
X102493504Y-85070500D01*
X101976496Y-85070500D01*
X101934067Y-85066321D01*
X101893503Y-85054016D01*
X101856120Y-85034034D01*
X101823355Y-85007145D01*
X101796466Y-84974380D01*
X101776484Y-84936997D01*
X101764179Y-84896433D01*
X101760000Y-84854004D01*
X101760000Y-84411996D01*
X101764179Y-84369567D01*
X101776484Y-84329003D01*
X101796466Y-84291620D01*
X101823355Y-84258855D01*
X101856120Y-84231966D01*
X101893503Y-84211984D01*
X101934067Y-84199679D01*
X101976496Y-84195500D01*
X102493504Y-84195500D01*
X102535933Y-84199679D01*
G37*
G36*
X100441000Y-83889000D02*
G01*
X98441000Y-83889000D01*
X98441000Y-82989000D01*
X100441000Y-82989000D01*
X100441000Y-83889000D01*
G37*
G36*
X83441000Y-83889000D02*
G01*
X81441000Y-83889000D01*
X81441000Y-82989000D01*
X83441000Y-82989000D01*
X83441000Y-83889000D01*
G37*
G36*
X102535933Y-82624679D02*
G01*
X102576497Y-82636984D01*
X102613880Y-82656966D01*
X102646645Y-82683855D01*
X102673534Y-82716620D01*
X102693516Y-82754003D01*
X102705821Y-82794567D01*
X102710000Y-82836996D01*
X102710000Y-83279000D01*
X102705821Y-83321433D01*
X102693516Y-83361997D01*
X102673534Y-83399380D01*
X102646645Y-83432145D01*
X102613880Y-83459034D01*
X102576497Y-83479016D01*
X102535933Y-83491321D01*
X102493504Y-83495500D01*
X101976496Y-83495500D01*
X101934067Y-83491321D01*
X101893503Y-83479016D01*
X101856120Y-83459034D01*
X101823355Y-83432145D01*
X101796466Y-83399380D01*
X101776484Y-83361997D01*
X101764179Y-83321433D01*
X101760000Y-83279000D01*
X101760000Y-82836996D01*
X101764179Y-82794567D01*
X101776484Y-82754003D01*
X101796466Y-82716620D01*
X101823355Y-82683855D01*
X101856120Y-82656966D01*
X101893503Y-82636984D01*
X101934067Y-82624679D01*
X101976496Y-82620500D01*
X102493504Y-82620500D01*
X102535933Y-82624679D01*
G37*
G36*
X92441000Y-83279000D02*
G01*
X87441000Y-83279000D01*
X87441000Y-78279000D01*
X92441000Y-78279000D01*
X92441000Y-83279000D01*
G37*
G36*
X83441000Y-82619000D02*
G01*
X81441000Y-82619000D01*
X81441000Y-81719000D01*
X83441000Y-81719000D01*
X83441000Y-82619000D01*
G37*
G36*
X100441000Y-82619000D02*
G01*
X98441000Y-82619000D01*
X98441000Y-81719000D01*
X100441000Y-81719000D01*
X100441000Y-82619000D01*
G37*
G36*
X103957000Y-81724000D02*
G01*
X103307000Y-81724000D01*
X103307000Y-80664000D01*
X103957000Y-80664000D01*
X103957000Y-81724000D01*
G37*
G36*
X102057000Y-81724000D02*
G01*
X101407000Y-81724000D01*
X101407000Y-80664000D01*
X102057000Y-80664000D01*
X102057000Y-81724000D01*
G37*
G36*
X100441000Y-81349000D02*
G01*
X98441000Y-81349000D01*
X98441000Y-80449000D01*
X100441000Y-80449000D01*
X100441000Y-81349000D01*
G37*
G36*
X83441000Y-81349000D02*
G01*
X81441000Y-81349000D01*
X81441000Y-80449000D01*
X83441000Y-80449000D01*
X83441000Y-81349000D01*
G37*
G36*
X100441000Y-80079000D02*
G01*
X98441000Y-80079000D01*
X98441000Y-79179000D01*
X100441000Y-79179000D01*
X100441000Y-80079000D01*
G37*
G36*
X83441000Y-80079000D02*
G01*
X81441000Y-80079000D01*
X81441000Y-79179000D01*
X83441000Y-79179000D01*
X83441000Y-80079000D01*
G37*
G36*
X103007000Y-79524000D02*
G01*
X102357000Y-79524000D01*
X102357000Y-78464000D01*
X103007000Y-78464000D01*
X103007000Y-79524000D01*
G37*
G36*
X102057000Y-79524000D02*
G01*
X101407000Y-79524000D01*
X101407000Y-78464000D01*
X102057000Y-78464000D01*
X102057000Y-79524000D01*
G37*
G36*
X103957000Y-79524000D02*
G01*
X103307000Y-79524000D01*
X103307000Y-78464000D01*
X103957000Y-78464000D01*
X103957000Y-79524000D01*
G37*
G36*
X83441000Y-78809000D02*
G01*
X81441000Y-78809000D01*
X81441000Y-77909000D01*
X83441000Y-77909000D01*
X83441000Y-78809000D01*
G37*
G36*
X100441000Y-78809000D02*
G01*
X98441000Y-78809000D01*
X98441000Y-77909000D01*
X100441000Y-77909000D01*
X100441000Y-78809000D01*
G37*
G36*
X100441000Y-77539000D02*
G01*
X98441000Y-77539000D01*
X98441000Y-76639000D01*
X100441000Y-76639000D01*
X100441000Y-77539000D01*
G37*
G36*
X83441000Y-77539000D02*
G01*
X81441000Y-77539000D01*
X81441000Y-76639000D01*
X83441000Y-76639000D01*
X83441000Y-77539000D01*
G37*
G36*
X103882970Y-76537332D02*
G01*
X103960310Y-76569367D01*
X104029922Y-76615881D01*
X104089119Y-76675078D01*
X104135633Y-76744690D01*
X104167668Y-76822030D01*
X104184000Y-76904141D01*
X104184000Y-76987859D01*
X104167668Y-77069970D01*
X104135633Y-77147310D01*
X104089119Y-77216922D01*
X104029922Y-77276119D01*
X103960310Y-77322633D01*
X103882970Y-77354668D01*
X103800859Y-77371000D01*
X103717141Y-77371000D01*
X103635030Y-77354668D01*
X103557690Y-77322633D01*
X103488078Y-77276119D01*
X103428881Y-77216922D01*
X103382367Y-77147310D01*
X103350332Y-77069970D01*
X103334000Y-76987859D01*
X103334000Y-76904141D01*
X103350332Y-76822030D01*
X103382367Y-76744690D01*
X103428881Y-76675078D01*
X103488078Y-76615881D01*
X103557690Y-76569367D01*
X103635030Y-76537332D01*
X103717141Y-76521000D01*
X103800859Y-76521000D01*
X103882970Y-76537332D01*
G37*
G36*
X104184000Y-76371000D02*
G01*
X103334000Y-76371000D01*
X103334000Y-75521000D01*
X104184000Y-75521000D01*
X104184000Y-76371000D01*
G37*
G36*
X100441000Y-76269000D02*
G01*
X98441000Y-76269000D01*
X98441000Y-75369000D01*
X100441000Y-75369000D01*
X100441000Y-76269000D01*
G37*
G36*
X83441000Y-76269000D02*
G01*
X81441000Y-76269000D01*
X81441000Y-75369000D01*
X83441000Y-75369000D01*
X83441000Y-76269000D01*
G37*
G36*
X83441000Y-74999000D02*
G01*
X81441000Y-74999000D01*
X81441000Y-74099000D01*
X83441000Y-74099000D01*
X83441000Y-74999000D01*
G37*
G36*
X100441000Y-74999000D02*
G01*
X98441000Y-74999000D01*
X98441000Y-74099000D01*
X100441000Y-74099000D01*
X100441000Y-74999000D01*
G37*
G36*
X103024500Y-74550500D02*
G01*
X101974500Y-74550500D01*
X101974500Y-73150500D01*
X103024500Y-73150500D01*
X103024500Y-74550500D01*
G37*
G36*
X104474500Y-74550500D02*
G01*
X103424500Y-74550500D01*
X103424500Y-73150500D01*
X104474500Y-73150500D01*
X104474500Y-74550500D01*
G37*
G36*
X83441000Y-73729000D02*
G01*
X81441000Y-73729000D01*
X81441000Y-72829000D01*
X83441000Y-72829000D01*
X83441000Y-73729000D01*
G37*
G36*
X100441000Y-73729000D02*
G01*
X98441000Y-73729000D01*
X98441000Y-72829000D01*
X100441000Y-72829000D01*
X100441000Y-73729000D01*
G37*
G36*
X103024500Y-70950500D02*
G01*
X101974500Y-70950500D01*
X101974500Y-69550500D01*
X103024500Y-69550500D01*
X103024500Y-70950500D01*
G37*
G36*
X104474500Y-70950500D02*
G01*
X103424500Y-70950500D01*
X103424500Y-69550500D01*
X104474500Y-69550500D01*
X104474500Y-70950500D01*
G37*
M02*
