G04 #@! TF.GenerationSoftware,KiCad,Pcbnew,(5.0.1)-3*
G04 #@! TF.CreationDate,2020-01-13T08:35:40-05:00*
G04 #@! TF.ProjectId,SmartWatch,536D61727457617463682E6B69636164,rev?*
G04 #@! TF.SameCoordinates,Original*
G04 #@! TF.FileFunction,Profile,NP*
%FSLAX46Y46*%
G04 Gerber Fmt 4.6, Leading zero omitted, Abs format (unit mm)*
G04 Created by KiCad (PCBNEW (5.0.1)-3) date 1/13/2020 8:35:40 AM*
%MOMM*%
%LPD*%
G01*
G04 APERTURE LIST*
%ADD10C,0.100000*%
%ADD11C,0.050000*%
G04 APERTURE END LIST*
D10*
X152000000Y-91000000D02*
X152000000Y-57000000D01*
X180000000Y-91000000D02*
X152000000Y-91000000D01*
X180000000Y-57000000D02*
X180000000Y-91000000D01*
X152000000Y-57000000D02*
X180000000Y-57000000D01*
G04 #@! TO.C,J1*
D11*
X169110340Y-91226100D02*
X169110340Y-90226100D01*
X169491293Y-90226100D01*
X169586531Y-90273720D01*
X169634150Y-90321339D01*
X169681769Y-90416577D01*
X169681769Y-90559434D01*
X169634150Y-90654672D01*
X169586531Y-90702291D01*
X169491293Y-90749910D01*
X169110340Y-90749910D01*
X170681769Y-91130862D02*
X170634150Y-91178481D01*
X170491293Y-91226100D01*
X170396055Y-91226100D01*
X170253198Y-91178481D01*
X170157960Y-91083243D01*
X170110340Y-90988005D01*
X170062721Y-90797529D01*
X170062721Y-90654672D01*
X170110340Y-90464196D01*
X170157960Y-90368958D01*
X170253198Y-90273720D01*
X170396055Y-90226100D01*
X170491293Y-90226100D01*
X170634150Y-90273720D01*
X170681769Y-90321339D01*
X171443674Y-90702291D02*
X171586531Y-90749910D01*
X171634150Y-90797529D01*
X171681769Y-90892767D01*
X171681769Y-91035624D01*
X171634150Y-91130862D01*
X171586531Y-91178481D01*
X171491293Y-91226100D01*
X171110340Y-91226100D01*
X171110340Y-90226100D01*
X171443674Y-90226100D01*
X171538912Y-90273720D01*
X171586531Y-90321339D01*
X171634150Y-90416577D01*
X171634150Y-90511815D01*
X171586531Y-90607053D01*
X171538912Y-90654672D01*
X171443674Y-90702291D01*
X171110340Y-90702291D01*
X171872245Y-89988720D02*
X172777007Y-89988720D01*
X172110340Y-90702291D02*
X172443674Y-90702291D01*
X172586531Y-91226100D02*
X172110340Y-91226100D01*
X172110340Y-90226100D01*
X172586531Y-90226100D01*
X172777007Y-89988720D02*
X173681769Y-89988720D01*
X173443674Y-91226100D02*
X173443674Y-90226100D01*
X173443674Y-91178481D02*
X173348436Y-91226100D01*
X173157960Y-91226100D01*
X173062721Y-91178481D01*
X173015102Y-91130862D01*
X172967483Y-91035624D01*
X172967483Y-90749910D01*
X173015102Y-90654672D01*
X173062721Y-90607053D01*
X173157960Y-90559434D01*
X173348436Y-90559434D01*
X173443674Y-90607053D01*
X173681769Y-89988720D02*
X174586531Y-89988720D01*
X174348436Y-90559434D02*
X174348436Y-91368958D01*
X174300817Y-91464196D01*
X174253198Y-91511815D01*
X174157960Y-91559434D01*
X174015102Y-91559434D01*
X173919864Y-91511815D01*
X174348436Y-91178481D02*
X174253198Y-91226100D01*
X174062721Y-91226100D01*
X173967483Y-91178481D01*
X173919864Y-91130862D01*
X173872245Y-91035624D01*
X173872245Y-90749910D01*
X173919864Y-90654672D01*
X173967483Y-90607053D01*
X174062721Y-90559434D01*
X174253198Y-90559434D01*
X174348436Y-90607053D01*
X174586531Y-89988720D02*
X175443674Y-89988720D01*
X175205579Y-91178481D02*
X175110340Y-91226100D01*
X174919864Y-91226100D01*
X174824626Y-91178481D01*
X174777007Y-91083243D01*
X174777007Y-90702291D01*
X174824626Y-90607053D01*
X174919864Y-90559434D01*
X175110340Y-90559434D01*
X175205579Y-90607053D01*
X175253198Y-90702291D01*
X175253198Y-90797529D01*
X174777007Y-90892767D01*
G04 #@! TD*
M02*
