G04 #@! TF.GenerationSoftware,KiCad,Pcbnew,(5.0.1)-3*
G04 #@! TF.CreationDate,2020-01-13T08:35:40-05:00*
G04 #@! TF.ProjectId,SmartWatch,536D61727457617463682E6B69636164,rev?*
G04 #@! TF.SameCoordinates,Original*
G04 #@! TF.FileFunction,Soldermask,Top*
G04 #@! TF.FilePolarity,Negative*
%FSLAX46Y46*%
G04 Gerber Fmt 4.6, Leading zero omitted, Abs format (unit mm)*
G04 Created by KiCad (PCBNEW (5.0.1)-3) date 1/13/2020 8:35:40 AM*
%MOMM*%
%LPD*%
G01*
G04 APERTURE LIST*
%ADD10C,0.100000*%
G04 APERTURE END LIST*
D10*
G36*
X166703000Y-90495000D02*
X164803000Y-90495000D01*
X164803000Y-88595000D01*
X166703000Y-88595000D01*
X166703000Y-90495000D01*
X166703000Y-90495000D01*
G37*
G36*
X169103000Y-90495000D02*
X167203000Y-90495000D01*
X167203000Y-88595000D01*
X169103000Y-88595000D01*
X169103000Y-90495000D01*
X169103000Y-90495000D01*
G37*
G36*
X171653000Y-90495000D02*
X169853000Y-90495000D01*
X169853000Y-88595000D01*
X171653000Y-88595000D01*
X171653000Y-90495000D01*
X171653000Y-90495000D01*
G37*
G36*
X164053000Y-90495000D02*
X162253000Y-90495000D01*
X162253000Y-88595000D01*
X164053000Y-88595000D01*
X164053000Y-90495000D01*
X164053000Y-90495000D01*
G37*
G36*
X176877583Y-88479487D02*
X176969014Y-88507222D01*
X177053274Y-88552260D01*
X177127129Y-88612871D01*
X177187740Y-88686726D01*
X177232778Y-88770986D01*
X177260513Y-88862417D01*
X177270000Y-88958733D01*
X177270000Y-89981267D01*
X177260513Y-90077583D01*
X177232778Y-90169014D01*
X177187740Y-90253274D01*
X177127129Y-90327129D01*
X177053274Y-90387740D01*
X176969014Y-90432778D01*
X176877583Y-90460513D01*
X176781267Y-90470000D01*
X175218733Y-90470000D01*
X175122417Y-90460513D01*
X175030986Y-90432778D01*
X174946726Y-90387740D01*
X174872871Y-90327129D01*
X174812260Y-90253274D01*
X174767222Y-90169014D01*
X174739487Y-90077583D01*
X174730000Y-89981267D01*
X174730000Y-88958733D01*
X174739487Y-88862417D01*
X174767222Y-88770986D01*
X174812260Y-88686726D01*
X174872871Y-88612871D01*
X174946726Y-88552260D01*
X175030986Y-88507222D01*
X175122417Y-88479487D01*
X175218733Y-88470000D01*
X176781267Y-88470000D01*
X176877583Y-88479487D01*
X176877583Y-88479487D01*
G37*
G36*
X156760968Y-88302082D02*
X156799630Y-88313810D01*
X156835270Y-88332860D01*
X156866505Y-88358495D01*
X156892140Y-88389730D01*
X156911190Y-88425370D01*
X156922918Y-88464032D01*
X156927000Y-88505481D01*
X156927000Y-89040519D01*
X156922918Y-89081968D01*
X156911190Y-89120630D01*
X156892140Y-89156270D01*
X156866505Y-89187505D01*
X156835270Y-89213140D01*
X156799630Y-89232190D01*
X156760968Y-89243918D01*
X156719519Y-89248000D01*
X156259481Y-89248000D01*
X156218032Y-89243918D01*
X156179370Y-89232190D01*
X156143730Y-89213140D01*
X156112495Y-89187505D01*
X156086860Y-89156270D01*
X156067810Y-89120630D01*
X156056082Y-89081968D01*
X156052000Y-89040519D01*
X156052000Y-88505481D01*
X156056082Y-88464032D01*
X156067810Y-88425370D01*
X156086860Y-88389730D01*
X156112495Y-88358495D01*
X156143730Y-88332860D01*
X156179370Y-88313810D01*
X156218032Y-88302082D01*
X156259481Y-88298000D01*
X156719519Y-88298000D01*
X156760968Y-88302082D01*
X156760968Y-88302082D01*
G37*
G36*
X158335968Y-88302082D02*
X158374630Y-88313810D01*
X158410270Y-88332860D01*
X158441505Y-88358495D01*
X158467140Y-88389730D01*
X158486190Y-88425370D01*
X158497918Y-88464032D01*
X158502000Y-88505481D01*
X158502000Y-89040519D01*
X158497918Y-89081968D01*
X158486190Y-89120630D01*
X158467140Y-89156270D01*
X158441505Y-89187505D01*
X158410270Y-89213140D01*
X158374630Y-89232190D01*
X158335968Y-89243918D01*
X158294519Y-89248000D01*
X157834481Y-89248000D01*
X157793032Y-89243918D01*
X157754370Y-89232190D01*
X157718730Y-89213140D01*
X157687495Y-89187505D01*
X157661860Y-89156270D01*
X157642810Y-89120630D01*
X157631082Y-89081968D01*
X157627000Y-89040519D01*
X157627000Y-88505481D01*
X157631082Y-88464032D01*
X157642810Y-88425370D01*
X157661860Y-88389730D01*
X157687495Y-88358495D01*
X157718730Y-88332860D01*
X157754370Y-88313810D01*
X157793032Y-88302082D01*
X157834481Y-88298000D01*
X158294519Y-88298000D01*
X158335968Y-88302082D01*
X158335968Y-88302082D01*
G37*
G36*
X153648000Y-89114000D02*
X152598000Y-89114000D01*
X152598000Y-87714000D01*
X153648000Y-87714000D01*
X153648000Y-89114000D01*
X153648000Y-89114000D01*
G37*
G36*
X155098000Y-89114000D02*
X154048000Y-89114000D01*
X154048000Y-87714000D01*
X155098000Y-87714000D01*
X155098000Y-89114000D01*
X155098000Y-89114000D01*
G37*
G36*
X174044968Y-87984082D02*
X174083630Y-87995810D01*
X174119270Y-88014860D01*
X174150505Y-88040495D01*
X174176140Y-88071730D01*
X174195190Y-88107370D01*
X174206918Y-88146032D01*
X174211000Y-88187481D01*
X174211000Y-88647519D01*
X174206918Y-88688968D01*
X174195190Y-88727630D01*
X174176140Y-88763270D01*
X174150505Y-88794505D01*
X174119270Y-88820140D01*
X174083630Y-88839190D01*
X174044968Y-88850918D01*
X174003519Y-88855000D01*
X173468481Y-88855000D01*
X173427032Y-88850918D01*
X173388370Y-88839190D01*
X173352730Y-88820140D01*
X173321495Y-88794505D01*
X173295860Y-88763270D01*
X173276810Y-88727630D01*
X173265082Y-88688968D01*
X173261000Y-88647519D01*
X173261000Y-88187481D01*
X173265082Y-88146032D01*
X173276810Y-88107370D01*
X173295860Y-88071730D01*
X173321495Y-88040495D01*
X173352730Y-88014860D01*
X173388370Y-87995810D01*
X173427032Y-87984082D01*
X173468481Y-87980000D01*
X174003519Y-87980000D01*
X174044968Y-87984082D01*
X174044968Y-87984082D01*
G37*
G36*
X176877583Y-85939487D02*
X176969014Y-85967222D01*
X177053274Y-86012260D01*
X177127129Y-86072871D01*
X177187740Y-86146726D01*
X177232778Y-86230986D01*
X177260513Y-86322417D01*
X177270000Y-86418733D01*
X177270000Y-87441267D01*
X177260513Y-87537583D01*
X177232778Y-87629014D01*
X177187740Y-87713274D01*
X177127129Y-87787129D01*
X177053274Y-87847740D01*
X176969014Y-87892778D01*
X176877583Y-87920513D01*
X176781267Y-87930000D01*
X175218733Y-87930000D01*
X175122417Y-87920513D01*
X175030986Y-87892778D01*
X174946726Y-87847740D01*
X174872871Y-87787129D01*
X174812260Y-87713274D01*
X174767222Y-87629014D01*
X174739487Y-87537583D01*
X174730000Y-87441267D01*
X174730000Y-86418733D01*
X174739487Y-86322417D01*
X174767222Y-86230986D01*
X174812260Y-86146726D01*
X174872871Y-86072871D01*
X174946726Y-86012260D01*
X175030986Y-85967222D01*
X175122417Y-85939487D01*
X175218733Y-85930000D01*
X176781267Y-85930000D01*
X176877583Y-85939487D01*
X176877583Y-85939487D01*
G37*
G36*
X161078000Y-87802000D02*
X159978000Y-87802000D01*
X159978000Y-86702000D01*
X161078000Y-86702000D01*
X161078000Y-87802000D01*
X161078000Y-87802000D01*
G37*
G36*
X164903000Y-87795000D02*
X162803000Y-87795000D01*
X162803000Y-86195000D01*
X164903000Y-86195000D01*
X164903000Y-87795000D01*
X164903000Y-87795000D01*
G37*
G36*
X171103000Y-87795000D02*
X169003000Y-87795000D01*
X169003000Y-86195000D01*
X171103000Y-86195000D01*
X171103000Y-87795000D01*
X171103000Y-87795000D01*
G37*
G36*
X158347968Y-86866582D02*
X158386630Y-86878310D01*
X158422270Y-86897360D01*
X158453505Y-86922995D01*
X158479140Y-86954230D01*
X158498190Y-86989870D01*
X158509918Y-87028532D01*
X158514000Y-87069981D01*
X158514000Y-87530019D01*
X158509918Y-87571468D01*
X158498190Y-87610130D01*
X158479140Y-87645770D01*
X158453505Y-87677005D01*
X158422270Y-87702640D01*
X158386630Y-87721690D01*
X158347968Y-87733418D01*
X158306519Y-87737500D01*
X157771481Y-87737500D01*
X157730032Y-87733418D01*
X157691370Y-87721690D01*
X157655730Y-87702640D01*
X157624495Y-87677005D01*
X157598860Y-87645770D01*
X157579810Y-87610130D01*
X157568082Y-87571468D01*
X157564000Y-87530019D01*
X157564000Y-87069981D01*
X157568082Y-87028532D01*
X157579810Y-86989870D01*
X157598860Y-86954230D01*
X157624495Y-86922995D01*
X157655730Y-86897360D01*
X157691370Y-86878310D01*
X157730032Y-86866582D01*
X157771481Y-86862500D01*
X158306519Y-86862500D01*
X158347968Y-86866582D01*
X158347968Y-86866582D01*
G37*
G36*
X156823968Y-86841082D02*
X156862630Y-86852810D01*
X156898270Y-86871860D01*
X156929505Y-86897495D01*
X156955140Y-86928730D01*
X156974190Y-86964370D01*
X156985918Y-87003032D01*
X156990000Y-87044481D01*
X156990000Y-87504519D01*
X156985918Y-87545968D01*
X156974190Y-87584630D01*
X156955140Y-87620270D01*
X156929505Y-87651505D01*
X156898270Y-87677140D01*
X156862630Y-87696190D01*
X156823968Y-87707918D01*
X156782519Y-87712000D01*
X156247481Y-87712000D01*
X156206032Y-87707918D01*
X156167370Y-87696190D01*
X156131730Y-87677140D01*
X156100495Y-87651505D01*
X156074860Y-87620270D01*
X156055810Y-87584630D01*
X156044082Y-87545968D01*
X156040000Y-87504519D01*
X156040000Y-87044481D01*
X156044082Y-87003032D01*
X156055810Y-86964370D01*
X156074860Y-86928730D01*
X156100495Y-86897495D01*
X156131730Y-86871860D01*
X156167370Y-86852810D01*
X156206032Y-86841082D01*
X156247481Y-86837000D01*
X156782519Y-86837000D01*
X156823968Y-86841082D01*
X156823968Y-86841082D01*
G37*
G36*
X168453000Y-87545000D02*
X168053000Y-87545000D01*
X168053000Y-86195000D01*
X168453000Y-86195000D01*
X168453000Y-87545000D01*
X168453000Y-87545000D01*
G37*
G36*
X167153000Y-87545000D02*
X166753000Y-87545000D01*
X166753000Y-86195000D01*
X167153000Y-86195000D01*
X167153000Y-87545000D01*
X167153000Y-87545000D01*
G37*
G36*
X166503000Y-87545000D02*
X166103000Y-87545000D01*
X166103000Y-86195000D01*
X166503000Y-86195000D01*
X166503000Y-87545000D01*
X166503000Y-87545000D01*
G37*
G36*
X165853000Y-87545000D02*
X165453000Y-87545000D01*
X165453000Y-86195000D01*
X165853000Y-86195000D01*
X165853000Y-87545000D01*
X165853000Y-87545000D01*
G37*
G36*
X167803000Y-87545000D02*
X167403000Y-87545000D01*
X167403000Y-86195000D01*
X167803000Y-86195000D01*
X167803000Y-87545000D01*
X167803000Y-87545000D01*
G37*
G36*
X174044968Y-86409082D02*
X174083630Y-86420810D01*
X174119270Y-86439860D01*
X174150505Y-86465495D01*
X174176140Y-86496730D01*
X174195190Y-86532370D01*
X174206918Y-86571032D01*
X174211000Y-86612481D01*
X174211000Y-87072519D01*
X174206918Y-87113968D01*
X174195190Y-87152630D01*
X174176140Y-87188270D01*
X174150505Y-87219505D01*
X174119270Y-87245140D01*
X174083630Y-87264190D01*
X174044968Y-87275918D01*
X174003519Y-87280000D01*
X173468481Y-87280000D01*
X173427032Y-87275918D01*
X173388370Y-87264190D01*
X173352730Y-87245140D01*
X173321495Y-87219505D01*
X173295860Y-87188270D01*
X173276810Y-87152630D01*
X173265082Y-87113968D01*
X173261000Y-87072519D01*
X173261000Y-86612481D01*
X173265082Y-86571032D01*
X173276810Y-86532370D01*
X173295860Y-86496730D01*
X173321495Y-86465495D01*
X173352730Y-86439860D01*
X173388370Y-86420810D01*
X173427032Y-86409082D01*
X173468481Y-86405000D01*
X174003519Y-86405000D01*
X174044968Y-86409082D01*
X174044968Y-86409082D01*
G37*
G36*
X158347968Y-85291582D02*
X158386630Y-85303310D01*
X158422270Y-85322360D01*
X158453505Y-85347995D01*
X158479140Y-85379230D01*
X158498190Y-85414870D01*
X158509918Y-85453532D01*
X158514000Y-85494981D01*
X158514000Y-85955019D01*
X158509918Y-85996468D01*
X158498190Y-86035130D01*
X158479140Y-86070770D01*
X158453505Y-86102005D01*
X158422270Y-86127640D01*
X158386630Y-86146690D01*
X158347968Y-86158418D01*
X158306519Y-86162500D01*
X157771481Y-86162500D01*
X157730032Y-86158418D01*
X157691370Y-86146690D01*
X157655730Y-86127640D01*
X157624495Y-86102005D01*
X157598860Y-86070770D01*
X157579810Y-86035130D01*
X157568082Y-85996468D01*
X157564000Y-85955019D01*
X157564000Y-85494981D01*
X157568082Y-85453532D01*
X157579810Y-85414870D01*
X157598860Y-85379230D01*
X157624495Y-85347995D01*
X157655730Y-85322360D01*
X157691370Y-85303310D01*
X157730032Y-85291582D01*
X157771481Y-85287500D01*
X158306519Y-85287500D01*
X158347968Y-85291582D01*
X158347968Y-85291582D01*
G37*
G36*
X156823968Y-85266082D02*
X156862630Y-85277810D01*
X156898270Y-85296860D01*
X156929505Y-85322495D01*
X156955140Y-85353730D01*
X156974190Y-85389370D01*
X156985918Y-85428032D01*
X156990000Y-85469481D01*
X156990000Y-85929519D01*
X156985918Y-85970968D01*
X156974190Y-86009630D01*
X156955140Y-86045270D01*
X156929505Y-86076505D01*
X156898270Y-86102140D01*
X156862630Y-86121190D01*
X156823968Y-86132918D01*
X156782519Y-86137000D01*
X156247481Y-86137000D01*
X156206032Y-86132918D01*
X156167370Y-86121190D01*
X156131730Y-86102140D01*
X156100495Y-86076505D01*
X156074860Y-86045270D01*
X156055810Y-86009630D01*
X156044082Y-85970968D01*
X156040000Y-85929519D01*
X156040000Y-85469481D01*
X156044082Y-85428032D01*
X156055810Y-85389370D01*
X156074860Y-85353730D01*
X156100495Y-85322495D01*
X156131730Y-85296860D01*
X156167370Y-85277810D01*
X156206032Y-85266082D01*
X156247481Y-85262000D01*
X156782519Y-85262000D01*
X156823968Y-85266082D01*
X156823968Y-85266082D01*
G37*
G36*
X153648000Y-85514000D02*
X152598000Y-85514000D01*
X152598000Y-84114000D01*
X153648000Y-84114000D01*
X153648000Y-85514000D01*
X153648000Y-85514000D01*
G37*
G36*
X155098000Y-85514000D02*
X154048000Y-85514000D01*
X154048000Y-84114000D01*
X155098000Y-84114000D01*
X155098000Y-85514000D01*
X155098000Y-85514000D01*
G37*
G36*
X171587000Y-85196000D02*
X170937000Y-85196000D01*
X170937000Y-84136000D01*
X171587000Y-84136000D01*
X171587000Y-85196000D01*
X171587000Y-85196000D01*
G37*
G36*
X172537000Y-85196000D02*
X171887000Y-85196000D01*
X171887000Y-84136000D01*
X172537000Y-84136000D01*
X172537000Y-85196000D01*
X172537000Y-85196000D01*
G37*
G36*
X173487000Y-85196000D02*
X172837000Y-85196000D01*
X172837000Y-84136000D01*
X173487000Y-84136000D01*
X173487000Y-85196000D01*
X173487000Y-85196000D01*
G37*
G36*
X176921000Y-85196000D02*
X176271000Y-85196000D01*
X176271000Y-84136000D01*
X176921000Y-84136000D01*
X176921000Y-85196000D01*
X176921000Y-85196000D01*
G37*
G36*
X177871000Y-85196000D02*
X177221000Y-85196000D01*
X177221000Y-84136000D01*
X177871000Y-84136000D01*
X177871000Y-85196000D01*
X177871000Y-85196000D01*
G37*
G36*
X178821000Y-85196000D02*
X178171000Y-85196000D01*
X178171000Y-84136000D01*
X178821000Y-84136000D01*
X178821000Y-85196000D01*
X178821000Y-85196000D01*
G37*
G36*
X161078000Y-85002000D02*
X159978000Y-85002000D01*
X159978000Y-83902000D01*
X161078000Y-83902000D01*
X161078000Y-85002000D01*
X161078000Y-85002000D01*
G37*
G36*
X167948968Y-84047082D02*
X167987630Y-84058810D01*
X168023270Y-84077860D01*
X168054505Y-84103495D01*
X168080140Y-84134730D01*
X168099190Y-84170370D01*
X168110918Y-84209032D01*
X168115000Y-84250481D01*
X168115000Y-84710519D01*
X168110918Y-84751968D01*
X168099190Y-84790630D01*
X168080140Y-84826270D01*
X168054505Y-84857505D01*
X168023270Y-84883140D01*
X167987630Y-84902190D01*
X167948968Y-84913918D01*
X167907519Y-84918000D01*
X167372481Y-84918000D01*
X167331032Y-84913918D01*
X167292370Y-84902190D01*
X167256730Y-84883140D01*
X167225495Y-84857505D01*
X167199860Y-84826270D01*
X167180810Y-84790630D01*
X167169082Y-84751968D01*
X167165000Y-84710519D01*
X167165000Y-84250481D01*
X167169082Y-84209032D01*
X167180810Y-84170370D01*
X167199860Y-84134730D01*
X167225495Y-84103495D01*
X167256730Y-84077860D01*
X167292370Y-84058810D01*
X167331032Y-84047082D01*
X167372481Y-84043000D01*
X167907519Y-84043000D01*
X167948968Y-84047082D01*
X167948968Y-84047082D01*
G37*
G36*
X169472968Y-84047082D02*
X169511630Y-84058810D01*
X169547270Y-84077860D01*
X169578505Y-84103495D01*
X169604140Y-84134730D01*
X169623190Y-84170370D01*
X169634918Y-84209032D01*
X169639000Y-84250481D01*
X169639000Y-84710519D01*
X169634918Y-84751968D01*
X169623190Y-84790630D01*
X169604140Y-84826270D01*
X169578505Y-84857505D01*
X169547270Y-84883140D01*
X169511630Y-84902190D01*
X169472968Y-84913918D01*
X169431519Y-84918000D01*
X168896481Y-84918000D01*
X168855032Y-84913918D01*
X168816370Y-84902190D01*
X168780730Y-84883140D01*
X168749495Y-84857505D01*
X168723860Y-84826270D01*
X168704810Y-84790630D01*
X168693082Y-84751968D01*
X168689000Y-84710519D01*
X168689000Y-84250481D01*
X168693082Y-84209032D01*
X168704810Y-84170370D01*
X168723860Y-84134730D01*
X168749495Y-84103495D01*
X168780730Y-84077860D01*
X168816370Y-84058810D01*
X168855032Y-84047082D01*
X168896481Y-84043000D01*
X169431519Y-84043000D01*
X169472968Y-84047082D01*
X169472968Y-84047082D01*
G37*
G36*
X164900968Y-84047082D02*
X164939630Y-84058810D01*
X164975270Y-84077860D01*
X165006505Y-84103495D01*
X165032140Y-84134730D01*
X165051190Y-84170370D01*
X165062918Y-84209032D01*
X165067000Y-84250481D01*
X165067000Y-84710519D01*
X165062918Y-84751968D01*
X165051190Y-84790630D01*
X165032140Y-84826270D01*
X165006505Y-84857505D01*
X164975270Y-84883140D01*
X164939630Y-84902190D01*
X164900968Y-84913918D01*
X164859519Y-84918000D01*
X164324481Y-84918000D01*
X164283032Y-84913918D01*
X164244370Y-84902190D01*
X164208730Y-84883140D01*
X164177495Y-84857505D01*
X164151860Y-84826270D01*
X164132810Y-84790630D01*
X164121082Y-84751968D01*
X164117000Y-84710519D01*
X164117000Y-84250481D01*
X164121082Y-84209032D01*
X164132810Y-84170370D01*
X164151860Y-84134730D01*
X164177495Y-84103495D01*
X164208730Y-84077860D01*
X164244370Y-84058810D01*
X164283032Y-84047082D01*
X164324481Y-84043000D01*
X164859519Y-84043000D01*
X164900968Y-84047082D01*
X164900968Y-84047082D01*
G37*
G36*
X166424968Y-84047082D02*
X166463630Y-84058810D01*
X166499270Y-84077860D01*
X166530505Y-84103495D01*
X166556140Y-84134730D01*
X166575190Y-84170370D01*
X166586918Y-84209032D01*
X166591000Y-84250481D01*
X166591000Y-84710519D01*
X166586918Y-84751968D01*
X166575190Y-84790630D01*
X166556140Y-84826270D01*
X166530505Y-84857505D01*
X166499270Y-84883140D01*
X166463630Y-84902190D01*
X166424968Y-84913918D01*
X166383519Y-84918000D01*
X165848481Y-84918000D01*
X165807032Y-84913918D01*
X165768370Y-84902190D01*
X165732730Y-84883140D01*
X165701495Y-84857505D01*
X165675860Y-84826270D01*
X165656810Y-84790630D01*
X165645082Y-84751968D01*
X165641000Y-84710519D01*
X165641000Y-84250481D01*
X165645082Y-84209032D01*
X165656810Y-84170370D01*
X165675860Y-84134730D01*
X165701495Y-84103495D01*
X165732730Y-84077860D01*
X165768370Y-84058810D01*
X165807032Y-84047082D01*
X165848481Y-84043000D01*
X166383519Y-84043000D01*
X166424968Y-84047082D01*
X166424968Y-84047082D01*
G37*
G36*
X158310468Y-83730082D02*
X158349130Y-83741810D01*
X158384770Y-83760860D01*
X158416005Y-83786495D01*
X158441640Y-83817730D01*
X158460690Y-83853370D01*
X158472418Y-83892032D01*
X158476500Y-83933481D01*
X158476500Y-84468519D01*
X158472418Y-84509968D01*
X158460690Y-84548630D01*
X158441640Y-84584270D01*
X158416005Y-84615505D01*
X158384770Y-84641140D01*
X158349130Y-84660190D01*
X158310468Y-84671918D01*
X158269019Y-84676000D01*
X157808981Y-84676000D01*
X157767532Y-84671918D01*
X157728870Y-84660190D01*
X157693230Y-84641140D01*
X157661995Y-84615505D01*
X157636360Y-84584270D01*
X157617310Y-84548630D01*
X157605582Y-84509968D01*
X157601500Y-84468519D01*
X157601500Y-83933481D01*
X157605582Y-83892032D01*
X157617310Y-83853370D01*
X157636360Y-83817730D01*
X157661995Y-83786495D01*
X157693230Y-83760860D01*
X157728870Y-83741810D01*
X157767532Y-83730082D01*
X157808981Y-83726000D01*
X158269019Y-83726000D01*
X158310468Y-83730082D01*
X158310468Y-83730082D01*
G37*
G36*
X156735468Y-83730082D02*
X156774130Y-83741810D01*
X156809770Y-83760860D01*
X156841005Y-83786495D01*
X156866640Y-83817730D01*
X156885690Y-83853370D01*
X156897418Y-83892032D01*
X156901500Y-83933481D01*
X156901500Y-84468519D01*
X156897418Y-84509968D01*
X156885690Y-84548630D01*
X156866640Y-84584270D01*
X156841005Y-84615505D01*
X156809770Y-84641140D01*
X156774130Y-84660190D01*
X156735468Y-84671918D01*
X156694019Y-84676000D01*
X156233981Y-84676000D01*
X156192532Y-84671918D01*
X156153870Y-84660190D01*
X156118230Y-84641140D01*
X156086995Y-84615505D01*
X156061360Y-84584270D01*
X156042310Y-84548630D01*
X156030582Y-84509968D01*
X156026500Y-84468519D01*
X156026500Y-83933481D01*
X156030582Y-83892032D01*
X156042310Y-83853370D01*
X156061360Y-83817730D01*
X156086995Y-83786495D01*
X156118230Y-83760860D01*
X156153870Y-83741810D01*
X156192532Y-83730082D01*
X156233981Y-83726000D01*
X156694019Y-83726000D01*
X156735468Y-83730082D01*
X156735468Y-83730082D01*
G37*
G36*
X164900968Y-82472082D02*
X164939630Y-82483810D01*
X164975270Y-82502860D01*
X165006505Y-82528495D01*
X165032140Y-82559730D01*
X165051190Y-82595370D01*
X165062918Y-82634032D01*
X165067000Y-82675481D01*
X165067000Y-83135519D01*
X165062918Y-83176968D01*
X165051190Y-83215630D01*
X165032140Y-83251270D01*
X165006505Y-83282505D01*
X164975270Y-83308140D01*
X164939630Y-83327190D01*
X164900968Y-83338918D01*
X164859519Y-83343000D01*
X164324481Y-83343000D01*
X164283032Y-83338918D01*
X164244370Y-83327190D01*
X164208730Y-83308140D01*
X164177495Y-83282505D01*
X164151860Y-83251270D01*
X164132810Y-83215630D01*
X164121082Y-83176968D01*
X164117000Y-83135519D01*
X164117000Y-82675481D01*
X164121082Y-82634032D01*
X164132810Y-82595370D01*
X164151860Y-82559730D01*
X164177495Y-82528495D01*
X164208730Y-82502860D01*
X164244370Y-82483810D01*
X164283032Y-82472082D01*
X164324481Y-82468000D01*
X164859519Y-82468000D01*
X164900968Y-82472082D01*
X164900968Y-82472082D01*
G37*
G36*
X166424968Y-82472082D02*
X166463630Y-82483810D01*
X166499270Y-82502860D01*
X166530505Y-82528495D01*
X166556140Y-82559730D01*
X166575190Y-82595370D01*
X166586918Y-82634032D01*
X166591000Y-82675481D01*
X166591000Y-83135519D01*
X166586918Y-83176968D01*
X166575190Y-83215630D01*
X166556140Y-83251270D01*
X166530505Y-83282505D01*
X166499270Y-83308140D01*
X166463630Y-83327190D01*
X166424968Y-83338918D01*
X166383519Y-83343000D01*
X165848481Y-83343000D01*
X165807032Y-83338918D01*
X165768370Y-83327190D01*
X165732730Y-83308140D01*
X165701495Y-83282505D01*
X165675860Y-83251270D01*
X165656810Y-83215630D01*
X165645082Y-83176968D01*
X165641000Y-83135519D01*
X165641000Y-82675481D01*
X165645082Y-82634032D01*
X165656810Y-82595370D01*
X165675860Y-82559730D01*
X165701495Y-82528495D01*
X165732730Y-82502860D01*
X165768370Y-82483810D01*
X165807032Y-82472082D01*
X165848481Y-82468000D01*
X166383519Y-82468000D01*
X166424968Y-82472082D01*
X166424968Y-82472082D01*
G37*
G36*
X167948968Y-82472082D02*
X167987630Y-82483810D01*
X168023270Y-82502860D01*
X168054505Y-82528495D01*
X168080140Y-82559730D01*
X168099190Y-82595370D01*
X168110918Y-82634032D01*
X168115000Y-82675481D01*
X168115000Y-83135519D01*
X168110918Y-83176968D01*
X168099190Y-83215630D01*
X168080140Y-83251270D01*
X168054505Y-83282505D01*
X168023270Y-83308140D01*
X167987630Y-83327190D01*
X167948968Y-83338918D01*
X167907519Y-83343000D01*
X167372481Y-83343000D01*
X167331032Y-83338918D01*
X167292370Y-83327190D01*
X167256730Y-83308140D01*
X167225495Y-83282505D01*
X167199860Y-83251270D01*
X167180810Y-83215630D01*
X167169082Y-83176968D01*
X167165000Y-83135519D01*
X167165000Y-82675481D01*
X167169082Y-82634032D01*
X167180810Y-82595370D01*
X167199860Y-82559730D01*
X167225495Y-82528495D01*
X167256730Y-82502860D01*
X167292370Y-82483810D01*
X167331032Y-82472082D01*
X167372481Y-82468000D01*
X167907519Y-82468000D01*
X167948968Y-82472082D01*
X167948968Y-82472082D01*
G37*
G36*
X169472968Y-82472082D02*
X169511630Y-82483810D01*
X169547270Y-82502860D01*
X169578505Y-82528495D01*
X169604140Y-82559730D01*
X169623190Y-82595370D01*
X169634918Y-82634032D01*
X169639000Y-82675481D01*
X169639000Y-83135519D01*
X169634918Y-83176968D01*
X169623190Y-83215630D01*
X169604140Y-83251270D01*
X169578505Y-83282505D01*
X169547270Y-83308140D01*
X169511630Y-83327190D01*
X169472968Y-83338918D01*
X169431519Y-83343000D01*
X168896481Y-83343000D01*
X168855032Y-83338918D01*
X168816370Y-83327190D01*
X168780730Y-83308140D01*
X168749495Y-83282505D01*
X168723860Y-83251270D01*
X168704810Y-83215630D01*
X168693082Y-83176968D01*
X168689000Y-83135519D01*
X168689000Y-82675481D01*
X168693082Y-82634032D01*
X168704810Y-82595370D01*
X168723860Y-82559730D01*
X168749495Y-82528495D01*
X168780730Y-82502860D01*
X168816370Y-82483810D01*
X168855032Y-82472082D01*
X168896481Y-82468000D01*
X169431519Y-82468000D01*
X169472968Y-82472082D01*
X169472968Y-82472082D01*
G37*
G36*
X176921000Y-82996000D02*
X176271000Y-82996000D01*
X176271000Y-81936000D01*
X176921000Y-81936000D01*
X176921000Y-82996000D01*
X176921000Y-82996000D01*
G37*
G36*
X173487000Y-82996000D02*
X172837000Y-82996000D01*
X172837000Y-81936000D01*
X173487000Y-81936000D01*
X173487000Y-82996000D01*
X173487000Y-82996000D01*
G37*
G36*
X171587000Y-82996000D02*
X170937000Y-82996000D01*
X170937000Y-81936000D01*
X171587000Y-81936000D01*
X171587000Y-82996000D01*
X171587000Y-82996000D01*
G37*
G36*
X178821000Y-82996000D02*
X178171000Y-82996000D01*
X178171000Y-81936000D01*
X178821000Y-81936000D01*
X178821000Y-82996000D01*
X178821000Y-82996000D01*
G37*
G36*
X166760500Y-81686000D02*
X166360500Y-81686000D01*
X166360500Y-80486000D01*
X166760500Y-80486000D01*
X166760500Y-81686000D01*
X166760500Y-81686000D01*
G37*
G36*
X165490500Y-81686000D02*
X165090500Y-81686000D01*
X165090500Y-80486000D01*
X165490500Y-80486000D01*
X165490500Y-81686000D01*
X165490500Y-81686000D01*
G37*
G36*
X166125500Y-81686000D02*
X165725500Y-81686000D01*
X165725500Y-80486000D01*
X166125500Y-80486000D01*
X166125500Y-81686000D01*
X166125500Y-81686000D01*
G37*
G36*
X164220500Y-81686000D02*
X163820500Y-81686000D01*
X163820500Y-80486000D01*
X164220500Y-80486000D01*
X164220500Y-81686000D01*
X164220500Y-81686000D01*
G37*
G36*
X161045500Y-81686000D02*
X160645500Y-81686000D01*
X160645500Y-80486000D01*
X161045500Y-80486000D01*
X161045500Y-81686000D01*
X161045500Y-81686000D01*
G37*
G36*
X161680500Y-81686000D02*
X161280500Y-81686000D01*
X161280500Y-80486000D01*
X161680500Y-80486000D01*
X161680500Y-81686000D01*
X161680500Y-81686000D01*
G37*
G36*
X162315500Y-81686000D02*
X161915500Y-81686000D01*
X161915500Y-80486000D01*
X162315500Y-80486000D01*
X162315500Y-81686000D01*
X162315500Y-81686000D01*
G37*
G36*
X162950500Y-81686000D02*
X162550500Y-81686000D01*
X162550500Y-80486000D01*
X162950500Y-80486000D01*
X162950500Y-81686000D01*
X162950500Y-81686000D01*
G37*
G36*
X163585500Y-81686000D02*
X163185500Y-81686000D01*
X163185500Y-80486000D01*
X163585500Y-80486000D01*
X163585500Y-81686000D01*
X163585500Y-81686000D01*
G37*
G36*
X164855500Y-81686000D02*
X164455500Y-81686000D01*
X164455500Y-80486000D01*
X164855500Y-80486000D01*
X164855500Y-81686000D01*
X164855500Y-81686000D01*
G37*
G36*
X169726968Y-80745082D02*
X169765630Y-80756810D01*
X169801270Y-80775860D01*
X169832505Y-80801495D01*
X169858140Y-80832730D01*
X169877190Y-80868370D01*
X169888918Y-80907032D01*
X169893000Y-80948481D01*
X169893000Y-81408519D01*
X169888918Y-81449968D01*
X169877190Y-81488630D01*
X169858140Y-81524270D01*
X169832505Y-81555505D01*
X169801270Y-81581140D01*
X169765630Y-81600190D01*
X169726968Y-81611918D01*
X169685519Y-81616000D01*
X169150481Y-81616000D01*
X169109032Y-81611918D01*
X169070370Y-81600190D01*
X169034730Y-81581140D01*
X169003495Y-81555505D01*
X168977860Y-81524270D01*
X168958810Y-81488630D01*
X168947082Y-81449968D01*
X168943000Y-81408519D01*
X168943000Y-80948481D01*
X168947082Y-80907032D01*
X168958810Y-80868370D01*
X168977860Y-80832730D01*
X169003495Y-80801495D01*
X169034730Y-80775860D01*
X169070370Y-80756810D01*
X169109032Y-80745082D01*
X169150481Y-80741000D01*
X169685519Y-80741000D01*
X169726968Y-80745082D01*
X169726968Y-80745082D01*
G37*
G36*
X154083376Y-79418100D02*
X154166633Y-79426300D01*
X154326852Y-79474902D01*
X154326855Y-79474903D01*
X154405165Y-79516761D01*
X154474520Y-79553832D01*
X154603949Y-79660051D01*
X154710168Y-79789480D01*
X154747239Y-79858835D01*
X154789097Y-79937145D01*
X154789098Y-79937148D01*
X154837700Y-80097367D01*
X154854112Y-80264000D01*
X154837700Y-80430633D01*
X154798081Y-80561239D01*
X154789097Y-80590855D01*
X154747239Y-80669165D01*
X154710168Y-80738520D01*
X154603949Y-80867949D01*
X154474520Y-80974168D01*
X154405165Y-81011239D01*
X154326855Y-81053097D01*
X154326852Y-81053098D01*
X154166633Y-81101700D01*
X154083376Y-81109900D01*
X154041749Y-81114000D01*
X153958251Y-81114000D01*
X153916624Y-81109900D01*
X153833367Y-81101700D01*
X153673148Y-81053098D01*
X153673145Y-81053097D01*
X153594835Y-81011239D01*
X153525480Y-80974168D01*
X153396051Y-80867949D01*
X153289832Y-80738520D01*
X153252761Y-80669165D01*
X153210903Y-80590855D01*
X153201919Y-80561239D01*
X153162300Y-80430633D01*
X153145888Y-80264000D01*
X153162300Y-80097367D01*
X153210902Y-79937148D01*
X153210903Y-79937145D01*
X153252761Y-79858835D01*
X153289832Y-79789480D01*
X153396051Y-79660051D01*
X153525480Y-79553832D01*
X153594835Y-79516761D01*
X153673145Y-79474903D01*
X153673148Y-79474902D01*
X153833367Y-79426300D01*
X153916624Y-79418100D01*
X153958251Y-79414000D01*
X154041749Y-79414000D01*
X154083376Y-79418100D01*
X154083376Y-79418100D01*
G37*
G36*
X156623376Y-79418100D02*
X156706633Y-79426300D01*
X156866852Y-79474902D01*
X156866855Y-79474903D01*
X156945165Y-79516761D01*
X157014520Y-79553832D01*
X157143949Y-79660051D01*
X157250168Y-79789480D01*
X157287239Y-79858835D01*
X157329097Y-79937145D01*
X157329098Y-79937148D01*
X157377700Y-80097367D01*
X157394112Y-80264000D01*
X157377700Y-80430633D01*
X157338081Y-80561239D01*
X157329097Y-80590855D01*
X157287239Y-80669165D01*
X157250168Y-80738520D01*
X157143949Y-80867949D01*
X157014520Y-80974168D01*
X156945165Y-81011239D01*
X156866855Y-81053097D01*
X156866852Y-81053098D01*
X156706633Y-81101700D01*
X156623376Y-81109900D01*
X156581749Y-81114000D01*
X156498251Y-81114000D01*
X156456624Y-81109900D01*
X156373367Y-81101700D01*
X156213148Y-81053098D01*
X156213145Y-81053097D01*
X156134835Y-81011239D01*
X156065480Y-80974168D01*
X155936051Y-80867949D01*
X155829832Y-80738520D01*
X155792761Y-80669165D01*
X155750903Y-80590855D01*
X155741919Y-80561239D01*
X155702300Y-80430633D01*
X155685888Y-80264000D01*
X155702300Y-80097367D01*
X155750902Y-79937148D01*
X155750903Y-79937145D01*
X155792761Y-79858835D01*
X155829832Y-79789480D01*
X155936051Y-79660051D01*
X156065480Y-79553832D01*
X156134835Y-79516761D01*
X156213145Y-79474903D01*
X156213148Y-79474902D01*
X156373367Y-79426300D01*
X156456624Y-79418100D01*
X156498251Y-79414000D01*
X156581749Y-79414000D01*
X156623376Y-79418100D01*
X156623376Y-79418100D01*
G37*
G36*
X173934304Y-79966761D02*
X173960071Y-79974578D01*
X173983824Y-79987274D01*
X174004642Y-80004358D01*
X174021726Y-80025176D01*
X174034422Y-80048929D01*
X174042239Y-80074696D01*
X174045000Y-80102731D01*
X174045000Y-80425269D01*
X174042239Y-80453304D01*
X174034422Y-80479071D01*
X174021726Y-80502824D01*
X174004642Y-80523642D01*
X173983824Y-80540726D01*
X173960071Y-80553422D01*
X173934304Y-80561239D01*
X173906269Y-80564000D01*
X172583731Y-80564000D01*
X172555696Y-80561239D01*
X172529929Y-80553422D01*
X172506176Y-80540726D01*
X172485358Y-80523642D01*
X172468274Y-80502824D01*
X172455578Y-80479071D01*
X172447761Y-80453304D01*
X172445000Y-80425269D01*
X172445000Y-80102731D01*
X172447761Y-80074696D01*
X172455578Y-80048929D01*
X172468274Y-80025176D01*
X172485358Y-80004358D01*
X172506176Y-79987274D01*
X172529929Y-79974578D01*
X172555696Y-79966761D01*
X172583731Y-79964000D01*
X173906269Y-79964000D01*
X173934304Y-79966761D01*
X173934304Y-79966761D01*
G37*
G36*
X179234304Y-79966761D02*
X179260071Y-79974578D01*
X179283824Y-79987274D01*
X179304642Y-80004358D01*
X179321726Y-80025176D01*
X179334422Y-80048929D01*
X179342239Y-80074696D01*
X179345000Y-80102731D01*
X179345000Y-80425269D01*
X179342239Y-80453304D01*
X179334422Y-80479071D01*
X179321726Y-80502824D01*
X179304642Y-80523642D01*
X179283824Y-80540726D01*
X179260071Y-80553422D01*
X179234304Y-80561239D01*
X179206269Y-80564000D01*
X177883731Y-80564000D01*
X177855696Y-80561239D01*
X177829929Y-80553422D01*
X177806176Y-80540726D01*
X177785358Y-80523642D01*
X177768274Y-80502824D01*
X177755578Y-80479071D01*
X177747761Y-80453304D01*
X177745000Y-80425269D01*
X177745000Y-80102731D01*
X177747761Y-80074696D01*
X177755578Y-80048929D01*
X177768274Y-80025176D01*
X177785358Y-80004358D01*
X177806176Y-79987274D01*
X177829929Y-79974578D01*
X177855696Y-79966761D01*
X177883731Y-79964000D01*
X179206269Y-79964000D01*
X179234304Y-79966761D01*
X179234304Y-79966761D01*
G37*
G36*
X169726968Y-79170082D02*
X169765630Y-79181810D01*
X169801270Y-79200860D01*
X169832505Y-79226495D01*
X169858140Y-79257730D01*
X169877190Y-79293370D01*
X169888918Y-79332032D01*
X169893000Y-79373481D01*
X169893000Y-79833519D01*
X169888918Y-79874968D01*
X169877190Y-79913630D01*
X169858140Y-79949270D01*
X169832505Y-79980505D01*
X169801270Y-80006140D01*
X169765630Y-80025190D01*
X169726968Y-80036918D01*
X169685519Y-80041000D01*
X169150481Y-80041000D01*
X169109032Y-80036918D01*
X169070370Y-80025190D01*
X169034730Y-80006140D01*
X169003495Y-79980505D01*
X168977860Y-79949270D01*
X168958810Y-79913630D01*
X168947082Y-79874968D01*
X168943000Y-79833519D01*
X168943000Y-79373481D01*
X168947082Y-79332032D01*
X168958810Y-79293370D01*
X168977860Y-79257730D01*
X169003495Y-79226495D01*
X169034730Y-79200860D01*
X169070370Y-79181810D01*
X169109032Y-79170082D01*
X169150481Y-79166000D01*
X169685519Y-79166000D01*
X169726968Y-79170082D01*
X169726968Y-79170082D01*
G37*
G36*
X176914702Y-76813542D02*
X176957854Y-76826632D01*
X176997632Y-76847894D01*
X177032495Y-76876505D01*
X177061106Y-76911368D01*
X177082368Y-76951146D01*
X177095458Y-76994298D01*
X177100000Y-77040417D01*
X177100000Y-79677583D01*
X177095458Y-79723702D01*
X177082368Y-79766854D01*
X177061106Y-79806632D01*
X177032495Y-79841495D01*
X176997632Y-79870106D01*
X176957854Y-79891368D01*
X176914702Y-79904458D01*
X176868583Y-79909000D01*
X174921417Y-79909000D01*
X174875298Y-79904458D01*
X174832146Y-79891368D01*
X174792368Y-79870106D01*
X174757505Y-79841495D01*
X174728894Y-79806632D01*
X174707632Y-79766854D01*
X174694542Y-79723702D01*
X174690000Y-79677583D01*
X174690000Y-77040417D01*
X174694542Y-76994298D01*
X174707632Y-76951146D01*
X174728894Y-76911368D01*
X174757505Y-76876505D01*
X174792368Y-76847894D01*
X174832146Y-76826632D01*
X174875298Y-76813542D01*
X174921417Y-76809000D01*
X176868583Y-76809000D01*
X176914702Y-76813542D01*
X176914702Y-76813542D01*
G37*
G36*
X179234304Y-78696761D02*
X179260071Y-78704578D01*
X179283824Y-78717274D01*
X179304642Y-78734358D01*
X179321726Y-78755176D01*
X179334422Y-78778929D01*
X179342239Y-78804696D01*
X179345000Y-78832731D01*
X179345000Y-79155269D01*
X179342239Y-79183304D01*
X179334422Y-79209071D01*
X179321726Y-79232824D01*
X179304642Y-79253642D01*
X179283824Y-79270726D01*
X179260071Y-79283422D01*
X179234304Y-79291239D01*
X179206269Y-79294000D01*
X177883731Y-79294000D01*
X177855696Y-79291239D01*
X177829929Y-79283422D01*
X177806176Y-79270726D01*
X177785358Y-79253642D01*
X177768274Y-79232824D01*
X177755578Y-79209071D01*
X177747761Y-79183304D01*
X177745000Y-79155269D01*
X177745000Y-78832731D01*
X177747761Y-78804696D01*
X177755578Y-78778929D01*
X177768274Y-78755176D01*
X177785358Y-78734358D01*
X177806176Y-78717274D01*
X177829929Y-78704578D01*
X177855696Y-78696761D01*
X177883731Y-78694000D01*
X179206269Y-78694000D01*
X179234304Y-78696761D01*
X179234304Y-78696761D01*
G37*
G36*
X173934304Y-78696761D02*
X173960071Y-78704578D01*
X173983824Y-78717274D01*
X174004642Y-78734358D01*
X174021726Y-78755176D01*
X174034422Y-78778929D01*
X174042239Y-78804696D01*
X174045000Y-78832731D01*
X174045000Y-79155269D01*
X174042239Y-79183304D01*
X174034422Y-79209071D01*
X174021726Y-79232824D01*
X174004642Y-79253642D01*
X173983824Y-79270726D01*
X173960071Y-79283422D01*
X173934304Y-79291239D01*
X173906269Y-79294000D01*
X172583731Y-79294000D01*
X172555696Y-79291239D01*
X172529929Y-79283422D01*
X172506176Y-79270726D01*
X172485358Y-79253642D01*
X172468274Y-79232824D01*
X172455578Y-79209071D01*
X172447761Y-79183304D01*
X172445000Y-79155269D01*
X172445000Y-78832731D01*
X172447761Y-78804696D01*
X172455578Y-78778929D01*
X172468274Y-78755176D01*
X172485358Y-78734358D01*
X172506176Y-78717274D01*
X172529929Y-78704578D01*
X172555696Y-78696761D01*
X172583731Y-78694000D01*
X173906269Y-78694000D01*
X173934304Y-78696761D01*
X173934304Y-78696761D01*
G37*
G36*
X154083376Y-76878100D02*
X154166633Y-76886300D01*
X154326852Y-76934902D01*
X154326855Y-76934903D01*
X154392576Y-76970032D01*
X154474520Y-77013832D01*
X154603949Y-77120051D01*
X154710168Y-77249480D01*
X154747239Y-77318835D01*
X154789097Y-77397145D01*
X154789098Y-77397148D01*
X154837700Y-77557367D01*
X154854112Y-77724000D01*
X154837700Y-77890633D01*
X154798081Y-78021239D01*
X154789097Y-78050855D01*
X154747239Y-78129165D01*
X154710168Y-78198520D01*
X154603949Y-78327949D01*
X154474520Y-78434168D01*
X154405165Y-78471239D01*
X154326855Y-78513097D01*
X154326852Y-78513098D01*
X154166633Y-78561700D01*
X154083376Y-78569900D01*
X154041749Y-78574000D01*
X153958251Y-78574000D01*
X153916624Y-78569900D01*
X153833367Y-78561700D01*
X153673148Y-78513098D01*
X153673145Y-78513097D01*
X153594835Y-78471239D01*
X153525480Y-78434168D01*
X153396051Y-78327949D01*
X153289832Y-78198520D01*
X153252761Y-78129165D01*
X153210903Y-78050855D01*
X153201919Y-78021239D01*
X153162300Y-77890633D01*
X153145888Y-77724000D01*
X153162300Y-77557367D01*
X153210902Y-77397148D01*
X153210903Y-77397145D01*
X153252761Y-77318835D01*
X153289832Y-77249480D01*
X153396051Y-77120051D01*
X153525480Y-77013832D01*
X153607424Y-76970032D01*
X153673145Y-76934903D01*
X153673148Y-76934902D01*
X153833367Y-76886300D01*
X153916624Y-76878100D01*
X153958251Y-76874000D01*
X154041749Y-76874000D01*
X154083376Y-76878100D01*
X154083376Y-76878100D01*
G37*
G36*
X156623376Y-76878100D02*
X156706633Y-76886300D01*
X156866852Y-76934902D01*
X156866855Y-76934903D01*
X156932576Y-76970032D01*
X157014520Y-77013832D01*
X157143949Y-77120051D01*
X157250168Y-77249480D01*
X157287239Y-77318835D01*
X157329097Y-77397145D01*
X157329098Y-77397148D01*
X157377700Y-77557367D01*
X157394112Y-77724000D01*
X157377700Y-77890633D01*
X157338081Y-78021239D01*
X157329097Y-78050855D01*
X157287239Y-78129165D01*
X157250168Y-78198520D01*
X157143949Y-78327949D01*
X157014520Y-78434168D01*
X156945165Y-78471239D01*
X156866855Y-78513097D01*
X156866852Y-78513098D01*
X156706633Y-78561700D01*
X156623376Y-78569900D01*
X156581749Y-78574000D01*
X156498251Y-78574000D01*
X156456624Y-78569900D01*
X156373367Y-78561700D01*
X156213148Y-78513098D01*
X156213145Y-78513097D01*
X156134835Y-78471239D01*
X156065480Y-78434168D01*
X155936051Y-78327949D01*
X155829832Y-78198520D01*
X155792761Y-78129165D01*
X155750903Y-78050855D01*
X155741919Y-78021239D01*
X155702300Y-77890633D01*
X155685888Y-77724000D01*
X155702300Y-77557367D01*
X155750902Y-77397148D01*
X155750903Y-77397145D01*
X155792761Y-77318835D01*
X155829832Y-77249480D01*
X155936051Y-77120051D01*
X156065480Y-77013832D01*
X156147424Y-76970032D01*
X156213145Y-76934903D01*
X156213148Y-76934902D01*
X156373367Y-76886300D01*
X156456624Y-76878100D01*
X156498251Y-76874000D01*
X156581749Y-76874000D01*
X156623376Y-76878100D01*
X156623376Y-76878100D01*
G37*
G36*
X173934304Y-77426761D02*
X173960071Y-77434578D01*
X173983824Y-77447274D01*
X174004642Y-77464358D01*
X174021726Y-77485176D01*
X174034422Y-77508929D01*
X174042239Y-77534696D01*
X174045000Y-77562731D01*
X174045000Y-77885269D01*
X174042239Y-77913304D01*
X174034422Y-77939071D01*
X174021726Y-77962824D01*
X174004642Y-77983642D01*
X173983824Y-78000726D01*
X173960071Y-78013422D01*
X173934304Y-78021239D01*
X173906269Y-78024000D01*
X172583731Y-78024000D01*
X172555696Y-78021239D01*
X172529929Y-78013422D01*
X172506176Y-78000726D01*
X172485358Y-77983642D01*
X172468274Y-77962824D01*
X172455578Y-77939071D01*
X172447761Y-77913304D01*
X172445000Y-77885269D01*
X172445000Y-77562731D01*
X172447761Y-77534696D01*
X172455578Y-77508929D01*
X172468274Y-77485176D01*
X172485358Y-77464358D01*
X172506176Y-77447274D01*
X172529929Y-77434578D01*
X172555696Y-77426761D01*
X172583731Y-77424000D01*
X173906269Y-77424000D01*
X173934304Y-77426761D01*
X173934304Y-77426761D01*
G37*
G36*
X179234304Y-77426761D02*
X179260071Y-77434578D01*
X179283824Y-77447274D01*
X179304642Y-77464358D01*
X179321726Y-77485176D01*
X179334422Y-77508929D01*
X179342239Y-77534696D01*
X179345000Y-77562731D01*
X179345000Y-77885269D01*
X179342239Y-77913304D01*
X179334422Y-77939071D01*
X179321726Y-77962824D01*
X179304642Y-77983642D01*
X179283824Y-78000726D01*
X179260071Y-78013422D01*
X179234304Y-78021239D01*
X179206269Y-78024000D01*
X177883731Y-78024000D01*
X177855696Y-78021239D01*
X177829929Y-78013422D01*
X177806176Y-78000726D01*
X177785358Y-77983642D01*
X177768274Y-77962824D01*
X177755578Y-77939071D01*
X177747761Y-77913304D01*
X177745000Y-77885269D01*
X177745000Y-77562731D01*
X177747761Y-77534696D01*
X177755578Y-77508929D01*
X177768274Y-77485176D01*
X177785358Y-77464358D01*
X177806176Y-77447274D01*
X177829929Y-77434578D01*
X177855696Y-77426761D01*
X177883731Y-77424000D01*
X179206269Y-77424000D01*
X179234304Y-77426761D01*
X179234304Y-77426761D01*
G37*
G36*
X169853968Y-76808082D02*
X169892630Y-76819810D01*
X169928270Y-76838860D01*
X169959505Y-76864495D01*
X169985140Y-76895730D01*
X170004190Y-76931370D01*
X170015918Y-76970032D01*
X170020000Y-77011481D01*
X170020000Y-77471519D01*
X170015918Y-77512968D01*
X170004190Y-77551630D01*
X169985140Y-77587270D01*
X169959505Y-77618505D01*
X169928270Y-77644140D01*
X169892630Y-77663190D01*
X169853968Y-77674918D01*
X169812519Y-77679000D01*
X169277481Y-77679000D01*
X169236032Y-77674918D01*
X169197370Y-77663190D01*
X169161730Y-77644140D01*
X169130495Y-77618505D01*
X169104860Y-77587270D01*
X169085810Y-77551630D01*
X169074082Y-77512968D01*
X169070000Y-77471519D01*
X169070000Y-77011481D01*
X169074082Y-76970032D01*
X169085810Y-76931370D01*
X169104860Y-76895730D01*
X169130495Y-76864495D01*
X169161730Y-76838860D01*
X169197370Y-76819810D01*
X169236032Y-76808082D01*
X169277481Y-76804000D01*
X169812519Y-76804000D01*
X169853968Y-76808082D01*
X169853968Y-76808082D01*
G37*
G36*
X171377968Y-76782582D02*
X171416630Y-76794310D01*
X171452270Y-76813360D01*
X171483505Y-76838995D01*
X171509140Y-76870230D01*
X171528190Y-76905870D01*
X171539918Y-76944532D01*
X171544000Y-76985981D01*
X171544000Y-77446019D01*
X171539918Y-77487468D01*
X171528190Y-77526130D01*
X171509140Y-77561770D01*
X171483505Y-77593005D01*
X171452270Y-77618640D01*
X171416630Y-77637690D01*
X171377968Y-77649418D01*
X171336519Y-77653500D01*
X170801481Y-77653500D01*
X170760032Y-77649418D01*
X170721370Y-77637690D01*
X170685730Y-77618640D01*
X170654495Y-77593005D01*
X170628860Y-77561770D01*
X170609810Y-77526130D01*
X170598082Y-77487468D01*
X170594000Y-77446019D01*
X170594000Y-76985981D01*
X170598082Y-76944532D01*
X170609810Y-76905870D01*
X170628860Y-76870230D01*
X170654495Y-76838995D01*
X170685730Y-76813360D01*
X170721370Y-76794310D01*
X170760032Y-76782582D01*
X170801481Y-76778500D01*
X171336519Y-76778500D01*
X171377968Y-76782582D01*
X171377968Y-76782582D01*
G37*
G36*
X173934304Y-76156761D02*
X173960071Y-76164578D01*
X173983824Y-76177274D01*
X174004642Y-76194358D01*
X174021726Y-76215176D01*
X174034422Y-76238929D01*
X174042239Y-76264696D01*
X174045000Y-76292731D01*
X174045000Y-76615269D01*
X174042239Y-76643304D01*
X174034422Y-76669071D01*
X174021726Y-76692824D01*
X174004642Y-76713642D01*
X173983824Y-76730726D01*
X173960071Y-76743422D01*
X173934304Y-76751239D01*
X173906269Y-76754000D01*
X172583731Y-76754000D01*
X172555696Y-76751239D01*
X172529929Y-76743422D01*
X172506176Y-76730726D01*
X172485358Y-76713642D01*
X172468274Y-76692824D01*
X172455578Y-76669071D01*
X172447761Y-76643304D01*
X172445000Y-76615269D01*
X172445000Y-76292731D01*
X172447761Y-76264696D01*
X172455578Y-76238929D01*
X172468274Y-76215176D01*
X172485358Y-76194358D01*
X172506176Y-76177274D01*
X172529929Y-76164578D01*
X172555696Y-76156761D01*
X172583731Y-76154000D01*
X173906269Y-76154000D01*
X173934304Y-76156761D01*
X173934304Y-76156761D01*
G37*
G36*
X179234304Y-76156761D02*
X179260071Y-76164578D01*
X179283824Y-76177274D01*
X179304642Y-76194358D01*
X179321726Y-76215176D01*
X179334422Y-76238929D01*
X179342239Y-76264696D01*
X179345000Y-76292731D01*
X179345000Y-76615269D01*
X179342239Y-76643304D01*
X179334422Y-76669071D01*
X179321726Y-76692824D01*
X179304642Y-76713642D01*
X179283824Y-76730726D01*
X179260071Y-76743422D01*
X179234304Y-76751239D01*
X179206269Y-76754000D01*
X177883731Y-76754000D01*
X177855696Y-76751239D01*
X177829929Y-76743422D01*
X177806176Y-76730726D01*
X177785358Y-76713642D01*
X177768274Y-76692824D01*
X177755578Y-76669071D01*
X177747761Y-76643304D01*
X177745000Y-76615269D01*
X177745000Y-76292731D01*
X177747761Y-76264696D01*
X177755578Y-76238929D01*
X177768274Y-76215176D01*
X177785358Y-76194358D01*
X177806176Y-76177274D01*
X177829929Y-76164578D01*
X177855696Y-76156761D01*
X177883731Y-76154000D01*
X179206269Y-76154000D01*
X179234304Y-76156761D01*
X179234304Y-76156761D01*
G37*
G36*
X161045500Y-76486000D02*
X160645500Y-76486000D01*
X160645500Y-75286000D01*
X161045500Y-75286000D01*
X161045500Y-76486000D01*
X161045500Y-76486000D01*
G37*
G36*
X166760500Y-76486000D02*
X166360500Y-76486000D01*
X166360500Y-75286000D01*
X166760500Y-75286000D01*
X166760500Y-76486000D01*
X166760500Y-76486000D01*
G37*
G36*
X166125500Y-76486000D02*
X165725500Y-76486000D01*
X165725500Y-75286000D01*
X166125500Y-75286000D01*
X166125500Y-76486000D01*
X166125500Y-76486000D01*
G37*
G36*
X165490500Y-76486000D02*
X165090500Y-76486000D01*
X165090500Y-75286000D01*
X165490500Y-75286000D01*
X165490500Y-76486000D01*
X165490500Y-76486000D01*
G37*
G36*
X164855500Y-76486000D02*
X164455500Y-76486000D01*
X164455500Y-75286000D01*
X164855500Y-75286000D01*
X164855500Y-76486000D01*
X164855500Y-76486000D01*
G37*
G36*
X164220500Y-76486000D02*
X163820500Y-76486000D01*
X163820500Y-75286000D01*
X164220500Y-75286000D01*
X164220500Y-76486000D01*
X164220500Y-76486000D01*
G37*
G36*
X163585500Y-76486000D02*
X163185500Y-76486000D01*
X163185500Y-75286000D01*
X163585500Y-75286000D01*
X163585500Y-76486000D01*
X163585500Y-76486000D01*
G37*
G36*
X162950500Y-76486000D02*
X162550500Y-76486000D01*
X162550500Y-75286000D01*
X162950500Y-75286000D01*
X162950500Y-76486000D01*
X162950500Y-76486000D01*
G37*
G36*
X162315500Y-76486000D02*
X161915500Y-76486000D01*
X161915500Y-75286000D01*
X162315500Y-75286000D01*
X162315500Y-76486000D01*
X162315500Y-76486000D01*
G37*
G36*
X161680500Y-76486000D02*
X161280500Y-76486000D01*
X161280500Y-75286000D01*
X161680500Y-75286000D01*
X161680500Y-76486000D01*
X161680500Y-76486000D01*
G37*
G36*
X169853968Y-75233082D02*
X169892630Y-75244810D01*
X169928270Y-75263860D01*
X169959505Y-75289495D01*
X169985140Y-75320730D01*
X170004190Y-75356370D01*
X170015918Y-75395032D01*
X170020000Y-75436481D01*
X170020000Y-75896519D01*
X170015918Y-75937968D01*
X170004190Y-75976630D01*
X169985140Y-76012270D01*
X169959505Y-76043505D01*
X169928270Y-76069140D01*
X169892630Y-76088190D01*
X169853968Y-76099918D01*
X169812519Y-76104000D01*
X169277481Y-76104000D01*
X169236032Y-76099918D01*
X169197370Y-76088190D01*
X169161730Y-76069140D01*
X169130495Y-76043505D01*
X169104860Y-76012270D01*
X169085810Y-75976630D01*
X169074082Y-75937968D01*
X169070000Y-75896519D01*
X169070000Y-75436481D01*
X169074082Y-75395032D01*
X169085810Y-75356370D01*
X169104860Y-75320730D01*
X169130495Y-75289495D01*
X169161730Y-75263860D01*
X169197370Y-75244810D01*
X169236032Y-75233082D01*
X169277481Y-75229000D01*
X169812519Y-75229000D01*
X169853968Y-75233082D01*
X169853968Y-75233082D01*
G37*
G36*
X171377968Y-75207582D02*
X171416630Y-75219310D01*
X171452270Y-75238360D01*
X171483505Y-75263995D01*
X171509140Y-75295230D01*
X171528190Y-75330870D01*
X171539918Y-75369532D01*
X171544000Y-75410981D01*
X171544000Y-75871019D01*
X171539918Y-75912468D01*
X171528190Y-75951130D01*
X171509140Y-75986770D01*
X171483505Y-76018005D01*
X171452270Y-76043640D01*
X171416630Y-76062690D01*
X171377968Y-76074418D01*
X171336519Y-76078500D01*
X170801481Y-76078500D01*
X170760032Y-76074418D01*
X170721370Y-76062690D01*
X170685730Y-76043640D01*
X170654495Y-76018005D01*
X170628860Y-75986770D01*
X170609810Y-75951130D01*
X170598082Y-75912468D01*
X170594000Y-75871019D01*
X170594000Y-75410981D01*
X170598082Y-75369532D01*
X170609810Y-75330870D01*
X170628860Y-75295230D01*
X170654495Y-75263995D01*
X170685730Y-75238360D01*
X170721370Y-75219310D01*
X170760032Y-75207582D01*
X170801481Y-75203500D01*
X171336519Y-75203500D01*
X171377968Y-75207582D01*
X171377968Y-75207582D01*
G37*
G36*
X156623376Y-74338100D02*
X156706633Y-74346300D01*
X156857516Y-74392070D01*
X156866855Y-74394903D01*
X156936838Y-74432310D01*
X157014520Y-74473832D01*
X157143949Y-74580051D01*
X157250168Y-74709480D01*
X157287239Y-74778835D01*
X157329097Y-74857145D01*
X157329098Y-74857148D01*
X157377700Y-75017367D01*
X157394112Y-75184000D01*
X157377700Y-75350633D01*
X157329098Y-75510852D01*
X157329097Y-75510855D01*
X157287239Y-75589165D01*
X157250168Y-75658520D01*
X157143949Y-75787949D01*
X157014520Y-75894168D01*
X156999070Y-75902426D01*
X156866855Y-75973097D01*
X156866852Y-75973098D01*
X156706633Y-76021700D01*
X156623376Y-76029900D01*
X156581749Y-76034000D01*
X156498251Y-76034000D01*
X156456624Y-76029900D01*
X156373367Y-76021700D01*
X156213148Y-75973098D01*
X156213145Y-75973097D01*
X156080930Y-75902426D01*
X156065480Y-75894168D01*
X155936051Y-75787949D01*
X155829832Y-75658520D01*
X155792761Y-75589165D01*
X155750903Y-75510855D01*
X155750902Y-75510852D01*
X155702300Y-75350633D01*
X155685888Y-75184000D01*
X155702300Y-75017367D01*
X155750902Y-74857148D01*
X155750903Y-74857145D01*
X155792761Y-74778835D01*
X155829832Y-74709480D01*
X155936051Y-74580051D01*
X156065480Y-74473832D01*
X156143162Y-74432310D01*
X156213145Y-74394903D01*
X156222484Y-74392070D01*
X156373367Y-74346300D01*
X156456624Y-74338100D01*
X156498251Y-74334000D01*
X156581749Y-74334000D01*
X156623376Y-74338100D01*
X156623376Y-74338100D01*
G37*
G36*
X154083376Y-74338100D02*
X154166633Y-74346300D01*
X154317516Y-74392070D01*
X154326855Y-74394903D01*
X154396838Y-74432310D01*
X154474520Y-74473832D01*
X154603949Y-74580051D01*
X154710168Y-74709480D01*
X154747239Y-74778835D01*
X154789097Y-74857145D01*
X154789098Y-74857148D01*
X154837700Y-75017367D01*
X154854112Y-75184000D01*
X154837700Y-75350633D01*
X154789098Y-75510852D01*
X154789097Y-75510855D01*
X154747239Y-75589165D01*
X154710168Y-75658520D01*
X154603949Y-75787949D01*
X154474520Y-75894168D01*
X154459070Y-75902426D01*
X154326855Y-75973097D01*
X154326852Y-75973098D01*
X154166633Y-76021700D01*
X154083376Y-76029900D01*
X154041749Y-76034000D01*
X153958251Y-76034000D01*
X153916624Y-76029900D01*
X153833367Y-76021700D01*
X153673148Y-75973098D01*
X153673145Y-75973097D01*
X153540930Y-75902426D01*
X153525480Y-75894168D01*
X153396051Y-75787949D01*
X153289832Y-75658520D01*
X153252761Y-75589165D01*
X153210903Y-75510855D01*
X153210902Y-75510852D01*
X153162300Y-75350633D01*
X153145888Y-75184000D01*
X153162300Y-75017367D01*
X153210902Y-74857148D01*
X153210903Y-74857145D01*
X153252761Y-74778835D01*
X153289832Y-74709480D01*
X153396051Y-74580051D01*
X153525480Y-74473832D01*
X153603162Y-74432310D01*
X153673145Y-74394903D01*
X153682484Y-74392070D01*
X153833367Y-74346300D01*
X153916624Y-74338100D01*
X153958251Y-74334000D01*
X154041749Y-74334000D01*
X154083376Y-74338100D01*
X154083376Y-74338100D01*
G37*
G36*
X174425968Y-74420582D02*
X174464630Y-74432310D01*
X174500270Y-74451360D01*
X174531505Y-74476995D01*
X174557140Y-74508230D01*
X174576190Y-74543870D01*
X174587918Y-74582532D01*
X174592000Y-74623981D01*
X174592000Y-75084019D01*
X174587918Y-75125468D01*
X174576190Y-75164130D01*
X174557140Y-75199770D01*
X174531505Y-75231005D01*
X174500270Y-75256640D01*
X174464630Y-75275690D01*
X174425968Y-75287418D01*
X174384519Y-75291500D01*
X173849481Y-75291500D01*
X173808032Y-75287418D01*
X173769370Y-75275690D01*
X173733730Y-75256640D01*
X173702495Y-75231005D01*
X173676860Y-75199770D01*
X173657810Y-75164130D01*
X173646082Y-75125468D01*
X173642000Y-75084019D01*
X173642000Y-74623981D01*
X173646082Y-74582532D01*
X173657810Y-74543870D01*
X173676860Y-74508230D01*
X173702495Y-74476995D01*
X173733730Y-74451360D01*
X173769370Y-74432310D01*
X173808032Y-74420582D01*
X173849481Y-74416500D01*
X174384519Y-74416500D01*
X174425968Y-74420582D01*
X174425968Y-74420582D01*
G37*
G36*
X176076968Y-74420582D02*
X176115630Y-74432310D01*
X176151270Y-74451360D01*
X176182505Y-74476995D01*
X176208140Y-74508230D01*
X176227190Y-74543870D01*
X176238918Y-74582532D01*
X176243000Y-74623981D01*
X176243000Y-75084019D01*
X176238918Y-75125468D01*
X176227190Y-75164130D01*
X176208140Y-75199770D01*
X176182505Y-75231005D01*
X176151270Y-75256640D01*
X176115630Y-75275690D01*
X176076968Y-75287418D01*
X176035519Y-75291500D01*
X175500481Y-75291500D01*
X175459032Y-75287418D01*
X175420370Y-75275690D01*
X175384730Y-75256640D01*
X175353495Y-75231005D01*
X175327860Y-75199770D01*
X175308810Y-75164130D01*
X175297082Y-75125468D01*
X175293000Y-75084019D01*
X175293000Y-74623981D01*
X175297082Y-74582532D01*
X175308810Y-74543870D01*
X175327860Y-74508230D01*
X175353495Y-74476995D01*
X175384730Y-74451360D01*
X175420370Y-74432310D01*
X175459032Y-74420582D01*
X175500481Y-74416500D01*
X176035519Y-74416500D01*
X176076968Y-74420582D01*
X176076968Y-74420582D01*
G37*
G36*
X177563468Y-74332082D02*
X177602130Y-74343810D01*
X177637770Y-74362860D01*
X177669005Y-74388495D01*
X177694640Y-74419730D01*
X177713690Y-74455370D01*
X177725418Y-74494032D01*
X177729500Y-74535481D01*
X177729500Y-75070519D01*
X177725418Y-75111968D01*
X177713690Y-75150630D01*
X177694640Y-75186270D01*
X177669005Y-75217505D01*
X177637770Y-75243140D01*
X177602130Y-75262190D01*
X177563468Y-75273918D01*
X177522019Y-75278000D01*
X177061981Y-75278000D01*
X177020532Y-75273918D01*
X176981870Y-75262190D01*
X176946230Y-75243140D01*
X176914995Y-75217505D01*
X176889360Y-75186270D01*
X176870310Y-75150630D01*
X176858582Y-75111968D01*
X176854500Y-75070519D01*
X176854500Y-74535481D01*
X176858582Y-74494032D01*
X176870310Y-74455370D01*
X176889360Y-74419730D01*
X176914995Y-74388495D01*
X176946230Y-74362860D01*
X176981870Y-74343810D01*
X177020532Y-74332082D01*
X177061981Y-74328000D01*
X177522019Y-74328000D01*
X177563468Y-74332082D01*
X177563468Y-74332082D01*
G37*
G36*
X179138468Y-74332082D02*
X179177130Y-74343810D01*
X179212770Y-74362860D01*
X179244005Y-74388495D01*
X179269640Y-74419730D01*
X179288690Y-74455370D01*
X179300418Y-74494032D01*
X179304500Y-74535481D01*
X179304500Y-75070519D01*
X179300418Y-75111968D01*
X179288690Y-75150630D01*
X179269640Y-75186270D01*
X179244005Y-75217505D01*
X179212770Y-75243140D01*
X179177130Y-75262190D01*
X179138468Y-75273918D01*
X179097019Y-75278000D01*
X178636981Y-75278000D01*
X178595532Y-75273918D01*
X178556870Y-75262190D01*
X178521230Y-75243140D01*
X178489995Y-75217505D01*
X178464360Y-75186270D01*
X178445310Y-75150630D01*
X178433582Y-75111968D01*
X178429500Y-75070519D01*
X178429500Y-74535481D01*
X178433582Y-74494032D01*
X178445310Y-74455370D01*
X178464360Y-74419730D01*
X178489995Y-74388495D01*
X178521230Y-74362860D01*
X178556870Y-74343810D01*
X178595532Y-74332082D01*
X178636981Y-74328000D01*
X179097019Y-74328000D01*
X179138468Y-74332082D01*
X179138468Y-74332082D01*
G37*
G36*
X159708968Y-73785582D02*
X159747630Y-73797310D01*
X159783270Y-73816360D01*
X159814505Y-73841995D01*
X159840140Y-73873230D01*
X159859190Y-73908870D01*
X159870918Y-73947532D01*
X159875000Y-73988981D01*
X159875000Y-74449019D01*
X159870918Y-74490468D01*
X159859190Y-74529130D01*
X159840140Y-74564770D01*
X159814505Y-74596005D01*
X159783270Y-74621640D01*
X159747630Y-74640690D01*
X159708968Y-74652418D01*
X159667519Y-74656500D01*
X159132481Y-74656500D01*
X159091032Y-74652418D01*
X159052370Y-74640690D01*
X159016730Y-74621640D01*
X158985495Y-74596005D01*
X158959860Y-74564770D01*
X158940810Y-74529130D01*
X158929082Y-74490468D01*
X158925000Y-74449019D01*
X158925000Y-73988981D01*
X158929082Y-73947532D01*
X158940810Y-73908870D01*
X158959860Y-73873230D01*
X158985495Y-73841995D01*
X159016730Y-73816360D01*
X159052370Y-73797310D01*
X159091032Y-73785582D01*
X159132481Y-73781500D01*
X159667519Y-73781500D01*
X159708968Y-73785582D01*
X159708968Y-73785582D01*
G37*
G36*
X168089468Y-73697082D02*
X168128130Y-73708810D01*
X168163770Y-73727860D01*
X168195005Y-73753495D01*
X168220640Y-73784730D01*
X168239690Y-73820370D01*
X168251418Y-73859032D01*
X168255500Y-73900481D01*
X168255500Y-74435519D01*
X168251418Y-74476968D01*
X168239690Y-74515630D01*
X168220640Y-74551270D01*
X168195005Y-74582505D01*
X168163770Y-74608140D01*
X168128130Y-74627190D01*
X168089468Y-74638918D01*
X168048019Y-74643000D01*
X167587981Y-74643000D01*
X167546532Y-74638918D01*
X167507870Y-74627190D01*
X167472230Y-74608140D01*
X167440995Y-74582505D01*
X167415360Y-74551270D01*
X167396310Y-74515630D01*
X167384582Y-74476968D01*
X167380500Y-74435519D01*
X167380500Y-73900481D01*
X167384582Y-73859032D01*
X167396310Y-73820370D01*
X167415360Y-73784730D01*
X167440995Y-73753495D01*
X167472230Y-73727860D01*
X167507870Y-73708810D01*
X167546532Y-73697082D01*
X167587981Y-73693000D01*
X168048019Y-73693000D01*
X168089468Y-73697082D01*
X168089468Y-73697082D01*
G37*
G36*
X166514468Y-73697082D02*
X166553130Y-73708810D01*
X166588770Y-73727860D01*
X166620005Y-73753495D01*
X166645640Y-73784730D01*
X166664690Y-73820370D01*
X166676418Y-73859032D01*
X166680500Y-73900481D01*
X166680500Y-74435519D01*
X166676418Y-74476968D01*
X166664690Y-74515630D01*
X166645640Y-74551270D01*
X166620005Y-74582505D01*
X166588770Y-74608140D01*
X166553130Y-74627190D01*
X166514468Y-74638918D01*
X166473019Y-74643000D01*
X166012981Y-74643000D01*
X165971532Y-74638918D01*
X165932870Y-74627190D01*
X165897230Y-74608140D01*
X165865995Y-74582505D01*
X165840360Y-74551270D01*
X165821310Y-74515630D01*
X165809582Y-74476968D01*
X165805500Y-74435519D01*
X165805500Y-73900481D01*
X165809582Y-73859032D01*
X165821310Y-73820370D01*
X165840360Y-73784730D01*
X165865995Y-73753495D01*
X165897230Y-73727860D01*
X165932870Y-73708810D01*
X165971532Y-73697082D01*
X166012981Y-73693000D01*
X166473019Y-73693000D01*
X166514468Y-73697082D01*
X166514468Y-73697082D01*
G37*
G36*
X163502000Y-74502000D02*
X162602000Y-74502000D01*
X162602000Y-73702000D01*
X163502000Y-73702000D01*
X163502000Y-74502000D01*
X163502000Y-74502000D01*
G37*
G36*
X165027968Y-72896582D02*
X165066630Y-72908310D01*
X165102270Y-72927360D01*
X165133505Y-72952995D01*
X165159140Y-72984230D01*
X165178190Y-73019870D01*
X165189918Y-73058532D01*
X165194000Y-73099981D01*
X165194000Y-73560019D01*
X165189918Y-73601468D01*
X165178190Y-73640130D01*
X165159140Y-73675770D01*
X165133505Y-73707005D01*
X165102270Y-73732640D01*
X165066630Y-73751690D01*
X165027968Y-73763418D01*
X164986519Y-73767500D01*
X164451481Y-73767500D01*
X164410032Y-73763418D01*
X164371370Y-73751690D01*
X164335730Y-73732640D01*
X164304495Y-73707005D01*
X164278860Y-73675770D01*
X164259810Y-73640130D01*
X164248082Y-73601468D01*
X164244000Y-73560019D01*
X164244000Y-73099981D01*
X164248082Y-73058532D01*
X164259810Y-73019870D01*
X164278860Y-72984230D01*
X164304495Y-72952995D01*
X164335730Y-72927360D01*
X164371370Y-72908310D01*
X164410032Y-72896582D01*
X164451481Y-72892500D01*
X164986519Y-72892500D01*
X165027968Y-72896582D01*
X165027968Y-72896582D01*
G37*
G36*
X179138468Y-72808082D02*
X179177130Y-72819810D01*
X179212770Y-72838860D01*
X179244005Y-72864495D01*
X179269640Y-72895730D01*
X179288690Y-72931370D01*
X179300418Y-72970032D01*
X179304500Y-73011481D01*
X179304500Y-73546519D01*
X179300418Y-73587968D01*
X179288690Y-73626630D01*
X179269640Y-73662270D01*
X179244005Y-73693505D01*
X179212770Y-73719140D01*
X179177130Y-73738190D01*
X179138468Y-73749918D01*
X179097019Y-73754000D01*
X178636981Y-73754000D01*
X178595532Y-73749918D01*
X178556870Y-73738190D01*
X178521230Y-73719140D01*
X178489995Y-73693505D01*
X178464360Y-73662270D01*
X178445310Y-73626630D01*
X178433582Y-73587968D01*
X178429500Y-73546519D01*
X178429500Y-73011481D01*
X178433582Y-72970032D01*
X178445310Y-72931370D01*
X178464360Y-72895730D01*
X178489995Y-72864495D01*
X178521230Y-72838860D01*
X178556870Y-72819810D01*
X178595532Y-72808082D01*
X178636981Y-72804000D01*
X179097019Y-72804000D01*
X179138468Y-72808082D01*
X179138468Y-72808082D01*
G37*
G36*
X177563468Y-72808082D02*
X177602130Y-72819810D01*
X177637770Y-72838860D01*
X177669005Y-72864495D01*
X177694640Y-72895730D01*
X177713690Y-72931370D01*
X177725418Y-72970032D01*
X177729500Y-73011481D01*
X177729500Y-73546519D01*
X177725418Y-73587968D01*
X177713690Y-73626630D01*
X177694640Y-73662270D01*
X177669005Y-73693505D01*
X177637770Y-73719140D01*
X177602130Y-73738190D01*
X177563468Y-73749918D01*
X177522019Y-73754000D01*
X177061981Y-73754000D01*
X177020532Y-73749918D01*
X176981870Y-73738190D01*
X176946230Y-73719140D01*
X176914995Y-73693505D01*
X176889360Y-73662270D01*
X176870310Y-73626630D01*
X176858582Y-73587968D01*
X176854500Y-73546519D01*
X176854500Y-73011481D01*
X176858582Y-72970032D01*
X176870310Y-72931370D01*
X176889360Y-72895730D01*
X176914995Y-72864495D01*
X176946230Y-72838860D01*
X176981870Y-72819810D01*
X177020532Y-72808082D01*
X177061981Y-72804000D01*
X177522019Y-72804000D01*
X177563468Y-72808082D01*
X177563468Y-72808082D01*
G37*
G36*
X174425968Y-72845582D02*
X174464630Y-72857310D01*
X174500270Y-72876360D01*
X174531505Y-72901995D01*
X174557140Y-72933230D01*
X174576190Y-72968870D01*
X174587918Y-73007532D01*
X174592000Y-73048981D01*
X174592000Y-73509019D01*
X174587918Y-73550468D01*
X174576190Y-73589130D01*
X174557140Y-73624770D01*
X174531505Y-73656005D01*
X174500270Y-73681640D01*
X174464630Y-73700690D01*
X174425968Y-73712418D01*
X174384519Y-73716500D01*
X173849481Y-73716500D01*
X173808032Y-73712418D01*
X173769370Y-73700690D01*
X173733730Y-73681640D01*
X173702495Y-73656005D01*
X173676860Y-73624770D01*
X173657810Y-73589130D01*
X173646082Y-73550468D01*
X173642000Y-73509019D01*
X173642000Y-73048981D01*
X173646082Y-73007532D01*
X173657810Y-72968870D01*
X173676860Y-72933230D01*
X173702495Y-72901995D01*
X173733730Y-72876360D01*
X173769370Y-72857310D01*
X173808032Y-72845582D01*
X173849481Y-72841500D01*
X174384519Y-72841500D01*
X174425968Y-72845582D01*
X174425968Y-72845582D01*
G37*
G36*
X176076968Y-72845582D02*
X176115630Y-72857310D01*
X176151270Y-72876360D01*
X176182505Y-72901995D01*
X176208140Y-72933230D01*
X176227190Y-72968870D01*
X176238918Y-73007532D01*
X176243000Y-73048981D01*
X176243000Y-73509019D01*
X176238918Y-73550468D01*
X176227190Y-73589130D01*
X176208140Y-73624770D01*
X176182505Y-73656005D01*
X176151270Y-73681640D01*
X176115630Y-73700690D01*
X176076968Y-73712418D01*
X176035519Y-73716500D01*
X175500481Y-73716500D01*
X175459032Y-73712418D01*
X175420370Y-73700690D01*
X175384730Y-73681640D01*
X175353495Y-73656005D01*
X175327860Y-73624770D01*
X175308810Y-73589130D01*
X175297082Y-73550468D01*
X175293000Y-73509019D01*
X175293000Y-73048981D01*
X175297082Y-73007532D01*
X175308810Y-72968870D01*
X175327860Y-72933230D01*
X175353495Y-72901995D01*
X175384730Y-72876360D01*
X175420370Y-72857310D01*
X175459032Y-72845582D01*
X175500481Y-72841500D01*
X176035519Y-72841500D01*
X176076968Y-72845582D01*
X176076968Y-72845582D01*
G37*
G36*
X161502000Y-73552000D02*
X160602000Y-73552000D01*
X160602000Y-72752000D01*
X161502000Y-72752000D01*
X161502000Y-73552000D01*
X161502000Y-73552000D01*
G37*
G36*
X154083376Y-71798100D02*
X154166633Y-71806300D01*
X154326852Y-71854902D01*
X154326855Y-71854903D01*
X154405165Y-71896761D01*
X154474520Y-71933832D01*
X154603949Y-72040051D01*
X154710168Y-72169480D01*
X154745608Y-72235784D01*
X154789097Y-72317145D01*
X154789098Y-72317148D01*
X154837700Y-72477367D01*
X154854112Y-72644000D01*
X154837700Y-72810633D01*
X154793430Y-72956570D01*
X154789097Y-72970855D01*
X154762291Y-73021005D01*
X154710168Y-73118520D01*
X154603949Y-73247949D01*
X154474520Y-73354168D01*
X154405165Y-73391239D01*
X154326855Y-73433097D01*
X154326852Y-73433098D01*
X154166633Y-73481700D01*
X154083376Y-73489900D01*
X154041749Y-73494000D01*
X153958251Y-73494000D01*
X153916624Y-73489900D01*
X153833367Y-73481700D01*
X153673148Y-73433098D01*
X153673145Y-73433097D01*
X153594835Y-73391239D01*
X153525480Y-73354168D01*
X153396051Y-73247949D01*
X153289832Y-73118520D01*
X153237709Y-73021005D01*
X153210903Y-72970855D01*
X153206570Y-72956570D01*
X153162300Y-72810633D01*
X153145888Y-72644000D01*
X153162300Y-72477367D01*
X153210902Y-72317148D01*
X153210903Y-72317145D01*
X153254392Y-72235784D01*
X153289832Y-72169480D01*
X153396051Y-72040051D01*
X153525480Y-71933832D01*
X153594835Y-71896761D01*
X153673145Y-71854903D01*
X153673148Y-71854902D01*
X153833367Y-71806300D01*
X153916624Y-71798100D01*
X153958251Y-71794000D01*
X154041749Y-71794000D01*
X154083376Y-71798100D01*
X154083376Y-71798100D01*
G37*
G36*
X156623376Y-71798100D02*
X156706633Y-71806300D01*
X156866852Y-71854902D01*
X156866855Y-71854903D01*
X156945165Y-71896761D01*
X157014520Y-71933832D01*
X157143949Y-72040051D01*
X157250168Y-72169480D01*
X157285608Y-72235784D01*
X157329097Y-72317145D01*
X157329098Y-72317148D01*
X157377700Y-72477367D01*
X157394112Y-72644000D01*
X157377700Y-72810633D01*
X157333430Y-72956570D01*
X157329097Y-72970855D01*
X157302291Y-73021005D01*
X157250168Y-73118520D01*
X157143949Y-73247949D01*
X157014520Y-73354168D01*
X156945165Y-73391239D01*
X156866855Y-73433097D01*
X156866852Y-73433098D01*
X156706633Y-73481700D01*
X156623376Y-73489900D01*
X156581749Y-73494000D01*
X156498251Y-73494000D01*
X156456624Y-73489900D01*
X156373367Y-73481700D01*
X156213148Y-73433098D01*
X156213145Y-73433097D01*
X156134835Y-73391239D01*
X156065480Y-73354168D01*
X155936051Y-73247949D01*
X155829832Y-73118520D01*
X155777709Y-73021005D01*
X155750903Y-72970855D01*
X155746570Y-72956570D01*
X155702300Y-72810633D01*
X155685888Y-72644000D01*
X155702300Y-72477367D01*
X155750902Y-72317148D01*
X155750903Y-72317145D01*
X155794392Y-72235784D01*
X155829832Y-72169480D01*
X155936051Y-72040051D01*
X156065480Y-71933832D01*
X156134835Y-71896761D01*
X156213145Y-71854903D01*
X156213148Y-71854902D01*
X156373367Y-71806300D01*
X156456624Y-71798100D01*
X156498251Y-71794000D01*
X156581749Y-71794000D01*
X156623376Y-71798100D01*
X156623376Y-71798100D01*
G37*
G36*
X159708968Y-72210582D02*
X159747630Y-72222310D01*
X159783270Y-72241360D01*
X159814505Y-72266995D01*
X159840140Y-72298230D01*
X159859190Y-72333870D01*
X159870918Y-72372532D01*
X159875000Y-72413981D01*
X159875000Y-72874019D01*
X159870918Y-72915468D01*
X159859190Y-72954130D01*
X159840140Y-72989770D01*
X159814505Y-73021005D01*
X159783270Y-73046640D01*
X159747630Y-73065690D01*
X159708968Y-73077418D01*
X159667519Y-73081500D01*
X159132481Y-73081500D01*
X159091032Y-73077418D01*
X159052370Y-73065690D01*
X159016730Y-73046640D01*
X158985495Y-73021005D01*
X158959860Y-72989770D01*
X158940810Y-72954130D01*
X158929082Y-72915468D01*
X158925000Y-72874019D01*
X158925000Y-72413981D01*
X158929082Y-72372532D01*
X158940810Y-72333870D01*
X158959860Y-72298230D01*
X158985495Y-72266995D01*
X159016730Y-72241360D01*
X159052370Y-72222310D01*
X159091032Y-72210582D01*
X159132481Y-72206500D01*
X159667519Y-72206500D01*
X159708968Y-72210582D01*
X159708968Y-72210582D01*
G37*
G36*
X163502000Y-72602000D02*
X162602000Y-72602000D01*
X162602000Y-71802000D01*
X163502000Y-71802000D01*
X163502000Y-72602000D01*
X163502000Y-72602000D01*
G37*
G36*
X166388845Y-71274215D02*
X166443010Y-71296651D01*
X166479839Y-71311906D01*
X166561730Y-71366624D01*
X166631376Y-71436270D01*
X166665594Y-71487481D01*
X166686094Y-71518161D01*
X166723785Y-71609155D01*
X166743000Y-71705754D01*
X166743000Y-71804246D01*
X166723785Y-71900845D01*
X166710121Y-71933832D01*
X166686094Y-71991839D01*
X166631376Y-72073730D01*
X166561730Y-72143376D01*
X166522661Y-72169481D01*
X166479839Y-72198094D01*
X166388845Y-72235785D01*
X166292246Y-72255000D01*
X166193754Y-72255000D01*
X166097155Y-72235785D01*
X166006161Y-72198094D01*
X165963339Y-72169481D01*
X165924270Y-72143376D01*
X165854624Y-72073730D01*
X165799906Y-71991839D01*
X165775879Y-71933832D01*
X165762215Y-71900845D01*
X165743000Y-71804246D01*
X165743000Y-71705754D01*
X165762215Y-71609155D01*
X165799906Y-71518161D01*
X165820406Y-71487481D01*
X165854624Y-71436270D01*
X165924270Y-71366624D01*
X166006161Y-71311906D01*
X166042990Y-71296651D01*
X166097155Y-71274215D01*
X166193754Y-71255000D01*
X166292246Y-71255000D01*
X166388845Y-71274215D01*
X166388845Y-71274215D01*
G37*
G36*
X179138468Y-71284082D02*
X179177130Y-71295810D01*
X179212770Y-71314860D01*
X179244005Y-71340495D01*
X179269640Y-71371730D01*
X179288690Y-71407370D01*
X179300418Y-71446032D01*
X179304500Y-71487481D01*
X179304500Y-72022519D01*
X179300418Y-72063968D01*
X179288690Y-72102630D01*
X179269640Y-72138270D01*
X179244005Y-72169505D01*
X179212770Y-72195140D01*
X179177130Y-72214190D01*
X179138468Y-72225918D01*
X179097019Y-72230000D01*
X178636981Y-72230000D01*
X178595532Y-72225918D01*
X178556870Y-72214190D01*
X178521230Y-72195140D01*
X178489995Y-72169505D01*
X178464360Y-72138270D01*
X178445310Y-72102630D01*
X178433582Y-72063968D01*
X178429500Y-72022519D01*
X178429500Y-71487481D01*
X178433582Y-71446032D01*
X178445310Y-71407370D01*
X178464360Y-71371730D01*
X178489995Y-71340495D01*
X178521230Y-71314860D01*
X178556870Y-71295810D01*
X178595532Y-71284082D01*
X178636981Y-71280000D01*
X179097019Y-71280000D01*
X179138468Y-71284082D01*
X179138468Y-71284082D01*
G37*
G36*
X177563468Y-71284082D02*
X177602130Y-71295810D01*
X177637770Y-71314860D01*
X177669005Y-71340495D01*
X177694640Y-71371730D01*
X177713690Y-71407370D01*
X177725418Y-71446032D01*
X177729500Y-71487481D01*
X177729500Y-72022519D01*
X177725418Y-72063968D01*
X177713690Y-72102630D01*
X177694640Y-72138270D01*
X177669005Y-72169505D01*
X177637770Y-72195140D01*
X177602130Y-72214190D01*
X177563468Y-72225918D01*
X177522019Y-72230000D01*
X177061981Y-72230000D01*
X177020532Y-72225918D01*
X176981870Y-72214190D01*
X176946230Y-72195140D01*
X176914995Y-72169505D01*
X176889360Y-72138270D01*
X176870310Y-72102630D01*
X176858582Y-72063968D01*
X176854500Y-72022519D01*
X176854500Y-71487481D01*
X176858582Y-71446032D01*
X176870310Y-71407370D01*
X176889360Y-71371730D01*
X176914995Y-71340495D01*
X176946230Y-71314860D01*
X176981870Y-71295810D01*
X177020532Y-71284082D01*
X177061981Y-71280000D01*
X177522019Y-71280000D01*
X177563468Y-71284082D01*
X177563468Y-71284082D01*
G37*
G36*
X165027968Y-71321582D02*
X165066630Y-71333310D01*
X165102270Y-71352360D01*
X165133505Y-71377995D01*
X165159140Y-71409230D01*
X165178190Y-71444870D01*
X165189918Y-71483532D01*
X165194000Y-71524981D01*
X165194000Y-71985019D01*
X165189918Y-72026468D01*
X165178190Y-72065130D01*
X165159140Y-72100770D01*
X165133505Y-72132005D01*
X165102270Y-72157640D01*
X165066630Y-72176690D01*
X165027968Y-72188418D01*
X164986519Y-72192500D01*
X164451481Y-72192500D01*
X164410032Y-72188418D01*
X164371370Y-72176690D01*
X164335730Y-72157640D01*
X164304495Y-72132005D01*
X164278860Y-72100770D01*
X164259810Y-72065130D01*
X164248082Y-72026468D01*
X164244000Y-71985019D01*
X164244000Y-71524981D01*
X164248082Y-71483532D01*
X164259810Y-71444870D01*
X164278860Y-71409230D01*
X164304495Y-71377995D01*
X164335730Y-71352360D01*
X164371370Y-71333310D01*
X164410032Y-71321582D01*
X164451481Y-71317500D01*
X164986519Y-71317500D01*
X165027968Y-71321582D01*
X165027968Y-71321582D01*
G37*
G36*
X172332000Y-71842200D02*
X172052000Y-71842200D01*
X172052000Y-70842200D01*
X172332000Y-70842200D01*
X172332000Y-71842200D01*
X172332000Y-71842200D01*
G37*
G36*
X168332000Y-71842200D02*
X168052000Y-71842200D01*
X168052000Y-70842200D01*
X168332000Y-70842200D01*
X168332000Y-71842200D01*
X168332000Y-71842200D01*
G37*
G36*
X171832000Y-71842200D02*
X171552000Y-71842200D01*
X171552000Y-70842200D01*
X171832000Y-70842200D01*
X171832000Y-71842200D01*
X171832000Y-71842200D01*
G37*
G36*
X173832000Y-71842200D02*
X173552000Y-71842200D01*
X173552000Y-70842200D01*
X173832000Y-70842200D01*
X173832000Y-71842200D01*
X173832000Y-71842200D01*
G37*
G36*
X170332000Y-71842200D02*
X170052000Y-71842200D01*
X170052000Y-70842200D01*
X170332000Y-70842200D01*
X170332000Y-71842200D01*
X170332000Y-71842200D01*
G37*
G36*
X173332000Y-71842200D02*
X173052000Y-71842200D01*
X173052000Y-70842200D01*
X173332000Y-70842200D01*
X173332000Y-71842200D01*
X173332000Y-71842200D01*
G37*
G36*
X170832000Y-71842200D02*
X170552000Y-71842200D01*
X170552000Y-70842200D01*
X170832000Y-70842200D01*
X170832000Y-71842200D01*
X170832000Y-71842200D01*
G37*
G36*
X168832000Y-71842200D02*
X168552000Y-71842200D01*
X168552000Y-70842200D01*
X168832000Y-70842200D01*
X168832000Y-71842200D01*
X168832000Y-71842200D01*
G37*
G36*
X169832000Y-71842200D02*
X169552000Y-71842200D01*
X169552000Y-70842200D01*
X169832000Y-70842200D01*
X169832000Y-71842200D01*
X169832000Y-71842200D01*
G37*
G36*
X169332000Y-71842200D02*
X169052000Y-71842200D01*
X169052000Y-70842200D01*
X169332000Y-70842200D01*
X169332000Y-71842200D01*
X169332000Y-71842200D01*
G37*
G36*
X171332000Y-71842200D02*
X171052000Y-71842200D01*
X171052000Y-70842200D01*
X171332000Y-70842200D01*
X171332000Y-71842200D01*
X171332000Y-71842200D01*
G37*
G36*
X172832000Y-71842200D02*
X172552000Y-71842200D01*
X172552000Y-70842200D01*
X172832000Y-70842200D01*
X172832000Y-71842200D01*
X172832000Y-71842200D01*
G37*
G36*
X159693968Y-70737582D02*
X159732630Y-70749310D01*
X159768270Y-70768360D01*
X159799505Y-70793995D01*
X159825140Y-70825230D01*
X159844190Y-70860870D01*
X159855918Y-70899532D01*
X159860000Y-70940981D01*
X159860000Y-71401019D01*
X159855918Y-71442468D01*
X159844190Y-71481130D01*
X159825140Y-71516770D01*
X159799505Y-71548005D01*
X159768270Y-71573640D01*
X159732630Y-71592690D01*
X159693968Y-71604418D01*
X159652519Y-71608500D01*
X159117481Y-71608500D01*
X159076032Y-71604418D01*
X159037370Y-71592690D01*
X159001730Y-71573640D01*
X158970495Y-71548005D01*
X158944860Y-71516770D01*
X158925810Y-71481130D01*
X158914082Y-71442468D01*
X158910000Y-71401019D01*
X158910000Y-70940981D01*
X158914082Y-70899532D01*
X158925810Y-70860870D01*
X158944860Y-70825230D01*
X158970495Y-70793995D01*
X159001730Y-70768360D01*
X159037370Y-70749310D01*
X159076032Y-70737582D01*
X159117481Y-70733500D01*
X159652519Y-70733500D01*
X159693968Y-70737582D01*
X159693968Y-70737582D01*
G37*
G36*
X156623376Y-69258100D02*
X156706633Y-69266300D01*
X156866852Y-69314902D01*
X156866855Y-69314903D01*
X156884869Y-69324532D01*
X157014520Y-69393832D01*
X157143949Y-69500051D01*
X157250168Y-69629480D01*
X157287239Y-69698835D01*
X157329097Y-69777145D01*
X157329098Y-69777148D01*
X157377700Y-69937367D01*
X157394112Y-70104000D01*
X157377700Y-70270633D01*
X157335423Y-70410000D01*
X157329097Y-70430855D01*
X157309328Y-70467839D01*
X157250168Y-70578520D01*
X157143949Y-70707949D01*
X157014520Y-70814168D01*
X156945165Y-70851239D01*
X156866855Y-70893097D01*
X156866852Y-70893098D01*
X156706633Y-70941700D01*
X156623376Y-70949900D01*
X156581749Y-70954000D01*
X156498251Y-70954000D01*
X156456624Y-70949900D01*
X156373367Y-70941700D01*
X156213148Y-70893098D01*
X156213145Y-70893097D01*
X156134835Y-70851239D01*
X156065480Y-70814168D01*
X155936051Y-70707949D01*
X155829832Y-70578520D01*
X155770672Y-70467839D01*
X155750903Y-70430855D01*
X155744577Y-70410000D01*
X155702300Y-70270633D01*
X155685888Y-70104000D01*
X155702300Y-69937367D01*
X155750902Y-69777148D01*
X155750903Y-69777145D01*
X155792761Y-69698835D01*
X155829832Y-69629480D01*
X155936051Y-69500051D01*
X156065480Y-69393832D01*
X156195131Y-69324532D01*
X156213145Y-69314903D01*
X156213148Y-69314902D01*
X156373367Y-69266300D01*
X156456624Y-69258100D01*
X156498251Y-69254000D01*
X156581749Y-69254000D01*
X156623376Y-69258100D01*
X156623376Y-69258100D01*
G37*
G36*
X154083376Y-69258100D02*
X154166633Y-69266300D01*
X154326852Y-69314902D01*
X154326855Y-69314903D01*
X154344869Y-69324532D01*
X154474520Y-69393832D01*
X154603949Y-69500051D01*
X154710168Y-69629480D01*
X154747239Y-69698835D01*
X154789097Y-69777145D01*
X154789098Y-69777148D01*
X154837700Y-69937367D01*
X154854112Y-70104000D01*
X154837700Y-70270633D01*
X154795423Y-70410000D01*
X154789097Y-70430855D01*
X154769328Y-70467839D01*
X154710168Y-70578520D01*
X154603949Y-70707949D01*
X154474520Y-70814168D01*
X154405165Y-70851239D01*
X154326855Y-70893097D01*
X154326852Y-70893098D01*
X154166633Y-70941700D01*
X154083376Y-70949900D01*
X154041749Y-70954000D01*
X153958251Y-70954000D01*
X153916624Y-70949900D01*
X153833367Y-70941700D01*
X153673148Y-70893098D01*
X153673145Y-70893097D01*
X153594835Y-70851239D01*
X153525480Y-70814168D01*
X153396051Y-70707949D01*
X153289832Y-70578520D01*
X153230672Y-70467839D01*
X153210903Y-70430855D01*
X153204577Y-70410000D01*
X153162300Y-70270633D01*
X153145888Y-70104000D01*
X153162300Y-69937367D01*
X153210902Y-69777148D01*
X153210903Y-69777145D01*
X153252761Y-69698835D01*
X153289832Y-69629480D01*
X153396051Y-69500051D01*
X153525480Y-69393832D01*
X153655131Y-69324532D01*
X153673145Y-69314903D01*
X153673148Y-69314902D01*
X153833367Y-69266300D01*
X153916624Y-69258100D01*
X153958251Y-69254000D01*
X154041749Y-69254000D01*
X154083376Y-69258100D01*
X154083376Y-69258100D01*
G37*
G36*
X161502000Y-70946000D02*
X160602000Y-70946000D01*
X160602000Y-70146000D01*
X161502000Y-70146000D01*
X161502000Y-70946000D01*
X161502000Y-70946000D01*
G37*
G36*
X164864845Y-69750215D02*
X164929867Y-69777148D01*
X164955839Y-69787906D01*
X165037730Y-69842624D01*
X165107376Y-69912270D01*
X165124145Y-69937367D01*
X165162094Y-69994161D01*
X165199785Y-70085155D01*
X165219000Y-70181754D01*
X165219000Y-70280246D01*
X165199785Y-70376845D01*
X165177413Y-70430855D01*
X165162094Y-70467839D01*
X165107376Y-70549730D01*
X165037730Y-70619376D01*
X164998625Y-70645505D01*
X164955839Y-70674094D01*
X164864845Y-70711785D01*
X164768246Y-70731000D01*
X164669754Y-70731000D01*
X164573155Y-70711785D01*
X164482161Y-70674094D01*
X164439375Y-70645505D01*
X164400270Y-70619376D01*
X164330624Y-70549730D01*
X164275906Y-70467839D01*
X164260587Y-70430855D01*
X164238215Y-70376845D01*
X164219000Y-70280246D01*
X164219000Y-70181754D01*
X164238215Y-70085155D01*
X164275906Y-69994161D01*
X164313855Y-69937367D01*
X164330624Y-69912270D01*
X164400270Y-69842624D01*
X164482161Y-69787906D01*
X164508133Y-69777148D01*
X164573155Y-69750215D01*
X164669754Y-69731000D01*
X164768246Y-69731000D01*
X164864845Y-69750215D01*
X164864845Y-69750215D01*
G37*
G36*
X177563468Y-69760082D02*
X177602130Y-69771810D01*
X177637770Y-69790860D01*
X177669005Y-69816495D01*
X177694640Y-69847730D01*
X177713690Y-69883370D01*
X177725418Y-69922032D01*
X177729500Y-69963481D01*
X177729500Y-70498519D01*
X177725418Y-70539968D01*
X177713690Y-70578630D01*
X177694640Y-70614270D01*
X177669005Y-70645505D01*
X177637770Y-70671140D01*
X177602130Y-70690190D01*
X177563468Y-70701918D01*
X177522019Y-70706000D01*
X177061981Y-70706000D01*
X177020532Y-70701918D01*
X176981870Y-70690190D01*
X176946230Y-70671140D01*
X176914995Y-70645505D01*
X176889360Y-70614270D01*
X176870310Y-70578630D01*
X176858582Y-70539968D01*
X176854500Y-70498519D01*
X176854500Y-69963481D01*
X176858582Y-69922032D01*
X176870310Y-69883370D01*
X176889360Y-69847730D01*
X176914995Y-69816495D01*
X176946230Y-69790860D01*
X176981870Y-69771810D01*
X177020532Y-69760082D01*
X177061981Y-69756000D01*
X177522019Y-69756000D01*
X177563468Y-69760082D01*
X177563468Y-69760082D01*
G37*
G36*
X179138468Y-69760082D02*
X179177130Y-69771810D01*
X179212770Y-69790860D01*
X179244005Y-69816495D01*
X179269640Y-69847730D01*
X179288690Y-69883370D01*
X179300418Y-69922032D01*
X179304500Y-69963481D01*
X179304500Y-70498519D01*
X179300418Y-70539968D01*
X179288690Y-70578630D01*
X179269640Y-70614270D01*
X179244005Y-70645505D01*
X179212770Y-70671140D01*
X179177130Y-70690190D01*
X179138468Y-70701918D01*
X179097019Y-70706000D01*
X178636981Y-70706000D01*
X178595532Y-70701918D01*
X178556870Y-70690190D01*
X178521230Y-70671140D01*
X178489995Y-70645505D01*
X178464360Y-70614270D01*
X178445310Y-70578630D01*
X178433582Y-70539968D01*
X178429500Y-70498519D01*
X178429500Y-69963481D01*
X178433582Y-69922032D01*
X178445310Y-69883370D01*
X178464360Y-69847730D01*
X178489995Y-69816495D01*
X178521230Y-69790860D01*
X178556870Y-69771810D01*
X178595532Y-69760082D01*
X178636981Y-69756000D01*
X179097019Y-69756000D01*
X179138468Y-69760082D01*
X179138468Y-69760082D01*
G37*
G36*
X174986400Y-70690000D02*
X173986400Y-70690000D01*
X173986400Y-70410000D01*
X174986400Y-70410000D01*
X174986400Y-70690000D01*
X174986400Y-70690000D01*
G37*
G36*
X167897600Y-70690000D02*
X166897600Y-70690000D01*
X166897600Y-70410000D01*
X167897600Y-70410000D01*
X167897600Y-70690000D01*
X167897600Y-70690000D01*
G37*
G36*
X173342000Y-70200000D02*
X168542000Y-70200000D01*
X168542000Y-65400000D01*
X173342000Y-65400000D01*
X173342000Y-70200000D01*
X173342000Y-70200000D01*
G37*
G36*
X167897600Y-70190000D02*
X166897600Y-70190000D01*
X166897600Y-69910000D01*
X167897600Y-69910000D01*
X167897600Y-70190000D01*
X167897600Y-70190000D01*
G37*
G36*
X174986400Y-70190000D02*
X173986400Y-70190000D01*
X173986400Y-69910000D01*
X174986400Y-69910000D01*
X174986400Y-70190000D01*
X174986400Y-70190000D01*
G37*
G36*
X159693968Y-69162582D02*
X159732630Y-69174310D01*
X159768270Y-69193360D01*
X159799505Y-69218995D01*
X159825140Y-69250230D01*
X159844190Y-69285870D01*
X159855918Y-69324532D01*
X159860000Y-69365981D01*
X159860000Y-69826019D01*
X159855918Y-69867468D01*
X159844190Y-69906130D01*
X159825140Y-69941770D01*
X159799505Y-69973005D01*
X159768270Y-69998640D01*
X159732630Y-70017690D01*
X159693968Y-70029418D01*
X159652519Y-70033500D01*
X159117481Y-70033500D01*
X159076032Y-70029418D01*
X159037370Y-70017690D01*
X159001730Y-69998640D01*
X158970495Y-69973005D01*
X158944860Y-69941770D01*
X158925810Y-69906130D01*
X158914082Y-69867468D01*
X158910000Y-69826019D01*
X158910000Y-69365981D01*
X158914082Y-69324532D01*
X158925810Y-69285870D01*
X158944860Y-69250230D01*
X158970495Y-69218995D01*
X159001730Y-69193360D01*
X159037370Y-69174310D01*
X159076032Y-69162582D01*
X159117481Y-69158500D01*
X159652519Y-69158500D01*
X159693968Y-69162582D01*
X159693968Y-69162582D01*
G37*
G36*
X163502000Y-69996000D02*
X162602000Y-69996000D01*
X162602000Y-69196000D01*
X163502000Y-69196000D01*
X163502000Y-69996000D01*
X163502000Y-69996000D01*
G37*
G36*
X174986400Y-69690000D02*
X173986400Y-69690000D01*
X173986400Y-69410000D01*
X174986400Y-69410000D01*
X174986400Y-69690000D01*
X174986400Y-69690000D01*
G37*
G36*
X167897600Y-69690000D02*
X166897600Y-69690000D01*
X166897600Y-69410000D01*
X167897600Y-69410000D01*
X167897600Y-69690000D01*
X167897600Y-69690000D01*
G37*
G36*
X164864845Y-68226215D02*
X164919010Y-68248651D01*
X164955839Y-68263906D01*
X165037730Y-68318624D01*
X165107376Y-68388270D01*
X165124568Y-68414000D01*
X165162094Y-68470161D01*
X165199785Y-68561155D01*
X165219000Y-68657754D01*
X165219000Y-68756246D01*
X165199785Y-68852845D01*
X165162094Y-68943839D01*
X165107376Y-69025730D01*
X165037730Y-69095376D01*
X164998625Y-69121505D01*
X164955839Y-69150094D01*
X164864845Y-69187785D01*
X164768246Y-69207000D01*
X164669754Y-69207000D01*
X164573155Y-69187785D01*
X164482161Y-69150094D01*
X164439375Y-69121505D01*
X164400270Y-69095376D01*
X164330624Y-69025730D01*
X164275906Y-68943839D01*
X164238215Y-68852845D01*
X164219000Y-68756246D01*
X164219000Y-68657754D01*
X164238215Y-68561155D01*
X164275906Y-68470161D01*
X164313432Y-68414000D01*
X164330624Y-68388270D01*
X164400270Y-68318624D01*
X164482161Y-68263906D01*
X164518990Y-68248651D01*
X164573155Y-68226215D01*
X164669754Y-68207000D01*
X164768246Y-68207000D01*
X164864845Y-68226215D01*
X164864845Y-68226215D01*
G37*
G36*
X174986400Y-69190000D02*
X173986400Y-69190000D01*
X173986400Y-68910000D01*
X174986400Y-68910000D01*
X174986400Y-69190000D01*
X174986400Y-69190000D01*
G37*
G36*
X167897600Y-69190000D02*
X166897600Y-69190000D01*
X166897600Y-68910000D01*
X167897600Y-68910000D01*
X167897600Y-69190000D01*
X167897600Y-69190000D01*
G37*
G36*
X179138468Y-68236082D02*
X179177130Y-68247810D01*
X179212770Y-68266860D01*
X179244005Y-68292495D01*
X179269640Y-68323730D01*
X179288690Y-68359370D01*
X179300418Y-68398032D01*
X179304500Y-68439481D01*
X179304500Y-68974519D01*
X179300418Y-69015968D01*
X179288690Y-69054630D01*
X179269640Y-69090270D01*
X179244005Y-69121505D01*
X179212770Y-69147140D01*
X179177130Y-69166190D01*
X179138468Y-69177918D01*
X179097019Y-69182000D01*
X178636981Y-69182000D01*
X178595532Y-69177918D01*
X178556870Y-69166190D01*
X178521230Y-69147140D01*
X178489995Y-69121505D01*
X178464360Y-69090270D01*
X178445310Y-69054630D01*
X178433582Y-69015968D01*
X178429500Y-68974519D01*
X178429500Y-68439481D01*
X178433582Y-68398032D01*
X178445310Y-68359370D01*
X178464360Y-68323730D01*
X178489995Y-68292495D01*
X178521230Y-68266860D01*
X178556870Y-68247810D01*
X178595532Y-68236082D01*
X178636981Y-68232000D01*
X179097019Y-68232000D01*
X179138468Y-68236082D01*
X179138468Y-68236082D01*
G37*
G36*
X177563468Y-68236082D02*
X177602130Y-68247810D01*
X177637770Y-68266860D01*
X177669005Y-68292495D01*
X177694640Y-68323730D01*
X177713690Y-68359370D01*
X177725418Y-68398032D01*
X177729500Y-68439481D01*
X177729500Y-68974519D01*
X177725418Y-69015968D01*
X177713690Y-69054630D01*
X177694640Y-69090270D01*
X177669005Y-69121505D01*
X177637770Y-69147140D01*
X177602130Y-69166190D01*
X177563468Y-69177918D01*
X177522019Y-69182000D01*
X177061981Y-69182000D01*
X177020532Y-69177918D01*
X176981870Y-69166190D01*
X176946230Y-69147140D01*
X176914995Y-69121505D01*
X176889360Y-69090270D01*
X176870310Y-69054630D01*
X176858582Y-69015968D01*
X176854500Y-68974519D01*
X176854500Y-68439481D01*
X176858582Y-68398032D01*
X176870310Y-68359370D01*
X176889360Y-68323730D01*
X176914995Y-68292495D01*
X176946230Y-68266860D01*
X176981870Y-68247810D01*
X177020532Y-68236082D01*
X177061981Y-68232000D01*
X177522019Y-68232000D01*
X177563468Y-68236082D01*
X177563468Y-68236082D01*
G37*
G36*
X161502000Y-69046000D02*
X160602000Y-69046000D01*
X160602000Y-68246000D01*
X161502000Y-68246000D01*
X161502000Y-69046000D01*
X161502000Y-69046000D01*
G37*
G36*
X174986400Y-68690000D02*
X173986400Y-68690000D01*
X173986400Y-68410000D01*
X174986400Y-68410000D01*
X174986400Y-68690000D01*
X174986400Y-68690000D01*
G37*
G36*
X167897600Y-68690000D02*
X166897600Y-68690000D01*
X166897600Y-68410000D01*
X167897600Y-68410000D01*
X167897600Y-68690000D01*
X167897600Y-68690000D01*
G37*
G36*
X156623376Y-66718100D02*
X156706633Y-66726300D01*
X156857516Y-66772070D01*
X156866855Y-66774903D01*
X156936838Y-66812310D01*
X157014520Y-66853832D01*
X157143949Y-66960051D01*
X157250168Y-67089480D01*
X157287239Y-67158835D01*
X157329097Y-67237145D01*
X157329098Y-67237148D01*
X157377700Y-67397367D01*
X157394112Y-67564000D01*
X157377700Y-67730633D01*
X157329098Y-67890852D01*
X157329097Y-67890855D01*
X157287239Y-67969165D01*
X157250168Y-68038520D01*
X157143949Y-68167949D01*
X157014520Y-68274168D01*
X156973544Y-68296070D01*
X156866855Y-68353097D01*
X156866852Y-68353098D01*
X156706633Y-68401700D01*
X156623376Y-68409900D01*
X156581749Y-68414000D01*
X156498251Y-68414000D01*
X156456624Y-68409900D01*
X156373367Y-68401700D01*
X156213148Y-68353098D01*
X156213145Y-68353097D01*
X156106456Y-68296070D01*
X156065480Y-68274168D01*
X155936051Y-68167949D01*
X155829832Y-68038520D01*
X155792761Y-67969165D01*
X155750903Y-67890855D01*
X155750902Y-67890852D01*
X155702300Y-67730633D01*
X155685888Y-67564000D01*
X155702300Y-67397367D01*
X155750902Y-67237148D01*
X155750903Y-67237145D01*
X155792761Y-67158835D01*
X155829832Y-67089480D01*
X155936051Y-66960051D01*
X156065480Y-66853832D01*
X156143162Y-66812310D01*
X156213145Y-66774903D01*
X156222484Y-66772070D01*
X156373367Y-66726300D01*
X156456624Y-66718100D01*
X156498251Y-66714000D01*
X156581749Y-66714000D01*
X156623376Y-66718100D01*
X156623376Y-66718100D01*
G37*
G36*
X154850000Y-68414000D02*
X153150000Y-68414000D01*
X153150000Y-66714000D01*
X154850000Y-66714000D01*
X154850000Y-68414000D01*
X154850000Y-68414000D01*
G37*
G36*
X174986400Y-68190000D02*
X173986400Y-68190000D01*
X173986400Y-67910000D01*
X174986400Y-67910000D01*
X174986400Y-68190000D01*
X174986400Y-68190000D01*
G37*
G36*
X167897600Y-68190000D02*
X166897600Y-68190000D01*
X166897600Y-67910000D01*
X167897600Y-67910000D01*
X167897600Y-68190000D01*
X167897600Y-68190000D01*
G37*
G36*
X167897600Y-67690000D02*
X166897600Y-67690000D01*
X166897600Y-67410000D01*
X167897600Y-67410000D01*
X167897600Y-67690000D01*
X167897600Y-67690000D01*
G37*
G36*
X174986400Y-67690000D02*
X173986400Y-67690000D01*
X173986400Y-67410000D01*
X174986400Y-67410000D01*
X174986400Y-67690000D01*
X174986400Y-67690000D01*
G37*
G36*
X165027968Y-66800582D02*
X165066630Y-66812310D01*
X165102270Y-66831360D01*
X165133505Y-66856995D01*
X165159140Y-66888230D01*
X165178190Y-66923870D01*
X165189918Y-66962532D01*
X165194000Y-67003981D01*
X165194000Y-67464019D01*
X165189918Y-67505468D01*
X165178190Y-67544130D01*
X165159140Y-67579770D01*
X165133505Y-67611005D01*
X165102270Y-67636640D01*
X165066630Y-67655690D01*
X165027968Y-67667418D01*
X164986519Y-67671500D01*
X164451481Y-67671500D01*
X164410032Y-67667418D01*
X164371370Y-67655690D01*
X164335730Y-67636640D01*
X164304495Y-67611005D01*
X164278860Y-67579770D01*
X164259810Y-67544130D01*
X164248082Y-67505468D01*
X164244000Y-67464019D01*
X164244000Y-67003981D01*
X164248082Y-66962532D01*
X164259810Y-66923870D01*
X164278860Y-66888230D01*
X164304495Y-66856995D01*
X164335730Y-66831360D01*
X164371370Y-66812310D01*
X164410032Y-66800582D01*
X164451481Y-66796500D01*
X164986519Y-66796500D01*
X165027968Y-66800582D01*
X165027968Y-66800582D01*
G37*
G36*
X159820968Y-66800582D02*
X159859630Y-66812310D01*
X159895270Y-66831360D01*
X159926505Y-66856995D01*
X159952140Y-66888230D01*
X159971190Y-66923870D01*
X159982918Y-66962532D01*
X159987000Y-67003981D01*
X159987000Y-67464019D01*
X159982918Y-67505468D01*
X159971190Y-67544130D01*
X159952140Y-67579770D01*
X159926505Y-67611005D01*
X159895270Y-67636640D01*
X159859630Y-67655690D01*
X159820968Y-67667418D01*
X159779519Y-67671500D01*
X159244481Y-67671500D01*
X159203032Y-67667418D01*
X159164370Y-67655690D01*
X159128730Y-67636640D01*
X159097495Y-67611005D01*
X159071860Y-67579770D01*
X159052810Y-67544130D01*
X159041082Y-67505468D01*
X159037000Y-67464019D01*
X159037000Y-67003981D01*
X159041082Y-66962532D01*
X159052810Y-66923870D01*
X159071860Y-66888230D01*
X159097495Y-66856995D01*
X159128730Y-66831360D01*
X159164370Y-66812310D01*
X159203032Y-66800582D01*
X159244481Y-66796500D01*
X159779519Y-66796500D01*
X159820968Y-66800582D01*
X159820968Y-66800582D01*
G37*
G36*
X177563468Y-66712082D02*
X177602130Y-66723810D01*
X177637770Y-66742860D01*
X177669005Y-66768495D01*
X177694640Y-66799730D01*
X177713690Y-66835370D01*
X177725418Y-66874032D01*
X177729500Y-66915481D01*
X177729500Y-67450519D01*
X177725418Y-67491968D01*
X177713690Y-67530630D01*
X177694640Y-67566270D01*
X177669005Y-67597505D01*
X177637770Y-67623140D01*
X177602130Y-67642190D01*
X177563468Y-67653918D01*
X177522019Y-67658000D01*
X177061981Y-67658000D01*
X177020532Y-67653918D01*
X176981870Y-67642190D01*
X176946230Y-67623140D01*
X176914995Y-67597505D01*
X176889360Y-67566270D01*
X176870310Y-67530630D01*
X176858582Y-67491968D01*
X176854500Y-67450519D01*
X176854500Y-66915481D01*
X176858582Y-66874032D01*
X176870310Y-66835370D01*
X176889360Y-66799730D01*
X176914995Y-66768495D01*
X176946230Y-66742860D01*
X176981870Y-66723810D01*
X177020532Y-66712082D01*
X177061981Y-66708000D01*
X177522019Y-66708000D01*
X177563468Y-66712082D01*
X177563468Y-66712082D01*
G37*
G36*
X179138468Y-66712082D02*
X179177130Y-66723810D01*
X179212770Y-66742860D01*
X179244005Y-66768495D01*
X179269640Y-66799730D01*
X179288690Y-66835370D01*
X179300418Y-66874032D01*
X179304500Y-66915481D01*
X179304500Y-67450519D01*
X179300418Y-67491968D01*
X179288690Y-67530630D01*
X179269640Y-67566270D01*
X179244005Y-67597505D01*
X179212770Y-67623140D01*
X179177130Y-67642190D01*
X179138468Y-67653918D01*
X179097019Y-67658000D01*
X178636981Y-67658000D01*
X178595532Y-67653918D01*
X178556870Y-67642190D01*
X178521230Y-67623140D01*
X178489995Y-67597505D01*
X178464360Y-67566270D01*
X178445310Y-67530630D01*
X178433582Y-67491968D01*
X178429500Y-67450519D01*
X178429500Y-66915481D01*
X178433582Y-66874032D01*
X178445310Y-66835370D01*
X178464360Y-66799730D01*
X178489995Y-66768495D01*
X178521230Y-66742860D01*
X178556870Y-66723810D01*
X178595532Y-66712082D01*
X178636981Y-66708000D01*
X179097019Y-66708000D01*
X179138468Y-66712082D01*
X179138468Y-66712082D01*
G37*
G36*
X161502000Y-67390000D02*
X160602000Y-67390000D01*
X160602000Y-66590000D01*
X161502000Y-66590000D01*
X161502000Y-67390000D01*
X161502000Y-67390000D01*
G37*
G36*
X167897600Y-67190000D02*
X166897600Y-67190000D01*
X166897600Y-66910000D01*
X167897600Y-66910000D01*
X167897600Y-67190000D01*
X167897600Y-67190000D01*
G37*
G36*
X174986400Y-67190000D02*
X173986400Y-67190000D01*
X173986400Y-66910000D01*
X174986400Y-66910000D01*
X174986400Y-67190000D01*
X174986400Y-67190000D01*
G37*
G36*
X174986400Y-66690000D02*
X173986400Y-66690000D01*
X173986400Y-66410000D01*
X174986400Y-66410000D01*
X174986400Y-66690000D01*
X174986400Y-66690000D01*
G37*
G36*
X167897600Y-66690000D02*
X166897600Y-66690000D01*
X166897600Y-66410000D01*
X167897600Y-66410000D01*
X167897600Y-66690000D01*
X167897600Y-66690000D01*
G37*
G36*
X163502000Y-66440000D02*
X162602000Y-66440000D01*
X162602000Y-65640000D01*
X163502000Y-65640000D01*
X163502000Y-66440000D01*
X163502000Y-66440000D01*
G37*
G36*
X167897600Y-66190000D02*
X166897600Y-66190000D01*
X166897600Y-65910000D01*
X167897600Y-65910000D01*
X167897600Y-66190000D01*
X167897600Y-66190000D01*
G37*
G36*
X174986400Y-66190000D02*
X173986400Y-66190000D01*
X173986400Y-65910000D01*
X174986400Y-65910000D01*
X174986400Y-66190000D01*
X174986400Y-66190000D01*
G37*
G36*
X159820968Y-65225582D02*
X159859630Y-65237310D01*
X159895270Y-65256360D01*
X159926505Y-65281995D01*
X159952140Y-65313230D01*
X159971190Y-65348870D01*
X159982918Y-65387532D01*
X159987000Y-65428981D01*
X159987000Y-65889019D01*
X159982918Y-65930468D01*
X159971190Y-65969130D01*
X159952140Y-66004770D01*
X159926505Y-66036005D01*
X159895270Y-66061640D01*
X159859630Y-66080690D01*
X159820968Y-66092418D01*
X159779519Y-66096500D01*
X159244481Y-66096500D01*
X159203032Y-66092418D01*
X159164370Y-66080690D01*
X159128730Y-66061640D01*
X159097495Y-66036005D01*
X159071860Y-66004770D01*
X159052810Y-65969130D01*
X159041082Y-65930468D01*
X159037000Y-65889019D01*
X159037000Y-65428981D01*
X159041082Y-65387532D01*
X159052810Y-65348870D01*
X159071860Y-65313230D01*
X159097495Y-65281995D01*
X159128730Y-65256360D01*
X159164370Y-65237310D01*
X159203032Y-65225582D01*
X159244481Y-65221500D01*
X159779519Y-65221500D01*
X159820968Y-65225582D01*
X159820968Y-65225582D01*
G37*
G36*
X165027968Y-65225582D02*
X165066630Y-65237310D01*
X165102270Y-65256360D01*
X165133505Y-65281995D01*
X165159140Y-65313230D01*
X165178190Y-65348870D01*
X165189918Y-65387532D01*
X165194000Y-65428981D01*
X165194000Y-65889019D01*
X165189918Y-65930468D01*
X165178190Y-65969130D01*
X165159140Y-66004770D01*
X165133505Y-66036005D01*
X165102270Y-66061640D01*
X165066630Y-66080690D01*
X165027968Y-66092418D01*
X164986519Y-66096500D01*
X164451481Y-66096500D01*
X164410032Y-66092418D01*
X164371370Y-66080690D01*
X164335730Y-66061640D01*
X164304495Y-66036005D01*
X164278860Y-66004770D01*
X164259810Y-65969130D01*
X164248082Y-65930468D01*
X164244000Y-65889019D01*
X164244000Y-65428981D01*
X164248082Y-65387532D01*
X164259810Y-65348870D01*
X164278860Y-65313230D01*
X164304495Y-65281995D01*
X164335730Y-65256360D01*
X164371370Y-65237310D01*
X164410032Y-65225582D01*
X164451481Y-65221500D01*
X164986519Y-65221500D01*
X165027968Y-65225582D01*
X165027968Y-65225582D01*
G37*
G36*
X167897600Y-65690000D02*
X166897600Y-65690000D01*
X166897600Y-65410000D01*
X167897600Y-65410000D01*
X167897600Y-65690000D01*
X167897600Y-65690000D01*
G37*
G36*
X174986400Y-65690000D02*
X173986400Y-65690000D01*
X173986400Y-65410000D01*
X174986400Y-65410000D01*
X174986400Y-65690000D01*
X174986400Y-65690000D01*
G37*
G36*
X156176468Y-64553082D02*
X156215130Y-64564810D01*
X156250770Y-64583860D01*
X156282005Y-64609495D01*
X156307640Y-64640730D01*
X156326690Y-64676370D01*
X156338418Y-64715032D01*
X156342500Y-64756481D01*
X156342500Y-65291519D01*
X156338418Y-65332968D01*
X156326690Y-65371630D01*
X156307640Y-65407270D01*
X156282005Y-65438505D01*
X156250770Y-65464140D01*
X156215130Y-65483190D01*
X156176468Y-65494918D01*
X156135019Y-65499000D01*
X155674981Y-65499000D01*
X155633532Y-65494918D01*
X155594870Y-65483190D01*
X155559230Y-65464140D01*
X155527995Y-65438505D01*
X155502360Y-65407270D01*
X155483310Y-65371630D01*
X155471582Y-65332968D01*
X155467500Y-65291519D01*
X155467500Y-64756481D01*
X155471582Y-64715032D01*
X155483310Y-64676370D01*
X155502360Y-64640730D01*
X155527995Y-64609495D01*
X155559230Y-64583860D01*
X155594870Y-64564810D01*
X155633532Y-64553082D01*
X155674981Y-64549000D01*
X156135019Y-64549000D01*
X156176468Y-64553082D01*
X156176468Y-64553082D01*
G37*
G36*
X157751468Y-64553082D02*
X157790130Y-64564810D01*
X157825770Y-64583860D01*
X157857005Y-64609495D01*
X157882640Y-64640730D01*
X157901690Y-64676370D01*
X157913418Y-64715032D01*
X157917500Y-64756481D01*
X157917500Y-65291519D01*
X157913418Y-65332968D01*
X157901690Y-65371630D01*
X157882640Y-65407270D01*
X157857005Y-65438505D01*
X157825770Y-65464140D01*
X157790130Y-65483190D01*
X157751468Y-65494918D01*
X157710019Y-65499000D01*
X157249981Y-65499000D01*
X157208532Y-65494918D01*
X157169870Y-65483190D01*
X157134230Y-65464140D01*
X157102995Y-65438505D01*
X157077360Y-65407270D01*
X157058310Y-65371630D01*
X157046582Y-65332968D01*
X157042500Y-65291519D01*
X157042500Y-64756481D01*
X157046582Y-64715032D01*
X157058310Y-64676370D01*
X157077360Y-64640730D01*
X157102995Y-64609495D01*
X157134230Y-64583860D01*
X157169870Y-64564810D01*
X157208532Y-64553082D01*
X157249981Y-64549000D01*
X157710019Y-64549000D01*
X157751468Y-64553082D01*
X157751468Y-64553082D01*
G37*
G36*
X161502000Y-65490000D02*
X160602000Y-65490000D01*
X160602000Y-64690000D01*
X161502000Y-64690000D01*
X161502000Y-65490000D01*
X161502000Y-65490000D01*
G37*
G36*
X174986400Y-65190000D02*
X173986400Y-65190000D01*
X173986400Y-64910000D01*
X174986400Y-64910000D01*
X174986400Y-65190000D01*
X174986400Y-65190000D01*
G37*
G36*
X167897600Y-65190000D02*
X166897600Y-65190000D01*
X166897600Y-64910000D01*
X167897600Y-64910000D01*
X167897600Y-65190000D01*
X167897600Y-65190000D01*
G37*
G36*
X172332000Y-64757800D02*
X172052000Y-64757800D01*
X172052000Y-63757800D01*
X172332000Y-63757800D01*
X172332000Y-64757800D01*
X172332000Y-64757800D01*
G37*
G36*
X169332000Y-64757800D02*
X169052000Y-64757800D01*
X169052000Y-63757800D01*
X169332000Y-63757800D01*
X169332000Y-64757800D01*
X169332000Y-64757800D01*
G37*
G36*
X168332000Y-64757800D02*
X168052000Y-64757800D01*
X168052000Y-63757800D01*
X168332000Y-63757800D01*
X168332000Y-64757800D01*
X168332000Y-64757800D01*
G37*
G36*
X169832000Y-64757800D02*
X169552000Y-64757800D01*
X169552000Y-63757800D01*
X169832000Y-63757800D01*
X169832000Y-64757800D01*
X169832000Y-64757800D01*
G37*
G36*
X173832000Y-64757800D02*
X173552000Y-64757800D01*
X173552000Y-63757800D01*
X173832000Y-63757800D01*
X173832000Y-64757800D01*
X173832000Y-64757800D01*
G37*
G36*
X170332000Y-64757800D02*
X170052000Y-64757800D01*
X170052000Y-63757800D01*
X170332000Y-63757800D01*
X170332000Y-64757800D01*
X170332000Y-64757800D01*
G37*
G36*
X171332000Y-64757800D02*
X171052000Y-64757800D01*
X171052000Y-63757800D01*
X171332000Y-63757800D01*
X171332000Y-64757800D01*
X171332000Y-64757800D01*
G37*
G36*
X171832000Y-64757800D02*
X171552000Y-64757800D01*
X171552000Y-63757800D01*
X171832000Y-63757800D01*
X171832000Y-64757800D01*
X171832000Y-64757800D01*
G37*
G36*
X172832000Y-64757800D02*
X172552000Y-64757800D01*
X172552000Y-63757800D01*
X172832000Y-63757800D01*
X172832000Y-64757800D01*
X172832000Y-64757800D01*
G37*
G36*
X173332000Y-64757800D02*
X173052000Y-64757800D01*
X173052000Y-63757800D01*
X173332000Y-63757800D01*
X173332000Y-64757800D01*
X173332000Y-64757800D01*
G37*
G36*
X170832000Y-64757800D02*
X170552000Y-64757800D01*
X170552000Y-63757800D01*
X170832000Y-63757800D01*
X170832000Y-64757800D01*
X170832000Y-64757800D01*
G37*
G36*
X168832000Y-64757800D02*
X168552000Y-64757800D01*
X168552000Y-63757800D01*
X168832000Y-63757800D01*
X168832000Y-64757800D01*
X168832000Y-64757800D01*
G37*
G36*
X176283968Y-63729082D02*
X176322630Y-63740810D01*
X176358270Y-63759860D01*
X176389505Y-63785495D01*
X176415140Y-63816730D01*
X176434190Y-63852370D01*
X176445918Y-63891032D01*
X176450000Y-63932481D01*
X176450000Y-64467519D01*
X176445918Y-64508968D01*
X176434190Y-64547630D01*
X176415140Y-64583270D01*
X176389505Y-64614505D01*
X176358270Y-64640140D01*
X176322630Y-64659190D01*
X176283968Y-64670918D01*
X176242519Y-64675000D01*
X175782481Y-64675000D01*
X175741032Y-64670918D01*
X175702370Y-64659190D01*
X175666730Y-64640140D01*
X175635495Y-64614505D01*
X175609860Y-64583270D01*
X175590810Y-64547630D01*
X175579082Y-64508968D01*
X175575000Y-64467519D01*
X175575000Y-63932481D01*
X175579082Y-63891032D01*
X175590810Y-63852370D01*
X175609860Y-63816730D01*
X175635495Y-63785495D01*
X175666730Y-63759860D01*
X175702370Y-63740810D01*
X175741032Y-63729082D01*
X175782481Y-63725000D01*
X176242519Y-63725000D01*
X176283968Y-63729082D01*
X176283968Y-63729082D01*
G37*
G36*
X177858968Y-63729082D02*
X177897630Y-63740810D01*
X177933270Y-63759860D01*
X177964505Y-63785495D01*
X177990140Y-63816730D01*
X178009190Y-63852370D01*
X178020918Y-63891032D01*
X178025000Y-63932481D01*
X178025000Y-64467519D01*
X178020918Y-64508968D01*
X178009190Y-64547630D01*
X177990140Y-64583270D01*
X177964505Y-64614505D01*
X177933270Y-64640140D01*
X177897630Y-64659190D01*
X177858968Y-64670918D01*
X177817519Y-64675000D01*
X177357481Y-64675000D01*
X177316032Y-64670918D01*
X177277370Y-64659190D01*
X177241730Y-64640140D01*
X177210495Y-64614505D01*
X177184860Y-64583270D01*
X177165810Y-64547630D01*
X177154082Y-64508968D01*
X177150000Y-64467519D01*
X177150000Y-63932481D01*
X177154082Y-63891032D01*
X177165810Y-63852370D01*
X177184860Y-63816730D01*
X177210495Y-63785495D01*
X177241730Y-63759860D01*
X177277370Y-63740810D01*
X177316032Y-63729082D01*
X177357481Y-63725000D01*
X177817519Y-63725000D01*
X177858968Y-63729082D01*
X177858968Y-63729082D01*
G37*
G36*
X163045845Y-63119215D02*
X163125888Y-63152370D01*
X163136839Y-63156906D01*
X163202941Y-63201074D01*
X163218731Y-63211625D01*
X163288375Y-63281269D01*
X163343094Y-63363161D01*
X163380785Y-63454155D01*
X163400000Y-63550754D01*
X163400000Y-63649246D01*
X163380785Y-63745845D01*
X163343094Y-63836839D01*
X163288375Y-63918731D01*
X163218731Y-63988375D01*
X163136839Y-64043094D01*
X163045845Y-64080785D01*
X162949246Y-64100000D01*
X162850754Y-64100000D01*
X162754155Y-64080785D01*
X162663161Y-64043094D01*
X162581269Y-63988375D01*
X162511625Y-63918731D01*
X162456906Y-63836839D01*
X162419215Y-63745845D01*
X162400000Y-63649246D01*
X162400000Y-63550754D01*
X162419215Y-63454155D01*
X162456906Y-63363161D01*
X162511625Y-63281269D01*
X162581269Y-63211625D01*
X162597060Y-63201074D01*
X162663161Y-63156906D01*
X162674112Y-63152370D01*
X162754155Y-63119215D01*
X162850754Y-63100000D01*
X162949246Y-63100000D01*
X163045845Y-63119215D01*
X163045845Y-63119215D01*
G37*
G36*
X161840968Y-63029082D02*
X161879630Y-63040810D01*
X161915270Y-63059860D01*
X161946505Y-63085495D01*
X161972140Y-63116730D01*
X161991190Y-63152370D01*
X162002918Y-63191032D01*
X162007000Y-63232481D01*
X162007000Y-63767519D01*
X162002918Y-63808968D01*
X161991190Y-63847630D01*
X161972140Y-63883270D01*
X161946505Y-63914505D01*
X161915270Y-63940140D01*
X161879630Y-63959190D01*
X161840968Y-63970918D01*
X161799519Y-63975000D01*
X161339481Y-63975000D01*
X161298032Y-63970918D01*
X161259370Y-63959190D01*
X161223730Y-63940140D01*
X161192495Y-63914505D01*
X161166860Y-63883270D01*
X161147810Y-63847630D01*
X161136082Y-63808968D01*
X161132000Y-63767519D01*
X161132000Y-63232481D01*
X161136082Y-63191032D01*
X161147810Y-63152370D01*
X161166860Y-63116730D01*
X161192495Y-63085495D01*
X161223730Y-63059860D01*
X161259370Y-63040810D01*
X161298032Y-63029082D01*
X161339481Y-63025000D01*
X161799519Y-63025000D01*
X161840968Y-63029082D01*
X161840968Y-63029082D01*
G37*
G36*
X158792968Y-63029082D02*
X158831630Y-63040810D01*
X158867270Y-63059860D01*
X158898505Y-63085495D01*
X158924140Y-63116730D01*
X158943190Y-63152370D01*
X158954918Y-63191032D01*
X158959000Y-63232481D01*
X158959000Y-63767519D01*
X158954918Y-63808968D01*
X158943190Y-63847630D01*
X158924140Y-63883270D01*
X158898505Y-63914505D01*
X158867270Y-63940140D01*
X158831630Y-63959190D01*
X158792968Y-63970918D01*
X158751519Y-63975000D01*
X158291481Y-63975000D01*
X158250032Y-63970918D01*
X158211370Y-63959190D01*
X158175730Y-63940140D01*
X158144495Y-63914505D01*
X158118860Y-63883270D01*
X158099810Y-63847630D01*
X158088082Y-63808968D01*
X158084000Y-63767519D01*
X158084000Y-63232481D01*
X158088082Y-63191032D01*
X158099810Y-63152370D01*
X158118860Y-63116730D01*
X158144495Y-63085495D01*
X158175730Y-63059860D01*
X158211370Y-63040810D01*
X158250032Y-63029082D01*
X158291481Y-63025000D01*
X158751519Y-63025000D01*
X158792968Y-63029082D01*
X158792968Y-63029082D01*
G37*
G36*
X157217968Y-63029082D02*
X157256630Y-63040810D01*
X157292270Y-63059860D01*
X157323505Y-63085495D01*
X157349140Y-63116730D01*
X157368190Y-63152370D01*
X157379918Y-63191032D01*
X157384000Y-63232481D01*
X157384000Y-63767519D01*
X157379918Y-63808968D01*
X157368190Y-63847630D01*
X157349140Y-63883270D01*
X157323505Y-63914505D01*
X157292270Y-63940140D01*
X157256630Y-63959190D01*
X157217968Y-63970918D01*
X157176519Y-63975000D01*
X156716481Y-63975000D01*
X156675032Y-63970918D01*
X156636370Y-63959190D01*
X156600730Y-63940140D01*
X156569495Y-63914505D01*
X156543860Y-63883270D01*
X156524810Y-63847630D01*
X156513082Y-63808968D01*
X156509000Y-63767519D01*
X156509000Y-63232481D01*
X156513082Y-63191032D01*
X156524810Y-63152370D01*
X156543860Y-63116730D01*
X156569495Y-63085495D01*
X156600730Y-63059860D01*
X156636370Y-63040810D01*
X156675032Y-63029082D01*
X156716481Y-63025000D01*
X157176519Y-63025000D01*
X157217968Y-63029082D01*
X157217968Y-63029082D01*
G37*
G36*
X160265968Y-63029082D02*
X160304630Y-63040810D01*
X160340270Y-63059860D01*
X160371505Y-63085495D01*
X160397140Y-63116730D01*
X160416190Y-63152370D01*
X160427918Y-63191032D01*
X160432000Y-63232481D01*
X160432000Y-63767519D01*
X160427918Y-63808968D01*
X160416190Y-63847630D01*
X160397140Y-63883270D01*
X160371505Y-63914505D01*
X160340270Y-63940140D01*
X160304630Y-63959190D01*
X160265968Y-63970918D01*
X160224519Y-63975000D01*
X159764481Y-63975000D01*
X159723032Y-63970918D01*
X159684370Y-63959190D01*
X159648730Y-63940140D01*
X159617495Y-63914505D01*
X159591860Y-63883270D01*
X159572810Y-63847630D01*
X159561082Y-63808968D01*
X159557000Y-63767519D01*
X159557000Y-63232481D01*
X159561082Y-63191032D01*
X159572810Y-63152370D01*
X159591860Y-63116730D01*
X159617495Y-63085495D01*
X159648730Y-63059860D01*
X159684370Y-63040810D01*
X159723032Y-63029082D01*
X159764481Y-63025000D01*
X160224519Y-63025000D01*
X160265968Y-63029082D01*
X160265968Y-63029082D01*
G37*
G36*
X153634000Y-63968000D02*
X152584000Y-63968000D01*
X152584000Y-62568000D01*
X153634000Y-62568000D01*
X153634000Y-63968000D01*
X153634000Y-63968000D01*
G37*
G36*
X155084000Y-63968000D02*
X154034000Y-63968000D01*
X154034000Y-62568000D01*
X155084000Y-62568000D01*
X155084000Y-63968000D01*
X155084000Y-63968000D01*
G37*
G36*
X166058968Y-61854082D02*
X166097630Y-61865810D01*
X166133270Y-61884860D01*
X166164505Y-61910495D01*
X166190140Y-61941730D01*
X166209190Y-61977370D01*
X166220918Y-62016032D01*
X166225000Y-62057481D01*
X166225000Y-62517519D01*
X166220918Y-62558968D01*
X166209190Y-62597630D01*
X166190140Y-62633270D01*
X166164505Y-62664505D01*
X166133270Y-62690140D01*
X166097630Y-62709190D01*
X166058968Y-62720918D01*
X166017519Y-62725000D01*
X165482481Y-62725000D01*
X165441032Y-62720918D01*
X165402370Y-62709190D01*
X165366730Y-62690140D01*
X165335495Y-62664505D01*
X165309860Y-62633270D01*
X165290810Y-62597630D01*
X165279082Y-62558968D01*
X165275000Y-62517519D01*
X165275000Y-62057481D01*
X165279082Y-62016032D01*
X165290810Y-61977370D01*
X165309860Y-61941730D01*
X165335495Y-61910495D01*
X165366730Y-61884860D01*
X165402370Y-61865810D01*
X165441032Y-61854082D01*
X165482481Y-61850000D01*
X166017519Y-61850000D01*
X166058968Y-61854082D01*
X166058968Y-61854082D01*
G37*
G36*
X167808968Y-61854082D02*
X167847630Y-61865810D01*
X167883270Y-61884860D01*
X167914505Y-61910495D01*
X167940140Y-61941730D01*
X167959190Y-61977370D01*
X167970918Y-62016032D01*
X167975000Y-62057481D01*
X167975000Y-62517519D01*
X167970918Y-62558968D01*
X167959190Y-62597630D01*
X167940140Y-62633270D01*
X167914505Y-62664505D01*
X167883270Y-62690140D01*
X167847630Y-62709190D01*
X167808968Y-62720918D01*
X167767519Y-62725000D01*
X167232481Y-62725000D01*
X167191032Y-62720918D01*
X167152370Y-62709190D01*
X167116730Y-62690140D01*
X167085495Y-62664505D01*
X167059860Y-62633270D01*
X167040810Y-62597630D01*
X167029082Y-62558968D01*
X167025000Y-62517519D01*
X167025000Y-62057481D01*
X167029082Y-62016032D01*
X167040810Y-61977370D01*
X167059860Y-61941730D01*
X167085495Y-61910495D01*
X167116730Y-61884860D01*
X167152370Y-61865810D01*
X167191032Y-61854082D01*
X167232481Y-61850000D01*
X167767519Y-61850000D01*
X167808968Y-61854082D01*
X167808968Y-61854082D01*
G37*
G36*
X158169968Y-61568082D02*
X158208630Y-61579810D01*
X158244270Y-61598860D01*
X158275505Y-61624495D01*
X158301140Y-61655730D01*
X158320190Y-61691370D01*
X158331918Y-61730032D01*
X158336000Y-61771481D01*
X158336000Y-62231519D01*
X158331918Y-62272968D01*
X158320190Y-62311630D01*
X158301140Y-62347270D01*
X158275505Y-62378505D01*
X158244270Y-62404140D01*
X158208630Y-62423190D01*
X158169968Y-62434918D01*
X158128519Y-62439000D01*
X157593481Y-62439000D01*
X157552032Y-62434918D01*
X157513370Y-62423190D01*
X157477730Y-62404140D01*
X157446495Y-62378505D01*
X157420860Y-62347270D01*
X157401810Y-62311630D01*
X157390082Y-62272968D01*
X157386000Y-62231519D01*
X157386000Y-61771481D01*
X157390082Y-61730032D01*
X157401810Y-61691370D01*
X157420860Y-61655730D01*
X157446495Y-61624495D01*
X157477730Y-61598860D01*
X157513370Y-61579810D01*
X157552032Y-61568082D01*
X157593481Y-61564000D01*
X158128519Y-61564000D01*
X158169968Y-61568082D01*
X158169968Y-61568082D01*
G37*
G36*
X156645968Y-61568082D02*
X156684630Y-61579810D01*
X156720270Y-61598860D01*
X156751505Y-61624495D01*
X156777140Y-61655730D01*
X156796190Y-61691370D01*
X156807918Y-61730032D01*
X156812000Y-61771481D01*
X156812000Y-62231519D01*
X156807918Y-62272968D01*
X156796190Y-62311630D01*
X156777140Y-62347270D01*
X156751505Y-62378505D01*
X156720270Y-62404140D01*
X156684630Y-62423190D01*
X156645968Y-62434918D01*
X156604519Y-62439000D01*
X156069481Y-62439000D01*
X156028032Y-62434918D01*
X155989370Y-62423190D01*
X155953730Y-62404140D01*
X155922495Y-62378505D01*
X155896860Y-62347270D01*
X155877810Y-62311630D01*
X155866082Y-62272968D01*
X155862000Y-62231519D01*
X155862000Y-61771481D01*
X155866082Y-61730032D01*
X155877810Y-61691370D01*
X155896860Y-61655730D01*
X155922495Y-61624495D01*
X155953730Y-61598860D01*
X155989370Y-61579810D01*
X156028032Y-61568082D01*
X156069481Y-61564000D01*
X156604519Y-61564000D01*
X156645968Y-61568082D01*
X156645968Y-61568082D01*
G37*
G36*
X160370735Y-60843080D02*
X160380085Y-60845916D01*
X160388712Y-60850528D01*
X160396270Y-60856730D01*
X160402472Y-60864288D01*
X160407084Y-60872915D01*
X160409920Y-60882265D01*
X160411000Y-60893232D01*
X160411000Y-61615768D01*
X160409920Y-61626735D01*
X160407084Y-61636085D01*
X160402472Y-61644712D01*
X160396270Y-61652270D01*
X160388712Y-61658472D01*
X160380085Y-61663084D01*
X160370735Y-61665920D01*
X160359768Y-61667000D01*
X160212232Y-61667000D01*
X160201265Y-61665920D01*
X160191915Y-61663084D01*
X160183288Y-61658472D01*
X160175730Y-61652270D01*
X160169528Y-61644712D01*
X160164916Y-61636085D01*
X160162080Y-61626735D01*
X160161000Y-61615768D01*
X160161000Y-60893232D01*
X160162080Y-60882265D01*
X160164916Y-60872915D01*
X160169528Y-60864288D01*
X160175730Y-60856730D01*
X160183288Y-60850528D01*
X160191915Y-60845916D01*
X160201265Y-60843080D01*
X160212232Y-60842000D01*
X160359768Y-60842000D01*
X160370735Y-60843080D01*
X160370735Y-60843080D01*
G37*
G36*
X160870735Y-60843080D02*
X160880085Y-60845916D01*
X160888712Y-60850528D01*
X160896270Y-60856730D01*
X160902472Y-60864288D01*
X160907084Y-60872915D01*
X160909920Y-60882265D01*
X160911000Y-60893232D01*
X160911000Y-61615768D01*
X160909920Y-61626735D01*
X160907084Y-61636085D01*
X160902472Y-61644712D01*
X160896270Y-61652270D01*
X160888712Y-61658472D01*
X160880085Y-61663084D01*
X160870735Y-61665920D01*
X160859768Y-61667000D01*
X160712232Y-61667000D01*
X160701265Y-61665920D01*
X160691915Y-61663084D01*
X160683288Y-61658472D01*
X160675730Y-61652270D01*
X160669528Y-61644712D01*
X160664916Y-61636085D01*
X160662080Y-61626735D01*
X160661000Y-61615768D01*
X160661000Y-60893232D01*
X160662080Y-60882265D01*
X160664916Y-60872915D01*
X160669528Y-60864288D01*
X160675730Y-60856730D01*
X160683288Y-60850528D01*
X160691915Y-60845916D01*
X160701265Y-60843080D01*
X160712232Y-60842000D01*
X160859768Y-60842000D01*
X160870735Y-60843080D01*
X160870735Y-60843080D01*
G37*
G36*
X161370735Y-60843080D02*
X161380085Y-60845916D01*
X161388712Y-60850528D01*
X161396270Y-60856730D01*
X161402472Y-60864288D01*
X161407084Y-60872915D01*
X161409920Y-60882265D01*
X161411000Y-60893232D01*
X161411000Y-61615768D01*
X161409920Y-61626735D01*
X161407084Y-61636085D01*
X161402472Y-61644712D01*
X161396270Y-61652270D01*
X161388712Y-61658472D01*
X161380085Y-61663084D01*
X161370735Y-61665920D01*
X161359768Y-61667000D01*
X161212232Y-61667000D01*
X161201265Y-61665920D01*
X161191915Y-61663084D01*
X161183288Y-61658472D01*
X161175730Y-61652270D01*
X161169528Y-61644712D01*
X161164916Y-61636085D01*
X161162080Y-61626735D01*
X161161000Y-61615768D01*
X161161000Y-60893232D01*
X161162080Y-60882265D01*
X161164916Y-60872915D01*
X161169528Y-60864288D01*
X161175730Y-60856730D01*
X161183288Y-60850528D01*
X161191915Y-60845916D01*
X161201265Y-60843080D01*
X161212232Y-60842000D01*
X161359768Y-60842000D01*
X161370735Y-60843080D01*
X161370735Y-60843080D01*
G37*
G36*
X161870735Y-60843080D02*
X161880085Y-60845916D01*
X161888712Y-60850528D01*
X161896270Y-60856730D01*
X161902472Y-60864288D01*
X161907084Y-60872915D01*
X161909920Y-60882265D01*
X161911000Y-60893232D01*
X161911000Y-61615768D01*
X161909920Y-61626735D01*
X161907084Y-61636085D01*
X161902472Y-61644712D01*
X161896270Y-61652270D01*
X161888712Y-61658472D01*
X161880085Y-61663084D01*
X161870735Y-61665920D01*
X161859768Y-61667000D01*
X161712232Y-61667000D01*
X161701265Y-61665920D01*
X161691915Y-61663084D01*
X161683288Y-61658472D01*
X161675730Y-61652270D01*
X161669528Y-61644712D01*
X161664916Y-61636085D01*
X161662080Y-61626735D01*
X161661000Y-61615768D01*
X161661000Y-60893232D01*
X161662080Y-60882265D01*
X161664916Y-60872915D01*
X161669528Y-60864288D01*
X161675730Y-60856730D01*
X161683288Y-60850528D01*
X161691915Y-60845916D01*
X161701265Y-60843080D01*
X161712232Y-60842000D01*
X161859768Y-60842000D01*
X161870735Y-60843080D01*
X161870735Y-60843080D01*
G37*
G36*
X169946468Y-60279082D02*
X169985130Y-60290810D01*
X170020770Y-60309860D01*
X170052005Y-60335495D01*
X170077640Y-60366730D01*
X170096690Y-60402370D01*
X170108418Y-60441032D01*
X170112500Y-60482481D01*
X170112500Y-61017519D01*
X170108418Y-61058968D01*
X170096690Y-61097630D01*
X170077640Y-61133270D01*
X170052005Y-61164505D01*
X170020770Y-61190140D01*
X169985130Y-61209190D01*
X169946468Y-61220918D01*
X169905019Y-61225000D01*
X169444981Y-61225000D01*
X169403532Y-61220918D01*
X169364870Y-61209190D01*
X169329230Y-61190140D01*
X169297995Y-61164505D01*
X169272360Y-61133270D01*
X169253310Y-61097630D01*
X169241582Y-61058968D01*
X169237500Y-61017519D01*
X169237500Y-60482481D01*
X169241582Y-60441032D01*
X169253310Y-60402370D01*
X169272360Y-60366730D01*
X169297995Y-60335495D01*
X169329230Y-60309860D01*
X169364870Y-60290810D01*
X169403532Y-60279082D01*
X169444981Y-60275000D01*
X169905019Y-60275000D01*
X169946468Y-60279082D01*
X169946468Y-60279082D01*
G37*
G36*
X171521468Y-60279082D02*
X171560130Y-60290810D01*
X171595770Y-60309860D01*
X171627005Y-60335495D01*
X171652640Y-60366730D01*
X171671690Y-60402370D01*
X171683418Y-60441032D01*
X171687500Y-60482481D01*
X171687500Y-61017519D01*
X171683418Y-61058968D01*
X171671690Y-61097630D01*
X171652640Y-61133270D01*
X171627005Y-61164505D01*
X171595770Y-61190140D01*
X171560130Y-61209190D01*
X171521468Y-61220918D01*
X171480019Y-61225000D01*
X171019981Y-61225000D01*
X170978532Y-61220918D01*
X170939870Y-61209190D01*
X170904230Y-61190140D01*
X170872995Y-61164505D01*
X170847360Y-61133270D01*
X170828310Y-61097630D01*
X170816582Y-61058968D01*
X170812500Y-61017519D01*
X170812500Y-60482481D01*
X170816582Y-60441032D01*
X170828310Y-60402370D01*
X170847360Y-60366730D01*
X170872995Y-60335495D01*
X170904230Y-60309860D01*
X170939870Y-60290810D01*
X170978532Y-60279082D01*
X171019981Y-60275000D01*
X171480019Y-60275000D01*
X171521468Y-60279082D01*
X171521468Y-60279082D01*
G37*
G36*
X173058968Y-60316582D02*
X173097630Y-60328310D01*
X173133270Y-60347360D01*
X173164505Y-60372995D01*
X173190140Y-60404230D01*
X173209190Y-60439870D01*
X173220918Y-60478532D01*
X173225000Y-60519981D01*
X173225000Y-60980019D01*
X173220918Y-61021468D01*
X173209190Y-61060130D01*
X173190140Y-61095770D01*
X173164505Y-61127005D01*
X173133270Y-61152640D01*
X173097630Y-61171690D01*
X173058968Y-61183418D01*
X173017519Y-61187500D01*
X172482481Y-61187500D01*
X172441032Y-61183418D01*
X172402370Y-61171690D01*
X172366730Y-61152640D01*
X172335495Y-61127005D01*
X172309860Y-61095770D01*
X172290810Y-61060130D01*
X172279082Y-61021468D01*
X172275000Y-60980019D01*
X172275000Y-60519981D01*
X172279082Y-60478532D01*
X172290810Y-60439870D01*
X172309860Y-60404230D01*
X172335495Y-60372995D01*
X172366730Y-60347360D01*
X172402370Y-60328310D01*
X172441032Y-60316582D01*
X172482481Y-60312500D01*
X173017519Y-60312500D01*
X173058968Y-60316582D01*
X173058968Y-60316582D01*
G37*
G36*
X166058968Y-60279082D02*
X166097630Y-60290810D01*
X166133270Y-60309860D01*
X166164505Y-60335495D01*
X166190140Y-60366730D01*
X166209190Y-60402370D01*
X166220918Y-60441032D01*
X166225000Y-60482481D01*
X166225000Y-60942519D01*
X166220918Y-60983968D01*
X166209190Y-61022630D01*
X166190140Y-61058270D01*
X166164505Y-61089505D01*
X166133270Y-61115140D01*
X166097630Y-61134190D01*
X166058968Y-61145918D01*
X166017519Y-61150000D01*
X165482481Y-61150000D01*
X165441032Y-61145918D01*
X165402370Y-61134190D01*
X165366730Y-61115140D01*
X165335495Y-61089505D01*
X165309860Y-61058270D01*
X165290810Y-61022630D01*
X165279082Y-60983968D01*
X165275000Y-60942519D01*
X165275000Y-60482481D01*
X165279082Y-60441032D01*
X165290810Y-60402370D01*
X165309860Y-60366730D01*
X165335495Y-60335495D01*
X165366730Y-60309860D01*
X165402370Y-60290810D01*
X165441032Y-60279082D01*
X165482481Y-60275000D01*
X166017519Y-60275000D01*
X166058968Y-60279082D01*
X166058968Y-60279082D01*
G37*
G36*
X167808968Y-60279082D02*
X167847630Y-60290810D01*
X167883270Y-60309860D01*
X167914505Y-60335495D01*
X167940140Y-60366730D01*
X167959190Y-60402370D01*
X167970918Y-60441032D01*
X167975000Y-60482481D01*
X167975000Y-60942519D01*
X167970918Y-60983968D01*
X167959190Y-61022630D01*
X167940140Y-61058270D01*
X167914505Y-61089505D01*
X167883270Y-61115140D01*
X167847630Y-61134190D01*
X167808968Y-61145918D01*
X167767519Y-61150000D01*
X167232481Y-61150000D01*
X167191032Y-61145918D01*
X167152370Y-61134190D01*
X167116730Y-61115140D01*
X167085495Y-61089505D01*
X167059860Y-61058270D01*
X167040810Y-61022630D01*
X167029082Y-60983968D01*
X167025000Y-60942519D01*
X167025000Y-60482481D01*
X167029082Y-60441032D01*
X167040810Y-60402370D01*
X167059860Y-60366730D01*
X167085495Y-60335495D01*
X167116730Y-60309860D01*
X167152370Y-60290810D01*
X167191032Y-60279082D01*
X167232481Y-60275000D01*
X167767519Y-60275000D01*
X167808968Y-60279082D01*
X167808968Y-60279082D01*
G37*
G36*
X158169968Y-59993082D02*
X158208630Y-60004810D01*
X158244270Y-60023860D01*
X158275505Y-60049495D01*
X158301140Y-60080730D01*
X158320190Y-60116370D01*
X158331918Y-60155032D01*
X158336000Y-60196481D01*
X158336000Y-60656519D01*
X158331918Y-60697968D01*
X158320190Y-60736630D01*
X158301140Y-60772270D01*
X158275505Y-60803505D01*
X158244270Y-60829140D01*
X158208630Y-60848190D01*
X158169968Y-60859918D01*
X158128519Y-60864000D01*
X157593481Y-60864000D01*
X157552032Y-60859918D01*
X157513370Y-60848190D01*
X157477730Y-60829140D01*
X157446495Y-60803505D01*
X157420860Y-60772270D01*
X157401810Y-60736630D01*
X157390082Y-60697968D01*
X157386000Y-60656519D01*
X157386000Y-60196481D01*
X157390082Y-60155032D01*
X157401810Y-60116370D01*
X157420860Y-60080730D01*
X157446495Y-60049495D01*
X157477730Y-60023860D01*
X157513370Y-60004810D01*
X157552032Y-59993082D01*
X157593481Y-59989000D01*
X158128519Y-59989000D01*
X158169968Y-59993082D01*
X158169968Y-59993082D01*
G37*
G36*
X156645968Y-59993082D02*
X156684630Y-60004810D01*
X156720270Y-60023860D01*
X156751505Y-60049495D01*
X156777140Y-60080730D01*
X156796190Y-60116370D01*
X156807918Y-60155032D01*
X156812000Y-60196481D01*
X156812000Y-60656519D01*
X156807918Y-60697968D01*
X156796190Y-60736630D01*
X156777140Y-60772270D01*
X156751505Y-60803505D01*
X156720270Y-60829140D01*
X156684630Y-60848190D01*
X156645968Y-60859918D01*
X156604519Y-60864000D01*
X156069481Y-60864000D01*
X156028032Y-60859918D01*
X155989370Y-60848190D01*
X155953730Y-60829140D01*
X155922495Y-60803505D01*
X155896860Y-60772270D01*
X155877810Y-60736630D01*
X155866082Y-60697968D01*
X155862000Y-60656519D01*
X155862000Y-60196481D01*
X155866082Y-60155032D01*
X155877810Y-60116370D01*
X155896860Y-60080730D01*
X155922495Y-60049495D01*
X155953730Y-60023860D01*
X155989370Y-60004810D01*
X156028032Y-59993082D01*
X156069481Y-59989000D01*
X156604519Y-59989000D01*
X156645968Y-59993082D01*
X156645968Y-59993082D01*
G37*
G36*
X162845735Y-60443080D02*
X162855085Y-60445916D01*
X162863712Y-60450528D01*
X162871270Y-60456730D01*
X162877472Y-60464288D01*
X162882084Y-60472915D01*
X162884920Y-60482265D01*
X162886000Y-60493232D01*
X162886000Y-60640768D01*
X162884920Y-60651735D01*
X162882084Y-60661085D01*
X162877472Y-60669712D01*
X162871270Y-60677270D01*
X162863712Y-60683472D01*
X162855085Y-60688084D01*
X162845735Y-60690920D01*
X162834768Y-60692000D01*
X162112232Y-60692000D01*
X162101265Y-60690920D01*
X162091915Y-60688084D01*
X162083288Y-60683472D01*
X162075730Y-60677270D01*
X162069528Y-60669712D01*
X162064916Y-60661085D01*
X162062080Y-60651735D01*
X162061000Y-60640768D01*
X162061000Y-60493232D01*
X162062080Y-60482265D01*
X162064916Y-60472915D01*
X162069528Y-60464288D01*
X162075730Y-60456730D01*
X162083288Y-60450528D01*
X162091915Y-60445916D01*
X162101265Y-60443080D01*
X162112232Y-60442000D01*
X162834768Y-60442000D01*
X162845735Y-60443080D01*
X162845735Y-60443080D01*
G37*
G36*
X159970735Y-60443080D02*
X159980085Y-60445916D01*
X159988712Y-60450528D01*
X159996270Y-60456730D01*
X160002472Y-60464288D01*
X160007084Y-60472915D01*
X160009920Y-60482265D01*
X160011000Y-60493232D01*
X160011000Y-60640768D01*
X160009920Y-60651735D01*
X160007084Y-60661085D01*
X160002472Y-60669712D01*
X159996270Y-60677270D01*
X159988712Y-60683472D01*
X159980085Y-60688084D01*
X159970735Y-60690920D01*
X159959768Y-60692000D01*
X159237232Y-60692000D01*
X159226265Y-60690920D01*
X159216915Y-60688084D01*
X159208288Y-60683472D01*
X159200730Y-60677270D01*
X159194528Y-60669712D01*
X159189916Y-60661085D01*
X159187080Y-60651735D01*
X159186000Y-60640768D01*
X159186000Y-60493232D01*
X159187080Y-60482265D01*
X159189916Y-60472915D01*
X159194528Y-60464288D01*
X159200730Y-60456730D01*
X159208288Y-60450528D01*
X159216915Y-60445916D01*
X159226265Y-60443080D01*
X159237232Y-60442000D01*
X159959768Y-60442000D01*
X159970735Y-60443080D01*
X159970735Y-60443080D01*
G37*
G36*
X161648589Y-59021593D02*
X161692232Y-59034832D01*
X161732465Y-59056337D01*
X161767726Y-59085274D01*
X161796663Y-59120535D01*
X161818168Y-59160768D01*
X161831407Y-59204411D01*
X161836000Y-59251045D01*
X161836000Y-60382955D01*
X161831407Y-60429589D01*
X161818168Y-60473232D01*
X161796663Y-60513465D01*
X161767726Y-60548726D01*
X161732465Y-60577663D01*
X161692232Y-60599168D01*
X161648589Y-60612407D01*
X161601955Y-60617000D01*
X160470045Y-60617000D01*
X160423411Y-60612407D01*
X160379768Y-60599168D01*
X160339535Y-60577663D01*
X160304274Y-60548726D01*
X160275337Y-60513465D01*
X160253832Y-60473232D01*
X160240593Y-60429589D01*
X160236000Y-60382955D01*
X160236000Y-59251045D01*
X160240593Y-59204411D01*
X160253832Y-59160768D01*
X160275337Y-59120535D01*
X160304274Y-59085274D01*
X160339535Y-59056337D01*
X160379768Y-59034832D01*
X160423411Y-59021593D01*
X160470045Y-59017000D01*
X161601955Y-59017000D01*
X161648589Y-59021593D01*
X161648589Y-59021593D01*
G37*
G36*
X155084000Y-60368000D02*
X154034000Y-60368000D01*
X154034000Y-58968000D01*
X155084000Y-58968000D01*
X155084000Y-60368000D01*
X155084000Y-60368000D01*
G37*
G36*
X153634000Y-60368000D02*
X152584000Y-60368000D01*
X152584000Y-58968000D01*
X153634000Y-58968000D01*
X153634000Y-60368000D01*
X153634000Y-60368000D01*
G37*
G36*
X162845735Y-59943080D02*
X162855085Y-59945916D01*
X162863712Y-59950528D01*
X162871270Y-59956730D01*
X162877472Y-59964288D01*
X162882084Y-59972915D01*
X162884920Y-59982265D01*
X162886000Y-59993232D01*
X162886000Y-60140768D01*
X162884920Y-60151735D01*
X162882084Y-60161085D01*
X162877472Y-60169712D01*
X162871270Y-60177270D01*
X162863712Y-60183472D01*
X162855085Y-60188084D01*
X162845735Y-60190920D01*
X162834768Y-60192000D01*
X162112232Y-60192000D01*
X162101265Y-60190920D01*
X162091915Y-60188084D01*
X162083288Y-60183472D01*
X162075730Y-60177270D01*
X162069528Y-60169712D01*
X162064916Y-60161085D01*
X162062080Y-60151735D01*
X162061000Y-60140768D01*
X162061000Y-59993232D01*
X162062080Y-59982265D01*
X162064916Y-59972915D01*
X162069528Y-59964288D01*
X162075730Y-59956730D01*
X162083288Y-59950528D01*
X162091915Y-59945916D01*
X162101265Y-59943080D01*
X162112232Y-59942000D01*
X162834768Y-59942000D01*
X162845735Y-59943080D01*
X162845735Y-59943080D01*
G37*
G36*
X159970735Y-59943080D02*
X159980085Y-59945916D01*
X159988712Y-59950528D01*
X159996270Y-59956730D01*
X160002472Y-59964288D01*
X160007084Y-59972915D01*
X160009920Y-59982265D01*
X160011000Y-59993232D01*
X160011000Y-60140768D01*
X160009920Y-60151735D01*
X160007084Y-60161085D01*
X160002472Y-60169712D01*
X159996270Y-60177270D01*
X159988712Y-60183472D01*
X159980085Y-60188084D01*
X159970735Y-60190920D01*
X159959768Y-60192000D01*
X159237232Y-60192000D01*
X159226265Y-60190920D01*
X159216915Y-60188084D01*
X159208288Y-60183472D01*
X159200730Y-60177270D01*
X159194528Y-60169712D01*
X159189916Y-60161085D01*
X159187080Y-60151735D01*
X159186000Y-60140768D01*
X159186000Y-59993232D01*
X159187080Y-59982265D01*
X159189916Y-59972915D01*
X159194528Y-59964288D01*
X159200730Y-59956730D01*
X159208288Y-59950528D01*
X159216915Y-59945916D01*
X159226265Y-59943080D01*
X159237232Y-59942000D01*
X159959768Y-59942000D01*
X159970735Y-59943080D01*
X159970735Y-59943080D01*
G37*
G36*
X170021468Y-58779082D02*
X170060130Y-58790810D01*
X170095770Y-58809860D01*
X170127005Y-58835495D01*
X170152640Y-58866730D01*
X170171690Y-58902370D01*
X170183418Y-58941032D01*
X170187500Y-58982481D01*
X170187500Y-59517519D01*
X170183418Y-59558968D01*
X170171690Y-59597630D01*
X170152640Y-59633270D01*
X170127005Y-59664505D01*
X170095770Y-59690140D01*
X170060130Y-59709190D01*
X170021468Y-59720918D01*
X169980019Y-59725000D01*
X169519981Y-59725000D01*
X169478532Y-59720918D01*
X169439870Y-59709190D01*
X169404230Y-59690140D01*
X169372995Y-59664505D01*
X169347360Y-59633270D01*
X169328310Y-59597630D01*
X169316582Y-59558968D01*
X169312500Y-59517519D01*
X169312500Y-58982481D01*
X169316582Y-58941032D01*
X169328310Y-58902370D01*
X169347360Y-58866730D01*
X169372995Y-58835495D01*
X169404230Y-58809860D01*
X169439870Y-58790810D01*
X169478532Y-58779082D01*
X169519981Y-58775000D01*
X169980019Y-58775000D01*
X170021468Y-58779082D01*
X170021468Y-58779082D01*
G37*
G36*
X171596468Y-58779082D02*
X171635130Y-58790810D01*
X171670770Y-58809860D01*
X171702005Y-58835495D01*
X171727640Y-58866730D01*
X171746690Y-58902370D01*
X171758418Y-58941032D01*
X171762500Y-58982481D01*
X171762500Y-59517519D01*
X171758418Y-59558968D01*
X171746690Y-59597630D01*
X171727640Y-59633270D01*
X171702005Y-59664505D01*
X171670770Y-59690140D01*
X171635130Y-59709190D01*
X171596468Y-59720918D01*
X171555019Y-59725000D01*
X171094981Y-59725000D01*
X171053532Y-59720918D01*
X171014870Y-59709190D01*
X170979230Y-59690140D01*
X170947995Y-59664505D01*
X170922360Y-59633270D01*
X170903310Y-59597630D01*
X170891582Y-59558968D01*
X170887500Y-59517519D01*
X170887500Y-58982481D01*
X170891582Y-58941032D01*
X170903310Y-58902370D01*
X170922360Y-58866730D01*
X170947995Y-58835495D01*
X170979230Y-58809860D01*
X171014870Y-58790810D01*
X171053532Y-58779082D01*
X171094981Y-58775000D01*
X171555019Y-58775000D01*
X171596468Y-58779082D01*
X171596468Y-58779082D01*
G37*
G36*
X159970735Y-59443080D02*
X159980085Y-59445916D01*
X159988712Y-59450528D01*
X159996270Y-59456730D01*
X160002472Y-59464288D01*
X160007084Y-59472915D01*
X160009920Y-59482265D01*
X160011000Y-59493232D01*
X160011000Y-59640768D01*
X160009920Y-59651735D01*
X160007084Y-59661085D01*
X160002472Y-59669712D01*
X159996270Y-59677270D01*
X159988712Y-59683472D01*
X159980085Y-59688084D01*
X159970735Y-59690920D01*
X159959768Y-59692000D01*
X159237232Y-59692000D01*
X159226265Y-59690920D01*
X159216915Y-59688084D01*
X159208288Y-59683472D01*
X159200730Y-59677270D01*
X159194528Y-59669712D01*
X159189916Y-59661085D01*
X159187080Y-59651735D01*
X159186000Y-59640768D01*
X159186000Y-59493232D01*
X159187080Y-59482265D01*
X159189916Y-59472915D01*
X159194528Y-59464288D01*
X159200730Y-59456730D01*
X159208288Y-59450528D01*
X159216915Y-59445916D01*
X159226265Y-59443080D01*
X159237232Y-59442000D01*
X159959768Y-59442000D01*
X159970735Y-59443080D01*
X159970735Y-59443080D01*
G37*
G36*
X162845735Y-59443080D02*
X162855085Y-59445916D01*
X162863712Y-59450528D01*
X162871270Y-59456730D01*
X162877472Y-59464288D01*
X162882084Y-59472915D01*
X162884920Y-59482265D01*
X162886000Y-59493232D01*
X162886000Y-59640768D01*
X162884920Y-59651735D01*
X162882084Y-59661085D01*
X162877472Y-59669712D01*
X162871270Y-59677270D01*
X162863712Y-59683472D01*
X162855085Y-59688084D01*
X162845735Y-59690920D01*
X162834768Y-59692000D01*
X162112232Y-59692000D01*
X162101265Y-59690920D01*
X162091915Y-59688084D01*
X162083288Y-59683472D01*
X162075730Y-59677270D01*
X162069528Y-59669712D01*
X162064916Y-59661085D01*
X162062080Y-59651735D01*
X162061000Y-59640768D01*
X162061000Y-59493232D01*
X162062080Y-59482265D01*
X162064916Y-59472915D01*
X162069528Y-59464288D01*
X162075730Y-59456730D01*
X162083288Y-59450528D01*
X162091915Y-59445916D01*
X162101265Y-59443080D01*
X162112232Y-59442000D01*
X162834768Y-59442000D01*
X162845735Y-59443080D01*
X162845735Y-59443080D01*
G37*
G36*
X173058968Y-58741582D02*
X173097630Y-58753310D01*
X173133270Y-58772360D01*
X173164505Y-58797995D01*
X173190140Y-58829230D01*
X173209190Y-58864870D01*
X173220918Y-58903532D01*
X173225000Y-58944981D01*
X173225000Y-59405019D01*
X173220918Y-59446468D01*
X173209190Y-59485130D01*
X173190140Y-59520770D01*
X173164505Y-59552005D01*
X173133270Y-59577640D01*
X173097630Y-59596690D01*
X173058968Y-59608418D01*
X173017519Y-59612500D01*
X172482481Y-59612500D01*
X172441032Y-59608418D01*
X172402370Y-59596690D01*
X172366730Y-59577640D01*
X172335495Y-59552005D01*
X172309860Y-59520770D01*
X172290810Y-59485130D01*
X172279082Y-59446468D01*
X172275000Y-59405019D01*
X172275000Y-58944981D01*
X172279082Y-58903532D01*
X172290810Y-58864870D01*
X172309860Y-58829230D01*
X172335495Y-58797995D01*
X172366730Y-58772360D01*
X172402370Y-58753310D01*
X172441032Y-58741582D01*
X172482481Y-58737500D01*
X173017519Y-58737500D01*
X173058968Y-58741582D01*
X173058968Y-58741582D01*
G37*
G36*
X178500000Y-59300000D02*
X177700000Y-59300000D01*
X177700000Y-57700000D01*
X178500000Y-57700000D01*
X178500000Y-59300000D01*
X178500000Y-59300000D01*
G37*
G36*
X175300000Y-59300000D02*
X174500000Y-59300000D01*
X174500000Y-58650000D01*
X175300000Y-58650000D01*
X175300000Y-59300000D01*
X175300000Y-59300000D01*
G37*
G36*
X159970735Y-58943080D02*
X159980085Y-58945916D01*
X159988712Y-58950528D01*
X159996270Y-58956730D01*
X160002472Y-58964288D01*
X160007084Y-58972915D01*
X160009920Y-58982265D01*
X160011000Y-58993232D01*
X160011000Y-59140768D01*
X160009920Y-59151735D01*
X160007084Y-59161085D01*
X160002472Y-59169712D01*
X159996270Y-59177270D01*
X159988712Y-59183472D01*
X159980085Y-59188084D01*
X159970735Y-59190920D01*
X159959768Y-59192000D01*
X159237232Y-59192000D01*
X159226265Y-59190920D01*
X159216915Y-59188084D01*
X159208288Y-59183472D01*
X159200730Y-59177270D01*
X159194528Y-59169712D01*
X159189916Y-59161085D01*
X159187080Y-59151735D01*
X159186000Y-59140768D01*
X159186000Y-58993232D01*
X159187080Y-58982265D01*
X159189916Y-58972915D01*
X159194528Y-58964288D01*
X159200730Y-58956730D01*
X159208288Y-58950528D01*
X159216915Y-58945916D01*
X159226265Y-58943080D01*
X159237232Y-58942000D01*
X159959768Y-58942000D01*
X159970735Y-58943080D01*
X159970735Y-58943080D01*
G37*
G36*
X162845735Y-58943080D02*
X162855085Y-58945916D01*
X162863712Y-58950528D01*
X162871270Y-58956730D01*
X162877472Y-58964288D01*
X162882084Y-58972915D01*
X162884920Y-58982265D01*
X162886000Y-58993232D01*
X162886000Y-59140768D01*
X162884920Y-59151735D01*
X162882084Y-59161085D01*
X162877472Y-59169712D01*
X162871270Y-59177270D01*
X162863712Y-59183472D01*
X162855085Y-59188084D01*
X162845735Y-59190920D01*
X162834768Y-59192000D01*
X162112232Y-59192000D01*
X162101265Y-59190920D01*
X162091915Y-59188084D01*
X162083288Y-59183472D01*
X162075730Y-59177270D01*
X162069528Y-59169712D01*
X162064916Y-59161085D01*
X162062080Y-59151735D01*
X162061000Y-59140768D01*
X162061000Y-58993232D01*
X162062080Y-58982265D01*
X162064916Y-58972915D01*
X162069528Y-58964288D01*
X162075730Y-58956730D01*
X162083288Y-58950528D01*
X162091915Y-58945916D01*
X162101265Y-58943080D01*
X162112232Y-58942000D01*
X162834768Y-58942000D01*
X162845735Y-58943080D01*
X162845735Y-58943080D01*
G37*
G36*
X156582968Y-58076082D02*
X156621630Y-58087810D01*
X156657270Y-58106860D01*
X156688505Y-58132495D01*
X156714140Y-58163730D01*
X156733190Y-58199370D01*
X156744918Y-58238032D01*
X156749000Y-58279481D01*
X156749000Y-58814519D01*
X156744918Y-58855968D01*
X156733190Y-58894630D01*
X156714140Y-58930270D01*
X156688505Y-58961505D01*
X156657270Y-58987140D01*
X156621630Y-59006190D01*
X156582968Y-59017918D01*
X156541519Y-59022000D01*
X156081481Y-59022000D01*
X156040032Y-59017918D01*
X156001370Y-59006190D01*
X155965730Y-58987140D01*
X155934495Y-58961505D01*
X155908860Y-58930270D01*
X155889810Y-58894630D01*
X155878082Y-58855968D01*
X155874000Y-58814519D01*
X155874000Y-58279481D01*
X155878082Y-58238032D01*
X155889810Y-58199370D01*
X155908860Y-58163730D01*
X155934495Y-58132495D01*
X155965730Y-58106860D01*
X156001370Y-58087810D01*
X156040032Y-58076082D01*
X156081481Y-58072000D01*
X156541519Y-58072000D01*
X156582968Y-58076082D01*
X156582968Y-58076082D01*
G37*
G36*
X158157968Y-58076082D02*
X158196630Y-58087810D01*
X158232270Y-58106860D01*
X158263505Y-58132495D01*
X158289140Y-58163730D01*
X158308190Y-58199370D01*
X158319918Y-58238032D01*
X158324000Y-58279481D01*
X158324000Y-58814519D01*
X158319918Y-58855968D01*
X158308190Y-58894630D01*
X158289140Y-58930270D01*
X158263505Y-58961505D01*
X158232270Y-58987140D01*
X158196630Y-59006190D01*
X158157968Y-59017918D01*
X158116519Y-59022000D01*
X157656481Y-59022000D01*
X157615032Y-59017918D01*
X157576370Y-59006190D01*
X157540730Y-58987140D01*
X157509495Y-58961505D01*
X157483860Y-58930270D01*
X157464810Y-58894630D01*
X157453082Y-58855968D01*
X157449000Y-58814519D01*
X157449000Y-58279481D01*
X157453082Y-58238032D01*
X157464810Y-58199370D01*
X157483860Y-58163730D01*
X157509495Y-58132495D01*
X157540730Y-58106860D01*
X157576370Y-58087810D01*
X157615032Y-58076082D01*
X157656481Y-58072000D01*
X158116519Y-58072000D01*
X158157968Y-58076082D01*
X158157968Y-58076082D01*
G37*
G36*
X160870735Y-57968080D02*
X160880085Y-57970916D01*
X160888712Y-57975528D01*
X160896270Y-57981730D01*
X160902472Y-57989288D01*
X160907084Y-57997915D01*
X160909920Y-58007265D01*
X160911000Y-58018232D01*
X160911000Y-58740768D01*
X160909920Y-58751735D01*
X160907084Y-58761085D01*
X160902472Y-58769712D01*
X160896270Y-58777270D01*
X160888712Y-58783472D01*
X160880085Y-58788084D01*
X160870735Y-58790920D01*
X160859768Y-58792000D01*
X160712232Y-58792000D01*
X160701265Y-58790920D01*
X160691915Y-58788084D01*
X160683288Y-58783472D01*
X160675730Y-58777270D01*
X160669528Y-58769712D01*
X160664916Y-58761085D01*
X160662080Y-58751735D01*
X160661000Y-58740768D01*
X160661000Y-58018232D01*
X160662080Y-58007265D01*
X160664916Y-57997915D01*
X160669528Y-57989288D01*
X160675730Y-57981730D01*
X160683288Y-57975528D01*
X160691915Y-57970916D01*
X160701265Y-57968080D01*
X160712232Y-57967000D01*
X160859768Y-57967000D01*
X160870735Y-57968080D01*
X160870735Y-57968080D01*
G37*
G36*
X160370735Y-57968080D02*
X160380085Y-57970916D01*
X160388712Y-57975528D01*
X160396270Y-57981730D01*
X160402472Y-57989288D01*
X160407084Y-57997915D01*
X160409920Y-58007265D01*
X160411000Y-58018232D01*
X160411000Y-58740768D01*
X160409920Y-58751735D01*
X160407084Y-58761085D01*
X160402472Y-58769712D01*
X160396270Y-58777270D01*
X160388712Y-58783472D01*
X160380085Y-58788084D01*
X160370735Y-58790920D01*
X160359768Y-58792000D01*
X160212232Y-58792000D01*
X160201265Y-58790920D01*
X160191915Y-58788084D01*
X160183288Y-58783472D01*
X160175730Y-58777270D01*
X160169528Y-58769712D01*
X160164916Y-58761085D01*
X160162080Y-58751735D01*
X160161000Y-58740768D01*
X160161000Y-58018232D01*
X160162080Y-58007265D01*
X160164916Y-57997915D01*
X160169528Y-57989288D01*
X160175730Y-57981730D01*
X160183288Y-57975528D01*
X160191915Y-57970916D01*
X160201265Y-57968080D01*
X160212232Y-57967000D01*
X160359768Y-57967000D01*
X160370735Y-57968080D01*
X160370735Y-57968080D01*
G37*
G36*
X161370735Y-57968080D02*
X161380085Y-57970916D01*
X161388712Y-57975528D01*
X161396270Y-57981730D01*
X161402472Y-57989288D01*
X161407084Y-57997915D01*
X161409920Y-58007265D01*
X161411000Y-58018232D01*
X161411000Y-58740768D01*
X161409920Y-58751735D01*
X161407084Y-58761085D01*
X161402472Y-58769712D01*
X161396270Y-58777270D01*
X161388712Y-58783472D01*
X161380085Y-58788084D01*
X161370735Y-58790920D01*
X161359768Y-58792000D01*
X161212232Y-58792000D01*
X161201265Y-58790920D01*
X161191915Y-58788084D01*
X161183288Y-58783472D01*
X161175730Y-58777270D01*
X161169528Y-58769712D01*
X161164916Y-58761085D01*
X161162080Y-58751735D01*
X161161000Y-58740768D01*
X161161000Y-58018232D01*
X161162080Y-58007265D01*
X161164916Y-57997915D01*
X161169528Y-57989288D01*
X161175730Y-57981730D01*
X161183288Y-57975528D01*
X161191915Y-57970916D01*
X161201265Y-57968080D01*
X161212232Y-57967000D01*
X161359768Y-57967000D01*
X161370735Y-57968080D01*
X161370735Y-57968080D01*
G37*
G36*
X161870735Y-57968080D02*
X161880085Y-57970916D01*
X161888712Y-57975528D01*
X161896270Y-57981730D01*
X161902472Y-57989288D01*
X161907084Y-57997915D01*
X161909920Y-58007265D01*
X161911000Y-58018232D01*
X161911000Y-58740768D01*
X161909920Y-58751735D01*
X161907084Y-58761085D01*
X161902472Y-58769712D01*
X161896270Y-58777270D01*
X161888712Y-58783472D01*
X161880085Y-58788084D01*
X161870735Y-58790920D01*
X161859768Y-58792000D01*
X161712232Y-58792000D01*
X161701265Y-58790920D01*
X161691915Y-58788084D01*
X161683288Y-58783472D01*
X161675730Y-58777270D01*
X161669528Y-58769712D01*
X161664916Y-58761085D01*
X161662080Y-58751735D01*
X161661000Y-58740768D01*
X161661000Y-58018232D01*
X161662080Y-58007265D01*
X161664916Y-57997915D01*
X161669528Y-57989288D01*
X161675730Y-57981730D01*
X161683288Y-57975528D01*
X161691915Y-57970916D01*
X161701265Y-57968080D01*
X161712232Y-57967000D01*
X161859768Y-57967000D01*
X161870735Y-57968080D01*
X161870735Y-57968080D01*
G37*
G36*
X175300000Y-58350000D02*
X174500000Y-58350000D01*
X174500000Y-57700000D01*
X175300000Y-57700000D01*
X175300000Y-58350000D01*
X175300000Y-58350000D01*
G37*
M02*
