G04 #@! TF.GenerationSoftware,KiCad,Pcbnew,(5.0.1)-3*
G04 #@! TF.CreationDate,2020-01-13T08:35:40-05:00*
G04 #@! TF.ProjectId,SmartWatch,536D61727457617463682E6B69636164,rev?*
G04 #@! TF.SameCoordinates,Original*
G04 #@! TF.FileFunction,Legend,Top*
G04 #@! TF.FilePolarity,Positive*
%FSLAX46Y46*%
G04 Gerber Fmt 4.6, Leading zero omitted, Abs format (unit mm)*
G04 Created by KiCad (PCBNEW (5.0.1)-3) date 1/13/2020 8:35:40 AM*
%MOMM*%
%LPD*%
G01*
G04 APERTURE LIST*
%ADD10C,0.300000*%
%ADD11C,0.120000*%
%ADD12C,0.150000*%
%ADD13C,0.127000*%
%ADD14C,0.200000*%
%ADD15C,0.050000*%
%ADD16C,0.015000*%
G04 APERTURE END LIST*
D10*
X145421429Y-60142857D02*
X145421429Y-59285714D01*
X145421429Y-59714285D02*
X146921429Y-59714285D01*
X146707143Y-59571428D01*
X146564286Y-59428571D01*
X146492858Y-59285714D01*
X146921429Y-60642857D02*
X146921429Y-61642857D01*
X145421429Y-61000000D01*
X145564286Y-62214285D02*
X145492858Y-62285714D01*
X145421429Y-62214285D01*
X145492858Y-62142857D01*
X145564286Y-62214285D01*
X145421429Y-62214285D01*
X146921429Y-63214285D02*
X146921429Y-63357142D01*
X146850001Y-63500000D01*
X146778572Y-63571428D01*
X146635715Y-63642857D01*
X146350001Y-63714285D01*
X145992858Y-63714285D01*
X145707143Y-63642857D01*
X145564286Y-63571428D01*
X145492858Y-63500000D01*
X145421429Y-63357142D01*
X145421429Y-63214285D01*
X145492858Y-63071428D01*
X145564286Y-63000000D01*
X145707143Y-62928571D01*
X145992858Y-62857142D01*
X146350001Y-62857142D01*
X146635715Y-62928571D01*
X146778572Y-63000000D01*
X146850001Y-63071428D01*
X146921429Y-63214285D01*
X146921429Y-64642857D02*
X146921429Y-64785714D01*
X146850001Y-64928571D01*
X146778572Y-65000000D01*
X146635715Y-65071428D01*
X146350001Y-65142857D01*
X145992858Y-65142857D01*
X145707143Y-65071428D01*
X145564286Y-65000000D01*
X145492858Y-64928571D01*
X145421429Y-64785714D01*
X145421429Y-64642857D01*
X145492858Y-64500000D01*
X145564286Y-64428571D01*
X145707143Y-64357142D01*
X145992858Y-64285714D01*
X146350001Y-64285714D01*
X146635715Y-64357142D01*
X146778572Y-64428571D01*
X146850001Y-64500000D01*
X146921429Y-64642857D01*
X146921429Y-66071428D02*
X146921429Y-66214285D01*
X146850001Y-66357142D01*
X146778572Y-66428571D01*
X146635715Y-66500000D01*
X146350001Y-66571428D01*
X145992858Y-66571428D01*
X145707143Y-66500000D01*
X145564286Y-66428571D01*
X145492858Y-66357142D01*
X145421429Y-66214285D01*
X145421429Y-66071428D01*
X145492858Y-65928571D01*
X145564286Y-65857142D01*
X145707143Y-65785714D01*
X145992858Y-65714285D01*
X146350001Y-65714285D01*
X146635715Y-65785714D01*
X146778572Y-65857142D01*
X146850001Y-65928571D01*
X146921429Y-66071428D01*
X145421429Y-68357142D02*
X146421429Y-68357142D01*
X146278572Y-68357142D02*
X146350001Y-68428571D01*
X146421429Y-68571428D01*
X146421429Y-68785714D01*
X146350001Y-68928571D01*
X146207143Y-69000000D01*
X145421429Y-69000000D01*
X146207143Y-69000000D02*
X146350001Y-69071428D01*
X146421429Y-69214285D01*
X146421429Y-69428571D01*
X146350001Y-69571428D01*
X146207143Y-69642857D01*
X145421429Y-69642857D01*
X145421429Y-70357142D02*
X146421429Y-70357142D01*
X146278572Y-70357142D02*
X146350001Y-70428571D01*
X146421429Y-70571428D01*
X146421429Y-70785714D01*
X146350001Y-70928571D01*
X146207143Y-71000000D01*
X145421429Y-71000000D01*
X146207143Y-71000000D02*
X146350001Y-71071428D01*
X146421429Y-71214285D01*
X146421429Y-71428571D01*
X146350001Y-71571428D01*
X146207143Y-71642857D01*
X145421429Y-71642857D01*
X148200001Y-57000000D02*
X148200001Y-74000000D01*
X151200000Y-57000000D02*
X147613580Y-57000000D01*
X151200000Y-74000000D02*
X147613580Y-74000000D01*
X148200001Y-74000000D02*
X147613580Y-72873496D01*
X148200001Y-74000000D02*
X148786422Y-72873496D01*
X148200001Y-57000000D02*
X147613580Y-58126504D01*
X148200001Y-57000000D02*
X148786422Y-58126504D01*
X159854326Y-47392766D02*
X159925754Y-47321338D01*
X160068612Y-47249909D01*
X160425754Y-47249909D01*
X160568612Y-47321338D01*
X160640040Y-47392766D01*
X160711469Y-47535623D01*
X160711469Y-47678480D01*
X160640040Y-47892766D01*
X159782897Y-48749909D01*
X160711469Y-48749909D01*
X161568612Y-47892766D02*
X161425754Y-47821338D01*
X161354326Y-47749909D01*
X161282897Y-47607052D01*
X161282897Y-47535623D01*
X161354326Y-47392766D01*
X161425754Y-47321338D01*
X161568612Y-47249909D01*
X161854326Y-47249909D01*
X161997183Y-47321338D01*
X162068612Y-47392766D01*
X162140040Y-47535623D01*
X162140040Y-47607052D01*
X162068612Y-47749909D01*
X161997183Y-47821338D01*
X161854326Y-47892766D01*
X161568612Y-47892766D01*
X161425754Y-47964195D01*
X161354326Y-48035623D01*
X161282897Y-48178480D01*
X161282897Y-48464195D01*
X161354326Y-48607052D01*
X161425754Y-48678480D01*
X161568612Y-48749909D01*
X161854326Y-48749909D01*
X161997183Y-48678480D01*
X162068612Y-48607052D01*
X162140040Y-48464195D01*
X162140040Y-48178480D01*
X162068612Y-48035623D01*
X161997183Y-47964195D01*
X161854326Y-47892766D01*
X162782897Y-48607052D02*
X162854326Y-48678480D01*
X162782897Y-48749909D01*
X162711469Y-48678480D01*
X162782897Y-48607052D01*
X162782897Y-48749909D01*
X163782897Y-47249909D02*
X163925754Y-47249909D01*
X164068612Y-47321338D01*
X164140040Y-47392766D01*
X164211469Y-47535623D01*
X164282897Y-47821338D01*
X164282897Y-48178480D01*
X164211469Y-48464195D01*
X164140040Y-48607052D01*
X164068612Y-48678480D01*
X163925754Y-48749909D01*
X163782897Y-48749909D01*
X163640040Y-48678480D01*
X163568612Y-48607052D01*
X163497183Y-48464195D01*
X163425754Y-48178480D01*
X163425754Y-47821338D01*
X163497183Y-47535623D01*
X163568612Y-47392766D01*
X163640040Y-47321338D01*
X163782897Y-47249909D01*
X165211469Y-47249909D02*
X165354326Y-47249909D01*
X165497183Y-47321338D01*
X165568612Y-47392766D01*
X165640040Y-47535623D01*
X165711469Y-47821338D01*
X165711469Y-48178480D01*
X165640040Y-48464195D01*
X165568612Y-48607052D01*
X165497183Y-48678480D01*
X165354326Y-48749909D01*
X165211469Y-48749909D01*
X165068612Y-48678480D01*
X164997183Y-48607052D01*
X164925754Y-48464195D01*
X164854326Y-48178480D01*
X164854326Y-47821338D01*
X164925754Y-47535623D01*
X164997183Y-47392766D01*
X165068612Y-47321338D01*
X165211469Y-47249909D01*
X166640040Y-47249909D02*
X166782897Y-47249909D01*
X166925754Y-47321338D01*
X166997183Y-47392766D01*
X167068612Y-47535623D01*
X167140040Y-47821338D01*
X167140040Y-48178480D01*
X167068612Y-48464195D01*
X166997183Y-48607052D01*
X166925754Y-48678480D01*
X166782897Y-48749909D01*
X166640040Y-48749909D01*
X166497183Y-48678480D01*
X166425754Y-48607052D01*
X166354326Y-48464195D01*
X166282897Y-48178480D01*
X166282897Y-47821338D01*
X166354326Y-47535623D01*
X166425754Y-47392766D01*
X166497183Y-47321338D01*
X166640040Y-47249909D01*
X168925754Y-48749909D02*
X168925754Y-47749909D01*
X168925754Y-47892766D02*
X168997183Y-47821338D01*
X169140040Y-47749909D01*
X169354326Y-47749909D01*
X169497183Y-47821338D01*
X169568612Y-47964195D01*
X169568612Y-48749909D01*
X169568612Y-47964195D02*
X169640040Y-47821338D01*
X169782897Y-47749909D01*
X169997183Y-47749909D01*
X170140040Y-47821338D01*
X170211469Y-47964195D01*
X170211469Y-48749909D01*
X170925754Y-48749909D02*
X170925754Y-47749909D01*
X170925754Y-47892766D02*
X170997183Y-47821338D01*
X171140040Y-47749909D01*
X171354326Y-47749909D01*
X171497183Y-47821338D01*
X171568612Y-47964195D01*
X171568612Y-48749909D01*
X171568612Y-47964195D02*
X171640040Y-47821338D01*
X171782897Y-47749909D01*
X171997183Y-47749909D01*
X172140040Y-47821338D01*
X172211469Y-47964195D01*
X172211469Y-48749909D01*
X152068612Y-50171338D02*
X180068612Y-50171338D01*
X152068612Y-56171338D02*
X152068612Y-49584917D01*
X180068612Y-56171338D02*
X180068612Y-49584917D01*
X180068612Y-50171338D02*
X178942108Y-50757759D01*
X180068612Y-50171338D02*
X178942108Y-49584917D01*
X152068612Y-50171338D02*
X153195116Y-50757759D01*
X152068612Y-50171338D02*
X153195116Y-49584917D01*
X143101585Y-67714285D02*
X143101585Y-68642857D01*
X142530157Y-68142857D01*
X142530157Y-68357142D01*
X142458728Y-68500000D01*
X142387299Y-68571428D01*
X142244442Y-68642857D01*
X141887299Y-68642857D01*
X141744442Y-68571428D01*
X141673014Y-68500000D01*
X141601585Y-68357142D01*
X141601585Y-67928571D01*
X141673014Y-67785714D01*
X141744442Y-67714285D01*
X142601585Y-69928571D02*
X141601585Y-69928571D01*
X143173014Y-69571428D02*
X142101585Y-69214285D01*
X142101585Y-70142857D01*
X141744442Y-70714285D02*
X141673014Y-70785714D01*
X141601585Y-70714285D01*
X141673014Y-70642857D01*
X141744442Y-70714285D01*
X141601585Y-70714285D01*
X143101585Y-71714285D02*
X143101585Y-71857142D01*
X143030157Y-72000000D01*
X142958728Y-72071428D01*
X142815871Y-72142857D01*
X142530157Y-72214285D01*
X142173014Y-72214285D01*
X141887299Y-72142857D01*
X141744442Y-72071428D01*
X141673014Y-72000000D01*
X141601585Y-71857142D01*
X141601585Y-71714285D01*
X141673014Y-71571428D01*
X141744442Y-71500000D01*
X141887299Y-71428571D01*
X142173014Y-71357142D01*
X142530157Y-71357142D01*
X142815871Y-71428571D01*
X142958728Y-71500000D01*
X143030157Y-71571428D01*
X143101585Y-71714285D01*
X143101585Y-73142857D02*
X143101585Y-73285714D01*
X143030157Y-73428571D01*
X142958728Y-73500000D01*
X142815871Y-73571428D01*
X142530157Y-73642857D01*
X142173014Y-73642857D01*
X141887299Y-73571428D01*
X141744442Y-73500000D01*
X141673014Y-73428571D01*
X141601585Y-73285714D01*
X141601585Y-73142857D01*
X141673014Y-73000000D01*
X141744442Y-72928571D01*
X141887299Y-72857142D01*
X142173014Y-72785714D01*
X142530157Y-72785714D01*
X142815871Y-72857142D01*
X142958728Y-72928571D01*
X143030157Y-73000000D01*
X143101585Y-73142857D01*
X143101585Y-74571428D02*
X143101585Y-74714285D01*
X143030157Y-74857142D01*
X142958728Y-74928571D01*
X142815871Y-75000000D01*
X142530157Y-75071428D01*
X142173014Y-75071428D01*
X141887299Y-75000000D01*
X141744442Y-74928571D01*
X141673014Y-74857142D01*
X141601585Y-74714285D01*
X141601585Y-74571428D01*
X141673014Y-74428571D01*
X141744442Y-74357142D01*
X141887299Y-74285714D01*
X142173014Y-74214285D01*
X142530157Y-74214285D01*
X142815871Y-74285714D01*
X142958728Y-74357142D01*
X143030157Y-74428571D01*
X143101585Y-74571428D01*
X141601585Y-76857142D02*
X142601585Y-76857142D01*
X142458728Y-76857142D02*
X142530157Y-76928571D01*
X142601585Y-77071428D01*
X142601585Y-77285714D01*
X142530157Y-77428571D01*
X142387299Y-77500000D01*
X141601585Y-77500000D01*
X142387299Y-77500000D02*
X142530157Y-77571428D01*
X142601585Y-77714285D01*
X142601585Y-77928571D01*
X142530157Y-78071428D01*
X142387299Y-78142857D01*
X141601585Y-78142857D01*
X141601585Y-78857142D02*
X142601585Y-78857142D01*
X142458728Y-78857142D02*
X142530157Y-78928571D01*
X142601585Y-79071428D01*
X142601585Y-79285714D01*
X142530157Y-79428571D01*
X142387299Y-79500000D01*
X141601585Y-79500000D01*
X142387299Y-79500000D02*
X142530157Y-79571428D01*
X142601585Y-79714285D01*
X142601585Y-79928571D01*
X142530157Y-80071428D01*
X142387299Y-80142857D01*
X141601585Y-80142857D01*
X144380157Y-57000000D02*
X144380157Y-91000000D01*
X151380157Y-57000000D02*
X143793736Y-57000000D01*
X151380157Y-91000000D02*
X143793736Y-91000000D01*
X144380157Y-91000000D02*
X143793736Y-89873496D01*
X144380157Y-91000000D02*
X144966578Y-89873496D01*
X144380157Y-57000000D02*
X143793736Y-58126504D01*
X144380157Y-57000000D02*
X144966578Y-58126504D01*
D11*
G04 #@! TO.C,C7*
X156847000Y-61376779D02*
X156847000Y-61051221D01*
X155827000Y-61376779D02*
X155827000Y-61051221D01*
G04 #@! TO.C,C20*
X174246000Y-87467221D02*
X174246000Y-87792779D01*
X173226000Y-87467221D02*
X173226000Y-87792779D01*
G04 #@! TO.C,C12*
X170700279Y-58740000D02*
X170374721Y-58740000D01*
X170700279Y-59760000D02*
X170374721Y-59760000D01*
G04 #@! TO.C,R16*
X158890000Y-73594279D02*
X158890000Y-73268721D01*
X159910000Y-73594279D02*
X159910000Y-73268721D01*
G04 #@! TO.C,C19*
X177916721Y-68197000D02*
X178242279Y-68197000D01*
X177916721Y-69217000D02*
X178242279Y-69217000D01*
G04 #@! TO.C,C18*
X177916721Y-67693000D02*
X178242279Y-67693000D01*
X177916721Y-66673000D02*
X178242279Y-66673000D01*
G04 #@! TO.C,C17*
X164209000Y-66609279D02*
X164209000Y-66283721D01*
X165229000Y-66609279D02*
X165229000Y-66283721D01*
G04 #@! TO.C,C16*
X157261779Y-58037000D02*
X156936221Y-58037000D01*
X157261779Y-59057000D02*
X156936221Y-59057000D01*
G04 #@! TO.C,C15*
X157351000Y-61376779D02*
X157351000Y-61051221D01*
X158371000Y-61376779D02*
X158371000Y-61051221D01*
G04 #@! TO.C,C14*
X169674000Y-83855779D02*
X169674000Y-83530221D01*
X168654000Y-83855779D02*
X168654000Y-83530221D01*
G04 #@! TO.C,C13*
X173260000Y-59799721D02*
X173260000Y-60125279D01*
X172240000Y-59799721D02*
X172240000Y-60125279D01*
G04 #@! TO.C,C11*
X166990000Y-61662779D02*
X166990000Y-61337221D01*
X168010000Y-61662779D02*
X168010000Y-61337221D01*
G04 #@! TO.C,C9*
X176637221Y-64710000D02*
X176962779Y-64710000D01*
X176637221Y-63690000D02*
X176962779Y-63690000D01*
G04 #@! TO.C,C8*
X164082000Y-83855779D02*
X164082000Y-83530221D01*
X165102000Y-83855779D02*
X165102000Y-83530221D01*
G04 #@! TO.C,C6*
X157114221Y-88263000D02*
X157439779Y-88263000D01*
X157114221Y-89283000D02*
X157439779Y-89283000D01*
G04 #@! TO.C,C5*
X166260000Y-61662779D02*
X166260000Y-61337221D01*
X165240000Y-61662779D02*
X165240000Y-61337221D01*
G04 #@! TO.C,C4*
X166867721Y-73658000D02*
X167193279Y-73658000D01*
X166867721Y-74678000D02*
X167193279Y-74678000D01*
G04 #@! TO.C,C3*
X177916721Y-73789000D02*
X178242279Y-73789000D01*
X177916721Y-72769000D02*
X178242279Y-72769000D01*
G04 #@! TO.C,C2*
X177916721Y-69721000D02*
X178242279Y-69721000D01*
X177916721Y-70741000D02*
X178242279Y-70741000D01*
G04 #@! TO.C,C1*
X177916721Y-75313000D02*
X178242279Y-75313000D01*
X177916721Y-74293000D02*
X178242279Y-74293000D01*
G04 #@! TO.C,C10*
X177916721Y-71245000D02*
X178242279Y-71245000D01*
X177916721Y-72265000D02*
X178242279Y-72265000D01*
G04 #@! TO.C,U2*
X152670000Y-81594000D02*
X157870000Y-81594000D01*
X152670000Y-68834000D02*
X152670000Y-81594000D01*
X157870000Y-66234000D02*
X157870000Y-81594000D01*
X152670000Y-68834000D02*
X155270000Y-68834000D01*
X155270000Y-68834000D02*
X155270000Y-66234000D01*
X155270000Y-66234000D02*
X157870000Y-66234000D01*
X152670000Y-67564000D02*
X152670000Y-66234000D01*
X152670000Y-66234000D02*
X154000000Y-66234000D01*
G04 #@! TO.C,D2*
X161528000Y-83652000D02*
X159528000Y-83652000D01*
X159528000Y-83652000D02*
X159528000Y-87502000D01*
X161528000Y-83652000D02*
X161528000Y-87502000D01*
G04 #@! TO.C,L1*
X170625279Y-61260000D02*
X170299721Y-61260000D01*
X170625279Y-60240000D02*
X170299721Y-60240000D01*
G04 #@! TO.C,U1*
X179345000Y-80919000D02*
X173945000Y-80919000D01*
X177845000Y-75799000D02*
X173945000Y-75799000D01*
D12*
G04 #@! TO.C,U3*
X160338000Y-80561000D02*
X159228000Y-80561000D01*
X159228000Y-76411000D02*
X160338000Y-76411000D01*
X168178000Y-76411000D02*
X167068000Y-76411000D01*
X168178000Y-80561000D02*
X167068000Y-80561000D01*
X159228000Y-80561000D02*
X159228000Y-76411000D01*
X168178000Y-80561000D02*
X168178000Y-76411000D01*
X160338000Y-80561000D02*
X160338000Y-81686000D01*
D11*
G04 #@! TO.C,Q3*
X161292000Y-71572000D02*
X161292000Y-72502000D01*
X161292000Y-74732000D02*
X161292000Y-73802000D01*
X161292000Y-74732000D02*
X163452000Y-74732000D01*
X161292000Y-71572000D02*
X162752000Y-71572000D01*
G04 #@! TO.C,Q2*
X162812000Y-67620000D02*
X161352000Y-67620000D01*
X162812000Y-64460000D02*
X160652000Y-64460000D01*
X162812000Y-64460000D02*
X162812000Y-65390000D01*
X162812000Y-67620000D02*
X162812000Y-66690000D01*
G04 #@! TO.C,Q1*
X162812000Y-71176000D02*
X162812000Y-70246000D01*
X162812000Y-68016000D02*
X162812000Y-68946000D01*
X162812000Y-68016000D02*
X160652000Y-68016000D01*
X162812000Y-71176000D02*
X161352000Y-71176000D01*
G04 #@! TO.C,U5*
X170602000Y-82666000D02*
X170602000Y-85116000D01*
X173822000Y-84466000D02*
X173822000Y-82666000D01*
G04 #@! TO.C,U4*
X179156000Y-84466000D02*
X179156000Y-82666000D01*
X175936000Y-82666000D02*
X175936000Y-85116000D01*
G04 #@! TO.C,R5*
X159002000Y-66283721D02*
X159002000Y-66609279D01*
X160022000Y-66283721D02*
X160022000Y-66609279D01*
G04 #@! TO.C,R7*
X158875000Y-70546279D02*
X158875000Y-70220721D01*
X159895000Y-70546279D02*
X159895000Y-70220721D01*
G04 #@! TO.C,R9*
X166626000Y-83855779D02*
X166626000Y-83530221D01*
X165606000Y-83855779D02*
X165606000Y-83530221D01*
G04 #@! TO.C,R10*
X168150000Y-83530221D02*
X168150000Y-83855779D01*
X167130000Y-83530221D02*
X167130000Y-83855779D01*
G04 #@! TO.C,R12*
X157529000Y-86349721D02*
X157529000Y-86675279D01*
X158549000Y-86349721D02*
X158549000Y-86675279D01*
G04 #@! TO.C,R13*
X157088721Y-83691000D02*
X157414279Y-83691000D01*
X157088721Y-84711000D02*
X157414279Y-84711000D01*
G04 #@! TO.C,R14*
X160619221Y-64010000D02*
X160944779Y-64010000D01*
X160619221Y-62990000D02*
X160944779Y-62990000D01*
G04 #@! TO.C,R15*
X164209000Y-72705279D02*
X164209000Y-72379721D01*
X165229000Y-72705279D02*
X165229000Y-72379721D01*
G04 #@! TO.C,R19*
X157896779Y-62990000D02*
X157571221Y-62990000D01*
X157896779Y-64010000D02*
X157571221Y-64010000D01*
G04 #@! TO.C,R8*
X157025000Y-86324221D02*
X157025000Y-86649779D01*
X156005000Y-86324221D02*
X156005000Y-86649779D01*
G04 #@! TO.C,R6*
X173607000Y-73903721D02*
X173607000Y-74229279D01*
X174627000Y-73903721D02*
X174627000Y-74229279D01*
G04 #@! TO.C,R4*
X156529721Y-64514000D02*
X156855279Y-64514000D01*
X156529721Y-65534000D02*
X156855279Y-65534000D01*
G04 #@! TO.C,R3*
X171579000Y-76591279D02*
X171579000Y-76265721D01*
X170559000Y-76591279D02*
X170559000Y-76265721D01*
G04 #@! TO.C,R2*
X169035000Y-76616779D02*
X169035000Y-76291221D01*
X170055000Y-76616779D02*
X170055000Y-76291221D01*
G04 #@! TO.C,R1*
X168908000Y-80228221D02*
X168908000Y-80553779D01*
X169928000Y-80228221D02*
X169928000Y-80553779D01*
G04 #@! TO.C,R11*
X175258000Y-74229279D02*
X175258000Y-73903721D01*
X176278000Y-74229279D02*
X176278000Y-73903721D01*
D13*
G04 #@! TO.C,J1*
X163203000Y-88020000D02*
X163203000Y-88370000D01*
X170703000Y-88020000D02*
X170703000Y-88370000D01*
X163203000Y-90720000D02*
X163203000Y-90995000D01*
X163203000Y-90995000D02*
X170703000Y-90995000D01*
X170703000Y-90995000D02*
X170703000Y-90720000D01*
X165123000Y-86645000D02*
X165233000Y-86645000D01*
X168673000Y-86645000D02*
X168783000Y-86645000D01*
D10*
X165653000Y-85570000D02*
G75*
G03X165653000Y-85570000I-100000J0D01*
G01*
D13*
G04 #@! TO.C,ANT1*
X177500000Y-57700000D02*
X175500000Y-57700000D01*
X177500000Y-59300000D02*
X175500000Y-59300000D01*
D14*
X174195000Y-58920000D02*
G75*
G03X174195000Y-58920000I-100000J0D01*
G01*
D12*
G04 #@! TO.C,J2*
X173460000Y-90740000D02*
X173460000Y-85660000D01*
X173460000Y-85660000D02*
X179810000Y-85660000D01*
X179810000Y-85660000D02*
X179810000Y-90740000D01*
X179810000Y-90740000D02*
X173460000Y-90740000D01*
D13*
G04 #@! TO.C,ESP1*
X174052000Y-64250000D02*
X174492000Y-64250000D01*
X174492000Y-64250000D02*
X174492000Y-64690000D01*
X167832000Y-64250000D02*
X167392000Y-64250000D01*
X167392000Y-64250000D02*
X167392000Y-64690000D01*
X167832000Y-71350000D02*
X167392000Y-71350000D01*
X167392000Y-71350000D02*
X167392000Y-70910000D01*
X174052000Y-71350000D02*
X174492000Y-71350000D01*
X174492000Y-71350000D02*
X174492000Y-70910000D01*
D14*
X173842000Y-63600000D02*
G75*
G03X173842000Y-63600000I-100000J0D01*
G01*
D11*
G04 #@! TO.C,U7*
X162171000Y-61427000D02*
X162646000Y-61427000D01*
X159426000Y-58207000D02*
X159426000Y-58682000D01*
X159901000Y-58207000D02*
X159426000Y-58207000D01*
X162646000Y-58207000D02*
X162646000Y-58682000D01*
X162171000Y-58207000D02*
X162646000Y-58207000D01*
X159426000Y-61427000D02*
X159426000Y-60952000D01*
X159901000Y-61427000D02*
X159426000Y-61427000D01*
D13*
G04 #@! TO.C,SW2*
X155284000Y-60734000D02*
X155284000Y-62202000D01*
X152384000Y-62202000D02*
X152384000Y-60734000D01*
D10*
X154775419Y-58268000D02*
G75*
G03X154775419Y-58268000I-141419J0D01*
G01*
G04 #@! TO.C,SW1*
X154789419Y-83414000D02*
G75*
G03X154789419Y-83414000I-141419J0D01*
G01*
D13*
X152398000Y-87348000D02*
X152398000Y-85880000D01*
X155298000Y-85880000D02*
X155298000Y-87348000D01*
G04 #@! TO.C,C7*
D12*
X183872142Y-68086166D02*
X183919761Y-68133785D01*
X183967380Y-68276642D01*
X183967380Y-68371880D01*
X183919761Y-68514738D01*
X183824523Y-68609976D01*
X183729285Y-68657595D01*
X183538809Y-68705214D01*
X183395952Y-68705214D01*
X183205476Y-68657595D01*
X183110238Y-68609976D01*
X183015000Y-68514738D01*
X182967380Y-68371880D01*
X182967380Y-68276642D01*
X183015000Y-68133785D01*
X183062619Y-68086166D01*
X182967380Y-67752833D02*
X182967380Y-67086166D01*
X183967380Y-67514738D01*
G04 #@! TO.C,C20*
X220575142Y-123070857D02*
X220622761Y-123118476D01*
X220670380Y-123261333D01*
X220670380Y-123356571D01*
X220622761Y-123499428D01*
X220527523Y-123594666D01*
X220432285Y-123642285D01*
X220241809Y-123689904D01*
X220098952Y-123689904D01*
X219908476Y-123642285D01*
X219813238Y-123594666D01*
X219718000Y-123499428D01*
X219670380Y-123356571D01*
X219670380Y-123261333D01*
X219718000Y-123118476D01*
X219765619Y-123070857D01*
X219765619Y-122689904D02*
X219718000Y-122642285D01*
X219670380Y-122547047D01*
X219670380Y-122308952D01*
X219718000Y-122213714D01*
X219765619Y-122166095D01*
X219860857Y-122118476D01*
X219956095Y-122118476D01*
X220098952Y-122166095D01*
X220670380Y-122737523D01*
X220670380Y-122118476D01*
X219670380Y-121499428D02*
X219670380Y-121404190D01*
X219718000Y-121308952D01*
X219765619Y-121261333D01*
X219860857Y-121213714D01*
X220051333Y-121166095D01*
X220289428Y-121166095D01*
X220479904Y-121213714D01*
X220575142Y-121261333D01*
X220622761Y-121308952D01*
X220670380Y-121404190D01*
X220670380Y-121499428D01*
X220622761Y-121594666D01*
X220575142Y-121642285D01*
X220479904Y-121689904D01*
X220289428Y-121737523D01*
X220051333Y-121737523D01*
X219860857Y-121689904D01*
X219765619Y-121642285D01*
X219718000Y-121594666D01*
X219670380Y-121499428D01*
G04 #@! TO.C,C12*
X176092142Y-19348142D02*
X176044523Y-19395761D01*
X175901666Y-19443380D01*
X175806428Y-19443380D01*
X175663571Y-19395761D01*
X175568333Y-19300523D01*
X175520714Y-19205285D01*
X175473095Y-19014809D01*
X175473095Y-18871952D01*
X175520714Y-18681476D01*
X175568333Y-18586238D01*
X175663571Y-18491000D01*
X175806428Y-18443380D01*
X175901666Y-18443380D01*
X176044523Y-18491000D01*
X176092142Y-18538619D01*
X177044523Y-19443380D02*
X176473095Y-19443380D01*
X176758809Y-19443380D02*
X176758809Y-18443380D01*
X176663571Y-18586238D01*
X176568333Y-18681476D01*
X176473095Y-18729095D01*
X177425476Y-18538619D02*
X177473095Y-18491000D01*
X177568333Y-18443380D01*
X177806428Y-18443380D01*
X177901666Y-18491000D01*
X177949285Y-18538619D01*
X177996904Y-18633857D01*
X177996904Y-18729095D01*
X177949285Y-18871952D01*
X177377857Y-19443380D01*
X177996904Y-19443380D01*
G04 #@! TO.C,J6*
X129800666Y-53400380D02*
X129800666Y-54114666D01*
X129753047Y-54257523D01*
X129657809Y-54352761D01*
X129514952Y-54400380D01*
X129419714Y-54400380D01*
X130705428Y-53400380D02*
X130514952Y-53400380D01*
X130419714Y-53448000D01*
X130372095Y-53495619D01*
X130276857Y-53638476D01*
X130229238Y-53828952D01*
X130229238Y-54209904D01*
X130276857Y-54305142D01*
X130324476Y-54352761D01*
X130419714Y-54400380D01*
X130610190Y-54400380D01*
X130705428Y-54352761D01*
X130753047Y-54305142D01*
X130800666Y-54209904D01*
X130800666Y-53971809D01*
X130753047Y-53876571D01*
X130705428Y-53828952D01*
X130610190Y-53781333D01*
X130419714Y-53781333D01*
X130324476Y-53828952D01*
X130276857Y-53876571D01*
X130229238Y-53971809D01*
G04 #@! TO.C,J5*
X128444666Y-50252380D02*
X128444666Y-50966666D01*
X128397047Y-51109523D01*
X128301809Y-51204761D01*
X128158952Y-51252380D01*
X128063714Y-51252380D01*
X129397047Y-50252380D02*
X128920857Y-50252380D01*
X128873238Y-50728571D01*
X128920857Y-50680952D01*
X129016095Y-50633333D01*
X129254190Y-50633333D01*
X129349428Y-50680952D01*
X129397047Y-50728571D01*
X129444666Y-50823809D01*
X129444666Y-51061904D01*
X129397047Y-51157142D01*
X129349428Y-51204761D01*
X129254190Y-51252380D01*
X129016095Y-51252380D01*
X128920857Y-51204761D01*
X128873238Y-51157142D01*
G04 #@! TO.C,J4*
X128190666Y-54062380D02*
X128190666Y-54776666D01*
X128143047Y-54919523D01*
X128047809Y-55014761D01*
X127904952Y-55062380D01*
X127809714Y-55062380D01*
X129095428Y-54395714D02*
X129095428Y-55062380D01*
X128857333Y-54014761D02*
X128619238Y-54729047D01*
X129238285Y-54729047D01*
G04 #@! TO.C,J3*
X125396666Y-53808380D02*
X125396666Y-54522666D01*
X125349047Y-54665523D01*
X125253809Y-54760761D01*
X125110952Y-54808380D01*
X125015714Y-54808380D01*
X125777619Y-53808380D02*
X126396666Y-53808380D01*
X126063333Y-54189333D01*
X126206190Y-54189333D01*
X126301428Y-54236952D01*
X126349047Y-54284571D01*
X126396666Y-54379809D01*
X126396666Y-54617904D01*
X126349047Y-54713142D01*
X126301428Y-54760761D01*
X126206190Y-54808380D01*
X125920476Y-54808380D01*
X125825238Y-54760761D01*
X125777619Y-54713142D01*
G04 #@! TO.C,R16*
X176489380Y-43340357D02*
X176013190Y-43673690D01*
X176489380Y-43911785D02*
X175489380Y-43911785D01*
X175489380Y-43530833D01*
X175537000Y-43435595D01*
X175584619Y-43387976D01*
X175679857Y-43340357D01*
X175822714Y-43340357D01*
X175917952Y-43387976D01*
X175965571Y-43435595D01*
X176013190Y-43530833D01*
X176013190Y-43911785D01*
X176489380Y-42387976D02*
X176489380Y-42959404D01*
X176489380Y-42673690D02*
X175489380Y-42673690D01*
X175632238Y-42768928D01*
X175727476Y-42864166D01*
X175775095Y-42959404D01*
X175489380Y-41530833D02*
X175489380Y-41721309D01*
X175537000Y-41816547D01*
X175584619Y-41864166D01*
X175727476Y-41959404D01*
X175917952Y-42007023D01*
X176298904Y-42007023D01*
X176394142Y-41959404D01*
X176441761Y-41911785D01*
X176489380Y-41816547D01*
X176489380Y-41626071D01*
X176441761Y-41530833D01*
X176394142Y-41483214D01*
X176298904Y-41435595D01*
X176060809Y-41435595D01*
X175965571Y-41483214D01*
X175917952Y-41530833D01*
X175870333Y-41626071D01*
X175870333Y-41816547D01*
X175917952Y-41911785D01*
X175965571Y-41959404D01*
X176060809Y-42007023D01*
G04 #@! TO.C,C19*
X131843642Y-55602142D02*
X131796023Y-55649761D01*
X131653166Y-55697380D01*
X131557928Y-55697380D01*
X131415071Y-55649761D01*
X131319833Y-55554523D01*
X131272214Y-55459285D01*
X131224595Y-55268809D01*
X131224595Y-55125952D01*
X131272214Y-54935476D01*
X131319833Y-54840238D01*
X131415071Y-54745000D01*
X131557928Y-54697380D01*
X131653166Y-54697380D01*
X131796023Y-54745000D01*
X131843642Y-54792619D01*
X132796023Y-55697380D02*
X132224595Y-55697380D01*
X132510309Y-55697380D02*
X132510309Y-54697380D01*
X132415071Y-54840238D01*
X132319833Y-54935476D01*
X132224595Y-54983095D01*
X133272214Y-55697380D02*
X133462690Y-55697380D01*
X133557928Y-55649761D01*
X133605547Y-55602142D01*
X133700785Y-55459285D01*
X133748404Y-55268809D01*
X133748404Y-54887857D01*
X133700785Y-54792619D01*
X133653166Y-54745000D01*
X133557928Y-54697380D01*
X133367452Y-54697380D01*
X133272214Y-54745000D01*
X133224595Y-54792619D01*
X133176976Y-54887857D01*
X133176976Y-55125952D01*
X133224595Y-55221190D01*
X133272214Y-55268809D01*
X133367452Y-55316428D01*
X133557928Y-55316428D01*
X133653166Y-55268809D01*
X133700785Y-55221190D01*
X133748404Y-55125952D01*
G04 #@! TO.C,C18*
X129786142Y-55348142D02*
X129738523Y-55395761D01*
X129595666Y-55443380D01*
X129500428Y-55443380D01*
X129357571Y-55395761D01*
X129262333Y-55300523D01*
X129214714Y-55205285D01*
X129167095Y-55014809D01*
X129167095Y-54871952D01*
X129214714Y-54681476D01*
X129262333Y-54586238D01*
X129357571Y-54491000D01*
X129500428Y-54443380D01*
X129595666Y-54443380D01*
X129738523Y-54491000D01*
X129786142Y-54538619D01*
X130738523Y-55443380D02*
X130167095Y-55443380D01*
X130452809Y-55443380D02*
X130452809Y-54443380D01*
X130357571Y-54586238D01*
X130262333Y-54681476D01*
X130167095Y-54729095D01*
X131309952Y-54871952D02*
X131214714Y-54824333D01*
X131167095Y-54776714D01*
X131119476Y-54681476D01*
X131119476Y-54633857D01*
X131167095Y-54538619D01*
X131214714Y-54491000D01*
X131309952Y-54443380D01*
X131500428Y-54443380D01*
X131595666Y-54491000D01*
X131643285Y-54538619D01*
X131690904Y-54633857D01*
X131690904Y-54681476D01*
X131643285Y-54776714D01*
X131595666Y-54824333D01*
X131500428Y-54871952D01*
X131309952Y-54871952D01*
X131214714Y-54919571D01*
X131167095Y-54967190D01*
X131119476Y-55062428D01*
X131119476Y-55252904D01*
X131167095Y-55348142D01*
X131214714Y-55395761D01*
X131309952Y-55443380D01*
X131500428Y-55443380D01*
X131595666Y-55395761D01*
X131643285Y-55348142D01*
X131690904Y-55252904D01*
X131690904Y-55062428D01*
X131643285Y-54967190D01*
X131595666Y-54919571D01*
X131500428Y-54871952D01*
G04 #@! TO.C,C17*
X128627142Y-55024357D02*
X128674761Y-55071976D01*
X128722380Y-55214833D01*
X128722380Y-55310071D01*
X128674761Y-55452928D01*
X128579523Y-55548166D01*
X128484285Y-55595785D01*
X128293809Y-55643404D01*
X128150952Y-55643404D01*
X127960476Y-55595785D01*
X127865238Y-55548166D01*
X127770000Y-55452928D01*
X127722380Y-55310071D01*
X127722380Y-55214833D01*
X127770000Y-55071976D01*
X127817619Y-55024357D01*
X128722380Y-54071976D02*
X128722380Y-54643404D01*
X128722380Y-54357690D02*
X127722380Y-54357690D01*
X127865238Y-54452928D01*
X127960476Y-54548166D01*
X128008095Y-54643404D01*
X127722380Y-53738642D02*
X127722380Y-53071976D01*
X128722380Y-53500547D01*
G04 #@! TO.C,C16*
X150715642Y-106021142D02*
X150668023Y-106068761D01*
X150525166Y-106116380D01*
X150429928Y-106116380D01*
X150287071Y-106068761D01*
X150191833Y-105973523D01*
X150144214Y-105878285D01*
X150096595Y-105687809D01*
X150096595Y-105544952D01*
X150144214Y-105354476D01*
X150191833Y-105259238D01*
X150287071Y-105164000D01*
X150429928Y-105116380D01*
X150525166Y-105116380D01*
X150668023Y-105164000D01*
X150715642Y-105211619D01*
X151668023Y-106116380D02*
X151096595Y-106116380D01*
X151382309Y-106116380D02*
X151382309Y-105116380D01*
X151287071Y-105259238D01*
X151191833Y-105354476D01*
X151096595Y-105402095D01*
X152525166Y-105116380D02*
X152334690Y-105116380D01*
X152239452Y-105164000D01*
X152191833Y-105211619D01*
X152096595Y-105354476D01*
X152048976Y-105544952D01*
X152048976Y-105925904D01*
X152096595Y-106021142D01*
X152144214Y-106068761D01*
X152239452Y-106116380D01*
X152429928Y-106116380D01*
X152525166Y-106068761D01*
X152572785Y-106021142D01*
X152620404Y-105925904D01*
X152620404Y-105687809D01*
X152572785Y-105592571D01*
X152525166Y-105544952D01*
X152429928Y-105497333D01*
X152239452Y-105497333D01*
X152144214Y-105544952D01*
X152096595Y-105592571D01*
X152048976Y-105687809D01*
G04 #@! TO.C,C15*
X167108142Y-25687357D02*
X167155761Y-25734976D01*
X167203380Y-25877833D01*
X167203380Y-25973071D01*
X167155761Y-26115928D01*
X167060523Y-26211166D01*
X166965285Y-26258785D01*
X166774809Y-26306404D01*
X166631952Y-26306404D01*
X166441476Y-26258785D01*
X166346238Y-26211166D01*
X166251000Y-26115928D01*
X166203380Y-25973071D01*
X166203380Y-25877833D01*
X166251000Y-25734976D01*
X166298619Y-25687357D01*
X167203380Y-24734976D02*
X167203380Y-25306404D01*
X167203380Y-25020690D02*
X166203380Y-25020690D01*
X166346238Y-25115928D01*
X166441476Y-25211166D01*
X166489095Y-25306404D01*
X166203380Y-23830214D02*
X166203380Y-24306404D01*
X166679571Y-24354023D01*
X166631952Y-24306404D01*
X166584333Y-24211166D01*
X166584333Y-23973071D01*
X166631952Y-23877833D01*
X166679571Y-23830214D01*
X166774809Y-23782595D01*
X167012904Y-23782595D01*
X167108142Y-23830214D01*
X167155761Y-23877833D01*
X167203380Y-23973071D01*
X167203380Y-24211166D01*
X167155761Y-24306404D01*
X167108142Y-24354023D01*
G04 #@! TO.C,C14*
X127865142Y-52966857D02*
X127912761Y-53014476D01*
X127960380Y-53157333D01*
X127960380Y-53252571D01*
X127912761Y-53395428D01*
X127817523Y-53490666D01*
X127722285Y-53538285D01*
X127531809Y-53585904D01*
X127388952Y-53585904D01*
X127198476Y-53538285D01*
X127103238Y-53490666D01*
X127008000Y-53395428D01*
X126960380Y-53252571D01*
X126960380Y-53157333D01*
X127008000Y-53014476D01*
X127055619Y-52966857D01*
X127960380Y-52014476D02*
X127960380Y-52585904D01*
X127960380Y-52300190D02*
X126960380Y-52300190D01*
X127103238Y-52395428D01*
X127198476Y-52490666D01*
X127246095Y-52585904D01*
X127293714Y-51157333D02*
X127960380Y-51157333D01*
X126912761Y-51395428D02*
X127627047Y-51633523D01*
X127627047Y-51014476D01*
G04 #@! TO.C,C13*
X131451142Y-51969357D02*
X131498761Y-52016976D01*
X131546380Y-52159833D01*
X131546380Y-52255071D01*
X131498761Y-52397928D01*
X131403523Y-52493166D01*
X131308285Y-52540785D01*
X131117809Y-52588404D01*
X130974952Y-52588404D01*
X130784476Y-52540785D01*
X130689238Y-52493166D01*
X130594000Y-52397928D01*
X130546380Y-52255071D01*
X130546380Y-52159833D01*
X130594000Y-52016976D01*
X130641619Y-51969357D01*
X131546380Y-51016976D02*
X131546380Y-51588404D01*
X131546380Y-51302690D02*
X130546380Y-51302690D01*
X130689238Y-51397928D01*
X130784476Y-51493166D01*
X130832095Y-51588404D01*
X130546380Y-50683642D02*
X130546380Y-50064595D01*
X130927333Y-50397928D01*
X130927333Y-50255071D01*
X130974952Y-50159833D01*
X131022571Y-50112214D01*
X131117809Y-50064595D01*
X131355904Y-50064595D01*
X131451142Y-50112214D01*
X131498761Y-50159833D01*
X131546380Y-50255071D01*
X131546380Y-50540785D01*
X131498761Y-50636023D01*
X131451142Y-50683642D01*
G04 #@! TO.C,C11*
X132551142Y-54294357D02*
X132598761Y-54341976D01*
X132646380Y-54484833D01*
X132646380Y-54580071D01*
X132598761Y-54722928D01*
X132503523Y-54818166D01*
X132408285Y-54865785D01*
X132217809Y-54913404D01*
X132074952Y-54913404D01*
X131884476Y-54865785D01*
X131789238Y-54818166D01*
X131694000Y-54722928D01*
X131646380Y-54580071D01*
X131646380Y-54484833D01*
X131694000Y-54341976D01*
X131741619Y-54294357D01*
X132646380Y-53341976D02*
X132646380Y-53913404D01*
X132646380Y-53627690D02*
X131646380Y-53627690D01*
X131789238Y-53722928D01*
X131884476Y-53818166D01*
X131932095Y-53913404D01*
X132646380Y-52389595D02*
X132646380Y-52961023D01*
X132646380Y-52675309D02*
X131646380Y-52675309D01*
X131789238Y-52770547D01*
X131884476Y-52865785D01*
X131932095Y-52961023D01*
G04 #@! TO.C,C9*
X129795833Y-57699142D02*
X129748214Y-57746761D01*
X129605357Y-57794380D01*
X129510119Y-57794380D01*
X129367261Y-57746761D01*
X129272023Y-57651523D01*
X129224404Y-57556285D01*
X129176785Y-57365809D01*
X129176785Y-57222952D01*
X129224404Y-57032476D01*
X129272023Y-56937238D01*
X129367261Y-56842000D01*
X129510119Y-56794380D01*
X129605357Y-56794380D01*
X129748214Y-56842000D01*
X129795833Y-56889619D01*
X130272023Y-57794380D02*
X130462500Y-57794380D01*
X130557738Y-57746761D01*
X130605357Y-57699142D01*
X130700595Y-57556285D01*
X130748214Y-57365809D01*
X130748214Y-56984857D01*
X130700595Y-56889619D01*
X130652976Y-56842000D01*
X130557738Y-56794380D01*
X130367261Y-56794380D01*
X130272023Y-56842000D01*
X130224404Y-56889619D01*
X130176785Y-56984857D01*
X130176785Y-57222952D01*
X130224404Y-57318190D01*
X130272023Y-57365809D01*
X130367261Y-57413428D01*
X130557738Y-57413428D01*
X130652976Y-57365809D01*
X130700595Y-57318190D01*
X130748214Y-57222952D01*
G04 #@! TO.C,C8*
X201017142Y-47791666D02*
X201064761Y-47839285D01*
X201112380Y-47982142D01*
X201112380Y-48077380D01*
X201064761Y-48220238D01*
X200969523Y-48315476D01*
X200874285Y-48363095D01*
X200683809Y-48410714D01*
X200540952Y-48410714D01*
X200350476Y-48363095D01*
X200255238Y-48315476D01*
X200160000Y-48220238D01*
X200112380Y-48077380D01*
X200112380Y-47982142D01*
X200160000Y-47839285D01*
X200207619Y-47791666D01*
X200540952Y-47220238D02*
X200493333Y-47315476D01*
X200445714Y-47363095D01*
X200350476Y-47410714D01*
X200302857Y-47410714D01*
X200207619Y-47363095D01*
X200160000Y-47315476D01*
X200112380Y-47220238D01*
X200112380Y-47029761D01*
X200160000Y-46934523D01*
X200207619Y-46886904D01*
X200302857Y-46839285D01*
X200350476Y-46839285D01*
X200445714Y-46886904D01*
X200493333Y-46934523D01*
X200540952Y-47029761D01*
X200540952Y-47220238D01*
X200588571Y-47315476D01*
X200636190Y-47363095D01*
X200731428Y-47410714D01*
X200921904Y-47410714D01*
X201017142Y-47363095D01*
X201064761Y-47315476D01*
X201112380Y-47220238D01*
X201112380Y-47029761D01*
X201064761Y-46934523D01*
X201017142Y-46886904D01*
X200921904Y-46839285D01*
X200731428Y-46839285D01*
X200636190Y-46886904D01*
X200588571Y-46934523D01*
X200540952Y-47029761D01*
G04 #@! TO.C,C6*
X124852333Y-116308142D02*
X124804714Y-116355761D01*
X124661857Y-116403380D01*
X124566619Y-116403380D01*
X124423761Y-116355761D01*
X124328523Y-116260523D01*
X124280904Y-116165285D01*
X124233285Y-115974809D01*
X124233285Y-115831952D01*
X124280904Y-115641476D01*
X124328523Y-115546238D01*
X124423761Y-115451000D01*
X124566619Y-115403380D01*
X124661857Y-115403380D01*
X124804714Y-115451000D01*
X124852333Y-115498619D01*
X125709476Y-115403380D02*
X125519000Y-115403380D01*
X125423761Y-115451000D01*
X125376142Y-115498619D01*
X125280904Y-115641476D01*
X125233285Y-115831952D01*
X125233285Y-116212904D01*
X125280904Y-116308142D01*
X125328523Y-116355761D01*
X125423761Y-116403380D01*
X125614238Y-116403380D01*
X125709476Y-116355761D01*
X125757095Y-116308142D01*
X125804714Y-116212904D01*
X125804714Y-115974809D01*
X125757095Y-115879571D01*
X125709476Y-115831952D01*
X125614238Y-115784333D01*
X125423761Y-115784333D01*
X125328523Y-115831952D01*
X125280904Y-115879571D01*
X125233285Y-115974809D01*
G04 #@! TO.C,C5*
X154296142Y-108910666D02*
X154343761Y-108958285D01*
X154391380Y-109101142D01*
X154391380Y-109196380D01*
X154343761Y-109339238D01*
X154248523Y-109434476D01*
X154153285Y-109482095D01*
X153962809Y-109529714D01*
X153819952Y-109529714D01*
X153629476Y-109482095D01*
X153534238Y-109434476D01*
X153439000Y-109339238D01*
X153391380Y-109196380D01*
X153391380Y-109101142D01*
X153439000Y-108958285D01*
X153486619Y-108910666D01*
X153391380Y-108005904D02*
X153391380Y-108482095D01*
X153867571Y-108529714D01*
X153819952Y-108482095D01*
X153772333Y-108386857D01*
X153772333Y-108148761D01*
X153819952Y-108053523D01*
X153867571Y-108005904D01*
X153962809Y-107958285D01*
X154200904Y-107958285D01*
X154296142Y-108005904D01*
X154343761Y-108053523D01*
X154391380Y-108148761D01*
X154391380Y-108386857D01*
X154343761Y-108482095D01*
X154296142Y-108529714D01*
G04 #@! TO.C,C4*
X130389333Y-52808142D02*
X130341714Y-52855761D01*
X130198857Y-52903380D01*
X130103619Y-52903380D01*
X129960761Y-52855761D01*
X129865523Y-52760523D01*
X129817904Y-52665285D01*
X129770285Y-52474809D01*
X129770285Y-52331952D01*
X129817904Y-52141476D01*
X129865523Y-52046238D01*
X129960761Y-51951000D01*
X130103619Y-51903380D01*
X130198857Y-51903380D01*
X130341714Y-51951000D01*
X130389333Y-51998619D01*
X131246476Y-52236714D02*
X131246476Y-52903380D01*
X131008380Y-51855761D02*
X130770285Y-52570047D01*
X131389333Y-52570047D01*
G04 #@! TO.C,C3*
X126096833Y-52808142D02*
X126049214Y-52855761D01*
X125906357Y-52903380D01*
X125811119Y-52903380D01*
X125668261Y-52855761D01*
X125573023Y-52760523D01*
X125525404Y-52665285D01*
X125477785Y-52474809D01*
X125477785Y-52331952D01*
X125525404Y-52141476D01*
X125573023Y-52046238D01*
X125668261Y-51951000D01*
X125811119Y-51903380D01*
X125906357Y-51903380D01*
X126049214Y-51951000D01*
X126096833Y-51998619D01*
X126430166Y-51903380D02*
X127049214Y-51903380D01*
X126715880Y-52284333D01*
X126858738Y-52284333D01*
X126953976Y-52331952D01*
X127001595Y-52379571D01*
X127049214Y-52474809D01*
X127049214Y-52712904D01*
X127001595Y-52808142D01*
X126953976Y-52855761D01*
X126858738Y-52903380D01*
X126573023Y-52903380D01*
X126477785Y-52855761D01*
X126430166Y-52808142D01*
G04 #@! TO.C,C2*
X131303833Y-53316142D02*
X131256214Y-53363761D01*
X131113357Y-53411380D01*
X131018119Y-53411380D01*
X130875261Y-53363761D01*
X130780023Y-53268523D01*
X130732404Y-53173285D01*
X130684785Y-52982809D01*
X130684785Y-52839952D01*
X130732404Y-52649476D01*
X130780023Y-52554238D01*
X130875261Y-52459000D01*
X131018119Y-52411380D01*
X131113357Y-52411380D01*
X131256214Y-52459000D01*
X131303833Y-52506619D01*
X131684785Y-52506619D02*
X131732404Y-52459000D01*
X131827642Y-52411380D01*
X132065738Y-52411380D01*
X132160976Y-52459000D01*
X132208595Y-52506619D01*
X132256214Y-52601857D01*
X132256214Y-52697095D01*
X132208595Y-52839952D01*
X131637166Y-53411380D01*
X132256214Y-53411380D01*
G04 #@! TO.C,C1*
X153249333Y-116181142D02*
X153201714Y-116228761D01*
X153058857Y-116276380D01*
X152963619Y-116276380D01*
X152820761Y-116228761D01*
X152725523Y-116133523D01*
X152677904Y-116038285D01*
X152630285Y-115847809D01*
X152630285Y-115704952D01*
X152677904Y-115514476D01*
X152725523Y-115419238D01*
X152820761Y-115324000D01*
X152963619Y-115276380D01*
X153058857Y-115276380D01*
X153201714Y-115324000D01*
X153249333Y-115371619D01*
X154201714Y-116276380D02*
X153630285Y-116276380D01*
X153916000Y-116276380D02*
X153916000Y-115276380D01*
X153820761Y-115419238D01*
X153725523Y-115514476D01*
X153630285Y-115562095D01*
G04 #@! TO.C,C10*
X183278642Y-23090142D02*
X183231023Y-23137761D01*
X183088166Y-23185380D01*
X182992928Y-23185380D01*
X182850071Y-23137761D01*
X182754833Y-23042523D01*
X182707214Y-22947285D01*
X182659595Y-22756809D01*
X182659595Y-22613952D01*
X182707214Y-22423476D01*
X182754833Y-22328238D01*
X182850071Y-22233000D01*
X182992928Y-22185380D01*
X183088166Y-22185380D01*
X183231023Y-22233000D01*
X183278642Y-22280619D01*
X184231023Y-23185380D02*
X183659595Y-23185380D01*
X183945309Y-23185380D02*
X183945309Y-22185380D01*
X183850071Y-22328238D01*
X183754833Y-22423476D01*
X183659595Y-22471095D01*
X184850071Y-22185380D02*
X184945309Y-22185380D01*
X185040547Y-22233000D01*
X185088166Y-22280619D01*
X185135785Y-22375857D01*
X185183404Y-22566333D01*
X185183404Y-22804428D01*
X185135785Y-22994904D01*
X185088166Y-23090142D01*
X185040547Y-23137761D01*
X184945309Y-23185380D01*
X184850071Y-23185380D01*
X184754833Y-23137761D01*
X184707214Y-23090142D01*
X184659595Y-22994904D01*
X184611976Y-22804428D01*
X184611976Y-22566333D01*
X184659595Y-22375857D01*
X184707214Y-22280619D01*
X184754833Y-22233000D01*
X184850071Y-22185380D01*
G04 #@! TO.C,U2*
X128270095Y-52792380D02*
X128270095Y-53601904D01*
X128317714Y-53697142D01*
X128365333Y-53744761D01*
X128460571Y-53792380D01*
X128651047Y-53792380D01*
X128746285Y-53744761D01*
X128793904Y-53697142D01*
X128841523Y-53601904D01*
X128841523Y-52792380D01*
X129270095Y-52887619D02*
X129317714Y-52840000D01*
X129412952Y-52792380D01*
X129651047Y-52792380D01*
X129746285Y-52840000D01*
X129793904Y-52887619D01*
X129841523Y-52982857D01*
X129841523Y-53078095D01*
X129793904Y-53220952D01*
X129222476Y-53792380D01*
X129841523Y-53792380D01*
G04 #@! TO.C,D2*
X127706380Y-54459095D02*
X126706380Y-54459095D01*
X126706380Y-54221000D01*
X126754000Y-54078142D01*
X126849238Y-53982904D01*
X126944476Y-53935285D01*
X127134952Y-53887666D01*
X127277809Y-53887666D01*
X127468285Y-53935285D01*
X127563523Y-53982904D01*
X127658761Y-54078142D01*
X127706380Y-54221000D01*
X127706380Y-54459095D01*
X126801619Y-53506714D02*
X126754000Y-53459095D01*
X126706380Y-53363857D01*
X126706380Y-53125761D01*
X126754000Y-53030523D01*
X126801619Y-52982904D01*
X126896857Y-52935285D01*
X126992095Y-52935285D01*
X127134952Y-52982904D01*
X127706380Y-53554333D01*
X127706380Y-52935285D01*
G04 #@! TO.C,L1*
X215083333Y-67002380D02*
X214607142Y-67002380D01*
X214607142Y-66002380D01*
X215940476Y-67002380D02*
X215369047Y-67002380D01*
X215654761Y-67002380D02*
X215654761Y-66002380D01*
X215559523Y-66145238D01*
X215464285Y-66240476D01*
X215369047Y-66288095D01*
G04 #@! TO.C,U1*
X150749095Y-125563380D02*
X150749095Y-126372904D01*
X150796714Y-126468142D01*
X150844333Y-126515761D01*
X150939571Y-126563380D01*
X151130047Y-126563380D01*
X151225285Y-126515761D01*
X151272904Y-126468142D01*
X151320523Y-126372904D01*
X151320523Y-125563380D01*
X152320523Y-126563380D02*
X151749095Y-126563380D01*
X152034809Y-126563380D02*
X152034809Y-125563380D01*
X151939571Y-125706238D01*
X151844333Y-125801476D01*
X151749095Y-125849095D01*
G04 #@! TO.C,U3*
X137755380Y-116331904D02*
X138564904Y-116331904D01*
X138660142Y-116284285D01*
X138707761Y-116236666D01*
X138755380Y-116141428D01*
X138755380Y-115950952D01*
X138707761Y-115855714D01*
X138660142Y-115808095D01*
X138564904Y-115760476D01*
X137755380Y-115760476D01*
X137755380Y-115379523D02*
X137755380Y-114760476D01*
X138136333Y-115093809D01*
X138136333Y-114950952D01*
X138183952Y-114855714D01*
X138231571Y-114808095D01*
X138326809Y-114760476D01*
X138564904Y-114760476D01*
X138660142Y-114808095D01*
X138707761Y-114855714D01*
X138755380Y-114950952D01*
X138755380Y-115236666D01*
X138707761Y-115331904D01*
X138660142Y-115379523D01*
G04 #@! TO.C,Q3*
X179863761Y-40933619D02*
X179768523Y-40886000D01*
X179673285Y-40790761D01*
X179530428Y-40647904D01*
X179435190Y-40600285D01*
X179339952Y-40600285D01*
X179387571Y-40838380D02*
X179292333Y-40790761D01*
X179197095Y-40695523D01*
X179149476Y-40505047D01*
X179149476Y-40171714D01*
X179197095Y-39981238D01*
X179292333Y-39886000D01*
X179387571Y-39838380D01*
X179578047Y-39838380D01*
X179673285Y-39886000D01*
X179768523Y-39981238D01*
X179816142Y-40171714D01*
X179816142Y-40505047D01*
X179768523Y-40695523D01*
X179673285Y-40790761D01*
X179578047Y-40838380D01*
X179387571Y-40838380D01*
X180149476Y-39838380D02*
X180768523Y-39838380D01*
X180435190Y-40219333D01*
X180578047Y-40219333D01*
X180673285Y-40266952D01*
X180720904Y-40314571D01*
X180768523Y-40409809D01*
X180768523Y-40647904D01*
X180720904Y-40743142D01*
X180673285Y-40790761D01*
X180578047Y-40838380D01*
X180292333Y-40838380D01*
X180197095Y-40790761D01*
X180149476Y-40743142D01*
G04 #@! TO.C,Q2*
X131095761Y-53379619D02*
X131000523Y-53332000D01*
X130905285Y-53236761D01*
X130762428Y-53093904D01*
X130667190Y-53046285D01*
X130571952Y-53046285D01*
X130619571Y-53284380D02*
X130524333Y-53236761D01*
X130429095Y-53141523D01*
X130381476Y-52951047D01*
X130381476Y-52617714D01*
X130429095Y-52427238D01*
X130524333Y-52332000D01*
X130619571Y-52284380D01*
X130810047Y-52284380D01*
X130905285Y-52332000D01*
X131000523Y-52427238D01*
X131048142Y-52617714D01*
X131048142Y-52951047D01*
X131000523Y-53141523D01*
X130905285Y-53236761D01*
X130810047Y-53284380D01*
X130619571Y-53284380D01*
X131429095Y-52379619D02*
X131476714Y-52332000D01*
X131571952Y-52284380D01*
X131810047Y-52284380D01*
X131905285Y-52332000D01*
X131952904Y-52379619D01*
X132000523Y-52474857D01*
X132000523Y-52570095D01*
X131952904Y-52712952D01*
X131381476Y-53284380D01*
X132000523Y-53284380D01*
G04 #@! TO.C,Q1*
X129571761Y-54522619D02*
X129476523Y-54475000D01*
X129381285Y-54379761D01*
X129238428Y-54236904D01*
X129143190Y-54189285D01*
X129047952Y-54189285D01*
X129095571Y-54427380D02*
X129000333Y-54379761D01*
X128905095Y-54284523D01*
X128857476Y-54094047D01*
X128857476Y-53760714D01*
X128905095Y-53570238D01*
X129000333Y-53475000D01*
X129095571Y-53427380D01*
X129286047Y-53427380D01*
X129381285Y-53475000D01*
X129476523Y-53570238D01*
X129524142Y-53760714D01*
X129524142Y-54094047D01*
X129476523Y-54284523D01*
X129381285Y-54379761D01*
X129286047Y-54427380D01*
X129095571Y-54427380D01*
X130476523Y-54427380D02*
X129905095Y-54427380D01*
X130190809Y-54427380D02*
X130190809Y-53427380D01*
X130095571Y-53570238D01*
X130000333Y-53665476D01*
X129905095Y-53713095D01*
G04 #@! TO.C,U5*
X152614380Y-133349904D02*
X153423904Y-133349904D01*
X153519142Y-133302285D01*
X153566761Y-133254666D01*
X153614380Y-133159428D01*
X153614380Y-132968952D01*
X153566761Y-132873714D01*
X153519142Y-132826095D01*
X153423904Y-132778476D01*
X152614380Y-132778476D01*
X152614380Y-131826095D02*
X152614380Y-132302285D01*
X153090571Y-132349904D01*
X153042952Y-132302285D01*
X152995333Y-132207047D01*
X152995333Y-131968952D01*
X153042952Y-131873714D01*
X153090571Y-131826095D01*
X153185809Y-131778476D01*
X153423904Y-131778476D01*
X153519142Y-131826095D01*
X153566761Y-131873714D01*
X153614380Y-131968952D01*
X153614380Y-132207047D01*
X153566761Y-132302285D01*
X153519142Y-132349904D01*
G04 #@! TO.C,U4*
X162012380Y-133984904D02*
X162821904Y-133984904D01*
X162917142Y-133937285D01*
X162964761Y-133889666D01*
X163012380Y-133794428D01*
X163012380Y-133603952D01*
X162964761Y-133508714D01*
X162917142Y-133461095D01*
X162821904Y-133413476D01*
X162012380Y-133413476D01*
X162345714Y-132508714D02*
X163012380Y-132508714D01*
X161964761Y-132746809D02*
X162679047Y-132984904D01*
X162679047Y-132365857D01*
G04 #@! TO.C,R5*
X125547380Y-53887666D02*
X125071190Y-54221000D01*
X125547380Y-54459095D02*
X124547380Y-54459095D01*
X124547380Y-54078142D01*
X124595000Y-53982904D01*
X124642619Y-53935285D01*
X124737857Y-53887666D01*
X124880714Y-53887666D01*
X124975952Y-53935285D01*
X125023571Y-53982904D01*
X125071190Y-54078142D01*
X125071190Y-54459095D01*
X124547380Y-52982904D02*
X124547380Y-53459095D01*
X125023571Y-53506714D01*
X124975952Y-53459095D01*
X124928333Y-53363857D01*
X124928333Y-53125761D01*
X124975952Y-53030523D01*
X125023571Y-52982904D01*
X125118809Y-52935285D01*
X125356904Y-52935285D01*
X125452142Y-52982904D01*
X125499761Y-53030523D01*
X125547380Y-53125761D01*
X125547380Y-53363857D01*
X125499761Y-53459095D01*
X125452142Y-53506714D01*
G04 #@! TO.C,R7*
X124785380Y-54395666D02*
X124309190Y-54729000D01*
X124785380Y-54967095D02*
X123785380Y-54967095D01*
X123785380Y-54586142D01*
X123833000Y-54490904D01*
X123880619Y-54443285D01*
X123975857Y-54395666D01*
X124118714Y-54395666D01*
X124213952Y-54443285D01*
X124261571Y-54490904D01*
X124309190Y-54586142D01*
X124309190Y-54967095D01*
X123785380Y-54062333D02*
X123785380Y-53395666D01*
X124785380Y-53824238D01*
G04 #@! TO.C,R9*
X135580380Y-126531666D02*
X135104190Y-126865000D01*
X135580380Y-127103095D02*
X134580380Y-127103095D01*
X134580380Y-126722142D01*
X134628000Y-126626904D01*
X134675619Y-126579285D01*
X134770857Y-126531666D01*
X134913714Y-126531666D01*
X135008952Y-126579285D01*
X135056571Y-126626904D01*
X135104190Y-126722142D01*
X135104190Y-127103095D01*
X135580380Y-126055476D02*
X135580380Y-125865000D01*
X135532761Y-125769761D01*
X135485142Y-125722142D01*
X135342285Y-125626904D01*
X135151809Y-125579285D01*
X134770857Y-125579285D01*
X134675619Y-125626904D01*
X134628000Y-125674523D01*
X134580380Y-125769761D01*
X134580380Y-125960238D01*
X134628000Y-126055476D01*
X134675619Y-126103095D01*
X134770857Y-126150714D01*
X135008952Y-126150714D01*
X135104190Y-126103095D01*
X135151809Y-126055476D01*
X135199428Y-125960238D01*
X135199428Y-125769761D01*
X135151809Y-125674523D01*
X135104190Y-125626904D01*
X135008952Y-125579285D01*
G04 #@! TO.C,R10*
X127579380Y-53474857D02*
X127103190Y-53808190D01*
X127579380Y-54046285D02*
X126579380Y-54046285D01*
X126579380Y-53665333D01*
X126627000Y-53570095D01*
X126674619Y-53522476D01*
X126769857Y-53474857D01*
X126912714Y-53474857D01*
X127007952Y-53522476D01*
X127055571Y-53570095D01*
X127103190Y-53665333D01*
X127103190Y-54046285D01*
X127579380Y-52522476D02*
X127579380Y-53093904D01*
X127579380Y-52808190D02*
X126579380Y-52808190D01*
X126722238Y-52903428D01*
X126817476Y-52998666D01*
X126865095Y-53093904D01*
X126579380Y-51903428D02*
X126579380Y-51808190D01*
X126627000Y-51712952D01*
X126674619Y-51665333D01*
X126769857Y-51617714D01*
X126960333Y-51570095D01*
X127198428Y-51570095D01*
X127388904Y-51617714D01*
X127484142Y-51665333D01*
X127531761Y-51712952D01*
X127579380Y-51808190D01*
X127579380Y-51903428D01*
X127531761Y-51998666D01*
X127484142Y-52046285D01*
X127388904Y-52093904D01*
X127198428Y-52141523D01*
X126960333Y-52141523D01*
X126769857Y-52093904D01*
X126674619Y-52046285D01*
X126627000Y-51998666D01*
X126579380Y-51903428D01*
G04 #@! TO.C,R12*
X202433380Y-110396357D02*
X201957190Y-110729690D01*
X202433380Y-110967785D02*
X201433380Y-110967785D01*
X201433380Y-110586833D01*
X201481000Y-110491595D01*
X201528619Y-110443976D01*
X201623857Y-110396357D01*
X201766714Y-110396357D01*
X201861952Y-110443976D01*
X201909571Y-110491595D01*
X201957190Y-110586833D01*
X201957190Y-110967785D01*
X202433380Y-109443976D02*
X202433380Y-110015404D01*
X202433380Y-109729690D02*
X201433380Y-109729690D01*
X201576238Y-109824928D01*
X201671476Y-109920166D01*
X201719095Y-110015404D01*
X201528619Y-109063023D02*
X201481000Y-109015404D01*
X201433380Y-108920166D01*
X201433380Y-108682071D01*
X201481000Y-108586833D01*
X201528619Y-108539214D01*
X201623857Y-108491595D01*
X201719095Y-108491595D01*
X201861952Y-108539214D01*
X202433380Y-109110642D01*
X202433380Y-108491595D01*
G04 #@! TO.C,R13*
X180611642Y-40711380D02*
X180278309Y-40235190D01*
X180040214Y-40711380D02*
X180040214Y-39711380D01*
X180421166Y-39711380D01*
X180516404Y-39759000D01*
X180564023Y-39806619D01*
X180611642Y-39901857D01*
X180611642Y-40044714D01*
X180564023Y-40139952D01*
X180516404Y-40187571D01*
X180421166Y-40235190D01*
X180040214Y-40235190D01*
X181564023Y-40711380D02*
X180992595Y-40711380D01*
X181278309Y-40711380D02*
X181278309Y-39711380D01*
X181183071Y-39854238D01*
X181087833Y-39949476D01*
X180992595Y-39997095D01*
X181897357Y-39711380D02*
X182516404Y-39711380D01*
X182183071Y-40092333D01*
X182325928Y-40092333D01*
X182421166Y-40139952D01*
X182468785Y-40187571D01*
X182516404Y-40282809D01*
X182516404Y-40520904D01*
X182468785Y-40616142D01*
X182421166Y-40663761D01*
X182325928Y-40711380D01*
X182040214Y-40711380D01*
X181944976Y-40663761D01*
X181897357Y-40616142D01*
G04 #@! TO.C,R14*
X192117642Y-74493380D02*
X191784309Y-74017190D01*
X191546214Y-74493380D02*
X191546214Y-73493380D01*
X191927166Y-73493380D01*
X192022404Y-73541000D01*
X192070023Y-73588619D01*
X192117642Y-73683857D01*
X192117642Y-73826714D01*
X192070023Y-73921952D01*
X192022404Y-73969571D01*
X191927166Y-74017190D01*
X191546214Y-74017190D01*
X193070023Y-74493380D02*
X192498595Y-74493380D01*
X192784309Y-74493380D02*
X192784309Y-73493380D01*
X192689071Y-73636238D01*
X192593833Y-73731476D01*
X192498595Y-73779095D01*
X193927166Y-73826714D02*
X193927166Y-74493380D01*
X193689071Y-73445761D02*
X193450976Y-74160047D01*
X194070023Y-74160047D01*
G04 #@! TO.C,R15*
X130119380Y-52458857D02*
X129643190Y-52792190D01*
X130119380Y-53030285D02*
X129119380Y-53030285D01*
X129119380Y-52649333D01*
X129167000Y-52554095D01*
X129214619Y-52506476D01*
X129309857Y-52458857D01*
X129452714Y-52458857D01*
X129547952Y-52506476D01*
X129595571Y-52554095D01*
X129643190Y-52649333D01*
X129643190Y-53030285D01*
X130119380Y-51506476D02*
X130119380Y-52077904D01*
X130119380Y-51792190D02*
X129119380Y-51792190D01*
X129262238Y-51887428D01*
X129357476Y-51982666D01*
X129405095Y-52077904D01*
X129119380Y-50601714D02*
X129119380Y-51077904D01*
X129595571Y-51125523D01*
X129547952Y-51077904D01*
X129500333Y-50982666D01*
X129500333Y-50744571D01*
X129547952Y-50649333D01*
X129595571Y-50601714D01*
X129690809Y-50554095D01*
X129928904Y-50554095D01*
X130024142Y-50601714D01*
X130071761Y-50649333D01*
X130119380Y-50744571D01*
X130119380Y-50982666D01*
X130071761Y-51077904D01*
X130024142Y-51125523D01*
G04 #@! TO.C,R19*
X149090142Y-94559380D02*
X148756809Y-94083190D01*
X148518714Y-94559380D02*
X148518714Y-93559380D01*
X148899666Y-93559380D01*
X148994904Y-93607000D01*
X149042523Y-93654619D01*
X149090142Y-93749857D01*
X149090142Y-93892714D01*
X149042523Y-93987952D01*
X148994904Y-94035571D01*
X148899666Y-94083190D01*
X148518714Y-94083190D01*
X150042523Y-94559380D02*
X149471095Y-94559380D01*
X149756809Y-94559380D02*
X149756809Y-93559380D01*
X149661571Y-93702238D01*
X149566333Y-93797476D01*
X149471095Y-93845095D01*
X150518714Y-94559380D02*
X150709190Y-94559380D01*
X150804428Y-94511761D01*
X150852047Y-94464142D01*
X150947285Y-94321285D01*
X150994904Y-94130809D01*
X150994904Y-93749857D01*
X150947285Y-93654619D01*
X150899666Y-93607000D01*
X150804428Y-93559380D01*
X150613952Y-93559380D01*
X150518714Y-93607000D01*
X150471095Y-93654619D01*
X150423476Y-93749857D01*
X150423476Y-93987952D01*
X150471095Y-94083190D01*
X150518714Y-94130809D01*
X150613952Y-94178428D01*
X150804428Y-94178428D01*
X150899666Y-94130809D01*
X150947285Y-94083190D01*
X150994904Y-93987952D01*
G04 #@! TO.C,R8*
X124836380Y-52617666D02*
X124360190Y-52951000D01*
X124836380Y-53189095D02*
X123836380Y-53189095D01*
X123836380Y-52808142D01*
X123884000Y-52712904D01*
X123931619Y-52665285D01*
X124026857Y-52617666D01*
X124169714Y-52617666D01*
X124264952Y-52665285D01*
X124312571Y-52712904D01*
X124360190Y-52808142D01*
X124360190Y-53189095D01*
X124264952Y-52046238D02*
X124217333Y-52141476D01*
X124169714Y-52189095D01*
X124074476Y-52236714D01*
X124026857Y-52236714D01*
X123931619Y-52189095D01*
X123884000Y-52141476D01*
X123836380Y-52046238D01*
X123836380Y-51855761D01*
X123884000Y-51760523D01*
X123931619Y-51712904D01*
X124026857Y-51665285D01*
X124074476Y-51665285D01*
X124169714Y-51712904D01*
X124217333Y-51760523D01*
X124264952Y-51855761D01*
X124264952Y-52046238D01*
X124312571Y-52141476D01*
X124360190Y-52189095D01*
X124455428Y-52236714D01*
X124645904Y-52236714D01*
X124741142Y-52189095D01*
X124788761Y-52141476D01*
X124836380Y-52046238D01*
X124836380Y-51855761D01*
X124788761Y-51760523D01*
X124741142Y-51712904D01*
X124645904Y-51665285D01*
X124455428Y-51665285D01*
X124360190Y-51712904D01*
X124312571Y-51760523D01*
X124264952Y-51855761D01*
G04 #@! TO.C,R6*
X158694380Y-123509166D02*
X158218190Y-123842500D01*
X158694380Y-124080595D02*
X157694380Y-124080595D01*
X157694380Y-123699642D01*
X157742000Y-123604404D01*
X157789619Y-123556785D01*
X157884857Y-123509166D01*
X158027714Y-123509166D01*
X158122952Y-123556785D01*
X158170571Y-123604404D01*
X158218190Y-123699642D01*
X158218190Y-124080595D01*
X157694380Y-122652023D02*
X157694380Y-122842500D01*
X157742000Y-122937738D01*
X157789619Y-122985357D01*
X157932476Y-123080595D01*
X158122952Y-123128214D01*
X158503904Y-123128214D01*
X158599142Y-123080595D01*
X158646761Y-123032976D01*
X158694380Y-122937738D01*
X158694380Y-122747261D01*
X158646761Y-122652023D01*
X158599142Y-122604404D01*
X158503904Y-122556785D01*
X158265809Y-122556785D01*
X158170571Y-122604404D01*
X158122952Y-122652023D01*
X158075333Y-122747261D01*
X158075333Y-122937738D01*
X158122952Y-123032976D01*
X158170571Y-123080595D01*
X158265809Y-123128214D01*
G04 #@! TO.C,R4*
X127722333Y-53284380D02*
X127389000Y-52808190D01*
X127150904Y-53284380D02*
X127150904Y-52284380D01*
X127531857Y-52284380D01*
X127627095Y-52332000D01*
X127674714Y-52379619D01*
X127722333Y-52474857D01*
X127722333Y-52617714D01*
X127674714Y-52712952D01*
X127627095Y-52760571D01*
X127531857Y-52808190D01*
X127150904Y-52808190D01*
X128579476Y-52617714D02*
X128579476Y-53284380D01*
X128341380Y-52236761D02*
X128103285Y-52951047D01*
X128722333Y-52951047D01*
G04 #@! TO.C,R3*
X128976380Y-52236666D02*
X128500190Y-52570000D01*
X128976380Y-52808095D02*
X127976380Y-52808095D01*
X127976380Y-52427142D01*
X128024000Y-52331904D01*
X128071619Y-52284285D01*
X128166857Y-52236666D01*
X128309714Y-52236666D01*
X128404952Y-52284285D01*
X128452571Y-52331904D01*
X128500190Y-52427142D01*
X128500190Y-52808095D01*
X127976380Y-51903333D02*
X127976380Y-51284285D01*
X128357333Y-51617619D01*
X128357333Y-51474761D01*
X128404952Y-51379523D01*
X128452571Y-51331904D01*
X128547809Y-51284285D01*
X128785904Y-51284285D01*
X128881142Y-51331904D01*
X128928761Y-51379523D01*
X128976380Y-51474761D01*
X128976380Y-51760476D01*
X128928761Y-51855714D01*
X128881142Y-51903333D01*
G04 #@! TO.C,R2*
X128595380Y-56910166D02*
X128119190Y-57243500D01*
X128595380Y-57481595D02*
X127595380Y-57481595D01*
X127595380Y-57100642D01*
X127643000Y-57005404D01*
X127690619Y-56957785D01*
X127785857Y-56910166D01*
X127928714Y-56910166D01*
X128023952Y-56957785D01*
X128071571Y-57005404D01*
X128119190Y-57100642D01*
X128119190Y-57481595D01*
X127690619Y-56529214D02*
X127643000Y-56481595D01*
X127595380Y-56386357D01*
X127595380Y-56148261D01*
X127643000Y-56053023D01*
X127690619Y-56005404D01*
X127785857Y-55957785D01*
X127881095Y-55957785D01*
X128023952Y-56005404D01*
X128595380Y-56576833D01*
X128595380Y-55957785D01*
G04 #@! TO.C,R1*
X222067380Y-101004666D02*
X221591190Y-101338000D01*
X222067380Y-101576095D02*
X221067380Y-101576095D01*
X221067380Y-101195142D01*
X221115000Y-101099904D01*
X221162619Y-101052285D01*
X221257857Y-101004666D01*
X221400714Y-101004666D01*
X221495952Y-101052285D01*
X221543571Y-101099904D01*
X221591190Y-101195142D01*
X221591190Y-101576095D01*
X222067380Y-100052285D02*
X222067380Y-100623714D01*
X222067380Y-100338000D02*
X221067380Y-100338000D01*
X221210238Y-100433238D01*
X221305476Y-100528476D01*
X221353095Y-100623714D01*
G04 #@! TO.C,R11*
X194381380Y-27439857D02*
X193905190Y-27773190D01*
X194381380Y-28011285D02*
X193381380Y-28011285D01*
X193381380Y-27630333D01*
X193429000Y-27535095D01*
X193476619Y-27487476D01*
X193571857Y-27439857D01*
X193714714Y-27439857D01*
X193809952Y-27487476D01*
X193857571Y-27535095D01*
X193905190Y-27630333D01*
X193905190Y-28011285D01*
X194381380Y-26487476D02*
X194381380Y-27058904D01*
X194381380Y-26773190D02*
X193381380Y-26773190D01*
X193524238Y-26868428D01*
X193619476Y-26963666D01*
X193667095Y-27058904D01*
X194381380Y-25535095D02*
X194381380Y-26106523D01*
X194381380Y-25820809D02*
X193381380Y-25820809D01*
X193524238Y-25916047D01*
X193619476Y-26011285D01*
X193667095Y-26106523D01*
G04 #@! TO.C,J1*
D15*
X129098527Y-52910795D02*
X129098527Y-53473236D01*
X129061031Y-53585724D01*
X128986039Y-53660716D01*
X128873551Y-53698212D01*
X128798559Y-53698212D01*
X129885944Y-53698212D02*
X129435992Y-53698212D01*
X129660968Y-53698212D02*
X129660968Y-52910795D01*
X129585976Y-53023283D01*
X129510984Y-53098275D01*
X129435992Y-53135771D01*
X159329436Y-93076556D02*
X158879465Y-93076556D01*
X159104451Y-93076556D02*
X159104451Y-92289107D01*
X159029456Y-92401600D01*
X158954460Y-92476595D01*
X158879465Y-92514093D01*
X159816905Y-92289107D02*
X159891900Y-92289107D01*
X159966895Y-92326605D01*
X160004392Y-92364103D01*
X160041890Y-92439098D01*
X160079388Y-92589088D01*
X160079388Y-92776576D01*
X160041890Y-92926566D01*
X160004392Y-93001561D01*
X159966895Y-93039059D01*
X159891900Y-93076556D01*
X159816905Y-93076556D01*
X159741909Y-93039059D01*
X159704412Y-93001561D01*
X159666914Y-92926566D01*
X159629417Y-92776576D01*
X159629417Y-92589088D01*
X159666914Y-92439098D01*
X159704412Y-92364103D01*
X159741909Y-92326605D01*
X159816905Y-92289107D01*
X160829339Y-93076556D02*
X160379368Y-93076556D01*
X160604354Y-93076556D02*
X160604354Y-92289107D01*
X160529358Y-92401600D01*
X160454363Y-92476595D01*
X160379368Y-92514093D01*
X161579290Y-93076556D02*
X161129320Y-93076556D01*
X161354305Y-93076556D02*
X161354305Y-92289107D01*
X161279310Y-92401600D01*
X161204315Y-92476595D01*
X161129320Y-92514093D01*
X162029261Y-92626586D02*
X161954266Y-92589088D01*
X161916769Y-92551590D01*
X161879271Y-92476595D01*
X161879271Y-92439098D01*
X161916769Y-92364103D01*
X161954266Y-92326605D01*
X162029261Y-92289107D01*
X162179252Y-92289107D01*
X162254247Y-92326605D01*
X162291744Y-92364103D01*
X162329242Y-92439098D01*
X162329242Y-92476595D01*
X162291744Y-92551590D01*
X162254247Y-92589088D01*
X162179252Y-92626586D01*
X162029261Y-92626586D01*
X161954266Y-92664083D01*
X161916769Y-92701581D01*
X161879271Y-92776576D01*
X161879271Y-92926566D01*
X161916769Y-93001561D01*
X161954266Y-93039059D01*
X162029261Y-93076556D01*
X162179252Y-93076556D01*
X162254247Y-93039059D01*
X162291744Y-93001561D01*
X162329242Y-92926566D01*
X162329242Y-92776576D01*
X162291744Y-92701581D01*
X162254247Y-92664083D01*
X162179252Y-92626586D01*
X163079193Y-93076556D02*
X162629222Y-93076556D01*
X162854208Y-93076556D02*
X162854208Y-92289107D01*
X162779213Y-92401600D01*
X162704218Y-92476595D01*
X162629222Y-92514093D01*
X163454169Y-93076556D02*
X163604159Y-93076556D01*
X163679154Y-93039059D01*
X163716652Y-93001561D01*
X163791647Y-92889069D01*
X163829145Y-92739078D01*
X163829145Y-92439098D01*
X163791647Y-92364103D01*
X163754150Y-92326605D01*
X163679154Y-92289107D01*
X163529164Y-92289107D01*
X163454169Y-92326605D01*
X163416671Y-92364103D01*
X163379174Y-92439098D01*
X163379174Y-92626586D01*
X163416671Y-92701581D01*
X163454169Y-92739078D01*
X163529164Y-92776576D01*
X163679154Y-92776576D01*
X163754150Y-92739078D01*
X163791647Y-92701581D01*
X163829145Y-92626586D01*
X164129125Y-92364103D02*
X164166623Y-92326605D01*
X164241618Y-92289107D01*
X164429106Y-92289107D01*
X164504101Y-92326605D01*
X164541599Y-92364103D01*
X164579096Y-92439098D01*
X164579096Y-92514093D01*
X164541599Y-92626586D01*
X164091628Y-93076556D01*
X164579096Y-93076556D01*
X164916574Y-92776576D02*
X165516535Y-92776576D01*
X166041501Y-92289107D02*
X166116497Y-92289107D01*
X166191492Y-92326605D01*
X166228989Y-92364103D01*
X166266487Y-92439098D01*
X166303984Y-92589088D01*
X166303984Y-92776576D01*
X166266487Y-92926566D01*
X166228989Y-93001561D01*
X166191492Y-93039059D01*
X166116497Y-93076556D01*
X166041501Y-93076556D01*
X165966506Y-93039059D01*
X165929009Y-93001561D01*
X165891511Y-92926566D01*
X165854014Y-92776576D01*
X165854014Y-92589088D01*
X165891511Y-92439098D01*
X165929009Y-92364103D01*
X165966506Y-92326605D01*
X166041501Y-92289107D01*
X166791453Y-92289107D02*
X166866448Y-92289107D01*
X166941443Y-92326605D01*
X166978941Y-92364103D01*
X167016438Y-92439098D01*
X167053936Y-92589088D01*
X167053936Y-92776576D01*
X167016438Y-92926566D01*
X166978941Y-93001561D01*
X166941443Y-93039059D01*
X166866448Y-93076556D01*
X166791453Y-93076556D01*
X166716458Y-93039059D01*
X166678960Y-93001561D01*
X166641463Y-92926566D01*
X166603965Y-92776576D01*
X166603965Y-92589088D01*
X166641463Y-92439098D01*
X166678960Y-92364103D01*
X166716458Y-92326605D01*
X166791453Y-92289107D01*
X167541404Y-92289107D02*
X167616399Y-92289107D01*
X167691395Y-92326605D01*
X167728892Y-92364103D01*
X167766390Y-92439098D01*
X167803887Y-92589088D01*
X167803887Y-92776576D01*
X167766390Y-92926566D01*
X167728892Y-93001561D01*
X167691395Y-93039059D01*
X167616399Y-93076556D01*
X167541404Y-93076556D01*
X167466409Y-93039059D01*
X167428912Y-93001561D01*
X167391414Y-92926566D01*
X167353916Y-92776576D01*
X167353916Y-92589088D01*
X167391414Y-92439098D01*
X167428912Y-92364103D01*
X167466409Y-92326605D01*
X167541404Y-92289107D01*
X168553839Y-93076556D02*
X168103868Y-93076556D01*
X168328853Y-93076556D02*
X168328853Y-92289107D01*
X168253858Y-92401600D01*
X168178863Y-92476595D01*
X168103868Y-92514093D01*
X169266293Y-93076556D02*
X168891317Y-93076556D01*
X168891317Y-92289107D01*
X169791259Y-92664083D02*
X169528776Y-92664083D01*
X169528776Y-93076556D02*
X169528776Y-92289107D01*
X169903751Y-92289107D01*
G04 #@! TO.C,ANT1*
D16*
X185622510Y-65680035D02*
X185851184Y-65680035D01*
X185576776Y-65817239D02*
X185736847Y-65337025D01*
X185896918Y-65817239D01*
X186056990Y-65817239D02*
X186056990Y-65337025D01*
X186331398Y-65817239D01*
X186331398Y-65337025D01*
X186491469Y-65337025D02*
X186765877Y-65337025D01*
X186628673Y-65817239D02*
X186628673Y-65337025D01*
X187177489Y-65817239D02*
X186903081Y-65817239D01*
X187040285Y-65817239D02*
X187040285Y-65337025D01*
X186994550Y-65405627D01*
X186948816Y-65451362D01*
X186903081Y-65474229D01*
G04 #@! TO.C,J2*
D12*
X124652380Y-52465333D02*
X125366666Y-52465333D01*
X125509523Y-52512952D01*
X125604761Y-52608190D01*
X125652380Y-52751047D01*
X125652380Y-52846285D01*
X124747619Y-52036761D02*
X124700000Y-51989142D01*
X124652380Y-51893904D01*
X124652380Y-51655809D01*
X124700000Y-51560571D01*
X124747619Y-51512952D01*
X124842857Y-51465333D01*
X124938095Y-51465333D01*
X125080952Y-51512952D01*
X125652380Y-52084380D01*
X125652380Y-51465333D01*
X178611428Y-89850952D02*
X178611428Y-89089047D01*
X178611428Y-87310952D02*
X178611428Y-86549047D01*
X178992380Y-86930000D02*
X178230476Y-86930000D01*
G04 #@! TO.C,ESP1*
D15*
X186110571Y-30350666D02*
X186110571Y-30017333D01*
X186634380Y-29874476D02*
X186634380Y-30350666D01*
X185634380Y-30350666D01*
X185634380Y-29874476D01*
X186586761Y-29493523D02*
X186634380Y-29350666D01*
X186634380Y-29112571D01*
X186586761Y-29017333D01*
X186539142Y-28969714D01*
X186443904Y-28922095D01*
X186348666Y-28922095D01*
X186253428Y-28969714D01*
X186205809Y-29017333D01*
X186158190Y-29112571D01*
X186110571Y-29303047D01*
X186062952Y-29398285D01*
X186015333Y-29445904D01*
X185920095Y-29493523D01*
X185824857Y-29493523D01*
X185729619Y-29445904D01*
X185682000Y-29398285D01*
X185634380Y-29303047D01*
X185634380Y-29064952D01*
X185682000Y-28922095D01*
X186634380Y-28493523D02*
X185634380Y-28493523D01*
X185634380Y-28112571D01*
X185682000Y-28017333D01*
X185729619Y-27969714D01*
X185824857Y-27922095D01*
X185967714Y-27922095D01*
X186062952Y-27969714D01*
X186110571Y-28017333D01*
X186158190Y-28112571D01*
X186158190Y-28493523D01*
X186634380Y-26969714D02*
X186634380Y-27541142D01*
X186634380Y-27255428D02*
X185634380Y-27255428D01*
X185777238Y-27350666D01*
X185872476Y-27445904D01*
X185920095Y-27541142D01*
X186110571Y-42732000D02*
X186110571Y-42398666D01*
X186634380Y-42255809D02*
X186634380Y-42732000D01*
X185634380Y-42732000D01*
X185634380Y-42255809D01*
X186586761Y-41874857D02*
X186634380Y-41732000D01*
X186634380Y-41493904D01*
X186586761Y-41398666D01*
X186539142Y-41351047D01*
X186443904Y-41303428D01*
X186348666Y-41303428D01*
X186253428Y-41351047D01*
X186205809Y-41398666D01*
X186158190Y-41493904D01*
X186110571Y-41684380D01*
X186062952Y-41779619D01*
X186015333Y-41827238D01*
X185920095Y-41874857D01*
X185824857Y-41874857D01*
X185729619Y-41827238D01*
X185682000Y-41779619D01*
X185634380Y-41684380D01*
X185634380Y-41446285D01*
X185682000Y-41303428D01*
X186634380Y-40874857D02*
X185634380Y-40874857D01*
X185634380Y-40493904D01*
X185682000Y-40398666D01*
X185729619Y-40351047D01*
X185824857Y-40303428D01*
X185967714Y-40303428D01*
X186062952Y-40351047D01*
X186110571Y-40398666D01*
X186158190Y-40493904D01*
X186158190Y-40874857D01*
X185634380Y-39970095D02*
X185634380Y-39351047D01*
X186015333Y-39684380D01*
X186015333Y-39541523D01*
X186062952Y-39446285D01*
X186110571Y-39398666D01*
X186205809Y-39351047D01*
X186443904Y-39351047D01*
X186539142Y-39398666D01*
X186586761Y-39446285D01*
X186634380Y-39541523D01*
X186634380Y-39827238D01*
X186586761Y-39922476D01*
X186539142Y-39970095D01*
X185729619Y-38970095D02*
X185682000Y-38922476D01*
X185634380Y-38827238D01*
X185634380Y-38589142D01*
X185682000Y-38493904D01*
X185729619Y-38446285D01*
X185824857Y-38398666D01*
X185920095Y-38398666D01*
X186062952Y-38446285D01*
X186634380Y-39017714D01*
X186634380Y-38398666D01*
X186634380Y-37970095D02*
X185634380Y-37970095D01*
X185634380Y-37589142D01*
X185682000Y-37493904D01*
X185729619Y-37446285D01*
X185824857Y-37398666D01*
X185967714Y-37398666D01*
X186062952Y-37446285D01*
X186110571Y-37493904D01*
X186158190Y-37589142D01*
X186158190Y-37970095D01*
X186634380Y-36970095D02*
X185634380Y-36970095D01*
X186539142Y-35922476D02*
X186586761Y-35970095D01*
X186634380Y-36112952D01*
X186634380Y-36208190D01*
X186586761Y-36351047D01*
X186491523Y-36446285D01*
X186396285Y-36493904D01*
X186205809Y-36541523D01*
X186062952Y-36541523D01*
X185872476Y-36493904D01*
X185777238Y-36446285D01*
X185682000Y-36351047D01*
X185634380Y-36208190D01*
X185634380Y-36112952D01*
X185682000Y-35970095D01*
X185729619Y-35922476D01*
X185634380Y-35303428D02*
X185634380Y-35112952D01*
X185682000Y-35017714D01*
X185777238Y-34922476D01*
X185967714Y-34874857D01*
X186301047Y-34874857D01*
X186491523Y-34922476D01*
X186586761Y-35017714D01*
X186634380Y-35112952D01*
X186634380Y-35303428D01*
X186586761Y-35398666D01*
X186491523Y-35493904D01*
X186301047Y-35541523D01*
X185967714Y-35541523D01*
X185777238Y-35493904D01*
X185682000Y-35398666D01*
X185634380Y-35303428D01*
X186729619Y-34684380D02*
X186729619Y-33922476D01*
X186634380Y-33684380D02*
X185634380Y-33684380D01*
X185634380Y-33446285D01*
X185682000Y-33303428D01*
X185777238Y-33208190D01*
X185872476Y-33160571D01*
X186062952Y-33112952D01*
X186205809Y-33112952D01*
X186396285Y-33160571D01*
X186491523Y-33208190D01*
X186586761Y-33303428D01*
X186634380Y-33446285D01*
X186634380Y-33684380D01*
X185967714Y-32255809D02*
X186634380Y-32255809D01*
X185586761Y-32493904D02*
X186301047Y-32732000D01*
X186301047Y-32112952D01*
X186253428Y-31732000D02*
X186253428Y-30970095D01*
X186586761Y-30112952D02*
X186634380Y-30208190D01*
X186634380Y-30398666D01*
X186586761Y-30493904D01*
X186491523Y-30541523D01*
X186110571Y-30541523D01*
X186015333Y-30493904D01*
X185967714Y-30398666D01*
X185967714Y-30208190D01*
X186015333Y-30112952D01*
X186110571Y-30065333D01*
X186205809Y-30065333D01*
X186301047Y-30541523D01*
X186586761Y-29684380D02*
X186634380Y-29589142D01*
X186634380Y-29398666D01*
X186586761Y-29303428D01*
X186491523Y-29255809D01*
X186443904Y-29255809D01*
X186348666Y-29303428D01*
X186301047Y-29398666D01*
X186301047Y-29541523D01*
X186253428Y-29636761D01*
X186158190Y-29684380D01*
X186110571Y-29684380D01*
X186015333Y-29636761D01*
X185967714Y-29541523D01*
X185967714Y-29398666D01*
X186015333Y-29303428D01*
X185967714Y-28827238D02*
X186967714Y-28827238D01*
X186015333Y-28827238D02*
X185967714Y-28732000D01*
X185967714Y-28541523D01*
X186015333Y-28446285D01*
X186062952Y-28398666D01*
X186158190Y-28351047D01*
X186443904Y-28351047D01*
X186539142Y-28398666D01*
X186586761Y-28446285D01*
X186634380Y-28541523D01*
X186634380Y-28732000D01*
X186586761Y-28827238D01*
X185634380Y-28017714D02*
X185634380Y-27398666D01*
X186015333Y-27732000D01*
X186015333Y-27589142D01*
X186062952Y-27493904D01*
X186110571Y-27446285D01*
X186205809Y-27398666D01*
X186443904Y-27398666D01*
X186539142Y-27446285D01*
X186586761Y-27493904D01*
X186634380Y-27589142D01*
X186634380Y-27874857D01*
X186586761Y-27970095D01*
X186539142Y-28017714D01*
X185729619Y-27017714D02*
X185682000Y-26970095D01*
X185634380Y-26874857D01*
X185634380Y-26636761D01*
X185682000Y-26541523D01*
X185729619Y-26493904D01*
X185824857Y-26446285D01*
X185920095Y-26446285D01*
X186062952Y-26493904D01*
X186634380Y-27065333D01*
X186634380Y-26446285D01*
X185967714Y-26017714D02*
X186967714Y-26017714D01*
X186015333Y-26017714D02*
X185967714Y-25922476D01*
X185967714Y-25732000D01*
X186015333Y-25636761D01*
X186062952Y-25589142D01*
X186158190Y-25541523D01*
X186443904Y-25541523D01*
X186539142Y-25589142D01*
X186586761Y-25636761D01*
X186634380Y-25732000D01*
X186634380Y-25922476D01*
X186586761Y-26017714D01*
X186634380Y-25112952D02*
X185967714Y-25112952D01*
X185634380Y-25112952D02*
X185682000Y-25160571D01*
X185729619Y-25112952D01*
X185682000Y-25065333D01*
X185634380Y-25112952D01*
X185729619Y-25112952D01*
X186586761Y-24208190D02*
X186634380Y-24303428D01*
X186634380Y-24493904D01*
X186586761Y-24589142D01*
X186539142Y-24636761D01*
X186443904Y-24684380D01*
X186158190Y-24684380D01*
X186062952Y-24636761D01*
X186015333Y-24589142D01*
X185967714Y-24493904D01*
X185967714Y-24303428D01*
X186015333Y-24208190D01*
X186634380Y-23636761D02*
X186586761Y-23732000D01*
X186539142Y-23779619D01*
X186443904Y-23827238D01*
X186158190Y-23827238D01*
X186062952Y-23779619D01*
X186015333Y-23732000D01*
X185967714Y-23636761D01*
X185967714Y-23493904D01*
X186015333Y-23398666D01*
X186062952Y-23351047D01*
X186158190Y-23303428D01*
X186443904Y-23303428D01*
X186539142Y-23351047D01*
X186586761Y-23398666D01*
X186634380Y-23493904D01*
X186634380Y-23636761D01*
X186729619Y-23112952D02*
X186729619Y-22351047D01*
X186634380Y-21684380D02*
X185634380Y-21684380D01*
X186586761Y-21684380D02*
X186634380Y-21779619D01*
X186634380Y-21970095D01*
X186586761Y-22065333D01*
X186539142Y-22112952D01*
X186443904Y-22160571D01*
X186158190Y-22160571D01*
X186062952Y-22112952D01*
X186015333Y-22065333D01*
X185967714Y-21970095D01*
X185967714Y-21779619D01*
X186015333Y-21684380D01*
X185967714Y-20779619D02*
X186634380Y-20779619D01*
X185586761Y-21017714D02*
X186301047Y-21255809D01*
X186301047Y-20636761D01*
G04 #@! TO.C,U7*
D12*
X125984095Y-53046380D02*
X125984095Y-53855904D01*
X126031714Y-53951142D01*
X126079333Y-53998761D01*
X126174571Y-54046380D01*
X126365047Y-54046380D01*
X126460285Y-53998761D01*
X126507904Y-53951142D01*
X126555523Y-53855904D01*
X126555523Y-53046380D01*
X126936476Y-53046380D02*
X127603142Y-53046380D01*
X127174571Y-54046380D01*
G04 #@! TO.C,SW2*
D16*
X129001319Y-56224818D02*
X129068063Y-56024588D01*
X129068063Y-55690870D01*
X129001319Y-55557383D01*
X128934576Y-55490639D01*
X128801089Y-55423896D01*
X128667602Y-55423896D01*
X128534115Y-55490639D01*
X128467371Y-55557383D01*
X128400628Y-55690870D01*
X128333884Y-55957844D01*
X128267141Y-56091331D01*
X128200397Y-56158075D01*
X128066910Y-56224818D01*
X127933423Y-56224818D01*
X127799936Y-56158075D01*
X127733193Y-56091331D01*
X127666449Y-55957844D01*
X127666449Y-55624126D01*
X127733193Y-55423896D01*
X127666449Y-54956691D02*
X129068063Y-54622974D01*
X128066910Y-54356000D01*
X129068063Y-54089025D01*
X127666449Y-53755308D01*
X127799936Y-53288103D02*
X127733193Y-53221360D01*
X127666449Y-53087873D01*
X127666449Y-52754155D01*
X127733193Y-52620668D01*
X127799936Y-52553924D01*
X127933423Y-52487181D01*
X128066910Y-52487181D01*
X128267141Y-52553924D01*
X129068063Y-53354847D01*
X129068063Y-52487181D01*
G04 #@! TO.C,SW1*
X129814319Y-54214818D02*
X129881063Y-54014588D01*
X129881063Y-53680870D01*
X129814319Y-53547383D01*
X129747576Y-53480639D01*
X129614089Y-53413896D01*
X129480602Y-53413896D01*
X129347115Y-53480639D01*
X129280371Y-53547383D01*
X129213628Y-53680870D01*
X129146884Y-53947844D01*
X129080141Y-54081331D01*
X129013397Y-54148075D01*
X128879910Y-54214818D01*
X128746423Y-54214818D01*
X128612936Y-54148075D01*
X128546193Y-54081331D01*
X128479449Y-53947844D01*
X128479449Y-53614126D01*
X128546193Y-53413896D01*
X128479449Y-52946691D02*
X129881063Y-52612974D01*
X128879910Y-52346000D01*
X129881063Y-52079025D01*
X128479449Y-51745308D01*
X129881063Y-50477181D02*
X129881063Y-51278103D01*
X129881063Y-50877642D02*
X128479449Y-50877642D01*
X128679680Y-51011129D01*
X128813167Y-51144616D01*
X128879910Y-51278103D01*
G04 #@! TD*
M02*
