G04 #@! TF.GenerationSoftware,KiCad,Pcbnew,(5.1.5)-3*
G04 #@! TF.CreationDate,2020-05-04T14:09:15-04:00*
G04 #@! TF.ProjectId,SmartWatch V4,536d6172-7457-4617-9463-682056342e6b,rev?*
G04 #@! TF.SameCoordinates,Original*
G04 #@! TF.FileFunction,Copper,L4,Bot*
G04 #@! TF.FilePolarity,Positive*
%FSLAX46Y46*%
G04 Gerber Fmt 4.6, Leading zero omitted, Abs format (unit mm)*
G04 Created by KiCad (PCBNEW (5.1.5)-3) date 2020-05-04 14:09:15*
%MOMM*%
%LPD*%
G04 APERTURE LIST*
%ADD10R,10.000000X0.500000*%
%ADD11R,1.600000X0.500000*%
%ADD12C,0.500000*%
%ADD13C,1.500000*%
%ADD14C,0.450000*%
%ADD15C,0.100000*%
%ADD16C,0.120000*%
%ADD17C,0.500000*%
%ADD18C,0.200000*%
%ADD19C,0.254000*%
%ADD20C,0.150000*%
G04 APERTURE END LIST*
D10*
X130450000Y-88800000D03*
X130450000Y-88000000D03*
X130450000Y-87200000D03*
X130450000Y-86400000D03*
X130450000Y-85600000D03*
X130450000Y-84800000D03*
X130450000Y-84000000D03*
X130450000Y-83200000D03*
X130450000Y-82400000D03*
X130450000Y-81600000D03*
X130450000Y-80800000D03*
X130450000Y-80000000D03*
X130450000Y-79200000D03*
X130450000Y-78400000D03*
X130450000Y-77600000D03*
X130450000Y-76800000D03*
X130450000Y-76000000D03*
X130450000Y-75200000D03*
X130450000Y-74400000D03*
X130450000Y-73600000D03*
X130450000Y-72800000D03*
X130450000Y-72000000D03*
X130450000Y-71200000D03*
X130450000Y-70400000D03*
D11*
X144688800Y-91800000D03*
D12*
X144138800Y-91800000D03*
X145238800Y-91800000D03*
X161150000Y-91700000D03*
X160050000Y-91700000D03*
D11*
X160600000Y-91700000D03*
D13*
X129603500Y-95567500D03*
X127800000Y-64100000D03*
X168732200Y-87553800D03*
X159300000Y-94400000D03*
D14*
X132130800Y-91389200D03*
X152908000Y-90678000D03*
X145900000Y-96100000D03*
X162100000Y-81400000D03*
X162100000Y-80400000D03*
X156100000Y-72900000D03*
X153300000Y-72800000D03*
X156100000Y-69800000D03*
X153300000Y-69800000D03*
X162100000Y-64300000D03*
X162100000Y-63300000D03*
X138600000Y-89400000D03*
X147000000Y-89000000D03*
X152000000Y-96200000D03*
X167600000Y-93400000D03*
X168200000Y-93400000D03*
X168800000Y-93400000D03*
X168800000Y-94000000D03*
X168200000Y-94000000D03*
X167600000Y-94000000D03*
X167600000Y-94600000D03*
X168200000Y-94600000D03*
X168800000Y-94600000D03*
X167600000Y-95200000D03*
X168200000Y-95200000D03*
X168800000Y-95200000D03*
X156464000Y-90678000D03*
X158400000Y-90500000D03*
X150650000Y-86550000D03*
X154150000Y-84550000D03*
X154150000Y-85300000D03*
X156000000Y-95200000D03*
X139500000Y-67600000D03*
X139600000Y-64200000D03*
X139600000Y-72100000D03*
X139600000Y-68800000D03*
X139600000Y-72900000D03*
X140900000Y-63600000D03*
X144595000Y-66685000D03*
X125700000Y-64500000D03*
X125600000Y-68200000D03*
X124600000Y-70400000D03*
X125075000Y-85200000D03*
X125075000Y-83550000D03*
X127810000Y-64090000D03*
X153924000Y-88900000D03*
X139700000Y-76454000D03*
X126754797Y-91033600D03*
X126796800Y-96570800D03*
X135763000Y-90805000D03*
X136398000Y-90805000D03*
X137033000Y-90805000D03*
X137668000Y-90805000D03*
X138303000Y-90805000D03*
X162839400Y-87807800D03*
X165227000Y-89255600D03*
X163906200Y-90805000D03*
X147320000Y-91414600D03*
X124866400Y-95199200D03*
X128524000Y-92100400D03*
X161493200Y-89154000D03*
X154432000Y-90678000D03*
X160800000Y-64300000D03*
X160800000Y-63300000D03*
X159600000Y-84000000D03*
X157000000Y-83800000D03*
X150650000Y-83300000D03*
X137300000Y-87700000D03*
X141200000Y-79800000D03*
X140300000Y-76100000D03*
X140300000Y-72100000D03*
X140300000Y-67600000D03*
X145800000Y-84600000D03*
X148900000Y-96100000D03*
X137600000Y-77200000D03*
X163347400Y-82956400D03*
X161594800Y-90144600D03*
X160528000Y-90170000D03*
X159512000Y-90170000D03*
X158242000Y-88646000D03*
X127304800Y-91033600D03*
X169062400Y-87477600D03*
X147497800Y-93014800D03*
X139900000Y-91200000D03*
X141800000Y-91200000D03*
X145600000Y-87500000D03*
X145600000Y-90100000D03*
X141800000Y-90100000D03*
X141800000Y-88600000D03*
X138800000Y-76100000D03*
X138900000Y-72100000D03*
X138800000Y-67600000D03*
X137300000Y-72000000D03*
X140462000Y-81534000D03*
X141224000Y-81534000D03*
X141986000Y-81534000D03*
X142748000Y-81534000D03*
X143510000Y-81534000D03*
X144272000Y-81534000D03*
X147500000Y-96100000D03*
X153000000Y-94200000D03*
X153600000Y-94200000D03*
X154200000Y-94200000D03*
X152400000Y-94400000D03*
X133604000Y-91567000D03*
X134239000Y-91567000D03*
X134874000Y-91567000D03*
X135509000Y-91567000D03*
X136271000Y-91567000D03*
X159650000Y-95950000D03*
X159050000Y-95950000D03*
X160250000Y-95950000D03*
X132920000Y-68040000D03*
X124190000Y-66370000D03*
X129603500Y-95567500D03*
X125018800Y-96266000D03*
X143840200Y-86505010D03*
X138800000Y-84225000D03*
X159909680Y-82957720D03*
X123920600Y-95250000D03*
X139344400Y-86880010D03*
X136800000Y-81000000D03*
X136800000Y-81600000D03*
X168224200Y-89433400D03*
X159918400Y-93040200D03*
X161442400Y-67310000D03*
X157327600Y-67310000D03*
X162991800Y-86188200D03*
X144018000Y-90220800D03*
X147800000Y-90000000D03*
X147600000Y-86800000D03*
X157130000Y-79130000D03*
X124409200Y-95758000D03*
X124923779Y-88501118D03*
X135839200Y-85039200D03*
X157025000Y-80900000D03*
X124206000Y-91795600D03*
X124561600Y-88087200D03*
X136042400Y-85801200D03*
X158295000Y-80900000D03*
X158503454Y-84749293D03*
X157073600Y-86410800D03*
X157400263Y-77780000D03*
X156070000Y-93340000D03*
X130470000Y-73600000D03*
X154080000Y-83170000D03*
X146970000Y-82470000D03*
X147423960Y-90401369D03*
X151905010Y-84322807D03*
X150915000Y-84295010D03*
X144018000Y-93218000D03*
X141388910Y-70088910D03*
X150700000Y-70100000D03*
X141800000Y-70500000D03*
X149900000Y-70500000D03*
X142200000Y-70900000D03*
X148600000Y-70900000D03*
X141100000Y-65100000D03*
X149400000Y-65300000D03*
X141488910Y-65488910D03*
X148100000Y-65500000D03*
X141059411Y-65885001D03*
X151800000Y-65900000D03*
X141924202Y-74625002D03*
X146900000Y-74625002D03*
X142313526Y-75013497D03*
X151300000Y-74700000D03*
X141000000Y-69700000D03*
X152300000Y-68400000D03*
X141200000Y-73800000D03*
X153200000Y-74225002D03*
X141530001Y-74240002D03*
X155700000Y-74700000D03*
X128455000Y-72800000D03*
X128070000Y-74400000D03*
X127685000Y-75200000D03*
X127300000Y-76000000D03*
X130085000Y-76800000D03*
X129700000Y-77600000D03*
X129385000Y-78400000D03*
X129000000Y-79200000D03*
X131800000Y-80000000D03*
X131385004Y-80800000D03*
X131085000Y-81600000D03*
X130700000Y-82400000D03*
X148300000Y-85900000D03*
X146400000Y-86300000D03*
X148200000Y-84600000D03*
X147207763Y-84747763D03*
X161692400Y-95000000D03*
X161159000Y-95000000D03*
X160651000Y-95000000D03*
X163931600Y-87503000D03*
D15*
X130450000Y-70400000D02*
X124600000Y-70400000D01*
D16*
X127800000Y-64100000D02*
X127810000Y-64090000D01*
X130420000Y-85200000D02*
X125075000Y-85200000D01*
X130450000Y-85230000D02*
X130420000Y-85200000D01*
X130450000Y-85600000D02*
X130450000Y-85230000D01*
X130450000Y-84800000D02*
X130450000Y-85230000D01*
X130450000Y-84000000D02*
X130450000Y-84800000D01*
D17*
X130450000Y-84000000D02*
X130450000Y-85600000D01*
X130274999Y-84975001D02*
X130450000Y-84800000D01*
X125299999Y-84975001D02*
X130274999Y-84975001D01*
X125075000Y-85200000D02*
X125299999Y-84975001D01*
D15*
X124866400Y-95199200D02*
X127965200Y-92100400D01*
X127965200Y-92100400D02*
X128524000Y-92100400D01*
D17*
X136271000Y-91567000D02*
X132969000Y-91567000D01*
D16*
X132920000Y-68040000D02*
X129290000Y-68040000D01*
X127620000Y-66370000D02*
X124190000Y-66370000D01*
X129290000Y-68040000D02*
X127620000Y-66370000D01*
D15*
X125018800Y-96266000D02*
X131724400Y-89560400D01*
X135209602Y-89560400D02*
X136144000Y-88626002D01*
X131724400Y-89560400D02*
X135209602Y-89560400D01*
X136144000Y-88626002D02*
X136144000Y-87884000D01*
X136144000Y-87884000D02*
X137522990Y-86505010D01*
X137522990Y-86505010D02*
X143840200Y-86505010D01*
D16*
X159467280Y-82957720D02*
X159909680Y-82957720D01*
X156815199Y-84185001D02*
X158239999Y-84185001D01*
X158239999Y-84185001D02*
X159467280Y-82957720D01*
X139024999Y-84000001D02*
X148729999Y-84000001D01*
X138800000Y-84225000D02*
X139024999Y-84000001D01*
X149040000Y-83690000D02*
X156330000Y-83690000D01*
X148729999Y-84000001D02*
X149040000Y-83690000D01*
X156330000Y-83699802D02*
X156815199Y-84185001D01*
X156330000Y-83690000D02*
X156330000Y-83699802D01*
D15*
X125198801Y-96641001D02*
X125476000Y-96363802D01*
X124737199Y-96641001D02*
X125198801Y-96641001D01*
X123920600Y-95250000D02*
X123920600Y-95824402D01*
X125476000Y-96363802D02*
X125476000Y-96091656D01*
X123920600Y-95824402D02*
X124737199Y-96641001D01*
X131807246Y-89760410D02*
X135292448Y-89760410D01*
X125476000Y-96091656D02*
X131807246Y-89760410D01*
X135292448Y-89760410D02*
X136344010Y-88708848D01*
X136344010Y-87988790D02*
X137627780Y-86705020D01*
X136344010Y-88708848D02*
X136344010Y-87988790D01*
X137627780Y-86705020D02*
X139169410Y-86705020D01*
X139169410Y-86705020D02*
X139344400Y-86880010D01*
D18*
X136800000Y-82050000D02*
X136800000Y-81600000D01*
X130450000Y-83200000D02*
X135650000Y-83200000D01*
X135650000Y-83200000D02*
X136800000Y-82050000D01*
D15*
X167100210Y-90557390D02*
X168224200Y-89433400D01*
X167100210Y-94526689D02*
X167100210Y-90557390D01*
X166051899Y-95575000D02*
X167100210Y-94526689D01*
X160660301Y-95575000D02*
X166051899Y-95575000D01*
X160250990Y-95165689D02*
X160660301Y-95575000D01*
X160250990Y-93690988D02*
X160250990Y-95165689D01*
X159918400Y-93358398D02*
X160250990Y-93690988D01*
X159918400Y-93040200D02*
X159918400Y-93358398D01*
X161442400Y-67310000D02*
X157327600Y-67310000D01*
D16*
X147514999Y-89714999D02*
X147800000Y-90000000D01*
X147969802Y-86800000D02*
X149040000Y-85729802D01*
X147600000Y-86800000D02*
X147969802Y-86800000D01*
X149040000Y-84030000D02*
X149159990Y-83910010D01*
X149040000Y-85729802D02*
X149040000Y-84030000D01*
X160294681Y-83142521D02*
X160294681Y-82294681D01*
X160094481Y-83342721D02*
X160294681Y-83142521D01*
X149159990Y-83910010D02*
X156229067Y-83910010D01*
X160294681Y-82294681D02*
X157130000Y-79130000D01*
X156229067Y-83910010D02*
X156724068Y-84405011D01*
X156724068Y-84405011D02*
X158331130Y-84405011D01*
X158331130Y-84405011D02*
X159393420Y-83342721D01*
X159393420Y-83342721D02*
X160094481Y-83342721D01*
D15*
X144731399Y-89714999D02*
X144523801Y-89714999D01*
X144523801Y-89714999D02*
X144018000Y-90220800D01*
D16*
X144731399Y-89714999D02*
X147514999Y-89714999D01*
D15*
X124581001Y-91975601D02*
X124581001Y-88716201D01*
X124409200Y-95758000D02*
X124409200Y-92147402D01*
X124409200Y-92147402D02*
X124581001Y-91975601D01*
X124581001Y-88716201D02*
X124796084Y-88501118D01*
X124796084Y-88501118D02*
X124923779Y-88501118D01*
X136064199Y-84814201D02*
X136340143Y-84814201D01*
X135839200Y-85039200D02*
X136064199Y-84814201D01*
X138499554Y-82654790D02*
X145763954Y-82654790D01*
X136340143Y-84814201D02*
X138499554Y-82654790D01*
X145763954Y-82654790D02*
X146525952Y-81892792D01*
X146525952Y-81892792D02*
X156032208Y-81892792D01*
X156032208Y-81892792D02*
X157025000Y-80900000D01*
X124206000Y-91795600D02*
X124206000Y-88442800D01*
X124206000Y-88442800D02*
X124561600Y-88087200D01*
X158295000Y-82000000D02*
X158295000Y-80900000D01*
X158202200Y-82092800D02*
X158295000Y-82000000D01*
X145846800Y-82854800D02*
X146608800Y-82092800D01*
X138582400Y-82854800D02*
X145846800Y-82854800D01*
X146608800Y-82092800D02*
X158202200Y-82092800D01*
X136042400Y-85394800D02*
X138582400Y-82854800D01*
X136042400Y-85394800D02*
X136042400Y-85801200D01*
X158503454Y-84749293D02*
X157073600Y-86179147D01*
X157073600Y-86179147D02*
X157073600Y-86410800D01*
D16*
X156070000Y-92099802D02*
X156070000Y-93340000D01*
X160835001Y-87334801D02*
X156070000Y-92099802D01*
X157824802Y-77780000D02*
X160734701Y-80689899D01*
X160734701Y-80689899D02*
X160734701Y-84174899D01*
X157400263Y-77780000D02*
X157824802Y-77780000D01*
X160734701Y-84174899D02*
X160835001Y-84275199D01*
X160835001Y-84275199D02*
X160835001Y-87334801D01*
X154080000Y-83170000D02*
X153380000Y-82470000D01*
X153380000Y-82470000D02*
X146970000Y-82470000D01*
X151905010Y-84322807D02*
X150942797Y-84322807D01*
X150942797Y-84322807D02*
X150915000Y-84295010D01*
D15*
X144607329Y-93218000D02*
X147423960Y-90401369D01*
X144018000Y-93218000D02*
X144607329Y-93218000D01*
D16*
X141388910Y-70088910D02*
X150688910Y-70088910D01*
X150688910Y-70088910D02*
X150700000Y-70100000D01*
X141800000Y-70500000D02*
X149900000Y-70500000D01*
X142200000Y-70900000D02*
X148600000Y-70900000D01*
X141100000Y-65100000D02*
X149200000Y-65100000D01*
X149200000Y-65100000D02*
X149400000Y-65300000D01*
X141488910Y-65488910D02*
X148088910Y-65488910D01*
X148088910Y-65488910D02*
X148100000Y-65500000D01*
X141059411Y-65885001D02*
X151785001Y-65885001D01*
X151785001Y-65885001D02*
X151800000Y-65900000D01*
X141924202Y-74625002D02*
X146900000Y-74625002D01*
X142313526Y-75013497D02*
X150986503Y-75013497D01*
X150986503Y-75013497D02*
X151300000Y-74700000D01*
X141000000Y-69700000D02*
X151600000Y-69700000D01*
X151600000Y-69700000D02*
X152300000Y-69000000D01*
X152300000Y-69000000D02*
X152300000Y-68400000D01*
X141200000Y-73800000D02*
X152774998Y-73800000D01*
X152774998Y-73800000D02*
X153200000Y-74225002D01*
X141530001Y-74240002D02*
X152440002Y-74240002D01*
X152440002Y-74240002D02*
X152900000Y-74700000D01*
X152900000Y-74700000D02*
X155700000Y-74700000D01*
X128455000Y-72800000D02*
X130450000Y-72800000D01*
X128070000Y-74400000D02*
X130450000Y-74400000D01*
X127685000Y-75200000D02*
X130450000Y-75200000D01*
X130450000Y-76000000D02*
X127300000Y-76000000D01*
X130085000Y-76800000D02*
X130450000Y-76800000D01*
X129700000Y-77600000D02*
X130450000Y-77600000D01*
X129385000Y-78400000D02*
X130450000Y-78400000D01*
X129000000Y-79200000D02*
X130450000Y-79200000D01*
X131800000Y-80000000D02*
X130450000Y-80000000D01*
X131385004Y-80800000D02*
X130450000Y-80800000D01*
X131085000Y-81600000D02*
X130450000Y-81600000D01*
X130700000Y-82400000D02*
X130450000Y-82400000D01*
X137300000Y-85900000D02*
X148300000Y-85900000D01*
X135500000Y-87700000D02*
X137300000Y-85900000D01*
X130450000Y-88000000D02*
X135500000Y-88000000D01*
X135500000Y-87700000D02*
X135500000Y-88000000D01*
X135570000Y-88800000D02*
X135800000Y-88570000D01*
X130450000Y-88800000D02*
X135570000Y-88800000D01*
X135800000Y-87800000D02*
X137479990Y-86120010D01*
X135800000Y-88570000D02*
X135800000Y-87800000D01*
X137479990Y-86120010D02*
X140100000Y-86120010D01*
X146400000Y-86300000D02*
X146000000Y-86300000D01*
X146000000Y-86300000D02*
X145820010Y-86120010D01*
X145820010Y-86120010D02*
X139379990Y-86120010D01*
X147022962Y-84362762D02*
X147962762Y-84362762D01*
X147962762Y-84362762D02*
X148200000Y-84600000D01*
X146822762Y-84562962D02*
X147022962Y-84362762D01*
X146822762Y-84777238D02*
X146822762Y-84562962D01*
X136058859Y-86400000D02*
X136998879Y-85459980D01*
X136998879Y-85459980D02*
X146000000Y-85400000D01*
X130450000Y-86400000D02*
X136058859Y-86400000D01*
X146000000Y-85400000D02*
X146200000Y-85400000D01*
X146200000Y-85400000D02*
X146822762Y-84777238D01*
X147207763Y-84747763D02*
X146275536Y-85679990D01*
X135570000Y-87200000D02*
X130450000Y-87200000D01*
X137090010Y-85679990D02*
X135570000Y-87200000D01*
X146275536Y-85679990D02*
X137090010Y-85679990D01*
D17*
X160651000Y-95000000D02*
X166061200Y-95000000D01*
X166061200Y-95000000D02*
X166700200Y-94361000D01*
X166700200Y-94361000D02*
X166700200Y-88417400D01*
X166700200Y-88417400D02*
X165785800Y-87503000D01*
X165785800Y-87503000D02*
X163931600Y-87503000D01*
D19*
G36*
X132316955Y-90922947D02*
G01*
X132277228Y-90906492D01*
X132180243Y-90887200D01*
X132081357Y-90887200D01*
X131984372Y-90906492D01*
X131893014Y-90944333D01*
X131810794Y-90999271D01*
X131740871Y-91069194D01*
X131685933Y-91151414D01*
X131648092Y-91242772D01*
X131628800Y-91339757D01*
X131628800Y-91438643D01*
X131648092Y-91535628D01*
X131685933Y-91626986D01*
X131740871Y-91709206D01*
X131810794Y-91779129D01*
X131893014Y-91834067D01*
X131984372Y-91871908D01*
X132081357Y-91891200D01*
X132180243Y-91891200D01*
X132277228Y-91871908D01*
X132368586Y-91834067D01*
X132450806Y-91779129D01*
X132520729Y-91709206D01*
X132575667Y-91626986D01*
X132613508Y-91535628D01*
X132632800Y-91438643D01*
X132632800Y-91339757D01*
X132613508Y-91242772D01*
X132575667Y-91151414D01*
X132520729Y-91069194D01*
X132495289Y-91043754D01*
X136128772Y-93505146D01*
X136150654Y-93517021D01*
X136174432Y-93524400D01*
X136200000Y-93527000D01*
X143620717Y-93527000D01*
X143628071Y-93538006D01*
X143697994Y-93607929D01*
X143780214Y-93662867D01*
X143871572Y-93700708D01*
X143968557Y-93720000D01*
X144067443Y-93720000D01*
X144164428Y-93700708D01*
X144255786Y-93662867D01*
X144338006Y-93607929D01*
X144400935Y-93545000D01*
X144591268Y-93545000D01*
X144607329Y-93546582D01*
X144623390Y-93545000D01*
X144671432Y-93540268D01*
X144715171Y-93527000D01*
X155604097Y-93527000D01*
X155625133Y-93577786D01*
X155680071Y-93660006D01*
X155749994Y-93729929D01*
X155832214Y-93784867D01*
X155923572Y-93822708D01*
X156020557Y-93842000D01*
X156119443Y-93842000D01*
X156216428Y-93822708D01*
X156307786Y-93784867D01*
X156390006Y-93729929D01*
X156459929Y-93660006D01*
X156514867Y-93577786D01*
X156535903Y-93527000D01*
X158247392Y-93527000D01*
X158343005Y-93622613D01*
X158104140Y-93688137D01*
X157988240Y-93935116D01*
X157922750Y-94199960D01*
X157910188Y-94472492D01*
X157951035Y-94742238D01*
X158043723Y-94998832D01*
X158104140Y-95111863D01*
X158343007Y-95177388D01*
X159120395Y-94400000D01*
X159106253Y-94385858D01*
X159285858Y-94206253D01*
X159300000Y-94220395D01*
X159314143Y-94206253D01*
X159493748Y-94385858D01*
X159479605Y-94400000D01*
X159493748Y-94414143D01*
X159314143Y-94593748D01*
X159300000Y-94579605D01*
X158522612Y-95356993D01*
X158588137Y-95595860D01*
X158835116Y-95711760D01*
X159099960Y-95777250D01*
X159372492Y-95789812D01*
X159642238Y-95748965D01*
X159898832Y-95656277D01*
X160011863Y-95595860D01*
X160056391Y-95433537D01*
X160273000Y-95650147D01*
X160273000Y-96873000D01*
X127198627Y-96873000D01*
X127241667Y-96808586D01*
X127279508Y-96717228D01*
X127298800Y-96620243D01*
X127298800Y-96521357D01*
X127279508Y-96424372D01*
X127241667Y-96333014D01*
X127186729Y-96250794D01*
X127116806Y-96180871D01*
X127034586Y-96125933D01*
X126943228Y-96088092D01*
X126846243Y-96068800D01*
X126747357Y-96068800D01*
X126650372Y-96088092D01*
X126559014Y-96125933D01*
X126476794Y-96180871D01*
X126406871Y-96250794D01*
X126351933Y-96333014D01*
X126314092Y-96424372D01*
X126294800Y-96521357D01*
X126294800Y-96620243D01*
X126314092Y-96717228D01*
X126351933Y-96808586D01*
X126394973Y-96873000D01*
X125431426Y-96873000D01*
X125441389Y-96860860D01*
X125695865Y-96606385D01*
X125708343Y-96596145D01*
X125749206Y-96546352D01*
X125779570Y-96489545D01*
X125789002Y-96458451D01*
X125798268Y-96427906D01*
X125804582Y-96363802D01*
X125803000Y-96347741D01*
X125803000Y-96227103D01*
X126563754Y-95466349D01*
X128576500Y-95466349D01*
X128576500Y-95668651D01*
X128615967Y-95867065D01*
X128693385Y-96053967D01*
X128805777Y-96222174D01*
X128948826Y-96365223D01*
X129117033Y-96477615D01*
X129303935Y-96555033D01*
X129502349Y-96594500D01*
X129704651Y-96594500D01*
X129903065Y-96555033D01*
X130089967Y-96477615D01*
X130258174Y-96365223D01*
X130401223Y-96222174D01*
X130513615Y-96053967D01*
X130515027Y-96050557D01*
X145398000Y-96050557D01*
X145398000Y-96149443D01*
X145417292Y-96246428D01*
X145455133Y-96337786D01*
X145510071Y-96420006D01*
X145579994Y-96489929D01*
X145662214Y-96544867D01*
X145753572Y-96582708D01*
X145850557Y-96602000D01*
X145949443Y-96602000D01*
X146046428Y-96582708D01*
X146137786Y-96544867D01*
X146220006Y-96489929D01*
X146289929Y-96420006D01*
X146344867Y-96337786D01*
X146382708Y-96246428D01*
X146402000Y-96149443D01*
X146402000Y-96050557D01*
X148398000Y-96050557D01*
X148398000Y-96149443D01*
X148417292Y-96246428D01*
X148455133Y-96337786D01*
X148510071Y-96420006D01*
X148579994Y-96489929D01*
X148662214Y-96544867D01*
X148753572Y-96582708D01*
X148850557Y-96602000D01*
X148949443Y-96602000D01*
X149046428Y-96582708D01*
X149137786Y-96544867D01*
X149220006Y-96489929D01*
X149289929Y-96420006D01*
X149344867Y-96337786D01*
X149382708Y-96246428D01*
X149401778Y-96150557D01*
X151498000Y-96150557D01*
X151498000Y-96249443D01*
X151517292Y-96346428D01*
X151555133Y-96437786D01*
X151610071Y-96520006D01*
X151679994Y-96589929D01*
X151762214Y-96644867D01*
X151853572Y-96682708D01*
X151950557Y-96702000D01*
X152049443Y-96702000D01*
X152146428Y-96682708D01*
X152237786Y-96644867D01*
X152320006Y-96589929D01*
X152389929Y-96520006D01*
X152444867Y-96437786D01*
X152482708Y-96346428D01*
X152502000Y-96249443D01*
X152502000Y-96150557D01*
X152482708Y-96053572D01*
X152444867Y-95962214D01*
X152389929Y-95879994D01*
X152320006Y-95810071D01*
X152237786Y-95755133D01*
X152146428Y-95717292D01*
X152049443Y-95698000D01*
X151950557Y-95698000D01*
X151853572Y-95717292D01*
X151762214Y-95755133D01*
X151679994Y-95810071D01*
X151610071Y-95879994D01*
X151555133Y-95962214D01*
X151517292Y-96053572D01*
X151498000Y-96150557D01*
X149401778Y-96150557D01*
X149402000Y-96149443D01*
X149402000Y-96050557D01*
X149382708Y-95953572D01*
X149344867Y-95862214D01*
X149289929Y-95779994D01*
X149220006Y-95710071D01*
X149137786Y-95655133D01*
X149046428Y-95617292D01*
X148949443Y-95598000D01*
X148850557Y-95598000D01*
X148753572Y-95617292D01*
X148662214Y-95655133D01*
X148579994Y-95710071D01*
X148510071Y-95779994D01*
X148455133Y-95862214D01*
X148417292Y-95953572D01*
X148398000Y-96050557D01*
X146402000Y-96050557D01*
X146382708Y-95953572D01*
X146344867Y-95862214D01*
X146289929Y-95779994D01*
X146220006Y-95710071D01*
X146137786Y-95655133D01*
X146046428Y-95617292D01*
X145949443Y-95598000D01*
X145850557Y-95598000D01*
X145753572Y-95617292D01*
X145662214Y-95655133D01*
X145579994Y-95710071D01*
X145510071Y-95779994D01*
X145455133Y-95862214D01*
X145417292Y-95953572D01*
X145398000Y-96050557D01*
X130515027Y-96050557D01*
X130591033Y-95867065D01*
X130630500Y-95668651D01*
X130630500Y-95466349D01*
X130591033Y-95267935D01*
X130542414Y-95150557D01*
X155498000Y-95150557D01*
X155498000Y-95249443D01*
X155517292Y-95346428D01*
X155555133Y-95437786D01*
X155610071Y-95520006D01*
X155679994Y-95589929D01*
X155762214Y-95644867D01*
X155853572Y-95682708D01*
X155950557Y-95702000D01*
X156049443Y-95702000D01*
X156146428Y-95682708D01*
X156237786Y-95644867D01*
X156320006Y-95589929D01*
X156389929Y-95520006D01*
X156444867Y-95437786D01*
X156482708Y-95346428D01*
X156502000Y-95249443D01*
X156502000Y-95150557D01*
X156482708Y-95053572D01*
X156444867Y-94962214D01*
X156389929Y-94879994D01*
X156320006Y-94810071D01*
X156237786Y-94755133D01*
X156146428Y-94717292D01*
X156049443Y-94698000D01*
X155950557Y-94698000D01*
X155853572Y-94717292D01*
X155762214Y-94755133D01*
X155679994Y-94810071D01*
X155610071Y-94879994D01*
X155555133Y-94962214D01*
X155517292Y-95053572D01*
X155498000Y-95150557D01*
X130542414Y-95150557D01*
X130513615Y-95081033D01*
X130401223Y-94912826D01*
X130258174Y-94769777D01*
X130089967Y-94657385D01*
X129903065Y-94579967D01*
X129704651Y-94540500D01*
X129502349Y-94540500D01*
X129303935Y-94579967D01*
X129117033Y-94657385D01*
X128948826Y-94769777D01*
X128805777Y-94912826D01*
X128693385Y-95081033D01*
X128615967Y-95267935D01*
X128576500Y-95466349D01*
X126563754Y-95466349D01*
X131595729Y-90434375D01*
X132316955Y-90922947D01*
G37*
X132316955Y-90922947D02*
X132277228Y-90906492D01*
X132180243Y-90887200D01*
X132081357Y-90887200D01*
X131984372Y-90906492D01*
X131893014Y-90944333D01*
X131810794Y-90999271D01*
X131740871Y-91069194D01*
X131685933Y-91151414D01*
X131648092Y-91242772D01*
X131628800Y-91339757D01*
X131628800Y-91438643D01*
X131648092Y-91535628D01*
X131685933Y-91626986D01*
X131740871Y-91709206D01*
X131810794Y-91779129D01*
X131893014Y-91834067D01*
X131984372Y-91871908D01*
X132081357Y-91891200D01*
X132180243Y-91891200D01*
X132277228Y-91871908D01*
X132368586Y-91834067D01*
X132450806Y-91779129D01*
X132520729Y-91709206D01*
X132575667Y-91626986D01*
X132613508Y-91535628D01*
X132632800Y-91438643D01*
X132632800Y-91339757D01*
X132613508Y-91242772D01*
X132575667Y-91151414D01*
X132520729Y-91069194D01*
X132495289Y-91043754D01*
X136128772Y-93505146D01*
X136150654Y-93517021D01*
X136174432Y-93524400D01*
X136200000Y-93527000D01*
X143620717Y-93527000D01*
X143628071Y-93538006D01*
X143697994Y-93607929D01*
X143780214Y-93662867D01*
X143871572Y-93700708D01*
X143968557Y-93720000D01*
X144067443Y-93720000D01*
X144164428Y-93700708D01*
X144255786Y-93662867D01*
X144338006Y-93607929D01*
X144400935Y-93545000D01*
X144591268Y-93545000D01*
X144607329Y-93546582D01*
X144623390Y-93545000D01*
X144671432Y-93540268D01*
X144715171Y-93527000D01*
X155604097Y-93527000D01*
X155625133Y-93577786D01*
X155680071Y-93660006D01*
X155749994Y-93729929D01*
X155832214Y-93784867D01*
X155923572Y-93822708D01*
X156020557Y-93842000D01*
X156119443Y-93842000D01*
X156216428Y-93822708D01*
X156307786Y-93784867D01*
X156390006Y-93729929D01*
X156459929Y-93660006D01*
X156514867Y-93577786D01*
X156535903Y-93527000D01*
X158247392Y-93527000D01*
X158343005Y-93622613D01*
X158104140Y-93688137D01*
X157988240Y-93935116D01*
X157922750Y-94199960D01*
X157910188Y-94472492D01*
X157951035Y-94742238D01*
X158043723Y-94998832D01*
X158104140Y-95111863D01*
X158343007Y-95177388D01*
X159120395Y-94400000D01*
X159106253Y-94385858D01*
X159285858Y-94206253D01*
X159300000Y-94220395D01*
X159314143Y-94206253D01*
X159493748Y-94385858D01*
X159479605Y-94400000D01*
X159493748Y-94414143D01*
X159314143Y-94593748D01*
X159300000Y-94579605D01*
X158522612Y-95356993D01*
X158588137Y-95595860D01*
X158835116Y-95711760D01*
X159099960Y-95777250D01*
X159372492Y-95789812D01*
X159642238Y-95748965D01*
X159898832Y-95656277D01*
X160011863Y-95595860D01*
X160056391Y-95433537D01*
X160273000Y-95650147D01*
X160273000Y-96873000D01*
X127198627Y-96873000D01*
X127241667Y-96808586D01*
X127279508Y-96717228D01*
X127298800Y-96620243D01*
X127298800Y-96521357D01*
X127279508Y-96424372D01*
X127241667Y-96333014D01*
X127186729Y-96250794D01*
X127116806Y-96180871D01*
X127034586Y-96125933D01*
X126943228Y-96088092D01*
X126846243Y-96068800D01*
X126747357Y-96068800D01*
X126650372Y-96088092D01*
X126559014Y-96125933D01*
X126476794Y-96180871D01*
X126406871Y-96250794D01*
X126351933Y-96333014D01*
X126314092Y-96424372D01*
X126294800Y-96521357D01*
X126294800Y-96620243D01*
X126314092Y-96717228D01*
X126351933Y-96808586D01*
X126394973Y-96873000D01*
X125431426Y-96873000D01*
X125441389Y-96860860D01*
X125695865Y-96606385D01*
X125708343Y-96596145D01*
X125749206Y-96546352D01*
X125779570Y-96489545D01*
X125789002Y-96458451D01*
X125798268Y-96427906D01*
X125804582Y-96363802D01*
X125803000Y-96347741D01*
X125803000Y-96227103D01*
X126563754Y-95466349D01*
X128576500Y-95466349D01*
X128576500Y-95668651D01*
X128615967Y-95867065D01*
X128693385Y-96053967D01*
X128805777Y-96222174D01*
X128948826Y-96365223D01*
X129117033Y-96477615D01*
X129303935Y-96555033D01*
X129502349Y-96594500D01*
X129704651Y-96594500D01*
X129903065Y-96555033D01*
X130089967Y-96477615D01*
X130258174Y-96365223D01*
X130401223Y-96222174D01*
X130513615Y-96053967D01*
X130515027Y-96050557D01*
X145398000Y-96050557D01*
X145398000Y-96149443D01*
X145417292Y-96246428D01*
X145455133Y-96337786D01*
X145510071Y-96420006D01*
X145579994Y-96489929D01*
X145662214Y-96544867D01*
X145753572Y-96582708D01*
X145850557Y-96602000D01*
X145949443Y-96602000D01*
X146046428Y-96582708D01*
X146137786Y-96544867D01*
X146220006Y-96489929D01*
X146289929Y-96420006D01*
X146344867Y-96337786D01*
X146382708Y-96246428D01*
X146402000Y-96149443D01*
X146402000Y-96050557D01*
X148398000Y-96050557D01*
X148398000Y-96149443D01*
X148417292Y-96246428D01*
X148455133Y-96337786D01*
X148510071Y-96420006D01*
X148579994Y-96489929D01*
X148662214Y-96544867D01*
X148753572Y-96582708D01*
X148850557Y-96602000D01*
X148949443Y-96602000D01*
X149046428Y-96582708D01*
X149137786Y-96544867D01*
X149220006Y-96489929D01*
X149289929Y-96420006D01*
X149344867Y-96337786D01*
X149382708Y-96246428D01*
X149401778Y-96150557D01*
X151498000Y-96150557D01*
X151498000Y-96249443D01*
X151517292Y-96346428D01*
X151555133Y-96437786D01*
X151610071Y-96520006D01*
X151679994Y-96589929D01*
X151762214Y-96644867D01*
X151853572Y-96682708D01*
X151950557Y-96702000D01*
X152049443Y-96702000D01*
X152146428Y-96682708D01*
X152237786Y-96644867D01*
X152320006Y-96589929D01*
X152389929Y-96520006D01*
X152444867Y-96437786D01*
X152482708Y-96346428D01*
X152502000Y-96249443D01*
X152502000Y-96150557D01*
X152482708Y-96053572D01*
X152444867Y-95962214D01*
X152389929Y-95879994D01*
X152320006Y-95810071D01*
X152237786Y-95755133D01*
X152146428Y-95717292D01*
X152049443Y-95698000D01*
X151950557Y-95698000D01*
X151853572Y-95717292D01*
X151762214Y-95755133D01*
X151679994Y-95810071D01*
X151610071Y-95879994D01*
X151555133Y-95962214D01*
X151517292Y-96053572D01*
X151498000Y-96150557D01*
X149401778Y-96150557D01*
X149402000Y-96149443D01*
X149402000Y-96050557D01*
X149382708Y-95953572D01*
X149344867Y-95862214D01*
X149289929Y-95779994D01*
X149220006Y-95710071D01*
X149137786Y-95655133D01*
X149046428Y-95617292D01*
X148949443Y-95598000D01*
X148850557Y-95598000D01*
X148753572Y-95617292D01*
X148662214Y-95655133D01*
X148579994Y-95710071D01*
X148510071Y-95779994D01*
X148455133Y-95862214D01*
X148417292Y-95953572D01*
X148398000Y-96050557D01*
X146402000Y-96050557D01*
X146382708Y-95953572D01*
X146344867Y-95862214D01*
X146289929Y-95779994D01*
X146220006Y-95710071D01*
X146137786Y-95655133D01*
X146046428Y-95617292D01*
X145949443Y-95598000D01*
X145850557Y-95598000D01*
X145753572Y-95617292D01*
X145662214Y-95655133D01*
X145579994Y-95710071D01*
X145510071Y-95779994D01*
X145455133Y-95862214D01*
X145417292Y-95953572D01*
X145398000Y-96050557D01*
X130515027Y-96050557D01*
X130591033Y-95867065D01*
X130630500Y-95668651D01*
X130630500Y-95466349D01*
X130591033Y-95267935D01*
X130542414Y-95150557D01*
X155498000Y-95150557D01*
X155498000Y-95249443D01*
X155517292Y-95346428D01*
X155555133Y-95437786D01*
X155610071Y-95520006D01*
X155679994Y-95589929D01*
X155762214Y-95644867D01*
X155853572Y-95682708D01*
X155950557Y-95702000D01*
X156049443Y-95702000D01*
X156146428Y-95682708D01*
X156237786Y-95644867D01*
X156320006Y-95589929D01*
X156389929Y-95520006D01*
X156444867Y-95437786D01*
X156482708Y-95346428D01*
X156502000Y-95249443D01*
X156502000Y-95150557D01*
X156482708Y-95053572D01*
X156444867Y-94962214D01*
X156389929Y-94879994D01*
X156320006Y-94810071D01*
X156237786Y-94755133D01*
X156146428Y-94717292D01*
X156049443Y-94698000D01*
X155950557Y-94698000D01*
X155853572Y-94717292D01*
X155762214Y-94755133D01*
X155679994Y-94810071D01*
X155610071Y-94879994D01*
X155555133Y-94962214D01*
X155517292Y-95053572D01*
X155498000Y-95150557D01*
X130542414Y-95150557D01*
X130513615Y-95081033D01*
X130401223Y-94912826D01*
X130258174Y-94769777D01*
X130089967Y-94657385D01*
X129903065Y-94579967D01*
X129704651Y-94540500D01*
X129502349Y-94540500D01*
X129303935Y-94579967D01*
X129117033Y-94657385D01*
X128948826Y-94769777D01*
X128805777Y-94912826D01*
X128693385Y-95081033D01*
X128615967Y-95267935D01*
X128576500Y-95466349D01*
X126563754Y-95466349D01*
X131595729Y-90434375D01*
X132316955Y-90922947D01*
D20*
G36*
X160449702Y-84160899D02*
G01*
X160448323Y-84174899D01*
X160453826Y-84230768D01*
X160463061Y-84261210D01*
X160470123Y-84284491D01*
X160496587Y-84334002D01*
X160532202Y-84377399D01*
X160543071Y-84386319D01*
X160550001Y-84393249D01*
X160550002Y-87216749D01*
X156836986Y-90929766D01*
X156862785Y-90891155D01*
X156896706Y-90809260D01*
X156914000Y-90722321D01*
X156914000Y-90633679D01*
X156896706Y-90546740D01*
X156862785Y-90464845D01*
X156813538Y-90391142D01*
X156750858Y-90328462D01*
X156677155Y-90279215D01*
X156595260Y-90245294D01*
X156508321Y-90228000D01*
X156419679Y-90228000D01*
X156332740Y-90245294D01*
X156250845Y-90279215D01*
X156177142Y-90328462D01*
X156114462Y-90391142D01*
X156065215Y-90464845D01*
X156031294Y-90546740D01*
X156014000Y-90633679D01*
X156014000Y-90722321D01*
X156031294Y-90809260D01*
X156065215Y-90891155D01*
X156114462Y-90964858D01*
X156177142Y-91027538D01*
X156250845Y-91076785D01*
X156332740Y-91110706D01*
X156419679Y-91128000D01*
X156508321Y-91128000D01*
X156595260Y-91110706D01*
X156677155Y-91076785D01*
X156715766Y-91050986D01*
X155878374Y-91888378D01*
X155867500Y-91897302D01*
X155831885Y-91940700D01*
X155805421Y-91990211D01*
X155793500Y-92029510D01*
X155789125Y-92043933D01*
X155783622Y-92099802D01*
X155785000Y-92113792D01*
X155785001Y-92989220D01*
X155783142Y-92990462D01*
X155720462Y-93053142D01*
X155672448Y-93125000D01*
X147934695Y-93125000D01*
X147947800Y-93059121D01*
X147947800Y-92970479D01*
X147930506Y-92883540D01*
X147896585Y-92801645D01*
X147847338Y-92727942D01*
X147784658Y-92665262D01*
X147710955Y-92616015D01*
X147629060Y-92582094D01*
X147542121Y-92564800D01*
X147453479Y-92564800D01*
X147366540Y-92582094D01*
X147284645Y-92616015D01*
X147210942Y-92665262D01*
X147148262Y-92727942D01*
X147099015Y-92801645D01*
X147065094Y-92883540D01*
X147047800Y-92970479D01*
X147047800Y-93059121D01*
X147060905Y-93125000D01*
X145089237Y-93125000D01*
X146876466Y-91337771D01*
X146870000Y-91370279D01*
X146870000Y-91458921D01*
X146887294Y-91545860D01*
X146921215Y-91627755D01*
X146970462Y-91701458D01*
X147033142Y-91764138D01*
X147106845Y-91813385D01*
X147188740Y-91847306D01*
X147275679Y-91864600D01*
X147364321Y-91864600D01*
X147451260Y-91847306D01*
X147533155Y-91813385D01*
X147606858Y-91764138D01*
X147669538Y-91701458D01*
X147718785Y-91627755D01*
X147752706Y-91545860D01*
X147770000Y-91458921D01*
X147770000Y-91370279D01*
X147752706Y-91283340D01*
X147718785Y-91201445D01*
X147669538Y-91127742D01*
X147606858Y-91065062D01*
X147533155Y-91015815D01*
X147451260Y-90981894D01*
X147364321Y-90964600D01*
X147275679Y-90964600D01*
X147243171Y-90971066D01*
X147365651Y-90848587D01*
X147379639Y-90851369D01*
X147468281Y-90851369D01*
X147555220Y-90834075D01*
X147637115Y-90800154D01*
X147710818Y-90750907D01*
X147773498Y-90688227D01*
X147809945Y-90633679D01*
X152458000Y-90633679D01*
X152458000Y-90722321D01*
X152475294Y-90809260D01*
X152509215Y-90891155D01*
X152558462Y-90964858D01*
X152621142Y-91027538D01*
X152694845Y-91076785D01*
X152776740Y-91110706D01*
X152863679Y-91128000D01*
X152952321Y-91128000D01*
X153039260Y-91110706D01*
X153121155Y-91076785D01*
X153194858Y-91027538D01*
X153257538Y-90964858D01*
X153306785Y-90891155D01*
X153340706Y-90809260D01*
X153358000Y-90722321D01*
X153358000Y-90633679D01*
X153982000Y-90633679D01*
X153982000Y-90722321D01*
X153999294Y-90809260D01*
X154033215Y-90891155D01*
X154082462Y-90964858D01*
X154145142Y-91027538D01*
X154218845Y-91076785D01*
X154300740Y-91110706D01*
X154387679Y-91128000D01*
X154476321Y-91128000D01*
X154563260Y-91110706D01*
X154645155Y-91076785D01*
X154718858Y-91027538D01*
X154781538Y-90964858D01*
X154830785Y-90891155D01*
X154864706Y-90809260D01*
X154882000Y-90722321D01*
X154882000Y-90633679D01*
X154864706Y-90546740D01*
X154830785Y-90464845D01*
X154781538Y-90391142D01*
X154718858Y-90328462D01*
X154645155Y-90279215D01*
X154563260Y-90245294D01*
X154476321Y-90228000D01*
X154387679Y-90228000D01*
X154300740Y-90245294D01*
X154218845Y-90279215D01*
X154145142Y-90328462D01*
X154082462Y-90391142D01*
X154033215Y-90464845D01*
X153999294Y-90546740D01*
X153982000Y-90633679D01*
X153358000Y-90633679D01*
X153340706Y-90546740D01*
X153306785Y-90464845D01*
X153257538Y-90391142D01*
X153194858Y-90328462D01*
X153121155Y-90279215D01*
X153039260Y-90245294D01*
X152952321Y-90228000D01*
X152863679Y-90228000D01*
X152776740Y-90245294D01*
X152694845Y-90279215D01*
X152621142Y-90328462D01*
X152558462Y-90391142D01*
X152509215Y-90464845D01*
X152475294Y-90546740D01*
X152458000Y-90633679D01*
X147809945Y-90633679D01*
X147822745Y-90614524D01*
X147856666Y-90532629D01*
X147873960Y-90445690D01*
X147873960Y-90444104D01*
X147931260Y-90432706D01*
X148013155Y-90398785D01*
X148086858Y-90349538D01*
X148149538Y-90286858D01*
X148198785Y-90213155D01*
X148232706Y-90131260D01*
X148250000Y-90044321D01*
X148250000Y-89955679D01*
X148232706Y-89868740D01*
X148198785Y-89786845D01*
X148149538Y-89713142D01*
X148086858Y-89650462D01*
X148013155Y-89601215D01*
X147931260Y-89567294D01*
X147844321Y-89550000D01*
X147755679Y-89550000D01*
X147753486Y-89550436D01*
X147726423Y-89523373D01*
X147717499Y-89512499D01*
X147674102Y-89476884D01*
X147624591Y-89450420D01*
X147570869Y-89434124D01*
X147528989Y-89429999D01*
X147514999Y-89428621D01*
X147501009Y-89429999D01*
X147137795Y-89429999D01*
X147213155Y-89398785D01*
X147286858Y-89349538D01*
X147349538Y-89286858D01*
X147398785Y-89213155D01*
X147432706Y-89131260D01*
X147450000Y-89044321D01*
X147450000Y-88955679D01*
X147432706Y-88868740D01*
X147427297Y-88855679D01*
X153474000Y-88855679D01*
X153474000Y-88944321D01*
X153491294Y-89031260D01*
X153525215Y-89113155D01*
X153574462Y-89186858D01*
X153637142Y-89249538D01*
X153710845Y-89298785D01*
X153792740Y-89332706D01*
X153879679Y-89350000D01*
X153968321Y-89350000D01*
X154055260Y-89332706D01*
X154137155Y-89298785D01*
X154210858Y-89249538D01*
X154273538Y-89186858D01*
X154322785Y-89113155D01*
X154356706Y-89031260D01*
X154374000Y-88944321D01*
X154374000Y-88855679D01*
X154356706Y-88768740D01*
X154322785Y-88686845D01*
X154273538Y-88613142D01*
X154262075Y-88601679D01*
X157792000Y-88601679D01*
X157792000Y-88690321D01*
X157809294Y-88777260D01*
X157843215Y-88859155D01*
X157892462Y-88932858D01*
X157955142Y-88995538D01*
X158028845Y-89044785D01*
X158110740Y-89078706D01*
X158197679Y-89096000D01*
X158286321Y-89096000D01*
X158373260Y-89078706D01*
X158455155Y-89044785D01*
X158528858Y-88995538D01*
X158591538Y-88932858D01*
X158640785Y-88859155D01*
X158674706Y-88777260D01*
X158692000Y-88690321D01*
X158692000Y-88601679D01*
X158674706Y-88514740D01*
X158640785Y-88432845D01*
X158591538Y-88359142D01*
X158528858Y-88296462D01*
X158455155Y-88247215D01*
X158373260Y-88213294D01*
X158286321Y-88196000D01*
X158197679Y-88196000D01*
X158110740Y-88213294D01*
X158028845Y-88247215D01*
X157955142Y-88296462D01*
X157892462Y-88359142D01*
X157843215Y-88432845D01*
X157809294Y-88514740D01*
X157792000Y-88601679D01*
X154262075Y-88601679D01*
X154210858Y-88550462D01*
X154137155Y-88501215D01*
X154055260Y-88467294D01*
X153968321Y-88450000D01*
X153879679Y-88450000D01*
X153792740Y-88467294D01*
X153710845Y-88501215D01*
X153637142Y-88550462D01*
X153574462Y-88613142D01*
X153525215Y-88686845D01*
X153491294Y-88768740D01*
X153474000Y-88855679D01*
X147427297Y-88855679D01*
X147398785Y-88786845D01*
X147349538Y-88713142D01*
X147286858Y-88650462D01*
X147213155Y-88601215D01*
X147131260Y-88567294D01*
X147044321Y-88550000D01*
X146955679Y-88550000D01*
X146868740Y-88567294D01*
X146786845Y-88601215D01*
X146713142Y-88650462D01*
X146650462Y-88713142D01*
X146601215Y-88786845D01*
X146567294Y-88868740D01*
X146550000Y-88955679D01*
X146550000Y-89044321D01*
X146567294Y-89131260D01*
X146601215Y-89213155D01*
X146650462Y-89286858D01*
X146713142Y-89349538D01*
X146786845Y-89398785D01*
X146862205Y-89429999D01*
X144717409Y-89429999D01*
X144675529Y-89434124D01*
X144656161Y-89439999D01*
X144537304Y-89439999D01*
X144523801Y-89438669D01*
X144510298Y-89439999D01*
X144469892Y-89443979D01*
X144418054Y-89459703D01*
X144370280Y-89485239D01*
X144328406Y-89519604D01*
X144319797Y-89530094D01*
X144076309Y-89773583D01*
X144062321Y-89770800D01*
X143973679Y-89770800D01*
X143886740Y-89788094D01*
X143804845Y-89822015D01*
X143731142Y-89871262D01*
X143668462Y-89933942D01*
X143619215Y-90007645D01*
X143585294Y-90089540D01*
X143568000Y-90176479D01*
X143568000Y-90265121D01*
X143585294Y-90352060D01*
X143619215Y-90433955D01*
X143668462Y-90507658D01*
X143731142Y-90570338D01*
X143804845Y-90619585D01*
X143886740Y-90653506D01*
X143973679Y-90670800D01*
X144062321Y-90670800D01*
X144149260Y-90653506D01*
X144231155Y-90619585D01*
X144304858Y-90570338D01*
X144367538Y-90507658D01*
X144416785Y-90433955D01*
X144450706Y-90352060D01*
X144468000Y-90265121D01*
X144468000Y-90176479D01*
X144465217Y-90162491D01*
X144637710Y-89989999D01*
X144656161Y-89989999D01*
X144675529Y-89995874D01*
X144717409Y-89999999D01*
X147217046Y-89999999D01*
X147210805Y-90002584D01*
X147137102Y-90051831D01*
X147074422Y-90114511D01*
X147025175Y-90188214D01*
X146991254Y-90270109D01*
X146973960Y-90357048D01*
X146973960Y-90445690D01*
X146976742Y-90459678D01*
X145714888Y-91721533D01*
X145714888Y-91550000D01*
X145710544Y-91505892D01*
X145697678Y-91463480D01*
X145676785Y-91424392D01*
X145648668Y-91390132D01*
X145614408Y-91362015D01*
X145575320Y-91341122D01*
X145532908Y-91328256D01*
X145488800Y-91323912D01*
X143888800Y-91323912D01*
X143844692Y-91328256D01*
X143802280Y-91341122D01*
X143763192Y-91362015D01*
X143728932Y-91390132D01*
X143700815Y-91424392D01*
X143679922Y-91463480D01*
X143667056Y-91505892D01*
X143662712Y-91550000D01*
X143662712Y-92050000D01*
X143667056Y-92094108D01*
X143679922Y-92136520D01*
X143700815Y-92175608D01*
X143728932Y-92209868D01*
X143763192Y-92237985D01*
X143802280Y-92258878D01*
X143844692Y-92271744D01*
X143888800Y-92276088D01*
X145160333Y-92276088D01*
X144493421Y-92943000D01*
X144375461Y-92943000D01*
X144367538Y-92931142D01*
X144304858Y-92868462D01*
X144231155Y-92819215D01*
X144149260Y-92785294D01*
X144062321Y-92768000D01*
X143973679Y-92768000D01*
X143886740Y-92785294D01*
X143804845Y-92819215D01*
X143731142Y-92868462D01*
X143668462Y-92931142D01*
X143619215Y-93004845D01*
X143585294Y-93086740D01*
X143577683Y-93125000D01*
X136323324Y-93125000D01*
X134750395Y-92042000D01*
X136294332Y-92042000D01*
X136364116Y-92035127D01*
X136453654Y-92007966D01*
X136536173Y-91963859D01*
X136608501Y-91904501D01*
X136667859Y-91832173D01*
X136711966Y-91749654D01*
X136739127Y-91660116D01*
X136748298Y-91567000D01*
X136739127Y-91473884D01*
X136711966Y-91384346D01*
X136667859Y-91301827D01*
X136608501Y-91229499D01*
X136588568Y-91213141D01*
X136611155Y-91203785D01*
X136684858Y-91154538D01*
X136715500Y-91123896D01*
X136746142Y-91154538D01*
X136819845Y-91203785D01*
X136901740Y-91237706D01*
X136988679Y-91255000D01*
X137077321Y-91255000D01*
X137164260Y-91237706D01*
X137246155Y-91203785D01*
X137319858Y-91154538D01*
X137350500Y-91123896D01*
X137381142Y-91154538D01*
X137454845Y-91203785D01*
X137536740Y-91237706D01*
X137623679Y-91255000D01*
X137712321Y-91255000D01*
X137799260Y-91237706D01*
X137881155Y-91203785D01*
X137954858Y-91154538D01*
X137985500Y-91123896D01*
X138016142Y-91154538D01*
X138089845Y-91203785D01*
X138171740Y-91237706D01*
X138258679Y-91255000D01*
X138347321Y-91255000D01*
X138434260Y-91237706D01*
X138516155Y-91203785D01*
X138589858Y-91154538D01*
X138652538Y-91091858D01*
X138701785Y-91018155D01*
X138735706Y-90936260D01*
X138753000Y-90849321D01*
X138753000Y-90760679D01*
X138735706Y-90673740D01*
X138701785Y-90591845D01*
X138652538Y-90518142D01*
X138589858Y-90455462D01*
X138516155Y-90406215D01*
X138434260Y-90372294D01*
X138347321Y-90355000D01*
X138258679Y-90355000D01*
X138171740Y-90372294D01*
X138089845Y-90406215D01*
X138016142Y-90455462D01*
X137985500Y-90486104D01*
X137954858Y-90455462D01*
X137881155Y-90406215D01*
X137799260Y-90372294D01*
X137712321Y-90355000D01*
X137623679Y-90355000D01*
X137536740Y-90372294D01*
X137454845Y-90406215D01*
X137381142Y-90455462D01*
X137350500Y-90486104D01*
X137319858Y-90455462D01*
X137246155Y-90406215D01*
X137164260Y-90372294D01*
X137077321Y-90355000D01*
X136988679Y-90355000D01*
X136901740Y-90372294D01*
X136819845Y-90406215D01*
X136746142Y-90455462D01*
X136715500Y-90486104D01*
X136684858Y-90455462D01*
X136611155Y-90406215D01*
X136529260Y-90372294D01*
X136442321Y-90355000D01*
X136353679Y-90355000D01*
X136266740Y-90372294D01*
X136184845Y-90406215D01*
X136111142Y-90455462D01*
X136080500Y-90486104D01*
X136049858Y-90455462D01*
X135976155Y-90406215D01*
X135894260Y-90372294D01*
X135807321Y-90355000D01*
X135718679Y-90355000D01*
X135631740Y-90372294D01*
X135549845Y-90406215D01*
X135476142Y-90455462D01*
X135413462Y-90518142D01*
X135364215Y-90591845D01*
X135330294Y-90673740D01*
X135313000Y-90760679D01*
X135313000Y-90849321D01*
X135330294Y-90936260D01*
X135364215Y-91018155D01*
X135413462Y-91091858D01*
X135413604Y-91092000D01*
X133370633Y-91092000D01*
X131886457Y-90070108D01*
X131921155Y-90035410D01*
X135278945Y-90035410D01*
X135292448Y-90036740D01*
X135346357Y-90031430D01*
X135398195Y-90015706D01*
X135445969Y-89990170D01*
X135487843Y-89955805D01*
X135496456Y-89945310D01*
X136086087Y-89355679D01*
X138150000Y-89355679D01*
X138150000Y-89444321D01*
X138167294Y-89531260D01*
X138201215Y-89613155D01*
X138250462Y-89686858D01*
X138313142Y-89749538D01*
X138386845Y-89798785D01*
X138468740Y-89832706D01*
X138555679Y-89850000D01*
X138644321Y-89850000D01*
X138731260Y-89832706D01*
X138813155Y-89798785D01*
X138886858Y-89749538D01*
X138949538Y-89686858D01*
X138998785Y-89613155D01*
X139032706Y-89531260D01*
X139050000Y-89444321D01*
X139050000Y-89355679D01*
X139032706Y-89268740D01*
X138998785Y-89186845D01*
X138949538Y-89113142D01*
X138886858Y-89050462D01*
X138813155Y-89001215D01*
X138731260Y-88967294D01*
X138644321Y-88950000D01*
X138555679Y-88950000D01*
X138468740Y-88967294D01*
X138386845Y-89001215D01*
X138313142Y-89050462D01*
X138250462Y-89113142D01*
X138201215Y-89186845D01*
X138167294Y-89268740D01*
X138150000Y-89355679D01*
X136086087Y-89355679D01*
X136528915Y-88912851D01*
X136539405Y-88904243D01*
X136573770Y-88862369D01*
X136599306Y-88814595D01*
X136612075Y-88772500D01*
X136615030Y-88762758D01*
X136620340Y-88708849D01*
X136619010Y-88695346D01*
X136619010Y-88102698D01*
X136874076Y-87847633D01*
X136901215Y-87913155D01*
X136950462Y-87986858D01*
X137013142Y-88049538D01*
X137086845Y-88098785D01*
X137168740Y-88132706D01*
X137255679Y-88150000D01*
X137344321Y-88150000D01*
X137431260Y-88132706D01*
X137513155Y-88098785D01*
X137586858Y-88049538D01*
X137649538Y-87986858D01*
X137698785Y-87913155D01*
X137732706Y-87831260D01*
X137750000Y-87744321D01*
X137750000Y-87655679D01*
X137732706Y-87568740D01*
X137698785Y-87486845D01*
X137649538Y-87413142D01*
X137586858Y-87350462D01*
X137513155Y-87301215D01*
X137447633Y-87274076D01*
X137741689Y-86980020D01*
X138905478Y-86980020D01*
X138911694Y-87011270D01*
X138945615Y-87093165D01*
X138994862Y-87166868D01*
X139057542Y-87229548D01*
X139131245Y-87278795D01*
X139213140Y-87312716D01*
X139300079Y-87330010D01*
X139388721Y-87330010D01*
X139475660Y-87312716D01*
X139557555Y-87278795D01*
X139631258Y-87229548D01*
X139693938Y-87166868D01*
X139743185Y-87093165D01*
X139777106Y-87011270D01*
X139794400Y-86924331D01*
X139794400Y-86835689D01*
X139783324Y-86780010D01*
X143482739Y-86780010D01*
X143490662Y-86791868D01*
X143553342Y-86854548D01*
X143627045Y-86903795D01*
X143708940Y-86937716D01*
X143795879Y-86955010D01*
X143884521Y-86955010D01*
X143971460Y-86937716D01*
X144053355Y-86903795D01*
X144127058Y-86854548D01*
X144189738Y-86791868D01*
X144238985Y-86718165D01*
X144272906Y-86636270D01*
X144290200Y-86549331D01*
X144290200Y-86460689D01*
X144279124Y-86405010D01*
X145701960Y-86405010D01*
X145788576Y-86491626D01*
X145797500Y-86502500D01*
X145840897Y-86538115D01*
X145890408Y-86564579D01*
X145927833Y-86575931D01*
X145944129Y-86580875D01*
X145999999Y-86586378D01*
X146013989Y-86585000D01*
X146049221Y-86585000D01*
X146050462Y-86586858D01*
X146113142Y-86649538D01*
X146186845Y-86698785D01*
X146268740Y-86732706D01*
X146355679Y-86750000D01*
X146444321Y-86750000D01*
X146531260Y-86732706D01*
X146613155Y-86698785D01*
X146686858Y-86649538D01*
X146749538Y-86586858D01*
X146798785Y-86513155D01*
X146832706Y-86431260D01*
X146850000Y-86344321D01*
X146850000Y-86255679D01*
X146835940Y-86185000D01*
X147949221Y-86185000D01*
X147950462Y-86186858D01*
X148013142Y-86249538D01*
X148075528Y-86291223D01*
X147901574Y-86465178D01*
X147886858Y-86450462D01*
X147813155Y-86401215D01*
X147731260Y-86367294D01*
X147644321Y-86350000D01*
X147555679Y-86350000D01*
X147468740Y-86367294D01*
X147386845Y-86401215D01*
X147313142Y-86450462D01*
X147250462Y-86513142D01*
X147201215Y-86586845D01*
X147167294Y-86668740D01*
X147150000Y-86755679D01*
X147150000Y-86844321D01*
X147167294Y-86931260D01*
X147201215Y-87013155D01*
X147250462Y-87086858D01*
X147313142Y-87149538D01*
X147386845Y-87198785D01*
X147468740Y-87232706D01*
X147555679Y-87250000D01*
X147644321Y-87250000D01*
X147731260Y-87232706D01*
X147813155Y-87198785D01*
X147886858Y-87149538D01*
X147949538Y-87086858D01*
X147950779Y-87085000D01*
X147955812Y-87085000D01*
X147969802Y-87086378D01*
X147983792Y-87085000D01*
X148025672Y-87080875D01*
X148079394Y-87064579D01*
X148128905Y-87038115D01*
X148172302Y-87002500D01*
X148181226Y-86991626D01*
X148667173Y-86505679D01*
X150200000Y-86505679D01*
X150200000Y-86594321D01*
X150217294Y-86681260D01*
X150251215Y-86763155D01*
X150300462Y-86836858D01*
X150363142Y-86899538D01*
X150436845Y-86948785D01*
X150518740Y-86982706D01*
X150605679Y-87000000D01*
X150694321Y-87000000D01*
X150781260Y-86982706D01*
X150863155Y-86948785D01*
X150936858Y-86899538D01*
X150999538Y-86836858D01*
X151048785Y-86763155D01*
X151082706Y-86681260D01*
X151100000Y-86594321D01*
X151100000Y-86505679D01*
X151082706Y-86418740D01*
X151048785Y-86336845D01*
X150999538Y-86263142D01*
X150936858Y-86200462D01*
X150863155Y-86151215D01*
X150781260Y-86117294D01*
X150694321Y-86100000D01*
X150605679Y-86100000D01*
X150518740Y-86117294D01*
X150436845Y-86151215D01*
X150363142Y-86200462D01*
X150300462Y-86263142D01*
X150251215Y-86336845D01*
X150217294Y-86418740D01*
X150200000Y-86505679D01*
X148667173Y-86505679D01*
X149231632Y-85941221D01*
X149242500Y-85932302D01*
X149278115Y-85888905D01*
X149282407Y-85880875D01*
X149304579Y-85839395D01*
X149320875Y-85785672D01*
X149326378Y-85729802D01*
X149325000Y-85715812D01*
X149325000Y-84195010D01*
X150476076Y-84195010D01*
X150465000Y-84250689D01*
X150465000Y-84339331D01*
X150482294Y-84426270D01*
X150516215Y-84508165D01*
X150565462Y-84581868D01*
X150628142Y-84644548D01*
X150701845Y-84693795D01*
X150783740Y-84727716D01*
X150870679Y-84745010D01*
X150959321Y-84745010D01*
X151046260Y-84727716D01*
X151128155Y-84693795D01*
X151201858Y-84644548D01*
X151238599Y-84607807D01*
X151554231Y-84607807D01*
X151555472Y-84609665D01*
X151618152Y-84672345D01*
X151691855Y-84721592D01*
X151773750Y-84755513D01*
X151860689Y-84772807D01*
X151949331Y-84772807D01*
X152036270Y-84755513D01*
X152118165Y-84721592D01*
X152191868Y-84672345D01*
X152254548Y-84609665D01*
X152303795Y-84535962D01*
X152337716Y-84454067D01*
X152355010Y-84367128D01*
X152355010Y-84278486D01*
X152338405Y-84195010D01*
X153871301Y-84195010D01*
X153863142Y-84200462D01*
X153800462Y-84263142D01*
X153751215Y-84336845D01*
X153717294Y-84418740D01*
X153700000Y-84505679D01*
X153700000Y-84594321D01*
X153717294Y-84681260D01*
X153751215Y-84763155D01*
X153800462Y-84836858D01*
X153863142Y-84899538D01*
X153901248Y-84925000D01*
X153863142Y-84950462D01*
X153800462Y-85013142D01*
X153751215Y-85086845D01*
X153717294Y-85168740D01*
X153700000Y-85255679D01*
X153700000Y-85344321D01*
X153717294Y-85431260D01*
X153751215Y-85513155D01*
X153800462Y-85586858D01*
X153863142Y-85649538D01*
X153936845Y-85698785D01*
X154018740Y-85732706D01*
X154105679Y-85750000D01*
X154194321Y-85750000D01*
X154281260Y-85732706D01*
X154363155Y-85698785D01*
X154436858Y-85649538D01*
X154499538Y-85586858D01*
X154548785Y-85513155D01*
X154582706Y-85431260D01*
X154600000Y-85344321D01*
X154600000Y-85255679D01*
X154582706Y-85168740D01*
X154548785Y-85086845D01*
X154499538Y-85013142D01*
X154436858Y-84950462D01*
X154398752Y-84925000D01*
X154436858Y-84899538D01*
X154499538Y-84836858D01*
X154548785Y-84763155D01*
X154582706Y-84681260D01*
X154600000Y-84594321D01*
X154600000Y-84505679D01*
X154582706Y-84418740D01*
X154548785Y-84336845D01*
X154499538Y-84263142D01*
X154436858Y-84200462D01*
X154428699Y-84195010D01*
X156111017Y-84195010D01*
X156512648Y-84596642D01*
X156521568Y-84607511D01*
X156564965Y-84643126D01*
X156614476Y-84669590D01*
X156651901Y-84680942D01*
X156668197Y-84685886D01*
X156724067Y-84691389D01*
X156738057Y-84690011D01*
X158056430Y-84690011D01*
X158053454Y-84704972D01*
X158053454Y-84793614D01*
X158056236Y-84807602D01*
X156888700Y-85975139D01*
X156878205Y-85983752D01*
X156848412Y-86020056D01*
X156786742Y-86061262D01*
X156724062Y-86123942D01*
X156674815Y-86197645D01*
X156640894Y-86279540D01*
X156623600Y-86366479D01*
X156623600Y-86455121D01*
X156640894Y-86542060D01*
X156674815Y-86623955D01*
X156724062Y-86697658D01*
X156786742Y-86760338D01*
X156860445Y-86809585D01*
X156942340Y-86843506D01*
X157029279Y-86860800D01*
X157117921Y-86860800D01*
X157204860Y-86843506D01*
X157286755Y-86809585D01*
X157360458Y-86760338D01*
X157423138Y-86697658D01*
X157472385Y-86623955D01*
X157506306Y-86542060D01*
X157523600Y-86455121D01*
X157523600Y-86366479D01*
X157506306Y-86279540D01*
X157472385Y-86197645D01*
X157461020Y-86180636D01*
X158445145Y-85196511D01*
X158459133Y-85199293D01*
X158547775Y-85199293D01*
X158634714Y-85181999D01*
X158716609Y-85148078D01*
X158790312Y-85098831D01*
X158852992Y-85036151D01*
X158902239Y-84962448D01*
X158936160Y-84880553D01*
X158953454Y-84793614D01*
X158953454Y-84704972D01*
X158936160Y-84618033D01*
X158902239Y-84536138D01*
X158852992Y-84462435D01*
X158790312Y-84399755D01*
X158759814Y-84379377D01*
X159150000Y-83989191D01*
X159150000Y-84044321D01*
X159167294Y-84131260D01*
X159201215Y-84213155D01*
X159250462Y-84286858D01*
X159313142Y-84349538D01*
X159386845Y-84398785D01*
X159468740Y-84432706D01*
X159555679Y-84450000D01*
X159644321Y-84450000D01*
X159731260Y-84432706D01*
X159813155Y-84398785D01*
X159886858Y-84349538D01*
X159949538Y-84286858D01*
X159998785Y-84213155D01*
X160032706Y-84131260D01*
X160050000Y-84044321D01*
X160050000Y-83955679D01*
X160032706Y-83868740D01*
X159998785Y-83786845D01*
X159949538Y-83713142D01*
X159886858Y-83650462D01*
X159852824Y-83627721D01*
X160080491Y-83627721D01*
X160094481Y-83629099D01*
X160108471Y-83627721D01*
X160150351Y-83623596D01*
X160204073Y-83607300D01*
X160253584Y-83580836D01*
X160296981Y-83545221D01*
X160305905Y-83534347D01*
X160449702Y-83390551D01*
X160449702Y-84160899D01*
G37*
X160449702Y-84160899D02*
X160448323Y-84174899D01*
X160453826Y-84230768D01*
X160463061Y-84261210D01*
X160470123Y-84284491D01*
X160496587Y-84334002D01*
X160532202Y-84377399D01*
X160543071Y-84386319D01*
X160550001Y-84393249D01*
X160550002Y-87216749D01*
X156836986Y-90929766D01*
X156862785Y-90891155D01*
X156896706Y-90809260D01*
X156914000Y-90722321D01*
X156914000Y-90633679D01*
X156896706Y-90546740D01*
X156862785Y-90464845D01*
X156813538Y-90391142D01*
X156750858Y-90328462D01*
X156677155Y-90279215D01*
X156595260Y-90245294D01*
X156508321Y-90228000D01*
X156419679Y-90228000D01*
X156332740Y-90245294D01*
X156250845Y-90279215D01*
X156177142Y-90328462D01*
X156114462Y-90391142D01*
X156065215Y-90464845D01*
X156031294Y-90546740D01*
X156014000Y-90633679D01*
X156014000Y-90722321D01*
X156031294Y-90809260D01*
X156065215Y-90891155D01*
X156114462Y-90964858D01*
X156177142Y-91027538D01*
X156250845Y-91076785D01*
X156332740Y-91110706D01*
X156419679Y-91128000D01*
X156508321Y-91128000D01*
X156595260Y-91110706D01*
X156677155Y-91076785D01*
X156715766Y-91050986D01*
X155878374Y-91888378D01*
X155867500Y-91897302D01*
X155831885Y-91940700D01*
X155805421Y-91990211D01*
X155793500Y-92029510D01*
X155789125Y-92043933D01*
X155783622Y-92099802D01*
X155785000Y-92113792D01*
X155785001Y-92989220D01*
X155783142Y-92990462D01*
X155720462Y-93053142D01*
X155672448Y-93125000D01*
X147934695Y-93125000D01*
X147947800Y-93059121D01*
X147947800Y-92970479D01*
X147930506Y-92883540D01*
X147896585Y-92801645D01*
X147847338Y-92727942D01*
X147784658Y-92665262D01*
X147710955Y-92616015D01*
X147629060Y-92582094D01*
X147542121Y-92564800D01*
X147453479Y-92564800D01*
X147366540Y-92582094D01*
X147284645Y-92616015D01*
X147210942Y-92665262D01*
X147148262Y-92727942D01*
X147099015Y-92801645D01*
X147065094Y-92883540D01*
X147047800Y-92970479D01*
X147047800Y-93059121D01*
X147060905Y-93125000D01*
X145089237Y-93125000D01*
X146876466Y-91337771D01*
X146870000Y-91370279D01*
X146870000Y-91458921D01*
X146887294Y-91545860D01*
X146921215Y-91627755D01*
X146970462Y-91701458D01*
X147033142Y-91764138D01*
X147106845Y-91813385D01*
X147188740Y-91847306D01*
X147275679Y-91864600D01*
X147364321Y-91864600D01*
X147451260Y-91847306D01*
X147533155Y-91813385D01*
X147606858Y-91764138D01*
X147669538Y-91701458D01*
X147718785Y-91627755D01*
X147752706Y-91545860D01*
X147770000Y-91458921D01*
X147770000Y-91370279D01*
X147752706Y-91283340D01*
X147718785Y-91201445D01*
X147669538Y-91127742D01*
X147606858Y-91065062D01*
X147533155Y-91015815D01*
X147451260Y-90981894D01*
X147364321Y-90964600D01*
X147275679Y-90964600D01*
X147243171Y-90971066D01*
X147365651Y-90848587D01*
X147379639Y-90851369D01*
X147468281Y-90851369D01*
X147555220Y-90834075D01*
X147637115Y-90800154D01*
X147710818Y-90750907D01*
X147773498Y-90688227D01*
X147809945Y-90633679D01*
X152458000Y-90633679D01*
X152458000Y-90722321D01*
X152475294Y-90809260D01*
X152509215Y-90891155D01*
X152558462Y-90964858D01*
X152621142Y-91027538D01*
X152694845Y-91076785D01*
X152776740Y-91110706D01*
X152863679Y-91128000D01*
X152952321Y-91128000D01*
X153039260Y-91110706D01*
X153121155Y-91076785D01*
X153194858Y-91027538D01*
X153257538Y-90964858D01*
X153306785Y-90891155D01*
X153340706Y-90809260D01*
X153358000Y-90722321D01*
X153358000Y-90633679D01*
X153982000Y-90633679D01*
X153982000Y-90722321D01*
X153999294Y-90809260D01*
X154033215Y-90891155D01*
X154082462Y-90964858D01*
X154145142Y-91027538D01*
X154218845Y-91076785D01*
X154300740Y-91110706D01*
X154387679Y-91128000D01*
X154476321Y-91128000D01*
X154563260Y-91110706D01*
X154645155Y-91076785D01*
X154718858Y-91027538D01*
X154781538Y-90964858D01*
X154830785Y-90891155D01*
X154864706Y-90809260D01*
X154882000Y-90722321D01*
X154882000Y-90633679D01*
X154864706Y-90546740D01*
X154830785Y-90464845D01*
X154781538Y-90391142D01*
X154718858Y-90328462D01*
X154645155Y-90279215D01*
X154563260Y-90245294D01*
X154476321Y-90228000D01*
X154387679Y-90228000D01*
X154300740Y-90245294D01*
X154218845Y-90279215D01*
X154145142Y-90328462D01*
X154082462Y-90391142D01*
X154033215Y-90464845D01*
X153999294Y-90546740D01*
X153982000Y-90633679D01*
X153358000Y-90633679D01*
X153340706Y-90546740D01*
X153306785Y-90464845D01*
X153257538Y-90391142D01*
X153194858Y-90328462D01*
X153121155Y-90279215D01*
X153039260Y-90245294D01*
X152952321Y-90228000D01*
X152863679Y-90228000D01*
X152776740Y-90245294D01*
X152694845Y-90279215D01*
X152621142Y-90328462D01*
X152558462Y-90391142D01*
X152509215Y-90464845D01*
X152475294Y-90546740D01*
X152458000Y-90633679D01*
X147809945Y-90633679D01*
X147822745Y-90614524D01*
X147856666Y-90532629D01*
X147873960Y-90445690D01*
X147873960Y-90444104D01*
X147931260Y-90432706D01*
X148013155Y-90398785D01*
X148086858Y-90349538D01*
X148149538Y-90286858D01*
X148198785Y-90213155D01*
X148232706Y-90131260D01*
X148250000Y-90044321D01*
X148250000Y-89955679D01*
X148232706Y-89868740D01*
X148198785Y-89786845D01*
X148149538Y-89713142D01*
X148086858Y-89650462D01*
X148013155Y-89601215D01*
X147931260Y-89567294D01*
X147844321Y-89550000D01*
X147755679Y-89550000D01*
X147753486Y-89550436D01*
X147726423Y-89523373D01*
X147717499Y-89512499D01*
X147674102Y-89476884D01*
X147624591Y-89450420D01*
X147570869Y-89434124D01*
X147528989Y-89429999D01*
X147514999Y-89428621D01*
X147501009Y-89429999D01*
X147137795Y-89429999D01*
X147213155Y-89398785D01*
X147286858Y-89349538D01*
X147349538Y-89286858D01*
X147398785Y-89213155D01*
X147432706Y-89131260D01*
X147450000Y-89044321D01*
X147450000Y-88955679D01*
X147432706Y-88868740D01*
X147427297Y-88855679D01*
X153474000Y-88855679D01*
X153474000Y-88944321D01*
X153491294Y-89031260D01*
X153525215Y-89113155D01*
X153574462Y-89186858D01*
X153637142Y-89249538D01*
X153710845Y-89298785D01*
X153792740Y-89332706D01*
X153879679Y-89350000D01*
X153968321Y-89350000D01*
X154055260Y-89332706D01*
X154137155Y-89298785D01*
X154210858Y-89249538D01*
X154273538Y-89186858D01*
X154322785Y-89113155D01*
X154356706Y-89031260D01*
X154374000Y-88944321D01*
X154374000Y-88855679D01*
X154356706Y-88768740D01*
X154322785Y-88686845D01*
X154273538Y-88613142D01*
X154262075Y-88601679D01*
X157792000Y-88601679D01*
X157792000Y-88690321D01*
X157809294Y-88777260D01*
X157843215Y-88859155D01*
X157892462Y-88932858D01*
X157955142Y-88995538D01*
X158028845Y-89044785D01*
X158110740Y-89078706D01*
X158197679Y-89096000D01*
X158286321Y-89096000D01*
X158373260Y-89078706D01*
X158455155Y-89044785D01*
X158528858Y-88995538D01*
X158591538Y-88932858D01*
X158640785Y-88859155D01*
X158674706Y-88777260D01*
X158692000Y-88690321D01*
X158692000Y-88601679D01*
X158674706Y-88514740D01*
X158640785Y-88432845D01*
X158591538Y-88359142D01*
X158528858Y-88296462D01*
X158455155Y-88247215D01*
X158373260Y-88213294D01*
X158286321Y-88196000D01*
X158197679Y-88196000D01*
X158110740Y-88213294D01*
X158028845Y-88247215D01*
X157955142Y-88296462D01*
X157892462Y-88359142D01*
X157843215Y-88432845D01*
X157809294Y-88514740D01*
X157792000Y-88601679D01*
X154262075Y-88601679D01*
X154210858Y-88550462D01*
X154137155Y-88501215D01*
X154055260Y-88467294D01*
X153968321Y-88450000D01*
X153879679Y-88450000D01*
X153792740Y-88467294D01*
X153710845Y-88501215D01*
X153637142Y-88550462D01*
X153574462Y-88613142D01*
X153525215Y-88686845D01*
X153491294Y-88768740D01*
X153474000Y-88855679D01*
X147427297Y-88855679D01*
X147398785Y-88786845D01*
X147349538Y-88713142D01*
X147286858Y-88650462D01*
X147213155Y-88601215D01*
X147131260Y-88567294D01*
X147044321Y-88550000D01*
X146955679Y-88550000D01*
X146868740Y-88567294D01*
X146786845Y-88601215D01*
X146713142Y-88650462D01*
X146650462Y-88713142D01*
X146601215Y-88786845D01*
X146567294Y-88868740D01*
X146550000Y-88955679D01*
X146550000Y-89044321D01*
X146567294Y-89131260D01*
X146601215Y-89213155D01*
X146650462Y-89286858D01*
X146713142Y-89349538D01*
X146786845Y-89398785D01*
X146862205Y-89429999D01*
X144717409Y-89429999D01*
X144675529Y-89434124D01*
X144656161Y-89439999D01*
X144537304Y-89439999D01*
X144523801Y-89438669D01*
X144510298Y-89439999D01*
X144469892Y-89443979D01*
X144418054Y-89459703D01*
X144370280Y-89485239D01*
X144328406Y-89519604D01*
X144319797Y-89530094D01*
X144076309Y-89773583D01*
X144062321Y-89770800D01*
X143973679Y-89770800D01*
X143886740Y-89788094D01*
X143804845Y-89822015D01*
X143731142Y-89871262D01*
X143668462Y-89933942D01*
X143619215Y-90007645D01*
X143585294Y-90089540D01*
X143568000Y-90176479D01*
X143568000Y-90265121D01*
X143585294Y-90352060D01*
X143619215Y-90433955D01*
X143668462Y-90507658D01*
X143731142Y-90570338D01*
X143804845Y-90619585D01*
X143886740Y-90653506D01*
X143973679Y-90670800D01*
X144062321Y-90670800D01*
X144149260Y-90653506D01*
X144231155Y-90619585D01*
X144304858Y-90570338D01*
X144367538Y-90507658D01*
X144416785Y-90433955D01*
X144450706Y-90352060D01*
X144468000Y-90265121D01*
X144468000Y-90176479D01*
X144465217Y-90162491D01*
X144637710Y-89989999D01*
X144656161Y-89989999D01*
X144675529Y-89995874D01*
X144717409Y-89999999D01*
X147217046Y-89999999D01*
X147210805Y-90002584D01*
X147137102Y-90051831D01*
X147074422Y-90114511D01*
X147025175Y-90188214D01*
X146991254Y-90270109D01*
X146973960Y-90357048D01*
X146973960Y-90445690D01*
X146976742Y-90459678D01*
X145714888Y-91721533D01*
X145714888Y-91550000D01*
X145710544Y-91505892D01*
X145697678Y-91463480D01*
X145676785Y-91424392D01*
X145648668Y-91390132D01*
X145614408Y-91362015D01*
X145575320Y-91341122D01*
X145532908Y-91328256D01*
X145488800Y-91323912D01*
X143888800Y-91323912D01*
X143844692Y-91328256D01*
X143802280Y-91341122D01*
X143763192Y-91362015D01*
X143728932Y-91390132D01*
X143700815Y-91424392D01*
X143679922Y-91463480D01*
X143667056Y-91505892D01*
X143662712Y-91550000D01*
X143662712Y-92050000D01*
X143667056Y-92094108D01*
X143679922Y-92136520D01*
X143700815Y-92175608D01*
X143728932Y-92209868D01*
X143763192Y-92237985D01*
X143802280Y-92258878D01*
X143844692Y-92271744D01*
X143888800Y-92276088D01*
X145160333Y-92276088D01*
X144493421Y-92943000D01*
X144375461Y-92943000D01*
X144367538Y-92931142D01*
X144304858Y-92868462D01*
X144231155Y-92819215D01*
X144149260Y-92785294D01*
X144062321Y-92768000D01*
X143973679Y-92768000D01*
X143886740Y-92785294D01*
X143804845Y-92819215D01*
X143731142Y-92868462D01*
X143668462Y-92931142D01*
X143619215Y-93004845D01*
X143585294Y-93086740D01*
X143577683Y-93125000D01*
X136323324Y-93125000D01*
X134750395Y-92042000D01*
X136294332Y-92042000D01*
X136364116Y-92035127D01*
X136453654Y-92007966D01*
X136536173Y-91963859D01*
X136608501Y-91904501D01*
X136667859Y-91832173D01*
X136711966Y-91749654D01*
X136739127Y-91660116D01*
X136748298Y-91567000D01*
X136739127Y-91473884D01*
X136711966Y-91384346D01*
X136667859Y-91301827D01*
X136608501Y-91229499D01*
X136588568Y-91213141D01*
X136611155Y-91203785D01*
X136684858Y-91154538D01*
X136715500Y-91123896D01*
X136746142Y-91154538D01*
X136819845Y-91203785D01*
X136901740Y-91237706D01*
X136988679Y-91255000D01*
X137077321Y-91255000D01*
X137164260Y-91237706D01*
X137246155Y-91203785D01*
X137319858Y-91154538D01*
X137350500Y-91123896D01*
X137381142Y-91154538D01*
X137454845Y-91203785D01*
X137536740Y-91237706D01*
X137623679Y-91255000D01*
X137712321Y-91255000D01*
X137799260Y-91237706D01*
X137881155Y-91203785D01*
X137954858Y-91154538D01*
X137985500Y-91123896D01*
X138016142Y-91154538D01*
X138089845Y-91203785D01*
X138171740Y-91237706D01*
X138258679Y-91255000D01*
X138347321Y-91255000D01*
X138434260Y-91237706D01*
X138516155Y-91203785D01*
X138589858Y-91154538D01*
X138652538Y-91091858D01*
X138701785Y-91018155D01*
X138735706Y-90936260D01*
X138753000Y-90849321D01*
X138753000Y-90760679D01*
X138735706Y-90673740D01*
X138701785Y-90591845D01*
X138652538Y-90518142D01*
X138589858Y-90455462D01*
X138516155Y-90406215D01*
X138434260Y-90372294D01*
X138347321Y-90355000D01*
X138258679Y-90355000D01*
X138171740Y-90372294D01*
X138089845Y-90406215D01*
X138016142Y-90455462D01*
X137985500Y-90486104D01*
X137954858Y-90455462D01*
X137881155Y-90406215D01*
X137799260Y-90372294D01*
X137712321Y-90355000D01*
X137623679Y-90355000D01*
X137536740Y-90372294D01*
X137454845Y-90406215D01*
X137381142Y-90455462D01*
X137350500Y-90486104D01*
X137319858Y-90455462D01*
X137246155Y-90406215D01*
X137164260Y-90372294D01*
X137077321Y-90355000D01*
X136988679Y-90355000D01*
X136901740Y-90372294D01*
X136819845Y-90406215D01*
X136746142Y-90455462D01*
X136715500Y-90486104D01*
X136684858Y-90455462D01*
X136611155Y-90406215D01*
X136529260Y-90372294D01*
X136442321Y-90355000D01*
X136353679Y-90355000D01*
X136266740Y-90372294D01*
X136184845Y-90406215D01*
X136111142Y-90455462D01*
X136080500Y-90486104D01*
X136049858Y-90455462D01*
X135976155Y-90406215D01*
X135894260Y-90372294D01*
X135807321Y-90355000D01*
X135718679Y-90355000D01*
X135631740Y-90372294D01*
X135549845Y-90406215D01*
X135476142Y-90455462D01*
X135413462Y-90518142D01*
X135364215Y-90591845D01*
X135330294Y-90673740D01*
X135313000Y-90760679D01*
X135313000Y-90849321D01*
X135330294Y-90936260D01*
X135364215Y-91018155D01*
X135413462Y-91091858D01*
X135413604Y-91092000D01*
X133370633Y-91092000D01*
X131886457Y-90070108D01*
X131921155Y-90035410D01*
X135278945Y-90035410D01*
X135292448Y-90036740D01*
X135346357Y-90031430D01*
X135398195Y-90015706D01*
X135445969Y-89990170D01*
X135487843Y-89955805D01*
X135496456Y-89945310D01*
X136086087Y-89355679D01*
X138150000Y-89355679D01*
X138150000Y-89444321D01*
X138167294Y-89531260D01*
X138201215Y-89613155D01*
X138250462Y-89686858D01*
X138313142Y-89749538D01*
X138386845Y-89798785D01*
X138468740Y-89832706D01*
X138555679Y-89850000D01*
X138644321Y-89850000D01*
X138731260Y-89832706D01*
X138813155Y-89798785D01*
X138886858Y-89749538D01*
X138949538Y-89686858D01*
X138998785Y-89613155D01*
X139032706Y-89531260D01*
X139050000Y-89444321D01*
X139050000Y-89355679D01*
X139032706Y-89268740D01*
X138998785Y-89186845D01*
X138949538Y-89113142D01*
X138886858Y-89050462D01*
X138813155Y-89001215D01*
X138731260Y-88967294D01*
X138644321Y-88950000D01*
X138555679Y-88950000D01*
X138468740Y-88967294D01*
X138386845Y-89001215D01*
X138313142Y-89050462D01*
X138250462Y-89113142D01*
X138201215Y-89186845D01*
X138167294Y-89268740D01*
X138150000Y-89355679D01*
X136086087Y-89355679D01*
X136528915Y-88912851D01*
X136539405Y-88904243D01*
X136573770Y-88862369D01*
X136599306Y-88814595D01*
X136612075Y-88772500D01*
X136615030Y-88762758D01*
X136620340Y-88708849D01*
X136619010Y-88695346D01*
X136619010Y-88102698D01*
X136874076Y-87847633D01*
X136901215Y-87913155D01*
X136950462Y-87986858D01*
X137013142Y-88049538D01*
X137086845Y-88098785D01*
X137168740Y-88132706D01*
X137255679Y-88150000D01*
X137344321Y-88150000D01*
X137431260Y-88132706D01*
X137513155Y-88098785D01*
X137586858Y-88049538D01*
X137649538Y-87986858D01*
X137698785Y-87913155D01*
X137732706Y-87831260D01*
X137750000Y-87744321D01*
X137750000Y-87655679D01*
X137732706Y-87568740D01*
X137698785Y-87486845D01*
X137649538Y-87413142D01*
X137586858Y-87350462D01*
X137513155Y-87301215D01*
X137447633Y-87274076D01*
X137741689Y-86980020D01*
X138905478Y-86980020D01*
X138911694Y-87011270D01*
X138945615Y-87093165D01*
X138994862Y-87166868D01*
X139057542Y-87229548D01*
X139131245Y-87278795D01*
X139213140Y-87312716D01*
X139300079Y-87330010D01*
X139388721Y-87330010D01*
X139475660Y-87312716D01*
X139557555Y-87278795D01*
X139631258Y-87229548D01*
X139693938Y-87166868D01*
X139743185Y-87093165D01*
X139777106Y-87011270D01*
X139794400Y-86924331D01*
X139794400Y-86835689D01*
X139783324Y-86780010D01*
X143482739Y-86780010D01*
X143490662Y-86791868D01*
X143553342Y-86854548D01*
X143627045Y-86903795D01*
X143708940Y-86937716D01*
X143795879Y-86955010D01*
X143884521Y-86955010D01*
X143971460Y-86937716D01*
X144053355Y-86903795D01*
X144127058Y-86854548D01*
X144189738Y-86791868D01*
X144238985Y-86718165D01*
X144272906Y-86636270D01*
X144290200Y-86549331D01*
X144290200Y-86460689D01*
X144279124Y-86405010D01*
X145701960Y-86405010D01*
X145788576Y-86491626D01*
X145797500Y-86502500D01*
X145840897Y-86538115D01*
X145890408Y-86564579D01*
X145927833Y-86575931D01*
X145944129Y-86580875D01*
X145999999Y-86586378D01*
X146013989Y-86585000D01*
X146049221Y-86585000D01*
X146050462Y-86586858D01*
X146113142Y-86649538D01*
X146186845Y-86698785D01*
X146268740Y-86732706D01*
X146355679Y-86750000D01*
X146444321Y-86750000D01*
X146531260Y-86732706D01*
X146613155Y-86698785D01*
X146686858Y-86649538D01*
X146749538Y-86586858D01*
X146798785Y-86513155D01*
X146832706Y-86431260D01*
X146850000Y-86344321D01*
X146850000Y-86255679D01*
X146835940Y-86185000D01*
X147949221Y-86185000D01*
X147950462Y-86186858D01*
X148013142Y-86249538D01*
X148075528Y-86291223D01*
X147901574Y-86465178D01*
X147886858Y-86450462D01*
X147813155Y-86401215D01*
X147731260Y-86367294D01*
X147644321Y-86350000D01*
X147555679Y-86350000D01*
X147468740Y-86367294D01*
X147386845Y-86401215D01*
X147313142Y-86450462D01*
X147250462Y-86513142D01*
X147201215Y-86586845D01*
X147167294Y-86668740D01*
X147150000Y-86755679D01*
X147150000Y-86844321D01*
X147167294Y-86931260D01*
X147201215Y-87013155D01*
X147250462Y-87086858D01*
X147313142Y-87149538D01*
X147386845Y-87198785D01*
X147468740Y-87232706D01*
X147555679Y-87250000D01*
X147644321Y-87250000D01*
X147731260Y-87232706D01*
X147813155Y-87198785D01*
X147886858Y-87149538D01*
X147949538Y-87086858D01*
X147950779Y-87085000D01*
X147955812Y-87085000D01*
X147969802Y-87086378D01*
X147983792Y-87085000D01*
X148025672Y-87080875D01*
X148079394Y-87064579D01*
X148128905Y-87038115D01*
X148172302Y-87002500D01*
X148181226Y-86991626D01*
X148667173Y-86505679D01*
X150200000Y-86505679D01*
X150200000Y-86594321D01*
X150217294Y-86681260D01*
X150251215Y-86763155D01*
X150300462Y-86836858D01*
X150363142Y-86899538D01*
X150436845Y-86948785D01*
X150518740Y-86982706D01*
X150605679Y-87000000D01*
X150694321Y-87000000D01*
X150781260Y-86982706D01*
X150863155Y-86948785D01*
X150936858Y-86899538D01*
X150999538Y-86836858D01*
X151048785Y-86763155D01*
X151082706Y-86681260D01*
X151100000Y-86594321D01*
X151100000Y-86505679D01*
X151082706Y-86418740D01*
X151048785Y-86336845D01*
X150999538Y-86263142D01*
X150936858Y-86200462D01*
X150863155Y-86151215D01*
X150781260Y-86117294D01*
X150694321Y-86100000D01*
X150605679Y-86100000D01*
X150518740Y-86117294D01*
X150436845Y-86151215D01*
X150363142Y-86200462D01*
X150300462Y-86263142D01*
X150251215Y-86336845D01*
X150217294Y-86418740D01*
X150200000Y-86505679D01*
X148667173Y-86505679D01*
X149231632Y-85941221D01*
X149242500Y-85932302D01*
X149278115Y-85888905D01*
X149282407Y-85880875D01*
X149304579Y-85839395D01*
X149320875Y-85785672D01*
X149326378Y-85729802D01*
X149325000Y-85715812D01*
X149325000Y-84195010D01*
X150476076Y-84195010D01*
X150465000Y-84250689D01*
X150465000Y-84339331D01*
X150482294Y-84426270D01*
X150516215Y-84508165D01*
X150565462Y-84581868D01*
X150628142Y-84644548D01*
X150701845Y-84693795D01*
X150783740Y-84727716D01*
X150870679Y-84745010D01*
X150959321Y-84745010D01*
X151046260Y-84727716D01*
X151128155Y-84693795D01*
X151201858Y-84644548D01*
X151238599Y-84607807D01*
X151554231Y-84607807D01*
X151555472Y-84609665D01*
X151618152Y-84672345D01*
X151691855Y-84721592D01*
X151773750Y-84755513D01*
X151860689Y-84772807D01*
X151949331Y-84772807D01*
X152036270Y-84755513D01*
X152118165Y-84721592D01*
X152191868Y-84672345D01*
X152254548Y-84609665D01*
X152303795Y-84535962D01*
X152337716Y-84454067D01*
X152355010Y-84367128D01*
X152355010Y-84278486D01*
X152338405Y-84195010D01*
X153871301Y-84195010D01*
X153863142Y-84200462D01*
X153800462Y-84263142D01*
X153751215Y-84336845D01*
X153717294Y-84418740D01*
X153700000Y-84505679D01*
X153700000Y-84594321D01*
X153717294Y-84681260D01*
X153751215Y-84763155D01*
X153800462Y-84836858D01*
X153863142Y-84899538D01*
X153901248Y-84925000D01*
X153863142Y-84950462D01*
X153800462Y-85013142D01*
X153751215Y-85086845D01*
X153717294Y-85168740D01*
X153700000Y-85255679D01*
X153700000Y-85344321D01*
X153717294Y-85431260D01*
X153751215Y-85513155D01*
X153800462Y-85586858D01*
X153863142Y-85649538D01*
X153936845Y-85698785D01*
X154018740Y-85732706D01*
X154105679Y-85750000D01*
X154194321Y-85750000D01*
X154281260Y-85732706D01*
X154363155Y-85698785D01*
X154436858Y-85649538D01*
X154499538Y-85586858D01*
X154548785Y-85513155D01*
X154582706Y-85431260D01*
X154600000Y-85344321D01*
X154600000Y-85255679D01*
X154582706Y-85168740D01*
X154548785Y-85086845D01*
X154499538Y-85013142D01*
X154436858Y-84950462D01*
X154398752Y-84925000D01*
X154436858Y-84899538D01*
X154499538Y-84836858D01*
X154548785Y-84763155D01*
X154582706Y-84681260D01*
X154600000Y-84594321D01*
X154600000Y-84505679D01*
X154582706Y-84418740D01*
X154548785Y-84336845D01*
X154499538Y-84263142D01*
X154436858Y-84200462D01*
X154428699Y-84195010D01*
X156111017Y-84195010D01*
X156512648Y-84596642D01*
X156521568Y-84607511D01*
X156564965Y-84643126D01*
X156614476Y-84669590D01*
X156651901Y-84680942D01*
X156668197Y-84685886D01*
X156724067Y-84691389D01*
X156738057Y-84690011D01*
X158056430Y-84690011D01*
X158053454Y-84704972D01*
X158053454Y-84793614D01*
X158056236Y-84807602D01*
X156888700Y-85975139D01*
X156878205Y-85983752D01*
X156848412Y-86020056D01*
X156786742Y-86061262D01*
X156724062Y-86123942D01*
X156674815Y-86197645D01*
X156640894Y-86279540D01*
X156623600Y-86366479D01*
X156623600Y-86455121D01*
X156640894Y-86542060D01*
X156674815Y-86623955D01*
X156724062Y-86697658D01*
X156786742Y-86760338D01*
X156860445Y-86809585D01*
X156942340Y-86843506D01*
X157029279Y-86860800D01*
X157117921Y-86860800D01*
X157204860Y-86843506D01*
X157286755Y-86809585D01*
X157360458Y-86760338D01*
X157423138Y-86697658D01*
X157472385Y-86623955D01*
X157506306Y-86542060D01*
X157523600Y-86455121D01*
X157523600Y-86366479D01*
X157506306Y-86279540D01*
X157472385Y-86197645D01*
X157461020Y-86180636D01*
X158445145Y-85196511D01*
X158459133Y-85199293D01*
X158547775Y-85199293D01*
X158634714Y-85181999D01*
X158716609Y-85148078D01*
X158790312Y-85098831D01*
X158852992Y-85036151D01*
X158902239Y-84962448D01*
X158936160Y-84880553D01*
X158953454Y-84793614D01*
X158953454Y-84704972D01*
X158936160Y-84618033D01*
X158902239Y-84536138D01*
X158852992Y-84462435D01*
X158790312Y-84399755D01*
X158759814Y-84379377D01*
X159150000Y-83989191D01*
X159150000Y-84044321D01*
X159167294Y-84131260D01*
X159201215Y-84213155D01*
X159250462Y-84286858D01*
X159313142Y-84349538D01*
X159386845Y-84398785D01*
X159468740Y-84432706D01*
X159555679Y-84450000D01*
X159644321Y-84450000D01*
X159731260Y-84432706D01*
X159813155Y-84398785D01*
X159886858Y-84349538D01*
X159949538Y-84286858D01*
X159998785Y-84213155D01*
X160032706Y-84131260D01*
X160050000Y-84044321D01*
X160050000Y-83955679D01*
X160032706Y-83868740D01*
X159998785Y-83786845D01*
X159949538Y-83713142D01*
X159886858Y-83650462D01*
X159852824Y-83627721D01*
X160080491Y-83627721D01*
X160094481Y-83629099D01*
X160108471Y-83627721D01*
X160150351Y-83623596D01*
X160204073Y-83607300D01*
X160253584Y-83580836D01*
X160296981Y-83545221D01*
X160305905Y-83534347D01*
X160449702Y-83390551D01*
X160449702Y-84160899D01*
G36*
X163125000Y-81100220D02*
G01*
X163125000Y-82563792D01*
X163060542Y-82606862D01*
X162997862Y-82669542D01*
X162948615Y-82743245D01*
X162914694Y-82825140D01*
X162897400Y-82912079D01*
X162897400Y-83000721D01*
X162914694Y-83087660D01*
X162948615Y-83169555D01*
X162997862Y-83243258D01*
X163060542Y-83305938D01*
X163125000Y-83349008D01*
X163125000Y-85756298D01*
X163123060Y-85755494D01*
X163036121Y-85738200D01*
X162947479Y-85738200D01*
X162860540Y-85755494D01*
X162778645Y-85789415D01*
X162704942Y-85838662D01*
X162642262Y-85901342D01*
X162593015Y-85975045D01*
X162559094Y-86056940D01*
X162541800Y-86143879D01*
X162541800Y-86232521D01*
X162559094Y-86319460D01*
X162593015Y-86401355D01*
X162642262Y-86475058D01*
X162704942Y-86537738D01*
X162778645Y-86586985D01*
X162860540Y-86620906D01*
X162947479Y-86638200D01*
X163036121Y-86638200D01*
X163123060Y-86620906D01*
X163125000Y-86620102D01*
X163125000Y-87457421D01*
X163052555Y-87409015D01*
X162970660Y-87375094D01*
X162883721Y-87357800D01*
X162795079Y-87357800D01*
X162708140Y-87375094D01*
X162626245Y-87409015D01*
X162552542Y-87458262D01*
X162489862Y-87520942D01*
X162440615Y-87594645D01*
X162406694Y-87676540D01*
X162389400Y-87763479D01*
X162389400Y-87852121D01*
X162406694Y-87939060D01*
X162440615Y-88020955D01*
X162489862Y-88094658D01*
X162552542Y-88157338D01*
X162626245Y-88206585D01*
X162708140Y-88240506D01*
X162795079Y-88257800D01*
X162883721Y-88257800D01*
X162970660Y-88240506D01*
X163052555Y-88206585D01*
X163125000Y-88158179D01*
X163125000Y-93125000D01*
X160360348Y-93125000D01*
X160368400Y-93084521D01*
X160368400Y-92995879D01*
X160351106Y-92908940D01*
X160317185Y-92827045D01*
X160267938Y-92753342D01*
X160205258Y-92690662D01*
X160131555Y-92641415D01*
X160049660Y-92607494D01*
X159962721Y-92590200D01*
X159874079Y-92590200D01*
X159787140Y-92607494D01*
X159705245Y-92641415D01*
X159631542Y-92690662D01*
X159568862Y-92753342D01*
X159519615Y-92827045D01*
X159485694Y-92908940D01*
X159468400Y-92995879D01*
X159468400Y-93084521D01*
X159476452Y-93125000D01*
X156467552Y-93125000D01*
X156419538Y-93053142D01*
X156356858Y-92990462D01*
X156355000Y-92989221D01*
X156355000Y-92217852D01*
X157122852Y-91450000D01*
X159573912Y-91450000D01*
X159573912Y-91950000D01*
X159578256Y-91994108D01*
X159591122Y-92036520D01*
X159612015Y-92075608D01*
X159640132Y-92109868D01*
X159674392Y-92137985D01*
X159713480Y-92158878D01*
X159755892Y-92171744D01*
X159800000Y-92176088D01*
X161400000Y-92176088D01*
X161444108Y-92171744D01*
X161486520Y-92158878D01*
X161525608Y-92137985D01*
X161559868Y-92109868D01*
X161587985Y-92075608D01*
X161608878Y-92036520D01*
X161621744Y-91994108D01*
X161626088Y-91950000D01*
X161626088Y-91450000D01*
X161621744Y-91405892D01*
X161608878Y-91363480D01*
X161587985Y-91324392D01*
X161559868Y-91290132D01*
X161525608Y-91262015D01*
X161486520Y-91241122D01*
X161444108Y-91228256D01*
X161400000Y-91223912D01*
X159800000Y-91223912D01*
X159755892Y-91228256D01*
X159713480Y-91241122D01*
X159674392Y-91262015D01*
X159640132Y-91290132D01*
X159612015Y-91324392D01*
X159591122Y-91363480D01*
X159578256Y-91405892D01*
X159573912Y-91450000D01*
X157122852Y-91450000D01*
X157963030Y-90609823D01*
X157967294Y-90631260D01*
X158001215Y-90713155D01*
X158050462Y-90786858D01*
X158113142Y-90849538D01*
X158186845Y-90898785D01*
X158268740Y-90932706D01*
X158355679Y-90950000D01*
X158444321Y-90950000D01*
X158531260Y-90932706D01*
X158613155Y-90898785D01*
X158686858Y-90849538D01*
X158749538Y-90786858D01*
X158798785Y-90713155D01*
X158832706Y-90631260D01*
X158850000Y-90544321D01*
X158850000Y-90455679D01*
X158832706Y-90368740D01*
X158798785Y-90286845D01*
X158749538Y-90213142D01*
X158686858Y-90150462D01*
X158649768Y-90125679D01*
X159062000Y-90125679D01*
X159062000Y-90214321D01*
X159079294Y-90301260D01*
X159113215Y-90383155D01*
X159162462Y-90456858D01*
X159225142Y-90519538D01*
X159298845Y-90568785D01*
X159380740Y-90602706D01*
X159467679Y-90620000D01*
X159556321Y-90620000D01*
X159643260Y-90602706D01*
X159725155Y-90568785D01*
X159798858Y-90519538D01*
X159861538Y-90456858D01*
X159910785Y-90383155D01*
X159944706Y-90301260D01*
X159962000Y-90214321D01*
X159962000Y-90125679D01*
X160078000Y-90125679D01*
X160078000Y-90214321D01*
X160095294Y-90301260D01*
X160129215Y-90383155D01*
X160178462Y-90456858D01*
X160241142Y-90519538D01*
X160314845Y-90568785D01*
X160396740Y-90602706D01*
X160483679Y-90620000D01*
X160572321Y-90620000D01*
X160659260Y-90602706D01*
X160741155Y-90568785D01*
X160814858Y-90519538D01*
X160877538Y-90456858D01*
X160926785Y-90383155D01*
X160960706Y-90301260D01*
X160978000Y-90214321D01*
X160978000Y-90125679D01*
X160972948Y-90100279D01*
X161144800Y-90100279D01*
X161144800Y-90188921D01*
X161162094Y-90275860D01*
X161196015Y-90357755D01*
X161245262Y-90431458D01*
X161307942Y-90494138D01*
X161381645Y-90543385D01*
X161463540Y-90577306D01*
X161550479Y-90594600D01*
X161639121Y-90594600D01*
X161726060Y-90577306D01*
X161807955Y-90543385D01*
X161881658Y-90494138D01*
X161944338Y-90431458D01*
X161993585Y-90357755D01*
X162027506Y-90275860D01*
X162044800Y-90188921D01*
X162044800Y-90100279D01*
X162027506Y-90013340D01*
X161993585Y-89931445D01*
X161944338Y-89857742D01*
X161881658Y-89795062D01*
X161807955Y-89745815D01*
X161726060Y-89711894D01*
X161639121Y-89694600D01*
X161550479Y-89694600D01*
X161463540Y-89711894D01*
X161381645Y-89745815D01*
X161307942Y-89795062D01*
X161245262Y-89857742D01*
X161196015Y-89931445D01*
X161162094Y-90013340D01*
X161144800Y-90100279D01*
X160972948Y-90100279D01*
X160960706Y-90038740D01*
X160926785Y-89956845D01*
X160877538Y-89883142D01*
X160814858Y-89820462D01*
X160741155Y-89771215D01*
X160659260Y-89737294D01*
X160572321Y-89720000D01*
X160483679Y-89720000D01*
X160396740Y-89737294D01*
X160314845Y-89771215D01*
X160241142Y-89820462D01*
X160178462Y-89883142D01*
X160129215Y-89956845D01*
X160095294Y-90038740D01*
X160078000Y-90125679D01*
X159962000Y-90125679D01*
X159944706Y-90038740D01*
X159910785Y-89956845D01*
X159861538Y-89883142D01*
X159798858Y-89820462D01*
X159725155Y-89771215D01*
X159643260Y-89737294D01*
X159556321Y-89720000D01*
X159467679Y-89720000D01*
X159380740Y-89737294D01*
X159298845Y-89771215D01*
X159225142Y-89820462D01*
X159162462Y-89883142D01*
X159113215Y-89956845D01*
X159079294Y-90038740D01*
X159062000Y-90125679D01*
X158649768Y-90125679D01*
X158613155Y-90101215D01*
X158531260Y-90067294D01*
X158509823Y-90063030D01*
X159463174Y-89109679D01*
X161043200Y-89109679D01*
X161043200Y-89198321D01*
X161060494Y-89285260D01*
X161094415Y-89367155D01*
X161143662Y-89440858D01*
X161206342Y-89503538D01*
X161280045Y-89552785D01*
X161361940Y-89586706D01*
X161448879Y-89604000D01*
X161537521Y-89604000D01*
X161624460Y-89586706D01*
X161706355Y-89552785D01*
X161780058Y-89503538D01*
X161842738Y-89440858D01*
X161891985Y-89367155D01*
X161925906Y-89285260D01*
X161943200Y-89198321D01*
X161943200Y-89109679D01*
X161925906Y-89022740D01*
X161891985Y-88940845D01*
X161842738Y-88867142D01*
X161780058Y-88804462D01*
X161706355Y-88755215D01*
X161624460Y-88721294D01*
X161537521Y-88704000D01*
X161448879Y-88704000D01*
X161361940Y-88721294D01*
X161280045Y-88755215D01*
X161206342Y-88804462D01*
X161143662Y-88867142D01*
X161094415Y-88940845D01*
X161060494Y-89022740D01*
X161043200Y-89109679D01*
X159463174Y-89109679D01*
X161026632Y-87546221D01*
X161037501Y-87537301D01*
X161073116Y-87493904D01*
X161099580Y-87444393D01*
X161115876Y-87390671D01*
X161119114Y-87357800D01*
X161121379Y-87334802D01*
X161120001Y-87320812D01*
X161120001Y-84289189D01*
X161121379Y-84275199D01*
X161115876Y-84219329D01*
X161099580Y-84165607D01*
X161098563Y-84163704D01*
X161073116Y-84116096D01*
X161037501Y-84072699D01*
X161026628Y-84063776D01*
X161019701Y-84056849D01*
X161019701Y-81355679D01*
X161650000Y-81355679D01*
X161650000Y-81444321D01*
X161667294Y-81531260D01*
X161701215Y-81613155D01*
X161750462Y-81686858D01*
X161813142Y-81749538D01*
X161886845Y-81798785D01*
X161968740Y-81832706D01*
X162055679Y-81850000D01*
X162144321Y-81850000D01*
X162231260Y-81832706D01*
X162313155Y-81798785D01*
X162386858Y-81749538D01*
X162449538Y-81686858D01*
X162498785Y-81613155D01*
X162532706Y-81531260D01*
X162550000Y-81444321D01*
X162550000Y-81355679D01*
X162532706Y-81268740D01*
X162498785Y-81186845D01*
X162449538Y-81113142D01*
X162386858Y-81050462D01*
X162313155Y-81001215D01*
X162231260Y-80967294D01*
X162144321Y-80950000D01*
X162055679Y-80950000D01*
X161968740Y-80967294D01*
X161886845Y-81001215D01*
X161813142Y-81050462D01*
X161750462Y-81113142D01*
X161701215Y-81186845D01*
X161667294Y-81268740D01*
X161650000Y-81355679D01*
X161019701Y-81355679D01*
X161019701Y-80703889D01*
X161021079Y-80689899D01*
X161015576Y-80634029D01*
X160999280Y-80580306D01*
X160989433Y-80561885D01*
X160972816Y-80530796D01*
X160937201Y-80487399D01*
X160926333Y-80478480D01*
X160803532Y-80355679D01*
X161650000Y-80355679D01*
X161650000Y-80444321D01*
X161667294Y-80531260D01*
X161701215Y-80613155D01*
X161750462Y-80686858D01*
X161813142Y-80749538D01*
X161886845Y-80798785D01*
X161968740Y-80832706D01*
X162055679Y-80850000D01*
X162144321Y-80850000D01*
X162231260Y-80832706D01*
X162313155Y-80798785D01*
X162386858Y-80749538D01*
X162449538Y-80686858D01*
X162498785Y-80613155D01*
X162532706Y-80531260D01*
X162550000Y-80444321D01*
X162550000Y-80355679D01*
X162532706Y-80268740D01*
X162498785Y-80186845D01*
X162449538Y-80113142D01*
X162386858Y-80050462D01*
X162313155Y-80001215D01*
X162231260Y-79967294D01*
X162144321Y-79950000D01*
X162055679Y-79950000D01*
X161968740Y-79967294D01*
X161886845Y-80001215D01*
X161813142Y-80050462D01*
X161750462Y-80113142D01*
X161701215Y-80186845D01*
X161667294Y-80268740D01*
X161650000Y-80355679D01*
X160803532Y-80355679D01*
X158036226Y-77588374D01*
X158027302Y-77577500D01*
X157983905Y-77541885D01*
X157934394Y-77515421D01*
X157880672Y-77499125D01*
X157838792Y-77495000D01*
X157824802Y-77493622D01*
X157810812Y-77495000D01*
X157751042Y-77495000D01*
X157749801Y-77493142D01*
X157687121Y-77430462D01*
X157613418Y-77381215D01*
X157531523Y-77347294D01*
X157444584Y-77330000D01*
X157355942Y-77330000D01*
X157269003Y-77347294D01*
X157187108Y-77381215D01*
X157113405Y-77430462D01*
X157050725Y-77493142D01*
X157001478Y-77566845D01*
X156967557Y-77648740D01*
X156950263Y-77735679D01*
X156950263Y-77824321D01*
X156967557Y-77911260D01*
X157001478Y-77993155D01*
X157050725Y-78066858D01*
X157113405Y-78129538D01*
X157187108Y-78178785D01*
X157269003Y-78212706D01*
X157355942Y-78230000D01*
X157444584Y-78230000D01*
X157531523Y-78212706D01*
X157613418Y-78178785D01*
X157687121Y-78129538D01*
X157729205Y-78087454D01*
X160449701Y-80807950D01*
X160449701Y-82046650D01*
X157579564Y-79176514D01*
X157580000Y-79174321D01*
X157580000Y-79085679D01*
X157562706Y-78998740D01*
X157528785Y-78916845D01*
X157479538Y-78843142D01*
X157416858Y-78780462D01*
X157343155Y-78731215D01*
X157261260Y-78697294D01*
X157174321Y-78680000D01*
X157085679Y-78680000D01*
X156998740Y-78697294D01*
X156916845Y-78731215D01*
X156843142Y-78780462D01*
X156780462Y-78843142D01*
X156731215Y-78916845D01*
X156697294Y-78998740D01*
X156680000Y-79085679D01*
X156680000Y-79174321D01*
X156697294Y-79261260D01*
X156731215Y-79343155D01*
X156780462Y-79416858D01*
X156843142Y-79479538D01*
X156916845Y-79528785D01*
X156998740Y-79562706D01*
X157085679Y-79580000D01*
X157174321Y-79580000D01*
X157176514Y-79579564D01*
X158093385Y-80496435D01*
X158081845Y-80501215D01*
X158008142Y-80550462D01*
X157945462Y-80613142D01*
X157896215Y-80686845D01*
X157862294Y-80768740D01*
X157845000Y-80855679D01*
X157845000Y-80944321D01*
X157862294Y-81031260D01*
X157896215Y-81113155D01*
X157945462Y-81186858D01*
X158008142Y-81249538D01*
X158020001Y-81257462D01*
X158020000Y-81817800D01*
X156496108Y-81817800D01*
X156966691Y-81347218D01*
X156980679Y-81350000D01*
X157069321Y-81350000D01*
X157156260Y-81332706D01*
X157238155Y-81298785D01*
X157311858Y-81249538D01*
X157374538Y-81186858D01*
X157423785Y-81113155D01*
X157457706Y-81031260D01*
X157475000Y-80944321D01*
X157475000Y-80855679D01*
X157457706Y-80768740D01*
X157423785Y-80686845D01*
X157374538Y-80613142D01*
X157311858Y-80550462D01*
X157238155Y-80501215D01*
X157156260Y-80467294D01*
X157069321Y-80450000D01*
X156980679Y-80450000D01*
X156893740Y-80467294D01*
X156811845Y-80501215D01*
X156738142Y-80550462D01*
X156675462Y-80613142D01*
X156626215Y-80686845D01*
X156592294Y-80768740D01*
X156575000Y-80855679D01*
X156575000Y-80944321D01*
X156577782Y-80958309D01*
X155918300Y-81617792D01*
X146539455Y-81617792D01*
X146525952Y-81616462D01*
X146472042Y-81621772D01*
X146420204Y-81637496D01*
X146407436Y-81644321D01*
X146372431Y-81663032D01*
X146330557Y-81697397D01*
X146321949Y-81707886D01*
X145650046Y-82379790D01*
X138513056Y-82379790D01*
X138499553Y-82378460D01*
X138445644Y-82383770D01*
X138429920Y-82388540D01*
X138393807Y-82399494D01*
X138346033Y-82425030D01*
X138304159Y-82459395D01*
X138295551Y-82469884D01*
X136226235Y-84539201D01*
X136077702Y-84539201D01*
X136064199Y-84537871D01*
X136050696Y-84539201D01*
X136010290Y-84543181D01*
X135958452Y-84558905D01*
X135910678Y-84584441D01*
X135900712Y-84592620D01*
X135883521Y-84589200D01*
X135794879Y-84589200D01*
X135707940Y-84606494D01*
X135676088Y-84619687D01*
X135676088Y-84550000D01*
X135671744Y-84505892D01*
X135658878Y-84463480D01*
X135637985Y-84424392D01*
X135617967Y-84400000D01*
X135637985Y-84375608D01*
X135658878Y-84336520D01*
X135671744Y-84294108D01*
X135676088Y-84250000D01*
X135676088Y-83750000D01*
X135671744Y-83705892D01*
X135658878Y-83663480D01*
X135637985Y-83624392D01*
X135617967Y-83600000D01*
X135637985Y-83575608D01*
X135658878Y-83536520D01*
X135662262Y-83525363D01*
X135665953Y-83525000D01*
X135665961Y-83525000D01*
X135713711Y-83520297D01*
X135774974Y-83501713D01*
X135831434Y-83471535D01*
X135880921Y-83430921D01*
X135891101Y-83418517D01*
X137018529Y-82291091D01*
X137030921Y-82280921D01*
X137041092Y-82268528D01*
X137041096Y-82268524D01*
X137059318Y-82246320D01*
X137071535Y-82231434D01*
X137101713Y-82174974D01*
X137120297Y-82113711D01*
X137125000Y-82065961D01*
X137125000Y-82065953D01*
X137126571Y-82050000D01*
X137125000Y-82034047D01*
X137125000Y-81911396D01*
X137149538Y-81886858D01*
X137198785Y-81813155D01*
X137232706Y-81731260D01*
X137250000Y-81644321D01*
X137250000Y-81555679D01*
X137232706Y-81468740D01*
X137198785Y-81386845D01*
X137149538Y-81313142D01*
X137136396Y-81300000D01*
X137149538Y-81286858D01*
X137198785Y-81213155D01*
X137232706Y-81131260D01*
X137250000Y-81044321D01*
X137250000Y-80955679D01*
X137232706Y-80868740D01*
X137198785Y-80786845D01*
X137149538Y-80713142D01*
X137086858Y-80650462D01*
X137013155Y-80601215D01*
X136931260Y-80567294D01*
X136844321Y-80550000D01*
X136755679Y-80550000D01*
X136668740Y-80567294D01*
X136586845Y-80601215D01*
X136513142Y-80650462D01*
X136450462Y-80713142D01*
X136401215Y-80786845D01*
X136367294Y-80868740D01*
X136350000Y-80955679D01*
X136350000Y-81044321D01*
X136367294Y-81131260D01*
X136401215Y-81213155D01*
X136450462Y-81286858D01*
X136463604Y-81300000D01*
X136450462Y-81313142D01*
X136401215Y-81386845D01*
X136367294Y-81468740D01*
X136350000Y-81555679D01*
X136350000Y-81644321D01*
X136367294Y-81731260D01*
X136401215Y-81813155D01*
X136450462Y-81886858D01*
X136475000Y-81911396D01*
X136475000Y-81915380D01*
X135661062Y-82729319D01*
X135671744Y-82694108D01*
X135676088Y-82650000D01*
X135676088Y-82150000D01*
X135671744Y-82105892D01*
X135658878Y-82063480D01*
X135637985Y-82024392D01*
X135617967Y-82000000D01*
X135637985Y-81975608D01*
X135658878Y-81936520D01*
X135671744Y-81894108D01*
X135676088Y-81850000D01*
X135676088Y-81350000D01*
X135671744Y-81305892D01*
X135658878Y-81263480D01*
X135637985Y-81224392D01*
X135617967Y-81200000D01*
X135637985Y-81175608D01*
X135658878Y-81136520D01*
X135671744Y-81094108D01*
X135676088Y-81050000D01*
X135676088Y-80550000D01*
X135671744Y-80505892D01*
X135658878Y-80463480D01*
X135637985Y-80424392D01*
X135617967Y-80400000D01*
X135637985Y-80375608D01*
X135658878Y-80336520D01*
X135671744Y-80294108D01*
X135676088Y-80250000D01*
X135676088Y-79755679D01*
X140750000Y-79755679D01*
X140750000Y-79844321D01*
X140767294Y-79931260D01*
X140801215Y-80013155D01*
X140850462Y-80086858D01*
X140913142Y-80149538D01*
X140986845Y-80198785D01*
X141068740Y-80232706D01*
X141155679Y-80250000D01*
X141244321Y-80250000D01*
X141331260Y-80232706D01*
X141413155Y-80198785D01*
X141486858Y-80149538D01*
X141549538Y-80086858D01*
X141598785Y-80013155D01*
X141632706Y-79931260D01*
X141650000Y-79844321D01*
X141650000Y-79755679D01*
X141632706Y-79668740D01*
X141598785Y-79586845D01*
X141549538Y-79513142D01*
X141486858Y-79450462D01*
X141413155Y-79401215D01*
X141331260Y-79367294D01*
X141244321Y-79350000D01*
X141155679Y-79350000D01*
X141068740Y-79367294D01*
X140986845Y-79401215D01*
X140913142Y-79450462D01*
X140850462Y-79513142D01*
X140801215Y-79586845D01*
X140767294Y-79668740D01*
X140750000Y-79755679D01*
X135676088Y-79755679D01*
X135676088Y-79750000D01*
X135671744Y-79705892D01*
X135658878Y-79663480D01*
X135637985Y-79624392D01*
X135617967Y-79600000D01*
X135637985Y-79575608D01*
X135658878Y-79536520D01*
X135671744Y-79494108D01*
X135676088Y-79450000D01*
X135676088Y-78950000D01*
X135671744Y-78905892D01*
X135658878Y-78863480D01*
X135637985Y-78824392D01*
X135617967Y-78800000D01*
X135637985Y-78775608D01*
X135658878Y-78736520D01*
X135671744Y-78694108D01*
X135676088Y-78650000D01*
X135676088Y-78150000D01*
X135671744Y-78105892D01*
X135658878Y-78063480D01*
X135637985Y-78024392D01*
X135617967Y-78000000D01*
X135637985Y-77975608D01*
X135658878Y-77936520D01*
X135671744Y-77894108D01*
X135676088Y-77850000D01*
X135676088Y-77350000D01*
X135671744Y-77305892D01*
X135658878Y-77263480D01*
X135637985Y-77224392D01*
X135617967Y-77200000D01*
X135637985Y-77175608D01*
X135648637Y-77155679D01*
X137150000Y-77155679D01*
X137150000Y-77244321D01*
X137167294Y-77331260D01*
X137201215Y-77413155D01*
X137250462Y-77486858D01*
X137313142Y-77549538D01*
X137386845Y-77598785D01*
X137468740Y-77632706D01*
X137555679Y-77650000D01*
X137644321Y-77650000D01*
X137731260Y-77632706D01*
X137813155Y-77598785D01*
X137886858Y-77549538D01*
X137949538Y-77486858D01*
X137998785Y-77413155D01*
X138032706Y-77331260D01*
X138050000Y-77244321D01*
X138050000Y-77155679D01*
X138032706Y-77068740D01*
X137998785Y-76986845D01*
X137949538Y-76913142D01*
X137886858Y-76850462D01*
X137813155Y-76801215D01*
X137731260Y-76767294D01*
X137644321Y-76750000D01*
X137555679Y-76750000D01*
X137468740Y-76767294D01*
X137386845Y-76801215D01*
X137313142Y-76850462D01*
X137250462Y-76913142D01*
X137201215Y-76986845D01*
X137167294Y-77068740D01*
X137150000Y-77155679D01*
X135648637Y-77155679D01*
X135658878Y-77136520D01*
X135671744Y-77094108D01*
X135676088Y-77050000D01*
X135676088Y-76550000D01*
X135671744Y-76505892D01*
X135658878Y-76463480D01*
X135637985Y-76424392D01*
X135625911Y-76409679D01*
X139250000Y-76409679D01*
X139250000Y-76498321D01*
X139267294Y-76585260D01*
X139301215Y-76667155D01*
X139350462Y-76740858D01*
X139413142Y-76803538D01*
X139486845Y-76852785D01*
X139568740Y-76886706D01*
X139655679Y-76904000D01*
X139744321Y-76904000D01*
X139831260Y-76886706D01*
X139913155Y-76852785D01*
X139986858Y-76803538D01*
X140049538Y-76740858D01*
X140098785Y-76667155D01*
X140132706Y-76585260D01*
X140145107Y-76522917D01*
X140168740Y-76532706D01*
X140255679Y-76550000D01*
X140344321Y-76550000D01*
X140431260Y-76532706D01*
X140513155Y-76498785D01*
X140586858Y-76449538D01*
X140649538Y-76386858D01*
X140698785Y-76313155D01*
X140732706Y-76231260D01*
X140750000Y-76144321D01*
X140750000Y-76055679D01*
X140732706Y-75968740D01*
X140698785Y-75886845D01*
X140649538Y-75813142D01*
X140586858Y-75750462D01*
X140513155Y-75701215D01*
X140431260Y-75667294D01*
X140344321Y-75650000D01*
X140255679Y-75650000D01*
X140168740Y-75667294D01*
X140086845Y-75701215D01*
X140013142Y-75750462D01*
X139950462Y-75813142D01*
X139901215Y-75886845D01*
X139867294Y-75968740D01*
X139854893Y-76031083D01*
X139831260Y-76021294D01*
X139744321Y-76004000D01*
X139655679Y-76004000D01*
X139568740Y-76021294D01*
X139486845Y-76055215D01*
X139413142Y-76104462D01*
X139350462Y-76167142D01*
X139301215Y-76240845D01*
X139267294Y-76322740D01*
X139250000Y-76409679D01*
X135625911Y-76409679D01*
X135617967Y-76400000D01*
X135637985Y-76375608D01*
X135658878Y-76336520D01*
X135671744Y-76294108D01*
X135676088Y-76250000D01*
X135676088Y-75750000D01*
X135671744Y-75705892D01*
X135658878Y-75663480D01*
X135637985Y-75624392D01*
X135617967Y-75600000D01*
X135637985Y-75575608D01*
X135658878Y-75536520D01*
X135671744Y-75494108D01*
X135676088Y-75450000D01*
X135676088Y-74950000D01*
X135671744Y-74905892D01*
X135658878Y-74863480D01*
X135637985Y-74824392D01*
X135617967Y-74800000D01*
X135637985Y-74775608D01*
X135658878Y-74736520D01*
X135671744Y-74694108D01*
X135676088Y-74650000D01*
X135676088Y-74150000D01*
X135671744Y-74105892D01*
X135658878Y-74063480D01*
X135637985Y-74024392D01*
X135617967Y-74000000D01*
X135637985Y-73975608D01*
X135658878Y-73936520D01*
X135671744Y-73894108D01*
X135676088Y-73850000D01*
X135676088Y-73755679D01*
X140750000Y-73755679D01*
X140750000Y-73844321D01*
X140767294Y-73931260D01*
X140801215Y-74013155D01*
X140850462Y-74086858D01*
X140913142Y-74149538D01*
X140986845Y-74198785D01*
X141068740Y-74232706D01*
X141080001Y-74234946D01*
X141080001Y-74284323D01*
X141097295Y-74371262D01*
X141131216Y-74453157D01*
X141180463Y-74526860D01*
X141243143Y-74589540D01*
X141316846Y-74638787D01*
X141398741Y-74672708D01*
X141478012Y-74688477D01*
X141491496Y-74756262D01*
X141525417Y-74838157D01*
X141574664Y-74911860D01*
X141637344Y-74974540D01*
X141711047Y-75023787D01*
X141792942Y-75057708D01*
X141866411Y-75072323D01*
X141880820Y-75144757D01*
X141914741Y-75226652D01*
X141963988Y-75300355D01*
X142026668Y-75363035D01*
X142100371Y-75412282D01*
X142182266Y-75446203D01*
X142269205Y-75463497D01*
X142357847Y-75463497D01*
X142444786Y-75446203D01*
X142526681Y-75412282D01*
X142600384Y-75363035D01*
X142663064Y-75300355D01*
X142664305Y-75298497D01*
X150972513Y-75298497D01*
X150986503Y-75299875D01*
X151000493Y-75298497D01*
X151042373Y-75294372D01*
X151096095Y-75278076D01*
X151145606Y-75251612D01*
X151189003Y-75215997D01*
X151197927Y-75205123D01*
X151253486Y-75149564D01*
X151255679Y-75150000D01*
X151344321Y-75150000D01*
X151431260Y-75132706D01*
X151513155Y-75098785D01*
X151586858Y-75049538D01*
X151649538Y-74986858D01*
X151698785Y-74913155D01*
X151732706Y-74831260D01*
X151750000Y-74744321D01*
X151750000Y-74655679D01*
X151732706Y-74568740D01*
X151714590Y-74525002D01*
X152321952Y-74525002D01*
X152688580Y-74891631D01*
X152697500Y-74902500D01*
X152740897Y-74938115D01*
X152790408Y-74964579D01*
X152823246Y-74974540D01*
X152844129Y-74980875D01*
X152849892Y-74981443D01*
X152886010Y-74985000D01*
X152886016Y-74985000D01*
X152899999Y-74986377D01*
X152913982Y-74985000D01*
X155349221Y-74985000D01*
X155350462Y-74986858D01*
X155413142Y-75049538D01*
X155486845Y-75098785D01*
X155568740Y-75132706D01*
X155655679Y-75150000D01*
X155744321Y-75150000D01*
X155831260Y-75132706D01*
X155913155Y-75098785D01*
X155986858Y-75049538D01*
X156049538Y-74986858D01*
X156098785Y-74913155D01*
X156132706Y-74831260D01*
X156150000Y-74744321D01*
X156150000Y-74655679D01*
X156132706Y-74568740D01*
X156098785Y-74486845D01*
X156049538Y-74413142D01*
X155986858Y-74350462D01*
X155913155Y-74301215D01*
X155831260Y-74267294D01*
X155744321Y-74250000D01*
X155655679Y-74250000D01*
X155568740Y-74267294D01*
X155486845Y-74301215D01*
X155413142Y-74350462D01*
X155350462Y-74413142D01*
X155349221Y-74415000D01*
X153608377Y-74415000D01*
X153632706Y-74356262D01*
X153650000Y-74269323D01*
X153650000Y-74180681D01*
X153632706Y-74093742D01*
X153598785Y-74011847D01*
X153549538Y-73938144D01*
X153486858Y-73875464D01*
X153413155Y-73826217D01*
X153331260Y-73792296D01*
X153244321Y-73775002D01*
X153155679Y-73775002D01*
X153153487Y-73775438D01*
X152986422Y-73608374D01*
X152977498Y-73597500D01*
X152934101Y-73561885D01*
X152884590Y-73535421D01*
X152830868Y-73519125D01*
X152788988Y-73515000D01*
X152774998Y-73513622D01*
X152761008Y-73515000D01*
X141550779Y-73515000D01*
X141549538Y-73513142D01*
X141486858Y-73450462D01*
X141413155Y-73401215D01*
X141331260Y-73367294D01*
X141244321Y-73350000D01*
X141155679Y-73350000D01*
X141068740Y-73367294D01*
X140986845Y-73401215D01*
X140913142Y-73450462D01*
X140850462Y-73513142D01*
X140801215Y-73586845D01*
X140767294Y-73668740D01*
X140750000Y-73755679D01*
X135676088Y-73755679D01*
X135676088Y-73350000D01*
X135671744Y-73305892D01*
X135658878Y-73263480D01*
X135637985Y-73224392D01*
X135617967Y-73200000D01*
X135637985Y-73175608D01*
X135658878Y-73136520D01*
X135671744Y-73094108D01*
X135676088Y-73050000D01*
X135676088Y-72789808D01*
X135772201Y-72739257D01*
X135861460Y-72666998D01*
X135934906Y-72578714D01*
X135989717Y-72477797D01*
X136023788Y-72368126D01*
X136033000Y-72320750D01*
X135887250Y-72175000D01*
X130629000Y-72175000D01*
X130629000Y-72199000D01*
X130271000Y-72199000D01*
X130271000Y-72175000D01*
X125012750Y-72175000D01*
X124867000Y-72320750D01*
X124876212Y-72368126D01*
X124910283Y-72477797D01*
X124965094Y-72578714D01*
X125038540Y-72666998D01*
X125127799Y-72739257D01*
X125223912Y-72789808D01*
X125223912Y-73050000D01*
X125228256Y-73094108D01*
X125241122Y-73136520D01*
X125262015Y-73175608D01*
X125282033Y-73200000D01*
X125262015Y-73224392D01*
X125241122Y-73263480D01*
X125228256Y-73305892D01*
X125223912Y-73350000D01*
X125223912Y-73850000D01*
X125228256Y-73894108D01*
X125241122Y-73936520D01*
X125262015Y-73975608D01*
X125282033Y-74000000D01*
X125262015Y-74024392D01*
X125241122Y-74063480D01*
X125228256Y-74105892D01*
X125223912Y-74150000D01*
X125223912Y-74650000D01*
X125228256Y-74694108D01*
X125241122Y-74736520D01*
X125262015Y-74775608D01*
X125282033Y-74800000D01*
X125262015Y-74824392D01*
X125241122Y-74863480D01*
X125228256Y-74905892D01*
X125223912Y-74950000D01*
X125223912Y-75450000D01*
X125228256Y-75494108D01*
X125241122Y-75536520D01*
X125262015Y-75575608D01*
X125282033Y-75600000D01*
X125262015Y-75624392D01*
X125241122Y-75663480D01*
X125228256Y-75705892D01*
X125223912Y-75750000D01*
X125223912Y-76250000D01*
X125228256Y-76294108D01*
X125241122Y-76336520D01*
X125262015Y-76375608D01*
X125282033Y-76400000D01*
X125262015Y-76424392D01*
X125241122Y-76463480D01*
X125228256Y-76505892D01*
X125223912Y-76550000D01*
X125223912Y-77050000D01*
X125228256Y-77094108D01*
X125241122Y-77136520D01*
X125262015Y-77175608D01*
X125282033Y-77200000D01*
X125262015Y-77224392D01*
X125241122Y-77263480D01*
X125228256Y-77305892D01*
X125223912Y-77350000D01*
X125223912Y-77850000D01*
X125228256Y-77894108D01*
X125241122Y-77936520D01*
X125262015Y-77975608D01*
X125282033Y-78000000D01*
X125262015Y-78024392D01*
X125241122Y-78063480D01*
X125228256Y-78105892D01*
X125223912Y-78150000D01*
X125223912Y-78650000D01*
X125228256Y-78694108D01*
X125241122Y-78736520D01*
X125262015Y-78775608D01*
X125282033Y-78800000D01*
X125262015Y-78824392D01*
X125241122Y-78863480D01*
X125228256Y-78905892D01*
X125223912Y-78950000D01*
X125223912Y-79450000D01*
X125228256Y-79494108D01*
X125241122Y-79536520D01*
X125262015Y-79575608D01*
X125282033Y-79600000D01*
X125262015Y-79624392D01*
X125241122Y-79663480D01*
X125228256Y-79705892D01*
X125223912Y-79750000D01*
X125223912Y-80250000D01*
X125228256Y-80294108D01*
X125241122Y-80336520D01*
X125262015Y-80375608D01*
X125282033Y-80400000D01*
X125262015Y-80424392D01*
X125241122Y-80463480D01*
X125228256Y-80505892D01*
X125223912Y-80550000D01*
X125223912Y-81050000D01*
X125228256Y-81094108D01*
X125241122Y-81136520D01*
X125262015Y-81175608D01*
X125282033Y-81200000D01*
X125262015Y-81224392D01*
X125241122Y-81263480D01*
X125228256Y-81305892D01*
X125223912Y-81350000D01*
X125223912Y-81850000D01*
X125228256Y-81894108D01*
X125241122Y-81936520D01*
X125262015Y-81975608D01*
X125282033Y-82000000D01*
X125262015Y-82024392D01*
X125241122Y-82063480D01*
X125228256Y-82105892D01*
X125223912Y-82150000D01*
X125223912Y-82650000D01*
X125228256Y-82694108D01*
X125241122Y-82736520D01*
X125262015Y-82775608D01*
X125282033Y-82800000D01*
X125262015Y-82824392D01*
X125241122Y-82863480D01*
X125228256Y-82905892D01*
X125223912Y-82950000D01*
X125223912Y-83124605D01*
X125206260Y-83117294D01*
X125119321Y-83100000D01*
X125030679Y-83100000D01*
X124943740Y-83117294D01*
X124861845Y-83151215D01*
X124788142Y-83200462D01*
X124725462Y-83263142D01*
X124676215Y-83336845D01*
X124642294Y-83418740D01*
X124625000Y-83505679D01*
X124625000Y-83594321D01*
X124642294Y-83681260D01*
X124676215Y-83763155D01*
X124725462Y-83836858D01*
X124788142Y-83899538D01*
X124861845Y-83948785D01*
X124943740Y-83982706D01*
X125030679Y-84000000D01*
X125119321Y-84000000D01*
X125206260Y-83982706D01*
X125223912Y-83975395D01*
X125223912Y-84250000D01*
X125228256Y-84294108D01*
X125241122Y-84336520D01*
X125262015Y-84375608D01*
X125282033Y-84400000D01*
X125262015Y-84424392D01*
X125241122Y-84463480D01*
X125228607Y-84504734D01*
X125206883Y-84506874D01*
X125117345Y-84534035D01*
X125034826Y-84578142D01*
X124962498Y-84637500D01*
X124947619Y-84655630D01*
X124722627Y-84880623D01*
X124678142Y-84934828D01*
X124634035Y-85017346D01*
X124606873Y-85106884D01*
X124597702Y-85200000D01*
X124606873Y-85293116D01*
X124634035Y-85382654D01*
X124678142Y-85465172D01*
X124737500Y-85537500D01*
X124809828Y-85596858D01*
X124892346Y-85640965D01*
X124981884Y-85668127D01*
X125075000Y-85677298D01*
X125168116Y-85668127D01*
X125223912Y-85651201D01*
X125223912Y-85850000D01*
X125228256Y-85894108D01*
X125241122Y-85936520D01*
X125262015Y-85975608D01*
X125282033Y-86000000D01*
X125262015Y-86024392D01*
X125241122Y-86063480D01*
X125228256Y-86105892D01*
X125223912Y-86150000D01*
X125223912Y-86650000D01*
X125228256Y-86694108D01*
X125241122Y-86736520D01*
X125262015Y-86775608D01*
X125282033Y-86800000D01*
X125262015Y-86824392D01*
X125241122Y-86863480D01*
X125228256Y-86905892D01*
X125223912Y-86950000D01*
X125223912Y-87450000D01*
X125228256Y-87494108D01*
X125241122Y-87536520D01*
X125262015Y-87575608D01*
X125282033Y-87600000D01*
X125262015Y-87624392D01*
X125241122Y-87663480D01*
X125228256Y-87705892D01*
X125223912Y-87750000D01*
X125223912Y-88164855D01*
X125210637Y-88151580D01*
X125136934Y-88102333D01*
X125055039Y-88068412D01*
X125011600Y-88059771D01*
X125011600Y-88042879D01*
X124994306Y-87955940D01*
X124960385Y-87874045D01*
X124911138Y-87800342D01*
X124848458Y-87737662D01*
X124774755Y-87688415D01*
X124692860Y-87654494D01*
X124605921Y-87637200D01*
X124517279Y-87637200D01*
X124430340Y-87654494D01*
X124348445Y-87688415D01*
X124274742Y-87737662D01*
X124212062Y-87800342D01*
X124162815Y-87874045D01*
X124128894Y-87955940D01*
X124111600Y-88042879D01*
X124111600Y-88131521D01*
X124114383Y-88145509D01*
X124021095Y-88238797D01*
X124010606Y-88247405D01*
X123976241Y-88289279D01*
X123967451Y-88305724D01*
X123950705Y-88337053D01*
X123934980Y-88388891D01*
X123929670Y-88442800D01*
X123931001Y-88456313D01*
X123931001Y-88925000D01*
X123475000Y-88925000D01*
X123475000Y-72055679D01*
X139150000Y-72055679D01*
X139150000Y-72144321D01*
X139167294Y-72231260D01*
X139201215Y-72313155D01*
X139250462Y-72386858D01*
X139313142Y-72449538D01*
X139386845Y-72498785D01*
X139389778Y-72500000D01*
X139386845Y-72501215D01*
X139313142Y-72550462D01*
X139250462Y-72613142D01*
X139201215Y-72686845D01*
X139167294Y-72768740D01*
X139150000Y-72855679D01*
X139150000Y-72944321D01*
X139167294Y-73031260D01*
X139201215Y-73113155D01*
X139250462Y-73186858D01*
X139313142Y-73249538D01*
X139386845Y-73298785D01*
X139468740Y-73332706D01*
X139555679Y-73350000D01*
X139644321Y-73350000D01*
X139731260Y-73332706D01*
X139813155Y-73298785D01*
X139886858Y-73249538D01*
X139949538Y-73186858D01*
X139998785Y-73113155D01*
X140032706Y-73031260D01*
X140050000Y-72944321D01*
X140050000Y-72855679D01*
X140032706Y-72768740D01*
X140027297Y-72755679D01*
X152850000Y-72755679D01*
X152850000Y-72844321D01*
X152867294Y-72931260D01*
X152901215Y-73013155D01*
X152950462Y-73086858D01*
X153013142Y-73149538D01*
X153086845Y-73198785D01*
X153168740Y-73232706D01*
X153255679Y-73250000D01*
X153344321Y-73250000D01*
X153431260Y-73232706D01*
X153513155Y-73198785D01*
X153586858Y-73149538D01*
X153649538Y-73086858D01*
X153698785Y-73013155D01*
X153732706Y-72931260D01*
X153747740Y-72855679D01*
X155650000Y-72855679D01*
X155650000Y-72944321D01*
X155667294Y-73031260D01*
X155701215Y-73113155D01*
X155750462Y-73186858D01*
X155813142Y-73249538D01*
X155886845Y-73298785D01*
X155968740Y-73332706D01*
X156055679Y-73350000D01*
X156144321Y-73350000D01*
X156231260Y-73332706D01*
X156313155Y-73298785D01*
X156386858Y-73249538D01*
X156449538Y-73186858D01*
X156498785Y-73113155D01*
X156532706Y-73031260D01*
X156550000Y-72944321D01*
X156550000Y-72855679D01*
X156532706Y-72768740D01*
X156498785Y-72686845D01*
X156449538Y-72613142D01*
X156386858Y-72550462D01*
X156313155Y-72501215D01*
X156231260Y-72467294D01*
X156144321Y-72450000D01*
X156055679Y-72450000D01*
X155968740Y-72467294D01*
X155886845Y-72501215D01*
X155813142Y-72550462D01*
X155750462Y-72613142D01*
X155701215Y-72686845D01*
X155667294Y-72768740D01*
X155650000Y-72855679D01*
X153747740Y-72855679D01*
X153750000Y-72844321D01*
X153750000Y-72755679D01*
X153732706Y-72668740D01*
X153698785Y-72586845D01*
X153649538Y-72513142D01*
X153586858Y-72450462D01*
X153513155Y-72401215D01*
X153431260Y-72367294D01*
X153344321Y-72350000D01*
X153255679Y-72350000D01*
X153168740Y-72367294D01*
X153086845Y-72401215D01*
X153013142Y-72450462D01*
X152950462Y-72513142D01*
X152901215Y-72586845D01*
X152867294Y-72668740D01*
X152850000Y-72755679D01*
X140027297Y-72755679D01*
X139998785Y-72686845D01*
X139949538Y-72613142D01*
X139886858Y-72550462D01*
X139813155Y-72501215D01*
X139810222Y-72500000D01*
X139813155Y-72498785D01*
X139886858Y-72449538D01*
X139949538Y-72386858D01*
X139950000Y-72386167D01*
X139950462Y-72386858D01*
X140013142Y-72449538D01*
X140086845Y-72498785D01*
X140168740Y-72532706D01*
X140255679Y-72550000D01*
X140344321Y-72550000D01*
X140431260Y-72532706D01*
X140513155Y-72498785D01*
X140586858Y-72449538D01*
X140649538Y-72386858D01*
X140698785Y-72313155D01*
X140732706Y-72231260D01*
X140750000Y-72144321D01*
X140750000Y-72055679D01*
X140732706Y-71968740D01*
X140698785Y-71886845D01*
X140649538Y-71813142D01*
X140586858Y-71750462D01*
X140513155Y-71701215D01*
X140431260Y-71667294D01*
X140344321Y-71650000D01*
X140255679Y-71650000D01*
X140168740Y-71667294D01*
X140086845Y-71701215D01*
X140013142Y-71750462D01*
X139950462Y-71813142D01*
X139950000Y-71813833D01*
X139949538Y-71813142D01*
X139886858Y-71750462D01*
X139813155Y-71701215D01*
X139731260Y-71667294D01*
X139644321Y-71650000D01*
X139555679Y-71650000D01*
X139468740Y-71667294D01*
X139386845Y-71701215D01*
X139313142Y-71750462D01*
X139250462Y-71813142D01*
X139201215Y-71886845D01*
X139167294Y-71968740D01*
X139150000Y-72055679D01*
X123475000Y-72055679D01*
X123475000Y-71520750D01*
X124867000Y-71520750D01*
X124876212Y-71568126D01*
X124886114Y-71600000D01*
X124876212Y-71631874D01*
X124867000Y-71679250D01*
X124963465Y-71775715D01*
X124965094Y-71778714D01*
X125038540Y-71866998D01*
X125127799Y-71939257D01*
X125229439Y-71992715D01*
X125339556Y-72025316D01*
X125453916Y-72035808D01*
X130125250Y-72033000D01*
X130271000Y-71887250D01*
X130271000Y-71312750D01*
X130629000Y-71312750D01*
X130629000Y-71887250D01*
X130774750Y-72033000D01*
X135446084Y-72035808D01*
X135560444Y-72025316D01*
X135670561Y-71992715D01*
X135772201Y-71939257D01*
X135861460Y-71866998D01*
X135934906Y-71778714D01*
X135936535Y-71775715D01*
X136033000Y-71679250D01*
X136023788Y-71631874D01*
X136013886Y-71600000D01*
X136023788Y-71568126D01*
X136033000Y-71520750D01*
X135936535Y-71424285D01*
X135934906Y-71421286D01*
X135861460Y-71333002D01*
X135772201Y-71260743D01*
X135670561Y-71207285D01*
X135560444Y-71174684D01*
X135446084Y-71164192D01*
X130774750Y-71167000D01*
X130629000Y-71312750D01*
X130271000Y-71312750D01*
X130125250Y-71167000D01*
X125453916Y-71164192D01*
X125339556Y-71174684D01*
X125229439Y-71207285D01*
X125127799Y-71260743D01*
X125038540Y-71333002D01*
X124965094Y-71421286D01*
X124963465Y-71424285D01*
X124867000Y-71520750D01*
X123475000Y-71520750D01*
X123475000Y-70355679D01*
X124150000Y-70355679D01*
X124150000Y-70444321D01*
X124167294Y-70531260D01*
X124201215Y-70613155D01*
X124250462Y-70686858D01*
X124313142Y-70749538D01*
X124386845Y-70798785D01*
X124468740Y-70832706D01*
X124555679Y-70850000D01*
X124644321Y-70850000D01*
X124731260Y-70832706D01*
X124813155Y-70798785D01*
X124886858Y-70749538D01*
X124908521Y-70727875D01*
X124876212Y-70831874D01*
X124867000Y-70879250D01*
X125012750Y-71025000D01*
X130271000Y-71025000D01*
X130271000Y-71001000D01*
X130629000Y-71001000D01*
X130629000Y-71025000D01*
X135887250Y-71025000D01*
X136033000Y-70879250D01*
X136023788Y-70831874D01*
X135989717Y-70722203D01*
X135934906Y-70621286D01*
X135861460Y-70533002D01*
X135772201Y-70460743D01*
X135676088Y-70410192D01*
X135676088Y-70150000D01*
X135671744Y-70105892D01*
X135658878Y-70063480D01*
X135637985Y-70024392D01*
X135609868Y-69990132D01*
X135575608Y-69962015D01*
X135536520Y-69941122D01*
X135494108Y-69928256D01*
X135450000Y-69923912D01*
X125450000Y-69923912D01*
X125405892Y-69928256D01*
X125363480Y-69941122D01*
X125324392Y-69962015D01*
X125290132Y-69990132D01*
X125262015Y-70024392D01*
X125241122Y-70063480D01*
X125228256Y-70105892D01*
X125226374Y-70125000D01*
X124957461Y-70125000D01*
X124949538Y-70113142D01*
X124886858Y-70050462D01*
X124813155Y-70001215D01*
X124731260Y-69967294D01*
X124644321Y-69950000D01*
X124555679Y-69950000D01*
X124468740Y-69967294D01*
X124386845Y-70001215D01*
X124313142Y-70050462D01*
X124250462Y-70113142D01*
X124201215Y-70186845D01*
X124167294Y-70268740D01*
X124150000Y-70355679D01*
X123475000Y-70355679D01*
X123475000Y-69655679D01*
X140550000Y-69655679D01*
X140550000Y-69744321D01*
X140567294Y-69831260D01*
X140601215Y-69913155D01*
X140650462Y-69986858D01*
X140713142Y-70049538D01*
X140786845Y-70098785D01*
X140868740Y-70132706D01*
X140941692Y-70147218D01*
X140956204Y-70220170D01*
X140990125Y-70302065D01*
X141039372Y-70375768D01*
X141102052Y-70438448D01*
X141175755Y-70487695D01*
X141257650Y-70521616D01*
X141344589Y-70538910D01*
X141350000Y-70538910D01*
X141350000Y-70544321D01*
X141367294Y-70631260D01*
X141401215Y-70713155D01*
X141450462Y-70786858D01*
X141513142Y-70849538D01*
X141586845Y-70898785D01*
X141668740Y-70932706D01*
X141750942Y-70949058D01*
X141767294Y-71031260D01*
X141801215Y-71113155D01*
X141850462Y-71186858D01*
X141913142Y-71249538D01*
X141986845Y-71298785D01*
X142068740Y-71332706D01*
X142155679Y-71350000D01*
X142244321Y-71350000D01*
X142331260Y-71332706D01*
X142413155Y-71298785D01*
X142486858Y-71249538D01*
X142549538Y-71186858D01*
X142550779Y-71185000D01*
X148249221Y-71185000D01*
X148250462Y-71186858D01*
X148313142Y-71249538D01*
X148386845Y-71298785D01*
X148468740Y-71332706D01*
X148555679Y-71350000D01*
X148644321Y-71350000D01*
X148731260Y-71332706D01*
X148813155Y-71298785D01*
X148886858Y-71249538D01*
X148949538Y-71186858D01*
X148998785Y-71113155D01*
X149032706Y-71031260D01*
X149050000Y-70944321D01*
X149050000Y-70855679D01*
X149035940Y-70785000D01*
X149549221Y-70785000D01*
X149550462Y-70786858D01*
X149613142Y-70849538D01*
X149686845Y-70898785D01*
X149768740Y-70932706D01*
X149855679Y-70950000D01*
X149944321Y-70950000D01*
X150031260Y-70932706D01*
X150113155Y-70898785D01*
X150186858Y-70849538D01*
X150249538Y-70786858D01*
X150298785Y-70713155D01*
X150332706Y-70631260D01*
X150350000Y-70544321D01*
X150350000Y-70455679D01*
X150333734Y-70373910D01*
X150341810Y-70373910D01*
X150350462Y-70386858D01*
X150413142Y-70449538D01*
X150486845Y-70498785D01*
X150568740Y-70532706D01*
X150655679Y-70550000D01*
X150744321Y-70550000D01*
X150831260Y-70532706D01*
X150913155Y-70498785D01*
X150986858Y-70449538D01*
X151049538Y-70386858D01*
X151098785Y-70313155D01*
X151132706Y-70231260D01*
X151150000Y-70144321D01*
X151150000Y-70055679D01*
X151135940Y-69985000D01*
X151586010Y-69985000D01*
X151600000Y-69986378D01*
X151613990Y-69985000D01*
X151655870Y-69980875D01*
X151709592Y-69964579D01*
X151759103Y-69938115D01*
X151802500Y-69902500D01*
X151811424Y-69891626D01*
X151947371Y-69755679D01*
X152850000Y-69755679D01*
X152850000Y-69844321D01*
X152867294Y-69931260D01*
X152901215Y-70013155D01*
X152950462Y-70086858D01*
X153013142Y-70149538D01*
X153086845Y-70198785D01*
X153168740Y-70232706D01*
X153255679Y-70250000D01*
X153344321Y-70250000D01*
X153431260Y-70232706D01*
X153513155Y-70198785D01*
X153586858Y-70149538D01*
X153649538Y-70086858D01*
X153698785Y-70013155D01*
X153732706Y-69931260D01*
X153750000Y-69844321D01*
X153750000Y-69755679D01*
X155650000Y-69755679D01*
X155650000Y-69844321D01*
X155667294Y-69931260D01*
X155701215Y-70013155D01*
X155750462Y-70086858D01*
X155813142Y-70149538D01*
X155886845Y-70198785D01*
X155968740Y-70232706D01*
X156055679Y-70250000D01*
X156144321Y-70250000D01*
X156231260Y-70232706D01*
X156313155Y-70198785D01*
X156386858Y-70149538D01*
X156449538Y-70086858D01*
X156498785Y-70013155D01*
X156532706Y-69931260D01*
X156550000Y-69844321D01*
X156550000Y-69755679D01*
X156532706Y-69668740D01*
X156498785Y-69586845D01*
X156449538Y-69513142D01*
X156386858Y-69450462D01*
X156313155Y-69401215D01*
X156231260Y-69367294D01*
X156144321Y-69350000D01*
X156055679Y-69350000D01*
X155968740Y-69367294D01*
X155886845Y-69401215D01*
X155813142Y-69450462D01*
X155750462Y-69513142D01*
X155701215Y-69586845D01*
X155667294Y-69668740D01*
X155650000Y-69755679D01*
X153750000Y-69755679D01*
X153732706Y-69668740D01*
X153698785Y-69586845D01*
X153649538Y-69513142D01*
X153586858Y-69450462D01*
X153513155Y-69401215D01*
X153431260Y-69367294D01*
X153344321Y-69350000D01*
X153255679Y-69350000D01*
X153168740Y-69367294D01*
X153086845Y-69401215D01*
X153013142Y-69450462D01*
X152950462Y-69513142D01*
X152901215Y-69586845D01*
X152867294Y-69668740D01*
X152850000Y-69755679D01*
X151947371Y-69755679D01*
X152491632Y-69211419D01*
X152502500Y-69202500D01*
X152538115Y-69159103D01*
X152564579Y-69109592D01*
X152580875Y-69055870D01*
X152585000Y-69013990D01*
X152585000Y-69013984D01*
X152586377Y-69000001D01*
X152585000Y-68986018D01*
X152585000Y-68750779D01*
X152586858Y-68749538D01*
X152649538Y-68686858D01*
X152698785Y-68613155D01*
X152732706Y-68531260D01*
X152750000Y-68444321D01*
X152750000Y-68355679D01*
X152732706Y-68268740D01*
X152698785Y-68186845D01*
X152649538Y-68113142D01*
X152586858Y-68050462D01*
X152513155Y-68001215D01*
X152431260Y-67967294D01*
X152344321Y-67950000D01*
X152255679Y-67950000D01*
X152168740Y-67967294D01*
X152086845Y-68001215D01*
X152013142Y-68050462D01*
X151950462Y-68113142D01*
X151901215Y-68186845D01*
X151867294Y-68268740D01*
X151850000Y-68355679D01*
X151850000Y-68444321D01*
X151867294Y-68531260D01*
X151901215Y-68613155D01*
X151950462Y-68686858D01*
X152013142Y-68749538D01*
X152015000Y-68750780D01*
X152015000Y-68881949D01*
X151481950Y-69415000D01*
X141350779Y-69415000D01*
X141349538Y-69413142D01*
X141286858Y-69350462D01*
X141213155Y-69301215D01*
X141131260Y-69267294D01*
X141044321Y-69250000D01*
X140955679Y-69250000D01*
X140868740Y-69267294D01*
X140786845Y-69301215D01*
X140713142Y-69350462D01*
X140650462Y-69413142D01*
X140601215Y-69486845D01*
X140567294Y-69568740D01*
X140550000Y-69655679D01*
X123475000Y-69655679D01*
X123475000Y-68755679D01*
X139150000Y-68755679D01*
X139150000Y-68844321D01*
X139167294Y-68931260D01*
X139201215Y-69013155D01*
X139250462Y-69086858D01*
X139313142Y-69149538D01*
X139386845Y-69198785D01*
X139468740Y-69232706D01*
X139555679Y-69250000D01*
X139644321Y-69250000D01*
X139731260Y-69232706D01*
X139813155Y-69198785D01*
X139886858Y-69149538D01*
X139949538Y-69086858D01*
X139998785Y-69013155D01*
X140032706Y-68931260D01*
X140050000Y-68844321D01*
X140050000Y-68755679D01*
X140032706Y-68668740D01*
X139998785Y-68586845D01*
X139949538Y-68513142D01*
X139886858Y-68450462D01*
X139813155Y-68401215D01*
X139731260Y-68367294D01*
X139644321Y-68350000D01*
X139555679Y-68350000D01*
X139468740Y-68367294D01*
X139386845Y-68401215D01*
X139313142Y-68450462D01*
X139250462Y-68513142D01*
X139201215Y-68586845D01*
X139167294Y-68668740D01*
X139150000Y-68755679D01*
X123475000Y-68755679D01*
X123475000Y-68155679D01*
X125150000Y-68155679D01*
X125150000Y-68244321D01*
X125167294Y-68331260D01*
X125201215Y-68413155D01*
X125250462Y-68486858D01*
X125313142Y-68549538D01*
X125386845Y-68598785D01*
X125468740Y-68632706D01*
X125555679Y-68650000D01*
X125644321Y-68650000D01*
X125731260Y-68632706D01*
X125813155Y-68598785D01*
X125886858Y-68549538D01*
X125949538Y-68486858D01*
X125998785Y-68413155D01*
X126032706Y-68331260D01*
X126050000Y-68244321D01*
X126050000Y-68155679D01*
X126032706Y-68068740D01*
X125998785Y-67986845D01*
X125949538Y-67913142D01*
X125886858Y-67850462D01*
X125813155Y-67801215D01*
X125731260Y-67767294D01*
X125644321Y-67750000D01*
X125555679Y-67750000D01*
X125468740Y-67767294D01*
X125386845Y-67801215D01*
X125313142Y-67850462D01*
X125250462Y-67913142D01*
X125201215Y-67986845D01*
X125167294Y-68068740D01*
X125150000Y-68155679D01*
X123475000Y-68155679D01*
X123475000Y-66325679D01*
X123740000Y-66325679D01*
X123740000Y-66414321D01*
X123757294Y-66501260D01*
X123791215Y-66583155D01*
X123840462Y-66656858D01*
X123903142Y-66719538D01*
X123976845Y-66768785D01*
X124058740Y-66802706D01*
X124145679Y-66820000D01*
X124234321Y-66820000D01*
X124321260Y-66802706D01*
X124403155Y-66768785D01*
X124476858Y-66719538D01*
X124539538Y-66656858D01*
X124540779Y-66655000D01*
X127501950Y-66655000D01*
X129078580Y-68231631D01*
X129087500Y-68242500D01*
X129130897Y-68278115D01*
X129153896Y-68290408D01*
X129180407Y-68304579D01*
X129234130Y-68320875D01*
X129290000Y-68326378D01*
X129303990Y-68325000D01*
X132569221Y-68325000D01*
X132570462Y-68326858D01*
X132633142Y-68389538D01*
X132706845Y-68438785D01*
X132788740Y-68472706D01*
X132875679Y-68490000D01*
X132964321Y-68490000D01*
X133051260Y-68472706D01*
X133133155Y-68438785D01*
X133206858Y-68389538D01*
X133269538Y-68326858D01*
X133318785Y-68253155D01*
X133352706Y-68171260D01*
X133370000Y-68084321D01*
X133370000Y-67995679D01*
X133352706Y-67908740D01*
X133318785Y-67826845D01*
X133269538Y-67753142D01*
X133206858Y-67690462D01*
X133133155Y-67641215D01*
X133051260Y-67607294D01*
X132964321Y-67590000D01*
X132875679Y-67590000D01*
X132788740Y-67607294D01*
X132706845Y-67641215D01*
X132633142Y-67690462D01*
X132570462Y-67753142D01*
X132569221Y-67755000D01*
X129408051Y-67755000D01*
X129208730Y-67555679D01*
X139050000Y-67555679D01*
X139050000Y-67644321D01*
X139067294Y-67731260D01*
X139101215Y-67813155D01*
X139150462Y-67886858D01*
X139213142Y-67949538D01*
X139286845Y-67998785D01*
X139368740Y-68032706D01*
X139455679Y-68050000D01*
X139544321Y-68050000D01*
X139631260Y-68032706D01*
X139713155Y-67998785D01*
X139786858Y-67949538D01*
X139849538Y-67886858D01*
X139898785Y-67813155D01*
X139900000Y-67810222D01*
X139901215Y-67813155D01*
X139950462Y-67886858D01*
X140013142Y-67949538D01*
X140086845Y-67998785D01*
X140168740Y-68032706D01*
X140255679Y-68050000D01*
X140344321Y-68050000D01*
X140431260Y-68032706D01*
X140513155Y-67998785D01*
X140586858Y-67949538D01*
X140649538Y-67886858D01*
X140698785Y-67813155D01*
X140732706Y-67731260D01*
X140750000Y-67644321D01*
X140750000Y-67555679D01*
X140732706Y-67468740D01*
X140698785Y-67386845D01*
X140649538Y-67313142D01*
X140602075Y-67265679D01*
X156877600Y-67265679D01*
X156877600Y-67354321D01*
X156894894Y-67441260D01*
X156928815Y-67523155D01*
X156978062Y-67596858D01*
X157040742Y-67659538D01*
X157114445Y-67708785D01*
X157196340Y-67742706D01*
X157283279Y-67760000D01*
X157371921Y-67760000D01*
X157458860Y-67742706D01*
X157540755Y-67708785D01*
X157614458Y-67659538D01*
X157677138Y-67596858D01*
X157685061Y-67585000D01*
X161084939Y-67585000D01*
X161092862Y-67596858D01*
X161155542Y-67659538D01*
X161229245Y-67708785D01*
X161311140Y-67742706D01*
X161398079Y-67760000D01*
X161486721Y-67760000D01*
X161573660Y-67742706D01*
X161655555Y-67708785D01*
X161729258Y-67659538D01*
X161791938Y-67596858D01*
X161841185Y-67523155D01*
X161875106Y-67441260D01*
X161892400Y-67354321D01*
X161892400Y-67265679D01*
X161875106Y-67178740D01*
X161841185Y-67096845D01*
X161791938Y-67023142D01*
X161729258Y-66960462D01*
X161655555Y-66911215D01*
X161573660Y-66877294D01*
X161486721Y-66860000D01*
X161398079Y-66860000D01*
X161311140Y-66877294D01*
X161229245Y-66911215D01*
X161155542Y-66960462D01*
X161092862Y-67023142D01*
X161084939Y-67035000D01*
X157685061Y-67035000D01*
X157677138Y-67023142D01*
X157614458Y-66960462D01*
X157540755Y-66911215D01*
X157458860Y-66877294D01*
X157371921Y-66860000D01*
X157283279Y-66860000D01*
X157196340Y-66877294D01*
X157114445Y-66911215D01*
X157040742Y-66960462D01*
X156978062Y-67023142D01*
X156928815Y-67096845D01*
X156894894Y-67178740D01*
X156877600Y-67265679D01*
X140602075Y-67265679D01*
X140586858Y-67250462D01*
X140513155Y-67201215D01*
X140431260Y-67167294D01*
X140344321Y-67150000D01*
X140255679Y-67150000D01*
X140168740Y-67167294D01*
X140086845Y-67201215D01*
X140013142Y-67250462D01*
X139950462Y-67313142D01*
X139901215Y-67386845D01*
X139900000Y-67389778D01*
X139898785Y-67386845D01*
X139849538Y-67313142D01*
X139786858Y-67250462D01*
X139713155Y-67201215D01*
X139631260Y-67167294D01*
X139544321Y-67150000D01*
X139455679Y-67150000D01*
X139368740Y-67167294D01*
X139286845Y-67201215D01*
X139213142Y-67250462D01*
X139150462Y-67313142D01*
X139101215Y-67386845D01*
X139067294Y-67468740D01*
X139050000Y-67555679D01*
X129208730Y-67555679D01*
X128293730Y-66640679D01*
X144145000Y-66640679D01*
X144145000Y-66729321D01*
X144162294Y-66816260D01*
X144196215Y-66898155D01*
X144245462Y-66971858D01*
X144308142Y-67034538D01*
X144381845Y-67083785D01*
X144463740Y-67117706D01*
X144550679Y-67135000D01*
X144639321Y-67135000D01*
X144726260Y-67117706D01*
X144808155Y-67083785D01*
X144881858Y-67034538D01*
X144944538Y-66971858D01*
X144993785Y-66898155D01*
X145027706Y-66816260D01*
X145045000Y-66729321D01*
X145045000Y-66640679D01*
X145027706Y-66553740D01*
X144993785Y-66471845D01*
X144944538Y-66398142D01*
X144881858Y-66335462D01*
X144808155Y-66286215D01*
X144726260Y-66252294D01*
X144639321Y-66235000D01*
X144550679Y-66235000D01*
X144463740Y-66252294D01*
X144381845Y-66286215D01*
X144308142Y-66335462D01*
X144245462Y-66398142D01*
X144196215Y-66471845D01*
X144162294Y-66553740D01*
X144145000Y-66640679D01*
X128293730Y-66640679D01*
X127831424Y-66178374D01*
X127822500Y-66167500D01*
X127779103Y-66131885D01*
X127729592Y-66105421D01*
X127675870Y-66089125D01*
X127633990Y-66085000D01*
X127620000Y-66083622D01*
X127606010Y-66085000D01*
X124540779Y-66085000D01*
X124539538Y-66083142D01*
X124476858Y-66020462D01*
X124403155Y-65971215D01*
X124321260Y-65937294D01*
X124234321Y-65920000D01*
X124145679Y-65920000D01*
X124058740Y-65937294D01*
X123976845Y-65971215D01*
X123903142Y-66020462D01*
X123840462Y-66083142D01*
X123791215Y-66156845D01*
X123757294Y-66238740D01*
X123740000Y-66325679D01*
X123475000Y-66325679D01*
X123475000Y-65840680D01*
X140609411Y-65840680D01*
X140609411Y-65929322D01*
X140626705Y-66016261D01*
X140660626Y-66098156D01*
X140709873Y-66171859D01*
X140772553Y-66234539D01*
X140846256Y-66283786D01*
X140928151Y-66317707D01*
X141015090Y-66335001D01*
X141103732Y-66335001D01*
X141190671Y-66317707D01*
X141272566Y-66283786D01*
X141346269Y-66234539D01*
X141408949Y-66171859D01*
X141410190Y-66170001D01*
X151439198Y-66170001D01*
X151450462Y-66186858D01*
X151513142Y-66249538D01*
X151586845Y-66298785D01*
X151668740Y-66332706D01*
X151755679Y-66350000D01*
X151844321Y-66350000D01*
X151931260Y-66332706D01*
X152013155Y-66298785D01*
X152086858Y-66249538D01*
X152149538Y-66186858D01*
X152198785Y-66113155D01*
X152232706Y-66031260D01*
X152250000Y-65944321D01*
X152250000Y-65855679D01*
X152232706Y-65768740D01*
X152198785Y-65686845D01*
X152149538Y-65613142D01*
X152086858Y-65550462D01*
X152013155Y-65501215D01*
X151931260Y-65467294D01*
X151844321Y-65450000D01*
X151755679Y-65450000D01*
X151668740Y-65467294D01*
X151586845Y-65501215D01*
X151513142Y-65550462D01*
X151463603Y-65600001D01*
X149736395Y-65600001D01*
X149749538Y-65586858D01*
X149798785Y-65513155D01*
X149832706Y-65431260D01*
X149850000Y-65344321D01*
X149850000Y-65255679D01*
X149832706Y-65168740D01*
X149798785Y-65086845D01*
X149749538Y-65013142D01*
X149686858Y-64950462D01*
X149613155Y-64901215D01*
X149531260Y-64867294D01*
X149444321Y-64850000D01*
X149355679Y-64850000D01*
X149341970Y-64852727D01*
X149309592Y-64835421D01*
X149255870Y-64819125D01*
X149213990Y-64815000D01*
X149200000Y-64813622D01*
X149186010Y-64815000D01*
X141450779Y-64815000D01*
X141449538Y-64813142D01*
X141386858Y-64750462D01*
X141313155Y-64701215D01*
X141231260Y-64667294D01*
X141144321Y-64650000D01*
X141055679Y-64650000D01*
X140968740Y-64667294D01*
X140886845Y-64701215D01*
X140813142Y-64750462D01*
X140750462Y-64813142D01*
X140701215Y-64886845D01*
X140667294Y-64968740D01*
X140650000Y-65055679D01*
X140650000Y-65144321D01*
X140667294Y-65231260D01*
X140701215Y-65313155D01*
X140750462Y-65386858D01*
X140813142Y-65449538D01*
X140859700Y-65480647D01*
X140846256Y-65486216D01*
X140772553Y-65535463D01*
X140709873Y-65598143D01*
X140660626Y-65671846D01*
X140626705Y-65753741D01*
X140609411Y-65840680D01*
X123475000Y-65840680D01*
X123475000Y-64455679D01*
X125250000Y-64455679D01*
X125250000Y-64544321D01*
X125267294Y-64631260D01*
X125301215Y-64713155D01*
X125350462Y-64786858D01*
X125413142Y-64849538D01*
X125486845Y-64898785D01*
X125568740Y-64932706D01*
X125655679Y-64950000D01*
X125744321Y-64950000D01*
X125831260Y-64932706D01*
X125913155Y-64898785D01*
X125986858Y-64849538D01*
X126049538Y-64786858D01*
X126098785Y-64713155D01*
X126132706Y-64631260D01*
X126150000Y-64544321D01*
X126150000Y-64455679D01*
X126132706Y-64368740D01*
X126098785Y-64286845D01*
X126049538Y-64213142D01*
X125986858Y-64150462D01*
X125913155Y-64101215D01*
X125831260Y-64067294D01*
X125744321Y-64050000D01*
X125655679Y-64050000D01*
X125568740Y-64067294D01*
X125486845Y-64101215D01*
X125413142Y-64150462D01*
X125350462Y-64213142D01*
X125301215Y-64286845D01*
X125267294Y-64368740D01*
X125250000Y-64455679D01*
X123475000Y-64455679D01*
X123475000Y-64003971D01*
X126825000Y-64003971D01*
X126825000Y-64196029D01*
X126862468Y-64384397D01*
X126935966Y-64561836D01*
X127042668Y-64721527D01*
X127178473Y-64857332D01*
X127338164Y-64964034D01*
X127515603Y-65037532D01*
X127703971Y-65075000D01*
X127896029Y-65075000D01*
X128084397Y-65037532D01*
X128261836Y-64964034D01*
X128421527Y-64857332D01*
X128557332Y-64721527D01*
X128664034Y-64561836D01*
X128737532Y-64384397D01*
X128775000Y-64196029D01*
X128775000Y-64155679D01*
X139150000Y-64155679D01*
X139150000Y-64244321D01*
X139167294Y-64331260D01*
X139201215Y-64413155D01*
X139250462Y-64486858D01*
X139313142Y-64549538D01*
X139386845Y-64598785D01*
X139468740Y-64632706D01*
X139555679Y-64650000D01*
X139644321Y-64650000D01*
X139731260Y-64632706D01*
X139813155Y-64598785D01*
X139886858Y-64549538D01*
X139949538Y-64486858D01*
X139998785Y-64413155D01*
X140032706Y-64331260D01*
X140047740Y-64255679D01*
X160350000Y-64255679D01*
X160350000Y-64344321D01*
X160367294Y-64431260D01*
X160401215Y-64513155D01*
X160450462Y-64586858D01*
X160513142Y-64649538D01*
X160586845Y-64698785D01*
X160668740Y-64732706D01*
X160755679Y-64750000D01*
X160844321Y-64750000D01*
X160931260Y-64732706D01*
X161013155Y-64698785D01*
X161086858Y-64649538D01*
X161149538Y-64586858D01*
X161198785Y-64513155D01*
X161232706Y-64431260D01*
X161250000Y-64344321D01*
X161250000Y-64255679D01*
X161650000Y-64255679D01*
X161650000Y-64344321D01*
X161667294Y-64431260D01*
X161701215Y-64513155D01*
X161750462Y-64586858D01*
X161813142Y-64649538D01*
X161886845Y-64698785D01*
X161968740Y-64732706D01*
X162055679Y-64750000D01*
X162144321Y-64750000D01*
X162231260Y-64732706D01*
X162313155Y-64698785D01*
X162386858Y-64649538D01*
X162449538Y-64586858D01*
X162498785Y-64513155D01*
X162532706Y-64431260D01*
X162550000Y-64344321D01*
X162550000Y-64255679D01*
X162532706Y-64168740D01*
X162498785Y-64086845D01*
X162449538Y-64013142D01*
X162386858Y-63950462D01*
X162313155Y-63901215D01*
X162231260Y-63867294D01*
X162144321Y-63850000D01*
X162055679Y-63850000D01*
X161968740Y-63867294D01*
X161886845Y-63901215D01*
X161813142Y-63950462D01*
X161750462Y-64013142D01*
X161701215Y-64086845D01*
X161667294Y-64168740D01*
X161650000Y-64255679D01*
X161250000Y-64255679D01*
X161232706Y-64168740D01*
X161198785Y-64086845D01*
X161149538Y-64013142D01*
X161086858Y-63950462D01*
X161013155Y-63901215D01*
X160931260Y-63867294D01*
X160844321Y-63850000D01*
X160755679Y-63850000D01*
X160668740Y-63867294D01*
X160586845Y-63901215D01*
X160513142Y-63950462D01*
X160450462Y-64013142D01*
X160401215Y-64086845D01*
X160367294Y-64168740D01*
X160350000Y-64255679D01*
X140047740Y-64255679D01*
X140050000Y-64244321D01*
X140050000Y-64155679D01*
X140032706Y-64068740D01*
X139998785Y-63986845D01*
X139949538Y-63913142D01*
X139886858Y-63850462D01*
X139813155Y-63801215D01*
X139731260Y-63767294D01*
X139644321Y-63750000D01*
X139555679Y-63750000D01*
X139468740Y-63767294D01*
X139386845Y-63801215D01*
X139313142Y-63850462D01*
X139250462Y-63913142D01*
X139201215Y-63986845D01*
X139167294Y-64068740D01*
X139150000Y-64155679D01*
X128775000Y-64155679D01*
X128775000Y-64003971D01*
X128737532Y-63815603D01*
X128664034Y-63638164D01*
X128608920Y-63555679D01*
X140450000Y-63555679D01*
X140450000Y-63644321D01*
X140467294Y-63731260D01*
X140501215Y-63813155D01*
X140550462Y-63886858D01*
X140613142Y-63949538D01*
X140686845Y-63998785D01*
X140768740Y-64032706D01*
X140855679Y-64050000D01*
X140944321Y-64050000D01*
X141031260Y-64032706D01*
X141113155Y-63998785D01*
X141186858Y-63949538D01*
X141249538Y-63886858D01*
X141298785Y-63813155D01*
X141332706Y-63731260D01*
X141350000Y-63644321D01*
X141350000Y-63555679D01*
X141332706Y-63468740D01*
X141298785Y-63386845D01*
X141249538Y-63313142D01*
X141192075Y-63255679D01*
X160350000Y-63255679D01*
X160350000Y-63344321D01*
X160367294Y-63431260D01*
X160401215Y-63513155D01*
X160450462Y-63586858D01*
X160513142Y-63649538D01*
X160586845Y-63698785D01*
X160668740Y-63732706D01*
X160755679Y-63750000D01*
X160844321Y-63750000D01*
X160931260Y-63732706D01*
X161013155Y-63698785D01*
X161086858Y-63649538D01*
X161149538Y-63586858D01*
X161198785Y-63513155D01*
X161232706Y-63431260D01*
X161250000Y-63344321D01*
X161250000Y-63255679D01*
X161650000Y-63255679D01*
X161650000Y-63344321D01*
X161667294Y-63431260D01*
X161701215Y-63513155D01*
X161750462Y-63586858D01*
X161813142Y-63649538D01*
X161886845Y-63698785D01*
X161968740Y-63732706D01*
X162055679Y-63750000D01*
X162144321Y-63750000D01*
X162231260Y-63732706D01*
X162313155Y-63698785D01*
X162386858Y-63649538D01*
X162449538Y-63586858D01*
X162498785Y-63513155D01*
X162532706Y-63431260D01*
X162550000Y-63344321D01*
X162550000Y-63255679D01*
X162532706Y-63168740D01*
X162498785Y-63086845D01*
X162449538Y-63013142D01*
X162386858Y-62950462D01*
X162313155Y-62901215D01*
X162231260Y-62867294D01*
X162144321Y-62850000D01*
X162055679Y-62850000D01*
X161968740Y-62867294D01*
X161886845Y-62901215D01*
X161813142Y-62950462D01*
X161750462Y-63013142D01*
X161701215Y-63086845D01*
X161667294Y-63168740D01*
X161650000Y-63255679D01*
X161250000Y-63255679D01*
X161232706Y-63168740D01*
X161198785Y-63086845D01*
X161149538Y-63013142D01*
X161086858Y-62950462D01*
X161013155Y-62901215D01*
X160931260Y-62867294D01*
X160844321Y-62850000D01*
X160755679Y-62850000D01*
X160668740Y-62867294D01*
X160586845Y-62901215D01*
X160513142Y-62950462D01*
X160450462Y-63013142D01*
X160401215Y-63086845D01*
X160367294Y-63168740D01*
X160350000Y-63255679D01*
X141192075Y-63255679D01*
X141186858Y-63250462D01*
X141113155Y-63201215D01*
X141031260Y-63167294D01*
X140944321Y-63150000D01*
X140855679Y-63150000D01*
X140768740Y-63167294D01*
X140686845Y-63201215D01*
X140613142Y-63250462D01*
X140550462Y-63313142D01*
X140501215Y-63386845D01*
X140467294Y-63468740D01*
X140450000Y-63555679D01*
X128608920Y-63555679D01*
X128557332Y-63478473D01*
X128421527Y-63342668D01*
X128261836Y-63235966D01*
X128084397Y-63162468D01*
X127896029Y-63125000D01*
X127703971Y-63125000D01*
X127515603Y-63162468D01*
X127338164Y-63235966D01*
X127178473Y-63342668D01*
X127042668Y-63478473D01*
X126935966Y-63638164D01*
X126862468Y-63815603D01*
X126825000Y-64003971D01*
X123475000Y-64003971D01*
X123475000Y-62675000D01*
X163025404Y-62675000D01*
X163125000Y-81100220D01*
G37*
X163125000Y-81100220D02*
X163125000Y-82563792D01*
X163060542Y-82606862D01*
X162997862Y-82669542D01*
X162948615Y-82743245D01*
X162914694Y-82825140D01*
X162897400Y-82912079D01*
X162897400Y-83000721D01*
X162914694Y-83087660D01*
X162948615Y-83169555D01*
X162997862Y-83243258D01*
X163060542Y-83305938D01*
X163125000Y-83349008D01*
X163125000Y-85756298D01*
X163123060Y-85755494D01*
X163036121Y-85738200D01*
X162947479Y-85738200D01*
X162860540Y-85755494D01*
X162778645Y-85789415D01*
X162704942Y-85838662D01*
X162642262Y-85901342D01*
X162593015Y-85975045D01*
X162559094Y-86056940D01*
X162541800Y-86143879D01*
X162541800Y-86232521D01*
X162559094Y-86319460D01*
X162593015Y-86401355D01*
X162642262Y-86475058D01*
X162704942Y-86537738D01*
X162778645Y-86586985D01*
X162860540Y-86620906D01*
X162947479Y-86638200D01*
X163036121Y-86638200D01*
X163123060Y-86620906D01*
X163125000Y-86620102D01*
X163125000Y-87457421D01*
X163052555Y-87409015D01*
X162970660Y-87375094D01*
X162883721Y-87357800D01*
X162795079Y-87357800D01*
X162708140Y-87375094D01*
X162626245Y-87409015D01*
X162552542Y-87458262D01*
X162489862Y-87520942D01*
X162440615Y-87594645D01*
X162406694Y-87676540D01*
X162389400Y-87763479D01*
X162389400Y-87852121D01*
X162406694Y-87939060D01*
X162440615Y-88020955D01*
X162489862Y-88094658D01*
X162552542Y-88157338D01*
X162626245Y-88206585D01*
X162708140Y-88240506D01*
X162795079Y-88257800D01*
X162883721Y-88257800D01*
X162970660Y-88240506D01*
X163052555Y-88206585D01*
X163125000Y-88158179D01*
X163125000Y-93125000D01*
X160360348Y-93125000D01*
X160368400Y-93084521D01*
X160368400Y-92995879D01*
X160351106Y-92908940D01*
X160317185Y-92827045D01*
X160267938Y-92753342D01*
X160205258Y-92690662D01*
X160131555Y-92641415D01*
X160049660Y-92607494D01*
X159962721Y-92590200D01*
X159874079Y-92590200D01*
X159787140Y-92607494D01*
X159705245Y-92641415D01*
X159631542Y-92690662D01*
X159568862Y-92753342D01*
X159519615Y-92827045D01*
X159485694Y-92908940D01*
X159468400Y-92995879D01*
X159468400Y-93084521D01*
X159476452Y-93125000D01*
X156467552Y-93125000D01*
X156419538Y-93053142D01*
X156356858Y-92990462D01*
X156355000Y-92989221D01*
X156355000Y-92217852D01*
X157122852Y-91450000D01*
X159573912Y-91450000D01*
X159573912Y-91950000D01*
X159578256Y-91994108D01*
X159591122Y-92036520D01*
X159612015Y-92075608D01*
X159640132Y-92109868D01*
X159674392Y-92137985D01*
X159713480Y-92158878D01*
X159755892Y-92171744D01*
X159800000Y-92176088D01*
X161400000Y-92176088D01*
X161444108Y-92171744D01*
X161486520Y-92158878D01*
X161525608Y-92137985D01*
X161559868Y-92109868D01*
X161587985Y-92075608D01*
X161608878Y-92036520D01*
X161621744Y-91994108D01*
X161626088Y-91950000D01*
X161626088Y-91450000D01*
X161621744Y-91405892D01*
X161608878Y-91363480D01*
X161587985Y-91324392D01*
X161559868Y-91290132D01*
X161525608Y-91262015D01*
X161486520Y-91241122D01*
X161444108Y-91228256D01*
X161400000Y-91223912D01*
X159800000Y-91223912D01*
X159755892Y-91228256D01*
X159713480Y-91241122D01*
X159674392Y-91262015D01*
X159640132Y-91290132D01*
X159612015Y-91324392D01*
X159591122Y-91363480D01*
X159578256Y-91405892D01*
X159573912Y-91450000D01*
X157122852Y-91450000D01*
X157963030Y-90609823D01*
X157967294Y-90631260D01*
X158001215Y-90713155D01*
X158050462Y-90786858D01*
X158113142Y-90849538D01*
X158186845Y-90898785D01*
X158268740Y-90932706D01*
X158355679Y-90950000D01*
X158444321Y-90950000D01*
X158531260Y-90932706D01*
X158613155Y-90898785D01*
X158686858Y-90849538D01*
X158749538Y-90786858D01*
X158798785Y-90713155D01*
X158832706Y-90631260D01*
X158850000Y-90544321D01*
X158850000Y-90455679D01*
X158832706Y-90368740D01*
X158798785Y-90286845D01*
X158749538Y-90213142D01*
X158686858Y-90150462D01*
X158649768Y-90125679D01*
X159062000Y-90125679D01*
X159062000Y-90214321D01*
X159079294Y-90301260D01*
X159113215Y-90383155D01*
X159162462Y-90456858D01*
X159225142Y-90519538D01*
X159298845Y-90568785D01*
X159380740Y-90602706D01*
X159467679Y-90620000D01*
X159556321Y-90620000D01*
X159643260Y-90602706D01*
X159725155Y-90568785D01*
X159798858Y-90519538D01*
X159861538Y-90456858D01*
X159910785Y-90383155D01*
X159944706Y-90301260D01*
X159962000Y-90214321D01*
X159962000Y-90125679D01*
X160078000Y-90125679D01*
X160078000Y-90214321D01*
X160095294Y-90301260D01*
X160129215Y-90383155D01*
X160178462Y-90456858D01*
X160241142Y-90519538D01*
X160314845Y-90568785D01*
X160396740Y-90602706D01*
X160483679Y-90620000D01*
X160572321Y-90620000D01*
X160659260Y-90602706D01*
X160741155Y-90568785D01*
X160814858Y-90519538D01*
X160877538Y-90456858D01*
X160926785Y-90383155D01*
X160960706Y-90301260D01*
X160978000Y-90214321D01*
X160978000Y-90125679D01*
X160972948Y-90100279D01*
X161144800Y-90100279D01*
X161144800Y-90188921D01*
X161162094Y-90275860D01*
X161196015Y-90357755D01*
X161245262Y-90431458D01*
X161307942Y-90494138D01*
X161381645Y-90543385D01*
X161463540Y-90577306D01*
X161550479Y-90594600D01*
X161639121Y-90594600D01*
X161726060Y-90577306D01*
X161807955Y-90543385D01*
X161881658Y-90494138D01*
X161944338Y-90431458D01*
X161993585Y-90357755D01*
X162027506Y-90275860D01*
X162044800Y-90188921D01*
X162044800Y-90100279D01*
X162027506Y-90013340D01*
X161993585Y-89931445D01*
X161944338Y-89857742D01*
X161881658Y-89795062D01*
X161807955Y-89745815D01*
X161726060Y-89711894D01*
X161639121Y-89694600D01*
X161550479Y-89694600D01*
X161463540Y-89711894D01*
X161381645Y-89745815D01*
X161307942Y-89795062D01*
X161245262Y-89857742D01*
X161196015Y-89931445D01*
X161162094Y-90013340D01*
X161144800Y-90100279D01*
X160972948Y-90100279D01*
X160960706Y-90038740D01*
X160926785Y-89956845D01*
X160877538Y-89883142D01*
X160814858Y-89820462D01*
X160741155Y-89771215D01*
X160659260Y-89737294D01*
X160572321Y-89720000D01*
X160483679Y-89720000D01*
X160396740Y-89737294D01*
X160314845Y-89771215D01*
X160241142Y-89820462D01*
X160178462Y-89883142D01*
X160129215Y-89956845D01*
X160095294Y-90038740D01*
X160078000Y-90125679D01*
X159962000Y-90125679D01*
X159944706Y-90038740D01*
X159910785Y-89956845D01*
X159861538Y-89883142D01*
X159798858Y-89820462D01*
X159725155Y-89771215D01*
X159643260Y-89737294D01*
X159556321Y-89720000D01*
X159467679Y-89720000D01*
X159380740Y-89737294D01*
X159298845Y-89771215D01*
X159225142Y-89820462D01*
X159162462Y-89883142D01*
X159113215Y-89956845D01*
X159079294Y-90038740D01*
X159062000Y-90125679D01*
X158649768Y-90125679D01*
X158613155Y-90101215D01*
X158531260Y-90067294D01*
X158509823Y-90063030D01*
X159463174Y-89109679D01*
X161043200Y-89109679D01*
X161043200Y-89198321D01*
X161060494Y-89285260D01*
X161094415Y-89367155D01*
X161143662Y-89440858D01*
X161206342Y-89503538D01*
X161280045Y-89552785D01*
X161361940Y-89586706D01*
X161448879Y-89604000D01*
X161537521Y-89604000D01*
X161624460Y-89586706D01*
X161706355Y-89552785D01*
X161780058Y-89503538D01*
X161842738Y-89440858D01*
X161891985Y-89367155D01*
X161925906Y-89285260D01*
X161943200Y-89198321D01*
X161943200Y-89109679D01*
X161925906Y-89022740D01*
X161891985Y-88940845D01*
X161842738Y-88867142D01*
X161780058Y-88804462D01*
X161706355Y-88755215D01*
X161624460Y-88721294D01*
X161537521Y-88704000D01*
X161448879Y-88704000D01*
X161361940Y-88721294D01*
X161280045Y-88755215D01*
X161206342Y-88804462D01*
X161143662Y-88867142D01*
X161094415Y-88940845D01*
X161060494Y-89022740D01*
X161043200Y-89109679D01*
X159463174Y-89109679D01*
X161026632Y-87546221D01*
X161037501Y-87537301D01*
X161073116Y-87493904D01*
X161099580Y-87444393D01*
X161115876Y-87390671D01*
X161119114Y-87357800D01*
X161121379Y-87334802D01*
X161120001Y-87320812D01*
X161120001Y-84289189D01*
X161121379Y-84275199D01*
X161115876Y-84219329D01*
X161099580Y-84165607D01*
X161098563Y-84163704D01*
X161073116Y-84116096D01*
X161037501Y-84072699D01*
X161026628Y-84063776D01*
X161019701Y-84056849D01*
X161019701Y-81355679D01*
X161650000Y-81355679D01*
X161650000Y-81444321D01*
X161667294Y-81531260D01*
X161701215Y-81613155D01*
X161750462Y-81686858D01*
X161813142Y-81749538D01*
X161886845Y-81798785D01*
X161968740Y-81832706D01*
X162055679Y-81850000D01*
X162144321Y-81850000D01*
X162231260Y-81832706D01*
X162313155Y-81798785D01*
X162386858Y-81749538D01*
X162449538Y-81686858D01*
X162498785Y-81613155D01*
X162532706Y-81531260D01*
X162550000Y-81444321D01*
X162550000Y-81355679D01*
X162532706Y-81268740D01*
X162498785Y-81186845D01*
X162449538Y-81113142D01*
X162386858Y-81050462D01*
X162313155Y-81001215D01*
X162231260Y-80967294D01*
X162144321Y-80950000D01*
X162055679Y-80950000D01*
X161968740Y-80967294D01*
X161886845Y-81001215D01*
X161813142Y-81050462D01*
X161750462Y-81113142D01*
X161701215Y-81186845D01*
X161667294Y-81268740D01*
X161650000Y-81355679D01*
X161019701Y-81355679D01*
X161019701Y-80703889D01*
X161021079Y-80689899D01*
X161015576Y-80634029D01*
X160999280Y-80580306D01*
X160989433Y-80561885D01*
X160972816Y-80530796D01*
X160937201Y-80487399D01*
X160926333Y-80478480D01*
X160803532Y-80355679D01*
X161650000Y-80355679D01*
X161650000Y-80444321D01*
X161667294Y-80531260D01*
X161701215Y-80613155D01*
X161750462Y-80686858D01*
X161813142Y-80749538D01*
X161886845Y-80798785D01*
X161968740Y-80832706D01*
X162055679Y-80850000D01*
X162144321Y-80850000D01*
X162231260Y-80832706D01*
X162313155Y-80798785D01*
X162386858Y-80749538D01*
X162449538Y-80686858D01*
X162498785Y-80613155D01*
X162532706Y-80531260D01*
X162550000Y-80444321D01*
X162550000Y-80355679D01*
X162532706Y-80268740D01*
X162498785Y-80186845D01*
X162449538Y-80113142D01*
X162386858Y-80050462D01*
X162313155Y-80001215D01*
X162231260Y-79967294D01*
X162144321Y-79950000D01*
X162055679Y-79950000D01*
X161968740Y-79967294D01*
X161886845Y-80001215D01*
X161813142Y-80050462D01*
X161750462Y-80113142D01*
X161701215Y-80186845D01*
X161667294Y-80268740D01*
X161650000Y-80355679D01*
X160803532Y-80355679D01*
X158036226Y-77588374D01*
X158027302Y-77577500D01*
X157983905Y-77541885D01*
X157934394Y-77515421D01*
X157880672Y-77499125D01*
X157838792Y-77495000D01*
X157824802Y-77493622D01*
X157810812Y-77495000D01*
X157751042Y-77495000D01*
X157749801Y-77493142D01*
X157687121Y-77430462D01*
X157613418Y-77381215D01*
X157531523Y-77347294D01*
X157444584Y-77330000D01*
X157355942Y-77330000D01*
X157269003Y-77347294D01*
X157187108Y-77381215D01*
X157113405Y-77430462D01*
X157050725Y-77493142D01*
X157001478Y-77566845D01*
X156967557Y-77648740D01*
X156950263Y-77735679D01*
X156950263Y-77824321D01*
X156967557Y-77911260D01*
X157001478Y-77993155D01*
X157050725Y-78066858D01*
X157113405Y-78129538D01*
X157187108Y-78178785D01*
X157269003Y-78212706D01*
X157355942Y-78230000D01*
X157444584Y-78230000D01*
X157531523Y-78212706D01*
X157613418Y-78178785D01*
X157687121Y-78129538D01*
X157729205Y-78087454D01*
X160449701Y-80807950D01*
X160449701Y-82046650D01*
X157579564Y-79176514D01*
X157580000Y-79174321D01*
X157580000Y-79085679D01*
X157562706Y-78998740D01*
X157528785Y-78916845D01*
X157479538Y-78843142D01*
X157416858Y-78780462D01*
X157343155Y-78731215D01*
X157261260Y-78697294D01*
X157174321Y-78680000D01*
X157085679Y-78680000D01*
X156998740Y-78697294D01*
X156916845Y-78731215D01*
X156843142Y-78780462D01*
X156780462Y-78843142D01*
X156731215Y-78916845D01*
X156697294Y-78998740D01*
X156680000Y-79085679D01*
X156680000Y-79174321D01*
X156697294Y-79261260D01*
X156731215Y-79343155D01*
X156780462Y-79416858D01*
X156843142Y-79479538D01*
X156916845Y-79528785D01*
X156998740Y-79562706D01*
X157085679Y-79580000D01*
X157174321Y-79580000D01*
X157176514Y-79579564D01*
X158093385Y-80496435D01*
X158081845Y-80501215D01*
X158008142Y-80550462D01*
X157945462Y-80613142D01*
X157896215Y-80686845D01*
X157862294Y-80768740D01*
X157845000Y-80855679D01*
X157845000Y-80944321D01*
X157862294Y-81031260D01*
X157896215Y-81113155D01*
X157945462Y-81186858D01*
X158008142Y-81249538D01*
X158020001Y-81257462D01*
X158020000Y-81817800D01*
X156496108Y-81817800D01*
X156966691Y-81347218D01*
X156980679Y-81350000D01*
X157069321Y-81350000D01*
X157156260Y-81332706D01*
X157238155Y-81298785D01*
X157311858Y-81249538D01*
X157374538Y-81186858D01*
X157423785Y-81113155D01*
X157457706Y-81031260D01*
X157475000Y-80944321D01*
X157475000Y-80855679D01*
X157457706Y-80768740D01*
X157423785Y-80686845D01*
X157374538Y-80613142D01*
X157311858Y-80550462D01*
X157238155Y-80501215D01*
X157156260Y-80467294D01*
X157069321Y-80450000D01*
X156980679Y-80450000D01*
X156893740Y-80467294D01*
X156811845Y-80501215D01*
X156738142Y-80550462D01*
X156675462Y-80613142D01*
X156626215Y-80686845D01*
X156592294Y-80768740D01*
X156575000Y-80855679D01*
X156575000Y-80944321D01*
X156577782Y-80958309D01*
X155918300Y-81617792D01*
X146539455Y-81617792D01*
X146525952Y-81616462D01*
X146472042Y-81621772D01*
X146420204Y-81637496D01*
X146407436Y-81644321D01*
X146372431Y-81663032D01*
X146330557Y-81697397D01*
X146321949Y-81707886D01*
X145650046Y-82379790D01*
X138513056Y-82379790D01*
X138499553Y-82378460D01*
X138445644Y-82383770D01*
X138429920Y-82388540D01*
X138393807Y-82399494D01*
X138346033Y-82425030D01*
X138304159Y-82459395D01*
X138295551Y-82469884D01*
X136226235Y-84539201D01*
X136077702Y-84539201D01*
X136064199Y-84537871D01*
X136050696Y-84539201D01*
X136010290Y-84543181D01*
X135958452Y-84558905D01*
X135910678Y-84584441D01*
X135900712Y-84592620D01*
X135883521Y-84589200D01*
X135794879Y-84589200D01*
X135707940Y-84606494D01*
X135676088Y-84619687D01*
X135676088Y-84550000D01*
X135671744Y-84505892D01*
X135658878Y-84463480D01*
X135637985Y-84424392D01*
X135617967Y-84400000D01*
X135637985Y-84375608D01*
X135658878Y-84336520D01*
X135671744Y-84294108D01*
X135676088Y-84250000D01*
X135676088Y-83750000D01*
X135671744Y-83705892D01*
X135658878Y-83663480D01*
X135637985Y-83624392D01*
X135617967Y-83600000D01*
X135637985Y-83575608D01*
X135658878Y-83536520D01*
X135662262Y-83525363D01*
X135665953Y-83525000D01*
X135665961Y-83525000D01*
X135713711Y-83520297D01*
X135774974Y-83501713D01*
X135831434Y-83471535D01*
X135880921Y-83430921D01*
X135891101Y-83418517D01*
X137018529Y-82291091D01*
X137030921Y-82280921D01*
X137041092Y-82268528D01*
X137041096Y-82268524D01*
X137059318Y-82246320D01*
X137071535Y-82231434D01*
X137101713Y-82174974D01*
X137120297Y-82113711D01*
X137125000Y-82065961D01*
X137125000Y-82065953D01*
X137126571Y-82050000D01*
X137125000Y-82034047D01*
X137125000Y-81911396D01*
X137149538Y-81886858D01*
X137198785Y-81813155D01*
X137232706Y-81731260D01*
X137250000Y-81644321D01*
X137250000Y-81555679D01*
X137232706Y-81468740D01*
X137198785Y-81386845D01*
X137149538Y-81313142D01*
X137136396Y-81300000D01*
X137149538Y-81286858D01*
X137198785Y-81213155D01*
X137232706Y-81131260D01*
X137250000Y-81044321D01*
X137250000Y-80955679D01*
X137232706Y-80868740D01*
X137198785Y-80786845D01*
X137149538Y-80713142D01*
X137086858Y-80650462D01*
X137013155Y-80601215D01*
X136931260Y-80567294D01*
X136844321Y-80550000D01*
X136755679Y-80550000D01*
X136668740Y-80567294D01*
X136586845Y-80601215D01*
X136513142Y-80650462D01*
X136450462Y-80713142D01*
X136401215Y-80786845D01*
X136367294Y-80868740D01*
X136350000Y-80955679D01*
X136350000Y-81044321D01*
X136367294Y-81131260D01*
X136401215Y-81213155D01*
X136450462Y-81286858D01*
X136463604Y-81300000D01*
X136450462Y-81313142D01*
X136401215Y-81386845D01*
X136367294Y-81468740D01*
X136350000Y-81555679D01*
X136350000Y-81644321D01*
X136367294Y-81731260D01*
X136401215Y-81813155D01*
X136450462Y-81886858D01*
X136475000Y-81911396D01*
X136475000Y-81915380D01*
X135661062Y-82729319D01*
X135671744Y-82694108D01*
X135676088Y-82650000D01*
X135676088Y-82150000D01*
X135671744Y-82105892D01*
X135658878Y-82063480D01*
X135637985Y-82024392D01*
X135617967Y-82000000D01*
X135637985Y-81975608D01*
X135658878Y-81936520D01*
X135671744Y-81894108D01*
X135676088Y-81850000D01*
X135676088Y-81350000D01*
X135671744Y-81305892D01*
X135658878Y-81263480D01*
X135637985Y-81224392D01*
X135617967Y-81200000D01*
X135637985Y-81175608D01*
X135658878Y-81136520D01*
X135671744Y-81094108D01*
X135676088Y-81050000D01*
X135676088Y-80550000D01*
X135671744Y-80505892D01*
X135658878Y-80463480D01*
X135637985Y-80424392D01*
X135617967Y-80400000D01*
X135637985Y-80375608D01*
X135658878Y-80336520D01*
X135671744Y-80294108D01*
X135676088Y-80250000D01*
X135676088Y-79755679D01*
X140750000Y-79755679D01*
X140750000Y-79844321D01*
X140767294Y-79931260D01*
X140801215Y-80013155D01*
X140850462Y-80086858D01*
X140913142Y-80149538D01*
X140986845Y-80198785D01*
X141068740Y-80232706D01*
X141155679Y-80250000D01*
X141244321Y-80250000D01*
X141331260Y-80232706D01*
X141413155Y-80198785D01*
X141486858Y-80149538D01*
X141549538Y-80086858D01*
X141598785Y-80013155D01*
X141632706Y-79931260D01*
X141650000Y-79844321D01*
X141650000Y-79755679D01*
X141632706Y-79668740D01*
X141598785Y-79586845D01*
X141549538Y-79513142D01*
X141486858Y-79450462D01*
X141413155Y-79401215D01*
X141331260Y-79367294D01*
X141244321Y-79350000D01*
X141155679Y-79350000D01*
X141068740Y-79367294D01*
X140986845Y-79401215D01*
X140913142Y-79450462D01*
X140850462Y-79513142D01*
X140801215Y-79586845D01*
X140767294Y-79668740D01*
X140750000Y-79755679D01*
X135676088Y-79755679D01*
X135676088Y-79750000D01*
X135671744Y-79705892D01*
X135658878Y-79663480D01*
X135637985Y-79624392D01*
X135617967Y-79600000D01*
X135637985Y-79575608D01*
X135658878Y-79536520D01*
X135671744Y-79494108D01*
X135676088Y-79450000D01*
X135676088Y-78950000D01*
X135671744Y-78905892D01*
X135658878Y-78863480D01*
X135637985Y-78824392D01*
X135617967Y-78800000D01*
X135637985Y-78775608D01*
X135658878Y-78736520D01*
X135671744Y-78694108D01*
X135676088Y-78650000D01*
X135676088Y-78150000D01*
X135671744Y-78105892D01*
X135658878Y-78063480D01*
X135637985Y-78024392D01*
X135617967Y-78000000D01*
X135637985Y-77975608D01*
X135658878Y-77936520D01*
X135671744Y-77894108D01*
X135676088Y-77850000D01*
X135676088Y-77350000D01*
X135671744Y-77305892D01*
X135658878Y-77263480D01*
X135637985Y-77224392D01*
X135617967Y-77200000D01*
X135637985Y-77175608D01*
X135648637Y-77155679D01*
X137150000Y-77155679D01*
X137150000Y-77244321D01*
X137167294Y-77331260D01*
X137201215Y-77413155D01*
X137250462Y-77486858D01*
X137313142Y-77549538D01*
X137386845Y-77598785D01*
X137468740Y-77632706D01*
X137555679Y-77650000D01*
X137644321Y-77650000D01*
X137731260Y-77632706D01*
X137813155Y-77598785D01*
X137886858Y-77549538D01*
X137949538Y-77486858D01*
X137998785Y-77413155D01*
X138032706Y-77331260D01*
X138050000Y-77244321D01*
X138050000Y-77155679D01*
X138032706Y-77068740D01*
X137998785Y-76986845D01*
X137949538Y-76913142D01*
X137886858Y-76850462D01*
X137813155Y-76801215D01*
X137731260Y-76767294D01*
X137644321Y-76750000D01*
X137555679Y-76750000D01*
X137468740Y-76767294D01*
X137386845Y-76801215D01*
X137313142Y-76850462D01*
X137250462Y-76913142D01*
X137201215Y-76986845D01*
X137167294Y-77068740D01*
X137150000Y-77155679D01*
X135648637Y-77155679D01*
X135658878Y-77136520D01*
X135671744Y-77094108D01*
X135676088Y-77050000D01*
X135676088Y-76550000D01*
X135671744Y-76505892D01*
X135658878Y-76463480D01*
X135637985Y-76424392D01*
X135625911Y-76409679D01*
X139250000Y-76409679D01*
X139250000Y-76498321D01*
X139267294Y-76585260D01*
X139301215Y-76667155D01*
X139350462Y-76740858D01*
X139413142Y-76803538D01*
X139486845Y-76852785D01*
X139568740Y-76886706D01*
X139655679Y-76904000D01*
X139744321Y-76904000D01*
X139831260Y-76886706D01*
X139913155Y-76852785D01*
X139986858Y-76803538D01*
X140049538Y-76740858D01*
X140098785Y-76667155D01*
X140132706Y-76585260D01*
X140145107Y-76522917D01*
X140168740Y-76532706D01*
X140255679Y-76550000D01*
X140344321Y-76550000D01*
X140431260Y-76532706D01*
X140513155Y-76498785D01*
X140586858Y-76449538D01*
X140649538Y-76386858D01*
X140698785Y-76313155D01*
X140732706Y-76231260D01*
X140750000Y-76144321D01*
X140750000Y-76055679D01*
X140732706Y-75968740D01*
X140698785Y-75886845D01*
X140649538Y-75813142D01*
X140586858Y-75750462D01*
X140513155Y-75701215D01*
X140431260Y-75667294D01*
X140344321Y-75650000D01*
X140255679Y-75650000D01*
X140168740Y-75667294D01*
X140086845Y-75701215D01*
X140013142Y-75750462D01*
X139950462Y-75813142D01*
X139901215Y-75886845D01*
X139867294Y-75968740D01*
X139854893Y-76031083D01*
X139831260Y-76021294D01*
X139744321Y-76004000D01*
X139655679Y-76004000D01*
X139568740Y-76021294D01*
X139486845Y-76055215D01*
X139413142Y-76104462D01*
X139350462Y-76167142D01*
X139301215Y-76240845D01*
X139267294Y-76322740D01*
X139250000Y-76409679D01*
X135625911Y-76409679D01*
X135617967Y-76400000D01*
X135637985Y-76375608D01*
X135658878Y-76336520D01*
X135671744Y-76294108D01*
X135676088Y-76250000D01*
X135676088Y-75750000D01*
X135671744Y-75705892D01*
X135658878Y-75663480D01*
X135637985Y-75624392D01*
X135617967Y-75600000D01*
X135637985Y-75575608D01*
X135658878Y-75536520D01*
X135671744Y-75494108D01*
X135676088Y-75450000D01*
X135676088Y-74950000D01*
X135671744Y-74905892D01*
X135658878Y-74863480D01*
X135637985Y-74824392D01*
X135617967Y-74800000D01*
X135637985Y-74775608D01*
X135658878Y-74736520D01*
X135671744Y-74694108D01*
X135676088Y-74650000D01*
X135676088Y-74150000D01*
X135671744Y-74105892D01*
X135658878Y-74063480D01*
X135637985Y-74024392D01*
X135617967Y-74000000D01*
X135637985Y-73975608D01*
X135658878Y-73936520D01*
X135671744Y-73894108D01*
X135676088Y-73850000D01*
X135676088Y-73755679D01*
X140750000Y-73755679D01*
X140750000Y-73844321D01*
X140767294Y-73931260D01*
X140801215Y-74013155D01*
X140850462Y-74086858D01*
X140913142Y-74149538D01*
X140986845Y-74198785D01*
X141068740Y-74232706D01*
X141080001Y-74234946D01*
X141080001Y-74284323D01*
X141097295Y-74371262D01*
X141131216Y-74453157D01*
X141180463Y-74526860D01*
X141243143Y-74589540D01*
X141316846Y-74638787D01*
X141398741Y-74672708D01*
X141478012Y-74688477D01*
X141491496Y-74756262D01*
X141525417Y-74838157D01*
X141574664Y-74911860D01*
X141637344Y-74974540D01*
X141711047Y-75023787D01*
X141792942Y-75057708D01*
X141866411Y-75072323D01*
X141880820Y-75144757D01*
X141914741Y-75226652D01*
X141963988Y-75300355D01*
X142026668Y-75363035D01*
X142100371Y-75412282D01*
X142182266Y-75446203D01*
X142269205Y-75463497D01*
X142357847Y-75463497D01*
X142444786Y-75446203D01*
X142526681Y-75412282D01*
X142600384Y-75363035D01*
X142663064Y-75300355D01*
X142664305Y-75298497D01*
X150972513Y-75298497D01*
X150986503Y-75299875D01*
X151000493Y-75298497D01*
X151042373Y-75294372D01*
X151096095Y-75278076D01*
X151145606Y-75251612D01*
X151189003Y-75215997D01*
X151197927Y-75205123D01*
X151253486Y-75149564D01*
X151255679Y-75150000D01*
X151344321Y-75150000D01*
X151431260Y-75132706D01*
X151513155Y-75098785D01*
X151586858Y-75049538D01*
X151649538Y-74986858D01*
X151698785Y-74913155D01*
X151732706Y-74831260D01*
X151750000Y-74744321D01*
X151750000Y-74655679D01*
X151732706Y-74568740D01*
X151714590Y-74525002D01*
X152321952Y-74525002D01*
X152688580Y-74891631D01*
X152697500Y-74902500D01*
X152740897Y-74938115D01*
X152790408Y-74964579D01*
X152823246Y-74974540D01*
X152844129Y-74980875D01*
X152849892Y-74981443D01*
X152886010Y-74985000D01*
X152886016Y-74985000D01*
X152899999Y-74986377D01*
X152913982Y-74985000D01*
X155349221Y-74985000D01*
X155350462Y-74986858D01*
X155413142Y-75049538D01*
X155486845Y-75098785D01*
X155568740Y-75132706D01*
X155655679Y-75150000D01*
X155744321Y-75150000D01*
X155831260Y-75132706D01*
X155913155Y-75098785D01*
X155986858Y-75049538D01*
X156049538Y-74986858D01*
X156098785Y-74913155D01*
X156132706Y-74831260D01*
X156150000Y-74744321D01*
X156150000Y-74655679D01*
X156132706Y-74568740D01*
X156098785Y-74486845D01*
X156049538Y-74413142D01*
X155986858Y-74350462D01*
X155913155Y-74301215D01*
X155831260Y-74267294D01*
X155744321Y-74250000D01*
X155655679Y-74250000D01*
X155568740Y-74267294D01*
X155486845Y-74301215D01*
X155413142Y-74350462D01*
X155350462Y-74413142D01*
X155349221Y-74415000D01*
X153608377Y-74415000D01*
X153632706Y-74356262D01*
X153650000Y-74269323D01*
X153650000Y-74180681D01*
X153632706Y-74093742D01*
X153598785Y-74011847D01*
X153549538Y-73938144D01*
X153486858Y-73875464D01*
X153413155Y-73826217D01*
X153331260Y-73792296D01*
X153244321Y-73775002D01*
X153155679Y-73775002D01*
X153153487Y-73775438D01*
X152986422Y-73608374D01*
X152977498Y-73597500D01*
X152934101Y-73561885D01*
X152884590Y-73535421D01*
X152830868Y-73519125D01*
X152788988Y-73515000D01*
X152774998Y-73513622D01*
X152761008Y-73515000D01*
X141550779Y-73515000D01*
X141549538Y-73513142D01*
X141486858Y-73450462D01*
X141413155Y-73401215D01*
X141331260Y-73367294D01*
X141244321Y-73350000D01*
X141155679Y-73350000D01*
X141068740Y-73367294D01*
X140986845Y-73401215D01*
X140913142Y-73450462D01*
X140850462Y-73513142D01*
X140801215Y-73586845D01*
X140767294Y-73668740D01*
X140750000Y-73755679D01*
X135676088Y-73755679D01*
X135676088Y-73350000D01*
X135671744Y-73305892D01*
X135658878Y-73263480D01*
X135637985Y-73224392D01*
X135617967Y-73200000D01*
X135637985Y-73175608D01*
X135658878Y-73136520D01*
X135671744Y-73094108D01*
X135676088Y-73050000D01*
X135676088Y-72789808D01*
X135772201Y-72739257D01*
X135861460Y-72666998D01*
X135934906Y-72578714D01*
X135989717Y-72477797D01*
X136023788Y-72368126D01*
X136033000Y-72320750D01*
X135887250Y-72175000D01*
X130629000Y-72175000D01*
X130629000Y-72199000D01*
X130271000Y-72199000D01*
X130271000Y-72175000D01*
X125012750Y-72175000D01*
X124867000Y-72320750D01*
X124876212Y-72368126D01*
X124910283Y-72477797D01*
X124965094Y-72578714D01*
X125038540Y-72666998D01*
X125127799Y-72739257D01*
X125223912Y-72789808D01*
X125223912Y-73050000D01*
X125228256Y-73094108D01*
X125241122Y-73136520D01*
X125262015Y-73175608D01*
X125282033Y-73200000D01*
X125262015Y-73224392D01*
X125241122Y-73263480D01*
X125228256Y-73305892D01*
X125223912Y-73350000D01*
X125223912Y-73850000D01*
X125228256Y-73894108D01*
X125241122Y-73936520D01*
X125262015Y-73975608D01*
X125282033Y-74000000D01*
X125262015Y-74024392D01*
X125241122Y-74063480D01*
X125228256Y-74105892D01*
X125223912Y-74150000D01*
X125223912Y-74650000D01*
X125228256Y-74694108D01*
X125241122Y-74736520D01*
X125262015Y-74775608D01*
X125282033Y-74800000D01*
X125262015Y-74824392D01*
X125241122Y-74863480D01*
X125228256Y-74905892D01*
X125223912Y-74950000D01*
X125223912Y-75450000D01*
X125228256Y-75494108D01*
X125241122Y-75536520D01*
X125262015Y-75575608D01*
X125282033Y-75600000D01*
X125262015Y-75624392D01*
X125241122Y-75663480D01*
X125228256Y-75705892D01*
X125223912Y-75750000D01*
X125223912Y-76250000D01*
X125228256Y-76294108D01*
X125241122Y-76336520D01*
X125262015Y-76375608D01*
X125282033Y-76400000D01*
X125262015Y-76424392D01*
X125241122Y-76463480D01*
X125228256Y-76505892D01*
X125223912Y-76550000D01*
X125223912Y-77050000D01*
X125228256Y-77094108D01*
X125241122Y-77136520D01*
X125262015Y-77175608D01*
X125282033Y-77200000D01*
X125262015Y-77224392D01*
X125241122Y-77263480D01*
X125228256Y-77305892D01*
X125223912Y-77350000D01*
X125223912Y-77850000D01*
X125228256Y-77894108D01*
X125241122Y-77936520D01*
X125262015Y-77975608D01*
X125282033Y-78000000D01*
X125262015Y-78024392D01*
X125241122Y-78063480D01*
X125228256Y-78105892D01*
X125223912Y-78150000D01*
X125223912Y-78650000D01*
X125228256Y-78694108D01*
X125241122Y-78736520D01*
X125262015Y-78775608D01*
X125282033Y-78800000D01*
X125262015Y-78824392D01*
X125241122Y-78863480D01*
X125228256Y-78905892D01*
X125223912Y-78950000D01*
X125223912Y-79450000D01*
X125228256Y-79494108D01*
X125241122Y-79536520D01*
X125262015Y-79575608D01*
X125282033Y-79600000D01*
X125262015Y-79624392D01*
X125241122Y-79663480D01*
X125228256Y-79705892D01*
X125223912Y-79750000D01*
X125223912Y-80250000D01*
X125228256Y-80294108D01*
X125241122Y-80336520D01*
X125262015Y-80375608D01*
X125282033Y-80400000D01*
X125262015Y-80424392D01*
X125241122Y-80463480D01*
X125228256Y-80505892D01*
X125223912Y-80550000D01*
X125223912Y-81050000D01*
X125228256Y-81094108D01*
X125241122Y-81136520D01*
X125262015Y-81175608D01*
X125282033Y-81200000D01*
X125262015Y-81224392D01*
X125241122Y-81263480D01*
X125228256Y-81305892D01*
X125223912Y-81350000D01*
X125223912Y-81850000D01*
X125228256Y-81894108D01*
X125241122Y-81936520D01*
X125262015Y-81975608D01*
X125282033Y-82000000D01*
X125262015Y-82024392D01*
X125241122Y-82063480D01*
X125228256Y-82105892D01*
X125223912Y-82150000D01*
X125223912Y-82650000D01*
X125228256Y-82694108D01*
X125241122Y-82736520D01*
X125262015Y-82775608D01*
X125282033Y-82800000D01*
X125262015Y-82824392D01*
X125241122Y-82863480D01*
X125228256Y-82905892D01*
X125223912Y-82950000D01*
X125223912Y-83124605D01*
X125206260Y-83117294D01*
X125119321Y-83100000D01*
X125030679Y-83100000D01*
X124943740Y-83117294D01*
X124861845Y-83151215D01*
X124788142Y-83200462D01*
X124725462Y-83263142D01*
X124676215Y-83336845D01*
X124642294Y-83418740D01*
X124625000Y-83505679D01*
X124625000Y-83594321D01*
X124642294Y-83681260D01*
X124676215Y-83763155D01*
X124725462Y-83836858D01*
X124788142Y-83899538D01*
X124861845Y-83948785D01*
X124943740Y-83982706D01*
X125030679Y-84000000D01*
X125119321Y-84000000D01*
X125206260Y-83982706D01*
X125223912Y-83975395D01*
X125223912Y-84250000D01*
X125228256Y-84294108D01*
X125241122Y-84336520D01*
X125262015Y-84375608D01*
X125282033Y-84400000D01*
X125262015Y-84424392D01*
X125241122Y-84463480D01*
X125228607Y-84504734D01*
X125206883Y-84506874D01*
X125117345Y-84534035D01*
X125034826Y-84578142D01*
X124962498Y-84637500D01*
X124947619Y-84655630D01*
X124722627Y-84880623D01*
X124678142Y-84934828D01*
X124634035Y-85017346D01*
X124606873Y-85106884D01*
X124597702Y-85200000D01*
X124606873Y-85293116D01*
X124634035Y-85382654D01*
X124678142Y-85465172D01*
X124737500Y-85537500D01*
X124809828Y-85596858D01*
X124892346Y-85640965D01*
X124981884Y-85668127D01*
X125075000Y-85677298D01*
X125168116Y-85668127D01*
X125223912Y-85651201D01*
X125223912Y-85850000D01*
X125228256Y-85894108D01*
X125241122Y-85936520D01*
X125262015Y-85975608D01*
X125282033Y-86000000D01*
X125262015Y-86024392D01*
X125241122Y-86063480D01*
X125228256Y-86105892D01*
X125223912Y-86150000D01*
X125223912Y-86650000D01*
X125228256Y-86694108D01*
X125241122Y-86736520D01*
X125262015Y-86775608D01*
X125282033Y-86800000D01*
X125262015Y-86824392D01*
X125241122Y-86863480D01*
X125228256Y-86905892D01*
X125223912Y-86950000D01*
X125223912Y-87450000D01*
X125228256Y-87494108D01*
X125241122Y-87536520D01*
X125262015Y-87575608D01*
X125282033Y-87600000D01*
X125262015Y-87624392D01*
X125241122Y-87663480D01*
X125228256Y-87705892D01*
X125223912Y-87750000D01*
X125223912Y-88164855D01*
X125210637Y-88151580D01*
X125136934Y-88102333D01*
X125055039Y-88068412D01*
X125011600Y-88059771D01*
X125011600Y-88042879D01*
X124994306Y-87955940D01*
X124960385Y-87874045D01*
X124911138Y-87800342D01*
X124848458Y-87737662D01*
X124774755Y-87688415D01*
X124692860Y-87654494D01*
X124605921Y-87637200D01*
X124517279Y-87637200D01*
X124430340Y-87654494D01*
X124348445Y-87688415D01*
X124274742Y-87737662D01*
X124212062Y-87800342D01*
X124162815Y-87874045D01*
X124128894Y-87955940D01*
X124111600Y-88042879D01*
X124111600Y-88131521D01*
X124114383Y-88145509D01*
X124021095Y-88238797D01*
X124010606Y-88247405D01*
X123976241Y-88289279D01*
X123967451Y-88305724D01*
X123950705Y-88337053D01*
X123934980Y-88388891D01*
X123929670Y-88442800D01*
X123931001Y-88456313D01*
X123931001Y-88925000D01*
X123475000Y-88925000D01*
X123475000Y-72055679D01*
X139150000Y-72055679D01*
X139150000Y-72144321D01*
X139167294Y-72231260D01*
X139201215Y-72313155D01*
X139250462Y-72386858D01*
X139313142Y-72449538D01*
X139386845Y-72498785D01*
X139389778Y-72500000D01*
X139386845Y-72501215D01*
X139313142Y-72550462D01*
X139250462Y-72613142D01*
X139201215Y-72686845D01*
X139167294Y-72768740D01*
X139150000Y-72855679D01*
X139150000Y-72944321D01*
X139167294Y-73031260D01*
X139201215Y-73113155D01*
X139250462Y-73186858D01*
X139313142Y-73249538D01*
X139386845Y-73298785D01*
X139468740Y-73332706D01*
X139555679Y-73350000D01*
X139644321Y-73350000D01*
X139731260Y-73332706D01*
X139813155Y-73298785D01*
X139886858Y-73249538D01*
X139949538Y-73186858D01*
X139998785Y-73113155D01*
X140032706Y-73031260D01*
X140050000Y-72944321D01*
X140050000Y-72855679D01*
X140032706Y-72768740D01*
X140027297Y-72755679D01*
X152850000Y-72755679D01*
X152850000Y-72844321D01*
X152867294Y-72931260D01*
X152901215Y-73013155D01*
X152950462Y-73086858D01*
X153013142Y-73149538D01*
X153086845Y-73198785D01*
X153168740Y-73232706D01*
X153255679Y-73250000D01*
X153344321Y-73250000D01*
X153431260Y-73232706D01*
X153513155Y-73198785D01*
X153586858Y-73149538D01*
X153649538Y-73086858D01*
X153698785Y-73013155D01*
X153732706Y-72931260D01*
X153747740Y-72855679D01*
X155650000Y-72855679D01*
X155650000Y-72944321D01*
X155667294Y-73031260D01*
X155701215Y-73113155D01*
X155750462Y-73186858D01*
X155813142Y-73249538D01*
X155886845Y-73298785D01*
X155968740Y-73332706D01*
X156055679Y-73350000D01*
X156144321Y-73350000D01*
X156231260Y-73332706D01*
X156313155Y-73298785D01*
X156386858Y-73249538D01*
X156449538Y-73186858D01*
X156498785Y-73113155D01*
X156532706Y-73031260D01*
X156550000Y-72944321D01*
X156550000Y-72855679D01*
X156532706Y-72768740D01*
X156498785Y-72686845D01*
X156449538Y-72613142D01*
X156386858Y-72550462D01*
X156313155Y-72501215D01*
X156231260Y-72467294D01*
X156144321Y-72450000D01*
X156055679Y-72450000D01*
X155968740Y-72467294D01*
X155886845Y-72501215D01*
X155813142Y-72550462D01*
X155750462Y-72613142D01*
X155701215Y-72686845D01*
X155667294Y-72768740D01*
X155650000Y-72855679D01*
X153747740Y-72855679D01*
X153750000Y-72844321D01*
X153750000Y-72755679D01*
X153732706Y-72668740D01*
X153698785Y-72586845D01*
X153649538Y-72513142D01*
X153586858Y-72450462D01*
X153513155Y-72401215D01*
X153431260Y-72367294D01*
X153344321Y-72350000D01*
X153255679Y-72350000D01*
X153168740Y-72367294D01*
X153086845Y-72401215D01*
X153013142Y-72450462D01*
X152950462Y-72513142D01*
X152901215Y-72586845D01*
X152867294Y-72668740D01*
X152850000Y-72755679D01*
X140027297Y-72755679D01*
X139998785Y-72686845D01*
X139949538Y-72613142D01*
X139886858Y-72550462D01*
X139813155Y-72501215D01*
X139810222Y-72500000D01*
X139813155Y-72498785D01*
X139886858Y-72449538D01*
X139949538Y-72386858D01*
X139950000Y-72386167D01*
X139950462Y-72386858D01*
X140013142Y-72449538D01*
X140086845Y-72498785D01*
X140168740Y-72532706D01*
X140255679Y-72550000D01*
X140344321Y-72550000D01*
X140431260Y-72532706D01*
X140513155Y-72498785D01*
X140586858Y-72449538D01*
X140649538Y-72386858D01*
X140698785Y-72313155D01*
X140732706Y-72231260D01*
X140750000Y-72144321D01*
X140750000Y-72055679D01*
X140732706Y-71968740D01*
X140698785Y-71886845D01*
X140649538Y-71813142D01*
X140586858Y-71750462D01*
X140513155Y-71701215D01*
X140431260Y-71667294D01*
X140344321Y-71650000D01*
X140255679Y-71650000D01*
X140168740Y-71667294D01*
X140086845Y-71701215D01*
X140013142Y-71750462D01*
X139950462Y-71813142D01*
X139950000Y-71813833D01*
X139949538Y-71813142D01*
X139886858Y-71750462D01*
X139813155Y-71701215D01*
X139731260Y-71667294D01*
X139644321Y-71650000D01*
X139555679Y-71650000D01*
X139468740Y-71667294D01*
X139386845Y-71701215D01*
X139313142Y-71750462D01*
X139250462Y-71813142D01*
X139201215Y-71886845D01*
X139167294Y-71968740D01*
X139150000Y-72055679D01*
X123475000Y-72055679D01*
X123475000Y-71520750D01*
X124867000Y-71520750D01*
X124876212Y-71568126D01*
X124886114Y-71600000D01*
X124876212Y-71631874D01*
X124867000Y-71679250D01*
X124963465Y-71775715D01*
X124965094Y-71778714D01*
X125038540Y-71866998D01*
X125127799Y-71939257D01*
X125229439Y-71992715D01*
X125339556Y-72025316D01*
X125453916Y-72035808D01*
X130125250Y-72033000D01*
X130271000Y-71887250D01*
X130271000Y-71312750D01*
X130629000Y-71312750D01*
X130629000Y-71887250D01*
X130774750Y-72033000D01*
X135446084Y-72035808D01*
X135560444Y-72025316D01*
X135670561Y-71992715D01*
X135772201Y-71939257D01*
X135861460Y-71866998D01*
X135934906Y-71778714D01*
X135936535Y-71775715D01*
X136033000Y-71679250D01*
X136023788Y-71631874D01*
X136013886Y-71600000D01*
X136023788Y-71568126D01*
X136033000Y-71520750D01*
X135936535Y-71424285D01*
X135934906Y-71421286D01*
X135861460Y-71333002D01*
X135772201Y-71260743D01*
X135670561Y-71207285D01*
X135560444Y-71174684D01*
X135446084Y-71164192D01*
X130774750Y-71167000D01*
X130629000Y-71312750D01*
X130271000Y-71312750D01*
X130125250Y-71167000D01*
X125453916Y-71164192D01*
X125339556Y-71174684D01*
X125229439Y-71207285D01*
X125127799Y-71260743D01*
X125038540Y-71333002D01*
X124965094Y-71421286D01*
X124963465Y-71424285D01*
X124867000Y-71520750D01*
X123475000Y-71520750D01*
X123475000Y-70355679D01*
X124150000Y-70355679D01*
X124150000Y-70444321D01*
X124167294Y-70531260D01*
X124201215Y-70613155D01*
X124250462Y-70686858D01*
X124313142Y-70749538D01*
X124386845Y-70798785D01*
X124468740Y-70832706D01*
X124555679Y-70850000D01*
X124644321Y-70850000D01*
X124731260Y-70832706D01*
X124813155Y-70798785D01*
X124886858Y-70749538D01*
X124908521Y-70727875D01*
X124876212Y-70831874D01*
X124867000Y-70879250D01*
X125012750Y-71025000D01*
X130271000Y-71025000D01*
X130271000Y-71001000D01*
X130629000Y-71001000D01*
X130629000Y-71025000D01*
X135887250Y-71025000D01*
X136033000Y-70879250D01*
X136023788Y-70831874D01*
X135989717Y-70722203D01*
X135934906Y-70621286D01*
X135861460Y-70533002D01*
X135772201Y-70460743D01*
X135676088Y-70410192D01*
X135676088Y-70150000D01*
X135671744Y-70105892D01*
X135658878Y-70063480D01*
X135637985Y-70024392D01*
X135609868Y-69990132D01*
X135575608Y-69962015D01*
X135536520Y-69941122D01*
X135494108Y-69928256D01*
X135450000Y-69923912D01*
X125450000Y-69923912D01*
X125405892Y-69928256D01*
X125363480Y-69941122D01*
X125324392Y-69962015D01*
X125290132Y-69990132D01*
X125262015Y-70024392D01*
X125241122Y-70063480D01*
X125228256Y-70105892D01*
X125226374Y-70125000D01*
X124957461Y-70125000D01*
X124949538Y-70113142D01*
X124886858Y-70050462D01*
X124813155Y-70001215D01*
X124731260Y-69967294D01*
X124644321Y-69950000D01*
X124555679Y-69950000D01*
X124468740Y-69967294D01*
X124386845Y-70001215D01*
X124313142Y-70050462D01*
X124250462Y-70113142D01*
X124201215Y-70186845D01*
X124167294Y-70268740D01*
X124150000Y-70355679D01*
X123475000Y-70355679D01*
X123475000Y-69655679D01*
X140550000Y-69655679D01*
X140550000Y-69744321D01*
X140567294Y-69831260D01*
X140601215Y-69913155D01*
X140650462Y-69986858D01*
X140713142Y-70049538D01*
X140786845Y-70098785D01*
X140868740Y-70132706D01*
X140941692Y-70147218D01*
X140956204Y-70220170D01*
X140990125Y-70302065D01*
X141039372Y-70375768D01*
X141102052Y-70438448D01*
X141175755Y-70487695D01*
X141257650Y-70521616D01*
X141344589Y-70538910D01*
X141350000Y-70538910D01*
X141350000Y-70544321D01*
X141367294Y-70631260D01*
X141401215Y-70713155D01*
X141450462Y-70786858D01*
X141513142Y-70849538D01*
X141586845Y-70898785D01*
X141668740Y-70932706D01*
X141750942Y-70949058D01*
X141767294Y-71031260D01*
X141801215Y-71113155D01*
X141850462Y-71186858D01*
X141913142Y-71249538D01*
X141986845Y-71298785D01*
X142068740Y-71332706D01*
X142155679Y-71350000D01*
X142244321Y-71350000D01*
X142331260Y-71332706D01*
X142413155Y-71298785D01*
X142486858Y-71249538D01*
X142549538Y-71186858D01*
X142550779Y-71185000D01*
X148249221Y-71185000D01*
X148250462Y-71186858D01*
X148313142Y-71249538D01*
X148386845Y-71298785D01*
X148468740Y-71332706D01*
X148555679Y-71350000D01*
X148644321Y-71350000D01*
X148731260Y-71332706D01*
X148813155Y-71298785D01*
X148886858Y-71249538D01*
X148949538Y-71186858D01*
X148998785Y-71113155D01*
X149032706Y-71031260D01*
X149050000Y-70944321D01*
X149050000Y-70855679D01*
X149035940Y-70785000D01*
X149549221Y-70785000D01*
X149550462Y-70786858D01*
X149613142Y-70849538D01*
X149686845Y-70898785D01*
X149768740Y-70932706D01*
X149855679Y-70950000D01*
X149944321Y-70950000D01*
X150031260Y-70932706D01*
X150113155Y-70898785D01*
X150186858Y-70849538D01*
X150249538Y-70786858D01*
X150298785Y-70713155D01*
X150332706Y-70631260D01*
X150350000Y-70544321D01*
X150350000Y-70455679D01*
X150333734Y-70373910D01*
X150341810Y-70373910D01*
X150350462Y-70386858D01*
X150413142Y-70449538D01*
X150486845Y-70498785D01*
X150568740Y-70532706D01*
X150655679Y-70550000D01*
X150744321Y-70550000D01*
X150831260Y-70532706D01*
X150913155Y-70498785D01*
X150986858Y-70449538D01*
X151049538Y-70386858D01*
X151098785Y-70313155D01*
X151132706Y-70231260D01*
X151150000Y-70144321D01*
X151150000Y-70055679D01*
X151135940Y-69985000D01*
X151586010Y-69985000D01*
X151600000Y-69986378D01*
X151613990Y-69985000D01*
X151655870Y-69980875D01*
X151709592Y-69964579D01*
X151759103Y-69938115D01*
X151802500Y-69902500D01*
X151811424Y-69891626D01*
X151947371Y-69755679D01*
X152850000Y-69755679D01*
X152850000Y-69844321D01*
X152867294Y-69931260D01*
X152901215Y-70013155D01*
X152950462Y-70086858D01*
X153013142Y-70149538D01*
X153086845Y-70198785D01*
X153168740Y-70232706D01*
X153255679Y-70250000D01*
X153344321Y-70250000D01*
X153431260Y-70232706D01*
X153513155Y-70198785D01*
X153586858Y-70149538D01*
X153649538Y-70086858D01*
X153698785Y-70013155D01*
X153732706Y-69931260D01*
X153750000Y-69844321D01*
X153750000Y-69755679D01*
X155650000Y-69755679D01*
X155650000Y-69844321D01*
X155667294Y-69931260D01*
X155701215Y-70013155D01*
X155750462Y-70086858D01*
X155813142Y-70149538D01*
X155886845Y-70198785D01*
X155968740Y-70232706D01*
X156055679Y-70250000D01*
X156144321Y-70250000D01*
X156231260Y-70232706D01*
X156313155Y-70198785D01*
X156386858Y-70149538D01*
X156449538Y-70086858D01*
X156498785Y-70013155D01*
X156532706Y-69931260D01*
X156550000Y-69844321D01*
X156550000Y-69755679D01*
X156532706Y-69668740D01*
X156498785Y-69586845D01*
X156449538Y-69513142D01*
X156386858Y-69450462D01*
X156313155Y-69401215D01*
X156231260Y-69367294D01*
X156144321Y-69350000D01*
X156055679Y-69350000D01*
X155968740Y-69367294D01*
X155886845Y-69401215D01*
X155813142Y-69450462D01*
X155750462Y-69513142D01*
X155701215Y-69586845D01*
X155667294Y-69668740D01*
X155650000Y-69755679D01*
X153750000Y-69755679D01*
X153732706Y-69668740D01*
X153698785Y-69586845D01*
X153649538Y-69513142D01*
X153586858Y-69450462D01*
X153513155Y-69401215D01*
X153431260Y-69367294D01*
X153344321Y-69350000D01*
X153255679Y-69350000D01*
X153168740Y-69367294D01*
X153086845Y-69401215D01*
X153013142Y-69450462D01*
X152950462Y-69513142D01*
X152901215Y-69586845D01*
X152867294Y-69668740D01*
X152850000Y-69755679D01*
X151947371Y-69755679D01*
X152491632Y-69211419D01*
X152502500Y-69202500D01*
X152538115Y-69159103D01*
X152564579Y-69109592D01*
X152580875Y-69055870D01*
X152585000Y-69013990D01*
X152585000Y-69013984D01*
X152586377Y-69000001D01*
X152585000Y-68986018D01*
X152585000Y-68750779D01*
X152586858Y-68749538D01*
X152649538Y-68686858D01*
X152698785Y-68613155D01*
X152732706Y-68531260D01*
X152750000Y-68444321D01*
X152750000Y-68355679D01*
X152732706Y-68268740D01*
X152698785Y-68186845D01*
X152649538Y-68113142D01*
X152586858Y-68050462D01*
X152513155Y-68001215D01*
X152431260Y-67967294D01*
X152344321Y-67950000D01*
X152255679Y-67950000D01*
X152168740Y-67967294D01*
X152086845Y-68001215D01*
X152013142Y-68050462D01*
X151950462Y-68113142D01*
X151901215Y-68186845D01*
X151867294Y-68268740D01*
X151850000Y-68355679D01*
X151850000Y-68444321D01*
X151867294Y-68531260D01*
X151901215Y-68613155D01*
X151950462Y-68686858D01*
X152013142Y-68749538D01*
X152015000Y-68750780D01*
X152015000Y-68881949D01*
X151481950Y-69415000D01*
X141350779Y-69415000D01*
X141349538Y-69413142D01*
X141286858Y-69350462D01*
X141213155Y-69301215D01*
X141131260Y-69267294D01*
X141044321Y-69250000D01*
X140955679Y-69250000D01*
X140868740Y-69267294D01*
X140786845Y-69301215D01*
X140713142Y-69350462D01*
X140650462Y-69413142D01*
X140601215Y-69486845D01*
X140567294Y-69568740D01*
X140550000Y-69655679D01*
X123475000Y-69655679D01*
X123475000Y-68755679D01*
X139150000Y-68755679D01*
X139150000Y-68844321D01*
X139167294Y-68931260D01*
X139201215Y-69013155D01*
X139250462Y-69086858D01*
X139313142Y-69149538D01*
X139386845Y-69198785D01*
X139468740Y-69232706D01*
X139555679Y-69250000D01*
X139644321Y-69250000D01*
X139731260Y-69232706D01*
X139813155Y-69198785D01*
X139886858Y-69149538D01*
X139949538Y-69086858D01*
X139998785Y-69013155D01*
X140032706Y-68931260D01*
X140050000Y-68844321D01*
X140050000Y-68755679D01*
X140032706Y-68668740D01*
X139998785Y-68586845D01*
X139949538Y-68513142D01*
X139886858Y-68450462D01*
X139813155Y-68401215D01*
X139731260Y-68367294D01*
X139644321Y-68350000D01*
X139555679Y-68350000D01*
X139468740Y-68367294D01*
X139386845Y-68401215D01*
X139313142Y-68450462D01*
X139250462Y-68513142D01*
X139201215Y-68586845D01*
X139167294Y-68668740D01*
X139150000Y-68755679D01*
X123475000Y-68755679D01*
X123475000Y-68155679D01*
X125150000Y-68155679D01*
X125150000Y-68244321D01*
X125167294Y-68331260D01*
X125201215Y-68413155D01*
X125250462Y-68486858D01*
X125313142Y-68549538D01*
X125386845Y-68598785D01*
X125468740Y-68632706D01*
X125555679Y-68650000D01*
X125644321Y-68650000D01*
X125731260Y-68632706D01*
X125813155Y-68598785D01*
X125886858Y-68549538D01*
X125949538Y-68486858D01*
X125998785Y-68413155D01*
X126032706Y-68331260D01*
X126050000Y-68244321D01*
X126050000Y-68155679D01*
X126032706Y-68068740D01*
X125998785Y-67986845D01*
X125949538Y-67913142D01*
X125886858Y-67850462D01*
X125813155Y-67801215D01*
X125731260Y-67767294D01*
X125644321Y-67750000D01*
X125555679Y-67750000D01*
X125468740Y-67767294D01*
X125386845Y-67801215D01*
X125313142Y-67850462D01*
X125250462Y-67913142D01*
X125201215Y-67986845D01*
X125167294Y-68068740D01*
X125150000Y-68155679D01*
X123475000Y-68155679D01*
X123475000Y-66325679D01*
X123740000Y-66325679D01*
X123740000Y-66414321D01*
X123757294Y-66501260D01*
X123791215Y-66583155D01*
X123840462Y-66656858D01*
X123903142Y-66719538D01*
X123976845Y-66768785D01*
X124058740Y-66802706D01*
X124145679Y-66820000D01*
X124234321Y-66820000D01*
X124321260Y-66802706D01*
X124403155Y-66768785D01*
X124476858Y-66719538D01*
X124539538Y-66656858D01*
X124540779Y-66655000D01*
X127501950Y-66655000D01*
X129078580Y-68231631D01*
X129087500Y-68242500D01*
X129130897Y-68278115D01*
X129153896Y-68290408D01*
X129180407Y-68304579D01*
X129234130Y-68320875D01*
X129290000Y-68326378D01*
X129303990Y-68325000D01*
X132569221Y-68325000D01*
X132570462Y-68326858D01*
X132633142Y-68389538D01*
X132706845Y-68438785D01*
X132788740Y-68472706D01*
X132875679Y-68490000D01*
X132964321Y-68490000D01*
X133051260Y-68472706D01*
X133133155Y-68438785D01*
X133206858Y-68389538D01*
X133269538Y-68326858D01*
X133318785Y-68253155D01*
X133352706Y-68171260D01*
X133370000Y-68084321D01*
X133370000Y-67995679D01*
X133352706Y-67908740D01*
X133318785Y-67826845D01*
X133269538Y-67753142D01*
X133206858Y-67690462D01*
X133133155Y-67641215D01*
X133051260Y-67607294D01*
X132964321Y-67590000D01*
X132875679Y-67590000D01*
X132788740Y-67607294D01*
X132706845Y-67641215D01*
X132633142Y-67690462D01*
X132570462Y-67753142D01*
X132569221Y-67755000D01*
X129408051Y-67755000D01*
X129208730Y-67555679D01*
X139050000Y-67555679D01*
X139050000Y-67644321D01*
X139067294Y-67731260D01*
X139101215Y-67813155D01*
X139150462Y-67886858D01*
X139213142Y-67949538D01*
X139286845Y-67998785D01*
X139368740Y-68032706D01*
X139455679Y-68050000D01*
X139544321Y-68050000D01*
X139631260Y-68032706D01*
X139713155Y-67998785D01*
X139786858Y-67949538D01*
X139849538Y-67886858D01*
X139898785Y-67813155D01*
X139900000Y-67810222D01*
X139901215Y-67813155D01*
X139950462Y-67886858D01*
X140013142Y-67949538D01*
X140086845Y-67998785D01*
X140168740Y-68032706D01*
X140255679Y-68050000D01*
X140344321Y-68050000D01*
X140431260Y-68032706D01*
X140513155Y-67998785D01*
X140586858Y-67949538D01*
X140649538Y-67886858D01*
X140698785Y-67813155D01*
X140732706Y-67731260D01*
X140750000Y-67644321D01*
X140750000Y-67555679D01*
X140732706Y-67468740D01*
X140698785Y-67386845D01*
X140649538Y-67313142D01*
X140602075Y-67265679D01*
X156877600Y-67265679D01*
X156877600Y-67354321D01*
X156894894Y-67441260D01*
X156928815Y-67523155D01*
X156978062Y-67596858D01*
X157040742Y-67659538D01*
X157114445Y-67708785D01*
X157196340Y-67742706D01*
X157283279Y-67760000D01*
X157371921Y-67760000D01*
X157458860Y-67742706D01*
X157540755Y-67708785D01*
X157614458Y-67659538D01*
X157677138Y-67596858D01*
X157685061Y-67585000D01*
X161084939Y-67585000D01*
X161092862Y-67596858D01*
X161155542Y-67659538D01*
X161229245Y-67708785D01*
X161311140Y-67742706D01*
X161398079Y-67760000D01*
X161486721Y-67760000D01*
X161573660Y-67742706D01*
X161655555Y-67708785D01*
X161729258Y-67659538D01*
X161791938Y-67596858D01*
X161841185Y-67523155D01*
X161875106Y-67441260D01*
X161892400Y-67354321D01*
X161892400Y-67265679D01*
X161875106Y-67178740D01*
X161841185Y-67096845D01*
X161791938Y-67023142D01*
X161729258Y-66960462D01*
X161655555Y-66911215D01*
X161573660Y-66877294D01*
X161486721Y-66860000D01*
X161398079Y-66860000D01*
X161311140Y-66877294D01*
X161229245Y-66911215D01*
X161155542Y-66960462D01*
X161092862Y-67023142D01*
X161084939Y-67035000D01*
X157685061Y-67035000D01*
X157677138Y-67023142D01*
X157614458Y-66960462D01*
X157540755Y-66911215D01*
X157458860Y-66877294D01*
X157371921Y-66860000D01*
X157283279Y-66860000D01*
X157196340Y-66877294D01*
X157114445Y-66911215D01*
X157040742Y-66960462D01*
X156978062Y-67023142D01*
X156928815Y-67096845D01*
X156894894Y-67178740D01*
X156877600Y-67265679D01*
X140602075Y-67265679D01*
X140586858Y-67250462D01*
X140513155Y-67201215D01*
X140431260Y-67167294D01*
X140344321Y-67150000D01*
X140255679Y-67150000D01*
X140168740Y-67167294D01*
X140086845Y-67201215D01*
X140013142Y-67250462D01*
X139950462Y-67313142D01*
X139901215Y-67386845D01*
X139900000Y-67389778D01*
X139898785Y-67386845D01*
X139849538Y-67313142D01*
X139786858Y-67250462D01*
X139713155Y-67201215D01*
X139631260Y-67167294D01*
X139544321Y-67150000D01*
X139455679Y-67150000D01*
X139368740Y-67167294D01*
X139286845Y-67201215D01*
X139213142Y-67250462D01*
X139150462Y-67313142D01*
X139101215Y-67386845D01*
X139067294Y-67468740D01*
X139050000Y-67555679D01*
X129208730Y-67555679D01*
X128293730Y-66640679D01*
X144145000Y-66640679D01*
X144145000Y-66729321D01*
X144162294Y-66816260D01*
X144196215Y-66898155D01*
X144245462Y-66971858D01*
X144308142Y-67034538D01*
X144381845Y-67083785D01*
X144463740Y-67117706D01*
X144550679Y-67135000D01*
X144639321Y-67135000D01*
X144726260Y-67117706D01*
X144808155Y-67083785D01*
X144881858Y-67034538D01*
X144944538Y-66971858D01*
X144993785Y-66898155D01*
X145027706Y-66816260D01*
X145045000Y-66729321D01*
X145045000Y-66640679D01*
X145027706Y-66553740D01*
X144993785Y-66471845D01*
X144944538Y-66398142D01*
X144881858Y-66335462D01*
X144808155Y-66286215D01*
X144726260Y-66252294D01*
X144639321Y-66235000D01*
X144550679Y-66235000D01*
X144463740Y-66252294D01*
X144381845Y-66286215D01*
X144308142Y-66335462D01*
X144245462Y-66398142D01*
X144196215Y-66471845D01*
X144162294Y-66553740D01*
X144145000Y-66640679D01*
X128293730Y-66640679D01*
X127831424Y-66178374D01*
X127822500Y-66167500D01*
X127779103Y-66131885D01*
X127729592Y-66105421D01*
X127675870Y-66089125D01*
X127633990Y-66085000D01*
X127620000Y-66083622D01*
X127606010Y-66085000D01*
X124540779Y-66085000D01*
X124539538Y-66083142D01*
X124476858Y-66020462D01*
X124403155Y-65971215D01*
X124321260Y-65937294D01*
X124234321Y-65920000D01*
X124145679Y-65920000D01*
X124058740Y-65937294D01*
X123976845Y-65971215D01*
X123903142Y-66020462D01*
X123840462Y-66083142D01*
X123791215Y-66156845D01*
X123757294Y-66238740D01*
X123740000Y-66325679D01*
X123475000Y-66325679D01*
X123475000Y-65840680D01*
X140609411Y-65840680D01*
X140609411Y-65929322D01*
X140626705Y-66016261D01*
X140660626Y-66098156D01*
X140709873Y-66171859D01*
X140772553Y-66234539D01*
X140846256Y-66283786D01*
X140928151Y-66317707D01*
X141015090Y-66335001D01*
X141103732Y-66335001D01*
X141190671Y-66317707D01*
X141272566Y-66283786D01*
X141346269Y-66234539D01*
X141408949Y-66171859D01*
X141410190Y-66170001D01*
X151439198Y-66170001D01*
X151450462Y-66186858D01*
X151513142Y-66249538D01*
X151586845Y-66298785D01*
X151668740Y-66332706D01*
X151755679Y-66350000D01*
X151844321Y-66350000D01*
X151931260Y-66332706D01*
X152013155Y-66298785D01*
X152086858Y-66249538D01*
X152149538Y-66186858D01*
X152198785Y-66113155D01*
X152232706Y-66031260D01*
X152250000Y-65944321D01*
X152250000Y-65855679D01*
X152232706Y-65768740D01*
X152198785Y-65686845D01*
X152149538Y-65613142D01*
X152086858Y-65550462D01*
X152013155Y-65501215D01*
X151931260Y-65467294D01*
X151844321Y-65450000D01*
X151755679Y-65450000D01*
X151668740Y-65467294D01*
X151586845Y-65501215D01*
X151513142Y-65550462D01*
X151463603Y-65600001D01*
X149736395Y-65600001D01*
X149749538Y-65586858D01*
X149798785Y-65513155D01*
X149832706Y-65431260D01*
X149850000Y-65344321D01*
X149850000Y-65255679D01*
X149832706Y-65168740D01*
X149798785Y-65086845D01*
X149749538Y-65013142D01*
X149686858Y-64950462D01*
X149613155Y-64901215D01*
X149531260Y-64867294D01*
X149444321Y-64850000D01*
X149355679Y-64850000D01*
X149341970Y-64852727D01*
X149309592Y-64835421D01*
X149255870Y-64819125D01*
X149213990Y-64815000D01*
X149200000Y-64813622D01*
X149186010Y-64815000D01*
X141450779Y-64815000D01*
X141449538Y-64813142D01*
X141386858Y-64750462D01*
X141313155Y-64701215D01*
X141231260Y-64667294D01*
X141144321Y-64650000D01*
X141055679Y-64650000D01*
X140968740Y-64667294D01*
X140886845Y-64701215D01*
X140813142Y-64750462D01*
X140750462Y-64813142D01*
X140701215Y-64886845D01*
X140667294Y-64968740D01*
X140650000Y-65055679D01*
X140650000Y-65144321D01*
X140667294Y-65231260D01*
X140701215Y-65313155D01*
X140750462Y-65386858D01*
X140813142Y-65449538D01*
X140859700Y-65480647D01*
X140846256Y-65486216D01*
X140772553Y-65535463D01*
X140709873Y-65598143D01*
X140660626Y-65671846D01*
X140626705Y-65753741D01*
X140609411Y-65840680D01*
X123475000Y-65840680D01*
X123475000Y-64455679D01*
X125250000Y-64455679D01*
X125250000Y-64544321D01*
X125267294Y-64631260D01*
X125301215Y-64713155D01*
X125350462Y-64786858D01*
X125413142Y-64849538D01*
X125486845Y-64898785D01*
X125568740Y-64932706D01*
X125655679Y-64950000D01*
X125744321Y-64950000D01*
X125831260Y-64932706D01*
X125913155Y-64898785D01*
X125986858Y-64849538D01*
X126049538Y-64786858D01*
X126098785Y-64713155D01*
X126132706Y-64631260D01*
X126150000Y-64544321D01*
X126150000Y-64455679D01*
X126132706Y-64368740D01*
X126098785Y-64286845D01*
X126049538Y-64213142D01*
X125986858Y-64150462D01*
X125913155Y-64101215D01*
X125831260Y-64067294D01*
X125744321Y-64050000D01*
X125655679Y-64050000D01*
X125568740Y-64067294D01*
X125486845Y-64101215D01*
X125413142Y-64150462D01*
X125350462Y-64213142D01*
X125301215Y-64286845D01*
X125267294Y-64368740D01*
X125250000Y-64455679D01*
X123475000Y-64455679D01*
X123475000Y-64003971D01*
X126825000Y-64003971D01*
X126825000Y-64196029D01*
X126862468Y-64384397D01*
X126935966Y-64561836D01*
X127042668Y-64721527D01*
X127178473Y-64857332D01*
X127338164Y-64964034D01*
X127515603Y-65037532D01*
X127703971Y-65075000D01*
X127896029Y-65075000D01*
X128084397Y-65037532D01*
X128261836Y-64964034D01*
X128421527Y-64857332D01*
X128557332Y-64721527D01*
X128664034Y-64561836D01*
X128737532Y-64384397D01*
X128775000Y-64196029D01*
X128775000Y-64155679D01*
X139150000Y-64155679D01*
X139150000Y-64244321D01*
X139167294Y-64331260D01*
X139201215Y-64413155D01*
X139250462Y-64486858D01*
X139313142Y-64549538D01*
X139386845Y-64598785D01*
X139468740Y-64632706D01*
X139555679Y-64650000D01*
X139644321Y-64650000D01*
X139731260Y-64632706D01*
X139813155Y-64598785D01*
X139886858Y-64549538D01*
X139949538Y-64486858D01*
X139998785Y-64413155D01*
X140032706Y-64331260D01*
X140047740Y-64255679D01*
X160350000Y-64255679D01*
X160350000Y-64344321D01*
X160367294Y-64431260D01*
X160401215Y-64513155D01*
X160450462Y-64586858D01*
X160513142Y-64649538D01*
X160586845Y-64698785D01*
X160668740Y-64732706D01*
X160755679Y-64750000D01*
X160844321Y-64750000D01*
X160931260Y-64732706D01*
X161013155Y-64698785D01*
X161086858Y-64649538D01*
X161149538Y-64586858D01*
X161198785Y-64513155D01*
X161232706Y-64431260D01*
X161250000Y-64344321D01*
X161250000Y-64255679D01*
X161650000Y-64255679D01*
X161650000Y-64344321D01*
X161667294Y-64431260D01*
X161701215Y-64513155D01*
X161750462Y-64586858D01*
X161813142Y-64649538D01*
X161886845Y-64698785D01*
X161968740Y-64732706D01*
X162055679Y-64750000D01*
X162144321Y-64750000D01*
X162231260Y-64732706D01*
X162313155Y-64698785D01*
X162386858Y-64649538D01*
X162449538Y-64586858D01*
X162498785Y-64513155D01*
X162532706Y-64431260D01*
X162550000Y-64344321D01*
X162550000Y-64255679D01*
X162532706Y-64168740D01*
X162498785Y-64086845D01*
X162449538Y-64013142D01*
X162386858Y-63950462D01*
X162313155Y-63901215D01*
X162231260Y-63867294D01*
X162144321Y-63850000D01*
X162055679Y-63850000D01*
X161968740Y-63867294D01*
X161886845Y-63901215D01*
X161813142Y-63950462D01*
X161750462Y-64013142D01*
X161701215Y-64086845D01*
X161667294Y-64168740D01*
X161650000Y-64255679D01*
X161250000Y-64255679D01*
X161232706Y-64168740D01*
X161198785Y-64086845D01*
X161149538Y-64013142D01*
X161086858Y-63950462D01*
X161013155Y-63901215D01*
X160931260Y-63867294D01*
X160844321Y-63850000D01*
X160755679Y-63850000D01*
X160668740Y-63867294D01*
X160586845Y-63901215D01*
X160513142Y-63950462D01*
X160450462Y-64013142D01*
X160401215Y-64086845D01*
X160367294Y-64168740D01*
X160350000Y-64255679D01*
X140047740Y-64255679D01*
X140050000Y-64244321D01*
X140050000Y-64155679D01*
X140032706Y-64068740D01*
X139998785Y-63986845D01*
X139949538Y-63913142D01*
X139886858Y-63850462D01*
X139813155Y-63801215D01*
X139731260Y-63767294D01*
X139644321Y-63750000D01*
X139555679Y-63750000D01*
X139468740Y-63767294D01*
X139386845Y-63801215D01*
X139313142Y-63850462D01*
X139250462Y-63913142D01*
X139201215Y-63986845D01*
X139167294Y-64068740D01*
X139150000Y-64155679D01*
X128775000Y-64155679D01*
X128775000Y-64003971D01*
X128737532Y-63815603D01*
X128664034Y-63638164D01*
X128608920Y-63555679D01*
X140450000Y-63555679D01*
X140450000Y-63644321D01*
X140467294Y-63731260D01*
X140501215Y-63813155D01*
X140550462Y-63886858D01*
X140613142Y-63949538D01*
X140686845Y-63998785D01*
X140768740Y-64032706D01*
X140855679Y-64050000D01*
X140944321Y-64050000D01*
X141031260Y-64032706D01*
X141113155Y-63998785D01*
X141186858Y-63949538D01*
X141249538Y-63886858D01*
X141298785Y-63813155D01*
X141332706Y-63731260D01*
X141350000Y-63644321D01*
X141350000Y-63555679D01*
X141332706Y-63468740D01*
X141298785Y-63386845D01*
X141249538Y-63313142D01*
X141192075Y-63255679D01*
X160350000Y-63255679D01*
X160350000Y-63344321D01*
X160367294Y-63431260D01*
X160401215Y-63513155D01*
X160450462Y-63586858D01*
X160513142Y-63649538D01*
X160586845Y-63698785D01*
X160668740Y-63732706D01*
X160755679Y-63750000D01*
X160844321Y-63750000D01*
X160931260Y-63732706D01*
X161013155Y-63698785D01*
X161086858Y-63649538D01*
X161149538Y-63586858D01*
X161198785Y-63513155D01*
X161232706Y-63431260D01*
X161250000Y-63344321D01*
X161250000Y-63255679D01*
X161650000Y-63255679D01*
X161650000Y-63344321D01*
X161667294Y-63431260D01*
X161701215Y-63513155D01*
X161750462Y-63586858D01*
X161813142Y-63649538D01*
X161886845Y-63698785D01*
X161968740Y-63732706D01*
X162055679Y-63750000D01*
X162144321Y-63750000D01*
X162231260Y-63732706D01*
X162313155Y-63698785D01*
X162386858Y-63649538D01*
X162449538Y-63586858D01*
X162498785Y-63513155D01*
X162532706Y-63431260D01*
X162550000Y-63344321D01*
X162550000Y-63255679D01*
X162532706Y-63168740D01*
X162498785Y-63086845D01*
X162449538Y-63013142D01*
X162386858Y-62950462D01*
X162313155Y-62901215D01*
X162231260Y-62867294D01*
X162144321Y-62850000D01*
X162055679Y-62850000D01*
X161968740Y-62867294D01*
X161886845Y-62901215D01*
X161813142Y-62950462D01*
X161750462Y-63013142D01*
X161701215Y-63086845D01*
X161667294Y-63168740D01*
X161650000Y-63255679D01*
X161250000Y-63255679D01*
X161232706Y-63168740D01*
X161198785Y-63086845D01*
X161149538Y-63013142D01*
X161086858Y-62950462D01*
X161013155Y-62901215D01*
X160931260Y-62867294D01*
X160844321Y-62850000D01*
X160755679Y-62850000D01*
X160668740Y-62867294D01*
X160586845Y-62901215D01*
X160513142Y-62950462D01*
X160450462Y-63013142D01*
X160401215Y-63086845D01*
X160367294Y-63168740D01*
X160350000Y-63255679D01*
X141192075Y-63255679D01*
X141186858Y-63250462D01*
X141113155Y-63201215D01*
X141031260Y-63167294D01*
X140944321Y-63150000D01*
X140855679Y-63150000D01*
X140768740Y-63167294D01*
X140686845Y-63201215D01*
X140613142Y-63250462D01*
X140550462Y-63313142D01*
X140501215Y-63386845D01*
X140467294Y-63468740D01*
X140450000Y-63555679D01*
X128608920Y-63555679D01*
X128557332Y-63478473D01*
X128421527Y-63342668D01*
X128261836Y-63235966D01*
X128084397Y-63162468D01*
X127896029Y-63125000D01*
X127703971Y-63125000D01*
X127515603Y-63162468D01*
X127338164Y-63235966D01*
X127178473Y-63342668D01*
X127042668Y-63478473D01*
X126935966Y-63638164D01*
X126862468Y-63815603D01*
X126825000Y-64003971D01*
X123475000Y-64003971D01*
X123475000Y-62675000D01*
X163025404Y-62675000D01*
X163125000Y-81100220D01*
M02*
