G04 #@! TF.GenerationSoftware,KiCad,Pcbnew,(5.1.5)-3*
G04 #@! TF.CreationDate,2020-05-04T14:09:15-04:00*
G04 #@! TF.ProjectId,SmartWatch V4,536d6172-7457-4617-9463-682056342e6b,rev?*
G04 #@! TF.SameCoordinates,Original*
G04 #@! TF.FileFunction,Soldermask,Top*
G04 #@! TF.FilePolarity,Negative*
%FSLAX46Y46*%
G04 Gerber Fmt 4.6, Leading zero omitted, Abs format (unit mm)*
G04 Created by KiCad (PCBNEW (5.1.5)-3) date 2020-05-04 14:09:15*
%MOMM*%
%LPD*%
G04 APERTURE LIST*
%ADD10C,0.100000*%
G04 APERTURE END LIST*
D10*
G36*
X163218769Y-95378822D02*
G01*
X163355255Y-95435357D01*
X163478097Y-95517437D01*
X163582563Y-95621903D01*
X163664643Y-95744745D01*
X163721178Y-95881231D01*
X163750000Y-96026131D01*
X163750000Y-96173869D01*
X163721178Y-96318769D01*
X163664643Y-96455255D01*
X163582563Y-96578097D01*
X163478097Y-96682563D01*
X163355255Y-96764643D01*
X163218769Y-96821178D01*
X163073869Y-96850000D01*
X162926131Y-96850000D01*
X162781231Y-96821178D01*
X162644745Y-96764643D01*
X162521903Y-96682563D01*
X162417437Y-96578097D01*
X162335357Y-96455255D01*
X162278822Y-96318769D01*
X162250000Y-96173869D01*
X162250000Y-96026131D01*
X162278822Y-95881231D01*
X162335357Y-95744745D01*
X162417437Y-95621903D01*
X162521903Y-95517437D01*
X162644745Y-95435357D01*
X162781231Y-95378822D01*
X162926131Y-95350000D01*
X163073869Y-95350000D01*
X163218769Y-95378822D01*
G37*
G36*
X153760713Y-95759619D02*
G01*
X153801277Y-95771924D01*
X153838660Y-95791906D01*
X153871425Y-95818795D01*
X153898314Y-95851560D01*
X153918296Y-95888943D01*
X153930601Y-95929507D01*
X153934780Y-95971936D01*
X153934780Y-96488944D01*
X153930601Y-96531373D01*
X153918296Y-96571937D01*
X153898314Y-96609320D01*
X153871425Y-96642085D01*
X153838660Y-96668974D01*
X153801277Y-96688956D01*
X153760713Y-96701261D01*
X153718284Y-96705440D01*
X153276276Y-96705440D01*
X153233847Y-96701261D01*
X153193283Y-96688956D01*
X153155900Y-96668974D01*
X153123135Y-96642085D01*
X153096246Y-96609320D01*
X153076264Y-96571937D01*
X153063959Y-96531373D01*
X153059780Y-96488944D01*
X153059780Y-95971936D01*
X153063959Y-95929507D01*
X153076264Y-95888943D01*
X153096246Y-95851560D01*
X153123135Y-95818795D01*
X153155900Y-95791906D01*
X153193283Y-95771924D01*
X153233847Y-95759619D01*
X153276276Y-95755440D01*
X153718284Y-95755440D01*
X153760713Y-95759619D01*
G37*
G36*
X152185713Y-95759619D02*
G01*
X152226277Y-95771924D01*
X152263660Y-95791906D01*
X152296425Y-95818795D01*
X152323314Y-95851560D01*
X152343296Y-95888943D01*
X152355601Y-95929507D01*
X152359780Y-95971936D01*
X152359780Y-96488944D01*
X152355601Y-96531373D01*
X152343296Y-96571937D01*
X152323314Y-96609320D01*
X152296425Y-96642085D01*
X152263660Y-96668974D01*
X152226277Y-96688956D01*
X152185713Y-96701261D01*
X152143284Y-96705440D01*
X151701276Y-96705440D01*
X151658847Y-96701261D01*
X151618283Y-96688956D01*
X151580900Y-96668974D01*
X151548135Y-96642085D01*
X151521246Y-96609320D01*
X151501264Y-96571937D01*
X151488959Y-96531373D01*
X151484780Y-96488944D01*
X151484780Y-95971936D01*
X151488959Y-95929507D01*
X151501264Y-95888943D01*
X151521246Y-95851560D01*
X151548135Y-95818795D01*
X151580900Y-95791906D01*
X151618283Y-95771924D01*
X151658847Y-95759619D01*
X151701276Y-95755440D01*
X152143284Y-95755440D01*
X152185713Y-95759619D01*
G37*
G36*
X146163433Y-95629179D02*
G01*
X146203997Y-95641484D01*
X146241380Y-95661466D01*
X146274145Y-95688355D01*
X146301034Y-95721120D01*
X146321016Y-95758503D01*
X146333321Y-95799067D01*
X146337500Y-95841496D01*
X146337500Y-96358504D01*
X146333321Y-96400933D01*
X146321016Y-96441497D01*
X146301034Y-96478880D01*
X146274145Y-96511645D01*
X146241380Y-96538534D01*
X146203997Y-96558516D01*
X146163433Y-96570821D01*
X146121004Y-96575000D01*
X145678996Y-96575000D01*
X145636567Y-96570821D01*
X145596003Y-96558516D01*
X145558620Y-96538534D01*
X145525855Y-96511645D01*
X145498966Y-96478880D01*
X145478984Y-96441497D01*
X145466679Y-96400933D01*
X145462500Y-96358504D01*
X145462500Y-95841496D01*
X145466679Y-95799067D01*
X145478984Y-95758503D01*
X145498966Y-95721120D01*
X145525855Y-95688355D01*
X145558620Y-95661466D01*
X145596003Y-95641484D01*
X145636567Y-95629179D01*
X145678996Y-95625000D01*
X146121004Y-95625000D01*
X146163433Y-95629179D01*
G37*
G36*
X147738433Y-95629179D02*
G01*
X147778997Y-95641484D01*
X147816380Y-95661466D01*
X147849145Y-95688355D01*
X147876034Y-95721120D01*
X147896016Y-95758503D01*
X147908321Y-95799067D01*
X147912500Y-95841496D01*
X147912500Y-96358504D01*
X147908321Y-96400933D01*
X147896016Y-96441497D01*
X147876034Y-96478880D01*
X147849145Y-96511645D01*
X147816380Y-96538534D01*
X147778997Y-96558516D01*
X147738433Y-96570821D01*
X147696004Y-96575000D01*
X147253996Y-96575000D01*
X147211567Y-96570821D01*
X147171003Y-96558516D01*
X147133620Y-96538534D01*
X147100855Y-96511645D01*
X147073966Y-96478880D01*
X147053984Y-96441497D01*
X147041679Y-96400933D01*
X147037500Y-96358504D01*
X147037500Y-95841496D01*
X147041679Y-95799067D01*
X147053984Y-95758503D01*
X147073966Y-95721120D01*
X147100855Y-95688355D01*
X147133620Y-95661466D01*
X147171003Y-95641484D01*
X147211567Y-95629179D01*
X147253996Y-95625000D01*
X147696004Y-95625000D01*
X147738433Y-95629179D01*
G37*
G36*
X150763433Y-95629179D02*
G01*
X150803997Y-95641484D01*
X150841380Y-95661466D01*
X150874145Y-95688355D01*
X150901034Y-95721120D01*
X150921016Y-95758503D01*
X150933321Y-95799067D01*
X150937500Y-95841496D01*
X150937500Y-96358504D01*
X150933321Y-96400933D01*
X150921016Y-96441497D01*
X150901034Y-96478880D01*
X150874145Y-96511645D01*
X150841380Y-96538534D01*
X150803997Y-96558516D01*
X150763433Y-96570821D01*
X150721004Y-96575000D01*
X150278996Y-96575000D01*
X150236567Y-96570821D01*
X150196003Y-96558516D01*
X150158620Y-96538534D01*
X150125855Y-96511645D01*
X150098966Y-96478880D01*
X150078984Y-96441497D01*
X150066679Y-96400933D01*
X150062500Y-96358504D01*
X150062500Y-95841496D01*
X150066679Y-95799067D01*
X150078984Y-95758503D01*
X150098966Y-95721120D01*
X150125855Y-95688355D01*
X150158620Y-95661466D01*
X150196003Y-95641484D01*
X150236567Y-95629179D01*
X150278996Y-95625000D01*
X150721004Y-95625000D01*
X150763433Y-95629179D01*
G37*
G36*
X149188433Y-95629179D02*
G01*
X149228997Y-95641484D01*
X149266380Y-95661466D01*
X149299145Y-95688355D01*
X149326034Y-95721120D01*
X149346016Y-95758503D01*
X149358321Y-95799067D01*
X149362500Y-95841496D01*
X149362500Y-96358504D01*
X149358321Y-96400933D01*
X149346016Y-96441497D01*
X149326034Y-96478880D01*
X149299145Y-96511645D01*
X149266380Y-96538534D01*
X149228997Y-96558516D01*
X149188433Y-96570821D01*
X149146004Y-96575000D01*
X148703996Y-96575000D01*
X148661567Y-96570821D01*
X148621003Y-96558516D01*
X148583620Y-96538534D01*
X148550855Y-96511645D01*
X148523966Y-96478880D01*
X148503984Y-96441497D01*
X148491679Y-96400933D01*
X148487500Y-96358504D01*
X148487500Y-95841496D01*
X148491679Y-95799067D01*
X148503984Y-95758503D01*
X148523966Y-95721120D01*
X148550855Y-95688355D01*
X148583620Y-95661466D01*
X148621003Y-95641484D01*
X148661567Y-95629179D01*
X148703996Y-95625000D01*
X149146004Y-95625000D01*
X149188433Y-95629179D01*
G37*
G36*
X135071600Y-96454000D02*
G01*
X133271600Y-96454000D01*
X133271600Y-94554000D01*
X135071600Y-94554000D01*
X135071600Y-96454000D01*
G37*
G36*
X142671600Y-96454000D02*
G01*
X140871600Y-96454000D01*
X140871600Y-94554000D01*
X142671600Y-94554000D01*
X142671600Y-96454000D01*
G37*
G36*
X137721600Y-96454000D02*
G01*
X135821600Y-96454000D01*
X135821600Y-94554000D01*
X137721600Y-94554000D01*
X137721600Y-96454000D01*
G37*
G36*
X140121600Y-96454000D02*
G01*
X138221600Y-96454000D01*
X138221600Y-94554000D01*
X140121600Y-94554000D01*
X140121600Y-96454000D01*
G37*
G36*
X157730000Y-96425000D02*
G01*
X156670000Y-96425000D01*
X156670000Y-95775000D01*
X157730000Y-95775000D01*
X157730000Y-96425000D01*
G37*
G36*
X155530000Y-96425000D02*
G01*
X154470000Y-96425000D01*
X154470000Y-95775000D01*
X155530000Y-95775000D01*
X155530000Y-96425000D01*
G37*
G36*
X161650000Y-96350000D02*
G01*
X160750000Y-96350000D01*
X160750000Y-95550000D01*
X161650000Y-95550000D01*
X161650000Y-96350000D01*
G37*
G36*
X125873500Y-95302977D02*
G01*
X125884753Y-95306390D01*
X125895120Y-95311931D01*
X125904209Y-95319391D01*
X125911669Y-95328480D01*
X125917210Y-95338847D01*
X125920623Y-95350100D01*
X125921800Y-95362046D01*
X125921800Y-96066554D01*
X125920623Y-96078500D01*
X125917210Y-96089753D01*
X125911669Y-96100120D01*
X125904209Y-96109209D01*
X125895120Y-96116669D01*
X125884753Y-96122210D01*
X125873500Y-96125623D01*
X125861554Y-96126800D01*
X125732046Y-96126800D01*
X125720100Y-96125623D01*
X125708847Y-96122210D01*
X125698480Y-96116669D01*
X125689391Y-96109209D01*
X125681931Y-96100120D01*
X125676390Y-96089753D01*
X125672977Y-96078500D01*
X125671800Y-96066554D01*
X125671800Y-95362046D01*
X125672977Y-95350100D01*
X125676390Y-95338847D01*
X125681931Y-95328480D01*
X125689391Y-95319391D01*
X125698480Y-95311931D01*
X125708847Y-95306390D01*
X125720100Y-95302977D01*
X125732046Y-95301800D01*
X125861554Y-95301800D01*
X125873500Y-95302977D01*
G37*
G36*
X127373500Y-95302977D02*
G01*
X127384753Y-95306390D01*
X127395120Y-95311931D01*
X127404209Y-95319391D01*
X127411669Y-95328480D01*
X127417210Y-95338847D01*
X127420623Y-95350100D01*
X127421800Y-95362046D01*
X127421800Y-96066554D01*
X127420623Y-96078500D01*
X127417210Y-96089753D01*
X127411669Y-96100120D01*
X127404209Y-96109209D01*
X127395120Y-96116669D01*
X127384753Y-96122210D01*
X127373500Y-96125623D01*
X127361554Y-96126800D01*
X127232046Y-96126800D01*
X127220100Y-96125623D01*
X127208847Y-96122210D01*
X127198480Y-96116669D01*
X127189391Y-96109209D01*
X127181931Y-96100120D01*
X127176390Y-96089753D01*
X127172977Y-96078500D01*
X127171800Y-96066554D01*
X127171800Y-95362046D01*
X127172977Y-95350100D01*
X127176390Y-95338847D01*
X127181931Y-95328480D01*
X127189391Y-95319391D01*
X127198480Y-95311931D01*
X127208847Y-95306390D01*
X127220100Y-95302977D01*
X127232046Y-95301800D01*
X127361554Y-95301800D01*
X127373500Y-95302977D01*
G37*
G36*
X127873500Y-95302977D02*
G01*
X127884753Y-95306390D01*
X127895120Y-95311931D01*
X127904209Y-95319391D01*
X127911669Y-95328480D01*
X127917210Y-95338847D01*
X127920623Y-95350100D01*
X127921800Y-95362046D01*
X127921800Y-96066554D01*
X127920623Y-96078500D01*
X127917210Y-96089753D01*
X127911669Y-96100120D01*
X127904209Y-96109209D01*
X127895120Y-96116669D01*
X127884753Y-96122210D01*
X127873500Y-96125623D01*
X127861554Y-96126800D01*
X127732046Y-96126800D01*
X127720100Y-96125623D01*
X127708847Y-96122210D01*
X127698480Y-96116669D01*
X127689391Y-96109209D01*
X127681931Y-96100120D01*
X127676390Y-96089753D01*
X127672977Y-96078500D01*
X127671800Y-96066554D01*
X127671800Y-95362046D01*
X127672977Y-95350100D01*
X127676390Y-95338847D01*
X127681931Y-95328480D01*
X127689391Y-95319391D01*
X127698480Y-95311931D01*
X127708847Y-95306390D01*
X127720100Y-95302977D01*
X127732046Y-95301800D01*
X127861554Y-95301800D01*
X127873500Y-95302977D01*
G37*
G36*
X126873500Y-95302977D02*
G01*
X126884753Y-95306390D01*
X126895120Y-95311931D01*
X126904209Y-95319391D01*
X126911669Y-95328480D01*
X126917210Y-95338847D01*
X126920623Y-95350100D01*
X126921800Y-95362046D01*
X126921800Y-96066554D01*
X126920623Y-96078500D01*
X126917210Y-96089753D01*
X126911669Y-96100120D01*
X126904209Y-96109209D01*
X126895120Y-96116669D01*
X126884753Y-96122210D01*
X126873500Y-96125623D01*
X126861554Y-96126800D01*
X126732046Y-96126800D01*
X126720100Y-96125623D01*
X126708847Y-96122210D01*
X126698480Y-96116669D01*
X126689391Y-96109209D01*
X126681931Y-96100120D01*
X126676390Y-96089753D01*
X126672977Y-96078500D01*
X126671800Y-96066554D01*
X126671800Y-95362046D01*
X126672977Y-95350100D01*
X126676390Y-95338847D01*
X126681931Y-95328480D01*
X126689391Y-95319391D01*
X126698480Y-95311931D01*
X126708847Y-95306390D01*
X126720100Y-95302977D01*
X126732046Y-95301800D01*
X126861554Y-95301800D01*
X126873500Y-95302977D01*
G37*
G36*
X126373500Y-95302977D02*
G01*
X126384753Y-95306390D01*
X126395120Y-95311931D01*
X126404209Y-95319391D01*
X126411669Y-95328480D01*
X126417210Y-95338847D01*
X126420623Y-95350100D01*
X126421800Y-95362046D01*
X126421800Y-96066554D01*
X126420623Y-96078500D01*
X126417210Y-96089753D01*
X126411669Y-96100120D01*
X126404209Y-96109209D01*
X126395120Y-96116669D01*
X126384753Y-96122210D01*
X126373500Y-96125623D01*
X126361554Y-96126800D01*
X126232046Y-96126800D01*
X126220100Y-96125623D01*
X126208847Y-96122210D01*
X126198480Y-96116669D01*
X126189391Y-96109209D01*
X126181931Y-96100120D01*
X126176390Y-96089753D01*
X126172977Y-96078500D01*
X126171800Y-96066554D01*
X126171800Y-95362046D01*
X126172977Y-95350100D01*
X126176390Y-95338847D01*
X126181931Y-95328480D01*
X126189391Y-95319391D01*
X126198480Y-95311931D01*
X126208847Y-95306390D01*
X126220100Y-95302977D01*
X126232046Y-95301800D01*
X126361554Y-95301800D01*
X126373500Y-95302977D01*
G37*
G36*
X168799552Y-93139583D02*
G01*
X168892874Y-93167892D01*
X168978886Y-93213866D01*
X169054268Y-93275732D01*
X169116134Y-93351114D01*
X169162108Y-93437126D01*
X169190417Y-93530448D01*
X169200000Y-93627746D01*
X169200000Y-95172254D01*
X169190417Y-95269552D01*
X169162108Y-95362874D01*
X169116134Y-95448886D01*
X169054268Y-95524268D01*
X168978886Y-95586134D01*
X168892874Y-95632108D01*
X168799552Y-95660417D01*
X168702254Y-95670000D01*
X167697746Y-95670000D01*
X167600448Y-95660417D01*
X167507126Y-95632108D01*
X167421114Y-95586134D01*
X167345732Y-95524268D01*
X167283866Y-95448886D01*
X167237892Y-95362874D01*
X167209583Y-95269552D01*
X167200000Y-95172254D01*
X167200000Y-93627746D01*
X167209583Y-93530448D01*
X167237892Y-93437126D01*
X167283866Y-93351114D01*
X167345732Y-93275732D01*
X167421114Y-93213866D01*
X167507126Y-93167892D01*
X167600448Y-93139583D01*
X167697746Y-93130000D01*
X168702254Y-93130000D01*
X168799552Y-93139583D01*
G37*
G36*
X166259552Y-93139583D02*
G01*
X166352874Y-93167892D01*
X166438886Y-93213866D01*
X166514268Y-93275732D01*
X166576134Y-93351114D01*
X166622108Y-93437126D01*
X166650417Y-93530448D01*
X166660000Y-93627746D01*
X166660000Y-95172254D01*
X166650417Y-95269552D01*
X166622108Y-95362874D01*
X166576134Y-95448886D01*
X166514268Y-95524268D01*
X166438886Y-95586134D01*
X166352874Y-95632108D01*
X166259552Y-95660417D01*
X166162254Y-95670000D01*
X165157746Y-95670000D01*
X165060448Y-95660417D01*
X164967126Y-95632108D01*
X164881114Y-95586134D01*
X164805732Y-95524268D01*
X164743866Y-95448886D01*
X164697892Y-95362874D01*
X164669583Y-95269552D01*
X164660000Y-95172254D01*
X164660000Y-93627746D01*
X164669583Y-93530448D01*
X164697892Y-93437126D01*
X164743866Y-93351114D01*
X164805732Y-93275732D01*
X164881114Y-93213866D01*
X164967126Y-93167892D01*
X165060448Y-93139583D01*
X165157746Y-93130000D01*
X166162254Y-93130000D01*
X166259552Y-93139583D01*
G37*
G36*
X157730000Y-95475000D02*
G01*
X156670000Y-95475000D01*
X156670000Y-94825000D01*
X157730000Y-94825000D01*
X157730000Y-95475000D01*
G37*
G36*
X159650000Y-95400000D02*
G01*
X158750000Y-95400000D01*
X158750000Y-94600000D01*
X159650000Y-94600000D01*
X159650000Y-95400000D01*
G37*
G36*
X127848786Y-92531551D02*
G01*
X127894929Y-92545548D01*
X127937461Y-92568281D01*
X127974731Y-92598869D01*
X128005319Y-92636139D01*
X128028052Y-92678671D01*
X128042049Y-92724814D01*
X128046800Y-92773046D01*
X128046800Y-94780554D01*
X128042049Y-94828786D01*
X128028052Y-94874929D01*
X128005319Y-94917461D01*
X127974731Y-94954731D01*
X127937461Y-94985319D01*
X127894929Y-95008052D01*
X127848786Y-95022049D01*
X127800554Y-95026800D01*
X125793046Y-95026800D01*
X125744814Y-95022049D01*
X125698671Y-95008052D01*
X125656139Y-94985319D01*
X125618869Y-94954731D01*
X125588281Y-94917461D01*
X125565548Y-94874929D01*
X125551551Y-94828786D01*
X125546800Y-94780554D01*
X125546800Y-92773046D01*
X125551551Y-92724814D01*
X125565548Y-92678671D01*
X125588281Y-92636139D01*
X125618869Y-92598869D01*
X125656139Y-92568281D01*
X125698671Y-92545548D01*
X125744814Y-92531551D01*
X125793046Y-92526800D01*
X127800554Y-92526800D01*
X127848786Y-92531551D01*
G37*
G36*
X132343433Y-94017179D02*
G01*
X132383997Y-94029484D01*
X132421380Y-94049466D01*
X132454145Y-94076355D01*
X132481034Y-94109120D01*
X132501016Y-94146503D01*
X132513321Y-94187067D01*
X132517500Y-94229496D01*
X132517500Y-94746504D01*
X132513321Y-94788933D01*
X132501016Y-94829497D01*
X132481034Y-94866880D01*
X132454145Y-94899645D01*
X132421380Y-94926534D01*
X132383997Y-94946516D01*
X132343433Y-94958821D01*
X132301004Y-94963000D01*
X131858996Y-94963000D01*
X131816567Y-94958821D01*
X131776003Y-94946516D01*
X131738620Y-94926534D01*
X131705855Y-94899645D01*
X131678966Y-94866880D01*
X131658984Y-94829497D01*
X131646679Y-94788933D01*
X131642500Y-94746504D01*
X131642500Y-94229496D01*
X131646679Y-94187067D01*
X131658984Y-94146503D01*
X131678966Y-94109120D01*
X131705855Y-94076355D01*
X131738620Y-94049466D01*
X131776003Y-94029484D01*
X131816567Y-94017179D01*
X131858996Y-94013000D01*
X132301004Y-94013000D01*
X132343433Y-94017179D01*
G37*
G36*
X130768433Y-94017179D02*
G01*
X130808997Y-94029484D01*
X130846380Y-94049466D01*
X130879145Y-94076355D01*
X130906034Y-94109120D01*
X130926016Y-94146503D01*
X130938321Y-94187067D01*
X130942500Y-94229496D01*
X130942500Y-94746504D01*
X130938321Y-94788933D01*
X130926016Y-94829497D01*
X130906034Y-94866880D01*
X130879145Y-94899645D01*
X130846380Y-94926534D01*
X130808997Y-94946516D01*
X130768433Y-94958821D01*
X130726004Y-94963000D01*
X130283996Y-94963000D01*
X130241567Y-94958821D01*
X130201003Y-94946516D01*
X130163620Y-94926534D01*
X130130855Y-94899645D01*
X130103966Y-94866880D01*
X130083984Y-94829497D01*
X130071679Y-94788933D01*
X130067500Y-94746504D01*
X130067500Y-94229496D01*
X130071679Y-94187067D01*
X130083984Y-94146503D01*
X130103966Y-94109120D01*
X130130855Y-94076355D01*
X130163620Y-94049466D01*
X130201003Y-94029484D01*
X130241567Y-94017179D01*
X130283996Y-94013000D01*
X130726004Y-94013000D01*
X130768433Y-94017179D01*
G37*
G36*
X125223500Y-94652977D02*
G01*
X125234753Y-94656390D01*
X125245120Y-94661931D01*
X125254209Y-94669391D01*
X125261669Y-94678480D01*
X125267210Y-94688847D01*
X125270623Y-94700100D01*
X125271800Y-94712046D01*
X125271800Y-94841554D01*
X125270623Y-94853500D01*
X125267210Y-94864753D01*
X125261669Y-94875120D01*
X125254209Y-94884209D01*
X125245120Y-94891669D01*
X125234753Y-94897210D01*
X125223500Y-94900623D01*
X125211554Y-94901800D01*
X124507046Y-94901800D01*
X124495100Y-94900623D01*
X124483847Y-94897210D01*
X124473480Y-94891669D01*
X124464391Y-94884209D01*
X124456931Y-94875120D01*
X124451390Y-94864753D01*
X124447977Y-94853500D01*
X124446800Y-94841554D01*
X124446800Y-94712046D01*
X124447977Y-94700100D01*
X124451390Y-94688847D01*
X124456931Y-94678480D01*
X124464391Y-94669391D01*
X124473480Y-94661931D01*
X124483847Y-94656390D01*
X124495100Y-94652977D01*
X124507046Y-94651800D01*
X125211554Y-94651800D01*
X125223500Y-94652977D01*
G37*
G36*
X129098500Y-94652977D02*
G01*
X129109753Y-94656390D01*
X129120120Y-94661931D01*
X129129209Y-94669391D01*
X129136669Y-94678480D01*
X129142210Y-94688847D01*
X129145623Y-94700100D01*
X129146800Y-94712046D01*
X129146800Y-94841554D01*
X129145623Y-94853500D01*
X129142210Y-94864753D01*
X129136669Y-94875120D01*
X129129209Y-94884209D01*
X129120120Y-94891669D01*
X129109753Y-94897210D01*
X129098500Y-94900623D01*
X129086554Y-94901800D01*
X128382046Y-94901800D01*
X128370100Y-94900623D01*
X128358847Y-94897210D01*
X128348480Y-94891669D01*
X128339391Y-94884209D01*
X128331931Y-94875120D01*
X128326390Y-94864753D01*
X128322977Y-94853500D01*
X128321800Y-94841554D01*
X128321800Y-94712046D01*
X128322977Y-94700100D01*
X128326390Y-94688847D01*
X128331931Y-94678480D01*
X128339391Y-94669391D01*
X128348480Y-94661931D01*
X128358847Y-94656390D01*
X128370100Y-94652977D01*
X128382046Y-94651800D01*
X129086554Y-94651800D01*
X129098500Y-94652977D01*
G37*
G36*
X151400000Y-94850000D02*
G01*
X150200000Y-94850000D01*
X150200000Y-93950000D01*
X151400000Y-93950000D01*
X151400000Y-94850000D01*
G37*
G36*
X155530000Y-94525000D02*
G01*
X154470000Y-94525000D01*
X154470000Y-93875000D01*
X155530000Y-93875000D01*
X155530000Y-94525000D01*
G37*
G36*
X157730000Y-94525000D02*
G01*
X156670000Y-94525000D01*
X156670000Y-93875000D01*
X157730000Y-93875000D01*
X157730000Y-94525000D01*
G37*
G36*
X161650000Y-94450000D02*
G01*
X160750000Y-94450000D01*
X160750000Y-93650000D01*
X161650000Y-93650000D01*
X161650000Y-94450000D01*
G37*
G36*
X125223500Y-94152977D02*
G01*
X125234753Y-94156390D01*
X125245120Y-94161931D01*
X125254209Y-94169391D01*
X125261669Y-94178480D01*
X125267210Y-94188847D01*
X125270623Y-94200100D01*
X125271800Y-94212046D01*
X125271800Y-94341554D01*
X125270623Y-94353500D01*
X125267210Y-94364753D01*
X125261669Y-94375120D01*
X125254209Y-94384209D01*
X125245120Y-94391669D01*
X125234753Y-94397210D01*
X125223500Y-94400623D01*
X125211554Y-94401800D01*
X124507046Y-94401800D01*
X124495100Y-94400623D01*
X124483847Y-94397210D01*
X124473480Y-94391669D01*
X124464391Y-94384209D01*
X124456931Y-94375120D01*
X124451390Y-94364753D01*
X124447977Y-94353500D01*
X124446800Y-94341554D01*
X124446800Y-94212046D01*
X124447977Y-94200100D01*
X124451390Y-94188847D01*
X124456931Y-94178480D01*
X124464391Y-94169391D01*
X124473480Y-94161931D01*
X124483847Y-94156390D01*
X124495100Y-94152977D01*
X124507046Y-94151800D01*
X125211554Y-94151800D01*
X125223500Y-94152977D01*
G37*
G36*
X129098500Y-94152977D02*
G01*
X129109753Y-94156390D01*
X129120120Y-94161931D01*
X129129209Y-94169391D01*
X129136669Y-94178480D01*
X129142210Y-94188847D01*
X129145623Y-94200100D01*
X129146800Y-94212046D01*
X129146800Y-94341554D01*
X129145623Y-94353500D01*
X129142210Y-94364753D01*
X129136669Y-94375120D01*
X129129209Y-94384209D01*
X129120120Y-94391669D01*
X129109753Y-94397210D01*
X129098500Y-94400623D01*
X129086554Y-94401800D01*
X128382046Y-94401800D01*
X128370100Y-94400623D01*
X128358847Y-94397210D01*
X128348480Y-94391669D01*
X128339391Y-94384209D01*
X128331931Y-94375120D01*
X128326390Y-94364753D01*
X128322977Y-94353500D01*
X128321800Y-94341554D01*
X128321800Y-94212046D01*
X128322977Y-94200100D01*
X128326390Y-94188847D01*
X128331931Y-94178480D01*
X128339391Y-94169391D01*
X128348480Y-94161931D01*
X128358847Y-94156390D01*
X128370100Y-94152977D01*
X128382046Y-94151800D01*
X129086554Y-94151800D01*
X129098500Y-94152977D01*
G37*
G36*
X129098500Y-93652977D02*
G01*
X129109753Y-93656390D01*
X129120120Y-93661931D01*
X129129209Y-93669391D01*
X129136669Y-93678480D01*
X129142210Y-93688847D01*
X129145623Y-93700100D01*
X129146800Y-93712046D01*
X129146800Y-93841554D01*
X129145623Y-93853500D01*
X129142210Y-93864753D01*
X129136669Y-93875120D01*
X129129209Y-93884209D01*
X129120120Y-93891669D01*
X129109753Y-93897210D01*
X129098500Y-93900623D01*
X129086554Y-93901800D01*
X128382046Y-93901800D01*
X128370100Y-93900623D01*
X128358847Y-93897210D01*
X128348480Y-93891669D01*
X128339391Y-93884209D01*
X128331931Y-93875120D01*
X128326390Y-93864753D01*
X128322977Y-93853500D01*
X128321800Y-93841554D01*
X128321800Y-93712046D01*
X128322977Y-93700100D01*
X128326390Y-93688847D01*
X128331931Y-93678480D01*
X128339391Y-93669391D01*
X128348480Y-93661931D01*
X128358847Y-93656390D01*
X128370100Y-93652977D01*
X128382046Y-93651800D01*
X129086554Y-93651800D01*
X129098500Y-93652977D01*
G37*
G36*
X125223500Y-93652977D02*
G01*
X125234753Y-93656390D01*
X125245120Y-93661931D01*
X125254209Y-93669391D01*
X125261669Y-93678480D01*
X125267210Y-93688847D01*
X125270623Y-93700100D01*
X125271800Y-93712046D01*
X125271800Y-93841554D01*
X125270623Y-93853500D01*
X125267210Y-93864753D01*
X125261669Y-93875120D01*
X125254209Y-93884209D01*
X125245120Y-93891669D01*
X125234753Y-93897210D01*
X125223500Y-93900623D01*
X125211554Y-93901800D01*
X124507046Y-93901800D01*
X124495100Y-93900623D01*
X124483847Y-93897210D01*
X124473480Y-93891669D01*
X124464391Y-93884209D01*
X124456931Y-93875120D01*
X124451390Y-93864753D01*
X124447977Y-93853500D01*
X124446800Y-93841554D01*
X124446800Y-93712046D01*
X124447977Y-93700100D01*
X124451390Y-93688847D01*
X124456931Y-93678480D01*
X124464391Y-93669391D01*
X124473480Y-93661931D01*
X124483847Y-93656390D01*
X124495100Y-93652977D01*
X124507046Y-93651800D01*
X125211554Y-93651800D01*
X125223500Y-93652977D01*
G37*
G36*
X135921600Y-93754000D02*
G01*
X133821600Y-93754000D01*
X133821600Y-92154000D01*
X135921600Y-92154000D01*
X135921600Y-93754000D01*
G37*
G36*
X142121600Y-93754000D02*
G01*
X140021600Y-93754000D01*
X140021600Y-92154000D01*
X142121600Y-92154000D01*
X142121600Y-93754000D01*
G37*
G36*
X139471600Y-93504000D02*
G01*
X139071600Y-93504000D01*
X139071600Y-92154000D01*
X139471600Y-92154000D01*
X139471600Y-93504000D01*
G37*
G36*
X138171600Y-93504000D02*
G01*
X137771600Y-93504000D01*
X137771600Y-92154000D01*
X138171600Y-92154000D01*
X138171600Y-93504000D01*
G37*
G36*
X138821600Y-93504000D02*
G01*
X138421600Y-93504000D01*
X138421600Y-92154000D01*
X138821600Y-92154000D01*
X138821600Y-93504000D01*
G37*
G36*
X137521600Y-93504000D02*
G01*
X137121600Y-93504000D01*
X137121600Y-92154000D01*
X137521600Y-92154000D01*
X137521600Y-93504000D01*
G37*
G36*
X136871600Y-93504000D02*
G01*
X136471600Y-93504000D01*
X136471600Y-92154000D01*
X136871600Y-92154000D01*
X136871600Y-93504000D01*
G37*
G36*
X147697133Y-92606879D02*
G01*
X147737697Y-92619184D01*
X147775080Y-92639166D01*
X147807845Y-92666055D01*
X147834734Y-92698820D01*
X147854716Y-92736203D01*
X147867021Y-92776767D01*
X147871200Y-92819196D01*
X147871200Y-93261204D01*
X147867021Y-93303633D01*
X147854716Y-93344197D01*
X147834734Y-93381580D01*
X147807845Y-93414345D01*
X147775080Y-93441234D01*
X147737697Y-93461216D01*
X147697133Y-93473521D01*
X147654704Y-93477700D01*
X147137696Y-93477700D01*
X147095267Y-93473521D01*
X147054703Y-93461216D01*
X147017320Y-93441234D01*
X146984555Y-93414345D01*
X146957666Y-93381580D01*
X146937684Y-93344197D01*
X146925379Y-93303633D01*
X146921200Y-93261204D01*
X146921200Y-92819196D01*
X146925379Y-92776767D01*
X146937684Y-92736203D01*
X146957666Y-92698820D01*
X146984555Y-92666055D01*
X147017320Y-92639166D01*
X147054703Y-92619184D01*
X147095267Y-92606879D01*
X147137696Y-92602700D01*
X147654704Y-92602700D01*
X147697133Y-92606879D01*
G37*
G36*
X130768433Y-92493179D02*
G01*
X130808997Y-92505484D01*
X130846380Y-92525466D01*
X130879145Y-92552355D01*
X130906034Y-92585120D01*
X130926016Y-92622503D01*
X130938321Y-92663067D01*
X130942500Y-92705496D01*
X130942500Y-93222504D01*
X130938321Y-93264933D01*
X130926016Y-93305497D01*
X130906034Y-93342880D01*
X130879145Y-93375645D01*
X130846380Y-93402534D01*
X130808997Y-93422516D01*
X130768433Y-93434821D01*
X130726004Y-93439000D01*
X130283996Y-93439000D01*
X130241567Y-93434821D01*
X130201003Y-93422516D01*
X130163620Y-93402534D01*
X130130855Y-93375645D01*
X130103966Y-93342880D01*
X130083984Y-93305497D01*
X130071679Y-93264933D01*
X130067500Y-93222504D01*
X130067500Y-92705496D01*
X130071679Y-92663067D01*
X130083984Y-92622503D01*
X130103966Y-92585120D01*
X130130855Y-92552355D01*
X130163620Y-92525466D01*
X130201003Y-92505484D01*
X130241567Y-92493179D01*
X130283996Y-92489000D01*
X130726004Y-92489000D01*
X130768433Y-92493179D01*
G37*
G36*
X132343433Y-92493179D02*
G01*
X132383997Y-92505484D01*
X132421380Y-92525466D01*
X132454145Y-92552355D01*
X132481034Y-92585120D01*
X132501016Y-92622503D01*
X132513321Y-92663067D01*
X132517500Y-92705496D01*
X132517500Y-93222504D01*
X132513321Y-93264933D01*
X132501016Y-93305497D01*
X132481034Y-93342880D01*
X132454145Y-93375645D01*
X132421380Y-93402534D01*
X132383997Y-93422516D01*
X132343433Y-93434821D01*
X132301004Y-93439000D01*
X131858996Y-93439000D01*
X131816567Y-93434821D01*
X131776003Y-93422516D01*
X131738620Y-93402534D01*
X131705855Y-93375645D01*
X131678966Y-93342880D01*
X131658984Y-93305497D01*
X131646679Y-93264933D01*
X131642500Y-93222504D01*
X131642500Y-92705496D01*
X131646679Y-92663067D01*
X131658984Y-92622503D01*
X131678966Y-92585120D01*
X131705855Y-92552355D01*
X131738620Y-92525466D01*
X131776003Y-92505484D01*
X131816567Y-92493179D01*
X131858996Y-92489000D01*
X132301004Y-92489000D01*
X132343433Y-92493179D01*
G37*
G36*
X129098500Y-93152977D02*
G01*
X129109753Y-93156390D01*
X129120120Y-93161931D01*
X129129209Y-93169391D01*
X129136669Y-93178480D01*
X129142210Y-93188847D01*
X129145623Y-93200100D01*
X129146800Y-93212046D01*
X129146800Y-93341554D01*
X129145623Y-93353500D01*
X129142210Y-93364753D01*
X129136669Y-93375120D01*
X129129209Y-93384209D01*
X129120120Y-93391669D01*
X129109753Y-93397210D01*
X129098500Y-93400623D01*
X129086554Y-93401800D01*
X128382046Y-93401800D01*
X128370100Y-93400623D01*
X128358847Y-93397210D01*
X128348480Y-93391669D01*
X128339391Y-93384209D01*
X128331931Y-93375120D01*
X128326390Y-93364753D01*
X128322977Y-93353500D01*
X128321800Y-93341554D01*
X128321800Y-93212046D01*
X128322977Y-93200100D01*
X128326390Y-93188847D01*
X128331931Y-93178480D01*
X128339391Y-93169391D01*
X128348480Y-93161931D01*
X128358847Y-93156390D01*
X128370100Y-93152977D01*
X128382046Y-93151800D01*
X129086554Y-93151800D01*
X129098500Y-93152977D01*
G37*
G36*
X125223500Y-93152977D02*
G01*
X125234753Y-93156390D01*
X125245120Y-93161931D01*
X125254209Y-93169391D01*
X125261669Y-93178480D01*
X125267210Y-93188847D01*
X125270623Y-93200100D01*
X125271800Y-93212046D01*
X125271800Y-93341554D01*
X125270623Y-93353500D01*
X125267210Y-93364753D01*
X125261669Y-93375120D01*
X125254209Y-93384209D01*
X125245120Y-93391669D01*
X125234753Y-93397210D01*
X125223500Y-93400623D01*
X125211554Y-93401800D01*
X124507046Y-93401800D01*
X124495100Y-93400623D01*
X124483847Y-93397210D01*
X124473480Y-93391669D01*
X124464391Y-93384209D01*
X124456931Y-93375120D01*
X124451390Y-93364753D01*
X124447977Y-93353500D01*
X124446800Y-93341554D01*
X124446800Y-93212046D01*
X124447977Y-93200100D01*
X124451390Y-93188847D01*
X124456931Y-93178480D01*
X124464391Y-93169391D01*
X124473480Y-93161931D01*
X124483847Y-93156390D01*
X124495100Y-93152977D01*
X124507046Y-93151800D01*
X125211554Y-93151800D01*
X125223500Y-93152977D01*
G37*
G36*
X129098500Y-92652977D02*
G01*
X129109753Y-92656390D01*
X129120120Y-92661931D01*
X129129209Y-92669391D01*
X129136669Y-92678480D01*
X129142210Y-92688847D01*
X129145623Y-92700100D01*
X129146800Y-92712046D01*
X129146800Y-92841554D01*
X129145623Y-92853500D01*
X129142210Y-92864753D01*
X129136669Y-92875120D01*
X129129209Y-92884209D01*
X129120120Y-92891669D01*
X129109753Y-92897210D01*
X129098500Y-92900623D01*
X129086554Y-92901800D01*
X128382046Y-92901800D01*
X128370100Y-92900623D01*
X128358847Y-92897210D01*
X128348480Y-92891669D01*
X128339391Y-92884209D01*
X128331931Y-92875120D01*
X128326390Y-92864753D01*
X128322977Y-92853500D01*
X128321800Y-92841554D01*
X128321800Y-92712046D01*
X128322977Y-92700100D01*
X128326390Y-92688847D01*
X128331931Y-92678480D01*
X128339391Y-92669391D01*
X128348480Y-92661931D01*
X128358847Y-92656390D01*
X128370100Y-92652977D01*
X128382046Y-92651800D01*
X129086554Y-92651800D01*
X129098500Y-92652977D01*
G37*
G36*
X125223500Y-92652977D02*
G01*
X125234753Y-92656390D01*
X125245120Y-92661931D01*
X125254209Y-92669391D01*
X125261669Y-92678480D01*
X125267210Y-92688847D01*
X125270623Y-92700100D01*
X125271800Y-92712046D01*
X125271800Y-92841554D01*
X125270623Y-92853500D01*
X125267210Y-92864753D01*
X125261669Y-92875120D01*
X125254209Y-92884209D01*
X125245120Y-92891669D01*
X125234753Y-92897210D01*
X125223500Y-92900623D01*
X125211554Y-92901800D01*
X124507046Y-92901800D01*
X124495100Y-92900623D01*
X124483847Y-92897210D01*
X124473480Y-92891669D01*
X124464391Y-92884209D01*
X124456931Y-92875120D01*
X124451390Y-92864753D01*
X124447977Y-92853500D01*
X124446800Y-92841554D01*
X124446800Y-92712046D01*
X124447977Y-92700100D01*
X124451390Y-92688847D01*
X124456931Y-92678480D01*
X124464391Y-92669391D01*
X124473480Y-92661931D01*
X124483847Y-92656390D01*
X124495100Y-92652977D01*
X124507046Y-92651800D01*
X125211554Y-92651800D01*
X125223500Y-92652977D01*
G37*
G36*
X145465346Y-92501777D02*
G01*
X145482462Y-92506969D01*
X145498234Y-92515400D01*
X145512056Y-92526744D01*
X145523400Y-92540566D01*
X145531831Y-92556338D01*
X145537023Y-92573454D01*
X145538800Y-92591496D01*
X145538800Y-92783504D01*
X145537023Y-92801546D01*
X145531831Y-92818662D01*
X145523400Y-92834434D01*
X145512056Y-92848256D01*
X145498234Y-92859600D01*
X145482462Y-92868031D01*
X145465346Y-92873223D01*
X145447304Y-92875000D01*
X145230296Y-92875000D01*
X145212254Y-92873223D01*
X145195138Y-92868031D01*
X145179366Y-92859600D01*
X145165544Y-92848256D01*
X145154200Y-92834434D01*
X145145769Y-92818662D01*
X145140577Y-92801546D01*
X145138800Y-92783504D01*
X145138800Y-92591496D01*
X145140577Y-92573454D01*
X145145769Y-92556338D01*
X145154200Y-92540566D01*
X145165544Y-92526744D01*
X145179366Y-92515400D01*
X145195138Y-92506969D01*
X145212254Y-92501777D01*
X145230296Y-92500000D01*
X145447304Y-92500000D01*
X145465346Y-92501777D01*
G37*
G36*
X144165346Y-92501777D02*
G01*
X144182462Y-92506969D01*
X144198234Y-92515400D01*
X144212056Y-92526744D01*
X144223400Y-92540566D01*
X144231831Y-92556338D01*
X144237023Y-92573454D01*
X144238800Y-92591496D01*
X144238800Y-92783504D01*
X144237023Y-92801546D01*
X144231831Y-92818662D01*
X144223400Y-92834434D01*
X144212056Y-92848256D01*
X144198234Y-92859600D01*
X144182462Y-92868031D01*
X144165346Y-92873223D01*
X144147304Y-92875000D01*
X143930296Y-92875000D01*
X143912254Y-92873223D01*
X143895138Y-92868031D01*
X143879366Y-92859600D01*
X143865544Y-92848256D01*
X143854200Y-92834434D01*
X143845769Y-92818662D01*
X143840577Y-92801546D01*
X143838800Y-92783504D01*
X143838800Y-92591496D01*
X143840577Y-92573454D01*
X143845769Y-92556338D01*
X143854200Y-92540566D01*
X143865544Y-92526744D01*
X143879366Y-92515400D01*
X143895138Y-92506969D01*
X143912254Y-92501777D01*
X143930296Y-92500000D01*
X144147304Y-92500000D01*
X144165346Y-92501777D01*
G37*
G36*
X144815346Y-92501777D02*
G01*
X144832462Y-92506969D01*
X144848234Y-92515400D01*
X144862056Y-92526744D01*
X144873400Y-92540566D01*
X144881831Y-92556338D01*
X144887023Y-92573454D01*
X144888800Y-92591496D01*
X144888800Y-92783504D01*
X144887023Y-92801546D01*
X144881831Y-92818662D01*
X144873400Y-92834434D01*
X144862056Y-92848256D01*
X144848234Y-92859600D01*
X144832462Y-92868031D01*
X144815346Y-92873223D01*
X144797304Y-92875000D01*
X144580296Y-92875000D01*
X144562254Y-92873223D01*
X144545138Y-92868031D01*
X144529366Y-92859600D01*
X144515544Y-92848256D01*
X144504200Y-92834434D01*
X144495769Y-92818662D01*
X144490577Y-92801546D01*
X144488800Y-92783504D01*
X144488800Y-92591496D01*
X144490577Y-92573454D01*
X144495769Y-92556338D01*
X144504200Y-92540566D01*
X144515544Y-92526744D01*
X144529366Y-92515400D01*
X144545138Y-92506969D01*
X144562254Y-92501777D01*
X144580296Y-92500000D01*
X144797304Y-92500000D01*
X144815346Y-92501777D01*
G37*
G36*
X164200933Y-91941679D02*
G01*
X164241497Y-91953984D01*
X164278880Y-91973966D01*
X164311645Y-92000855D01*
X164338534Y-92033620D01*
X164358516Y-92071003D01*
X164370821Y-92111567D01*
X164375000Y-92153996D01*
X164375000Y-92596004D01*
X164370821Y-92638433D01*
X164358516Y-92678997D01*
X164338534Y-92716380D01*
X164311645Y-92749145D01*
X164278880Y-92776034D01*
X164241497Y-92796016D01*
X164200933Y-92808321D01*
X164158504Y-92812500D01*
X163641496Y-92812500D01*
X163599067Y-92808321D01*
X163558503Y-92796016D01*
X163521120Y-92776034D01*
X163488355Y-92749145D01*
X163461466Y-92716380D01*
X163441484Y-92678997D01*
X163429179Y-92638433D01*
X163425000Y-92596004D01*
X163425000Y-92153996D01*
X163429179Y-92111567D01*
X163441484Y-92071003D01*
X163461466Y-92033620D01*
X163488355Y-92000855D01*
X163521120Y-91973966D01*
X163558503Y-91953984D01*
X163599067Y-91941679D01*
X163641496Y-91937500D01*
X164158504Y-91937500D01*
X164200933Y-91941679D01*
G37*
G36*
X160076546Y-92401777D02*
G01*
X160093662Y-92406969D01*
X160109434Y-92415400D01*
X160123256Y-92426744D01*
X160134600Y-92440566D01*
X160143031Y-92456338D01*
X160148223Y-92473454D01*
X160150000Y-92491496D01*
X160150000Y-92683504D01*
X160148223Y-92701546D01*
X160143031Y-92718662D01*
X160134600Y-92734434D01*
X160123256Y-92748256D01*
X160109434Y-92759600D01*
X160093662Y-92768031D01*
X160076546Y-92773223D01*
X160058504Y-92775000D01*
X159841496Y-92775000D01*
X159823454Y-92773223D01*
X159806338Y-92768031D01*
X159790566Y-92759600D01*
X159776744Y-92748256D01*
X159765400Y-92734434D01*
X159756969Y-92718662D01*
X159751777Y-92701546D01*
X159750000Y-92683504D01*
X159750000Y-92491496D01*
X159751777Y-92473454D01*
X159756969Y-92456338D01*
X159765400Y-92440566D01*
X159776744Y-92426744D01*
X159790566Y-92415400D01*
X159806338Y-92406969D01*
X159823454Y-92401777D01*
X159841496Y-92400000D01*
X160058504Y-92400000D01*
X160076546Y-92401777D01*
G37*
G36*
X161376546Y-92401777D02*
G01*
X161393662Y-92406969D01*
X161409434Y-92415400D01*
X161423256Y-92426744D01*
X161434600Y-92440566D01*
X161443031Y-92456338D01*
X161448223Y-92473454D01*
X161450000Y-92491496D01*
X161450000Y-92683504D01*
X161448223Y-92701546D01*
X161443031Y-92718662D01*
X161434600Y-92734434D01*
X161423256Y-92748256D01*
X161409434Y-92759600D01*
X161393662Y-92768031D01*
X161376546Y-92773223D01*
X161358504Y-92775000D01*
X161141496Y-92775000D01*
X161123454Y-92773223D01*
X161106338Y-92768031D01*
X161090566Y-92759600D01*
X161076744Y-92748256D01*
X161065400Y-92734434D01*
X161056969Y-92718662D01*
X161051777Y-92701546D01*
X161050000Y-92683504D01*
X161050000Y-92491496D01*
X161051777Y-92473454D01*
X161056969Y-92456338D01*
X161065400Y-92440566D01*
X161076744Y-92426744D01*
X161090566Y-92415400D01*
X161106338Y-92406969D01*
X161123454Y-92401777D01*
X161141496Y-92400000D01*
X161358504Y-92400000D01*
X161376546Y-92401777D01*
G37*
G36*
X160726546Y-92401777D02*
G01*
X160743662Y-92406969D01*
X160759434Y-92415400D01*
X160773256Y-92426744D01*
X160784600Y-92440566D01*
X160793031Y-92456338D01*
X160798223Y-92473454D01*
X160800000Y-92491496D01*
X160800000Y-92683504D01*
X160798223Y-92701546D01*
X160793031Y-92718662D01*
X160784600Y-92734434D01*
X160773256Y-92748256D01*
X160759434Y-92759600D01*
X160743662Y-92768031D01*
X160726546Y-92773223D01*
X160708504Y-92775000D01*
X160491496Y-92775000D01*
X160473454Y-92773223D01*
X160456338Y-92768031D01*
X160440566Y-92759600D01*
X160426744Y-92748256D01*
X160415400Y-92734434D01*
X160406969Y-92718662D01*
X160401777Y-92701546D01*
X160400000Y-92683504D01*
X160400000Y-92491496D01*
X160401777Y-92473454D01*
X160406969Y-92456338D01*
X160415400Y-92440566D01*
X160426744Y-92426744D01*
X160440566Y-92415400D01*
X160456338Y-92406969D01*
X160473454Y-92401777D01*
X160491496Y-92400000D01*
X160708504Y-92400000D01*
X160726546Y-92401777D01*
G37*
G36*
X156764933Y-91768679D02*
G01*
X156805497Y-91780984D01*
X156842880Y-91800966D01*
X156875645Y-91827855D01*
X156902534Y-91860620D01*
X156922516Y-91898003D01*
X156934821Y-91938567D01*
X156939000Y-91980996D01*
X156939000Y-92423004D01*
X156934821Y-92465433D01*
X156922516Y-92505997D01*
X156902534Y-92543380D01*
X156875645Y-92576145D01*
X156842880Y-92603034D01*
X156805497Y-92623016D01*
X156764933Y-92635321D01*
X156722504Y-92639500D01*
X156205496Y-92639500D01*
X156163067Y-92635321D01*
X156122503Y-92623016D01*
X156085120Y-92603034D01*
X156052355Y-92576145D01*
X156025466Y-92543380D01*
X156005484Y-92505997D01*
X155993179Y-92465433D01*
X155989000Y-92423004D01*
X155989000Y-91980996D01*
X155993179Y-91938567D01*
X156005484Y-91898003D01*
X156025466Y-91860620D01*
X156052355Y-91827855D01*
X156085120Y-91800966D01*
X156122503Y-91780984D01*
X156163067Y-91768679D01*
X156205496Y-91764500D01*
X156722504Y-91764500D01*
X156764933Y-91768679D01*
G37*
G36*
X158700933Y-91641679D02*
G01*
X158741497Y-91653984D01*
X158778880Y-91673966D01*
X158811645Y-91700855D01*
X158838534Y-91733620D01*
X158858516Y-91771003D01*
X158870821Y-91811567D01*
X158875000Y-91853996D01*
X158875000Y-92296004D01*
X158870821Y-92338433D01*
X158858516Y-92378997D01*
X158838534Y-92416380D01*
X158811645Y-92449145D01*
X158778880Y-92476034D01*
X158741497Y-92496016D01*
X158700933Y-92508321D01*
X158658504Y-92512500D01*
X158141496Y-92512500D01*
X158099067Y-92508321D01*
X158058503Y-92496016D01*
X158021120Y-92476034D01*
X157988355Y-92449145D01*
X157961466Y-92416380D01*
X157941484Y-92378997D01*
X157929179Y-92338433D01*
X157925000Y-92296004D01*
X157925000Y-91853996D01*
X157929179Y-91811567D01*
X157941484Y-91771003D01*
X157961466Y-91733620D01*
X157988355Y-91700855D01*
X158021120Y-91673966D01*
X158058503Y-91653984D01*
X158099067Y-91641679D01*
X158141496Y-91637500D01*
X158658504Y-91637500D01*
X158700933Y-91641679D01*
G37*
G36*
X145488800Y-92300000D02*
G01*
X143888800Y-92300000D01*
X143888800Y-91300000D01*
X145488800Y-91300000D01*
X145488800Y-92300000D01*
G37*
G36*
X127873500Y-91427977D02*
G01*
X127884753Y-91431390D01*
X127895120Y-91436931D01*
X127904209Y-91444391D01*
X127911669Y-91453480D01*
X127917210Y-91463847D01*
X127920623Y-91475100D01*
X127921800Y-91487046D01*
X127921800Y-92191554D01*
X127920623Y-92203500D01*
X127917210Y-92214753D01*
X127911669Y-92225120D01*
X127904209Y-92234209D01*
X127895120Y-92241669D01*
X127884753Y-92247210D01*
X127873500Y-92250623D01*
X127861554Y-92251800D01*
X127732046Y-92251800D01*
X127720100Y-92250623D01*
X127708847Y-92247210D01*
X127698480Y-92241669D01*
X127689391Y-92234209D01*
X127681931Y-92225120D01*
X127676390Y-92214753D01*
X127672977Y-92203500D01*
X127671800Y-92191554D01*
X127671800Y-91487046D01*
X127672977Y-91475100D01*
X127676390Y-91463847D01*
X127681931Y-91453480D01*
X127689391Y-91444391D01*
X127698480Y-91436931D01*
X127708847Y-91431390D01*
X127720100Y-91427977D01*
X127732046Y-91426800D01*
X127861554Y-91426800D01*
X127873500Y-91427977D01*
G37*
G36*
X127373500Y-91427977D02*
G01*
X127384753Y-91431390D01*
X127395120Y-91436931D01*
X127404209Y-91444391D01*
X127411669Y-91453480D01*
X127417210Y-91463847D01*
X127420623Y-91475100D01*
X127421800Y-91487046D01*
X127421800Y-92191554D01*
X127420623Y-92203500D01*
X127417210Y-92214753D01*
X127411669Y-92225120D01*
X127404209Y-92234209D01*
X127395120Y-92241669D01*
X127384753Y-92247210D01*
X127373500Y-92250623D01*
X127361554Y-92251800D01*
X127232046Y-92251800D01*
X127220100Y-92250623D01*
X127208847Y-92247210D01*
X127198480Y-92241669D01*
X127189391Y-92234209D01*
X127181931Y-92225120D01*
X127176390Y-92214753D01*
X127172977Y-92203500D01*
X127171800Y-92191554D01*
X127171800Y-91487046D01*
X127172977Y-91475100D01*
X127176390Y-91463847D01*
X127181931Y-91453480D01*
X127189391Y-91444391D01*
X127198480Y-91436931D01*
X127208847Y-91431390D01*
X127220100Y-91427977D01*
X127232046Y-91426800D01*
X127361554Y-91426800D01*
X127373500Y-91427977D01*
G37*
G36*
X126873500Y-91427977D02*
G01*
X126884753Y-91431390D01*
X126895120Y-91436931D01*
X126904209Y-91444391D01*
X126911669Y-91453480D01*
X126917210Y-91463847D01*
X126920623Y-91475100D01*
X126921800Y-91487046D01*
X126921800Y-92191554D01*
X126920623Y-92203500D01*
X126917210Y-92214753D01*
X126911669Y-92225120D01*
X126904209Y-92234209D01*
X126895120Y-92241669D01*
X126884753Y-92247210D01*
X126873500Y-92250623D01*
X126861554Y-92251800D01*
X126732046Y-92251800D01*
X126720100Y-92250623D01*
X126708847Y-92247210D01*
X126698480Y-92241669D01*
X126689391Y-92234209D01*
X126681931Y-92225120D01*
X126676390Y-92214753D01*
X126672977Y-92203500D01*
X126671800Y-92191554D01*
X126671800Y-91487046D01*
X126672977Y-91475100D01*
X126676390Y-91463847D01*
X126681931Y-91453480D01*
X126689391Y-91444391D01*
X126698480Y-91436931D01*
X126708847Y-91431390D01*
X126720100Y-91427977D01*
X126732046Y-91426800D01*
X126861554Y-91426800D01*
X126873500Y-91427977D01*
G37*
G36*
X126373500Y-91427977D02*
G01*
X126384753Y-91431390D01*
X126395120Y-91436931D01*
X126404209Y-91444391D01*
X126411669Y-91453480D01*
X126417210Y-91463847D01*
X126420623Y-91475100D01*
X126421800Y-91487046D01*
X126421800Y-92191554D01*
X126420623Y-92203500D01*
X126417210Y-92214753D01*
X126411669Y-92225120D01*
X126404209Y-92234209D01*
X126395120Y-92241669D01*
X126384753Y-92247210D01*
X126373500Y-92250623D01*
X126361554Y-92251800D01*
X126232046Y-92251800D01*
X126220100Y-92250623D01*
X126208847Y-92247210D01*
X126198480Y-92241669D01*
X126189391Y-92234209D01*
X126181931Y-92225120D01*
X126176390Y-92214753D01*
X126172977Y-92203500D01*
X126171800Y-92191554D01*
X126171800Y-91487046D01*
X126172977Y-91475100D01*
X126176390Y-91463847D01*
X126181931Y-91453480D01*
X126189391Y-91444391D01*
X126198480Y-91436931D01*
X126208847Y-91431390D01*
X126220100Y-91427977D01*
X126232046Y-91426800D01*
X126361554Y-91426800D01*
X126373500Y-91427977D01*
G37*
G36*
X125873500Y-91427977D02*
G01*
X125884753Y-91431390D01*
X125895120Y-91436931D01*
X125904209Y-91444391D01*
X125911669Y-91453480D01*
X125917210Y-91463847D01*
X125920623Y-91475100D01*
X125921800Y-91487046D01*
X125921800Y-92191554D01*
X125920623Y-92203500D01*
X125917210Y-92214753D01*
X125911669Y-92225120D01*
X125904209Y-92234209D01*
X125895120Y-92241669D01*
X125884753Y-92247210D01*
X125873500Y-92250623D01*
X125861554Y-92251800D01*
X125732046Y-92251800D01*
X125720100Y-92250623D01*
X125708847Y-92247210D01*
X125698480Y-92241669D01*
X125689391Y-92234209D01*
X125681931Y-92225120D01*
X125676390Y-92214753D01*
X125672977Y-92203500D01*
X125671800Y-92191554D01*
X125671800Y-91487046D01*
X125672977Y-91475100D01*
X125676390Y-91463847D01*
X125681931Y-91453480D01*
X125689391Y-91444391D01*
X125698480Y-91436931D01*
X125708847Y-91431390D01*
X125720100Y-91427977D01*
X125732046Y-91426800D01*
X125861554Y-91426800D01*
X125873500Y-91427977D01*
G37*
G36*
X161400000Y-92200000D02*
G01*
X159800000Y-92200000D01*
X159800000Y-91200000D01*
X161400000Y-91200000D01*
X161400000Y-92200000D01*
G37*
G36*
X147697133Y-91031879D02*
G01*
X147737697Y-91044184D01*
X147775080Y-91064166D01*
X147807845Y-91091055D01*
X147834734Y-91123820D01*
X147854716Y-91161203D01*
X147867021Y-91201767D01*
X147871200Y-91244196D01*
X147871200Y-91686204D01*
X147867021Y-91728633D01*
X147854716Y-91769197D01*
X147834734Y-91806580D01*
X147807845Y-91839345D01*
X147775080Y-91866234D01*
X147737697Y-91886216D01*
X147697133Y-91898521D01*
X147654704Y-91902700D01*
X147137696Y-91902700D01*
X147095267Y-91898521D01*
X147054703Y-91886216D01*
X147017320Y-91866234D01*
X146984555Y-91839345D01*
X146957666Y-91806580D01*
X146937684Y-91769197D01*
X146925379Y-91728633D01*
X146921200Y-91686204D01*
X146921200Y-91244196D01*
X146925379Y-91201767D01*
X146937684Y-91161203D01*
X146957666Y-91123820D01*
X146984555Y-91091055D01*
X147017320Y-91064166D01*
X147054703Y-91044184D01*
X147095267Y-91031879D01*
X147137696Y-91027700D01*
X147654704Y-91027700D01*
X147697133Y-91031879D01*
G37*
G36*
X130768633Y-90918379D02*
G01*
X130809197Y-90930684D01*
X130846580Y-90950666D01*
X130879345Y-90977555D01*
X130906234Y-91010320D01*
X130926216Y-91047703D01*
X130938521Y-91088267D01*
X130942700Y-91130696D01*
X130942700Y-91647704D01*
X130938521Y-91690133D01*
X130926216Y-91730697D01*
X130906234Y-91768080D01*
X130879345Y-91800845D01*
X130846580Y-91827734D01*
X130809197Y-91847716D01*
X130768633Y-91860021D01*
X130726204Y-91864200D01*
X130284196Y-91864200D01*
X130241767Y-91860021D01*
X130201203Y-91847716D01*
X130163820Y-91827734D01*
X130131055Y-91800845D01*
X130104166Y-91768080D01*
X130084184Y-91730697D01*
X130071879Y-91690133D01*
X130067700Y-91647704D01*
X130067700Y-91130696D01*
X130071879Y-91088267D01*
X130084184Y-91047703D01*
X130104166Y-91010320D01*
X130131055Y-90977555D01*
X130163820Y-90950666D01*
X130201203Y-90930684D01*
X130241767Y-90918379D01*
X130284196Y-90914200D01*
X130726204Y-90914200D01*
X130768633Y-90918379D01*
G37*
G36*
X132343633Y-90918379D02*
G01*
X132384197Y-90930684D01*
X132421580Y-90950666D01*
X132454345Y-90977555D01*
X132481234Y-91010320D01*
X132501216Y-91047703D01*
X132513521Y-91088267D01*
X132517700Y-91130696D01*
X132517700Y-91647704D01*
X132513521Y-91690133D01*
X132501216Y-91730697D01*
X132481234Y-91768080D01*
X132454345Y-91800845D01*
X132421580Y-91827734D01*
X132384197Y-91847716D01*
X132343633Y-91860021D01*
X132301204Y-91864200D01*
X131859196Y-91864200D01*
X131816767Y-91860021D01*
X131776203Y-91847716D01*
X131738820Y-91827734D01*
X131706055Y-91800845D01*
X131679166Y-91768080D01*
X131659184Y-91730697D01*
X131646879Y-91690133D01*
X131642700Y-91647704D01*
X131642700Y-91130696D01*
X131646879Y-91088267D01*
X131659184Y-91047703D01*
X131679166Y-91010320D01*
X131706055Y-90977555D01*
X131738820Y-90950666D01*
X131776203Y-90930684D01*
X131816767Y-90918379D01*
X131859196Y-90914200D01*
X132301204Y-90914200D01*
X132343633Y-90918379D01*
G37*
G36*
X151400000Y-91550000D02*
G01*
X150200000Y-91550000D01*
X150200000Y-90650000D01*
X151400000Y-90650000D01*
X151400000Y-91550000D01*
G37*
G36*
X164200933Y-90366679D02*
G01*
X164241497Y-90378984D01*
X164278880Y-90398966D01*
X164311645Y-90425855D01*
X164338534Y-90458620D01*
X164358516Y-90496003D01*
X164370821Y-90536567D01*
X164375000Y-90578996D01*
X164375000Y-91021004D01*
X164370821Y-91063433D01*
X164358516Y-91103997D01*
X164338534Y-91141380D01*
X164311645Y-91174145D01*
X164278880Y-91201034D01*
X164241497Y-91221016D01*
X164200933Y-91233321D01*
X164158504Y-91237500D01*
X163641496Y-91237500D01*
X163599067Y-91233321D01*
X163558503Y-91221016D01*
X163521120Y-91201034D01*
X163488355Y-91174145D01*
X163461466Y-91141380D01*
X163441484Y-91103997D01*
X163429179Y-91063433D01*
X163425000Y-91021004D01*
X163425000Y-90578996D01*
X163429179Y-90536567D01*
X163441484Y-90496003D01*
X163461466Y-90458620D01*
X163488355Y-90425855D01*
X163521120Y-90398966D01*
X163558503Y-90378984D01*
X163599067Y-90366679D01*
X163641496Y-90362500D01*
X164158504Y-90362500D01*
X164200933Y-90366679D01*
G37*
G36*
X166563433Y-90229179D02*
G01*
X166603997Y-90241484D01*
X166641380Y-90261466D01*
X166674145Y-90288355D01*
X166701034Y-90321120D01*
X166721016Y-90358503D01*
X166733321Y-90399067D01*
X166737500Y-90441496D01*
X166737500Y-90958504D01*
X166733321Y-91000933D01*
X166721016Y-91041497D01*
X166701034Y-91078880D01*
X166674145Y-91111645D01*
X166641380Y-91138534D01*
X166603997Y-91158516D01*
X166563433Y-91170821D01*
X166521004Y-91175000D01*
X166078996Y-91175000D01*
X166036567Y-91170821D01*
X165996003Y-91158516D01*
X165958620Y-91138534D01*
X165925855Y-91111645D01*
X165898966Y-91078880D01*
X165878984Y-91041497D01*
X165866679Y-91000933D01*
X165862500Y-90958504D01*
X165862500Y-90441496D01*
X165866679Y-90399067D01*
X165878984Y-90358503D01*
X165898966Y-90321120D01*
X165925855Y-90288355D01*
X165958620Y-90261466D01*
X165996003Y-90241484D01*
X166036567Y-90229179D01*
X166078996Y-90225000D01*
X166521004Y-90225000D01*
X166563433Y-90229179D01*
G37*
G36*
X168138433Y-90229179D02*
G01*
X168178997Y-90241484D01*
X168216380Y-90261466D01*
X168249145Y-90288355D01*
X168276034Y-90321120D01*
X168296016Y-90358503D01*
X168308321Y-90399067D01*
X168312500Y-90441496D01*
X168312500Y-90958504D01*
X168308321Y-91000933D01*
X168296016Y-91041497D01*
X168276034Y-91078880D01*
X168249145Y-91111645D01*
X168216380Y-91138534D01*
X168178997Y-91158516D01*
X168138433Y-91170821D01*
X168096004Y-91175000D01*
X167653996Y-91175000D01*
X167611567Y-91170821D01*
X167571003Y-91158516D01*
X167533620Y-91138534D01*
X167500855Y-91111645D01*
X167473966Y-91078880D01*
X167453984Y-91041497D01*
X167441679Y-91000933D01*
X167437500Y-90958504D01*
X167437500Y-90441496D01*
X167441679Y-90399067D01*
X167453984Y-90358503D01*
X167473966Y-90321120D01*
X167500855Y-90288355D01*
X167533620Y-90261466D01*
X167571003Y-90241484D01*
X167611567Y-90229179D01*
X167653996Y-90225000D01*
X168096004Y-90225000D01*
X168138433Y-90229179D01*
G37*
G36*
X154647433Y-90207179D02*
G01*
X154687997Y-90219484D01*
X154725380Y-90239466D01*
X154758145Y-90266355D01*
X154785034Y-90299120D01*
X154805016Y-90336503D01*
X154817321Y-90377067D01*
X154821500Y-90419496D01*
X154821500Y-90936504D01*
X154817321Y-90978933D01*
X154805016Y-91019497D01*
X154785034Y-91056880D01*
X154758145Y-91089645D01*
X154725380Y-91116534D01*
X154687997Y-91136516D01*
X154647433Y-91148821D01*
X154605004Y-91153000D01*
X154162996Y-91153000D01*
X154120567Y-91148821D01*
X154080003Y-91136516D01*
X154042620Y-91116534D01*
X154009855Y-91089645D01*
X153982966Y-91056880D01*
X153962984Y-91019497D01*
X153950679Y-90978933D01*
X153946500Y-90936504D01*
X153946500Y-90419496D01*
X153950679Y-90377067D01*
X153962984Y-90336503D01*
X153982966Y-90299120D01*
X154009855Y-90266355D01*
X154042620Y-90239466D01*
X154080003Y-90219484D01*
X154120567Y-90207179D01*
X154162996Y-90203000D01*
X154605004Y-90203000D01*
X154647433Y-90207179D01*
G37*
G36*
X153072433Y-90207179D02*
G01*
X153112997Y-90219484D01*
X153150380Y-90239466D01*
X153183145Y-90266355D01*
X153210034Y-90299120D01*
X153230016Y-90336503D01*
X153242321Y-90377067D01*
X153246500Y-90419496D01*
X153246500Y-90936504D01*
X153242321Y-90978933D01*
X153230016Y-91019497D01*
X153210034Y-91056880D01*
X153183145Y-91089645D01*
X153150380Y-91116534D01*
X153112997Y-91136516D01*
X153072433Y-91148821D01*
X153030004Y-91153000D01*
X152587996Y-91153000D01*
X152545567Y-91148821D01*
X152505003Y-91136516D01*
X152467620Y-91116534D01*
X152434855Y-91089645D01*
X152407966Y-91056880D01*
X152387984Y-91019497D01*
X152375679Y-90978933D01*
X152371500Y-90936504D01*
X152371500Y-90419496D01*
X152375679Y-90377067D01*
X152387984Y-90336503D01*
X152407966Y-90299120D01*
X152434855Y-90266355D01*
X152467620Y-90239466D01*
X152505003Y-90219484D01*
X152545567Y-90207179D01*
X152587996Y-90203000D01*
X153030004Y-90203000D01*
X153072433Y-90207179D01*
G37*
G36*
X144165346Y-90726777D02*
G01*
X144182462Y-90731969D01*
X144198234Y-90740400D01*
X144212056Y-90751744D01*
X144223400Y-90765566D01*
X144231831Y-90781338D01*
X144237023Y-90798454D01*
X144238800Y-90816496D01*
X144238800Y-91008504D01*
X144237023Y-91026546D01*
X144231831Y-91043662D01*
X144223400Y-91059434D01*
X144212056Y-91073256D01*
X144198234Y-91084600D01*
X144182462Y-91093031D01*
X144165346Y-91098223D01*
X144147304Y-91100000D01*
X143930296Y-91100000D01*
X143912254Y-91098223D01*
X143895138Y-91093031D01*
X143879366Y-91084600D01*
X143865544Y-91073256D01*
X143854200Y-91059434D01*
X143845769Y-91043662D01*
X143840577Y-91026546D01*
X143838800Y-91008504D01*
X143838800Y-90816496D01*
X143840577Y-90798454D01*
X143845769Y-90781338D01*
X143854200Y-90765566D01*
X143865544Y-90751744D01*
X143879366Y-90740400D01*
X143895138Y-90731969D01*
X143912254Y-90726777D01*
X143930296Y-90725000D01*
X144147304Y-90725000D01*
X144165346Y-90726777D01*
G37*
G36*
X144815346Y-90726777D02*
G01*
X144832462Y-90731969D01*
X144848234Y-90740400D01*
X144862056Y-90751744D01*
X144873400Y-90765566D01*
X144881831Y-90781338D01*
X144887023Y-90798454D01*
X144888800Y-90816496D01*
X144888800Y-91008504D01*
X144887023Y-91026546D01*
X144881831Y-91043662D01*
X144873400Y-91059434D01*
X144862056Y-91073256D01*
X144848234Y-91084600D01*
X144832462Y-91093031D01*
X144815346Y-91098223D01*
X144797304Y-91100000D01*
X144580296Y-91100000D01*
X144562254Y-91098223D01*
X144545138Y-91093031D01*
X144529366Y-91084600D01*
X144515544Y-91073256D01*
X144504200Y-91059434D01*
X144495769Y-91043662D01*
X144490577Y-91026546D01*
X144488800Y-91008504D01*
X144488800Y-90816496D01*
X144490577Y-90798454D01*
X144495769Y-90781338D01*
X144504200Y-90765566D01*
X144515544Y-90751744D01*
X144529366Y-90740400D01*
X144545138Y-90731969D01*
X144562254Y-90726777D01*
X144580296Y-90725000D01*
X144797304Y-90725000D01*
X144815346Y-90726777D01*
G37*
G36*
X145465346Y-90726777D02*
G01*
X145482462Y-90731969D01*
X145498234Y-90740400D01*
X145512056Y-90751744D01*
X145523400Y-90765566D01*
X145531831Y-90781338D01*
X145537023Y-90798454D01*
X145538800Y-90816496D01*
X145538800Y-91008504D01*
X145537023Y-91026546D01*
X145531831Y-91043662D01*
X145523400Y-91059434D01*
X145512056Y-91073256D01*
X145498234Y-91084600D01*
X145482462Y-91093031D01*
X145465346Y-91098223D01*
X145447304Y-91100000D01*
X145230296Y-91100000D01*
X145212254Y-91098223D01*
X145195138Y-91093031D01*
X145179366Y-91084600D01*
X145165544Y-91073256D01*
X145154200Y-91059434D01*
X145145769Y-91043662D01*
X145140577Y-91026546D01*
X145138800Y-91008504D01*
X145138800Y-90816496D01*
X145140577Y-90798454D01*
X145145769Y-90781338D01*
X145154200Y-90765566D01*
X145165544Y-90751744D01*
X145179366Y-90740400D01*
X145195138Y-90731969D01*
X145212254Y-90726777D01*
X145230296Y-90725000D01*
X145447304Y-90725000D01*
X145465346Y-90726777D01*
G37*
G36*
X156764933Y-90193679D02*
G01*
X156805497Y-90205984D01*
X156842880Y-90225966D01*
X156875645Y-90252855D01*
X156902534Y-90285620D01*
X156922516Y-90323003D01*
X156934821Y-90363567D01*
X156939000Y-90405996D01*
X156939000Y-90848004D01*
X156934821Y-90890433D01*
X156922516Y-90930997D01*
X156902534Y-90968380D01*
X156875645Y-91001145D01*
X156842880Y-91028034D01*
X156805497Y-91048016D01*
X156764933Y-91060321D01*
X156722504Y-91064500D01*
X156205496Y-91064500D01*
X156163067Y-91060321D01*
X156122503Y-91048016D01*
X156085120Y-91028034D01*
X156052355Y-91001145D01*
X156025466Y-90968380D01*
X156005484Y-90930997D01*
X155993179Y-90890433D01*
X155989000Y-90848004D01*
X155989000Y-90405996D01*
X155993179Y-90363567D01*
X156005484Y-90323003D01*
X156025466Y-90285620D01*
X156052355Y-90252855D01*
X156085120Y-90225966D01*
X156122503Y-90205984D01*
X156163067Y-90193679D01*
X156205496Y-90189500D01*
X156722504Y-90189500D01*
X156764933Y-90193679D01*
G37*
G36*
X160726546Y-90626777D02*
G01*
X160743662Y-90631969D01*
X160759434Y-90640400D01*
X160773256Y-90651744D01*
X160784600Y-90665566D01*
X160793031Y-90681338D01*
X160798223Y-90698454D01*
X160800000Y-90716496D01*
X160800000Y-90908504D01*
X160798223Y-90926546D01*
X160793031Y-90943662D01*
X160784600Y-90959434D01*
X160773256Y-90973256D01*
X160759434Y-90984600D01*
X160743662Y-90993031D01*
X160726546Y-90998223D01*
X160708504Y-91000000D01*
X160491496Y-91000000D01*
X160473454Y-90998223D01*
X160456338Y-90993031D01*
X160440566Y-90984600D01*
X160426744Y-90973256D01*
X160415400Y-90959434D01*
X160406969Y-90943662D01*
X160401777Y-90926546D01*
X160400000Y-90908504D01*
X160400000Y-90716496D01*
X160401777Y-90698454D01*
X160406969Y-90681338D01*
X160415400Y-90665566D01*
X160426744Y-90651744D01*
X160440566Y-90640400D01*
X160456338Y-90631969D01*
X160473454Y-90626777D01*
X160491496Y-90625000D01*
X160708504Y-90625000D01*
X160726546Y-90626777D01*
G37*
G36*
X161376546Y-90626777D02*
G01*
X161393662Y-90631969D01*
X161409434Y-90640400D01*
X161423256Y-90651744D01*
X161434600Y-90665566D01*
X161443031Y-90681338D01*
X161448223Y-90698454D01*
X161450000Y-90716496D01*
X161450000Y-90908504D01*
X161448223Y-90926546D01*
X161443031Y-90943662D01*
X161434600Y-90959434D01*
X161423256Y-90973256D01*
X161409434Y-90984600D01*
X161393662Y-90993031D01*
X161376546Y-90998223D01*
X161358504Y-91000000D01*
X161141496Y-91000000D01*
X161123454Y-90998223D01*
X161106338Y-90993031D01*
X161090566Y-90984600D01*
X161076744Y-90973256D01*
X161065400Y-90959434D01*
X161056969Y-90943662D01*
X161051777Y-90926546D01*
X161050000Y-90908504D01*
X161050000Y-90716496D01*
X161051777Y-90698454D01*
X161056969Y-90681338D01*
X161065400Y-90665566D01*
X161076744Y-90651744D01*
X161090566Y-90640400D01*
X161106338Y-90631969D01*
X161123454Y-90626777D01*
X161141496Y-90625000D01*
X161358504Y-90625000D01*
X161376546Y-90626777D01*
G37*
G36*
X160076546Y-90626777D02*
G01*
X160093662Y-90631969D01*
X160109434Y-90640400D01*
X160123256Y-90651744D01*
X160134600Y-90665566D01*
X160143031Y-90681338D01*
X160148223Y-90698454D01*
X160150000Y-90716496D01*
X160150000Y-90908504D01*
X160148223Y-90926546D01*
X160143031Y-90943662D01*
X160134600Y-90959434D01*
X160123256Y-90973256D01*
X160109434Y-90984600D01*
X160093662Y-90993031D01*
X160076546Y-90998223D01*
X160058504Y-91000000D01*
X159841496Y-91000000D01*
X159823454Y-90998223D01*
X159806338Y-90993031D01*
X159790566Y-90984600D01*
X159776744Y-90973256D01*
X159765400Y-90959434D01*
X159756969Y-90943662D01*
X159751777Y-90926546D01*
X159750000Y-90908504D01*
X159750000Y-90716496D01*
X159751777Y-90698454D01*
X159756969Y-90681338D01*
X159765400Y-90665566D01*
X159776744Y-90651744D01*
X159790566Y-90640400D01*
X159806338Y-90631969D01*
X159823454Y-90626777D01*
X159841496Y-90625000D01*
X160058504Y-90625000D01*
X160076546Y-90626777D01*
G37*
G36*
X158700933Y-90066679D02*
G01*
X158741497Y-90078984D01*
X158778880Y-90098966D01*
X158811645Y-90125855D01*
X158838534Y-90158620D01*
X158858516Y-90196003D01*
X158870821Y-90236567D01*
X158875000Y-90278996D01*
X158875000Y-90721004D01*
X158870821Y-90763433D01*
X158858516Y-90803997D01*
X158838534Y-90841380D01*
X158811645Y-90874145D01*
X158778880Y-90901034D01*
X158741497Y-90921016D01*
X158700933Y-90933321D01*
X158658504Y-90937500D01*
X158141496Y-90937500D01*
X158099067Y-90933321D01*
X158058503Y-90921016D01*
X158021120Y-90901034D01*
X157988355Y-90874145D01*
X157961466Y-90841380D01*
X157941484Y-90803997D01*
X157929179Y-90763433D01*
X157925000Y-90721004D01*
X157925000Y-90278996D01*
X157929179Y-90236567D01*
X157941484Y-90196003D01*
X157961466Y-90158620D01*
X157988355Y-90125855D01*
X158021120Y-90098966D01*
X158058503Y-90078984D01*
X158099067Y-90066679D01*
X158141496Y-90062500D01*
X158658504Y-90062500D01*
X158700933Y-90066679D01*
G37*
G36*
X128133169Y-89194822D02*
G01*
X128269655Y-89251357D01*
X128392497Y-89333437D01*
X128496963Y-89437903D01*
X128579043Y-89560745D01*
X128635578Y-89697231D01*
X128664400Y-89842131D01*
X128664400Y-89989869D01*
X128635578Y-90134769D01*
X128579043Y-90271255D01*
X128496963Y-90394097D01*
X128392497Y-90498563D01*
X128269655Y-90580643D01*
X128133169Y-90637178D01*
X127988269Y-90666000D01*
X127840531Y-90666000D01*
X127695631Y-90637178D01*
X127559145Y-90580643D01*
X127436303Y-90498563D01*
X127331837Y-90394097D01*
X127249757Y-90271255D01*
X127193222Y-90134769D01*
X127164400Y-89989869D01*
X127164400Y-89842131D01*
X127193222Y-89697231D01*
X127249757Y-89560745D01*
X127331837Y-89437903D01*
X127436303Y-89333437D01*
X127559145Y-89251357D01*
X127695631Y-89194822D01*
X127840531Y-89166000D01*
X127988269Y-89166000D01*
X128133169Y-89194822D01*
G37*
G36*
X126304369Y-89144022D02*
G01*
X126440855Y-89200557D01*
X126563697Y-89282637D01*
X126668163Y-89387103D01*
X126750243Y-89509945D01*
X126806778Y-89646431D01*
X126835600Y-89791331D01*
X126835600Y-89939069D01*
X126806778Y-90083969D01*
X126750243Y-90220455D01*
X126668163Y-90343297D01*
X126563697Y-90447763D01*
X126440855Y-90529843D01*
X126304369Y-90586378D01*
X126159469Y-90615200D01*
X126011731Y-90615200D01*
X125866831Y-90586378D01*
X125730345Y-90529843D01*
X125607503Y-90447763D01*
X125503037Y-90343297D01*
X125420957Y-90220455D01*
X125364422Y-90083969D01*
X125335600Y-89939069D01*
X125335600Y-89791331D01*
X125364422Y-89646431D01*
X125420957Y-89509945D01*
X125503037Y-89387103D01*
X125607503Y-89282637D01*
X125730345Y-89200557D01*
X125866831Y-89144022D01*
X126011731Y-89115200D01*
X126159469Y-89115200D01*
X126304369Y-89144022D01*
G37*
G36*
X124475569Y-89093222D02*
G01*
X124612055Y-89149757D01*
X124734897Y-89231837D01*
X124839363Y-89336303D01*
X124921443Y-89459145D01*
X124977978Y-89595631D01*
X125006800Y-89740531D01*
X125006800Y-89888269D01*
X124977978Y-90033169D01*
X124921443Y-90169655D01*
X124839363Y-90292497D01*
X124734897Y-90396963D01*
X124612055Y-90479043D01*
X124475569Y-90535578D01*
X124330669Y-90564400D01*
X124182931Y-90564400D01*
X124038031Y-90535578D01*
X123901545Y-90479043D01*
X123778703Y-90396963D01*
X123674237Y-90292497D01*
X123592157Y-90169655D01*
X123535622Y-90033169D01*
X123506800Y-89888269D01*
X123506800Y-89740531D01*
X123535622Y-89595631D01*
X123592157Y-89459145D01*
X123674237Y-89336303D01*
X123778703Y-89231837D01*
X123901545Y-89149757D01*
X124038031Y-89093222D01*
X124182931Y-89064400D01*
X124330669Y-89064400D01*
X124475569Y-89093222D01*
G37*
G36*
X140450933Y-88929179D02*
G01*
X140491497Y-88941484D01*
X140528880Y-88961466D01*
X140561645Y-88988355D01*
X140588534Y-89021120D01*
X140608516Y-89058503D01*
X140620821Y-89099067D01*
X140625000Y-89141496D01*
X140625000Y-89658504D01*
X140620821Y-89700933D01*
X140608516Y-89741497D01*
X140588534Y-89778880D01*
X140561645Y-89811645D01*
X140528880Y-89838534D01*
X140491497Y-89858516D01*
X140450933Y-89870821D01*
X140408504Y-89875000D01*
X139966496Y-89875000D01*
X139924067Y-89870821D01*
X139883503Y-89858516D01*
X139846120Y-89838534D01*
X139813355Y-89811645D01*
X139786466Y-89778880D01*
X139766484Y-89741497D01*
X139754179Y-89700933D01*
X139750000Y-89658504D01*
X139750000Y-89141496D01*
X139754179Y-89099067D01*
X139766484Y-89058503D01*
X139786466Y-89021120D01*
X139813355Y-88988355D01*
X139846120Y-88961466D01*
X139883503Y-88941484D01*
X139924067Y-88929179D01*
X139966496Y-88925000D01*
X140408504Y-88925000D01*
X140450933Y-88929179D01*
G37*
G36*
X138875933Y-88929179D02*
G01*
X138916497Y-88941484D01*
X138953880Y-88961466D01*
X138986645Y-88988355D01*
X139013534Y-89021120D01*
X139033516Y-89058503D01*
X139045821Y-89099067D01*
X139050000Y-89141496D01*
X139050000Y-89658504D01*
X139045821Y-89700933D01*
X139033516Y-89741497D01*
X139013534Y-89778880D01*
X138986645Y-89811645D01*
X138953880Y-89838534D01*
X138916497Y-89858516D01*
X138875933Y-89870821D01*
X138833504Y-89875000D01*
X138391496Y-89875000D01*
X138349067Y-89870821D01*
X138308503Y-89858516D01*
X138271120Y-89838534D01*
X138238355Y-89811645D01*
X138211466Y-89778880D01*
X138191484Y-89741497D01*
X138179179Y-89700933D01*
X138175000Y-89658504D01*
X138175000Y-89141496D01*
X138179179Y-89099067D01*
X138191484Y-89058503D01*
X138211466Y-89021120D01*
X138238355Y-88988355D01*
X138271120Y-88961466D01*
X138308503Y-88941484D01*
X138349067Y-88929179D01*
X138391496Y-88925000D01*
X138833504Y-88925000D01*
X138875933Y-88929179D01*
G37*
G36*
X160212633Y-88729179D02*
G01*
X160253197Y-88741484D01*
X160290580Y-88761466D01*
X160323345Y-88788355D01*
X160350234Y-88821120D01*
X160370216Y-88858503D01*
X160382521Y-88899067D01*
X160386700Y-88941496D01*
X160386700Y-89458504D01*
X160382521Y-89500933D01*
X160370216Y-89541497D01*
X160350234Y-89578880D01*
X160323345Y-89611645D01*
X160290580Y-89638534D01*
X160253197Y-89658516D01*
X160212633Y-89670821D01*
X160170204Y-89675000D01*
X159728196Y-89675000D01*
X159685767Y-89670821D01*
X159645203Y-89658516D01*
X159607820Y-89638534D01*
X159575055Y-89611645D01*
X159548166Y-89578880D01*
X159528184Y-89541497D01*
X159515879Y-89500933D01*
X159511700Y-89458504D01*
X159511700Y-88941496D01*
X159515879Y-88899067D01*
X159528184Y-88858503D01*
X159548166Y-88821120D01*
X159575055Y-88788355D01*
X159607820Y-88761466D01*
X159645203Y-88741484D01*
X159685767Y-88729179D01*
X159728196Y-88725000D01*
X160170204Y-88725000D01*
X160212633Y-88729179D01*
G37*
G36*
X161787633Y-88729179D02*
G01*
X161828197Y-88741484D01*
X161865580Y-88761466D01*
X161898345Y-88788355D01*
X161925234Y-88821120D01*
X161945216Y-88858503D01*
X161957521Y-88899067D01*
X161961700Y-88941496D01*
X161961700Y-89458504D01*
X161957521Y-89500933D01*
X161945216Y-89541497D01*
X161925234Y-89578880D01*
X161898345Y-89611645D01*
X161865580Y-89638534D01*
X161828197Y-89658516D01*
X161787633Y-89670821D01*
X161745204Y-89675000D01*
X161303196Y-89675000D01*
X161260767Y-89670821D01*
X161220203Y-89658516D01*
X161182820Y-89638534D01*
X161150055Y-89611645D01*
X161123166Y-89578880D01*
X161103184Y-89541497D01*
X161090879Y-89500933D01*
X161086700Y-89458504D01*
X161086700Y-88941496D01*
X161090879Y-88899067D01*
X161103184Y-88858503D01*
X161123166Y-88821120D01*
X161150055Y-88788355D01*
X161182820Y-88761466D01*
X161220203Y-88741484D01*
X161260767Y-88729179D01*
X161303196Y-88725000D01*
X161745204Y-88725000D01*
X161787633Y-88729179D01*
G37*
G36*
X163940833Y-88708579D02*
G01*
X163981397Y-88720884D01*
X164018780Y-88740866D01*
X164051545Y-88767755D01*
X164078434Y-88800520D01*
X164098416Y-88837903D01*
X164110721Y-88878467D01*
X164114900Y-88920896D01*
X164114900Y-89437904D01*
X164110721Y-89480333D01*
X164098416Y-89520897D01*
X164078434Y-89558280D01*
X164051545Y-89591045D01*
X164018780Y-89617934D01*
X163981397Y-89637916D01*
X163940833Y-89650221D01*
X163898404Y-89654400D01*
X163456396Y-89654400D01*
X163413967Y-89650221D01*
X163373403Y-89637916D01*
X163336020Y-89617934D01*
X163303255Y-89591045D01*
X163276366Y-89558280D01*
X163256384Y-89520897D01*
X163244079Y-89480333D01*
X163239900Y-89437904D01*
X163239900Y-88920896D01*
X163244079Y-88878467D01*
X163256384Y-88837903D01*
X163276366Y-88800520D01*
X163303255Y-88767755D01*
X163336020Y-88740866D01*
X163373403Y-88720884D01*
X163413967Y-88708579D01*
X163456396Y-88704400D01*
X163898404Y-88704400D01*
X163940833Y-88708579D01*
G37*
G36*
X165515833Y-88708579D02*
G01*
X165556397Y-88720884D01*
X165593780Y-88740866D01*
X165626545Y-88767755D01*
X165653434Y-88800520D01*
X165673416Y-88837903D01*
X165685721Y-88878467D01*
X165689900Y-88920896D01*
X165689900Y-89437904D01*
X165685721Y-89480333D01*
X165673416Y-89520897D01*
X165653434Y-89558280D01*
X165626545Y-89591045D01*
X165593780Y-89617934D01*
X165556397Y-89637916D01*
X165515833Y-89650221D01*
X165473404Y-89654400D01*
X165031396Y-89654400D01*
X164988967Y-89650221D01*
X164948403Y-89637916D01*
X164911020Y-89617934D01*
X164878255Y-89591045D01*
X164851366Y-89558280D01*
X164831384Y-89520897D01*
X164819079Y-89480333D01*
X164814900Y-89437904D01*
X164814900Y-88920896D01*
X164819079Y-88878467D01*
X164831384Y-88837903D01*
X164851366Y-88800520D01*
X164878255Y-88767755D01*
X164911020Y-88740866D01*
X164948403Y-88720884D01*
X164988967Y-88708579D01*
X165031396Y-88704400D01*
X165473404Y-88704400D01*
X165515833Y-88708579D01*
G37*
G36*
X155700933Y-88683179D02*
G01*
X155741497Y-88695484D01*
X155778880Y-88715466D01*
X155811645Y-88742355D01*
X155838534Y-88775120D01*
X155858516Y-88812503D01*
X155870821Y-88853067D01*
X155875000Y-88895496D01*
X155875000Y-89412504D01*
X155870821Y-89454933D01*
X155858516Y-89495497D01*
X155838534Y-89532880D01*
X155811645Y-89565645D01*
X155778880Y-89592534D01*
X155741497Y-89612516D01*
X155700933Y-89624821D01*
X155658504Y-89629000D01*
X155216496Y-89629000D01*
X155174067Y-89624821D01*
X155133503Y-89612516D01*
X155096120Y-89592534D01*
X155063355Y-89565645D01*
X155036466Y-89532880D01*
X155016484Y-89495497D01*
X155004179Y-89454933D01*
X155000000Y-89412504D01*
X155000000Y-88895496D01*
X155004179Y-88853067D01*
X155016484Y-88812503D01*
X155036466Y-88775120D01*
X155063355Y-88742355D01*
X155096120Y-88715466D01*
X155133503Y-88695484D01*
X155174067Y-88683179D01*
X155216496Y-88679000D01*
X155658504Y-88679000D01*
X155700933Y-88683179D01*
G37*
G36*
X154125933Y-88683179D02*
G01*
X154166497Y-88695484D01*
X154203880Y-88715466D01*
X154236645Y-88742355D01*
X154263534Y-88775120D01*
X154283516Y-88812503D01*
X154295821Y-88853067D01*
X154300000Y-88895496D01*
X154300000Y-89412504D01*
X154295821Y-89454933D01*
X154283516Y-89495497D01*
X154263534Y-89532880D01*
X154236645Y-89565645D01*
X154203880Y-89592534D01*
X154166497Y-89612516D01*
X154125933Y-89624821D01*
X154083504Y-89629000D01*
X153641496Y-89629000D01*
X153599067Y-89624821D01*
X153558503Y-89612516D01*
X153521120Y-89592534D01*
X153488355Y-89565645D01*
X153461466Y-89532880D01*
X153441484Y-89495497D01*
X153429179Y-89454933D01*
X153425000Y-89412504D01*
X153425000Y-88895496D01*
X153429179Y-88853067D01*
X153441484Y-88812503D01*
X153461466Y-88775120D01*
X153488355Y-88742355D01*
X153521120Y-88715466D01*
X153558503Y-88695484D01*
X153599067Y-88683179D01*
X153641496Y-88679000D01*
X154083504Y-88679000D01*
X154125933Y-88683179D01*
G37*
G36*
X157450933Y-88654179D02*
G01*
X157491497Y-88666484D01*
X157528880Y-88686466D01*
X157561645Y-88713355D01*
X157588534Y-88746120D01*
X157608516Y-88783503D01*
X157620821Y-88824067D01*
X157625000Y-88866496D01*
X157625000Y-89308504D01*
X157620821Y-89350933D01*
X157608516Y-89391497D01*
X157588534Y-89428880D01*
X157561645Y-89461645D01*
X157528880Y-89488534D01*
X157491497Y-89508516D01*
X157450933Y-89520821D01*
X157408504Y-89525000D01*
X156891496Y-89525000D01*
X156849067Y-89520821D01*
X156808503Y-89508516D01*
X156771120Y-89488534D01*
X156738355Y-89461645D01*
X156711466Y-89428880D01*
X156691484Y-89391497D01*
X156679179Y-89350933D01*
X156675000Y-89308504D01*
X156675000Y-88866496D01*
X156679179Y-88824067D01*
X156691484Y-88783503D01*
X156711466Y-88746120D01*
X156738355Y-88713355D01*
X156771120Y-88686466D01*
X156808503Y-88666484D01*
X156849067Y-88654179D01*
X156891496Y-88650000D01*
X157408504Y-88650000D01*
X157450933Y-88654179D01*
G37*
G36*
X167725433Y-88556179D02*
G01*
X167765997Y-88568484D01*
X167803380Y-88588466D01*
X167836145Y-88615355D01*
X167863034Y-88648120D01*
X167883016Y-88685503D01*
X167895321Y-88726067D01*
X167899500Y-88768496D01*
X167899500Y-89285504D01*
X167895321Y-89327933D01*
X167883016Y-89368497D01*
X167863034Y-89405880D01*
X167836145Y-89438645D01*
X167803380Y-89465534D01*
X167765997Y-89485516D01*
X167725433Y-89497821D01*
X167683004Y-89502000D01*
X167240996Y-89502000D01*
X167198567Y-89497821D01*
X167158003Y-89485516D01*
X167120620Y-89465534D01*
X167087855Y-89438645D01*
X167060966Y-89405880D01*
X167040984Y-89368497D01*
X167028679Y-89327933D01*
X167024500Y-89285504D01*
X167024500Y-88768496D01*
X167028679Y-88726067D01*
X167040984Y-88685503D01*
X167060966Y-88648120D01*
X167087855Y-88615355D01*
X167120620Y-88588466D01*
X167158003Y-88568484D01*
X167198567Y-88556179D01*
X167240996Y-88552000D01*
X167683004Y-88552000D01*
X167725433Y-88556179D01*
G37*
G36*
X169300433Y-88556179D02*
G01*
X169340997Y-88568484D01*
X169378380Y-88588466D01*
X169411145Y-88615355D01*
X169438034Y-88648120D01*
X169458016Y-88685503D01*
X169470321Y-88726067D01*
X169474500Y-88768496D01*
X169474500Y-89285504D01*
X169470321Y-89327933D01*
X169458016Y-89368497D01*
X169438034Y-89405880D01*
X169411145Y-89438645D01*
X169378380Y-89465534D01*
X169340997Y-89485516D01*
X169300433Y-89497821D01*
X169258004Y-89502000D01*
X168815996Y-89502000D01*
X168773567Y-89497821D01*
X168733003Y-89485516D01*
X168695620Y-89465534D01*
X168662855Y-89438645D01*
X168635966Y-89405880D01*
X168615984Y-89368497D01*
X168603679Y-89327933D01*
X168599500Y-89285504D01*
X168599500Y-88768496D01*
X168603679Y-88726067D01*
X168615984Y-88685503D01*
X168635966Y-88648120D01*
X168662855Y-88615355D01*
X168695620Y-88588466D01*
X168733003Y-88568484D01*
X168773567Y-88556179D01*
X168815996Y-88552000D01*
X169258004Y-88552000D01*
X169300433Y-88556179D01*
G37*
G36*
X147250933Y-88529179D02*
G01*
X147291497Y-88541484D01*
X147328880Y-88561466D01*
X147361645Y-88588355D01*
X147388534Y-88621120D01*
X147408516Y-88658503D01*
X147420821Y-88699067D01*
X147425000Y-88741496D01*
X147425000Y-89258504D01*
X147420821Y-89300933D01*
X147408516Y-89341497D01*
X147388534Y-89378880D01*
X147361645Y-89411645D01*
X147328880Y-89438534D01*
X147291497Y-89458516D01*
X147250933Y-89470821D01*
X147208504Y-89475000D01*
X146766496Y-89475000D01*
X146724067Y-89470821D01*
X146683503Y-89458516D01*
X146646120Y-89438534D01*
X146613355Y-89411645D01*
X146586466Y-89378880D01*
X146566484Y-89341497D01*
X146554179Y-89300933D01*
X146550000Y-89258504D01*
X146550000Y-88741496D01*
X146554179Y-88699067D01*
X146566484Y-88658503D01*
X146586466Y-88621120D01*
X146613355Y-88588355D01*
X146646120Y-88561466D01*
X146683503Y-88541484D01*
X146724067Y-88529179D01*
X146766496Y-88525000D01*
X147208504Y-88525000D01*
X147250933Y-88529179D01*
G37*
G36*
X145675933Y-88529179D02*
G01*
X145716497Y-88541484D01*
X145753880Y-88561466D01*
X145786645Y-88588355D01*
X145813534Y-88621120D01*
X145833516Y-88658503D01*
X145845821Y-88699067D01*
X145850000Y-88741496D01*
X145850000Y-89258504D01*
X145845821Y-89300933D01*
X145833516Y-89341497D01*
X145813534Y-89378880D01*
X145786645Y-89411645D01*
X145753880Y-89438534D01*
X145716497Y-89458516D01*
X145675933Y-89470821D01*
X145633504Y-89475000D01*
X145191496Y-89475000D01*
X145149067Y-89470821D01*
X145108503Y-89458516D01*
X145071120Y-89438534D01*
X145038355Y-89411645D01*
X145011466Y-89378880D01*
X144991484Y-89341497D01*
X144979179Y-89300933D01*
X144975000Y-89258504D01*
X144975000Y-88741496D01*
X144979179Y-88699067D01*
X144991484Y-88658503D01*
X145011466Y-88621120D01*
X145038355Y-88588355D01*
X145071120Y-88561466D01*
X145108503Y-88541484D01*
X145149067Y-88529179D01*
X145191496Y-88525000D01*
X145633504Y-88525000D01*
X145675933Y-88529179D01*
G37*
G36*
X130972033Y-87768779D02*
G01*
X131012597Y-87781084D01*
X131049980Y-87801066D01*
X131082745Y-87827955D01*
X131109634Y-87860720D01*
X131129616Y-87898103D01*
X131141921Y-87938667D01*
X131146100Y-87981096D01*
X131146100Y-88498104D01*
X131141921Y-88540533D01*
X131129616Y-88581097D01*
X131109634Y-88618480D01*
X131082745Y-88651245D01*
X131049980Y-88678134D01*
X131012597Y-88698116D01*
X130972033Y-88710421D01*
X130929604Y-88714600D01*
X130487596Y-88714600D01*
X130445167Y-88710421D01*
X130404603Y-88698116D01*
X130367220Y-88678134D01*
X130334455Y-88651245D01*
X130307566Y-88618480D01*
X130287584Y-88581097D01*
X130275279Y-88540533D01*
X130271100Y-88498104D01*
X130271100Y-87981096D01*
X130275279Y-87938667D01*
X130287584Y-87898103D01*
X130307566Y-87860720D01*
X130334455Y-87827955D01*
X130367220Y-87801066D01*
X130404603Y-87781084D01*
X130445167Y-87768779D01*
X130487596Y-87764600D01*
X130929604Y-87764600D01*
X130972033Y-87768779D01*
G37*
G36*
X129397033Y-87768779D02*
G01*
X129437597Y-87781084D01*
X129474980Y-87801066D01*
X129507745Y-87827955D01*
X129534634Y-87860720D01*
X129554616Y-87898103D01*
X129566921Y-87938667D01*
X129571100Y-87981096D01*
X129571100Y-88498104D01*
X129566921Y-88540533D01*
X129554616Y-88581097D01*
X129534634Y-88618480D01*
X129507745Y-88651245D01*
X129474980Y-88678134D01*
X129437597Y-88698116D01*
X129397033Y-88710421D01*
X129354604Y-88714600D01*
X128912596Y-88714600D01*
X128870167Y-88710421D01*
X128829603Y-88698116D01*
X128792220Y-88678134D01*
X128759455Y-88651245D01*
X128732566Y-88618480D01*
X128712584Y-88581097D01*
X128700279Y-88540533D01*
X128696100Y-88498104D01*
X128696100Y-87981096D01*
X128700279Y-87938667D01*
X128712584Y-87898103D01*
X128732566Y-87860720D01*
X128759455Y-87827955D01*
X128792220Y-87801066D01*
X128829603Y-87781084D01*
X128870167Y-87768779D01*
X128912596Y-87764600D01*
X129354604Y-87764600D01*
X129397033Y-87768779D01*
G37*
G36*
X137600933Y-87341679D02*
G01*
X137641497Y-87353984D01*
X137678880Y-87373966D01*
X137711645Y-87400855D01*
X137738534Y-87433620D01*
X137758516Y-87471003D01*
X137770821Y-87511567D01*
X137775000Y-87553996D01*
X137775000Y-87996004D01*
X137770821Y-88038433D01*
X137758516Y-88078997D01*
X137738534Y-88116380D01*
X137711645Y-88149145D01*
X137678880Y-88176034D01*
X137641497Y-88196016D01*
X137600933Y-88208321D01*
X137558504Y-88212500D01*
X137041496Y-88212500D01*
X136999067Y-88208321D01*
X136958503Y-88196016D01*
X136921120Y-88176034D01*
X136888355Y-88149145D01*
X136861466Y-88116380D01*
X136841484Y-88078997D01*
X136829179Y-88038433D01*
X136825000Y-87996004D01*
X136825000Y-87553996D01*
X136829179Y-87511567D01*
X136841484Y-87471003D01*
X136861466Y-87433620D01*
X136888355Y-87400855D01*
X136921120Y-87373966D01*
X136958503Y-87353984D01*
X136999067Y-87341679D01*
X137041496Y-87337500D01*
X137558504Y-87337500D01*
X137600933Y-87341679D01*
G37*
G36*
X166155310Y-86782260D02*
G01*
X166200564Y-86795987D01*
X166242270Y-86818279D01*
X166278822Y-86848278D01*
X166308821Y-86884830D01*
X166331113Y-86926536D01*
X166344840Y-86971790D01*
X166349500Y-87019096D01*
X166349500Y-87936104D01*
X166344840Y-87983410D01*
X166331113Y-88028664D01*
X166308821Y-88070370D01*
X166278822Y-88106922D01*
X166242270Y-88136921D01*
X166200564Y-88159213D01*
X166155310Y-88172940D01*
X166108004Y-88177600D01*
X165615996Y-88177600D01*
X165568690Y-88172940D01*
X165523436Y-88159213D01*
X165481730Y-88136921D01*
X165445178Y-88106922D01*
X165415179Y-88070370D01*
X165392887Y-88028664D01*
X165379160Y-87983410D01*
X165374500Y-87936104D01*
X165374500Y-87019096D01*
X165379160Y-86971790D01*
X165392887Y-86926536D01*
X165415179Y-86884830D01*
X165445178Y-86848278D01*
X165481730Y-86818279D01*
X165523436Y-86795987D01*
X165568690Y-86782260D01*
X165615996Y-86777600D01*
X166108004Y-86777600D01*
X166155310Y-86782260D01*
G37*
G36*
X164280310Y-86782260D02*
G01*
X164325564Y-86795987D01*
X164367270Y-86818279D01*
X164403822Y-86848278D01*
X164433821Y-86884830D01*
X164456113Y-86926536D01*
X164469840Y-86971790D01*
X164474500Y-87019096D01*
X164474500Y-87936104D01*
X164469840Y-87983410D01*
X164456113Y-88028664D01*
X164433821Y-88070370D01*
X164403822Y-88106922D01*
X164367270Y-88136921D01*
X164325564Y-88159213D01*
X164280310Y-88172940D01*
X164233004Y-88177600D01*
X163740996Y-88177600D01*
X163693690Y-88172940D01*
X163648436Y-88159213D01*
X163606730Y-88136921D01*
X163570178Y-88106922D01*
X163540179Y-88070370D01*
X163517887Y-88028664D01*
X163504160Y-87983410D01*
X163499500Y-87936104D01*
X163499500Y-87019096D01*
X163504160Y-86971790D01*
X163517887Y-86926536D01*
X163540179Y-86884830D01*
X163570178Y-86848278D01*
X163606730Y-86818279D01*
X163648436Y-86795987D01*
X163693690Y-86782260D01*
X163740996Y-86777600D01*
X164233004Y-86777600D01*
X164280310Y-86782260D01*
G37*
G36*
X156100000Y-88050000D02*
G01*
X154600000Y-88050000D01*
X154600000Y-87600000D01*
X156100000Y-87600000D01*
X156100000Y-88050000D01*
G37*
G36*
X150200000Y-88050000D02*
G01*
X148700000Y-88050000D01*
X148700000Y-87600000D01*
X150200000Y-87600000D01*
X150200000Y-88050000D01*
G37*
G36*
X169300433Y-87032179D02*
G01*
X169340997Y-87044484D01*
X169378380Y-87064466D01*
X169411145Y-87091355D01*
X169438034Y-87124120D01*
X169458016Y-87161503D01*
X169470321Y-87202067D01*
X169474500Y-87244496D01*
X169474500Y-87761504D01*
X169470321Y-87803933D01*
X169458016Y-87844497D01*
X169438034Y-87881880D01*
X169411145Y-87914645D01*
X169378380Y-87941534D01*
X169340997Y-87961516D01*
X169300433Y-87973821D01*
X169258004Y-87978000D01*
X168815996Y-87978000D01*
X168773567Y-87973821D01*
X168733003Y-87961516D01*
X168695620Y-87941534D01*
X168662855Y-87914645D01*
X168635966Y-87881880D01*
X168615984Y-87844497D01*
X168603679Y-87803933D01*
X168599500Y-87761504D01*
X168599500Y-87244496D01*
X168603679Y-87202067D01*
X168615984Y-87161503D01*
X168635966Y-87124120D01*
X168662855Y-87091355D01*
X168695620Y-87064466D01*
X168733003Y-87044484D01*
X168773567Y-87032179D01*
X168815996Y-87028000D01*
X169258004Y-87028000D01*
X169300433Y-87032179D01*
G37*
G36*
X167725433Y-87032179D02*
G01*
X167765997Y-87044484D01*
X167803380Y-87064466D01*
X167836145Y-87091355D01*
X167863034Y-87124120D01*
X167883016Y-87161503D01*
X167895321Y-87202067D01*
X167899500Y-87244496D01*
X167899500Y-87761504D01*
X167895321Y-87803933D01*
X167883016Y-87844497D01*
X167863034Y-87881880D01*
X167836145Y-87914645D01*
X167803380Y-87941534D01*
X167765997Y-87961516D01*
X167725433Y-87973821D01*
X167683004Y-87978000D01*
X167240996Y-87978000D01*
X167198567Y-87973821D01*
X167158003Y-87961516D01*
X167120620Y-87941534D01*
X167087855Y-87914645D01*
X167060966Y-87881880D01*
X167040984Y-87844497D01*
X167028679Y-87803933D01*
X167024500Y-87761504D01*
X167024500Y-87244496D01*
X167028679Y-87202067D01*
X167040984Y-87161503D01*
X167060966Y-87124120D01*
X167087855Y-87091355D01*
X167120620Y-87064466D01*
X167158003Y-87044484D01*
X167198567Y-87032179D01*
X167240996Y-87028000D01*
X167683004Y-87028000D01*
X167725433Y-87032179D01*
G37*
G36*
X157450933Y-87079179D02*
G01*
X157491497Y-87091484D01*
X157528880Y-87111466D01*
X157561645Y-87138355D01*
X157588534Y-87171120D01*
X157608516Y-87208503D01*
X157620821Y-87249067D01*
X157625000Y-87291496D01*
X157625000Y-87733504D01*
X157620821Y-87775933D01*
X157608516Y-87816497D01*
X157588534Y-87853880D01*
X157561645Y-87886645D01*
X157528880Y-87913534D01*
X157491497Y-87933516D01*
X157450933Y-87945821D01*
X157408504Y-87950000D01*
X156891496Y-87950000D01*
X156849067Y-87945821D01*
X156808503Y-87933516D01*
X156771120Y-87913534D01*
X156738355Y-87886645D01*
X156711466Y-87853880D01*
X156691484Y-87816497D01*
X156679179Y-87775933D01*
X156675000Y-87733504D01*
X156675000Y-87291496D01*
X156679179Y-87249067D01*
X156691484Y-87208503D01*
X156711466Y-87171120D01*
X156738355Y-87138355D01*
X156771120Y-87111466D01*
X156808503Y-87091484D01*
X156849067Y-87079179D01*
X156891496Y-87075000D01*
X157408504Y-87075000D01*
X157450933Y-87079179D01*
G37*
G36*
X147700933Y-87054179D02*
G01*
X147741497Y-87066484D01*
X147778880Y-87086466D01*
X147811645Y-87113355D01*
X147838534Y-87146120D01*
X147858516Y-87183503D01*
X147870821Y-87224067D01*
X147875000Y-87266496D01*
X147875000Y-87708504D01*
X147870821Y-87750933D01*
X147858516Y-87791497D01*
X147838534Y-87828880D01*
X147811645Y-87861645D01*
X147778880Y-87888534D01*
X147741497Y-87908516D01*
X147700933Y-87920821D01*
X147658504Y-87925000D01*
X147141496Y-87925000D01*
X147099067Y-87920821D01*
X147058503Y-87908516D01*
X147021120Y-87888534D01*
X146988355Y-87861645D01*
X146961466Y-87828880D01*
X146941484Y-87791497D01*
X146929179Y-87750933D01*
X146925000Y-87708504D01*
X146925000Y-87266496D01*
X146929179Y-87224067D01*
X146941484Y-87183503D01*
X146961466Y-87146120D01*
X146988355Y-87113355D01*
X147021120Y-87086466D01*
X147058503Y-87066484D01*
X147099067Y-87054179D01*
X147141496Y-87050000D01*
X147658504Y-87050000D01*
X147700933Y-87054179D01*
G37*
G36*
X162128200Y-87839400D02*
G01*
X161417000Y-87839400D01*
X161417000Y-87687000D01*
X162128200Y-87687000D01*
X162128200Y-87839400D01*
G37*
G36*
X159131000Y-87839400D02*
G01*
X158419800Y-87839400D01*
X158419800Y-87687000D01*
X159131000Y-87687000D01*
X159131000Y-87839400D01*
G37*
G36*
X161175700Y-87757000D02*
G01*
X159372300Y-87757000D01*
X159372300Y-85369400D01*
X161175700Y-85369400D01*
X161175700Y-87757000D01*
G37*
G36*
X162128200Y-87439401D02*
G01*
X161417000Y-87439401D01*
X161417000Y-87287001D01*
X162128200Y-87287001D01*
X162128200Y-87439401D01*
G37*
G36*
X159131000Y-87439401D02*
G01*
X158419800Y-87439401D01*
X158419800Y-87287001D01*
X159131000Y-87287001D01*
X159131000Y-87439401D01*
G37*
G36*
X150200000Y-87400000D02*
G01*
X148700000Y-87400000D01*
X148700000Y-86950000D01*
X150200000Y-86950000D01*
X150200000Y-87400000D01*
G37*
G36*
X156100000Y-87400000D02*
G01*
X154600000Y-87400000D01*
X154600000Y-86950000D01*
X156100000Y-86950000D01*
X156100000Y-87400000D01*
G37*
G36*
X129397033Y-86244779D02*
G01*
X129437597Y-86257084D01*
X129474980Y-86277066D01*
X129507745Y-86303955D01*
X129534634Y-86336720D01*
X129554616Y-86374103D01*
X129566921Y-86414667D01*
X129571100Y-86457096D01*
X129571100Y-86974104D01*
X129566921Y-87016533D01*
X129554616Y-87057097D01*
X129534634Y-87094480D01*
X129507745Y-87127245D01*
X129474980Y-87154134D01*
X129437597Y-87174116D01*
X129397033Y-87186421D01*
X129354604Y-87190600D01*
X128912596Y-87190600D01*
X128870167Y-87186421D01*
X128829603Y-87174116D01*
X128792220Y-87154134D01*
X128759455Y-87127245D01*
X128732566Y-87094480D01*
X128712584Y-87057097D01*
X128700279Y-87016533D01*
X128696100Y-86974104D01*
X128696100Y-86457096D01*
X128700279Y-86414667D01*
X128712584Y-86374103D01*
X128732566Y-86336720D01*
X128759455Y-86303955D01*
X128792220Y-86277066D01*
X128829603Y-86257084D01*
X128870167Y-86244779D01*
X128912596Y-86240600D01*
X129354604Y-86240600D01*
X129397033Y-86244779D01*
G37*
G36*
X130972033Y-86244779D02*
G01*
X131012597Y-86257084D01*
X131049980Y-86277066D01*
X131082745Y-86303955D01*
X131109634Y-86336720D01*
X131129616Y-86374103D01*
X131141921Y-86414667D01*
X131146100Y-86457096D01*
X131146100Y-86974104D01*
X131141921Y-87016533D01*
X131129616Y-87057097D01*
X131109634Y-87094480D01*
X131082745Y-87127245D01*
X131049980Y-87154134D01*
X131012597Y-87174116D01*
X130972033Y-87186421D01*
X130929604Y-87190600D01*
X130487596Y-87190600D01*
X130445167Y-87186421D01*
X130404603Y-87174116D01*
X130367220Y-87154134D01*
X130334455Y-87127245D01*
X130307566Y-87094480D01*
X130287584Y-87057097D01*
X130275279Y-87016533D01*
X130271100Y-86974104D01*
X130271100Y-86457096D01*
X130275279Y-86414667D01*
X130287584Y-86374103D01*
X130307566Y-86336720D01*
X130334455Y-86303955D01*
X130367220Y-86277066D01*
X130404603Y-86257084D01*
X130445167Y-86244779D01*
X130487596Y-86240600D01*
X130929604Y-86240600D01*
X130972033Y-86244779D01*
G37*
G36*
X159131000Y-87039399D02*
G01*
X158419800Y-87039399D01*
X158419800Y-86886999D01*
X159131000Y-86886999D01*
X159131000Y-87039399D01*
G37*
G36*
X162128200Y-87039399D02*
G01*
X161417000Y-87039399D01*
X161417000Y-86886999D01*
X162128200Y-86886999D01*
X162128200Y-87039399D01*
G37*
G36*
X126175000Y-86900000D02*
G01*
X125125000Y-86900000D01*
X125125000Y-85500000D01*
X126175000Y-85500000D01*
X126175000Y-86900000D01*
G37*
G36*
X124725000Y-86900000D02*
G01*
X123675000Y-86900000D01*
X123675000Y-85500000D01*
X124725000Y-85500000D01*
X124725000Y-86900000D01*
G37*
G36*
X144103633Y-85950139D02*
G01*
X144144197Y-85962444D01*
X144181580Y-85982426D01*
X144214345Y-86009315D01*
X144241234Y-86042080D01*
X144261216Y-86079463D01*
X144273521Y-86120027D01*
X144277700Y-86162456D01*
X144277700Y-86679464D01*
X144273521Y-86721893D01*
X144261216Y-86762457D01*
X144241234Y-86799840D01*
X144214345Y-86832605D01*
X144181580Y-86859494D01*
X144144197Y-86879476D01*
X144103633Y-86891781D01*
X144061204Y-86895960D01*
X143619196Y-86895960D01*
X143576767Y-86891781D01*
X143536203Y-86879476D01*
X143498820Y-86859494D01*
X143466055Y-86832605D01*
X143439166Y-86799840D01*
X143419184Y-86762457D01*
X143406879Y-86721893D01*
X143402700Y-86679464D01*
X143402700Y-86162456D01*
X143406879Y-86120027D01*
X143419184Y-86079463D01*
X143439166Y-86042080D01*
X143466055Y-86009315D01*
X143498820Y-85982426D01*
X143536203Y-85962444D01*
X143576767Y-85950139D01*
X143619196Y-85945960D01*
X144061204Y-85945960D01*
X144103633Y-85950139D01*
G37*
G36*
X142528633Y-85950139D02*
G01*
X142569197Y-85962444D01*
X142606580Y-85982426D01*
X142639345Y-86009315D01*
X142666234Y-86042080D01*
X142686216Y-86079463D01*
X142698521Y-86120027D01*
X142702700Y-86162456D01*
X142702700Y-86679464D01*
X142698521Y-86721893D01*
X142686216Y-86762457D01*
X142666234Y-86799840D01*
X142639345Y-86832605D01*
X142606580Y-86859494D01*
X142569197Y-86879476D01*
X142528633Y-86891781D01*
X142486204Y-86895960D01*
X142044196Y-86895960D01*
X142001767Y-86891781D01*
X141961203Y-86879476D01*
X141923820Y-86859494D01*
X141891055Y-86832605D01*
X141864166Y-86799840D01*
X141844184Y-86762457D01*
X141831879Y-86721893D01*
X141827700Y-86679464D01*
X141827700Y-86162456D01*
X141831879Y-86120027D01*
X141844184Y-86079463D01*
X141864166Y-86042080D01*
X141891055Y-86009315D01*
X141923820Y-85982426D01*
X141961203Y-85962444D01*
X142001767Y-85950139D01*
X142044196Y-85945960D01*
X142486204Y-85945960D01*
X142528633Y-85950139D01*
G37*
G36*
X141250000Y-86760000D02*
G01*
X140350000Y-86760000D01*
X140350000Y-85960000D01*
X141250000Y-85960000D01*
X141250000Y-86760000D01*
G37*
G36*
X156100000Y-86750000D02*
G01*
X154600000Y-86750000D01*
X154600000Y-86300000D01*
X156100000Y-86300000D01*
X156100000Y-86750000D01*
G37*
G36*
X150200000Y-86750000D02*
G01*
X148700000Y-86750000D01*
X148700000Y-86300000D01*
X150200000Y-86300000D01*
X150200000Y-86750000D01*
G37*
G36*
X162128200Y-86639400D02*
G01*
X161417000Y-86639400D01*
X161417000Y-86487000D01*
X162128200Y-86487000D01*
X162128200Y-86639400D01*
G37*
G36*
X159131000Y-86639400D02*
G01*
X158419800Y-86639400D01*
X158419800Y-86487000D01*
X159131000Y-86487000D01*
X159131000Y-86639400D01*
G37*
G36*
X137600933Y-85766679D02*
G01*
X137641497Y-85778984D01*
X137678880Y-85798966D01*
X137711645Y-85825855D01*
X137738534Y-85858620D01*
X137758516Y-85896003D01*
X137770821Y-85936567D01*
X137775000Y-85978996D01*
X137775000Y-86421004D01*
X137770821Y-86463433D01*
X137758516Y-86503997D01*
X137738534Y-86541380D01*
X137711645Y-86574145D01*
X137678880Y-86601034D01*
X137641497Y-86621016D01*
X137600933Y-86633321D01*
X137558504Y-86637500D01*
X137041496Y-86637500D01*
X136999067Y-86633321D01*
X136958503Y-86621016D01*
X136921120Y-86601034D01*
X136888355Y-86574145D01*
X136861466Y-86541380D01*
X136841484Y-86503997D01*
X136829179Y-86463433D01*
X136825000Y-86421004D01*
X136825000Y-85978996D01*
X136829179Y-85936567D01*
X136841484Y-85896003D01*
X136861466Y-85858620D01*
X136888355Y-85825855D01*
X136921120Y-85798966D01*
X136958503Y-85778984D01*
X136999067Y-85766679D01*
X137041496Y-85762500D01*
X137558504Y-85762500D01*
X137600933Y-85766679D01*
G37*
G36*
X147700933Y-85479179D02*
G01*
X147741497Y-85491484D01*
X147778880Y-85511466D01*
X147811645Y-85538355D01*
X147838534Y-85571120D01*
X147858516Y-85608503D01*
X147870821Y-85649067D01*
X147875000Y-85691496D01*
X147875000Y-86133504D01*
X147870821Y-86175933D01*
X147858516Y-86216497D01*
X147838534Y-86253880D01*
X147811645Y-86286645D01*
X147778880Y-86313534D01*
X147741497Y-86333516D01*
X147700933Y-86345821D01*
X147658504Y-86350000D01*
X147141496Y-86350000D01*
X147099067Y-86345821D01*
X147058503Y-86333516D01*
X147021120Y-86313534D01*
X146988355Y-86286645D01*
X146961466Y-86253880D01*
X146941484Y-86216497D01*
X146929179Y-86175933D01*
X146925000Y-86133504D01*
X146925000Y-85691496D01*
X146929179Y-85649067D01*
X146941484Y-85608503D01*
X146961466Y-85571120D01*
X146988355Y-85538355D01*
X147021120Y-85511466D01*
X147058503Y-85491484D01*
X147099067Y-85479179D01*
X147141496Y-85475000D01*
X147658504Y-85475000D01*
X147700933Y-85479179D01*
G37*
G36*
X159131000Y-86239401D02*
G01*
X158419800Y-86239401D01*
X158419800Y-86087001D01*
X159131000Y-86087001D01*
X159131000Y-86239401D01*
G37*
G36*
X162128200Y-86239401D02*
G01*
X161417000Y-86239401D01*
X161417000Y-86087001D01*
X162128200Y-86087001D01*
X162128200Y-86239401D01*
G37*
G36*
X150200000Y-86100000D02*
G01*
X148700000Y-86100000D01*
X148700000Y-85650000D01*
X150200000Y-85650000D01*
X150200000Y-86100000D01*
G37*
G36*
X156100000Y-86100000D02*
G01*
X154600000Y-86100000D01*
X154600000Y-85650000D01*
X156100000Y-85650000D01*
X156100000Y-86100000D01*
G37*
G36*
X162128200Y-85839399D02*
G01*
X161417000Y-85839399D01*
X161417000Y-85686999D01*
X162128200Y-85686999D01*
X162128200Y-85839399D01*
G37*
G36*
X159131000Y-85839399D02*
G01*
X158419800Y-85839399D01*
X158419800Y-85686999D01*
X159131000Y-85686999D01*
X159131000Y-85839399D01*
G37*
G36*
X157526933Y-84941679D02*
G01*
X157567497Y-84953984D01*
X157604880Y-84973966D01*
X157637645Y-85000855D01*
X157664534Y-85033620D01*
X157684516Y-85071003D01*
X157696821Y-85111567D01*
X157701000Y-85153996D01*
X157701000Y-85596004D01*
X157696821Y-85638433D01*
X157684516Y-85678997D01*
X157664534Y-85716380D01*
X157637645Y-85749145D01*
X157604880Y-85776034D01*
X157567497Y-85796016D01*
X157526933Y-85808321D01*
X157484504Y-85812500D01*
X156967496Y-85812500D01*
X156925067Y-85808321D01*
X156884503Y-85796016D01*
X156847120Y-85776034D01*
X156814355Y-85749145D01*
X156787466Y-85716380D01*
X156767484Y-85678997D01*
X156755179Y-85638433D01*
X156751000Y-85596004D01*
X156751000Y-85153996D01*
X156755179Y-85111567D01*
X156767484Y-85071003D01*
X156787466Y-85033620D01*
X156814355Y-85000855D01*
X156847120Y-84973966D01*
X156884503Y-84953984D01*
X156925067Y-84941679D01*
X156967496Y-84937500D01*
X157484504Y-84937500D01*
X157526933Y-84941679D01*
G37*
G36*
X146100933Y-84941679D02*
G01*
X146141497Y-84953984D01*
X146178880Y-84973966D01*
X146211645Y-85000855D01*
X146238534Y-85033620D01*
X146258516Y-85071003D01*
X146270821Y-85111567D01*
X146275000Y-85153996D01*
X146275000Y-85596004D01*
X146270821Y-85638433D01*
X146258516Y-85678997D01*
X146238534Y-85716380D01*
X146211645Y-85749145D01*
X146178880Y-85776034D01*
X146141497Y-85796016D01*
X146100933Y-85808321D01*
X146058504Y-85812500D01*
X145541496Y-85812500D01*
X145499067Y-85808321D01*
X145458503Y-85796016D01*
X145421120Y-85776034D01*
X145388355Y-85749145D01*
X145361466Y-85716380D01*
X145341484Y-85678997D01*
X145329179Y-85638433D01*
X145325000Y-85596004D01*
X145325000Y-85153996D01*
X145329179Y-85111567D01*
X145341484Y-85071003D01*
X145361466Y-85033620D01*
X145388355Y-85000855D01*
X145421120Y-84973966D01*
X145458503Y-84953984D01*
X145499067Y-84941679D01*
X145541496Y-84937500D01*
X146058504Y-84937500D01*
X146100933Y-84941679D01*
G37*
G36*
X139250000Y-85810000D02*
G01*
X138350000Y-85810000D01*
X138350000Y-85010000D01*
X139250000Y-85010000D01*
X139250000Y-85810000D01*
G37*
G36*
X156100000Y-85450000D02*
G01*
X154600000Y-85450000D01*
X154600000Y-85000000D01*
X156100000Y-85000000D01*
X156100000Y-85450000D01*
G37*
G36*
X150200000Y-85450000D02*
G01*
X148700000Y-85450000D01*
X148700000Y-85000000D01*
X150200000Y-85000000D01*
X150200000Y-85450000D01*
G37*
G36*
X162128200Y-85439400D02*
G01*
X161417000Y-85439400D01*
X161417000Y-85287000D01*
X162128200Y-85287000D01*
X162128200Y-85439400D01*
G37*
G36*
X159131000Y-85439400D02*
G01*
X158419800Y-85439400D01*
X158419800Y-85287000D01*
X159131000Y-85287000D01*
X159131000Y-85439400D01*
G37*
G36*
X142811920Y-85251320D02*
G01*
X141911920Y-85251320D01*
X141911920Y-84451320D01*
X142811920Y-84451320D01*
X142811920Y-85251320D01*
G37*
G36*
X163622933Y-84047079D02*
G01*
X163663497Y-84059384D01*
X163700880Y-84079366D01*
X163733645Y-84106255D01*
X163760534Y-84139020D01*
X163780516Y-84176403D01*
X163792821Y-84216967D01*
X163797000Y-84259396D01*
X163797000Y-84701404D01*
X163792821Y-84743833D01*
X163780516Y-84784397D01*
X163760534Y-84821780D01*
X163733645Y-84854545D01*
X163700880Y-84881434D01*
X163663497Y-84901416D01*
X163622933Y-84913721D01*
X163580504Y-84917900D01*
X163063496Y-84917900D01*
X163021067Y-84913721D01*
X162980503Y-84901416D01*
X162943120Y-84881434D01*
X162910355Y-84854545D01*
X162883466Y-84821780D01*
X162863484Y-84784397D01*
X162851179Y-84743833D01*
X162847000Y-84701404D01*
X162847000Y-84259396D01*
X162851179Y-84216967D01*
X162863484Y-84176403D01*
X162883466Y-84139020D01*
X162910355Y-84106255D01*
X162943120Y-84079366D01*
X162980503Y-84059384D01*
X163021067Y-84047079D01*
X163063496Y-84042900D01*
X163580504Y-84042900D01*
X163622933Y-84047079D01*
G37*
G36*
X141250000Y-84860000D02*
G01*
X140350000Y-84860000D01*
X140350000Y-84060000D01*
X141250000Y-84060000D01*
X141250000Y-84860000D01*
G37*
G36*
X150200000Y-84800000D02*
G01*
X148700000Y-84800000D01*
X148700000Y-84350000D01*
X150200000Y-84350000D01*
X150200000Y-84800000D01*
G37*
G36*
X156100000Y-84800000D02*
G01*
X154600000Y-84800000D01*
X154600000Y-84350000D01*
X156100000Y-84350000D01*
X156100000Y-84800000D01*
G37*
G36*
X137243769Y-82953822D02*
G01*
X137380255Y-83010357D01*
X137503097Y-83092437D01*
X137607563Y-83196903D01*
X137689643Y-83319745D01*
X137746178Y-83456231D01*
X137775000Y-83601131D01*
X137775000Y-83748869D01*
X137746178Y-83893769D01*
X137689643Y-84030255D01*
X137607563Y-84153097D01*
X137503097Y-84257563D01*
X137380255Y-84339643D01*
X137243769Y-84396178D01*
X137098869Y-84425000D01*
X136951131Y-84425000D01*
X136806231Y-84396178D01*
X136669745Y-84339643D01*
X136546903Y-84257563D01*
X136442437Y-84153097D01*
X136360357Y-84030255D01*
X136303822Y-83893769D01*
X136275000Y-83748869D01*
X136275000Y-83601131D01*
X136303822Y-83456231D01*
X136360357Y-83319745D01*
X136442437Y-83196903D01*
X136546903Y-83092437D01*
X136669745Y-83010357D01*
X136806231Y-82953822D01*
X136951131Y-82925000D01*
X137098869Y-82925000D01*
X137243769Y-82953822D01*
G37*
G36*
X159902233Y-83399979D02*
G01*
X159942797Y-83412284D01*
X159980180Y-83432266D01*
X160012945Y-83459155D01*
X160039834Y-83491920D01*
X160059816Y-83529303D01*
X160072121Y-83569867D01*
X160076300Y-83612296D01*
X160076300Y-84129304D01*
X160072121Y-84171733D01*
X160059816Y-84212297D01*
X160039834Y-84249680D01*
X160012945Y-84282445D01*
X159980180Y-84309334D01*
X159942797Y-84329316D01*
X159902233Y-84341621D01*
X159859804Y-84345800D01*
X159417796Y-84345800D01*
X159375367Y-84341621D01*
X159334803Y-84329316D01*
X159297420Y-84309334D01*
X159264655Y-84282445D01*
X159237766Y-84249680D01*
X159217784Y-84212297D01*
X159205479Y-84171733D01*
X159201300Y-84129304D01*
X159201300Y-83612296D01*
X159205479Y-83569867D01*
X159217784Y-83529303D01*
X159237766Y-83491920D01*
X159264655Y-83459155D01*
X159297420Y-83432266D01*
X159334803Y-83412284D01*
X159375367Y-83399979D01*
X159417796Y-83395800D01*
X159859804Y-83395800D01*
X159902233Y-83399979D01*
G37*
G36*
X161477233Y-83399979D02*
G01*
X161517797Y-83412284D01*
X161555180Y-83432266D01*
X161587945Y-83459155D01*
X161614834Y-83491920D01*
X161634816Y-83529303D01*
X161647121Y-83569867D01*
X161651300Y-83612296D01*
X161651300Y-84129304D01*
X161647121Y-84171733D01*
X161634816Y-84212297D01*
X161614834Y-84249680D01*
X161587945Y-84282445D01*
X161555180Y-84309334D01*
X161517797Y-84329316D01*
X161477233Y-84341621D01*
X161434804Y-84345800D01*
X160992796Y-84345800D01*
X160950367Y-84341621D01*
X160909803Y-84329316D01*
X160872420Y-84309334D01*
X160839655Y-84282445D01*
X160812766Y-84249680D01*
X160792784Y-84212297D01*
X160780479Y-84171733D01*
X160776300Y-84129304D01*
X160776300Y-83612296D01*
X160780479Y-83569867D01*
X160792784Y-83529303D01*
X160812766Y-83491920D01*
X160839655Y-83459155D01*
X160872420Y-83432266D01*
X160909803Y-83412284D01*
X160950367Y-83399979D01*
X160992796Y-83395800D01*
X161434804Y-83395800D01*
X161477233Y-83399979D01*
G37*
G36*
X144811920Y-84301320D02*
G01*
X143911920Y-84301320D01*
X143911920Y-83501320D01*
X144811920Y-83501320D01*
X144811920Y-84301320D01*
G37*
G36*
X146100933Y-83366679D02*
G01*
X146141497Y-83378984D01*
X146178880Y-83398966D01*
X146211645Y-83425855D01*
X146238534Y-83458620D01*
X146258516Y-83496003D01*
X146270821Y-83536567D01*
X146275000Y-83578996D01*
X146275000Y-84021004D01*
X146270821Y-84063433D01*
X146258516Y-84103997D01*
X146238534Y-84141380D01*
X146211645Y-84174145D01*
X146178880Y-84201034D01*
X146141497Y-84221016D01*
X146100933Y-84233321D01*
X146058504Y-84237500D01*
X145541496Y-84237500D01*
X145499067Y-84233321D01*
X145458503Y-84221016D01*
X145421120Y-84201034D01*
X145388355Y-84174145D01*
X145361466Y-84141380D01*
X145341484Y-84103997D01*
X145329179Y-84063433D01*
X145325000Y-84021004D01*
X145325000Y-83578996D01*
X145329179Y-83536567D01*
X145341484Y-83496003D01*
X145361466Y-83458620D01*
X145388355Y-83425855D01*
X145421120Y-83398966D01*
X145458503Y-83378984D01*
X145499067Y-83366679D01*
X145541496Y-83362500D01*
X146058504Y-83362500D01*
X146100933Y-83366679D01*
G37*
G36*
X157526933Y-83366679D02*
G01*
X157567497Y-83378984D01*
X157604880Y-83398966D01*
X157637645Y-83425855D01*
X157664534Y-83458620D01*
X157684516Y-83496003D01*
X157696821Y-83536567D01*
X157701000Y-83578996D01*
X157701000Y-84021004D01*
X157696821Y-84063433D01*
X157684516Y-84103997D01*
X157664534Y-84141380D01*
X157637645Y-84174145D01*
X157604880Y-84201034D01*
X157567497Y-84221016D01*
X157526933Y-84233321D01*
X157484504Y-84237500D01*
X156967496Y-84237500D01*
X156925067Y-84233321D01*
X156884503Y-84221016D01*
X156847120Y-84201034D01*
X156814355Y-84174145D01*
X156787466Y-84141380D01*
X156767484Y-84103997D01*
X156755179Y-84063433D01*
X156751000Y-84021004D01*
X156751000Y-83578996D01*
X156755179Y-83536567D01*
X156767484Y-83496003D01*
X156787466Y-83458620D01*
X156814355Y-83425855D01*
X156847120Y-83398966D01*
X156884503Y-83378984D01*
X156925067Y-83366679D01*
X156967496Y-83362500D01*
X157484504Y-83362500D01*
X157526933Y-83366679D01*
G37*
G36*
X156100000Y-84150000D02*
G01*
X154600000Y-84150000D01*
X154600000Y-83700000D01*
X156100000Y-83700000D01*
X156100000Y-84150000D01*
G37*
G36*
X150200000Y-84150000D02*
G01*
X148700000Y-84150000D01*
X148700000Y-83700000D01*
X150200000Y-83700000D01*
X150200000Y-84150000D01*
G37*
G36*
X156100000Y-83500000D02*
G01*
X154600000Y-83500000D01*
X154600000Y-83050000D01*
X156100000Y-83050000D01*
X156100000Y-83500000D01*
G37*
G36*
X150200000Y-83500000D02*
G01*
X148700000Y-83500000D01*
X148700000Y-83050000D01*
X150200000Y-83050000D01*
X150200000Y-83500000D01*
G37*
G36*
X142811920Y-83351320D02*
G01*
X141911920Y-83351320D01*
X141911920Y-82551320D01*
X142811920Y-82551320D01*
X142811920Y-83351320D01*
G37*
G36*
X163622933Y-82472079D02*
G01*
X163663497Y-82484384D01*
X163700880Y-82504366D01*
X163733645Y-82531255D01*
X163760534Y-82564020D01*
X163780516Y-82601403D01*
X163792821Y-82641967D01*
X163797000Y-82684396D01*
X163797000Y-83126404D01*
X163792821Y-83168833D01*
X163780516Y-83209397D01*
X163760534Y-83246780D01*
X163733645Y-83279545D01*
X163700880Y-83306434D01*
X163663497Y-83326416D01*
X163622933Y-83338721D01*
X163580504Y-83342900D01*
X163063496Y-83342900D01*
X163021067Y-83338721D01*
X162980503Y-83326416D01*
X162943120Y-83306434D01*
X162910355Y-83279545D01*
X162883466Y-83246780D01*
X162863484Y-83209397D01*
X162851179Y-83168833D01*
X162847000Y-83126404D01*
X162847000Y-82684396D01*
X162851179Y-82641967D01*
X162863484Y-82601403D01*
X162883466Y-82564020D01*
X162910355Y-82531255D01*
X162943120Y-82504366D01*
X162980503Y-82484384D01*
X163021067Y-82472079D01*
X163063496Y-82467900D01*
X163580504Y-82467900D01*
X163622933Y-82472079D01*
G37*
G36*
X126175000Y-83300000D02*
G01*
X125125000Y-83300000D01*
X125125000Y-81900000D01*
X126175000Y-81900000D01*
X126175000Y-83300000D01*
G37*
G36*
X124725000Y-83300000D02*
G01*
X123675000Y-83300000D01*
X123675000Y-81900000D01*
X124725000Y-81900000D01*
X124725000Y-83300000D01*
G37*
G36*
X141200933Y-82229179D02*
G01*
X141241497Y-82241484D01*
X141278880Y-82261466D01*
X141311645Y-82288355D01*
X141338534Y-82321120D01*
X141358516Y-82358503D01*
X141370821Y-82399067D01*
X141375000Y-82441496D01*
X141375000Y-82958504D01*
X141370821Y-83000933D01*
X141358516Y-83041497D01*
X141338534Y-83078880D01*
X141311645Y-83111645D01*
X141278880Y-83138534D01*
X141241497Y-83158516D01*
X141200933Y-83170821D01*
X141158504Y-83175000D01*
X140716496Y-83175000D01*
X140674067Y-83170821D01*
X140633503Y-83158516D01*
X140596120Y-83138534D01*
X140563355Y-83111645D01*
X140536466Y-83078880D01*
X140516484Y-83041497D01*
X140504179Y-83000933D01*
X140500000Y-82958504D01*
X140500000Y-82441496D01*
X140504179Y-82399067D01*
X140516484Y-82358503D01*
X140536466Y-82321120D01*
X140563355Y-82288355D01*
X140596120Y-82261466D01*
X140633503Y-82241484D01*
X140674067Y-82229179D01*
X140716496Y-82225000D01*
X141158504Y-82225000D01*
X141200933Y-82229179D01*
G37*
G36*
X139625933Y-82229179D02*
G01*
X139666497Y-82241484D01*
X139703880Y-82261466D01*
X139736645Y-82288355D01*
X139763534Y-82321120D01*
X139783516Y-82358503D01*
X139795821Y-82399067D01*
X139800000Y-82441496D01*
X139800000Y-82958504D01*
X139795821Y-83000933D01*
X139783516Y-83041497D01*
X139763534Y-83078880D01*
X139736645Y-83111645D01*
X139703880Y-83138534D01*
X139666497Y-83158516D01*
X139625933Y-83170821D01*
X139583504Y-83175000D01*
X139141496Y-83175000D01*
X139099067Y-83170821D01*
X139058503Y-83158516D01*
X139021120Y-83138534D01*
X138988355Y-83111645D01*
X138961466Y-83078880D01*
X138941484Y-83041497D01*
X138929179Y-83000933D01*
X138925000Y-82958504D01*
X138925000Y-82441496D01*
X138929179Y-82399067D01*
X138941484Y-82358503D01*
X138961466Y-82321120D01*
X138988355Y-82288355D01*
X139021120Y-82261466D01*
X139058503Y-82241484D01*
X139099067Y-82229179D01*
X139141496Y-82225000D01*
X139583504Y-82225000D01*
X139625933Y-82229179D01*
G37*
G36*
X161285000Y-81900000D02*
G01*
X160385000Y-81900000D01*
X160385000Y-79900000D01*
X161285000Y-79900000D01*
X161285000Y-81900000D01*
G37*
G36*
X162555000Y-81900000D02*
G01*
X161655000Y-81900000D01*
X161655000Y-79900000D01*
X162555000Y-79900000D01*
X162555000Y-81900000D01*
G37*
G36*
X160015000Y-81900000D02*
G01*
X159115000Y-81900000D01*
X159115000Y-79900000D01*
X160015000Y-79900000D01*
X160015000Y-81900000D01*
G37*
G36*
X158745000Y-81900000D02*
G01*
X157845000Y-81900000D01*
X157845000Y-79900000D01*
X158745000Y-79900000D01*
X158745000Y-81900000D01*
G37*
G36*
X146045000Y-81900000D02*
G01*
X145145000Y-81900000D01*
X145145000Y-79900000D01*
X146045000Y-79900000D01*
X146045000Y-81900000D01*
G37*
G36*
X147315000Y-81900000D02*
G01*
X146415000Y-81900000D01*
X146415000Y-79900000D01*
X147315000Y-79900000D01*
X147315000Y-81900000D01*
G37*
G36*
X148585000Y-81900000D02*
G01*
X147685000Y-81900000D01*
X147685000Y-79900000D01*
X148585000Y-79900000D01*
X148585000Y-81900000D01*
G37*
G36*
X151125000Y-81900000D02*
G01*
X150225000Y-81900000D01*
X150225000Y-79900000D01*
X151125000Y-79900000D01*
X151125000Y-81900000D01*
G37*
G36*
X152395000Y-81900000D02*
G01*
X151495000Y-81900000D01*
X151495000Y-79900000D01*
X152395000Y-79900000D01*
X152395000Y-81900000D01*
G37*
G36*
X153665000Y-81900000D02*
G01*
X152765000Y-81900000D01*
X152765000Y-79900000D01*
X153665000Y-79900000D01*
X153665000Y-81900000D01*
G37*
G36*
X157475000Y-81900000D02*
G01*
X156575000Y-81900000D01*
X156575000Y-79900000D01*
X157475000Y-79900000D01*
X157475000Y-81900000D01*
G37*
G36*
X154935000Y-81900000D02*
G01*
X154035000Y-81900000D01*
X154035000Y-79900000D01*
X154935000Y-79900000D01*
X154935000Y-81900000D01*
G37*
G36*
X156205000Y-81900000D02*
G01*
X155305000Y-81900000D01*
X155305000Y-79900000D01*
X156205000Y-79900000D01*
X156205000Y-81900000D01*
G37*
G36*
X149855000Y-81900000D02*
G01*
X148955000Y-81900000D01*
X148955000Y-79900000D01*
X149855000Y-79900000D01*
X149855000Y-81900000D01*
G37*
G36*
X139650000Y-81150000D02*
G01*
X138750000Y-81150000D01*
X138750000Y-80350000D01*
X139650000Y-80350000D01*
X139650000Y-81150000D01*
G37*
G36*
X141650000Y-80200000D02*
G01*
X140750000Y-80200000D01*
X140750000Y-79400000D01*
X141650000Y-79400000D01*
X141650000Y-80200000D01*
G37*
G36*
X134843769Y-78153822D02*
G01*
X134980255Y-78210357D01*
X135103097Y-78292437D01*
X135207563Y-78396903D01*
X135289643Y-78519745D01*
X135346178Y-78656231D01*
X135375000Y-78801131D01*
X135375000Y-78948869D01*
X135346178Y-79093769D01*
X135289643Y-79230255D01*
X135207563Y-79353097D01*
X135103097Y-79457563D01*
X134980255Y-79539643D01*
X134843769Y-79596178D01*
X134698869Y-79625000D01*
X134551131Y-79625000D01*
X134406231Y-79596178D01*
X134269745Y-79539643D01*
X134146903Y-79457563D01*
X134042437Y-79353097D01*
X133960357Y-79230255D01*
X133903822Y-79093769D01*
X133875000Y-78948869D01*
X133875000Y-78801131D01*
X133903822Y-78656231D01*
X133960357Y-78519745D01*
X134042437Y-78396903D01*
X134146903Y-78292437D01*
X134269745Y-78210357D01*
X134406231Y-78153822D01*
X134551131Y-78125000D01*
X134698869Y-78125000D01*
X134843769Y-78153822D01*
G37*
G36*
X139650000Y-79250000D02*
G01*
X138750000Y-79250000D01*
X138750000Y-78450000D01*
X139650000Y-78450000D01*
X139650000Y-79250000D01*
G37*
G36*
X137900933Y-78354179D02*
G01*
X137941497Y-78366484D01*
X137978880Y-78386466D01*
X138011645Y-78413355D01*
X138038534Y-78446120D01*
X138058516Y-78483503D01*
X138070821Y-78524067D01*
X138075000Y-78566496D01*
X138075000Y-79008504D01*
X138070821Y-79050933D01*
X138058516Y-79091497D01*
X138038534Y-79128880D01*
X138011645Y-79161645D01*
X137978880Y-79188534D01*
X137941497Y-79208516D01*
X137900933Y-79220821D01*
X137858504Y-79225000D01*
X137341496Y-79225000D01*
X137299067Y-79220821D01*
X137258503Y-79208516D01*
X137221120Y-79188534D01*
X137188355Y-79161645D01*
X137161466Y-79128880D01*
X137141484Y-79091497D01*
X137129179Y-79050933D01*
X137125000Y-79008504D01*
X137125000Y-78566496D01*
X137129179Y-78524067D01*
X137141484Y-78483503D01*
X137161466Y-78446120D01*
X137188355Y-78413355D01*
X137221120Y-78386466D01*
X137258503Y-78366484D01*
X137299067Y-78354179D01*
X137341496Y-78350000D01*
X137858504Y-78350000D01*
X137900933Y-78354179D01*
G37*
G36*
X142458769Y-77256822D02*
G01*
X142595255Y-77313357D01*
X142718097Y-77395437D01*
X142822563Y-77499903D01*
X142904643Y-77622745D01*
X142961178Y-77759231D01*
X142990000Y-77904131D01*
X142990000Y-78051869D01*
X142961178Y-78196769D01*
X142904643Y-78333255D01*
X142822563Y-78456097D01*
X142718097Y-78560563D01*
X142595255Y-78642643D01*
X142458769Y-78699178D01*
X142313869Y-78728000D01*
X142166131Y-78728000D01*
X142021231Y-78699178D01*
X141884745Y-78642643D01*
X141761903Y-78560563D01*
X141657437Y-78456097D01*
X141575357Y-78333255D01*
X141518822Y-78196769D01*
X141490000Y-78051869D01*
X141490000Y-77904131D01*
X141518822Y-77759231D01*
X141575357Y-77622745D01*
X141657437Y-77499903D01*
X141761903Y-77395437D01*
X141884745Y-77313357D01*
X142021231Y-77256822D01*
X142166131Y-77228000D01*
X142313869Y-77228000D01*
X142458769Y-77256822D01*
G37*
G36*
X145595000Y-78565000D02*
G01*
X143595000Y-78565000D01*
X143595000Y-77665000D01*
X145595000Y-77665000D01*
X145595000Y-78565000D01*
G37*
G36*
X137900933Y-76779179D02*
G01*
X137941497Y-76791484D01*
X137978880Y-76811466D01*
X138011645Y-76838355D01*
X138038534Y-76871120D01*
X138058516Y-76908503D01*
X138070821Y-76949067D01*
X138075000Y-76991496D01*
X138075000Y-77433504D01*
X138070821Y-77475933D01*
X138058516Y-77516497D01*
X138038534Y-77553880D01*
X138011645Y-77586645D01*
X137978880Y-77613534D01*
X137941497Y-77633516D01*
X137900933Y-77645821D01*
X137858504Y-77650000D01*
X137341496Y-77650000D01*
X137299067Y-77645821D01*
X137258503Y-77633516D01*
X137221120Y-77613534D01*
X137188355Y-77586645D01*
X137161466Y-77553880D01*
X137141484Y-77516497D01*
X137129179Y-77475933D01*
X137125000Y-77433504D01*
X137125000Y-76991496D01*
X137129179Y-76949067D01*
X137141484Y-76908503D01*
X137161466Y-76871120D01*
X137188355Y-76838355D01*
X137221120Y-76811466D01*
X137258503Y-76791484D01*
X137299067Y-76779179D01*
X137341496Y-76775000D01*
X137858504Y-76775000D01*
X137900933Y-76779179D01*
G37*
G36*
X145595000Y-77295000D02*
G01*
X143595000Y-77295000D01*
X143595000Y-76395000D01*
X145595000Y-76395000D01*
X145595000Y-77295000D01*
G37*
G36*
X145595000Y-76025000D02*
G01*
X143595000Y-76025000D01*
X143595000Y-75125000D01*
X145595000Y-75125000D01*
X145595000Y-76025000D01*
G37*
G36*
X139703100Y-75908101D02*
G01*
X139449100Y-75908101D01*
X139449100Y-75044501D01*
X139703100Y-75044501D01*
X139703100Y-75908101D01*
G37*
G36*
X139284000Y-75527002D02*
G01*
X138420400Y-75527002D01*
X138420400Y-75273002D01*
X139284000Y-75273002D01*
X139284000Y-75527002D01*
G37*
G36*
X140731800Y-75527002D02*
G01*
X139868200Y-75527002D01*
X139868200Y-75273002D01*
X140731800Y-75273002D01*
X140731800Y-75527002D01*
G37*
G36*
X140731800Y-75127000D02*
G01*
X139868200Y-75127000D01*
X139868200Y-74873000D01*
X140731800Y-74873000D01*
X140731800Y-75127000D01*
G37*
G36*
X139284000Y-75127000D02*
G01*
X138420400Y-75127000D01*
X138420400Y-74873000D01*
X139284000Y-74873000D01*
X139284000Y-75127000D01*
G37*
G36*
X145595000Y-74755000D02*
G01*
X143595000Y-74755000D01*
X143595000Y-73855000D01*
X145595000Y-73855000D01*
X145595000Y-74755000D01*
G37*
G36*
X139284000Y-74727001D02*
G01*
X138420400Y-74727001D01*
X138420400Y-74473001D01*
X139284000Y-74473001D01*
X139284000Y-74727001D01*
G37*
G36*
X140731800Y-74727001D02*
G01*
X139868200Y-74727001D01*
X139868200Y-74473001D01*
X140731800Y-74473001D01*
X140731800Y-74727001D01*
G37*
G36*
X140731800Y-74327002D02*
G01*
X139868200Y-74327002D01*
X139868200Y-74073002D01*
X140731800Y-74073002D01*
X140731800Y-74327002D01*
G37*
G36*
X139284000Y-74327002D02*
G01*
X138420400Y-74327002D01*
X138420400Y-74073002D01*
X139284000Y-74073002D01*
X139284000Y-74327002D01*
G37*
G36*
X139703100Y-74155501D02*
G01*
X139449100Y-74155501D01*
X139449100Y-73291901D01*
X139703100Y-73291901D01*
X139703100Y-74155501D01*
G37*
G36*
X139284000Y-73927000D02*
G01*
X138420400Y-73927000D01*
X138420400Y-73673000D01*
X139284000Y-73673000D01*
X139284000Y-73927000D01*
G37*
G36*
X140731800Y-73927000D02*
G01*
X139868200Y-73927000D01*
X139868200Y-73673000D01*
X140731800Y-73673000D01*
X140731800Y-73927000D01*
G37*
G36*
X157105000Y-73900000D02*
G01*
X152105000Y-73900000D01*
X152105000Y-68900000D01*
X157105000Y-68900000D01*
X157105000Y-73900000D01*
G37*
G36*
X145595000Y-73485000D02*
G01*
X143595000Y-73485000D01*
X143595000Y-72585000D01*
X145595000Y-72585000D01*
X145595000Y-73485000D01*
G37*
G36*
X135963433Y-71529179D02*
G01*
X136003997Y-71541484D01*
X136041380Y-71561466D01*
X136074145Y-71588355D01*
X136101034Y-71621120D01*
X136121016Y-71658503D01*
X136133321Y-71699067D01*
X136137500Y-71741496D01*
X136137500Y-72258504D01*
X136133321Y-72300933D01*
X136121016Y-72341497D01*
X136101034Y-72378880D01*
X136074145Y-72411645D01*
X136041380Y-72438534D01*
X136003997Y-72458516D01*
X135963433Y-72470821D01*
X135921004Y-72475000D01*
X135478996Y-72475000D01*
X135436567Y-72470821D01*
X135396003Y-72458516D01*
X135358620Y-72438534D01*
X135325855Y-72411645D01*
X135298966Y-72378880D01*
X135278984Y-72341497D01*
X135266679Y-72300933D01*
X135262500Y-72258504D01*
X135262500Y-71741496D01*
X135266679Y-71699067D01*
X135278984Y-71658503D01*
X135298966Y-71621120D01*
X135325855Y-71588355D01*
X135358620Y-71561466D01*
X135396003Y-71541484D01*
X135436567Y-71529179D01*
X135478996Y-71525000D01*
X135921004Y-71525000D01*
X135963433Y-71529179D01*
G37*
G36*
X137538433Y-71529179D02*
G01*
X137578997Y-71541484D01*
X137616380Y-71561466D01*
X137649145Y-71588355D01*
X137676034Y-71621120D01*
X137696016Y-71658503D01*
X137708321Y-71699067D01*
X137712500Y-71741496D01*
X137712500Y-72258504D01*
X137708321Y-72300933D01*
X137696016Y-72341497D01*
X137676034Y-72378880D01*
X137649145Y-72411645D01*
X137616380Y-72438534D01*
X137578997Y-72458516D01*
X137538433Y-72470821D01*
X137496004Y-72475000D01*
X137053996Y-72475000D01*
X137011567Y-72470821D01*
X136971003Y-72458516D01*
X136933620Y-72438534D01*
X136900855Y-72411645D01*
X136873966Y-72378880D01*
X136853984Y-72341497D01*
X136841679Y-72300933D01*
X136837500Y-72258504D01*
X136837500Y-71741496D01*
X136841679Y-71699067D01*
X136853984Y-71658503D01*
X136873966Y-71621120D01*
X136900855Y-71588355D01*
X136933620Y-71561466D01*
X136971003Y-71541484D01*
X137011567Y-71529179D01*
X137053996Y-71525000D01*
X137496004Y-71525000D01*
X137538433Y-71529179D01*
G37*
G36*
X145595000Y-72215000D02*
G01*
X143595000Y-72215000D01*
X143595000Y-71315000D01*
X145595000Y-71315000D01*
X145595000Y-72215000D01*
G37*
G36*
X139703100Y-71758101D02*
G01*
X139449100Y-71758101D01*
X139449100Y-70894501D01*
X139703100Y-70894501D01*
X139703100Y-71758101D01*
G37*
G36*
X140731800Y-71377002D02*
G01*
X139868200Y-71377002D01*
X139868200Y-71123002D01*
X140731800Y-71123002D01*
X140731800Y-71377002D01*
G37*
G36*
X139284000Y-71377002D02*
G01*
X138420400Y-71377002D01*
X138420400Y-71123002D01*
X139284000Y-71123002D01*
X139284000Y-71377002D01*
G37*
G36*
X139284000Y-70977000D02*
G01*
X138420400Y-70977000D01*
X138420400Y-70723000D01*
X139284000Y-70723000D01*
X139284000Y-70977000D01*
G37*
G36*
X140731800Y-70977000D02*
G01*
X139868200Y-70977000D01*
X139868200Y-70723000D01*
X140731800Y-70723000D01*
X140731800Y-70977000D01*
G37*
G36*
X145595000Y-70945000D02*
G01*
X143595000Y-70945000D01*
X143595000Y-70045000D01*
X145595000Y-70045000D01*
X145595000Y-70945000D01*
G37*
G36*
X140731800Y-70577001D02*
G01*
X139868200Y-70577001D01*
X139868200Y-70323001D01*
X140731800Y-70323001D01*
X140731800Y-70577001D01*
G37*
G36*
X139284000Y-70577001D02*
G01*
X138420400Y-70577001D01*
X138420400Y-70323001D01*
X139284000Y-70323001D01*
X139284000Y-70577001D01*
G37*
G36*
X140731800Y-70177002D02*
G01*
X139868200Y-70177002D01*
X139868200Y-69923002D01*
X140731800Y-69923002D01*
X140731800Y-70177002D01*
G37*
G36*
X139284000Y-70177002D02*
G01*
X138420400Y-70177002D01*
X138420400Y-69923002D01*
X139284000Y-69923002D01*
X139284000Y-70177002D01*
G37*
G36*
X139703100Y-70005501D02*
G01*
X139449100Y-70005501D01*
X139449100Y-69141901D01*
X139703100Y-69141901D01*
X139703100Y-70005501D01*
G37*
G36*
X139284000Y-69777000D02*
G01*
X138420400Y-69777000D01*
X138420400Y-69523000D01*
X139284000Y-69523000D01*
X139284000Y-69777000D01*
G37*
G36*
X140731800Y-69777000D02*
G01*
X139868200Y-69777000D01*
X139868200Y-69523000D01*
X140731800Y-69523000D01*
X140731800Y-69777000D01*
G37*
G36*
X145595000Y-69675000D02*
G01*
X143595000Y-69675000D01*
X143595000Y-68775000D01*
X145595000Y-68775000D01*
X145595000Y-69675000D01*
G37*
G36*
X124725000Y-68900000D02*
G01*
X123675000Y-68900000D01*
X123675000Y-67500000D01*
X124725000Y-67500000D01*
X124725000Y-68900000D01*
G37*
G36*
X126175000Y-68900000D02*
G01*
X125125000Y-68900000D01*
X125125000Y-67500000D01*
X126175000Y-67500000D01*
X126175000Y-68900000D01*
G37*
G36*
X145595000Y-68405000D02*
G01*
X143595000Y-68405000D01*
X143595000Y-67505000D01*
X145595000Y-67505000D01*
X145595000Y-68405000D01*
G37*
G36*
X139677000Y-67208100D02*
G01*
X139423000Y-67208100D01*
X139423000Y-66344500D01*
X139677000Y-66344500D01*
X139677000Y-67208100D01*
G37*
G36*
X145595000Y-67135000D02*
G01*
X143595000Y-67135000D01*
X143595000Y-66235000D01*
X145595000Y-66235000D01*
X145595000Y-67135000D01*
G37*
G36*
X139257900Y-66827001D02*
G01*
X138394300Y-66827001D01*
X138394300Y-66573001D01*
X139257900Y-66573001D01*
X139257900Y-66827001D01*
G37*
G36*
X140705700Y-66827001D02*
G01*
X139842100Y-66827001D01*
X139842100Y-66573001D01*
X140705700Y-66573001D01*
X140705700Y-66827001D01*
G37*
G36*
X139257900Y-66426999D02*
G01*
X138394300Y-66426999D01*
X138394300Y-66172999D01*
X139257900Y-66172999D01*
X139257900Y-66426999D01*
G37*
G36*
X140705700Y-66426999D02*
G01*
X139842100Y-66426999D01*
X139842100Y-66172999D01*
X140705700Y-66172999D01*
X140705700Y-66426999D01*
G37*
G36*
X140705700Y-66027000D02*
G01*
X139842100Y-66027000D01*
X139842100Y-65773000D01*
X140705700Y-65773000D01*
X140705700Y-66027000D01*
G37*
G36*
X139257900Y-66027000D02*
G01*
X138394300Y-66027000D01*
X138394300Y-65773000D01*
X139257900Y-65773000D01*
X139257900Y-66027000D01*
G37*
G36*
X139257900Y-65627001D02*
G01*
X138394300Y-65627001D01*
X138394300Y-65373001D01*
X139257900Y-65373001D01*
X139257900Y-65627001D01*
G37*
G36*
X140705700Y-65627001D02*
G01*
X139842100Y-65627001D01*
X139842100Y-65373001D01*
X140705700Y-65373001D01*
X140705700Y-65627001D01*
G37*
G36*
X139677000Y-65455500D02*
G01*
X139423000Y-65455500D01*
X139423000Y-64591900D01*
X139677000Y-64591900D01*
X139677000Y-65455500D01*
G37*
G36*
X126175000Y-65300000D02*
G01*
X125125000Y-65300000D01*
X125125000Y-63900000D01*
X126175000Y-63900000D01*
X126175000Y-65300000D01*
G37*
G36*
X124725000Y-65300000D02*
G01*
X123675000Y-65300000D01*
X123675000Y-63900000D01*
X124725000Y-63900000D01*
X124725000Y-65300000D01*
G37*
G36*
X140705700Y-65226999D02*
G01*
X139842100Y-65226999D01*
X139842100Y-64972999D01*
X140705700Y-64972999D01*
X140705700Y-65226999D01*
G37*
G36*
X139257900Y-65226999D02*
G01*
X138394300Y-65226999D01*
X138394300Y-64972999D01*
X139257900Y-64972999D01*
X139257900Y-65226999D01*
G37*
G36*
X156205000Y-64900000D02*
G01*
X155305000Y-64900000D01*
X155305000Y-62900000D01*
X156205000Y-62900000D01*
X156205000Y-64900000D01*
G37*
G36*
X160015000Y-64900000D02*
G01*
X159115000Y-64900000D01*
X159115000Y-62900000D01*
X160015000Y-62900000D01*
X160015000Y-64900000D01*
G37*
G36*
X154935000Y-64900000D02*
G01*
X154035000Y-64900000D01*
X154035000Y-62900000D01*
X154935000Y-62900000D01*
X154935000Y-64900000D01*
G37*
G36*
X153665000Y-64900000D02*
G01*
X152765000Y-64900000D01*
X152765000Y-62900000D01*
X153665000Y-62900000D01*
X153665000Y-64900000D01*
G37*
G36*
X152395000Y-64900000D02*
G01*
X151495000Y-64900000D01*
X151495000Y-62900000D01*
X152395000Y-62900000D01*
X152395000Y-64900000D01*
G37*
G36*
X151125000Y-64900000D02*
G01*
X150225000Y-64900000D01*
X150225000Y-62900000D01*
X151125000Y-62900000D01*
X151125000Y-64900000D01*
G37*
G36*
X149855000Y-64900000D02*
G01*
X148955000Y-64900000D01*
X148955000Y-62900000D01*
X149855000Y-62900000D01*
X149855000Y-64900000D01*
G37*
G36*
X148585000Y-64900000D02*
G01*
X147685000Y-64900000D01*
X147685000Y-62900000D01*
X148585000Y-62900000D01*
X148585000Y-64900000D01*
G37*
G36*
X146045000Y-64900000D02*
G01*
X145145000Y-64900000D01*
X145145000Y-62900000D01*
X146045000Y-62900000D01*
X146045000Y-64900000D01*
G37*
G36*
X147315000Y-64900000D02*
G01*
X146415000Y-64900000D01*
X146415000Y-62900000D01*
X147315000Y-62900000D01*
X147315000Y-64900000D01*
G37*
G36*
X161285000Y-64900000D02*
G01*
X160385000Y-64900000D01*
X160385000Y-62900000D01*
X161285000Y-62900000D01*
X161285000Y-64900000D01*
G37*
G36*
X162555000Y-64900000D02*
G01*
X161655000Y-64900000D01*
X161655000Y-62900000D01*
X162555000Y-62900000D01*
X162555000Y-64900000D01*
G37*
G36*
X158745000Y-64900000D02*
G01*
X157845000Y-64900000D01*
X157845000Y-62900000D01*
X158745000Y-62900000D01*
X158745000Y-64900000D01*
G37*
G36*
X157475000Y-64900000D02*
G01*
X156575000Y-64900000D01*
X156575000Y-62900000D01*
X157475000Y-62900000D01*
X157475000Y-64900000D01*
G37*
G36*
X137632769Y-63032822D02*
G01*
X137769255Y-63089357D01*
X137892097Y-63171437D01*
X137996563Y-63275903D01*
X138078643Y-63398745D01*
X138135178Y-63535231D01*
X138164000Y-63680131D01*
X138164000Y-63827869D01*
X138135178Y-63972769D01*
X138078643Y-64109255D01*
X137996563Y-64232097D01*
X137892097Y-64336563D01*
X137769255Y-64418643D01*
X137632769Y-64475178D01*
X137487869Y-64504000D01*
X137340131Y-64504000D01*
X137195231Y-64475178D01*
X137058745Y-64418643D01*
X136935903Y-64336563D01*
X136831437Y-64232097D01*
X136749357Y-64109255D01*
X136692822Y-63972769D01*
X136664000Y-63827869D01*
X136664000Y-63680131D01*
X136692822Y-63535231D01*
X136749357Y-63398745D01*
X136831437Y-63275903D01*
X136935903Y-63171437D01*
X137058745Y-63089357D01*
X137195231Y-63032822D01*
X137340131Y-63004000D01*
X137487869Y-63004000D01*
X137632769Y-63032822D01*
G37*
G36*
X141088433Y-63129179D02*
G01*
X141128997Y-63141484D01*
X141166380Y-63161466D01*
X141199145Y-63188355D01*
X141226034Y-63221120D01*
X141246016Y-63258503D01*
X141258321Y-63299067D01*
X141262500Y-63341496D01*
X141262500Y-63858504D01*
X141258321Y-63900933D01*
X141246016Y-63941497D01*
X141226034Y-63978880D01*
X141199145Y-64011645D01*
X141166380Y-64038534D01*
X141128997Y-64058516D01*
X141088433Y-64070821D01*
X141046004Y-64075000D01*
X140603996Y-64075000D01*
X140561567Y-64070821D01*
X140521003Y-64058516D01*
X140483620Y-64038534D01*
X140450855Y-64011645D01*
X140423966Y-63978880D01*
X140403984Y-63941497D01*
X140391679Y-63900933D01*
X140387500Y-63858504D01*
X140387500Y-63341496D01*
X140391679Y-63299067D01*
X140403984Y-63258503D01*
X140423966Y-63221120D01*
X140450855Y-63188355D01*
X140483620Y-63161466D01*
X140521003Y-63141484D01*
X140561567Y-63129179D01*
X140603996Y-63125000D01*
X141046004Y-63125000D01*
X141088433Y-63129179D01*
G37*
G36*
X142663433Y-63129179D02*
G01*
X142703997Y-63141484D01*
X142741380Y-63161466D01*
X142774145Y-63188355D01*
X142801034Y-63221120D01*
X142821016Y-63258503D01*
X142833321Y-63299067D01*
X142837500Y-63341496D01*
X142837500Y-63858504D01*
X142833321Y-63900933D01*
X142821016Y-63941497D01*
X142801034Y-63978880D01*
X142774145Y-64011645D01*
X142741380Y-64038534D01*
X142703997Y-64058516D01*
X142663433Y-64070821D01*
X142621004Y-64075000D01*
X142178996Y-64075000D01*
X142136567Y-64070821D01*
X142096003Y-64058516D01*
X142058620Y-64038534D01*
X142025855Y-64011645D01*
X141998966Y-63978880D01*
X141978984Y-63941497D01*
X141966679Y-63900933D01*
X141962500Y-63858504D01*
X141962500Y-63341496D01*
X141966679Y-63299067D01*
X141978984Y-63258503D01*
X141998966Y-63221120D01*
X142025855Y-63188355D01*
X142058620Y-63161466D01*
X142096003Y-63141484D01*
X142136567Y-63129179D01*
X142178996Y-63125000D01*
X142621004Y-63125000D01*
X142663433Y-63129179D01*
G37*
M02*
