M48
; DRILL file {KiCad (5.1.5)-3} date 5/4/2020 2:09:17 PM
; FORMAT={-:-/ absolute / inch / decimal}
; #@! TF.CreationDate,2020-05-04T14:09:17-04:00
; #@! TF.GenerationSoftware,Kicad,Pcbnew,(5.1.5)-3
FMAT,2
INCH
T1C0.0079
%
G90
G05
T1
X4.8788Y-3.75
X4.8894Y-2.613
X4.89Y-3.614
X4.898Y-3.77
X4.904Y-3.468
X4.9055Y-2.7717
X4.916Y-3.748
X4.9183Y-3.4843
X4.922Y-3.79
X4.9242Y-3.2894
X4.9242Y-3.3543
X4.9449Y-2.685
X4.9488Y-2.5394
X4.9903Y-3.584
X4.992Y-3.802
X5.0118Y-2.9921
X5.012Y-3.584
X5.027Y-2.9606
X5.0319Y-2.5232
X5.0421Y-2.9291
X5.0573Y-2.8661
X5.06Y-3.626
X5.0787Y-3.1181
X5.0939Y-3.0866
X5.1025Y-3.7625
X5.1063Y-3.0551
X5.1215Y-3.0236
X5.1366Y-2.8976
X5.1457Y-3.2441
X5.1608Y-3.2126
X5.1726Y-3.1811
X5.189Y-3.1496
X5.202Y-3.598
X5.2331Y-2.6787
X5.26Y-3.605
X5.285Y-3.605
X5.31Y-3.605
X5.335Y-3.605
X5.345Y-3.575
X5.348Y-3.348
X5.356Y-3.378
X5.365Y-3.605
X5.37Y-3.575
X5.3858Y-3.189
X5.3858Y-3.2126
X5.395Y-3.575
X5.4055Y-2.8346
X5.4055Y-3.4528
X5.4173Y-3.0394
X5.42Y-3.575
X5.445Y-3.575
X5.4567Y-3.5197
X5.4646Y-2.6614
X5.4646Y-2.9961
X5.4646Y-3.3159
X5.4685Y-2.8386
X5.486Y-3.4205
X5.4921Y-2.6614
X5.4961Y-2.5276
X5.4961Y-2.7087
X5.4961Y-2.8386
X5.4961Y-2.8701
X5.5Y-3.01
X5.5079Y-3.5906
X5.5236Y-2.6614
X5.5236Y-2.8386
X5.5236Y-2.9961
X5.53Y-3.21
X5.5472Y-2.5039
X5.5512Y-2.7441
X5.5535Y-2.5939
X5.5551Y-2.563
X5.5591Y-2.9055
X5.5591Y-3.1417
X5.56Y-3.21
X5.5665Y-2.7594
X5.5704Y-2.5783
X5.572Y-2.9228
X5.5827Y-2.7756
X5.5827Y-3.4882
X5.5827Y-3.5472
X5.5827Y-3.5906
X5.5876Y-2.938
X5.59Y-3.21
X5.5984Y-2.7913
X5.6029Y-2.9533
X5.62Y-3.21
X5.65Y-3.21
X5.663Y-3.4057
X5.67Y-3.552
X5.67Y-3.67
X5.68Y-3.21
X5.6927Y-2.6254
X5.7323Y-3.4449
X5.7323Y-3.5472
X5.7402Y-3.3307
X5.7441Y-3.7835
X5.7638Y-3.3976
X5.7835Y-2.938
X5.7862Y-3.2469
X5.7874Y-3.5039
X5.7956Y-3.3365
X5.8Y-3.599
X5.8041Y-3.5591
X5.807Y-3.662
X5.8071Y-3.7835
X5.811Y-3.4173
X5.8189Y-3.5433
X5.8307Y-2.5787
X5.8346Y-3.3307
X5.8386Y-3.3819
X5.8504Y-2.7913
X5.8622Y-3.7835
X5.8819Y-2.5709
X5.9016Y-2.7756
X5.9311Y-3.2795
X5.9311Y-3.4075
X5.9331Y-2.7598
X5.9415Y-3.3187
X5.9567Y-2.9409
X5.9764Y-2.5945
X5.9805Y-3.3198
X5.9843Y-3.7874
X5.9961Y-2.6929
X6.0Y-3.7165
X6.02Y-3.57
X6.0236Y-3.7087
X6.0315Y-2.9222
X6.0354Y-2.748
X6.0354Y-2.8661
X6.0472Y-3.7087
X6.06Y-3.5
X6.0661Y-3.2744
X6.0689Y-3.3287
X6.0689Y-3.3583
X6.0709Y-3.7087
X6.08Y-3.57
X6.1299Y-2.9409
X6.1417Y-3.748
X6.1445Y-3.6748
X6.1457Y-2.748
X6.1457Y-2.8701
X6.16Y-3.57
X6.1811Y-3.2992
X6.1821Y-3.185
X6.184Y-3.402
X6.1862Y-3.1154
X6.194Y-2.65
X6.1969Y-3.0622
X6.23Y-3.49
X6.2321Y-3.185
X6.2362Y-3.563
X6.2403Y-3.3366
X6.2618Y-3.7776
X6.28Y-3.55
X6.2835Y-3.3071
X6.2854Y-3.7776
X6.2957Y-3.2661
X6.296Y-3.663
X6.3091Y-3.7776
X6.32Y-3.55
X6.3248Y-3.7402
X6.3307Y-2.4921
X6.3307Y-2.5315
X6.3448Y-3.7402
X6.356Y-2.65
X6.358Y-3.51
X6.362Y-3.549
X6.3658Y-3.7402
X6.3819Y-2.4921
X6.3819Y-2.5315
X6.3819Y-3.1654
X6.3819Y-3.2047
X6.411Y-3.457
X6.417Y-3.3932
X6.431Y-3.266
X6.453Y-3.575
X6.454Y-3.445
X6.505Y-3.514
X6.5984Y-3.6772
X6.5984Y-3.7008
X6.5984Y-3.7244
X6.5984Y-3.748
X6.622Y-3.6772
X6.622Y-3.7008
X6.622Y-3.7244
X6.622Y-3.748
X6.623Y-3.521
X6.6457Y-3.6772
X6.6457Y-3.7008
X6.6457Y-3.7244
X6.6457Y-3.748
X6.656Y-3.444
X6.3012Y-3.6102
X6.3445Y-3.6102
X5.6748Y-3.6142
X5.7181Y-3.6142
T0
M30
