M48
; DRILL file {KiCad (5.1.5)-3} date 6/4/2020 9:55:06 PM
; FORMAT={-:-/ absolute / inch / decimal}
; #@! TF.CreationDate,2020-06-04T21:55:06-04:00
; #@! TF.GenerationSoftware,Kicad,Pcbnew,(5.1.5)-3
FMAT,2
INCH
T1C0.0079
%
G90
G05
T1
X4.8788Y-3.75
X4.89Y-3.614
X4.898Y-3.77
X4.904Y-3.468
X4.916Y-3.748
X4.9183Y-3.4843
X4.922Y-3.79
X4.9238Y-3.349
X4.9242Y-3.2894
X4.9449Y-2.685
X4.9488Y-2.5394
X4.9903Y-3.584
X4.992Y-3.802
X5.012Y-3.584
X5.0319Y-2.5232
X5.06Y-3.626
X5.1025Y-3.7625
X5.202Y-3.598
X5.26Y-3.605
X5.2638Y-2.685
X5.2638Y-2.7224
X5.2835Y-3.7638
X5.285Y-3.605
X5.3071Y-3.6614
X5.31Y-3.605
X5.335Y-3.605
X5.3386Y-2.813
X5.345Y-3.575
X5.3472Y-3.3059
X5.348Y-3.348
X5.3528Y-3.274
X5.356Y-3.378
X5.3583Y-2.6122
X5.3602Y-2.8091
X5.361Y-2.9606
X5.365Y-3.605
X5.37Y-3.575
X5.3701Y-3.1858
X5.3799Y-2.8189
X5.3858Y-3.7638
X5.3878Y-2.6181
X5.395Y-3.575
X5.4074Y-2.9714
X5.4087Y-3.4551
X5.4118Y-3.0472
X5.42Y-3.575
X5.445Y-3.575
X5.4567Y-3.5197
X5.4646Y-3.3159
X5.4803Y-3.7638
X5.4843Y-2.8701
X5.486Y-3.4205
X5.5079Y-3.5906
X5.5138Y-2.6122
X5.53Y-3.21
X5.5472Y-2.5039
X5.5512Y-3.6614
X5.56Y-3.21
X5.5669Y-2.7913
X5.5787Y-2.935
X5.5827Y-3.4882
X5.5827Y-3.5472
X5.5827Y-3.5906
X5.5827Y-3.7638
X5.59Y-3.21
X5.5984Y-2.8898
X5.6106Y-3.1331
X5.6187Y-2.6516
X5.6197Y-2.7094
X5.62Y-3.21
X5.6354Y-3.6626
X5.65Y-3.21
X5.663Y-3.4057
X5.67Y-3.552
X5.68Y-3.21
X5.6927Y-2.6254
X5.7323Y-3.4449
X5.7323Y-3.5472
X5.7402Y-3.3307
X5.7441Y-3.7835
X5.748Y-2.5787
X5.7638Y-3.3976
X5.7815Y-2.6756
X5.7846Y-2.615
X5.7862Y-3.2469
X5.7862Y-3.5665
X5.7874Y-3.5039
X5.7956Y-3.3365
X5.8Y-3.599
X5.807Y-3.662
X5.8071Y-3.7835
X5.811Y-3.4173
X5.8189Y-3.5433
X5.8268Y-2.5787
X5.827Y-3.125
X5.8346Y-3.3307
X5.8386Y-3.3819
X5.8415Y-2.6457
X5.8622Y-3.7835
X5.8768Y-3.1209
X5.8783Y-2.7047
X5.9291Y-2.6142
X5.9311Y-3.2795
X5.9311Y-3.4075
X5.935Y-3.1209
X5.9669Y-2.7575
X5.9843Y-3.7874
X6.0Y-3.7165
X6.0091Y-3.3252
X6.02Y-3.57
X6.0236Y-3.7087
X6.0291Y-3.1272
X6.0354Y-2.5984
X6.0354Y-2.748
X6.0354Y-2.8661
X6.0472Y-3.7087
X6.06Y-3.5
X6.0661Y-3.2744
X6.0689Y-3.3862
X6.0689Y-3.3287
X6.0709Y-3.7087
X6.08Y-3.57
X6.1217Y-2.9291
X6.1417Y-3.748
X6.1445Y-3.6748
X6.1457Y-2.748
X6.1457Y-2.8701
X6.16Y-3.57
X6.1811Y-3.2992
X6.1821Y-3.185
X6.184Y-3.402
X6.1862Y-3.1154
X6.194Y-2.65
X6.1969Y-3.0622
X6.23Y-3.49
X6.2321Y-3.185
X6.2362Y-3.563
X6.2394Y-3.2631
X6.2403Y-3.3366
X6.2618Y-3.7776
X6.2783Y-2.9622
X6.28Y-3.55
X6.2835Y-3.3071
X6.2854Y-3.7776
X6.2957Y-3.2661
X6.296Y-3.663
X6.3091Y-3.7776
X6.31Y-3.38
X6.31Y-3.43
X6.32Y-3.55
X6.3248Y-3.7402
X6.3307Y-2.4921
X6.3307Y-2.5315
X6.3319Y-2.772
X6.3448Y-3.7402
X6.347Y-3.302
X6.356Y-2.65
X6.358Y-3.51
X6.362Y-3.549
X6.3658Y-3.7402
X6.3819Y-2.4921
X6.3819Y-2.5315
X6.3819Y-3.1654
X6.3819Y-3.2047
X6.387Y-3.3461
X6.411Y-3.457
X6.417Y-3.3932
X6.431Y-3.266
X6.453Y-3.575
X6.454Y-3.445
X6.474Y-3.3421
X6.4972Y-3.415
X6.505Y-3.514
X6.5217Y-3.3832
X6.5343Y-3.2736
X6.5346Y-3.3634
X6.5644Y-3.3705
X6.5724Y-3.4063
X6.5984Y-3.6772
X6.5984Y-3.7008
X6.5984Y-3.7244
X6.5984Y-3.748
X6.622Y-3.6772
X6.622Y-3.7008
X6.622Y-3.7244
X6.622Y-3.748
X6.623Y-3.521
X6.6457Y-3.6772
X6.6457Y-3.7008
X6.6457Y-3.7244
X6.6457Y-3.748
X6.6713Y-3.4051
X5.6634Y-3.622
X5.7067Y-3.622
X6.3012Y-3.6102
X6.3445Y-3.6102
T0
M30
