G04 #@! TF.GenerationSoftware,KiCad,Pcbnew,(5.1.5)-3*
G04 #@! TF.CreationDate,2020-05-04T14:09:15-04:00*
G04 #@! TF.ProjectId,SmartWatch V4,536d6172-7457-4617-9463-682056342e6b,rev?*
G04 #@! TF.SameCoordinates,Original*
G04 #@! TF.FileFunction,Paste,Top*
G04 #@! TF.FilePolarity,Positive*
%FSLAX46Y46*%
G04 Gerber Fmt 4.6, Leading zero omitted, Abs format (unit mm)*
G04 Created by KiCad (PCBNEW (5.1.5)-3) date 2020-05-04 14:09:15*
%MOMM*%
%LPD*%
G04 APERTURE LIST*
%ADD10R,1.803400X2.387600*%
%ADD11R,0.711200X0.152400*%
%ADD12C,0.100000*%
%ADD13R,1.500000X0.450000*%
%ADD14R,0.254000X0.863600*%
%ADD15R,0.863600X0.254000*%
%ADD16R,0.900000X2.000000*%
%ADD17R,2.000000X0.900000*%
%ADD18R,5.000000X5.000000*%
%ADD19R,1.060000X0.650000*%
%ADD20R,1.050000X1.400000*%
%ADD21R,0.900000X0.800000*%
%ADD22C,1.500000*%
%ADD23R,0.400000X1.350000*%
%ADD24R,2.100000X1.600000*%
%ADD25R,1.800000X1.900000*%
%ADD26R,1.900000X1.900000*%
%ADD27R,1.200000X0.900000*%
G04 APERTURE END LIST*
D10*
X160274000Y-86563200D03*
D11*
X161772600Y-85363200D03*
X161772600Y-85763199D03*
X161772600Y-86163201D03*
X161772600Y-86563200D03*
X161772600Y-86963199D03*
X161772600Y-87363201D03*
X161772600Y-87763200D03*
X158775400Y-87763200D03*
X158775400Y-87363201D03*
X158775400Y-86963199D03*
X158775400Y-86563200D03*
X158775400Y-86163201D03*
X158775400Y-85763199D03*
X158775400Y-85363200D03*
D12*
G36*
X164254642Y-86778774D02*
G01*
X164278303Y-86782284D01*
X164301507Y-86788096D01*
X164324029Y-86796154D01*
X164345653Y-86806382D01*
X164366170Y-86818679D01*
X164385383Y-86832929D01*
X164403107Y-86848993D01*
X164419171Y-86866717D01*
X164433421Y-86885930D01*
X164445718Y-86906447D01*
X164455946Y-86928071D01*
X164464004Y-86950593D01*
X164469816Y-86973797D01*
X164473326Y-86997458D01*
X164474500Y-87021350D01*
X164474500Y-87933850D01*
X164473326Y-87957742D01*
X164469816Y-87981403D01*
X164464004Y-88004607D01*
X164455946Y-88027129D01*
X164445718Y-88048753D01*
X164433421Y-88069270D01*
X164419171Y-88088483D01*
X164403107Y-88106207D01*
X164385383Y-88122271D01*
X164366170Y-88136521D01*
X164345653Y-88148818D01*
X164324029Y-88159046D01*
X164301507Y-88167104D01*
X164278303Y-88172916D01*
X164254642Y-88176426D01*
X164230750Y-88177600D01*
X163743250Y-88177600D01*
X163719358Y-88176426D01*
X163695697Y-88172916D01*
X163672493Y-88167104D01*
X163649971Y-88159046D01*
X163628347Y-88148818D01*
X163607830Y-88136521D01*
X163588617Y-88122271D01*
X163570893Y-88106207D01*
X163554829Y-88088483D01*
X163540579Y-88069270D01*
X163528282Y-88048753D01*
X163518054Y-88027129D01*
X163509996Y-88004607D01*
X163504184Y-87981403D01*
X163500674Y-87957742D01*
X163499500Y-87933850D01*
X163499500Y-87021350D01*
X163500674Y-86997458D01*
X163504184Y-86973797D01*
X163509996Y-86950593D01*
X163518054Y-86928071D01*
X163528282Y-86906447D01*
X163540579Y-86885930D01*
X163554829Y-86866717D01*
X163570893Y-86848993D01*
X163588617Y-86832929D01*
X163607830Y-86818679D01*
X163628347Y-86806382D01*
X163649971Y-86796154D01*
X163672493Y-86788096D01*
X163695697Y-86782284D01*
X163719358Y-86778774D01*
X163743250Y-86777600D01*
X164230750Y-86777600D01*
X164254642Y-86778774D01*
G37*
G36*
X166129642Y-86778774D02*
G01*
X166153303Y-86782284D01*
X166176507Y-86788096D01*
X166199029Y-86796154D01*
X166220653Y-86806382D01*
X166241170Y-86818679D01*
X166260383Y-86832929D01*
X166278107Y-86848993D01*
X166294171Y-86866717D01*
X166308421Y-86885930D01*
X166320718Y-86906447D01*
X166330946Y-86928071D01*
X166339004Y-86950593D01*
X166344816Y-86973797D01*
X166348326Y-86997458D01*
X166349500Y-87021350D01*
X166349500Y-87933850D01*
X166348326Y-87957742D01*
X166344816Y-87981403D01*
X166339004Y-88004607D01*
X166330946Y-88027129D01*
X166320718Y-88048753D01*
X166308421Y-88069270D01*
X166294171Y-88088483D01*
X166278107Y-88106207D01*
X166260383Y-88122271D01*
X166241170Y-88136521D01*
X166220653Y-88148818D01*
X166199029Y-88159046D01*
X166176507Y-88167104D01*
X166153303Y-88172916D01*
X166129642Y-88176426D01*
X166105750Y-88177600D01*
X165618250Y-88177600D01*
X165594358Y-88176426D01*
X165570697Y-88172916D01*
X165547493Y-88167104D01*
X165524971Y-88159046D01*
X165503347Y-88148818D01*
X165482830Y-88136521D01*
X165463617Y-88122271D01*
X165445893Y-88106207D01*
X165429829Y-88088483D01*
X165415579Y-88069270D01*
X165403282Y-88048753D01*
X165393054Y-88027129D01*
X165384996Y-88004607D01*
X165379184Y-87981403D01*
X165375674Y-87957742D01*
X165374500Y-87933850D01*
X165374500Y-87021350D01*
X165375674Y-86997458D01*
X165379184Y-86973797D01*
X165384996Y-86950593D01*
X165393054Y-86928071D01*
X165403282Y-86906447D01*
X165415579Y-86885930D01*
X165429829Y-86866717D01*
X165445893Y-86848993D01*
X165463617Y-86832929D01*
X165482830Y-86818679D01*
X165503347Y-86806382D01*
X165524971Y-86796154D01*
X165547493Y-86788096D01*
X165570697Y-86782284D01*
X165594358Y-86778774D01*
X165618250Y-86777600D01*
X166105750Y-86777600D01*
X166129642Y-86778774D01*
G37*
G36*
X165492591Y-88705453D02*
G01*
X165513826Y-88708603D01*
X165534650Y-88713819D01*
X165554862Y-88721051D01*
X165574268Y-88730230D01*
X165592681Y-88741266D01*
X165609924Y-88754054D01*
X165625830Y-88768470D01*
X165640246Y-88784376D01*
X165653034Y-88801619D01*
X165664070Y-88820032D01*
X165673249Y-88839438D01*
X165680481Y-88859650D01*
X165685697Y-88880474D01*
X165688847Y-88901709D01*
X165689900Y-88923150D01*
X165689900Y-89435650D01*
X165688847Y-89457091D01*
X165685697Y-89478326D01*
X165680481Y-89499150D01*
X165673249Y-89519362D01*
X165664070Y-89538768D01*
X165653034Y-89557181D01*
X165640246Y-89574424D01*
X165625830Y-89590330D01*
X165609924Y-89604746D01*
X165592681Y-89617534D01*
X165574268Y-89628570D01*
X165554862Y-89637749D01*
X165534650Y-89644981D01*
X165513826Y-89650197D01*
X165492591Y-89653347D01*
X165471150Y-89654400D01*
X165033650Y-89654400D01*
X165012209Y-89653347D01*
X164990974Y-89650197D01*
X164970150Y-89644981D01*
X164949938Y-89637749D01*
X164930532Y-89628570D01*
X164912119Y-89617534D01*
X164894876Y-89604746D01*
X164878970Y-89590330D01*
X164864554Y-89574424D01*
X164851766Y-89557181D01*
X164840730Y-89538768D01*
X164831551Y-89519362D01*
X164824319Y-89499150D01*
X164819103Y-89478326D01*
X164815953Y-89457091D01*
X164814900Y-89435650D01*
X164814900Y-88923150D01*
X164815953Y-88901709D01*
X164819103Y-88880474D01*
X164824319Y-88859650D01*
X164831551Y-88839438D01*
X164840730Y-88820032D01*
X164851766Y-88801619D01*
X164864554Y-88784376D01*
X164878970Y-88768470D01*
X164894876Y-88754054D01*
X164912119Y-88741266D01*
X164930532Y-88730230D01*
X164949938Y-88721051D01*
X164970150Y-88713819D01*
X164990974Y-88708603D01*
X165012209Y-88705453D01*
X165033650Y-88704400D01*
X165471150Y-88704400D01*
X165492591Y-88705453D01*
G37*
G36*
X163917591Y-88705453D02*
G01*
X163938826Y-88708603D01*
X163959650Y-88713819D01*
X163979862Y-88721051D01*
X163999268Y-88730230D01*
X164017681Y-88741266D01*
X164034924Y-88754054D01*
X164050830Y-88768470D01*
X164065246Y-88784376D01*
X164078034Y-88801619D01*
X164089070Y-88820032D01*
X164098249Y-88839438D01*
X164105481Y-88859650D01*
X164110697Y-88880474D01*
X164113847Y-88901709D01*
X164114900Y-88923150D01*
X164114900Y-89435650D01*
X164113847Y-89457091D01*
X164110697Y-89478326D01*
X164105481Y-89499150D01*
X164098249Y-89519362D01*
X164089070Y-89538768D01*
X164078034Y-89557181D01*
X164065246Y-89574424D01*
X164050830Y-89590330D01*
X164034924Y-89604746D01*
X164017681Y-89617534D01*
X163999268Y-89628570D01*
X163979862Y-89637749D01*
X163959650Y-89644981D01*
X163938826Y-89650197D01*
X163917591Y-89653347D01*
X163896150Y-89654400D01*
X163458650Y-89654400D01*
X163437209Y-89653347D01*
X163415974Y-89650197D01*
X163395150Y-89644981D01*
X163374938Y-89637749D01*
X163355532Y-89628570D01*
X163337119Y-89617534D01*
X163319876Y-89604746D01*
X163303970Y-89590330D01*
X163289554Y-89574424D01*
X163276766Y-89557181D01*
X163265730Y-89538768D01*
X163256551Y-89519362D01*
X163249319Y-89499150D01*
X163244103Y-89478326D01*
X163240953Y-89457091D01*
X163239900Y-89435650D01*
X163239900Y-88923150D01*
X163240953Y-88901709D01*
X163244103Y-88880474D01*
X163249319Y-88859650D01*
X163256551Y-88839438D01*
X163265730Y-88820032D01*
X163276766Y-88801619D01*
X163289554Y-88784376D01*
X163303970Y-88768470D01*
X163319876Y-88754054D01*
X163337119Y-88741266D01*
X163355532Y-88730230D01*
X163374938Y-88721051D01*
X163395150Y-88713819D01*
X163415974Y-88708603D01*
X163437209Y-88705453D01*
X163458650Y-88704400D01*
X163896150Y-88704400D01*
X163917591Y-88705453D01*
G37*
G36*
X130745191Y-92490053D02*
G01*
X130766426Y-92493203D01*
X130787250Y-92498419D01*
X130807462Y-92505651D01*
X130826868Y-92514830D01*
X130845281Y-92525866D01*
X130862524Y-92538654D01*
X130878430Y-92553070D01*
X130892846Y-92568976D01*
X130905634Y-92586219D01*
X130916670Y-92604632D01*
X130925849Y-92624038D01*
X130933081Y-92644250D01*
X130938297Y-92665074D01*
X130941447Y-92686309D01*
X130942500Y-92707750D01*
X130942500Y-93220250D01*
X130941447Y-93241691D01*
X130938297Y-93262926D01*
X130933081Y-93283750D01*
X130925849Y-93303962D01*
X130916670Y-93323368D01*
X130905634Y-93341781D01*
X130892846Y-93359024D01*
X130878430Y-93374930D01*
X130862524Y-93389346D01*
X130845281Y-93402134D01*
X130826868Y-93413170D01*
X130807462Y-93422349D01*
X130787250Y-93429581D01*
X130766426Y-93434797D01*
X130745191Y-93437947D01*
X130723750Y-93439000D01*
X130286250Y-93439000D01*
X130264809Y-93437947D01*
X130243574Y-93434797D01*
X130222750Y-93429581D01*
X130202538Y-93422349D01*
X130183132Y-93413170D01*
X130164719Y-93402134D01*
X130147476Y-93389346D01*
X130131570Y-93374930D01*
X130117154Y-93359024D01*
X130104366Y-93341781D01*
X130093330Y-93323368D01*
X130084151Y-93303962D01*
X130076919Y-93283750D01*
X130071703Y-93262926D01*
X130068553Y-93241691D01*
X130067500Y-93220250D01*
X130067500Y-92707750D01*
X130068553Y-92686309D01*
X130071703Y-92665074D01*
X130076919Y-92644250D01*
X130084151Y-92624038D01*
X130093330Y-92604632D01*
X130104366Y-92586219D01*
X130117154Y-92568976D01*
X130131570Y-92553070D01*
X130147476Y-92538654D01*
X130164719Y-92525866D01*
X130183132Y-92514830D01*
X130202538Y-92505651D01*
X130222750Y-92498419D01*
X130243574Y-92493203D01*
X130264809Y-92490053D01*
X130286250Y-92489000D01*
X130723750Y-92489000D01*
X130745191Y-92490053D01*
G37*
G36*
X132320191Y-92490053D02*
G01*
X132341426Y-92493203D01*
X132362250Y-92498419D01*
X132382462Y-92505651D01*
X132401868Y-92514830D01*
X132420281Y-92525866D01*
X132437524Y-92538654D01*
X132453430Y-92553070D01*
X132467846Y-92568976D01*
X132480634Y-92586219D01*
X132491670Y-92604632D01*
X132500849Y-92624038D01*
X132508081Y-92644250D01*
X132513297Y-92665074D01*
X132516447Y-92686309D01*
X132517500Y-92707750D01*
X132517500Y-93220250D01*
X132516447Y-93241691D01*
X132513297Y-93262926D01*
X132508081Y-93283750D01*
X132500849Y-93303962D01*
X132491670Y-93323368D01*
X132480634Y-93341781D01*
X132467846Y-93359024D01*
X132453430Y-93374930D01*
X132437524Y-93389346D01*
X132420281Y-93402134D01*
X132401868Y-93413170D01*
X132382462Y-93422349D01*
X132362250Y-93429581D01*
X132341426Y-93434797D01*
X132320191Y-93437947D01*
X132298750Y-93439000D01*
X131861250Y-93439000D01*
X131839809Y-93437947D01*
X131818574Y-93434797D01*
X131797750Y-93429581D01*
X131777538Y-93422349D01*
X131758132Y-93413170D01*
X131739719Y-93402134D01*
X131722476Y-93389346D01*
X131706570Y-93374930D01*
X131692154Y-93359024D01*
X131679366Y-93341781D01*
X131668330Y-93323368D01*
X131659151Y-93303962D01*
X131651919Y-93283750D01*
X131646703Y-93262926D01*
X131643553Y-93241691D01*
X131642500Y-93220250D01*
X131642500Y-92707750D01*
X131643553Y-92686309D01*
X131646703Y-92665074D01*
X131651919Y-92644250D01*
X131659151Y-92624038D01*
X131668330Y-92604632D01*
X131679366Y-92586219D01*
X131692154Y-92568976D01*
X131706570Y-92553070D01*
X131722476Y-92538654D01*
X131739719Y-92525866D01*
X131758132Y-92514830D01*
X131777538Y-92505651D01*
X131797750Y-92498419D01*
X131818574Y-92493203D01*
X131839809Y-92490053D01*
X131861250Y-92489000D01*
X132298750Y-92489000D01*
X132320191Y-92490053D01*
G37*
G36*
X130745191Y-94014053D02*
G01*
X130766426Y-94017203D01*
X130787250Y-94022419D01*
X130807462Y-94029651D01*
X130826868Y-94038830D01*
X130845281Y-94049866D01*
X130862524Y-94062654D01*
X130878430Y-94077070D01*
X130892846Y-94092976D01*
X130905634Y-94110219D01*
X130916670Y-94128632D01*
X130925849Y-94148038D01*
X130933081Y-94168250D01*
X130938297Y-94189074D01*
X130941447Y-94210309D01*
X130942500Y-94231750D01*
X130942500Y-94744250D01*
X130941447Y-94765691D01*
X130938297Y-94786926D01*
X130933081Y-94807750D01*
X130925849Y-94827962D01*
X130916670Y-94847368D01*
X130905634Y-94865781D01*
X130892846Y-94883024D01*
X130878430Y-94898930D01*
X130862524Y-94913346D01*
X130845281Y-94926134D01*
X130826868Y-94937170D01*
X130807462Y-94946349D01*
X130787250Y-94953581D01*
X130766426Y-94958797D01*
X130745191Y-94961947D01*
X130723750Y-94963000D01*
X130286250Y-94963000D01*
X130264809Y-94961947D01*
X130243574Y-94958797D01*
X130222750Y-94953581D01*
X130202538Y-94946349D01*
X130183132Y-94937170D01*
X130164719Y-94926134D01*
X130147476Y-94913346D01*
X130131570Y-94898930D01*
X130117154Y-94883024D01*
X130104366Y-94865781D01*
X130093330Y-94847368D01*
X130084151Y-94827962D01*
X130076919Y-94807750D01*
X130071703Y-94786926D01*
X130068553Y-94765691D01*
X130067500Y-94744250D01*
X130067500Y-94231750D01*
X130068553Y-94210309D01*
X130071703Y-94189074D01*
X130076919Y-94168250D01*
X130084151Y-94148038D01*
X130093330Y-94128632D01*
X130104366Y-94110219D01*
X130117154Y-94092976D01*
X130131570Y-94077070D01*
X130147476Y-94062654D01*
X130164719Y-94049866D01*
X130183132Y-94038830D01*
X130202538Y-94029651D01*
X130222750Y-94022419D01*
X130243574Y-94017203D01*
X130264809Y-94014053D01*
X130286250Y-94013000D01*
X130723750Y-94013000D01*
X130745191Y-94014053D01*
G37*
G36*
X132320191Y-94014053D02*
G01*
X132341426Y-94017203D01*
X132362250Y-94022419D01*
X132382462Y-94029651D01*
X132401868Y-94038830D01*
X132420281Y-94049866D01*
X132437524Y-94062654D01*
X132453430Y-94077070D01*
X132467846Y-94092976D01*
X132480634Y-94110219D01*
X132491670Y-94128632D01*
X132500849Y-94148038D01*
X132508081Y-94168250D01*
X132513297Y-94189074D01*
X132516447Y-94210309D01*
X132517500Y-94231750D01*
X132517500Y-94744250D01*
X132516447Y-94765691D01*
X132513297Y-94786926D01*
X132508081Y-94807750D01*
X132500849Y-94827962D01*
X132491670Y-94847368D01*
X132480634Y-94865781D01*
X132467846Y-94883024D01*
X132453430Y-94898930D01*
X132437524Y-94913346D01*
X132420281Y-94926134D01*
X132401868Y-94937170D01*
X132382462Y-94946349D01*
X132362250Y-94953581D01*
X132341426Y-94958797D01*
X132320191Y-94961947D01*
X132298750Y-94963000D01*
X131861250Y-94963000D01*
X131839809Y-94961947D01*
X131818574Y-94958797D01*
X131797750Y-94953581D01*
X131777538Y-94946349D01*
X131758132Y-94937170D01*
X131739719Y-94926134D01*
X131722476Y-94913346D01*
X131706570Y-94898930D01*
X131692154Y-94883024D01*
X131679366Y-94865781D01*
X131668330Y-94847368D01*
X131659151Y-94827962D01*
X131651919Y-94807750D01*
X131646703Y-94786926D01*
X131643553Y-94765691D01*
X131642500Y-94744250D01*
X131642500Y-94231750D01*
X131643553Y-94210309D01*
X131646703Y-94189074D01*
X131651919Y-94168250D01*
X131659151Y-94148038D01*
X131668330Y-94128632D01*
X131679366Y-94110219D01*
X131692154Y-94092976D01*
X131706570Y-94077070D01*
X131722476Y-94062654D01*
X131739719Y-94049866D01*
X131758132Y-94038830D01*
X131777538Y-94029651D01*
X131797750Y-94022419D01*
X131818574Y-94017203D01*
X131839809Y-94014053D01*
X131861250Y-94013000D01*
X132298750Y-94013000D01*
X132320191Y-94014053D01*
G37*
G36*
X125215426Y-94652101D02*
G01*
X125221493Y-94653001D01*
X125227443Y-94654491D01*
X125233218Y-94656558D01*
X125238762Y-94659180D01*
X125244023Y-94662333D01*
X125248950Y-94665987D01*
X125253494Y-94670106D01*
X125257613Y-94674650D01*
X125261267Y-94679577D01*
X125264420Y-94684838D01*
X125267042Y-94690382D01*
X125269109Y-94696157D01*
X125270599Y-94702107D01*
X125271499Y-94708174D01*
X125271800Y-94714300D01*
X125271800Y-94839300D01*
X125271499Y-94845426D01*
X125270599Y-94851493D01*
X125269109Y-94857443D01*
X125267042Y-94863218D01*
X125264420Y-94868762D01*
X125261267Y-94874023D01*
X125257613Y-94878950D01*
X125253494Y-94883494D01*
X125248950Y-94887613D01*
X125244023Y-94891267D01*
X125238762Y-94894420D01*
X125233218Y-94897042D01*
X125227443Y-94899109D01*
X125221493Y-94900599D01*
X125215426Y-94901499D01*
X125209300Y-94901800D01*
X124509300Y-94901800D01*
X124503174Y-94901499D01*
X124497107Y-94900599D01*
X124491157Y-94899109D01*
X124485382Y-94897042D01*
X124479838Y-94894420D01*
X124474577Y-94891267D01*
X124469650Y-94887613D01*
X124465106Y-94883494D01*
X124460987Y-94878950D01*
X124457333Y-94874023D01*
X124454180Y-94868762D01*
X124451558Y-94863218D01*
X124449491Y-94857443D01*
X124448001Y-94851493D01*
X124447101Y-94845426D01*
X124446800Y-94839300D01*
X124446800Y-94714300D01*
X124447101Y-94708174D01*
X124448001Y-94702107D01*
X124449491Y-94696157D01*
X124451558Y-94690382D01*
X124454180Y-94684838D01*
X124457333Y-94679577D01*
X124460987Y-94674650D01*
X124465106Y-94670106D01*
X124469650Y-94665987D01*
X124474577Y-94662333D01*
X124479838Y-94659180D01*
X124485382Y-94656558D01*
X124491157Y-94654491D01*
X124497107Y-94653001D01*
X124503174Y-94652101D01*
X124509300Y-94651800D01*
X125209300Y-94651800D01*
X125215426Y-94652101D01*
G37*
G36*
X125215426Y-94152101D02*
G01*
X125221493Y-94153001D01*
X125227443Y-94154491D01*
X125233218Y-94156558D01*
X125238762Y-94159180D01*
X125244023Y-94162333D01*
X125248950Y-94165987D01*
X125253494Y-94170106D01*
X125257613Y-94174650D01*
X125261267Y-94179577D01*
X125264420Y-94184838D01*
X125267042Y-94190382D01*
X125269109Y-94196157D01*
X125270599Y-94202107D01*
X125271499Y-94208174D01*
X125271800Y-94214300D01*
X125271800Y-94339300D01*
X125271499Y-94345426D01*
X125270599Y-94351493D01*
X125269109Y-94357443D01*
X125267042Y-94363218D01*
X125264420Y-94368762D01*
X125261267Y-94374023D01*
X125257613Y-94378950D01*
X125253494Y-94383494D01*
X125248950Y-94387613D01*
X125244023Y-94391267D01*
X125238762Y-94394420D01*
X125233218Y-94397042D01*
X125227443Y-94399109D01*
X125221493Y-94400599D01*
X125215426Y-94401499D01*
X125209300Y-94401800D01*
X124509300Y-94401800D01*
X124503174Y-94401499D01*
X124497107Y-94400599D01*
X124491157Y-94399109D01*
X124485382Y-94397042D01*
X124479838Y-94394420D01*
X124474577Y-94391267D01*
X124469650Y-94387613D01*
X124465106Y-94383494D01*
X124460987Y-94378950D01*
X124457333Y-94374023D01*
X124454180Y-94368762D01*
X124451558Y-94363218D01*
X124449491Y-94357443D01*
X124448001Y-94351493D01*
X124447101Y-94345426D01*
X124446800Y-94339300D01*
X124446800Y-94214300D01*
X124447101Y-94208174D01*
X124448001Y-94202107D01*
X124449491Y-94196157D01*
X124451558Y-94190382D01*
X124454180Y-94184838D01*
X124457333Y-94179577D01*
X124460987Y-94174650D01*
X124465106Y-94170106D01*
X124469650Y-94165987D01*
X124474577Y-94162333D01*
X124479838Y-94159180D01*
X124485382Y-94156558D01*
X124491157Y-94154491D01*
X124497107Y-94153001D01*
X124503174Y-94152101D01*
X124509300Y-94151800D01*
X125209300Y-94151800D01*
X125215426Y-94152101D01*
G37*
G36*
X125215426Y-93652101D02*
G01*
X125221493Y-93653001D01*
X125227443Y-93654491D01*
X125233218Y-93656558D01*
X125238762Y-93659180D01*
X125244023Y-93662333D01*
X125248950Y-93665987D01*
X125253494Y-93670106D01*
X125257613Y-93674650D01*
X125261267Y-93679577D01*
X125264420Y-93684838D01*
X125267042Y-93690382D01*
X125269109Y-93696157D01*
X125270599Y-93702107D01*
X125271499Y-93708174D01*
X125271800Y-93714300D01*
X125271800Y-93839300D01*
X125271499Y-93845426D01*
X125270599Y-93851493D01*
X125269109Y-93857443D01*
X125267042Y-93863218D01*
X125264420Y-93868762D01*
X125261267Y-93874023D01*
X125257613Y-93878950D01*
X125253494Y-93883494D01*
X125248950Y-93887613D01*
X125244023Y-93891267D01*
X125238762Y-93894420D01*
X125233218Y-93897042D01*
X125227443Y-93899109D01*
X125221493Y-93900599D01*
X125215426Y-93901499D01*
X125209300Y-93901800D01*
X124509300Y-93901800D01*
X124503174Y-93901499D01*
X124497107Y-93900599D01*
X124491157Y-93899109D01*
X124485382Y-93897042D01*
X124479838Y-93894420D01*
X124474577Y-93891267D01*
X124469650Y-93887613D01*
X124465106Y-93883494D01*
X124460987Y-93878950D01*
X124457333Y-93874023D01*
X124454180Y-93868762D01*
X124451558Y-93863218D01*
X124449491Y-93857443D01*
X124448001Y-93851493D01*
X124447101Y-93845426D01*
X124446800Y-93839300D01*
X124446800Y-93714300D01*
X124447101Y-93708174D01*
X124448001Y-93702107D01*
X124449491Y-93696157D01*
X124451558Y-93690382D01*
X124454180Y-93684838D01*
X124457333Y-93679577D01*
X124460987Y-93674650D01*
X124465106Y-93670106D01*
X124469650Y-93665987D01*
X124474577Y-93662333D01*
X124479838Y-93659180D01*
X124485382Y-93656558D01*
X124491157Y-93654491D01*
X124497107Y-93653001D01*
X124503174Y-93652101D01*
X124509300Y-93651800D01*
X125209300Y-93651800D01*
X125215426Y-93652101D01*
G37*
G36*
X125215426Y-93152101D02*
G01*
X125221493Y-93153001D01*
X125227443Y-93154491D01*
X125233218Y-93156558D01*
X125238762Y-93159180D01*
X125244023Y-93162333D01*
X125248950Y-93165987D01*
X125253494Y-93170106D01*
X125257613Y-93174650D01*
X125261267Y-93179577D01*
X125264420Y-93184838D01*
X125267042Y-93190382D01*
X125269109Y-93196157D01*
X125270599Y-93202107D01*
X125271499Y-93208174D01*
X125271800Y-93214300D01*
X125271800Y-93339300D01*
X125271499Y-93345426D01*
X125270599Y-93351493D01*
X125269109Y-93357443D01*
X125267042Y-93363218D01*
X125264420Y-93368762D01*
X125261267Y-93374023D01*
X125257613Y-93378950D01*
X125253494Y-93383494D01*
X125248950Y-93387613D01*
X125244023Y-93391267D01*
X125238762Y-93394420D01*
X125233218Y-93397042D01*
X125227443Y-93399109D01*
X125221493Y-93400599D01*
X125215426Y-93401499D01*
X125209300Y-93401800D01*
X124509300Y-93401800D01*
X124503174Y-93401499D01*
X124497107Y-93400599D01*
X124491157Y-93399109D01*
X124485382Y-93397042D01*
X124479838Y-93394420D01*
X124474577Y-93391267D01*
X124469650Y-93387613D01*
X124465106Y-93383494D01*
X124460987Y-93378950D01*
X124457333Y-93374023D01*
X124454180Y-93368762D01*
X124451558Y-93363218D01*
X124449491Y-93357443D01*
X124448001Y-93351493D01*
X124447101Y-93345426D01*
X124446800Y-93339300D01*
X124446800Y-93214300D01*
X124447101Y-93208174D01*
X124448001Y-93202107D01*
X124449491Y-93196157D01*
X124451558Y-93190382D01*
X124454180Y-93184838D01*
X124457333Y-93179577D01*
X124460987Y-93174650D01*
X124465106Y-93170106D01*
X124469650Y-93165987D01*
X124474577Y-93162333D01*
X124479838Y-93159180D01*
X124485382Y-93156558D01*
X124491157Y-93154491D01*
X124497107Y-93153001D01*
X124503174Y-93152101D01*
X124509300Y-93151800D01*
X125209300Y-93151800D01*
X125215426Y-93152101D01*
G37*
G36*
X125215426Y-92652101D02*
G01*
X125221493Y-92653001D01*
X125227443Y-92654491D01*
X125233218Y-92656558D01*
X125238762Y-92659180D01*
X125244023Y-92662333D01*
X125248950Y-92665987D01*
X125253494Y-92670106D01*
X125257613Y-92674650D01*
X125261267Y-92679577D01*
X125264420Y-92684838D01*
X125267042Y-92690382D01*
X125269109Y-92696157D01*
X125270599Y-92702107D01*
X125271499Y-92708174D01*
X125271800Y-92714300D01*
X125271800Y-92839300D01*
X125271499Y-92845426D01*
X125270599Y-92851493D01*
X125269109Y-92857443D01*
X125267042Y-92863218D01*
X125264420Y-92868762D01*
X125261267Y-92874023D01*
X125257613Y-92878950D01*
X125253494Y-92883494D01*
X125248950Y-92887613D01*
X125244023Y-92891267D01*
X125238762Y-92894420D01*
X125233218Y-92897042D01*
X125227443Y-92899109D01*
X125221493Y-92900599D01*
X125215426Y-92901499D01*
X125209300Y-92901800D01*
X124509300Y-92901800D01*
X124503174Y-92901499D01*
X124497107Y-92900599D01*
X124491157Y-92899109D01*
X124485382Y-92897042D01*
X124479838Y-92894420D01*
X124474577Y-92891267D01*
X124469650Y-92887613D01*
X124465106Y-92883494D01*
X124460987Y-92878950D01*
X124457333Y-92874023D01*
X124454180Y-92868762D01*
X124451558Y-92863218D01*
X124449491Y-92857443D01*
X124448001Y-92851493D01*
X124447101Y-92845426D01*
X124446800Y-92839300D01*
X124446800Y-92714300D01*
X124447101Y-92708174D01*
X124448001Y-92702107D01*
X124449491Y-92696157D01*
X124451558Y-92690382D01*
X124454180Y-92684838D01*
X124457333Y-92679577D01*
X124460987Y-92674650D01*
X124465106Y-92670106D01*
X124469650Y-92665987D01*
X124474577Y-92662333D01*
X124479838Y-92659180D01*
X124485382Y-92656558D01*
X124491157Y-92654491D01*
X124497107Y-92653001D01*
X124503174Y-92652101D01*
X124509300Y-92651800D01*
X125209300Y-92651800D01*
X125215426Y-92652101D01*
G37*
G36*
X125865426Y-91427101D02*
G01*
X125871493Y-91428001D01*
X125877443Y-91429491D01*
X125883218Y-91431558D01*
X125888762Y-91434180D01*
X125894023Y-91437333D01*
X125898950Y-91440987D01*
X125903494Y-91445106D01*
X125907613Y-91449650D01*
X125911267Y-91454577D01*
X125914420Y-91459838D01*
X125917042Y-91465382D01*
X125919109Y-91471157D01*
X125920599Y-91477107D01*
X125921499Y-91483174D01*
X125921800Y-91489300D01*
X125921800Y-92189300D01*
X125921499Y-92195426D01*
X125920599Y-92201493D01*
X125919109Y-92207443D01*
X125917042Y-92213218D01*
X125914420Y-92218762D01*
X125911267Y-92224023D01*
X125907613Y-92228950D01*
X125903494Y-92233494D01*
X125898950Y-92237613D01*
X125894023Y-92241267D01*
X125888762Y-92244420D01*
X125883218Y-92247042D01*
X125877443Y-92249109D01*
X125871493Y-92250599D01*
X125865426Y-92251499D01*
X125859300Y-92251800D01*
X125734300Y-92251800D01*
X125728174Y-92251499D01*
X125722107Y-92250599D01*
X125716157Y-92249109D01*
X125710382Y-92247042D01*
X125704838Y-92244420D01*
X125699577Y-92241267D01*
X125694650Y-92237613D01*
X125690106Y-92233494D01*
X125685987Y-92228950D01*
X125682333Y-92224023D01*
X125679180Y-92218762D01*
X125676558Y-92213218D01*
X125674491Y-92207443D01*
X125673001Y-92201493D01*
X125672101Y-92195426D01*
X125671800Y-92189300D01*
X125671800Y-91489300D01*
X125672101Y-91483174D01*
X125673001Y-91477107D01*
X125674491Y-91471157D01*
X125676558Y-91465382D01*
X125679180Y-91459838D01*
X125682333Y-91454577D01*
X125685987Y-91449650D01*
X125690106Y-91445106D01*
X125694650Y-91440987D01*
X125699577Y-91437333D01*
X125704838Y-91434180D01*
X125710382Y-91431558D01*
X125716157Y-91429491D01*
X125722107Y-91428001D01*
X125728174Y-91427101D01*
X125734300Y-91426800D01*
X125859300Y-91426800D01*
X125865426Y-91427101D01*
G37*
G36*
X126365426Y-91427101D02*
G01*
X126371493Y-91428001D01*
X126377443Y-91429491D01*
X126383218Y-91431558D01*
X126388762Y-91434180D01*
X126394023Y-91437333D01*
X126398950Y-91440987D01*
X126403494Y-91445106D01*
X126407613Y-91449650D01*
X126411267Y-91454577D01*
X126414420Y-91459838D01*
X126417042Y-91465382D01*
X126419109Y-91471157D01*
X126420599Y-91477107D01*
X126421499Y-91483174D01*
X126421800Y-91489300D01*
X126421800Y-92189300D01*
X126421499Y-92195426D01*
X126420599Y-92201493D01*
X126419109Y-92207443D01*
X126417042Y-92213218D01*
X126414420Y-92218762D01*
X126411267Y-92224023D01*
X126407613Y-92228950D01*
X126403494Y-92233494D01*
X126398950Y-92237613D01*
X126394023Y-92241267D01*
X126388762Y-92244420D01*
X126383218Y-92247042D01*
X126377443Y-92249109D01*
X126371493Y-92250599D01*
X126365426Y-92251499D01*
X126359300Y-92251800D01*
X126234300Y-92251800D01*
X126228174Y-92251499D01*
X126222107Y-92250599D01*
X126216157Y-92249109D01*
X126210382Y-92247042D01*
X126204838Y-92244420D01*
X126199577Y-92241267D01*
X126194650Y-92237613D01*
X126190106Y-92233494D01*
X126185987Y-92228950D01*
X126182333Y-92224023D01*
X126179180Y-92218762D01*
X126176558Y-92213218D01*
X126174491Y-92207443D01*
X126173001Y-92201493D01*
X126172101Y-92195426D01*
X126171800Y-92189300D01*
X126171800Y-91489300D01*
X126172101Y-91483174D01*
X126173001Y-91477107D01*
X126174491Y-91471157D01*
X126176558Y-91465382D01*
X126179180Y-91459838D01*
X126182333Y-91454577D01*
X126185987Y-91449650D01*
X126190106Y-91445106D01*
X126194650Y-91440987D01*
X126199577Y-91437333D01*
X126204838Y-91434180D01*
X126210382Y-91431558D01*
X126216157Y-91429491D01*
X126222107Y-91428001D01*
X126228174Y-91427101D01*
X126234300Y-91426800D01*
X126359300Y-91426800D01*
X126365426Y-91427101D01*
G37*
G36*
X126865426Y-91427101D02*
G01*
X126871493Y-91428001D01*
X126877443Y-91429491D01*
X126883218Y-91431558D01*
X126888762Y-91434180D01*
X126894023Y-91437333D01*
X126898950Y-91440987D01*
X126903494Y-91445106D01*
X126907613Y-91449650D01*
X126911267Y-91454577D01*
X126914420Y-91459838D01*
X126917042Y-91465382D01*
X126919109Y-91471157D01*
X126920599Y-91477107D01*
X126921499Y-91483174D01*
X126921800Y-91489300D01*
X126921800Y-92189300D01*
X126921499Y-92195426D01*
X126920599Y-92201493D01*
X126919109Y-92207443D01*
X126917042Y-92213218D01*
X126914420Y-92218762D01*
X126911267Y-92224023D01*
X126907613Y-92228950D01*
X126903494Y-92233494D01*
X126898950Y-92237613D01*
X126894023Y-92241267D01*
X126888762Y-92244420D01*
X126883218Y-92247042D01*
X126877443Y-92249109D01*
X126871493Y-92250599D01*
X126865426Y-92251499D01*
X126859300Y-92251800D01*
X126734300Y-92251800D01*
X126728174Y-92251499D01*
X126722107Y-92250599D01*
X126716157Y-92249109D01*
X126710382Y-92247042D01*
X126704838Y-92244420D01*
X126699577Y-92241267D01*
X126694650Y-92237613D01*
X126690106Y-92233494D01*
X126685987Y-92228950D01*
X126682333Y-92224023D01*
X126679180Y-92218762D01*
X126676558Y-92213218D01*
X126674491Y-92207443D01*
X126673001Y-92201493D01*
X126672101Y-92195426D01*
X126671800Y-92189300D01*
X126671800Y-91489300D01*
X126672101Y-91483174D01*
X126673001Y-91477107D01*
X126674491Y-91471157D01*
X126676558Y-91465382D01*
X126679180Y-91459838D01*
X126682333Y-91454577D01*
X126685987Y-91449650D01*
X126690106Y-91445106D01*
X126694650Y-91440987D01*
X126699577Y-91437333D01*
X126704838Y-91434180D01*
X126710382Y-91431558D01*
X126716157Y-91429491D01*
X126722107Y-91428001D01*
X126728174Y-91427101D01*
X126734300Y-91426800D01*
X126859300Y-91426800D01*
X126865426Y-91427101D01*
G37*
G36*
X127365426Y-91427101D02*
G01*
X127371493Y-91428001D01*
X127377443Y-91429491D01*
X127383218Y-91431558D01*
X127388762Y-91434180D01*
X127394023Y-91437333D01*
X127398950Y-91440987D01*
X127403494Y-91445106D01*
X127407613Y-91449650D01*
X127411267Y-91454577D01*
X127414420Y-91459838D01*
X127417042Y-91465382D01*
X127419109Y-91471157D01*
X127420599Y-91477107D01*
X127421499Y-91483174D01*
X127421800Y-91489300D01*
X127421800Y-92189300D01*
X127421499Y-92195426D01*
X127420599Y-92201493D01*
X127419109Y-92207443D01*
X127417042Y-92213218D01*
X127414420Y-92218762D01*
X127411267Y-92224023D01*
X127407613Y-92228950D01*
X127403494Y-92233494D01*
X127398950Y-92237613D01*
X127394023Y-92241267D01*
X127388762Y-92244420D01*
X127383218Y-92247042D01*
X127377443Y-92249109D01*
X127371493Y-92250599D01*
X127365426Y-92251499D01*
X127359300Y-92251800D01*
X127234300Y-92251800D01*
X127228174Y-92251499D01*
X127222107Y-92250599D01*
X127216157Y-92249109D01*
X127210382Y-92247042D01*
X127204838Y-92244420D01*
X127199577Y-92241267D01*
X127194650Y-92237613D01*
X127190106Y-92233494D01*
X127185987Y-92228950D01*
X127182333Y-92224023D01*
X127179180Y-92218762D01*
X127176558Y-92213218D01*
X127174491Y-92207443D01*
X127173001Y-92201493D01*
X127172101Y-92195426D01*
X127171800Y-92189300D01*
X127171800Y-91489300D01*
X127172101Y-91483174D01*
X127173001Y-91477107D01*
X127174491Y-91471157D01*
X127176558Y-91465382D01*
X127179180Y-91459838D01*
X127182333Y-91454577D01*
X127185987Y-91449650D01*
X127190106Y-91445106D01*
X127194650Y-91440987D01*
X127199577Y-91437333D01*
X127204838Y-91434180D01*
X127210382Y-91431558D01*
X127216157Y-91429491D01*
X127222107Y-91428001D01*
X127228174Y-91427101D01*
X127234300Y-91426800D01*
X127359300Y-91426800D01*
X127365426Y-91427101D01*
G37*
G36*
X127865426Y-91427101D02*
G01*
X127871493Y-91428001D01*
X127877443Y-91429491D01*
X127883218Y-91431558D01*
X127888762Y-91434180D01*
X127894023Y-91437333D01*
X127898950Y-91440987D01*
X127903494Y-91445106D01*
X127907613Y-91449650D01*
X127911267Y-91454577D01*
X127914420Y-91459838D01*
X127917042Y-91465382D01*
X127919109Y-91471157D01*
X127920599Y-91477107D01*
X127921499Y-91483174D01*
X127921800Y-91489300D01*
X127921800Y-92189300D01*
X127921499Y-92195426D01*
X127920599Y-92201493D01*
X127919109Y-92207443D01*
X127917042Y-92213218D01*
X127914420Y-92218762D01*
X127911267Y-92224023D01*
X127907613Y-92228950D01*
X127903494Y-92233494D01*
X127898950Y-92237613D01*
X127894023Y-92241267D01*
X127888762Y-92244420D01*
X127883218Y-92247042D01*
X127877443Y-92249109D01*
X127871493Y-92250599D01*
X127865426Y-92251499D01*
X127859300Y-92251800D01*
X127734300Y-92251800D01*
X127728174Y-92251499D01*
X127722107Y-92250599D01*
X127716157Y-92249109D01*
X127710382Y-92247042D01*
X127704838Y-92244420D01*
X127699577Y-92241267D01*
X127694650Y-92237613D01*
X127690106Y-92233494D01*
X127685987Y-92228950D01*
X127682333Y-92224023D01*
X127679180Y-92218762D01*
X127676558Y-92213218D01*
X127674491Y-92207443D01*
X127673001Y-92201493D01*
X127672101Y-92195426D01*
X127671800Y-92189300D01*
X127671800Y-91489300D01*
X127672101Y-91483174D01*
X127673001Y-91477107D01*
X127674491Y-91471157D01*
X127676558Y-91465382D01*
X127679180Y-91459838D01*
X127682333Y-91454577D01*
X127685987Y-91449650D01*
X127690106Y-91445106D01*
X127694650Y-91440987D01*
X127699577Y-91437333D01*
X127704838Y-91434180D01*
X127710382Y-91431558D01*
X127716157Y-91429491D01*
X127722107Y-91428001D01*
X127728174Y-91427101D01*
X127734300Y-91426800D01*
X127859300Y-91426800D01*
X127865426Y-91427101D01*
G37*
G36*
X129090426Y-92652101D02*
G01*
X129096493Y-92653001D01*
X129102443Y-92654491D01*
X129108218Y-92656558D01*
X129113762Y-92659180D01*
X129119023Y-92662333D01*
X129123950Y-92665987D01*
X129128494Y-92670106D01*
X129132613Y-92674650D01*
X129136267Y-92679577D01*
X129139420Y-92684838D01*
X129142042Y-92690382D01*
X129144109Y-92696157D01*
X129145599Y-92702107D01*
X129146499Y-92708174D01*
X129146800Y-92714300D01*
X129146800Y-92839300D01*
X129146499Y-92845426D01*
X129145599Y-92851493D01*
X129144109Y-92857443D01*
X129142042Y-92863218D01*
X129139420Y-92868762D01*
X129136267Y-92874023D01*
X129132613Y-92878950D01*
X129128494Y-92883494D01*
X129123950Y-92887613D01*
X129119023Y-92891267D01*
X129113762Y-92894420D01*
X129108218Y-92897042D01*
X129102443Y-92899109D01*
X129096493Y-92900599D01*
X129090426Y-92901499D01*
X129084300Y-92901800D01*
X128384300Y-92901800D01*
X128378174Y-92901499D01*
X128372107Y-92900599D01*
X128366157Y-92899109D01*
X128360382Y-92897042D01*
X128354838Y-92894420D01*
X128349577Y-92891267D01*
X128344650Y-92887613D01*
X128340106Y-92883494D01*
X128335987Y-92878950D01*
X128332333Y-92874023D01*
X128329180Y-92868762D01*
X128326558Y-92863218D01*
X128324491Y-92857443D01*
X128323001Y-92851493D01*
X128322101Y-92845426D01*
X128321800Y-92839300D01*
X128321800Y-92714300D01*
X128322101Y-92708174D01*
X128323001Y-92702107D01*
X128324491Y-92696157D01*
X128326558Y-92690382D01*
X128329180Y-92684838D01*
X128332333Y-92679577D01*
X128335987Y-92674650D01*
X128340106Y-92670106D01*
X128344650Y-92665987D01*
X128349577Y-92662333D01*
X128354838Y-92659180D01*
X128360382Y-92656558D01*
X128366157Y-92654491D01*
X128372107Y-92653001D01*
X128378174Y-92652101D01*
X128384300Y-92651800D01*
X129084300Y-92651800D01*
X129090426Y-92652101D01*
G37*
G36*
X129090426Y-93152101D02*
G01*
X129096493Y-93153001D01*
X129102443Y-93154491D01*
X129108218Y-93156558D01*
X129113762Y-93159180D01*
X129119023Y-93162333D01*
X129123950Y-93165987D01*
X129128494Y-93170106D01*
X129132613Y-93174650D01*
X129136267Y-93179577D01*
X129139420Y-93184838D01*
X129142042Y-93190382D01*
X129144109Y-93196157D01*
X129145599Y-93202107D01*
X129146499Y-93208174D01*
X129146800Y-93214300D01*
X129146800Y-93339300D01*
X129146499Y-93345426D01*
X129145599Y-93351493D01*
X129144109Y-93357443D01*
X129142042Y-93363218D01*
X129139420Y-93368762D01*
X129136267Y-93374023D01*
X129132613Y-93378950D01*
X129128494Y-93383494D01*
X129123950Y-93387613D01*
X129119023Y-93391267D01*
X129113762Y-93394420D01*
X129108218Y-93397042D01*
X129102443Y-93399109D01*
X129096493Y-93400599D01*
X129090426Y-93401499D01*
X129084300Y-93401800D01*
X128384300Y-93401800D01*
X128378174Y-93401499D01*
X128372107Y-93400599D01*
X128366157Y-93399109D01*
X128360382Y-93397042D01*
X128354838Y-93394420D01*
X128349577Y-93391267D01*
X128344650Y-93387613D01*
X128340106Y-93383494D01*
X128335987Y-93378950D01*
X128332333Y-93374023D01*
X128329180Y-93368762D01*
X128326558Y-93363218D01*
X128324491Y-93357443D01*
X128323001Y-93351493D01*
X128322101Y-93345426D01*
X128321800Y-93339300D01*
X128321800Y-93214300D01*
X128322101Y-93208174D01*
X128323001Y-93202107D01*
X128324491Y-93196157D01*
X128326558Y-93190382D01*
X128329180Y-93184838D01*
X128332333Y-93179577D01*
X128335987Y-93174650D01*
X128340106Y-93170106D01*
X128344650Y-93165987D01*
X128349577Y-93162333D01*
X128354838Y-93159180D01*
X128360382Y-93156558D01*
X128366157Y-93154491D01*
X128372107Y-93153001D01*
X128378174Y-93152101D01*
X128384300Y-93151800D01*
X129084300Y-93151800D01*
X129090426Y-93152101D01*
G37*
G36*
X129090426Y-93652101D02*
G01*
X129096493Y-93653001D01*
X129102443Y-93654491D01*
X129108218Y-93656558D01*
X129113762Y-93659180D01*
X129119023Y-93662333D01*
X129123950Y-93665987D01*
X129128494Y-93670106D01*
X129132613Y-93674650D01*
X129136267Y-93679577D01*
X129139420Y-93684838D01*
X129142042Y-93690382D01*
X129144109Y-93696157D01*
X129145599Y-93702107D01*
X129146499Y-93708174D01*
X129146800Y-93714300D01*
X129146800Y-93839300D01*
X129146499Y-93845426D01*
X129145599Y-93851493D01*
X129144109Y-93857443D01*
X129142042Y-93863218D01*
X129139420Y-93868762D01*
X129136267Y-93874023D01*
X129132613Y-93878950D01*
X129128494Y-93883494D01*
X129123950Y-93887613D01*
X129119023Y-93891267D01*
X129113762Y-93894420D01*
X129108218Y-93897042D01*
X129102443Y-93899109D01*
X129096493Y-93900599D01*
X129090426Y-93901499D01*
X129084300Y-93901800D01*
X128384300Y-93901800D01*
X128378174Y-93901499D01*
X128372107Y-93900599D01*
X128366157Y-93899109D01*
X128360382Y-93897042D01*
X128354838Y-93894420D01*
X128349577Y-93891267D01*
X128344650Y-93887613D01*
X128340106Y-93883494D01*
X128335987Y-93878950D01*
X128332333Y-93874023D01*
X128329180Y-93868762D01*
X128326558Y-93863218D01*
X128324491Y-93857443D01*
X128323001Y-93851493D01*
X128322101Y-93845426D01*
X128321800Y-93839300D01*
X128321800Y-93714300D01*
X128322101Y-93708174D01*
X128323001Y-93702107D01*
X128324491Y-93696157D01*
X128326558Y-93690382D01*
X128329180Y-93684838D01*
X128332333Y-93679577D01*
X128335987Y-93674650D01*
X128340106Y-93670106D01*
X128344650Y-93665987D01*
X128349577Y-93662333D01*
X128354838Y-93659180D01*
X128360382Y-93656558D01*
X128366157Y-93654491D01*
X128372107Y-93653001D01*
X128378174Y-93652101D01*
X128384300Y-93651800D01*
X129084300Y-93651800D01*
X129090426Y-93652101D01*
G37*
G36*
X129090426Y-94152101D02*
G01*
X129096493Y-94153001D01*
X129102443Y-94154491D01*
X129108218Y-94156558D01*
X129113762Y-94159180D01*
X129119023Y-94162333D01*
X129123950Y-94165987D01*
X129128494Y-94170106D01*
X129132613Y-94174650D01*
X129136267Y-94179577D01*
X129139420Y-94184838D01*
X129142042Y-94190382D01*
X129144109Y-94196157D01*
X129145599Y-94202107D01*
X129146499Y-94208174D01*
X129146800Y-94214300D01*
X129146800Y-94339300D01*
X129146499Y-94345426D01*
X129145599Y-94351493D01*
X129144109Y-94357443D01*
X129142042Y-94363218D01*
X129139420Y-94368762D01*
X129136267Y-94374023D01*
X129132613Y-94378950D01*
X129128494Y-94383494D01*
X129123950Y-94387613D01*
X129119023Y-94391267D01*
X129113762Y-94394420D01*
X129108218Y-94397042D01*
X129102443Y-94399109D01*
X129096493Y-94400599D01*
X129090426Y-94401499D01*
X129084300Y-94401800D01*
X128384300Y-94401800D01*
X128378174Y-94401499D01*
X128372107Y-94400599D01*
X128366157Y-94399109D01*
X128360382Y-94397042D01*
X128354838Y-94394420D01*
X128349577Y-94391267D01*
X128344650Y-94387613D01*
X128340106Y-94383494D01*
X128335987Y-94378950D01*
X128332333Y-94374023D01*
X128329180Y-94368762D01*
X128326558Y-94363218D01*
X128324491Y-94357443D01*
X128323001Y-94351493D01*
X128322101Y-94345426D01*
X128321800Y-94339300D01*
X128321800Y-94214300D01*
X128322101Y-94208174D01*
X128323001Y-94202107D01*
X128324491Y-94196157D01*
X128326558Y-94190382D01*
X128329180Y-94184838D01*
X128332333Y-94179577D01*
X128335987Y-94174650D01*
X128340106Y-94170106D01*
X128344650Y-94165987D01*
X128349577Y-94162333D01*
X128354838Y-94159180D01*
X128360382Y-94156558D01*
X128366157Y-94154491D01*
X128372107Y-94153001D01*
X128378174Y-94152101D01*
X128384300Y-94151800D01*
X129084300Y-94151800D01*
X129090426Y-94152101D01*
G37*
G36*
X129090426Y-94652101D02*
G01*
X129096493Y-94653001D01*
X129102443Y-94654491D01*
X129108218Y-94656558D01*
X129113762Y-94659180D01*
X129119023Y-94662333D01*
X129123950Y-94665987D01*
X129128494Y-94670106D01*
X129132613Y-94674650D01*
X129136267Y-94679577D01*
X129139420Y-94684838D01*
X129142042Y-94690382D01*
X129144109Y-94696157D01*
X129145599Y-94702107D01*
X129146499Y-94708174D01*
X129146800Y-94714300D01*
X129146800Y-94839300D01*
X129146499Y-94845426D01*
X129145599Y-94851493D01*
X129144109Y-94857443D01*
X129142042Y-94863218D01*
X129139420Y-94868762D01*
X129136267Y-94874023D01*
X129132613Y-94878950D01*
X129128494Y-94883494D01*
X129123950Y-94887613D01*
X129119023Y-94891267D01*
X129113762Y-94894420D01*
X129108218Y-94897042D01*
X129102443Y-94899109D01*
X129096493Y-94900599D01*
X129090426Y-94901499D01*
X129084300Y-94901800D01*
X128384300Y-94901800D01*
X128378174Y-94901499D01*
X128372107Y-94900599D01*
X128366157Y-94899109D01*
X128360382Y-94897042D01*
X128354838Y-94894420D01*
X128349577Y-94891267D01*
X128344650Y-94887613D01*
X128340106Y-94883494D01*
X128335987Y-94878950D01*
X128332333Y-94874023D01*
X128329180Y-94868762D01*
X128326558Y-94863218D01*
X128324491Y-94857443D01*
X128323001Y-94851493D01*
X128322101Y-94845426D01*
X128321800Y-94839300D01*
X128321800Y-94714300D01*
X128322101Y-94708174D01*
X128323001Y-94702107D01*
X128324491Y-94696157D01*
X128326558Y-94690382D01*
X128329180Y-94684838D01*
X128332333Y-94679577D01*
X128335987Y-94674650D01*
X128340106Y-94670106D01*
X128344650Y-94665987D01*
X128349577Y-94662333D01*
X128354838Y-94659180D01*
X128360382Y-94656558D01*
X128366157Y-94654491D01*
X128372107Y-94653001D01*
X128378174Y-94652101D01*
X128384300Y-94651800D01*
X129084300Y-94651800D01*
X129090426Y-94652101D01*
G37*
G36*
X127865426Y-95302101D02*
G01*
X127871493Y-95303001D01*
X127877443Y-95304491D01*
X127883218Y-95306558D01*
X127888762Y-95309180D01*
X127894023Y-95312333D01*
X127898950Y-95315987D01*
X127903494Y-95320106D01*
X127907613Y-95324650D01*
X127911267Y-95329577D01*
X127914420Y-95334838D01*
X127917042Y-95340382D01*
X127919109Y-95346157D01*
X127920599Y-95352107D01*
X127921499Y-95358174D01*
X127921800Y-95364300D01*
X127921800Y-96064300D01*
X127921499Y-96070426D01*
X127920599Y-96076493D01*
X127919109Y-96082443D01*
X127917042Y-96088218D01*
X127914420Y-96093762D01*
X127911267Y-96099023D01*
X127907613Y-96103950D01*
X127903494Y-96108494D01*
X127898950Y-96112613D01*
X127894023Y-96116267D01*
X127888762Y-96119420D01*
X127883218Y-96122042D01*
X127877443Y-96124109D01*
X127871493Y-96125599D01*
X127865426Y-96126499D01*
X127859300Y-96126800D01*
X127734300Y-96126800D01*
X127728174Y-96126499D01*
X127722107Y-96125599D01*
X127716157Y-96124109D01*
X127710382Y-96122042D01*
X127704838Y-96119420D01*
X127699577Y-96116267D01*
X127694650Y-96112613D01*
X127690106Y-96108494D01*
X127685987Y-96103950D01*
X127682333Y-96099023D01*
X127679180Y-96093762D01*
X127676558Y-96088218D01*
X127674491Y-96082443D01*
X127673001Y-96076493D01*
X127672101Y-96070426D01*
X127671800Y-96064300D01*
X127671800Y-95364300D01*
X127672101Y-95358174D01*
X127673001Y-95352107D01*
X127674491Y-95346157D01*
X127676558Y-95340382D01*
X127679180Y-95334838D01*
X127682333Y-95329577D01*
X127685987Y-95324650D01*
X127690106Y-95320106D01*
X127694650Y-95315987D01*
X127699577Y-95312333D01*
X127704838Y-95309180D01*
X127710382Y-95306558D01*
X127716157Y-95304491D01*
X127722107Y-95303001D01*
X127728174Y-95302101D01*
X127734300Y-95301800D01*
X127859300Y-95301800D01*
X127865426Y-95302101D01*
G37*
G36*
X127365426Y-95302101D02*
G01*
X127371493Y-95303001D01*
X127377443Y-95304491D01*
X127383218Y-95306558D01*
X127388762Y-95309180D01*
X127394023Y-95312333D01*
X127398950Y-95315987D01*
X127403494Y-95320106D01*
X127407613Y-95324650D01*
X127411267Y-95329577D01*
X127414420Y-95334838D01*
X127417042Y-95340382D01*
X127419109Y-95346157D01*
X127420599Y-95352107D01*
X127421499Y-95358174D01*
X127421800Y-95364300D01*
X127421800Y-96064300D01*
X127421499Y-96070426D01*
X127420599Y-96076493D01*
X127419109Y-96082443D01*
X127417042Y-96088218D01*
X127414420Y-96093762D01*
X127411267Y-96099023D01*
X127407613Y-96103950D01*
X127403494Y-96108494D01*
X127398950Y-96112613D01*
X127394023Y-96116267D01*
X127388762Y-96119420D01*
X127383218Y-96122042D01*
X127377443Y-96124109D01*
X127371493Y-96125599D01*
X127365426Y-96126499D01*
X127359300Y-96126800D01*
X127234300Y-96126800D01*
X127228174Y-96126499D01*
X127222107Y-96125599D01*
X127216157Y-96124109D01*
X127210382Y-96122042D01*
X127204838Y-96119420D01*
X127199577Y-96116267D01*
X127194650Y-96112613D01*
X127190106Y-96108494D01*
X127185987Y-96103950D01*
X127182333Y-96099023D01*
X127179180Y-96093762D01*
X127176558Y-96088218D01*
X127174491Y-96082443D01*
X127173001Y-96076493D01*
X127172101Y-96070426D01*
X127171800Y-96064300D01*
X127171800Y-95364300D01*
X127172101Y-95358174D01*
X127173001Y-95352107D01*
X127174491Y-95346157D01*
X127176558Y-95340382D01*
X127179180Y-95334838D01*
X127182333Y-95329577D01*
X127185987Y-95324650D01*
X127190106Y-95320106D01*
X127194650Y-95315987D01*
X127199577Y-95312333D01*
X127204838Y-95309180D01*
X127210382Y-95306558D01*
X127216157Y-95304491D01*
X127222107Y-95303001D01*
X127228174Y-95302101D01*
X127234300Y-95301800D01*
X127359300Y-95301800D01*
X127365426Y-95302101D01*
G37*
G36*
X126865426Y-95302101D02*
G01*
X126871493Y-95303001D01*
X126877443Y-95304491D01*
X126883218Y-95306558D01*
X126888762Y-95309180D01*
X126894023Y-95312333D01*
X126898950Y-95315987D01*
X126903494Y-95320106D01*
X126907613Y-95324650D01*
X126911267Y-95329577D01*
X126914420Y-95334838D01*
X126917042Y-95340382D01*
X126919109Y-95346157D01*
X126920599Y-95352107D01*
X126921499Y-95358174D01*
X126921800Y-95364300D01*
X126921800Y-96064300D01*
X126921499Y-96070426D01*
X126920599Y-96076493D01*
X126919109Y-96082443D01*
X126917042Y-96088218D01*
X126914420Y-96093762D01*
X126911267Y-96099023D01*
X126907613Y-96103950D01*
X126903494Y-96108494D01*
X126898950Y-96112613D01*
X126894023Y-96116267D01*
X126888762Y-96119420D01*
X126883218Y-96122042D01*
X126877443Y-96124109D01*
X126871493Y-96125599D01*
X126865426Y-96126499D01*
X126859300Y-96126800D01*
X126734300Y-96126800D01*
X126728174Y-96126499D01*
X126722107Y-96125599D01*
X126716157Y-96124109D01*
X126710382Y-96122042D01*
X126704838Y-96119420D01*
X126699577Y-96116267D01*
X126694650Y-96112613D01*
X126690106Y-96108494D01*
X126685987Y-96103950D01*
X126682333Y-96099023D01*
X126679180Y-96093762D01*
X126676558Y-96088218D01*
X126674491Y-96082443D01*
X126673001Y-96076493D01*
X126672101Y-96070426D01*
X126671800Y-96064300D01*
X126671800Y-95364300D01*
X126672101Y-95358174D01*
X126673001Y-95352107D01*
X126674491Y-95346157D01*
X126676558Y-95340382D01*
X126679180Y-95334838D01*
X126682333Y-95329577D01*
X126685987Y-95324650D01*
X126690106Y-95320106D01*
X126694650Y-95315987D01*
X126699577Y-95312333D01*
X126704838Y-95309180D01*
X126710382Y-95306558D01*
X126716157Y-95304491D01*
X126722107Y-95303001D01*
X126728174Y-95302101D01*
X126734300Y-95301800D01*
X126859300Y-95301800D01*
X126865426Y-95302101D01*
G37*
G36*
X126365426Y-95302101D02*
G01*
X126371493Y-95303001D01*
X126377443Y-95304491D01*
X126383218Y-95306558D01*
X126388762Y-95309180D01*
X126394023Y-95312333D01*
X126398950Y-95315987D01*
X126403494Y-95320106D01*
X126407613Y-95324650D01*
X126411267Y-95329577D01*
X126414420Y-95334838D01*
X126417042Y-95340382D01*
X126419109Y-95346157D01*
X126420599Y-95352107D01*
X126421499Y-95358174D01*
X126421800Y-95364300D01*
X126421800Y-96064300D01*
X126421499Y-96070426D01*
X126420599Y-96076493D01*
X126419109Y-96082443D01*
X126417042Y-96088218D01*
X126414420Y-96093762D01*
X126411267Y-96099023D01*
X126407613Y-96103950D01*
X126403494Y-96108494D01*
X126398950Y-96112613D01*
X126394023Y-96116267D01*
X126388762Y-96119420D01*
X126383218Y-96122042D01*
X126377443Y-96124109D01*
X126371493Y-96125599D01*
X126365426Y-96126499D01*
X126359300Y-96126800D01*
X126234300Y-96126800D01*
X126228174Y-96126499D01*
X126222107Y-96125599D01*
X126216157Y-96124109D01*
X126210382Y-96122042D01*
X126204838Y-96119420D01*
X126199577Y-96116267D01*
X126194650Y-96112613D01*
X126190106Y-96108494D01*
X126185987Y-96103950D01*
X126182333Y-96099023D01*
X126179180Y-96093762D01*
X126176558Y-96088218D01*
X126174491Y-96082443D01*
X126173001Y-96076493D01*
X126172101Y-96070426D01*
X126171800Y-96064300D01*
X126171800Y-95364300D01*
X126172101Y-95358174D01*
X126173001Y-95352107D01*
X126174491Y-95346157D01*
X126176558Y-95340382D01*
X126179180Y-95334838D01*
X126182333Y-95329577D01*
X126185987Y-95324650D01*
X126190106Y-95320106D01*
X126194650Y-95315987D01*
X126199577Y-95312333D01*
X126204838Y-95309180D01*
X126210382Y-95306558D01*
X126216157Y-95304491D01*
X126222107Y-95303001D01*
X126228174Y-95302101D01*
X126234300Y-95301800D01*
X126359300Y-95301800D01*
X126365426Y-95302101D01*
G37*
G36*
X125865426Y-95302101D02*
G01*
X125871493Y-95303001D01*
X125877443Y-95304491D01*
X125883218Y-95306558D01*
X125888762Y-95309180D01*
X125894023Y-95312333D01*
X125898950Y-95315987D01*
X125903494Y-95320106D01*
X125907613Y-95324650D01*
X125911267Y-95329577D01*
X125914420Y-95334838D01*
X125917042Y-95340382D01*
X125919109Y-95346157D01*
X125920599Y-95352107D01*
X125921499Y-95358174D01*
X125921800Y-95364300D01*
X125921800Y-96064300D01*
X125921499Y-96070426D01*
X125920599Y-96076493D01*
X125919109Y-96082443D01*
X125917042Y-96088218D01*
X125914420Y-96093762D01*
X125911267Y-96099023D01*
X125907613Y-96103950D01*
X125903494Y-96108494D01*
X125898950Y-96112613D01*
X125894023Y-96116267D01*
X125888762Y-96119420D01*
X125883218Y-96122042D01*
X125877443Y-96124109D01*
X125871493Y-96125599D01*
X125865426Y-96126499D01*
X125859300Y-96126800D01*
X125734300Y-96126800D01*
X125728174Y-96126499D01*
X125722107Y-96125599D01*
X125716157Y-96124109D01*
X125710382Y-96122042D01*
X125704838Y-96119420D01*
X125699577Y-96116267D01*
X125694650Y-96112613D01*
X125690106Y-96108494D01*
X125685987Y-96103950D01*
X125682333Y-96099023D01*
X125679180Y-96093762D01*
X125676558Y-96088218D01*
X125674491Y-96082443D01*
X125673001Y-96076493D01*
X125672101Y-96070426D01*
X125671800Y-96064300D01*
X125671800Y-95364300D01*
X125672101Y-95358174D01*
X125673001Y-95352107D01*
X125674491Y-95346157D01*
X125676558Y-95340382D01*
X125679180Y-95334838D01*
X125682333Y-95329577D01*
X125685987Y-95324650D01*
X125690106Y-95320106D01*
X125694650Y-95315987D01*
X125699577Y-95312333D01*
X125704838Y-95309180D01*
X125710382Y-95306558D01*
X125716157Y-95304491D01*
X125722107Y-95303001D01*
X125728174Y-95302101D01*
X125734300Y-95301800D01*
X125859300Y-95301800D01*
X125865426Y-95302101D01*
G37*
G36*
X127701304Y-92648004D02*
G01*
X127725573Y-92651604D01*
X127749371Y-92657565D01*
X127772471Y-92665830D01*
X127794649Y-92676320D01*
X127815693Y-92688933D01*
X127835398Y-92703547D01*
X127853577Y-92720023D01*
X127870053Y-92738202D01*
X127884667Y-92757907D01*
X127897280Y-92778951D01*
X127907770Y-92801129D01*
X127916035Y-92824229D01*
X127921996Y-92848027D01*
X127925596Y-92872296D01*
X127926800Y-92896800D01*
X127926800Y-93406800D01*
X127925596Y-93431304D01*
X127921996Y-93455573D01*
X127916035Y-93479371D01*
X127907770Y-93502471D01*
X127897280Y-93524649D01*
X127884667Y-93545693D01*
X127870053Y-93565398D01*
X127853577Y-93583577D01*
X127835398Y-93600053D01*
X127815693Y-93614667D01*
X127794649Y-93627280D01*
X127772471Y-93637770D01*
X127749371Y-93646035D01*
X127725573Y-93651996D01*
X127701304Y-93655596D01*
X127676800Y-93656800D01*
X127166800Y-93656800D01*
X127142296Y-93655596D01*
X127118027Y-93651996D01*
X127094229Y-93646035D01*
X127071129Y-93637770D01*
X127048951Y-93627280D01*
X127027907Y-93614667D01*
X127008202Y-93600053D01*
X126990023Y-93583577D01*
X126973547Y-93565398D01*
X126958933Y-93545693D01*
X126946320Y-93524649D01*
X126935830Y-93502471D01*
X126927565Y-93479371D01*
X126921604Y-93455573D01*
X126918004Y-93431304D01*
X126916800Y-93406800D01*
X126916800Y-92896800D01*
X126918004Y-92872296D01*
X126921604Y-92848027D01*
X126927565Y-92824229D01*
X126935830Y-92801129D01*
X126946320Y-92778951D01*
X126958933Y-92757907D01*
X126973547Y-92738202D01*
X126990023Y-92720023D01*
X127008202Y-92703547D01*
X127027907Y-92688933D01*
X127048951Y-92676320D01*
X127071129Y-92665830D01*
X127094229Y-92657565D01*
X127118027Y-92651604D01*
X127142296Y-92648004D01*
X127166800Y-92646800D01*
X127676800Y-92646800D01*
X127701304Y-92648004D01*
G37*
G36*
X126451304Y-92648004D02*
G01*
X126475573Y-92651604D01*
X126499371Y-92657565D01*
X126522471Y-92665830D01*
X126544649Y-92676320D01*
X126565693Y-92688933D01*
X126585398Y-92703547D01*
X126603577Y-92720023D01*
X126620053Y-92738202D01*
X126634667Y-92757907D01*
X126647280Y-92778951D01*
X126657770Y-92801129D01*
X126666035Y-92824229D01*
X126671996Y-92848027D01*
X126675596Y-92872296D01*
X126676800Y-92896800D01*
X126676800Y-93406800D01*
X126675596Y-93431304D01*
X126671996Y-93455573D01*
X126666035Y-93479371D01*
X126657770Y-93502471D01*
X126647280Y-93524649D01*
X126634667Y-93545693D01*
X126620053Y-93565398D01*
X126603577Y-93583577D01*
X126585398Y-93600053D01*
X126565693Y-93614667D01*
X126544649Y-93627280D01*
X126522471Y-93637770D01*
X126499371Y-93646035D01*
X126475573Y-93651996D01*
X126451304Y-93655596D01*
X126426800Y-93656800D01*
X125916800Y-93656800D01*
X125892296Y-93655596D01*
X125868027Y-93651996D01*
X125844229Y-93646035D01*
X125821129Y-93637770D01*
X125798951Y-93627280D01*
X125777907Y-93614667D01*
X125758202Y-93600053D01*
X125740023Y-93583577D01*
X125723547Y-93565398D01*
X125708933Y-93545693D01*
X125696320Y-93524649D01*
X125685830Y-93502471D01*
X125677565Y-93479371D01*
X125671604Y-93455573D01*
X125668004Y-93431304D01*
X125666800Y-93406800D01*
X125666800Y-92896800D01*
X125668004Y-92872296D01*
X125671604Y-92848027D01*
X125677565Y-92824229D01*
X125685830Y-92801129D01*
X125696320Y-92778951D01*
X125708933Y-92757907D01*
X125723547Y-92738202D01*
X125740023Y-92720023D01*
X125758202Y-92703547D01*
X125777907Y-92688933D01*
X125798951Y-92676320D01*
X125821129Y-92665830D01*
X125844229Y-92657565D01*
X125868027Y-92651604D01*
X125892296Y-92648004D01*
X125916800Y-92646800D01*
X126426800Y-92646800D01*
X126451304Y-92648004D01*
G37*
G36*
X127701304Y-93898004D02*
G01*
X127725573Y-93901604D01*
X127749371Y-93907565D01*
X127772471Y-93915830D01*
X127794649Y-93926320D01*
X127815693Y-93938933D01*
X127835398Y-93953547D01*
X127853577Y-93970023D01*
X127870053Y-93988202D01*
X127884667Y-94007907D01*
X127897280Y-94028951D01*
X127907770Y-94051129D01*
X127916035Y-94074229D01*
X127921996Y-94098027D01*
X127925596Y-94122296D01*
X127926800Y-94146800D01*
X127926800Y-94656800D01*
X127925596Y-94681304D01*
X127921996Y-94705573D01*
X127916035Y-94729371D01*
X127907770Y-94752471D01*
X127897280Y-94774649D01*
X127884667Y-94795693D01*
X127870053Y-94815398D01*
X127853577Y-94833577D01*
X127835398Y-94850053D01*
X127815693Y-94864667D01*
X127794649Y-94877280D01*
X127772471Y-94887770D01*
X127749371Y-94896035D01*
X127725573Y-94901996D01*
X127701304Y-94905596D01*
X127676800Y-94906800D01*
X127166800Y-94906800D01*
X127142296Y-94905596D01*
X127118027Y-94901996D01*
X127094229Y-94896035D01*
X127071129Y-94887770D01*
X127048951Y-94877280D01*
X127027907Y-94864667D01*
X127008202Y-94850053D01*
X126990023Y-94833577D01*
X126973547Y-94815398D01*
X126958933Y-94795693D01*
X126946320Y-94774649D01*
X126935830Y-94752471D01*
X126927565Y-94729371D01*
X126921604Y-94705573D01*
X126918004Y-94681304D01*
X126916800Y-94656800D01*
X126916800Y-94146800D01*
X126918004Y-94122296D01*
X126921604Y-94098027D01*
X126927565Y-94074229D01*
X126935830Y-94051129D01*
X126946320Y-94028951D01*
X126958933Y-94007907D01*
X126973547Y-93988202D01*
X126990023Y-93970023D01*
X127008202Y-93953547D01*
X127027907Y-93938933D01*
X127048951Y-93926320D01*
X127071129Y-93915830D01*
X127094229Y-93907565D01*
X127118027Y-93901604D01*
X127142296Y-93898004D01*
X127166800Y-93896800D01*
X127676800Y-93896800D01*
X127701304Y-93898004D01*
G37*
G36*
X126451304Y-93898004D02*
G01*
X126475573Y-93901604D01*
X126499371Y-93907565D01*
X126522471Y-93915830D01*
X126544649Y-93926320D01*
X126565693Y-93938933D01*
X126585398Y-93953547D01*
X126603577Y-93970023D01*
X126620053Y-93988202D01*
X126634667Y-94007907D01*
X126647280Y-94028951D01*
X126657770Y-94051129D01*
X126666035Y-94074229D01*
X126671996Y-94098027D01*
X126675596Y-94122296D01*
X126676800Y-94146800D01*
X126676800Y-94656800D01*
X126675596Y-94681304D01*
X126671996Y-94705573D01*
X126666035Y-94729371D01*
X126657770Y-94752471D01*
X126647280Y-94774649D01*
X126634667Y-94795693D01*
X126620053Y-94815398D01*
X126603577Y-94833577D01*
X126585398Y-94850053D01*
X126565693Y-94864667D01*
X126544649Y-94877280D01*
X126522471Y-94887770D01*
X126499371Y-94896035D01*
X126475573Y-94901996D01*
X126451304Y-94905596D01*
X126426800Y-94906800D01*
X125916800Y-94906800D01*
X125892296Y-94905596D01*
X125868027Y-94901996D01*
X125844229Y-94896035D01*
X125821129Y-94887770D01*
X125798951Y-94877280D01*
X125777907Y-94864667D01*
X125758202Y-94850053D01*
X125740023Y-94833577D01*
X125723547Y-94815398D01*
X125708933Y-94795693D01*
X125696320Y-94774649D01*
X125685830Y-94752471D01*
X125677565Y-94729371D01*
X125671604Y-94705573D01*
X125668004Y-94681304D01*
X125666800Y-94656800D01*
X125666800Y-94146800D01*
X125668004Y-94122296D01*
X125671604Y-94098027D01*
X125677565Y-94074229D01*
X125685830Y-94051129D01*
X125696320Y-94028951D01*
X125708933Y-94007907D01*
X125723547Y-93988202D01*
X125740023Y-93970023D01*
X125758202Y-93953547D01*
X125777907Y-93938933D01*
X125798951Y-93926320D01*
X125821129Y-93915830D01*
X125844229Y-93907565D01*
X125868027Y-93901604D01*
X125892296Y-93898004D01*
X125916800Y-93896800D01*
X126426800Y-93896800D01*
X126451304Y-93898004D01*
G37*
D13*
X155350000Y-83275000D03*
X155350000Y-83925000D03*
X155350000Y-84575000D03*
X155350000Y-85225000D03*
X155350000Y-85875000D03*
X155350000Y-86525000D03*
X155350000Y-87175000D03*
X155350000Y-87825000D03*
X149450000Y-87825000D03*
X149450000Y-87175000D03*
X149450000Y-86525000D03*
X149450000Y-85875000D03*
X149450000Y-85225000D03*
X149450000Y-84575000D03*
X149450000Y-83925000D03*
X149450000Y-83275000D03*
D14*
X139576100Y-75476301D03*
D15*
X138852200Y-75400002D03*
X138852200Y-75000000D03*
X138852200Y-74600001D03*
X138852200Y-74200002D03*
X138852200Y-73800000D03*
D14*
X139576100Y-73723701D03*
D15*
X140300000Y-73800000D03*
X140300000Y-74200002D03*
X140300000Y-74600001D03*
X140300000Y-75000000D03*
X140300000Y-75400002D03*
D14*
X139576100Y-71326301D03*
D15*
X138852200Y-71250002D03*
X138852200Y-70850000D03*
X138852200Y-70450001D03*
X138852200Y-70050002D03*
X138852200Y-69650000D03*
D14*
X139576100Y-69573701D03*
D15*
X140300000Y-69650000D03*
X140300000Y-70050002D03*
X140300000Y-70450001D03*
X140300000Y-70850000D03*
X140300000Y-71250002D03*
D14*
X139550000Y-66776300D03*
D15*
X138826100Y-66700001D03*
X138826100Y-66299999D03*
X138826100Y-65900000D03*
X138826100Y-65500001D03*
X138826100Y-65099999D03*
D14*
X139550000Y-65023700D03*
D15*
X140273900Y-65099999D03*
X140273900Y-65500001D03*
X140273900Y-65900000D03*
X140273900Y-66299999D03*
X140273900Y-66700001D03*
D16*
X162105000Y-80900000D03*
X160835000Y-80900000D03*
X159565000Y-80900000D03*
X158295000Y-80900000D03*
X157025000Y-80900000D03*
X155755000Y-80900000D03*
X154485000Y-80900000D03*
X153215000Y-80900000D03*
X151945000Y-80900000D03*
X150675000Y-80900000D03*
X149405000Y-80900000D03*
X148135000Y-80900000D03*
X146865000Y-80900000D03*
X145595000Y-80900000D03*
D17*
X144595000Y-78115000D03*
X144595000Y-76845000D03*
X144595000Y-75575000D03*
X144595000Y-74305000D03*
X144595000Y-73035000D03*
X144595000Y-71765000D03*
X144595000Y-70495000D03*
X144595000Y-69225000D03*
X144595000Y-67955000D03*
X144595000Y-66685000D03*
D16*
X145595000Y-63900000D03*
X146865000Y-63900000D03*
X148135000Y-63900000D03*
X149405000Y-63900000D03*
X150675000Y-63900000D03*
X151945000Y-63900000D03*
X153215000Y-63900000D03*
X154485000Y-63900000D03*
X155755000Y-63900000D03*
X157025000Y-63900000D03*
X158295000Y-63900000D03*
X159565000Y-63900000D03*
X160835000Y-63900000D03*
X162105000Y-63900000D03*
D18*
X154605000Y-71400000D03*
D19*
X155000000Y-96100000D03*
X155000000Y-94200000D03*
X157200000Y-94200000D03*
X157200000Y-95150000D03*
X157200000Y-96100000D03*
D12*
G36*
X144478208Y-91365831D02*
G01*
X144494953Y-91368315D01*
X144511374Y-91372428D01*
X144527313Y-91378131D01*
X144542616Y-91385369D01*
X144557136Y-91394071D01*
X144570733Y-91404156D01*
X144583276Y-91415524D01*
X144594644Y-91428067D01*
X144604729Y-91441664D01*
X144613431Y-91456184D01*
X144620669Y-91471487D01*
X144626372Y-91487426D01*
X144630485Y-91503847D01*
X144632969Y-91520592D01*
X144633800Y-91537500D01*
X144633800Y-92062500D01*
X144632969Y-92079408D01*
X144630485Y-92096153D01*
X144626372Y-92112574D01*
X144620669Y-92128513D01*
X144613431Y-92143816D01*
X144604729Y-92158336D01*
X144594644Y-92171933D01*
X144583276Y-92184476D01*
X144570733Y-92195844D01*
X144557136Y-92205929D01*
X144542616Y-92214631D01*
X144527313Y-92221869D01*
X144511374Y-92227572D01*
X144494953Y-92231685D01*
X144478208Y-92234169D01*
X144461300Y-92235000D01*
X144116300Y-92235000D01*
X144099392Y-92234169D01*
X144082647Y-92231685D01*
X144066226Y-92227572D01*
X144050287Y-92221869D01*
X144034984Y-92214631D01*
X144020464Y-92205929D01*
X144006867Y-92195844D01*
X143994324Y-92184476D01*
X143982956Y-92171933D01*
X143972871Y-92158336D01*
X143964169Y-92143816D01*
X143956931Y-92128513D01*
X143951228Y-92112574D01*
X143947115Y-92096153D01*
X143944631Y-92079408D01*
X143943800Y-92062500D01*
X143943800Y-91537500D01*
X143944631Y-91520592D01*
X143947115Y-91503847D01*
X143951228Y-91487426D01*
X143956931Y-91471487D01*
X143964169Y-91456184D01*
X143972871Y-91441664D01*
X143982956Y-91428067D01*
X143994324Y-91415524D01*
X144006867Y-91404156D01*
X144020464Y-91394071D01*
X144034984Y-91385369D01*
X144050287Y-91378131D01*
X144066226Y-91372428D01*
X144082647Y-91368315D01*
X144099392Y-91365831D01*
X144116300Y-91365000D01*
X144461300Y-91365000D01*
X144478208Y-91365831D01*
G37*
G36*
X145278208Y-91365831D02*
G01*
X145294953Y-91368315D01*
X145311374Y-91372428D01*
X145327313Y-91378131D01*
X145342616Y-91385369D01*
X145357136Y-91394071D01*
X145370733Y-91404156D01*
X145383276Y-91415524D01*
X145394644Y-91428067D01*
X145404729Y-91441664D01*
X145413431Y-91456184D01*
X145420669Y-91471487D01*
X145426372Y-91487426D01*
X145430485Y-91503847D01*
X145432969Y-91520592D01*
X145433800Y-91537500D01*
X145433800Y-92062500D01*
X145432969Y-92079408D01*
X145430485Y-92096153D01*
X145426372Y-92112574D01*
X145420669Y-92128513D01*
X145413431Y-92143816D01*
X145404729Y-92158336D01*
X145394644Y-92171933D01*
X145383276Y-92184476D01*
X145370733Y-92195844D01*
X145357136Y-92205929D01*
X145342616Y-92214631D01*
X145327313Y-92221869D01*
X145311374Y-92227572D01*
X145294953Y-92231685D01*
X145278208Y-92234169D01*
X145261300Y-92235000D01*
X144916300Y-92235000D01*
X144899392Y-92234169D01*
X144882647Y-92231685D01*
X144866226Y-92227572D01*
X144850287Y-92221869D01*
X144834984Y-92214631D01*
X144820464Y-92205929D01*
X144806867Y-92195844D01*
X144794324Y-92184476D01*
X144782956Y-92171933D01*
X144772871Y-92158336D01*
X144764169Y-92143816D01*
X144756931Y-92128513D01*
X144751228Y-92112574D01*
X144747115Y-92096153D01*
X144744631Y-92079408D01*
X144743800Y-92062500D01*
X144743800Y-91537500D01*
X144744631Y-91520592D01*
X144747115Y-91503847D01*
X144751228Y-91487426D01*
X144756931Y-91471487D01*
X144764169Y-91456184D01*
X144772871Y-91441664D01*
X144782956Y-91428067D01*
X144794324Y-91415524D01*
X144806867Y-91404156D01*
X144820464Y-91394071D01*
X144834984Y-91385369D01*
X144850287Y-91378131D01*
X144866226Y-91372428D01*
X144882647Y-91368315D01*
X144899392Y-91365831D01*
X144916300Y-91365000D01*
X145261300Y-91365000D01*
X145278208Y-91365831D01*
G37*
G36*
X145454239Y-92500451D02*
G01*
X145463340Y-92501801D01*
X145472264Y-92504037D01*
X145480927Y-92507136D01*
X145489243Y-92511070D01*
X145497135Y-92515800D01*
X145504524Y-92521280D01*
X145511341Y-92527459D01*
X145517520Y-92534276D01*
X145523000Y-92541665D01*
X145527730Y-92549557D01*
X145531664Y-92557873D01*
X145534763Y-92566536D01*
X145536999Y-92575460D01*
X145538349Y-92584561D01*
X145538800Y-92593750D01*
X145538800Y-92781250D01*
X145538349Y-92790439D01*
X145536999Y-92799540D01*
X145534763Y-92808464D01*
X145531664Y-92817127D01*
X145527730Y-92825443D01*
X145523000Y-92833335D01*
X145517520Y-92840724D01*
X145511341Y-92847541D01*
X145504524Y-92853720D01*
X145497135Y-92859200D01*
X145489243Y-92863930D01*
X145480927Y-92867864D01*
X145472264Y-92870963D01*
X145463340Y-92873199D01*
X145454239Y-92874549D01*
X145445050Y-92875000D01*
X145232550Y-92875000D01*
X145223361Y-92874549D01*
X145214260Y-92873199D01*
X145205336Y-92870963D01*
X145196673Y-92867864D01*
X145188357Y-92863930D01*
X145180465Y-92859200D01*
X145173076Y-92853720D01*
X145166259Y-92847541D01*
X145160080Y-92840724D01*
X145154600Y-92833335D01*
X145149870Y-92825443D01*
X145145936Y-92817127D01*
X145142837Y-92808464D01*
X145140601Y-92799540D01*
X145139251Y-92790439D01*
X145138800Y-92781250D01*
X145138800Y-92593750D01*
X145139251Y-92584561D01*
X145140601Y-92575460D01*
X145142837Y-92566536D01*
X145145936Y-92557873D01*
X145149870Y-92549557D01*
X145154600Y-92541665D01*
X145160080Y-92534276D01*
X145166259Y-92527459D01*
X145173076Y-92521280D01*
X145180465Y-92515800D01*
X145188357Y-92511070D01*
X145196673Y-92507136D01*
X145205336Y-92504037D01*
X145214260Y-92501801D01*
X145223361Y-92500451D01*
X145232550Y-92500000D01*
X145445050Y-92500000D01*
X145454239Y-92500451D01*
G37*
G36*
X144804239Y-92500451D02*
G01*
X144813340Y-92501801D01*
X144822264Y-92504037D01*
X144830927Y-92507136D01*
X144839243Y-92511070D01*
X144847135Y-92515800D01*
X144854524Y-92521280D01*
X144861341Y-92527459D01*
X144867520Y-92534276D01*
X144873000Y-92541665D01*
X144877730Y-92549557D01*
X144881664Y-92557873D01*
X144884763Y-92566536D01*
X144886999Y-92575460D01*
X144888349Y-92584561D01*
X144888800Y-92593750D01*
X144888800Y-92781250D01*
X144888349Y-92790439D01*
X144886999Y-92799540D01*
X144884763Y-92808464D01*
X144881664Y-92817127D01*
X144877730Y-92825443D01*
X144873000Y-92833335D01*
X144867520Y-92840724D01*
X144861341Y-92847541D01*
X144854524Y-92853720D01*
X144847135Y-92859200D01*
X144839243Y-92863930D01*
X144830927Y-92867864D01*
X144822264Y-92870963D01*
X144813340Y-92873199D01*
X144804239Y-92874549D01*
X144795050Y-92875000D01*
X144582550Y-92875000D01*
X144573361Y-92874549D01*
X144564260Y-92873199D01*
X144555336Y-92870963D01*
X144546673Y-92867864D01*
X144538357Y-92863930D01*
X144530465Y-92859200D01*
X144523076Y-92853720D01*
X144516259Y-92847541D01*
X144510080Y-92840724D01*
X144504600Y-92833335D01*
X144499870Y-92825443D01*
X144495936Y-92817127D01*
X144492837Y-92808464D01*
X144490601Y-92799540D01*
X144489251Y-92790439D01*
X144488800Y-92781250D01*
X144488800Y-92593750D01*
X144489251Y-92584561D01*
X144490601Y-92575460D01*
X144492837Y-92566536D01*
X144495936Y-92557873D01*
X144499870Y-92549557D01*
X144504600Y-92541665D01*
X144510080Y-92534276D01*
X144516259Y-92527459D01*
X144523076Y-92521280D01*
X144530465Y-92515800D01*
X144538357Y-92511070D01*
X144546673Y-92507136D01*
X144555336Y-92504037D01*
X144564260Y-92501801D01*
X144573361Y-92500451D01*
X144582550Y-92500000D01*
X144795050Y-92500000D01*
X144804239Y-92500451D01*
G37*
G36*
X144154239Y-92500451D02*
G01*
X144163340Y-92501801D01*
X144172264Y-92504037D01*
X144180927Y-92507136D01*
X144189243Y-92511070D01*
X144197135Y-92515800D01*
X144204524Y-92521280D01*
X144211341Y-92527459D01*
X144217520Y-92534276D01*
X144223000Y-92541665D01*
X144227730Y-92549557D01*
X144231664Y-92557873D01*
X144234763Y-92566536D01*
X144236999Y-92575460D01*
X144238349Y-92584561D01*
X144238800Y-92593750D01*
X144238800Y-92781250D01*
X144238349Y-92790439D01*
X144236999Y-92799540D01*
X144234763Y-92808464D01*
X144231664Y-92817127D01*
X144227730Y-92825443D01*
X144223000Y-92833335D01*
X144217520Y-92840724D01*
X144211341Y-92847541D01*
X144204524Y-92853720D01*
X144197135Y-92859200D01*
X144189243Y-92863930D01*
X144180927Y-92867864D01*
X144172264Y-92870963D01*
X144163340Y-92873199D01*
X144154239Y-92874549D01*
X144145050Y-92875000D01*
X143932550Y-92875000D01*
X143923361Y-92874549D01*
X143914260Y-92873199D01*
X143905336Y-92870963D01*
X143896673Y-92867864D01*
X143888357Y-92863930D01*
X143880465Y-92859200D01*
X143873076Y-92853720D01*
X143866259Y-92847541D01*
X143860080Y-92840724D01*
X143854600Y-92833335D01*
X143849870Y-92825443D01*
X143845936Y-92817127D01*
X143842837Y-92808464D01*
X143840601Y-92799540D01*
X143839251Y-92790439D01*
X143838800Y-92781250D01*
X143838800Y-92593750D01*
X143839251Y-92584561D01*
X143840601Y-92575460D01*
X143842837Y-92566536D01*
X143845936Y-92557873D01*
X143849870Y-92549557D01*
X143854600Y-92541665D01*
X143860080Y-92534276D01*
X143866259Y-92527459D01*
X143873076Y-92521280D01*
X143880465Y-92515800D01*
X143888357Y-92511070D01*
X143896673Y-92507136D01*
X143905336Y-92504037D01*
X143914260Y-92501801D01*
X143923361Y-92500451D01*
X143932550Y-92500000D01*
X144145050Y-92500000D01*
X144154239Y-92500451D01*
G37*
G36*
X144154239Y-90725451D02*
G01*
X144163340Y-90726801D01*
X144172264Y-90729037D01*
X144180927Y-90732136D01*
X144189243Y-90736070D01*
X144197135Y-90740800D01*
X144204524Y-90746280D01*
X144211341Y-90752459D01*
X144217520Y-90759276D01*
X144223000Y-90766665D01*
X144227730Y-90774557D01*
X144231664Y-90782873D01*
X144234763Y-90791536D01*
X144236999Y-90800460D01*
X144238349Y-90809561D01*
X144238800Y-90818750D01*
X144238800Y-91006250D01*
X144238349Y-91015439D01*
X144236999Y-91024540D01*
X144234763Y-91033464D01*
X144231664Y-91042127D01*
X144227730Y-91050443D01*
X144223000Y-91058335D01*
X144217520Y-91065724D01*
X144211341Y-91072541D01*
X144204524Y-91078720D01*
X144197135Y-91084200D01*
X144189243Y-91088930D01*
X144180927Y-91092864D01*
X144172264Y-91095963D01*
X144163340Y-91098199D01*
X144154239Y-91099549D01*
X144145050Y-91100000D01*
X143932550Y-91100000D01*
X143923361Y-91099549D01*
X143914260Y-91098199D01*
X143905336Y-91095963D01*
X143896673Y-91092864D01*
X143888357Y-91088930D01*
X143880465Y-91084200D01*
X143873076Y-91078720D01*
X143866259Y-91072541D01*
X143860080Y-91065724D01*
X143854600Y-91058335D01*
X143849870Y-91050443D01*
X143845936Y-91042127D01*
X143842837Y-91033464D01*
X143840601Y-91024540D01*
X143839251Y-91015439D01*
X143838800Y-91006250D01*
X143838800Y-90818750D01*
X143839251Y-90809561D01*
X143840601Y-90800460D01*
X143842837Y-90791536D01*
X143845936Y-90782873D01*
X143849870Y-90774557D01*
X143854600Y-90766665D01*
X143860080Y-90759276D01*
X143866259Y-90752459D01*
X143873076Y-90746280D01*
X143880465Y-90740800D01*
X143888357Y-90736070D01*
X143896673Y-90732136D01*
X143905336Y-90729037D01*
X143914260Y-90726801D01*
X143923361Y-90725451D01*
X143932550Y-90725000D01*
X144145050Y-90725000D01*
X144154239Y-90725451D01*
G37*
G36*
X144804239Y-90725451D02*
G01*
X144813340Y-90726801D01*
X144822264Y-90729037D01*
X144830927Y-90732136D01*
X144839243Y-90736070D01*
X144847135Y-90740800D01*
X144854524Y-90746280D01*
X144861341Y-90752459D01*
X144867520Y-90759276D01*
X144873000Y-90766665D01*
X144877730Y-90774557D01*
X144881664Y-90782873D01*
X144884763Y-90791536D01*
X144886999Y-90800460D01*
X144888349Y-90809561D01*
X144888800Y-90818750D01*
X144888800Y-91006250D01*
X144888349Y-91015439D01*
X144886999Y-91024540D01*
X144884763Y-91033464D01*
X144881664Y-91042127D01*
X144877730Y-91050443D01*
X144873000Y-91058335D01*
X144867520Y-91065724D01*
X144861341Y-91072541D01*
X144854524Y-91078720D01*
X144847135Y-91084200D01*
X144839243Y-91088930D01*
X144830927Y-91092864D01*
X144822264Y-91095963D01*
X144813340Y-91098199D01*
X144804239Y-91099549D01*
X144795050Y-91100000D01*
X144582550Y-91100000D01*
X144573361Y-91099549D01*
X144564260Y-91098199D01*
X144555336Y-91095963D01*
X144546673Y-91092864D01*
X144538357Y-91088930D01*
X144530465Y-91084200D01*
X144523076Y-91078720D01*
X144516259Y-91072541D01*
X144510080Y-91065724D01*
X144504600Y-91058335D01*
X144499870Y-91050443D01*
X144495936Y-91042127D01*
X144492837Y-91033464D01*
X144490601Y-91024540D01*
X144489251Y-91015439D01*
X144488800Y-91006250D01*
X144488800Y-90818750D01*
X144489251Y-90809561D01*
X144490601Y-90800460D01*
X144492837Y-90791536D01*
X144495936Y-90782873D01*
X144499870Y-90774557D01*
X144504600Y-90766665D01*
X144510080Y-90759276D01*
X144516259Y-90752459D01*
X144523076Y-90746280D01*
X144530465Y-90740800D01*
X144538357Y-90736070D01*
X144546673Y-90732136D01*
X144555336Y-90729037D01*
X144564260Y-90726801D01*
X144573361Y-90725451D01*
X144582550Y-90725000D01*
X144795050Y-90725000D01*
X144804239Y-90725451D01*
G37*
G36*
X145454239Y-90725451D02*
G01*
X145463340Y-90726801D01*
X145472264Y-90729037D01*
X145480927Y-90732136D01*
X145489243Y-90736070D01*
X145497135Y-90740800D01*
X145504524Y-90746280D01*
X145511341Y-90752459D01*
X145517520Y-90759276D01*
X145523000Y-90766665D01*
X145527730Y-90774557D01*
X145531664Y-90782873D01*
X145534763Y-90791536D01*
X145536999Y-90800460D01*
X145538349Y-90809561D01*
X145538800Y-90818750D01*
X145538800Y-91006250D01*
X145538349Y-91015439D01*
X145536999Y-91024540D01*
X145534763Y-91033464D01*
X145531664Y-91042127D01*
X145527730Y-91050443D01*
X145523000Y-91058335D01*
X145517520Y-91065724D01*
X145511341Y-91072541D01*
X145504524Y-91078720D01*
X145497135Y-91084200D01*
X145489243Y-91088930D01*
X145480927Y-91092864D01*
X145472264Y-91095963D01*
X145463340Y-91098199D01*
X145454239Y-91099549D01*
X145445050Y-91100000D01*
X145232550Y-91100000D01*
X145223361Y-91099549D01*
X145214260Y-91098199D01*
X145205336Y-91095963D01*
X145196673Y-91092864D01*
X145188357Y-91088930D01*
X145180465Y-91084200D01*
X145173076Y-91078720D01*
X145166259Y-91072541D01*
X145160080Y-91065724D01*
X145154600Y-91058335D01*
X145149870Y-91050443D01*
X145145936Y-91042127D01*
X145142837Y-91033464D01*
X145140601Y-91024540D01*
X145139251Y-91015439D01*
X145138800Y-91006250D01*
X145138800Y-90818750D01*
X145139251Y-90809561D01*
X145140601Y-90800460D01*
X145142837Y-90791536D01*
X145145936Y-90782873D01*
X145149870Y-90774557D01*
X145154600Y-90766665D01*
X145160080Y-90759276D01*
X145166259Y-90752459D01*
X145173076Y-90746280D01*
X145180465Y-90740800D01*
X145188357Y-90736070D01*
X145196673Y-90732136D01*
X145205336Y-90729037D01*
X145214260Y-90726801D01*
X145223361Y-90725451D01*
X145232550Y-90725000D01*
X145445050Y-90725000D01*
X145454239Y-90725451D01*
G37*
G36*
X161365439Y-90625451D02*
G01*
X161374540Y-90626801D01*
X161383464Y-90629037D01*
X161392127Y-90632136D01*
X161400443Y-90636070D01*
X161408335Y-90640800D01*
X161415724Y-90646280D01*
X161422541Y-90652459D01*
X161428720Y-90659276D01*
X161434200Y-90666665D01*
X161438930Y-90674557D01*
X161442864Y-90682873D01*
X161445963Y-90691536D01*
X161448199Y-90700460D01*
X161449549Y-90709561D01*
X161450000Y-90718750D01*
X161450000Y-90906250D01*
X161449549Y-90915439D01*
X161448199Y-90924540D01*
X161445963Y-90933464D01*
X161442864Y-90942127D01*
X161438930Y-90950443D01*
X161434200Y-90958335D01*
X161428720Y-90965724D01*
X161422541Y-90972541D01*
X161415724Y-90978720D01*
X161408335Y-90984200D01*
X161400443Y-90988930D01*
X161392127Y-90992864D01*
X161383464Y-90995963D01*
X161374540Y-90998199D01*
X161365439Y-90999549D01*
X161356250Y-91000000D01*
X161143750Y-91000000D01*
X161134561Y-90999549D01*
X161125460Y-90998199D01*
X161116536Y-90995963D01*
X161107873Y-90992864D01*
X161099557Y-90988930D01*
X161091665Y-90984200D01*
X161084276Y-90978720D01*
X161077459Y-90972541D01*
X161071280Y-90965724D01*
X161065800Y-90958335D01*
X161061070Y-90950443D01*
X161057136Y-90942127D01*
X161054037Y-90933464D01*
X161051801Y-90924540D01*
X161050451Y-90915439D01*
X161050000Y-90906250D01*
X161050000Y-90718750D01*
X161050451Y-90709561D01*
X161051801Y-90700460D01*
X161054037Y-90691536D01*
X161057136Y-90682873D01*
X161061070Y-90674557D01*
X161065800Y-90666665D01*
X161071280Y-90659276D01*
X161077459Y-90652459D01*
X161084276Y-90646280D01*
X161091665Y-90640800D01*
X161099557Y-90636070D01*
X161107873Y-90632136D01*
X161116536Y-90629037D01*
X161125460Y-90626801D01*
X161134561Y-90625451D01*
X161143750Y-90625000D01*
X161356250Y-90625000D01*
X161365439Y-90625451D01*
G37*
G36*
X160715439Y-90625451D02*
G01*
X160724540Y-90626801D01*
X160733464Y-90629037D01*
X160742127Y-90632136D01*
X160750443Y-90636070D01*
X160758335Y-90640800D01*
X160765724Y-90646280D01*
X160772541Y-90652459D01*
X160778720Y-90659276D01*
X160784200Y-90666665D01*
X160788930Y-90674557D01*
X160792864Y-90682873D01*
X160795963Y-90691536D01*
X160798199Y-90700460D01*
X160799549Y-90709561D01*
X160800000Y-90718750D01*
X160800000Y-90906250D01*
X160799549Y-90915439D01*
X160798199Y-90924540D01*
X160795963Y-90933464D01*
X160792864Y-90942127D01*
X160788930Y-90950443D01*
X160784200Y-90958335D01*
X160778720Y-90965724D01*
X160772541Y-90972541D01*
X160765724Y-90978720D01*
X160758335Y-90984200D01*
X160750443Y-90988930D01*
X160742127Y-90992864D01*
X160733464Y-90995963D01*
X160724540Y-90998199D01*
X160715439Y-90999549D01*
X160706250Y-91000000D01*
X160493750Y-91000000D01*
X160484561Y-90999549D01*
X160475460Y-90998199D01*
X160466536Y-90995963D01*
X160457873Y-90992864D01*
X160449557Y-90988930D01*
X160441665Y-90984200D01*
X160434276Y-90978720D01*
X160427459Y-90972541D01*
X160421280Y-90965724D01*
X160415800Y-90958335D01*
X160411070Y-90950443D01*
X160407136Y-90942127D01*
X160404037Y-90933464D01*
X160401801Y-90924540D01*
X160400451Y-90915439D01*
X160400000Y-90906250D01*
X160400000Y-90718750D01*
X160400451Y-90709561D01*
X160401801Y-90700460D01*
X160404037Y-90691536D01*
X160407136Y-90682873D01*
X160411070Y-90674557D01*
X160415800Y-90666665D01*
X160421280Y-90659276D01*
X160427459Y-90652459D01*
X160434276Y-90646280D01*
X160441665Y-90640800D01*
X160449557Y-90636070D01*
X160457873Y-90632136D01*
X160466536Y-90629037D01*
X160475460Y-90626801D01*
X160484561Y-90625451D01*
X160493750Y-90625000D01*
X160706250Y-90625000D01*
X160715439Y-90625451D01*
G37*
G36*
X160065439Y-90625451D02*
G01*
X160074540Y-90626801D01*
X160083464Y-90629037D01*
X160092127Y-90632136D01*
X160100443Y-90636070D01*
X160108335Y-90640800D01*
X160115724Y-90646280D01*
X160122541Y-90652459D01*
X160128720Y-90659276D01*
X160134200Y-90666665D01*
X160138930Y-90674557D01*
X160142864Y-90682873D01*
X160145963Y-90691536D01*
X160148199Y-90700460D01*
X160149549Y-90709561D01*
X160150000Y-90718750D01*
X160150000Y-90906250D01*
X160149549Y-90915439D01*
X160148199Y-90924540D01*
X160145963Y-90933464D01*
X160142864Y-90942127D01*
X160138930Y-90950443D01*
X160134200Y-90958335D01*
X160128720Y-90965724D01*
X160122541Y-90972541D01*
X160115724Y-90978720D01*
X160108335Y-90984200D01*
X160100443Y-90988930D01*
X160092127Y-90992864D01*
X160083464Y-90995963D01*
X160074540Y-90998199D01*
X160065439Y-90999549D01*
X160056250Y-91000000D01*
X159843750Y-91000000D01*
X159834561Y-90999549D01*
X159825460Y-90998199D01*
X159816536Y-90995963D01*
X159807873Y-90992864D01*
X159799557Y-90988930D01*
X159791665Y-90984200D01*
X159784276Y-90978720D01*
X159777459Y-90972541D01*
X159771280Y-90965724D01*
X159765800Y-90958335D01*
X159761070Y-90950443D01*
X159757136Y-90942127D01*
X159754037Y-90933464D01*
X159751801Y-90924540D01*
X159750451Y-90915439D01*
X159750000Y-90906250D01*
X159750000Y-90718750D01*
X159750451Y-90709561D01*
X159751801Y-90700460D01*
X159754037Y-90691536D01*
X159757136Y-90682873D01*
X159761070Y-90674557D01*
X159765800Y-90666665D01*
X159771280Y-90659276D01*
X159777459Y-90652459D01*
X159784276Y-90646280D01*
X159791665Y-90640800D01*
X159799557Y-90636070D01*
X159807873Y-90632136D01*
X159816536Y-90629037D01*
X159825460Y-90626801D01*
X159834561Y-90625451D01*
X159843750Y-90625000D01*
X160056250Y-90625000D01*
X160065439Y-90625451D01*
G37*
G36*
X160065439Y-92400451D02*
G01*
X160074540Y-92401801D01*
X160083464Y-92404037D01*
X160092127Y-92407136D01*
X160100443Y-92411070D01*
X160108335Y-92415800D01*
X160115724Y-92421280D01*
X160122541Y-92427459D01*
X160128720Y-92434276D01*
X160134200Y-92441665D01*
X160138930Y-92449557D01*
X160142864Y-92457873D01*
X160145963Y-92466536D01*
X160148199Y-92475460D01*
X160149549Y-92484561D01*
X160150000Y-92493750D01*
X160150000Y-92681250D01*
X160149549Y-92690439D01*
X160148199Y-92699540D01*
X160145963Y-92708464D01*
X160142864Y-92717127D01*
X160138930Y-92725443D01*
X160134200Y-92733335D01*
X160128720Y-92740724D01*
X160122541Y-92747541D01*
X160115724Y-92753720D01*
X160108335Y-92759200D01*
X160100443Y-92763930D01*
X160092127Y-92767864D01*
X160083464Y-92770963D01*
X160074540Y-92773199D01*
X160065439Y-92774549D01*
X160056250Y-92775000D01*
X159843750Y-92775000D01*
X159834561Y-92774549D01*
X159825460Y-92773199D01*
X159816536Y-92770963D01*
X159807873Y-92767864D01*
X159799557Y-92763930D01*
X159791665Y-92759200D01*
X159784276Y-92753720D01*
X159777459Y-92747541D01*
X159771280Y-92740724D01*
X159765800Y-92733335D01*
X159761070Y-92725443D01*
X159757136Y-92717127D01*
X159754037Y-92708464D01*
X159751801Y-92699540D01*
X159750451Y-92690439D01*
X159750000Y-92681250D01*
X159750000Y-92493750D01*
X159750451Y-92484561D01*
X159751801Y-92475460D01*
X159754037Y-92466536D01*
X159757136Y-92457873D01*
X159761070Y-92449557D01*
X159765800Y-92441665D01*
X159771280Y-92434276D01*
X159777459Y-92427459D01*
X159784276Y-92421280D01*
X159791665Y-92415800D01*
X159799557Y-92411070D01*
X159807873Y-92407136D01*
X159816536Y-92404037D01*
X159825460Y-92401801D01*
X159834561Y-92400451D01*
X159843750Y-92400000D01*
X160056250Y-92400000D01*
X160065439Y-92400451D01*
G37*
G36*
X160715439Y-92400451D02*
G01*
X160724540Y-92401801D01*
X160733464Y-92404037D01*
X160742127Y-92407136D01*
X160750443Y-92411070D01*
X160758335Y-92415800D01*
X160765724Y-92421280D01*
X160772541Y-92427459D01*
X160778720Y-92434276D01*
X160784200Y-92441665D01*
X160788930Y-92449557D01*
X160792864Y-92457873D01*
X160795963Y-92466536D01*
X160798199Y-92475460D01*
X160799549Y-92484561D01*
X160800000Y-92493750D01*
X160800000Y-92681250D01*
X160799549Y-92690439D01*
X160798199Y-92699540D01*
X160795963Y-92708464D01*
X160792864Y-92717127D01*
X160788930Y-92725443D01*
X160784200Y-92733335D01*
X160778720Y-92740724D01*
X160772541Y-92747541D01*
X160765724Y-92753720D01*
X160758335Y-92759200D01*
X160750443Y-92763930D01*
X160742127Y-92767864D01*
X160733464Y-92770963D01*
X160724540Y-92773199D01*
X160715439Y-92774549D01*
X160706250Y-92775000D01*
X160493750Y-92775000D01*
X160484561Y-92774549D01*
X160475460Y-92773199D01*
X160466536Y-92770963D01*
X160457873Y-92767864D01*
X160449557Y-92763930D01*
X160441665Y-92759200D01*
X160434276Y-92753720D01*
X160427459Y-92747541D01*
X160421280Y-92740724D01*
X160415800Y-92733335D01*
X160411070Y-92725443D01*
X160407136Y-92717127D01*
X160404037Y-92708464D01*
X160401801Y-92699540D01*
X160400451Y-92690439D01*
X160400000Y-92681250D01*
X160400000Y-92493750D01*
X160400451Y-92484561D01*
X160401801Y-92475460D01*
X160404037Y-92466536D01*
X160407136Y-92457873D01*
X160411070Y-92449557D01*
X160415800Y-92441665D01*
X160421280Y-92434276D01*
X160427459Y-92427459D01*
X160434276Y-92421280D01*
X160441665Y-92415800D01*
X160449557Y-92411070D01*
X160457873Y-92407136D01*
X160466536Y-92404037D01*
X160475460Y-92401801D01*
X160484561Y-92400451D01*
X160493750Y-92400000D01*
X160706250Y-92400000D01*
X160715439Y-92400451D01*
G37*
G36*
X161365439Y-92400451D02*
G01*
X161374540Y-92401801D01*
X161383464Y-92404037D01*
X161392127Y-92407136D01*
X161400443Y-92411070D01*
X161408335Y-92415800D01*
X161415724Y-92421280D01*
X161422541Y-92427459D01*
X161428720Y-92434276D01*
X161434200Y-92441665D01*
X161438930Y-92449557D01*
X161442864Y-92457873D01*
X161445963Y-92466536D01*
X161448199Y-92475460D01*
X161449549Y-92484561D01*
X161450000Y-92493750D01*
X161450000Y-92681250D01*
X161449549Y-92690439D01*
X161448199Y-92699540D01*
X161445963Y-92708464D01*
X161442864Y-92717127D01*
X161438930Y-92725443D01*
X161434200Y-92733335D01*
X161428720Y-92740724D01*
X161422541Y-92747541D01*
X161415724Y-92753720D01*
X161408335Y-92759200D01*
X161400443Y-92763930D01*
X161392127Y-92767864D01*
X161383464Y-92770963D01*
X161374540Y-92773199D01*
X161365439Y-92774549D01*
X161356250Y-92775000D01*
X161143750Y-92775000D01*
X161134561Y-92774549D01*
X161125460Y-92773199D01*
X161116536Y-92770963D01*
X161107873Y-92767864D01*
X161099557Y-92763930D01*
X161091665Y-92759200D01*
X161084276Y-92753720D01*
X161077459Y-92747541D01*
X161071280Y-92740724D01*
X161065800Y-92733335D01*
X161061070Y-92725443D01*
X161057136Y-92717127D01*
X161054037Y-92708464D01*
X161051801Y-92699540D01*
X161050451Y-92690439D01*
X161050000Y-92681250D01*
X161050000Y-92493750D01*
X161050451Y-92484561D01*
X161051801Y-92475460D01*
X161054037Y-92466536D01*
X161057136Y-92457873D01*
X161061070Y-92449557D01*
X161065800Y-92441665D01*
X161071280Y-92434276D01*
X161077459Y-92427459D01*
X161084276Y-92421280D01*
X161091665Y-92415800D01*
X161099557Y-92411070D01*
X161107873Y-92407136D01*
X161116536Y-92404037D01*
X161125460Y-92401801D01*
X161134561Y-92400451D01*
X161143750Y-92400000D01*
X161356250Y-92400000D01*
X161365439Y-92400451D01*
G37*
G36*
X161189408Y-91265831D02*
G01*
X161206153Y-91268315D01*
X161222574Y-91272428D01*
X161238513Y-91278131D01*
X161253816Y-91285369D01*
X161268336Y-91294071D01*
X161281933Y-91304156D01*
X161294476Y-91315524D01*
X161305844Y-91328067D01*
X161315929Y-91341664D01*
X161324631Y-91356184D01*
X161331869Y-91371487D01*
X161337572Y-91387426D01*
X161341685Y-91403847D01*
X161344169Y-91420592D01*
X161345000Y-91437500D01*
X161345000Y-91962500D01*
X161344169Y-91979408D01*
X161341685Y-91996153D01*
X161337572Y-92012574D01*
X161331869Y-92028513D01*
X161324631Y-92043816D01*
X161315929Y-92058336D01*
X161305844Y-92071933D01*
X161294476Y-92084476D01*
X161281933Y-92095844D01*
X161268336Y-92105929D01*
X161253816Y-92114631D01*
X161238513Y-92121869D01*
X161222574Y-92127572D01*
X161206153Y-92131685D01*
X161189408Y-92134169D01*
X161172500Y-92135000D01*
X160827500Y-92135000D01*
X160810592Y-92134169D01*
X160793847Y-92131685D01*
X160777426Y-92127572D01*
X160761487Y-92121869D01*
X160746184Y-92114631D01*
X160731664Y-92105929D01*
X160718067Y-92095844D01*
X160705524Y-92084476D01*
X160694156Y-92071933D01*
X160684071Y-92058336D01*
X160675369Y-92043816D01*
X160668131Y-92028513D01*
X160662428Y-92012574D01*
X160658315Y-91996153D01*
X160655831Y-91979408D01*
X160655000Y-91962500D01*
X160655000Y-91437500D01*
X160655831Y-91420592D01*
X160658315Y-91403847D01*
X160662428Y-91387426D01*
X160668131Y-91371487D01*
X160675369Y-91356184D01*
X160684071Y-91341664D01*
X160694156Y-91328067D01*
X160705524Y-91315524D01*
X160718067Y-91304156D01*
X160731664Y-91294071D01*
X160746184Y-91285369D01*
X160761487Y-91278131D01*
X160777426Y-91272428D01*
X160793847Y-91268315D01*
X160810592Y-91265831D01*
X160827500Y-91265000D01*
X161172500Y-91265000D01*
X161189408Y-91265831D01*
G37*
G36*
X160389408Y-91265831D02*
G01*
X160406153Y-91268315D01*
X160422574Y-91272428D01*
X160438513Y-91278131D01*
X160453816Y-91285369D01*
X160468336Y-91294071D01*
X160481933Y-91304156D01*
X160494476Y-91315524D01*
X160505844Y-91328067D01*
X160515929Y-91341664D01*
X160524631Y-91356184D01*
X160531869Y-91371487D01*
X160537572Y-91387426D01*
X160541685Y-91403847D01*
X160544169Y-91420592D01*
X160545000Y-91437500D01*
X160545000Y-91962500D01*
X160544169Y-91979408D01*
X160541685Y-91996153D01*
X160537572Y-92012574D01*
X160531869Y-92028513D01*
X160524631Y-92043816D01*
X160515929Y-92058336D01*
X160505844Y-92071933D01*
X160494476Y-92084476D01*
X160481933Y-92095844D01*
X160468336Y-92105929D01*
X160453816Y-92114631D01*
X160438513Y-92121869D01*
X160422574Y-92127572D01*
X160406153Y-92131685D01*
X160389408Y-92134169D01*
X160372500Y-92135000D01*
X160027500Y-92135000D01*
X160010592Y-92134169D01*
X159993847Y-92131685D01*
X159977426Y-92127572D01*
X159961487Y-92121869D01*
X159946184Y-92114631D01*
X159931664Y-92105929D01*
X159918067Y-92095844D01*
X159905524Y-92084476D01*
X159894156Y-92071933D01*
X159884071Y-92058336D01*
X159875369Y-92043816D01*
X159868131Y-92028513D01*
X159862428Y-92012574D01*
X159858315Y-91996153D01*
X159855831Y-91979408D01*
X159855000Y-91962500D01*
X159855000Y-91437500D01*
X159855831Y-91420592D01*
X159858315Y-91403847D01*
X159862428Y-91387426D01*
X159868131Y-91371487D01*
X159875369Y-91356184D01*
X159884071Y-91341664D01*
X159894156Y-91328067D01*
X159905524Y-91315524D01*
X159918067Y-91304156D01*
X159931664Y-91294071D01*
X159946184Y-91285369D01*
X159961487Y-91278131D01*
X159977426Y-91272428D01*
X159993847Y-91268315D01*
X160010592Y-91265831D01*
X160027500Y-91265000D01*
X160372500Y-91265000D01*
X160389408Y-91265831D01*
G37*
D20*
X125650000Y-82600000D03*
X125650000Y-86200000D03*
X124200000Y-82600000D03*
X124200000Y-86200000D03*
X125650000Y-64600000D03*
X125650000Y-68200000D03*
X124200000Y-64600000D03*
X124200000Y-68200000D03*
D12*
G36*
X137877691Y-78351053D02*
G01*
X137898926Y-78354203D01*
X137919750Y-78359419D01*
X137939962Y-78366651D01*
X137959368Y-78375830D01*
X137977781Y-78386866D01*
X137995024Y-78399654D01*
X138010930Y-78414070D01*
X138025346Y-78429976D01*
X138038134Y-78447219D01*
X138049170Y-78465632D01*
X138058349Y-78485038D01*
X138065581Y-78505250D01*
X138070797Y-78526074D01*
X138073947Y-78547309D01*
X138075000Y-78568750D01*
X138075000Y-79006250D01*
X138073947Y-79027691D01*
X138070797Y-79048926D01*
X138065581Y-79069750D01*
X138058349Y-79089962D01*
X138049170Y-79109368D01*
X138038134Y-79127781D01*
X138025346Y-79145024D01*
X138010930Y-79160930D01*
X137995024Y-79175346D01*
X137977781Y-79188134D01*
X137959368Y-79199170D01*
X137939962Y-79208349D01*
X137919750Y-79215581D01*
X137898926Y-79220797D01*
X137877691Y-79223947D01*
X137856250Y-79225000D01*
X137343750Y-79225000D01*
X137322309Y-79223947D01*
X137301074Y-79220797D01*
X137280250Y-79215581D01*
X137260038Y-79208349D01*
X137240632Y-79199170D01*
X137222219Y-79188134D01*
X137204976Y-79175346D01*
X137189070Y-79160930D01*
X137174654Y-79145024D01*
X137161866Y-79127781D01*
X137150830Y-79109368D01*
X137141651Y-79089962D01*
X137134419Y-79069750D01*
X137129203Y-79048926D01*
X137126053Y-79027691D01*
X137125000Y-79006250D01*
X137125000Y-78568750D01*
X137126053Y-78547309D01*
X137129203Y-78526074D01*
X137134419Y-78505250D01*
X137141651Y-78485038D01*
X137150830Y-78465632D01*
X137161866Y-78447219D01*
X137174654Y-78429976D01*
X137189070Y-78414070D01*
X137204976Y-78399654D01*
X137222219Y-78386866D01*
X137240632Y-78375830D01*
X137260038Y-78366651D01*
X137280250Y-78359419D01*
X137301074Y-78354203D01*
X137322309Y-78351053D01*
X137343750Y-78350000D01*
X137856250Y-78350000D01*
X137877691Y-78351053D01*
G37*
G36*
X137877691Y-76776053D02*
G01*
X137898926Y-76779203D01*
X137919750Y-76784419D01*
X137939962Y-76791651D01*
X137959368Y-76800830D01*
X137977781Y-76811866D01*
X137995024Y-76824654D01*
X138010930Y-76839070D01*
X138025346Y-76854976D01*
X138038134Y-76872219D01*
X138049170Y-76890632D01*
X138058349Y-76910038D01*
X138065581Y-76930250D01*
X138070797Y-76951074D01*
X138073947Y-76972309D01*
X138075000Y-76993750D01*
X138075000Y-77431250D01*
X138073947Y-77452691D01*
X138070797Y-77473926D01*
X138065581Y-77494750D01*
X138058349Y-77514962D01*
X138049170Y-77534368D01*
X138038134Y-77552781D01*
X138025346Y-77570024D01*
X138010930Y-77585930D01*
X137995024Y-77600346D01*
X137977781Y-77613134D01*
X137959368Y-77624170D01*
X137939962Y-77633349D01*
X137919750Y-77640581D01*
X137898926Y-77645797D01*
X137877691Y-77648947D01*
X137856250Y-77650000D01*
X137343750Y-77650000D01*
X137322309Y-77648947D01*
X137301074Y-77645797D01*
X137280250Y-77640581D01*
X137260038Y-77633349D01*
X137240632Y-77624170D01*
X137222219Y-77613134D01*
X137204976Y-77600346D01*
X137189070Y-77585930D01*
X137174654Y-77570024D01*
X137161866Y-77552781D01*
X137150830Y-77534368D01*
X137141651Y-77514962D01*
X137134419Y-77494750D01*
X137129203Y-77473926D01*
X137126053Y-77452691D01*
X137125000Y-77431250D01*
X137125000Y-76993750D01*
X137126053Y-76972309D01*
X137129203Y-76951074D01*
X137134419Y-76930250D01*
X137141651Y-76910038D01*
X137150830Y-76890632D01*
X137161866Y-76872219D01*
X137174654Y-76854976D01*
X137189070Y-76839070D01*
X137204976Y-76824654D01*
X137222219Y-76811866D01*
X137240632Y-76800830D01*
X137260038Y-76791651D01*
X137280250Y-76784419D01*
X137301074Y-76779203D01*
X137322309Y-76776053D01*
X137343750Y-76775000D01*
X137856250Y-76775000D01*
X137877691Y-76776053D01*
G37*
G36*
X157427691Y-87076053D02*
G01*
X157448926Y-87079203D01*
X157469750Y-87084419D01*
X157489962Y-87091651D01*
X157509368Y-87100830D01*
X157527781Y-87111866D01*
X157545024Y-87124654D01*
X157560930Y-87139070D01*
X157575346Y-87154976D01*
X157588134Y-87172219D01*
X157599170Y-87190632D01*
X157608349Y-87210038D01*
X157615581Y-87230250D01*
X157620797Y-87251074D01*
X157623947Y-87272309D01*
X157625000Y-87293750D01*
X157625000Y-87731250D01*
X157623947Y-87752691D01*
X157620797Y-87773926D01*
X157615581Y-87794750D01*
X157608349Y-87814962D01*
X157599170Y-87834368D01*
X157588134Y-87852781D01*
X157575346Y-87870024D01*
X157560930Y-87885930D01*
X157545024Y-87900346D01*
X157527781Y-87913134D01*
X157509368Y-87924170D01*
X157489962Y-87933349D01*
X157469750Y-87940581D01*
X157448926Y-87945797D01*
X157427691Y-87948947D01*
X157406250Y-87950000D01*
X156893750Y-87950000D01*
X156872309Y-87948947D01*
X156851074Y-87945797D01*
X156830250Y-87940581D01*
X156810038Y-87933349D01*
X156790632Y-87924170D01*
X156772219Y-87913134D01*
X156754976Y-87900346D01*
X156739070Y-87885930D01*
X156724654Y-87870024D01*
X156711866Y-87852781D01*
X156700830Y-87834368D01*
X156691651Y-87814962D01*
X156684419Y-87794750D01*
X156679203Y-87773926D01*
X156676053Y-87752691D01*
X156675000Y-87731250D01*
X156675000Y-87293750D01*
X156676053Y-87272309D01*
X156679203Y-87251074D01*
X156684419Y-87230250D01*
X156691651Y-87210038D01*
X156700830Y-87190632D01*
X156711866Y-87172219D01*
X156724654Y-87154976D01*
X156739070Y-87139070D01*
X156754976Y-87124654D01*
X156772219Y-87111866D01*
X156790632Y-87100830D01*
X156810038Y-87091651D01*
X156830250Y-87084419D01*
X156851074Y-87079203D01*
X156872309Y-87076053D01*
X156893750Y-87075000D01*
X157406250Y-87075000D01*
X157427691Y-87076053D01*
G37*
G36*
X157427691Y-88651053D02*
G01*
X157448926Y-88654203D01*
X157469750Y-88659419D01*
X157489962Y-88666651D01*
X157509368Y-88675830D01*
X157527781Y-88686866D01*
X157545024Y-88699654D01*
X157560930Y-88714070D01*
X157575346Y-88729976D01*
X157588134Y-88747219D01*
X157599170Y-88765632D01*
X157608349Y-88785038D01*
X157615581Y-88805250D01*
X157620797Y-88826074D01*
X157623947Y-88847309D01*
X157625000Y-88868750D01*
X157625000Y-89306250D01*
X157623947Y-89327691D01*
X157620797Y-89348926D01*
X157615581Y-89369750D01*
X157608349Y-89389962D01*
X157599170Y-89409368D01*
X157588134Y-89427781D01*
X157575346Y-89445024D01*
X157560930Y-89460930D01*
X157545024Y-89475346D01*
X157527781Y-89488134D01*
X157509368Y-89499170D01*
X157489962Y-89508349D01*
X157469750Y-89515581D01*
X157448926Y-89520797D01*
X157427691Y-89523947D01*
X157406250Y-89525000D01*
X156893750Y-89525000D01*
X156872309Y-89523947D01*
X156851074Y-89520797D01*
X156830250Y-89515581D01*
X156810038Y-89508349D01*
X156790632Y-89499170D01*
X156772219Y-89488134D01*
X156754976Y-89475346D01*
X156739070Y-89460930D01*
X156724654Y-89445024D01*
X156711866Y-89427781D01*
X156700830Y-89409368D01*
X156691651Y-89389962D01*
X156684419Y-89369750D01*
X156679203Y-89348926D01*
X156676053Y-89327691D01*
X156675000Y-89306250D01*
X156675000Y-88868750D01*
X156676053Y-88847309D01*
X156679203Y-88826074D01*
X156684419Y-88805250D01*
X156691651Y-88785038D01*
X156700830Y-88765632D01*
X156711866Y-88747219D01*
X156724654Y-88729976D01*
X156739070Y-88714070D01*
X156754976Y-88699654D01*
X156772219Y-88686866D01*
X156790632Y-88675830D01*
X156810038Y-88666651D01*
X156830250Y-88659419D01*
X156851074Y-88654203D01*
X156872309Y-88651053D01*
X156893750Y-88650000D01*
X157406250Y-88650000D01*
X157427691Y-88651053D01*
G37*
G36*
X135940191Y-71526053D02*
G01*
X135961426Y-71529203D01*
X135982250Y-71534419D01*
X136002462Y-71541651D01*
X136021868Y-71550830D01*
X136040281Y-71561866D01*
X136057524Y-71574654D01*
X136073430Y-71589070D01*
X136087846Y-71604976D01*
X136100634Y-71622219D01*
X136111670Y-71640632D01*
X136120849Y-71660038D01*
X136128081Y-71680250D01*
X136133297Y-71701074D01*
X136136447Y-71722309D01*
X136137500Y-71743750D01*
X136137500Y-72256250D01*
X136136447Y-72277691D01*
X136133297Y-72298926D01*
X136128081Y-72319750D01*
X136120849Y-72339962D01*
X136111670Y-72359368D01*
X136100634Y-72377781D01*
X136087846Y-72395024D01*
X136073430Y-72410930D01*
X136057524Y-72425346D01*
X136040281Y-72438134D01*
X136021868Y-72449170D01*
X136002462Y-72458349D01*
X135982250Y-72465581D01*
X135961426Y-72470797D01*
X135940191Y-72473947D01*
X135918750Y-72475000D01*
X135481250Y-72475000D01*
X135459809Y-72473947D01*
X135438574Y-72470797D01*
X135417750Y-72465581D01*
X135397538Y-72458349D01*
X135378132Y-72449170D01*
X135359719Y-72438134D01*
X135342476Y-72425346D01*
X135326570Y-72410930D01*
X135312154Y-72395024D01*
X135299366Y-72377781D01*
X135288330Y-72359368D01*
X135279151Y-72339962D01*
X135271919Y-72319750D01*
X135266703Y-72298926D01*
X135263553Y-72277691D01*
X135262500Y-72256250D01*
X135262500Y-71743750D01*
X135263553Y-71722309D01*
X135266703Y-71701074D01*
X135271919Y-71680250D01*
X135279151Y-71660038D01*
X135288330Y-71640632D01*
X135299366Y-71622219D01*
X135312154Y-71604976D01*
X135326570Y-71589070D01*
X135342476Y-71574654D01*
X135359719Y-71561866D01*
X135378132Y-71550830D01*
X135397538Y-71541651D01*
X135417750Y-71534419D01*
X135438574Y-71529203D01*
X135459809Y-71526053D01*
X135481250Y-71525000D01*
X135918750Y-71525000D01*
X135940191Y-71526053D01*
G37*
G36*
X137515191Y-71526053D02*
G01*
X137536426Y-71529203D01*
X137557250Y-71534419D01*
X137577462Y-71541651D01*
X137596868Y-71550830D01*
X137615281Y-71561866D01*
X137632524Y-71574654D01*
X137648430Y-71589070D01*
X137662846Y-71604976D01*
X137675634Y-71622219D01*
X137686670Y-71640632D01*
X137695849Y-71660038D01*
X137703081Y-71680250D01*
X137708297Y-71701074D01*
X137711447Y-71722309D01*
X137712500Y-71743750D01*
X137712500Y-72256250D01*
X137711447Y-72277691D01*
X137708297Y-72298926D01*
X137703081Y-72319750D01*
X137695849Y-72339962D01*
X137686670Y-72359368D01*
X137675634Y-72377781D01*
X137662846Y-72395024D01*
X137648430Y-72410930D01*
X137632524Y-72425346D01*
X137615281Y-72438134D01*
X137596868Y-72449170D01*
X137577462Y-72458349D01*
X137557250Y-72465581D01*
X137536426Y-72470797D01*
X137515191Y-72473947D01*
X137493750Y-72475000D01*
X137056250Y-72475000D01*
X137034809Y-72473947D01*
X137013574Y-72470797D01*
X136992750Y-72465581D01*
X136972538Y-72458349D01*
X136953132Y-72449170D01*
X136934719Y-72438134D01*
X136917476Y-72425346D01*
X136901570Y-72410930D01*
X136887154Y-72395024D01*
X136874366Y-72377781D01*
X136863330Y-72359368D01*
X136854151Y-72339962D01*
X136846919Y-72319750D01*
X136841703Y-72298926D01*
X136838553Y-72277691D01*
X136837500Y-72256250D01*
X136837500Y-71743750D01*
X136838553Y-71722309D01*
X136841703Y-71701074D01*
X136846919Y-71680250D01*
X136854151Y-71660038D01*
X136863330Y-71640632D01*
X136874366Y-71622219D01*
X136887154Y-71604976D01*
X136901570Y-71589070D01*
X136917476Y-71574654D01*
X136934719Y-71561866D01*
X136953132Y-71550830D01*
X136972538Y-71541651D01*
X136992750Y-71534419D01*
X137013574Y-71529203D01*
X137034809Y-71526053D01*
X137056250Y-71525000D01*
X137493750Y-71525000D01*
X137515191Y-71526053D01*
G37*
G36*
X141065191Y-63126053D02*
G01*
X141086426Y-63129203D01*
X141107250Y-63134419D01*
X141127462Y-63141651D01*
X141146868Y-63150830D01*
X141165281Y-63161866D01*
X141182524Y-63174654D01*
X141198430Y-63189070D01*
X141212846Y-63204976D01*
X141225634Y-63222219D01*
X141236670Y-63240632D01*
X141245849Y-63260038D01*
X141253081Y-63280250D01*
X141258297Y-63301074D01*
X141261447Y-63322309D01*
X141262500Y-63343750D01*
X141262500Y-63856250D01*
X141261447Y-63877691D01*
X141258297Y-63898926D01*
X141253081Y-63919750D01*
X141245849Y-63939962D01*
X141236670Y-63959368D01*
X141225634Y-63977781D01*
X141212846Y-63995024D01*
X141198430Y-64010930D01*
X141182524Y-64025346D01*
X141165281Y-64038134D01*
X141146868Y-64049170D01*
X141127462Y-64058349D01*
X141107250Y-64065581D01*
X141086426Y-64070797D01*
X141065191Y-64073947D01*
X141043750Y-64075000D01*
X140606250Y-64075000D01*
X140584809Y-64073947D01*
X140563574Y-64070797D01*
X140542750Y-64065581D01*
X140522538Y-64058349D01*
X140503132Y-64049170D01*
X140484719Y-64038134D01*
X140467476Y-64025346D01*
X140451570Y-64010930D01*
X140437154Y-63995024D01*
X140424366Y-63977781D01*
X140413330Y-63959368D01*
X140404151Y-63939962D01*
X140396919Y-63919750D01*
X140391703Y-63898926D01*
X140388553Y-63877691D01*
X140387500Y-63856250D01*
X140387500Y-63343750D01*
X140388553Y-63322309D01*
X140391703Y-63301074D01*
X140396919Y-63280250D01*
X140404151Y-63260038D01*
X140413330Y-63240632D01*
X140424366Y-63222219D01*
X140437154Y-63204976D01*
X140451570Y-63189070D01*
X140467476Y-63174654D01*
X140484719Y-63161866D01*
X140503132Y-63150830D01*
X140522538Y-63141651D01*
X140542750Y-63134419D01*
X140563574Y-63129203D01*
X140584809Y-63126053D01*
X140606250Y-63125000D01*
X141043750Y-63125000D01*
X141065191Y-63126053D01*
G37*
G36*
X142640191Y-63126053D02*
G01*
X142661426Y-63129203D01*
X142682250Y-63134419D01*
X142702462Y-63141651D01*
X142721868Y-63150830D01*
X142740281Y-63161866D01*
X142757524Y-63174654D01*
X142773430Y-63189070D01*
X142787846Y-63204976D01*
X142800634Y-63222219D01*
X142811670Y-63240632D01*
X142820849Y-63260038D01*
X142828081Y-63280250D01*
X142833297Y-63301074D01*
X142836447Y-63322309D01*
X142837500Y-63343750D01*
X142837500Y-63856250D01*
X142836447Y-63877691D01*
X142833297Y-63898926D01*
X142828081Y-63919750D01*
X142820849Y-63939962D01*
X142811670Y-63959368D01*
X142800634Y-63977781D01*
X142787846Y-63995024D01*
X142773430Y-64010930D01*
X142757524Y-64025346D01*
X142740281Y-64038134D01*
X142721868Y-64049170D01*
X142702462Y-64058349D01*
X142682250Y-64065581D01*
X142661426Y-64070797D01*
X142640191Y-64073947D01*
X142618750Y-64075000D01*
X142181250Y-64075000D01*
X142159809Y-64073947D01*
X142138574Y-64070797D01*
X142117750Y-64065581D01*
X142097538Y-64058349D01*
X142078132Y-64049170D01*
X142059719Y-64038134D01*
X142042476Y-64025346D01*
X142026570Y-64010930D01*
X142012154Y-63995024D01*
X141999366Y-63977781D01*
X141988330Y-63959368D01*
X141979151Y-63939962D01*
X141971919Y-63919750D01*
X141966703Y-63898926D01*
X141963553Y-63877691D01*
X141962500Y-63856250D01*
X141962500Y-63343750D01*
X141963553Y-63322309D01*
X141966703Y-63301074D01*
X141971919Y-63280250D01*
X141979151Y-63260038D01*
X141988330Y-63240632D01*
X141999366Y-63222219D01*
X142012154Y-63204976D01*
X142026570Y-63189070D01*
X142042476Y-63174654D01*
X142059719Y-63161866D01*
X142078132Y-63150830D01*
X142097538Y-63141651D01*
X142117750Y-63134419D01*
X142138574Y-63129203D01*
X142159809Y-63126053D01*
X142181250Y-63125000D01*
X142618750Y-63125000D01*
X142640191Y-63126053D01*
G37*
G36*
X163599691Y-84043953D02*
G01*
X163620926Y-84047103D01*
X163641750Y-84052319D01*
X163661962Y-84059551D01*
X163681368Y-84068730D01*
X163699781Y-84079766D01*
X163717024Y-84092554D01*
X163732930Y-84106970D01*
X163747346Y-84122876D01*
X163760134Y-84140119D01*
X163771170Y-84158532D01*
X163780349Y-84177938D01*
X163787581Y-84198150D01*
X163792797Y-84218974D01*
X163795947Y-84240209D01*
X163797000Y-84261650D01*
X163797000Y-84699150D01*
X163795947Y-84720591D01*
X163792797Y-84741826D01*
X163787581Y-84762650D01*
X163780349Y-84782862D01*
X163771170Y-84802268D01*
X163760134Y-84820681D01*
X163747346Y-84837924D01*
X163732930Y-84853830D01*
X163717024Y-84868246D01*
X163699781Y-84881034D01*
X163681368Y-84892070D01*
X163661962Y-84901249D01*
X163641750Y-84908481D01*
X163620926Y-84913697D01*
X163599691Y-84916847D01*
X163578250Y-84917900D01*
X163065750Y-84917900D01*
X163044309Y-84916847D01*
X163023074Y-84913697D01*
X163002250Y-84908481D01*
X162982038Y-84901249D01*
X162962632Y-84892070D01*
X162944219Y-84881034D01*
X162926976Y-84868246D01*
X162911070Y-84853830D01*
X162896654Y-84837924D01*
X162883866Y-84820681D01*
X162872830Y-84802268D01*
X162863651Y-84782862D01*
X162856419Y-84762650D01*
X162851203Y-84741826D01*
X162848053Y-84720591D01*
X162847000Y-84699150D01*
X162847000Y-84261650D01*
X162848053Y-84240209D01*
X162851203Y-84218974D01*
X162856419Y-84198150D01*
X162863651Y-84177938D01*
X162872830Y-84158532D01*
X162883866Y-84140119D01*
X162896654Y-84122876D01*
X162911070Y-84106970D01*
X162926976Y-84092554D01*
X162944219Y-84079766D01*
X162962632Y-84068730D01*
X162982038Y-84059551D01*
X163002250Y-84052319D01*
X163023074Y-84047103D01*
X163044309Y-84043953D01*
X163065750Y-84042900D01*
X163578250Y-84042900D01*
X163599691Y-84043953D01*
G37*
G36*
X163599691Y-82468953D02*
G01*
X163620926Y-82472103D01*
X163641750Y-82477319D01*
X163661962Y-82484551D01*
X163681368Y-82493730D01*
X163699781Y-82504766D01*
X163717024Y-82517554D01*
X163732930Y-82531970D01*
X163747346Y-82547876D01*
X163760134Y-82565119D01*
X163771170Y-82583532D01*
X163780349Y-82602938D01*
X163787581Y-82623150D01*
X163792797Y-82643974D01*
X163795947Y-82665209D01*
X163797000Y-82686650D01*
X163797000Y-83124150D01*
X163795947Y-83145591D01*
X163792797Y-83166826D01*
X163787581Y-83187650D01*
X163780349Y-83207862D01*
X163771170Y-83227268D01*
X163760134Y-83245681D01*
X163747346Y-83262924D01*
X163732930Y-83278830D01*
X163717024Y-83293246D01*
X163699781Y-83306034D01*
X163681368Y-83317070D01*
X163661962Y-83326249D01*
X163641750Y-83333481D01*
X163620926Y-83338697D01*
X163599691Y-83341847D01*
X163578250Y-83342900D01*
X163065750Y-83342900D01*
X163044309Y-83341847D01*
X163023074Y-83338697D01*
X163002250Y-83333481D01*
X162982038Y-83326249D01*
X162962632Y-83317070D01*
X162944219Y-83306034D01*
X162926976Y-83293246D01*
X162911070Y-83278830D01*
X162896654Y-83262924D01*
X162883866Y-83245681D01*
X162872830Y-83227268D01*
X162863651Y-83207862D01*
X162856419Y-83187650D01*
X162851203Y-83166826D01*
X162848053Y-83145591D01*
X162847000Y-83124150D01*
X162847000Y-82686650D01*
X162848053Y-82665209D01*
X162851203Y-82643974D01*
X162856419Y-82623150D01*
X162863651Y-82602938D01*
X162872830Y-82583532D01*
X162883866Y-82565119D01*
X162896654Y-82547876D01*
X162911070Y-82531970D01*
X162926976Y-82517554D01*
X162944219Y-82504766D01*
X162962632Y-82493730D01*
X162982038Y-82484551D01*
X163002250Y-82477319D01*
X163023074Y-82472103D01*
X163044309Y-82468953D01*
X163065750Y-82467900D01*
X163578250Y-82467900D01*
X163599691Y-82468953D01*
G37*
G36*
X150740191Y-95626053D02*
G01*
X150761426Y-95629203D01*
X150782250Y-95634419D01*
X150802462Y-95641651D01*
X150821868Y-95650830D01*
X150840281Y-95661866D01*
X150857524Y-95674654D01*
X150873430Y-95689070D01*
X150887846Y-95704976D01*
X150900634Y-95722219D01*
X150911670Y-95740632D01*
X150920849Y-95760038D01*
X150928081Y-95780250D01*
X150933297Y-95801074D01*
X150936447Y-95822309D01*
X150937500Y-95843750D01*
X150937500Y-96356250D01*
X150936447Y-96377691D01*
X150933297Y-96398926D01*
X150928081Y-96419750D01*
X150920849Y-96439962D01*
X150911670Y-96459368D01*
X150900634Y-96477781D01*
X150887846Y-96495024D01*
X150873430Y-96510930D01*
X150857524Y-96525346D01*
X150840281Y-96538134D01*
X150821868Y-96549170D01*
X150802462Y-96558349D01*
X150782250Y-96565581D01*
X150761426Y-96570797D01*
X150740191Y-96573947D01*
X150718750Y-96575000D01*
X150281250Y-96575000D01*
X150259809Y-96573947D01*
X150238574Y-96570797D01*
X150217750Y-96565581D01*
X150197538Y-96558349D01*
X150178132Y-96549170D01*
X150159719Y-96538134D01*
X150142476Y-96525346D01*
X150126570Y-96510930D01*
X150112154Y-96495024D01*
X150099366Y-96477781D01*
X150088330Y-96459368D01*
X150079151Y-96439962D01*
X150071919Y-96419750D01*
X150066703Y-96398926D01*
X150063553Y-96377691D01*
X150062500Y-96356250D01*
X150062500Y-95843750D01*
X150063553Y-95822309D01*
X150066703Y-95801074D01*
X150071919Y-95780250D01*
X150079151Y-95760038D01*
X150088330Y-95740632D01*
X150099366Y-95722219D01*
X150112154Y-95704976D01*
X150126570Y-95689070D01*
X150142476Y-95674654D01*
X150159719Y-95661866D01*
X150178132Y-95650830D01*
X150197538Y-95641651D01*
X150217750Y-95634419D01*
X150238574Y-95629203D01*
X150259809Y-95626053D01*
X150281250Y-95625000D01*
X150718750Y-95625000D01*
X150740191Y-95626053D01*
G37*
G36*
X149165191Y-95626053D02*
G01*
X149186426Y-95629203D01*
X149207250Y-95634419D01*
X149227462Y-95641651D01*
X149246868Y-95650830D01*
X149265281Y-95661866D01*
X149282524Y-95674654D01*
X149298430Y-95689070D01*
X149312846Y-95704976D01*
X149325634Y-95722219D01*
X149336670Y-95740632D01*
X149345849Y-95760038D01*
X149353081Y-95780250D01*
X149358297Y-95801074D01*
X149361447Y-95822309D01*
X149362500Y-95843750D01*
X149362500Y-96356250D01*
X149361447Y-96377691D01*
X149358297Y-96398926D01*
X149353081Y-96419750D01*
X149345849Y-96439962D01*
X149336670Y-96459368D01*
X149325634Y-96477781D01*
X149312846Y-96495024D01*
X149298430Y-96510930D01*
X149282524Y-96525346D01*
X149265281Y-96538134D01*
X149246868Y-96549170D01*
X149227462Y-96558349D01*
X149207250Y-96565581D01*
X149186426Y-96570797D01*
X149165191Y-96573947D01*
X149143750Y-96575000D01*
X148706250Y-96575000D01*
X148684809Y-96573947D01*
X148663574Y-96570797D01*
X148642750Y-96565581D01*
X148622538Y-96558349D01*
X148603132Y-96549170D01*
X148584719Y-96538134D01*
X148567476Y-96525346D01*
X148551570Y-96510930D01*
X148537154Y-96495024D01*
X148524366Y-96477781D01*
X148513330Y-96459368D01*
X148504151Y-96439962D01*
X148496919Y-96419750D01*
X148491703Y-96398926D01*
X148488553Y-96377691D01*
X148487500Y-96356250D01*
X148487500Y-95843750D01*
X148488553Y-95822309D01*
X148491703Y-95801074D01*
X148496919Y-95780250D01*
X148504151Y-95760038D01*
X148513330Y-95740632D01*
X148524366Y-95722219D01*
X148537154Y-95704976D01*
X148551570Y-95689070D01*
X148567476Y-95674654D01*
X148584719Y-95661866D01*
X148603132Y-95650830D01*
X148622538Y-95641651D01*
X148642750Y-95634419D01*
X148663574Y-95629203D01*
X148684809Y-95626053D01*
X148706250Y-95625000D01*
X149143750Y-95625000D01*
X149165191Y-95626053D01*
G37*
G36*
X137577691Y-85763553D02*
G01*
X137598926Y-85766703D01*
X137619750Y-85771919D01*
X137639962Y-85779151D01*
X137659368Y-85788330D01*
X137677781Y-85799366D01*
X137695024Y-85812154D01*
X137710930Y-85826570D01*
X137725346Y-85842476D01*
X137738134Y-85859719D01*
X137749170Y-85878132D01*
X137758349Y-85897538D01*
X137765581Y-85917750D01*
X137770797Y-85938574D01*
X137773947Y-85959809D01*
X137775000Y-85981250D01*
X137775000Y-86418750D01*
X137773947Y-86440191D01*
X137770797Y-86461426D01*
X137765581Y-86482250D01*
X137758349Y-86502462D01*
X137749170Y-86521868D01*
X137738134Y-86540281D01*
X137725346Y-86557524D01*
X137710930Y-86573430D01*
X137695024Y-86587846D01*
X137677781Y-86600634D01*
X137659368Y-86611670D01*
X137639962Y-86620849D01*
X137619750Y-86628081D01*
X137598926Y-86633297D01*
X137577691Y-86636447D01*
X137556250Y-86637500D01*
X137043750Y-86637500D01*
X137022309Y-86636447D01*
X137001074Y-86633297D01*
X136980250Y-86628081D01*
X136960038Y-86620849D01*
X136940632Y-86611670D01*
X136922219Y-86600634D01*
X136904976Y-86587846D01*
X136889070Y-86573430D01*
X136874654Y-86557524D01*
X136861866Y-86540281D01*
X136850830Y-86521868D01*
X136841651Y-86502462D01*
X136834419Y-86482250D01*
X136829203Y-86461426D01*
X136826053Y-86440191D01*
X136825000Y-86418750D01*
X136825000Y-85981250D01*
X136826053Y-85959809D01*
X136829203Y-85938574D01*
X136834419Y-85917750D01*
X136841651Y-85897538D01*
X136850830Y-85878132D01*
X136861866Y-85859719D01*
X136874654Y-85842476D01*
X136889070Y-85826570D01*
X136904976Y-85812154D01*
X136922219Y-85799366D01*
X136940632Y-85788330D01*
X136960038Y-85779151D01*
X136980250Y-85771919D01*
X137001074Y-85766703D01*
X137022309Y-85763553D01*
X137043750Y-85762500D01*
X137556250Y-85762500D01*
X137577691Y-85763553D01*
G37*
G36*
X137577691Y-87338553D02*
G01*
X137598926Y-87341703D01*
X137619750Y-87346919D01*
X137639962Y-87354151D01*
X137659368Y-87363330D01*
X137677781Y-87374366D01*
X137695024Y-87387154D01*
X137710930Y-87401570D01*
X137725346Y-87417476D01*
X137738134Y-87434719D01*
X137749170Y-87453132D01*
X137758349Y-87472538D01*
X137765581Y-87492750D01*
X137770797Y-87513574D01*
X137773947Y-87534809D01*
X137775000Y-87556250D01*
X137775000Y-87993750D01*
X137773947Y-88015191D01*
X137770797Y-88036426D01*
X137765581Y-88057250D01*
X137758349Y-88077462D01*
X137749170Y-88096868D01*
X137738134Y-88115281D01*
X137725346Y-88132524D01*
X137710930Y-88148430D01*
X137695024Y-88162846D01*
X137677781Y-88175634D01*
X137659368Y-88186670D01*
X137639962Y-88195849D01*
X137619750Y-88203081D01*
X137598926Y-88208297D01*
X137577691Y-88211447D01*
X137556250Y-88212500D01*
X137043750Y-88212500D01*
X137022309Y-88211447D01*
X137001074Y-88208297D01*
X136980250Y-88203081D01*
X136960038Y-88195849D01*
X136940632Y-88186670D01*
X136922219Y-88175634D01*
X136904976Y-88162846D01*
X136889070Y-88148430D01*
X136874654Y-88132524D01*
X136861866Y-88115281D01*
X136850830Y-88096868D01*
X136841651Y-88077462D01*
X136834419Y-88057250D01*
X136829203Y-88036426D01*
X136826053Y-88015191D01*
X136825000Y-87993750D01*
X136825000Y-87556250D01*
X136826053Y-87534809D01*
X136829203Y-87513574D01*
X136834419Y-87492750D01*
X136841651Y-87472538D01*
X136850830Y-87453132D01*
X136861866Y-87434719D01*
X136874654Y-87417476D01*
X136889070Y-87401570D01*
X136904976Y-87387154D01*
X136922219Y-87374366D01*
X136940632Y-87363330D01*
X136960038Y-87354151D01*
X136980250Y-87346919D01*
X137001074Y-87341703D01*
X137022309Y-87338553D01*
X137043750Y-87337500D01*
X137556250Y-87337500D01*
X137577691Y-87338553D01*
G37*
G36*
X146077691Y-83363553D02*
G01*
X146098926Y-83366703D01*
X146119750Y-83371919D01*
X146139962Y-83379151D01*
X146159368Y-83388330D01*
X146177781Y-83399366D01*
X146195024Y-83412154D01*
X146210930Y-83426570D01*
X146225346Y-83442476D01*
X146238134Y-83459719D01*
X146249170Y-83478132D01*
X146258349Y-83497538D01*
X146265581Y-83517750D01*
X146270797Y-83538574D01*
X146273947Y-83559809D01*
X146275000Y-83581250D01*
X146275000Y-84018750D01*
X146273947Y-84040191D01*
X146270797Y-84061426D01*
X146265581Y-84082250D01*
X146258349Y-84102462D01*
X146249170Y-84121868D01*
X146238134Y-84140281D01*
X146225346Y-84157524D01*
X146210930Y-84173430D01*
X146195024Y-84187846D01*
X146177781Y-84200634D01*
X146159368Y-84211670D01*
X146139962Y-84220849D01*
X146119750Y-84228081D01*
X146098926Y-84233297D01*
X146077691Y-84236447D01*
X146056250Y-84237500D01*
X145543750Y-84237500D01*
X145522309Y-84236447D01*
X145501074Y-84233297D01*
X145480250Y-84228081D01*
X145460038Y-84220849D01*
X145440632Y-84211670D01*
X145422219Y-84200634D01*
X145404976Y-84187846D01*
X145389070Y-84173430D01*
X145374654Y-84157524D01*
X145361866Y-84140281D01*
X145350830Y-84121868D01*
X145341651Y-84102462D01*
X145334419Y-84082250D01*
X145329203Y-84061426D01*
X145326053Y-84040191D01*
X145325000Y-84018750D01*
X145325000Y-83581250D01*
X145326053Y-83559809D01*
X145329203Y-83538574D01*
X145334419Y-83517750D01*
X145341651Y-83497538D01*
X145350830Y-83478132D01*
X145361866Y-83459719D01*
X145374654Y-83442476D01*
X145389070Y-83426570D01*
X145404976Y-83412154D01*
X145422219Y-83399366D01*
X145440632Y-83388330D01*
X145460038Y-83379151D01*
X145480250Y-83371919D01*
X145501074Y-83366703D01*
X145522309Y-83363553D01*
X145543750Y-83362500D01*
X146056250Y-83362500D01*
X146077691Y-83363553D01*
G37*
G36*
X146077691Y-84938553D02*
G01*
X146098926Y-84941703D01*
X146119750Y-84946919D01*
X146139962Y-84954151D01*
X146159368Y-84963330D01*
X146177781Y-84974366D01*
X146195024Y-84987154D01*
X146210930Y-85001570D01*
X146225346Y-85017476D01*
X146238134Y-85034719D01*
X146249170Y-85053132D01*
X146258349Y-85072538D01*
X146265581Y-85092750D01*
X146270797Y-85113574D01*
X146273947Y-85134809D01*
X146275000Y-85156250D01*
X146275000Y-85593750D01*
X146273947Y-85615191D01*
X146270797Y-85636426D01*
X146265581Y-85657250D01*
X146258349Y-85677462D01*
X146249170Y-85696868D01*
X146238134Y-85715281D01*
X146225346Y-85732524D01*
X146210930Y-85748430D01*
X146195024Y-85762846D01*
X146177781Y-85775634D01*
X146159368Y-85786670D01*
X146139962Y-85795849D01*
X146119750Y-85803081D01*
X146098926Y-85808297D01*
X146077691Y-85811447D01*
X146056250Y-85812500D01*
X145543750Y-85812500D01*
X145522309Y-85811447D01*
X145501074Y-85808297D01*
X145480250Y-85803081D01*
X145460038Y-85795849D01*
X145440632Y-85786670D01*
X145422219Y-85775634D01*
X145404976Y-85762846D01*
X145389070Y-85748430D01*
X145374654Y-85732524D01*
X145361866Y-85715281D01*
X145350830Y-85696868D01*
X145341651Y-85677462D01*
X145334419Y-85657250D01*
X145329203Y-85636426D01*
X145326053Y-85615191D01*
X145325000Y-85593750D01*
X145325000Y-85156250D01*
X145326053Y-85134809D01*
X145329203Y-85113574D01*
X145334419Y-85092750D01*
X145341651Y-85072538D01*
X145350830Y-85053132D01*
X145361866Y-85034719D01*
X145374654Y-85017476D01*
X145389070Y-85001570D01*
X145404976Y-84987154D01*
X145422219Y-84974366D01*
X145440632Y-84963330D01*
X145460038Y-84954151D01*
X145480250Y-84946919D01*
X145501074Y-84941703D01*
X145522309Y-84938553D01*
X145543750Y-84937500D01*
X146056250Y-84937500D01*
X146077691Y-84938553D01*
G37*
G36*
X161453991Y-83396853D02*
G01*
X161475226Y-83400003D01*
X161496050Y-83405219D01*
X161516262Y-83412451D01*
X161535668Y-83421630D01*
X161554081Y-83432666D01*
X161571324Y-83445454D01*
X161587230Y-83459870D01*
X161601646Y-83475776D01*
X161614434Y-83493019D01*
X161625470Y-83511432D01*
X161634649Y-83530838D01*
X161641881Y-83551050D01*
X161647097Y-83571874D01*
X161650247Y-83593109D01*
X161651300Y-83614550D01*
X161651300Y-84127050D01*
X161650247Y-84148491D01*
X161647097Y-84169726D01*
X161641881Y-84190550D01*
X161634649Y-84210762D01*
X161625470Y-84230168D01*
X161614434Y-84248581D01*
X161601646Y-84265824D01*
X161587230Y-84281730D01*
X161571324Y-84296146D01*
X161554081Y-84308934D01*
X161535668Y-84319970D01*
X161516262Y-84329149D01*
X161496050Y-84336381D01*
X161475226Y-84341597D01*
X161453991Y-84344747D01*
X161432550Y-84345800D01*
X160995050Y-84345800D01*
X160973609Y-84344747D01*
X160952374Y-84341597D01*
X160931550Y-84336381D01*
X160911338Y-84329149D01*
X160891932Y-84319970D01*
X160873519Y-84308934D01*
X160856276Y-84296146D01*
X160840370Y-84281730D01*
X160825954Y-84265824D01*
X160813166Y-84248581D01*
X160802130Y-84230168D01*
X160792951Y-84210762D01*
X160785719Y-84190550D01*
X160780503Y-84169726D01*
X160777353Y-84148491D01*
X160776300Y-84127050D01*
X160776300Y-83614550D01*
X160777353Y-83593109D01*
X160780503Y-83571874D01*
X160785719Y-83551050D01*
X160792951Y-83530838D01*
X160802130Y-83511432D01*
X160813166Y-83493019D01*
X160825954Y-83475776D01*
X160840370Y-83459870D01*
X160856276Y-83445454D01*
X160873519Y-83432666D01*
X160891932Y-83421630D01*
X160911338Y-83412451D01*
X160931550Y-83405219D01*
X160952374Y-83400003D01*
X160973609Y-83396853D01*
X160995050Y-83395800D01*
X161432550Y-83395800D01*
X161453991Y-83396853D01*
G37*
G36*
X159878991Y-83396853D02*
G01*
X159900226Y-83400003D01*
X159921050Y-83405219D01*
X159941262Y-83412451D01*
X159960668Y-83421630D01*
X159979081Y-83432666D01*
X159996324Y-83445454D01*
X160012230Y-83459870D01*
X160026646Y-83475776D01*
X160039434Y-83493019D01*
X160050470Y-83511432D01*
X160059649Y-83530838D01*
X160066881Y-83551050D01*
X160072097Y-83571874D01*
X160075247Y-83593109D01*
X160076300Y-83614550D01*
X160076300Y-84127050D01*
X160075247Y-84148491D01*
X160072097Y-84169726D01*
X160066881Y-84190550D01*
X160059649Y-84210762D01*
X160050470Y-84230168D01*
X160039434Y-84248581D01*
X160026646Y-84265824D01*
X160012230Y-84281730D01*
X159996324Y-84296146D01*
X159979081Y-84308934D01*
X159960668Y-84319970D01*
X159941262Y-84329149D01*
X159921050Y-84336381D01*
X159900226Y-84341597D01*
X159878991Y-84344747D01*
X159857550Y-84345800D01*
X159420050Y-84345800D01*
X159398609Y-84344747D01*
X159377374Y-84341597D01*
X159356550Y-84336381D01*
X159336338Y-84329149D01*
X159316932Y-84319970D01*
X159298519Y-84308934D01*
X159281276Y-84296146D01*
X159265370Y-84281730D01*
X159250954Y-84265824D01*
X159238166Y-84248581D01*
X159227130Y-84230168D01*
X159217951Y-84210762D01*
X159210719Y-84190550D01*
X159205503Y-84169726D01*
X159202353Y-84148491D01*
X159201300Y-84127050D01*
X159201300Y-83614550D01*
X159202353Y-83593109D01*
X159205503Y-83571874D01*
X159210719Y-83551050D01*
X159217951Y-83530838D01*
X159227130Y-83511432D01*
X159238166Y-83493019D01*
X159250954Y-83475776D01*
X159265370Y-83459870D01*
X159281276Y-83445454D01*
X159298519Y-83432666D01*
X159316932Y-83421630D01*
X159336338Y-83412451D01*
X159356550Y-83405219D01*
X159377374Y-83400003D01*
X159398609Y-83396853D01*
X159420050Y-83395800D01*
X159857550Y-83395800D01*
X159878991Y-83396853D01*
G37*
G36*
X157503691Y-84938553D02*
G01*
X157524926Y-84941703D01*
X157545750Y-84946919D01*
X157565962Y-84954151D01*
X157585368Y-84963330D01*
X157603781Y-84974366D01*
X157621024Y-84987154D01*
X157636930Y-85001570D01*
X157651346Y-85017476D01*
X157664134Y-85034719D01*
X157675170Y-85053132D01*
X157684349Y-85072538D01*
X157691581Y-85092750D01*
X157696797Y-85113574D01*
X157699947Y-85134809D01*
X157701000Y-85156250D01*
X157701000Y-85593750D01*
X157699947Y-85615191D01*
X157696797Y-85636426D01*
X157691581Y-85657250D01*
X157684349Y-85677462D01*
X157675170Y-85696868D01*
X157664134Y-85715281D01*
X157651346Y-85732524D01*
X157636930Y-85748430D01*
X157621024Y-85762846D01*
X157603781Y-85775634D01*
X157585368Y-85786670D01*
X157565962Y-85795849D01*
X157545750Y-85803081D01*
X157524926Y-85808297D01*
X157503691Y-85811447D01*
X157482250Y-85812500D01*
X156969750Y-85812500D01*
X156948309Y-85811447D01*
X156927074Y-85808297D01*
X156906250Y-85803081D01*
X156886038Y-85795849D01*
X156866632Y-85786670D01*
X156848219Y-85775634D01*
X156830976Y-85762846D01*
X156815070Y-85748430D01*
X156800654Y-85732524D01*
X156787866Y-85715281D01*
X156776830Y-85696868D01*
X156767651Y-85677462D01*
X156760419Y-85657250D01*
X156755203Y-85636426D01*
X156752053Y-85615191D01*
X156751000Y-85593750D01*
X156751000Y-85156250D01*
X156752053Y-85134809D01*
X156755203Y-85113574D01*
X156760419Y-85092750D01*
X156767651Y-85072538D01*
X156776830Y-85053132D01*
X156787866Y-85034719D01*
X156800654Y-85017476D01*
X156815070Y-85001570D01*
X156830976Y-84987154D01*
X156848219Y-84974366D01*
X156866632Y-84963330D01*
X156886038Y-84954151D01*
X156906250Y-84946919D01*
X156927074Y-84941703D01*
X156948309Y-84938553D01*
X156969750Y-84937500D01*
X157482250Y-84937500D01*
X157503691Y-84938553D01*
G37*
G36*
X157503691Y-83363553D02*
G01*
X157524926Y-83366703D01*
X157545750Y-83371919D01*
X157565962Y-83379151D01*
X157585368Y-83388330D01*
X157603781Y-83399366D01*
X157621024Y-83412154D01*
X157636930Y-83426570D01*
X157651346Y-83442476D01*
X157664134Y-83459719D01*
X157675170Y-83478132D01*
X157684349Y-83497538D01*
X157691581Y-83517750D01*
X157696797Y-83538574D01*
X157699947Y-83559809D01*
X157701000Y-83581250D01*
X157701000Y-84018750D01*
X157699947Y-84040191D01*
X157696797Y-84061426D01*
X157691581Y-84082250D01*
X157684349Y-84102462D01*
X157675170Y-84121868D01*
X157664134Y-84140281D01*
X157651346Y-84157524D01*
X157636930Y-84173430D01*
X157621024Y-84187846D01*
X157603781Y-84200634D01*
X157585368Y-84211670D01*
X157565962Y-84220849D01*
X157545750Y-84228081D01*
X157524926Y-84233297D01*
X157503691Y-84236447D01*
X157482250Y-84237500D01*
X156969750Y-84237500D01*
X156948309Y-84236447D01*
X156927074Y-84233297D01*
X156906250Y-84228081D01*
X156886038Y-84220849D01*
X156866632Y-84211670D01*
X156848219Y-84200634D01*
X156830976Y-84187846D01*
X156815070Y-84173430D01*
X156800654Y-84157524D01*
X156787866Y-84140281D01*
X156776830Y-84121868D01*
X156767651Y-84102462D01*
X156760419Y-84082250D01*
X156755203Y-84061426D01*
X156752053Y-84040191D01*
X156751000Y-84018750D01*
X156751000Y-83581250D01*
X156752053Y-83559809D01*
X156755203Y-83538574D01*
X156760419Y-83517750D01*
X156767651Y-83497538D01*
X156776830Y-83478132D01*
X156787866Y-83459719D01*
X156800654Y-83442476D01*
X156815070Y-83426570D01*
X156830976Y-83412154D01*
X156848219Y-83399366D01*
X156866632Y-83388330D01*
X156886038Y-83379151D01*
X156906250Y-83371919D01*
X156927074Y-83366703D01*
X156948309Y-83363553D01*
X156969750Y-83362500D01*
X157482250Y-83362500D01*
X157503691Y-83363553D01*
G37*
G36*
X129373791Y-86241653D02*
G01*
X129395026Y-86244803D01*
X129415850Y-86250019D01*
X129436062Y-86257251D01*
X129455468Y-86266430D01*
X129473881Y-86277466D01*
X129491124Y-86290254D01*
X129507030Y-86304670D01*
X129521446Y-86320576D01*
X129534234Y-86337819D01*
X129545270Y-86356232D01*
X129554449Y-86375638D01*
X129561681Y-86395850D01*
X129566897Y-86416674D01*
X129570047Y-86437909D01*
X129571100Y-86459350D01*
X129571100Y-86971850D01*
X129570047Y-86993291D01*
X129566897Y-87014526D01*
X129561681Y-87035350D01*
X129554449Y-87055562D01*
X129545270Y-87074968D01*
X129534234Y-87093381D01*
X129521446Y-87110624D01*
X129507030Y-87126530D01*
X129491124Y-87140946D01*
X129473881Y-87153734D01*
X129455468Y-87164770D01*
X129436062Y-87173949D01*
X129415850Y-87181181D01*
X129395026Y-87186397D01*
X129373791Y-87189547D01*
X129352350Y-87190600D01*
X128914850Y-87190600D01*
X128893409Y-87189547D01*
X128872174Y-87186397D01*
X128851350Y-87181181D01*
X128831138Y-87173949D01*
X128811732Y-87164770D01*
X128793319Y-87153734D01*
X128776076Y-87140946D01*
X128760170Y-87126530D01*
X128745754Y-87110624D01*
X128732966Y-87093381D01*
X128721930Y-87074968D01*
X128712751Y-87055562D01*
X128705519Y-87035350D01*
X128700303Y-87014526D01*
X128697153Y-86993291D01*
X128696100Y-86971850D01*
X128696100Y-86459350D01*
X128697153Y-86437909D01*
X128700303Y-86416674D01*
X128705519Y-86395850D01*
X128712751Y-86375638D01*
X128721930Y-86356232D01*
X128732966Y-86337819D01*
X128745754Y-86320576D01*
X128760170Y-86304670D01*
X128776076Y-86290254D01*
X128793319Y-86277466D01*
X128811732Y-86266430D01*
X128831138Y-86257251D01*
X128851350Y-86250019D01*
X128872174Y-86244803D01*
X128893409Y-86241653D01*
X128914850Y-86240600D01*
X129352350Y-86240600D01*
X129373791Y-86241653D01*
G37*
G36*
X130948791Y-86241653D02*
G01*
X130970026Y-86244803D01*
X130990850Y-86250019D01*
X131011062Y-86257251D01*
X131030468Y-86266430D01*
X131048881Y-86277466D01*
X131066124Y-86290254D01*
X131082030Y-86304670D01*
X131096446Y-86320576D01*
X131109234Y-86337819D01*
X131120270Y-86356232D01*
X131129449Y-86375638D01*
X131136681Y-86395850D01*
X131141897Y-86416674D01*
X131145047Y-86437909D01*
X131146100Y-86459350D01*
X131146100Y-86971850D01*
X131145047Y-86993291D01*
X131141897Y-87014526D01*
X131136681Y-87035350D01*
X131129449Y-87055562D01*
X131120270Y-87074968D01*
X131109234Y-87093381D01*
X131096446Y-87110624D01*
X131082030Y-87126530D01*
X131066124Y-87140946D01*
X131048881Y-87153734D01*
X131030468Y-87164770D01*
X131011062Y-87173949D01*
X130990850Y-87181181D01*
X130970026Y-87186397D01*
X130948791Y-87189547D01*
X130927350Y-87190600D01*
X130489850Y-87190600D01*
X130468409Y-87189547D01*
X130447174Y-87186397D01*
X130426350Y-87181181D01*
X130406138Y-87173949D01*
X130386732Y-87164770D01*
X130368319Y-87153734D01*
X130351076Y-87140946D01*
X130335170Y-87126530D01*
X130320754Y-87110624D01*
X130307966Y-87093381D01*
X130296930Y-87074968D01*
X130287751Y-87055562D01*
X130280519Y-87035350D01*
X130275303Y-87014526D01*
X130272153Y-86993291D01*
X130271100Y-86971850D01*
X130271100Y-86459350D01*
X130272153Y-86437909D01*
X130275303Y-86416674D01*
X130280519Y-86395850D01*
X130287751Y-86375638D01*
X130296930Y-86356232D01*
X130307966Y-86337819D01*
X130320754Y-86320576D01*
X130335170Y-86304670D01*
X130351076Y-86290254D01*
X130368319Y-86277466D01*
X130386732Y-86266430D01*
X130406138Y-86257251D01*
X130426350Y-86250019D01*
X130447174Y-86244803D01*
X130468409Y-86241653D01*
X130489850Y-86240600D01*
X130927350Y-86240600D01*
X130948791Y-86241653D01*
G37*
G36*
X129373791Y-87765653D02*
G01*
X129395026Y-87768803D01*
X129415850Y-87774019D01*
X129436062Y-87781251D01*
X129455468Y-87790430D01*
X129473881Y-87801466D01*
X129491124Y-87814254D01*
X129507030Y-87828670D01*
X129521446Y-87844576D01*
X129534234Y-87861819D01*
X129545270Y-87880232D01*
X129554449Y-87899638D01*
X129561681Y-87919850D01*
X129566897Y-87940674D01*
X129570047Y-87961909D01*
X129571100Y-87983350D01*
X129571100Y-88495850D01*
X129570047Y-88517291D01*
X129566897Y-88538526D01*
X129561681Y-88559350D01*
X129554449Y-88579562D01*
X129545270Y-88598968D01*
X129534234Y-88617381D01*
X129521446Y-88634624D01*
X129507030Y-88650530D01*
X129491124Y-88664946D01*
X129473881Y-88677734D01*
X129455468Y-88688770D01*
X129436062Y-88697949D01*
X129415850Y-88705181D01*
X129395026Y-88710397D01*
X129373791Y-88713547D01*
X129352350Y-88714600D01*
X128914850Y-88714600D01*
X128893409Y-88713547D01*
X128872174Y-88710397D01*
X128851350Y-88705181D01*
X128831138Y-88697949D01*
X128811732Y-88688770D01*
X128793319Y-88677734D01*
X128776076Y-88664946D01*
X128760170Y-88650530D01*
X128745754Y-88634624D01*
X128732966Y-88617381D01*
X128721930Y-88598968D01*
X128712751Y-88579562D01*
X128705519Y-88559350D01*
X128700303Y-88538526D01*
X128697153Y-88517291D01*
X128696100Y-88495850D01*
X128696100Y-87983350D01*
X128697153Y-87961909D01*
X128700303Y-87940674D01*
X128705519Y-87919850D01*
X128712751Y-87899638D01*
X128721930Y-87880232D01*
X128732966Y-87861819D01*
X128745754Y-87844576D01*
X128760170Y-87828670D01*
X128776076Y-87814254D01*
X128793319Y-87801466D01*
X128811732Y-87790430D01*
X128831138Y-87781251D01*
X128851350Y-87774019D01*
X128872174Y-87768803D01*
X128893409Y-87765653D01*
X128914850Y-87764600D01*
X129352350Y-87764600D01*
X129373791Y-87765653D01*
G37*
G36*
X130948791Y-87765653D02*
G01*
X130970026Y-87768803D01*
X130990850Y-87774019D01*
X131011062Y-87781251D01*
X131030468Y-87790430D01*
X131048881Y-87801466D01*
X131066124Y-87814254D01*
X131082030Y-87828670D01*
X131096446Y-87844576D01*
X131109234Y-87861819D01*
X131120270Y-87880232D01*
X131129449Y-87899638D01*
X131136681Y-87919850D01*
X131141897Y-87940674D01*
X131145047Y-87961909D01*
X131146100Y-87983350D01*
X131146100Y-88495850D01*
X131145047Y-88517291D01*
X131141897Y-88538526D01*
X131136681Y-88559350D01*
X131129449Y-88579562D01*
X131120270Y-88598968D01*
X131109234Y-88617381D01*
X131096446Y-88634624D01*
X131082030Y-88650530D01*
X131066124Y-88664946D01*
X131048881Y-88677734D01*
X131030468Y-88688770D01*
X131011062Y-88697949D01*
X130990850Y-88705181D01*
X130970026Y-88710397D01*
X130948791Y-88713547D01*
X130927350Y-88714600D01*
X130489850Y-88714600D01*
X130468409Y-88713547D01*
X130447174Y-88710397D01*
X130426350Y-88705181D01*
X130406138Y-88697949D01*
X130386732Y-88688770D01*
X130368319Y-88677734D01*
X130351076Y-88664946D01*
X130335170Y-88650530D01*
X130320754Y-88634624D01*
X130307966Y-88617381D01*
X130296930Y-88598968D01*
X130287751Y-88579562D01*
X130280519Y-88559350D01*
X130275303Y-88538526D01*
X130272153Y-88517291D01*
X130271100Y-88495850D01*
X130271100Y-87983350D01*
X130272153Y-87961909D01*
X130275303Y-87940674D01*
X130280519Y-87919850D01*
X130287751Y-87899638D01*
X130296930Y-87880232D01*
X130307966Y-87861819D01*
X130320754Y-87844576D01*
X130335170Y-87828670D01*
X130351076Y-87814254D01*
X130368319Y-87801466D01*
X130386732Y-87790430D01*
X130406138Y-87781251D01*
X130426350Y-87774019D01*
X130447174Y-87768803D01*
X130468409Y-87765653D01*
X130489850Y-87764600D01*
X130927350Y-87764600D01*
X130948791Y-87765653D01*
G37*
G36*
X144080391Y-85947013D02*
G01*
X144101626Y-85950163D01*
X144122450Y-85955379D01*
X144142662Y-85962611D01*
X144162068Y-85971790D01*
X144180481Y-85982826D01*
X144197724Y-85995614D01*
X144213630Y-86010030D01*
X144228046Y-86025936D01*
X144240834Y-86043179D01*
X144251870Y-86061592D01*
X144261049Y-86080998D01*
X144268281Y-86101210D01*
X144273497Y-86122034D01*
X144276647Y-86143269D01*
X144277700Y-86164710D01*
X144277700Y-86677210D01*
X144276647Y-86698651D01*
X144273497Y-86719886D01*
X144268281Y-86740710D01*
X144261049Y-86760922D01*
X144251870Y-86780328D01*
X144240834Y-86798741D01*
X144228046Y-86815984D01*
X144213630Y-86831890D01*
X144197724Y-86846306D01*
X144180481Y-86859094D01*
X144162068Y-86870130D01*
X144142662Y-86879309D01*
X144122450Y-86886541D01*
X144101626Y-86891757D01*
X144080391Y-86894907D01*
X144058950Y-86895960D01*
X143621450Y-86895960D01*
X143600009Y-86894907D01*
X143578774Y-86891757D01*
X143557950Y-86886541D01*
X143537738Y-86879309D01*
X143518332Y-86870130D01*
X143499919Y-86859094D01*
X143482676Y-86846306D01*
X143466770Y-86831890D01*
X143452354Y-86815984D01*
X143439566Y-86798741D01*
X143428530Y-86780328D01*
X143419351Y-86760922D01*
X143412119Y-86740710D01*
X143406903Y-86719886D01*
X143403753Y-86698651D01*
X143402700Y-86677210D01*
X143402700Y-86164710D01*
X143403753Y-86143269D01*
X143406903Y-86122034D01*
X143412119Y-86101210D01*
X143419351Y-86080998D01*
X143428530Y-86061592D01*
X143439566Y-86043179D01*
X143452354Y-86025936D01*
X143466770Y-86010030D01*
X143482676Y-85995614D01*
X143499919Y-85982826D01*
X143518332Y-85971790D01*
X143537738Y-85962611D01*
X143557950Y-85955379D01*
X143578774Y-85950163D01*
X143600009Y-85947013D01*
X143621450Y-85945960D01*
X144058950Y-85945960D01*
X144080391Y-85947013D01*
G37*
G36*
X142505391Y-85947013D02*
G01*
X142526626Y-85950163D01*
X142547450Y-85955379D01*
X142567662Y-85962611D01*
X142587068Y-85971790D01*
X142605481Y-85982826D01*
X142622724Y-85995614D01*
X142638630Y-86010030D01*
X142653046Y-86025936D01*
X142665834Y-86043179D01*
X142676870Y-86061592D01*
X142686049Y-86080998D01*
X142693281Y-86101210D01*
X142698497Y-86122034D01*
X142701647Y-86143269D01*
X142702700Y-86164710D01*
X142702700Y-86677210D01*
X142701647Y-86698651D01*
X142698497Y-86719886D01*
X142693281Y-86740710D01*
X142686049Y-86760922D01*
X142676870Y-86780328D01*
X142665834Y-86798741D01*
X142653046Y-86815984D01*
X142638630Y-86831890D01*
X142622724Y-86846306D01*
X142605481Y-86859094D01*
X142587068Y-86870130D01*
X142567662Y-86879309D01*
X142547450Y-86886541D01*
X142526626Y-86891757D01*
X142505391Y-86894907D01*
X142483950Y-86895960D01*
X142046450Y-86895960D01*
X142025009Y-86894907D01*
X142003774Y-86891757D01*
X141982950Y-86886541D01*
X141962738Y-86879309D01*
X141943332Y-86870130D01*
X141924919Y-86859094D01*
X141907676Y-86846306D01*
X141891770Y-86831890D01*
X141877354Y-86815984D01*
X141864566Y-86798741D01*
X141853530Y-86780328D01*
X141844351Y-86760922D01*
X141837119Y-86740710D01*
X141831903Y-86719886D01*
X141828753Y-86698651D01*
X141827700Y-86677210D01*
X141827700Y-86164710D01*
X141828753Y-86143269D01*
X141831903Y-86122034D01*
X141837119Y-86101210D01*
X141844351Y-86080998D01*
X141853530Y-86061592D01*
X141864566Y-86043179D01*
X141877354Y-86025936D01*
X141891770Y-86010030D01*
X141907676Y-85995614D01*
X141924919Y-85982826D01*
X141943332Y-85971790D01*
X141962738Y-85962611D01*
X141982950Y-85955379D01*
X142003774Y-85950163D01*
X142025009Y-85947013D01*
X142046450Y-85945960D01*
X142483950Y-85945960D01*
X142505391Y-85947013D01*
G37*
G36*
X139602691Y-82226053D02*
G01*
X139623926Y-82229203D01*
X139644750Y-82234419D01*
X139664962Y-82241651D01*
X139684368Y-82250830D01*
X139702781Y-82261866D01*
X139720024Y-82274654D01*
X139735930Y-82289070D01*
X139750346Y-82304976D01*
X139763134Y-82322219D01*
X139774170Y-82340632D01*
X139783349Y-82360038D01*
X139790581Y-82380250D01*
X139795797Y-82401074D01*
X139798947Y-82422309D01*
X139800000Y-82443750D01*
X139800000Y-82956250D01*
X139798947Y-82977691D01*
X139795797Y-82998926D01*
X139790581Y-83019750D01*
X139783349Y-83039962D01*
X139774170Y-83059368D01*
X139763134Y-83077781D01*
X139750346Y-83095024D01*
X139735930Y-83110930D01*
X139720024Y-83125346D01*
X139702781Y-83138134D01*
X139684368Y-83149170D01*
X139664962Y-83158349D01*
X139644750Y-83165581D01*
X139623926Y-83170797D01*
X139602691Y-83173947D01*
X139581250Y-83175000D01*
X139143750Y-83175000D01*
X139122309Y-83173947D01*
X139101074Y-83170797D01*
X139080250Y-83165581D01*
X139060038Y-83158349D01*
X139040632Y-83149170D01*
X139022219Y-83138134D01*
X139004976Y-83125346D01*
X138989070Y-83110930D01*
X138974654Y-83095024D01*
X138961866Y-83077781D01*
X138950830Y-83059368D01*
X138941651Y-83039962D01*
X138934419Y-83019750D01*
X138929203Y-82998926D01*
X138926053Y-82977691D01*
X138925000Y-82956250D01*
X138925000Y-82443750D01*
X138926053Y-82422309D01*
X138929203Y-82401074D01*
X138934419Y-82380250D01*
X138941651Y-82360038D01*
X138950830Y-82340632D01*
X138961866Y-82322219D01*
X138974654Y-82304976D01*
X138989070Y-82289070D01*
X139004976Y-82274654D01*
X139022219Y-82261866D01*
X139040632Y-82250830D01*
X139060038Y-82241651D01*
X139080250Y-82234419D01*
X139101074Y-82229203D01*
X139122309Y-82226053D01*
X139143750Y-82225000D01*
X139581250Y-82225000D01*
X139602691Y-82226053D01*
G37*
G36*
X141177691Y-82226053D02*
G01*
X141198926Y-82229203D01*
X141219750Y-82234419D01*
X141239962Y-82241651D01*
X141259368Y-82250830D01*
X141277781Y-82261866D01*
X141295024Y-82274654D01*
X141310930Y-82289070D01*
X141325346Y-82304976D01*
X141338134Y-82322219D01*
X141349170Y-82340632D01*
X141358349Y-82360038D01*
X141365581Y-82380250D01*
X141370797Y-82401074D01*
X141373947Y-82422309D01*
X141375000Y-82443750D01*
X141375000Y-82956250D01*
X141373947Y-82977691D01*
X141370797Y-82998926D01*
X141365581Y-83019750D01*
X141358349Y-83039962D01*
X141349170Y-83059368D01*
X141338134Y-83077781D01*
X141325346Y-83095024D01*
X141310930Y-83110930D01*
X141295024Y-83125346D01*
X141277781Y-83138134D01*
X141259368Y-83149170D01*
X141239962Y-83158349D01*
X141219750Y-83165581D01*
X141198926Y-83170797D01*
X141177691Y-83173947D01*
X141156250Y-83175000D01*
X140718750Y-83175000D01*
X140697309Y-83173947D01*
X140676074Y-83170797D01*
X140655250Y-83165581D01*
X140635038Y-83158349D01*
X140615632Y-83149170D01*
X140597219Y-83138134D01*
X140579976Y-83125346D01*
X140564070Y-83110930D01*
X140549654Y-83095024D01*
X140536866Y-83077781D01*
X140525830Y-83059368D01*
X140516651Y-83039962D01*
X140509419Y-83019750D01*
X140504203Y-82998926D01*
X140501053Y-82977691D01*
X140500000Y-82956250D01*
X140500000Y-82443750D01*
X140501053Y-82422309D01*
X140504203Y-82401074D01*
X140509419Y-82380250D01*
X140516651Y-82360038D01*
X140525830Y-82340632D01*
X140536866Y-82322219D01*
X140549654Y-82304976D01*
X140564070Y-82289070D01*
X140579976Y-82274654D01*
X140597219Y-82261866D01*
X140615632Y-82250830D01*
X140635038Y-82241651D01*
X140655250Y-82234419D01*
X140676074Y-82229203D01*
X140697309Y-82226053D01*
X140718750Y-82225000D01*
X141156250Y-82225000D01*
X141177691Y-82226053D01*
G37*
G36*
X147677691Y-87051053D02*
G01*
X147698926Y-87054203D01*
X147719750Y-87059419D01*
X147739962Y-87066651D01*
X147759368Y-87075830D01*
X147777781Y-87086866D01*
X147795024Y-87099654D01*
X147810930Y-87114070D01*
X147825346Y-87129976D01*
X147838134Y-87147219D01*
X147849170Y-87165632D01*
X147858349Y-87185038D01*
X147865581Y-87205250D01*
X147870797Y-87226074D01*
X147873947Y-87247309D01*
X147875000Y-87268750D01*
X147875000Y-87706250D01*
X147873947Y-87727691D01*
X147870797Y-87748926D01*
X147865581Y-87769750D01*
X147858349Y-87789962D01*
X147849170Y-87809368D01*
X147838134Y-87827781D01*
X147825346Y-87845024D01*
X147810930Y-87860930D01*
X147795024Y-87875346D01*
X147777781Y-87888134D01*
X147759368Y-87899170D01*
X147739962Y-87908349D01*
X147719750Y-87915581D01*
X147698926Y-87920797D01*
X147677691Y-87923947D01*
X147656250Y-87925000D01*
X147143750Y-87925000D01*
X147122309Y-87923947D01*
X147101074Y-87920797D01*
X147080250Y-87915581D01*
X147060038Y-87908349D01*
X147040632Y-87899170D01*
X147022219Y-87888134D01*
X147004976Y-87875346D01*
X146989070Y-87860930D01*
X146974654Y-87845024D01*
X146961866Y-87827781D01*
X146950830Y-87809368D01*
X146941651Y-87789962D01*
X146934419Y-87769750D01*
X146929203Y-87748926D01*
X146926053Y-87727691D01*
X146925000Y-87706250D01*
X146925000Y-87268750D01*
X146926053Y-87247309D01*
X146929203Y-87226074D01*
X146934419Y-87205250D01*
X146941651Y-87185038D01*
X146950830Y-87165632D01*
X146961866Y-87147219D01*
X146974654Y-87129976D01*
X146989070Y-87114070D01*
X147004976Y-87099654D01*
X147022219Y-87086866D01*
X147040632Y-87075830D01*
X147060038Y-87066651D01*
X147080250Y-87059419D01*
X147101074Y-87054203D01*
X147122309Y-87051053D01*
X147143750Y-87050000D01*
X147656250Y-87050000D01*
X147677691Y-87051053D01*
G37*
G36*
X147677691Y-85476053D02*
G01*
X147698926Y-85479203D01*
X147719750Y-85484419D01*
X147739962Y-85491651D01*
X147759368Y-85500830D01*
X147777781Y-85511866D01*
X147795024Y-85524654D01*
X147810930Y-85539070D01*
X147825346Y-85554976D01*
X147838134Y-85572219D01*
X147849170Y-85590632D01*
X147858349Y-85610038D01*
X147865581Y-85630250D01*
X147870797Y-85651074D01*
X147873947Y-85672309D01*
X147875000Y-85693750D01*
X147875000Y-86131250D01*
X147873947Y-86152691D01*
X147870797Y-86173926D01*
X147865581Y-86194750D01*
X147858349Y-86214962D01*
X147849170Y-86234368D01*
X147838134Y-86252781D01*
X147825346Y-86270024D01*
X147810930Y-86285930D01*
X147795024Y-86300346D01*
X147777781Y-86313134D01*
X147759368Y-86324170D01*
X147739962Y-86333349D01*
X147719750Y-86340581D01*
X147698926Y-86345797D01*
X147677691Y-86348947D01*
X147656250Y-86350000D01*
X147143750Y-86350000D01*
X147122309Y-86348947D01*
X147101074Y-86345797D01*
X147080250Y-86340581D01*
X147060038Y-86333349D01*
X147040632Y-86324170D01*
X147022219Y-86313134D01*
X147004976Y-86300346D01*
X146989070Y-86285930D01*
X146974654Y-86270024D01*
X146961866Y-86252781D01*
X146950830Y-86234368D01*
X146941651Y-86214962D01*
X146934419Y-86194750D01*
X146929203Y-86173926D01*
X146926053Y-86152691D01*
X146925000Y-86131250D01*
X146925000Y-85693750D01*
X146926053Y-85672309D01*
X146929203Y-85651074D01*
X146934419Y-85630250D01*
X146941651Y-85610038D01*
X146950830Y-85590632D01*
X146961866Y-85572219D01*
X146974654Y-85554976D01*
X146989070Y-85539070D01*
X147004976Y-85524654D01*
X147022219Y-85511866D01*
X147040632Y-85500830D01*
X147060038Y-85491651D01*
X147080250Y-85484419D01*
X147101074Y-85479203D01*
X147122309Y-85476053D01*
X147143750Y-85475000D01*
X147656250Y-85475000D01*
X147677691Y-85476053D01*
G37*
G36*
X160189391Y-88726053D02*
G01*
X160210626Y-88729203D01*
X160231450Y-88734419D01*
X160251662Y-88741651D01*
X160271068Y-88750830D01*
X160289481Y-88761866D01*
X160306724Y-88774654D01*
X160322630Y-88789070D01*
X160337046Y-88804976D01*
X160349834Y-88822219D01*
X160360870Y-88840632D01*
X160370049Y-88860038D01*
X160377281Y-88880250D01*
X160382497Y-88901074D01*
X160385647Y-88922309D01*
X160386700Y-88943750D01*
X160386700Y-89456250D01*
X160385647Y-89477691D01*
X160382497Y-89498926D01*
X160377281Y-89519750D01*
X160370049Y-89539962D01*
X160360870Y-89559368D01*
X160349834Y-89577781D01*
X160337046Y-89595024D01*
X160322630Y-89610930D01*
X160306724Y-89625346D01*
X160289481Y-89638134D01*
X160271068Y-89649170D01*
X160251662Y-89658349D01*
X160231450Y-89665581D01*
X160210626Y-89670797D01*
X160189391Y-89673947D01*
X160167950Y-89675000D01*
X159730450Y-89675000D01*
X159709009Y-89673947D01*
X159687774Y-89670797D01*
X159666950Y-89665581D01*
X159646738Y-89658349D01*
X159627332Y-89649170D01*
X159608919Y-89638134D01*
X159591676Y-89625346D01*
X159575770Y-89610930D01*
X159561354Y-89595024D01*
X159548566Y-89577781D01*
X159537530Y-89559368D01*
X159528351Y-89539962D01*
X159521119Y-89519750D01*
X159515903Y-89498926D01*
X159512753Y-89477691D01*
X159511700Y-89456250D01*
X159511700Y-88943750D01*
X159512753Y-88922309D01*
X159515903Y-88901074D01*
X159521119Y-88880250D01*
X159528351Y-88860038D01*
X159537530Y-88840632D01*
X159548566Y-88822219D01*
X159561354Y-88804976D01*
X159575770Y-88789070D01*
X159591676Y-88774654D01*
X159608919Y-88761866D01*
X159627332Y-88750830D01*
X159646738Y-88741651D01*
X159666950Y-88734419D01*
X159687774Y-88729203D01*
X159709009Y-88726053D01*
X159730450Y-88725000D01*
X160167950Y-88725000D01*
X160189391Y-88726053D01*
G37*
G36*
X161764391Y-88726053D02*
G01*
X161785626Y-88729203D01*
X161806450Y-88734419D01*
X161826662Y-88741651D01*
X161846068Y-88750830D01*
X161864481Y-88761866D01*
X161881724Y-88774654D01*
X161897630Y-88789070D01*
X161912046Y-88804976D01*
X161924834Y-88822219D01*
X161935870Y-88840632D01*
X161945049Y-88860038D01*
X161952281Y-88880250D01*
X161957497Y-88901074D01*
X161960647Y-88922309D01*
X161961700Y-88943750D01*
X161961700Y-89456250D01*
X161960647Y-89477691D01*
X161957497Y-89498926D01*
X161952281Y-89519750D01*
X161945049Y-89539962D01*
X161935870Y-89559368D01*
X161924834Y-89577781D01*
X161912046Y-89595024D01*
X161897630Y-89610930D01*
X161881724Y-89625346D01*
X161864481Y-89638134D01*
X161846068Y-89649170D01*
X161826662Y-89658349D01*
X161806450Y-89665581D01*
X161785626Y-89670797D01*
X161764391Y-89673947D01*
X161742950Y-89675000D01*
X161305450Y-89675000D01*
X161284009Y-89673947D01*
X161262774Y-89670797D01*
X161241950Y-89665581D01*
X161221738Y-89658349D01*
X161202332Y-89649170D01*
X161183919Y-89638134D01*
X161166676Y-89625346D01*
X161150770Y-89610930D01*
X161136354Y-89595024D01*
X161123566Y-89577781D01*
X161112530Y-89559368D01*
X161103351Y-89539962D01*
X161096119Y-89519750D01*
X161090903Y-89498926D01*
X161087753Y-89477691D01*
X161086700Y-89456250D01*
X161086700Y-88943750D01*
X161087753Y-88922309D01*
X161090903Y-88901074D01*
X161096119Y-88880250D01*
X161103351Y-88860038D01*
X161112530Y-88840632D01*
X161123566Y-88822219D01*
X161136354Y-88804976D01*
X161150770Y-88789070D01*
X161166676Y-88774654D01*
X161183919Y-88761866D01*
X161202332Y-88750830D01*
X161221738Y-88741651D01*
X161241950Y-88734419D01*
X161262774Y-88729203D01*
X161284009Y-88726053D01*
X161305450Y-88725000D01*
X161742950Y-88725000D01*
X161764391Y-88726053D01*
G37*
G36*
X152162471Y-95756493D02*
G01*
X152183706Y-95759643D01*
X152204530Y-95764859D01*
X152224742Y-95772091D01*
X152244148Y-95781270D01*
X152262561Y-95792306D01*
X152279804Y-95805094D01*
X152295710Y-95819510D01*
X152310126Y-95835416D01*
X152322914Y-95852659D01*
X152333950Y-95871072D01*
X152343129Y-95890478D01*
X152350361Y-95910690D01*
X152355577Y-95931514D01*
X152358727Y-95952749D01*
X152359780Y-95974190D01*
X152359780Y-96486690D01*
X152358727Y-96508131D01*
X152355577Y-96529366D01*
X152350361Y-96550190D01*
X152343129Y-96570402D01*
X152333950Y-96589808D01*
X152322914Y-96608221D01*
X152310126Y-96625464D01*
X152295710Y-96641370D01*
X152279804Y-96655786D01*
X152262561Y-96668574D01*
X152244148Y-96679610D01*
X152224742Y-96688789D01*
X152204530Y-96696021D01*
X152183706Y-96701237D01*
X152162471Y-96704387D01*
X152141030Y-96705440D01*
X151703530Y-96705440D01*
X151682089Y-96704387D01*
X151660854Y-96701237D01*
X151640030Y-96696021D01*
X151619818Y-96688789D01*
X151600412Y-96679610D01*
X151581999Y-96668574D01*
X151564756Y-96655786D01*
X151548850Y-96641370D01*
X151534434Y-96625464D01*
X151521646Y-96608221D01*
X151510610Y-96589808D01*
X151501431Y-96570402D01*
X151494199Y-96550190D01*
X151488983Y-96529366D01*
X151485833Y-96508131D01*
X151484780Y-96486690D01*
X151484780Y-95974190D01*
X151485833Y-95952749D01*
X151488983Y-95931514D01*
X151494199Y-95910690D01*
X151501431Y-95890478D01*
X151510610Y-95871072D01*
X151521646Y-95852659D01*
X151534434Y-95835416D01*
X151548850Y-95819510D01*
X151564756Y-95805094D01*
X151581999Y-95792306D01*
X151600412Y-95781270D01*
X151619818Y-95772091D01*
X151640030Y-95764859D01*
X151660854Y-95759643D01*
X151682089Y-95756493D01*
X151703530Y-95755440D01*
X152141030Y-95755440D01*
X152162471Y-95756493D01*
G37*
G36*
X153737471Y-95756493D02*
G01*
X153758706Y-95759643D01*
X153779530Y-95764859D01*
X153799742Y-95772091D01*
X153819148Y-95781270D01*
X153837561Y-95792306D01*
X153854804Y-95805094D01*
X153870710Y-95819510D01*
X153885126Y-95835416D01*
X153897914Y-95852659D01*
X153908950Y-95871072D01*
X153918129Y-95890478D01*
X153925361Y-95910690D01*
X153930577Y-95931514D01*
X153933727Y-95952749D01*
X153934780Y-95974190D01*
X153934780Y-96486690D01*
X153933727Y-96508131D01*
X153930577Y-96529366D01*
X153925361Y-96550190D01*
X153918129Y-96570402D01*
X153908950Y-96589808D01*
X153897914Y-96608221D01*
X153885126Y-96625464D01*
X153870710Y-96641370D01*
X153854804Y-96655786D01*
X153837561Y-96668574D01*
X153819148Y-96679610D01*
X153799742Y-96688789D01*
X153779530Y-96696021D01*
X153758706Y-96701237D01*
X153737471Y-96704387D01*
X153716030Y-96705440D01*
X153278530Y-96705440D01*
X153257089Y-96704387D01*
X153235854Y-96701237D01*
X153215030Y-96696021D01*
X153194818Y-96688789D01*
X153175412Y-96679610D01*
X153156999Y-96668574D01*
X153139756Y-96655786D01*
X153123850Y-96641370D01*
X153109434Y-96625464D01*
X153096646Y-96608221D01*
X153085610Y-96589808D01*
X153076431Y-96570402D01*
X153069199Y-96550190D01*
X153063983Y-96529366D01*
X153060833Y-96508131D01*
X153059780Y-96486690D01*
X153059780Y-95974190D01*
X153060833Y-95952749D01*
X153063983Y-95931514D01*
X153069199Y-95910690D01*
X153076431Y-95890478D01*
X153085610Y-95871072D01*
X153096646Y-95852659D01*
X153109434Y-95835416D01*
X153123850Y-95819510D01*
X153139756Y-95805094D01*
X153156999Y-95792306D01*
X153175412Y-95781270D01*
X153194818Y-95772091D01*
X153215030Y-95764859D01*
X153235854Y-95759643D01*
X153257089Y-95756493D01*
X153278530Y-95755440D01*
X153716030Y-95755440D01*
X153737471Y-95756493D01*
G37*
G36*
X167702191Y-88553053D02*
G01*
X167723426Y-88556203D01*
X167744250Y-88561419D01*
X167764462Y-88568651D01*
X167783868Y-88577830D01*
X167802281Y-88588866D01*
X167819524Y-88601654D01*
X167835430Y-88616070D01*
X167849846Y-88631976D01*
X167862634Y-88649219D01*
X167873670Y-88667632D01*
X167882849Y-88687038D01*
X167890081Y-88707250D01*
X167895297Y-88728074D01*
X167898447Y-88749309D01*
X167899500Y-88770750D01*
X167899500Y-89283250D01*
X167898447Y-89304691D01*
X167895297Y-89325926D01*
X167890081Y-89346750D01*
X167882849Y-89366962D01*
X167873670Y-89386368D01*
X167862634Y-89404781D01*
X167849846Y-89422024D01*
X167835430Y-89437930D01*
X167819524Y-89452346D01*
X167802281Y-89465134D01*
X167783868Y-89476170D01*
X167764462Y-89485349D01*
X167744250Y-89492581D01*
X167723426Y-89497797D01*
X167702191Y-89500947D01*
X167680750Y-89502000D01*
X167243250Y-89502000D01*
X167221809Y-89500947D01*
X167200574Y-89497797D01*
X167179750Y-89492581D01*
X167159538Y-89485349D01*
X167140132Y-89476170D01*
X167121719Y-89465134D01*
X167104476Y-89452346D01*
X167088570Y-89437930D01*
X167074154Y-89422024D01*
X167061366Y-89404781D01*
X167050330Y-89386368D01*
X167041151Y-89366962D01*
X167033919Y-89346750D01*
X167028703Y-89325926D01*
X167025553Y-89304691D01*
X167024500Y-89283250D01*
X167024500Y-88770750D01*
X167025553Y-88749309D01*
X167028703Y-88728074D01*
X167033919Y-88707250D01*
X167041151Y-88687038D01*
X167050330Y-88667632D01*
X167061366Y-88649219D01*
X167074154Y-88631976D01*
X167088570Y-88616070D01*
X167104476Y-88601654D01*
X167121719Y-88588866D01*
X167140132Y-88577830D01*
X167159538Y-88568651D01*
X167179750Y-88561419D01*
X167200574Y-88556203D01*
X167221809Y-88553053D01*
X167243250Y-88552000D01*
X167680750Y-88552000D01*
X167702191Y-88553053D01*
G37*
G36*
X169277191Y-88553053D02*
G01*
X169298426Y-88556203D01*
X169319250Y-88561419D01*
X169339462Y-88568651D01*
X169358868Y-88577830D01*
X169377281Y-88588866D01*
X169394524Y-88601654D01*
X169410430Y-88616070D01*
X169424846Y-88631976D01*
X169437634Y-88649219D01*
X169448670Y-88667632D01*
X169457849Y-88687038D01*
X169465081Y-88707250D01*
X169470297Y-88728074D01*
X169473447Y-88749309D01*
X169474500Y-88770750D01*
X169474500Y-89283250D01*
X169473447Y-89304691D01*
X169470297Y-89325926D01*
X169465081Y-89346750D01*
X169457849Y-89366962D01*
X169448670Y-89386368D01*
X169437634Y-89404781D01*
X169424846Y-89422024D01*
X169410430Y-89437930D01*
X169394524Y-89452346D01*
X169377281Y-89465134D01*
X169358868Y-89476170D01*
X169339462Y-89485349D01*
X169319250Y-89492581D01*
X169298426Y-89497797D01*
X169277191Y-89500947D01*
X169255750Y-89502000D01*
X168818250Y-89502000D01*
X168796809Y-89500947D01*
X168775574Y-89497797D01*
X168754750Y-89492581D01*
X168734538Y-89485349D01*
X168715132Y-89476170D01*
X168696719Y-89465134D01*
X168679476Y-89452346D01*
X168663570Y-89437930D01*
X168649154Y-89422024D01*
X168636366Y-89404781D01*
X168625330Y-89386368D01*
X168616151Y-89366962D01*
X168608919Y-89346750D01*
X168603703Y-89325926D01*
X168600553Y-89304691D01*
X168599500Y-89283250D01*
X168599500Y-88770750D01*
X168600553Y-88749309D01*
X168603703Y-88728074D01*
X168608919Y-88707250D01*
X168616151Y-88687038D01*
X168625330Y-88667632D01*
X168636366Y-88649219D01*
X168649154Y-88631976D01*
X168663570Y-88616070D01*
X168679476Y-88601654D01*
X168696719Y-88588866D01*
X168715132Y-88577830D01*
X168734538Y-88568651D01*
X168754750Y-88561419D01*
X168775574Y-88556203D01*
X168796809Y-88553053D01*
X168818250Y-88552000D01*
X169255750Y-88552000D01*
X169277191Y-88553053D01*
G37*
G36*
X169277191Y-87029053D02*
G01*
X169298426Y-87032203D01*
X169319250Y-87037419D01*
X169339462Y-87044651D01*
X169358868Y-87053830D01*
X169377281Y-87064866D01*
X169394524Y-87077654D01*
X169410430Y-87092070D01*
X169424846Y-87107976D01*
X169437634Y-87125219D01*
X169448670Y-87143632D01*
X169457849Y-87163038D01*
X169465081Y-87183250D01*
X169470297Y-87204074D01*
X169473447Y-87225309D01*
X169474500Y-87246750D01*
X169474500Y-87759250D01*
X169473447Y-87780691D01*
X169470297Y-87801926D01*
X169465081Y-87822750D01*
X169457849Y-87842962D01*
X169448670Y-87862368D01*
X169437634Y-87880781D01*
X169424846Y-87898024D01*
X169410430Y-87913930D01*
X169394524Y-87928346D01*
X169377281Y-87941134D01*
X169358868Y-87952170D01*
X169339462Y-87961349D01*
X169319250Y-87968581D01*
X169298426Y-87973797D01*
X169277191Y-87976947D01*
X169255750Y-87978000D01*
X168818250Y-87978000D01*
X168796809Y-87976947D01*
X168775574Y-87973797D01*
X168754750Y-87968581D01*
X168734538Y-87961349D01*
X168715132Y-87952170D01*
X168696719Y-87941134D01*
X168679476Y-87928346D01*
X168663570Y-87913930D01*
X168649154Y-87898024D01*
X168636366Y-87880781D01*
X168625330Y-87862368D01*
X168616151Y-87842962D01*
X168608919Y-87822750D01*
X168603703Y-87801926D01*
X168600553Y-87780691D01*
X168599500Y-87759250D01*
X168599500Y-87246750D01*
X168600553Y-87225309D01*
X168603703Y-87204074D01*
X168608919Y-87183250D01*
X168616151Y-87163038D01*
X168625330Y-87143632D01*
X168636366Y-87125219D01*
X168649154Y-87107976D01*
X168663570Y-87092070D01*
X168679476Y-87077654D01*
X168696719Y-87064866D01*
X168715132Y-87053830D01*
X168734538Y-87044651D01*
X168754750Y-87037419D01*
X168775574Y-87032203D01*
X168796809Y-87029053D01*
X168818250Y-87028000D01*
X169255750Y-87028000D01*
X169277191Y-87029053D01*
G37*
G36*
X167702191Y-87029053D02*
G01*
X167723426Y-87032203D01*
X167744250Y-87037419D01*
X167764462Y-87044651D01*
X167783868Y-87053830D01*
X167802281Y-87064866D01*
X167819524Y-87077654D01*
X167835430Y-87092070D01*
X167849846Y-87107976D01*
X167862634Y-87125219D01*
X167873670Y-87143632D01*
X167882849Y-87163038D01*
X167890081Y-87183250D01*
X167895297Y-87204074D01*
X167898447Y-87225309D01*
X167899500Y-87246750D01*
X167899500Y-87759250D01*
X167898447Y-87780691D01*
X167895297Y-87801926D01*
X167890081Y-87822750D01*
X167882849Y-87842962D01*
X167873670Y-87862368D01*
X167862634Y-87880781D01*
X167849846Y-87898024D01*
X167835430Y-87913930D01*
X167819524Y-87928346D01*
X167802281Y-87941134D01*
X167783868Y-87952170D01*
X167764462Y-87961349D01*
X167744250Y-87968581D01*
X167723426Y-87973797D01*
X167702191Y-87976947D01*
X167680750Y-87978000D01*
X167243250Y-87978000D01*
X167221809Y-87976947D01*
X167200574Y-87973797D01*
X167179750Y-87968581D01*
X167159538Y-87961349D01*
X167140132Y-87952170D01*
X167121719Y-87941134D01*
X167104476Y-87928346D01*
X167088570Y-87913930D01*
X167074154Y-87898024D01*
X167061366Y-87880781D01*
X167050330Y-87862368D01*
X167041151Y-87842962D01*
X167033919Y-87822750D01*
X167028703Y-87801926D01*
X167025553Y-87780691D01*
X167024500Y-87759250D01*
X167024500Y-87246750D01*
X167025553Y-87225309D01*
X167028703Y-87204074D01*
X167033919Y-87183250D01*
X167041151Y-87163038D01*
X167050330Y-87143632D01*
X167061366Y-87125219D01*
X167074154Y-87107976D01*
X167088570Y-87092070D01*
X167104476Y-87077654D01*
X167121719Y-87064866D01*
X167140132Y-87053830D01*
X167159538Y-87044651D01*
X167179750Y-87037419D01*
X167200574Y-87032203D01*
X167221809Y-87029053D01*
X167243250Y-87028000D01*
X167680750Y-87028000D01*
X167702191Y-87029053D01*
G37*
G36*
X146140191Y-95626053D02*
G01*
X146161426Y-95629203D01*
X146182250Y-95634419D01*
X146202462Y-95641651D01*
X146221868Y-95650830D01*
X146240281Y-95661866D01*
X146257524Y-95674654D01*
X146273430Y-95689070D01*
X146287846Y-95704976D01*
X146300634Y-95722219D01*
X146311670Y-95740632D01*
X146320849Y-95760038D01*
X146328081Y-95780250D01*
X146333297Y-95801074D01*
X146336447Y-95822309D01*
X146337500Y-95843750D01*
X146337500Y-96356250D01*
X146336447Y-96377691D01*
X146333297Y-96398926D01*
X146328081Y-96419750D01*
X146320849Y-96439962D01*
X146311670Y-96459368D01*
X146300634Y-96477781D01*
X146287846Y-96495024D01*
X146273430Y-96510930D01*
X146257524Y-96525346D01*
X146240281Y-96538134D01*
X146221868Y-96549170D01*
X146202462Y-96558349D01*
X146182250Y-96565581D01*
X146161426Y-96570797D01*
X146140191Y-96573947D01*
X146118750Y-96575000D01*
X145681250Y-96575000D01*
X145659809Y-96573947D01*
X145638574Y-96570797D01*
X145617750Y-96565581D01*
X145597538Y-96558349D01*
X145578132Y-96549170D01*
X145559719Y-96538134D01*
X145542476Y-96525346D01*
X145526570Y-96510930D01*
X145512154Y-96495024D01*
X145499366Y-96477781D01*
X145488330Y-96459368D01*
X145479151Y-96439962D01*
X145471919Y-96419750D01*
X145466703Y-96398926D01*
X145463553Y-96377691D01*
X145462500Y-96356250D01*
X145462500Y-95843750D01*
X145463553Y-95822309D01*
X145466703Y-95801074D01*
X145471919Y-95780250D01*
X145479151Y-95760038D01*
X145488330Y-95740632D01*
X145499366Y-95722219D01*
X145512154Y-95704976D01*
X145526570Y-95689070D01*
X145542476Y-95674654D01*
X145559719Y-95661866D01*
X145578132Y-95650830D01*
X145597538Y-95641651D01*
X145617750Y-95634419D01*
X145638574Y-95629203D01*
X145659809Y-95626053D01*
X145681250Y-95625000D01*
X146118750Y-95625000D01*
X146140191Y-95626053D01*
G37*
G36*
X147715191Y-95626053D02*
G01*
X147736426Y-95629203D01*
X147757250Y-95634419D01*
X147777462Y-95641651D01*
X147796868Y-95650830D01*
X147815281Y-95661866D01*
X147832524Y-95674654D01*
X147848430Y-95689070D01*
X147862846Y-95704976D01*
X147875634Y-95722219D01*
X147886670Y-95740632D01*
X147895849Y-95760038D01*
X147903081Y-95780250D01*
X147908297Y-95801074D01*
X147911447Y-95822309D01*
X147912500Y-95843750D01*
X147912500Y-96356250D01*
X147911447Y-96377691D01*
X147908297Y-96398926D01*
X147903081Y-96419750D01*
X147895849Y-96439962D01*
X147886670Y-96459368D01*
X147875634Y-96477781D01*
X147862846Y-96495024D01*
X147848430Y-96510930D01*
X147832524Y-96525346D01*
X147815281Y-96538134D01*
X147796868Y-96549170D01*
X147777462Y-96558349D01*
X147757250Y-96565581D01*
X147736426Y-96570797D01*
X147715191Y-96573947D01*
X147693750Y-96575000D01*
X147256250Y-96575000D01*
X147234809Y-96573947D01*
X147213574Y-96570797D01*
X147192750Y-96565581D01*
X147172538Y-96558349D01*
X147153132Y-96549170D01*
X147134719Y-96538134D01*
X147117476Y-96525346D01*
X147101570Y-96510930D01*
X147087154Y-96495024D01*
X147074366Y-96477781D01*
X147063330Y-96459368D01*
X147054151Y-96439962D01*
X147046919Y-96419750D01*
X147041703Y-96398926D01*
X147038553Y-96377691D01*
X147037500Y-96356250D01*
X147037500Y-95843750D01*
X147038553Y-95822309D01*
X147041703Y-95801074D01*
X147046919Y-95780250D01*
X147054151Y-95760038D01*
X147063330Y-95740632D01*
X147074366Y-95722219D01*
X147087154Y-95704976D01*
X147101570Y-95689070D01*
X147117476Y-95674654D01*
X147134719Y-95661866D01*
X147153132Y-95650830D01*
X147172538Y-95641651D01*
X147192750Y-95634419D01*
X147213574Y-95629203D01*
X147234809Y-95626053D01*
X147256250Y-95625000D01*
X147693750Y-95625000D01*
X147715191Y-95626053D01*
G37*
D21*
X141200000Y-79800000D03*
X139200000Y-80750000D03*
X139200000Y-78850000D03*
X138800000Y-85410000D03*
X140800000Y-84460000D03*
X140800000Y-86360000D03*
X144361920Y-83901320D03*
X142361920Y-84851320D03*
X142361920Y-82951320D03*
X159200000Y-95000000D03*
X161200000Y-94050000D03*
X161200000Y-95950000D03*
D22*
X124256800Y-89814400D03*
X127914400Y-89916000D03*
X126085600Y-89865200D03*
X163000000Y-96100000D03*
X134625000Y-78875000D03*
X137414000Y-63754000D03*
X142240000Y-77978000D03*
X137025000Y-83675000D03*
D12*
G36*
X168749009Y-93132408D02*
G01*
X168797545Y-93139607D01*
X168845142Y-93151530D01*
X168891342Y-93168060D01*
X168935698Y-93189039D01*
X168977785Y-93214265D01*
X169017197Y-93243495D01*
X169053553Y-93276447D01*
X169086505Y-93312803D01*
X169115735Y-93352215D01*
X169140961Y-93394302D01*
X169161940Y-93438658D01*
X169178470Y-93484858D01*
X169190393Y-93532455D01*
X169197592Y-93580991D01*
X169200000Y-93630000D01*
X169200000Y-95170000D01*
X169197592Y-95219009D01*
X169190393Y-95267545D01*
X169178470Y-95315142D01*
X169161940Y-95361342D01*
X169140961Y-95405698D01*
X169115735Y-95447785D01*
X169086505Y-95487197D01*
X169053553Y-95523553D01*
X169017197Y-95556505D01*
X168977785Y-95585735D01*
X168935698Y-95610961D01*
X168891342Y-95631940D01*
X168845142Y-95648470D01*
X168797545Y-95660393D01*
X168749009Y-95667592D01*
X168700000Y-95670000D01*
X167700000Y-95670000D01*
X167650991Y-95667592D01*
X167602455Y-95660393D01*
X167554858Y-95648470D01*
X167508658Y-95631940D01*
X167464302Y-95610961D01*
X167422215Y-95585735D01*
X167382803Y-95556505D01*
X167346447Y-95523553D01*
X167313495Y-95487197D01*
X167284265Y-95447785D01*
X167259039Y-95405698D01*
X167238060Y-95361342D01*
X167221530Y-95315142D01*
X167209607Y-95267545D01*
X167202408Y-95219009D01*
X167200000Y-95170000D01*
X167200000Y-93630000D01*
X167202408Y-93580991D01*
X167209607Y-93532455D01*
X167221530Y-93484858D01*
X167238060Y-93438658D01*
X167259039Y-93394302D01*
X167284265Y-93352215D01*
X167313495Y-93312803D01*
X167346447Y-93276447D01*
X167382803Y-93243495D01*
X167422215Y-93214265D01*
X167464302Y-93189039D01*
X167508658Y-93168060D01*
X167554858Y-93151530D01*
X167602455Y-93139607D01*
X167650991Y-93132408D01*
X167700000Y-93130000D01*
X168700000Y-93130000D01*
X168749009Y-93132408D01*
G37*
G36*
X166209009Y-93132408D02*
G01*
X166257545Y-93139607D01*
X166305142Y-93151530D01*
X166351342Y-93168060D01*
X166395698Y-93189039D01*
X166437785Y-93214265D01*
X166477197Y-93243495D01*
X166513553Y-93276447D01*
X166546505Y-93312803D01*
X166575735Y-93352215D01*
X166600961Y-93394302D01*
X166621940Y-93438658D01*
X166638470Y-93484858D01*
X166650393Y-93532455D01*
X166657592Y-93580991D01*
X166660000Y-93630000D01*
X166660000Y-95170000D01*
X166657592Y-95219009D01*
X166650393Y-95267545D01*
X166638470Y-95315142D01*
X166621940Y-95361342D01*
X166600961Y-95405698D01*
X166575735Y-95447785D01*
X166546505Y-95487197D01*
X166513553Y-95523553D01*
X166477197Y-95556505D01*
X166437785Y-95585735D01*
X166395698Y-95610961D01*
X166351342Y-95631940D01*
X166305142Y-95648470D01*
X166257545Y-95660393D01*
X166209009Y-95667592D01*
X166160000Y-95670000D01*
X165160000Y-95670000D01*
X165110991Y-95667592D01*
X165062455Y-95660393D01*
X165014858Y-95648470D01*
X164968658Y-95631940D01*
X164924302Y-95610961D01*
X164882215Y-95585735D01*
X164842803Y-95556505D01*
X164806447Y-95523553D01*
X164773495Y-95487197D01*
X164744265Y-95447785D01*
X164719039Y-95405698D01*
X164698060Y-95361342D01*
X164681530Y-95315142D01*
X164669607Y-95267545D01*
X164662408Y-95219009D01*
X164660000Y-95170000D01*
X164660000Y-93630000D01*
X164662408Y-93580991D01*
X164669607Y-93532455D01*
X164681530Y-93484858D01*
X164698060Y-93438658D01*
X164719039Y-93394302D01*
X164744265Y-93352215D01*
X164773495Y-93312803D01*
X164806447Y-93276447D01*
X164842803Y-93243495D01*
X164882215Y-93214265D01*
X164924302Y-93189039D01*
X164968658Y-93168060D01*
X165014858Y-93151530D01*
X165062455Y-93139607D01*
X165110991Y-93132408D01*
X165160000Y-93130000D01*
X166160000Y-93130000D01*
X166209009Y-93132408D01*
G37*
D23*
X137971600Y-92829000D03*
X137321600Y-92829000D03*
X138621600Y-92829000D03*
X136671600Y-92829000D03*
X139271600Y-92829000D03*
D24*
X134871600Y-92954000D03*
X141071600Y-92954000D03*
D25*
X134171600Y-95504000D03*
X141771600Y-95504000D03*
D26*
X136771600Y-95504000D03*
X139171600Y-95504000D03*
D27*
X150800000Y-94400000D03*
X150800000Y-91100000D03*
D12*
G36*
X154102691Y-88680053D02*
G01*
X154123926Y-88683203D01*
X154144750Y-88688419D01*
X154164962Y-88695651D01*
X154184368Y-88704830D01*
X154202781Y-88715866D01*
X154220024Y-88728654D01*
X154235930Y-88743070D01*
X154250346Y-88758976D01*
X154263134Y-88776219D01*
X154274170Y-88794632D01*
X154283349Y-88814038D01*
X154290581Y-88834250D01*
X154295797Y-88855074D01*
X154298947Y-88876309D01*
X154300000Y-88897750D01*
X154300000Y-89410250D01*
X154298947Y-89431691D01*
X154295797Y-89452926D01*
X154290581Y-89473750D01*
X154283349Y-89493962D01*
X154274170Y-89513368D01*
X154263134Y-89531781D01*
X154250346Y-89549024D01*
X154235930Y-89564930D01*
X154220024Y-89579346D01*
X154202781Y-89592134D01*
X154184368Y-89603170D01*
X154164962Y-89612349D01*
X154144750Y-89619581D01*
X154123926Y-89624797D01*
X154102691Y-89627947D01*
X154081250Y-89629000D01*
X153643750Y-89629000D01*
X153622309Y-89627947D01*
X153601074Y-89624797D01*
X153580250Y-89619581D01*
X153560038Y-89612349D01*
X153540632Y-89603170D01*
X153522219Y-89592134D01*
X153504976Y-89579346D01*
X153489070Y-89564930D01*
X153474654Y-89549024D01*
X153461866Y-89531781D01*
X153450830Y-89513368D01*
X153441651Y-89493962D01*
X153434419Y-89473750D01*
X153429203Y-89452926D01*
X153426053Y-89431691D01*
X153425000Y-89410250D01*
X153425000Y-88897750D01*
X153426053Y-88876309D01*
X153429203Y-88855074D01*
X153434419Y-88834250D01*
X153441651Y-88814038D01*
X153450830Y-88794632D01*
X153461866Y-88776219D01*
X153474654Y-88758976D01*
X153489070Y-88743070D01*
X153504976Y-88728654D01*
X153522219Y-88715866D01*
X153540632Y-88704830D01*
X153560038Y-88695651D01*
X153580250Y-88688419D01*
X153601074Y-88683203D01*
X153622309Y-88680053D01*
X153643750Y-88679000D01*
X154081250Y-88679000D01*
X154102691Y-88680053D01*
G37*
G36*
X155677691Y-88680053D02*
G01*
X155698926Y-88683203D01*
X155719750Y-88688419D01*
X155739962Y-88695651D01*
X155759368Y-88704830D01*
X155777781Y-88715866D01*
X155795024Y-88728654D01*
X155810930Y-88743070D01*
X155825346Y-88758976D01*
X155838134Y-88776219D01*
X155849170Y-88794632D01*
X155858349Y-88814038D01*
X155865581Y-88834250D01*
X155870797Y-88855074D01*
X155873947Y-88876309D01*
X155875000Y-88897750D01*
X155875000Y-89410250D01*
X155873947Y-89431691D01*
X155870797Y-89452926D01*
X155865581Y-89473750D01*
X155858349Y-89493962D01*
X155849170Y-89513368D01*
X155838134Y-89531781D01*
X155825346Y-89549024D01*
X155810930Y-89564930D01*
X155795024Y-89579346D01*
X155777781Y-89592134D01*
X155759368Y-89603170D01*
X155739962Y-89612349D01*
X155719750Y-89619581D01*
X155698926Y-89624797D01*
X155677691Y-89627947D01*
X155656250Y-89629000D01*
X155218750Y-89629000D01*
X155197309Y-89627947D01*
X155176074Y-89624797D01*
X155155250Y-89619581D01*
X155135038Y-89612349D01*
X155115632Y-89603170D01*
X155097219Y-89592134D01*
X155079976Y-89579346D01*
X155064070Y-89564930D01*
X155049654Y-89549024D01*
X155036866Y-89531781D01*
X155025830Y-89513368D01*
X155016651Y-89493962D01*
X155009419Y-89473750D01*
X155004203Y-89452926D01*
X155001053Y-89431691D01*
X155000000Y-89410250D01*
X155000000Y-88897750D01*
X155001053Y-88876309D01*
X155004203Y-88855074D01*
X155009419Y-88834250D01*
X155016651Y-88814038D01*
X155025830Y-88794632D01*
X155036866Y-88776219D01*
X155049654Y-88758976D01*
X155064070Y-88743070D01*
X155079976Y-88728654D01*
X155097219Y-88715866D01*
X155115632Y-88704830D01*
X155135038Y-88695651D01*
X155155250Y-88688419D01*
X155176074Y-88683203D01*
X155197309Y-88680053D01*
X155218750Y-88679000D01*
X155656250Y-88679000D01*
X155677691Y-88680053D01*
G37*
G36*
X138852691Y-88926053D02*
G01*
X138873926Y-88929203D01*
X138894750Y-88934419D01*
X138914962Y-88941651D01*
X138934368Y-88950830D01*
X138952781Y-88961866D01*
X138970024Y-88974654D01*
X138985930Y-88989070D01*
X139000346Y-89004976D01*
X139013134Y-89022219D01*
X139024170Y-89040632D01*
X139033349Y-89060038D01*
X139040581Y-89080250D01*
X139045797Y-89101074D01*
X139048947Y-89122309D01*
X139050000Y-89143750D01*
X139050000Y-89656250D01*
X139048947Y-89677691D01*
X139045797Y-89698926D01*
X139040581Y-89719750D01*
X139033349Y-89739962D01*
X139024170Y-89759368D01*
X139013134Y-89777781D01*
X139000346Y-89795024D01*
X138985930Y-89810930D01*
X138970024Y-89825346D01*
X138952781Y-89838134D01*
X138934368Y-89849170D01*
X138914962Y-89858349D01*
X138894750Y-89865581D01*
X138873926Y-89870797D01*
X138852691Y-89873947D01*
X138831250Y-89875000D01*
X138393750Y-89875000D01*
X138372309Y-89873947D01*
X138351074Y-89870797D01*
X138330250Y-89865581D01*
X138310038Y-89858349D01*
X138290632Y-89849170D01*
X138272219Y-89838134D01*
X138254976Y-89825346D01*
X138239070Y-89810930D01*
X138224654Y-89795024D01*
X138211866Y-89777781D01*
X138200830Y-89759368D01*
X138191651Y-89739962D01*
X138184419Y-89719750D01*
X138179203Y-89698926D01*
X138176053Y-89677691D01*
X138175000Y-89656250D01*
X138175000Y-89143750D01*
X138176053Y-89122309D01*
X138179203Y-89101074D01*
X138184419Y-89080250D01*
X138191651Y-89060038D01*
X138200830Y-89040632D01*
X138211866Y-89022219D01*
X138224654Y-89004976D01*
X138239070Y-88989070D01*
X138254976Y-88974654D01*
X138272219Y-88961866D01*
X138290632Y-88950830D01*
X138310038Y-88941651D01*
X138330250Y-88934419D01*
X138351074Y-88929203D01*
X138372309Y-88926053D01*
X138393750Y-88925000D01*
X138831250Y-88925000D01*
X138852691Y-88926053D01*
G37*
G36*
X140427691Y-88926053D02*
G01*
X140448926Y-88929203D01*
X140469750Y-88934419D01*
X140489962Y-88941651D01*
X140509368Y-88950830D01*
X140527781Y-88961866D01*
X140545024Y-88974654D01*
X140560930Y-88989070D01*
X140575346Y-89004976D01*
X140588134Y-89022219D01*
X140599170Y-89040632D01*
X140608349Y-89060038D01*
X140615581Y-89080250D01*
X140620797Y-89101074D01*
X140623947Y-89122309D01*
X140625000Y-89143750D01*
X140625000Y-89656250D01*
X140623947Y-89677691D01*
X140620797Y-89698926D01*
X140615581Y-89719750D01*
X140608349Y-89739962D01*
X140599170Y-89759368D01*
X140588134Y-89777781D01*
X140575346Y-89795024D01*
X140560930Y-89810930D01*
X140545024Y-89825346D01*
X140527781Y-89838134D01*
X140509368Y-89849170D01*
X140489962Y-89858349D01*
X140469750Y-89865581D01*
X140448926Y-89870797D01*
X140427691Y-89873947D01*
X140406250Y-89875000D01*
X139968750Y-89875000D01*
X139947309Y-89873947D01*
X139926074Y-89870797D01*
X139905250Y-89865581D01*
X139885038Y-89858349D01*
X139865632Y-89849170D01*
X139847219Y-89838134D01*
X139829976Y-89825346D01*
X139814070Y-89810930D01*
X139799654Y-89795024D01*
X139786866Y-89777781D01*
X139775830Y-89759368D01*
X139766651Y-89739962D01*
X139759419Y-89719750D01*
X139754203Y-89698926D01*
X139751053Y-89677691D01*
X139750000Y-89656250D01*
X139750000Y-89143750D01*
X139751053Y-89122309D01*
X139754203Y-89101074D01*
X139759419Y-89080250D01*
X139766651Y-89060038D01*
X139775830Y-89040632D01*
X139786866Y-89022219D01*
X139799654Y-89004976D01*
X139814070Y-88989070D01*
X139829976Y-88974654D01*
X139847219Y-88961866D01*
X139865632Y-88950830D01*
X139885038Y-88941651D01*
X139905250Y-88934419D01*
X139926074Y-88929203D01*
X139947309Y-88926053D01*
X139968750Y-88925000D01*
X140406250Y-88925000D01*
X140427691Y-88926053D01*
G37*
G36*
X147673891Y-91028753D02*
G01*
X147695126Y-91031903D01*
X147715950Y-91037119D01*
X147736162Y-91044351D01*
X147755568Y-91053530D01*
X147773981Y-91064566D01*
X147791224Y-91077354D01*
X147807130Y-91091770D01*
X147821546Y-91107676D01*
X147834334Y-91124919D01*
X147845370Y-91143332D01*
X147854549Y-91162738D01*
X147861781Y-91182950D01*
X147866997Y-91203774D01*
X147870147Y-91225009D01*
X147871200Y-91246450D01*
X147871200Y-91683950D01*
X147870147Y-91705391D01*
X147866997Y-91726626D01*
X147861781Y-91747450D01*
X147854549Y-91767662D01*
X147845370Y-91787068D01*
X147834334Y-91805481D01*
X147821546Y-91822724D01*
X147807130Y-91838630D01*
X147791224Y-91853046D01*
X147773981Y-91865834D01*
X147755568Y-91876870D01*
X147736162Y-91886049D01*
X147715950Y-91893281D01*
X147695126Y-91898497D01*
X147673891Y-91901647D01*
X147652450Y-91902700D01*
X147139950Y-91902700D01*
X147118509Y-91901647D01*
X147097274Y-91898497D01*
X147076450Y-91893281D01*
X147056238Y-91886049D01*
X147036832Y-91876870D01*
X147018419Y-91865834D01*
X147001176Y-91853046D01*
X146985270Y-91838630D01*
X146970854Y-91822724D01*
X146958066Y-91805481D01*
X146947030Y-91787068D01*
X146937851Y-91767662D01*
X146930619Y-91747450D01*
X146925403Y-91726626D01*
X146922253Y-91705391D01*
X146921200Y-91683950D01*
X146921200Y-91246450D01*
X146922253Y-91225009D01*
X146925403Y-91203774D01*
X146930619Y-91182950D01*
X146937851Y-91162738D01*
X146947030Y-91143332D01*
X146958066Y-91124919D01*
X146970854Y-91107676D01*
X146985270Y-91091770D01*
X147001176Y-91077354D01*
X147018419Y-91064566D01*
X147036832Y-91053530D01*
X147056238Y-91044351D01*
X147076450Y-91037119D01*
X147097274Y-91031903D01*
X147118509Y-91028753D01*
X147139950Y-91027700D01*
X147652450Y-91027700D01*
X147673891Y-91028753D01*
G37*
G36*
X147673891Y-92603753D02*
G01*
X147695126Y-92606903D01*
X147715950Y-92612119D01*
X147736162Y-92619351D01*
X147755568Y-92628530D01*
X147773981Y-92639566D01*
X147791224Y-92652354D01*
X147807130Y-92666770D01*
X147821546Y-92682676D01*
X147834334Y-92699919D01*
X147845370Y-92718332D01*
X147854549Y-92737738D01*
X147861781Y-92757950D01*
X147866997Y-92778774D01*
X147870147Y-92800009D01*
X147871200Y-92821450D01*
X147871200Y-93258950D01*
X147870147Y-93280391D01*
X147866997Y-93301626D01*
X147861781Y-93322450D01*
X147854549Y-93342662D01*
X147845370Y-93362068D01*
X147834334Y-93380481D01*
X147821546Y-93397724D01*
X147807130Y-93413630D01*
X147791224Y-93428046D01*
X147773981Y-93440834D01*
X147755568Y-93451870D01*
X147736162Y-93461049D01*
X147715950Y-93468281D01*
X147695126Y-93473497D01*
X147673891Y-93476647D01*
X147652450Y-93477700D01*
X147139950Y-93477700D01*
X147118509Y-93476647D01*
X147097274Y-93473497D01*
X147076450Y-93468281D01*
X147056238Y-93461049D01*
X147036832Y-93451870D01*
X147018419Y-93440834D01*
X147001176Y-93428046D01*
X146985270Y-93413630D01*
X146970854Y-93397724D01*
X146958066Y-93380481D01*
X146947030Y-93362068D01*
X146937851Y-93342662D01*
X146930619Y-93322450D01*
X146925403Y-93301626D01*
X146922253Y-93280391D01*
X146921200Y-93258950D01*
X146921200Y-92821450D01*
X146922253Y-92800009D01*
X146925403Y-92778774D01*
X146930619Y-92757950D01*
X146937851Y-92737738D01*
X146947030Y-92718332D01*
X146958066Y-92699919D01*
X146970854Y-92682676D01*
X146985270Y-92666770D01*
X147001176Y-92652354D01*
X147018419Y-92639566D01*
X147036832Y-92628530D01*
X147056238Y-92619351D01*
X147076450Y-92612119D01*
X147097274Y-92606903D01*
X147118509Y-92603753D01*
X147139950Y-92602700D01*
X147652450Y-92602700D01*
X147673891Y-92603753D01*
G37*
G36*
X168115191Y-90226053D02*
G01*
X168136426Y-90229203D01*
X168157250Y-90234419D01*
X168177462Y-90241651D01*
X168196868Y-90250830D01*
X168215281Y-90261866D01*
X168232524Y-90274654D01*
X168248430Y-90289070D01*
X168262846Y-90304976D01*
X168275634Y-90322219D01*
X168286670Y-90340632D01*
X168295849Y-90360038D01*
X168303081Y-90380250D01*
X168308297Y-90401074D01*
X168311447Y-90422309D01*
X168312500Y-90443750D01*
X168312500Y-90956250D01*
X168311447Y-90977691D01*
X168308297Y-90998926D01*
X168303081Y-91019750D01*
X168295849Y-91039962D01*
X168286670Y-91059368D01*
X168275634Y-91077781D01*
X168262846Y-91095024D01*
X168248430Y-91110930D01*
X168232524Y-91125346D01*
X168215281Y-91138134D01*
X168196868Y-91149170D01*
X168177462Y-91158349D01*
X168157250Y-91165581D01*
X168136426Y-91170797D01*
X168115191Y-91173947D01*
X168093750Y-91175000D01*
X167656250Y-91175000D01*
X167634809Y-91173947D01*
X167613574Y-91170797D01*
X167592750Y-91165581D01*
X167572538Y-91158349D01*
X167553132Y-91149170D01*
X167534719Y-91138134D01*
X167517476Y-91125346D01*
X167501570Y-91110930D01*
X167487154Y-91095024D01*
X167474366Y-91077781D01*
X167463330Y-91059368D01*
X167454151Y-91039962D01*
X167446919Y-91019750D01*
X167441703Y-90998926D01*
X167438553Y-90977691D01*
X167437500Y-90956250D01*
X167437500Y-90443750D01*
X167438553Y-90422309D01*
X167441703Y-90401074D01*
X167446919Y-90380250D01*
X167454151Y-90360038D01*
X167463330Y-90340632D01*
X167474366Y-90322219D01*
X167487154Y-90304976D01*
X167501570Y-90289070D01*
X167517476Y-90274654D01*
X167534719Y-90261866D01*
X167553132Y-90250830D01*
X167572538Y-90241651D01*
X167592750Y-90234419D01*
X167613574Y-90229203D01*
X167634809Y-90226053D01*
X167656250Y-90225000D01*
X168093750Y-90225000D01*
X168115191Y-90226053D01*
G37*
G36*
X166540191Y-90226053D02*
G01*
X166561426Y-90229203D01*
X166582250Y-90234419D01*
X166602462Y-90241651D01*
X166621868Y-90250830D01*
X166640281Y-90261866D01*
X166657524Y-90274654D01*
X166673430Y-90289070D01*
X166687846Y-90304976D01*
X166700634Y-90322219D01*
X166711670Y-90340632D01*
X166720849Y-90360038D01*
X166728081Y-90380250D01*
X166733297Y-90401074D01*
X166736447Y-90422309D01*
X166737500Y-90443750D01*
X166737500Y-90956250D01*
X166736447Y-90977691D01*
X166733297Y-90998926D01*
X166728081Y-91019750D01*
X166720849Y-91039962D01*
X166711670Y-91059368D01*
X166700634Y-91077781D01*
X166687846Y-91095024D01*
X166673430Y-91110930D01*
X166657524Y-91125346D01*
X166640281Y-91138134D01*
X166621868Y-91149170D01*
X166602462Y-91158349D01*
X166582250Y-91165581D01*
X166561426Y-91170797D01*
X166540191Y-91173947D01*
X166518750Y-91175000D01*
X166081250Y-91175000D01*
X166059809Y-91173947D01*
X166038574Y-91170797D01*
X166017750Y-91165581D01*
X165997538Y-91158349D01*
X165978132Y-91149170D01*
X165959719Y-91138134D01*
X165942476Y-91125346D01*
X165926570Y-91110930D01*
X165912154Y-91095024D01*
X165899366Y-91077781D01*
X165888330Y-91059368D01*
X165879151Y-91039962D01*
X165871919Y-91019750D01*
X165866703Y-90998926D01*
X165863553Y-90977691D01*
X165862500Y-90956250D01*
X165862500Y-90443750D01*
X165863553Y-90422309D01*
X165866703Y-90401074D01*
X165871919Y-90380250D01*
X165879151Y-90360038D01*
X165888330Y-90340632D01*
X165899366Y-90322219D01*
X165912154Y-90304976D01*
X165926570Y-90289070D01*
X165942476Y-90274654D01*
X165959719Y-90261866D01*
X165978132Y-90250830D01*
X165997538Y-90241651D01*
X166017750Y-90234419D01*
X166038574Y-90229203D01*
X166059809Y-90226053D01*
X166081250Y-90225000D01*
X166518750Y-90225000D01*
X166540191Y-90226053D01*
G37*
G36*
X147227691Y-88526053D02*
G01*
X147248926Y-88529203D01*
X147269750Y-88534419D01*
X147289962Y-88541651D01*
X147309368Y-88550830D01*
X147327781Y-88561866D01*
X147345024Y-88574654D01*
X147360930Y-88589070D01*
X147375346Y-88604976D01*
X147388134Y-88622219D01*
X147399170Y-88640632D01*
X147408349Y-88660038D01*
X147415581Y-88680250D01*
X147420797Y-88701074D01*
X147423947Y-88722309D01*
X147425000Y-88743750D01*
X147425000Y-89256250D01*
X147423947Y-89277691D01*
X147420797Y-89298926D01*
X147415581Y-89319750D01*
X147408349Y-89339962D01*
X147399170Y-89359368D01*
X147388134Y-89377781D01*
X147375346Y-89395024D01*
X147360930Y-89410930D01*
X147345024Y-89425346D01*
X147327781Y-89438134D01*
X147309368Y-89449170D01*
X147289962Y-89458349D01*
X147269750Y-89465581D01*
X147248926Y-89470797D01*
X147227691Y-89473947D01*
X147206250Y-89475000D01*
X146768750Y-89475000D01*
X146747309Y-89473947D01*
X146726074Y-89470797D01*
X146705250Y-89465581D01*
X146685038Y-89458349D01*
X146665632Y-89449170D01*
X146647219Y-89438134D01*
X146629976Y-89425346D01*
X146614070Y-89410930D01*
X146599654Y-89395024D01*
X146586866Y-89377781D01*
X146575830Y-89359368D01*
X146566651Y-89339962D01*
X146559419Y-89319750D01*
X146554203Y-89298926D01*
X146551053Y-89277691D01*
X146550000Y-89256250D01*
X146550000Y-88743750D01*
X146551053Y-88722309D01*
X146554203Y-88701074D01*
X146559419Y-88680250D01*
X146566651Y-88660038D01*
X146575830Y-88640632D01*
X146586866Y-88622219D01*
X146599654Y-88604976D01*
X146614070Y-88589070D01*
X146629976Y-88574654D01*
X146647219Y-88561866D01*
X146665632Y-88550830D01*
X146685038Y-88541651D01*
X146705250Y-88534419D01*
X146726074Y-88529203D01*
X146747309Y-88526053D01*
X146768750Y-88525000D01*
X147206250Y-88525000D01*
X147227691Y-88526053D01*
G37*
G36*
X145652691Y-88526053D02*
G01*
X145673926Y-88529203D01*
X145694750Y-88534419D01*
X145714962Y-88541651D01*
X145734368Y-88550830D01*
X145752781Y-88561866D01*
X145770024Y-88574654D01*
X145785930Y-88589070D01*
X145800346Y-88604976D01*
X145813134Y-88622219D01*
X145824170Y-88640632D01*
X145833349Y-88660038D01*
X145840581Y-88680250D01*
X145845797Y-88701074D01*
X145848947Y-88722309D01*
X145850000Y-88743750D01*
X145850000Y-89256250D01*
X145848947Y-89277691D01*
X145845797Y-89298926D01*
X145840581Y-89319750D01*
X145833349Y-89339962D01*
X145824170Y-89359368D01*
X145813134Y-89377781D01*
X145800346Y-89395024D01*
X145785930Y-89410930D01*
X145770024Y-89425346D01*
X145752781Y-89438134D01*
X145734368Y-89449170D01*
X145714962Y-89458349D01*
X145694750Y-89465581D01*
X145673926Y-89470797D01*
X145652691Y-89473947D01*
X145631250Y-89475000D01*
X145193750Y-89475000D01*
X145172309Y-89473947D01*
X145151074Y-89470797D01*
X145130250Y-89465581D01*
X145110038Y-89458349D01*
X145090632Y-89449170D01*
X145072219Y-89438134D01*
X145054976Y-89425346D01*
X145039070Y-89410930D01*
X145024654Y-89395024D01*
X145011866Y-89377781D01*
X145000830Y-89359368D01*
X144991651Y-89339962D01*
X144984419Y-89319750D01*
X144979203Y-89298926D01*
X144976053Y-89277691D01*
X144975000Y-89256250D01*
X144975000Y-88743750D01*
X144976053Y-88722309D01*
X144979203Y-88701074D01*
X144984419Y-88680250D01*
X144991651Y-88660038D01*
X145000830Y-88640632D01*
X145011866Y-88622219D01*
X145024654Y-88604976D01*
X145039070Y-88589070D01*
X145054976Y-88574654D01*
X145072219Y-88561866D01*
X145090632Y-88550830D01*
X145110038Y-88541651D01*
X145130250Y-88534419D01*
X145151074Y-88529203D01*
X145172309Y-88526053D01*
X145193750Y-88525000D01*
X145631250Y-88525000D01*
X145652691Y-88526053D01*
G37*
G36*
X153049191Y-90204053D02*
G01*
X153070426Y-90207203D01*
X153091250Y-90212419D01*
X153111462Y-90219651D01*
X153130868Y-90228830D01*
X153149281Y-90239866D01*
X153166524Y-90252654D01*
X153182430Y-90267070D01*
X153196846Y-90282976D01*
X153209634Y-90300219D01*
X153220670Y-90318632D01*
X153229849Y-90338038D01*
X153237081Y-90358250D01*
X153242297Y-90379074D01*
X153245447Y-90400309D01*
X153246500Y-90421750D01*
X153246500Y-90934250D01*
X153245447Y-90955691D01*
X153242297Y-90976926D01*
X153237081Y-90997750D01*
X153229849Y-91017962D01*
X153220670Y-91037368D01*
X153209634Y-91055781D01*
X153196846Y-91073024D01*
X153182430Y-91088930D01*
X153166524Y-91103346D01*
X153149281Y-91116134D01*
X153130868Y-91127170D01*
X153111462Y-91136349D01*
X153091250Y-91143581D01*
X153070426Y-91148797D01*
X153049191Y-91151947D01*
X153027750Y-91153000D01*
X152590250Y-91153000D01*
X152568809Y-91151947D01*
X152547574Y-91148797D01*
X152526750Y-91143581D01*
X152506538Y-91136349D01*
X152487132Y-91127170D01*
X152468719Y-91116134D01*
X152451476Y-91103346D01*
X152435570Y-91088930D01*
X152421154Y-91073024D01*
X152408366Y-91055781D01*
X152397330Y-91037368D01*
X152388151Y-91017962D01*
X152380919Y-90997750D01*
X152375703Y-90976926D01*
X152372553Y-90955691D01*
X152371500Y-90934250D01*
X152371500Y-90421750D01*
X152372553Y-90400309D01*
X152375703Y-90379074D01*
X152380919Y-90358250D01*
X152388151Y-90338038D01*
X152397330Y-90318632D01*
X152408366Y-90300219D01*
X152421154Y-90282976D01*
X152435570Y-90267070D01*
X152451476Y-90252654D01*
X152468719Y-90239866D01*
X152487132Y-90228830D01*
X152506538Y-90219651D01*
X152526750Y-90212419D01*
X152547574Y-90207203D01*
X152568809Y-90204053D01*
X152590250Y-90203000D01*
X153027750Y-90203000D01*
X153049191Y-90204053D01*
G37*
G36*
X154624191Y-90204053D02*
G01*
X154645426Y-90207203D01*
X154666250Y-90212419D01*
X154686462Y-90219651D01*
X154705868Y-90228830D01*
X154724281Y-90239866D01*
X154741524Y-90252654D01*
X154757430Y-90267070D01*
X154771846Y-90282976D01*
X154784634Y-90300219D01*
X154795670Y-90318632D01*
X154804849Y-90338038D01*
X154812081Y-90358250D01*
X154817297Y-90379074D01*
X154820447Y-90400309D01*
X154821500Y-90421750D01*
X154821500Y-90934250D01*
X154820447Y-90955691D01*
X154817297Y-90976926D01*
X154812081Y-90997750D01*
X154804849Y-91017962D01*
X154795670Y-91037368D01*
X154784634Y-91055781D01*
X154771846Y-91073024D01*
X154757430Y-91088930D01*
X154741524Y-91103346D01*
X154724281Y-91116134D01*
X154705868Y-91127170D01*
X154686462Y-91136349D01*
X154666250Y-91143581D01*
X154645426Y-91148797D01*
X154624191Y-91151947D01*
X154602750Y-91153000D01*
X154165250Y-91153000D01*
X154143809Y-91151947D01*
X154122574Y-91148797D01*
X154101750Y-91143581D01*
X154081538Y-91136349D01*
X154062132Y-91127170D01*
X154043719Y-91116134D01*
X154026476Y-91103346D01*
X154010570Y-91088930D01*
X153996154Y-91073024D01*
X153983366Y-91055781D01*
X153972330Y-91037368D01*
X153963151Y-91017962D01*
X153955919Y-90997750D01*
X153950703Y-90976926D01*
X153947553Y-90955691D01*
X153946500Y-90934250D01*
X153946500Y-90421750D01*
X153947553Y-90400309D01*
X153950703Y-90379074D01*
X153955919Y-90358250D01*
X153963151Y-90338038D01*
X153972330Y-90318632D01*
X153983366Y-90300219D01*
X153996154Y-90282976D01*
X154010570Y-90267070D01*
X154026476Y-90252654D01*
X154043719Y-90239866D01*
X154062132Y-90228830D01*
X154081538Y-90219651D01*
X154101750Y-90212419D01*
X154122574Y-90207203D01*
X154143809Y-90204053D01*
X154165250Y-90203000D01*
X154602750Y-90203000D01*
X154624191Y-90204053D01*
G37*
G36*
X158677691Y-90063553D02*
G01*
X158698926Y-90066703D01*
X158719750Y-90071919D01*
X158739962Y-90079151D01*
X158759368Y-90088330D01*
X158777781Y-90099366D01*
X158795024Y-90112154D01*
X158810930Y-90126570D01*
X158825346Y-90142476D01*
X158838134Y-90159719D01*
X158849170Y-90178132D01*
X158858349Y-90197538D01*
X158865581Y-90217750D01*
X158870797Y-90238574D01*
X158873947Y-90259809D01*
X158875000Y-90281250D01*
X158875000Y-90718750D01*
X158873947Y-90740191D01*
X158870797Y-90761426D01*
X158865581Y-90782250D01*
X158858349Y-90802462D01*
X158849170Y-90821868D01*
X158838134Y-90840281D01*
X158825346Y-90857524D01*
X158810930Y-90873430D01*
X158795024Y-90887846D01*
X158777781Y-90900634D01*
X158759368Y-90911670D01*
X158739962Y-90920849D01*
X158719750Y-90928081D01*
X158698926Y-90933297D01*
X158677691Y-90936447D01*
X158656250Y-90937500D01*
X158143750Y-90937500D01*
X158122309Y-90936447D01*
X158101074Y-90933297D01*
X158080250Y-90928081D01*
X158060038Y-90920849D01*
X158040632Y-90911670D01*
X158022219Y-90900634D01*
X158004976Y-90887846D01*
X157989070Y-90873430D01*
X157974654Y-90857524D01*
X157961866Y-90840281D01*
X157950830Y-90821868D01*
X157941651Y-90802462D01*
X157934419Y-90782250D01*
X157929203Y-90761426D01*
X157926053Y-90740191D01*
X157925000Y-90718750D01*
X157925000Y-90281250D01*
X157926053Y-90259809D01*
X157929203Y-90238574D01*
X157934419Y-90217750D01*
X157941651Y-90197538D01*
X157950830Y-90178132D01*
X157961866Y-90159719D01*
X157974654Y-90142476D01*
X157989070Y-90126570D01*
X158004976Y-90112154D01*
X158022219Y-90099366D01*
X158040632Y-90088330D01*
X158060038Y-90079151D01*
X158080250Y-90071919D01*
X158101074Y-90066703D01*
X158122309Y-90063553D01*
X158143750Y-90062500D01*
X158656250Y-90062500D01*
X158677691Y-90063553D01*
G37*
G36*
X158677691Y-91638553D02*
G01*
X158698926Y-91641703D01*
X158719750Y-91646919D01*
X158739962Y-91654151D01*
X158759368Y-91663330D01*
X158777781Y-91674366D01*
X158795024Y-91687154D01*
X158810930Y-91701570D01*
X158825346Y-91717476D01*
X158838134Y-91734719D01*
X158849170Y-91753132D01*
X158858349Y-91772538D01*
X158865581Y-91792750D01*
X158870797Y-91813574D01*
X158873947Y-91834809D01*
X158875000Y-91856250D01*
X158875000Y-92293750D01*
X158873947Y-92315191D01*
X158870797Y-92336426D01*
X158865581Y-92357250D01*
X158858349Y-92377462D01*
X158849170Y-92396868D01*
X158838134Y-92415281D01*
X158825346Y-92432524D01*
X158810930Y-92448430D01*
X158795024Y-92462846D01*
X158777781Y-92475634D01*
X158759368Y-92486670D01*
X158739962Y-92495849D01*
X158719750Y-92503081D01*
X158698926Y-92508297D01*
X158677691Y-92511447D01*
X158656250Y-92512500D01*
X158143750Y-92512500D01*
X158122309Y-92511447D01*
X158101074Y-92508297D01*
X158080250Y-92503081D01*
X158060038Y-92495849D01*
X158040632Y-92486670D01*
X158022219Y-92475634D01*
X158004976Y-92462846D01*
X157989070Y-92448430D01*
X157974654Y-92432524D01*
X157961866Y-92415281D01*
X157950830Y-92396868D01*
X157941651Y-92377462D01*
X157934419Y-92357250D01*
X157929203Y-92336426D01*
X157926053Y-92315191D01*
X157925000Y-92293750D01*
X157925000Y-91856250D01*
X157926053Y-91834809D01*
X157929203Y-91813574D01*
X157934419Y-91792750D01*
X157941651Y-91772538D01*
X157950830Y-91753132D01*
X157961866Y-91734719D01*
X157974654Y-91717476D01*
X157989070Y-91701570D01*
X158004976Y-91687154D01*
X158022219Y-91674366D01*
X158040632Y-91663330D01*
X158060038Y-91654151D01*
X158080250Y-91646919D01*
X158101074Y-91641703D01*
X158122309Y-91638553D01*
X158143750Y-91637500D01*
X158656250Y-91637500D01*
X158677691Y-91638553D01*
G37*
G36*
X132320391Y-90915253D02*
G01*
X132341626Y-90918403D01*
X132362450Y-90923619D01*
X132382662Y-90930851D01*
X132402068Y-90940030D01*
X132420481Y-90951066D01*
X132437724Y-90963854D01*
X132453630Y-90978270D01*
X132468046Y-90994176D01*
X132480834Y-91011419D01*
X132491870Y-91029832D01*
X132501049Y-91049238D01*
X132508281Y-91069450D01*
X132513497Y-91090274D01*
X132516647Y-91111509D01*
X132517700Y-91132950D01*
X132517700Y-91645450D01*
X132516647Y-91666891D01*
X132513497Y-91688126D01*
X132508281Y-91708950D01*
X132501049Y-91729162D01*
X132491870Y-91748568D01*
X132480834Y-91766981D01*
X132468046Y-91784224D01*
X132453630Y-91800130D01*
X132437724Y-91814546D01*
X132420481Y-91827334D01*
X132402068Y-91838370D01*
X132382662Y-91847549D01*
X132362450Y-91854781D01*
X132341626Y-91859997D01*
X132320391Y-91863147D01*
X132298950Y-91864200D01*
X131861450Y-91864200D01*
X131840009Y-91863147D01*
X131818774Y-91859997D01*
X131797950Y-91854781D01*
X131777738Y-91847549D01*
X131758332Y-91838370D01*
X131739919Y-91827334D01*
X131722676Y-91814546D01*
X131706770Y-91800130D01*
X131692354Y-91784224D01*
X131679566Y-91766981D01*
X131668530Y-91748568D01*
X131659351Y-91729162D01*
X131652119Y-91708950D01*
X131646903Y-91688126D01*
X131643753Y-91666891D01*
X131642700Y-91645450D01*
X131642700Y-91132950D01*
X131643753Y-91111509D01*
X131646903Y-91090274D01*
X131652119Y-91069450D01*
X131659351Y-91049238D01*
X131668530Y-91029832D01*
X131679566Y-91011419D01*
X131692354Y-90994176D01*
X131706770Y-90978270D01*
X131722676Y-90963854D01*
X131739919Y-90951066D01*
X131758332Y-90940030D01*
X131777738Y-90930851D01*
X131797950Y-90923619D01*
X131818774Y-90918403D01*
X131840009Y-90915253D01*
X131861450Y-90914200D01*
X132298950Y-90914200D01*
X132320391Y-90915253D01*
G37*
G36*
X130745391Y-90915253D02*
G01*
X130766626Y-90918403D01*
X130787450Y-90923619D01*
X130807662Y-90930851D01*
X130827068Y-90940030D01*
X130845481Y-90951066D01*
X130862724Y-90963854D01*
X130878630Y-90978270D01*
X130893046Y-90994176D01*
X130905834Y-91011419D01*
X130916870Y-91029832D01*
X130926049Y-91049238D01*
X130933281Y-91069450D01*
X130938497Y-91090274D01*
X130941647Y-91111509D01*
X130942700Y-91132950D01*
X130942700Y-91645450D01*
X130941647Y-91666891D01*
X130938497Y-91688126D01*
X130933281Y-91708950D01*
X130926049Y-91729162D01*
X130916870Y-91748568D01*
X130905834Y-91766981D01*
X130893046Y-91784224D01*
X130878630Y-91800130D01*
X130862724Y-91814546D01*
X130845481Y-91827334D01*
X130827068Y-91838370D01*
X130807662Y-91847549D01*
X130787450Y-91854781D01*
X130766626Y-91859997D01*
X130745391Y-91863147D01*
X130723950Y-91864200D01*
X130286450Y-91864200D01*
X130265009Y-91863147D01*
X130243774Y-91859997D01*
X130222950Y-91854781D01*
X130202738Y-91847549D01*
X130183332Y-91838370D01*
X130164919Y-91827334D01*
X130147676Y-91814546D01*
X130131770Y-91800130D01*
X130117354Y-91784224D01*
X130104566Y-91766981D01*
X130093530Y-91748568D01*
X130084351Y-91729162D01*
X130077119Y-91708950D01*
X130071903Y-91688126D01*
X130068753Y-91666891D01*
X130067700Y-91645450D01*
X130067700Y-91132950D01*
X130068753Y-91111509D01*
X130071903Y-91090274D01*
X130077119Y-91069450D01*
X130084351Y-91049238D01*
X130093530Y-91029832D01*
X130104566Y-91011419D01*
X130117354Y-90994176D01*
X130131770Y-90978270D01*
X130147676Y-90963854D01*
X130164919Y-90951066D01*
X130183332Y-90940030D01*
X130202738Y-90930851D01*
X130222950Y-90923619D01*
X130243774Y-90918403D01*
X130265009Y-90915253D01*
X130286450Y-90914200D01*
X130723950Y-90914200D01*
X130745391Y-90915253D01*
G37*
G36*
X156741691Y-90190553D02*
G01*
X156762926Y-90193703D01*
X156783750Y-90198919D01*
X156803962Y-90206151D01*
X156823368Y-90215330D01*
X156841781Y-90226366D01*
X156859024Y-90239154D01*
X156874930Y-90253570D01*
X156889346Y-90269476D01*
X156902134Y-90286719D01*
X156913170Y-90305132D01*
X156922349Y-90324538D01*
X156929581Y-90344750D01*
X156934797Y-90365574D01*
X156937947Y-90386809D01*
X156939000Y-90408250D01*
X156939000Y-90845750D01*
X156937947Y-90867191D01*
X156934797Y-90888426D01*
X156929581Y-90909250D01*
X156922349Y-90929462D01*
X156913170Y-90948868D01*
X156902134Y-90967281D01*
X156889346Y-90984524D01*
X156874930Y-91000430D01*
X156859024Y-91014846D01*
X156841781Y-91027634D01*
X156823368Y-91038670D01*
X156803962Y-91047849D01*
X156783750Y-91055081D01*
X156762926Y-91060297D01*
X156741691Y-91063447D01*
X156720250Y-91064500D01*
X156207750Y-91064500D01*
X156186309Y-91063447D01*
X156165074Y-91060297D01*
X156144250Y-91055081D01*
X156124038Y-91047849D01*
X156104632Y-91038670D01*
X156086219Y-91027634D01*
X156068976Y-91014846D01*
X156053070Y-91000430D01*
X156038654Y-90984524D01*
X156025866Y-90967281D01*
X156014830Y-90948868D01*
X156005651Y-90929462D01*
X155998419Y-90909250D01*
X155993203Y-90888426D01*
X155990053Y-90867191D01*
X155989000Y-90845750D01*
X155989000Y-90408250D01*
X155990053Y-90386809D01*
X155993203Y-90365574D01*
X155998419Y-90344750D01*
X156005651Y-90324538D01*
X156014830Y-90305132D01*
X156025866Y-90286719D01*
X156038654Y-90269476D01*
X156053070Y-90253570D01*
X156068976Y-90239154D01*
X156086219Y-90226366D01*
X156104632Y-90215330D01*
X156124038Y-90206151D01*
X156144250Y-90198919D01*
X156165074Y-90193703D01*
X156186309Y-90190553D01*
X156207750Y-90189500D01*
X156720250Y-90189500D01*
X156741691Y-90190553D01*
G37*
G36*
X156741691Y-91765553D02*
G01*
X156762926Y-91768703D01*
X156783750Y-91773919D01*
X156803962Y-91781151D01*
X156823368Y-91790330D01*
X156841781Y-91801366D01*
X156859024Y-91814154D01*
X156874930Y-91828570D01*
X156889346Y-91844476D01*
X156902134Y-91861719D01*
X156913170Y-91880132D01*
X156922349Y-91899538D01*
X156929581Y-91919750D01*
X156934797Y-91940574D01*
X156937947Y-91961809D01*
X156939000Y-91983250D01*
X156939000Y-92420750D01*
X156937947Y-92442191D01*
X156934797Y-92463426D01*
X156929581Y-92484250D01*
X156922349Y-92504462D01*
X156913170Y-92523868D01*
X156902134Y-92542281D01*
X156889346Y-92559524D01*
X156874930Y-92575430D01*
X156859024Y-92589846D01*
X156841781Y-92602634D01*
X156823368Y-92613670D01*
X156803962Y-92622849D01*
X156783750Y-92630081D01*
X156762926Y-92635297D01*
X156741691Y-92638447D01*
X156720250Y-92639500D01*
X156207750Y-92639500D01*
X156186309Y-92638447D01*
X156165074Y-92635297D01*
X156144250Y-92630081D01*
X156124038Y-92622849D01*
X156104632Y-92613670D01*
X156086219Y-92602634D01*
X156068976Y-92589846D01*
X156053070Y-92575430D01*
X156038654Y-92559524D01*
X156025866Y-92542281D01*
X156014830Y-92523868D01*
X156005651Y-92504462D01*
X155998419Y-92484250D01*
X155993203Y-92463426D01*
X155990053Y-92442191D01*
X155989000Y-92420750D01*
X155989000Y-91983250D01*
X155990053Y-91961809D01*
X155993203Y-91940574D01*
X155998419Y-91919750D01*
X156005651Y-91899538D01*
X156014830Y-91880132D01*
X156025866Y-91861719D01*
X156038654Y-91844476D01*
X156053070Y-91828570D01*
X156068976Y-91814154D01*
X156086219Y-91801366D01*
X156104632Y-91790330D01*
X156124038Y-91781151D01*
X156144250Y-91773919D01*
X156165074Y-91768703D01*
X156186309Y-91765553D01*
X156207750Y-91764500D01*
X156720250Y-91764500D01*
X156741691Y-91765553D01*
G37*
G36*
X164177691Y-90363553D02*
G01*
X164198926Y-90366703D01*
X164219750Y-90371919D01*
X164239962Y-90379151D01*
X164259368Y-90388330D01*
X164277781Y-90399366D01*
X164295024Y-90412154D01*
X164310930Y-90426570D01*
X164325346Y-90442476D01*
X164338134Y-90459719D01*
X164349170Y-90478132D01*
X164358349Y-90497538D01*
X164365581Y-90517750D01*
X164370797Y-90538574D01*
X164373947Y-90559809D01*
X164375000Y-90581250D01*
X164375000Y-91018750D01*
X164373947Y-91040191D01*
X164370797Y-91061426D01*
X164365581Y-91082250D01*
X164358349Y-91102462D01*
X164349170Y-91121868D01*
X164338134Y-91140281D01*
X164325346Y-91157524D01*
X164310930Y-91173430D01*
X164295024Y-91187846D01*
X164277781Y-91200634D01*
X164259368Y-91211670D01*
X164239962Y-91220849D01*
X164219750Y-91228081D01*
X164198926Y-91233297D01*
X164177691Y-91236447D01*
X164156250Y-91237500D01*
X163643750Y-91237500D01*
X163622309Y-91236447D01*
X163601074Y-91233297D01*
X163580250Y-91228081D01*
X163560038Y-91220849D01*
X163540632Y-91211670D01*
X163522219Y-91200634D01*
X163504976Y-91187846D01*
X163489070Y-91173430D01*
X163474654Y-91157524D01*
X163461866Y-91140281D01*
X163450830Y-91121868D01*
X163441651Y-91102462D01*
X163434419Y-91082250D01*
X163429203Y-91061426D01*
X163426053Y-91040191D01*
X163425000Y-91018750D01*
X163425000Y-90581250D01*
X163426053Y-90559809D01*
X163429203Y-90538574D01*
X163434419Y-90517750D01*
X163441651Y-90497538D01*
X163450830Y-90478132D01*
X163461866Y-90459719D01*
X163474654Y-90442476D01*
X163489070Y-90426570D01*
X163504976Y-90412154D01*
X163522219Y-90399366D01*
X163540632Y-90388330D01*
X163560038Y-90379151D01*
X163580250Y-90371919D01*
X163601074Y-90366703D01*
X163622309Y-90363553D01*
X163643750Y-90362500D01*
X164156250Y-90362500D01*
X164177691Y-90363553D01*
G37*
G36*
X164177691Y-91938553D02*
G01*
X164198926Y-91941703D01*
X164219750Y-91946919D01*
X164239962Y-91954151D01*
X164259368Y-91963330D01*
X164277781Y-91974366D01*
X164295024Y-91987154D01*
X164310930Y-92001570D01*
X164325346Y-92017476D01*
X164338134Y-92034719D01*
X164349170Y-92053132D01*
X164358349Y-92072538D01*
X164365581Y-92092750D01*
X164370797Y-92113574D01*
X164373947Y-92134809D01*
X164375000Y-92156250D01*
X164375000Y-92593750D01*
X164373947Y-92615191D01*
X164370797Y-92636426D01*
X164365581Y-92657250D01*
X164358349Y-92677462D01*
X164349170Y-92696868D01*
X164338134Y-92715281D01*
X164325346Y-92732524D01*
X164310930Y-92748430D01*
X164295024Y-92762846D01*
X164277781Y-92775634D01*
X164259368Y-92786670D01*
X164239962Y-92795849D01*
X164219750Y-92803081D01*
X164198926Y-92808297D01*
X164177691Y-92811447D01*
X164156250Y-92812500D01*
X163643750Y-92812500D01*
X163622309Y-92811447D01*
X163601074Y-92808297D01*
X163580250Y-92803081D01*
X163560038Y-92795849D01*
X163540632Y-92786670D01*
X163522219Y-92775634D01*
X163504976Y-92762846D01*
X163489070Y-92748430D01*
X163474654Y-92732524D01*
X163461866Y-92715281D01*
X163450830Y-92696868D01*
X163441651Y-92677462D01*
X163434419Y-92657250D01*
X163429203Y-92636426D01*
X163426053Y-92615191D01*
X163425000Y-92593750D01*
X163425000Y-92156250D01*
X163426053Y-92134809D01*
X163429203Y-92113574D01*
X163434419Y-92092750D01*
X163441651Y-92072538D01*
X163450830Y-92053132D01*
X163461866Y-92034719D01*
X163474654Y-92017476D01*
X163489070Y-92001570D01*
X163504976Y-91987154D01*
X163522219Y-91974366D01*
X163540632Y-91963330D01*
X163560038Y-91954151D01*
X163580250Y-91946919D01*
X163601074Y-91941703D01*
X163622309Y-91938553D01*
X163643750Y-91937500D01*
X164156250Y-91937500D01*
X164177691Y-91938553D01*
G37*
M02*
