G04 #@! TF.GenerationSoftware,KiCad,Pcbnew,(5.0.1)-3*
G04 #@! TF.CreationDate,2019-12-25T14:02:51-05:00*
G04 #@! TF.ProjectId,SmartWatch,536D61727457617463682E6B69636164,rev?*
G04 #@! TF.SameCoordinates,Original*
G04 #@! TF.FileFunction,Paste,Top*
G04 #@! TF.FilePolarity,Positive*
%FSLAX46Y46*%
G04 Gerber Fmt 4.6, Leading zero omitted, Abs format (unit mm)*
G04 Created by KiCad (PCBNEW (5.0.1)-3) date 12/25/2019 2:02:51 PM*
%MOMM*%
%LPD*%
G01*
G04 APERTURE LIST*
%ADD10C,0.100000*%
%ADD11C,0.875000*%
%ADD12R,0.350000X0.450000*%
%ADD13R,0.450000X0.350000*%
%ADD14R,5.400000X5.400000*%
%ADD15C,2.000000*%
%ADD16R,1.100000X1.100000*%
%ADD17R,0.600000X0.700000*%
%ADD18R,0.700000X0.600000*%
%ADD19C,0.970000*%
%ADD20C,0.600000*%
%ADD21R,1.200000X0.400000*%
%ADD22R,0.900000X0.800000*%
%ADD23R,1.060000X0.650000*%
%ADD24R,0.400000X1.350000*%
%ADD25R,2.100000X1.600000*%
%ADD26R,1.800000X1.900000*%
%ADD27R,1.900000X1.900000*%
%ADD28R,1.500000X1.200000*%
%ADD29C,0.250000*%
%ADD30C,0.640000*%
%ADD31R,1.400000X1.600000*%
G04 APERTURE END LIST*
D10*
G04 #@! TO.C,U12*
G36*
X145634660Y-93361540D02*
X145634660Y-95271540D01*
X143724660Y-95271540D01*
X143724660Y-93361540D01*
X145634660Y-93361540D01*
G37*
G36*
X145634660Y-90661540D02*
X145634660Y-92571540D01*
X143724660Y-92571540D01*
X143724660Y-90661540D01*
X145634660Y-90661540D01*
G37*
G36*
X142934660Y-90661540D02*
X142934660Y-92571540D01*
X141024660Y-92571540D01*
X141024660Y-90661540D01*
X142934660Y-90661540D01*
G37*
G36*
X142934660Y-93361540D02*
X142934660Y-95271540D01*
X141024660Y-95271540D01*
X141024660Y-93361540D01*
X142934660Y-93361540D01*
G37*
G04 #@! TD*
G04 #@! TO.C,C5*
G36*
X156145491Y-95157053D02*
X156166726Y-95160203D01*
X156187550Y-95165419D01*
X156207762Y-95172651D01*
X156227168Y-95181830D01*
X156245581Y-95192866D01*
X156262824Y-95205654D01*
X156278730Y-95220070D01*
X156293146Y-95235976D01*
X156305934Y-95253219D01*
X156316970Y-95271632D01*
X156326149Y-95291038D01*
X156333381Y-95311250D01*
X156338597Y-95332074D01*
X156341747Y-95353309D01*
X156342800Y-95374750D01*
X156342800Y-95887250D01*
X156341747Y-95908691D01*
X156338597Y-95929926D01*
X156333381Y-95950750D01*
X156326149Y-95970962D01*
X156316970Y-95990368D01*
X156305934Y-96008781D01*
X156293146Y-96026024D01*
X156278730Y-96041930D01*
X156262824Y-96056346D01*
X156245581Y-96069134D01*
X156227168Y-96080170D01*
X156207762Y-96089349D01*
X156187550Y-96096581D01*
X156166726Y-96101797D01*
X156145491Y-96104947D01*
X156124050Y-96106000D01*
X155686550Y-96106000D01*
X155665109Y-96104947D01*
X155643874Y-96101797D01*
X155623050Y-96096581D01*
X155602838Y-96089349D01*
X155583432Y-96080170D01*
X155565019Y-96069134D01*
X155547776Y-96056346D01*
X155531870Y-96041930D01*
X155517454Y-96026024D01*
X155504666Y-96008781D01*
X155493630Y-95990368D01*
X155484451Y-95970962D01*
X155477219Y-95950750D01*
X155472003Y-95929926D01*
X155468853Y-95908691D01*
X155467800Y-95887250D01*
X155467800Y-95374750D01*
X155468853Y-95353309D01*
X155472003Y-95332074D01*
X155477219Y-95311250D01*
X155484451Y-95291038D01*
X155493630Y-95271632D01*
X155504666Y-95253219D01*
X155517454Y-95235976D01*
X155531870Y-95220070D01*
X155547776Y-95205654D01*
X155565019Y-95192866D01*
X155583432Y-95181830D01*
X155602838Y-95172651D01*
X155623050Y-95165419D01*
X155643874Y-95160203D01*
X155665109Y-95157053D01*
X155686550Y-95156000D01*
X156124050Y-95156000D01*
X156145491Y-95157053D01*
X156145491Y-95157053D01*
G37*
D11*
X155905300Y-95631000D03*
D10*
G36*
X154570491Y-95157053D02*
X154591726Y-95160203D01*
X154612550Y-95165419D01*
X154632762Y-95172651D01*
X154652168Y-95181830D01*
X154670581Y-95192866D01*
X154687824Y-95205654D01*
X154703730Y-95220070D01*
X154718146Y-95235976D01*
X154730934Y-95253219D01*
X154741970Y-95271632D01*
X154751149Y-95291038D01*
X154758381Y-95311250D01*
X154763597Y-95332074D01*
X154766747Y-95353309D01*
X154767800Y-95374750D01*
X154767800Y-95887250D01*
X154766747Y-95908691D01*
X154763597Y-95929926D01*
X154758381Y-95950750D01*
X154751149Y-95970962D01*
X154741970Y-95990368D01*
X154730934Y-96008781D01*
X154718146Y-96026024D01*
X154703730Y-96041930D01*
X154687824Y-96056346D01*
X154670581Y-96069134D01*
X154652168Y-96080170D01*
X154632762Y-96089349D01*
X154612550Y-96096581D01*
X154591726Y-96101797D01*
X154570491Y-96104947D01*
X154549050Y-96106000D01*
X154111550Y-96106000D01*
X154090109Y-96104947D01*
X154068874Y-96101797D01*
X154048050Y-96096581D01*
X154027838Y-96089349D01*
X154008432Y-96080170D01*
X153990019Y-96069134D01*
X153972776Y-96056346D01*
X153956870Y-96041930D01*
X153942454Y-96026024D01*
X153929666Y-96008781D01*
X153918630Y-95990368D01*
X153909451Y-95970962D01*
X153902219Y-95950750D01*
X153897003Y-95929926D01*
X153893853Y-95908691D01*
X153892800Y-95887250D01*
X153892800Y-95374750D01*
X153893853Y-95353309D01*
X153897003Y-95332074D01*
X153902219Y-95311250D01*
X153909451Y-95291038D01*
X153918630Y-95271632D01*
X153929666Y-95253219D01*
X153942454Y-95235976D01*
X153956870Y-95220070D01*
X153972776Y-95205654D01*
X153990019Y-95192866D01*
X154008432Y-95181830D01*
X154027838Y-95172651D01*
X154048050Y-95165419D01*
X154068874Y-95160203D01*
X154090109Y-95157053D01*
X154111550Y-95156000D01*
X154549050Y-95156000D01*
X154570491Y-95157053D01*
X154570491Y-95157053D01*
G37*
D11*
X154330300Y-95631000D03*
G04 #@! TD*
D10*
G04 #@! TO.C,R11*
G36*
X156145491Y-96706453D02*
X156166726Y-96709603D01*
X156187550Y-96714819D01*
X156207762Y-96722051D01*
X156227168Y-96731230D01*
X156245581Y-96742266D01*
X156262824Y-96755054D01*
X156278730Y-96769470D01*
X156293146Y-96785376D01*
X156305934Y-96802619D01*
X156316970Y-96821032D01*
X156326149Y-96840438D01*
X156333381Y-96860650D01*
X156338597Y-96881474D01*
X156341747Y-96902709D01*
X156342800Y-96924150D01*
X156342800Y-97436650D01*
X156341747Y-97458091D01*
X156338597Y-97479326D01*
X156333381Y-97500150D01*
X156326149Y-97520362D01*
X156316970Y-97539768D01*
X156305934Y-97558181D01*
X156293146Y-97575424D01*
X156278730Y-97591330D01*
X156262824Y-97605746D01*
X156245581Y-97618534D01*
X156227168Y-97629570D01*
X156207762Y-97638749D01*
X156187550Y-97645981D01*
X156166726Y-97651197D01*
X156145491Y-97654347D01*
X156124050Y-97655400D01*
X155686550Y-97655400D01*
X155665109Y-97654347D01*
X155643874Y-97651197D01*
X155623050Y-97645981D01*
X155602838Y-97638749D01*
X155583432Y-97629570D01*
X155565019Y-97618534D01*
X155547776Y-97605746D01*
X155531870Y-97591330D01*
X155517454Y-97575424D01*
X155504666Y-97558181D01*
X155493630Y-97539768D01*
X155484451Y-97520362D01*
X155477219Y-97500150D01*
X155472003Y-97479326D01*
X155468853Y-97458091D01*
X155467800Y-97436650D01*
X155467800Y-96924150D01*
X155468853Y-96902709D01*
X155472003Y-96881474D01*
X155477219Y-96860650D01*
X155484451Y-96840438D01*
X155493630Y-96821032D01*
X155504666Y-96802619D01*
X155517454Y-96785376D01*
X155531870Y-96769470D01*
X155547776Y-96755054D01*
X155565019Y-96742266D01*
X155583432Y-96731230D01*
X155602838Y-96722051D01*
X155623050Y-96714819D01*
X155643874Y-96709603D01*
X155665109Y-96706453D01*
X155686550Y-96705400D01*
X156124050Y-96705400D01*
X156145491Y-96706453D01*
X156145491Y-96706453D01*
G37*
D11*
X155905300Y-97180400D03*
D10*
G36*
X154570491Y-96706453D02*
X154591726Y-96709603D01*
X154612550Y-96714819D01*
X154632762Y-96722051D01*
X154652168Y-96731230D01*
X154670581Y-96742266D01*
X154687824Y-96755054D01*
X154703730Y-96769470D01*
X154718146Y-96785376D01*
X154730934Y-96802619D01*
X154741970Y-96821032D01*
X154751149Y-96840438D01*
X154758381Y-96860650D01*
X154763597Y-96881474D01*
X154766747Y-96902709D01*
X154767800Y-96924150D01*
X154767800Y-97436650D01*
X154766747Y-97458091D01*
X154763597Y-97479326D01*
X154758381Y-97500150D01*
X154751149Y-97520362D01*
X154741970Y-97539768D01*
X154730934Y-97558181D01*
X154718146Y-97575424D01*
X154703730Y-97591330D01*
X154687824Y-97605746D01*
X154670581Y-97618534D01*
X154652168Y-97629570D01*
X154632762Y-97638749D01*
X154612550Y-97645981D01*
X154591726Y-97651197D01*
X154570491Y-97654347D01*
X154549050Y-97655400D01*
X154111550Y-97655400D01*
X154090109Y-97654347D01*
X154068874Y-97651197D01*
X154048050Y-97645981D01*
X154027838Y-97638749D01*
X154008432Y-97629570D01*
X153990019Y-97618534D01*
X153972776Y-97605746D01*
X153956870Y-97591330D01*
X153942454Y-97575424D01*
X153929666Y-97558181D01*
X153918630Y-97539768D01*
X153909451Y-97520362D01*
X153902219Y-97500150D01*
X153897003Y-97479326D01*
X153893853Y-97458091D01*
X153892800Y-97436650D01*
X153892800Y-96924150D01*
X153893853Y-96902709D01*
X153897003Y-96881474D01*
X153902219Y-96860650D01*
X153909451Y-96840438D01*
X153918630Y-96821032D01*
X153929666Y-96802619D01*
X153942454Y-96785376D01*
X153956870Y-96769470D01*
X153972776Y-96755054D01*
X153990019Y-96742266D01*
X154008432Y-96731230D01*
X154027838Y-96722051D01*
X154048050Y-96714819D01*
X154068874Y-96709603D01*
X154090109Y-96706453D01*
X154111550Y-96705400D01*
X154549050Y-96705400D01*
X154570491Y-96706453D01*
X154570491Y-96706453D01*
G37*
D11*
X154330300Y-97180400D03*
G04 #@! TD*
D10*
G04 #@! TO.C,R6*
G36*
X156145491Y-98255853D02*
X156166726Y-98259003D01*
X156187550Y-98264219D01*
X156207762Y-98271451D01*
X156227168Y-98280630D01*
X156245581Y-98291666D01*
X156262824Y-98304454D01*
X156278730Y-98318870D01*
X156293146Y-98334776D01*
X156305934Y-98352019D01*
X156316970Y-98370432D01*
X156326149Y-98389838D01*
X156333381Y-98410050D01*
X156338597Y-98430874D01*
X156341747Y-98452109D01*
X156342800Y-98473550D01*
X156342800Y-98986050D01*
X156341747Y-99007491D01*
X156338597Y-99028726D01*
X156333381Y-99049550D01*
X156326149Y-99069762D01*
X156316970Y-99089168D01*
X156305934Y-99107581D01*
X156293146Y-99124824D01*
X156278730Y-99140730D01*
X156262824Y-99155146D01*
X156245581Y-99167934D01*
X156227168Y-99178970D01*
X156207762Y-99188149D01*
X156187550Y-99195381D01*
X156166726Y-99200597D01*
X156145491Y-99203747D01*
X156124050Y-99204800D01*
X155686550Y-99204800D01*
X155665109Y-99203747D01*
X155643874Y-99200597D01*
X155623050Y-99195381D01*
X155602838Y-99188149D01*
X155583432Y-99178970D01*
X155565019Y-99167934D01*
X155547776Y-99155146D01*
X155531870Y-99140730D01*
X155517454Y-99124824D01*
X155504666Y-99107581D01*
X155493630Y-99089168D01*
X155484451Y-99069762D01*
X155477219Y-99049550D01*
X155472003Y-99028726D01*
X155468853Y-99007491D01*
X155467800Y-98986050D01*
X155467800Y-98473550D01*
X155468853Y-98452109D01*
X155472003Y-98430874D01*
X155477219Y-98410050D01*
X155484451Y-98389838D01*
X155493630Y-98370432D01*
X155504666Y-98352019D01*
X155517454Y-98334776D01*
X155531870Y-98318870D01*
X155547776Y-98304454D01*
X155565019Y-98291666D01*
X155583432Y-98280630D01*
X155602838Y-98271451D01*
X155623050Y-98264219D01*
X155643874Y-98259003D01*
X155665109Y-98255853D01*
X155686550Y-98254800D01*
X156124050Y-98254800D01*
X156145491Y-98255853D01*
X156145491Y-98255853D01*
G37*
D11*
X155905300Y-98729800D03*
D10*
G36*
X154570491Y-98255853D02*
X154591726Y-98259003D01*
X154612550Y-98264219D01*
X154632762Y-98271451D01*
X154652168Y-98280630D01*
X154670581Y-98291666D01*
X154687824Y-98304454D01*
X154703730Y-98318870D01*
X154718146Y-98334776D01*
X154730934Y-98352019D01*
X154741970Y-98370432D01*
X154751149Y-98389838D01*
X154758381Y-98410050D01*
X154763597Y-98430874D01*
X154766747Y-98452109D01*
X154767800Y-98473550D01*
X154767800Y-98986050D01*
X154766747Y-99007491D01*
X154763597Y-99028726D01*
X154758381Y-99049550D01*
X154751149Y-99069762D01*
X154741970Y-99089168D01*
X154730934Y-99107581D01*
X154718146Y-99124824D01*
X154703730Y-99140730D01*
X154687824Y-99155146D01*
X154670581Y-99167934D01*
X154652168Y-99178970D01*
X154632762Y-99188149D01*
X154612550Y-99195381D01*
X154591726Y-99200597D01*
X154570491Y-99203747D01*
X154549050Y-99204800D01*
X154111550Y-99204800D01*
X154090109Y-99203747D01*
X154068874Y-99200597D01*
X154048050Y-99195381D01*
X154027838Y-99188149D01*
X154008432Y-99178970D01*
X153990019Y-99167934D01*
X153972776Y-99155146D01*
X153956870Y-99140730D01*
X153942454Y-99124824D01*
X153929666Y-99107581D01*
X153918630Y-99089168D01*
X153909451Y-99069762D01*
X153902219Y-99049550D01*
X153897003Y-99028726D01*
X153893853Y-99007491D01*
X153892800Y-98986050D01*
X153892800Y-98473550D01*
X153893853Y-98452109D01*
X153897003Y-98430874D01*
X153902219Y-98410050D01*
X153909451Y-98389838D01*
X153918630Y-98370432D01*
X153929666Y-98352019D01*
X153942454Y-98334776D01*
X153956870Y-98318870D01*
X153972776Y-98304454D01*
X153990019Y-98291666D01*
X154008432Y-98280630D01*
X154027838Y-98271451D01*
X154048050Y-98264219D01*
X154068874Y-98259003D01*
X154090109Y-98255853D01*
X154111550Y-98254800D01*
X154549050Y-98254800D01*
X154570491Y-98255853D01*
X154570491Y-98255853D01*
G37*
D11*
X154330300Y-98729800D03*
G04 #@! TD*
D12*
G04 #@! TO.C,U12*
X146079660Y-89701540D03*
X145579660Y-89701540D03*
X145079660Y-89701540D03*
X144579660Y-89701540D03*
X144079660Y-89701540D03*
X143579660Y-89701540D03*
X143079660Y-89701540D03*
X142579660Y-89701540D03*
X142079660Y-89701540D03*
X141579660Y-89701540D03*
X141079660Y-89701540D03*
X140579660Y-89701540D03*
D13*
X140064660Y-90216540D03*
X140064660Y-90716540D03*
X140064660Y-91216540D03*
X140064660Y-91716540D03*
X140064660Y-92216540D03*
X140064660Y-92716540D03*
X140064660Y-93216540D03*
X140064660Y-93716540D03*
X140064660Y-94216540D03*
X140064660Y-94716540D03*
X140064660Y-95216540D03*
X140064660Y-95716540D03*
D12*
X140579660Y-96231540D03*
X141079660Y-96231540D03*
X141579660Y-96231540D03*
X142079660Y-96231540D03*
X142579660Y-96231540D03*
X143079660Y-96231540D03*
X143579660Y-96231540D03*
X144079660Y-96231540D03*
X144579660Y-96231540D03*
X145079660Y-96231540D03*
X145579660Y-96231540D03*
X146079660Y-96231540D03*
D13*
X146594660Y-95716540D03*
X146594660Y-95216540D03*
X146594660Y-94716540D03*
X146594660Y-94216540D03*
X146594660Y-93716540D03*
X146594660Y-93216540D03*
X146594660Y-92716540D03*
X146594660Y-92216540D03*
X146594660Y-91716540D03*
X146594660Y-91216540D03*
X146594660Y-90716540D03*
X146594660Y-90216540D03*
D14*
X143329660Y-92966540D03*
G04 #@! TD*
D10*
G04 #@! TO.C,J2*
G36*
X155451669Y-116520588D02*
X155500205Y-116527787D01*
X155547802Y-116539710D01*
X155594002Y-116556240D01*
X155638358Y-116577219D01*
X155680445Y-116602445D01*
X155719857Y-116631675D01*
X155756213Y-116664627D01*
X155789165Y-116700983D01*
X155818395Y-116740395D01*
X155843621Y-116782482D01*
X155864600Y-116826838D01*
X155881130Y-116873038D01*
X155893053Y-116920635D01*
X155900252Y-116969171D01*
X155902660Y-117018180D01*
X155902660Y-118018180D01*
X155900252Y-118067189D01*
X155893053Y-118115725D01*
X155881130Y-118163322D01*
X155864600Y-118209522D01*
X155843621Y-118253878D01*
X155818395Y-118295965D01*
X155789165Y-118335377D01*
X155756213Y-118371733D01*
X155719857Y-118404685D01*
X155680445Y-118433915D01*
X155638358Y-118459141D01*
X155594002Y-118480120D01*
X155547802Y-118496650D01*
X155500205Y-118508573D01*
X155451669Y-118515772D01*
X155402660Y-118518180D01*
X153862660Y-118518180D01*
X153813651Y-118515772D01*
X153765115Y-118508573D01*
X153717518Y-118496650D01*
X153671318Y-118480120D01*
X153626962Y-118459141D01*
X153584875Y-118433915D01*
X153545463Y-118404685D01*
X153509107Y-118371733D01*
X153476155Y-118335377D01*
X153446925Y-118295965D01*
X153421699Y-118253878D01*
X153400720Y-118209522D01*
X153384190Y-118163322D01*
X153372267Y-118115725D01*
X153365068Y-118067189D01*
X153362660Y-118018180D01*
X153362660Y-117018180D01*
X153365068Y-116969171D01*
X153372267Y-116920635D01*
X153384190Y-116873038D01*
X153400720Y-116826838D01*
X153421699Y-116782482D01*
X153446925Y-116740395D01*
X153476155Y-116700983D01*
X153509107Y-116664627D01*
X153545463Y-116631675D01*
X153584875Y-116602445D01*
X153626962Y-116577219D01*
X153671318Y-116556240D01*
X153717518Y-116539710D01*
X153765115Y-116527787D01*
X153813651Y-116520588D01*
X153862660Y-116518180D01*
X155402660Y-116518180D01*
X155451669Y-116520588D01*
X155451669Y-116520588D01*
G37*
D15*
X154632660Y-117518180D03*
D10*
G36*
X155451669Y-119060588D02*
X155500205Y-119067787D01*
X155547802Y-119079710D01*
X155594002Y-119096240D01*
X155638358Y-119117219D01*
X155680445Y-119142445D01*
X155719857Y-119171675D01*
X155756213Y-119204627D01*
X155789165Y-119240983D01*
X155818395Y-119280395D01*
X155843621Y-119322482D01*
X155864600Y-119366838D01*
X155881130Y-119413038D01*
X155893053Y-119460635D01*
X155900252Y-119509171D01*
X155902660Y-119558180D01*
X155902660Y-120558180D01*
X155900252Y-120607189D01*
X155893053Y-120655725D01*
X155881130Y-120703322D01*
X155864600Y-120749522D01*
X155843621Y-120793878D01*
X155818395Y-120835965D01*
X155789165Y-120875377D01*
X155756213Y-120911733D01*
X155719857Y-120944685D01*
X155680445Y-120973915D01*
X155638358Y-120999141D01*
X155594002Y-121020120D01*
X155547802Y-121036650D01*
X155500205Y-121048573D01*
X155451669Y-121055772D01*
X155402660Y-121058180D01*
X153862660Y-121058180D01*
X153813651Y-121055772D01*
X153765115Y-121048573D01*
X153717518Y-121036650D01*
X153671318Y-121020120D01*
X153626962Y-120999141D01*
X153584875Y-120973915D01*
X153545463Y-120944685D01*
X153509107Y-120911733D01*
X153476155Y-120875377D01*
X153446925Y-120835965D01*
X153421699Y-120793878D01*
X153400720Y-120749522D01*
X153384190Y-120703322D01*
X153372267Y-120655725D01*
X153365068Y-120607189D01*
X153362660Y-120558180D01*
X153362660Y-119558180D01*
X153365068Y-119509171D01*
X153372267Y-119460635D01*
X153384190Y-119413038D01*
X153400720Y-119366838D01*
X153421699Y-119322482D01*
X153446925Y-119280395D01*
X153476155Y-119240983D01*
X153509107Y-119204627D01*
X153545463Y-119171675D01*
X153584875Y-119142445D01*
X153626962Y-119117219D01*
X153671318Y-119096240D01*
X153717518Y-119079710D01*
X153765115Y-119067787D01*
X153813651Y-119060588D01*
X153862660Y-119058180D01*
X155402660Y-119058180D01*
X155451669Y-119060588D01*
X155451669Y-119060588D01*
G37*
D15*
X154632660Y-120058180D03*
G04 #@! TD*
D10*
G04 #@! TO.C,C1*
G36*
X154588271Y-99792553D02*
X154609506Y-99795703D01*
X154630330Y-99800919D01*
X154650542Y-99808151D01*
X154669948Y-99817330D01*
X154688361Y-99828366D01*
X154705604Y-99841154D01*
X154721510Y-99855570D01*
X154735926Y-99871476D01*
X154748714Y-99888719D01*
X154759750Y-99907132D01*
X154768929Y-99926538D01*
X154776161Y-99946750D01*
X154781377Y-99967574D01*
X154784527Y-99988809D01*
X154785580Y-100010250D01*
X154785580Y-100522750D01*
X154784527Y-100544191D01*
X154781377Y-100565426D01*
X154776161Y-100586250D01*
X154768929Y-100606462D01*
X154759750Y-100625868D01*
X154748714Y-100644281D01*
X154735926Y-100661524D01*
X154721510Y-100677430D01*
X154705604Y-100691846D01*
X154688361Y-100704634D01*
X154669948Y-100715670D01*
X154650542Y-100724849D01*
X154630330Y-100732081D01*
X154609506Y-100737297D01*
X154588271Y-100740447D01*
X154566830Y-100741500D01*
X154129330Y-100741500D01*
X154107889Y-100740447D01*
X154086654Y-100737297D01*
X154065830Y-100732081D01*
X154045618Y-100724849D01*
X154026212Y-100715670D01*
X154007799Y-100704634D01*
X153990556Y-100691846D01*
X153974650Y-100677430D01*
X153960234Y-100661524D01*
X153947446Y-100644281D01*
X153936410Y-100625868D01*
X153927231Y-100606462D01*
X153919999Y-100586250D01*
X153914783Y-100565426D01*
X153911633Y-100544191D01*
X153910580Y-100522750D01*
X153910580Y-100010250D01*
X153911633Y-99988809D01*
X153914783Y-99967574D01*
X153919999Y-99946750D01*
X153927231Y-99926538D01*
X153936410Y-99907132D01*
X153947446Y-99888719D01*
X153960234Y-99871476D01*
X153974650Y-99855570D01*
X153990556Y-99841154D01*
X154007799Y-99828366D01*
X154026212Y-99817330D01*
X154045618Y-99808151D01*
X154065830Y-99800919D01*
X154086654Y-99795703D01*
X154107889Y-99792553D01*
X154129330Y-99791500D01*
X154566830Y-99791500D01*
X154588271Y-99792553D01*
X154588271Y-99792553D01*
G37*
D11*
X154348080Y-100266500D03*
D10*
G36*
X156163271Y-99792553D02*
X156184506Y-99795703D01*
X156205330Y-99800919D01*
X156225542Y-99808151D01*
X156244948Y-99817330D01*
X156263361Y-99828366D01*
X156280604Y-99841154D01*
X156296510Y-99855570D01*
X156310926Y-99871476D01*
X156323714Y-99888719D01*
X156334750Y-99907132D01*
X156343929Y-99926538D01*
X156351161Y-99946750D01*
X156356377Y-99967574D01*
X156359527Y-99988809D01*
X156360580Y-100010250D01*
X156360580Y-100522750D01*
X156359527Y-100544191D01*
X156356377Y-100565426D01*
X156351161Y-100586250D01*
X156343929Y-100606462D01*
X156334750Y-100625868D01*
X156323714Y-100644281D01*
X156310926Y-100661524D01*
X156296510Y-100677430D01*
X156280604Y-100691846D01*
X156263361Y-100704634D01*
X156244948Y-100715670D01*
X156225542Y-100724849D01*
X156205330Y-100732081D01*
X156184506Y-100737297D01*
X156163271Y-100740447D01*
X156141830Y-100741500D01*
X155704330Y-100741500D01*
X155682889Y-100740447D01*
X155661654Y-100737297D01*
X155640830Y-100732081D01*
X155620618Y-100724849D01*
X155601212Y-100715670D01*
X155582799Y-100704634D01*
X155565556Y-100691846D01*
X155549650Y-100677430D01*
X155535234Y-100661524D01*
X155522446Y-100644281D01*
X155511410Y-100625868D01*
X155502231Y-100606462D01*
X155494999Y-100586250D01*
X155489783Y-100565426D01*
X155486633Y-100544191D01*
X155485580Y-100522750D01*
X155485580Y-100010250D01*
X155486633Y-99988809D01*
X155489783Y-99967574D01*
X155494999Y-99946750D01*
X155502231Y-99926538D01*
X155511410Y-99907132D01*
X155522446Y-99888719D01*
X155535234Y-99871476D01*
X155549650Y-99855570D01*
X155565556Y-99841154D01*
X155582799Y-99828366D01*
X155601212Y-99817330D01*
X155620618Y-99808151D01*
X155640830Y-99800919D01*
X155661654Y-99795703D01*
X155682889Y-99792553D01*
X155704330Y-99791500D01*
X156141830Y-99791500D01*
X156163271Y-99792553D01*
X156163271Y-99792553D01*
G37*
D11*
X155923080Y-100266500D03*
G04 #@! TD*
D10*
G04 #@! TO.C,C13*
G36*
X132479611Y-89271373D02*
X132500846Y-89274523D01*
X132521670Y-89279739D01*
X132541882Y-89286971D01*
X132561288Y-89296150D01*
X132579701Y-89307186D01*
X132596944Y-89319974D01*
X132612850Y-89334390D01*
X132627266Y-89350296D01*
X132640054Y-89367539D01*
X132651090Y-89385952D01*
X132660269Y-89405358D01*
X132667501Y-89425570D01*
X132672717Y-89446394D01*
X132675867Y-89467629D01*
X132676920Y-89489070D01*
X132676920Y-89926570D01*
X132675867Y-89948011D01*
X132672717Y-89969246D01*
X132667501Y-89990070D01*
X132660269Y-90010282D01*
X132651090Y-90029688D01*
X132640054Y-90048101D01*
X132627266Y-90065344D01*
X132612850Y-90081250D01*
X132596944Y-90095666D01*
X132579701Y-90108454D01*
X132561288Y-90119490D01*
X132541882Y-90128669D01*
X132521670Y-90135901D01*
X132500846Y-90141117D01*
X132479611Y-90144267D01*
X132458170Y-90145320D01*
X131945670Y-90145320D01*
X131924229Y-90144267D01*
X131902994Y-90141117D01*
X131882170Y-90135901D01*
X131861958Y-90128669D01*
X131842552Y-90119490D01*
X131824139Y-90108454D01*
X131806896Y-90095666D01*
X131790990Y-90081250D01*
X131776574Y-90065344D01*
X131763786Y-90048101D01*
X131752750Y-90029688D01*
X131743571Y-90010282D01*
X131736339Y-89990070D01*
X131731123Y-89969246D01*
X131727973Y-89948011D01*
X131726920Y-89926570D01*
X131726920Y-89489070D01*
X131727973Y-89467629D01*
X131731123Y-89446394D01*
X131736339Y-89425570D01*
X131743571Y-89405358D01*
X131752750Y-89385952D01*
X131763786Y-89367539D01*
X131776574Y-89350296D01*
X131790990Y-89334390D01*
X131806896Y-89319974D01*
X131824139Y-89307186D01*
X131842552Y-89296150D01*
X131861958Y-89286971D01*
X131882170Y-89279739D01*
X131902994Y-89274523D01*
X131924229Y-89271373D01*
X131945670Y-89270320D01*
X132458170Y-89270320D01*
X132479611Y-89271373D01*
X132479611Y-89271373D01*
G37*
D11*
X132201920Y-89707820D03*
D10*
G36*
X132479611Y-87696373D02*
X132500846Y-87699523D01*
X132521670Y-87704739D01*
X132541882Y-87711971D01*
X132561288Y-87721150D01*
X132579701Y-87732186D01*
X132596944Y-87744974D01*
X132612850Y-87759390D01*
X132627266Y-87775296D01*
X132640054Y-87792539D01*
X132651090Y-87810952D01*
X132660269Y-87830358D01*
X132667501Y-87850570D01*
X132672717Y-87871394D01*
X132675867Y-87892629D01*
X132676920Y-87914070D01*
X132676920Y-88351570D01*
X132675867Y-88373011D01*
X132672717Y-88394246D01*
X132667501Y-88415070D01*
X132660269Y-88435282D01*
X132651090Y-88454688D01*
X132640054Y-88473101D01*
X132627266Y-88490344D01*
X132612850Y-88506250D01*
X132596944Y-88520666D01*
X132579701Y-88533454D01*
X132561288Y-88544490D01*
X132541882Y-88553669D01*
X132521670Y-88560901D01*
X132500846Y-88566117D01*
X132479611Y-88569267D01*
X132458170Y-88570320D01*
X131945670Y-88570320D01*
X131924229Y-88569267D01*
X131902994Y-88566117D01*
X131882170Y-88560901D01*
X131861958Y-88553669D01*
X131842552Y-88544490D01*
X131824139Y-88533454D01*
X131806896Y-88520666D01*
X131790990Y-88506250D01*
X131776574Y-88490344D01*
X131763786Y-88473101D01*
X131752750Y-88454688D01*
X131743571Y-88435282D01*
X131736339Y-88415070D01*
X131731123Y-88394246D01*
X131727973Y-88373011D01*
X131726920Y-88351570D01*
X131726920Y-87914070D01*
X131727973Y-87892629D01*
X131731123Y-87871394D01*
X131736339Y-87850570D01*
X131743571Y-87830358D01*
X131752750Y-87810952D01*
X131763786Y-87792539D01*
X131776574Y-87775296D01*
X131790990Y-87759390D01*
X131806896Y-87744974D01*
X131824139Y-87732186D01*
X131842552Y-87721150D01*
X131861958Y-87711971D01*
X131882170Y-87704739D01*
X131902994Y-87699523D01*
X131924229Y-87696373D01*
X131945670Y-87695320D01*
X132458170Y-87695320D01*
X132479611Y-87696373D01*
X132479611Y-87696373D01*
G37*
D11*
X132201920Y-88132820D03*
G04 #@! TD*
D10*
G04 #@! TO.C,C12*
G36*
X132452371Y-90595213D02*
X132473606Y-90598363D01*
X132494430Y-90603579D01*
X132514642Y-90610811D01*
X132534048Y-90619990D01*
X132552461Y-90631026D01*
X132569704Y-90643814D01*
X132585610Y-90658230D01*
X132600026Y-90674136D01*
X132612814Y-90691379D01*
X132623850Y-90709792D01*
X132633029Y-90729198D01*
X132640261Y-90749410D01*
X132645477Y-90770234D01*
X132648627Y-90791469D01*
X132649680Y-90812910D01*
X132649680Y-91325410D01*
X132648627Y-91346851D01*
X132645477Y-91368086D01*
X132640261Y-91388910D01*
X132633029Y-91409122D01*
X132623850Y-91428528D01*
X132612814Y-91446941D01*
X132600026Y-91464184D01*
X132585610Y-91480090D01*
X132569704Y-91494506D01*
X132552461Y-91507294D01*
X132534048Y-91518330D01*
X132514642Y-91527509D01*
X132494430Y-91534741D01*
X132473606Y-91539957D01*
X132452371Y-91543107D01*
X132430930Y-91544160D01*
X131993430Y-91544160D01*
X131971989Y-91543107D01*
X131950754Y-91539957D01*
X131929930Y-91534741D01*
X131909718Y-91527509D01*
X131890312Y-91518330D01*
X131871899Y-91507294D01*
X131854656Y-91494506D01*
X131838750Y-91480090D01*
X131824334Y-91464184D01*
X131811546Y-91446941D01*
X131800510Y-91428528D01*
X131791331Y-91409122D01*
X131784099Y-91388910D01*
X131778883Y-91368086D01*
X131775733Y-91346851D01*
X131774680Y-91325410D01*
X131774680Y-90812910D01*
X131775733Y-90791469D01*
X131778883Y-90770234D01*
X131784099Y-90749410D01*
X131791331Y-90729198D01*
X131800510Y-90709792D01*
X131811546Y-90691379D01*
X131824334Y-90674136D01*
X131838750Y-90658230D01*
X131854656Y-90643814D01*
X131871899Y-90631026D01*
X131890312Y-90619990D01*
X131909718Y-90610811D01*
X131929930Y-90603579D01*
X131950754Y-90598363D01*
X131971989Y-90595213D01*
X131993430Y-90594160D01*
X132430930Y-90594160D01*
X132452371Y-90595213D01*
X132452371Y-90595213D01*
G37*
D11*
X132212180Y-91069160D03*
D10*
G36*
X130877371Y-90595213D02*
X130898606Y-90598363D01*
X130919430Y-90603579D01*
X130939642Y-90610811D01*
X130959048Y-90619990D01*
X130977461Y-90631026D01*
X130994704Y-90643814D01*
X131010610Y-90658230D01*
X131025026Y-90674136D01*
X131037814Y-90691379D01*
X131048850Y-90709792D01*
X131058029Y-90729198D01*
X131065261Y-90749410D01*
X131070477Y-90770234D01*
X131073627Y-90791469D01*
X131074680Y-90812910D01*
X131074680Y-91325410D01*
X131073627Y-91346851D01*
X131070477Y-91368086D01*
X131065261Y-91388910D01*
X131058029Y-91409122D01*
X131048850Y-91428528D01*
X131037814Y-91446941D01*
X131025026Y-91464184D01*
X131010610Y-91480090D01*
X130994704Y-91494506D01*
X130977461Y-91507294D01*
X130959048Y-91518330D01*
X130939642Y-91527509D01*
X130919430Y-91534741D01*
X130898606Y-91539957D01*
X130877371Y-91543107D01*
X130855930Y-91544160D01*
X130418430Y-91544160D01*
X130396989Y-91543107D01*
X130375754Y-91539957D01*
X130354930Y-91534741D01*
X130334718Y-91527509D01*
X130315312Y-91518330D01*
X130296899Y-91507294D01*
X130279656Y-91494506D01*
X130263750Y-91480090D01*
X130249334Y-91464184D01*
X130236546Y-91446941D01*
X130225510Y-91428528D01*
X130216331Y-91409122D01*
X130209099Y-91388910D01*
X130203883Y-91368086D01*
X130200733Y-91346851D01*
X130199680Y-91325410D01*
X130199680Y-90812910D01*
X130200733Y-90791469D01*
X130203883Y-90770234D01*
X130209099Y-90749410D01*
X130216331Y-90729198D01*
X130225510Y-90709792D01*
X130236546Y-90691379D01*
X130249334Y-90674136D01*
X130263750Y-90658230D01*
X130279656Y-90643814D01*
X130296899Y-90631026D01*
X130315312Y-90619990D01*
X130334718Y-90610811D01*
X130354930Y-90603579D01*
X130375754Y-90598363D01*
X130396989Y-90595213D01*
X130418430Y-90594160D01*
X130855930Y-90594160D01*
X130877371Y-90595213D01*
X130877371Y-90595213D01*
G37*
D11*
X130637180Y-91069160D03*
G04 #@! TD*
D10*
G04 #@! TO.C,C11*
G36*
X149178071Y-95789513D02*
X149199306Y-95792663D01*
X149220130Y-95797879D01*
X149240342Y-95805111D01*
X149259748Y-95814290D01*
X149278161Y-95825326D01*
X149295404Y-95838114D01*
X149311310Y-95852530D01*
X149325726Y-95868436D01*
X149338514Y-95885679D01*
X149349550Y-95904092D01*
X149358729Y-95923498D01*
X149365961Y-95943710D01*
X149371177Y-95964534D01*
X149374327Y-95985769D01*
X149375380Y-96007210D01*
X149375380Y-96519710D01*
X149374327Y-96541151D01*
X149371177Y-96562386D01*
X149365961Y-96583210D01*
X149358729Y-96603422D01*
X149349550Y-96622828D01*
X149338514Y-96641241D01*
X149325726Y-96658484D01*
X149311310Y-96674390D01*
X149295404Y-96688806D01*
X149278161Y-96701594D01*
X149259748Y-96712630D01*
X149240342Y-96721809D01*
X149220130Y-96729041D01*
X149199306Y-96734257D01*
X149178071Y-96737407D01*
X149156630Y-96738460D01*
X148719130Y-96738460D01*
X148697689Y-96737407D01*
X148676454Y-96734257D01*
X148655630Y-96729041D01*
X148635418Y-96721809D01*
X148616012Y-96712630D01*
X148597599Y-96701594D01*
X148580356Y-96688806D01*
X148564450Y-96674390D01*
X148550034Y-96658484D01*
X148537246Y-96641241D01*
X148526210Y-96622828D01*
X148517031Y-96603422D01*
X148509799Y-96583210D01*
X148504583Y-96562386D01*
X148501433Y-96541151D01*
X148500380Y-96519710D01*
X148500380Y-96007210D01*
X148501433Y-95985769D01*
X148504583Y-95964534D01*
X148509799Y-95943710D01*
X148517031Y-95923498D01*
X148526210Y-95904092D01*
X148537246Y-95885679D01*
X148550034Y-95868436D01*
X148564450Y-95852530D01*
X148580356Y-95838114D01*
X148597599Y-95825326D01*
X148616012Y-95814290D01*
X148635418Y-95805111D01*
X148655630Y-95797879D01*
X148676454Y-95792663D01*
X148697689Y-95789513D01*
X148719130Y-95788460D01*
X149156630Y-95788460D01*
X149178071Y-95789513D01*
X149178071Y-95789513D01*
G37*
D11*
X148937880Y-96263460D03*
D10*
G36*
X150753071Y-95789513D02*
X150774306Y-95792663D01*
X150795130Y-95797879D01*
X150815342Y-95805111D01*
X150834748Y-95814290D01*
X150853161Y-95825326D01*
X150870404Y-95838114D01*
X150886310Y-95852530D01*
X150900726Y-95868436D01*
X150913514Y-95885679D01*
X150924550Y-95904092D01*
X150933729Y-95923498D01*
X150940961Y-95943710D01*
X150946177Y-95964534D01*
X150949327Y-95985769D01*
X150950380Y-96007210D01*
X150950380Y-96519710D01*
X150949327Y-96541151D01*
X150946177Y-96562386D01*
X150940961Y-96583210D01*
X150933729Y-96603422D01*
X150924550Y-96622828D01*
X150913514Y-96641241D01*
X150900726Y-96658484D01*
X150886310Y-96674390D01*
X150870404Y-96688806D01*
X150853161Y-96701594D01*
X150834748Y-96712630D01*
X150815342Y-96721809D01*
X150795130Y-96729041D01*
X150774306Y-96734257D01*
X150753071Y-96737407D01*
X150731630Y-96738460D01*
X150294130Y-96738460D01*
X150272689Y-96737407D01*
X150251454Y-96734257D01*
X150230630Y-96729041D01*
X150210418Y-96721809D01*
X150191012Y-96712630D01*
X150172599Y-96701594D01*
X150155356Y-96688806D01*
X150139450Y-96674390D01*
X150125034Y-96658484D01*
X150112246Y-96641241D01*
X150101210Y-96622828D01*
X150092031Y-96603422D01*
X150084799Y-96583210D01*
X150079583Y-96562386D01*
X150076433Y-96541151D01*
X150075380Y-96519710D01*
X150075380Y-96007210D01*
X150076433Y-95985769D01*
X150079583Y-95964534D01*
X150084799Y-95943710D01*
X150092031Y-95923498D01*
X150101210Y-95904092D01*
X150112246Y-95885679D01*
X150125034Y-95868436D01*
X150139450Y-95852530D01*
X150155356Y-95838114D01*
X150172599Y-95825326D01*
X150191012Y-95814290D01*
X150210418Y-95805111D01*
X150230630Y-95797879D01*
X150251454Y-95792663D01*
X150272689Y-95789513D01*
X150294130Y-95788460D01*
X150731630Y-95788460D01*
X150753071Y-95789513D01*
X150753071Y-95789513D01*
G37*
D11*
X150512880Y-96263460D03*
G04 #@! TD*
D10*
G04 #@! TO.C,C9*
G36*
X149185691Y-87029053D02*
X149206926Y-87032203D01*
X149227750Y-87037419D01*
X149247962Y-87044651D01*
X149267368Y-87053830D01*
X149285781Y-87064866D01*
X149303024Y-87077654D01*
X149318930Y-87092070D01*
X149333346Y-87107976D01*
X149346134Y-87125219D01*
X149357170Y-87143632D01*
X149366349Y-87163038D01*
X149373581Y-87183250D01*
X149378797Y-87204074D01*
X149381947Y-87225309D01*
X149383000Y-87246750D01*
X149383000Y-87759250D01*
X149381947Y-87780691D01*
X149378797Y-87801926D01*
X149373581Y-87822750D01*
X149366349Y-87842962D01*
X149357170Y-87862368D01*
X149346134Y-87880781D01*
X149333346Y-87898024D01*
X149318930Y-87913930D01*
X149303024Y-87928346D01*
X149285781Y-87941134D01*
X149267368Y-87952170D01*
X149247962Y-87961349D01*
X149227750Y-87968581D01*
X149206926Y-87973797D01*
X149185691Y-87976947D01*
X149164250Y-87978000D01*
X148726750Y-87978000D01*
X148705309Y-87976947D01*
X148684074Y-87973797D01*
X148663250Y-87968581D01*
X148643038Y-87961349D01*
X148623632Y-87952170D01*
X148605219Y-87941134D01*
X148587976Y-87928346D01*
X148572070Y-87913930D01*
X148557654Y-87898024D01*
X148544866Y-87880781D01*
X148533830Y-87862368D01*
X148524651Y-87842962D01*
X148517419Y-87822750D01*
X148512203Y-87801926D01*
X148509053Y-87780691D01*
X148508000Y-87759250D01*
X148508000Y-87246750D01*
X148509053Y-87225309D01*
X148512203Y-87204074D01*
X148517419Y-87183250D01*
X148524651Y-87163038D01*
X148533830Y-87143632D01*
X148544866Y-87125219D01*
X148557654Y-87107976D01*
X148572070Y-87092070D01*
X148587976Y-87077654D01*
X148605219Y-87064866D01*
X148623632Y-87053830D01*
X148643038Y-87044651D01*
X148663250Y-87037419D01*
X148684074Y-87032203D01*
X148705309Y-87029053D01*
X148726750Y-87028000D01*
X149164250Y-87028000D01*
X149185691Y-87029053D01*
X149185691Y-87029053D01*
G37*
D11*
X148945500Y-87503000D03*
D10*
G36*
X150760691Y-87029053D02*
X150781926Y-87032203D01*
X150802750Y-87037419D01*
X150822962Y-87044651D01*
X150842368Y-87053830D01*
X150860781Y-87064866D01*
X150878024Y-87077654D01*
X150893930Y-87092070D01*
X150908346Y-87107976D01*
X150921134Y-87125219D01*
X150932170Y-87143632D01*
X150941349Y-87163038D01*
X150948581Y-87183250D01*
X150953797Y-87204074D01*
X150956947Y-87225309D01*
X150958000Y-87246750D01*
X150958000Y-87759250D01*
X150956947Y-87780691D01*
X150953797Y-87801926D01*
X150948581Y-87822750D01*
X150941349Y-87842962D01*
X150932170Y-87862368D01*
X150921134Y-87880781D01*
X150908346Y-87898024D01*
X150893930Y-87913930D01*
X150878024Y-87928346D01*
X150860781Y-87941134D01*
X150842368Y-87952170D01*
X150822962Y-87961349D01*
X150802750Y-87968581D01*
X150781926Y-87973797D01*
X150760691Y-87976947D01*
X150739250Y-87978000D01*
X150301750Y-87978000D01*
X150280309Y-87976947D01*
X150259074Y-87973797D01*
X150238250Y-87968581D01*
X150218038Y-87961349D01*
X150198632Y-87952170D01*
X150180219Y-87941134D01*
X150162976Y-87928346D01*
X150147070Y-87913930D01*
X150132654Y-87898024D01*
X150119866Y-87880781D01*
X150108830Y-87862368D01*
X150099651Y-87842962D01*
X150092419Y-87822750D01*
X150087203Y-87801926D01*
X150084053Y-87780691D01*
X150083000Y-87759250D01*
X150083000Y-87246750D01*
X150084053Y-87225309D01*
X150087203Y-87204074D01*
X150092419Y-87183250D01*
X150099651Y-87163038D01*
X150108830Y-87143632D01*
X150119866Y-87125219D01*
X150132654Y-87107976D01*
X150147070Y-87092070D01*
X150162976Y-87077654D01*
X150180219Y-87064866D01*
X150198632Y-87053830D01*
X150218038Y-87044651D01*
X150238250Y-87037419D01*
X150259074Y-87032203D01*
X150280309Y-87029053D01*
X150301750Y-87028000D01*
X150739250Y-87028000D01*
X150760691Y-87029053D01*
X150760691Y-87029053D01*
G37*
D11*
X150520500Y-87503000D03*
G04 #@! TD*
D10*
G04 #@! TO.C,C7*
G36*
X137183691Y-117416913D02*
X137204926Y-117420063D01*
X137225750Y-117425279D01*
X137245962Y-117432511D01*
X137265368Y-117441690D01*
X137283781Y-117452726D01*
X137301024Y-117465514D01*
X137316930Y-117479930D01*
X137331346Y-117495836D01*
X137344134Y-117513079D01*
X137355170Y-117531492D01*
X137364349Y-117550898D01*
X137371581Y-117571110D01*
X137376797Y-117591934D01*
X137379947Y-117613169D01*
X137381000Y-117634610D01*
X137381000Y-118072110D01*
X137379947Y-118093551D01*
X137376797Y-118114786D01*
X137371581Y-118135610D01*
X137364349Y-118155822D01*
X137355170Y-118175228D01*
X137344134Y-118193641D01*
X137331346Y-118210884D01*
X137316930Y-118226790D01*
X137301024Y-118241206D01*
X137283781Y-118253994D01*
X137265368Y-118265030D01*
X137245962Y-118274209D01*
X137225750Y-118281441D01*
X137204926Y-118286657D01*
X137183691Y-118289807D01*
X137162250Y-118290860D01*
X136649750Y-118290860D01*
X136628309Y-118289807D01*
X136607074Y-118286657D01*
X136586250Y-118281441D01*
X136566038Y-118274209D01*
X136546632Y-118265030D01*
X136528219Y-118253994D01*
X136510976Y-118241206D01*
X136495070Y-118226790D01*
X136480654Y-118210884D01*
X136467866Y-118193641D01*
X136456830Y-118175228D01*
X136447651Y-118155822D01*
X136440419Y-118135610D01*
X136435203Y-118114786D01*
X136432053Y-118093551D01*
X136431000Y-118072110D01*
X136431000Y-117634610D01*
X136432053Y-117613169D01*
X136435203Y-117591934D01*
X136440419Y-117571110D01*
X136447651Y-117550898D01*
X136456830Y-117531492D01*
X136467866Y-117513079D01*
X136480654Y-117495836D01*
X136495070Y-117479930D01*
X136510976Y-117465514D01*
X136528219Y-117452726D01*
X136546632Y-117441690D01*
X136566038Y-117432511D01*
X136586250Y-117425279D01*
X136607074Y-117420063D01*
X136628309Y-117416913D01*
X136649750Y-117415860D01*
X137162250Y-117415860D01*
X137183691Y-117416913D01*
X137183691Y-117416913D01*
G37*
D11*
X136906000Y-117853360D03*
D10*
G36*
X137183691Y-118991913D02*
X137204926Y-118995063D01*
X137225750Y-119000279D01*
X137245962Y-119007511D01*
X137265368Y-119016690D01*
X137283781Y-119027726D01*
X137301024Y-119040514D01*
X137316930Y-119054930D01*
X137331346Y-119070836D01*
X137344134Y-119088079D01*
X137355170Y-119106492D01*
X137364349Y-119125898D01*
X137371581Y-119146110D01*
X137376797Y-119166934D01*
X137379947Y-119188169D01*
X137381000Y-119209610D01*
X137381000Y-119647110D01*
X137379947Y-119668551D01*
X137376797Y-119689786D01*
X137371581Y-119710610D01*
X137364349Y-119730822D01*
X137355170Y-119750228D01*
X137344134Y-119768641D01*
X137331346Y-119785884D01*
X137316930Y-119801790D01*
X137301024Y-119816206D01*
X137283781Y-119828994D01*
X137265368Y-119840030D01*
X137245962Y-119849209D01*
X137225750Y-119856441D01*
X137204926Y-119861657D01*
X137183691Y-119864807D01*
X137162250Y-119865860D01*
X136649750Y-119865860D01*
X136628309Y-119864807D01*
X136607074Y-119861657D01*
X136586250Y-119856441D01*
X136566038Y-119849209D01*
X136546632Y-119840030D01*
X136528219Y-119828994D01*
X136510976Y-119816206D01*
X136495070Y-119801790D01*
X136480654Y-119785884D01*
X136467866Y-119768641D01*
X136456830Y-119750228D01*
X136447651Y-119730822D01*
X136440419Y-119710610D01*
X136435203Y-119689786D01*
X136432053Y-119668551D01*
X136431000Y-119647110D01*
X136431000Y-119209610D01*
X136432053Y-119188169D01*
X136435203Y-119166934D01*
X136440419Y-119146110D01*
X136447651Y-119125898D01*
X136456830Y-119106492D01*
X136467866Y-119088079D01*
X136480654Y-119070836D01*
X136495070Y-119054930D01*
X136510976Y-119040514D01*
X136528219Y-119027726D01*
X136546632Y-119016690D01*
X136566038Y-119007511D01*
X136586250Y-119000279D01*
X136607074Y-118995063D01*
X136628309Y-118991913D01*
X136649750Y-118990860D01*
X137162250Y-118990860D01*
X137183691Y-118991913D01*
X137183691Y-118991913D01*
G37*
D11*
X136906000Y-119428360D03*
G04 #@! TD*
D10*
G04 #@! TO.C,C6*
G36*
X132779831Y-99088973D02*
X132801066Y-99092123D01*
X132821890Y-99097339D01*
X132842102Y-99104571D01*
X132861508Y-99113750D01*
X132879921Y-99124786D01*
X132897164Y-99137574D01*
X132913070Y-99151990D01*
X132927486Y-99167896D01*
X132940274Y-99185139D01*
X132951310Y-99203552D01*
X132960489Y-99222958D01*
X132967721Y-99243170D01*
X132972937Y-99263994D01*
X132976087Y-99285229D01*
X132977140Y-99306670D01*
X132977140Y-99819170D01*
X132976087Y-99840611D01*
X132972937Y-99861846D01*
X132967721Y-99882670D01*
X132960489Y-99902882D01*
X132951310Y-99922288D01*
X132940274Y-99940701D01*
X132927486Y-99957944D01*
X132913070Y-99973850D01*
X132897164Y-99988266D01*
X132879921Y-100001054D01*
X132861508Y-100012090D01*
X132842102Y-100021269D01*
X132821890Y-100028501D01*
X132801066Y-100033717D01*
X132779831Y-100036867D01*
X132758390Y-100037920D01*
X132320890Y-100037920D01*
X132299449Y-100036867D01*
X132278214Y-100033717D01*
X132257390Y-100028501D01*
X132237178Y-100021269D01*
X132217772Y-100012090D01*
X132199359Y-100001054D01*
X132182116Y-99988266D01*
X132166210Y-99973850D01*
X132151794Y-99957944D01*
X132139006Y-99940701D01*
X132127970Y-99922288D01*
X132118791Y-99902882D01*
X132111559Y-99882670D01*
X132106343Y-99861846D01*
X132103193Y-99840611D01*
X132102140Y-99819170D01*
X132102140Y-99306670D01*
X132103193Y-99285229D01*
X132106343Y-99263994D01*
X132111559Y-99243170D01*
X132118791Y-99222958D01*
X132127970Y-99203552D01*
X132139006Y-99185139D01*
X132151794Y-99167896D01*
X132166210Y-99151990D01*
X132182116Y-99137574D01*
X132199359Y-99124786D01*
X132217772Y-99113750D01*
X132237178Y-99104571D01*
X132257390Y-99097339D01*
X132278214Y-99092123D01*
X132299449Y-99088973D01*
X132320890Y-99087920D01*
X132758390Y-99087920D01*
X132779831Y-99088973D01*
X132779831Y-99088973D01*
G37*
D11*
X132539640Y-99562920D03*
D10*
G36*
X134354831Y-99088973D02*
X134376066Y-99092123D01*
X134396890Y-99097339D01*
X134417102Y-99104571D01*
X134436508Y-99113750D01*
X134454921Y-99124786D01*
X134472164Y-99137574D01*
X134488070Y-99151990D01*
X134502486Y-99167896D01*
X134515274Y-99185139D01*
X134526310Y-99203552D01*
X134535489Y-99222958D01*
X134542721Y-99243170D01*
X134547937Y-99263994D01*
X134551087Y-99285229D01*
X134552140Y-99306670D01*
X134552140Y-99819170D01*
X134551087Y-99840611D01*
X134547937Y-99861846D01*
X134542721Y-99882670D01*
X134535489Y-99902882D01*
X134526310Y-99922288D01*
X134515274Y-99940701D01*
X134502486Y-99957944D01*
X134488070Y-99973850D01*
X134472164Y-99988266D01*
X134454921Y-100001054D01*
X134436508Y-100012090D01*
X134417102Y-100021269D01*
X134396890Y-100028501D01*
X134376066Y-100033717D01*
X134354831Y-100036867D01*
X134333390Y-100037920D01*
X133895890Y-100037920D01*
X133874449Y-100036867D01*
X133853214Y-100033717D01*
X133832390Y-100028501D01*
X133812178Y-100021269D01*
X133792772Y-100012090D01*
X133774359Y-100001054D01*
X133757116Y-99988266D01*
X133741210Y-99973850D01*
X133726794Y-99957944D01*
X133714006Y-99940701D01*
X133702970Y-99922288D01*
X133693791Y-99902882D01*
X133686559Y-99882670D01*
X133681343Y-99861846D01*
X133678193Y-99840611D01*
X133677140Y-99819170D01*
X133677140Y-99306670D01*
X133678193Y-99285229D01*
X133681343Y-99263994D01*
X133686559Y-99243170D01*
X133693791Y-99222958D01*
X133702970Y-99203552D01*
X133714006Y-99185139D01*
X133726794Y-99167896D01*
X133741210Y-99151990D01*
X133757116Y-99137574D01*
X133774359Y-99124786D01*
X133792772Y-99113750D01*
X133812178Y-99104571D01*
X133832390Y-99097339D01*
X133853214Y-99092123D01*
X133874449Y-99088973D01*
X133895890Y-99087920D01*
X134333390Y-99087920D01*
X134354831Y-99088973D01*
X134354831Y-99088973D01*
G37*
D11*
X134114640Y-99562920D03*
G04 #@! TD*
D10*
G04 #@! TO.C,C4*
G36*
X151835111Y-105959673D02*
X151856346Y-105962823D01*
X151877170Y-105968039D01*
X151897382Y-105975271D01*
X151916788Y-105984450D01*
X151935201Y-105995486D01*
X151952444Y-106008274D01*
X151968350Y-106022690D01*
X151982766Y-106038596D01*
X151995554Y-106055839D01*
X152006590Y-106074252D01*
X152015769Y-106093658D01*
X152023001Y-106113870D01*
X152028217Y-106134694D01*
X152031367Y-106155929D01*
X152032420Y-106177370D01*
X152032420Y-106689870D01*
X152031367Y-106711311D01*
X152028217Y-106732546D01*
X152023001Y-106753370D01*
X152015769Y-106773582D01*
X152006590Y-106792988D01*
X151995554Y-106811401D01*
X151982766Y-106828644D01*
X151968350Y-106844550D01*
X151952444Y-106858966D01*
X151935201Y-106871754D01*
X151916788Y-106882790D01*
X151897382Y-106891969D01*
X151877170Y-106899201D01*
X151856346Y-106904417D01*
X151835111Y-106907567D01*
X151813670Y-106908620D01*
X151376170Y-106908620D01*
X151354729Y-106907567D01*
X151333494Y-106904417D01*
X151312670Y-106899201D01*
X151292458Y-106891969D01*
X151273052Y-106882790D01*
X151254639Y-106871754D01*
X151237396Y-106858966D01*
X151221490Y-106844550D01*
X151207074Y-106828644D01*
X151194286Y-106811401D01*
X151183250Y-106792988D01*
X151174071Y-106773582D01*
X151166839Y-106753370D01*
X151161623Y-106732546D01*
X151158473Y-106711311D01*
X151157420Y-106689870D01*
X151157420Y-106177370D01*
X151158473Y-106155929D01*
X151161623Y-106134694D01*
X151166839Y-106113870D01*
X151174071Y-106093658D01*
X151183250Y-106074252D01*
X151194286Y-106055839D01*
X151207074Y-106038596D01*
X151221490Y-106022690D01*
X151237396Y-106008274D01*
X151254639Y-105995486D01*
X151273052Y-105984450D01*
X151292458Y-105975271D01*
X151312670Y-105968039D01*
X151333494Y-105962823D01*
X151354729Y-105959673D01*
X151376170Y-105958620D01*
X151813670Y-105958620D01*
X151835111Y-105959673D01*
X151835111Y-105959673D01*
G37*
D11*
X151594920Y-106433620D03*
D10*
G36*
X150260111Y-105959673D02*
X150281346Y-105962823D01*
X150302170Y-105968039D01*
X150322382Y-105975271D01*
X150341788Y-105984450D01*
X150360201Y-105995486D01*
X150377444Y-106008274D01*
X150393350Y-106022690D01*
X150407766Y-106038596D01*
X150420554Y-106055839D01*
X150431590Y-106074252D01*
X150440769Y-106093658D01*
X150448001Y-106113870D01*
X150453217Y-106134694D01*
X150456367Y-106155929D01*
X150457420Y-106177370D01*
X150457420Y-106689870D01*
X150456367Y-106711311D01*
X150453217Y-106732546D01*
X150448001Y-106753370D01*
X150440769Y-106773582D01*
X150431590Y-106792988D01*
X150420554Y-106811401D01*
X150407766Y-106828644D01*
X150393350Y-106844550D01*
X150377444Y-106858966D01*
X150360201Y-106871754D01*
X150341788Y-106882790D01*
X150322382Y-106891969D01*
X150302170Y-106899201D01*
X150281346Y-106904417D01*
X150260111Y-106907567D01*
X150238670Y-106908620D01*
X149801170Y-106908620D01*
X149779729Y-106907567D01*
X149758494Y-106904417D01*
X149737670Y-106899201D01*
X149717458Y-106891969D01*
X149698052Y-106882790D01*
X149679639Y-106871754D01*
X149662396Y-106858966D01*
X149646490Y-106844550D01*
X149632074Y-106828644D01*
X149619286Y-106811401D01*
X149608250Y-106792988D01*
X149599071Y-106773582D01*
X149591839Y-106753370D01*
X149586623Y-106732546D01*
X149583473Y-106711311D01*
X149582420Y-106689870D01*
X149582420Y-106177370D01*
X149583473Y-106155929D01*
X149586623Y-106134694D01*
X149591839Y-106113870D01*
X149599071Y-106093658D01*
X149608250Y-106074252D01*
X149619286Y-106055839D01*
X149632074Y-106038596D01*
X149646490Y-106022690D01*
X149662396Y-106008274D01*
X149679639Y-105995486D01*
X149698052Y-105984450D01*
X149717458Y-105975271D01*
X149737670Y-105968039D01*
X149758494Y-105962823D01*
X149779729Y-105959673D01*
X149801170Y-105958620D01*
X150238670Y-105958620D01*
X150260111Y-105959673D01*
X150260111Y-105959673D01*
G37*
D11*
X150019920Y-106433620D03*
G04 #@! TD*
D10*
G04 #@! TO.C,C3*
G36*
X150247311Y-104499173D02*
X150268546Y-104502323D01*
X150289370Y-104507539D01*
X150309582Y-104514771D01*
X150328988Y-104523950D01*
X150347401Y-104534986D01*
X150364644Y-104547774D01*
X150380550Y-104562190D01*
X150394966Y-104578096D01*
X150407754Y-104595339D01*
X150418790Y-104613752D01*
X150427969Y-104633158D01*
X150435201Y-104653370D01*
X150440417Y-104674194D01*
X150443567Y-104695429D01*
X150444620Y-104716870D01*
X150444620Y-105229370D01*
X150443567Y-105250811D01*
X150440417Y-105272046D01*
X150435201Y-105292870D01*
X150427969Y-105313082D01*
X150418790Y-105332488D01*
X150407754Y-105350901D01*
X150394966Y-105368144D01*
X150380550Y-105384050D01*
X150364644Y-105398466D01*
X150347401Y-105411254D01*
X150328988Y-105422290D01*
X150309582Y-105431469D01*
X150289370Y-105438701D01*
X150268546Y-105443917D01*
X150247311Y-105447067D01*
X150225870Y-105448120D01*
X149788370Y-105448120D01*
X149766929Y-105447067D01*
X149745694Y-105443917D01*
X149724870Y-105438701D01*
X149704658Y-105431469D01*
X149685252Y-105422290D01*
X149666839Y-105411254D01*
X149649596Y-105398466D01*
X149633690Y-105384050D01*
X149619274Y-105368144D01*
X149606486Y-105350901D01*
X149595450Y-105332488D01*
X149586271Y-105313082D01*
X149579039Y-105292870D01*
X149573823Y-105272046D01*
X149570673Y-105250811D01*
X149569620Y-105229370D01*
X149569620Y-104716870D01*
X149570673Y-104695429D01*
X149573823Y-104674194D01*
X149579039Y-104653370D01*
X149586271Y-104633158D01*
X149595450Y-104613752D01*
X149606486Y-104595339D01*
X149619274Y-104578096D01*
X149633690Y-104562190D01*
X149649596Y-104547774D01*
X149666839Y-104534986D01*
X149685252Y-104523950D01*
X149704658Y-104514771D01*
X149724870Y-104507539D01*
X149745694Y-104502323D01*
X149766929Y-104499173D01*
X149788370Y-104498120D01*
X150225870Y-104498120D01*
X150247311Y-104499173D01*
X150247311Y-104499173D01*
G37*
D11*
X150007120Y-104973120D03*
D10*
G36*
X151822311Y-104499173D02*
X151843546Y-104502323D01*
X151864370Y-104507539D01*
X151884582Y-104514771D01*
X151903988Y-104523950D01*
X151922401Y-104534986D01*
X151939644Y-104547774D01*
X151955550Y-104562190D01*
X151969966Y-104578096D01*
X151982754Y-104595339D01*
X151993790Y-104613752D01*
X152002969Y-104633158D01*
X152010201Y-104653370D01*
X152015417Y-104674194D01*
X152018567Y-104695429D01*
X152019620Y-104716870D01*
X152019620Y-105229370D01*
X152018567Y-105250811D01*
X152015417Y-105272046D01*
X152010201Y-105292870D01*
X152002969Y-105313082D01*
X151993790Y-105332488D01*
X151982754Y-105350901D01*
X151969966Y-105368144D01*
X151955550Y-105384050D01*
X151939644Y-105398466D01*
X151922401Y-105411254D01*
X151903988Y-105422290D01*
X151884582Y-105431469D01*
X151864370Y-105438701D01*
X151843546Y-105443917D01*
X151822311Y-105447067D01*
X151800870Y-105448120D01*
X151363370Y-105448120D01*
X151341929Y-105447067D01*
X151320694Y-105443917D01*
X151299870Y-105438701D01*
X151279658Y-105431469D01*
X151260252Y-105422290D01*
X151241839Y-105411254D01*
X151224596Y-105398466D01*
X151208690Y-105384050D01*
X151194274Y-105368144D01*
X151181486Y-105350901D01*
X151170450Y-105332488D01*
X151161271Y-105313082D01*
X151154039Y-105292870D01*
X151148823Y-105272046D01*
X151145673Y-105250811D01*
X151144620Y-105229370D01*
X151144620Y-104716870D01*
X151145673Y-104695429D01*
X151148823Y-104674194D01*
X151154039Y-104653370D01*
X151161271Y-104633158D01*
X151170450Y-104613752D01*
X151181486Y-104595339D01*
X151194274Y-104578096D01*
X151208690Y-104562190D01*
X151224596Y-104547774D01*
X151241839Y-104534986D01*
X151260252Y-104523950D01*
X151279658Y-104514771D01*
X151299870Y-104507539D01*
X151320694Y-104502323D01*
X151341929Y-104499173D01*
X151363370Y-104498120D01*
X151800870Y-104498120D01*
X151822311Y-104499173D01*
X151822311Y-104499173D01*
G37*
D11*
X151582120Y-104973120D03*
G04 #@! TD*
D10*
G04 #@! TO.C,C2*
G36*
X151830031Y-103041213D02*
X151851266Y-103044363D01*
X151872090Y-103049579D01*
X151892302Y-103056811D01*
X151911708Y-103065990D01*
X151930121Y-103077026D01*
X151947364Y-103089814D01*
X151963270Y-103104230D01*
X151977686Y-103120136D01*
X151990474Y-103137379D01*
X152001510Y-103155792D01*
X152010689Y-103175198D01*
X152017921Y-103195410D01*
X152023137Y-103216234D01*
X152026287Y-103237469D01*
X152027340Y-103258910D01*
X152027340Y-103771410D01*
X152026287Y-103792851D01*
X152023137Y-103814086D01*
X152017921Y-103834910D01*
X152010689Y-103855122D01*
X152001510Y-103874528D01*
X151990474Y-103892941D01*
X151977686Y-103910184D01*
X151963270Y-103926090D01*
X151947364Y-103940506D01*
X151930121Y-103953294D01*
X151911708Y-103964330D01*
X151892302Y-103973509D01*
X151872090Y-103980741D01*
X151851266Y-103985957D01*
X151830031Y-103989107D01*
X151808590Y-103990160D01*
X151371090Y-103990160D01*
X151349649Y-103989107D01*
X151328414Y-103985957D01*
X151307590Y-103980741D01*
X151287378Y-103973509D01*
X151267972Y-103964330D01*
X151249559Y-103953294D01*
X151232316Y-103940506D01*
X151216410Y-103926090D01*
X151201994Y-103910184D01*
X151189206Y-103892941D01*
X151178170Y-103874528D01*
X151168991Y-103855122D01*
X151161759Y-103834910D01*
X151156543Y-103814086D01*
X151153393Y-103792851D01*
X151152340Y-103771410D01*
X151152340Y-103258910D01*
X151153393Y-103237469D01*
X151156543Y-103216234D01*
X151161759Y-103195410D01*
X151168991Y-103175198D01*
X151178170Y-103155792D01*
X151189206Y-103137379D01*
X151201994Y-103120136D01*
X151216410Y-103104230D01*
X151232316Y-103089814D01*
X151249559Y-103077026D01*
X151267972Y-103065990D01*
X151287378Y-103056811D01*
X151307590Y-103049579D01*
X151328414Y-103044363D01*
X151349649Y-103041213D01*
X151371090Y-103040160D01*
X151808590Y-103040160D01*
X151830031Y-103041213D01*
X151830031Y-103041213D01*
G37*
D11*
X151589840Y-103515160D03*
D10*
G36*
X150255031Y-103041213D02*
X150276266Y-103044363D01*
X150297090Y-103049579D01*
X150317302Y-103056811D01*
X150336708Y-103065990D01*
X150355121Y-103077026D01*
X150372364Y-103089814D01*
X150388270Y-103104230D01*
X150402686Y-103120136D01*
X150415474Y-103137379D01*
X150426510Y-103155792D01*
X150435689Y-103175198D01*
X150442921Y-103195410D01*
X150448137Y-103216234D01*
X150451287Y-103237469D01*
X150452340Y-103258910D01*
X150452340Y-103771410D01*
X150451287Y-103792851D01*
X150448137Y-103814086D01*
X150442921Y-103834910D01*
X150435689Y-103855122D01*
X150426510Y-103874528D01*
X150415474Y-103892941D01*
X150402686Y-103910184D01*
X150388270Y-103926090D01*
X150372364Y-103940506D01*
X150355121Y-103953294D01*
X150336708Y-103964330D01*
X150317302Y-103973509D01*
X150297090Y-103980741D01*
X150276266Y-103985957D01*
X150255031Y-103989107D01*
X150233590Y-103990160D01*
X149796090Y-103990160D01*
X149774649Y-103989107D01*
X149753414Y-103985957D01*
X149732590Y-103980741D01*
X149712378Y-103973509D01*
X149692972Y-103964330D01*
X149674559Y-103953294D01*
X149657316Y-103940506D01*
X149641410Y-103926090D01*
X149626994Y-103910184D01*
X149614206Y-103892941D01*
X149603170Y-103874528D01*
X149593991Y-103855122D01*
X149586759Y-103834910D01*
X149581543Y-103814086D01*
X149578393Y-103792851D01*
X149577340Y-103771410D01*
X149577340Y-103258910D01*
X149578393Y-103237469D01*
X149581543Y-103216234D01*
X149586759Y-103195410D01*
X149593991Y-103175198D01*
X149603170Y-103155792D01*
X149614206Y-103137379D01*
X149626994Y-103120136D01*
X149641410Y-103104230D01*
X149657316Y-103089814D01*
X149674559Y-103077026D01*
X149692972Y-103065990D01*
X149712378Y-103056811D01*
X149732590Y-103049579D01*
X149753414Y-103044363D01*
X149774649Y-103041213D01*
X149796090Y-103040160D01*
X150233590Y-103040160D01*
X150255031Y-103041213D01*
X150255031Y-103041213D01*
G37*
D11*
X150014840Y-103515160D03*
G04 #@! TD*
D10*
G04 #@! TO.C,C10*
G36*
X150763131Y-97247473D02*
X150784366Y-97250623D01*
X150805190Y-97255839D01*
X150825402Y-97263071D01*
X150844808Y-97272250D01*
X150863221Y-97283286D01*
X150880464Y-97296074D01*
X150896370Y-97310490D01*
X150910786Y-97326396D01*
X150923574Y-97343639D01*
X150934610Y-97362052D01*
X150943789Y-97381458D01*
X150951021Y-97401670D01*
X150956237Y-97422494D01*
X150959387Y-97443729D01*
X150960440Y-97465170D01*
X150960440Y-97977670D01*
X150959387Y-97999111D01*
X150956237Y-98020346D01*
X150951021Y-98041170D01*
X150943789Y-98061382D01*
X150934610Y-98080788D01*
X150923574Y-98099201D01*
X150910786Y-98116444D01*
X150896370Y-98132350D01*
X150880464Y-98146766D01*
X150863221Y-98159554D01*
X150844808Y-98170590D01*
X150825402Y-98179769D01*
X150805190Y-98187001D01*
X150784366Y-98192217D01*
X150763131Y-98195367D01*
X150741690Y-98196420D01*
X150304190Y-98196420D01*
X150282749Y-98195367D01*
X150261514Y-98192217D01*
X150240690Y-98187001D01*
X150220478Y-98179769D01*
X150201072Y-98170590D01*
X150182659Y-98159554D01*
X150165416Y-98146766D01*
X150149510Y-98132350D01*
X150135094Y-98116444D01*
X150122306Y-98099201D01*
X150111270Y-98080788D01*
X150102091Y-98061382D01*
X150094859Y-98041170D01*
X150089643Y-98020346D01*
X150086493Y-97999111D01*
X150085440Y-97977670D01*
X150085440Y-97465170D01*
X150086493Y-97443729D01*
X150089643Y-97422494D01*
X150094859Y-97401670D01*
X150102091Y-97381458D01*
X150111270Y-97362052D01*
X150122306Y-97343639D01*
X150135094Y-97326396D01*
X150149510Y-97310490D01*
X150165416Y-97296074D01*
X150182659Y-97283286D01*
X150201072Y-97272250D01*
X150220478Y-97263071D01*
X150240690Y-97255839D01*
X150261514Y-97250623D01*
X150282749Y-97247473D01*
X150304190Y-97246420D01*
X150741690Y-97246420D01*
X150763131Y-97247473D01*
X150763131Y-97247473D01*
G37*
D11*
X150522940Y-97721420D03*
D10*
G36*
X149188131Y-97247473D02*
X149209366Y-97250623D01*
X149230190Y-97255839D01*
X149250402Y-97263071D01*
X149269808Y-97272250D01*
X149288221Y-97283286D01*
X149305464Y-97296074D01*
X149321370Y-97310490D01*
X149335786Y-97326396D01*
X149348574Y-97343639D01*
X149359610Y-97362052D01*
X149368789Y-97381458D01*
X149376021Y-97401670D01*
X149381237Y-97422494D01*
X149384387Y-97443729D01*
X149385440Y-97465170D01*
X149385440Y-97977670D01*
X149384387Y-97999111D01*
X149381237Y-98020346D01*
X149376021Y-98041170D01*
X149368789Y-98061382D01*
X149359610Y-98080788D01*
X149348574Y-98099201D01*
X149335786Y-98116444D01*
X149321370Y-98132350D01*
X149305464Y-98146766D01*
X149288221Y-98159554D01*
X149269808Y-98170590D01*
X149250402Y-98179769D01*
X149230190Y-98187001D01*
X149209366Y-98192217D01*
X149188131Y-98195367D01*
X149166690Y-98196420D01*
X148729190Y-98196420D01*
X148707749Y-98195367D01*
X148686514Y-98192217D01*
X148665690Y-98187001D01*
X148645478Y-98179769D01*
X148626072Y-98170590D01*
X148607659Y-98159554D01*
X148590416Y-98146766D01*
X148574510Y-98132350D01*
X148560094Y-98116444D01*
X148547306Y-98099201D01*
X148536270Y-98080788D01*
X148527091Y-98061382D01*
X148519859Y-98041170D01*
X148514643Y-98020346D01*
X148511493Y-97999111D01*
X148510440Y-97977670D01*
X148510440Y-97465170D01*
X148511493Y-97443729D01*
X148514643Y-97422494D01*
X148519859Y-97401670D01*
X148527091Y-97381458D01*
X148536270Y-97362052D01*
X148547306Y-97343639D01*
X148560094Y-97326396D01*
X148574510Y-97310490D01*
X148590416Y-97296074D01*
X148607659Y-97283286D01*
X148626072Y-97272250D01*
X148645478Y-97263071D01*
X148665690Y-97255839D01*
X148686514Y-97250623D01*
X148707749Y-97247473D01*
X148729190Y-97246420D01*
X149166690Y-97246420D01*
X149188131Y-97247473D01*
X149188131Y-97247473D01*
G37*
D11*
X148947940Y-97721420D03*
G04 #@! TD*
D16*
G04 #@! TO.C,D2*
X137017300Y-115519200D03*
X139817300Y-115519200D03*
G04 #@! TD*
D17*
G04 #@! TO.C,D1*
X138149100Y-117858540D03*
X139549100Y-117858540D03*
G04 #@! TD*
D18*
G04 #@! TO.C,D3*
X143159480Y-115484704D03*
X143159480Y-114084704D03*
G04 #@! TD*
D17*
G04 #@! TO.C,D4*
X148764220Y-115349624D03*
X147364220Y-115349624D03*
G04 #@! TD*
D10*
G04 #@! TO.C,L1*
G36*
X136167691Y-88616053D02*
X136188926Y-88619203D01*
X136209750Y-88624419D01*
X136229962Y-88631651D01*
X136249368Y-88640830D01*
X136267781Y-88651866D01*
X136285024Y-88664654D01*
X136300930Y-88679070D01*
X136315346Y-88694976D01*
X136328134Y-88712219D01*
X136339170Y-88730632D01*
X136348349Y-88750038D01*
X136355581Y-88770250D01*
X136360797Y-88791074D01*
X136363947Y-88812309D01*
X136365000Y-88833750D01*
X136365000Y-89271250D01*
X136363947Y-89292691D01*
X136360797Y-89313926D01*
X136355581Y-89334750D01*
X136348349Y-89354962D01*
X136339170Y-89374368D01*
X136328134Y-89392781D01*
X136315346Y-89410024D01*
X136300930Y-89425930D01*
X136285024Y-89440346D01*
X136267781Y-89453134D01*
X136249368Y-89464170D01*
X136229962Y-89473349D01*
X136209750Y-89480581D01*
X136188926Y-89485797D01*
X136167691Y-89488947D01*
X136146250Y-89490000D01*
X135633750Y-89490000D01*
X135612309Y-89488947D01*
X135591074Y-89485797D01*
X135570250Y-89480581D01*
X135550038Y-89473349D01*
X135530632Y-89464170D01*
X135512219Y-89453134D01*
X135494976Y-89440346D01*
X135479070Y-89425930D01*
X135464654Y-89410024D01*
X135451866Y-89392781D01*
X135440830Y-89374368D01*
X135431651Y-89354962D01*
X135424419Y-89334750D01*
X135419203Y-89313926D01*
X135416053Y-89292691D01*
X135415000Y-89271250D01*
X135415000Y-88833750D01*
X135416053Y-88812309D01*
X135419203Y-88791074D01*
X135424419Y-88770250D01*
X135431651Y-88750038D01*
X135440830Y-88730632D01*
X135451866Y-88712219D01*
X135464654Y-88694976D01*
X135479070Y-88679070D01*
X135494976Y-88664654D01*
X135512219Y-88651866D01*
X135530632Y-88640830D01*
X135550038Y-88631651D01*
X135570250Y-88624419D01*
X135591074Y-88619203D01*
X135612309Y-88616053D01*
X135633750Y-88615000D01*
X136146250Y-88615000D01*
X136167691Y-88616053D01*
X136167691Y-88616053D01*
G37*
D11*
X135890000Y-89052500D03*
D10*
G36*
X136167691Y-87041053D02*
X136188926Y-87044203D01*
X136209750Y-87049419D01*
X136229962Y-87056651D01*
X136249368Y-87065830D01*
X136267781Y-87076866D01*
X136285024Y-87089654D01*
X136300930Y-87104070D01*
X136315346Y-87119976D01*
X136328134Y-87137219D01*
X136339170Y-87155632D01*
X136348349Y-87175038D01*
X136355581Y-87195250D01*
X136360797Y-87216074D01*
X136363947Y-87237309D01*
X136365000Y-87258750D01*
X136365000Y-87696250D01*
X136363947Y-87717691D01*
X136360797Y-87738926D01*
X136355581Y-87759750D01*
X136348349Y-87779962D01*
X136339170Y-87799368D01*
X136328134Y-87817781D01*
X136315346Y-87835024D01*
X136300930Y-87850930D01*
X136285024Y-87865346D01*
X136267781Y-87878134D01*
X136249368Y-87889170D01*
X136229962Y-87898349D01*
X136209750Y-87905581D01*
X136188926Y-87910797D01*
X136167691Y-87913947D01*
X136146250Y-87915000D01*
X135633750Y-87915000D01*
X135612309Y-87913947D01*
X135591074Y-87910797D01*
X135570250Y-87905581D01*
X135550038Y-87898349D01*
X135530632Y-87889170D01*
X135512219Y-87878134D01*
X135494976Y-87865346D01*
X135479070Y-87850930D01*
X135464654Y-87835024D01*
X135451866Y-87817781D01*
X135440830Y-87799368D01*
X135431651Y-87779962D01*
X135424419Y-87759750D01*
X135419203Y-87738926D01*
X135416053Y-87717691D01*
X135415000Y-87696250D01*
X135415000Y-87258750D01*
X135416053Y-87237309D01*
X135419203Y-87216074D01*
X135424419Y-87195250D01*
X135431651Y-87175038D01*
X135440830Y-87155632D01*
X135451866Y-87137219D01*
X135464654Y-87119976D01*
X135479070Y-87104070D01*
X135494976Y-87089654D01*
X135512219Y-87076866D01*
X135530632Y-87065830D01*
X135550038Y-87056651D01*
X135570250Y-87049419D01*
X135591074Y-87044203D01*
X135612309Y-87041053D01*
X135633750Y-87040000D01*
X136146250Y-87040000D01*
X136167691Y-87041053D01*
X136167691Y-87041053D01*
G37*
D11*
X135890000Y-87477500D03*
G04 #@! TD*
D10*
G04 #@! TO.C,U1*
G36*
X154175029Y-112577208D02*
X154198569Y-112580700D01*
X154221654Y-112586482D01*
X154244061Y-112594499D01*
X154265574Y-112604674D01*
X154285986Y-112616909D01*
X154305100Y-112631085D01*
X154322733Y-112647067D01*
X154338715Y-112664700D01*
X154352891Y-112683814D01*
X154365126Y-112704226D01*
X154375301Y-112725739D01*
X154383318Y-112748146D01*
X154389100Y-112771231D01*
X154392592Y-112794771D01*
X154393760Y-112818540D01*
X154393760Y-113303540D01*
X154392592Y-113327309D01*
X154389100Y-113350849D01*
X154383318Y-113373934D01*
X154375301Y-113396341D01*
X154365126Y-113417854D01*
X154352891Y-113438266D01*
X154338715Y-113457380D01*
X154322733Y-113475013D01*
X154305100Y-113490995D01*
X154285986Y-113505171D01*
X154265574Y-113517406D01*
X154244061Y-113527581D01*
X154221654Y-113535598D01*
X154198569Y-113541380D01*
X154175029Y-113544872D01*
X154151260Y-113546040D01*
X153386260Y-113546040D01*
X153362491Y-113544872D01*
X153338951Y-113541380D01*
X153315866Y-113535598D01*
X153293459Y-113527581D01*
X153271946Y-113517406D01*
X153251534Y-113505171D01*
X153232420Y-113490995D01*
X153214787Y-113475013D01*
X153198805Y-113457380D01*
X153184629Y-113438266D01*
X153172394Y-113417854D01*
X153162219Y-113396341D01*
X153154202Y-113373934D01*
X153148420Y-113350849D01*
X153144928Y-113327309D01*
X153143760Y-113303540D01*
X153143760Y-112818540D01*
X153144928Y-112794771D01*
X153148420Y-112771231D01*
X153154202Y-112748146D01*
X153162219Y-112725739D01*
X153172394Y-112704226D01*
X153184629Y-112683814D01*
X153198805Y-112664700D01*
X153214787Y-112647067D01*
X153232420Y-112631085D01*
X153251534Y-112616909D01*
X153271946Y-112604674D01*
X153293459Y-112594499D01*
X153315866Y-112586482D01*
X153338951Y-112580700D01*
X153362491Y-112577208D01*
X153386260Y-112576040D01*
X154151260Y-112576040D01*
X154175029Y-112577208D01*
X154175029Y-112577208D01*
G37*
D19*
X153768760Y-113061040D03*
D10*
G36*
X155725029Y-112577208D02*
X155748569Y-112580700D01*
X155771654Y-112586482D01*
X155794061Y-112594499D01*
X155815574Y-112604674D01*
X155835986Y-112616909D01*
X155855100Y-112631085D01*
X155872733Y-112647067D01*
X155888715Y-112664700D01*
X155902891Y-112683814D01*
X155915126Y-112704226D01*
X155925301Y-112725739D01*
X155933318Y-112748146D01*
X155939100Y-112771231D01*
X155942592Y-112794771D01*
X155943760Y-112818540D01*
X155943760Y-113303540D01*
X155942592Y-113327309D01*
X155939100Y-113350849D01*
X155933318Y-113373934D01*
X155925301Y-113396341D01*
X155915126Y-113417854D01*
X155902891Y-113438266D01*
X155888715Y-113457380D01*
X155872733Y-113475013D01*
X155855100Y-113490995D01*
X155835986Y-113505171D01*
X155815574Y-113517406D01*
X155794061Y-113527581D01*
X155771654Y-113535598D01*
X155748569Y-113541380D01*
X155725029Y-113544872D01*
X155701260Y-113546040D01*
X154936260Y-113546040D01*
X154912491Y-113544872D01*
X154888951Y-113541380D01*
X154865866Y-113535598D01*
X154843459Y-113527581D01*
X154821946Y-113517406D01*
X154801534Y-113505171D01*
X154782420Y-113490995D01*
X154764787Y-113475013D01*
X154748805Y-113457380D01*
X154734629Y-113438266D01*
X154722394Y-113417854D01*
X154712219Y-113396341D01*
X154704202Y-113373934D01*
X154698420Y-113350849D01*
X154694928Y-113327309D01*
X154693760Y-113303540D01*
X154693760Y-112818540D01*
X154694928Y-112794771D01*
X154698420Y-112771231D01*
X154704202Y-112748146D01*
X154712219Y-112725739D01*
X154722394Y-112704226D01*
X154734629Y-112683814D01*
X154748805Y-112664700D01*
X154764787Y-112647067D01*
X154782420Y-112631085D01*
X154801534Y-112616909D01*
X154821946Y-112604674D01*
X154843459Y-112594499D01*
X154865866Y-112586482D01*
X154888951Y-112580700D01*
X154912491Y-112577208D01*
X154936260Y-112576040D01*
X155701260Y-112576040D01*
X155725029Y-112577208D01*
X155725029Y-112577208D01*
G37*
D19*
X155318760Y-113061040D03*
D10*
G36*
X154175029Y-111377208D02*
X154198569Y-111380700D01*
X154221654Y-111386482D01*
X154244061Y-111394499D01*
X154265574Y-111404674D01*
X154285986Y-111416909D01*
X154305100Y-111431085D01*
X154322733Y-111447067D01*
X154338715Y-111464700D01*
X154352891Y-111483814D01*
X154365126Y-111504226D01*
X154375301Y-111525739D01*
X154383318Y-111548146D01*
X154389100Y-111571231D01*
X154392592Y-111594771D01*
X154393760Y-111618540D01*
X154393760Y-112103540D01*
X154392592Y-112127309D01*
X154389100Y-112150849D01*
X154383318Y-112173934D01*
X154375301Y-112196341D01*
X154365126Y-112217854D01*
X154352891Y-112238266D01*
X154338715Y-112257380D01*
X154322733Y-112275013D01*
X154305100Y-112290995D01*
X154285986Y-112305171D01*
X154265574Y-112317406D01*
X154244061Y-112327581D01*
X154221654Y-112335598D01*
X154198569Y-112341380D01*
X154175029Y-112344872D01*
X154151260Y-112346040D01*
X153386260Y-112346040D01*
X153362491Y-112344872D01*
X153338951Y-112341380D01*
X153315866Y-112335598D01*
X153293459Y-112327581D01*
X153271946Y-112317406D01*
X153251534Y-112305171D01*
X153232420Y-112290995D01*
X153214787Y-112275013D01*
X153198805Y-112257380D01*
X153184629Y-112238266D01*
X153172394Y-112217854D01*
X153162219Y-112196341D01*
X153154202Y-112173934D01*
X153148420Y-112150849D01*
X153144928Y-112127309D01*
X153143760Y-112103540D01*
X153143760Y-111618540D01*
X153144928Y-111594771D01*
X153148420Y-111571231D01*
X153154202Y-111548146D01*
X153162219Y-111525739D01*
X153172394Y-111504226D01*
X153184629Y-111483814D01*
X153198805Y-111464700D01*
X153214787Y-111447067D01*
X153232420Y-111431085D01*
X153251534Y-111416909D01*
X153271946Y-111404674D01*
X153293459Y-111394499D01*
X153315866Y-111386482D01*
X153338951Y-111380700D01*
X153362491Y-111377208D01*
X153386260Y-111376040D01*
X154151260Y-111376040D01*
X154175029Y-111377208D01*
X154175029Y-111377208D01*
G37*
D19*
X153768760Y-111861040D03*
D10*
G36*
X155725029Y-111377208D02*
X155748569Y-111380700D01*
X155771654Y-111386482D01*
X155794061Y-111394499D01*
X155815574Y-111404674D01*
X155835986Y-111416909D01*
X155855100Y-111431085D01*
X155872733Y-111447067D01*
X155888715Y-111464700D01*
X155902891Y-111483814D01*
X155915126Y-111504226D01*
X155925301Y-111525739D01*
X155933318Y-111548146D01*
X155939100Y-111571231D01*
X155942592Y-111594771D01*
X155943760Y-111618540D01*
X155943760Y-112103540D01*
X155942592Y-112127309D01*
X155939100Y-112150849D01*
X155933318Y-112173934D01*
X155925301Y-112196341D01*
X155915126Y-112217854D01*
X155902891Y-112238266D01*
X155888715Y-112257380D01*
X155872733Y-112275013D01*
X155855100Y-112290995D01*
X155835986Y-112305171D01*
X155815574Y-112317406D01*
X155794061Y-112327581D01*
X155771654Y-112335598D01*
X155748569Y-112341380D01*
X155725029Y-112344872D01*
X155701260Y-112346040D01*
X154936260Y-112346040D01*
X154912491Y-112344872D01*
X154888951Y-112341380D01*
X154865866Y-112335598D01*
X154843459Y-112327581D01*
X154821946Y-112317406D01*
X154801534Y-112305171D01*
X154782420Y-112290995D01*
X154764787Y-112275013D01*
X154748805Y-112257380D01*
X154734629Y-112238266D01*
X154722394Y-112217854D01*
X154712219Y-112196341D01*
X154704202Y-112173934D01*
X154698420Y-112150849D01*
X154694928Y-112127309D01*
X154693760Y-112103540D01*
X154693760Y-111618540D01*
X154694928Y-111594771D01*
X154698420Y-111571231D01*
X154704202Y-111548146D01*
X154712219Y-111525739D01*
X154722394Y-111504226D01*
X154734629Y-111483814D01*
X154748805Y-111464700D01*
X154764787Y-111447067D01*
X154782420Y-111431085D01*
X154801534Y-111416909D01*
X154821946Y-111404674D01*
X154843459Y-111394499D01*
X154865866Y-111386482D01*
X154888951Y-111380700D01*
X154912491Y-111377208D01*
X154936260Y-111376040D01*
X155701260Y-111376040D01*
X155725029Y-111377208D01*
X155725029Y-111377208D01*
G37*
D19*
X155318760Y-111861040D03*
D10*
G36*
X152803463Y-114311762D02*
X152818024Y-114313922D01*
X152832303Y-114317499D01*
X152846163Y-114322458D01*
X152859470Y-114328752D01*
X152872096Y-114336320D01*
X152883919Y-114345088D01*
X152894826Y-114354974D01*
X152904712Y-114365881D01*
X152913480Y-114377704D01*
X152921048Y-114390330D01*
X152927342Y-114403637D01*
X152932301Y-114417497D01*
X152935878Y-114431776D01*
X152938038Y-114446337D01*
X152938760Y-114461040D01*
X152938760Y-115761040D01*
X152938038Y-115775743D01*
X152935878Y-115790304D01*
X152932301Y-115804583D01*
X152927342Y-115818443D01*
X152921048Y-115831750D01*
X152913480Y-115844376D01*
X152904712Y-115856199D01*
X152894826Y-115867106D01*
X152883919Y-115876992D01*
X152872096Y-115885760D01*
X152859470Y-115893328D01*
X152846163Y-115899622D01*
X152832303Y-115904581D01*
X152818024Y-115908158D01*
X152803463Y-115910318D01*
X152788760Y-115911040D01*
X152488760Y-115911040D01*
X152474057Y-115910318D01*
X152459496Y-115908158D01*
X152445217Y-115904581D01*
X152431357Y-115899622D01*
X152418050Y-115893328D01*
X152405424Y-115885760D01*
X152393601Y-115876992D01*
X152382694Y-115867106D01*
X152372808Y-115856199D01*
X152364040Y-115844376D01*
X152356472Y-115831750D01*
X152350178Y-115818443D01*
X152345219Y-115804583D01*
X152341642Y-115790304D01*
X152339482Y-115775743D01*
X152338760Y-115761040D01*
X152338760Y-114461040D01*
X152339482Y-114446337D01*
X152341642Y-114431776D01*
X152345219Y-114417497D01*
X152350178Y-114403637D01*
X152356472Y-114390330D01*
X152364040Y-114377704D01*
X152372808Y-114365881D01*
X152382694Y-114354974D01*
X152393601Y-114345088D01*
X152405424Y-114336320D01*
X152418050Y-114328752D01*
X152431357Y-114322458D01*
X152445217Y-114317499D01*
X152459496Y-114313922D01*
X152474057Y-114311762D01*
X152488760Y-114311040D01*
X152788760Y-114311040D01*
X152803463Y-114311762D01*
X152803463Y-114311762D01*
G37*
D20*
X152638760Y-115111040D03*
D10*
G36*
X154073463Y-114311762D02*
X154088024Y-114313922D01*
X154102303Y-114317499D01*
X154116163Y-114322458D01*
X154129470Y-114328752D01*
X154142096Y-114336320D01*
X154153919Y-114345088D01*
X154164826Y-114354974D01*
X154174712Y-114365881D01*
X154183480Y-114377704D01*
X154191048Y-114390330D01*
X154197342Y-114403637D01*
X154202301Y-114417497D01*
X154205878Y-114431776D01*
X154208038Y-114446337D01*
X154208760Y-114461040D01*
X154208760Y-115761040D01*
X154208038Y-115775743D01*
X154205878Y-115790304D01*
X154202301Y-115804583D01*
X154197342Y-115818443D01*
X154191048Y-115831750D01*
X154183480Y-115844376D01*
X154174712Y-115856199D01*
X154164826Y-115867106D01*
X154153919Y-115876992D01*
X154142096Y-115885760D01*
X154129470Y-115893328D01*
X154116163Y-115899622D01*
X154102303Y-115904581D01*
X154088024Y-115908158D01*
X154073463Y-115910318D01*
X154058760Y-115911040D01*
X153758760Y-115911040D01*
X153744057Y-115910318D01*
X153729496Y-115908158D01*
X153715217Y-115904581D01*
X153701357Y-115899622D01*
X153688050Y-115893328D01*
X153675424Y-115885760D01*
X153663601Y-115876992D01*
X153652694Y-115867106D01*
X153642808Y-115856199D01*
X153634040Y-115844376D01*
X153626472Y-115831750D01*
X153620178Y-115818443D01*
X153615219Y-115804583D01*
X153611642Y-115790304D01*
X153609482Y-115775743D01*
X153608760Y-115761040D01*
X153608760Y-114461040D01*
X153609482Y-114446337D01*
X153611642Y-114431776D01*
X153615219Y-114417497D01*
X153620178Y-114403637D01*
X153626472Y-114390330D01*
X153634040Y-114377704D01*
X153642808Y-114365881D01*
X153652694Y-114354974D01*
X153663601Y-114345088D01*
X153675424Y-114336320D01*
X153688050Y-114328752D01*
X153701357Y-114322458D01*
X153715217Y-114317499D01*
X153729496Y-114313922D01*
X153744057Y-114311762D01*
X153758760Y-114311040D01*
X154058760Y-114311040D01*
X154073463Y-114311762D01*
X154073463Y-114311762D01*
G37*
D20*
X153908760Y-115111040D03*
D10*
G36*
X155343463Y-114311762D02*
X155358024Y-114313922D01*
X155372303Y-114317499D01*
X155386163Y-114322458D01*
X155399470Y-114328752D01*
X155412096Y-114336320D01*
X155423919Y-114345088D01*
X155434826Y-114354974D01*
X155444712Y-114365881D01*
X155453480Y-114377704D01*
X155461048Y-114390330D01*
X155467342Y-114403637D01*
X155472301Y-114417497D01*
X155475878Y-114431776D01*
X155478038Y-114446337D01*
X155478760Y-114461040D01*
X155478760Y-115761040D01*
X155478038Y-115775743D01*
X155475878Y-115790304D01*
X155472301Y-115804583D01*
X155467342Y-115818443D01*
X155461048Y-115831750D01*
X155453480Y-115844376D01*
X155444712Y-115856199D01*
X155434826Y-115867106D01*
X155423919Y-115876992D01*
X155412096Y-115885760D01*
X155399470Y-115893328D01*
X155386163Y-115899622D01*
X155372303Y-115904581D01*
X155358024Y-115908158D01*
X155343463Y-115910318D01*
X155328760Y-115911040D01*
X155028760Y-115911040D01*
X155014057Y-115910318D01*
X154999496Y-115908158D01*
X154985217Y-115904581D01*
X154971357Y-115899622D01*
X154958050Y-115893328D01*
X154945424Y-115885760D01*
X154933601Y-115876992D01*
X154922694Y-115867106D01*
X154912808Y-115856199D01*
X154904040Y-115844376D01*
X154896472Y-115831750D01*
X154890178Y-115818443D01*
X154885219Y-115804583D01*
X154881642Y-115790304D01*
X154879482Y-115775743D01*
X154878760Y-115761040D01*
X154878760Y-114461040D01*
X154879482Y-114446337D01*
X154881642Y-114431776D01*
X154885219Y-114417497D01*
X154890178Y-114403637D01*
X154896472Y-114390330D01*
X154904040Y-114377704D01*
X154912808Y-114365881D01*
X154922694Y-114354974D01*
X154933601Y-114345088D01*
X154945424Y-114336320D01*
X154958050Y-114328752D01*
X154971357Y-114322458D01*
X154985217Y-114317499D01*
X154999496Y-114313922D01*
X155014057Y-114311762D01*
X155028760Y-114311040D01*
X155328760Y-114311040D01*
X155343463Y-114311762D01*
X155343463Y-114311762D01*
G37*
D20*
X155178760Y-115111040D03*
D10*
G36*
X156613463Y-114311762D02*
X156628024Y-114313922D01*
X156642303Y-114317499D01*
X156656163Y-114322458D01*
X156669470Y-114328752D01*
X156682096Y-114336320D01*
X156693919Y-114345088D01*
X156704826Y-114354974D01*
X156714712Y-114365881D01*
X156723480Y-114377704D01*
X156731048Y-114390330D01*
X156737342Y-114403637D01*
X156742301Y-114417497D01*
X156745878Y-114431776D01*
X156748038Y-114446337D01*
X156748760Y-114461040D01*
X156748760Y-115761040D01*
X156748038Y-115775743D01*
X156745878Y-115790304D01*
X156742301Y-115804583D01*
X156737342Y-115818443D01*
X156731048Y-115831750D01*
X156723480Y-115844376D01*
X156714712Y-115856199D01*
X156704826Y-115867106D01*
X156693919Y-115876992D01*
X156682096Y-115885760D01*
X156669470Y-115893328D01*
X156656163Y-115899622D01*
X156642303Y-115904581D01*
X156628024Y-115908158D01*
X156613463Y-115910318D01*
X156598760Y-115911040D01*
X156298760Y-115911040D01*
X156284057Y-115910318D01*
X156269496Y-115908158D01*
X156255217Y-115904581D01*
X156241357Y-115899622D01*
X156228050Y-115893328D01*
X156215424Y-115885760D01*
X156203601Y-115876992D01*
X156192694Y-115867106D01*
X156182808Y-115856199D01*
X156174040Y-115844376D01*
X156166472Y-115831750D01*
X156160178Y-115818443D01*
X156155219Y-115804583D01*
X156151642Y-115790304D01*
X156149482Y-115775743D01*
X156148760Y-115761040D01*
X156148760Y-114461040D01*
X156149482Y-114446337D01*
X156151642Y-114431776D01*
X156155219Y-114417497D01*
X156160178Y-114403637D01*
X156166472Y-114390330D01*
X156174040Y-114377704D01*
X156182808Y-114365881D01*
X156192694Y-114354974D01*
X156203601Y-114345088D01*
X156215424Y-114336320D01*
X156228050Y-114328752D01*
X156241357Y-114322458D01*
X156255217Y-114317499D01*
X156269496Y-114313922D01*
X156284057Y-114311762D01*
X156298760Y-114311040D01*
X156598760Y-114311040D01*
X156613463Y-114311762D01*
X156613463Y-114311762D01*
G37*
D20*
X156448760Y-115111040D03*
D10*
G36*
X156613463Y-109011762D02*
X156628024Y-109013922D01*
X156642303Y-109017499D01*
X156656163Y-109022458D01*
X156669470Y-109028752D01*
X156682096Y-109036320D01*
X156693919Y-109045088D01*
X156704826Y-109054974D01*
X156714712Y-109065881D01*
X156723480Y-109077704D01*
X156731048Y-109090330D01*
X156737342Y-109103637D01*
X156742301Y-109117497D01*
X156745878Y-109131776D01*
X156748038Y-109146337D01*
X156748760Y-109161040D01*
X156748760Y-110461040D01*
X156748038Y-110475743D01*
X156745878Y-110490304D01*
X156742301Y-110504583D01*
X156737342Y-110518443D01*
X156731048Y-110531750D01*
X156723480Y-110544376D01*
X156714712Y-110556199D01*
X156704826Y-110567106D01*
X156693919Y-110576992D01*
X156682096Y-110585760D01*
X156669470Y-110593328D01*
X156656163Y-110599622D01*
X156642303Y-110604581D01*
X156628024Y-110608158D01*
X156613463Y-110610318D01*
X156598760Y-110611040D01*
X156298760Y-110611040D01*
X156284057Y-110610318D01*
X156269496Y-110608158D01*
X156255217Y-110604581D01*
X156241357Y-110599622D01*
X156228050Y-110593328D01*
X156215424Y-110585760D01*
X156203601Y-110576992D01*
X156192694Y-110567106D01*
X156182808Y-110556199D01*
X156174040Y-110544376D01*
X156166472Y-110531750D01*
X156160178Y-110518443D01*
X156155219Y-110504583D01*
X156151642Y-110490304D01*
X156149482Y-110475743D01*
X156148760Y-110461040D01*
X156148760Y-109161040D01*
X156149482Y-109146337D01*
X156151642Y-109131776D01*
X156155219Y-109117497D01*
X156160178Y-109103637D01*
X156166472Y-109090330D01*
X156174040Y-109077704D01*
X156182808Y-109065881D01*
X156192694Y-109054974D01*
X156203601Y-109045088D01*
X156215424Y-109036320D01*
X156228050Y-109028752D01*
X156241357Y-109022458D01*
X156255217Y-109017499D01*
X156269496Y-109013922D01*
X156284057Y-109011762D01*
X156298760Y-109011040D01*
X156598760Y-109011040D01*
X156613463Y-109011762D01*
X156613463Y-109011762D01*
G37*
D20*
X156448760Y-109811040D03*
D10*
G36*
X155343463Y-109011762D02*
X155358024Y-109013922D01*
X155372303Y-109017499D01*
X155386163Y-109022458D01*
X155399470Y-109028752D01*
X155412096Y-109036320D01*
X155423919Y-109045088D01*
X155434826Y-109054974D01*
X155444712Y-109065881D01*
X155453480Y-109077704D01*
X155461048Y-109090330D01*
X155467342Y-109103637D01*
X155472301Y-109117497D01*
X155475878Y-109131776D01*
X155478038Y-109146337D01*
X155478760Y-109161040D01*
X155478760Y-110461040D01*
X155478038Y-110475743D01*
X155475878Y-110490304D01*
X155472301Y-110504583D01*
X155467342Y-110518443D01*
X155461048Y-110531750D01*
X155453480Y-110544376D01*
X155444712Y-110556199D01*
X155434826Y-110567106D01*
X155423919Y-110576992D01*
X155412096Y-110585760D01*
X155399470Y-110593328D01*
X155386163Y-110599622D01*
X155372303Y-110604581D01*
X155358024Y-110608158D01*
X155343463Y-110610318D01*
X155328760Y-110611040D01*
X155028760Y-110611040D01*
X155014057Y-110610318D01*
X154999496Y-110608158D01*
X154985217Y-110604581D01*
X154971357Y-110599622D01*
X154958050Y-110593328D01*
X154945424Y-110585760D01*
X154933601Y-110576992D01*
X154922694Y-110567106D01*
X154912808Y-110556199D01*
X154904040Y-110544376D01*
X154896472Y-110531750D01*
X154890178Y-110518443D01*
X154885219Y-110504583D01*
X154881642Y-110490304D01*
X154879482Y-110475743D01*
X154878760Y-110461040D01*
X154878760Y-109161040D01*
X154879482Y-109146337D01*
X154881642Y-109131776D01*
X154885219Y-109117497D01*
X154890178Y-109103637D01*
X154896472Y-109090330D01*
X154904040Y-109077704D01*
X154912808Y-109065881D01*
X154922694Y-109054974D01*
X154933601Y-109045088D01*
X154945424Y-109036320D01*
X154958050Y-109028752D01*
X154971357Y-109022458D01*
X154985217Y-109017499D01*
X154999496Y-109013922D01*
X155014057Y-109011762D01*
X155028760Y-109011040D01*
X155328760Y-109011040D01*
X155343463Y-109011762D01*
X155343463Y-109011762D01*
G37*
D20*
X155178760Y-109811040D03*
D10*
G36*
X154073463Y-109011762D02*
X154088024Y-109013922D01*
X154102303Y-109017499D01*
X154116163Y-109022458D01*
X154129470Y-109028752D01*
X154142096Y-109036320D01*
X154153919Y-109045088D01*
X154164826Y-109054974D01*
X154174712Y-109065881D01*
X154183480Y-109077704D01*
X154191048Y-109090330D01*
X154197342Y-109103637D01*
X154202301Y-109117497D01*
X154205878Y-109131776D01*
X154208038Y-109146337D01*
X154208760Y-109161040D01*
X154208760Y-110461040D01*
X154208038Y-110475743D01*
X154205878Y-110490304D01*
X154202301Y-110504583D01*
X154197342Y-110518443D01*
X154191048Y-110531750D01*
X154183480Y-110544376D01*
X154174712Y-110556199D01*
X154164826Y-110567106D01*
X154153919Y-110576992D01*
X154142096Y-110585760D01*
X154129470Y-110593328D01*
X154116163Y-110599622D01*
X154102303Y-110604581D01*
X154088024Y-110608158D01*
X154073463Y-110610318D01*
X154058760Y-110611040D01*
X153758760Y-110611040D01*
X153744057Y-110610318D01*
X153729496Y-110608158D01*
X153715217Y-110604581D01*
X153701357Y-110599622D01*
X153688050Y-110593328D01*
X153675424Y-110585760D01*
X153663601Y-110576992D01*
X153652694Y-110567106D01*
X153642808Y-110556199D01*
X153634040Y-110544376D01*
X153626472Y-110531750D01*
X153620178Y-110518443D01*
X153615219Y-110504583D01*
X153611642Y-110490304D01*
X153609482Y-110475743D01*
X153608760Y-110461040D01*
X153608760Y-109161040D01*
X153609482Y-109146337D01*
X153611642Y-109131776D01*
X153615219Y-109117497D01*
X153620178Y-109103637D01*
X153626472Y-109090330D01*
X153634040Y-109077704D01*
X153642808Y-109065881D01*
X153652694Y-109054974D01*
X153663601Y-109045088D01*
X153675424Y-109036320D01*
X153688050Y-109028752D01*
X153701357Y-109022458D01*
X153715217Y-109017499D01*
X153729496Y-109013922D01*
X153744057Y-109011762D01*
X153758760Y-109011040D01*
X154058760Y-109011040D01*
X154073463Y-109011762D01*
X154073463Y-109011762D01*
G37*
D20*
X153908760Y-109811040D03*
D10*
G36*
X152803463Y-109011762D02*
X152818024Y-109013922D01*
X152832303Y-109017499D01*
X152846163Y-109022458D01*
X152859470Y-109028752D01*
X152872096Y-109036320D01*
X152883919Y-109045088D01*
X152894826Y-109054974D01*
X152904712Y-109065881D01*
X152913480Y-109077704D01*
X152921048Y-109090330D01*
X152927342Y-109103637D01*
X152932301Y-109117497D01*
X152935878Y-109131776D01*
X152938038Y-109146337D01*
X152938760Y-109161040D01*
X152938760Y-110461040D01*
X152938038Y-110475743D01*
X152935878Y-110490304D01*
X152932301Y-110504583D01*
X152927342Y-110518443D01*
X152921048Y-110531750D01*
X152913480Y-110544376D01*
X152904712Y-110556199D01*
X152894826Y-110567106D01*
X152883919Y-110576992D01*
X152872096Y-110585760D01*
X152859470Y-110593328D01*
X152846163Y-110599622D01*
X152832303Y-110604581D01*
X152818024Y-110608158D01*
X152803463Y-110610318D01*
X152788760Y-110611040D01*
X152488760Y-110611040D01*
X152474057Y-110610318D01*
X152459496Y-110608158D01*
X152445217Y-110604581D01*
X152431357Y-110599622D01*
X152418050Y-110593328D01*
X152405424Y-110585760D01*
X152393601Y-110576992D01*
X152382694Y-110567106D01*
X152372808Y-110556199D01*
X152364040Y-110544376D01*
X152356472Y-110531750D01*
X152350178Y-110518443D01*
X152345219Y-110504583D01*
X152341642Y-110490304D01*
X152339482Y-110475743D01*
X152338760Y-110461040D01*
X152338760Y-109161040D01*
X152339482Y-109146337D01*
X152341642Y-109131776D01*
X152345219Y-109117497D01*
X152350178Y-109103637D01*
X152356472Y-109090330D01*
X152364040Y-109077704D01*
X152372808Y-109065881D01*
X152382694Y-109054974D01*
X152393601Y-109045088D01*
X152405424Y-109036320D01*
X152418050Y-109028752D01*
X152431357Y-109022458D01*
X152445217Y-109017499D01*
X152459496Y-109013922D01*
X152474057Y-109011762D01*
X152488760Y-109011040D01*
X152788760Y-109011040D01*
X152803463Y-109011762D01*
X152803463Y-109011762D01*
G37*
D20*
X152638760Y-109811040D03*
G04 #@! TD*
D21*
G04 #@! TO.C,U3*
X148045480Y-112415320D03*
X148045480Y-111780320D03*
X148045480Y-111145320D03*
X148045480Y-110510320D03*
X148045480Y-109875320D03*
X148045480Y-109240320D03*
X148045480Y-108605320D03*
X148045480Y-107970320D03*
X142845480Y-107970320D03*
X142845480Y-108605320D03*
X142845480Y-109240320D03*
X142845480Y-109875320D03*
X142845480Y-110510320D03*
X142845480Y-111145320D03*
X142845480Y-111780320D03*
X142845480Y-112415320D03*
G04 #@! TD*
D22*
G04 #@! TO.C,Q4*
X142751300Y-103035060D03*
X142751300Y-104935060D03*
X144751300Y-103985060D03*
G04 #@! TD*
G04 #@! TO.C,Q2*
X146159980Y-104000300D03*
X148159980Y-103050300D03*
X148159980Y-104950300D03*
G04 #@! TD*
G04 #@! TO.C,Q3*
X147705320Y-101450180D03*
X147705320Y-99550180D03*
X145705320Y-100500180D03*
G04 #@! TD*
D23*
G04 #@! TO.C,U4*
X156385260Y-102206980D03*
X156385260Y-104106980D03*
X154185260Y-104106980D03*
X154185260Y-103156980D03*
X154185260Y-102206980D03*
G04 #@! TD*
G04 #@! TO.C,U5*
X154218280Y-105846880D03*
X154218280Y-106796880D03*
X154218280Y-107746880D03*
X156418280Y-107746880D03*
X156418280Y-105846880D03*
G04 #@! TD*
D10*
G04 #@! TO.C,R7*
G36*
X150742911Y-89950053D02*
X150764146Y-89953203D01*
X150784970Y-89958419D01*
X150805182Y-89965651D01*
X150824588Y-89974830D01*
X150843001Y-89985866D01*
X150860244Y-89998654D01*
X150876150Y-90013070D01*
X150890566Y-90028976D01*
X150903354Y-90046219D01*
X150914390Y-90064632D01*
X150923569Y-90084038D01*
X150930801Y-90104250D01*
X150936017Y-90125074D01*
X150939167Y-90146309D01*
X150940220Y-90167750D01*
X150940220Y-90680250D01*
X150939167Y-90701691D01*
X150936017Y-90722926D01*
X150930801Y-90743750D01*
X150923569Y-90763962D01*
X150914390Y-90783368D01*
X150903354Y-90801781D01*
X150890566Y-90819024D01*
X150876150Y-90834930D01*
X150860244Y-90849346D01*
X150843001Y-90862134D01*
X150824588Y-90873170D01*
X150805182Y-90882349D01*
X150784970Y-90889581D01*
X150764146Y-90894797D01*
X150742911Y-90897947D01*
X150721470Y-90899000D01*
X150283970Y-90899000D01*
X150262529Y-90897947D01*
X150241294Y-90894797D01*
X150220470Y-90889581D01*
X150200258Y-90882349D01*
X150180852Y-90873170D01*
X150162439Y-90862134D01*
X150145196Y-90849346D01*
X150129290Y-90834930D01*
X150114874Y-90819024D01*
X150102086Y-90801781D01*
X150091050Y-90783368D01*
X150081871Y-90763962D01*
X150074639Y-90743750D01*
X150069423Y-90722926D01*
X150066273Y-90701691D01*
X150065220Y-90680250D01*
X150065220Y-90167750D01*
X150066273Y-90146309D01*
X150069423Y-90125074D01*
X150074639Y-90104250D01*
X150081871Y-90084038D01*
X150091050Y-90064632D01*
X150102086Y-90046219D01*
X150114874Y-90028976D01*
X150129290Y-90013070D01*
X150145196Y-89998654D01*
X150162439Y-89985866D01*
X150180852Y-89974830D01*
X150200258Y-89965651D01*
X150220470Y-89958419D01*
X150241294Y-89953203D01*
X150262529Y-89950053D01*
X150283970Y-89949000D01*
X150721470Y-89949000D01*
X150742911Y-89950053D01*
X150742911Y-89950053D01*
G37*
D11*
X150502720Y-90424000D03*
D10*
G36*
X149167911Y-89950053D02*
X149189146Y-89953203D01*
X149209970Y-89958419D01*
X149230182Y-89965651D01*
X149249588Y-89974830D01*
X149268001Y-89985866D01*
X149285244Y-89998654D01*
X149301150Y-90013070D01*
X149315566Y-90028976D01*
X149328354Y-90046219D01*
X149339390Y-90064632D01*
X149348569Y-90084038D01*
X149355801Y-90104250D01*
X149361017Y-90125074D01*
X149364167Y-90146309D01*
X149365220Y-90167750D01*
X149365220Y-90680250D01*
X149364167Y-90701691D01*
X149361017Y-90722926D01*
X149355801Y-90743750D01*
X149348569Y-90763962D01*
X149339390Y-90783368D01*
X149328354Y-90801781D01*
X149315566Y-90819024D01*
X149301150Y-90834930D01*
X149285244Y-90849346D01*
X149268001Y-90862134D01*
X149249588Y-90873170D01*
X149230182Y-90882349D01*
X149209970Y-90889581D01*
X149189146Y-90894797D01*
X149167911Y-90897947D01*
X149146470Y-90899000D01*
X148708970Y-90899000D01*
X148687529Y-90897947D01*
X148666294Y-90894797D01*
X148645470Y-90889581D01*
X148625258Y-90882349D01*
X148605852Y-90873170D01*
X148587439Y-90862134D01*
X148570196Y-90849346D01*
X148554290Y-90834930D01*
X148539874Y-90819024D01*
X148527086Y-90801781D01*
X148516050Y-90783368D01*
X148506871Y-90763962D01*
X148499639Y-90743750D01*
X148494423Y-90722926D01*
X148491273Y-90701691D01*
X148490220Y-90680250D01*
X148490220Y-90167750D01*
X148491273Y-90146309D01*
X148494423Y-90125074D01*
X148499639Y-90104250D01*
X148506871Y-90084038D01*
X148516050Y-90064632D01*
X148527086Y-90046219D01*
X148539874Y-90028976D01*
X148554290Y-90013070D01*
X148570196Y-89998654D01*
X148587439Y-89985866D01*
X148605852Y-89974830D01*
X148625258Y-89965651D01*
X148645470Y-89958419D01*
X148666294Y-89953203D01*
X148687529Y-89950053D01*
X148708970Y-89949000D01*
X149146470Y-89949000D01*
X149167911Y-89950053D01*
X149167911Y-89950053D01*
G37*
D11*
X148927720Y-90424000D03*
G04 #@! TD*
D10*
G04 #@! TO.C,R22*
G36*
X136983531Y-94456013D02*
X137004766Y-94459163D01*
X137025590Y-94464379D01*
X137045802Y-94471611D01*
X137065208Y-94480790D01*
X137083621Y-94491826D01*
X137100864Y-94504614D01*
X137116770Y-94519030D01*
X137131186Y-94534936D01*
X137143974Y-94552179D01*
X137155010Y-94570592D01*
X137164189Y-94589998D01*
X137171421Y-94610210D01*
X137176637Y-94631034D01*
X137179787Y-94652269D01*
X137180840Y-94673710D01*
X137180840Y-95186210D01*
X137179787Y-95207651D01*
X137176637Y-95228886D01*
X137171421Y-95249710D01*
X137164189Y-95269922D01*
X137155010Y-95289328D01*
X137143974Y-95307741D01*
X137131186Y-95324984D01*
X137116770Y-95340890D01*
X137100864Y-95355306D01*
X137083621Y-95368094D01*
X137065208Y-95379130D01*
X137045802Y-95388309D01*
X137025590Y-95395541D01*
X137004766Y-95400757D01*
X136983531Y-95403907D01*
X136962090Y-95404960D01*
X136524590Y-95404960D01*
X136503149Y-95403907D01*
X136481914Y-95400757D01*
X136461090Y-95395541D01*
X136440878Y-95388309D01*
X136421472Y-95379130D01*
X136403059Y-95368094D01*
X136385816Y-95355306D01*
X136369910Y-95340890D01*
X136355494Y-95324984D01*
X136342706Y-95307741D01*
X136331670Y-95289328D01*
X136322491Y-95269922D01*
X136315259Y-95249710D01*
X136310043Y-95228886D01*
X136306893Y-95207651D01*
X136305840Y-95186210D01*
X136305840Y-94673710D01*
X136306893Y-94652269D01*
X136310043Y-94631034D01*
X136315259Y-94610210D01*
X136322491Y-94589998D01*
X136331670Y-94570592D01*
X136342706Y-94552179D01*
X136355494Y-94534936D01*
X136369910Y-94519030D01*
X136385816Y-94504614D01*
X136403059Y-94491826D01*
X136421472Y-94480790D01*
X136440878Y-94471611D01*
X136461090Y-94464379D01*
X136481914Y-94459163D01*
X136503149Y-94456013D01*
X136524590Y-94454960D01*
X136962090Y-94454960D01*
X136983531Y-94456013D01*
X136983531Y-94456013D01*
G37*
D11*
X136743340Y-94929960D03*
D10*
G36*
X138558531Y-94456013D02*
X138579766Y-94459163D01*
X138600590Y-94464379D01*
X138620802Y-94471611D01*
X138640208Y-94480790D01*
X138658621Y-94491826D01*
X138675864Y-94504614D01*
X138691770Y-94519030D01*
X138706186Y-94534936D01*
X138718974Y-94552179D01*
X138730010Y-94570592D01*
X138739189Y-94589998D01*
X138746421Y-94610210D01*
X138751637Y-94631034D01*
X138754787Y-94652269D01*
X138755840Y-94673710D01*
X138755840Y-95186210D01*
X138754787Y-95207651D01*
X138751637Y-95228886D01*
X138746421Y-95249710D01*
X138739189Y-95269922D01*
X138730010Y-95289328D01*
X138718974Y-95307741D01*
X138706186Y-95324984D01*
X138691770Y-95340890D01*
X138675864Y-95355306D01*
X138658621Y-95368094D01*
X138640208Y-95379130D01*
X138620802Y-95388309D01*
X138600590Y-95395541D01*
X138579766Y-95400757D01*
X138558531Y-95403907D01*
X138537090Y-95404960D01*
X138099590Y-95404960D01*
X138078149Y-95403907D01*
X138056914Y-95400757D01*
X138036090Y-95395541D01*
X138015878Y-95388309D01*
X137996472Y-95379130D01*
X137978059Y-95368094D01*
X137960816Y-95355306D01*
X137944910Y-95340890D01*
X137930494Y-95324984D01*
X137917706Y-95307741D01*
X137906670Y-95289328D01*
X137897491Y-95269922D01*
X137890259Y-95249710D01*
X137885043Y-95228886D01*
X137881893Y-95207651D01*
X137880840Y-95186210D01*
X137880840Y-94673710D01*
X137881893Y-94652269D01*
X137885043Y-94631034D01*
X137890259Y-94610210D01*
X137897491Y-94589998D01*
X137906670Y-94570592D01*
X137917706Y-94552179D01*
X137930494Y-94534936D01*
X137944910Y-94519030D01*
X137960816Y-94504614D01*
X137978059Y-94491826D01*
X137996472Y-94480790D01*
X138015878Y-94471611D01*
X138036090Y-94464379D01*
X138056914Y-94459163D01*
X138078149Y-94456013D01*
X138099590Y-94454960D01*
X138537090Y-94454960D01*
X138558531Y-94456013D01*
X138558531Y-94456013D01*
G37*
D11*
X138318340Y-94929960D03*
G04 #@! TD*
D10*
G04 #@! TO.C,R20*
G36*
X150747991Y-88479393D02*
X150769226Y-88482543D01*
X150790050Y-88487759D01*
X150810262Y-88494991D01*
X150829668Y-88504170D01*
X150848081Y-88515206D01*
X150865324Y-88527994D01*
X150881230Y-88542410D01*
X150895646Y-88558316D01*
X150908434Y-88575559D01*
X150919470Y-88593972D01*
X150928649Y-88613378D01*
X150935881Y-88633590D01*
X150941097Y-88654414D01*
X150944247Y-88675649D01*
X150945300Y-88697090D01*
X150945300Y-89209590D01*
X150944247Y-89231031D01*
X150941097Y-89252266D01*
X150935881Y-89273090D01*
X150928649Y-89293302D01*
X150919470Y-89312708D01*
X150908434Y-89331121D01*
X150895646Y-89348364D01*
X150881230Y-89364270D01*
X150865324Y-89378686D01*
X150848081Y-89391474D01*
X150829668Y-89402510D01*
X150810262Y-89411689D01*
X150790050Y-89418921D01*
X150769226Y-89424137D01*
X150747991Y-89427287D01*
X150726550Y-89428340D01*
X150289050Y-89428340D01*
X150267609Y-89427287D01*
X150246374Y-89424137D01*
X150225550Y-89418921D01*
X150205338Y-89411689D01*
X150185932Y-89402510D01*
X150167519Y-89391474D01*
X150150276Y-89378686D01*
X150134370Y-89364270D01*
X150119954Y-89348364D01*
X150107166Y-89331121D01*
X150096130Y-89312708D01*
X150086951Y-89293302D01*
X150079719Y-89273090D01*
X150074503Y-89252266D01*
X150071353Y-89231031D01*
X150070300Y-89209590D01*
X150070300Y-88697090D01*
X150071353Y-88675649D01*
X150074503Y-88654414D01*
X150079719Y-88633590D01*
X150086951Y-88613378D01*
X150096130Y-88593972D01*
X150107166Y-88575559D01*
X150119954Y-88558316D01*
X150134370Y-88542410D01*
X150150276Y-88527994D01*
X150167519Y-88515206D01*
X150185932Y-88504170D01*
X150205338Y-88494991D01*
X150225550Y-88487759D01*
X150246374Y-88482543D01*
X150267609Y-88479393D01*
X150289050Y-88478340D01*
X150726550Y-88478340D01*
X150747991Y-88479393D01*
X150747991Y-88479393D01*
G37*
D11*
X150507800Y-88953340D03*
D10*
G36*
X149172991Y-88479393D02*
X149194226Y-88482543D01*
X149215050Y-88487759D01*
X149235262Y-88494991D01*
X149254668Y-88504170D01*
X149273081Y-88515206D01*
X149290324Y-88527994D01*
X149306230Y-88542410D01*
X149320646Y-88558316D01*
X149333434Y-88575559D01*
X149344470Y-88593972D01*
X149353649Y-88613378D01*
X149360881Y-88633590D01*
X149366097Y-88654414D01*
X149369247Y-88675649D01*
X149370300Y-88697090D01*
X149370300Y-89209590D01*
X149369247Y-89231031D01*
X149366097Y-89252266D01*
X149360881Y-89273090D01*
X149353649Y-89293302D01*
X149344470Y-89312708D01*
X149333434Y-89331121D01*
X149320646Y-89348364D01*
X149306230Y-89364270D01*
X149290324Y-89378686D01*
X149273081Y-89391474D01*
X149254668Y-89402510D01*
X149235262Y-89411689D01*
X149215050Y-89418921D01*
X149194226Y-89424137D01*
X149172991Y-89427287D01*
X149151550Y-89428340D01*
X148714050Y-89428340D01*
X148692609Y-89427287D01*
X148671374Y-89424137D01*
X148650550Y-89418921D01*
X148630338Y-89411689D01*
X148610932Y-89402510D01*
X148592519Y-89391474D01*
X148575276Y-89378686D01*
X148559370Y-89364270D01*
X148544954Y-89348364D01*
X148532166Y-89331121D01*
X148521130Y-89312708D01*
X148511951Y-89293302D01*
X148504719Y-89273090D01*
X148499503Y-89252266D01*
X148496353Y-89231031D01*
X148495300Y-89209590D01*
X148495300Y-88697090D01*
X148496353Y-88675649D01*
X148499503Y-88654414D01*
X148504719Y-88633590D01*
X148511951Y-88613378D01*
X148521130Y-88593972D01*
X148532166Y-88575559D01*
X148544954Y-88558316D01*
X148559370Y-88542410D01*
X148575276Y-88527994D01*
X148592519Y-88515206D01*
X148610932Y-88504170D01*
X148630338Y-88494991D01*
X148650550Y-88487759D01*
X148671374Y-88482543D01*
X148692609Y-88479393D01*
X148714050Y-88478340D01*
X149151550Y-88478340D01*
X149172991Y-88479393D01*
X149172991Y-88479393D01*
G37*
D11*
X148932800Y-88953340D03*
G04 #@! TD*
D10*
G04 #@! TO.C,R19*
G36*
X135692711Y-117416913D02*
X135713946Y-117420063D01*
X135734770Y-117425279D01*
X135754982Y-117432511D01*
X135774388Y-117441690D01*
X135792801Y-117452726D01*
X135810044Y-117465514D01*
X135825950Y-117479930D01*
X135840366Y-117495836D01*
X135853154Y-117513079D01*
X135864190Y-117531492D01*
X135873369Y-117550898D01*
X135880601Y-117571110D01*
X135885817Y-117591934D01*
X135888967Y-117613169D01*
X135890020Y-117634610D01*
X135890020Y-118072110D01*
X135888967Y-118093551D01*
X135885817Y-118114786D01*
X135880601Y-118135610D01*
X135873369Y-118155822D01*
X135864190Y-118175228D01*
X135853154Y-118193641D01*
X135840366Y-118210884D01*
X135825950Y-118226790D01*
X135810044Y-118241206D01*
X135792801Y-118253994D01*
X135774388Y-118265030D01*
X135754982Y-118274209D01*
X135734770Y-118281441D01*
X135713946Y-118286657D01*
X135692711Y-118289807D01*
X135671270Y-118290860D01*
X135158770Y-118290860D01*
X135137329Y-118289807D01*
X135116094Y-118286657D01*
X135095270Y-118281441D01*
X135075058Y-118274209D01*
X135055652Y-118265030D01*
X135037239Y-118253994D01*
X135019996Y-118241206D01*
X135004090Y-118226790D01*
X134989674Y-118210884D01*
X134976886Y-118193641D01*
X134965850Y-118175228D01*
X134956671Y-118155822D01*
X134949439Y-118135610D01*
X134944223Y-118114786D01*
X134941073Y-118093551D01*
X134940020Y-118072110D01*
X134940020Y-117634610D01*
X134941073Y-117613169D01*
X134944223Y-117591934D01*
X134949439Y-117571110D01*
X134956671Y-117550898D01*
X134965850Y-117531492D01*
X134976886Y-117513079D01*
X134989674Y-117495836D01*
X135004090Y-117479930D01*
X135019996Y-117465514D01*
X135037239Y-117452726D01*
X135055652Y-117441690D01*
X135075058Y-117432511D01*
X135095270Y-117425279D01*
X135116094Y-117420063D01*
X135137329Y-117416913D01*
X135158770Y-117415860D01*
X135671270Y-117415860D01*
X135692711Y-117416913D01*
X135692711Y-117416913D01*
G37*
D11*
X135415020Y-117853360D03*
D10*
G36*
X135692711Y-118991913D02*
X135713946Y-118995063D01*
X135734770Y-119000279D01*
X135754982Y-119007511D01*
X135774388Y-119016690D01*
X135792801Y-119027726D01*
X135810044Y-119040514D01*
X135825950Y-119054930D01*
X135840366Y-119070836D01*
X135853154Y-119088079D01*
X135864190Y-119106492D01*
X135873369Y-119125898D01*
X135880601Y-119146110D01*
X135885817Y-119166934D01*
X135888967Y-119188169D01*
X135890020Y-119209610D01*
X135890020Y-119647110D01*
X135888967Y-119668551D01*
X135885817Y-119689786D01*
X135880601Y-119710610D01*
X135873369Y-119730822D01*
X135864190Y-119750228D01*
X135853154Y-119768641D01*
X135840366Y-119785884D01*
X135825950Y-119801790D01*
X135810044Y-119816206D01*
X135792801Y-119828994D01*
X135774388Y-119840030D01*
X135754982Y-119849209D01*
X135734770Y-119856441D01*
X135713946Y-119861657D01*
X135692711Y-119864807D01*
X135671270Y-119865860D01*
X135158770Y-119865860D01*
X135137329Y-119864807D01*
X135116094Y-119861657D01*
X135095270Y-119856441D01*
X135075058Y-119849209D01*
X135055652Y-119840030D01*
X135037239Y-119828994D01*
X135019996Y-119816206D01*
X135004090Y-119801790D01*
X134989674Y-119785884D01*
X134976886Y-119768641D01*
X134965850Y-119750228D01*
X134956671Y-119730822D01*
X134949439Y-119710610D01*
X134944223Y-119689786D01*
X134941073Y-119668551D01*
X134940020Y-119647110D01*
X134940020Y-119209610D01*
X134941073Y-119188169D01*
X134944223Y-119166934D01*
X134949439Y-119146110D01*
X134956671Y-119125898D01*
X134965850Y-119106492D01*
X134976886Y-119088079D01*
X134989674Y-119070836D01*
X135004090Y-119054930D01*
X135019996Y-119040514D01*
X135037239Y-119027726D01*
X135055652Y-119016690D01*
X135075058Y-119007511D01*
X135095270Y-119000279D01*
X135116094Y-118995063D01*
X135137329Y-118991913D01*
X135158770Y-118990860D01*
X135671270Y-118990860D01*
X135692711Y-118991913D01*
X135692711Y-118991913D01*
G37*
D11*
X135415020Y-119428360D03*
G04 #@! TD*
D10*
G04 #@! TO.C,R14*
G36*
X142970311Y-101049853D02*
X142991546Y-101053003D01*
X143012370Y-101058219D01*
X143032582Y-101065451D01*
X143051988Y-101074630D01*
X143070401Y-101085666D01*
X143087644Y-101098454D01*
X143103550Y-101112870D01*
X143117966Y-101128776D01*
X143130754Y-101146019D01*
X143141790Y-101164432D01*
X143150969Y-101183838D01*
X143158201Y-101204050D01*
X143163417Y-101224874D01*
X143166567Y-101246109D01*
X143167620Y-101267550D01*
X143167620Y-101780050D01*
X143166567Y-101801491D01*
X143163417Y-101822726D01*
X143158201Y-101843550D01*
X143150969Y-101863762D01*
X143141790Y-101883168D01*
X143130754Y-101901581D01*
X143117966Y-101918824D01*
X143103550Y-101934730D01*
X143087644Y-101949146D01*
X143070401Y-101961934D01*
X143051988Y-101972970D01*
X143032582Y-101982149D01*
X143012370Y-101989381D01*
X142991546Y-101994597D01*
X142970311Y-101997747D01*
X142948870Y-101998800D01*
X142511370Y-101998800D01*
X142489929Y-101997747D01*
X142468694Y-101994597D01*
X142447870Y-101989381D01*
X142427658Y-101982149D01*
X142408252Y-101972970D01*
X142389839Y-101961934D01*
X142372596Y-101949146D01*
X142356690Y-101934730D01*
X142342274Y-101918824D01*
X142329486Y-101901581D01*
X142318450Y-101883168D01*
X142309271Y-101863762D01*
X142302039Y-101843550D01*
X142296823Y-101822726D01*
X142293673Y-101801491D01*
X142292620Y-101780050D01*
X142292620Y-101267550D01*
X142293673Y-101246109D01*
X142296823Y-101224874D01*
X142302039Y-101204050D01*
X142309271Y-101183838D01*
X142318450Y-101164432D01*
X142329486Y-101146019D01*
X142342274Y-101128776D01*
X142356690Y-101112870D01*
X142372596Y-101098454D01*
X142389839Y-101085666D01*
X142408252Y-101074630D01*
X142427658Y-101065451D01*
X142447870Y-101058219D01*
X142468694Y-101053003D01*
X142489929Y-101049853D01*
X142511370Y-101048800D01*
X142948870Y-101048800D01*
X142970311Y-101049853D01*
X142970311Y-101049853D01*
G37*
D11*
X142730120Y-101523800D03*
D10*
G36*
X144545311Y-101049853D02*
X144566546Y-101053003D01*
X144587370Y-101058219D01*
X144607582Y-101065451D01*
X144626988Y-101074630D01*
X144645401Y-101085666D01*
X144662644Y-101098454D01*
X144678550Y-101112870D01*
X144692966Y-101128776D01*
X144705754Y-101146019D01*
X144716790Y-101164432D01*
X144725969Y-101183838D01*
X144733201Y-101204050D01*
X144738417Y-101224874D01*
X144741567Y-101246109D01*
X144742620Y-101267550D01*
X144742620Y-101780050D01*
X144741567Y-101801491D01*
X144738417Y-101822726D01*
X144733201Y-101843550D01*
X144725969Y-101863762D01*
X144716790Y-101883168D01*
X144705754Y-101901581D01*
X144692966Y-101918824D01*
X144678550Y-101934730D01*
X144662644Y-101949146D01*
X144645401Y-101961934D01*
X144626988Y-101972970D01*
X144607582Y-101982149D01*
X144587370Y-101989381D01*
X144566546Y-101994597D01*
X144545311Y-101997747D01*
X144523870Y-101998800D01*
X144086370Y-101998800D01*
X144064929Y-101997747D01*
X144043694Y-101994597D01*
X144022870Y-101989381D01*
X144002658Y-101982149D01*
X143983252Y-101972970D01*
X143964839Y-101961934D01*
X143947596Y-101949146D01*
X143931690Y-101934730D01*
X143917274Y-101918824D01*
X143904486Y-101901581D01*
X143893450Y-101883168D01*
X143884271Y-101863762D01*
X143877039Y-101843550D01*
X143871823Y-101822726D01*
X143868673Y-101801491D01*
X143867620Y-101780050D01*
X143867620Y-101267550D01*
X143868673Y-101246109D01*
X143871823Y-101224874D01*
X143877039Y-101204050D01*
X143884271Y-101183838D01*
X143893450Y-101164432D01*
X143904486Y-101146019D01*
X143917274Y-101128776D01*
X143931690Y-101112870D01*
X143947596Y-101098454D01*
X143964839Y-101085666D01*
X143983252Y-101074630D01*
X144002658Y-101065451D01*
X144022870Y-101058219D01*
X144043694Y-101053003D01*
X144064929Y-101049853D01*
X144086370Y-101048800D01*
X144523870Y-101048800D01*
X144545311Y-101049853D01*
X144545311Y-101049853D01*
G37*
D11*
X144305120Y-101523800D03*
G04 #@! TD*
D10*
G04 #@! TO.C,R10*
G36*
X146358171Y-113329953D02*
X146379406Y-113333103D01*
X146400230Y-113338319D01*
X146420442Y-113345551D01*
X146439848Y-113354730D01*
X146458261Y-113365766D01*
X146475504Y-113378554D01*
X146491410Y-113392970D01*
X146505826Y-113408876D01*
X146518614Y-113426119D01*
X146529650Y-113444532D01*
X146538829Y-113463938D01*
X146546061Y-113484150D01*
X146551277Y-113504974D01*
X146554427Y-113526209D01*
X146555480Y-113547650D01*
X146555480Y-113985150D01*
X146554427Y-114006591D01*
X146551277Y-114027826D01*
X146546061Y-114048650D01*
X146538829Y-114068862D01*
X146529650Y-114088268D01*
X146518614Y-114106681D01*
X146505826Y-114123924D01*
X146491410Y-114139830D01*
X146475504Y-114154246D01*
X146458261Y-114167034D01*
X146439848Y-114178070D01*
X146420442Y-114187249D01*
X146400230Y-114194481D01*
X146379406Y-114199697D01*
X146358171Y-114202847D01*
X146336730Y-114203900D01*
X145824230Y-114203900D01*
X145802789Y-114202847D01*
X145781554Y-114199697D01*
X145760730Y-114194481D01*
X145740518Y-114187249D01*
X145721112Y-114178070D01*
X145702699Y-114167034D01*
X145685456Y-114154246D01*
X145669550Y-114139830D01*
X145655134Y-114123924D01*
X145642346Y-114106681D01*
X145631310Y-114088268D01*
X145622131Y-114068862D01*
X145614899Y-114048650D01*
X145609683Y-114027826D01*
X145606533Y-114006591D01*
X145605480Y-113985150D01*
X145605480Y-113547650D01*
X145606533Y-113526209D01*
X145609683Y-113504974D01*
X145614899Y-113484150D01*
X145622131Y-113463938D01*
X145631310Y-113444532D01*
X145642346Y-113426119D01*
X145655134Y-113408876D01*
X145669550Y-113392970D01*
X145685456Y-113378554D01*
X145702699Y-113365766D01*
X145721112Y-113354730D01*
X145740518Y-113345551D01*
X145760730Y-113338319D01*
X145781554Y-113333103D01*
X145802789Y-113329953D01*
X145824230Y-113328900D01*
X146336730Y-113328900D01*
X146358171Y-113329953D01*
X146358171Y-113329953D01*
G37*
D11*
X146080480Y-113766400D03*
D10*
G36*
X146358171Y-114904953D02*
X146379406Y-114908103D01*
X146400230Y-114913319D01*
X146420442Y-114920551D01*
X146439848Y-114929730D01*
X146458261Y-114940766D01*
X146475504Y-114953554D01*
X146491410Y-114967970D01*
X146505826Y-114983876D01*
X146518614Y-115001119D01*
X146529650Y-115019532D01*
X146538829Y-115038938D01*
X146546061Y-115059150D01*
X146551277Y-115079974D01*
X146554427Y-115101209D01*
X146555480Y-115122650D01*
X146555480Y-115560150D01*
X146554427Y-115581591D01*
X146551277Y-115602826D01*
X146546061Y-115623650D01*
X146538829Y-115643862D01*
X146529650Y-115663268D01*
X146518614Y-115681681D01*
X146505826Y-115698924D01*
X146491410Y-115714830D01*
X146475504Y-115729246D01*
X146458261Y-115742034D01*
X146439848Y-115753070D01*
X146420442Y-115762249D01*
X146400230Y-115769481D01*
X146379406Y-115774697D01*
X146358171Y-115777847D01*
X146336730Y-115778900D01*
X145824230Y-115778900D01*
X145802789Y-115777847D01*
X145781554Y-115774697D01*
X145760730Y-115769481D01*
X145740518Y-115762249D01*
X145721112Y-115753070D01*
X145702699Y-115742034D01*
X145685456Y-115729246D01*
X145669550Y-115714830D01*
X145655134Y-115698924D01*
X145642346Y-115681681D01*
X145631310Y-115663268D01*
X145622131Y-115643862D01*
X145614899Y-115623650D01*
X145609683Y-115602826D01*
X145606533Y-115581591D01*
X145605480Y-115560150D01*
X145605480Y-115122650D01*
X145606533Y-115101209D01*
X145609683Y-115079974D01*
X145614899Y-115059150D01*
X145622131Y-115038938D01*
X145631310Y-115019532D01*
X145642346Y-115001119D01*
X145655134Y-114983876D01*
X145669550Y-114967970D01*
X145685456Y-114953554D01*
X145702699Y-114940766D01*
X145721112Y-114929730D01*
X145740518Y-114920551D01*
X145760730Y-114913319D01*
X145781554Y-114908103D01*
X145802789Y-114904953D01*
X145824230Y-114903900D01*
X146336730Y-114903900D01*
X146358171Y-114904953D01*
X146358171Y-114904953D01*
G37*
D11*
X146080480Y-115341400D03*
G04 #@! TD*
D10*
G04 #@! TO.C,R9*
G36*
X144879891Y-113329953D02*
X144901126Y-113333103D01*
X144921950Y-113338319D01*
X144942162Y-113345551D01*
X144961568Y-113354730D01*
X144979981Y-113365766D01*
X144997224Y-113378554D01*
X145013130Y-113392970D01*
X145027546Y-113408876D01*
X145040334Y-113426119D01*
X145051370Y-113444532D01*
X145060549Y-113463938D01*
X145067781Y-113484150D01*
X145072997Y-113504974D01*
X145076147Y-113526209D01*
X145077200Y-113547650D01*
X145077200Y-113985150D01*
X145076147Y-114006591D01*
X145072997Y-114027826D01*
X145067781Y-114048650D01*
X145060549Y-114068862D01*
X145051370Y-114088268D01*
X145040334Y-114106681D01*
X145027546Y-114123924D01*
X145013130Y-114139830D01*
X144997224Y-114154246D01*
X144979981Y-114167034D01*
X144961568Y-114178070D01*
X144942162Y-114187249D01*
X144921950Y-114194481D01*
X144901126Y-114199697D01*
X144879891Y-114202847D01*
X144858450Y-114203900D01*
X144345950Y-114203900D01*
X144324509Y-114202847D01*
X144303274Y-114199697D01*
X144282450Y-114194481D01*
X144262238Y-114187249D01*
X144242832Y-114178070D01*
X144224419Y-114167034D01*
X144207176Y-114154246D01*
X144191270Y-114139830D01*
X144176854Y-114123924D01*
X144164066Y-114106681D01*
X144153030Y-114088268D01*
X144143851Y-114068862D01*
X144136619Y-114048650D01*
X144131403Y-114027826D01*
X144128253Y-114006591D01*
X144127200Y-113985150D01*
X144127200Y-113547650D01*
X144128253Y-113526209D01*
X144131403Y-113504974D01*
X144136619Y-113484150D01*
X144143851Y-113463938D01*
X144153030Y-113444532D01*
X144164066Y-113426119D01*
X144176854Y-113408876D01*
X144191270Y-113392970D01*
X144207176Y-113378554D01*
X144224419Y-113365766D01*
X144242832Y-113354730D01*
X144262238Y-113345551D01*
X144282450Y-113338319D01*
X144303274Y-113333103D01*
X144324509Y-113329953D01*
X144345950Y-113328900D01*
X144858450Y-113328900D01*
X144879891Y-113329953D01*
X144879891Y-113329953D01*
G37*
D11*
X144602200Y-113766400D03*
D10*
G36*
X144879891Y-114904953D02*
X144901126Y-114908103D01*
X144921950Y-114913319D01*
X144942162Y-114920551D01*
X144961568Y-114929730D01*
X144979981Y-114940766D01*
X144997224Y-114953554D01*
X145013130Y-114967970D01*
X145027546Y-114983876D01*
X145040334Y-115001119D01*
X145051370Y-115019532D01*
X145060549Y-115038938D01*
X145067781Y-115059150D01*
X145072997Y-115079974D01*
X145076147Y-115101209D01*
X145077200Y-115122650D01*
X145077200Y-115560150D01*
X145076147Y-115581591D01*
X145072997Y-115602826D01*
X145067781Y-115623650D01*
X145060549Y-115643862D01*
X145051370Y-115663268D01*
X145040334Y-115681681D01*
X145027546Y-115698924D01*
X145013130Y-115714830D01*
X144997224Y-115729246D01*
X144979981Y-115742034D01*
X144961568Y-115753070D01*
X144942162Y-115762249D01*
X144921950Y-115769481D01*
X144901126Y-115774697D01*
X144879891Y-115777847D01*
X144858450Y-115778900D01*
X144345950Y-115778900D01*
X144324509Y-115777847D01*
X144303274Y-115774697D01*
X144282450Y-115769481D01*
X144262238Y-115762249D01*
X144242832Y-115753070D01*
X144224419Y-115742034D01*
X144207176Y-115729246D01*
X144191270Y-115714830D01*
X144176854Y-115698924D01*
X144164066Y-115681681D01*
X144153030Y-115663268D01*
X144143851Y-115643862D01*
X144136619Y-115623650D01*
X144131403Y-115602826D01*
X144128253Y-115581591D01*
X144127200Y-115560150D01*
X144127200Y-115122650D01*
X144128253Y-115101209D01*
X144131403Y-115079974D01*
X144136619Y-115059150D01*
X144143851Y-115038938D01*
X144153030Y-115019532D01*
X144164066Y-115001119D01*
X144176854Y-114983876D01*
X144191270Y-114967970D01*
X144207176Y-114953554D01*
X144224419Y-114940766D01*
X144242832Y-114929730D01*
X144262238Y-114920551D01*
X144282450Y-114913319D01*
X144303274Y-114908103D01*
X144324509Y-114904953D01*
X144345950Y-114903900D01*
X144858450Y-114903900D01*
X144879891Y-114904953D01*
X144879891Y-114904953D01*
G37*
D11*
X144602200Y-115341400D03*
G04 #@! TD*
D10*
G04 #@! TO.C,R8*
G36*
X134377691Y-100491053D02*
X134398926Y-100494203D01*
X134419750Y-100499419D01*
X134439962Y-100506651D01*
X134459368Y-100515830D01*
X134477781Y-100526866D01*
X134495024Y-100539654D01*
X134510930Y-100554070D01*
X134525346Y-100569976D01*
X134538134Y-100587219D01*
X134549170Y-100605632D01*
X134558349Y-100625038D01*
X134565581Y-100645250D01*
X134570797Y-100666074D01*
X134573947Y-100687309D01*
X134575000Y-100708750D01*
X134575000Y-101221250D01*
X134573947Y-101242691D01*
X134570797Y-101263926D01*
X134565581Y-101284750D01*
X134558349Y-101304962D01*
X134549170Y-101324368D01*
X134538134Y-101342781D01*
X134525346Y-101360024D01*
X134510930Y-101375930D01*
X134495024Y-101390346D01*
X134477781Y-101403134D01*
X134459368Y-101414170D01*
X134439962Y-101423349D01*
X134419750Y-101430581D01*
X134398926Y-101435797D01*
X134377691Y-101438947D01*
X134356250Y-101440000D01*
X133918750Y-101440000D01*
X133897309Y-101438947D01*
X133876074Y-101435797D01*
X133855250Y-101430581D01*
X133835038Y-101423349D01*
X133815632Y-101414170D01*
X133797219Y-101403134D01*
X133779976Y-101390346D01*
X133764070Y-101375930D01*
X133749654Y-101360024D01*
X133736866Y-101342781D01*
X133725830Y-101324368D01*
X133716651Y-101304962D01*
X133709419Y-101284750D01*
X133704203Y-101263926D01*
X133701053Y-101242691D01*
X133700000Y-101221250D01*
X133700000Y-100708750D01*
X133701053Y-100687309D01*
X133704203Y-100666074D01*
X133709419Y-100645250D01*
X133716651Y-100625038D01*
X133725830Y-100605632D01*
X133736866Y-100587219D01*
X133749654Y-100569976D01*
X133764070Y-100554070D01*
X133779976Y-100539654D01*
X133797219Y-100526866D01*
X133815632Y-100515830D01*
X133835038Y-100506651D01*
X133855250Y-100499419D01*
X133876074Y-100494203D01*
X133897309Y-100491053D01*
X133918750Y-100490000D01*
X134356250Y-100490000D01*
X134377691Y-100491053D01*
X134377691Y-100491053D01*
G37*
D11*
X134137500Y-100965000D03*
D10*
G36*
X132802691Y-100491053D02*
X132823926Y-100494203D01*
X132844750Y-100499419D01*
X132864962Y-100506651D01*
X132884368Y-100515830D01*
X132902781Y-100526866D01*
X132920024Y-100539654D01*
X132935930Y-100554070D01*
X132950346Y-100569976D01*
X132963134Y-100587219D01*
X132974170Y-100605632D01*
X132983349Y-100625038D01*
X132990581Y-100645250D01*
X132995797Y-100666074D01*
X132998947Y-100687309D01*
X133000000Y-100708750D01*
X133000000Y-101221250D01*
X132998947Y-101242691D01*
X132995797Y-101263926D01*
X132990581Y-101284750D01*
X132983349Y-101304962D01*
X132974170Y-101324368D01*
X132963134Y-101342781D01*
X132950346Y-101360024D01*
X132935930Y-101375930D01*
X132920024Y-101390346D01*
X132902781Y-101403134D01*
X132884368Y-101414170D01*
X132864962Y-101423349D01*
X132844750Y-101430581D01*
X132823926Y-101435797D01*
X132802691Y-101438947D01*
X132781250Y-101440000D01*
X132343750Y-101440000D01*
X132322309Y-101438947D01*
X132301074Y-101435797D01*
X132280250Y-101430581D01*
X132260038Y-101423349D01*
X132240632Y-101414170D01*
X132222219Y-101403134D01*
X132204976Y-101390346D01*
X132189070Y-101375930D01*
X132174654Y-101360024D01*
X132161866Y-101342781D01*
X132150830Y-101324368D01*
X132141651Y-101304962D01*
X132134419Y-101284750D01*
X132129203Y-101263926D01*
X132126053Y-101242691D01*
X132125000Y-101221250D01*
X132125000Y-100708750D01*
X132126053Y-100687309D01*
X132129203Y-100666074D01*
X132134419Y-100645250D01*
X132141651Y-100625038D01*
X132150830Y-100605632D01*
X132161866Y-100587219D01*
X132174654Y-100569976D01*
X132189070Y-100554070D01*
X132204976Y-100539654D01*
X132222219Y-100526866D01*
X132240632Y-100515830D01*
X132260038Y-100506651D01*
X132280250Y-100499419D01*
X132301074Y-100494203D01*
X132322309Y-100491053D01*
X132343750Y-100490000D01*
X132781250Y-100490000D01*
X132802691Y-100491053D01*
X132802691Y-100491053D01*
G37*
D11*
X132562500Y-100965000D03*
G04 #@! TD*
D10*
G04 #@! TO.C,R5*
G36*
X149172991Y-91377533D02*
X149194226Y-91380683D01*
X149215050Y-91385899D01*
X149235262Y-91393131D01*
X149254668Y-91402310D01*
X149273081Y-91413346D01*
X149290324Y-91426134D01*
X149306230Y-91440550D01*
X149320646Y-91456456D01*
X149333434Y-91473699D01*
X149344470Y-91492112D01*
X149353649Y-91511518D01*
X149360881Y-91531730D01*
X149366097Y-91552554D01*
X149369247Y-91573789D01*
X149370300Y-91595230D01*
X149370300Y-92107730D01*
X149369247Y-92129171D01*
X149366097Y-92150406D01*
X149360881Y-92171230D01*
X149353649Y-92191442D01*
X149344470Y-92210848D01*
X149333434Y-92229261D01*
X149320646Y-92246504D01*
X149306230Y-92262410D01*
X149290324Y-92276826D01*
X149273081Y-92289614D01*
X149254668Y-92300650D01*
X149235262Y-92309829D01*
X149215050Y-92317061D01*
X149194226Y-92322277D01*
X149172991Y-92325427D01*
X149151550Y-92326480D01*
X148714050Y-92326480D01*
X148692609Y-92325427D01*
X148671374Y-92322277D01*
X148650550Y-92317061D01*
X148630338Y-92309829D01*
X148610932Y-92300650D01*
X148592519Y-92289614D01*
X148575276Y-92276826D01*
X148559370Y-92262410D01*
X148544954Y-92246504D01*
X148532166Y-92229261D01*
X148521130Y-92210848D01*
X148511951Y-92191442D01*
X148504719Y-92171230D01*
X148499503Y-92150406D01*
X148496353Y-92129171D01*
X148495300Y-92107730D01*
X148495300Y-91595230D01*
X148496353Y-91573789D01*
X148499503Y-91552554D01*
X148504719Y-91531730D01*
X148511951Y-91511518D01*
X148521130Y-91492112D01*
X148532166Y-91473699D01*
X148544954Y-91456456D01*
X148559370Y-91440550D01*
X148575276Y-91426134D01*
X148592519Y-91413346D01*
X148610932Y-91402310D01*
X148630338Y-91393131D01*
X148650550Y-91385899D01*
X148671374Y-91380683D01*
X148692609Y-91377533D01*
X148714050Y-91376480D01*
X149151550Y-91376480D01*
X149172991Y-91377533D01*
X149172991Y-91377533D01*
G37*
D11*
X148932800Y-91851480D03*
D10*
G36*
X150747991Y-91377533D02*
X150769226Y-91380683D01*
X150790050Y-91385899D01*
X150810262Y-91393131D01*
X150829668Y-91402310D01*
X150848081Y-91413346D01*
X150865324Y-91426134D01*
X150881230Y-91440550D01*
X150895646Y-91456456D01*
X150908434Y-91473699D01*
X150919470Y-91492112D01*
X150928649Y-91511518D01*
X150935881Y-91531730D01*
X150941097Y-91552554D01*
X150944247Y-91573789D01*
X150945300Y-91595230D01*
X150945300Y-92107730D01*
X150944247Y-92129171D01*
X150941097Y-92150406D01*
X150935881Y-92171230D01*
X150928649Y-92191442D01*
X150919470Y-92210848D01*
X150908434Y-92229261D01*
X150895646Y-92246504D01*
X150881230Y-92262410D01*
X150865324Y-92276826D01*
X150848081Y-92289614D01*
X150829668Y-92300650D01*
X150810262Y-92309829D01*
X150790050Y-92317061D01*
X150769226Y-92322277D01*
X150747991Y-92325427D01*
X150726550Y-92326480D01*
X150289050Y-92326480D01*
X150267609Y-92325427D01*
X150246374Y-92322277D01*
X150225550Y-92317061D01*
X150205338Y-92309829D01*
X150185932Y-92300650D01*
X150167519Y-92289614D01*
X150150276Y-92276826D01*
X150134370Y-92262410D01*
X150119954Y-92246504D01*
X150107166Y-92229261D01*
X150096130Y-92210848D01*
X150086951Y-92191442D01*
X150079719Y-92171230D01*
X150074503Y-92150406D01*
X150071353Y-92129171D01*
X150070300Y-92107730D01*
X150070300Y-91595230D01*
X150071353Y-91573789D01*
X150074503Y-91552554D01*
X150079719Y-91531730D01*
X150086951Y-91511518D01*
X150096130Y-91492112D01*
X150107166Y-91473699D01*
X150119954Y-91456456D01*
X150134370Y-91440550D01*
X150150276Y-91426134D01*
X150167519Y-91413346D01*
X150185932Y-91402310D01*
X150205338Y-91393131D01*
X150225550Y-91385899D01*
X150246374Y-91380683D01*
X150267609Y-91377533D01*
X150289050Y-91376480D01*
X150726550Y-91376480D01*
X150747991Y-91377533D01*
X150747991Y-91377533D01*
G37*
D11*
X150507800Y-91851480D03*
G04 #@! TD*
D10*
G04 #@! TO.C,R4*
G36*
X136975911Y-95901273D02*
X136997146Y-95904423D01*
X137017970Y-95909639D01*
X137038182Y-95916871D01*
X137057588Y-95926050D01*
X137076001Y-95937086D01*
X137093244Y-95949874D01*
X137109150Y-95964290D01*
X137123566Y-95980196D01*
X137136354Y-95997439D01*
X137147390Y-96015852D01*
X137156569Y-96035258D01*
X137163801Y-96055470D01*
X137169017Y-96076294D01*
X137172167Y-96097529D01*
X137173220Y-96118970D01*
X137173220Y-96631470D01*
X137172167Y-96652911D01*
X137169017Y-96674146D01*
X137163801Y-96694970D01*
X137156569Y-96715182D01*
X137147390Y-96734588D01*
X137136354Y-96753001D01*
X137123566Y-96770244D01*
X137109150Y-96786150D01*
X137093244Y-96800566D01*
X137076001Y-96813354D01*
X137057588Y-96824390D01*
X137038182Y-96833569D01*
X137017970Y-96840801D01*
X136997146Y-96846017D01*
X136975911Y-96849167D01*
X136954470Y-96850220D01*
X136516970Y-96850220D01*
X136495529Y-96849167D01*
X136474294Y-96846017D01*
X136453470Y-96840801D01*
X136433258Y-96833569D01*
X136413852Y-96824390D01*
X136395439Y-96813354D01*
X136378196Y-96800566D01*
X136362290Y-96786150D01*
X136347874Y-96770244D01*
X136335086Y-96753001D01*
X136324050Y-96734588D01*
X136314871Y-96715182D01*
X136307639Y-96694970D01*
X136302423Y-96674146D01*
X136299273Y-96652911D01*
X136298220Y-96631470D01*
X136298220Y-96118970D01*
X136299273Y-96097529D01*
X136302423Y-96076294D01*
X136307639Y-96055470D01*
X136314871Y-96035258D01*
X136324050Y-96015852D01*
X136335086Y-95997439D01*
X136347874Y-95980196D01*
X136362290Y-95964290D01*
X136378196Y-95949874D01*
X136395439Y-95937086D01*
X136413852Y-95926050D01*
X136433258Y-95916871D01*
X136453470Y-95909639D01*
X136474294Y-95904423D01*
X136495529Y-95901273D01*
X136516970Y-95900220D01*
X136954470Y-95900220D01*
X136975911Y-95901273D01*
X136975911Y-95901273D01*
G37*
D11*
X136735720Y-96375220D03*
D10*
G36*
X138550911Y-95901273D02*
X138572146Y-95904423D01*
X138592970Y-95909639D01*
X138613182Y-95916871D01*
X138632588Y-95926050D01*
X138651001Y-95937086D01*
X138668244Y-95949874D01*
X138684150Y-95964290D01*
X138698566Y-95980196D01*
X138711354Y-95997439D01*
X138722390Y-96015852D01*
X138731569Y-96035258D01*
X138738801Y-96055470D01*
X138744017Y-96076294D01*
X138747167Y-96097529D01*
X138748220Y-96118970D01*
X138748220Y-96631470D01*
X138747167Y-96652911D01*
X138744017Y-96674146D01*
X138738801Y-96694970D01*
X138731569Y-96715182D01*
X138722390Y-96734588D01*
X138711354Y-96753001D01*
X138698566Y-96770244D01*
X138684150Y-96786150D01*
X138668244Y-96800566D01*
X138651001Y-96813354D01*
X138632588Y-96824390D01*
X138613182Y-96833569D01*
X138592970Y-96840801D01*
X138572146Y-96846017D01*
X138550911Y-96849167D01*
X138529470Y-96850220D01*
X138091970Y-96850220D01*
X138070529Y-96849167D01*
X138049294Y-96846017D01*
X138028470Y-96840801D01*
X138008258Y-96833569D01*
X137988852Y-96824390D01*
X137970439Y-96813354D01*
X137953196Y-96800566D01*
X137937290Y-96786150D01*
X137922874Y-96770244D01*
X137910086Y-96753001D01*
X137899050Y-96734588D01*
X137889871Y-96715182D01*
X137882639Y-96694970D01*
X137877423Y-96674146D01*
X137874273Y-96652911D01*
X137873220Y-96631470D01*
X137873220Y-96118970D01*
X137874273Y-96097529D01*
X137877423Y-96076294D01*
X137882639Y-96055470D01*
X137889871Y-96035258D01*
X137899050Y-96015852D01*
X137910086Y-95997439D01*
X137922874Y-95980196D01*
X137937290Y-95964290D01*
X137953196Y-95949874D01*
X137970439Y-95937086D01*
X137988852Y-95926050D01*
X138008258Y-95916871D01*
X138028470Y-95909639D01*
X138049294Y-95904423D01*
X138070529Y-95901273D01*
X138091970Y-95900220D01*
X138529470Y-95900220D01*
X138550911Y-95901273D01*
X138550911Y-95901273D01*
G37*
D11*
X138310720Y-96375220D03*
G04 #@! TD*
D10*
G04 #@! TO.C,R1*
G36*
X150755711Y-92855813D02*
X150776946Y-92858963D01*
X150797770Y-92864179D01*
X150817982Y-92871411D01*
X150837388Y-92880590D01*
X150855801Y-92891626D01*
X150873044Y-92904414D01*
X150888950Y-92918830D01*
X150903366Y-92934736D01*
X150916154Y-92951979D01*
X150927190Y-92970392D01*
X150936369Y-92989798D01*
X150943601Y-93010010D01*
X150948817Y-93030834D01*
X150951967Y-93052069D01*
X150953020Y-93073510D01*
X150953020Y-93586010D01*
X150951967Y-93607451D01*
X150948817Y-93628686D01*
X150943601Y-93649510D01*
X150936369Y-93669722D01*
X150927190Y-93689128D01*
X150916154Y-93707541D01*
X150903366Y-93724784D01*
X150888950Y-93740690D01*
X150873044Y-93755106D01*
X150855801Y-93767894D01*
X150837388Y-93778930D01*
X150817982Y-93788109D01*
X150797770Y-93795341D01*
X150776946Y-93800557D01*
X150755711Y-93803707D01*
X150734270Y-93804760D01*
X150296770Y-93804760D01*
X150275329Y-93803707D01*
X150254094Y-93800557D01*
X150233270Y-93795341D01*
X150213058Y-93788109D01*
X150193652Y-93778930D01*
X150175239Y-93767894D01*
X150157996Y-93755106D01*
X150142090Y-93740690D01*
X150127674Y-93724784D01*
X150114886Y-93707541D01*
X150103850Y-93689128D01*
X150094671Y-93669722D01*
X150087439Y-93649510D01*
X150082223Y-93628686D01*
X150079073Y-93607451D01*
X150078020Y-93586010D01*
X150078020Y-93073510D01*
X150079073Y-93052069D01*
X150082223Y-93030834D01*
X150087439Y-93010010D01*
X150094671Y-92989798D01*
X150103850Y-92970392D01*
X150114886Y-92951979D01*
X150127674Y-92934736D01*
X150142090Y-92918830D01*
X150157996Y-92904414D01*
X150175239Y-92891626D01*
X150193652Y-92880590D01*
X150213058Y-92871411D01*
X150233270Y-92864179D01*
X150254094Y-92858963D01*
X150275329Y-92855813D01*
X150296770Y-92854760D01*
X150734270Y-92854760D01*
X150755711Y-92855813D01*
X150755711Y-92855813D01*
G37*
D11*
X150515520Y-93329760D03*
D10*
G36*
X149180711Y-92855813D02*
X149201946Y-92858963D01*
X149222770Y-92864179D01*
X149242982Y-92871411D01*
X149262388Y-92880590D01*
X149280801Y-92891626D01*
X149298044Y-92904414D01*
X149313950Y-92918830D01*
X149328366Y-92934736D01*
X149341154Y-92951979D01*
X149352190Y-92970392D01*
X149361369Y-92989798D01*
X149368601Y-93010010D01*
X149373817Y-93030834D01*
X149376967Y-93052069D01*
X149378020Y-93073510D01*
X149378020Y-93586010D01*
X149376967Y-93607451D01*
X149373817Y-93628686D01*
X149368601Y-93649510D01*
X149361369Y-93669722D01*
X149352190Y-93689128D01*
X149341154Y-93707541D01*
X149328366Y-93724784D01*
X149313950Y-93740690D01*
X149298044Y-93755106D01*
X149280801Y-93767894D01*
X149262388Y-93778930D01*
X149242982Y-93788109D01*
X149222770Y-93795341D01*
X149201946Y-93800557D01*
X149180711Y-93803707D01*
X149159270Y-93804760D01*
X148721770Y-93804760D01*
X148700329Y-93803707D01*
X148679094Y-93800557D01*
X148658270Y-93795341D01*
X148638058Y-93788109D01*
X148618652Y-93778930D01*
X148600239Y-93767894D01*
X148582996Y-93755106D01*
X148567090Y-93740690D01*
X148552674Y-93724784D01*
X148539886Y-93707541D01*
X148528850Y-93689128D01*
X148519671Y-93669722D01*
X148512439Y-93649510D01*
X148507223Y-93628686D01*
X148504073Y-93607451D01*
X148503020Y-93586010D01*
X148503020Y-93073510D01*
X148504073Y-93052069D01*
X148507223Y-93030834D01*
X148512439Y-93010010D01*
X148519671Y-92989798D01*
X148528850Y-92970392D01*
X148539886Y-92951979D01*
X148552674Y-92934736D01*
X148567090Y-92918830D01*
X148582996Y-92904414D01*
X148600239Y-92891626D01*
X148618652Y-92880590D01*
X148638058Y-92871411D01*
X148658270Y-92864179D01*
X148679094Y-92858963D01*
X148700329Y-92855813D01*
X148721770Y-92854760D01*
X149159270Y-92854760D01*
X149180711Y-92855813D01*
X149180711Y-92855813D01*
G37*
D11*
X148940520Y-93329760D03*
G04 #@! TD*
D10*
G04 #@! TO.C,R2*
G36*
X149177971Y-94336633D02*
X149199206Y-94339783D01*
X149220030Y-94344999D01*
X149240242Y-94352231D01*
X149259648Y-94361410D01*
X149278061Y-94372446D01*
X149295304Y-94385234D01*
X149311210Y-94399650D01*
X149325626Y-94415556D01*
X149338414Y-94432799D01*
X149349450Y-94451212D01*
X149358629Y-94470618D01*
X149365861Y-94490830D01*
X149371077Y-94511654D01*
X149374227Y-94532889D01*
X149375280Y-94554330D01*
X149375280Y-95066830D01*
X149374227Y-95088271D01*
X149371077Y-95109506D01*
X149365861Y-95130330D01*
X149358629Y-95150542D01*
X149349450Y-95169948D01*
X149338414Y-95188361D01*
X149325626Y-95205604D01*
X149311210Y-95221510D01*
X149295304Y-95235926D01*
X149278061Y-95248714D01*
X149259648Y-95259750D01*
X149240242Y-95268929D01*
X149220030Y-95276161D01*
X149199206Y-95281377D01*
X149177971Y-95284527D01*
X149156530Y-95285580D01*
X148719030Y-95285580D01*
X148697589Y-95284527D01*
X148676354Y-95281377D01*
X148655530Y-95276161D01*
X148635318Y-95268929D01*
X148615912Y-95259750D01*
X148597499Y-95248714D01*
X148580256Y-95235926D01*
X148564350Y-95221510D01*
X148549934Y-95205604D01*
X148537146Y-95188361D01*
X148526110Y-95169948D01*
X148516931Y-95150542D01*
X148509699Y-95130330D01*
X148504483Y-95109506D01*
X148501333Y-95088271D01*
X148500280Y-95066830D01*
X148500280Y-94554330D01*
X148501333Y-94532889D01*
X148504483Y-94511654D01*
X148509699Y-94490830D01*
X148516931Y-94470618D01*
X148526110Y-94451212D01*
X148537146Y-94432799D01*
X148549934Y-94415556D01*
X148564350Y-94399650D01*
X148580256Y-94385234D01*
X148597499Y-94372446D01*
X148615912Y-94361410D01*
X148635318Y-94352231D01*
X148655530Y-94344999D01*
X148676354Y-94339783D01*
X148697589Y-94336633D01*
X148719030Y-94335580D01*
X149156530Y-94335580D01*
X149177971Y-94336633D01*
X149177971Y-94336633D01*
G37*
D11*
X148937780Y-94810580D03*
D10*
G36*
X150752971Y-94336633D02*
X150774206Y-94339783D01*
X150795030Y-94344999D01*
X150815242Y-94352231D01*
X150834648Y-94361410D01*
X150853061Y-94372446D01*
X150870304Y-94385234D01*
X150886210Y-94399650D01*
X150900626Y-94415556D01*
X150913414Y-94432799D01*
X150924450Y-94451212D01*
X150933629Y-94470618D01*
X150940861Y-94490830D01*
X150946077Y-94511654D01*
X150949227Y-94532889D01*
X150950280Y-94554330D01*
X150950280Y-95066830D01*
X150949227Y-95088271D01*
X150946077Y-95109506D01*
X150940861Y-95130330D01*
X150933629Y-95150542D01*
X150924450Y-95169948D01*
X150913414Y-95188361D01*
X150900626Y-95205604D01*
X150886210Y-95221510D01*
X150870304Y-95235926D01*
X150853061Y-95248714D01*
X150834648Y-95259750D01*
X150815242Y-95268929D01*
X150795030Y-95276161D01*
X150774206Y-95281377D01*
X150752971Y-95284527D01*
X150731530Y-95285580D01*
X150294030Y-95285580D01*
X150272589Y-95284527D01*
X150251354Y-95281377D01*
X150230530Y-95276161D01*
X150210318Y-95268929D01*
X150190912Y-95259750D01*
X150172499Y-95248714D01*
X150155256Y-95235926D01*
X150139350Y-95221510D01*
X150124934Y-95205604D01*
X150112146Y-95188361D01*
X150101110Y-95169948D01*
X150091931Y-95150542D01*
X150084699Y-95130330D01*
X150079483Y-95109506D01*
X150076333Y-95088271D01*
X150075280Y-95066830D01*
X150075280Y-94554330D01*
X150076333Y-94532889D01*
X150079483Y-94511654D01*
X150084699Y-94490830D01*
X150091931Y-94470618D01*
X150101110Y-94451212D01*
X150112146Y-94432799D01*
X150124934Y-94415556D01*
X150139350Y-94399650D01*
X150155256Y-94385234D01*
X150172499Y-94372446D01*
X150190912Y-94361410D01*
X150210318Y-94352231D01*
X150230530Y-94344999D01*
X150251354Y-94339783D01*
X150272589Y-94336633D01*
X150294030Y-94335580D01*
X150731530Y-94335580D01*
X150752971Y-94336633D01*
X150752971Y-94336633D01*
G37*
D11*
X150512780Y-94810580D03*
G04 #@! TD*
D10*
G04 #@! TO.C,R13*
G36*
X144801751Y-106068893D02*
X144822986Y-106072043D01*
X144843810Y-106077259D01*
X144864022Y-106084491D01*
X144883428Y-106093670D01*
X144901841Y-106104706D01*
X144919084Y-106117494D01*
X144934990Y-106131910D01*
X144949406Y-106147816D01*
X144962194Y-106165059D01*
X144973230Y-106183472D01*
X144982409Y-106202878D01*
X144989641Y-106223090D01*
X144994857Y-106243914D01*
X144998007Y-106265149D01*
X144999060Y-106286590D01*
X144999060Y-106799090D01*
X144998007Y-106820531D01*
X144994857Y-106841766D01*
X144989641Y-106862590D01*
X144982409Y-106882802D01*
X144973230Y-106902208D01*
X144962194Y-106920621D01*
X144949406Y-106937864D01*
X144934990Y-106953770D01*
X144919084Y-106968186D01*
X144901841Y-106980974D01*
X144883428Y-106992010D01*
X144864022Y-107001189D01*
X144843810Y-107008421D01*
X144822986Y-107013637D01*
X144801751Y-107016787D01*
X144780310Y-107017840D01*
X144342810Y-107017840D01*
X144321369Y-107016787D01*
X144300134Y-107013637D01*
X144279310Y-107008421D01*
X144259098Y-107001189D01*
X144239692Y-106992010D01*
X144221279Y-106980974D01*
X144204036Y-106968186D01*
X144188130Y-106953770D01*
X144173714Y-106937864D01*
X144160926Y-106920621D01*
X144149890Y-106902208D01*
X144140711Y-106882802D01*
X144133479Y-106862590D01*
X144128263Y-106841766D01*
X144125113Y-106820531D01*
X144124060Y-106799090D01*
X144124060Y-106286590D01*
X144125113Y-106265149D01*
X144128263Y-106243914D01*
X144133479Y-106223090D01*
X144140711Y-106202878D01*
X144149890Y-106183472D01*
X144160926Y-106165059D01*
X144173714Y-106147816D01*
X144188130Y-106131910D01*
X144204036Y-106117494D01*
X144221279Y-106104706D01*
X144239692Y-106093670D01*
X144259098Y-106084491D01*
X144279310Y-106077259D01*
X144300134Y-106072043D01*
X144321369Y-106068893D01*
X144342810Y-106067840D01*
X144780310Y-106067840D01*
X144801751Y-106068893D01*
X144801751Y-106068893D01*
G37*
D11*
X144561560Y-106542840D03*
D10*
G36*
X146376751Y-106068893D02*
X146397986Y-106072043D01*
X146418810Y-106077259D01*
X146439022Y-106084491D01*
X146458428Y-106093670D01*
X146476841Y-106104706D01*
X146494084Y-106117494D01*
X146509990Y-106131910D01*
X146524406Y-106147816D01*
X146537194Y-106165059D01*
X146548230Y-106183472D01*
X146557409Y-106202878D01*
X146564641Y-106223090D01*
X146569857Y-106243914D01*
X146573007Y-106265149D01*
X146574060Y-106286590D01*
X146574060Y-106799090D01*
X146573007Y-106820531D01*
X146569857Y-106841766D01*
X146564641Y-106862590D01*
X146557409Y-106882802D01*
X146548230Y-106902208D01*
X146537194Y-106920621D01*
X146524406Y-106937864D01*
X146509990Y-106953770D01*
X146494084Y-106968186D01*
X146476841Y-106980974D01*
X146458428Y-106992010D01*
X146439022Y-107001189D01*
X146418810Y-107008421D01*
X146397986Y-107013637D01*
X146376751Y-107016787D01*
X146355310Y-107017840D01*
X145917810Y-107017840D01*
X145896369Y-107016787D01*
X145875134Y-107013637D01*
X145854310Y-107008421D01*
X145834098Y-107001189D01*
X145814692Y-106992010D01*
X145796279Y-106980974D01*
X145779036Y-106968186D01*
X145763130Y-106953770D01*
X145748714Y-106937864D01*
X145735926Y-106920621D01*
X145724890Y-106902208D01*
X145715711Y-106882802D01*
X145708479Y-106862590D01*
X145703263Y-106841766D01*
X145700113Y-106820531D01*
X145699060Y-106799090D01*
X145699060Y-106286590D01*
X145700113Y-106265149D01*
X145703263Y-106243914D01*
X145708479Y-106223090D01*
X145715711Y-106202878D01*
X145724890Y-106183472D01*
X145735926Y-106165059D01*
X145748714Y-106147816D01*
X145763130Y-106131910D01*
X145779036Y-106117494D01*
X145796279Y-106104706D01*
X145814692Y-106093670D01*
X145834098Y-106084491D01*
X145854310Y-106077259D01*
X145875134Y-106072043D01*
X145896369Y-106068893D01*
X145917810Y-106067840D01*
X146355310Y-106067840D01*
X146376751Y-106068893D01*
X146376751Y-106068893D01*
G37*
D11*
X146136560Y-106542840D03*
G04 #@! TD*
D24*
G04 #@! TO.C,J1*
X145620740Y-117394324D03*
X144970740Y-117394324D03*
X146270740Y-117394324D03*
X144320740Y-117394324D03*
X146920740Y-117394324D03*
D25*
X142520740Y-117519324D03*
X148720740Y-117519324D03*
D26*
X141820740Y-120069324D03*
X149420740Y-120069324D03*
D27*
X144420740Y-120069324D03*
X146820740Y-120069324D03*
G04 #@! TD*
D28*
G04 #@! TO.C,J3*
X130273657Y-88218197D03*
X130273657Y-98918197D03*
X134003657Y-90418197D03*
X134003657Y-88218197D03*
G04 #@! TD*
D10*
G04 #@! TO.C,U7*
G36*
X138001486Y-92917421D02*
X138007553Y-92918321D01*
X138013503Y-92919811D01*
X138019278Y-92921878D01*
X138024822Y-92924500D01*
X138030083Y-92927653D01*
X138035010Y-92931307D01*
X138039554Y-92935426D01*
X138043673Y-92939970D01*
X138047327Y-92944897D01*
X138050480Y-92950158D01*
X138053102Y-92955702D01*
X138055169Y-92961477D01*
X138056659Y-92967427D01*
X138057559Y-92973494D01*
X138057860Y-92979620D01*
X138057860Y-93679620D01*
X138057559Y-93685746D01*
X138056659Y-93691813D01*
X138055169Y-93697763D01*
X138053102Y-93703538D01*
X138050480Y-93709082D01*
X138047327Y-93714343D01*
X138043673Y-93719270D01*
X138039554Y-93723814D01*
X138035010Y-93727933D01*
X138030083Y-93731587D01*
X138024822Y-93734740D01*
X138019278Y-93737362D01*
X138013503Y-93739429D01*
X138007553Y-93740919D01*
X138001486Y-93741819D01*
X137995360Y-93742120D01*
X137870360Y-93742120D01*
X137864234Y-93741819D01*
X137858167Y-93740919D01*
X137852217Y-93739429D01*
X137846442Y-93737362D01*
X137840898Y-93734740D01*
X137835637Y-93731587D01*
X137830710Y-93727933D01*
X137826166Y-93723814D01*
X137822047Y-93719270D01*
X137818393Y-93714343D01*
X137815240Y-93709082D01*
X137812618Y-93703538D01*
X137810551Y-93697763D01*
X137809061Y-93691813D01*
X137808161Y-93685746D01*
X137807860Y-93679620D01*
X137807860Y-92979620D01*
X137808161Y-92973494D01*
X137809061Y-92967427D01*
X137810551Y-92961477D01*
X137812618Y-92955702D01*
X137815240Y-92950158D01*
X137818393Y-92944897D01*
X137822047Y-92939970D01*
X137826166Y-92935426D01*
X137830710Y-92931307D01*
X137835637Y-92927653D01*
X137840898Y-92924500D01*
X137846442Y-92921878D01*
X137852217Y-92919811D01*
X137858167Y-92918321D01*
X137864234Y-92917421D01*
X137870360Y-92917120D01*
X137995360Y-92917120D01*
X138001486Y-92917421D01*
X138001486Y-92917421D01*
G37*
D29*
X137932860Y-93329620D03*
D10*
G36*
X137501486Y-92917421D02*
X137507553Y-92918321D01*
X137513503Y-92919811D01*
X137519278Y-92921878D01*
X137524822Y-92924500D01*
X137530083Y-92927653D01*
X137535010Y-92931307D01*
X137539554Y-92935426D01*
X137543673Y-92939970D01*
X137547327Y-92944897D01*
X137550480Y-92950158D01*
X137553102Y-92955702D01*
X137555169Y-92961477D01*
X137556659Y-92967427D01*
X137557559Y-92973494D01*
X137557860Y-92979620D01*
X137557860Y-93679620D01*
X137557559Y-93685746D01*
X137556659Y-93691813D01*
X137555169Y-93697763D01*
X137553102Y-93703538D01*
X137550480Y-93709082D01*
X137547327Y-93714343D01*
X137543673Y-93719270D01*
X137539554Y-93723814D01*
X137535010Y-93727933D01*
X137530083Y-93731587D01*
X137524822Y-93734740D01*
X137519278Y-93737362D01*
X137513503Y-93739429D01*
X137507553Y-93740919D01*
X137501486Y-93741819D01*
X137495360Y-93742120D01*
X137370360Y-93742120D01*
X137364234Y-93741819D01*
X137358167Y-93740919D01*
X137352217Y-93739429D01*
X137346442Y-93737362D01*
X137340898Y-93734740D01*
X137335637Y-93731587D01*
X137330710Y-93727933D01*
X137326166Y-93723814D01*
X137322047Y-93719270D01*
X137318393Y-93714343D01*
X137315240Y-93709082D01*
X137312618Y-93703538D01*
X137310551Y-93697763D01*
X137309061Y-93691813D01*
X137308161Y-93685746D01*
X137307860Y-93679620D01*
X137307860Y-92979620D01*
X137308161Y-92973494D01*
X137309061Y-92967427D01*
X137310551Y-92961477D01*
X137312618Y-92955702D01*
X137315240Y-92950158D01*
X137318393Y-92944897D01*
X137322047Y-92939970D01*
X137326166Y-92935426D01*
X137330710Y-92931307D01*
X137335637Y-92927653D01*
X137340898Y-92924500D01*
X137346442Y-92921878D01*
X137352217Y-92919811D01*
X137358167Y-92918321D01*
X137364234Y-92917421D01*
X137370360Y-92917120D01*
X137495360Y-92917120D01*
X137501486Y-92917421D01*
X137501486Y-92917421D01*
G37*
D29*
X137432860Y-93329620D03*
D10*
G36*
X137001486Y-92917421D02*
X137007553Y-92918321D01*
X137013503Y-92919811D01*
X137019278Y-92921878D01*
X137024822Y-92924500D01*
X137030083Y-92927653D01*
X137035010Y-92931307D01*
X137039554Y-92935426D01*
X137043673Y-92939970D01*
X137047327Y-92944897D01*
X137050480Y-92950158D01*
X137053102Y-92955702D01*
X137055169Y-92961477D01*
X137056659Y-92967427D01*
X137057559Y-92973494D01*
X137057860Y-92979620D01*
X137057860Y-93679620D01*
X137057559Y-93685746D01*
X137056659Y-93691813D01*
X137055169Y-93697763D01*
X137053102Y-93703538D01*
X137050480Y-93709082D01*
X137047327Y-93714343D01*
X137043673Y-93719270D01*
X137039554Y-93723814D01*
X137035010Y-93727933D01*
X137030083Y-93731587D01*
X137024822Y-93734740D01*
X137019278Y-93737362D01*
X137013503Y-93739429D01*
X137007553Y-93740919D01*
X137001486Y-93741819D01*
X136995360Y-93742120D01*
X136870360Y-93742120D01*
X136864234Y-93741819D01*
X136858167Y-93740919D01*
X136852217Y-93739429D01*
X136846442Y-93737362D01*
X136840898Y-93734740D01*
X136835637Y-93731587D01*
X136830710Y-93727933D01*
X136826166Y-93723814D01*
X136822047Y-93719270D01*
X136818393Y-93714343D01*
X136815240Y-93709082D01*
X136812618Y-93703538D01*
X136810551Y-93697763D01*
X136809061Y-93691813D01*
X136808161Y-93685746D01*
X136807860Y-93679620D01*
X136807860Y-92979620D01*
X136808161Y-92973494D01*
X136809061Y-92967427D01*
X136810551Y-92961477D01*
X136812618Y-92955702D01*
X136815240Y-92950158D01*
X136818393Y-92944897D01*
X136822047Y-92939970D01*
X136826166Y-92935426D01*
X136830710Y-92931307D01*
X136835637Y-92927653D01*
X136840898Y-92924500D01*
X136846442Y-92921878D01*
X136852217Y-92919811D01*
X136858167Y-92918321D01*
X136864234Y-92917421D01*
X136870360Y-92917120D01*
X136995360Y-92917120D01*
X137001486Y-92917421D01*
X137001486Y-92917421D01*
G37*
D29*
X136932860Y-93329620D03*
D10*
G36*
X136501486Y-92917421D02*
X136507553Y-92918321D01*
X136513503Y-92919811D01*
X136519278Y-92921878D01*
X136524822Y-92924500D01*
X136530083Y-92927653D01*
X136535010Y-92931307D01*
X136539554Y-92935426D01*
X136543673Y-92939970D01*
X136547327Y-92944897D01*
X136550480Y-92950158D01*
X136553102Y-92955702D01*
X136555169Y-92961477D01*
X136556659Y-92967427D01*
X136557559Y-92973494D01*
X136557860Y-92979620D01*
X136557860Y-93679620D01*
X136557559Y-93685746D01*
X136556659Y-93691813D01*
X136555169Y-93697763D01*
X136553102Y-93703538D01*
X136550480Y-93709082D01*
X136547327Y-93714343D01*
X136543673Y-93719270D01*
X136539554Y-93723814D01*
X136535010Y-93727933D01*
X136530083Y-93731587D01*
X136524822Y-93734740D01*
X136519278Y-93737362D01*
X136513503Y-93739429D01*
X136507553Y-93740919D01*
X136501486Y-93741819D01*
X136495360Y-93742120D01*
X136370360Y-93742120D01*
X136364234Y-93741819D01*
X136358167Y-93740919D01*
X136352217Y-93739429D01*
X136346442Y-93737362D01*
X136340898Y-93734740D01*
X136335637Y-93731587D01*
X136330710Y-93727933D01*
X136326166Y-93723814D01*
X136322047Y-93719270D01*
X136318393Y-93714343D01*
X136315240Y-93709082D01*
X136312618Y-93703538D01*
X136310551Y-93697763D01*
X136309061Y-93691813D01*
X136308161Y-93685746D01*
X136307860Y-93679620D01*
X136307860Y-92979620D01*
X136308161Y-92973494D01*
X136309061Y-92967427D01*
X136310551Y-92961477D01*
X136312618Y-92955702D01*
X136315240Y-92950158D01*
X136318393Y-92944897D01*
X136322047Y-92939970D01*
X136326166Y-92935426D01*
X136330710Y-92931307D01*
X136335637Y-92927653D01*
X136340898Y-92924500D01*
X136346442Y-92921878D01*
X136352217Y-92919811D01*
X136358167Y-92918321D01*
X136364234Y-92917421D01*
X136370360Y-92917120D01*
X136495360Y-92917120D01*
X136501486Y-92917421D01*
X136501486Y-92917421D01*
G37*
D29*
X136432860Y-93329620D03*
D10*
G36*
X136101486Y-92517421D02*
X136107553Y-92518321D01*
X136113503Y-92519811D01*
X136119278Y-92521878D01*
X136124822Y-92524500D01*
X136130083Y-92527653D01*
X136135010Y-92531307D01*
X136139554Y-92535426D01*
X136143673Y-92539970D01*
X136147327Y-92544897D01*
X136150480Y-92550158D01*
X136153102Y-92555702D01*
X136155169Y-92561477D01*
X136156659Y-92567427D01*
X136157559Y-92573494D01*
X136157860Y-92579620D01*
X136157860Y-92704620D01*
X136157559Y-92710746D01*
X136156659Y-92716813D01*
X136155169Y-92722763D01*
X136153102Y-92728538D01*
X136150480Y-92734082D01*
X136147327Y-92739343D01*
X136143673Y-92744270D01*
X136139554Y-92748814D01*
X136135010Y-92752933D01*
X136130083Y-92756587D01*
X136124822Y-92759740D01*
X136119278Y-92762362D01*
X136113503Y-92764429D01*
X136107553Y-92765919D01*
X136101486Y-92766819D01*
X136095360Y-92767120D01*
X135395360Y-92767120D01*
X135389234Y-92766819D01*
X135383167Y-92765919D01*
X135377217Y-92764429D01*
X135371442Y-92762362D01*
X135365898Y-92759740D01*
X135360637Y-92756587D01*
X135355710Y-92752933D01*
X135351166Y-92748814D01*
X135347047Y-92744270D01*
X135343393Y-92739343D01*
X135340240Y-92734082D01*
X135337618Y-92728538D01*
X135335551Y-92722763D01*
X135334061Y-92716813D01*
X135333161Y-92710746D01*
X135332860Y-92704620D01*
X135332860Y-92579620D01*
X135333161Y-92573494D01*
X135334061Y-92567427D01*
X135335551Y-92561477D01*
X135337618Y-92555702D01*
X135340240Y-92550158D01*
X135343393Y-92544897D01*
X135347047Y-92539970D01*
X135351166Y-92535426D01*
X135355710Y-92531307D01*
X135360637Y-92527653D01*
X135365898Y-92524500D01*
X135371442Y-92521878D01*
X135377217Y-92519811D01*
X135383167Y-92518321D01*
X135389234Y-92517421D01*
X135395360Y-92517120D01*
X136095360Y-92517120D01*
X136101486Y-92517421D01*
X136101486Y-92517421D01*
G37*
D29*
X135745360Y-92642120D03*
D10*
G36*
X136101486Y-92017421D02*
X136107553Y-92018321D01*
X136113503Y-92019811D01*
X136119278Y-92021878D01*
X136124822Y-92024500D01*
X136130083Y-92027653D01*
X136135010Y-92031307D01*
X136139554Y-92035426D01*
X136143673Y-92039970D01*
X136147327Y-92044897D01*
X136150480Y-92050158D01*
X136153102Y-92055702D01*
X136155169Y-92061477D01*
X136156659Y-92067427D01*
X136157559Y-92073494D01*
X136157860Y-92079620D01*
X136157860Y-92204620D01*
X136157559Y-92210746D01*
X136156659Y-92216813D01*
X136155169Y-92222763D01*
X136153102Y-92228538D01*
X136150480Y-92234082D01*
X136147327Y-92239343D01*
X136143673Y-92244270D01*
X136139554Y-92248814D01*
X136135010Y-92252933D01*
X136130083Y-92256587D01*
X136124822Y-92259740D01*
X136119278Y-92262362D01*
X136113503Y-92264429D01*
X136107553Y-92265919D01*
X136101486Y-92266819D01*
X136095360Y-92267120D01*
X135395360Y-92267120D01*
X135389234Y-92266819D01*
X135383167Y-92265919D01*
X135377217Y-92264429D01*
X135371442Y-92262362D01*
X135365898Y-92259740D01*
X135360637Y-92256587D01*
X135355710Y-92252933D01*
X135351166Y-92248814D01*
X135347047Y-92244270D01*
X135343393Y-92239343D01*
X135340240Y-92234082D01*
X135337618Y-92228538D01*
X135335551Y-92222763D01*
X135334061Y-92216813D01*
X135333161Y-92210746D01*
X135332860Y-92204620D01*
X135332860Y-92079620D01*
X135333161Y-92073494D01*
X135334061Y-92067427D01*
X135335551Y-92061477D01*
X135337618Y-92055702D01*
X135340240Y-92050158D01*
X135343393Y-92044897D01*
X135347047Y-92039970D01*
X135351166Y-92035426D01*
X135355710Y-92031307D01*
X135360637Y-92027653D01*
X135365898Y-92024500D01*
X135371442Y-92021878D01*
X135377217Y-92019811D01*
X135383167Y-92018321D01*
X135389234Y-92017421D01*
X135395360Y-92017120D01*
X136095360Y-92017120D01*
X136101486Y-92017421D01*
X136101486Y-92017421D01*
G37*
D29*
X135745360Y-92142120D03*
D10*
G36*
X136101486Y-91517421D02*
X136107553Y-91518321D01*
X136113503Y-91519811D01*
X136119278Y-91521878D01*
X136124822Y-91524500D01*
X136130083Y-91527653D01*
X136135010Y-91531307D01*
X136139554Y-91535426D01*
X136143673Y-91539970D01*
X136147327Y-91544897D01*
X136150480Y-91550158D01*
X136153102Y-91555702D01*
X136155169Y-91561477D01*
X136156659Y-91567427D01*
X136157559Y-91573494D01*
X136157860Y-91579620D01*
X136157860Y-91704620D01*
X136157559Y-91710746D01*
X136156659Y-91716813D01*
X136155169Y-91722763D01*
X136153102Y-91728538D01*
X136150480Y-91734082D01*
X136147327Y-91739343D01*
X136143673Y-91744270D01*
X136139554Y-91748814D01*
X136135010Y-91752933D01*
X136130083Y-91756587D01*
X136124822Y-91759740D01*
X136119278Y-91762362D01*
X136113503Y-91764429D01*
X136107553Y-91765919D01*
X136101486Y-91766819D01*
X136095360Y-91767120D01*
X135395360Y-91767120D01*
X135389234Y-91766819D01*
X135383167Y-91765919D01*
X135377217Y-91764429D01*
X135371442Y-91762362D01*
X135365898Y-91759740D01*
X135360637Y-91756587D01*
X135355710Y-91752933D01*
X135351166Y-91748814D01*
X135347047Y-91744270D01*
X135343393Y-91739343D01*
X135340240Y-91734082D01*
X135337618Y-91728538D01*
X135335551Y-91722763D01*
X135334061Y-91716813D01*
X135333161Y-91710746D01*
X135332860Y-91704620D01*
X135332860Y-91579620D01*
X135333161Y-91573494D01*
X135334061Y-91567427D01*
X135335551Y-91561477D01*
X135337618Y-91555702D01*
X135340240Y-91550158D01*
X135343393Y-91544897D01*
X135347047Y-91539970D01*
X135351166Y-91535426D01*
X135355710Y-91531307D01*
X135360637Y-91527653D01*
X135365898Y-91524500D01*
X135371442Y-91521878D01*
X135377217Y-91519811D01*
X135383167Y-91518321D01*
X135389234Y-91517421D01*
X135395360Y-91517120D01*
X136095360Y-91517120D01*
X136101486Y-91517421D01*
X136101486Y-91517421D01*
G37*
D29*
X135745360Y-91642120D03*
D10*
G36*
X136101486Y-91017421D02*
X136107553Y-91018321D01*
X136113503Y-91019811D01*
X136119278Y-91021878D01*
X136124822Y-91024500D01*
X136130083Y-91027653D01*
X136135010Y-91031307D01*
X136139554Y-91035426D01*
X136143673Y-91039970D01*
X136147327Y-91044897D01*
X136150480Y-91050158D01*
X136153102Y-91055702D01*
X136155169Y-91061477D01*
X136156659Y-91067427D01*
X136157559Y-91073494D01*
X136157860Y-91079620D01*
X136157860Y-91204620D01*
X136157559Y-91210746D01*
X136156659Y-91216813D01*
X136155169Y-91222763D01*
X136153102Y-91228538D01*
X136150480Y-91234082D01*
X136147327Y-91239343D01*
X136143673Y-91244270D01*
X136139554Y-91248814D01*
X136135010Y-91252933D01*
X136130083Y-91256587D01*
X136124822Y-91259740D01*
X136119278Y-91262362D01*
X136113503Y-91264429D01*
X136107553Y-91265919D01*
X136101486Y-91266819D01*
X136095360Y-91267120D01*
X135395360Y-91267120D01*
X135389234Y-91266819D01*
X135383167Y-91265919D01*
X135377217Y-91264429D01*
X135371442Y-91262362D01*
X135365898Y-91259740D01*
X135360637Y-91256587D01*
X135355710Y-91252933D01*
X135351166Y-91248814D01*
X135347047Y-91244270D01*
X135343393Y-91239343D01*
X135340240Y-91234082D01*
X135337618Y-91228538D01*
X135335551Y-91222763D01*
X135334061Y-91216813D01*
X135333161Y-91210746D01*
X135332860Y-91204620D01*
X135332860Y-91079620D01*
X135333161Y-91073494D01*
X135334061Y-91067427D01*
X135335551Y-91061477D01*
X135337618Y-91055702D01*
X135340240Y-91050158D01*
X135343393Y-91044897D01*
X135347047Y-91039970D01*
X135351166Y-91035426D01*
X135355710Y-91031307D01*
X135360637Y-91027653D01*
X135365898Y-91024500D01*
X135371442Y-91021878D01*
X135377217Y-91019811D01*
X135383167Y-91018321D01*
X135389234Y-91017421D01*
X135395360Y-91017120D01*
X136095360Y-91017120D01*
X136101486Y-91017421D01*
X136101486Y-91017421D01*
G37*
D29*
X135745360Y-91142120D03*
D10*
G36*
X136501486Y-90042421D02*
X136507553Y-90043321D01*
X136513503Y-90044811D01*
X136519278Y-90046878D01*
X136524822Y-90049500D01*
X136530083Y-90052653D01*
X136535010Y-90056307D01*
X136539554Y-90060426D01*
X136543673Y-90064970D01*
X136547327Y-90069897D01*
X136550480Y-90075158D01*
X136553102Y-90080702D01*
X136555169Y-90086477D01*
X136556659Y-90092427D01*
X136557559Y-90098494D01*
X136557860Y-90104620D01*
X136557860Y-90804620D01*
X136557559Y-90810746D01*
X136556659Y-90816813D01*
X136555169Y-90822763D01*
X136553102Y-90828538D01*
X136550480Y-90834082D01*
X136547327Y-90839343D01*
X136543673Y-90844270D01*
X136539554Y-90848814D01*
X136535010Y-90852933D01*
X136530083Y-90856587D01*
X136524822Y-90859740D01*
X136519278Y-90862362D01*
X136513503Y-90864429D01*
X136507553Y-90865919D01*
X136501486Y-90866819D01*
X136495360Y-90867120D01*
X136370360Y-90867120D01*
X136364234Y-90866819D01*
X136358167Y-90865919D01*
X136352217Y-90864429D01*
X136346442Y-90862362D01*
X136340898Y-90859740D01*
X136335637Y-90856587D01*
X136330710Y-90852933D01*
X136326166Y-90848814D01*
X136322047Y-90844270D01*
X136318393Y-90839343D01*
X136315240Y-90834082D01*
X136312618Y-90828538D01*
X136310551Y-90822763D01*
X136309061Y-90816813D01*
X136308161Y-90810746D01*
X136307860Y-90804620D01*
X136307860Y-90104620D01*
X136308161Y-90098494D01*
X136309061Y-90092427D01*
X136310551Y-90086477D01*
X136312618Y-90080702D01*
X136315240Y-90075158D01*
X136318393Y-90069897D01*
X136322047Y-90064970D01*
X136326166Y-90060426D01*
X136330710Y-90056307D01*
X136335637Y-90052653D01*
X136340898Y-90049500D01*
X136346442Y-90046878D01*
X136352217Y-90044811D01*
X136358167Y-90043321D01*
X136364234Y-90042421D01*
X136370360Y-90042120D01*
X136495360Y-90042120D01*
X136501486Y-90042421D01*
X136501486Y-90042421D01*
G37*
D29*
X136432860Y-90454620D03*
D10*
G36*
X137001486Y-90042421D02*
X137007553Y-90043321D01*
X137013503Y-90044811D01*
X137019278Y-90046878D01*
X137024822Y-90049500D01*
X137030083Y-90052653D01*
X137035010Y-90056307D01*
X137039554Y-90060426D01*
X137043673Y-90064970D01*
X137047327Y-90069897D01*
X137050480Y-90075158D01*
X137053102Y-90080702D01*
X137055169Y-90086477D01*
X137056659Y-90092427D01*
X137057559Y-90098494D01*
X137057860Y-90104620D01*
X137057860Y-90804620D01*
X137057559Y-90810746D01*
X137056659Y-90816813D01*
X137055169Y-90822763D01*
X137053102Y-90828538D01*
X137050480Y-90834082D01*
X137047327Y-90839343D01*
X137043673Y-90844270D01*
X137039554Y-90848814D01*
X137035010Y-90852933D01*
X137030083Y-90856587D01*
X137024822Y-90859740D01*
X137019278Y-90862362D01*
X137013503Y-90864429D01*
X137007553Y-90865919D01*
X137001486Y-90866819D01*
X136995360Y-90867120D01*
X136870360Y-90867120D01*
X136864234Y-90866819D01*
X136858167Y-90865919D01*
X136852217Y-90864429D01*
X136846442Y-90862362D01*
X136840898Y-90859740D01*
X136835637Y-90856587D01*
X136830710Y-90852933D01*
X136826166Y-90848814D01*
X136822047Y-90844270D01*
X136818393Y-90839343D01*
X136815240Y-90834082D01*
X136812618Y-90828538D01*
X136810551Y-90822763D01*
X136809061Y-90816813D01*
X136808161Y-90810746D01*
X136807860Y-90804620D01*
X136807860Y-90104620D01*
X136808161Y-90098494D01*
X136809061Y-90092427D01*
X136810551Y-90086477D01*
X136812618Y-90080702D01*
X136815240Y-90075158D01*
X136818393Y-90069897D01*
X136822047Y-90064970D01*
X136826166Y-90060426D01*
X136830710Y-90056307D01*
X136835637Y-90052653D01*
X136840898Y-90049500D01*
X136846442Y-90046878D01*
X136852217Y-90044811D01*
X136858167Y-90043321D01*
X136864234Y-90042421D01*
X136870360Y-90042120D01*
X136995360Y-90042120D01*
X137001486Y-90042421D01*
X137001486Y-90042421D01*
G37*
D29*
X136932860Y-90454620D03*
D10*
G36*
X137501486Y-90042421D02*
X137507553Y-90043321D01*
X137513503Y-90044811D01*
X137519278Y-90046878D01*
X137524822Y-90049500D01*
X137530083Y-90052653D01*
X137535010Y-90056307D01*
X137539554Y-90060426D01*
X137543673Y-90064970D01*
X137547327Y-90069897D01*
X137550480Y-90075158D01*
X137553102Y-90080702D01*
X137555169Y-90086477D01*
X137556659Y-90092427D01*
X137557559Y-90098494D01*
X137557860Y-90104620D01*
X137557860Y-90804620D01*
X137557559Y-90810746D01*
X137556659Y-90816813D01*
X137555169Y-90822763D01*
X137553102Y-90828538D01*
X137550480Y-90834082D01*
X137547327Y-90839343D01*
X137543673Y-90844270D01*
X137539554Y-90848814D01*
X137535010Y-90852933D01*
X137530083Y-90856587D01*
X137524822Y-90859740D01*
X137519278Y-90862362D01*
X137513503Y-90864429D01*
X137507553Y-90865919D01*
X137501486Y-90866819D01*
X137495360Y-90867120D01*
X137370360Y-90867120D01*
X137364234Y-90866819D01*
X137358167Y-90865919D01*
X137352217Y-90864429D01*
X137346442Y-90862362D01*
X137340898Y-90859740D01*
X137335637Y-90856587D01*
X137330710Y-90852933D01*
X137326166Y-90848814D01*
X137322047Y-90844270D01*
X137318393Y-90839343D01*
X137315240Y-90834082D01*
X137312618Y-90828538D01*
X137310551Y-90822763D01*
X137309061Y-90816813D01*
X137308161Y-90810746D01*
X137307860Y-90804620D01*
X137307860Y-90104620D01*
X137308161Y-90098494D01*
X137309061Y-90092427D01*
X137310551Y-90086477D01*
X137312618Y-90080702D01*
X137315240Y-90075158D01*
X137318393Y-90069897D01*
X137322047Y-90064970D01*
X137326166Y-90060426D01*
X137330710Y-90056307D01*
X137335637Y-90052653D01*
X137340898Y-90049500D01*
X137346442Y-90046878D01*
X137352217Y-90044811D01*
X137358167Y-90043321D01*
X137364234Y-90042421D01*
X137370360Y-90042120D01*
X137495360Y-90042120D01*
X137501486Y-90042421D01*
X137501486Y-90042421D01*
G37*
D29*
X137432860Y-90454620D03*
D10*
G36*
X138001486Y-90042421D02*
X138007553Y-90043321D01*
X138013503Y-90044811D01*
X138019278Y-90046878D01*
X138024822Y-90049500D01*
X138030083Y-90052653D01*
X138035010Y-90056307D01*
X138039554Y-90060426D01*
X138043673Y-90064970D01*
X138047327Y-90069897D01*
X138050480Y-90075158D01*
X138053102Y-90080702D01*
X138055169Y-90086477D01*
X138056659Y-90092427D01*
X138057559Y-90098494D01*
X138057860Y-90104620D01*
X138057860Y-90804620D01*
X138057559Y-90810746D01*
X138056659Y-90816813D01*
X138055169Y-90822763D01*
X138053102Y-90828538D01*
X138050480Y-90834082D01*
X138047327Y-90839343D01*
X138043673Y-90844270D01*
X138039554Y-90848814D01*
X138035010Y-90852933D01*
X138030083Y-90856587D01*
X138024822Y-90859740D01*
X138019278Y-90862362D01*
X138013503Y-90864429D01*
X138007553Y-90865919D01*
X138001486Y-90866819D01*
X137995360Y-90867120D01*
X137870360Y-90867120D01*
X137864234Y-90866819D01*
X137858167Y-90865919D01*
X137852217Y-90864429D01*
X137846442Y-90862362D01*
X137840898Y-90859740D01*
X137835637Y-90856587D01*
X137830710Y-90852933D01*
X137826166Y-90848814D01*
X137822047Y-90844270D01*
X137818393Y-90839343D01*
X137815240Y-90834082D01*
X137812618Y-90828538D01*
X137810551Y-90822763D01*
X137809061Y-90816813D01*
X137808161Y-90810746D01*
X137807860Y-90804620D01*
X137807860Y-90104620D01*
X137808161Y-90098494D01*
X137809061Y-90092427D01*
X137810551Y-90086477D01*
X137812618Y-90080702D01*
X137815240Y-90075158D01*
X137818393Y-90069897D01*
X137822047Y-90064970D01*
X137826166Y-90060426D01*
X137830710Y-90056307D01*
X137835637Y-90052653D01*
X137840898Y-90049500D01*
X137846442Y-90046878D01*
X137852217Y-90044811D01*
X137858167Y-90043321D01*
X137864234Y-90042421D01*
X137870360Y-90042120D01*
X137995360Y-90042120D01*
X138001486Y-90042421D01*
X138001486Y-90042421D01*
G37*
D29*
X137932860Y-90454620D03*
D10*
G36*
X138976486Y-91017421D02*
X138982553Y-91018321D01*
X138988503Y-91019811D01*
X138994278Y-91021878D01*
X138999822Y-91024500D01*
X139005083Y-91027653D01*
X139010010Y-91031307D01*
X139014554Y-91035426D01*
X139018673Y-91039970D01*
X139022327Y-91044897D01*
X139025480Y-91050158D01*
X139028102Y-91055702D01*
X139030169Y-91061477D01*
X139031659Y-91067427D01*
X139032559Y-91073494D01*
X139032860Y-91079620D01*
X139032860Y-91204620D01*
X139032559Y-91210746D01*
X139031659Y-91216813D01*
X139030169Y-91222763D01*
X139028102Y-91228538D01*
X139025480Y-91234082D01*
X139022327Y-91239343D01*
X139018673Y-91244270D01*
X139014554Y-91248814D01*
X139010010Y-91252933D01*
X139005083Y-91256587D01*
X138999822Y-91259740D01*
X138994278Y-91262362D01*
X138988503Y-91264429D01*
X138982553Y-91265919D01*
X138976486Y-91266819D01*
X138970360Y-91267120D01*
X138270360Y-91267120D01*
X138264234Y-91266819D01*
X138258167Y-91265919D01*
X138252217Y-91264429D01*
X138246442Y-91262362D01*
X138240898Y-91259740D01*
X138235637Y-91256587D01*
X138230710Y-91252933D01*
X138226166Y-91248814D01*
X138222047Y-91244270D01*
X138218393Y-91239343D01*
X138215240Y-91234082D01*
X138212618Y-91228538D01*
X138210551Y-91222763D01*
X138209061Y-91216813D01*
X138208161Y-91210746D01*
X138207860Y-91204620D01*
X138207860Y-91079620D01*
X138208161Y-91073494D01*
X138209061Y-91067427D01*
X138210551Y-91061477D01*
X138212618Y-91055702D01*
X138215240Y-91050158D01*
X138218393Y-91044897D01*
X138222047Y-91039970D01*
X138226166Y-91035426D01*
X138230710Y-91031307D01*
X138235637Y-91027653D01*
X138240898Y-91024500D01*
X138246442Y-91021878D01*
X138252217Y-91019811D01*
X138258167Y-91018321D01*
X138264234Y-91017421D01*
X138270360Y-91017120D01*
X138970360Y-91017120D01*
X138976486Y-91017421D01*
X138976486Y-91017421D01*
G37*
D29*
X138620360Y-91142120D03*
D10*
G36*
X138976486Y-91517421D02*
X138982553Y-91518321D01*
X138988503Y-91519811D01*
X138994278Y-91521878D01*
X138999822Y-91524500D01*
X139005083Y-91527653D01*
X139010010Y-91531307D01*
X139014554Y-91535426D01*
X139018673Y-91539970D01*
X139022327Y-91544897D01*
X139025480Y-91550158D01*
X139028102Y-91555702D01*
X139030169Y-91561477D01*
X139031659Y-91567427D01*
X139032559Y-91573494D01*
X139032860Y-91579620D01*
X139032860Y-91704620D01*
X139032559Y-91710746D01*
X139031659Y-91716813D01*
X139030169Y-91722763D01*
X139028102Y-91728538D01*
X139025480Y-91734082D01*
X139022327Y-91739343D01*
X139018673Y-91744270D01*
X139014554Y-91748814D01*
X139010010Y-91752933D01*
X139005083Y-91756587D01*
X138999822Y-91759740D01*
X138994278Y-91762362D01*
X138988503Y-91764429D01*
X138982553Y-91765919D01*
X138976486Y-91766819D01*
X138970360Y-91767120D01*
X138270360Y-91767120D01*
X138264234Y-91766819D01*
X138258167Y-91765919D01*
X138252217Y-91764429D01*
X138246442Y-91762362D01*
X138240898Y-91759740D01*
X138235637Y-91756587D01*
X138230710Y-91752933D01*
X138226166Y-91748814D01*
X138222047Y-91744270D01*
X138218393Y-91739343D01*
X138215240Y-91734082D01*
X138212618Y-91728538D01*
X138210551Y-91722763D01*
X138209061Y-91716813D01*
X138208161Y-91710746D01*
X138207860Y-91704620D01*
X138207860Y-91579620D01*
X138208161Y-91573494D01*
X138209061Y-91567427D01*
X138210551Y-91561477D01*
X138212618Y-91555702D01*
X138215240Y-91550158D01*
X138218393Y-91544897D01*
X138222047Y-91539970D01*
X138226166Y-91535426D01*
X138230710Y-91531307D01*
X138235637Y-91527653D01*
X138240898Y-91524500D01*
X138246442Y-91521878D01*
X138252217Y-91519811D01*
X138258167Y-91518321D01*
X138264234Y-91517421D01*
X138270360Y-91517120D01*
X138970360Y-91517120D01*
X138976486Y-91517421D01*
X138976486Y-91517421D01*
G37*
D29*
X138620360Y-91642120D03*
D10*
G36*
X138976486Y-92017421D02*
X138982553Y-92018321D01*
X138988503Y-92019811D01*
X138994278Y-92021878D01*
X138999822Y-92024500D01*
X139005083Y-92027653D01*
X139010010Y-92031307D01*
X139014554Y-92035426D01*
X139018673Y-92039970D01*
X139022327Y-92044897D01*
X139025480Y-92050158D01*
X139028102Y-92055702D01*
X139030169Y-92061477D01*
X139031659Y-92067427D01*
X139032559Y-92073494D01*
X139032860Y-92079620D01*
X139032860Y-92204620D01*
X139032559Y-92210746D01*
X139031659Y-92216813D01*
X139030169Y-92222763D01*
X139028102Y-92228538D01*
X139025480Y-92234082D01*
X139022327Y-92239343D01*
X139018673Y-92244270D01*
X139014554Y-92248814D01*
X139010010Y-92252933D01*
X139005083Y-92256587D01*
X138999822Y-92259740D01*
X138994278Y-92262362D01*
X138988503Y-92264429D01*
X138982553Y-92265919D01*
X138976486Y-92266819D01*
X138970360Y-92267120D01*
X138270360Y-92267120D01*
X138264234Y-92266819D01*
X138258167Y-92265919D01*
X138252217Y-92264429D01*
X138246442Y-92262362D01*
X138240898Y-92259740D01*
X138235637Y-92256587D01*
X138230710Y-92252933D01*
X138226166Y-92248814D01*
X138222047Y-92244270D01*
X138218393Y-92239343D01*
X138215240Y-92234082D01*
X138212618Y-92228538D01*
X138210551Y-92222763D01*
X138209061Y-92216813D01*
X138208161Y-92210746D01*
X138207860Y-92204620D01*
X138207860Y-92079620D01*
X138208161Y-92073494D01*
X138209061Y-92067427D01*
X138210551Y-92061477D01*
X138212618Y-92055702D01*
X138215240Y-92050158D01*
X138218393Y-92044897D01*
X138222047Y-92039970D01*
X138226166Y-92035426D01*
X138230710Y-92031307D01*
X138235637Y-92027653D01*
X138240898Y-92024500D01*
X138246442Y-92021878D01*
X138252217Y-92019811D01*
X138258167Y-92018321D01*
X138264234Y-92017421D01*
X138270360Y-92017120D01*
X138970360Y-92017120D01*
X138976486Y-92017421D01*
X138976486Y-92017421D01*
G37*
D29*
X138620360Y-92142120D03*
D10*
G36*
X138976486Y-92517421D02*
X138982553Y-92518321D01*
X138988503Y-92519811D01*
X138994278Y-92521878D01*
X138999822Y-92524500D01*
X139005083Y-92527653D01*
X139010010Y-92531307D01*
X139014554Y-92535426D01*
X139018673Y-92539970D01*
X139022327Y-92544897D01*
X139025480Y-92550158D01*
X139028102Y-92555702D01*
X139030169Y-92561477D01*
X139031659Y-92567427D01*
X139032559Y-92573494D01*
X139032860Y-92579620D01*
X139032860Y-92704620D01*
X139032559Y-92710746D01*
X139031659Y-92716813D01*
X139030169Y-92722763D01*
X139028102Y-92728538D01*
X139025480Y-92734082D01*
X139022327Y-92739343D01*
X139018673Y-92744270D01*
X139014554Y-92748814D01*
X139010010Y-92752933D01*
X139005083Y-92756587D01*
X138999822Y-92759740D01*
X138994278Y-92762362D01*
X138988503Y-92764429D01*
X138982553Y-92765919D01*
X138976486Y-92766819D01*
X138970360Y-92767120D01*
X138270360Y-92767120D01*
X138264234Y-92766819D01*
X138258167Y-92765919D01*
X138252217Y-92764429D01*
X138246442Y-92762362D01*
X138240898Y-92759740D01*
X138235637Y-92756587D01*
X138230710Y-92752933D01*
X138226166Y-92748814D01*
X138222047Y-92744270D01*
X138218393Y-92739343D01*
X138215240Y-92734082D01*
X138212618Y-92728538D01*
X138210551Y-92722763D01*
X138209061Y-92716813D01*
X138208161Y-92710746D01*
X138207860Y-92704620D01*
X138207860Y-92579620D01*
X138208161Y-92573494D01*
X138209061Y-92567427D01*
X138210551Y-92561477D01*
X138212618Y-92555702D01*
X138215240Y-92550158D01*
X138218393Y-92544897D01*
X138222047Y-92539970D01*
X138226166Y-92535426D01*
X138230710Y-92531307D01*
X138235637Y-92527653D01*
X138240898Y-92524500D01*
X138246442Y-92521878D01*
X138252217Y-92519811D01*
X138258167Y-92518321D01*
X138264234Y-92517421D01*
X138270360Y-92517120D01*
X138970360Y-92517120D01*
X138976486Y-92517421D01*
X138976486Y-92517421D01*
G37*
D29*
X138620360Y-92642120D03*
D10*
G36*
X136958543Y-91172890D02*
X136974074Y-91175194D01*
X136989306Y-91179010D01*
X137004089Y-91184299D01*
X137018283Y-91191013D01*
X137031751Y-91199085D01*
X137044363Y-91208438D01*
X137055997Y-91218983D01*
X137066542Y-91230617D01*
X137075895Y-91243229D01*
X137083967Y-91256697D01*
X137090681Y-91270891D01*
X137095970Y-91285674D01*
X137099786Y-91300906D01*
X137102090Y-91316437D01*
X137102860Y-91332120D01*
X137102860Y-91652120D01*
X137102090Y-91667803D01*
X137099786Y-91683334D01*
X137095970Y-91698566D01*
X137090681Y-91713349D01*
X137083967Y-91727543D01*
X137075895Y-91741011D01*
X137066542Y-91753623D01*
X137055997Y-91765257D01*
X137044363Y-91775802D01*
X137031751Y-91785155D01*
X137018283Y-91793227D01*
X137004089Y-91799941D01*
X136989306Y-91805230D01*
X136974074Y-91809046D01*
X136958543Y-91811350D01*
X136942860Y-91812120D01*
X136622860Y-91812120D01*
X136607177Y-91811350D01*
X136591646Y-91809046D01*
X136576414Y-91805230D01*
X136561631Y-91799941D01*
X136547437Y-91793227D01*
X136533969Y-91785155D01*
X136521357Y-91775802D01*
X136509723Y-91765257D01*
X136499178Y-91753623D01*
X136489825Y-91741011D01*
X136481753Y-91727543D01*
X136475039Y-91713349D01*
X136469750Y-91698566D01*
X136465934Y-91683334D01*
X136463630Y-91667803D01*
X136462860Y-91652120D01*
X136462860Y-91332120D01*
X136463630Y-91316437D01*
X136465934Y-91300906D01*
X136469750Y-91285674D01*
X136475039Y-91270891D01*
X136481753Y-91256697D01*
X136489825Y-91243229D01*
X136499178Y-91230617D01*
X136509723Y-91218983D01*
X136521357Y-91208438D01*
X136533969Y-91199085D01*
X136547437Y-91191013D01*
X136561631Y-91184299D01*
X136576414Y-91179010D01*
X136591646Y-91175194D01*
X136607177Y-91172890D01*
X136622860Y-91172120D01*
X136942860Y-91172120D01*
X136958543Y-91172890D01*
X136958543Y-91172890D01*
G37*
D30*
X136782860Y-91492120D03*
D10*
G36*
X136958543Y-91972890D02*
X136974074Y-91975194D01*
X136989306Y-91979010D01*
X137004089Y-91984299D01*
X137018283Y-91991013D01*
X137031751Y-91999085D01*
X137044363Y-92008438D01*
X137055997Y-92018983D01*
X137066542Y-92030617D01*
X137075895Y-92043229D01*
X137083967Y-92056697D01*
X137090681Y-92070891D01*
X137095970Y-92085674D01*
X137099786Y-92100906D01*
X137102090Y-92116437D01*
X137102860Y-92132120D01*
X137102860Y-92452120D01*
X137102090Y-92467803D01*
X137099786Y-92483334D01*
X137095970Y-92498566D01*
X137090681Y-92513349D01*
X137083967Y-92527543D01*
X137075895Y-92541011D01*
X137066542Y-92553623D01*
X137055997Y-92565257D01*
X137044363Y-92575802D01*
X137031751Y-92585155D01*
X137018283Y-92593227D01*
X137004089Y-92599941D01*
X136989306Y-92605230D01*
X136974074Y-92609046D01*
X136958543Y-92611350D01*
X136942860Y-92612120D01*
X136622860Y-92612120D01*
X136607177Y-92611350D01*
X136591646Y-92609046D01*
X136576414Y-92605230D01*
X136561631Y-92599941D01*
X136547437Y-92593227D01*
X136533969Y-92585155D01*
X136521357Y-92575802D01*
X136509723Y-92565257D01*
X136499178Y-92553623D01*
X136489825Y-92541011D01*
X136481753Y-92527543D01*
X136475039Y-92513349D01*
X136469750Y-92498566D01*
X136465934Y-92483334D01*
X136463630Y-92467803D01*
X136462860Y-92452120D01*
X136462860Y-92132120D01*
X136463630Y-92116437D01*
X136465934Y-92100906D01*
X136469750Y-92085674D01*
X136475039Y-92070891D01*
X136481753Y-92056697D01*
X136489825Y-92043229D01*
X136499178Y-92030617D01*
X136509723Y-92018983D01*
X136521357Y-92008438D01*
X136533969Y-91999085D01*
X136547437Y-91991013D01*
X136561631Y-91984299D01*
X136576414Y-91979010D01*
X136591646Y-91975194D01*
X136607177Y-91972890D01*
X136622860Y-91972120D01*
X136942860Y-91972120D01*
X136958543Y-91972890D01*
X136958543Y-91972890D01*
G37*
D30*
X136782860Y-92292120D03*
D10*
G36*
X137758543Y-91172890D02*
X137774074Y-91175194D01*
X137789306Y-91179010D01*
X137804089Y-91184299D01*
X137818283Y-91191013D01*
X137831751Y-91199085D01*
X137844363Y-91208438D01*
X137855997Y-91218983D01*
X137866542Y-91230617D01*
X137875895Y-91243229D01*
X137883967Y-91256697D01*
X137890681Y-91270891D01*
X137895970Y-91285674D01*
X137899786Y-91300906D01*
X137902090Y-91316437D01*
X137902860Y-91332120D01*
X137902860Y-91652120D01*
X137902090Y-91667803D01*
X137899786Y-91683334D01*
X137895970Y-91698566D01*
X137890681Y-91713349D01*
X137883967Y-91727543D01*
X137875895Y-91741011D01*
X137866542Y-91753623D01*
X137855997Y-91765257D01*
X137844363Y-91775802D01*
X137831751Y-91785155D01*
X137818283Y-91793227D01*
X137804089Y-91799941D01*
X137789306Y-91805230D01*
X137774074Y-91809046D01*
X137758543Y-91811350D01*
X137742860Y-91812120D01*
X137422860Y-91812120D01*
X137407177Y-91811350D01*
X137391646Y-91809046D01*
X137376414Y-91805230D01*
X137361631Y-91799941D01*
X137347437Y-91793227D01*
X137333969Y-91785155D01*
X137321357Y-91775802D01*
X137309723Y-91765257D01*
X137299178Y-91753623D01*
X137289825Y-91741011D01*
X137281753Y-91727543D01*
X137275039Y-91713349D01*
X137269750Y-91698566D01*
X137265934Y-91683334D01*
X137263630Y-91667803D01*
X137262860Y-91652120D01*
X137262860Y-91332120D01*
X137263630Y-91316437D01*
X137265934Y-91300906D01*
X137269750Y-91285674D01*
X137275039Y-91270891D01*
X137281753Y-91256697D01*
X137289825Y-91243229D01*
X137299178Y-91230617D01*
X137309723Y-91218983D01*
X137321357Y-91208438D01*
X137333969Y-91199085D01*
X137347437Y-91191013D01*
X137361631Y-91184299D01*
X137376414Y-91179010D01*
X137391646Y-91175194D01*
X137407177Y-91172890D01*
X137422860Y-91172120D01*
X137742860Y-91172120D01*
X137758543Y-91172890D01*
X137758543Y-91172890D01*
G37*
D30*
X137582860Y-91492120D03*
D10*
G36*
X137758543Y-91972890D02*
X137774074Y-91975194D01*
X137789306Y-91979010D01*
X137804089Y-91984299D01*
X137818283Y-91991013D01*
X137831751Y-91999085D01*
X137844363Y-92008438D01*
X137855997Y-92018983D01*
X137866542Y-92030617D01*
X137875895Y-92043229D01*
X137883967Y-92056697D01*
X137890681Y-92070891D01*
X137895970Y-92085674D01*
X137899786Y-92100906D01*
X137902090Y-92116437D01*
X137902860Y-92132120D01*
X137902860Y-92452120D01*
X137902090Y-92467803D01*
X137899786Y-92483334D01*
X137895970Y-92498566D01*
X137890681Y-92513349D01*
X137883967Y-92527543D01*
X137875895Y-92541011D01*
X137866542Y-92553623D01*
X137855997Y-92565257D01*
X137844363Y-92575802D01*
X137831751Y-92585155D01*
X137818283Y-92593227D01*
X137804089Y-92599941D01*
X137789306Y-92605230D01*
X137774074Y-92609046D01*
X137758543Y-92611350D01*
X137742860Y-92612120D01*
X137422860Y-92612120D01*
X137407177Y-92611350D01*
X137391646Y-92609046D01*
X137376414Y-92605230D01*
X137361631Y-92599941D01*
X137347437Y-92593227D01*
X137333969Y-92585155D01*
X137321357Y-92575802D01*
X137309723Y-92565257D01*
X137299178Y-92553623D01*
X137289825Y-92541011D01*
X137281753Y-92527543D01*
X137275039Y-92513349D01*
X137269750Y-92498566D01*
X137265934Y-92483334D01*
X137263630Y-92467803D01*
X137262860Y-92452120D01*
X137262860Y-92132120D01*
X137263630Y-92116437D01*
X137265934Y-92100906D01*
X137269750Y-92085674D01*
X137275039Y-92070891D01*
X137281753Y-92056697D01*
X137289825Y-92043229D01*
X137299178Y-92030617D01*
X137309723Y-92018983D01*
X137321357Y-92008438D01*
X137333969Y-91999085D01*
X137347437Y-91991013D01*
X137361631Y-91984299D01*
X137376414Y-91979010D01*
X137391646Y-91975194D01*
X137407177Y-91972890D01*
X137422860Y-91972120D01*
X137742860Y-91972120D01*
X137758543Y-91972890D01*
X137758543Y-91972890D01*
G37*
D30*
X137582860Y-92292120D03*
G04 #@! TD*
D31*
G04 #@! TO.C,SW4*
X130514837Y-103183057D03*
X130514837Y-110383057D03*
X133514837Y-103183057D03*
X133514837Y-110383057D03*
G04 #@! TD*
G04 #@! TO.C,SW5*
X133613897Y-120223017D03*
X133613897Y-113023017D03*
X130613897Y-120223017D03*
X130613897Y-113023017D03*
G04 #@! TD*
M02*
