G04 #@! TF.GenerationSoftware,KiCad,Pcbnew,(5.0.1)-3*
G04 #@! TF.CreationDate,2019-12-25T14:02:51-05:00*
G04 #@! TF.ProjectId,SmartWatch,536D61727457617463682E6B69636164,rev?*
G04 #@! TF.SameCoordinates,Original*
G04 #@! TF.FileFunction,Soldermask,Bot*
G04 #@! TF.FilePolarity,Negative*
%FSLAX46Y46*%
G04 Gerber Fmt 4.6, Leading zero omitted, Abs format (unit mm)*
G04 Created by KiCad (PCBNEW (5.0.1)-3) date 12/25/2019 2:02:51 PM*
%MOMM*%
%LPD*%
G01*
G04 APERTURE LIST*
%ADD10C,0.100000*%
G04 APERTURE END LIST*
D10*
G36*
X137075169Y-111044220D02*
X137235395Y-111092823D01*
X137383059Y-111171752D01*
X137512488Y-111277972D01*
X137618708Y-111407401D01*
X137697637Y-111555065D01*
X137746240Y-111715291D01*
X137762652Y-111881920D01*
X137746240Y-112048549D01*
X137697637Y-112208775D01*
X137618708Y-112356439D01*
X137512488Y-112485868D01*
X137383059Y-112592088D01*
X137235395Y-112671017D01*
X137075169Y-112719620D01*
X136950289Y-112731920D01*
X136866791Y-112731920D01*
X136741911Y-112719620D01*
X136581685Y-112671017D01*
X136434021Y-112592088D01*
X136304592Y-112485868D01*
X136198372Y-112356439D01*
X136119443Y-112208775D01*
X136070840Y-112048549D01*
X136054428Y-111881920D01*
X136070840Y-111715291D01*
X136119443Y-111555065D01*
X136198372Y-111407401D01*
X136304592Y-111277972D01*
X136434021Y-111171752D01*
X136581685Y-111092823D01*
X136741911Y-111044220D01*
X136866791Y-111031920D01*
X136950289Y-111031920D01*
X137075169Y-111044220D01*
X137075169Y-111044220D01*
G37*
G36*
X139615169Y-111044220D02*
X139775395Y-111092823D01*
X139923059Y-111171752D01*
X140052488Y-111277972D01*
X140158708Y-111407401D01*
X140237637Y-111555065D01*
X140286240Y-111715291D01*
X140302652Y-111881920D01*
X140286240Y-112048549D01*
X140237637Y-112208775D01*
X140158708Y-112356439D01*
X140052488Y-112485868D01*
X139923059Y-112592088D01*
X139775395Y-112671017D01*
X139615169Y-112719620D01*
X139490289Y-112731920D01*
X139406791Y-112731920D01*
X139281911Y-112719620D01*
X139121685Y-112671017D01*
X138974021Y-112592088D01*
X138844592Y-112485868D01*
X138738372Y-112356439D01*
X138659443Y-112208775D01*
X138610840Y-112048549D01*
X138594428Y-111881920D01*
X138610840Y-111715291D01*
X138659443Y-111555065D01*
X138738372Y-111407401D01*
X138844592Y-111277972D01*
X138974021Y-111171752D01*
X139121685Y-111092823D01*
X139281911Y-111044220D01*
X139406791Y-111031920D01*
X139490289Y-111031920D01*
X139615169Y-111044220D01*
X139615169Y-111044220D01*
G37*
G36*
X137075169Y-108504220D02*
X137235395Y-108552823D01*
X137383059Y-108631752D01*
X137512488Y-108737972D01*
X137618708Y-108867401D01*
X137697637Y-109015065D01*
X137746240Y-109175291D01*
X137762652Y-109341920D01*
X137746240Y-109508549D01*
X137697637Y-109668775D01*
X137618708Y-109816439D01*
X137512488Y-109945868D01*
X137383059Y-110052088D01*
X137235395Y-110131017D01*
X137075169Y-110179620D01*
X136950289Y-110191920D01*
X136866791Y-110191920D01*
X136741911Y-110179620D01*
X136581685Y-110131017D01*
X136434021Y-110052088D01*
X136304592Y-109945868D01*
X136198372Y-109816439D01*
X136119443Y-109668775D01*
X136070840Y-109508549D01*
X136054428Y-109341920D01*
X136070840Y-109175291D01*
X136119443Y-109015065D01*
X136198372Y-108867401D01*
X136304592Y-108737972D01*
X136434021Y-108631752D01*
X136581685Y-108552823D01*
X136741911Y-108504220D01*
X136866791Y-108491920D01*
X136950289Y-108491920D01*
X137075169Y-108504220D01*
X137075169Y-108504220D01*
G37*
G36*
X139615169Y-108504220D02*
X139775395Y-108552823D01*
X139923059Y-108631752D01*
X140052488Y-108737972D01*
X140158708Y-108867401D01*
X140237637Y-109015065D01*
X140286240Y-109175291D01*
X140302652Y-109341920D01*
X140286240Y-109508549D01*
X140237637Y-109668775D01*
X140158708Y-109816439D01*
X140052488Y-109945868D01*
X139923059Y-110052088D01*
X139775395Y-110131017D01*
X139615169Y-110179620D01*
X139490289Y-110191920D01*
X139406791Y-110191920D01*
X139281911Y-110179620D01*
X139121685Y-110131017D01*
X138974021Y-110052088D01*
X138844592Y-109945868D01*
X138738372Y-109816439D01*
X138659443Y-109668775D01*
X138610840Y-109508549D01*
X138594428Y-109341920D01*
X138610840Y-109175291D01*
X138659443Y-109015065D01*
X138738372Y-108867401D01*
X138844592Y-108737972D01*
X138974021Y-108631752D01*
X139121685Y-108552823D01*
X139281911Y-108504220D01*
X139406791Y-108491920D01*
X139490289Y-108491920D01*
X139615169Y-108504220D01*
X139615169Y-108504220D01*
G37*
G36*
X139615169Y-105964220D02*
X139775395Y-106012823D01*
X139923059Y-106091752D01*
X140052488Y-106197972D01*
X140158708Y-106327401D01*
X140237637Y-106475065D01*
X140286240Y-106635291D01*
X140302652Y-106801920D01*
X140286240Y-106968549D01*
X140237637Y-107128775D01*
X140158708Y-107276439D01*
X140052488Y-107405868D01*
X139923059Y-107512088D01*
X139775395Y-107591017D01*
X139615169Y-107639620D01*
X139490289Y-107651920D01*
X139406791Y-107651920D01*
X139281911Y-107639620D01*
X139121685Y-107591017D01*
X138974021Y-107512088D01*
X138844592Y-107405868D01*
X138738372Y-107276439D01*
X138659443Y-107128775D01*
X138610840Y-106968549D01*
X138594428Y-106801920D01*
X138610840Y-106635291D01*
X138659443Y-106475065D01*
X138738372Y-106327401D01*
X138844592Y-106197972D01*
X138974021Y-106091752D01*
X139121685Y-106012823D01*
X139281911Y-105964220D01*
X139406791Y-105951920D01*
X139490289Y-105951920D01*
X139615169Y-105964220D01*
X139615169Y-105964220D01*
G37*
G36*
X137075169Y-105964220D02*
X137235395Y-106012823D01*
X137383059Y-106091752D01*
X137512488Y-106197972D01*
X137618708Y-106327401D01*
X137697637Y-106475065D01*
X137746240Y-106635291D01*
X137762652Y-106801920D01*
X137746240Y-106968549D01*
X137697637Y-107128775D01*
X137618708Y-107276439D01*
X137512488Y-107405868D01*
X137383059Y-107512088D01*
X137235395Y-107591017D01*
X137075169Y-107639620D01*
X136950289Y-107651920D01*
X136866791Y-107651920D01*
X136741911Y-107639620D01*
X136581685Y-107591017D01*
X136434021Y-107512088D01*
X136304592Y-107405868D01*
X136198372Y-107276439D01*
X136119443Y-107128775D01*
X136070840Y-106968549D01*
X136054428Y-106801920D01*
X136070840Y-106635291D01*
X136119443Y-106475065D01*
X136198372Y-106327401D01*
X136304592Y-106197972D01*
X136434021Y-106091752D01*
X136581685Y-106012823D01*
X136741911Y-105964220D01*
X136866791Y-105951920D01*
X136950289Y-105951920D01*
X137075169Y-105964220D01*
X137075169Y-105964220D01*
G37*
G36*
X137075169Y-103424220D02*
X137235395Y-103472823D01*
X137383059Y-103551752D01*
X137512488Y-103657972D01*
X137618708Y-103787401D01*
X137697637Y-103935065D01*
X137746240Y-104095291D01*
X137762652Y-104261920D01*
X137746240Y-104428549D01*
X137697637Y-104588775D01*
X137618708Y-104736439D01*
X137512488Y-104865868D01*
X137383059Y-104972088D01*
X137235395Y-105051017D01*
X137075169Y-105099620D01*
X136950289Y-105111920D01*
X136866791Y-105111920D01*
X136741911Y-105099620D01*
X136581685Y-105051017D01*
X136434021Y-104972088D01*
X136304592Y-104865868D01*
X136198372Y-104736439D01*
X136119443Y-104588775D01*
X136070840Y-104428549D01*
X136054428Y-104261920D01*
X136070840Y-104095291D01*
X136119443Y-103935065D01*
X136198372Y-103787401D01*
X136304592Y-103657972D01*
X136434021Y-103551752D01*
X136581685Y-103472823D01*
X136741911Y-103424220D01*
X136866791Y-103411920D01*
X136950289Y-103411920D01*
X137075169Y-103424220D01*
X137075169Y-103424220D01*
G37*
G36*
X139615169Y-103424220D02*
X139775395Y-103472823D01*
X139923059Y-103551752D01*
X140052488Y-103657972D01*
X140158708Y-103787401D01*
X140237637Y-103935065D01*
X140286240Y-104095291D01*
X140302652Y-104261920D01*
X140286240Y-104428549D01*
X140237637Y-104588775D01*
X140158708Y-104736439D01*
X140052488Y-104865868D01*
X139923059Y-104972088D01*
X139775395Y-105051017D01*
X139615169Y-105099620D01*
X139490289Y-105111920D01*
X139406791Y-105111920D01*
X139281911Y-105099620D01*
X139121685Y-105051017D01*
X138974021Y-104972088D01*
X138844592Y-104865868D01*
X138738372Y-104736439D01*
X138659443Y-104588775D01*
X138610840Y-104428549D01*
X138594428Y-104261920D01*
X138610840Y-104095291D01*
X138659443Y-103935065D01*
X138738372Y-103787401D01*
X138844592Y-103657972D01*
X138974021Y-103551752D01*
X139121685Y-103472823D01*
X139281911Y-103424220D01*
X139406791Y-103411920D01*
X139490289Y-103411920D01*
X139615169Y-103424220D01*
X139615169Y-103424220D01*
G37*
G36*
X137075169Y-100884220D02*
X137235395Y-100932823D01*
X137383059Y-101011752D01*
X137512488Y-101117972D01*
X137618708Y-101247401D01*
X137697637Y-101395065D01*
X137746240Y-101555291D01*
X137762652Y-101721920D01*
X137746240Y-101888549D01*
X137697637Y-102048775D01*
X137618708Y-102196439D01*
X137512488Y-102325868D01*
X137383059Y-102432088D01*
X137235395Y-102511017D01*
X137075169Y-102559620D01*
X136950289Y-102571920D01*
X136866791Y-102571920D01*
X136741911Y-102559620D01*
X136581685Y-102511017D01*
X136434021Y-102432088D01*
X136304592Y-102325868D01*
X136198372Y-102196439D01*
X136119443Y-102048775D01*
X136070840Y-101888549D01*
X136054428Y-101721920D01*
X136070840Y-101555291D01*
X136119443Y-101395065D01*
X136198372Y-101247401D01*
X136304592Y-101117972D01*
X136434021Y-101011752D01*
X136581685Y-100932823D01*
X136741911Y-100884220D01*
X136866791Y-100871920D01*
X136950289Y-100871920D01*
X137075169Y-100884220D01*
X137075169Y-100884220D01*
G37*
G36*
X139615169Y-100884220D02*
X139775395Y-100932823D01*
X139923059Y-101011752D01*
X140052488Y-101117972D01*
X140158708Y-101247401D01*
X140237637Y-101395065D01*
X140286240Y-101555291D01*
X140302652Y-101721920D01*
X140286240Y-101888549D01*
X140237637Y-102048775D01*
X140158708Y-102196439D01*
X140052488Y-102325868D01*
X139923059Y-102432088D01*
X139775395Y-102511017D01*
X139615169Y-102559620D01*
X139490289Y-102571920D01*
X139406791Y-102571920D01*
X139281911Y-102559620D01*
X139121685Y-102511017D01*
X138974021Y-102432088D01*
X138844592Y-102325868D01*
X138738372Y-102196439D01*
X138659443Y-102048775D01*
X138610840Y-101888549D01*
X138594428Y-101721920D01*
X138610840Y-101555291D01*
X138659443Y-101395065D01*
X138738372Y-101247401D01*
X138844592Y-101117972D01*
X138974021Y-101011752D01*
X139121685Y-100932823D01*
X139281911Y-100884220D01*
X139406791Y-100871920D01*
X139490289Y-100871920D01*
X139615169Y-100884220D01*
X139615169Y-100884220D01*
G37*
G36*
X137758540Y-100031920D02*
X136058540Y-100031920D01*
X136058540Y-98331920D01*
X137758540Y-98331920D01*
X137758540Y-100031920D01*
X137758540Y-100031920D01*
G37*
G36*
X139615169Y-98344220D02*
X139775395Y-98392823D01*
X139923059Y-98471752D01*
X140052488Y-98577972D01*
X140158708Y-98707401D01*
X140237637Y-98855065D01*
X140286240Y-99015291D01*
X140302652Y-99181920D01*
X140286240Y-99348549D01*
X140237637Y-99508775D01*
X140158708Y-99656439D01*
X140052488Y-99785868D01*
X139923059Y-99892088D01*
X139775395Y-99971017D01*
X139615169Y-100019620D01*
X139490289Y-100031920D01*
X139406791Y-100031920D01*
X139281911Y-100019620D01*
X139121685Y-99971017D01*
X138974021Y-99892088D01*
X138844592Y-99785868D01*
X138738372Y-99656439D01*
X138659443Y-99508775D01*
X138610840Y-99348549D01*
X138594428Y-99181920D01*
X138610840Y-99015291D01*
X138659443Y-98855065D01*
X138738372Y-98707401D01*
X138844592Y-98577972D01*
X138974021Y-98471752D01*
X139121685Y-98392823D01*
X139281911Y-98344220D01*
X139406791Y-98331920D01*
X139490289Y-98331920D01*
X139615169Y-98344220D01*
X139615169Y-98344220D01*
G37*
M02*
