G04 #@! TF.GenerationSoftware,KiCad,Pcbnew,(5.0.1)-3*
G04 #@! TF.CreationDate,2019-12-25T14:02:51-05:00*
G04 #@! TF.ProjectId,SmartWatch,536D61727457617463682E6B69636164,rev?*
G04 #@! TF.SameCoordinates,Original*
G04 #@! TF.FileFunction,Copper,L4,Bot,Signal*
G04 #@! TF.FilePolarity,Positive*
%FSLAX46Y46*%
G04 Gerber Fmt 4.6, Leading zero omitted, Abs format (unit mm)*
G04 Created by KiCad (PCBNEW (5.0.1)-3) date 12/25/2019 2:02:51 PM*
%MOMM*%
%LPD*%
G01*
G04 APERTURE LIST*
G04 #@! TA.AperFunction,NonConductor*
%ADD10C,0.125000*%
G04 #@! TD*
G04 #@! TA.AperFunction,ComponentPad*
%ADD11R,1.700000X1.700000*%
G04 #@! TD*
G04 #@! TA.AperFunction,ComponentPad*
%ADD12O,1.700000X1.700000*%
G04 #@! TD*
G04 #@! TA.AperFunction,ViaPad*
%ADD13C,0.500000*%
G04 #@! TD*
G04 #@! TA.AperFunction,Conductor*
%ADD14C,0.100000*%
G04 #@! TD*
G04 #@! TA.AperFunction,Conductor*
%ADD15C,2.410000*%
G04 #@! TD*
G04 #@! TA.AperFunction,ViaPad*
%ADD16C,0.450000*%
G04 #@! TD*
G04 #@! TA.AperFunction,ViaPad*
%ADD17C,0.800000*%
G04 #@! TD*
G04 #@! TA.AperFunction,Conductor*
%ADD18C,0.250000*%
G04 #@! TD*
G04 #@! TA.AperFunction,Conductor*
%ADD19C,0.200000*%
G04 #@! TD*
G04 #@! TA.AperFunction,Conductor*
%ADD20C,0.120000*%
G04 #@! TD*
G04 #@! TA.AperFunction,Conductor*
%ADD21C,0.150000*%
G04 #@! TD*
G04 #@! TA.AperFunction,Conductor*
%ADD22C,0.500000*%
G04 #@! TD*
G04 #@! TA.AperFunction,Conductor*
%ADD23C,0.254000*%
G04 #@! TD*
G04 APERTURE END LIST*
D10*
X131156214Y-120042190D02*
X131156214Y-119875523D01*
X130894309Y-119804095D02*
X130894309Y-120042190D01*
X131394309Y-120042190D01*
X131394309Y-119804095D01*
X130918119Y-119613619D02*
X130894309Y-119542190D01*
X130894309Y-119423142D01*
X130918119Y-119375523D01*
X130941928Y-119351714D01*
X130989547Y-119327904D01*
X131037166Y-119327904D01*
X131084785Y-119351714D01*
X131108595Y-119375523D01*
X131132404Y-119423142D01*
X131156214Y-119518380D01*
X131180023Y-119566000D01*
X131203833Y-119589809D01*
X131251452Y-119613619D01*
X131299071Y-119613619D01*
X131346690Y-119589809D01*
X131370500Y-119566000D01*
X131394309Y-119518380D01*
X131394309Y-119399333D01*
X131370500Y-119327904D01*
X130894309Y-119113619D02*
X131394309Y-119113619D01*
X131394309Y-118923142D01*
X131370500Y-118875523D01*
X131346690Y-118851714D01*
X131299071Y-118827904D01*
X131227642Y-118827904D01*
X131180023Y-118851714D01*
X131156214Y-118875523D01*
X131132404Y-118923142D01*
X131132404Y-119113619D01*
X131394309Y-118661238D02*
X131394309Y-118351714D01*
X131203833Y-118518380D01*
X131203833Y-118446952D01*
X131180023Y-118399333D01*
X131156214Y-118375523D01*
X131108595Y-118351714D01*
X130989547Y-118351714D01*
X130941928Y-118375523D01*
X130918119Y-118399333D01*
X130894309Y-118446952D01*
X130894309Y-118589809D01*
X130918119Y-118637428D01*
X130941928Y-118661238D01*
X131346690Y-118161238D02*
X131370500Y-118137428D01*
X131394309Y-118089809D01*
X131394309Y-117970761D01*
X131370500Y-117923142D01*
X131346690Y-117899333D01*
X131299071Y-117875523D01*
X131251452Y-117875523D01*
X131180023Y-117899333D01*
X130894309Y-118185047D01*
X130894309Y-117875523D01*
X130918119Y-117304095D02*
X130894309Y-117232666D01*
X130894309Y-117113619D01*
X130918119Y-117066000D01*
X130941928Y-117042190D01*
X130989547Y-117018380D01*
X131037166Y-117018380D01*
X131084785Y-117042190D01*
X131108595Y-117066000D01*
X131132404Y-117113619D01*
X131156214Y-117208857D01*
X131180023Y-117256476D01*
X131203833Y-117280285D01*
X131251452Y-117304095D01*
X131299071Y-117304095D01*
X131346690Y-117280285D01*
X131370500Y-117256476D01*
X131394309Y-117208857D01*
X131394309Y-117089809D01*
X131370500Y-117018380D01*
X130894309Y-116804095D02*
X131227642Y-116804095D01*
X131180023Y-116804095D02*
X131203833Y-116780285D01*
X131227642Y-116732666D01*
X131227642Y-116661238D01*
X131203833Y-116613619D01*
X131156214Y-116589809D01*
X130894309Y-116589809D01*
X131156214Y-116589809D02*
X131203833Y-116566000D01*
X131227642Y-116518380D01*
X131227642Y-116446952D01*
X131203833Y-116399333D01*
X131156214Y-116375523D01*
X130894309Y-116375523D01*
X130894309Y-115923142D02*
X131156214Y-115923142D01*
X131203833Y-115946952D01*
X131227642Y-115994571D01*
X131227642Y-116089809D01*
X131203833Y-116137428D01*
X130918119Y-115923142D02*
X130894309Y-115970761D01*
X130894309Y-116089809D01*
X130918119Y-116137428D01*
X130965738Y-116161238D01*
X131013357Y-116161238D01*
X131060976Y-116137428D01*
X131084785Y-116089809D01*
X131084785Y-115970761D01*
X131108595Y-115923142D01*
X130894309Y-115685047D02*
X131227642Y-115685047D01*
X131132404Y-115685047D02*
X131180023Y-115661238D01*
X131203833Y-115637428D01*
X131227642Y-115589809D01*
X131227642Y-115542190D01*
X131227642Y-115446952D02*
X131227642Y-115256476D01*
X131394309Y-115375523D02*
X130965738Y-115375523D01*
X130918119Y-115351714D01*
X130894309Y-115304095D01*
X130894309Y-115256476D01*
X131394309Y-115137428D02*
X130894309Y-115018380D01*
X131251452Y-114923142D01*
X130894309Y-114827904D01*
X131394309Y-114708857D01*
X130894309Y-114304095D02*
X131156214Y-114304095D01*
X131203833Y-114327904D01*
X131227642Y-114375523D01*
X131227642Y-114470761D01*
X131203833Y-114518380D01*
X130918119Y-114304095D02*
X130894309Y-114351714D01*
X130894309Y-114470761D01*
X130918119Y-114518380D01*
X130965738Y-114542190D01*
X131013357Y-114542190D01*
X131060976Y-114518380D01*
X131084785Y-114470761D01*
X131084785Y-114351714D01*
X131108595Y-114304095D01*
X131227642Y-114137428D02*
X131227642Y-113946952D01*
X131394309Y-114066000D02*
X130965738Y-114066000D01*
X130918119Y-114042190D01*
X130894309Y-113994571D01*
X130894309Y-113946952D01*
X130918119Y-113566000D02*
X130894309Y-113613619D01*
X130894309Y-113708857D01*
X130918119Y-113756476D01*
X130941928Y-113780285D01*
X130989547Y-113804095D01*
X131132404Y-113804095D01*
X131180023Y-113780285D01*
X131203833Y-113756476D01*
X131227642Y-113708857D01*
X131227642Y-113613619D01*
X131203833Y-113566000D01*
X130894309Y-113351714D02*
X131394309Y-113351714D01*
X130894309Y-113137428D02*
X131156214Y-113137428D01*
X131203833Y-113161238D01*
X131227642Y-113208857D01*
X131227642Y-113280285D01*
X131203833Y-113327904D01*
X131180023Y-113351714D01*
X130894309Y-112232666D02*
X131132404Y-112399333D01*
X130894309Y-112518380D02*
X131394309Y-112518380D01*
X131394309Y-112327904D01*
X131370500Y-112280285D01*
X131346690Y-112256476D01*
X131299071Y-112232666D01*
X131227642Y-112232666D01*
X131180023Y-112256476D01*
X131156214Y-112280285D01*
X131132404Y-112327904D01*
X131132404Y-112518380D01*
X130918119Y-111827904D02*
X130894309Y-111875523D01*
X130894309Y-111970761D01*
X130918119Y-112018380D01*
X130965738Y-112042190D01*
X131156214Y-112042190D01*
X131203833Y-112018380D01*
X131227642Y-111970761D01*
X131227642Y-111875523D01*
X131203833Y-111827904D01*
X131156214Y-111804095D01*
X131108595Y-111804095D01*
X131060976Y-112042190D01*
X131227642Y-111637428D02*
X130894309Y-111518380D01*
X131227642Y-111399333D01*
X131346690Y-110851714D02*
X131370500Y-110827904D01*
X131394309Y-110780285D01*
X131394309Y-110661238D01*
X131370500Y-110613619D01*
X131346690Y-110589809D01*
X131299071Y-110566000D01*
X131251452Y-110566000D01*
X131180023Y-110589809D01*
X130894309Y-110875523D01*
X130894309Y-110566000D01*
X130019309Y-120054095D02*
X130519309Y-120054095D01*
X130162166Y-119887428D01*
X130519309Y-119720761D01*
X130019309Y-119720761D01*
X130019309Y-119268380D02*
X130281214Y-119268380D01*
X130328833Y-119292190D01*
X130352642Y-119339809D01*
X130352642Y-119435047D01*
X130328833Y-119482666D01*
X130043119Y-119268380D02*
X130019309Y-119316000D01*
X130019309Y-119435047D01*
X130043119Y-119482666D01*
X130090738Y-119506476D01*
X130138357Y-119506476D01*
X130185976Y-119482666D01*
X130209785Y-119435047D01*
X130209785Y-119316000D01*
X130233595Y-119268380D01*
X130352642Y-119101714D02*
X130352642Y-118911238D01*
X130519309Y-119030285D02*
X130090738Y-119030285D01*
X130043119Y-119006476D01*
X130019309Y-118958857D01*
X130019309Y-118911238D01*
X130352642Y-118816000D02*
X130352642Y-118625523D01*
X130519309Y-118744571D02*
X130090738Y-118744571D01*
X130043119Y-118720761D01*
X130019309Y-118673142D01*
X130019309Y-118625523D01*
X130019309Y-118458857D02*
X130519309Y-118458857D01*
X130019309Y-118244571D02*
X130281214Y-118244571D01*
X130328833Y-118268380D01*
X130352642Y-118316000D01*
X130352642Y-118387428D01*
X130328833Y-118435047D01*
X130305023Y-118458857D01*
X130043119Y-117816000D02*
X130019309Y-117863619D01*
X130019309Y-117958857D01*
X130043119Y-118006476D01*
X130090738Y-118030285D01*
X130281214Y-118030285D01*
X130328833Y-118006476D01*
X130352642Y-117958857D01*
X130352642Y-117863619D01*
X130328833Y-117816000D01*
X130281214Y-117792190D01*
X130233595Y-117792190D01*
X130185976Y-118030285D01*
X130352642Y-117625523D02*
X130019309Y-117530285D01*
X130257404Y-117435047D01*
X130019309Y-117339809D01*
X130352642Y-117244571D01*
X130519309Y-116530285D02*
X130162166Y-116530285D01*
X130090738Y-116554095D01*
X130043119Y-116601714D01*
X130019309Y-116673142D01*
X130019309Y-116720761D01*
X130019309Y-116077904D02*
X130281214Y-116077904D01*
X130328833Y-116101714D01*
X130352642Y-116149333D01*
X130352642Y-116244571D01*
X130328833Y-116292190D01*
X130043119Y-116077904D02*
X130019309Y-116125523D01*
X130019309Y-116244571D01*
X130043119Y-116292190D01*
X130090738Y-116316000D01*
X130138357Y-116316000D01*
X130185976Y-116292190D01*
X130209785Y-116244571D01*
X130209785Y-116125523D01*
X130233595Y-116077904D01*
X130019309Y-115839809D02*
X130352642Y-115839809D01*
X130305023Y-115839809D02*
X130328833Y-115816000D01*
X130352642Y-115768380D01*
X130352642Y-115696952D01*
X130328833Y-115649333D01*
X130281214Y-115625523D01*
X130019309Y-115625523D01*
X130281214Y-115625523D02*
X130328833Y-115601714D01*
X130352642Y-115554095D01*
X130352642Y-115482666D01*
X130328833Y-115435047D01*
X130281214Y-115411238D01*
X130019309Y-115411238D01*
X130043119Y-114982666D02*
X130019309Y-115030285D01*
X130019309Y-115125523D01*
X130043119Y-115173142D01*
X130090738Y-115196952D01*
X130281214Y-115196952D01*
X130328833Y-115173142D01*
X130352642Y-115125523D01*
X130352642Y-115030285D01*
X130328833Y-114982666D01*
X130281214Y-114958857D01*
X130233595Y-114958857D01*
X130185976Y-115196952D01*
X130043119Y-114768380D02*
X130019309Y-114720761D01*
X130019309Y-114625523D01*
X130043119Y-114577904D01*
X130090738Y-114554095D01*
X130114547Y-114554095D01*
X130162166Y-114577904D01*
X130185976Y-114625523D01*
X130185976Y-114696952D01*
X130209785Y-114744571D01*
X130257404Y-114768380D01*
X130281214Y-114768380D01*
X130328833Y-114744571D01*
X130352642Y-114696952D01*
X130352642Y-114625523D01*
X130328833Y-114577904D01*
X130281214Y-113792190D02*
X130257404Y-113720761D01*
X130233595Y-113696952D01*
X130185976Y-113673142D01*
X130114547Y-113673142D01*
X130066928Y-113696952D01*
X130043119Y-113720761D01*
X130019309Y-113768380D01*
X130019309Y-113958857D01*
X130519309Y-113958857D01*
X130519309Y-113792190D01*
X130495500Y-113744571D01*
X130471690Y-113720761D01*
X130424071Y-113696952D01*
X130376452Y-113696952D01*
X130328833Y-113720761D01*
X130305023Y-113744571D01*
X130281214Y-113792190D01*
X130281214Y-113958857D01*
X130043119Y-113268380D02*
X130019309Y-113316000D01*
X130019309Y-113411238D01*
X130043119Y-113458857D01*
X130090738Y-113482666D01*
X130281214Y-113482666D01*
X130328833Y-113458857D01*
X130352642Y-113411238D01*
X130352642Y-113316000D01*
X130328833Y-113268380D01*
X130281214Y-113244571D01*
X130233595Y-113244571D01*
X130185976Y-113482666D01*
X130019309Y-112958857D02*
X130043119Y-113006476D01*
X130090738Y-113030285D01*
X130519309Y-113030285D01*
X130019309Y-112696952D02*
X130043119Y-112744571D01*
X130090738Y-112768380D01*
X130519309Y-112768380D01*
X130019309Y-112292190D02*
X130281214Y-112292190D01*
X130328833Y-112316000D01*
X130352642Y-112363619D01*
X130352642Y-112458857D01*
X130328833Y-112506476D01*
X130043119Y-112292190D02*
X130019309Y-112339809D01*
X130019309Y-112458857D01*
X130043119Y-112506476D01*
X130090738Y-112530285D01*
X130138357Y-112530285D01*
X130185976Y-112506476D01*
X130209785Y-112458857D01*
X130209785Y-112339809D01*
X130233595Y-112292190D01*
X130352642Y-112125523D02*
X130352642Y-111935047D01*
X130019309Y-112054095D02*
X130447880Y-112054095D01*
X130495500Y-112030285D01*
X130519309Y-111982666D01*
X130519309Y-111935047D01*
X130019309Y-111554095D02*
X130281214Y-111554095D01*
X130328833Y-111577904D01*
X130352642Y-111625523D01*
X130352642Y-111720761D01*
X130328833Y-111768380D01*
X130043119Y-111554095D02*
X130019309Y-111601714D01*
X130019309Y-111720761D01*
X130043119Y-111768380D01*
X130090738Y-111792190D01*
X130138357Y-111792190D01*
X130185976Y-111768380D01*
X130209785Y-111720761D01*
X130209785Y-111601714D01*
X130233595Y-111554095D01*
X130019309Y-111316000D02*
X130352642Y-111316000D01*
X130519309Y-111316000D02*
X130495500Y-111339809D01*
X130471690Y-111316000D01*
X130495500Y-111292190D01*
X130519309Y-111316000D01*
X130471690Y-111316000D01*
X130019309Y-111077904D02*
X130352642Y-111077904D01*
X130257404Y-111077904D02*
X130305023Y-111054095D01*
X130328833Y-111030285D01*
X130352642Y-110982666D01*
X130352642Y-110935047D01*
X130043119Y-110577904D02*
X130019309Y-110625523D01*
X130019309Y-110720761D01*
X130043119Y-110768380D01*
X130090738Y-110792190D01*
X130281214Y-110792190D01*
X130328833Y-110768380D01*
X130352642Y-110720761D01*
X130352642Y-110625523D01*
X130328833Y-110577904D01*
X130281214Y-110554095D01*
X130233595Y-110554095D01*
X130185976Y-110792190D01*
D11*
G04 #@! TO.P,U2,1*
G04 #@! TO.N,Net-(R4-Pad1)*
X136908540Y-99181920D03*
D12*
G04 #@! TO.P,U2,2*
G04 #@! TO.N,Net-(U2-Pad2)*
X139448540Y-99181920D03*
G04 #@! TO.P,U2,3*
G04 #@! TO.N,/LCD_CS*
X136908540Y-101721920D03*
G04 #@! TO.P,U2,4*
G04 #@! TO.N,/TOUCH_CS*
X139448540Y-101721920D03*
G04 #@! TO.P,U2,5*
G04 #@! TO.N,/LCD_LED*
X136908540Y-104261920D03*
G04 #@! TO.P,U2,6*
G04 #@! TO.N,/MISO*
X139448540Y-104261920D03*
G04 #@! TO.P,U2,7*
G04 #@! TO.N,/LCD_RST*
X136908540Y-106801920D03*
G04 #@! TO.P,U2,8*
G04 #@! TO.N,/LCD_A0*
X139448540Y-106801920D03*
G04 #@! TO.P,U2,9*
G04 #@! TO.N,/LCD_SCK*
X136908540Y-109341920D03*
G04 #@! TO.P,U2,10*
G04 #@! TO.N,/MOSI*
X139448540Y-109341920D03*
G04 #@! TO.P,U2,11*
G04 #@! TO.N,GND*
X136908540Y-111881920D03*
G04 #@! TO.P,U2,12*
G04 #@! TO.N,+3V3*
X139448540Y-111881920D03*
G04 #@! TD*
D13*
G04 #@! TO.N,GND*
G04 #@! TO.C,U1*
X153243760Y-113416040D03*
X153243760Y-111506040D03*
X154543760Y-113416040D03*
X154543760Y-111506040D03*
X155843760Y-113416040D03*
X155843760Y-111506040D03*
D14*
G36*
X155868266Y-111257244D02*
X155892534Y-111260844D01*
X155916333Y-111266805D01*
X155939432Y-111275070D01*
X155961610Y-111285559D01*
X155982653Y-111298172D01*
X156002359Y-111312787D01*
X156020537Y-111329263D01*
X156037013Y-111347441D01*
X156051628Y-111367147D01*
X156064241Y-111388190D01*
X156074730Y-111410368D01*
X156082995Y-111433467D01*
X156088956Y-111457266D01*
X156092556Y-111481534D01*
X156093760Y-111506038D01*
X156093760Y-113416042D01*
X156092556Y-113440546D01*
X156088956Y-113464814D01*
X156082995Y-113488613D01*
X156074730Y-113511712D01*
X156064241Y-113533890D01*
X156051628Y-113554933D01*
X156037013Y-113574639D01*
X156020537Y-113592817D01*
X156002359Y-113609293D01*
X155982653Y-113623908D01*
X155961610Y-113636521D01*
X155939432Y-113647010D01*
X155916333Y-113655275D01*
X155892534Y-113661236D01*
X155868266Y-113664836D01*
X155843762Y-113666040D01*
X153243758Y-113666040D01*
X153219254Y-113664836D01*
X153194986Y-113661236D01*
X153171187Y-113655275D01*
X153148088Y-113647010D01*
X153125910Y-113636521D01*
X153104867Y-113623908D01*
X153085161Y-113609293D01*
X153066983Y-113592817D01*
X153050507Y-113574639D01*
X153035892Y-113554933D01*
X153023279Y-113533890D01*
X153012790Y-113511712D01*
X153004525Y-113488613D01*
X152998564Y-113464814D01*
X152994964Y-113440546D01*
X152993760Y-113416042D01*
X152993760Y-111506038D01*
X152994964Y-111481534D01*
X152998564Y-111457266D01*
X153004525Y-111433467D01*
X153012790Y-111410368D01*
X153023279Y-111388190D01*
X153035892Y-111367147D01*
X153050507Y-111347441D01*
X153066983Y-111329263D01*
X153085161Y-111312787D01*
X153104867Y-111298172D01*
X153125910Y-111285559D01*
X153148088Y-111275070D01*
X153171187Y-111266805D01*
X153194986Y-111260844D01*
X153219254Y-111257244D01*
X153243758Y-111256040D01*
X155843762Y-111256040D01*
X155868266Y-111257244D01*
X155868266Y-111257244D01*
G37*
D15*
X154543760Y-112461040D03*
G04 #@! TD*
D16*
G04 #@! TO.N,*
X149860000Y-113030000D03*
G04 #@! TO.N,GND*
X143383000Y-92964000D03*
X141224000Y-95123000D03*
X145542000Y-95123000D03*
X145542000Y-90932000D03*
X141224000Y-90932000D03*
X155194000Y-104140000D03*
X147066000Y-109982000D03*
X143764000Y-110490000D03*
X143002000Y-113538000D03*
X147574000Y-116149625D03*
X148082000Y-116149625D03*
X148764220Y-116078000D03*
X136677400Y-87909400D03*
X137160000Y-87884000D03*
X137668000Y-87884000D03*
X138176000Y-87884000D03*
X138684000Y-87884000D03*
X139192000Y-87884000D03*
X139192000Y-87884000D03*
X139192000Y-87884000D03*
X139700000Y-87884000D03*
X140208000Y-87884000D03*
X140716000Y-87884000D03*
X141224000Y-87884000D03*
X136677400Y-87122000D03*
X137160000Y-87122000D03*
X137668000Y-87122000D03*
X138176000Y-87122000D03*
X138684000Y-87122000D03*
X139192000Y-87122000D03*
X139700000Y-87122000D03*
X140208000Y-87122000D03*
X140716000Y-87122000D03*
X141224000Y-87122000D03*
X141732000Y-87122000D03*
X142240000Y-87122000D03*
X142748000Y-87122000D03*
X143256000Y-87122000D03*
X143764000Y-87122000D03*
X144272000Y-87376000D03*
X144780000Y-87884000D03*
X145288000Y-88265000D03*
X145796000Y-88773000D03*
X141732000Y-87884000D03*
X142240000Y-87884000D03*
X142748000Y-87884000D03*
X143256000Y-87884000D03*
X143764000Y-88011000D03*
X144145000Y-88519000D03*
X144653000Y-88900000D03*
X136652000Y-89154000D03*
X137182860Y-91892120D03*
X148209000Y-96266000D03*
X148209000Y-97790000D03*
X134874000Y-99568000D03*
X134620000Y-103124000D03*
X151257000Y-87503000D03*
X150876000Y-105029000D03*
X150876000Y-103505000D03*
X150876000Y-106426000D03*
X156591000Y-120396000D03*
X156591000Y-119888000D03*
X156591000Y-119380000D03*
X156591000Y-118745000D03*
X156591000Y-118106520D03*
D17*
X155321654Y-106925994D03*
X156972000Y-100330000D03*
X138049000Y-118872000D03*
D16*
X133985000Y-89027000D03*
X130556000Y-90424000D03*
X149860000Y-99060000D03*
X149860000Y-100330000D03*
X149860000Y-101600000D03*
X129540000Y-90170000D03*
X129540000Y-91440000D03*
X129540000Y-92710000D03*
X129540000Y-93980000D03*
X129540000Y-95250000D03*
X129540000Y-96520000D03*
X130810000Y-92710000D03*
X132080000Y-92710000D03*
X133350000Y-92710000D03*
X134620000Y-92710000D03*
X130810000Y-93980000D03*
X132080000Y-93980000D03*
X133350000Y-93980000D03*
X134620000Y-93980000D03*
X130810000Y-95250000D03*
X132080000Y-95250000D03*
X133350000Y-95250000D03*
X134620000Y-95250000D03*
X134620000Y-96520000D03*
X133350000Y-96520000D03*
X132080000Y-96520000D03*
X130810000Y-96520000D03*
X132080000Y-97790000D03*
X133350000Y-97790000D03*
X134620000Y-97790000D03*
X133350000Y-105410000D03*
X134620000Y-105410000D03*
X134620000Y-106680000D03*
X134620000Y-107950000D03*
X133350000Y-107950000D03*
X133350000Y-106680000D03*
X140970000Y-111760000D03*
X140970000Y-110490000D03*
X140970000Y-109220000D03*
X140970000Y-113030000D03*
X147320000Y-114300000D03*
X148590000Y-114300000D03*
X149860000Y-114300000D03*
X149860000Y-115570000D03*
X139700000Y-119380000D03*
X153581100Y-97231200D03*
X153581100Y-95656400D03*
X129540000Y-105410000D03*
X130810000Y-105410000D03*
X132080000Y-105410000D03*
X132080000Y-106680000D03*
X130810000Y-106680000D03*
X129540000Y-106680000D03*
X129540000Y-107950000D03*
X130810000Y-107950000D03*
X132080000Y-107950000D03*
X132080000Y-109220000D03*
X129540000Y-109220000D03*
X133350000Y-109220000D03*
X134620000Y-109220000D03*
X132080000Y-110490000D03*
X132080000Y-111760000D03*
X132080000Y-113030000D03*
X132080000Y-114300000D03*
X133350000Y-115570000D03*
X133350000Y-118110000D03*
X132080000Y-118110000D03*
X132080000Y-116840000D03*
X132080000Y-120650000D03*
X132080000Y-119380000D03*
X133350000Y-114300000D03*
X148590000Y-113030000D03*
X148590000Y-99060000D03*
X148590000Y-100330000D03*
G04 #@! TO.N,+3V3*
X152654000Y-117856000D03*
X152638760Y-117348000D03*
X152638760Y-116840000D03*
X152638760Y-116332000D03*
X147066000Y-111252000D03*
X143764000Y-89027000D03*
X146812000Y-89408000D03*
X147320000Y-91186000D03*
X147193000Y-92710000D03*
X146812000Y-96393000D03*
X137160000Y-93853000D03*
X136017000Y-94996000D03*
X151384000Y-97790000D03*
X151384000Y-96266000D03*
X151257000Y-88900000D03*
X149352000Y-106426000D03*
X149352000Y-105029000D03*
X149352000Y-103505000D03*
X143845881Y-108757119D03*
X143764000Y-109855000D03*
X148463000Y-101473000D03*
X139446000Y-93345000D03*
X139192000Y-89916000D03*
G04 #@! TO.N,Net-(C9-Pad1)*
X147955000Y-89662000D03*
X142113000Y-89154000D03*
G04 #@! TO.N,/ESP32 Pico D4/IO32*
X141122400Y-88646000D03*
X152146000Y-94234000D03*
G04 #@! TO.N,Y_SIG*
X140774962Y-89143690D03*
X138671300Y-90686001D03*
G04 #@! TO.N,Z_SIG*
X137744200Y-94119700D03*
X142697200Y-88696800D03*
G04 #@! TO.N,/TOUCH_CS*
X139573000Y-92329000D03*
G04 #@! TO.N,/LCD_PEN*
X141732000Y-97028000D03*
X139063232Y-95375232D03*
G04 #@! TO.N,/ESP32 Pico D4/IO15*
X147955000Y-91313000D03*
X139446000Y-94445006D03*
G04 #@! TO.N,/ESP32 Pico D4/IO0*
X143267166Y-104151166D03*
X143129000Y-98298000D03*
G04 #@! TO.N,/LCD_SCK*
X145499997Y-97028000D03*
X145288000Y-99568000D03*
X144272000Y-100584000D03*
X143375090Y-106164090D03*
G04 #@! TO.N,/LCD_LED_CTRL*
X139446000Y-91186000D03*
X140986606Y-101740474D03*
G04 #@! TO.N,/LCD_RST*
X147320000Y-94742000D03*
G04 #@! TO.N,/LCD_A0*
X147320000Y-93341540D03*
X147066000Y-103450300D03*
G04 #@! TO.N,/ESP32 Pico D4/DTR*
X144145000Y-111760000D03*
X143764000Y-106553000D03*
G04 #@! TO.N,/ESP32 Pico D4/TXD*
X152273000Y-94869000D03*
X150241000Y-112395000D03*
G04 #@! TO.N,/ESP32 Pico D4/RXD*
X151638000Y-93345000D03*
X151110904Y-110433479D03*
G04 #@! TO.N,/ESP32 Pico D4/RTS*
X150547334Y-111558334D03*
X151384001Y-102616000D03*
X152527000Y-92202000D03*
X152423001Y-101981000D03*
D17*
G04 #@! TO.N,/ESP32 Pico D4/EN*
X141605000Y-114681000D03*
D16*
X144111007Y-105198924D03*
G04 #@! TO.N,/ESP32 Pico D4/CTS*
X151130000Y-109220000D03*
X151130000Y-101600000D03*
X151130000Y-99060000D03*
X151130000Y-100330000D03*
X151257000Y-90551000D03*
D17*
G04 #@! TO.N,VUSB*
X134874000Y-115570000D03*
X135763000Y-115519200D03*
X155248282Y-107823000D03*
D16*
G04 #@! TO.N,UV_LO*
X156464000Y-102870000D03*
X153908760Y-115111040D03*
G04 #@! TO.N,Net-(C1-Pad1)*
X156464000Y-108712000D03*
X154813000Y-101092000D03*
G04 #@! TO.N,/ESP32 Pico D4/IO13*
X147574000Y-91821000D03*
X139446000Y-93895003D03*
G04 #@! TO.N,/MOSI*
X146050000Y-97028000D03*
X145923000Y-107696000D03*
G04 #@! TD*
D14*
G04 #@! TO.N,+3V3*
X139192000Y-89916000D02*
X139192000Y-89916000D01*
X139948001Y-90672001D02*
X139192000Y-89916000D01*
X139446000Y-93011002D02*
X139948001Y-92509001D01*
X139446000Y-93345000D02*
X139446000Y-93011002D01*
X139948001Y-92509001D02*
X139948001Y-90672001D01*
G04 #@! TO.N,Net-(C9-Pad1)*
X147730001Y-89886999D02*
X146735997Y-89886999D01*
X147955000Y-89662000D02*
X147730001Y-89886999D01*
X146735997Y-89886999D02*
X146510998Y-89662000D01*
X146510998Y-89662000D02*
X142621000Y-89662000D01*
X142621000Y-89662000D02*
X142113000Y-89154000D01*
D18*
G04 #@! TO.N,/ESP32 Pico D4/IO32*
X142455007Y-90162009D02*
X141097000Y-88804002D01*
X148120993Y-90162009D02*
X142455007Y-90162009D01*
X148182003Y-90100999D02*
X148120993Y-90162009D01*
X151473001Y-90100999D02*
X148182003Y-90100999D01*
X151841200Y-91503500D02*
X151841200Y-90469198D01*
X151841200Y-90469198D02*
X151473001Y-90100999D01*
X141097000Y-88804002D02*
X141097000Y-88671400D01*
X141097000Y-88671400D02*
X141122400Y-88646000D01*
D19*
X151841200Y-91821698D02*
X151841200Y-91503500D01*
X151841200Y-92145202D02*
X151841200Y-91821698D01*
X152146000Y-92450002D02*
X151841200Y-92145202D01*
X152146000Y-94234000D02*
X152146000Y-92450002D01*
D20*
G04 #@! TO.N,Y_SIG*
X140774962Y-89143690D02*
X139342010Y-89143690D01*
X139342010Y-89143690D02*
X138671300Y-89814400D01*
X138671300Y-89814400D02*
X138671300Y-90686001D01*
D14*
G04 #@! TO.N,Z_SIG*
X139917703Y-88270999D02*
X142271399Y-88270999D01*
X137744200Y-94119700D02*
X137744200Y-90444502D01*
X137744200Y-90444502D02*
X139917703Y-88270999D01*
X142271399Y-88270999D02*
X142697200Y-88696800D01*
G04 #@! TO.N,/TOUCH_CS*
X139573000Y-92329000D02*
X138448539Y-93453461D01*
X138448539Y-93453461D02*
X138448539Y-100721919D01*
X138448539Y-100721919D02*
X138598541Y-100871921D01*
X138598541Y-100871921D02*
X139448540Y-101721920D01*
G04 #@! TO.N,/LCD_PEN*
X141732000Y-97028000D02*
X140335000Y-97028000D01*
X140335000Y-97028000D02*
X139063232Y-95756232D01*
X139063232Y-95756232D02*
X139063232Y-95375232D01*
G04 #@! TO.N,/ESP32 Pico D4/IO15*
X141644997Y-92246009D02*
X139446000Y-94445006D01*
X147431847Y-92246009D02*
X141644997Y-92246009D01*
X147481855Y-92196001D02*
X147431847Y-92246009D01*
X147754001Y-92196001D02*
X147481855Y-92196001D01*
X147949001Y-92001001D02*
X147754001Y-92196001D01*
X147695001Y-91313000D02*
X147695001Y-91366001D01*
X147695001Y-91366001D02*
X147615003Y-91445999D01*
X147615003Y-91445999D02*
X147754001Y-91445999D01*
X147754001Y-91445999D02*
X147949001Y-91640999D01*
X147955000Y-91313000D02*
X147695001Y-91313000D01*
X147949001Y-91640999D02*
X147949001Y-92001001D01*
G04 #@! TO.N,/ESP32 Pico D4/IO0*
X143267166Y-98436166D02*
X143129000Y-98298000D01*
X143267166Y-104151166D02*
X143267166Y-98436166D01*
G04 #@! TO.N,/LCD_SCK*
X145499997Y-99356003D02*
X145288000Y-99568000D01*
X145499997Y-97028000D02*
X145499997Y-99356003D01*
D20*
X143666001Y-105873179D02*
X143621180Y-105918000D01*
D14*
X143621180Y-105918000D02*
X143375090Y-106164090D01*
D20*
X143666001Y-101189999D02*
X144272000Y-100584000D01*
X143666001Y-101346000D02*
X143666001Y-101189999D01*
X143666001Y-101346000D02*
X143666001Y-105873179D01*
G04 #@! TO.N,/LCD_LED_CTRL*
X139995159Y-102731921D02*
X140986606Y-101740474D01*
X138963739Y-102731921D02*
X139995159Y-102731921D01*
X138238529Y-102006711D02*
X138963739Y-102731921D01*
X139446000Y-91186000D02*
X138238529Y-92393471D01*
X138238529Y-92393471D02*
X138238529Y-102006711D01*
D14*
G04 #@! TO.N,/LCD_RST*
X142753999Y-102436463D02*
X142753999Y-96387001D01*
X139928541Y-105261921D02*
X142753999Y-102436463D01*
X136908540Y-106801920D02*
X138448539Y-105261921D01*
X138448539Y-105261921D02*
X139928541Y-105261921D01*
X142753999Y-96387001D02*
X142753999Y-96133001D01*
X142753999Y-96133001D02*
X144145000Y-94742000D01*
X144145000Y-94742000D02*
X147320000Y-94742000D01*
G04 #@! TO.N,/LCD_A0*
X147320000Y-93341540D02*
X147187001Y-93474539D01*
X147187001Y-103256999D02*
X147066000Y-103378000D01*
X147066000Y-103378000D02*
X147066000Y-103450300D01*
X147320000Y-93341540D02*
X147824540Y-93341540D01*
X147824540Y-93341540D02*
X147955000Y-93472000D01*
X147066000Y-103132102D02*
X147066000Y-103450300D01*
X147066000Y-96853998D02*
X147066000Y-103132102D01*
X147955000Y-95964998D02*
X147066000Y-96853998D01*
X147955000Y-93472000D02*
X147955000Y-95964998D01*
G04 #@! TO.N,/ESP32 Pico D4/DTR*
X144220882Y-107009882D02*
X143764000Y-106553000D01*
X144145000Y-109013002D02*
X144220882Y-108937120D01*
X144145000Y-111760000D02*
X144145000Y-109013002D01*
X144220882Y-108937120D02*
X144220882Y-107009882D01*
G04 #@! TO.N,/ESP32 Pico D4/TXD*
X152048001Y-95093999D02*
X152048001Y-110587999D01*
X152273000Y-94869000D02*
X152048001Y-95093999D01*
X152048001Y-110587999D02*
X150241000Y-112395000D01*
G04 #@! TO.N,/ESP32 Pico D4/RXD*
X151759001Y-109987999D02*
X151110904Y-110433479D01*
X151638000Y-95964998D02*
X151759001Y-96085999D01*
X151638000Y-93345000D02*
X151638000Y-95964998D01*
X151759001Y-96085999D02*
X151759001Y-97541999D01*
X151759001Y-97541999D02*
X151725001Y-97575999D01*
X151725001Y-97575999D02*
X151759001Y-97609999D01*
X151759001Y-97609999D02*
X151759001Y-109987999D01*
X151200479Y-110433479D02*
X151110904Y-110433479D01*
X151257000Y-110490000D02*
X151200479Y-110433479D01*
G04 #@! TO.N,/ESP32 Pico D4/RTS*
X151515381Y-102747380D02*
X151384001Y-102616000D01*
X151515381Y-109474000D02*
X151515381Y-102747380D01*
X150735903Y-111369765D02*
X150735903Y-110253478D01*
X150547334Y-111558334D02*
X150735903Y-111369765D01*
X150735903Y-110253478D02*
X151515381Y-109474000D01*
X152400000Y-100330000D02*
X152400000Y-102108000D01*
X152400000Y-99060000D02*
X152400000Y-100330000D01*
X152400000Y-97790000D02*
X152400000Y-99060000D01*
X152400000Y-96520000D02*
X152400000Y-97790000D01*
X152648001Y-96017999D02*
X152400000Y-96266000D01*
X152400000Y-96266000D02*
X152400000Y-96520000D01*
X152527000Y-94567998D02*
X152648001Y-94688999D01*
X152527000Y-92202000D02*
X152527000Y-94567998D01*
X152648001Y-94688999D02*
X152648001Y-96017999D01*
D21*
G04 #@! TO.N,/ESP32 Pico D4/EN*
X144545001Y-105632918D02*
X144111007Y-105198924D01*
X144545001Y-111952001D02*
X144545001Y-105632918D01*
X141605000Y-114115315D02*
X142582316Y-113137999D01*
X143359003Y-113137999D02*
X144545001Y-111952001D01*
X142582316Y-113137999D02*
X143359003Y-113137999D01*
X141605000Y-114681000D02*
X141605000Y-114115315D01*
X144111007Y-105198924D02*
X144111007Y-105198924D01*
D14*
G04 #@! TO.N,/ESP32 Pico D4/CTS*
X151130000Y-101600000D02*
X151130000Y-100330000D01*
X151130000Y-99060000D02*
X151130000Y-98091002D01*
X151130000Y-100330000D02*
X151130000Y-99060000D01*
X151009000Y-102435999D02*
X151130000Y-102314999D01*
X151130000Y-103203998D02*
X151130000Y-102917001D01*
X151009000Y-102796001D02*
X151009000Y-102435999D01*
X151251001Y-103685001D02*
X151251001Y-103324999D01*
X151130000Y-103806002D02*
X151251001Y-103685001D01*
X151130000Y-106727002D02*
X151251001Y-106606001D01*
X151130000Y-104727998D02*
X151130000Y-103806002D01*
X151251001Y-104848999D02*
X151130000Y-104727998D01*
X151251001Y-105209001D02*
X151251001Y-104848999D01*
X151130000Y-109220000D02*
X151130000Y-106727002D01*
X151251001Y-106606001D02*
X151251001Y-106245999D01*
X151251001Y-103324999D02*
X151130000Y-103203998D01*
X151251001Y-106245999D02*
X151130000Y-106124998D01*
X151130000Y-106124998D02*
X151130000Y-105330002D01*
X151130000Y-102917001D02*
X151009000Y-102796001D01*
X151130000Y-105330002D02*
X151251001Y-105209001D01*
X151130000Y-102314999D02*
X151130000Y-101600000D01*
X151008999Y-96446001D02*
X151008999Y-90799001D01*
X151130000Y-98091002D02*
X151008999Y-97970001D01*
X151008999Y-97970001D02*
X151008999Y-97609999D01*
X151008999Y-97609999D02*
X151130000Y-97488998D01*
X151130000Y-97488998D02*
X151130000Y-96567002D01*
X151130000Y-96567002D02*
X151008999Y-96446001D01*
X151008999Y-90799001D02*
X151257000Y-90551000D01*
D22*
G04 #@! TO.N,VUSB*
X134924800Y-115519200D02*
X134874000Y-115570000D01*
X135763000Y-115519200D02*
X134924800Y-115519200D01*
X135363001Y-115919199D02*
X135363001Y-120250001D01*
X135763000Y-115519200D02*
X135363001Y-115919199D01*
X135363001Y-120250001D02*
X136017000Y-120904000D01*
X136017000Y-120904000D02*
X150368000Y-120904000D01*
X152063759Y-119208241D02*
X152063759Y-111334241D01*
X150368000Y-120904000D02*
X152063759Y-119208241D01*
X152063759Y-111334241D02*
X155248282Y-108149718D01*
X155248282Y-108149718D02*
X155248282Y-107823000D01*
D20*
G04 #@! TO.N,UV_LO*
X156464000Y-102870000D02*
X157226000Y-103632000D01*
X154870026Y-115111040D02*
X153908760Y-115111040D01*
X157226000Y-112755066D02*
X154870026Y-115111040D01*
X157226000Y-103632000D02*
X157226000Y-112755066D01*
D14*
G04 #@! TO.N,Net-(C1-Pad1)*
X156464000Y-108712000D02*
X156972000Y-108204000D01*
X156972000Y-103933002D02*
X154813000Y-101774002D01*
X156972000Y-108204000D02*
X156972000Y-103933002D01*
X154813000Y-101774002D02*
X154813000Y-101092000D01*
G04 #@! TO.N,/ESP32 Pico D4/IO13*
X147574000Y-91821000D02*
X147349001Y-92045999D01*
X147349001Y-92045999D02*
X141300003Y-92045999D01*
X139493002Y-93853000D02*
X139488003Y-93853000D01*
X139488003Y-93853000D02*
X139446000Y-93895003D01*
X141300003Y-92045999D02*
X139493002Y-93853000D01*
G04 #@! TO.N,/MOSI*
X146050000Y-107569000D02*
X145923000Y-107696000D01*
X146050000Y-97028000D02*
X146050000Y-107569000D01*
G04 #@! TD*
D23*
G04 #@! TO.N,GND*
G36*
X157049001Y-120981000D02*
X151542578Y-120981000D01*
X152627915Y-119895664D01*
X152701808Y-119846290D01*
X152897411Y-119553551D01*
X152948759Y-119295406D01*
X152948759Y-119295402D01*
X152966096Y-119208242D01*
X152948759Y-119121082D01*
X152948759Y-118664764D01*
X153141151Y-118585072D01*
X153383072Y-118343151D01*
X153514000Y-118027065D01*
X153514000Y-117684935D01*
X153472027Y-117583604D01*
X153498760Y-117519065D01*
X153498760Y-117176935D01*
X153464407Y-117094000D01*
X153498760Y-117011065D01*
X153498760Y-116668935D01*
X153464407Y-116586000D01*
X153498760Y-116503065D01*
X153498760Y-116160935D01*
X153367832Y-115844849D01*
X153125911Y-115602928D01*
X152948759Y-115529549D01*
X152948759Y-114301040D01*
X153113173Y-114301040D01*
X153156690Y-114314168D01*
X153287924Y-114301040D01*
X153616985Y-114301040D01*
X153421609Y-114381968D01*
X153179688Y-114623889D01*
X153048760Y-114939975D01*
X153048760Y-115282105D01*
X153179688Y-115598191D01*
X153421609Y-115840112D01*
X153737695Y-115971040D01*
X154079825Y-115971040D01*
X154395911Y-115840112D01*
X154429983Y-115806040D01*
X154801584Y-115806040D01*
X154870026Y-115819654D01*
X154938468Y-115806040D01*
X154938473Y-115806040D01*
X155141201Y-115765715D01*
X155371092Y-115612106D01*
X155409866Y-115554077D01*
X157049001Y-113914944D01*
X157049001Y-120981000D01*
X157049001Y-120981000D01*
G37*
X157049001Y-120981000D02*
X151542578Y-120981000D01*
X152627915Y-119895664D01*
X152701808Y-119846290D01*
X152897411Y-119553551D01*
X152948759Y-119295406D01*
X152948759Y-119295402D01*
X152966096Y-119208242D01*
X152948759Y-119121082D01*
X152948759Y-118664764D01*
X153141151Y-118585072D01*
X153383072Y-118343151D01*
X153514000Y-118027065D01*
X153514000Y-117684935D01*
X153472027Y-117583604D01*
X153498760Y-117519065D01*
X153498760Y-117176935D01*
X153464407Y-117094000D01*
X153498760Y-117011065D01*
X153498760Y-116668935D01*
X153464407Y-116586000D01*
X153498760Y-116503065D01*
X153498760Y-116160935D01*
X153367832Y-115844849D01*
X153125911Y-115602928D01*
X152948759Y-115529549D01*
X152948759Y-114301040D01*
X153113173Y-114301040D01*
X153156690Y-114314168D01*
X153287924Y-114301040D01*
X153616985Y-114301040D01*
X153421609Y-114381968D01*
X153179688Y-114623889D01*
X153048760Y-114939975D01*
X153048760Y-115282105D01*
X153179688Y-115598191D01*
X153421609Y-115840112D01*
X153737695Y-115971040D01*
X154079825Y-115971040D01*
X154395911Y-115840112D01*
X154429983Y-115806040D01*
X154801584Y-115806040D01*
X154870026Y-115819654D01*
X154938468Y-115806040D01*
X154938473Y-115806040D01*
X155141201Y-115765715D01*
X155371092Y-115612106D01*
X155409866Y-115554077D01*
X157049001Y-113914944D01*
X157049001Y-120981000D01*
G36*
X152223000Y-89776197D02*
X152063332Y-89616529D01*
X152020930Y-89553070D01*
X151900573Y-89472650D01*
X151986072Y-89387151D01*
X152117000Y-89071065D01*
X152117000Y-88728935D01*
X151986072Y-88412849D01*
X151744151Y-88170928D01*
X151428065Y-88040000D01*
X151085935Y-88040000D01*
X150769849Y-88170928D01*
X150527928Y-88412849D01*
X150397000Y-88728935D01*
X150397000Y-89071065D01*
X150508811Y-89340999D01*
X148752894Y-89340999D01*
X148684072Y-89174849D01*
X148442151Y-88932928D01*
X148126065Y-88802000D01*
X147783935Y-88802000D01*
X147528167Y-88907944D01*
X147299151Y-88678928D01*
X146983065Y-88548000D01*
X146640935Y-88548000D01*
X146324849Y-88678928D01*
X146082928Y-88920849D01*
X146059669Y-88977000D01*
X144624000Y-88977000D01*
X144624000Y-88855935D01*
X144493072Y-88539849D01*
X144251151Y-88297928D01*
X143935065Y-88167000D01*
X143592935Y-88167000D01*
X143435601Y-88232170D01*
X143426272Y-88209649D01*
X143184351Y-87967728D01*
X142868265Y-87836800D01*
X142805935Y-87836800D01*
X142803473Y-87834338D01*
X142765256Y-87777142D01*
X142538672Y-87625744D01*
X142338861Y-87585999D01*
X142338859Y-87585999D01*
X142271399Y-87572580D01*
X142203939Y-87585999D01*
X139985159Y-87585999D01*
X139917702Y-87572581D01*
X139850245Y-87585999D01*
X139850241Y-87585999D01*
X139650430Y-87625744D01*
X139423846Y-87777142D01*
X139385631Y-87834335D01*
X137307537Y-89912430D01*
X137250344Y-89950645D01*
X137125778Y-90137072D01*
X137098946Y-90177229D01*
X137045781Y-90444502D01*
X137059201Y-90511967D01*
X137059200Y-92993000D01*
X136988935Y-92993000D01*
X136672849Y-93123928D01*
X136430928Y-93365849D01*
X136300000Y-93681935D01*
X136300000Y-94024065D01*
X136379151Y-94215151D01*
X136188065Y-94136000D01*
X135845935Y-94136000D01*
X135529849Y-94266928D01*
X135287928Y-94508849D01*
X135157000Y-94824935D01*
X135157000Y-95167065D01*
X135287928Y-95483151D01*
X135529849Y-95725072D01*
X135845935Y-95856000D01*
X136188065Y-95856000D01*
X136504151Y-95725072D01*
X136746072Y-95483151D01*
X136877000Y-95167065D01*
X136877000Y-94824935D01*
X136797849Y-94633849D01*
X136988935Y-94713000D01*
X137121277Y-94713000D01*
X137257049Y-94848772D01*
X137543529Y-94967437D01*
X137543530Y-97684480D01*
X136058540Y-97684480D01*
X135810775Y-97733763D01*
X135600731Y-97874111D01*
X135460383Y-98084155D01*
X135411100Y-98331920D01*
X135411100Y-100031920D01*
X135460383Y-100279685D01*
X135600731Y-100489729D01*
X135810775Y-100630077D01*
X135856159Y-100639104D01*
X135837915Y-100651295D01*
X135509701Y-101142502D01*
X135394448Y-101721920D01*
X135509701Y-102301338D01*
X135837915Y-102792545D01*
X136136301Y-102991920D01*
X135837915Y-103191295D01*
X135509701Y-103682502D01*
X135394448Y-104261920D01*
X135509701Y-104841338D01*
X135837915Y-105332545D01*
X136136301Y-105531920D01*
X135837915Y-105731295D01*
X135509701Y-106222502D01*
X135394448Y-106801920D01*
X135509701Y-107381338D01*
X135837915Y-107872545D01*
X136136301Y-108071920D01*
X135837915Y-108271295D01*
X135509701Y-108762502D01*
X135394448Y-109341920D01*
X135509701Y-109921338D01*
X135837915Y-110412545D01*
X136157018Y-110625763D01*
X136027182Y-110686737D01*
X135636895Y-111114996D01*
X135467064Y-111525030D01*
X135588385Y-111754920D01*
X136781540Y-111754920D01*
X136781540Y-111734920D01*
X137035540Y-111734920D01*
X137035540Y-111754920D01*
X137055540Y-111754920D01*
X137055540Y-112008920D01*
X137035540Y-112008920D01*
X137035540Y-113202739D01*
X137265432Y-113323406D01*
X137789898Y-113077103D01*
X138177187Y-112652134D01*
X138377915Y-112952545D01*
X138869122Y-113280759D01*
X139302284Y-113366920D01*
X139594796Y-113366920D01*
X140027958Y-113280759D01*
X140519165Y-112952545D01*
X140847379Y-112461338D01*
X140962632Y-111881920D01*
X140847379Y-111302502D01*
X140519165Y-110811295D01*
X140220779Y-110611920D01*
X140519165Y-110412545D01*
X140847379Y-109921338D01*
X140962632Y-109341920D01*
X140847379Y-108762502D01*
X140519165Y-108271295D01*
X140220779Y-108071920D01*
X140519165Y-107872545D01*
X140847379Y-107381338D01*
X140962632Y-106801920D01*
X140847379Y-106222502D01*
X140519165Y-105731295D01*
X140464457Y-105694740D01*
X142582166Y-103577032D01*
X142582166Y-103619943D01*
X142538094Y-103664015D01*
X142407166Y-103980101D01*
X142407166Y-104322231D01*
X142538094Y-104638317D01*
X142780015Y-104880238D01*
X142971002Y-104959348D01*
X142971002Y-105400612D01*
X142887939Y-105435018D01*
X142646018Y-105676939D01*
X142515090Y-105993025D01*
X142515090Y-106335155D01*
X142646018Y-106651241D01*
X142887939Y-106893162D01*
X142991876Y-106936214D01*
X143034928Y-107040151D01*
X143276849Y-107282072D01*
X143535883Y-107389368D01*
X143535883Y-107954668D01*
X143358730Y-108028047D01*
X143116809Y-108269968D01*
X142985881Y-108586054D01*
X142985881Y-108928184D01*
X143116809Y-109244270D01*
X143137658Y-109265119D01*
X143034928Y-109367849D01*
X142904000Y-109683935D01*
X142904000Y-110026065D01*
X143034928Y-110342151D01*
X143276849Y-110584072D01*
X143460000Y-110659936D01*
X143460000Y-111228777D01*
X143415928Y-111272849D01*
X143285000Y-111588935D01*
X143285000Y-111931065D01*
X143366087Y-112126825D01*
X143064913Y-112427999D01*
X142652242Y-112427999D01*
X142582316Y-112414090D01*
X142305288Y-112469194D01*
X142160311Y-112566065D01*
X142070435Y-112626118D01*
X142030826Y-112685398D01*
X141152402Y-113563823D01*
X141093120Y-113603434D01*
X140936195Y-113838287D01*
X140924324Y-113897965D01*
X140727569Y-114094720D01*
X140570000Y-114475126D01*
X140570000Y-114886874D01*
X140727569Y-115267280D01*
X141018720Y-115558431D01*
X141399126Y-115716000D01*
X141810874Y-115716000D01*
X142191280Y-115558431D01*
X142482431Y-115267280D01*
X142640000Y-114886874D01*
X142640000Y-114475126D01*
X142525561Y-114198845D01*
X142876408Y-113847999D01*
X143289079Y-113847999D01*
X143359003Y-113861908D01*
X143428927Y-113847999D01*
X143428929Y-113847999D01*
X143636031Y-113806804D01*
X143870884Y-113649880D01*
X143910497Y-113590595D01*
X144997602Y-112503491D01*
X145056881Y-112463882D01*
X145213806Y-112229029D01*
X145255001Y-112021927D01*
X145255001Y-112021923D01*
X145268909Y-111952002D01*
X145255001Y-111882081D01*
X145255001Y-111080935D01*
X146206000Y-111080935D01*
X146206000Y-111423065D01*
X146336928Y-111739151D01*
X146578849Y-111981072D01*
X146894935Y-112112000D01*
X147237065Y-112112000D01*
X147553151Y-111981072D01*
X147795072Y-111739151D01*
X147926000Y-111423065D01*
X147926000Y-111080935D01*
X147795072Y-110764849D01*
X147553151Y-110522928D01*
X147237065Y-110392000D01*
X146894935Y-110392000D01*
X146578849Y-110522928D01*
X146336928Y-110764849D01*
X146206000Y-111080935D01*
X145255001Y-111080935D01*
X145255001Y-108244224D01*
X145435849Y-108425072D01*
X145751935Y-108556000D01*
X146094065Y-108556000D01*
X146410151Y-108425072D01*
X146652072Y-108183151D01*
X146783000Y-107867065D01*
X146783000Y-107524935D01*
X146735000Y-107409054D01*
X146735000Y-104244052D01*
X146894935Y-104310300D01*
X147237065Y-104310300D01*
X147553151Y-104179372D01*
X147795072Y-103937451D01*
X147926000Y-103621365D01*
X147926000Y-103333935D01*
X148492000Y-103333935D01*
X148492000Y-103676065D01*
X148622928Y-103992151D01*
X148864849Y-104234072D01*
X148944344Y-104267000D01*
X148864849Y-104299928D01*
X148622928Y-104541849D01*
X148492000Y-104857935D01*
X148492000Y-105200065D01*
X148622928Y-105516151D01*
X148834277Y-105727500D01*
X148622928Y-105938849D01*
X148492000Y-106254935D01*
X148492000Y-106597065D01*
X148622928Y-106913151D01*
X148864849Y-107155072D01*
X149180935Y-107286000D01*
X149523065Y-107286000D01*
X149839151Y-107155072D01*
X150081072Y-106913151D01*
X150212000Y-106597065D01*
X150212000Y-106254935D01*
X150081072Y-105938849D01*
X149869723Y-105727500D01*
X150081072Y-105516151D01*
X150212000Y-105200065D01*
X150212000Y-104857935D01*
X150081072Y-104541849D01*
X149839151Y-104299928D01*
X149759656Y-104267000D01*
X149839151Y-104234072D01*
X150081072Y-103992151D01*
X150212000Y-103676065D01*
X150212000Y-103333935D01*
X150081072Y-103017849D01*
X149839151Y-102775928D01*
X149523065Y-102645000D01*
X149180935Y-102645000D01*
X148864849Y-102775928D01*
X148622928Y-103017849D01*
X148492000Y-103333935D01*
X147926000Y-103333935D01*
X147926000Y-103279235D01*
X147856437Y-103111297D01*
X147832255Y-102989726D01*
X147751000Y-102868119D01*
X147751000Y-101977223D01*
X147975849Y-102202072D01*
X148291935Y-102333000D01*
X148634065Y-102333000D01*
X148950151Y-102202072D01*
X149192072Y-101960151D01*
X149323000Y-101644065D01*
X149323000Y-101301935D01*
X149192072Y-100985849D01*
X148950151Y-100743928D01*
X148634065Y-100613000D01*
X148291935Y-100613000D01*
X147975849Y-100743928D01*
X147751000Y-100968777D01*
X147751000Y-97137734D01*
X148391666Y-96497068D01*
X148448857Y-96458855D01*
X148487072Y-96401663D01*
X148588350Y-96250088D01*
X148600255Y-96232271D01*
X148640000Y-96032460D01*
X148640000Y-96032459D01*
X148653419Y-95964998D01*
X148640000Y-95897538D01*
X148640000Y-93539460D01*
X148653419Y-93471999D01*
X148637233Y-93390628D01*
X148600255Y-93204727D01*
X148448856Y-92978143D01*
X148391663Y-92939928D01*
X148356614Y-92904879D01*
X148318397Y-92847683D01*
X148165026Y-92745204D01*
X148247858Y-92689858D01*
X148286074Y-92632663D01*
X148385664Y-92533074D01*
X148442858Y-92494858D01*
X148594256Y-92268274D01*
X148634001Y-92068462D01*
X148634001Y-92068461D01*
X148647420Y-92001001D01*
X148634001Y-91933541D01*
X148634001Y-91850222D01*
X148684072Y-91800151D01*
X148815000Y-91484065D01*
X148815000Y-91141935D01*
X148698632Y-90860999D01*
X150322912Y-90860999D01*
X150324000Y-90866466D01*
X150323999Y-96378540D01*
X150310580Y-96446001D01*
X150323999Y-96513461D01*
X150323999Y-96513462D01*
X150363744Y-96713273D01*
X150445001Y-96834883D01*
X150445000Y-97221118D01*
X150363744Y-97342726D01*
X150324106Y-97542000D01*
X150310580Y-97609999D01*
X150323999Y-97677459D01*
X150323999Y-97902541D01*
X150310580Y-97970001D01*
X150323999Y-98037461D01*
X150323999Y-98037462D01*
X150363744Y-98237273D01*
X150445001Y-98358883D01*
X150445001Y-98528776D01*
X150400928Y-98572849D01*
X150270000Y-98888935D01*
X150270000Y-99231065D01*
X150400928Y-99547151D01*
X150445001Y-99591224D01*
X150445000Y-99798777D01*
X150400928Y-99842849D01*
X150270000Y-100158935D01*
X150270000Y-100501065D01*
X150400928Y-100817151D01*
X150445001Y-100861224D01*
X150445000Y-101068777D01*
X150400928Y-101112849D01*
X150270000Y-101428935D01*
X150270000Y-101771065D01*
X150400928Y-102087151D01*
X150411313Y-102097536D01*
X150363745Y-102168726D01*
X150324271Y-102367174D01*
X150310581Y-102435999D01*
X150324000Y-102503459D01*
X150324000Y-102728541D01*
X150310581Y-102796001D01*
X150324000Y-102863461D01*
X150324000Y-102863462D01*
X150363745Y-103063273D01*
X150437590Y-103173790D01*
X150431581Y-103203998D01*
X150445000Y-103271458D01*
X150445000Y-103271459D01*
X150484745Y-103471270D01*
X150507283Y-103505000D01*
X150484746Y-103538729D01*
X150431581Y-103806002D01*
X150445001Y-103873467D01*
X150445000Y-104660537D01*
X150431581Y-104727998D01*
X150445000Y-104795458D01*
X150445000Y-104795459D01*
X150484745Y-104995270D01*
X150507283Y-105029000D01*
X150484746Y-105062729D01*
X150453546Y-105219581D01*
X150431581Y-105330002D01*
X150445000Y-105397462D01*
X150445000Y-106057538D01*
X150431581Y-106124998D01*
X150445000Y-106192458D01*
X150445000Y-106192459D01*
X150484745Y-106392270D01*
X150507283Y-106426000D01*
X150486010Y-106457838D01*
X150484746Y-106459729D01*
X150431581Y-106727002D01*
X150445001Y-106794467D01*
X150445000Y-108688777D01*
X150400928Y-108732849D01*
X150270000Y-109048935D01*
X150270000Y-109391065D01*
X150375319Y-109645327D01*
X150299240Y-109721406D01*
X150242047Y-109759621D01*
X150203833Y-109816813D01*
X150090649Y-109986205D01*
X150037484Y-110253478D01*
X150050904Y-110320943D01*
X150050903Y-110838542D01*
X149818262Y-111071183D01*
X149687334Y-111387269D01*
X149687334Y-111729399D01*
X149688226Y-111731551D01*
X149511928Y-111907849D01*
X149381000Y-112223935D01*
X149381000Y-112297552D01*
X149372849Y-112300928D01*
X149130928Y-112542849D01*
X149000000Y-112858935D01*
X149000000Y-113201065D01*
X149130928Y-113517151D01*
X149372849Y-113759072D01*
X149688935Y-113890000D01*
X150031065Y-113890000D01*
X150347151Y-113759072D01*
X150589072Y-113517151D01*
X150720000Y-113201065D01*
X150720000Y-113127448D01*
X150728151Y-113124072D01*
X150970072Y-112882151D01*
X151101000Y-112566065D01*
X151101000Y-112503735D01*
X151178760Y-112425975D01*
X151178759Y-118841662D01*
X150001422Y-120019000D01*
X136383579Y-120019000D01*
X136248001Y-119883423D01*
X136248001Y-116438582D01*
X136349280Y-116396631D01*
X136640431Y-116105480D01*
X136798000Y-115725074D01*
X136798000Y-115313326D01*
X136640431Y-114932920D01*
X136349280Y-114641769D01*
X135968874Y-114484200D01*
X135557126Y-114484200D01*
X135257179Y-114608442D01*
X135079874Y-114535000D01*
X134668126Y-114535000D01*
X134287720Y-114692569D01*
X133996569Y-114983720D01*
X133839000Y-115364126D01*
X133839000Y-115775874D01*
X133996569Y-116156280D01*
X134287720Y-116447431D01*
X134478001Y-116526248D01*
X134478002Y-120162836D01*
X134460664Y-120250001D01*
X134529349Y-120595310D01*
X134675577Y-120814155D01*
X134675579Y-120814157D01*
X134724953Y-120888050D01*
X134798845Y-120937424D01*
X134842422Y-120981000D01*
X128955000Y-120981000D01*
X128955000Y-109761357D01*
X129126750Y-109761357D01*
X129126750Y-120870643D01*
X132146750Y-120870643D01*
X132146750Y-112238810D01*
X135467064Y-112238810D01*
X135636895Y-112648844D01*
X136027182Y-113077103D01*
X136551648Y-113323406D01*
X136781540Y-113202739D01*
X136781540Y-112008920D01*
X135588385Y-112008920D01*
X135467064Y-112238810D01*
X132146750Y-112238810D01*
X132146750Y-109761357D01*
X129126750Y-109761357D01*
X128955000Y-109761357D01*
X128955000Y-87045000D01*
X152223000Y-87045000D01*
X152223000Y-89776197D01*
X152223000Y-89776197D01*
G37*
X152223000Y-89776197D02*
X152063332Y-89616529D01*
X152020930Y-89553070D01*
X151900573Y-89472650D01*
X151986072Y-89387151D01*
X152117000Y-89071065D01*
X152117000Y-88728935D01*
X151986072Y-88412849D01*
X151744151Y-88170928D01*
X151428065Y-88040000D01*
X151085935Y-88040000D01*
X150769849Y-88170928D01*
X150527928Y-88412849D01*
X150397000Y-88728935D01*
X150397000Y-89071065D01*
X150508811Y-89340999D01*
X148752894Y-89340999D01*
X148684072Y-89174849D01*
X148442151Y-88932928D01*
X148126065Y-88802000D01*
X147783935Y-88802000D01*
X147528167Y-88907944D01*
X147299151Y-88678928D01*
X146983065Y-88548000D01*
X146640935Y-88548000D01*
X146324849Y-88678928D01*
X146082928Y-88920849D01*
X146059669Y-88977000D01*
X144624000Y-88977000D01*
X144624000Y-88855935D01*
X144493072Y-88539849D01*
X144251151Y-88297928D01*
X143935065Y-88167000D01*
X143592935Y-88167000D01*
X143435601Y-88232170D01*
X143426272Y-88209649D01*
X143184351Y-87967728D01*
X142868265Y-87836800D01*
X142805935Y-87836800D01*
X142803473Y-87834338D01*
X142765256Y-87777142D01*
X142538672Y-87625744D01*
X142338861Y-87585999D01*
X142338859Y-87585999D01*
X142271399Y-87572580D01*
X142203939Y-87585999D01*
X139985159Y-87585999D01*
X139917702Y-87572581D01*
X139850245Y-87585999D01*
X139850241Y-87585999D01*
X139650430Y-87625744D01*
X139423846Y-87777142D01*
X139385631Y-87834335D01*
X137307537Y-89912430D01*
X137250344Y-89950645D01*
X137125778Y-90137072D01*
X137098946Y-90177229D01*
X137045781Y-90444502D01*
X137059201Y-90511967D01*
X137059200Y-92993000D01*
X136988935Y-92993000D01*
X136672849Y-93123928D01*
X136430928Y-93365849D01*
X136300000Y-93681935D01*
X136300000Y-94024065D01*
X136379151Y-94215151D01*
X136188065Y-94136000D01*
X135845935Y-94136000D01*
X135529849Y-94266928D01*
X135287928Y-94508849D01*
X135157000Y-94824935D01*
X135157000Y-95167065D01*
X135287928Y-95483151D01*
X135529849Y-95725072D01*
X135845935Y-95856000D01*
X136188065Y-95856000D01*
X136504151Y-95725072D01*
X136746072Y-95483151D01*
X136877000Y-95167065D01*
X136877000Y-94824935D01*
X136797849Y-94633849D01*
X136988935Y-94713000D01*
X137121277Y-94713000D01*
X137257049Y-94848772D01*
X137543529Y-94967437D01*
X137543530Y-97684480D01*
X136058540Y-97684480D01*
X135810775Y-97733763D01*
X135600731Y-97874111D01*
X135460383Y-98084155D01*
X135411100Y-98331920D01*
X135411100Y-100031920D01*
X135460383Y-100279685D01*
X135600731Y-100489729D01*
X135810775Y-100630077D01*
X135856159Y-100639104D01*
X135837915Y-100651295D01*
X135509701Y-101142502D01*
X135394448Y-101721920D01*
X135509701Y-102301338D01*
X135837915Y-102792545D01*
X136136301Y-102991920D01*
X135837915Y-103191295D01*
X135509701Y-103682502D01*
X135394448Y-104261920D01*
X135509701Y-104841338D01*
X135837915Y-105332545D01*
X136136301Y-105531920D01*
X135837915Y-105731295D01*
X135509701Y-106222502D01*
X135394448Y-106801920D01*
X135509701Y-107381338D01*
X135837915Y-107872545D01*
X136136301Y-108071920D01*
X135837915Y-108271295D01*
X135509701Y-108762502D01*
X135394448Y-109341920D01*
X135509701Y-109921338D01*
X135837915Y-110412545D01*
X136157018Y-110625763D01*
X136027182Y-110686737D01*
X135636895Y-111114996D01*
X135467064Y-111525030D01*
X135588385Y-111754920D01*
X136781540Y-111754920D01*
X136781540Y-111734920D01*
X137035540Y-111734920D01*
X137035540Y-111754920D01*
X137055540Y-111754920D01*
X137055540Y-112008920D01*
X137035540Y-112008920D01*
X137035540Y-113202739D01*
X137265432Y-113323406D01*
X137789898Y-113077103D01*
X138177187Y-112652134D01*
X138377915Y-112952545D01*
X138869122Y-113280759D01*
X139302284Y-113366920D01*
X139594796Y-113366920D01*
X140027958Y-113280759D01*
X140519165Y-112952545D01*
X140847379Y-112461338D01*
X140962632Y-111881920D01*
X140847379Y-111302502D01*
X140519165Y-110811295D01*
X140220779Y-110611920D01*
X140519165Y-110412545D01*
X140847379Y-109921338D01*
X140962632Y-109341920D01*
X140847379Y-108762502D01*
X140519165Y-108271295D01*
X140220779Y-108071920D01*
X140519165Y-107872545D01*
X140847379Y-107381338D01*
X140962632Y-106801920D01*
X140847379Y-106222502D01*
X140519165Y-105731295D01*
X140464457Y-105694740D01*
X142582166Y-103577032D01*
X142582166Y-103619943D01*
X142538094Y-103664015D01*
X142407166Y-103980101D01*
X142407166Y-104322231D01*
X142538094Y-104638317D01*
X142780015Y-104880238D01*
X142971002Y-104959348D01*
X142971002Y-105400612D01*
X142887939Y-105435018D01*
X142646018Y-105676939D01*
X142515090Y-105993025D01*
X142515090Y-106335155D01*
X142646018Y-106651241D01*
X142887939Y-106893162D01*
X142991876Y-106936214D01*
X143034928Y-107040151D01*
X143276849Y-107282072D01*
X143535883Y-107389368D01*
X143535883Y-107954668D01*
X143358730Y-108028047D01*
X143116809Y-108269968D01*
X142985881Y-108586054D01*
X142985881Y-108928184D01*
X143116809Y-109244270D01*
X143137658Y-109265119D01*
X143034928Y-109367849D01*
X142904000Y-109683935D01*
X142904000Y-110026065D01*
X143034928Y-110342151D01*
X143276849Y-110584072D01*
X143460000Y-110659936D01*
X143460000Y-111228777D01*
X143415928Y-111272849D01*
X143285000Y-111588935D01*
X143285000Y-111931065D01*
X143366087Y-112126825D01*
X143064913Y-112427999D01*
X142652242Y-112427999D01*
X142582316Y-112414090D01*
X142305288Y-112469194D01*
X142160311Y-112566065D01*
X142070435Y-112626118D01*
X142030826Y-112685398D01*
X141152402Y-113563823D01*
X141093120Y-113603434D01*
X140936195Y-113838287D01*
X140924324Y-113897965D01*
X140727569Y-114094720D01*
X140570000Y-114475126D01*
X140570000Y-114886874D01*
X140727569Y-115267280D01*
X141018720Y-115558431D01*
X141399126Y-115716000D01*
X141810874Y-115716000D01*
X142191280Y-115558431D01*
X142482431Y-115267280D01*
X142640000Y-114886874D01*
X142640000Y-114475126D01*
X142525561Y-114198845D01*
X142876408Y-113847999D01*
X143289079Y-113847999D01*
X143359003Y-113861908D01*
X143428927Y-113847999D01*
X143428929Y-113847999D01*
X143636031Y-113806804D01*
X143870884Y-113649880D01*
X143910497Y-113590595D01*
X144997602Y-112503491D01*
X145056881Y-112463882D01*
X145213806Y-112229029D01*
X145255001Y-112021927D01*
X145255001Y-112021923D01*
X145268909Y-111952002D01*
X145255001Y-111882081D01*
X145255001Y-111080935D01*
X146206000Y-111080935D01*
X146206000Y-111423065D01*
X146336928Y-111739151D01*
X146578849Y-111981072D01*
X146894935Y-112112000D01*
X147237065Y-112112000D01*
X147553151Y-111981072D01*
X147795072Y-111739151D01*
X147926000Y-111423065D01*
X147926000Y-111080935D01*
X147795072Y-110764849D01*
X147553151Y-110522928D01*
X147237065Y-110392000D01*
X146894935Y-110392000D01*
X146578849Y-110522928D01*
X146336928Y-110764849D01*
X146206000Y-111080935D01*
X145255001Y-111080935D01*
X145255001Y-108244224D01*
X145435849Y-108425072D01*
X145751935Y-108556000D01*
X146094065Y-108556000D01*
X146410151Y-108425072D01*
X146652072Y-108183151D01*
X146783000Y-107867065D01*
X146783000Y-107524935D01*
X146735000Y-107409054D01*
X146735000Y-104244052D01*
X146894935Y-104310300D01*
X147237065Y-104310300D01*
X147553151Y-104179372D01*
X147795072Y-103937451D01*
X147926000Y-103621365D01*
X147926000Y-103333935D01*
X148492000Y-103333935D01*
X148492000Y-103676065D01*
X148622928Y-103992151D01*
X148864849Y-104234072D01*
X148944344Y-104267000D01*
X148864849Y-104299928D01*
X148622928Y-104541849D01*
X148492000Y-104857935D01*
X148492000Y-105200065D01*
X148622928Y-105516151D01*
X148834277Y-105727500D01*
X148622928Y-105938849D01*
X148492000Y-106254935D01*
X148492000Y-106597065D01*
X148622928Y-106913151D01*
X148864849Y-107155072D01*
X149180935Y-107286000D01*
X149523065Y-107286000D01*
X149839151Y-107155072D01*
X150081072Y-106913151D01*
X150212000Y-106597065D01*
X150212000Y-106254935D01*
X150081072Y-105938849D01*
X149869723Y-105727500D01*
X150081072Y-105516151D01*
X150212000Y-105200065D01*
X150212000Y-104857935D01*
X150081072Y-104541849D01*
X149839151Y-104299928D01*
X149759656Y-104267000D01*
X149839151Y-104234072D01*
X150081072Y-103992151D01*
X150212000Y-103676065D01*
X150212000Y-103333935D01*
X150081072Y-103017849D01*
X149839151Y-102775928D01*
X149523065Y-102645000D01*
X149180935Y-102645000D01*
X148864849Y-102775928D01*
X148622928Y-103017849D01*
X148492000Y-103333935D01*
X147926000Y-103333935D01*
X147926000Y-103279235D01*
X147856437Y-103111297D01*
X147832255Y-102989726D01*
X147751000Y-102868119D01*
X147751000Y-101977223D01*
X147975849Y-102202072D01*
X148291935Y-102333000D01*
X148634065Y-102333000D01*
X148950151Y-102202072D01*
X149192072Y-101960151D01*
X149323000Y-101644065D01*
X149323000Y-101301935D01*
X149192072Y-100985849D01*
X148950151Y-100743928D01*
X148634065Y-100613000D01*
X148291935Y-100613000D01*
X147975849Y-100743928D01*
X147751000Y-100968777D01*
X147751000Y-97137734D01*
X148391666Y-96497068D01*
X148448857Y-96458855D01*
X148487072Y-96401663D01*
X148588350Y-96250088D01*
X148600255Y-96232271D01*
X148640000Y-96032460D01*
X148640000Y-96032459D01*
X148653419Y-95964998D01*
X148640000Y-95897538D01*
X148640000Y-93539460D01*
X148653419Y-93471999D01*
X148637233Y-93390628D01*
X148600255Y-93204727D01*
X148448856Y-92978143D01*
X148391663Y-92939928D01*
X148356614Y-92904879D01*
X148318397Y-92847683D01*
X148165026Y-92745204D01*
X148247858Y-92689858D01*
X148286074Y-92632663D01*
X148385664Y-92533074D01*
X148442858Y-92494858D01*
X148594256Y-92268274D01*
X148634001Y-92068462D01*
X148634001Y-92068461D01*
X148647420Y-92001001D01*
X148634001Y-91933541D01*
X148634001Y-91850222D01*
X148684072Y-91800151D01*
X148815000Y-91484065D01*
X148815000Y-91141935D01*
X148698632Y-90860999D01*
X150322912Y-90860999D01*
X150324000Y-90866466D01*
X150323999Y-96378540D01*
X150310580Y-96446001D01*
X150323999Y-96513461D01*
X150323999Y-96513462D01*
X150363744Y-96713273D01*
X150445001Y-96834883D01*
X150445000Y-97221118D01*
X150363744Y-97342726D01*
X150324106Y-97542000D01*
X150310580Y-97609999D01*
X150323999Y-97677459D01*
X150323999Y-97902541D01*
X150310580Y-97970001D01*
X150323999Y-98037461D01*
X150323999Y-98037462D01*
X150363744Y-98237273D01*
X150445001Y-98358883D01*
X150445001Y-98528776D01*
X150400928Y-98572849D01*
X150270000Y-98888935D01*
X150270000Y-99231065D01*
X150400928Y-99547151D01*
X150445001Y-99591224D01*
X150445000Y-99798777D01*
X150400928Y-99842849D01*
X150270000Y-100158935D01*
X150270000Y-100501065D01*
X150400928Y-100817151D01*
X150445001Y-100861224D01*
X150445000Y-101068777D01*
X150400928Y-101112849D01*
X150270000Y-101428935D01*
X150270000Y-101771065D01*
X150400928Y-102087151D01*
X150411313Y-102097536D01*
X150363745Y-102168726D01*
X150324271Y-102367174D01*
X150310581Y-102435999D01*
X150324000Y-102503459D01*
X150324000Y-102728541D01*
X150310581Y-102796001D01*
X150324000Y-102863461D01*
X150324000Y-102863462D01*
X150363745Y-103063273D01*
X150437590Y-103173790D01*
X150431581Y-103203998D01*
X150445000Y-103271458D01*
X150445000Y-103271459D01*
X150484745Y-103471270D01*
X150507283Y-103505000D01*
X150484746Y-103538729D01*
X150431581Y-103806002D01*
X150445001Y-103873467D01*
X150445000Y-104660537D01*
X150431581Y-104727998D01*
X150445000Y-104795458D01*
X150445000Y-104795459D01*
X150484745Y-104995270D01*
X150507283Y-105029000D01*
X150484746Y-105062729D01*
X150453546Y-105219581D01*
X150431581Y-105330002D01*
X150445000Y-105397462D01*
X150445000Y-106057538D01*
X150431581Y-106124998D01*
X150445000Y-106192458D01*
X150445000Y-106192459D01*
X150484745Y-106392270D01*
X150507283Y-106426000D01*
X150486010Y-106457838D01*
X150484746Y-106459729D01*
X150431581Y-106727002D01*
X150445001Y-106794467D01*
X150445000Y-108688777D01*
X150400928Y-108732849D01*
X150270000Y-109048935D01*
X150270000Y-109391065D01*
X150375319Y-109645327D01*
X150299240Y-109721406D01*
X150242047Y-109759621D01*
X150203833Y-109816813D01*
X150090649Y-109986205D01*
X150037484Y-110253478D01*
X150050904Y-110320943D01*
X150050903Y-110838542D01*
X149818262Y-111071183D01*
X149687334Y-111387269D01*
X149687334Y-111729399D01*
X149688226Y-111731551D01*
X149511928Y-111907849D01*
X149381000Y-112223935D01*
X149381000Y-112297552D01*
X149372849Y-112300928D01*
X149130928Y-112542849D01*
X149000000Y-112858935D01*
X149000000Y-113201065D01*
X149130928Y-113517151D01*
X149372849Y-113759072D01*
X149688935Y-113890000D01*
X150031065Y-113890000D01*
X150347151Y-113759072D01*
X150589072Y-113517151D01*
X150720000Y-113201065D01*
X150720000Y-113127448D01*
X150728151Y-113124072D01*
X150970072Y-112882151D01*
X151101000Y-112566065D01*
X151101000Y-112503735D01*
X151178760Y-112425975D01*
X151178759Y-118841662D01*
X150001422Y-120019000D01*
X136383579Y-120019000D01*
X136248001Y-119883423D01*
X136248001Y-116438582D01*
X136349280Y-116396631D01*
X136640431Y-116105480D01*
X136798000Y-115725074D01*
X136798000Y-115313326D01*
X136640431Y-114932920D01*
X136349280Y-114641769D01*
X135968874Y-114484200D01*
X135557126Y-114484200D01*
X135257179Y-114608442D01*
X135079874Y-114535000D01*
X134668126Y-114535000D01*
X134287720Y-114692569D01*
X133996569Y-114983720D01*
X133839000Y-115364126D01*
X133839000Y-115775874D01*
X133996569Y-116156280D01*
X134287720Y-116447431D01*
X134478001Y-116526248D01*
X134478002Y-120162836D01*
X134460664Y-120250001D01*
X134529349Y-120595310D01*
X134675577Y-120814155D01*
X134675579Y-120814157D01*
X134724953Y-120888050D01*
X134798845Y-120937424D01*
X134842422Y-120981000D01*
X128955000Y-120981000D01*
X128955000Y-109761357D01*
X129126750Y-109761357D01*
X129126750Y-120870643D01*
X132146750Y-120870643D01*
X132146750Y-112238810D01*
X135467064Y-112238810D01*
X135636895Y-112648844D01*
X136027182Y-113077103D01*
X136551648Y-113323406D01*
X136781540Y-113202739D01*
X136781540Y-112008920D01*
X135588385Y-112008920D01*
X135467064Y-112238810D01*
X132146750Y-112238810D01*
X132146750Y-109761357D01*
X129126750Y-109761357D01*
X128955000Y-109761357D01*
X128955000Y-87045000D01*
X152223000Y-87045000D01*
X152223000Y-89776197D01*
G36*
X154690760Y-112535991D02*
X154630830Y-112517912D01*
X154396760Y-112541327D01*
X154396760Y-112386089D01*
X154456690Y-112404168D01*
X154690760Y-112380753D01*
X154690760Y-112535991D01*
X154690760Y-112535991D01*
G37*
X154690760Y-112535991D02*
X154630830Y-112517912D01*
X154396760Y-112541327D01*
X154396760Y-112386089D01*
X154456690Y-112404168D01*
X154690760Y-112380753D01*
X154690760Y-112535991D01*
G36*
X157049000Y-102238777D02*
X156951151Y-102140928D01*
X156635065Y-102010000D01*
X156292935Y-102010000D01*
X156098338Y-102090605D01*
X155555197Y-101547464D01*
X155673000Y-101263065D01*
X155673000Y-100920935D01*
X155542072Y-100604849D01*
X155300151Y-100362928D01*
X154984065Y-100232000D01*
X154641935Y-100232000D01*
X154325849Y-100362928D01*
X154083928Y-100604849D01*
X153953000Y-100920935D01*
X153953000Y-101263065D01*
X154083928Y-101579151D01*
X154128000Y-101623223D01*
X154128000Y-101706542D01*
X154114581Y-101774002D01*
X154128000Y-101841462D01*
X154128000Y-101841463D01*
X154167745Y-102041274D01*
X154319143Y-102267858D01*
X154376337Y-102306074D01*
X156287001Y-104216739D01*
X156287000Y-107854458D01*
X156283282Y-107855998D01*
X156283282Y-107617126D01*
X156125713Y-107236720D01*
X155834562Y-106945569D01*
X155454156Y-106788000D01*
X155042408Y-106788000D01*
X154662002Y-106945569D01*
X154370851Y-107236720D01*
X154213282Y-107617126D01*
X154213282Y-107933139D01*
X152733001Y-109413421D01*
X152733001Y-102783451D01*
X152910152Y-102710072D01*
X153152073Y-102468151D01*
X153283001Y-102152065D01*
X153283001Y-101809935D01*
X153152073Y-101493849D01*
X153085000Y-101426776D01*
X153085000Y-96549847D01*
X153141858Y-96511856D01*
X153293256Y-96285272D01*
X153333001Y-96085461D01*
X153333001Y-96085460D01*
X153346420Y-96018000D01*
X153333001Y-95950539D01*
X153333001Y-94756459D01*
X153346420Y-94688998D01*
X153331914Y-94616071D01*
X153293256Y-94421726D01*
X153286089Y-94411000D01*
X157049000Y-94411000D01*
X157049000Y-102238777D01*
X157049000Y-102238777D01*
G37*
X157049000Y-102238777D02*
X156951151Y-102140928D01*
X156635065Y-102010000D01*
X156292935Y-102010000D01*
X156098338Y-102090605D01*
X155555197Y-101547464D01*
X155673000Y-101263065D01*
X155673000Y-100920935D01*
X155542072Y-100604849D01*
X155300151Y-100362928D01*
X154984065Y-100232000D01*
X154641935Y-100232000D01*
X154325849Y-100362928D01*
X154083928Y-100604849D01*
X153953000Y-100920935D01*
X153953000Y-101263065D01*
X154083928Y-101579151D01*
X154128000Y-101623223D01*
X154128000Y-101706542D01*
X154114581Y-101774002D01*
X154128000Y-101841462D01*
X154128000Y-101841463D01*
X154167745Y-102041274D01*
X154319143Y-102267858D01*
X154376337Y-102306074D01*
X156287001Y-104216739D01*
X156287000Y-107854458D01*
X156283282Y-107855998D01*
X156283282Y-107617126D01*
X156125713Y-107236720D01*
X155834562Y-106945569D01*
X155454156Y-106788000D01*
X155042408Y-106788000D01*
X154662002Y-106945569D01*
X154370851Y-107236720D01*
X154213282Y-107617126D01*
X154213282Y-107933139D01*
X152733001Y-109413421D01*
X152733001Y-102783451D01*
X152910152Y-102710072D01*
X153152073Y-102468151D01*
X153283001Y-102152065D01*
X153283001Y-101809935D01*
X153152073Y-101493849D01*
X153085000Y-101426776D01*
X153085000Y-96549847D01*
X153141858Y-96511856D01*
X153293256Y-96285272D01*
X153333001Y-96085461D01*
X153333001Y-96085460D01*
X153346420Y-96018000D01*
X153333001Y-95950539D01*
X153333001Y-94756459D01*
X153346420Y-94688998D01*
X153331914Y-94616071D01*
X153293256Y-94421726D01*
X153286089Y-94411000D01*
X157049000Y-94411000D01*
X157049000Y-102238777D01*
G36*
X146460000Y-93187668D02*
X146460000Y-93512605D01*
X146529557Y-93680529D01*
X146541747Y-93741812D01*
X146576461Y-93793766D01*
X146590928Y-93828691D01*
X146617658Y-93855421D01*
X146693145Y-93968395D01*
X146803587Y-94042190D01*
X146788777Y-94057000D01*
X144212456Y-94057000D01*
X144144999Y-94043582D01*
X144077542Y-94057000D01*
X144077538Y-94057000D01*
X143877727Y-94096745D01*
X143651143Y-94248143D01*
X143612928Y-94305336D01*
X142317336Y-95600929D01*
X142260143Y-95639144D01*
X142108744Y-95865728D01*
X142075579Y-96032460D01*
X142055580Y-96133001D01*
X142068999Y-96200461D01*
X142068999Y-96236733D01*
X141903065Y-96168000D01*
X141560935Y-96168000D01*
X141244849Y-96298928D01*
X141200777Y-96343000D01*
X140618736Y-96343000D01*
X139893591Y-95617856D01*
X139923232Y-95546297D01*
X139923232Y-95204167D01*
X139914047Y-95181991D01*
X139933151Y-95174078D01*
X140175072Y-94932157D01*
X140306000Y-94616071D01*
X140306000Y-94553741D01*
X141928733Y-92931009D01*
X146353688Y-92931009D01*
X146460000Y-93187668D01*
X146460000Y-93187668D01*
G37*
X146460000Y-93187668D02*
X146460000Y-93512605D01*
X146529557Y-93680529D01*
X146541747Y-93741812D01*
X146576461Y-93793766D01*
X146590928Y-93828691D01*
X146617658Y-93855421D01*
X146693145Y-93968395D01*
X146803587Y-94042190D01*
X146788777Y-94057000D01*
X144212456Y-94057000D01*
X144144999Y-94043582D01*
X144077542Y-94057000D01*
X144077538Y-94057000D01*
X143877727Y-94096745D01*
X143651143Y-94248143D01*
X143612928Y-94305336D01*
X142317336Y-95600929D01*
X142260143Y-95639144D01*
X142108744Y-95865728D01*
X142075579Y-96032460D01*
X142055580Y-96133001D01*
X142068999Y-96200461D01*
X142068999Y-96236733D01*
X141903065Y-96168000D01*
X141560935Y-96168000D01*
X141244849Y-96298928D01*
X141200777Y-96343000D01*
X140618736Y-96343000D01*
X139893591Y-95617856D01*
X139923232Y-95546297D01*
X139923232Y-95204167D01*
X139914047Y-95181991D01*
X139933151Y-95174078D01*
X140175072Y-94932157D01*
X140306000Y-94616071D01*
X140306000Y-94553741D01*
X141928733Y-92931009D01*
X146353688Y-92931009D01*
X146460000Y-93187668D01*
G36*
X140287811Y-89872762D02*
X140603897Y-90003690D01*
X140946027Y-90003690D01*
X141141089Y-89922892D01*
X141864678Y-90646482D01*
X141907078Y-90709938D01*
X142158470Y-90877913D01*
X142380155Y-90922009D01*
X142380160Y-90922009D01*
X142455007Y-90936897D01*
X142529854Y-90922009D01*
X146498491Y-90922009D01*
X146460000Y-91014935D01*
X146460000Y-91357065D01*
X146461630Y-91360999D01*
X141367463Y-91360999D01*
X141300002Y-91347580D01*
X141232542Y-91360999D01*
X141232541Y-91360999D01*
X141032730Y-91400744D01*
X140806146Y-91552142D01*
X140767932Y-91609334D01*
X140633001Y-91744265D01*
X140633001Y-90739461D01*
X140646420Y-90672001D01*
X140629208Y-90585471D01*
X140593256Y-90404728D01*
X140441858Y-90178144D01*
X140384667Y-90139931D01*
X140083426Y-89838690D01*
X140253739Y-89838690D01*
X140287811Y-89872762D01*
X140287811Y-89872762D01*
G37*
X140287811Y-89872762D02*
X140603897Y-90003690D01*
X140946027Y-90003690D01*
X141141089Y-89922892D01*
X141864678Y-90646482D01*
X141907078Y-90709938D01*
X142158470Y-90877913D01*
X142380155Y-90922009D01*
X142380160Y-90922009D01*
X142455007Y-90936897D01*
X142529854Y-90922009D01*
X146498491Y-90922009D01*
X146460000Y-91014935D01*
X146460000Y-91357065D01*
X146461630Y-91360999D01*
X141367463Y-91360999D01*
X141300002Y-91347580D01*
X141232542Y-91360999D01*
X141232541Y-91360999D01*
X141032730Y-91400744D01*
X140806146Y-91552142D01*
X140767932Y-91609334D01*
X140633001Y-91744265D01*
X140633001Y-90739461D01*
X140646420Y-90672001D01*
X140629208Y-90585471D01*
X140593256Y-90404728D01*
X140441858Y-90178144D01*
X140384667Y-90139931D01*
X140083426Y-89838690D01*
X140253739Y-89838690D01*
X140287811Y-89872762D01*
G04 #@! TD*
M02*
