G04 #@! TF.GenerationSoftware,KiCad,Pcbnew,(5.0.1)-3*
G04 #@! TF.CreationDate,2020-01-13T08:35:40-05:00*
G04 #@! TF.ProjectId,SmartWatch,536D61727457617463682E6B69636164,rev?*
G04 #@! TF.SameCoordinates,Original*
G04 #@! TF.FileFunction,Copper,L2,Inr,Plane*
G04 #@! TF.FilePolarity,Positive*
%FSLAX46Y46*%
G04 Gerber Fmt 4.6, Leading zero omitted, Abs format (unit mm)*
G04 Created by KiCad (PCBNEW (5.0.1)-3) date 1/13/2020 8:35:40 AM*
%MOMM*%
%LPD*%
G01*
G04 APERTURE LIST*
G04 #@! TA.AperFunction,ViaPad*
%ADD10R,1.700000X1.700000*%
G04 #@! TD*
G04 #@! TA.AperFunction,ViaPad*
%ADD11O,1.700000X1.700000*%
G04 #@! TD*
G04 #@! TA.AperFunction,ViaPad*
%ADD12C,0.500000*%
G04 #@! TD*
G04 #@! TA.AperFunction,ViaPad*
%ADD13C,0.450000*%
G04 #@! TD*
G04 #@! TA.AperFunction,ViaPad*
%ADD14C,0.600000*%
G04 #@! TD*
G04 #@! TA.AperFunction,ViaPad*
%ADD15C,0.800000*%
G04 #@! TD*
G04 #@! TA.AperFunction,Conductor*
%ADD16C,0.254000*%
G04 #@! TD*
G04 APERTURE END LIST*
D10*
G04 #@! TO.N,Net-(R4-Pad1)*
G04 #@! TO.C,U2*
X154000000Y-67564000D03*
D11*
G04 #@! TO.N,N/C*
X156540000Y-67564000D03*
G04 #@! TO.N,/LCD_CS*
X154000000Y-70104000D03*
G04 #@! TO.N,/TOUCH_CS*
X156540000Y-70104000D03*
G04 #@! TO.N,/LCD_LED*
X154000000Y-72644000D03*
G04 #@! TO.N,/MISO*
X156540000Y-72644000D03*
G04 #@! TO.N,/LCD_RST*
X154000000Y-75184000D03*
G04 #@! TO.N,/LCD_A0*
X156540000Y-75184000D03*
G04 #@! TO.N,/LCD_SCK*
X154000000Y-77724000D03*
G04 #@! TO.N,/MOSI*
X156540000Y-77724000D03*
G04 #@! TO.N,GND*
X154000000Y-80264000D03*
G04 #@! TO.N,+3V3*
X156540000Y-80264000D03*
G04 #@! TD*
D12*
G04 #@! TO.N,GND*
G04 #@! TO.C,U1*
X176850000Y-79659000D03*
X174940000Y-79659000D03*
X176850000Y-78359000D03*
X174940000Y-78359000D03*
X176850000Y-77059000D03*
X174940000Y-77059000D03*
G04 #@! TD*
D13*
G04 #@! TO.N,/ESP32 Pico D4/IO0*
X157400000Y-83400000D03*
X163000000Y-70600000D03*
G04 #@! TO.N,GND*
X172600000Y-69000000D03*
X168900000Y-69900000D03*
X170900000Y-68800000D03*
X170900000Y-67400000D03*
X171000000Y-66000000D03*
X172700000Y-66000000D03*
X169200000Y-66000000D03*
X178800000Y-76400000D03*
X178000000Y-76400000D03*
X179250000Y-58000000D03*
X179250000Y-58750000D03*
X179250000Y-59500000D03*
X179250000Y-60250000D03*
X179250000Y-61000000D03*
X179250000Y-61750000D03*
X178750000Y-62250000D03*
X178000000Y-62250000D03*
X177250000Y-62250000D03*
X176500000Y-62250000D03*
X175750000Y-62250000D03*
X175000000Y-62250000D03*
X174250000Y-62250000D03*
X173750000Y-61750000D03*
X173750000Y-61000000D03*
X173750000Y-60250000D03*
X173750000Y-59750000D03*
X173750000Y-58250000D03*
X173000000Y-58250000D03*
X172250000Y-58250000D03*
X171500000Y-58250000D03*
X170750000Y-58250000D03*
X170000000Y-58250000D03*
X169250000Y-58250000D03*
X168750000Y-58750000D03*
X168750000Y-59500000D03*
X168750000Y-60250000D03*
X168750000Y-61000000D03*
X169250000Y-61750000D03*
X170000000Y-61750000D03*
X170750000Y-61750000D03*
X171500000Y-61750000D03*
X172250000Y-62000000D03*
X172500000Y-62500000D03*
X173750000Y-62500000D03*
X173750000Y-63250000D03*
X172500000Y-63250000D03*
X163576000Y-82296000D03*
X170180000Y-82296000D03*
D14*
X168402000Y-85598000D03*
X169164000Y-85598000D03*
X169926000Y-85598000D03*
X175000000Y-89662000D03*
X176000000Y-89662000D03*
X177000000Y-89662000D03*
D13*
X156400000Y-83200000D03*
X159000000Y-88800000D03*
X161036000Y-59817000D03*
X154559000Y-63268000D03*
X154559000Y-59668000D03*
X154573000Y-88414000D03*
X154573000Y-84814000D03*
X156400000Y-59600000D03*
X158000000Y-59600000D03*
X166600000Y-60800000D03*
X164800000Y-64800000D03*
X178400000Y-64000000D03*
X159600000Y-74800000D03*
X163400000Y-77000000D03*
X167200000Y-74400000D03*
X179100000Y-67900000D03*
X179375000Y-70900000D03*
X179375000Y-72500000D03*
X179400000Y-74100000D03*
G04 #@! TO.N,Z_SIG*
X163765166Y-62434834D03*
X170700000Y-63500000D03*
G04 #@! TO.N,+3V3*
X179000000Y-80200000D03*
X178200000Y-80200000D03*
X158800000Y-58600000D03*
X161000000Y-62000000D03*
X163800000Y-67400000D03*
X167600000Y-61600000D03*
X171300000Y-62900000D03*
X176800000Y-64200000D03*
D14*
X164020500Y-74520500D03*
D13*
X176700000Y-73600000D03*
X176600000Y-71600000D03*
X176400000Y-70100000D03*
X177300000Y-68000000D03*
G04 #@! TO.N,Y_SIG*
X163200000Y-61300000D03*
X167000000Y-63400000D03*
G04 #@! TO.N,/ESP32 Pico D4/ESP32_RX*
X176276000Y-69088000D03*
X172400000Y-75600000D03*
G04 #@! TO.N,/MISO*
X173667002Y-70000000D03*
G04 #@! TO.N,/LCD_RST*
X173667002Y-69449997D03*
G04 #@! TO.N,/ESP32 Pico D4/ESP32_TX*
X176022000Y-68580000D03*
X171800000Y-76200000D03*
G04 #@! TO.N,/LCD_A0*
X154400000Y-74000000D03*
X173667002Y-68000000D03*
G04 #@! TO.N,/LCD_CS*
X157800000Y-64200000D03*
X172600000Y-70525002D03*
G04 #@! TO.N,/LCD_SCK*
X173200000Y-72400000D03*
G04 #@! TO.N,/MOSI*
X173800000Y-72200000D03*
G04 #@! TO.N,/LCD_PEN*
X158600000Y-64600000D03*
X170200000Y-70525002D03*
G04 #@! TO.N,/LCD_LED_CTRL*
X162276998Y-65200000D03*
X165641274Y-66558726D03*
G04 #@! TO.N,/Charge_Enable*
X165600000Y-77600000D03*
X168000000Y-77400000D03*
G04 #@! TO.N,/TOUCH_CS*
X157200000Y-66000000D03*
X166400000Y-67000000D03*
D14*
G04 #@! TO.N,/ESP32 Pico D4/IO32*
X176200000Y-72600000D03*
D13*
X177800000Y-66300000D03*
X168300000Y-65000000D03*
X166600000Y-62200000D03*
G04 #@! TO.N,/ESP32 Pico D4/EN*
X169600000Y-63125000D03*
X160200000Y-62500000D03*
G04 #@! TO.N,/ESP32 Pico D4/RXD*
X166116000Y-78528003D03*
X168402000Y-78528003D03*
G04 #@! TO.N,/ESP32 Pico D4/TXD*
X166116000Y-77978000D03*
X168402000Y-77978000D03*
G04 #@! TO.N,Net-(R12-Pad1)*
X158000000Y-83200000D03*
X162822593Y-76777407D03*
D15*
G04 #@! TO.N,VUSB*
X162560000Y-82550000D03*
X161130000Y-82550000D03*
X162560000Y-82550000D03*
X171450000Y-80010000D03*
X171450000Y-81280000D03*
D14*
G04 #@! TO.N,/ESP32 Pico D4/DTR*
X158450000Y-71600000D03*
X160800000Y-71400000D03*
D13*
G04 #@! TO.N,Net-(C4-Pad1)*
X164800000Y-76800000D03*
X162200000Y-80200000D03*
G04 #@! TD*
D16*
G04 #@! TO.N,GND*
G36*
X174073000Y-61800000D02*
X174082667Y-61848601D01*
X174110197Y-61889803D01*
X174151399Y-61917333D01*
X174200000Y-61927000D01*
X178800000Y-61927000D01*
X178848601Y-61917333D01*
X178889803Y-61889803D01*
X178917333Y-61848601D01*
X178927000Y-61800000D01*
X178927000Y-57377000D01*
X179623000Y-57377000D01*
X179623001Y-90623000D01*
X152377000Y-90623000D01*
X152377000Y-83290200D01*
X156848000Y-83290200D01*
X156848000Y-83509800D01*
X156932037Y-83712683D01*
X157087317Y-83867963D01*
X157290200Y-83952000D01*
X157509800Y-83952000D01*
X157712683Y-83867963D01*
X157846675Y-83733971D01*
X157890200Y-83752000D01*
X158109800Y-83752000D01*
X158312683Y-83667963D01*
X158467963Y-83512683D01*
X158552000Y-83309800D01*
X158552000Y-83090200D01*
X158467963Y-82887317D01*
X158312683Y-82732037D01*
X158109800Y-82648000D01*
X157890200Y-82648000D01*
X157687317Y-82732037D01*
X157553325Y-82866029D01*
X157509800Y-82848000D01*
X157290200Y-82848000D01*
X157087317Y-82932037D01*
X156932037Y-83087317D01*
X156848000Y-83290200D01*
X152377000Y-83290200D01*
X152377000Y-82405391D01*
X160403000Y-82405391D01*
X160403000Y-82694609D01*
X160513679Y-82961813D01*
X160718187Y-83166321D01*
X160985391Y-83277000D01*
X161274609Y-83277000D01*
X161541813Y-83166321D01*
X161746321Y-82961813D01*
X161845000Y-82723580D01*
X161943679Y-82961813D01*
X162148187Y-83166321D01*
X162415391Y-83277000D01*
X162704609Y-83277000D01*
X162971813Y-83166321D01*
X163176321Y-82961813D01*
X163287000Y-82694609D01*
X163287000Y-82405391D01*
X163176321Y-82138187D01*
X162971813Y-81933679D01*
X162704609Y-81823000D01*
X162415391Y-81823000D01*
X162148187Y-81933679D01*
X161943679Y-82138187D01*
X161845000Y-82376420D01*
X161746321Y-82138187D01*
X161541813Y-81933679D01*
X161274609Y-81823000D01*
X160985391Y-81823000D01*
X160718187Y-81933679D01*
X160513679Y-82138187D01*
X160403000Y-82405391D01*
X152377000Y-82405391D01*
X152377000Y-80620890D01*
X152558524Y-80620890D01*
X152728355Y-81030924D01*
X153118642Y-81459183D01*
X153643108Y-81705486D01*
X153873000Y-81584819D01*
X153873000Y-80391000D01*
X152679845Y-80391000D01*
X152558524Y-80620890D01*
X152377000Y-80620890D01*
X152377000Y-79907110D01*
X152558524Y-79907110D01*
X152679845Y-80137000D01*
X153873000Y-80137000D01*
X153873000Y-80117000D01*
X154127000Y-80117000D01*
X154127000Y-80137000D01*
X154147000Y-80137000D01*
X154147000Y-80391000D01*
X154127000Y-80391000D01*
X154127000Y-81584819D01*
X154356892Y-81705486D01*
X154881358Y-81459183D01*
X155271645Y-81030924D01*
X155420842Y-80670709D01*
X155431291Y-80723242D01*
X155691431Y-81112569D01*
X156080758Y-81372709D01*
X156424080Y-81441000D01*
X156655920Y-81441000D01*
X156999242Y-81372709D01*
X157388569Y-81112569D01*
X157648709Y-80723242D01*
X157740058Y-80264000D01*
X157705487Y-80090200D01*
X161648000Y-80090200D01*
X161648000Y-80309800D01*
X161732037Y-80512683D01*
X161887317Y-80667963D01*
X162090200Y-80752000D01*
X162309800Y-80752000D01*
X162512683Y-80667963D01*
X162667963Y-80512683D01*
X162752000Y-80309800D01*
X162752000Y-80090200D01*
X162667963Y-79887317D01*
X162646037Y-79865391D01*
X170723000Y-79865391D01*
X170723000Y-80154609D01*
X170833679Y-80421813D01*
X171038187Y-80626321D01*
X171083282Y-80645000D01*
X171038187Y-80663679D01*
X170833679Y-80868187D01*
X170723000Y-81135391D01*
X170723000Y-81424609D01*
X170833679Y-81691813D01*
X171038187Y-81896321D01*
X171305391Y-82007000D01*
X171594609Y-82007000D01*
X171861813Y-81896321D01*
X172066321Y-81691813D01*
X172177000Y-81424609D01*
X172177000Y-81135391D01*
X172066321Y-80868187D01*
X171861813Y-80663679D01*
X171816718Y-80645000D01*
X171861813Y-80626321D01*
X172066321Y-80421813D01*
X172130983Y-80265702D01*
X174510075Y-80265702D01*
X174515860Y-80455442D01*
X174852930Y-80557128D01*
X175203257Y-80522083D01*
X175364140Y-80455442D01*
X175369925Y-80265702D01*
X176420075Y-80265702D01*
X176425860Y-80455442D01*
X176762930Y-80557128D01*
X177113257Y-80522083D01*
X177274140Y-80455442D01*
X177279925Y-80265702D01*
X177104423Y-80090200D01*
X177648000Y-80090200D01*
X177648000Y-80309800D01*
X177732037Y-80512683D01*
X177887317Y-80667963D01*
X178090200Y-80752000D01*
X178309800Y-80752000D01*
X178512683Y-80667963D01*
X178600000Y-80580646D01*
X178687317Y-80667963D01*
X178890200Y-80752000D01*
X179109800Y-80752000D01*
X179312683Y-80667963D01*
X179467963Y-80512683D01*
X179552000Y-80309800D01*
X179552000Y-80090200D01*
X179467963Y-79887317D01*
X179312683Y-79732037D01*
X179109800Y-79648000D01*
X178890200Y-79648000D01*
X178687317Y-79732037D01*
X178600000Y-79819354D01*
X178512683Y-79732037D01*
X178309800Y-79648000D01*
X178090200Y-79648000D01*
X177887317Y-79732037D01*
X177732037Y-79887317D01*
X177648000Y-80090200D01*
X177104423Y-80090200D01*
X176850000Y-79835777D01*
X176420075Y-80265702D01*
X175369925Y-80265702D01*
X174940000Y-79835777D01*
X174510075Y-80265702D01*
X172130983Y-80265702D01*
X172177000Y-80154609D01*
X172177000Y-79865391D01*
X172066321Y-79598187D01*
X172040064Y-79571930D01*
X174041872Y-79571930D01*
X174076917Y-79922257D01*
X174143558Y-80083140D01*
X174333298Y-80088925D01*
X174763223Y-79659000D01*
X175116777Y-79659000D01*
X175546702Y-80088925D01*
X175736442Y-80083140D01*
X175838128Y-79746070D01*
X175820708Y-79571930D01*
X175951872Y-79571930D01*
X175986917Y-79922257D01*
X176053558Y-80083140D01*
X176243298Y-80088925D01*
X176673223Y-79659000D01*
X177026777Y-79659000D01*
X177456702Y-80088925D01*
X177646442Y-80083140D01*
X177748128Y-79746070D01*
X177713083Y-79395743D01*
X177646442Y-79234860D01*
X177456702Y-79229075D01*
X177026777Y-79659000D01*
X176673223Y-79659000D01*
X176243298Y-79229075D01*
X176053558Y-79234860D01*
X175951872Y-79571930D01*
X175820708Y-79571930D01*
X175803083Y-79395743D01*
X175736442Y-79234860D01*
X175546702Y-79229075D01*
X175116777Y-79659000D01*
X174763223Y-79659000D01*
X174333298Y-79229075D01*
X174143558Y-79234860D01*
X174041872Y-79571930D01*
X172040064Y-79571930D01*
X171861813Y-79393679D01*
X171594609Y-79283000D01*
X171305391Y-79283000D01*
X171038187Y-79393679D01*
X170833679Y-79598187D01*
X170723000Y-79865391D01*
X162646037Y-79865391D01*
X162512683Y-79732037D01*
X162309800Y-79648000D01*
X162090200Y-79648000D01*
X161887317Y-79732037D01*
X161732037Y-79887317D01*
X161648000Y-80090200D01*
X157705487Y-80090200D01*
X157648709Y-79804758D01*
X157388569Y-79415431D01*
X156999242Y-79155291D01*
X156655920Y-79087000D01*
X156424080Y-79087000D01*
X156080758Y-79155291D01*
X155691431Y-79415431D01*
X155431291Y-79804758D01*
X155420842Y-79857291D01*
X155271645Y-79497076D01*
X154881358Y-79068817D01*
X154402594Y-78843977D01*
X154459242Y-78832709D01*
X154848569Y-78572569D01*
X155108709Y-78183242D01*
X155200058Y-77724000D01*
X155339942Y-77724000D01*
X155431291Y-78183242D01*
X155691431Y-78572569D01*
X156080758Y-78832709D01*
X156424080Y-78901000D01*
X156655920Y-78901000D01*
X156999242Y-78832709D01*
X157388569Y-78572569D01*
X157648709Y-78183242D01*
X157740058Y-77724000D01*
X157693553Y-77490200D01*
X165048000Y-77490200D01*
X165048000Y-77709800D01*
X165132037Y-77912683D01*
X165287317Y-78067963D01*
X165490200Y-78152000D01*
X165590593Y-78152000D01*
X165632429Y-78253002D01*
X165564000Y-78418203D01*
X165564000Y-78637803D01*
X165648037Y-78840686D01*
X165803317Y-78995966D01*
X166006200Y-79080003D01*
X166225800Y-79080003D01*
X166428683Y-78995966D01*
X166583963Y-78840686D01*
X166668000Y-78637803D01*
X166668000Y-78418203D01*
X166599571Y-78253002D01*
X166668000Y-78087800D01*
X166668000Y-77868200D01*
X166583963Y-77665317D01*
X166428683Y-77510037D01*
X166225800Y-77426000D01*
X166125407Y-77426000D01*
X166069158Y-77290200D01*
X167448000Y-77290200D01*
X167448000Y-77509800D01*
X167532037Y-77712683D01*
X167687317Y-77867963D01*
X167850000Y-77935349D01*
X167850000Y-78087800D01*
X167918429Y-78253002D01*
X167850000Y-78418203D01*
X167850000Y-78637803D01*
X167934037Y-78840686D01*
X168089317Y-78995966D01*
X168292200Y-79080003D01*
X168511800Y-79080003D01*
X168714683Y-78995966D01*
X168744947Y-78965702D01*
X174510075Y-78965702D01*
X174511395Y-79009000D01*
X174510075Y-79052298D01*
X174512798Y-79055021D01*
X174515860Y-79155442D01*
X174655278Y-79197501D01*
X174940000Y-79482223D01*
X175199794Y-79222429D01*
X175203257Y-79222083D01*
X175364140Y-79155442D01*
X175367202Y-79055021D01*
X175369925Y-79052298D01*
X175368605Y-79009000D01*
X175369925Y-78965702D01*
X176420075Y-78965702D01*
X176421395Y-79009000D01*
X176420075Y-79052298D01*
X176422798Y-79055021D01*
X176425860Y-79155442D01*
X176565278Y-79197501D01*
X176850000Y-79482223D01*
X177109794Y-79222429D01*
X177113257Y-79222083D01*
X177274140Y-79155442D01*
X177277202Y-79055021D01*
X177279925Y-79052298D01*
X177278605Y-79009000D01*
X177279925Y-78965702D01*
X177277202Y-78962979D01*
X177274140Y-78862558D01*
X177134722Y-78820499D01*
X176850000Y-78535777D01*
X176590206Y-78795571D01*
X176586743Y-78795917D01*
X176425860Y-78862558D01*
X176422798Y-78962979D01*
X176420075Y-78965702D01*
X175369925Y-78965702D01*
X175367202Y-78962979D01*
X175364140Y-78862558D01*
X175224722Y-78820499D01*
X174940000Y-78535777D01*
X174680206Y-78795571D01*
X174676743Y-78795917D01*
X174515860Y-78862558D01*
X174512798Y-78962979D01*
X174510075Y-78965702D01*
X168744947Y-78965702D01*
X168869963Y-78840686D01*
X168954000Y-78637803D01*
X168954000Y-78418203D01*
X168893412Y-78271930D01*
X174041872Y-78271930D01*
X174076917Y-78622257D01*
X174143558Y-78783140D01*
X174333298Y-78788925D01*
X174763223Y-78359000D01*
X175116777Y-78359000D01*
X175546702Y-78788925D01*
X175736442Y-78783140D01*
X175838128Y-78446070D01*
X175820708Y-78271930D01*
X175951872Y-78271930D01*
X175986917Y-78622257D01*
X176053558Y-78783140D01*
X176243298Y-78788925D01*
X176673223Y-78359000D01*
X177026777Y-78359000D01*
X177456702Y-78788925D01*
X177646442Y-78783140D01*
X177748128Y-78446070D01*
X177713083Y-78095743D01*
X177646442Y-77934860D01*
X177456702Y-77929075D01*
X177026777Y-78359000D01*
X176673223Y-78359000D01*
X176243298Y-77929075D01*
X176053558Y-77934860D01*
X175951872Y-78271930D01*
X175820708Y-78271930D01*
X175803083Y-78095743D01*
X175736442Y-77934860D01*
X175546702Y-77929075D01*
X175116777Y-78359000D01*
X174763223Y-78359000D01*
X174333298Y-77929075D01*
X174143558Y-77934860D01*
X174041872Y-78271930D01*
X168893412Y-78271930D01*
X168885571Y-78253002D01*
X168954000Y-78087800D01*
X168954000Y-77868200D01*
X168870123Y-77665702D01*
X174510075Y-77665702D01*
X174511395Y-77709000D01*
X174510075Y-77752298D01*
X174512798Y-77755021D01*
X174515860Y-77855442D01*
X174655278Y-77897501D01*
X174940000Y-78182223D01*
X175199794Y-77922429D01*
X175203257Y-77922083D01*
X175364140Y-77855442D01*
X175367202Y-77755021D01*
X175369925Y-77752298D01*
X175368605Y-77709000D01*
X175369925Y-77665702D01*
X176420075Y-77665702D01*
X176421395Y-77709000D01*
X176420075Y-77752298D01*
X176422798Y-77755021D01*
X176425860Y-77855442D01*
X176565278Y-77897501D01*
X176850000Y-78182223D01*
X177109794Y-77922429D01*
X177113257Y-77922083D01*
X177274140Y-77855442D01*
X177277202Y-77755021D01*
X177279925Y-77752298D01*
X177278605Y-77709000D01*
X177279925Y-77665702D01*
X177277202Y-77662979D01*
X177274140Y-77562558D01*
X177134722Y-77520499D01*
X176850000Y-77235777D01*
X176590206Y-77495571D01*
X176586743Y-77495917D01*
X176425860Y-77562558D01*
X176422798Y-77662979D01*
X176420075Y-77665702D01*
X175369925Y-77665702D01*
X175367202Y-77662979D01*
X175364140Y-77562558D01*
X175224722Y-77520499D01*
X174940000Y-77235777D01*
X174680206Y-77495571D01*
X174676743Y-77495917D01*
X174515860Y-77562558D01*
X174512798Y-77662979D01*
X174510075Y-77665702D01*
X168870123Y-77665702D01*
X168869963Y-77665317D01*
X168714683Y-77510037D01*
X168552000Y-77442651D01*
X168552000Y-77290200D01*
X168467963Y-77087317D01*
X168352576Y-76971930D01*
X174041872Y-76971930D01*
X174076917Y-77322257D01*
X174143558Y-77483140D01*
X174333298Y-77488925D01*
X174763223Y-77059000D01*
X175116777Y-77059000D01*
X175546702Y-77488925D01*
X175736442Y-77483140D01*
X175838128Y-77146070D01*
X175820708Y-76971930D01*
X175951872Y-76971930D01*
X175986917Y-77322257D01*
X176053558Y-77483140D01*
X176243298Y-77488925D01*
X176673223Y-77059000D01*
X177026777Y-77059000D01*
X177456702Y-77488925D01*
X177646442Y-77483140D01*
X177748128Y-77146070D01*
X177713083Y-76795743D01*
X177646442Y-76634860D01*
X177456702Y-76629075D01*
X177026777Y-77059000D01*
X176673223Y-77059000D01*
X176243298Y-76629075D01*
X176053558Y-76634860D01*
X175951872Y-76971930D01*
X175820708Y-76971930D01*
X175803083Y-76795743D01*
X175736442Y-76634860D01*
X175546702Y-76629075D01*
X175116777Y-77059000D01*
X174763223Y-77059000D01*
X174333298Y-76629075D01*
X174143558Y-76634860D01*
X174041872Y-76971930D01*
X168352576Y-76971930D01*
X168312683Y-76932037D01*
X168109800Y-76848000D01*
X167890200Y-76848000D01*
X167687317Y-76932037D01*
X167532037Y-77087317D01*
X167448000Y-77290200D01*
X166069158Y-77290200D01*
X166067963Y-77287317D01*
X165912683Y-77132037D01*
X165709800Y-77048000D01*
X165490200Y-77048000D01*
X165287317Y-77132037D01*
X165132037Y-77287317D01*
X165048000Y-77490200D01*
X157693553Y-77490200D01*
X157648709Y-77264758D01*
X157388569Y-76875431D01*
X157077539Y-76667607D01*
X162270593Y-76667607D01*
X162270593Y-76887207D01*
X162354630Y-77090090D01*
X162509910Y-77245370D01*
X162712793Y-77329407D01*
X162932393Y-77329407D01*
X163135276Y-77245370D01*
X163290556Y-77090090D01*
X163374593Y-76887207D01*
X163374593Y-76690200D01*
X164248000Y-76690200D01*
X164248000Y-76909800D01*
X164332037Y-77112683D01*
X164487317Y-77267963D01*
X164690200Y-77352000D01*
X164909800Y-77352000D01*
X165112683Y-77267963D01*
X165267963Y-77112683D01*
X165352000Y-76909800D01*
X165352000Y-76690200D01*
X165267963Y-76487317D01*
X165112683Y-76332037D01*
X164909800Y-76248000D01*
X164690200Y-76248000D01*
X164487317Y-76332037D01*
X164332037Y-76487317D01*
X164248000Y-76690200D01*
X163374593Y-76690200D01*
X163374593Y-76667607D01*
X163290556Y-76464724D01*
X163135276Y-76309444D01*
X162932393Y-76225407D01*
X162712793Y-76225407D01*
X162509910Y-76309444D01*
X162354630Y-76464724D01*
X162270593Y-76667607D01*
X157077539Y-76667607D01*
X156999242Y-76615291D01*
X156655920Y-76547000D01*
X156424080Y-76547000D01*
X156080758Y-76615291D01*
X155691431Y-76875431D01*
X155431291Y-77264758D01*
X155339942Y-77724000D01*
X155200058Y-77724000D01*
X155108709Y-77264758D01*
X154848569Y-76875431D01*
X154459242Y-76615291D01*
X154115920Y-76547000D01*
X153884080Y-76547000D01*
X153540758Y-76615291D01*
X153151431Y-76875431D01*
X152891291Y-77264758D01*
X152799942Y-77724000D01*
X152891291Y-78183242D01*
X153151431Y-78572569D01*
X153540758Y-78832709D01*
X153597406Y-78843977D01*
X153118642Y-79068817D01*
X152728355Y-79497076D01*
X152558524Y-79907110D01*
X152377000Y-79907110D01*
X152377000Y-72644000D01*
X152799942Y-72644000D01*
X152891291Y-73103242D01*
X153151431Y-73492569D01*
X153540758Y-73752709D01*
X153877228Y-73819637D01*
X153848000Y-73890200D01*
X153848000Y-74014177D01*
X153540758Y-74075291D01*
X153151431Y-74335431D01*
X152891291Y-74724758D01*
X152799942Y-75184000D01*
X152891291Y-75643242D01*
X153151431Y-76032569D01*
X153540758Y-76292709D01*
X153884080Y-76361000D01*
X154115920Y-76361000D01*
X154459242Y-76292709D01*
X154848569Y-76032569D01*
X155108709Y-75643242D01*
X155200058Y-75184000D01*
X155339942Y-75184000D01*
X155431291Y-75643242D01*
X155691431Y-76032569D01*
X156080758Y-76292709D01*
X156424080Y-76361000D01*
X156655920Y-76361000D01*
X156999242Y-76292709D01*
X157302318Y-76090200D01*
X171248000Y-76090200D01*
X171248000Y-76309800D01*
X171332037Y-76512683D01*
X171487317Y-76667963D01*
X171690200Y-76752000D01*
X171909800Y-76752000D01*
X172112683Y-76667963D01*
X172267963Y-76512683D01*
X172292975Y-76452298D01*
X174510075Y-76452298D01*
X174940000Y-76882223D01*
X175369925Y-76452298D01*
X176420075Y-76452298D01*
X176850000Y-76882223D01*
X177279925Y-76452298D01*
X177274140Y-76262558D01*
X176937070Y-76160872D01*
X176586743Y-76195917D01*
X176425860Y-76262558D01*
X176420075Y-76452298D01*
X175369925Y-76452298D01*
X175364140Y-76262558D01*
X175027070Y-76160872D01*
X174676743Y-76195917D01*
X174515860Y-76262558D01*
X174510075Y-76452298D01*
X172292975Y-76452298D01*
X172352000Y-76309800D01*
X172352000Y-76152000D01*
X172509800Y-76152000D01*
X172712683Y-76067963D01*
X172867963Y-75912683D01*
X172952000Y-75709800D01*
X172952000Y-75490200D01*
X172867963Y-75287317D01*
X172712683Y-75132037D01*
X172509800Y-75048000D01*
X172290200Y-75048000D01*
X172087317Y-75132037D01*
X171932037Y-75287317D01*
X171848000Y-75490200D01*
X171848000Y-75648000D01*
X171690200Y-75648000D01*
X171487317Y-75732037D01*
X171332037Y-75887317D01*
X171248000Y-76090200D01*
X157302318Y-76090200D01*
X157388569Y-76032569D01*
X157648709Y-75643242D01*
X157740058Y-75184000D01*
X157648709Y-74724758D01*
X157428895Y-74395782D01*
X163393500Y-74395782D01*
X163393500Y-74645218D01*
X163488955Y-74875667D01*
X163665333Y-75052045D01*
X163895782Y-75147500D01*
X164145218Y-75147500D01*
X164375667Y-75052045D01*
X164552045Y-74875667D01*
X164647500Y-74645218D01*
X164647500Y-74395782D01*
X164552045Y-74165333D01*
X164375667Y-73988955D01*
X164145218Y-73893500D01*
X163895782Y-73893500D01*
X163665333Y-73988955D01*
X163488955Y-74165333D01*
X163393500Y-74395782D01*
X157428895Y-74395782D01*
X157388569Y-74335431D01*
X156999242Y-74075291D01*
X156655920Y-74007000D01*
X156424080Y-74007000D01*
X156080758Y-74075291D01*
X155691431Y-74335431D01*
X155431291Y-74724758D01*
X155339942Y-75184000D01*
X155200058Y-75184000D01*
X155108709Y-74724758D01*
X154848569Y-74335431D01*
X154846558Y-74334088D01*
X154867963Y-74312683D01*
X154952000Y-74109800D01*
X154952000Y-73890200D01*
X154867963Y-73687317D01*
X154743452Y-73562806D01*
X154848569Y-73492569D01*
X155108709Y-73103242D01*
X155200058Y-72644000D01*
X155339942Y-72644000D01*
X155431291Y-73103242D01*
X155691431Y-73492569D01*
X156080758Y-73752709D01*
X156424080Y-73821000D01*
X156655920Y-73821000D01*
X156999242Y-73752709D01*
X157388569Y-73492569D01*
X157648709Y-73103242D01*
X157740058Y-72644000D01*
X157669683Y-72290200D01*
X172648000Y-72290200D01*
X172648000Y-72509800D01*
X172732037Y-72712683D01*
X172887317Y-72867963D01*
X173090200Y-72952000D01*
X173309800Y-72952000D01*
X173512683Y-72867963D01*
X173646675Y-72733971D01*
X173690200Y-72752000D01*
X173909800Y-72752000D01*
X174112683Y-72667963D01*
X174267963Y-72512683D01*
X174283455Y-72475282D01*
X175573000Y-72475282D01*
X175573000Y-72724718D01*
X175668455Y-72955167D01*
X175844833Y-73131545D01*
X176075282Y-73227000D01*
X176292354Y-73227000D01*
X176232037Y-73287317D01*
X176148000Y-73490200D01*
X176148000Y-73709800D01*
X176232037Y-73912683D01*
X176387317Y-74067963D01*
X176590200Y-74152000D01*
X176809800Y-74152000D01*
X177012683Y-74067963D01*
X177167963Y-73912683D01*
X177252000Y-73709800D01*
X177252000Y-73490200D01*
X177167963Y-73287317D01*
X177012683Y-73132037D01*
X176809800Y-73048000D01*
X176638712Y-73048000D01*
X176731545Y-72955167D01*
X176827000Y-72724718D01*
X176827000Y-72475282D01*
X176731545Y-72244833D01*
X176638712Y-72152000D01*
X176709800Y-72152000D01*
X176912683Y-72067963D01*
X177067963Y-71912683D01*
X177152000Y-71709800D01*
X177152000Y-71490200D01*
X177067963Y-71287317D01*
X176912683Y-71132037D01*
X176709800Y-71048000D01*
X176490200Y-71048000D01*
X176287317Y-71132037D01*
X176132037Y-71287317D01*
X176048000Y-71490200D01*
X176048000Y-71709800D01*
X176132037Y-71912683D01*
X176192354Y-71973000D01*
X176075282Y-71973000D01*
X175844833Y-72068455D01*
X175668455Y-72244833D01*
X175573000Y-72475282D01*
X174283455Y-72475282D01*
X174352000Y-72309800D01*
X174352000Y-72090200D01*
X174267963Y-71887317D01*
X174112683Y-71732037D01*
X173909800Y-71648000D01*
X173690200Y-71648000D01*
X173487317Y-71732037D01*
X173353325Y-71866029D01*
X173309800Y-71848000D01*
X173090200Y-71848000D01*
X172887317Y-71932037D01*
X172732037Y-72087317D01*
X172648000Y-72290200D01*
X157669683Y-72290200D01*
X157648709Y-72184758D01*
X157388569Y-71795431D01*
X156999242Y-71535291D01*
X156697557Y-71475282D01*
X157823000Y-71475282D01*
X157823000Y-71724718D01*
X157918455Y-71955167D01*
X158094833Y-72131545D01*
X158325282Y-72227000D01*
X158574718Y-72227000D01*
X158805167Y-72131545D01*
X158981545Y-71955167D01*
X159077000Y-71724718D01*
X159077000Y-71475282D01*
X158994158Y-71275282D01*
X160173000Y-71275282D01*
X160173000Y-71524718D01*
X160268455Y-71755167D01*
X160444833Y-71931545D01*
X160675282Y-72027000D01*
X160924718Y-72027000D01*
X161155167Y-71931545D01*
X161331545Y-71755167D01*
X161427000Y-71524718D01*
X161427000Y-71275282D01*
X161331545Y-71044833D01*
X161155167Y-70868455D01*
X160924718Y-70773000D01*
X160675282Y-70773000D01*
X160444833Y-70868455D01*
X160268455Y-71044833D01*
X160173000Y-71275282D01*
X158994158Y-71275282D01*
X158981545Y-71244833D01*
X158805167Y-71068455D01*
X158574718Y-70973000D01*
X158325282Y-70973000D01*
X158094833Y-71068455D01*
X157918455Y-71244833D01*
X157823000Y-71475282D01*
X156697557Y-71475282D01*
X156655920Y-71467000D01*
X156424080Y-71467000D01*
X156080758Y-71535291D01*
X155691431Y-71795431D01*
X155431291Y-72184758D01*
X155339942Y-72644000D01*
X155200058Y-72644000D01*
X155108709Y-72184758D01*
X154848569Y-71795431D01*
X154459242Y-71535291D01*
X154115920Y-71467000D01*
X153884080Y-71467000D01*
X153540758Y-71535291D01*
X153151431Y-71795431D01*
X152891291Y-72184758D01*
X152799942Y-72644000D01*
X152377000Y-72644000D01*
X152377000Y-70104000D01*
X152799942Y-70104000D01*
X152891291Y-70563242D01*
X153151431Y-70952569D01*
X153540758Y-71212709D01*
X153884080Y-71281000D01*
X154115920Y-71281000D01*
X154459242Y-71212709D01*
X154848569Y-70952569D01*
X155108709Y-70563242D01*
X155200058Y-70104000D01*
X155339942Y-70104000D01*
X155431291Y-70563242D01*
X155691431Y-70952569D01*
X156080758Y-71212709D01*
X156424080Y-71281000D01*
X156655920Y-71281000D01*
X156999242Y-71212709D01*
X157388569Y-70952569D01*
X157648709Y-70563242D01*
X157663237Y-70490200D01*
X162448000Y-70490200D01*
X162448000Y-70709800D01*
X162532037Y-70912683D01*
X162687317Y-71067963D01*
X162890200Y-71152000D01*
X163109800Y-71152000D01*
X163312683Y-71067963D01*
X163467963Y-70912683D01*
X163552000Y-70709800D01*
X163552000Y-70490200D01*
X163520935Y-70415202D01*
X169648000Y-70415202D01*
X169648000Y-70634802D01*
X169732037Y-70837685D01*
X169887317Y-70992965D01*
X170090200Y-71077002D01*
X170309800Y-71077002D01*
X170512683Y-70992965D01*
X170667963Y-70837685D01*
X170752000Y-70634802D01*
X170752000Y-70415202D01*
X172048000Y-70415202D01*
X172048000Y-70634802D01*
X172132037Y-70837685D01*
X172287317Y-70992965D01*
X172490200Y-71077002D01*
X172709800Y-71077002D01*
X172912683Y-70992965D01*
X173067963Y-70837685D01*
X173152000Y-70634802D01*
X173152000Y-70415202D01*
X173067963Y-70212319D01*
X172912683Y-70057039D01*
X172709800Y-69973002D01*
X172490200Y-69973002D01*
X172287317Y-70057039D01*
X172132037Y-70212319D01*
X172048000Y-70415202D01*
X170752000Y-70415202D01*
X170667963Y-70212319D01*
X170512683Y-70057039D01*
X170309800Y-69973002D01*
X170090200Y-69973002D01*
X169887317Y-70057039D01*
X169732037Y-70212319D01*
X169648000Y-70415202D01*
X163520935Y-70415202D01*
X163467963Y-70287317D01*
X163312683Y-70132037D01*
X163109800Y-70048000D01*
X162890200Y-70048000D01*
X162687317Y-70132037D01*
X162532037Y-70287317D01*
X162448000Y-70490200D01*
X157663237Y-70490200D01*
X157740058Y-70104000D01*
X157648709Y-69644758D01*
X157445208Y-69340197D01*
X173115002Y-69340197D01*
X173115002Y-69559797D01*
X173183431Y-69724999D01*
X173115002Y-69890200D01*
X173115002Y-70109800D01*
X173199039Y-70312683D01*
X173354319Y-70467963D01*
X173557202Y-70552000D01*
X173776802Y-70552000D01*
X173979685Y-70467963D01*
X174134965Y-70312683D01*
X174219002Y-70109800D01*
X174219002Y-69890200D01*
X174150573Y-69724999D01*
X174219002Y-69559797D01*
X174219002Y-69340197D01*
X174134965Y-69137314D01*
X173979685Y-68982034D01*
X173776802Y-68897997D01*
X173557202Y-68897997D01*
X173354319Y-68982034D01*
X173199039Y-69137314D01*
X173115002Y-69340197D01*
X157445208Y-69340197D01*
X157388569Y-69255431D01*
X156999242Y-68995291D01*
X156655920Y-68927000D01*
X156424080Y-68927000D01*
X156080758Y-68995291D01*
X155691431Y-69255431D01*
X155431291Y-69644758D01*
X155339942Y-70104000D01*
X155200058Y-70104000D01*
X155108709Y-69644758D01*
X154848569Y-69255431D01*
X154459242Y-68995291D01*
X154115920Y-68927000D01*
X153884080Y-68927000D01*
X153540758Y-68995291D01*
X153151431Y-69255431D01*
X152891291Y-69644758D01*
X152799942Y-70104000D01*
X152377000Y-70104000D01*
X152377000Y-66714000D01*
X152816594Y-66714000D01*
X152816594Y-68414000D01*
X152841973Y-68541589D01*
X152914246Y-68649754D01*
X153022411Y-68722027D01*
X153150000Y-68747406D01*
X154850000Y-68747406D01*
X154977589Y-68722027D01*
X155085754Y-68649754D01*
X155158027Y-68541589D01*
X155183406Y-68414000D01*
X155183406Y-67564000D01*
X155339942Y-67564000D01*
X155431291Y-68023242D01*
X155691431Y-68412569D01*
X156080758Y-68672709D01*
X156424080Y-68741000D01*
X156655920Y-68741000D01*
X156999242Y-68672709D01*
X157388569Y-68412569D01*
X157648709Y-68023242D01*
X157740058Y-67564000D01*
X157685596Y-67290200D01*
X163248000Y-67290200D01*
X163248000Y-67509800D01*
X163332037Y-67712683D01*
X163487317Y-67867963D01*
X163690200Y-67952000D01*
X163909800Y-67952000D01*
X164058998Y-67890200D01*
X173115002Y-67890200D01*
X173115002Y-68109800D01*
X173199039Y-68312683D01*
X173354319Y-68467963D01*
X173557202Y-68552000D01*
X173776802Y-68552000D01*
X173974284Y-68470200D01*
X175470000Y-68470200D01*
X175470000Y-68689800D01*
X175554037Y-68892683D01*
X175709317Y-69047963D01*
X175724000Y-69054045D01*
X175724000Y-69197800D01*
X175808037Y-69400683D01*
X175963317Y-69555963D01*
X176117146Y-69619681D01*
X176087317Y-69632037D01*
X175932037Y-69787317D01*
X175848000Y-69990200D01*
X175848000Y-70209800D01*
X175932037Y-70412683D01*
X176087317Y-70567963D01*
X176290200Y-70652000D01*
X176509800Y-70652000D01*
X176712683Y-70567963D01*
X176867963Y-70412683D01*
X176952000Y-70209800D01*
X176952000Y-69990200D01*
X176867963Y-69787317D01*
X176712683Y-69632037D01*
X176558854Y-69568319D01*
X176588683Y-69555963D01*
X176743963Y-69400683D01*
X176828000Y-69197800D01*
X176828000Y-68978200D01*
X176743963Y-68775317D01*
X176588683Y-68620037D01*
X176574000Y-68613955D01*
X176574000Y-68470200D01*
X176489963Y-68267317D01*
X176334683Y-68112037D01*
X176131800Y-68028000D01*
X175912200Y-68028000D01*
X175709317Y-68112037D01*
X175554037Y-68267317D01*
X175470000Y-68470200D01*
X173974284Y-68470200D01*
X173979685Y-68467963D01*
X174134965Y-68312683D01*
X174219002Y-68109800D01*
X174219002Y-67890200D01*
X176748000Y-67890200D01*
X176748000Y-68109800D01*
X176832037Y-68312683D01*
X176987317Y-68467963D01*
X177190200Y-68552000D01*
X177409800Y-68552000D01*
X177612683Y-68467963D01*
X177767963Y-68312683D01*
X177852000Y-68109800D01*
X177852000Y-67890200D01*
X177767963Y-67687317D01*
X177612683Y-67532037D01*
X177409800Y-67448000D01*
X177190200Y-67448000D01*
X176987317Y-67532037D01*
X176832037Y-67687317D01*
X176748000Y-67890200D01*
X174219002Y-67890200D01*
X174134965Y-67687317D01*
X173979685Y-67532037D01*
X173776802Y-67448000D01*
X173557202Y-67448000D01*
X173354319Y-67532037D01*
X173199039Y-67687317D01*
X173115002Y-67890200D01*
X164058998Y-67890200D01*
X164112683Y-67867963D01*
X164267963Y-67712683D01*
X164352000Y-67509800D01*
X164352000Y-67290200D01*
X164267963Y-67087317D01*
X164112683Y-66932037D01*
X163909800Y-66848000D01*
X163690200Y-66848000D01*
X163487317Y-66932037D01*
X163332037Y-67087317D01*
X163248000Y-67290200D01*
X157685596Y-67290200D01*
X157648709Y-67104758D01*
X157388569Y-66715431D01*
X157143977Y-66552000D01*
X157309800Y-66552000D01*
X157512683Y-66467963D01*
X157531720Y-66448926D01*
X165089274Y-66448926D01*
X165089274Y-66668526D01*
X165173311Y-66871409D01*
X165328591Y-67026689D01*
X165531474Y-67110726D01*
X165751074Y-67110726D01*
X165848000Y-67070578D01*
X165848000Y-67109800D01*
X165932037Y-67312683D01*
X166087317Y-67467963D01*
X166290200Y-67552000D01*
X166509800Y-67552000D01*
X166712683Y-67467963D01*
X166867963Y-67312683D01*
X166952000Y-67109800D01*
X166952000Y-66890200D01*
X166867963Y-66687317D01*
X166712683Y-66532037D01*
X166509800Y-66448000D01*
X166290200Y-66448000D01*
X166193274Y-66488148D01*
X166193274Y-66448926D01*
X166109237Y-66246043D01*
X166053394Y-66190200D01*
X177248000Y-66190200D01*
X177248000Y-66409800D01*
X177332037Y-66612683D01*
X177487317Y-66767963D01*
X177690200Y-66852000D01*
X177909800Y-66852000D01*
X178112683Y-66767963D01*
X178267963Y-66612683D01*
X178352000Y-66409800D01*
X178352000Y-66190200D01*
X178267963Y-65987317D01*
X178112683Y-65832037D01*
X177909800Y-65748000D01*
X177690200Y-65748000D01*
X177487317Y-65832037D01*
X177332037Y-65987317D01*
X177248000Y-66190200D01*
X166053394Y-66190200D01*
X165953957Y-66090763D01*
X165751074Y-66006726D01*
X165531474Y-66006726D01*
X165328591Y-66090763D01*
X165173311Y-66246043D01*
X165089274Y-66448926D01*
X157531720Y-66448926D01*
X157667963Y-66312683D01*
X157752000Y-66109800D01*
X157752000Y-65890200D01*
X157667963Y-65687317D01*
X157512683Y-65532037D01*
X157309800Y-65448000D01*
X157090200Y-65448000D01*
X156887317Y-65532037D01*
X156732037Y-65687317D01*
X156648000Y-65890200D01*
X156648000Y-66109800D01*
X156732037Y-66312683D01*
X156843707Y-66424353D01*
X156655920Y-66387000D01*
X156424080Y-66387000D01*
X156080758Y-66455291D01*
X155691431Y-66715431D01*
X155431291Y-67104758D01*
X155339942Y-67564000D01*
X155183406Y-67564000D01*
X155183406Y-66714000D01*
X155158027Y-66586411D01*
X155085754Y-66478246D01*
X154977589Y-66405973D01*
X154850000Y-66380594D01*
X153150000Y-66380594D01*
X153022411Y-66405973D01*
X152914246Y-66478246D01*
X152841973Y-66586411D01*
X152816594Y-66714000D01*
X152377000Y-66714000D01*
X152377000Y-64090200D01*
X157248000Y-64090200D01*
X157248000Y-64309800D01*
X157332037Y-64512683D01*
X157487317Y-64667963D01*
X157690200Y-64752000D01*
X157909800Y-64752000D01*
X158048000Y-64694756D01*
X158048000Y-64709800D01*
X158132037Y-64912683D01*
X158287317Y-65067963D01*
X158490200Y-65152000D01*
X158709800Y-65152000D01*
X158858998Y-65090200D01*
X161724998Y-65090200D01*
X161724998Y-65309800D01*
X161809035Y-65512683D01*
X161964315Y-65667963D01*
X162167198Y-65752000D01*
X162386798Y-65752000D01*
X162589681Y-65667963D01*
X162744961Y-65512683D01*
X162828998Y-65309800D01*
X162828998Y-65090200D01*
X162746156Y-64890200D01*
X167748000Y-64890200D01*
X167748000Y-65109800D01*
X167832037Y-65312683D01*
X167987317Y-65467963D01*
X168190200Y-65552000D01*
X168409800Y-65552000D01*
X168612683Y-65467963D01*
X168767963Y-65312683D01*
X168852000Y-65109800D01*
X168852000Y-64890200D01*
X168767963Y-64687317D01*
X168612683Y-64532037D01*
X168409800Y-64448000D01*
X168190200Y-64448000D01*
X167987317Y-64532037D01*
X167832037Y-64687317D01*
X167748000Y-64890200D01*
X162746156Y-64890200D01*
X162744961Y-64887317D01*
X162589681Y-64732037D01*
X162386798Y-64648000D01*
X162167198Y-64648000D01*
X161964315Y-64732037D01*
X161809035Y-64887317D01*
X161724998Y-65090200D01*
X158858998Y-65090200D01*
X158912683Y-65067963D01*
X159067963Y-64912683D01*
X159152000Y-64709800D01*
X159152000Y-64490200D01*
X159067963Y-64287317D01*
X158912683Y-64132037D01*
X158811680Y-64090200D01*
X176248000Y-64090200D01*
X176248000Y-64309800D01*
X176332037Y-64512683D01*
X176487317Y-64667963D01*
X176690200Y-64752000D01*
X176909800Y-64752000D01*
X177112683Y-64667963D01*
X177267963Y-64512683D01*
X177352000Y-64309800D01*
X177352000Y-64090200D01*
X177267963Y-63887317D01*
X177112683Y-63732037D01*
X176909800Y-63648000D01*
X176690200Y-63648000D01*
X176487317Y-63732037D01*
X176332037Y-63887317D01*
X176248000Y-64090200D01*
X158811680Y-64090200D01*
X158709800Y-64048000D01*
X158490200Y-64048000D01*
X158352000Y-64105244D01*
X158352000Y-64090200D01*
X158267963Y-63887317D01*
X158112683Y-63732037D01*
X157909800Y-63648000D01*
X157690200Y-63648000D01*
X157487317Y-63732037D01*
X157332037Y-63887317D01*
X157248000Y-64090200D01*
X152377000Y-64090200D01*
X152377000Y-63290200D01*
X166448000Y-63290200D01*
X166448000Y-63509800D01*
X166532037Y-63712683D01*
X166687317Y-63867963D01*
X166890200Y-63952000D01*
X167109800Y-63952000D01*
X167312683Y-63867963D01*
X167467963Y-63712683D01*
X167552000Y-63509800D01*
X167552000Y-63290200D01*
X167467963Y-63087317D01*
X167395846Y-63015200D01*
X169048000Y-63015200D01*
X169048000Y-63234800D01*
X169132037Y-63437683D01*
X169287317Y-63592963D01*
X169490200Y-63677000D01*
X169709800Y-63677000D01*
X169912683Y-63592963D01*
X170067963Y-63437683D01*
X170087631Y-63390200D01*
X170148000Y-63390200D01*
X170148000Y-63609800D01*
X170232037Y-63812683D01*
X170387317Y-63967963D01*
X170590200Y-64052000D01*
X170809800Y-64052000D01*
X171012683Y-63967963D01*
X171167963Y-63812683D01*
X171252000Y-63609800D01*
X171252000Y-63452000D01*
X171409800Y-63452000D01*
X171612683Y-63367963D01*
X171767963Y-63212683D01*
X171852000Y-63009800D01*
X171852000Y-62790200D01*
X171767963Y-62587317D01*
X171612683Y-62432037D01*
X171409800Y-62348000D01*
X171190200Y-62348000D01*
X170987317Y-62432037D01*
X170832037Y-62587317D01*
X170748000Y-62790200D01*
X170748000Y-62948000D01*
X170590200Y-62948000D01*
X170387317Y-63032037D01*
X170232037Y-63187317D01*
X170148000Y-63390200D01*
X170087631Y-63390200D01*
X170152000Y-63234800D01*
X170152000Y-63015200D01*
X170067963Y-62812317D01*
X169912683Y-62657037D01*
X169709800Y-62573000D01*
X169490200Y-62573000D01*
X169287317Y-62657037D01*
X169132037Y-62812317D01*
X169048000Y-63015200D01*
X167395846Y-63015200D01*
X167312683Y-62932037D01*
X167109800Y-62848000D01*
X166890200Y-62848000D01*
X166687317Y-62932037D01*
X166532037Y-63087317D01*
X166448000Y-63290200D01*
X152377000Y-63290200D01*
X152377000Y-62390200D01*
X159648000Y-62390200D01*
X159648000Y-62609800D01*
X159732037Y-62812683D01*
X159887317Y-62967963D01*
X160090200Y-63052000D01*
X160309800Y-63052000D01*
X160512683Y-62967963D01*
X160667963Y-62812683D01*
X160752000Y-62609800D01*
X160752000Y-62494756D01*
X160890200Y-62552000D01*
X161109800Y-62552000D01*
X161312683Y-62467963D01*
X161455612Y-62325034D01*
X163213166Y-62325034D01*
X163213166Y-62544634D01*
X163297203Y-62747517D01*
X163452483Y-62902797D01*
X163655366Y-62986834D01*
X163874966Y-62986834D01*
X164077849Y-62902797D01*
X164233129Y-62747517D01*
X164317166Y-62544634D01*
X164317166Y-62325034D01*
X164233129Y-62122151D01*
X164201178Y-62090200D01*
X166048000Y-62090200D01*
X166048000Y-62309800D01*
X166132037Y-62512683D01*
X166287317Y-62667963D01*
X166490200Y-62752000D01*
X166709800Y-62752000D01*
X166912683Y-62667963D01*
X167067963Y-62512683D01*
X167152000Y-62309800D01*
X167152000Y-62090200D01*
X167067963Y-61887317D01*
X166912683Y-61732037D01*
X166709800Y-61648000D01*
X166490200Y-61648000D01*
X166287317Y-61732037D01*
X166132037Y-61887317D01*
X166048000Y-62090200D01*
X164201178Y-62090200D01*
X164077849Y-61966871D01*
X163874966Y-61882834D01*
X163655366Y-61882834D01*
X163452483Y-61966871D01*
X163297203Y-62122151D01*
X163213166Y-62325034D01*
X161455612Y-62325034D01*
X161467963Y-62312683D01*
X161552000Y-62109800D01*
X161552000Y-61890200D01*
X161467963Y-61687317D01*
X161312683Y-61532037D01*
X161109800Y-61448000D01*
X160890200Y-61448000D01*
X160687317Y-61532037D01*
X160532037Y-61687317D01*
X160448000Y-61890200D01*
X160448000Y-62005244D01*
X160309800Y-61948000D01*
X160090200Y-61948000D01*
X159887317Y-62032037D01*
X159732037Y-62187317D01*
X159648000Y-62390200D01*
X152377000Y-62390200D01*
X152377000Y-61190200D01*
X162648000Y-61190200D01*
X162648000Y-61409800D01*
X162732037Y-61612683D01*
X162887317Y-61767963D01*
X163090200Y-61852000D01*
X163309800Y-61852000D01*
X163512683Y-61767963D01*
X163667963Y-61612683D01*
X163718697Y-61490200D01*
X167048000Y-61490200D01*
X167048000Y-61709800D01*
X167132037Y-61912683D01*
X167287317Y-62067963D01*
X167490200Y-62152000D01*
X167709800Y-62152000D01*
X167912683Y-62067963D01*
X168067963Y-61912683D01*
X168152000Y-61709800D01*
X168152000Y-61490200D01*
X168067963Y-61287317D01*
X167912683Y-61132037D01*
X167709800Y-61048000D01*
X167490200Y-61048000D01*
X167287317Y-61132037D01*
X167132037Y-61287317D01*
X167048000Y-61490200D01*
X163718697Y-61490200D01*
X163752000Y-61409800D01*
X163752000Y-61190200D01*
X163667963Y-60987317D01*
X163512683Y-60832037D01*
X163309800Y-60748000D01*
X163090200Y-60748000D01*
X162887317Y-60832037D01*
X162732037Y-60987317D01*
X162648000Y-61190200D01*
X152377000Y-61190200D01*
X152377000Y-58490200D01*
X158248000Y-58490200D01*
X158248000Y-58709800D01*
X158332037Y-58912683D01*
X158487317Y-59067963D01*
X158690200Y-59152000D01*
X158909800Y-59152000D01*
X159112683Y-59067963D01*
X159267963Y-58912683D01*
X159352000Y-58709800D01*
X159352000Y-58490200D01*
X159267963Y-58287317D01*
X159112683Y-58132037D01*
X158909800Y-58048000D01*
X158690200Y-58048000D01*
X158487317Y-58132037D01*
X158332037Y-58287317D01*
X158248000Y-58490200D01*
X152377000Y-58490200D01*
X152377000Y-57377000D01*
X174073000Y-57377000D01*
X174073000Y-61800000D01*
X174073000Y-61800000D01*
G37*
X174073000Y-61800000D02*
X174082667Y-61848601D01*
X174110197Y-61889803D01*
X174151399Y-61917333D01*
X174200000Y-61927000D01*
X178800000Y-61927000D01*
X178848601Y-61917333D01*
X178889803Y-61889803D01*
X178917333Y-61848601D01*
X178927000Y-61800000D01*
X178927000Y-57377000D01*
X179623000Y-57377000D01*
X179623001Y-90623000D01*
X152377000Y-90623000D01*
X152377000Y-83290200D01*
X156848000Y-83290200D01*
X156848000Y-83509800D01*
X156932037Y-83712683D01*
X157087317Y-83867963D01*
X157290200Y-83952000D01*
X157509800Y-83952000D01*
X157712683Y-83867963D01*
X157846675Y-83733971D01*
X157890200Y-83752000D01*
X158109800Y-83752000D01*
X158312683Y-83667963D01*
X158467963Y-83512683D01*
X158552000Y-83309800D01*
X158552000Y-83090200D01*
X158467963Y-82887317D01*
X158312683Y-82732037D01*
X158109800Y-82648000D01*
X157890200Y-82648000D01*
X157687317Y-82732037D01*
X157553325Y-82866029D01*
X157509800Y-82848000D01*
X157290200Y-82848000D01*
X157087317Y-82932037D01*
X156932037Y-83087317D01*
X156848000Y-83290200D01*
X152377000Y-83290200D01*
X152377000Y-82405391D01*
X160403000Y-82405391D01*
X160403000Y-82694609D01*
X160513679Y-82961813D01*
X160718187Y-83166321D01*
X160985391Y-83277000D01*
X161274609Y-83277000D01*
X161541813Y-83166321D01*
X161746321Y-82961813D01*
X161845000Y-82723580D01*
X161943679Y-82961813D01*
X162148187Y-83166321D01*
X162415391Y-83277000D01*
X162704609Y-83277000D01*
X162971813Y-83166321D01*
X163176321Y-82961813D01*
X163287000Y-82694609D01*
X163287000Y-82405391D01*
X163176321Y-82138187D01*
X162971813Y-81933679D01*
X162704609Y-81823000D01*
X162415391Y-81823000D01*
X162148187Y-81933679D01*
X161943679Y-82138187D01*
X161845000Y-82376420D01*
X161746321Y-82138187D01*
X161541813Y-81933679D01*
X161274609Y-81823000D01*
X160985391Y-81823000D01*
X160718187Y-81933679D01*
X160513679Y-82138187D01*
X160403000Y-82405391D01*
X152377000Y-82405391D01*
X152377000Y-80620890D01*
X152558524Y-80620890D01*
X152728355Y-81030924D01*
X153118642Y-81459183D01*
X153643108Y-81705486D01*
X153873000Y-81584819D01*
X153873000Y-80391000D01*
X152679845Y-80391000D01*
X152558524Y-80620890D01*
X152377000Y-80620890D01*
X152377000Y-79907110D01*
X152558524Y-79907110D01*
X152679845Y-80137000D01*
X153873000Y-80137000D01*
X153873000Y-80117000D01*
X154127000Y-80117000D01*
X154127000Y-80137000D01*
X154147000Y-80137000D01*
X154147000Y-80391000D01*
X154127000Y-80391000D01*
X154127000Y-81584819D01*
X154356892Y-81705486D01*
X154881358Y-81459183D01*
X155271645Y-81030924D01*
X155420842Y-80670709D01*
X155431291Y-80723242D01*
X155691431Y-81112569D01*
X156080758Y-81372709D01*
X156424080Y-81441000D01*
X156655920Y-81441000D01*
X156999242Y-81372709D01*
X157388569Y-81112569D01*
X157648709Y-80723242D01*
X157740058Y-80264000D01*
X157705487Y-80090200D01*
X161648000Y-80090200D01*
X161648000Y-80309800D01*
X161732037Y-80512683D01*
X161887317Y-80667963D01*
X162090200Y-80752000D01*
X162309800Y-80752000D01*
X162512683Y-80667963D01*
X162667963Y-80512683D01*
X162752000Y-80309800D01*
X162752000Y-80090200D01*
X162667963Y-79887317D01*
X162646037Y-79865391D01*
X170723000Y-79865391D01*
X170723000Y-80154609D01*
X170833679Y-80421813D01*
X171038187Y-80626321D01*
X171083282Y-80645000D01*
X171038187Y-80663679D01*
X170833679Y-80868187D01*
X170723000Y-81135391D01*
X170723000Y-81424609D01*
X170833679Y-81691813D01*
X171038187Y-81896321D01*
X171305391Y-82007000D01*
X171594609Y-82007000D01*
X171861813Y-81896321D01*
X172066321Y-81691813D01*
X172177000Y-81424609D01*
X172177000Y-81135391D01*
X172066321Y-80868187D01*
X171861813Y-80663679D01*
X171816718Y-80645000D01*
X171861813Y-80626321D01*
X172066321Y-80421813D01*
X172130983Y-80265702D01*
X174510075Y-80265702D01*
X174515860Y-80455442D01*
X174852930Y-80557128D01*
X175203257Y-80522083D01*
X175364140Y-80455442D01*
X175369925Y-80265702D01*
X176420075Y-80265702D01*
X176425860Y-80455442D01*
X176762930Y-80557128D01*
X177113257Y-80522083D01*
X177274140Y-80455442D01*
X177279925Y-80265702D01*
X177104423Y-80090200D01*
X177648000Y-80090200D01*
X177648000Y-80309800D01*
X177732037Y-80512683D01*
X177887317Y-80667963D01*
X178090200Y-80752000D01*
X178309800Y-80752000D01*
X178512683Y-80667963D01*
X178600000Y-80580646D01*
X178687317Y-80667963D01*
X178890200Y-80752000D01*
X179109800Y-80752000D01*
X179312683Y-80667963D01*
X179467963Y-80512683D01*
X179552000Y-80309800D01*
X179552000Y-80090200D01*
X179467963Y-79887317D01*
X179312683Y-79732037D01*
X179109800Y-79648000D01*
X178890200Y-79648000D01*
X178687317Y-79732037D01*
X178600000Y-79819354D01*
X178512683Y-79732037D01*
X178309800Y-79648000D01*
X178090200Y-79648000D01*
X177887317Y-79732037D01*
X177732037Y-79887317D01*
X177648000Y-80090200D01*
X177104423Y-80090200D01*
X176850000Y-79835777D01*
X176420075Y-80265702D01*
X175369925Y-80265702D01*
X174940000Y-79835777D01*
X174510075Y-80265702D01*
X172130983Y-80265702D01*
X172177000Y-80154609D01*
X172177000Y-79865391D01*
X172066321Y-79598187D01*
X172040064Y-79571930D01*
X174041872Y-79571930D01*
X174076917Y-79922257D01*
X174143558Y-80083140D01*
X174333298Y-80088925D01*
X174763223Y-79659000D01*
X175116777Y-79659000D01*
X175546702Y-80088925D01*
X175736442Y-80083140D01*
X175838128Y-79746070D01*
X175820708Y-79571930D01*
X175951872Y-79571930D01*
X175986917Y-79922257D01*
X176053558Y-80083140D01*
X176243298Y-80088925D01*
X176673223Y-79659000D01*
X177026777Y-79659000D01*
X177456702Y-80088925D01*
X177646442Y-80083140D01*
X177748128Y-79746070D01*
X177713083Y-79395743D01*
X177646442Y-79234860D01*
X177456702Y-79229075D01*
X177026777Y-79659000D01*
X176673223Y-79659000D01*
X176243298Y-79229075D01*
X176053558Y-79234860D01*
X175951872Y-79571930D01*
X175820708Y-79571930D01*
X175803083Y-79395743D01*
X175736442Y-79234860D01*
X175546702Y-79229075D01*
X175116777Y-79659000D01*
X174763223Y-79659000D01*
X174333298Y-79229075D01*
X174143558Y-79234860D01*
X174041872Y-79571930D01*
X172040064Y-79571930D01*
X171861813Y-79393679D01*
X171594609Y-79283000D01*
X171305391Y-79283000D01*
X171038187Y-79393679D01*
X170833679Y-79598187D01*
X170723000Y-79865391D01*
X162646037Y-79865391D01*
X162512683Y-79732037D01*
X162309800Y-79648000D01*
X162090200Y-79648000D01*
X161887317Y-79732037D01*
X161732037Y-79887317D01*
X161648000Y-80090200D01*
X157705487Y-80090200D01*
X157648709Y-79804758D01*
X157388569Y-79415431D01*
X156999242Y-79155291D01*
X156655920Y-79087000D01*
X156424080Y-79087000D01*
X156080758Y-79155291D01*
X155691431Y-79415431D01*
X155431291Y-79804758D01*
X155420842Y-79857291D01*
X155271645Y-79497076D01*
X154881358Y-79068817D01*
X154402594Y-78843977D01*
X154459242Y-78832709D01*
X154848569Y-78572569D01*
X155108709Y-78183242D01*
X155200058Y-77724000D01*
X155339942Y-77724000D01*
X155431291Y-78183242D01*
X155691431Y-78572569D01*
X156080758Y-78832709D01*
X156424080Y-78901000D01*
X156655920Y-78901000D01*
X156999242Y-78832709D01*
X157388569Y-78572569D01*
X157648709Y-78183242D01*
X157740058Y-77724000D01*
X157693553Y-77490200D01*
X165048000Y-77490200D01*
X165048000Y-77709800D01*
X165132037Y-77912683D01*
X165287317Y-78067963D01*
X165490200Y-78152000D01*
X165590593Y-78152000D01*
X165632429Y-78253002D01*
X165564000Y-78418203D01*
X165564000Y-78637803D01*
X165648037Y-78840686D01*
X165803317Y-78995966D01*
X166006200Y-79080003D01*
X166225800Y-79080003D01*
X166428683Y-78995966D01*
X166583963Y-78840686D01*
X166668000Y-78637803D01*
X166668000Y-78418203D01*
X166599571Y-78253002D01*
X166668000Y-78087800D01*
X166668000Y-77868200D01*
X166583963Y-77665317D01*
X166428683Y-77510037D01*
X166225800Y-77426000D01*
X166125407Y-77426000D01*
X166069158Y-77290200D01*
X167448000Y-77290200D01*
X167448000Y-77509800D01*
X167532037Y-77712683D01*
X167687317Y-77867963D01*
X167850000Y-77935349D01*
X167850000Y-78087800D01*
X167918429Y-78253002D01*
X167850000Y-78418203D01*
X167850000Y-78637803D01*
X167934037Y-78840686D01*
X168089317Y-78995966D01*
X168292200Y-79080003D01*
X168511800Y-79080003D01*
X168714683Y-78995966D01*
X168744947Y-78965702D01*
X174510075Y-78965702D01*
X174511395Y-79009000D01*
X174510075Y-79052298D01*
X174512798Y-79055021D01*
X174515860Y-79155442D01*
X174655278Y-79197501D01*
X174940000Y-79482223D01*
X175199794Y-79222429D01*
X175203257Y-79222083D01*
X175364140Y-79155442D01*
X175367202Y-79055021D01*
X175369925Y-79052298D01*
X175368605Y-79009000D01*
X175369925Y-78965702D01*
X176420075Y-78965702D01*
X176421395Y-79009000D01*
X176420075Y-79052298D01*
X176422798Y-79055021D01*
X176425860Y-79155442D01*
X176565278Y-79197501D01*
X176850000Y-79482223D01*
X177109794Y-79222429D01*
X177113257Y-79222083D01*
X177274140Y-79155442D01*
X177277202Y-79055021D01*
X177279925Y-79052298D01*
X177278605Y-79009000D01*
X177279925Y-78965702D01*
X177277202Y-78962979D01*
X177274140Y-78862558D01*
X177134722Y-78820499D01*
X176850000Y-78535777D01*
X176590206Y-78795571D01*
X176586743Y-78795917D01*
X176425860Y-78862558D01*
X176422798Y-78962979D01*
X176420075Y-78965702D01*
X175369925Y-78965702D01*
X175367202Y-78962979D01*
X175364140Y-78862558D01*
X175224722Y-78820499D01*
X174940000Y-78535777D01*
X174680206Y-78795571D01*
X174676743Y-78795917D01*
X174515860Y-78862558D01*
X174512798Y-78962979D01*
X174510075Y-78965702D01*
X168744947Y-78965702D01*
X168869963Y-78840686D01*
X168954000Y-78637803D01*
X168954000Y-78418203D01*
X168893412Y-78271930D01*
X174041872Y-78271930D01*
X174076917Y-78622257D01*
X174143558Y-78783140D01*
X174333298Y-78788925D01*
X174763223Y-78359000D01*
X175116777Y-78359000D01*
X175546702Y-78788925D01*
X175736442Y-78783140D01*
X175838128Y-78446070D01*
X175820708Y-78271930D01*
X175951872Y-78271930D01*
X175986917Y-78622257D01*
X176053558Y-78783140D01*
X176243298Y-78788925D01*
X176673223Y-78359000D01*
X177026777Y-78359000D01*
X177456702Y-78788925D01*
X177646442Y-78783140D01*
X177748128Y-78446070D01*
X177713083Y-78095743D01*
X177646442Y-77934860D01*
X177456702Y-77929075D01*
X177026777Y-78359000D01*
X176673223Y-78359000D01*
X176243298Y-77929075D01*
X176053558Y-77934860D01*
X175951872Y-78271930D01*
X175820708Y-78271930D01*
X175803083Y-78095743D01*
X175736442Y-77934860D01*
X175546702Y-77929075D01*
X175116777Y-78359000D01*
X174763223Y-78359000D01*
X174333298Y-77929075D01*
X174143558Y-77934860D01*
X174041872Y-78271930D01*
X168893412Y-78271930D01*
X168885571Y-78253002D01*
X168954000Y-78087800D01*
X168954000Y-77868200D01*
X168870123Y-77665702D01*
X174510075Y-77665702D01*
X174511395Y-77709000D01*
X174510075Y-77752298D01*
X174512798Y-77755021D01*
X174515860Y-77855442D01*
X174655278Y-77897501D01*
X174940000Y-78182223D01*
X175199794Y-77922429D01*
X175203257Y-77922083D01*
X175364140Y-77855442D01*
X175367202Y-77755021D01*
X175369925Y-77752298D01*
X175368605Y-77709000D01*
X175369925Y-77665702D01*
X176420075Y-77665702D01*
X176421395Y-77709000D01*
X176420075Y-77752298D01*
X176422798Y-77755021D01*
X176425860Y-77855442D01*
X176565278Y-77897501D01*
X176850000Y-78182223D01*
X177109794Y-77922429D01*
X177113257Y-77922083D01*
X177274140Y-77855442D01*
X177277202Y-77755021D01*
X177279925Y-77752298D01*
X177278605Y-77709000D01*
X177279925Y-77665702D01*
X177277202Y-77662979D01*
X177274140Y-77562558D01*
X177134722Y-77520499D01*
X176850000Y-77235777D01*
X176590206Y-77495571D01*
X176586743Y-77495917D01*
X176425860Y-77562558D01*
X176422798Y-77662979D01*
X176420075Y-77665702D01*
X175369925Y-77665702D01*
X175367202Y-77662979D01*
X175364140Y-77562558D01*
X175224722Y-77520499D01*
X174940000Y-77235777D01*
X174680206Y-77495571D01*
X174676743Y-77495917D01*
X174515860Y-77562558D01*
X174512798Y-77662979D01*
X174510075Y-77665702D01*
X168870123Y-77665702D01*
X168869963Y-77665317D01*
X168714683Y-77510037D01*
X168552000Y-77442651D01*
X168552000Y-77290200D01*
X168467963Y-77087317D01*
X168352576Y-76971930D01*
X174041872Y-76971930D01*
X174076917Y-77322257D01*
X174143558Y-77483140D01*
X174333298Y-77488925D01*
X174763223Y-77059000D01*
X175116777Y-77059000D01*
X175546702Y-77488925D01*
X175736442Y-77483140D01*
X175838128Y-77146070D01*
X175820708Y-76971930D01*
X175951872Y-76971930D01*
X175986917Y-77322257D01*
X176053558Y-77483140D01*
X176243298Y-77488925D01*
X176673223Y-77059000D01*
X177026777Y-77059000D01*
X177456702Y-77488925D01*
X177646442Y-77483140D01*
X177748128Y-77146070D01*
X177713083Y-76795743D01*
X177646442Y-76634860D01*
X177456702Y-76629075D01*
X177026777Y-77059000D01*
X176673223Y-77059000D01*
X176243298Y-76629075D01*
X176053558Y-76634860D01*
X175951872Y-76971930D01*
X175820708Y-76971930D01*
X175803083Y-76795743D01*
X175736442Y-76634860D01*
X175546702Y-76629075D01*
X175116777Y-77059000D01*
X174763223Y-77059000D01*
X174333298Y-76629075D01*
X174143558Y-76634860D01*
X174041872Y-76971930D01*
X168352576Y-76971930D01*
X168312683Y-76932037D01*
X168109800Y-76848000D01*
X167890200Y-76848000D01*
X167687317Y-76932037D01*
X167532037Y-77087317D01*
X167448000Y-77290200D01*
X166069158Y-77290200D01*
X166067963Y-77287317D01*
X165912683Y-77132037D01*
X165709800Y-77048000D01*
X165490200Y-77048000D01*
X165287317Y-77132037D01*
X165132037Y-77287317D01*
X165048000Y-77490200D01*
X157693553Y-77490200D01*
X157648709Y-77264758D01*
X157388569Y-76875431D01*
X157077539Y-76667607D01*
X162270593Y-76667607D01*
X162270593Y-76887207D01*
X162354630Y-77090090D01*
X162509910Y-77245370D01*
X162712793Y-77329407D01*
X162932393Y-77329407D01*
X163135276Y-77245370D01*
X163290556Y-77090090D01*
X163374593Y-76887207D01*
X163374593Y-76690200D01*
X164248000Y-76690200D01*
X164248000Y-76909800D01*
X164332037Y-77112683D01*
X164487317Y-77267963D01*
X164690200Y-77352000D01*
X164909800Y-77352000D01*
X165112683Y-77267963D01*
X165267963Y-77112683D01*
X165352000Y-76909800D01*
X165352000Y-76690200D01*
X165267963Y-76487317D01*
X165112683Y-76332037D01*
X164909800Y-76248000D01*
X164690200Y-76248000D01*
X164487317Y-76332037D01*
X164332037Y-76487317D01*
X164248000Y-76690200D01*
X163374593Y-76690200D01*
X163374593Y-76667607D01*
X163290556Y-76464724D01*
X163135276Y-76309444D01*
X162932393Y-76225407D01*
X162712793Y-76225407D01*
X162509910Y-76309444D01*
X162354630Y-76464724D01*
X162270593Y-76667607D01*
X157077539Y-76667607D01*
X156999242Y-76615291D01*
X156655920Y-76547000D01*
X156424080Y-76547000D01*
X156080758Y-76615291D01*
X155691431Y-76875431D01*
X155431291Y-77264758D01*
X155339942Y-77724000D01*
X155200058Y-77724000D01*
X155108709Y-77264758D01*
X154848569Y-76875431D01*
X154459242Y-76615291D01*
X154115920Y-76547000D01*
X153884080Y-76547000D01*
X153540758Y-76615291D01*
X153151431Y-76875431D01*
X152891291Y-77264758D01*
X152799942Y-77724000D01*
X152891291Y-78183242D01*
X153151431Y-78572569D01*
X153540758Y-78832709D01*
X153597406Y-78843977D01*
X153118642Y-79068817D01*
X152728355Y-79497076D01*
X152558524Y-79907110D01*
X152377000Y-79907110D01*
X152377000Y-72644000D01*
X152799942Y-72644000D01*
X152891291Y-73103242D01*
X153151431Y-73492569D01*
X153540758Y-73752709D01*
X153877228Y-73819637D01*
X153848000Y-73890200D01*
X153848000Y-74014177D01*
X153540758Y-74075291D01*
X153151431Y-74335431D01*
X152891291Y-74724758D01*
X152799942Y-75184000D01*
X152891291Y-75643242D01*
X153151431Y-76032569D01*
X153540758Y-76292709D01*
X153884080Y-76361000D01*
X154115920Y-76361000D01*
X154459242Y-76292709D01*
X154848569Y-76032569D01*
X155108709Y-75643242D01*
X155200058Y-75184000D01*
X155339942Y-75184000D01*
X155431291Y-75643242D01*
X155691431Y-76032569D01*
X156080758Y-76292709D01*
X156424080Y-76361000D01*
X156655920Y-76361000D01*
X156999242Y-76292709D01*
X157302318Y-76090200D01*
X171248000Y-76090200D01*
X171248000Y-76309800D01*
X171332037Y-76512683D01*
X171487317Y-76667963D01*
X171690200Y-76752000D01*
X171909800Y-76752000D01*
X172112683Y-76667963D01*
X172267963Y-76512683D01*
X172292975Y-76452298D01*
X174510075Y-76452298D01*
X174940000Y-76882223D01*
X175369925Y-76452298D01*
X176420075Y-76452298D01*
X176850000Y-76882223D01*
X177279925Y-76452298D01*
X177274140Y-76262558D01*
X176937070Y-76160872D01*
X176586743Y-76195917D01*
X176425860Y-76262558D01*
X176420075Y-76452298D01*
X175369925Y-76452298D01*
X175364140Y-76262558D01*
X175027070Y-76160872D01*
X174676743Y-76195917D01*
X174515860Y-76262558D01*
X174510075Y-76452298D01*
X172292975Y-76452298D01*
X172352000Y-76309800D01*
X172352000Y-76152000D01*
X172509800Y-76152000D01*
X172712683Y-76067963D01*
X172867963Y-75912683D01*
X172952000Y-75709800D01*
X172952000Y-75490200D01*
X172867963Y-75287317D01*
X172712683Y-75132037D01*
X172509800Y-75048000D01*
X172290200Y-75048000D01*
X172087317Y-75132037D01*
X171932037Y-75287317D01*
X171848000Y-75490200D01*
X171848000Y-75648000D01*
X171690200Y-75648000D01*
X171487317Y-75732037D01*
X171332037Y-75887317D01*
X171248000Y-76090200D01*
X157302318Y-76090200D01*
X157388569Y-76032569D01*
X157648709Y-75643242D01*
X157740058Y-75184000D01*
X157648709Y-74724758D01*
X157428895Y-74395782D01*
X163393500Y-74395782D01*
X163393500Y-74645218D01*
X163488955Y-74875667D01*
X163665333Y-75052045D01*
X163895782Y-75147500D01*
X164145218Y-75147500D01*
X164375667Y-75052045D01*
X164552045Y-74875667D01*
X164647500Y-74645218D01*
X164647500Y-74395782D01*
X164552045Y-74165333D01*
X164375667Y-73988955D01*
X164145218Y-73893500D01*
X163895782Y-73893500D01*
X163665333Y-73988955D01*
X163488955Y-74165333D01*
X163393500Y-74395782D01*
X157428895Y-74395782D01*
X157388569Y-74335431D01*
X156999242Y-74075291D01*
X156655920Y-74007000D01*
X156424080Y-74007000D01*
X156080758Y-74075291D01*
X155691431Y-74335431D01*
X155431291Y-74724758D01*
X155339942Y-75184000D01*
X155200058Y-75184000D01*
X155108709Y-74724758D01*
X154848569Y-74335431D01*
X154846558Y-74334088D01*
X154867963Y-74312683D01*
X154952000Y-74109800D01*
X154952000Y-73890200D01*
X154867963Y-73687317D01*
X154743452Y-73562806D01*
X154848569Y-73492569D01*
X155108709Y-73103242D01*
X155200058Y-72644000D01*
X155339942Y-72644000D01*
X155431291Y-73103242D01*
X155691431Y-73492569D01*
X156080758Y-73752709D01*
X156424080Y-73821000D01*
X156655920Y-73821000D01*
X156999242Y-73752709D01*
X157388569Y-73492569D01*
X157648709Y-73103242D01*
X157740058Y-72644000D01*
X157669683Y-72290200D01*
X172648000Y-72290200D01*
X172648000Y-72509800D01*
X172732037Y-72712683D01*
X172887317Y-72867963D01*
X173090200Y-72952000D01*
X173309800Y-72952000D01*
X173512683Y-72867963D01*
X173646675Y-72733971D01*
X173690200Y-72752000D01*
X173909800Y-72752000D01*
X174112683Y-72667963D01*
X174267963Y-72512683D01*
X174283455Y-72475282D01*
X175573000Y-72475282D01*
X175573000Y-72724718D01*
X175668455Y-72955167D01*
X175844833Y-73131545D01*
X176075282Y-73227000D01*
X176292354Y-73227000D01*
X176232037Y-73287317D01*
X176148000Y-73490200D01*
X176148000Y-73709800D01*
X176232037Y-73912683D01*
X176387317Y-74067963D01*
X176590200Y-74152000D01*
X176809800Y-74152000D01*
X177012683Y-74067963D01*
X177167963Y-73912683D01*
X177252000Y-73709800D01*
X177252000Y-73490200D01*
X177167963Y-73287317D01*
X177012683Y-73132037D01*
X176809800Y-73048000D01*
X176638712Y-73048000D01*
X176731545Y-72955167D01*
X176827000Y-72724718D01*
X176827000Y-72475282D01*
X176731545Y-72244833D01*
X176638712Y-72152000D01*
X176709800Y-72152000D01*
X176912683Y-72067963D01*
X177067963Y-71912683D01*
X177152000Y-71709800D01*
X177152000Y-71490200D01*
X177067963Y-71287317D01*
X176912683Y-71132037D01*
X176709800Y-71048000D01*
X176490200Y-71048000D01*
X176287317Y-71132037D01*
X176132037Y-71287317D01*
X176048000Y-71490200D01*
X176048000Y-71709800D01*
X176132037Y-71912683D01*
X176192354Y-71973000D01*
X176075282Y-71973000D01*
X175844833Y-72068455D01*
X175668455Y-72244833D01*
X175573000Y-72475282D01*
X174283455Y-72475282D01*
X174352000Y-72309800D01*
X174352000Y-72090200D01*
X174267963Y-71887317D01*
X174112683Y-71732037D01*
X173909800Y-71648000D01*
X173690200Y-71648000D01*
X173487317Y-71732037D01*
X173353325Y-71866029D01*
X173309800Y-71848000D01*
X173090200Y-71848000D01*
X172887317Y-71932037D01*
X172732037Y-72087317D01*
X172648000Y-72290200D01*
X157669683Y-72290200D01*
X157648709Y-72184758D01*
X157388569Y-71795431D01*
X156999242Y-71535291D01*
X156697557Y-71475282D01*
X157823000Y-71475282D01*
X157823000Y-71724718D01*
X157918455Y-71955167D01*
X158094833Y-72131545D01*
X158325282Y-72227000D01*
X158574718Y-72227000D01*
X158805167Y-72131545D01*
X158981545Y-71955167D01*
X159077000Y-71724718D01*
X159077000Y-71475282D01*
X158994158Y-71275282D01*
X160173000Y-71275282D01*
X160173000Y-71524718D01*
X160268455Y-71755167D01*
X160444833Y-71931545D01*
X160675282Y-72027000D01*
X160924718Y-72027000D01*
X161155167Y-71931545D01*
X161331545Y-71755167D01*
X161427000Y-71524718D01*
X161427000Y-71275282D01*
X161331545Y-71044833D01*
X161155167Y-70868455D01*
X160924718Y-70773000D01*
X160675282Y-70773000D01*
X160444833Y-70868455D01*
X160268455Y-71044833D01*
X160173000Y-71275282D01*
X158994158Y-71275282D01*
X158981545Y-71244833D01*
X158805167Y-71068455D01*
X158574718Y-70973000D01*
X158325282Y-70973000D01*
X158094833Y-71068455D01*
X157918455Y-71244833D01*
X157823000Y-71475282D01*
X156697557Y-71475282D01*
X156655920Y-71467000D01*
X156424080Y-71467000D01*
X156080758Y-71535291D01*
X155691431Y-71795431D01*
X155431291Y-72184758D01*
X155339942Y-72644000D01*
X155200058Y-72644000D01*
X155108709Y-72184758D01*
X154848569Y-71795431D01*
X154459242Y-71535291D01*
X154115920Y-71467000D01*
X153884080Y-71467000D01*
X153540758Y-71535291D01*
X153151431Y-71795431D01*
X152891291Y-72184758D01*
X152799942Y-72644000D01*
X152377000Y-72644000D01*
X152377000Y-70104000D01*
X152799942Y-70104000D01*
X152891291Y-70563242D01*
X153151431Y-70952569D01*
X153540758Y-71212709D01*
X153884080Y-71281000D01*
X154115920Y-71281000D01*
X154459242Y-71212709D01*
X154848569Y-70952569D01*
X155108709Y-70563242D01*
X155200058Y-70104000D01*
X155339942Y-70104000D01*
X155431291Y-70563242D01*
X155691431Y-70952569D01*
X156080758Y-71212709D01*
X156424080Y-71281000D01*
X156655920Y-71281000D01*
X156999242Y-71212709D01*
X157388569Y-70952569D01*
X157648709Y-70563242D01*
X157663237Y-70490200D01*
X162448000Y-70490200D01*
X162448000Y-70709800D01*
X162532037Y-70912683D01*
X162687317Y-71067963D01*
X162890200Y-71152000D01*
X163109800Y-71152000D01*
X163312683Y-71067963D01*
X163467963Y-70912683D01*
X163552000Y-70709800D01*
X163552000Y-70490200D01*
X163520935Y-70415202D01*
X169648000Y-70415202D01*
X169648000Y-70634802D01*
X169732037Y-70837685D01*
X169887317Y-70992965D01*
X170090200Y-71077002D01*
X170309800Y-71077002D01*
X170512683Y-70992965D01*
X170667963Y-70837685D01*
X170752000Y-70634802D01*
X170752000Y-70415202D01*
X172048000Y-70415202D01*
X172048000Y-70634802D01*
X172132037Y-70837685D01*
X172287317Y-70992965D01*
X172490200Y-71077002D01*
X172709800Y-71077002D01*
X172912683Y-70992965D01*
X173067963Y-70837685D01*
X173152000Y-70634802D01*
X173152000Y-70415202D01*
X173067963Y-70212319D01*
X172912683Y-70057039D01*
X172709800Y-69973002D01*
X172490200Y-69973002D01*
X172287317Y-70057039D01*
X172132037Y-70212319D01*
X172048000Y-70415202D01*
X170752000Y-70415202D01*
X170667963Y-70212319D01*
X170512683Y-70057039D01*
X170309800Y-69973002D01*
X170090200Y-69973002D01*
X169887317Y-70057039D01*
X169732037Y-70212319D01*
X169648000Y-70415202D01*
X163520935Y-70415202D01*
X163467963Y-70287317D01*
X163312683Y-70132037D01*
X163109800Y-70048000D01*
X162890200Y-70048000D01*
X162687317Y-70132037D01*
X162532037Y-70287317D01*
X162448000Y-70490200D01*
X157663237Y-70490200D01*
X157740058Y-70104000D01*
X157648709Y-69644758D01*
X157445208Y-69340197D01*
X173115002Y-69340197D01*
X173115002Y-69559797D01*
X173183431Y-69724999D01*
X173115002Y-69890200D01*
X173115002Y-70109800D01*
X173199039Y-70312683D01*
X173354319Y-70467963D01*
X173557202Y-70552000D01*
X173776802Y-70552000D01*
X173979685Y-70467963D01*
X174134965Y-70312683D01*
X174219002Y-70109800D01*
X174219002Y-69890200D01*
X174150573Y-69724999D01*
X174219002Y-69559797D01*
X174219002Y-69340197D01*
X174134965Y-69137314D01*
X173979685Y-68982034D01*
X173776802Y-68897997D01*
X173557202Y-68897997D01*
X173354319Y-68982034D01*
X173199039Y-69137314D01*
X173115002Y-69340197D01*
X157445208Y-69340197D01*
X157388569Y-69255431D01*
X156999242Y-68995291D01*
X156655920Y-68927000D01*
X156424080Y-68927000D01*
X156080758Y-68995291D01*
X155691431Y-69255431D01*
X155431291Y-69644758D01*
X155339942Y-70104000D01*
X155200058Y-70104000D01*
X155108709Y-69644758D01*
X154848569Y-69255431D01*
X154459242Y-68995291D01*
X154115920Y-68927000D01*
X153884080Y-68927000D01*
X153540758Y-68995291D01*
X153151431Y-69255431D01*
X152891291Y-69644758D01*
X152799942Y-70104000D01*
X152377000Y-70104000D01*
X152377000Y-66714000D01*
X152816594Y-66714000D01*
X152816594Y-68414000D01*
X152841973Y-68541589D01*
X152914246Y-68649754D01*
X153022411Y-68722027D01*
X153150000Y-68747406D01*
X154850000Y-68747406D01*
X154977589Y-68722027D01*
X155085754Y-68649754D01*
X155158027Y-68541589D01*
X155183406Y-68414000D01*
X155183406Y-67564000D01*
X155339942Y-67564000D01*
X155431291Y-68023242D01*
X155691431Y-68412569D01*
X156080758Y-68672709D01*
X156424080Y-68741000D01*
X156655920Y-68741000D01*
X156999242Y-68672709D01*
X157388569Y-68412569D01*
X157648709Y-68023242D01*
X157740058Y-67564000D01*
X157685596Y-67290200D01*
X163248000Y-67290200D01*
X163248000Y-67509800D01*
X163332037Y-67712683D01*
X163487317Y-67867963D01*
X163690200Y-67952000D01*
X163909800Y-67952000D01*
X164058998Y-67890200D01*
X173115002Y-67890200D01*
X173115002Y-68109800D01*
X173199039Y-68312683D01*
X173354319Y-68467963D01*
X173557202Y-68552000D01*
X173776802Y-68552000D01*
X173974284Y-68470200D01*
X175470000Y-68470200D01*
X175470000Y-68689800D01*
X175554037Y-68892683D01*
X175709317Y-69047963D01*
X175724000Y-69054045D01*
X175724000Y-69197800D01*
X175808037Y-69400683D01*
X175963317Y-69555963D01*
X176117146Y-69619681D01*
X176087317Y-69632037D01*
X175932037Y-69787317D01*
X175848000Y-69990200D01*
X175848000Y-70209800D01*
X175932037Y-70412683D01*
X176087317Y-70567963D01*
X176290200Y-70652000D01*
X176509800Y-70652000D01*
X176712683Y-70567963D01*
X176867963Y-70412683D01*
X176952000Y-70209800D01*
X176952000Y-69990200D01*
X176867963Y-69787317D01*
X176712683Y-69632037D01*
X176558854Y-69568319D01*
X176588683Y-69555963D01*
X176743963Y-69400683D01*
X176828000Y-69197800D01*
X176828000Y-68978200D01*
X176743963Y-68775317D01*
X176588683Y-68620037D01*
X176574000Y-68613955D01*
X176574000Y-68470200D01*
X176489963Y-68267317D01*
X176334683Y-68112037D01*
X176131800Y-68028000D01*
X175912200Y-68028000D01*
X175709317Y-68112037D01*
X175554037Y-68267317D01*
X175470000Y-68470200D01*
X173974284Y-68470200D01*
X173979685Y-68467963D01*
X174134965Y-68312683D01*
X174219002Y-68109800D01*
X174219002Y-67890200D01*
X176748000Y-67890200D01*
X176748000Y-68109800D01*
X176832037Y-68312683D01*
X176987317Y-68467963D01*
X177190200Y-68552000D01*
X177409800Y-68552000D01*
X177612683Y-68467963D01*
X177767963Y-68312683D01*
X177852000Y-68109800D01*
X177852000Y-67890200D01*
X177767963Y-67687317D01*
X177612683Y-67532037D01*
X177409800Y-67448000D01*
X177190200Y-67448000D01*
X176987317Y-67532037D01*
X176832037Y-67687317D01*
X176748000Y-67890200D01*
X174219002Y-67890200D01*
X174134965Y-67687317D01*
X173979685Y-67532037D01*
X173776802Y-67448000D01*
X173557202Y-67448000D01*
X173354319Y-67532037D01*
X173199039Y-67687317D01*
X173115002Y-67890200D01*
X164058998Y-67890200D01*
X164112683Y-67867963D01*
X164267963Y-67712683D01*
X164352000Y-67509800D01*
X164352000Y-67290200D01*
X164267963Y-67087317D01*
X164112683Y-66932037D01*
X163909800Y-66848000D01*
X163690200Y-66848000D01*
X163487317Y-66932037D01*
X163332037Y-67087317D01*
X163248000Y-67290200D01*
X157685596Y-67290200D01*
X157648709Y-67104758D01*
X157388569Y-66715431D01*
X157143977Y-66552000D01*
X157309800Y-66552000D01*
X157512683Y-66467963D01*
X157531720Y-66448926D01*
X165089274Y-66448926D01*
X165089274Y-66668526D01*
X165173311Y-66871409D01*
X165328591Y-67026689D01*
X165531474Y-67110726D01*
X165751074Y-67110726D01*
X165848000Y-67070578D01*
X165848000Y-67109800D01*
X165932037Y-67312683D01*
X166087317Y-67467963D01*
X166290200Y-67552000D01*
X166509800Y-67552000D01*
X166712683Y-67467963D01*
X166867963Y-67312683D01*
X166952000Y-67109800D01*
X166952000Y-66890200D01*
X166867963Y-66687317D01*
X166712683Y-66532037D01*
X166509800Y-66448000D01*
X166290200Y-66448000D01*
X166193274Y-66488148D01*
X166193274Y-66448926D01*
X166109237Y-66246043D01*
X166053394Y-66190200D01*
X177248000Y-66190200D01*
X177248000Y-66409800D01*
X177332037Y-66612683D01*
X177487317Y-66767963D01*
X177690200Y-66852000D01*
X177909800Y-66852000D01*
X178112683Y-66767963D01*
X178267963Y-66612683D01*
X178352000Y-66409800D01*
X178352000Y-66190200D01*
X178267963Y-65987317D01*
X178112683Y-65832037D01*
X177909800Y-65748000D01*
X177690200Y-65748000D01*
X177487317Y-65832037D01*
X177332037Y-65987317D01*
X177248000Y-66190200D01*
X166053394Y-66190200D01*
X165953957Y-66090763D01*
X165751074Y-66006726D01*
X165531474Y-66006726D01*
X165328591Y-66090763D01*
X165173311Y-66246043D01*
X165089274Y-66448926D01*
X157531720Y-66448926D01*
X157667963Y-66312683D01*
X157752000Y-66109800D01*
X157752000Y-65890200D01*
X157667963Y-65687317D01*
X157512683Y-65532037D01*
X157309800Y-65448000D01*
X157090200Y-65448000D01*
X156887317Y-65532037D01*
X156732037Y-65687317D01*
X156648000Y-65890200D01*
X156648000Y-66109800D01*
X156732037Y-66312683D01*
X156843707Y-66424353D01*
X156655920Y-66387000D01*
X156424080Y-66387000D01*
X156080758Y-66455291D01*
X155691431Y-66715431D01*
X155431291Y-67104758D01*
X155339942Y-67564000D01*
X155183406Y-67564000D01*
X155183406Y-66714000D01*
X155158027Y-66586411D01*
X155085754Y-66478246D01*
X154977589Y-66405973D01*
X154850000Y-66380594D01*
X153150000Y-66380594D01*
X153022411Y-66405973D01*
X152914246Y-66478246D01*
X152841973Y-66586411D01*
X152816594Y-66714000D01*
X152377000Y-66714000D01*
X152377000Y-64090200D01*
X157248000Y-64090200D01*
X157248000Y-64309800D01*
X157332037Y-64512683D01*
X157487317Y-64667963D01*
X157690200Y-64752000D01*
X157909800Y-64752000D01*
X158048000Y-64694756D01*
X158048000Y-64709800D01*
X158132037Y-64912683D01*
X158287317Y-65067963D01*
X158490200Y-65152000D01*
X158709800Y-65152000D01*
X158858998Y-65090200D01*
X161724998Y-65090200D01*
X161724998Y-65309800D01*
X161809035Y-65512683D01*
X161964315Y-65667963D01*
X162167198Y-65752000D01*
X162386798Y-65752000D01*
X162589681Y-65667963D01*
X162744961Y-65512683D01*
X162828998Y-65309800D01*
X162828998Y-65090200D01*
X162746156Y-64890200D01*
X167748000Y-64890200D01*
X167748000Y-65109800D01*
X167832037Y-65312683D01*
X167987317Y-65467963D01*
X168190200Y-65552000D01*
X168409800Y-65552000D01*
X168612683Y-65467963D01*
X168767963Y-65312683D01*
X168852000Y-65109800D01*
X168852000Y-64890200D01*
X168767963Y-64687317D01*
X168612683Y-64532037D01*
X168409800Y-64448000D01*
X168190200Y-64448000D01*
X167987317Y-64532037D01*
X167832037Y-64687317D01*
X167748000Y-64890200D01*
X162746156Y-64890200D01*
X162744961Y-64887317D01*
X162589681Y-64732037D01*
X162386798Y-64648000D01*
X162167198Y-64648000D01*
X161964315Y-64732037D01*
X161809035Y-64887317D01*
X161724998Y-65090200D01*
X158858998Y-65090200D01*
X158912683Y-65067963D01*
X159067963Y-64912683D01*
X159152000Y-64709800D01*
X159152000Y-64490200D01*
X159067963Y-64287317D01*
X158912683Y-64132037D01*
X158811680Y-64090200D01*
X176248000Y-64090200D01*
X176248000Y-64309800D01*
X176332037Y-64512683D01*
X176487317Y-64667963D01*
X176690200Y-64752000D01*
X176909800Y-64752000D01*
X177112683Y-64667963D01*
X177267963Y-64512683D01*
X177352000Y-64309800D01*
X177352000Y-64090200D01*
X177267963Y-63887317D01*
X177112683Y-63732037D01*
X176909800Y-63648000D01*
X176690200Y-63648000D01*
X176487317Y-63732037D01*
X176332037Y-63887317D01*
X176248000Y-64090200D01*
X158811680Y-64090200D01*
X158709800Y-64048000D01*
X158490200Y-64048000D01*
X158352000Y-64105244D01*
X158352000Y-64090200D01*
X158267963Y-63887317D01*
X158112683Y-63732037D01*
X157909800Y-63648000D01*
X157690200Y-63648000D01*
X157487317Y-63732037D01*
X157332037Y-63887317D01*
X157248000Y-64090200D01*
X152377000Y-64090200D01*
X152377000Y-63290200D01*
X166448000Y-63290200D01*
X166448000Y-63509800D01*
X166532037Y-63712683D01*
X166687317Y-63867963D01*
X166890200Y-63952000D01*
X167109800Y-63952000D01*
X167312683Y-63867963D01*
X167467963Y-63712683D01*
X167552000Y-63509800D01*
X167552000Y-63290200D01*
X167467963Y-63087317D01*
X167395846Y-63015200D01*
X169048000Y-63015200D01*
X169048000Y-63234800D01*
X169132037Y-63437683D01*
X169287317Y-63592963D01*
X169490200Y-63677000D01*
X169709800Y-63677000D01*
X169912683Y-63592963D01*
X170067963Y-63437683D01*
X170087631Y-63390200D01*
X170148000Y-63390200D01*
X170148000Y-63609800D01*
X170232037Y-63812683D01*
X170387317Y-63967963D01*
X170590200Y-64052000D01*
X170809800Y-64052000D01*
X171012683Y-63967963D01*
X171167963Y-63812683D01*
X171252000Y-63609800D01*
X171252000Y-63452000D01*
X171409800Y-63452000D01*
X171612683Y-63367963D01*
X171767963Y-63212683D01*
X171852000Y-63009800D01*
X171852000Y-62790200D01*
X171767963Y-62587317D01*
X171612683Y-62432037D01*
X171409800Y-62348000D01*
X171190200Y-62348000D01*
X170987317Y-62432037D01*
X170832037Y-62587317D01*
X170748000Y-62790200D01*
X170748000Y-62948000D01*
X170590200Y-62948000D01*
X170387317Y-63032037D01*
X170232037Y-63187317D01*
X170148000Y-63390200D01*
X170087631Y-63390200D01*
X170152000Y-63234800D01*
X170152000Y-63015200D01*
X170067963Y-62812317D01*
X169912683Y-62657037D01*
X169709800Y-62573000D01*
X169490200Y-62573000D01*
X169287317Y-62657037D01*
X169132037Y-62812317D01*
X169048000Y-63015200D01*
X167395846Y-63015200D01*
X167312683Y-62932037D01*
X167109800Y-62848000D01*
X166890200Y-62848000D01*
X166687317Y-62932037D01*
X166532037Y-63087317D01*
X166448000Y-63290200D01*
X152377000Y-63290200D01*
X152377000Y-62390200D01*
X159648000Y-62390200D01*
X159648000Y-62609800D01*
X159732037Y-62812683D01*
X159887317Y-62967963D01*
X160090200Y-63052000D01*
X160309800Y-63052000D01*
X160512683Y-62967963D01*
X160667963Y-62812683D01*
X160752000Y-62609800D01*
X160752000Y-62494756D01*
X160890200Y-62552000D01*
X161109800Y-62552000D01*
X161312683Y-62467963D01*
X161455612Y-62325034D01*
X163213166Y-62325034D01*
X163213166Y-62544634D01*
X163297203Y-62747517D01*
X163452483Y-62902797D01*
X163655366Y-62986834D01*
X163874966Y-62986834D01*
X164077849Y-62902797D01*
X164233129Y-62747517D01*
X164317166Y-62544634D01*
X164317166Y-62325034D01*
X164233129Y-62122151D01*
X164201178Y-62090200D01*
X166048000Y-62090200D01*
X166048000Y-62309800D01*
X166132037Y-62512683D01*
X166287317Y-62667963D01*
X166490200Y-62752000D01*
X166709800Y-62752000D01*
X166912683Y-62667963D01*
X167067963Y-62512683D01*
X167152000Y-62309800D01*
X167152000Y-62090200D01*
X167067963Y-61887317D01*
X166912683Y-61732037D01*
X166709800Y-61648000D01*
X166490200Y-61648000D01*
X166287317Y-61732037D01*
X166132037Y-61887317D01*
X166048000Y-62090200D01*
X164201178Y-62090200D01*
X164077849Y-61966871D01*
X163874966Y-61882834D01*
X163655366Y-61882834D01*
X163452483Y-61966871D01*
X163297203Y-62122151D01*
X163213166Y-62325034D01*
X161455612Y-62325034D01*
X161467963Y-62312683D01*
X161552000Y-62109800D01*
X161552000Y-61890200D01*
X161467963Y-61687317D01*
X161312683Y-61532037D01*
X161109800Y-61448000D01*
X160890200Y-61448000D01*
X160687317Y-61532037D01*
X160532037Y-61687317D01*
X160448000Y-61890200D01*
X160448000Y-62005244D01*
X160309800Y-61948000D01*
X160090200Y-61948000D01*
X159887317Y-62032037D01*
X159732037Y-62187317D01*
X159648000Y-62390200D01*
X152377000Y-62390200D01*
X152377000Y-61190200D01*
X162648000Y-61190200D01*
X162648000Y-61409800D01*
X162732037Y-61612683D01*
X162887317Y-61767963D01*
X163090200Y-61852000D01*
X163309800Y-61852000D01*
X163512683Y-61767963D01*
X163667963Y-61612683D01*
X163718697Y-61490200D01*
X167048000Y-61490200D01*
X167048000Y-61709800D01*
X167132037Y-61912683D01*
X167287317Y-62067963D01*
X167490200Y-62152000D01*
X167709800Y-62152000D01*
X167912683Y-62067963D01*
X168067963Y-61912683D01*
X168152000Y-61709800D01*
X168152000Y-61490200D01*
X168067963Y-61287317D01*
X167912683Y-61132037D01*
X167709800Y-61048000D01*
X167490200Y-61048000D01*
X167287317Y-61132037D01*
X167132037Y-61287317D01*
X167048000Y-61490200D01*
X163718697Y-61490200D01*
X163752000Y-61409800D01*
X163752000Y-61190200D01*
X163667963Y-60987317D01*
X163512683Y-60832037D01*
X163309800Y-60748000D01*
X163090200Y-60748000D01*
X162887317Y-60832037D01*
X162732037Y-60987317D01*
X162648000Y-61190200D01*
X152377000Y-61190200D01*
X152377000Y-58490200D01*
X158248000Y-58490200D01*
X158248000Y-58709800D01*
X158332037Y-58912683D01*
X158487317Y-59067963D01*
X158690200Y-59152000D01*
X158909800Y-59152000D01*
X159112683Y-59067963D01*
X159267963Y-58912683D01*
X159352000Y-58709800D01*
X159352000Y-58490200D01*
X159267963Y-58287317D01*
X159112683Y-58132037D01*
X158909800Y-58048000D01*
X158690200Y-58048000D01*
X158487317Y-58132037D01*
X158332037Y-58287317D01*
X158248000Y-58490200D01*
X152377000Y-58490200D01*
X152377000Y-57377000D01*
X174073000Y-57377000D01*
X174073000Y-61800000D01*
G04 #@! TD*
M02*
