G04 #@! TF.GenerationSoftware,KiCad,Pcbnew,(5.0.1)-3*
G04 #@! TF.CreationDate,2020-01-13T08:35:40-05:00*
G04 #@! TF.ProjectId,SmartWatch,536D61727457617463682E6B69636164,rev?*
G04 #@! TF.SameCoordinates,Original*
G04 #@! TF.FileFunction,Soldermask,Bot*
G04 #@! TF.FilePolarity,Negative*
%FSLAX46Y46*%
G04 Gerber Fmt 4.6, Leading zero omitted, Abs format (unit mm)*
G04 Created by KiCad (PCBNEW (5.0.1)-3) date 1/13/2020 8:35:40 AM*
%MOMM*%
%LPD*%
G01*
G04 APERTURE LIST*
%ADD10C,0.100000*%
G04 APERTURE END LIST*
D10*
G36*
X154083376Y-79418100D02*
X154166633Y-79426300D01*
X154326852Y-79474902D01*
X154326855Y-79474903D01*
X154405165Y-79516761D01*
X154474520Y-79553832D01*
X154603949Y-79660051D01*
X154710168Y-79789480D01*
X154747239Y-79858835D01*
X154789097Y-79937145D01*
X154789098Y-79937148D01*
X154837700Y-80097367D01*
X154854112Y-80264000D01*
X154837700Y-80430633D01*
X154789098Y-80590852D01*
X154789097Y-80590855D01*
X154747239Y-80669165D01*
X154710168Y-80738520D01*
X154603949Y-80867949D01*
X154474520Y-80974168D01*
X154405165Y-81011239D01*
X154326855Y-81053097D01*
X154326852Y-81053098D01*
X154166633Y-81101700D01*
X154083376Y-81109900D01*
X154041749Y-81114000D01*
X153958251Y-81114000D01*
X153916624Y-81109900D01*
X153833367Y-81101700D01*
X153673148Y-81053098D01*
X153673145Y-81053097D01*
X153594835Y-81011239D01*
X153525480Y-80974168D01*
X153396051Y-80867949D01*
X153289832Y-80738520D01*
X153252761Y-80669165D01*
X153210903Y-80590855D01*
X153210902Y-80590852D01*
X153162300Y-80430633D01*
X153145888Y-80264000D01*
X153162300Y-80097367D01*
X153210902Y-79937148D01*
X153210903Y-79937145D01*
X153252761Y-79858835D01*
X153289832Y-79789480D01*
X153396051Y-79660051D01*
X153525480Y-79553832D01*
X153594835Y-79516761D01*
X153673145Y-79474903D01*
X153673148Y-79474902D01*
X153833367Y-79426300D01*
X153916624Y-79418100D01*
X153958251Y-79414000D01*
X154041749Y-79414000D01*
X154083376Y-79418100D01*
X154083376Y-79418100D01*
G37*
G36*
X156623376Y-79418100D02*
X156706633Y-79426300D01*
X156866852Y-79474902D01*
X156866855Y-79474903D01*
X156945165Y-79516761D01*
X157014520Y-79553832D01*
X157143949Y-79660051D01*
X157250168Y-79789480D01*
X157287239Y-79858835D01*
X157329097Y-79937145D01*
X157329098Y-79937148D01*
X157377700Y-80097367D01*
X157394112Y-80264000D01*
X157377700Y-80430633D01*
X157329098Y-80590852D01*
X157329097Y-80590855D01*
X157287239Y-80669165D01*
X157250168Y-80738520D01*
X157143949Y-80867949D01*
X157014520Y-80974168D01*
X156945165Y-81011239D01*
X156866855Y-81053097D01*
X156866852Y-81053098D01*
X156706633Y-81101700D01*
X156623376Y-81109900D01*
X156581749Y-81114000D01*
X156498251Y-81114000D01*
X156456624Y-81109900D01*
X156373367Y-81101700D01*
X156213148Y-81053098D01*
X156213145Y-81053097D01*
X156134835Y-81011239D01*
X156065480Y-80974168D01*
X155936051Y-80867949D01*
X155829832Y-80738520D01*
X155792761Y-80669165D01*
X155750903Y-80590855D01*
X155750902Y-80590852D01*
X155702300Y-80430633D01*
X155685888Y-80264000D01*
X155702300Y-80097367D01*
X155750902Y-79937148D01*
X155750903Y-79937145D01*
X155792761Y-79858835D01*
X155829832Y-79789480D01*
X155936051Y-79660051D01*
X156065480Y-79553832D01*
X156134835Y-79516761D01*
X156213145Y-79474903D01*
X156213148Y-79474902D01*
X156373367Y-79426300D01*
X156456624Y-79418100D01*
X156498251Y-79414000D01*
X156581749Y-79414000D01*
X156623376Y-79418100D01*
X156623376Y-79418100D01*
G37*
G36*
X154083376Y-76878100D02*
X154166633Y-76886300D01*
X154326852Y-76934902D01*
X154326855Y-76934903D01*
X154405165Y-76976761D01*
X154474520Y-77013832D01*
X154603949Y-77120051D01*
X154710168Y-77249480D01*
X154747239Y-77318835D01*
X154789097Y-77397145D01*
X154789098Y-77397148D01*
X154837700Y-77557367D01*
X154854112Y-77724000D01*
X154837700Y-77890633D01*
X154789098Y-78050852D01*
X154789097Y-78050855D01*
X154747239Y-78129165D01*
X154710168Y-78198520D01*
X154603949Y-78327949D01*
X154474520Y-78434168D01*
X154405165Y-78471239D01*
X154326855Y-78513097D01*
X154326852Y-78513098D01*
X154166633Y-78561700D01*
X154083376Y-78569900D01*
X154041749Y-78574000D01*
X153958251Y-78574000D01*
X153916624Y-78569900D01*
X153833367Y-78561700D01*
X153673148Y-78513098D01*
X153673145Y-78513097D01*
X153594835Y-78471239D01*
X153525480Y-78434168D01*
X153396051Y-78327949D01*
X153289832Y-78198520D01*
X153252761Y-78129165D01*
X153210903Y-78050855D01*
X153210902Y-78050852D01*
X153162300Y-77890633D01*
X153145888Y-77724000D01*
X153162300Y-77557367D01*
X153210902Y-77397148D01*
X153210903Y-77397145D01*
X153252761Y-77318835D01*
X153289832Y-77249480D01*
X153396051Y-77120051D01*
X153525480Y-77013832D01*
X153594835Y-76976761D01*
X153673145Y-76934903D01*
X153673148Y-76934902D01*
X153833367Y-76886300D01*
X153916624Y-76878100D01*
X153958251Y-76874000D01*
X154041749Y-76874000D01*
X154083376Y-76878100D01*
X154083376Y-76878100D01*
G37*
G36*
X156623376Y-76878100D02*
X156706633Y-76886300D01*
X156866852Y-76934902D01*
X156866855Y-76934903D01*
X156945165Y-76976761D01*
X157014520Y-77013832D01*
X157143949Y-77120051D01*
X157250168Y-77249480D01*
X157287239Y-77318835D01*
X157329097Y-77397145D01*
X157329098Y-77397148D01*
X157377700Y-77557367D01*
X157394112Y-77724000D01*
X157377700Y-77890633D01*
X157329098Y-78050852D01*
X157329097Y-78050855D01*
X157287239Y-78129165D01*
X157250168Y-78198520D01*
X157143949Y-78327949D01*
X157014520Y-78434168D01*
X156945165Y-78471239D01*
X156866855Y-78513097D01*
X156866852Y-78513098D01*
X156706633Y-78561700D01*
X156623376Y-78569900D01*
X156581749Y-78574000D01*
X156498251Y-78574000D01*
X156456624Y-78569900D01*
X156373367Y-78561700D01*
X156213148Y-78513098D01*
X156213145Y-78513097D01*
X156134835Y-78471239D01*
X156065480Y-78434168D01*
X155936051Y-78327949D01*
X155829832Y-78198520D01*
X155792761Y-78129165D01*
X155750903Y-78050855D01*
X155750902Y-78050852D01*
X155702300Y-77890633D01*
X155685888Y-77724000D01*
X155702300Y-77557367D01*
X155750902Y-77397148D01*
X155750903Y-77397145D01*
X155792761Y-77318835D01*
X155829832Y-77249480D01*
X155936051Y-77120051D01*
X156065480Y-77013832D01*
X156134835Y-76976761D01*
X156213145Y-76934903D01*
X156213148Y-76934902D01*
X156373367Y-76886300D01*
X156456624Y-76878100D01*
X156498251Y-76874000D01*
X156581749Y-76874000D01*
X156623376Y-76878100D01*
X156623376Y-76878100D01*
G37*
G36*
X156623376Y-74338100D02*
X156706633Y-74346300D01*
X156866852Y-74394902D01*
X156866855Y-74394903D01*
X156945165Y-74436761D01*
X157014520Y-74473832D01*
X157143949Y-74580051D01*
X157250168Y-74709480D01*
X157287239Y-74778835D01*
X157329097Y-74857145D01*
X157329098Y-74857148D01*
X157377700Y-75017367D01*
X157394112Y-75184000D01*
X157377700Y-75350633D01*
X157329098Y-75510852D01*
X157329097Y-75510855D01*
X157287239Y-75589165D01*
X157250168Y-75658520D01*
X157143949Y-75787949D01*
X157014520Y-75894168D01*
X156945165Y-75931239D01*
X156866855Y-75973097D01*
X156866852Y-75973098D01*
X156706633Y-76021700D01*
X156623376Y-76029900D01*
X156581749Y-76034000D01*
X156498251Y-76034000D01*
X156456624Y-76029900D01*
X156373367Y-76021700D01*
X156213148Y-75973098D01*
X156213145Y-75973097D01*
X156134835Y-75931239D01*
X156065480Y-75894168D01*
X155936051Y-75787949D01*
X155829832Y-75658520D01*
X155792761Y-75589165D01*
X155750903Y-75510855D01*
X155750902Y-75510852D01*
X155702300Y-75350633D01*
X155685888Y-75184000D01*
X155702300Y-75017367D01*
X155750902Y-74857148D01*
X155750903Y-74857145D01*
X155792761Y-74778835D01*
X155829832Y-74709480D01*
X155936051Y-74580051D01*
X156065480Y-74473832D01*
X156134835Y-74436761D01*
X156213145Y-74394903D01*
X156213148Y-74394902D01*
X156373367Y-74346300D01*
X156456624Y-74338100D01*
X156498251Y-74334000D01*
X156581749Y-74334000D01*
X156623376Y-74338100D01*
X156623376Y-74338100D01*
G37*
G36*
X154083376Y-74338100D02*
X154166633Y-74346300D01*
X154326852Y-74394902D01*
X154326855Y-74394903D01*
X154405165Y-74436761D01*
X154474520Y-74473832D01*
X154603949Y-74580051D01*
X154710168Y-74709480D01*
X154747239Y-74778835D01*
X154789097Y-74857145D01*
X154789098Y-74857148D01*
X154837700Y-75017367D01*
X154854112Y-75184000D01*
X154837700Y-75350633D01*
X154789098Y-75510852D01*
X154789097Y-75510855D01*
X154747239Y-75589165D01*
X154710168Y-75658520D01*
X154603949Y-75787949D01*
X154474520Y-75894168D01*
X154405165Y-75931239D01*
X154326855Y-75973097D01*
X154326852Y-75973098D01*
X154166633Y-76021700D01*
X154083376Y-76029900D01*
X154041749Y-76034000D01*
X153958251Y-76034000D01*
X153916624Y-76029900D01*
X153833367Y-76021700D01*
X153673148Y-75973098D01*
X153673145Y-75973097D01*
X153594835Y-75931239D01*
X153525480Y-75894168D01*
X153396051Y-75787949D01*
X153289832Y-75658520D01*
X153252761Y-75589165D01*
X153210903Y-75510855D01*
X153210902Y-75510852D01*
X153162300Y-75350633D01*
X153145888Y-75184000D01*
X153162300Y-75017367D01*
X153210902Y-74857148D01*
X153210903Y-74857145D01*
X153252761Y-74778835D01*
X153289832Y-74709480D01*
X153396051Y-74580051D01*
X153525480Y-74473832D01*
X153594835Y-74436761D01*
X153673145Y-74394903D01*
X153673148Y-74394902D01*
X153833367Y-74346300D01*
X153916624Y-74338100D01*
X153958251Y-74334000D01*
X154041749Y-74334000D01*
X154083376Y-74338100D01*
X154083376Y-74338100D01*
G37*
G36*
X154083376Y-71798100D02*
X154166633Y-71806300D01*
X154326852Y-71854902D01*
X154326855Y-71854903D01*
X154405165Y-71896761D01*
X154474520Y-71933832D01*
X154603949Y-72040051D01*
X154710168Y-72169480D01*
X154747239Y-72238835D01*
X154789097Y-72317145D01*
X154789098Y-72317148D01*
X154837700Y-72477367D01*
X154854112Y-72644000D01*
X154837700Y-72810633D01*
X154789098Y-72970852D01*
X154789097Y-72970855D01*
X154747239Y-73049165D01*
X154710168Y-73118520D01*
X154603949Y-73247949D01*
X154474520Y-73354168D01*
X154405165Y-73391239D01*
X154326855Y-73433097D01*
X154326852Y-73433098D01*
X154166633Y-73481700D01*
X154083376Y-73489900D01*
X154041749Y-73494000D01*
X153958251Y-73494000D01*
X153916624Y-73489900D01*
X153833367Y-73481700D01*
X153673148Y-73433098D01*
X153673145Y-73433097D01*
X153594835Y-73391239D01*
X153525480Y-73354168D01*
X153396051Y-73247949D01*
X153289832Y-73118520D01*
X153252761Y-73049165D01*
X153210903Y-72970855D01*
X153210902Y-72970852D01*
X153162300Y-72810633D01*
X153145888Y-72644000D01*
X153162300Y-72477367D01*
X153210902Y-72317148D01*
X153210903Y-72317145D01*
X153252761Y-72238835D01*
X153289832Y-72169480D01*
X153396051Y-72040051D01*
X153525480Y-71933832D01*
X153594835Y-71896761D01*
X153673145Y-71854903D01*
X153673148Y-71854902D01*
X153833367Y-71806300D01*
X153916624Y-71798100D01*
X153958251Y-71794000D01*
X154041749Y-71794000D01*
X154083376Y-71798100D01*
X154083376Y-71798100D01*
G37*
G36*
X156623376Y-71798100D02*
X156706633Y-71806300D01*
X156866852Y-71854902D01*
X156866855Y-71854903D01*
X156945165Y-71896761D01*
X157014520Y-71933832D01*
X157143949Y-72040051D01*
X157250168Y-72169480D01*
X157287239Y-72238835D01*
X157329097Y-72317145D01*
X157329098Y-72317148D01*
X157377700Y-72477367D01*
X157394112Y-72644000D01*
X157377700Y-72810633D01*
X157329098Y-72970852D01*
X157329097Y-72970855D01*
X157287239Y-73049165D01*
X157250168Y-73118520D01*
X157143949Y-73247949D01*
X157014520Y-73354168D01*
X156945165Y-73391239D01*
X156866855Y-73433097D01*
X156866852Y-73433098D01*
X156706633Y-73481700D01*
X156623376Y-73489900D01*
X156581749Y-73494000D01*
X156498251Y-73494000D01*
X156456624Y-73489900D01*
X156373367Y-73481700D01*
X156213148Y-73433098D01*
X156213145Y-73433097D01*
X156134835Y-73391239D01*
X156065480Y-73354168D01*
X155936051Y-73247949D01*
X155829832Y-73118520D01*
X155792761Y-73049165D01*
X155750903Y-72970855D01*
X155750902Y-72970852D01*
X155702300Y-72810633D01*
X155685888Y-72644000D01*
X155702300Y-72477367D01*
X155750902Y-72317148D01*
X155750903Y-72317145D01*
X155792761Y-72238835D01*
X155829832Y-72169480D01*
X155936051Y-72040051D01*
X156065480Y-71933832D01*
X156134835Y-71896761D01*
X156213145Y-71854903D01*
X156213148Y-71854902D01*
X156373367Y-71806300D01*
X156456624Y-71798100D01*
X156498251Y-71794000D01*
X156581749Y-71794000D01*
X156623376Y-71798100D01*
X156623376Y-71798100D01*
G37*
G36*
X154083376Y-69258100D02*
X154166633Y-69266300D01*
X154326852Y-69314902D01*
X154326855Y-69314903D01*
X154405165Y-69356761D01*
X154474520Y-69393832D01*
X154603949Y-69500051D01*
X154710168Y-69629480D01*
X154747239Y-69698835D01*
X154789097Y-69777145D01*
X154789098Y-69777148D01*
X154837700Y-69937367D01*
X154854112Y-70104000D01*
X154837700Y-70270633D01*
X154789098Y-70430852D01*
X154789097Y-70430855D01*
X154747239Y-70509165D01*
X154710168Y-70578520D01*
X154603949Y-70707949D01*
X154474520Y-70814168D01*
X154405165Y-70851239D01*
X154326855Y-70893097D01*
X154326852Y-70893098D01*
X154166633Y-70941700D01*
X154083376Y-70949900D01*
X154041749Y-70954000D01*
X153958251Y-70954000D01*
X153916624Y-70949900D01*
X153833367Y-70941700D01*
X153673148Y-70893098D01*
X153673145Y-70893097D01*
X153594835Y-70851239D01*
X153525480Y-70814168D01*
X153396051Y-70707949D01*
X153289832Y-70578520D01*
X153252761Y-70509165D01*
X153210903Y-70430855D01*
X153210902Y-70430852D01*
X153162300Y-70270633D01*
X153145888Y-70104000D01*
X153162300Y-69937367D01*
X153210902Y-69777148D01*
X153210903Y-69777145D01*
X153252761Y-69698835D01*
X153289832Y-69629480D01*
X153396051Y-69500051D01*
X153525480Y-69393832D01*
X153594835Y-69356761D01*
X153673145Y-69314903D01*
X153673148Y-69314902D01*
X153833367Y-69266300D01*
X153916624Y-69258100D01*
X153958251Y-69254000D01*
X154041749Y-69254000D01*
X154083376Y-69258100D01*
X154083376Y-69258100D01*
G37*
G36*
X156623376Y-69258100D02*
X156706633Y-69266300D01*
X156866852Y-69314902D01*
X156866855Y-69314903D01*
X156945165Y-69356761D01*
X157014520Y-69393832D01*
X157143949Y-69500051D01*
X157250168Y-69629480D01*
X157287239Y-69698835D01*
X157329097Y-69777145D01*
X157329098Y-69777148D01*
X157377700Y-69937367D01*
X157394112Y-70104000D01*
X157377700Y-70270633D01*
X157329098Y-70430852D01*
X157329097Y-70430855D01*
X157287239Y-70509165D01*
X157250168Y-70578520D01*
X157143949Y-70707949D01*
X157014520Y-70814168D01*
X156945165Y-70851239D01*
X156866855Y-70893097D01*
X156866852Y-70893098D01*
X156706633Y-70941700D01*
X156623376Y-70949900D01*
X156581749Y-70954000D01*
X156498251Y-70954000D01*
X156456624Y-70949900D01*
X156373367Y-70941700D01*
X156213148Y-70893098D01*
X156213145Y-70893097D01*
X156134835Y-70851239D01*
X156065480Y-70814168D01*
X155936051Y-70707949D01*
X155829832Y-70578520D01*
X155792761Y-70509165D01*
X155750903Y-70430855D01*
X155750902Y-70430852D01*
X155702300Y-70270633D01*
X155685888Y-70104000D01*
X155702300Y-69937367D01*
X155750902Y-69777148D01*
X155750903Y-69777145D01*
X155792761Y-69698835D01*
X155829832Y-69629480D01*
X155936051Y-69500051D01*
X156065480Y-69393832D01*
X156134835Y-69356761D01*
X156213145Y-69314903D01*
X156213148Y-69314902D01*
X156373367Y-69266300D01*
X156456624Y-69258100D01*
X156498251Y-69254000D01*
X156581749Y-69254000D01*
X156623376Y-69258100D01*
X156623376Y-69258100D01*
G37*
G36*
X154850000Y-68414000D02*
X153150000Y-68414000D01*
X153150000Y-66714000D01*
X154850000Y-66714000D01*
X154850000Y-68414000D01*
X154850000Y-68414000D01*
G37*
G36*
X156623376Y-66718100D02*
X156706633Y-66726300D01*
X156866852Y-66774902D01*
X156866855Y-66774903D01*
X156945165Y-66816761D01*
X157014520Y-66853832D01*
X157143949Y-66960051D01*
X157250168Y-67089480D01*
X157287239Y-67158835D01*
X157329097Y-67237145D01*
X157329098Y-67237148D01*
X157377700Y-67397367D01*
X157394112Y-67564000D01*
X157377700Y-67730633D01*
X157329098Y-67890852D01*
X157329097Y-67890855D01*
X157287239Y-67969165D01*
X157250168Y-68038520D01*
X157143949Y-68167949D01*
X157014520Y-68274168D01*
X156945165Y-68311239D01*
X156866855Y-68353097D01*
X156866852Y-68353098D01*
X156706633Y-68401700D01*
X156623376Y-68409900D01*
X156581749Y-68414000D01*
X156498251Y-68414000D01*
X156456624Y-68409900D01*
X156373367Y-68401700D01*
X156213148Y-68353098D01*
X156213145Y-68353097D01*
X156134835Y-68311239D01*
X156065480Y-68274168D01*
X155936051Y-68167949D01*
X155829832Y-68038520D01*
X155792761Y-67969165D01*
X155750903Y-67890855D01*
X155750902Y-67890852D01*
X155702300Y-67730633D01*
X155685888Y-67564000D01*
X155702300Y-67397367D01*
X155750902Y-67237148D01*
X155750903Y-67237145D01*
X155792761Y-67158835D01*
X155829832Y-67089480D01*
X155936051Y-66960051D01*
X156065480Y-66853832D01*
X156134835Y-66816761D01*
X156213145Y-66774903D01*
X156213148Y-66774902D01*
X156373367Y-66726300D01*
X156456624Y-66718100D01*
X156498251Y-66714000D01*
X156581749Y-66714000D01*
X156623376Y-66718100D01*
X156623376Y-66718100D01*
G37*
M02*
