M48
;DRILL file {KiCad (5.0.1)-3} date 1/13/2020 8:35:41 AM
;FORMAT={-:-/ absolute / inch / decimal}
FMAT,2
INCH,TZ
T1C0.0079
T2C0.0118
T3C0.0157
T4C0.0394
%
G90
G05
M72
T1
X6.8874Y-3.0338
X6.8874Y-3.085
X6.8874Y-3.1362
X6.9626Y-3.0338
X6.9626Y-3.085
X6.9626Y-3.1362
T2
X6.0787Y-2.9134
X6.085Y-2.3491
X6.085Y-2.4909
X6.0856Y-3.3391
X6.0856Y-3.4809
X6.1575Y-2.3465
X6.1575Y-3.2756
X6.189Y-2.5984
X6.1969Y-3.2835
X6.2126Y-2.5276
X6.2205Y-2.3465
X6.2205Y-3.2756
X6.2441Y-2.5433
X6.252Y-2.3071
X6.2598Y-3.4961
X6.2835Y-2.9449
X6.3071Y-2.4606
X6.3386Y-2.4409
X6.34Y-2.355
X6.3858Y-3.1575
X6.3889Y-2.5669
X6.4103Y-3.0227
X6.4173Y-2.7795
X6.4252Y-2.4134
X6.4331Y-3.0315
X6.44Y-3.24
X6.4474Y-2.4581
X6.4488Y-2.6535
X6.4882Y-2.5512
X6.4882Y-3.0236
X6.5197Y-3.0551
X6.5213Y-2.6204
X6.54Y-3.07
X6.54Y-3.0917
X6.5512Y-2.6378
X6.5591Y-2.3937
X6.5591Y-2.4488
X6.5748Y-2.4961
X6.5827Y-2.9291
X6.5984Y-2.4252
X6.6142Y-3.0472
X6.626Y-2.5591
X6.63Y-3.07
X6.63Y-3.0917
X6.6437Y-2.313
X6.6437Y-2.3425
X6.6437Y-2.372
X6.6437Y-2.4016
X6.6496Y-2.752
X6.6614Y-2.5984
X6.6634Y-2.2933
X6.6634Y-2.4311
X6.6772Y-2.4852
X6.6929Y-2.2933
X6.6929Y-2.4311
X6.7Y-3.24
X6.7008Y-2.7766
X6.7205Y-2.5
X6.7224Y-2.2933
X6.7224Y-2.4311
X6.7283Y-2.6535
X6.7283Y-2.7087
X6.7323Y-2.5984
X6.7441Y-2.4764
X6.752Y-2.2933
X6.752Y-2.4311
X6.7638Y-3.
X6.7815Y-2.2933
X6.7815Y-2.4409
X6.7874Y-2.9764
X6.7913Y-2.4606
X6.7913Y-2.4902
X6.7953Y-2.7165
X6.7953Y-2.7766
X6.7992Y-2.5984
X6.811Y-2.2933
X6.8189Y-2.8504
X6.8373Y-2.6772
X6.8373Y-2.7343
X6.8373Y-2.7559
X6.8406Y-2.2933
X6.8406Y-2.3524
X6.8406Y-2.372
X6.8406Y-2.4016
X6.8406Y-2.4311
X6.8406Y-2.4606
X6.8406Y-2.4902
X6.8425Y-2.8425
X6.8602Y-2.4508
X6.8898Y-2.4508
X6.9193Y-2.4508
X6.93Y-2.7
X6.94Y-2.72
X6.9449Y-2.7598
X6.9488Y-2.4508
X6.9528Y-2.8189
X6.9567Y-2.8976
X6.9606Y-2.5276
X6.9783Y-2.4508
X6.9803Y-2.6772
X7.Y-2.6102
X7.0079Y-2.4508
X7.0079Y-3.0079
X7.0157Y-3.1575
X7.0236Y-2.5197
X7.0374Y-2.4508
X7.0394Y-3.0079
X7.0472Y-3.1575
X7.0512Y-2.6732
X7.0571Y-2.2835
X7.0571Y-2.313
X7.0571Y-2.3425
X7.0571Y-2.372
X7.0571Y-2.4016
X7.0571Y-2.4311
X7.062Y-2.7913
X7.062Y-2.8543
X7.063Y-2.9173
T3
X6.2382Y-2.8189
X6.3307Y-2.811
X6.3437Y-3.25
X6.4Y-3.25
X6.4Y-3.25
X6.4575Y-2.9339
X6.63Y-3.37
X6.66Y-3.37
X6.69Y-3.37
X6.75Y-3.15
X6.75Y-3.2
X6.8898Y-3.53
X6.9291Y-3.53
X6.937Y-2.8583
X6.9685Y-3.53
T4
X6.063Y-2.66
X6.063Y-2.76
X6.063Y-2.86
X6.063Y-2.96
X6.063Y-3.06
X6.063Y-3.16
X6.163Y-2.66
X6.163Y-2.76
X6.163Y-2.86
X6.163Y-2.96
X6.163Y-3.06
X6.163Y-3.16
T0
M30
